<?xml version="1.0" encoding="UTF-8" standalone="no"?>
<!DOCTYPE svg PUBLIC "-//W3C//DTD SVG 1.1//EN"
 "http://www.w3.org/Graphics/SVG/1.1/DTD/svg11.dtd">
<!-- Generated by graphviz version 2.43.0 (0)
 -->
<!-- Title: librawspeed/decompressors/DeflateDecompressor.h Pages: 1 -->
<svg width="398pt" height="117pt"
 viewBox="0.00 0.00 397.50 117.00" xmlns="http://www.w3.org/2000/svg" xmlns:xlink="http://www.w3.org/1999/xlink">
<g id="graph0" class="graph" transform="scale(1 1) rotate(0) translate(4 113)">
<title>librawspeed/decompressors/DeflateDecompressor.h</title>
<!-- Node1 -->
<g id="node1" class="node">
<title>Node1</title>
<g id="a_node1"><a xlink:title=" ">
<polygon fill="#bfbfbf" stroke="black" points="126,-78.5 126,-108.5 279,-108.5 279,-78.5 126,-78.5"/>
<text text-anchor="start" x="134" y="-96.5" font-family="Helvetica,sans-Serif" font-size="10.00">librawspeed/decompressors</text>
<text text-anchor="middle" x="202.5" y="-85.5" font-family="Helvetica,sans-Serif" font-size="10.00">/DeflateDecompressor.h</text>
</a>
</g>
</g>
<!-- Node2 -->
<g id="node2" class="node">
<title>Node2</title>
<g id="a_node2"><a xlink:href="../../d2/d95/_deflate_decompressor_benchmark_8cpp.html" target="_top" xlink:title=" ">
<polygon fill="none" stroke="black" points="0,-0.5 0,-41.5 201,-41.5 201,-0.5 0,-0.5"/>
<text text-anchor="start" x="8" y="-29.5" font-family="Helvetica,sans-Serif" font-size="10.00">/build/rawspeed/bench</text>
<text text-anchor="start" x="8" y="-18.5" font-family="Helvetica,sans-Serif" font-size="10.00">/librawspeed/decompressors</text>
<text text-anchor="middle" x="100.5" y="-7.5" font-family="Helvetica,sans-Serif" font-size="10.00">/DeflateDecompressorBenchmark.cpp</text>
</a>
</g>
</g>
<!-- Node1&#45;&gt;Node2 -->
<g id="edge1" class="edge">
<title>Node1&#45;&gt;Node2</title>
<path fill="none" stroke="midnightblue" d="M173.54,-72.48C159.53,-62.8 142.77,-51.22 128.84,-41.59"/>
<polygon fill="midnightblue" stroke="midnightblue" points="171.64,-75.43 181.86,-78.23 175.62,-69.67 171.64,-75.43"/>
</g>
<!-- Node3 -->
<g id="node3" class="node">
<title>Node3</title>
<g id="a_node3"><a xlink:href="../../d4/dd6/_abstract_dng_decompressor_8cpp.html" target="_top" xlink:title=" ">
<polygon fill="none" stroke="black" points="219.5,-6 219.5,-36 389.5,-36 389.5,-6 219.5,-6"/>
<text text-anchor="start" x="227.5" y="-24" font-family="Helvetica,sans-Serif" font-size="10.00">librawspeed/decompressors</text>
<text text-anchor="middle" x="304.5" y="-13" font-family="Helvetica,sans-Serif" font-size="10.00">/AbstractDngDecompressor.cpp</text>
</a>
</g>
</g>
<!-- Node1&#45;&gt;Node3 -->
<g id="edge2" class="edge">
<title>Node1&#45;&gt;Node3</title>
<path fill="none" stroke="midnightblue" d="M231.54,-72.43C248.38,-60.79 269.16,-46.42 284.24,-36"/>
<polygon fill="midnightblue" stroke="midnightblue" points="229.38,-69.67 223.14,-78.23 233.36,-75.43 229.38,-69.67"/>
</g>
</g>
</svg>
