<?xml version="1.0" encoding="UTF-8" standalone="no"?>
<!DOCTYPE svg PUBLIC "-//W3C//DTD SVG 1.1//EN"
 "http://www.w3.org/Graphics/SVG/1.1/DTD/svg11.dtd">
<!-- Generated by graphviz version 2.43.0 (0)
 -->
<!-- Title: rawspeed::FujiDecompressor::FujiDecompressor Pages: 1 -->
<svg width="686pt" height="137pt"
 viewBox="0.00 0.00 686.00 137.00" xmlns="http://www.w3.org/2000/svg" xmlns:xlink="http://www.w3.org/1999/xlink">
<g id="graph0" class="graph" transform="scale(1 1) rotate(0) translate(4 133)">
<title>rawspeed::FujiDecompressor::FujiDecompressor</title>
<!-- Node1 -->
<g id="node1" class="node">
<title>Node1</title>
<g id="a_node1"><a xlink:title=" ">
<polygon fill="#bfbfbf" stroke="black" points="0,-49.5 0,-79.5 157,-79.5 157,-49.5 0,-49.5"/>
<text text-anchor="start" x="8" y="-67.5" font-family="Helvetica,sans-Serif" font-size="10.00">rawspeed::FujiDecompressor</text>
<text text-anchor="middle" x="78.5" y="-56.5" font-family="Helvetica,sans-Serif" font-size="10.00">::FujiDecompressor</text>
</a>
</g>
</g>
<!-- Node1&#45;&gt;Node1 -->
<g id="edge4" class="edge">
<title>Node1&#45;&gt;Node1</title>
<path fill="none" stroke="midnightblue" d="M45.04,-79.66C36.97,-89.06 48.12,-98 78.5,-98 97.01,-98 108.38,-94.68 112.62,-89.96"/>
<polygon fill="midnightblue" stroke="midnightblue" points="116.09,-89.42 111.96,-79.66 109.1,-89.86 116.09,-89.42"/>
</g>
<!-- Node2 -->
<g id="node2" class="node">
<title>Node2</title>
<g id="a_node2"><a xlink:href="../../de/d5f/classrawspeed_1_1_fuji_decompressor.html#af46a33a3077f5442f092d9dda37898bc" target="_top" xlink:title=" ">
<polygon fill="none" stroke="black" points="193,-98.5 193,-128.5 350,-128.5 350,-98.5 193,-98.5"/>
<text text-anchor="start" x="201" y="-116.5" font-family="Helvetica,sans-Serif" font-size="10.00">rawspeed::FujiDecompressor</text>
<text text-anchor="middle" x="271.5" y="-105.5" font-family="Helvetica,sans-Serif" font-size="10.00">::fuji_compressed_load_raw</text>
</a>
</g>
</g>
<!-- Node1&#45;&gt;Node2 -->
<g id="edge1" class="edge">
<title>Node1&#45;&gt;Node2</title>
<path fill="none" stroke="midnightblue" d="M138.1,-79.53C158.36,-84.73 181.24,-90.6 202.21,-95.98"/>
<polygon fill="midnightblue" stroke="midnightblue" points="201.45,-99.4 212.01,-98.49 203.19,-92.62 201.45,-99.4"/>
</g>
<!-- Node5 -->
<g id="node5" class="node">
<title>Node5</title>
<g id="a_node5"><a xlink:href="../../d7/de5/structrawspeed_1_1_fuji_decompressor_1_1_fuji_header.html#a3d36061e446f0ffbb71174f3ba3c6625" target="_top" xlink:title=" ">
<polygon fill="none" stroke="black" points="193,-49.5 193,-79.5 350,-79.5 350,-49.5 193,-49.5"/>
<text text-anchor="start" x="201" y="-67.5" font-family="Helvetica,sans-Serif" font-size="10.00">rawspeed::FujiDecompressor</text>
<text text-anchor="middle" x="271.5" y="-56.5" font-family="Helvetica,sans-Serif" font-size="10.00">::FujiHeader::FujiHeader</text>
</a>
</g>
</g>
<!-- Node1&#45;&gt;Node5 -->
<g id="edge5" class="edge">
<title>Node1&#45;&gt;Node5</title>
<path fill="none" stroke="midnightblue" d="M157.19,-64.5C165.65,-64.5 174.31,-64.5 182.88,-64.5"/>
<polygon fill="midnightblue" stroke="midnightblue" points="182.88,-68 192.88,-64.5 182.88,-61 182.88,-68"/>
</g>
<!-- Node8 -->
<g id="node8" class="node">
<title>Node8</title>
<g id="a_node8"><a xlink:href="../../dd/d12/classrawspeed_1_1_raw_image.html#a4a01d153bb4518ddfaac18a5d0694154" target="_top" xlink:title=" ">
<polygon fill="none" stroke="black" points="210.5,-0.5 210.5,-30.5 332.5,-30.5 332.5,-0.5 210.5,-0.5"/>
<text text-anchor="start" x="218.5" y="-18.5" font-family="Helvetica,sans-Serif" font-size="10.00">rawspeed::RawImage</text>
<text text-anchor="middle" x="271.5" y="-7.5" font-family="Helvetica,sans-Serif" font-size="10.00">::RawImage</text>
</a>
</g>
</g>
<!-- Node1&#45;&gt;Node8 -->
<g id="edge9" class="edge">
<title>Node1&#45;&gt;Node8</title>
<path fill="none" stroke="midnightblue" d="M138.1,-49.47C158.36,-44.27 181.24,-38.4 202.21,-33.02"/>
<polygon fill="midnightblue" stroke="midnightblue" points="203.19,-36.38 212.01,-30.51 201.45,-29.6 203.19,-36.38"/>
</g>
<!-- Node3 -->
<g id="node3" class="node">
<title>Node3</title>
<g id="a_node3"><a xlink:href="../../dd/da0/classrawspeed_1_1_byte_stream.html#ab77bbfb370f041df54b9b67e0d8ff711" target="_top" xlink:title=" ">
<polygon fill="none" stroke="black" points="386,-98.5 386,-128.5 514,-128.5 514,-98.5 386,-98.5"/>
<text text-anchor="start" x="394" y="-116.5" font-family="Helvetica,sans-Serif" font-size="10.00">rawspeed::ByteStream</text>
<text text-anchor="middle" x="450" y="-105.5" font-family="Helvetica,sans-Serif" font-size="10.00">::skipBytes</text>
</a>
</g>
</g>
<!-- Node2&#45;&gt;Node3 -->
<g id="edge2" class="edge">
<title>Node2&#45;&gt;Node3</title>
<path fill="none" stroke="midnightblue" d="M350.17,-113.5C358.65,-113.5 367.27,-113.5 375.7,-113.5"/>
<polygon fill="midnightblue" stroke="midnightblue" points="375.86,-117 385.86,-113.5 375.86,-110 375.86,-117"/>
</g>
<!-- Node4 -->
<g id="node4" class="node">
<title>Node4</title>
<g id="a_node4"><a xlink:href="../../dd/da0/classrawspeed_1_1_byte_stream.html#a33bbb3baf3bb9730f9da8765175ec4ce" target="_top" xlink:title=" ">
<polygon fill="none" stroke="black" points="550,-73.5 550,-103.5 678,-103.5 678,-73.5 550,-73.5"/>
<text text-anchor="start" x="558" y="-91.5" font-family="Helvetica,sans-Serif" font-size="10.00">rawspeed::ByteStream</text>
<text text-anchor="middle" x="614" y="-80.5" font-family="Helvetica,sans-Serif" font-size="10.00">::check</text>
</a>
</g>
</g>
<!-- Node3&#45;&gt;Node4 -->
<g id="edge3" class="edge">
<title>Node3&#45;&gt;Node4</title>
<path fill="none" stroke="midnightblue" d="M514.1,-103.76C522.53,-102.46 531.23,-101.12 539.81,-99.79"/>
<polygon fill="midnightblue" stroke="midnightblue" points="540.46,-103.24 549.81,-98.25 539.39,-96.32 540.46,-103.24"/>
</g>
<!-- Node6 -->
<g id="node6" class="node">
<title>Node6</title>
<g id="a_node6"><a xlink:href="../../dd/da0/classrawspeed_1_1_byte_stream.html#aefa3f71685c6dfe217732a3a23d4e34e" target="_top" xlink:title=" ">
<polygon fill="none" stroke="black" points="386,-49.5 386,-79.5 514,-79.5 514,-49.5 386,-49.5"/>
<text text-anchor="start" x="394" y="-67.5" font-family="Helvetica,sans-Serif" font-size="10.00">rawspeed::ByteStream</text>
<text text-anchor="middle" x="450" y="-56.5" font-family="Helvetica,sans-Serif" font-size="10.00">::getByte</text>
</a>
</g>
</g>
<!-- Node5&#45;&gt;Node6 -->
<g id="edge6" class="edge">
<title>Node5&#45;&gt;Node6</title>
<path fill="none" stroke="midnightblue" d="M350.17,-64.5C358.65,-64.5 367.27,-64.5 375.7,-64.5"/>
<polygon fill="midnightblue" stroke="midnightblue" points="375.86,-68 385.86,-64.5 375.86,-61 375.86,-68"/>
</g>
<!-- Node7 -->
<g id="node7" class="node">
<title>Node7</title>
<g id="a_node7"><a xlink:href="../../dd/da0/classrawspeed_1_1_byte_stream.html#a36ff2619c262c246a208edd76e6372c5" target="_top" xlink:title=" ">
<polygon fill="none" stroke="black" points="386,-0.5 386,-30.5 514,-30.5 514,-0.5 386,-0.5"/>
<text text-anchor="start" x="394" y="-18.5" font-family="Helvetica,sans-Serif" font-size="10.00">rawspeed::ByteStream</text>
<text text-anchor="middle" x="450" y="-7.5" font-family="Helvetica,sans-Serif" font-size="10.00">::getU16</text>
</a>
</g>
</g>
<!-- Node5&#45;&gt;Node7 -->
<g id="edge8" class="edge">
<title>Node5&#45;&gt;Node7</title>
<path fill="none" stroke="midnightblue" d="M326.9,-49.4C345.27,-44.3 365.95,-38.56 384.99,-33.27"/>
<polygon fill="midnightblue" stroke="midnightblue" points="386.08,-36.6 394.78,-30.55 384.21,-29.85 386.08,-36.6"/>
</g>
<!-- Node6&#45;&gt;Node4 -->
<g id="edge7" class="edge">
<title>Node6&#45;&gt;Node4</title>
<path fill="none" stroke="midnightblue" d="M514.1,-73.85C522.53,-75.1 531.23,-76.39 539.81,-77.66"/>
<polygon fill="midnightblue" stroke="midnightblue" points="539.4,-81.13 549.81,-79.14 540.43,-74.21 539.4,-81.13"/>
</g>
</g>
</svg>
