<?xml version="1.0" encoding="UTF-8" standalone="no"?>
<!DOCTYPE svg PUBLIC "-//W3C//DTD SVG 1.1//EN"
 "http://www.w3.org/Graphics/SVG/1.1/DTD/svg11.dtd">
<!-- Generated by graphviz version 2.43.0 (0)
 -->
<!-- Title: rawspeed::FujiDecompressor::fuji_compressed_load_raw Pages: 1 -->
<svg width="530pt" height="57pt"
 viewBox="0.00 0.00 530.00 57.00" xmlns="http://www.w3.org/2000/svg" xmlns:xlink="http://www.w3.org/1999/xlink">
<g id="graph0" class="graph" transform="scale(1 1) rotate(0) translate(4 53)">
<title>rawspeed::FujiDecompressor::fuji_compressed_load_raw</title>
<!-- Node1 -->
<g id="node1" class="node">
<title>Node1</title>
<g id="a_node1"><a xlink:title=" ">
<polygon fill="#bfbfbf" stroke="black" points="365,-0.5 365,-30.5 522,-30.5 522,-0.5 365,-0.5"/>
<text text-anchor="start" x="373" y="-18.5" font-family="Helvetica,sans-Serif" font-size="10.00">rawspeed::FujiDecompressor</text>
<text text-anchor="middle" x="443.5" y="-7.5" font-family="Helvetica,sans-Serif" font-size="10.00">::fuji_compressed_load_raw</text>
</a>
</g>
</g>
<!-- Node2 -->
<g id="node2" class="node">
<title>Node2</title>
<g id="a_node2"><a xlink:href="../../de/d5f/classrawspeed_1_1_fuji_decompressor.html#abcbbb2d1df6a5e2cb8fd423386741b62" target="_top" xlink:title=" ">
<polygon fill="none" stroke="black" points="172,-0.5 172,-30.5 329,-30.5 329,-0.5 172,-0.5"/>
<text text-anchor="start" x="180" y="-18.5" font-family="Helvetica,sans-Serif" font-size="10.00">rawspeed::FujiDecompressor</text>
<text text-anchor="middle" x="250.5" y="-7.5" font-family="Helvetica,sans-Serif" font-size="10.00">::FujiDecompressor</text>
</a>
</g>
</g>
<!-- Node1&#45;&gt;Node2 -->
<g id="edge1" class="edge">
<title>Node1&#45;&gt;Node2</title>
<path fill="none" stroke="midnightblue" d="M354.81,-15.5C346.24,-15.5 337.58,-15.5 329.12,-15.5"/>
<polygon fill="midnightblue" stroke="midnightblue" points="354.81,-19 364.81,-15.5 354.81,-12 354.81,-19"/>
</g>
<!-- Node2&#45;&gt;Node2 -->
<g id="edge2" class="edge">
<title>Node2&#45;&gt;Node2</title>
<path fill="none" stroke="midnightblue" d="M282.84,-40.96C278.83,-45.68 268.05,-49 250.5,-49 221.71,-49 211.13,-40.06 218.78,-30.66"/>
<polygon fill="midnightblue" stroke="midnightblue" points="286.31,-40.43 282.22,-30.66 279.33,-40.85 286.31,-40.43"/>
</g>
<!-- Node3 -->
<g id="node3" class="node">
<title>Node3</title>
<g id="a_node3"><a xlink:href="../../da/d77/fuzz_2librawspeed_2decompressors_2_fuji_decompressor_8cpp.html#a1c473c9665269a78ef9001573a6995df" target="_top" xlink:title=" ">
<polygon fill="none" stroke="black" points="0,-6 0,-25 136,-25 136,-6 0,-6"/>
<text text-anchor="middle" x="68" y="-13" font-family="Helvetica,sans-Serif" font-size="10.00">LLVMFuzzerTestOneInput</text>
</a>
</g>
</g>
<!-- Node2&#45;&gt;Node3 -->
<g id="edge3" class="edge">
<title>Node2&#45;&gt;Node3</title>
<path fill="none" stroke="midnightblue" d="M161.77,-15.5C153.12,-15.5 144.43,-15.5 136.03,-15.5"/>
<polygon fill="midnightblue" stroke="midnightblue" points="161.9,-19 171.9,-15.5 161.9,-12 161.9,-19"/>
</g>
</g>
</svg>
