<?xml version="1.0" encoding="UTF-8" standalone="no"?>
<!DOCTYPE svg PUBLIC "-//W3C//DTD SVG 1.1//EN"
 "http://www.w3.org/Graphics/SVG/1.1/DTD/svg11.dtd">
<!-- Generated by graphviz version 2.43.0 (0)
 -->
<!-- Title: librawspeed/parsers/CiffParserException.h Pages: 1 -->
<svg width="772pt" height="117pt"
 viewBox="0.00 0.00 772.00 117.00" xmlns="http://www.w3.org/2000/svg" xmlns:xlink="http://www.w3.org/1999/xlink">
<g id="graph0" class="graph" transform="scale(1 1) rotate(0) translate(4 113)">
<title>librawspeed/parsers/CiffParserException.h</title>
<!-- Node1 -->
<g id="node1" class="node">
<title>Node1</title>
<g id="a_node1"><a xlink:title=" ">
<polygon fill="#bfbfbf" stroke="black" points="283,-78.5 283,-108.5 406,-108.5 406,-78.5 283,-78.5"/>
<text text-anchor="start" x="291" y="-96.5" font-family="Helvetica,sans-Serif" font-size="10.00">librawspeed/parsers</text>
<text text-anchor="middle" x="344.5" y="-85.5" font-family="Helvetica,sans-Serif" font-size="10.00">/CiffParserException.h</text>
</a>
</g>
</g>
<!-- Node2 -->
<g id="node2" class="node">
<title>Node2</title>
<g id="a_node2"><a xlink:href="../../d9/dec/_ciff_parser_8cpp.html" target="_top" xlink:title=" ">
<polygon fill="none" stroke="black" points="0,-6 0,-36 115,-36 115,-6 0,-6"/>
<text text-anchor="start" x="8" y="-24" font-family="Helvetica,sans-Serif" font-size="10.00">librawspeed/parsers</text>
<text text-anchor="middle" x="57.5" y="-13" font-family="Helvetica,sans-Serif" font-size="10.00">/CiffParser.cpp</text>
</a>
</g>
</g>
<!-- Node1&#45;&gt;Node2 -->
<g id="edge1" class="edge">
<title>Node1&#45;&gt;Node2</title>
<path fill="none" stroke="midnightblue" d="M272.88,-77.46C229.47,-68.01 173.08,-55.16 123.5,-42 116.67,-40.19 109.49,-38.15 102.47,-36.08"/>
<polygon fill="midnightblue" stroke="midnightblue" points="272.26,-80.9 282.77,-79.6 273.74,-74.06 272.26,-80.9"/>
</g>
<!-- Node3 -->
<g id="node3" class="node">
<title>Node3</title>
<g id="a_node3"><a xlink:href="../../dc/d4a/_raw_parser_8cpp.html" target="_top" xlink:title=" ">
<polygon fill="none" stroke="black" points="133,-6 133,-36 248,-36 248,-6 133,-6"/>
<text text-anchor="start" x="141" y="-24" font-family="Helvetica,sans-Serif" font-size="10.00">librawspeed/parsers</text>
<text text-anchor="middle" x="190.5" y="-13" font-family="Helvetica,sans-Serif" font-size="10.00">/RawParser.cpp</text>
</a>
</g>
</g>
<!-- Node1&#45;&gt;Node3 -->
<g id="edge2" class="edge">
<title>Node1&#45;&gt;Node3</title>
<path fill="none" stroke="midnightblue" d="M304.5,-74.19C278.51,-62.29 245.15,-47.02 221.24,-36.07"/>
<polygon fill="midnightblue" stroke="midnightblue" points="303.16,-77.42 313.71,-78.4 306.07,-71.06 303.16,-77.42"/>
</g>
<!-- Node4 -->
<g id="node4" class="node">
<title>Node4</title>
<g id="a_node4"><a xlink:href="../../d2/dbc/_ciff_entry_8cpp.html" target="_top" xlink:title=" ">
<polygon fill="none" stroke="black" points="266.5,-11.5 266.5,-30.5 422.5,-30.5 422.5,-11.5 266.5,-11.5"/>
<text text-anchor="middle" x="344.5" y="-18.5" font-family="Helvetica,sans-Serif" font-size="10.00">librawspeed/tiff/CiffEntry.cpp</text>
</a>
</g>
</g>
<!-- Node1&#45;&gt;Node4 -->
<g id="edge3" class="edge">
<title>Node1&#45;&gt;Node4</title>
<path fill="none" stroke="midnightblue" d="M344.5,-68.09C344.5,-55.21 344.5,-40.2 344.5,-30.89"/>
<polygon fill="midnightblue" stroke="midnightblue" points="341,-68.23 344.5,-78.23 348,-68.23 341,-68.23"/>
</g>
<!-- Node5 -->
<g id="node5" class="node">
<title>Node5</title>
<g id="a_node5"><a xlink:href="../../dc/d18/_ciff_i_f_d_8cpp.html" target="_top" xlink:title=" ">
<polygon fill="none" stroke="black" points="440.5,-11.5 440.5,-30.5 588.5,-30.5 588.5,-11.5 440.5,-11.5"/>
<text text-anchor="middle" x="514.5" y="-18.5" font-family="Helvetica,sans-Serif" font-size="10.00">librawspeed/tiff/CiffIFD.cpp</text>
</a>
</g>
</g>
<!-- Node1&#45;&gt;Node5 -->
<g id="edge4" class="edge">
<title>Node1&#45;&gt;Node5</title>
<path fill="none" stroke="midnightblue" d="M387.75,-74.56C421.8,-60.44 467.73,-41.4 493.92,-30.53"/>
<polygon fill="midnightblue" stroke="midnightblue" points="386.39,-71.34 378.49,-78.4 389.07,-77.8 386.39,-71.34"/>
</g>
<!-- Node6 -->
<g id="node6" class="node">
<title>Node6</title>
<g id="a_node6"><a xlink:href="../../db/d1b/_exceptions_test_8cpp.html" target="_top" xlink:title=" ">
<polygon fill="none" stroke="black" points="607,-0.5 607,-41.5 764,-41.5 764,-0.5 607,-0.5"/>
<text text-anchor="start" x="615" y="-29.5" font-family="Helvetica,sans-Serif" font-size="10.00">/build/rawspeed/test</text>
<text text-anchor="start" x="615" y="-18.5" font-family="Helvetica,sans-Serif" font-size="10.00">/librawspeed/test/Exceptions</text>
<text text-anchor="middle" x="685.5" y="-7.5" font-family="Helvetica,sans-Serif" font-size="10.00">Test.cpp</text>
</a>
</g>
</g>
<!-- Node1&#45;&gt;Node6 -->
<g id="edge5" class="edge">
<title>Node1&#45;&gt;Node6</title>
<path fill="none" stroke="midnightblue" d="M416.08,-78.74C466.8,-68.85 536.41,-55.04 597.5,-42 600.56,-41.35 603.69,-40.67 606.84,-39.99"/>
<polygon fill="midnightblue" stroke="midnightblue" points="415.35,-75.31 406.2,-80.66 416.68,-82.18 415.35,-75.31"/>
</g>
</g>
</svg>
