<?xml version="1.0" encoding="UTF-8" standalone="no"?>
<!DOCTYPE svg PUBLIC "-//W3C//DTD SVG 1.1//EN"
 "http://www.w3.org/Graphics/SVG/1.1/DTD/svg11.dtd">
<!-- Generated by graphviz version 2.43.0 (0)
 -->
<!-- Title: librawspeed/decompressors/AbstractHuffmanTable.h Pages: 1 -->
<svg width="2688pt" height="485pt"
 viewBox="0.00 0.00 2687.50 485.00" xmlns="http://www.w3.org/2000/svg" xmlns:xlink="http://www.w3.org/1999/xlink">
<g id="graph0" class="graph" transform="scale(1 1) rotate(0) translate(4 481)">
<title>librawspeed/decompressors/AbstractHuffmanTable.h</title>
<!-- Node1 -->
<g id="node1" class="node">
<title>Node1</title>
<g id="a_node1"><a xlink:title=" ">
<polygon fill="#bfbfbf" stroke="black" points="2247,-446.5 2247,-476.5 2400,-476.5 2400,-446.5 2247,-446.5"/>
<text text-anchor="start" x="2255" y="-464.5" font-family="Helvetica,sans-Serif" font-size="10.00">librawspeed/decompressors</text>
<text text-anchor="middle" x="2323.5" y="-453.5" font-family="Helvetica,sans-Serif" font-size="10.00">/AbstractHuffmanTable.h</text>
</a>
</g>
</g>
<!-- Node2 -->
<g id="node2" class="node">
<title>Node2</title>
<g id="a_node2"><a xlink:href="../../dd/d69/_huffman_table_l_u_t_8h.html" target="_top" xlink:title=" ">
<polygon fill="none" stroke="black" points="2090,-301.5 2090,-331.5 2243,-331.5 2243,-301.5 2090,-301.5"/>
<text text-anchor="start" x="2098" y="-319.5" font-family="Helvetica,sans-Serif" font-size="10.00">librawspeed/decompressors</text>
<text text-anchor="middle" x="2166.5" y="-308.5" font-family="Helvetica,sans-Serif" font-size="10.00">/HuffmanTableLUT.h</text>
</a>
</g>
</g>
<!-- Node1&#45;&gt;Node2 -->
<g id="edge1" class="edge">
<title>Node1&#45;&gt;Node2</title>
<path fill="none" stroke="midnightblue" d="M2237.12,-443.42C2218.16,-435.98 2199.8,-425.31 2186.5,-410 2167.21,-387.8 2165.12,-351.42 2165.6,-331.55"/>
<polygon fill="midnightblue" stroke="midnightblue" points="2236.17,-446.79 2246.77,-446.92 2238.56,-440.21 2236.17,-446.79"/>
</g>
<!-- Node23 -->
<g id="node23" class="node">
<title>Node23</title>
<g id="a_node23"><a xlink:href="../../d7/d5e/_abstract_l_jpeg_decompressor_8cpp.html" target="_top" xlink:title=" ">
<polygon fill="none" stroke="black" points="1120.5,-84 1120.5,-114 1296.5,-114 1296.5,-84 1120.5,-84"/>
<text text-anchor="start" x="1128.5" y="-102" font-family="Helvetica,sans-Serif" font-size="10.00">librawspeed/decompressors</text>
<text text-anchor="middle" x="1208.5" y="-91" font-family="Helvetica,sans-Serif" font-size="10.00">/AbstractLJpegDecompressor.cpp</text>
</a>
</g>
</g>
<!-- Node1&#45;&gt;Node23 -->
<g id="edge49" class="edge">
<title>Node1&#45;&gt;Node23</title>
<path fill="none" stroke="midnightblue" d="M2236.54,-460.35C1939.97,-458.72 986.5,-443.67 986.5,-317.5 986.5,-317.5 986.5,-317.5 986.5,-248.5 986.5,-206.62 976.03,-186.71 1004.5,-156 1014.27,-145.46 1088.33,-126.88 1144.43,-114.03"/>
<polygon fill="midnightblue" stroke="midnightblue" points="2236.8,-463.86 2246.81,-460.41 2236.83,-456.86 2236.8,-463.86"/>
</g>
<!-- Node34 -->
<g id="node34" class="node">
<title>Node34</title>
<g id="a_node34"><a xlink:href="../../dc/dd0/_huffman_table_lookup_8h.html" target="_top" xlink:title=" ">
<polygon fill="none" stroke="black" points="2195,-374 2195,-404 2348,-404 2348,-374 2195,-374"/>
<text text-anchor="start" x="2203" y="-392" font-family="Helvetica,sans-Serif" font-size="10.00">librawspeed/decompressors</text>
<text text-anchor="middle" x="2271.5" y="-381" font-family="Helvetica,sans-Serif" font-size="10.00">/HuffmanTableLookup.h</text>
</a>
</g>
</g>
<!-- Node1&#45;&gt;Node34 -->
<g id="edge39" class="edge">
<title>Node1&#45;&gt;Node34</title>
<path fill="none" stroke="midnightblue" d="M2306.82,-437.89C2298.67,-426.84 2289.12,-413.89 2282.01,-404.25"/>
<polygon fill="midnightblue" stroke="midnightblue" points="2304.22,-440.26 2312.98,-446.23 2309.86,-436.11 2304.22,-440.26"/>
</g>
<!-- Node35 -->
<g id="node35" class="node">
<title>Node35</title>
<g id="a_node35"><a xlink:href="../../d1/d3b/_huffman_table_tree_8h.html" target="_top" xlink:title=" ">
<polygon fill="none" stroke="black" points="2300,-234.5 2300,-264.5 2453,-264.5 2453,-234.5 2300,-234.5"/>
<text text-anchor="start" x="2308" y="-252.5" font-family="Helvetica,sans-Serif" font-size="10.00">librawspeed/decompressors</text>
<text text-anchor="middle" x="2376.5" y="-241.5" font-family="Helvetica,sans-Serif" font-size="10.00">/HuffmanTableTree.h</text>
</a>
</g>
</g>
<!-- Node1&#45;&gt;Node35 -->
<g id="edge43" class="edge">
<title>Node1&#45;&gt;Node35</title>
<path fill="none" stroke="midnightblue" d="M2341.72,-438.37C2347.72,-429.97 2353.79,-420 2357.5,-410 2376.43,-359.02 2377.55,-293.16 2377,-264.67"/>
<polygon fill="midnightblue" stroke="midnightblue" points="2338.82,-436.4 2335.61,-446.5 2344.42,-440.61 2338.82,-436.4"/>
</g>
<!-- Node36 -->
<g id="node36" class="node">
<title>Node36</title>
<g id="a_node36"><a xlink:href="../../dc/d48/_huffman_table_vector_8h.html" target="_top" xlink:title=" ">
<polygon fill="none" stroke="black" points="2471,-234.5 2471,-264.5 2624,-264.5 2624,-234.5 2471,-234.5"/>
<text text-anchor="start" x="2479" y="-252.5" font-family="Helvetica,sans-Serif" font-size="10.00">librawspeed/decompressors</text>
<text text-anchor="middle" x="2547.5" y="-241.5" font-family="Helvetica,sans-Serif" font-size="10.00">/HuffmanTableVector.h</text>
</a>
</g>
</g>
<!-- Node1&#45;&gt;Node36 -->
<g id="edge46" class="edge">
<title>Node1&#45;&gt;Node36</title>
<path fill="none" stroke="midnightblue" d="M2345.86,-439.54C2391.44,-396.81 2494.02,-300.64 2532.52,-264.54"/>
<polygon fill="midnightblue" stroke="midnightblue" points="2343.45,-437 2338.55,-446.4 2348.23,-442.11 2343.45,-437"/>
</g>
<!-- Node37 -->
<g id="node37" class="node">
<title>Node37</title>
<g id="a_node37"><a xlink:href="../../da/d0e/_abstract_huffman_table_test_8cpp.html" target="_top" xlink:title=" ">
<polygon fill="none" stroke="black" points="2442,-368.5 2442,-409.5 2609,-409.5 2609,-368.5 2442,-368.5"/>
<text text-anchor="start" x="2450" y="-397.5" font-family="Helvetica,sans-Serif" font-size="10.00">/build/rawspeed/test</text>
<text text-anchor="start" x="2450" y="-386.5" font-family="Helvetica,sans-Serif" font-size="10.00">/librawspeed/decompressors</text>
<text text-anchor="middle" x="2525.5" y="-375.5" font-family="Helvetica,sans-Serif" font-size="10.00">/AbstractHuffmanTableTest.cpp</text>
</a>
</g>
</g>
<!-- Node1&#45;&gt;Node37 -->
<g id="edge50" class="edge">
<title>Node1&#45;&gt;Node37</title>
<path fill="none" stroke="midnightblue" d="M2373.45,-443.07C2402.58,-432.9 2439.39,-420.05 2469.49,-409.55"/>
<polygon fill="midnightblue" stroke="midnightblue" points="2372.18,-439.8 2363.89,-446.4 2374.49,-446.41 2372.18,-439.8"/>
</g>
<!-- Node3 -->
<g id="node3" class="node">
<title>Node3</title>
<g id="a_node3"><a xlink:href="../../d7/d34/_dual_8cpp.html" target="_top" xlink:title=" ">
<polygon fill="none" stroke="black" points="2523.5,-156.5 2523.5,-197.5 2679.5,-197.5 2679.5,-156.5 2523.5,-156.5"/>
<text text-anchor="start" x="2531.5" y="-185.5" font-family="Helvetica,sans-Serif" font-size="10.00">/build/rawspeed/fuzz</text>
<text text-anchor="start" x="2531.5" y="-174.5" font-family="Helvetica,sans-Serif" font-size="10.00">/librawspeed/decompressors</text>
<text text-anchor="middle" x="2601.5" y="-163.5" font-family="Helvetica,sans-Serif" font-size="10.00">/HuffmanTable/Dual.cpp</text>
</a>
</g>
</g>
<!-- Node2&#45;&gt;Node3 -->
<g id="edge2" class="edge">
<title>Node2&#45;&gt;Node3</title>
<path fill="none" stroke="midnightblue" d="M2253.36,-312.27C2381.45,-306.59 2608.62,-292.71 2633.5,-265 2650.59,-245.96 2634.11,-217.01 2619.16,-197.8"/>
<polygon fill="midnightblue" stroke="midnightblue" points="2253.02,-308.78 2243.18,-312.71 2253.32,-315.77 2253.02,-308.78"/>
</g>
<!-- Node4 -->
<g id="node4" class="node">
<title>Node4</title>
<g id="a_node4"><a xlink:href="../../d3/d51/_huffman_table_8h.html" target="_top" xlink:title=" ">
<polygon fill="none" stroke="black" points="1692,-234.5 1692,-264.5 1845,-264.5 1845,-234.5 1692,-234.5"/>
<text text-anchor="start" x="1700" y="-252.5" font-family="Helvetica,sans-Serif" font-size="10.00">librawspeed/decompressors</text>
<text text-anchor="middle" x="1768.5" y="-241.5" font-family="Helvetica,sans-Serif" font-size="10.00">/HuffmanTable.h</text>
</a>
</g>
</g>
<!-- Node2&#45;&gt;Node4 -->
<g id="edge3" class="edge">
<title>Node2&#45;&gt;Node4</title>
<path fill="none" stroke="midnightblue" d="M2079.64,-301.31C2009.62,-289.88 1912.1,-273.95 1845,-262.99"/>
<polygon fill="midnightblue" stroke="midnightblue" points="2079.33,-304.81 2089.76,-302.97 2080.46,-297.9 2079.33,-304.81"/>
</g>
<!-- Node24 -->
<g id="node24" class="node">
<title>Node24</title>
<g id="a_node24"><a xlink:href="../../d0/d53/_solo_8cpp.html" target="_top" xlink:title=" ">
<polygon fill="none" stroke="black" points="2349.5,-156.5 2349.5,-197.5 2505.5,-197.5 2505.5,-156.5 2349.5,-156.5"/>
<text text-anchor="start" x="2357.5" y="-185.5" font-family="Helvetica,sans-Serif" font-size="10.00">/build/rawspeed/fuzz</text>
<text text-anchor="start" x="2357.5" y="-174.5" font-family="Helvetica,sans-Serif" font-size="10.00">/librawspeed/decompressors</text>
<text text-anchor="middle" x="2427.5" y="-163.5" font-family="Helvetica,sans-Serif" font-size="10.00">/HuffmanTable/Solo.cpp</text>
</a>
</g>
</g>
<!-- Node2&#45;&gt;Node24 -->
<g id="edge38" class="edge">
<title>Node2&#45;&gt;Node24</title>
<path fill="none" stroke="midnightblue" d="M2185.91,-293.67C2203.14,-275.47 2229.8,-250.02 2257.5,-234 2285.74,-217.67 2319.42,-205.31 2349.32,-196.42"/>
<polygon fill="midnightblue" stroke="midnightblue" points="2182.93,-291.74 2178.7,-301.46 2188.06,-296.5 2182.93,-291.74"/>
</g>
<!-- Node4&#45;&gt;Node3 -->
<g id="edge23" class="edge">
<title>Node4&#45;&gt;Node3</title>
<path fill="none" stroke="midnightblue" d="M1855.39,-247.07C1995.02,-243.78 2277.72,-233 2514.5,-198 2517.41,-197.57 2520.37,-197.09 2523.36,-196.58"/>
<polygon fill="midnightblue" stroke="midnightblue" points="1855.09,-243.58 1845.18,-247.31 1855.25,-250.58 1855.09,-243.58"/>
</g>
<!-- Node5 -->
<g id="node5" class="node">
<title>Node5</title>
<g id="a_node5"><a xlink:href="../../d4/d9e/_crw_decompressor_8h.html" target="_top" xlink:title=" ">
<polygon fill="none" stroke="black" points="1797,-162 1797,-192 1950,-192 1950,-162 1797,-162"/>
<text text-anchor="start" x="1805" y="-180" font-family="Helvetica,sans-Serif" font-size="10.00">librawspeed/decompressors</text>
<text text-anchor="middle" x="1873.5" y="-169" font-family="Helvetica,sans-Serif" font-size="10.00">/CrwDecompressor.h</text>
</a>
</g>
</g>
<!-- Node4&#45;&gt;Node5 -->
<g id="edge4" class="edge">
<title>Node4&#45;&gt;Node5</title>
<path fill="none" stroke="midnightblue" d="M1798.13,-228.6C1815.48,-216.96 1836.95,-202.54 1852.54,-192.07"/>
<polygon fill="midnightblue" stroke="midnightblue" points="1795.85,-225.92 1789.5,-234.4 1799.75,-231.73 1795.85,-225.92"/>
</g>
<!-- Node8 -->
<g id="node8" class="node">
<title>Node8</title>
<g id="a_node8"><a xlink:href="../../d0/d91/src_2librawspeed_2decompressors_2_crw_decompressor_8cpp.html" target="_top" xlink:title=" ">
<polygon fill="none" stroke="black" points="2118,-84 2118,-114 2271,-114 2271,-84 2118,-84"/>
<text text-anchor="start" x="2126" y="-102" font-family="Helvetica,sans-Serif" font-size="10.00">librawspeed/decompressors</text>
<text text-anchor="middle" x="2194.5" y="-91" font-family="Helvetica,sans-Serif" font-size="10.00">/CrwDecompressor.cpp</text>
</a>
</g>
</g>
<!-- Node4&#45;&gt;Node8 -->
<g id="edge30" class="edge">
<title>Node4&#45;&gt;Node8</title>
<path fill="none" stroke="midnightblue" d="M1855.36,-236.27C1889.54,-228.79 1928.05,-216.87 1959.5,-198 1981.34,-184.89 1976.79,-169.32 1998.5,-156 2010.72,-148.5 2085.96,-128.07 2139.57,-114.07"/>
<polygon fill="midnightblue" stroke="midnightblue" points="1854.45,-232.89 1845.38,-238.36 1855.88,-239.74 1854.45,-232.89"/>
</g>
<!-- Node9 -->
<g id="node9" class="node">
<title>Node9</title>
<g id="a_node9"><a xlink:href="../../d6/d32/_abstract_l_jpeg_decompressor_8h.html" target="_top" xlink:title=" ">
<polygon fill="none" stroke="black" points="779,-162 779,-192 944,-192 944,-162 779,-162"/>
<text text-anchor="start" x="787" y="-180" font-family="Helvetica,sans-Serif" font-size="10.00">librawspeed/decompressors</text>
<text text-anchor="middle" x="861.5" y="-169" font-family="Helvetica,sans-Serif" font-size="10.00">/AbstractLJpegDecompressor.h</text>
</a>
</g>
</g>
<!-- Node4&#45;&gt;Node9 -->
<g id="edge8" class="edge">
<title>Node4&#45;&gt;Node9</title>
<path fill="none" stroke="midnightblue" d="M1681.52,-244.82C1539.55,-238.35 1249.28,-223.17 1004.5,-198 984.92,-195.99 963.91,-193.33 944.18,-190.61"/>
<polygon fill="midnightblue" stroke="midnightblue" points="1681.75,-248.33 1691.89,-245.29 1682.06,-241.34 1681.75,-248.33"/>
</g>
<!-- Node18 -->
<g id="node18" class="node">
<title>Node18</title>
<g id="a_node18"><a xlink:href="../../d5/d47/src_2librawspeed_2decompressors_2_hasselblad_decompressor_8cpp.html" target="_top" xlink:title=" ">
<polygon fill="none" stroke="black" points="323.5,-6 323.5,-36 487.5,-36 487.5,-6 323.5,-6"/>
<text text-anchor="start" x="331.5" y="-24" font-family="Helvetica,sans-Serif" font-size="10.00">librawspeed/decompressors</text>
<text text-anchor="middle" x="405.5" y="-13" font-family="Helvetica,sans-Serif" font-size="10.00">/HasselbladDecompressor.cpp</text>
</a>
</g>
</g>
<!-- Node4&#45;&gt;Node18 -->
<g id="edge31" class="edge">
<title>Node4&#45;&gt;Node18</title>
<path fill="none" stroke="midnightblue" d="M1681.59,-247.79C1471.77,-245.48 942.11,-235.95 769.5,-198 628.62,-167.03 479.36,-72.37 425.96,-36.23"/>
<polygon fill="midnightblue" stroke="midnightblue" points="1681.6,-251.29 1691.64,-247.9 1681.68,-244.29 1681.6,-251.29"/>
</g>
<!-- Node4&#45;&gt;Node23 -->
<g id="edge29" class="edge">
<title>Node4&#45;&gt;Node23</title>
<path fill="none" stroke="midnightblue" d="M1681.95,-236.57C1647.64,-229.13 1608.96,-217.16 1577.5,-198 1556,-184.91 1561.66,-167.94 1539.5,-156 1446.86,-106.11 1409.06,-138.63 1305.5,-120 1295.35,-118.17 1284.62,-116.1 1274.16,-114.01"/>
<polygon fill="midnightblue" stroke="midnightblue" points="1681.47,-240.05 1691.97,-238.65 1682.88,-233.19 1681.47,-240.05"/>
</g>
<!-- Node4&#45;&gt;Node24 -->
<g id="edge24" class="edge">
<title>Node4&#45;&gt;Node24</title>
<path fill="none" stroke="midnightblue" d="M1855.51,-244.56C1968.03,-238.6 2169.82,-225.02 2340.5,-198 2343.41,-197.54 2346.36,-197.04 2349.34,-196.5"/>
<polygon fill="midnightblue" stroke="midnightblue" points="1855.04,-241.08 1845.24,-245.09 1855.41,-248.07 1855.04,-241.08"/>
</g>
<!-- Node25 -->
<g id="node25" class="node">
<title>Node25</title>
<g id="a_node25"><a xlink:href="../../d1/db7/_pentax_decompressor_8h.html" target="_top" xlink:title=" ">
<polygon fill="none" stroke="black" points="1587,-162 1587,-192 1740,-192 1740,-162 1587,-162"/>
<text text-anchor="start" x="1595" y="-180" font-family="Helvetica,sans-Serif" font-size="10.00">librawspeed/decompressors</text>
<text text-anchor="middle" x="1663.5" y="-169" font-family="Helvetica,sans-Serif" font-size="10.00">/PentaxDecompressor.h</text>
</a>
</g>
</g>
<!-- Node4&#45;&gt;Node25 -->
<g id="edge25" class="edge">
<title>Node4&#45;&gt;Node25</title>
<path fill="none" stroke="midnightblue" d="M1738.87,-228.6C1721.52,-216.96 1700.05,-202.54 1684.46,-192.07"/>
<polygon fill="midnightblue" stroke="midnightblue" points="1737.25,-231.73 1747.5,-234.4 1741.15,-225.92 1737.25,-231.73"/>
</g>
<!-- Node28 -->
<g id="node28" class="node">
<title>Node28</title>
<g id="a_node28"><a xlink:href="../../d0/d89/src_2librawspeed_2decompressors_2_pentax_decompressor_8cpp.html" target="_top" xlink:title=" ">
<polygon fill="none" stroke="black" points="1631,-84 1631,-114 1784,-114 1784,-84 1631,-84"/>
<text text-anchor="start" x="1639" y="-102" font-family="Helvetica,sans-Serif" font-size="10.00">librawspeed/decompressors</text>
<text text-anchor="middle" x="1707.5" y="-91" font-family="Helvetica,sans-Serif" font-size="10.00">/PentaxDecompressor.cpp</text>
</a>
</g>
</g>
<!-- Node4&#45;&gt;Node28 -->
<g id="edge34" class="edge">
<title>Node4&#45;&gt;Node28</title>
<path fill="none" stroke="midnightblue" d="M1766.48,-224.41C1764.19,-205.2 1759.39,-177.97 1749.5,-156 1742.42,-140.26 1730.27,-124.76 1720.85,-114.06"/>
<polygon fill="midnightblue" stroke="midnightblue" points="1763.01,-224.86 1767.53,-234.44 1769.97,-224.12 1763.01,-224.86"/>
</g>
<!-- Node29 -->
<g id="node29" class="node">
<title>Node29</title>
<g id="a_node29"><a xlink:href="../../d3/d43/src_2librawspeed_2decompressors_2_kodak_decompressor_8cpp.html" target="_top" xlink:title=" ">
<polygon fill="none" stroke="black" points="2007,-162 2007,-192 2160,-192 2160,-162 2007,-162"/>
<text text-anchor="start" x="2015" y="-180" font-family="Helvetica,sans-Serif" font-size="10.00">librawspeed/decompressors</text>
<text text-anchor="middle" x="2083.5" y="-169" font-family="Helvetica,sans-Serif" font-size="10.00">/KodakDecompressor.cpp</text>
</a>
</g>
</g>
<!-- Node4&#45;&gt;Node29 -->
<g id="edge32" class="edge">
<title>Node4&#45;&gt;Node29</title>
<path fill="none" stroke="midnightblue" d="M1841.02,-232.27C1895.35,-220.11 1968.93,-203.64 2020.74,-192.05"/>
<polygon fill="midnightblue" stroke="midnightblue" points="1840.1,-228.89 1831.11,-234.49 1841.63,-235.72 1840.1,-228.89"/>
</g>
<!-- Node30 -->
<g id="node30" class="node">
<title>Node30</title>
<g id="a_node30"><a xlink:href="../../d8/d08/src_2librawspeed_2decompressors_2_nikon_decompressor_8cpp.html" target="_top" xlink:title=" ">
<polygon fill="none" stroke="black" points="2178,-162 2178,-192 2331,-192 2331,-162 2178,-162"/>
<text text-anchor="start" x="2186" y="-180" font-family="Helvetica,sans-Serif" font-size="10.00">librawspeed/decompressors</text>
<text text-anchor="middle" x="2254.5" y="-169" font-family="Helvetica,sans-Serif" font-size="10.00">/NikonDecompressor.cpp</text>
</a>
</g>
</g>
<!-- Node4&#45;&gt;Node30 -->
<g id="edge33" class="edge">
<title>Node4&#45;&gt;Node30</title>
<path fill="none" stroke="midnightblue" d="M1855.58,-240.22C1937.08,-231.83 2062.05,-217.35 2169.5,-198 2178.9,-196.31 2188.82,-194.24 2198.44,-192.08"/>
<polygon fill="midnightblue" stroke="midnightblue" points="1854.96,-236.76 1845.37,-241.26 1855.67,-243.73 1854.96,-236.76"/>
</g>
<!-- Node31 -->
<g id="node31" class="node">
<title>Node31</title>
<g id="a_node31"><a xlink:href="../../d0/d88/src_2librawspeed_2decompressors_2_samsung_v1_decompressor_8cpp.html" target="_top" xlink:title=" ">
<polygon fill="none" stroke="black" points="1014,-162 1014,-192 1181,-192 1181,-162 1014,-162"/>
<text text-anchor="start" x="1022" y="-180" font-family="Helvetica,sans-Serif" font-size="10.00">librawspeed/decompressors</text>
<text text-anchor="middle" x="1097.5" y="-169" font-family="Helvetica,sans-Serif" font-size="10.00">/SamsungV1Decompressor.cpp</text>
</a>
</g>
</g>
<!-- Node4&#45;&gt;Node31 -->
<g id="edge35" class="edge">
<title>Node4&#45;&gt;Node31</title>
<path fill="none" stroke="midnightblue" d="M1681.77,-244.38C1568.18,-238.2 1363.08,-224.33 1189.5,-198 1178.83,-196.38 1167.55,-194.27 1156.68,-192.02"/>
<polygon fill="midnightblue" stroke="midnightblue" points="1681.62,-247.88 1691.8,-244.92 1682,-240.89 1681.62,-247.88"/>
</g>
<!-- Node32 -->
<g id="node32" class="node">
<title>Node32</title>
<g id="a_node32"><a xlink:href="../../da/d4a/src_2librawspeed_2decompressors_2_sony_arw1_decompressor_8cpp.html" target="_top" xlink:title=" ">
<polygon fill="none" stroke="black" points="1198.5,-162 1198.5,-192 1356.5,-192 1356.5,-162 1198.5,-162"/>
<text text-anchor="start" x="1206.5" y="-180" font-family="Helvetica,sans-Serif" font-size="10.00">librawspeed/decompressors</text>
<text text-anchor="middle" x="1277.5" y="-169" font-family="Helvetica,sans-Serif" font-size="10.00">/SonyArw1Decompressor.cpp</text>
</a>
</g>
</g>
<!-- Node4&#45;&gt;Node32 -->
<g id="edge36" class="edge">
<title>Node4&#45;&gt;Node32</title>
<path fill="none" stroke="midnightblue" d="M1681.65,-240.12C1599.78,-231.63 1473.83,-217.05 1365.5,-198 1355.78,-196.29 1345.51,-194.21 1335.56,-192.05"/>
<polygon fill="midnightblue" stroke="midnightblue" points="1681.35,-243.61 1691.65,-241.15 1682.07,-236.65 1681.35,-243.61"/>
</g>
<!-- Node33 -->
<g id="node33" class="node">
<title>Node33</title>
<g id="a_node33"><a xlink:href="../../d8/d5c/_huffman_table_test_8cpp.html" target="_top" xlink:title=" ">
<polygon fill="none" stroke="black" points="1374.5,-156.5 1374.5,-197.5 1530.5,-197.5 1530.5,-156.5 1374.5,-156.5"/>
<text text-anchor="start" x="1382.5" y="-185.5" font-family="Helvetica,sans-Serif" font-size="10.00">/build/rawspeed/test</text>
<text text-anchor="start" x="1382.5" y="-174.5" font-family="Helvetica,sans-Serif" font-size="10.00">/librawspeed/decompressors</text>
<text text-anchor="middle" x="1452.5" y="-163.5" font-family="Helvetica,sans-Serif" font-size="10.00">/HuffmanTableTest.cpp</text>
</a>
</g>
</g>
<!-- Node4&#45;&gt;Node33 -->
<g id="edge37" class="edge">
<title>Node4&#45;&gt;Node33</title>
<path fill="none" stroke="midnightblue" d="M1695.72,-232.26C1646.32,-221.24 1581.07,-206.68 1530.59,-195.42"/>
<polygon fill="midnightblue" stroke="midnightblue" points="1695.17,-235.73 1705.69,-234.49 1696.69,-228.89 1695.17,-235.73"/>
</g>
<!-- Node6 -->
<g id="node6" class="node">
<title>Node6</title>
<g id="a_node6"><a xlink:href="../../de/da7/fuzz_2librawspeed_2decompressors_2_crw_decompressor_8cpp.html" target="_top" xlink:title=" ">
<polygon fill="none" stroke="black" points="1802.5,-78.5 1802.5,-119.5 1958.5,-119.5 1958.5,-78.5 1802.5,-78.5"/>
<text text-anchor="start" x="1810.5" y="-107.5" font-family="Helvetica,sans-Serif" font-size="10.00">/build/rawspeed/fuzz</text>
<text text-anchor="start" x="1810.5" y="-96.5" font-family="Helvetica,sans-Serif" font-size="10.00">/librawspeed/decompressors</text>
<text text-anchor="middle" x="1880.5" y="-85.5" font-family="Helvetica,sans-Serif" font-size="10.00">/CrwDecompressor.cpp</text>
</a>
</g>
</g>
<!-- Node5&#45;&gt;Node6 -->
<g id="edge5" class="edge">
<title>Node5&#45;&gt;Node6</title>
<path fill="none" stroke="midnightblue" d="M1875.74,-151.66C1876.69,-141.33 1877.79,-129.44 1878.69,-119.68"/>
<polygon fill="midnightblue" stroke="midnightblue" points="1872.25,-151.43 1874.82,-161.7 1879.22,-152.07 1872.25,-151.43"/>
</g>
<!-- Node7 -->
<g id="node7" class="node">
<title>Node7</title>
<g id="a_node7"><a xlink:href="../../d0/dc9/_crw_decoder_8cpp.html" target="_top" xlink:title=" ">
<polygon fill="none" stroke="black" points="1977,-84 1977,-114 2100,-114 2100,-84 1977,-84"/>
<text text-anchor="start" x="1985" y="-102" font-family="Helvetica,sans-Serif" font-size="10.00">librawspeed/decoders</text>
<text text-anchor="middle" x="2038.5" y="-91" font-family="Helvetica,sans-Serif" font-size="10.00">/CrwDecoder.cpp</text>
</a>
</g>
</g>
<!-- Node5&#45;&gt;Node7 -->
<g id="edge6" class="edge">
<title>Node5&#45;&gt;Node7</title>
<path fill="none" stroke="midnightblue" d="M1913.23,-157.7C1942.36,-144.28 1981.32,-126.34 2008.02,-114.04"/>
<polygon fill="midnightblue" stroke="midnightblue" points="1911.77,-154.52 1904.15,-161.88 1914.7,-160.88 1911.77,-154.52"/>
</g>
<!-- Node5&#45;&gt;Node8 -->
<g id="edge7" class="edge">
<title>Node5&#45;&gt;Node8</title>
<path fill="none" stroke="midnightblue" d="M1942.83,-159.59C2000.23,-145.99 2080.92,-126.89 2135.32,-114.01"/>
<polygon fill="midnightblue" stroke="midnightblue" points="1941.68,-156.26 1932.75,-161.97 1943.29,-163.07 1941.68,-156.26"/>
</g>
<!-- Node10 -->
<g id="node10" class="node">
<title>Node10</title>
<g id="a_node10"><a xlink:href="../../dc/d52/_cr2_decompressor_8h.html" target="_top" xlink:title=" ">
<polygon fill="none" stroke="black" points="949,-84 949,-114 1102,-114 1102,-84 949,-84"/>
<text text-anchor="start" x="957" y="-102" font-family="Helvetica,sans-Serif" font-size="10.00">librawspeed/decompressors</text>
<text text-anchor="middle" x="1025.5" y="-91" font-family="Helvetica,sans-Serif" font-size="10.00">/Cr2Decompressor.h</text>
</a>
</g>
</g>
<!-- Node9&#45;&gt;Node10 -->
<g id="edge9" class="edge">
<title>Node9&#45;&gt;Node10</title>
<path fill="none" stroke="midnightblue" d="M901.37,-157.52C930.28,-144.13 968.78,-126.28 995.2,-114.04"/>
<polygon fill="midnightblue" stroke="midnightblue" points="899.56,-154.5 891.96,-161.88 902.51,-160.85 899.56,-154.5"/>
</g>
<!-- Node14 -->
<g id="node14" class="node">
<title>Node14</title>
<g id="a_node14"><a xlink:href="../../d2/dc6/_dummy_l_jpeg_decompressor_8cpp.html" target="_top" xlink:title=" ">
<polygon fill="none" stroke="black" points="585,-78.5 585,-119.5 760,-119.5 760,-78.5 585,-78.5"/>
<text text-anchor="start" x="593" y="-107.5" font-family="Helvetica,sans-Serif" font-size="10.00">/build/rawspeed/fuzz</text>
<text text-anchor="start" x="593" y="-96.5" font-family="Helvetica,sans-Serif" font-size="10.00">/librawspeed/decompressors</text>
<text text-anchor="middle" x="672.5" y="-85.5" font-family="Helvetica,sans-Serif" font-size="10.00">/DummyLJpegDecompressor.cpp</text>
</a>
</g>
</g>
<!-- Node9&#45;&gt;Node14 -->
<g id="edge13" class="edge">
<title>Node9&#45;&gt;Node14</title>
<path fill="none" stroke="midnightblue" d="M817,-158.11C788.27,-146.55 750.86,-131.51 721.31,-119.63"/>
<polygon fill="midnightblue" stroke="midnightblue" points="815.81,-161.4 826.39,-161.88 818.42,-154.9 815.81,-161.4"/>
</g>
<!-- Node15 -->
<g id="node15" class="node">
<title>Node15</title>
<g id="a_node15"><a xlink:href="../../d7/dc7/_hasselblad_decompressor_8h.html" target="_top" xlink:title=" ">
<polygon fill="none" stroke="black" points="216,-84 216,-114 369,-114 369,-84 216,-84"/>
<text text-anchor="start" x="224" y="-102" font-family="Helvetica,sans-Serif" font-size="10.00">librawspeed/decompressors</text>
<text text-anchor="middle" x="292.5" y="-91" font-family="Helvetica,sans-Serif" font-size="10.00">/HasselbladDecompressor.h</text>
</a>
</g>
</g>
<!-- Node9&#45;&gt;Node15 -->
<g id="edge14" class="edge">
<title>Node9&#45;&gt;Node15</title>
<path fill="none" stroke="midnightblue" d="M768.56,-163.59C657.3,-148.73 473.03,-124.11 369.41,-110.27"/>
<polygon fill="midnightblue" stroke="midnightblue" points="768.39,-167.09 778.76,-164.95 769.31,-160.16 768.39,-167.09"/>
</g>
<!-- Node19 -->
<g id="node19" class="node">
<title>Node19</title>
<g id="a_node19"><a xlink:href="../../d8/d3d/_l_jpeg_decompressor_8h.html" target="_top" xlink:title=" ">
<polygon fill="none" stroke="black" points="778,-84 778,-114 931,-114 931,-84 778,-84"/>
<text text-anchor="start" x="786" y="-102" font-family="Helvetica,sans-Serif" font-size="10.00">librawspeed/decompressors</text>
<text text-anchor="middle" x="854.5" y="-91" font-family="Helvetica,sans-Serif" font-size="10.00">/LJpegDecompressor.h</text>
</a>
</g>
</g>
<!-- Node9&#45;&gt;Node19 -->
<g id="edge18" class="edge">
<title>Node9&#45;&gt;Node19</title>
<path fill="none" stroke="midnightblue" d="M859.25,-151.59C858.12,-139.26 856.78,-124.72 855.81,-114.23"/>
<polygon fill="midnightblue" stroke="midnightblue" points="855.78,-152.07 860.18,-161.7 862.75,-151.43 855.78,-152.07"/>
</g>
<!-- Node9&#45;&gt;Node23 -->
<g id="edge22" class="edge">
<title>Node9&#45;&gt;Node23</title>
<path fill="none" stroke="midnightblue" d="M935.67,-159.75C997.77,-146.15 1085.47,-126.95 1144.53,-114.01"/>
<polygon fill="midnightblue" stroke="midnightblue" points="934.57,-156.41 925.55,-161.97 936.07,-163.25 934.57,-156.41"/>
</g>
<!-- Node11 -->
<g id="node11" class="node">
<title>Node11</title>
<g id="a_node11"><a xlink:href="../../dc/dfc/fuzz_2librawspeed_2decompressors_2_cr2_decompressor_8cpp.html" target="_top" xlink:title=" ">
<polygon fill="none" stroke="black" points="1039.5,-0.5 1039.5,-41.5 1195.5,-41.5 1195.5,-0.5 1039.5,-0.5"/>
<text text-anchor="start" x="1047.5" y="-29.5" font-family="Helvetica,sans-Serif" font-size="10.00">/build/rawspeed/fuzz</text>
<text text-anchor="start" x="1047.5" y="-18.5" font-family="Helvetica,sans-Serif" font-size="10.00">/librawspeed/decompressors</text>
<text text-anchor="middle" x="1117.5" y="-7.5" font-family="Helvetica,sans-Serif" font-size="10.00">/Cr2Decompressor.cpp</text>
</a>
</g>
</g>
<!-- Node10&#45;&gt;Node11 -->
<g id="edge10" class="edge">
<title>Node10&#45;&gt;Node11</title>
<path fill="none" stroke="midnightblue" d="M1050.71,-77.18C1064.11,-66.11 1080.49,-52.57 1093.68,-41.68"/>
<polygon fill="midnightblue" stroke="midnightblue" points="1048.29,-74.64 1042.8,-83.7 1052.74,-80.03 1048.29,-74.64"/>
</g>
<!-- Node12 -->
<g id="node12" class="node">
<title>Node12</title>
<g id="a_node12"><a xlink:href="../../d4/db4/_cr2_decoder_8cpp.html" target="_top" xlink:title=" ">
<polygon fill="none" stroke="black" points="1214,-6 1214,-36 1337,-36 1337,-6 1214,-6"/>
<text text-anchor="start" x="1222" y="-24" font-family="Helvetica,sans-Serif" font-size="10.00">librawspeed/decoders</text>
<text text-anchor="middle" x="1275.5" y="-13" font-family="Helvetica,sans-Serif" font-size="10.00">/Cr2Decoder.cpp</text>
</a>
</g>
</g>
<!-- Node10&#45;&gt;Node12 -->
<g id="edge11" class="edge">
<title>Node10&#45;&gt;Node12</title>
<path fill="none" stroke="midnightblue" d="M1081.43,-81C1125.93,-67.47 1187.44,-48.77 1229.2,-36.07"/>
<polygon fill="midnightblue" stroke="midnightblue" points="1080.19,-77.71 1071.65,-83.97 1082.23,-84.41 1080.19,-77.71"/>
</g>
<!-- Node13 -->
<g id="node13" class="node">
<title>Node13</title>
<g id="a_node13"><a xlink:href="../../d4/d3f/src_2librawspeed_2decompressors_2_cr2_decompressor_8cpp.html" target="_top" xlink:title=" ">
<polygon fill="none" stroke="black" points="1355,-6 1355,-36 1508,-36 1508,-6 1355,-6"/>
<text text-anchor="start" x="1363" y="-24" font-family="Helvetica,sans-Serif" font-size="10.00">librawspeed/decompressors</text>
<text text-anchor="middle" x="1431.5" y="-13" font-family="Helvetica,sans-Serif" font-size="10.00">/Cr2Decompressor.cpp</text>
</a>
</g>
</g>
<!-- Node10&#45;&gt;Node13 -->
<g id="edge12" class="edge">
<title>Node10&#45;&gt;Node13</title>
<path fill="none" stroke="midnightblue" d="M1092.98,-81.8C1099.23,-80.45 1105.47,-79.16 1111.5,-78 1214.82,-58.07 1242.18,-61.93 1345.5,-42 1354.68,-40.23 1364.37,-38.17 1373.8,-36.05"/>
<polygon fill="midnightblue" stroke="midnightblue" points="1092.21,-78.38 1083.2,-83.95 1093.72,-85.22 1092.21,-78.38"/>
</g>
<!-- Node16 -->
<g id="node16" class="node">
<title>Node16</title>
<g id="a_node16"><a xlink:href="../../dc/dcd/fuzz_2librawspeed_2decompressors_2_hasselblad_decompressor_8cpp.html" target="_top" xlink:title=" ">
<polygon fill="none" stroke="black" points="141.5,-0.5 141.5,-41.5 305.5,-41.5 305.5,-0.5 141.5,-0.5"/>
<text text-anchor="start" x="149.5" y="-29.5" font-family="Helvetica,sans-Serif" font-size="10.00">/build/rawspeed/fuzz</text>
<text text-anchor="start" x="149.5" y="-18.5" font-family="Helvetica,sans-Serif" font-size="10.00">/librawspeed/decompressors</text>
<text text-anchor="middle" x="223.5" y="-7.5" font-family="Helvetica,sans-Serif" font-size="10.00">/HasselbladDecompressor.cpp</text>
</a>
</g>
</g>
<!-- Node15&#45;&gt;Node16 -->
<g id="edge15" class="edge">
<title>Node15&#45;&gt;Node16</title>
<path fill="none" stroke="midnightblue" d="M272.74,-76.23C262.85,-65.34 250.98,-52.26 241.37,-41.68"/>
<polygon fill="midnightblue" stroke="midnightblue" points="270.21,-78.65 279.52,-83.7 275.39,-73.95 270.21,-78.65"/>
</g>
<!-- Node17 -->
<g id="node17" class="node">
<title>Node17</title>
<g id="a_node17"><a xlink:href="../../d3/dc1/_threefr_decoder_8cpp.html" target="_top" xlink:title=" ">
<polygon fill="none" stroke="black" points="0,-6 0,-36 123,-36 123,-6 0,-6"/>
<text text-anchor="start" x="8" y="-24" font-family="Helvetica,sans-Serif" font-size="10.00">librawspeed/decoders</text>
<text text-anchor="middle" x="61.5" y="-13" font-family="Helvetica,sans-Serif" font-size="10.00">/ThreefrDecoder.cpp</text>
</a>
</g>
</g>
<!-- Node15&#45;&gt;Node17 -->
<g id="edge16" class="edge">
<title>Node15&#45;&gt;Node17</title>
<path fill="none" stroke="midnightblue" d="M240.3,-80.83C199.23,-67.31 142.7,-48.72 104.28,-36.07"/>
<polygon fill="midnightblue" stroke="midnightblue" points="239.27,-84.17 249.86,-83.97 241.46,-77.52 239.27,-84.17"/>
</g>
<!-- Node15&#45;&gt;Node18 -->
<g id="edge17" class="edge">
<title>Node15&#45;&gt;Node18</title>
<path fill="none" stroke="midnightblue" d="M321.81,-78.29C341.5,-65.05 366.98,-47.91 384.62,-36.04"/>
<polygon fill="midnightblue" stroke="midnightblue" points="319.83,-75.4 313.49,-83.88 323.74,-81.21 319.83,-75.4"/>
</g>
<!-- Node20 -->
<g id="node20" class="node">
<title>Node20</title>
<g id="a_node20"><a xlink:href="../../db/d3f/fuzz_2librawspeed_2decompressors_2_l_jpeg_decompressor_8cpp.html" target="_top" xlink:title=" ">
<polygon fill="none" stroke="black" points="505.5,-0.5 505.5,-41.5 661.5,-41.5 661.5,-0.5 505.5,-0.5"/>
<text text-anchor="start" x="513.5" y="-29.5" font-family="Helvetica,sans-Serif" font-size="10.00">/build/rawspeed/fuzz</text>
<text text-anchor="start" x="513.5" y="-18.5" font-family="Helvetica,sans-Serif" font-size="10.00">/librawspeed/decompressors</text>
<text text-anchor="middle" x="583.5" y="-7.5" font-family="Helvetica,sans-Serif" font-size="10.00">/LJpegDecompressor.cpp</text>
</a>
</g>
</g>
<!-- Node19&#45;&gt;Node20 -->
<g id="edge19" class="edge">
<title>Node19&#45;&gt;Node20</title>
<path fill="none" stroke="midnightblue" d="M794.71,-81.23C752.91,-69.51 696.96,-53.82 653.14,-41.53"/>
<polygon fill="midnightblue" stroke="midnightblue" points="793.9,-84.64 804.48,-83.97 795.8,-77.9 793.9,-84.64"/>
</g>
<!-- Node21 -->
<g id="node21" class="node">
<title>Node21</title>
<g id="a_node21"><a xlink:href="../../d4/dd6/_abstract_dng_decompressor_8cpp.html" target="_top" xlink:title=" ">
<polygon fill="none" stroke="black" points="679.5,-6 679.5,-36 849.5,-36 849.5,-6 679.5,-6"/>
<text text-anchor="start" x="687.5" y="-24" font-family="Helvetica,sans-Serif" font-size="10.00">librawspeed/decompressors</text>
<text text-anchor="middle" x="764.5" y="-13" font-family="Helvetica,sans-Serif" font-size="10.00">/AbstractDngDecompressor.cpp</text>
</a>
</g>
</g>
<!-- Node19&#45;&gt;Node21 -->
<g id="edge20" class="edge">
<title>Node19&#45;&gt;Node21</title>
<path fill="none" stroke="midnightblue" d="M829.51,-76.89C814.16,-63.93 794.91,-47.68 781.35,-36.23"/>
<polygon fill="midnightblue" stroke="midnightblue" points="827.67,-79.93 837.57,-83.7 832.19,-74.58 827.67,-79.93"/>
</g>
<!-- Node22 -->
<g id="node22" class="node">
<title>Node22</title>
<g id="a_node22"><a xlink:href="../../da/db1/src_2librawspeed_2decompressors_2_l_jpeg_decompressor_8cpp.html" target="_top" xlink:title=" ">
<polygon fill="none" stroke="black" points="868,-6 868,-36 1021,-36 1021,-6 868,-6"/>
<text text-anchor="start" x="876" y="-24" font-family="Helvetica,sans-Serif" font-size="10.00">librawspeed/decompressors</text>
<text text-anchor="middle" x="944.5" y="-13" font-family="Helvetica,sans-Serif" font-size="10.00">/LJpegDecompressor.cpp</text>
</a>
</g>
</g>
<!-- Node19&#45;&gt;Node22 -->
<g id="edge21" class="edge">
<title>Node19&#45;&gt;Node22</title>
<path fill="none" stroke="midnightblue" d="M879.49,-76.89C894.84,-63.93 914.09,-47.68 927.65,-36.23"/>
<polygon fill="midnightblue" stroke="midnightblue" points="876.81,-74.58 871.43,-83.7 881.33,-79.93 876.81,-74.58"/>
</g>
<!-- Node26 -->
<g id="node26" class="node">
<title>Node26</title>
<g id="a_node26"><a xlink:href="../../d5/def/fuzz_2librawspeed_2decompressors_2_pentax_decompressor_8cpp.html" target="_top" xlink:title=" ">
<polygon fill="none" stroke="black" points="1456.5,-78.5 1456.5,-119.5 1612.5,-119.5 1612.5,-78.5 1456.5,-78.5"/>
<text text-anchor="start" x="1464.5" y="-107.5" font-family="Helvetica,sans-Serif" font-size="10.00">/build/rawspeed/fuzz</text>
<text text-anchor="start" x="1464.5" y="-96.5" font-family="Helvetica,sans-Serif" font-size="10.00">/librawspeed/decompressors</text>
<text text-anchor="middle" x="1534.5" y="-85.5" font-family="Helvetica,sans-Serif" font-size="10.00">/PentaxDecompressor.cpp</text>
</a>
</g>
</g>
<!-- Node25&#45;&gt;Node26 -->
<g id="edge26" class="edge">
<title>Node25&#45;&gt;Node26</title>
<path fill="none" stroke="midnightblue" d="M1630.83,-156.75C1611.63,-145.44 1587.41,-131.17 1568.06,-119.77"/>
<polygon fill="midnightblue" stroke="midnightblue" points="1629.15,-159.82 1639.54,-161.88 1632.7,-153.79 1629.15,-159.82"/>
</g>
<!-- Node27 -->
<g id="node27" class="node">
<title>Node27</title>
<g id="a_node27"><a xlink:href="../../de/d0c/_pef_decoder_8cpp.html" target="_top" xlink:title=" ">
<polygon fill="none" stroke="black" points="1315,-84 1315,-114 1438,-114 1438,-84 1315,-84"/>
<text text-anchor="start" x="1323" y="-102" font-family="Helvetica,sans-Serif" font-size="10.00">librawspeed/decoders</text>
<text text-anchor="middle" x="1376.5" y="-91" font-family="Helvetica,sans-Serif" font-size="10.00">/PefDecoder.cpp</text>
</a>
</g>
</g>
<!-- Node25&#45;&gt;Node27 -->
<g id="edge27" class="edge">
<title>Node25&#45;&gt;Node27</title>
<path fill="none" stroke="midnightblue" d="M1598.17,-159.44C1555.28,-148.48 1497.98,-133.65 1447.5,-120 1440.45,-118.09 1433.03,-116.05 1425.73,-114.01"/>
<polygon fill="midnightblue" stroke="midnightblue" points="1597.37,-162.85 1607.92,-161.93 1599.1,-156.07 1597.37,-162.85"/>
</g>
<!-- Node25&#45;&gt;Node28 -->
<g id="edge28" class="edge">
<title>Node25&#45;&gt;Node28</title>
<path fill="none" stroke="midnightblue" d="M1676.99,-152.7C1684.26,-140.14 1693,-125.04 1699.26,-114.23"/>
<polygon fill="midnightblue" stroke="midnightblue" points="1673.76,-151.3 1671.78,-161.7 1679.82,-154.8 1673.76,-151.3"/>
</g>
<!-- Node34&#45;&gt;Node2 -->
<g id="edge41" class="edge">
<title>Node34&#45;&gt;Node2</title>
<path fill="none" stroke="midnightblue" d="M2241.87,-368.1C2224.52,-356.46 2203.05,-342.04 2187.46,-331.57"/>
<polygon fill="midnightblue" stroke="midnightblue" points="2240.25,-371.23 2250.5,-373.9 2244.15,-365.42 2240.25,-371.23"/>
</g>
<!-- Node34&#45;&gt;Node3 -->
<g id="edge40" class="edge">
<title>Node34&#45;&gt;Node3</title>
<path fill="none" stroke="midnightblue" d="M2357.93,-372.08C2458.65,-351.57 2615.76,-312.79 2650.5,-265 2666.3,-243.26 2645,-215.96 2625.74,-197.79"/>
<polygon fill="midnightblue" stroke="midnightblue" points="2357.18,-368.66 2348.07,-374.07 2358.56,-375.52 2357.18,-368.66"/>
</g>
<!-- Node34&#45;&gt;Node24 -->
<g id="edge42" class="edge">
<title>Node34&#45;&gt;Node24</title>
<path fill="none" stroke="midnightblue" d="M2267.74,-363.87C2264.01,-330.98 2262.44,-271.85 2291.5,-234 2305.8,-215.37 2327.39,-202.89 2349.18,-194.56"/>
<polygon fill="midnightblue" stroke="midnightblue" points="2264.29,-364.48 2269.04,-373.94 2271.23,-363.58 2264.29,-364.48"/>
</g>
<!-- Node35&#45;&gt;Node3 -->
<g id="edge44" class="edge">
<title>Node35&#45;&gt;Node3</title>
<path fill="none" stroke="midnightblue" d="M2431.02,-231.42C2463.59,-221.21 2505.08,-208.21 2538.97,-197.59"/>
<polygon fill="midnightblue" stroke="midnightblue" points="2429.72,-228.16 2421.22,-234.49 2431.81,-234.84 2429.72,-228.16"/>
</g>
<!-- Node35&#45;&gt;Node24 -->
<g id="edge45" class="edge">
<title>Node35&#45;&gt;Node24</title>
<path fill="none" stroke="midnightblue" d="M2392.79,-225.98C2399.4,-216.85 2406.96,-206.4 2413.33,-197.59"/>
<polygon fill="midnightblue" stroke="midnightblue" points="2389.85,-224.08 2386.82,-234.23 2395.52,-228.18 2389.85,-224.08"/>
</g>
<!-- Node36&#45;&gt;Node3 -->
<g id="edge47" class="edge">
<title>Node36&#45;&gt;Node3</title>
<path fill="none" stroke="midnightblue" d="M2564.53,-226.26C2571.58,-217.06 2579.68,-206.49 2586.5,-197.59"/>
<polygon fill="midnightblue" stroke="midnightblue" points="2561.73,-224.17 2558.43,-234.23 2567.29,-228.42 2561.73,-224.17"/>
</g>
<!-- Node36&#45;&gt;Node24 -->
<g id="edge48" class="edge">
<title>Node36&#45;&gt;Node24</title>
<path fill="none" stroke="midnightblue" d="M2514.65,-229.2C2497.98,-219.41 2477.76,-207.53 2461,-197.68"/>
<polygon fill="midnightblue" stroke="midnightblue" points="2513.11,-232.35 2523.5,-234.4 2516.66,-226.32 2513.11,-232.35"/>
</g>
</g>
</svg>
