<?xml version="1.0" encoding="UTF-8" standalone="no"?>
<!DOCTYPE svg PUBLIC "-//W3C//DTD SVG 1.1//EN"
 "http://www.w3.org/Graphics/SVG/1.1/DTD/svg11.dtd">
<!-- Generated by graphviz version 2.43.0 (0)
 -->
<!-- Title: main Pages: 1 -->
<svg width="295pt" height="72pt"
 viewBox="0.00 0.00 295.00 71.50" xmlns="http://www.w3.org/2000/svg" xmlns:xlink="http://www.w3.org/1999/xlink">
<g id="graph0" class="graph" transform="scale(1 1) rotate(0) translate(4 67.5)">
<title>main</title>
<!-- Node1 -->
<g id="node1" class="node">
<title>Node1</title>
<g id="a_node1"><a xlink:title=" ">
<polygon fill="#bfbfbf" stroke="black" points="0,-19.5 0,-38.5 41,-38.5 41,-19.5 0,-19.5"/>
<text text-anchor="middle" x="20.5" y="-26.5" font-family="Helvetica,sans-Serif" font-size="10.00">main</text>
</a>
</g>
</g>
<!-- Node2 -->
<g id="node2" class="node">
<title>Node2</title>
<g id="a_node2"><a xlink:href="../../d3/da2/lib_fuzzer__dummy__main_8cpp.html#a76404e1977cf445151f3e74165d38ab3" target="_top" xlink:title=" ">
<polygon fill="none" stroke="black" points="77,-38.5 77,-57.5 131,-57.5 131,-38.5 77,-38.5"/>
<text text-anchor="middle" x="104" y="-45.5" font-family="Helvetica,sans-Serif" font-size="10.00">process</text>
</a>
</g>
</g>
<!-- Node1&#45;&gt;Node2 -->
<g id="edge1" class="edge">
<title>Node1&#45;&gt;Node2</title>
<path fill="none" stroke="midnightblue" d="M41.23,-33.6C49.03,-35.42 58.25,-37.57 67.16,-39.64"/>
<polygon fill="midnightblue" stroke="midnightblue" points="66.45,-43.07 76.98,-41.93 68.04,-36.26 66.45,-43.07"/>
</g>
<!-- Node4 -->
<g id="node4" class="node">
<title>Node4</title>
<g id="a_node4"><a xlink:href="../../d3/da2/lib_fuzzer__dummy__main_8cpp.html#addea2018e480eece49bb50115d8f6ab9" target="_top" xlink:title=" ">
<polygon fill="none" stroke="black" points="81,-0.5 81,-19.5 127,-19.5 127,-0.5 81,-0.5"/>
<text text-anchor="middle" x="104" y="-7.5" font-family="Helvetica,sans-Serif" font-size="10.00">usage</text>
</a>
</g>
</g>
<!-- Node1&#45;&gt;Node4 -->
<g id="edge3" class="edge">
<title>Node1&#45;&gt;Node4</title>
<path fill="none" stroke="midnightblue" d="M41.23,-24.4C50.11,-22.33 60.83,-19.83 70.82,-17.5"/>
<polygon fill="midnightblue" stroke="midnightblue" points="71.92,-20.84 80.87,-15.16 70.33,-14.02 71.92,-20.84"/>
</g>
<!-- Node3 -->
<g id="node3" class="node">
<title>Node3</title>
<g id="a_node3"><a xlink:href="../../dd/d6e/classrawspeed_1_1_file_reader.html#a8f38c7a04bdb40e48b1db647461c3d11" target="_top" xlink:title=" ">
<polygon fill="none" stroke="black" points="167,-33 167,-63 287,-63 287,-33 167,-33"/>
<text text-anchor="start" x="175" y="-51" font-family="Helvetica,sans-Serif" font-size="10.00">rawspeed::FileReader</text>
<text text-anchor="middle" x="227" y="-40" font-family="Helvetica,sans-Serif" font-size="10.00">::FileReader</text>
</a>
</g>
</g>
<!-- Node2&#45;&gt;Node3 -->
<g id="edge2" class="edge">
<title>Node2&#45;&gt;Node3</title>
<path fill="none" stroke="midnightblue" d="M131.26,-48C138.83,-48 147.47,-48 156.39,-48"/>
<polygon fill="midnightblue" stroke="midnightblue" points="156.52,-51.5 166.52,-48 156.52,-44.5 156.52,-51.5"/>
</g>
</g>
</svg>
