<?xml version="1.0" encoding="UTF-8" standalone="no"?>
<!DOCTYPE svg PUBLIC "-//W3C//DTD SVG 1.1//EN"
 "http://www.w3.org/Graphics/SVG/1.1/DTD/svg11.dtd">
<!-- Generated by graphviz version 2.43.0 (0)
 -->
<!-- Title: librawspeed/decoders/RafDecoder.h Pages: 1 -->
<svg width="544pt" height="117pt"
 viewBox="0.00 0.00 544.00 117.00" xmlns="http://www.w3.org/2000/svg" xmlns:xlink="http://www.w3.org/1999/xlink">
<g id="graph0" class="graph" transform="scale(1 1) rotate(0) translate(4 113)">
<title>librawspeed/decoders/RafDecoder.h</title>
<!-- Node1 -->
<g id="node1" class="node">
<title>Node1</title>
<g id="a_node1"><a xlink:title=" ">
<polygon fill="#bfbfbf" stroke="black" points="215,-78.5 215,-108.5 338,-108.5 338,-78.5 215,-78.5"/>
<text text-anchor="start" x="223" y="-96.5" font-family="Helvetica,sans-Serif" font-size="10.00">librawspeed/decoders</text>
<text text-anchor="middle" x="276.5" y="-85.5" font-family="Helvetica,sans-Serif" font-size="10.00">/RafDecoder.h</text>
</a>
</g>
</g>
<!-- Node2 -->
<g id="node2" class="node">
<title>Node2</title>
<g id="a_node2"><a xlink:href="../../d6/da1/fuzz_2librawspeed_2decoders_2_tiff_decoders_2main_8cpp.html" target="_top" xlink:title=" ">
<polygon fill="none" stroke="black" points="0,-0.5 0,-41.5 129,-41.5 129,-0.5 0,-0.5"/>
<text text-anchor="start" x="8" y="-29.5" font-family="Helvetica,sans-Serif" font-size="10.00">/build/rawspeed/fuzz</text>
<text text-anchor="start" x="8" y="-18.5" font-family="Helvetica,sans-Serif" font-size="10.00">/librawspeed/decoders</text>
<text text-anchor="middle" x="64.5" y="-7.5" font-family="Helvetica,sans-Serif" font-size="10.00">/TiffDecoders/main.cpp</text>
</a>
</g>
</g>
<!-- Node1&#45;&gt;Node2 -->
<g id="edge1" class="edge">
<title>Node1&#45;&gt;Node2</title>
<path fill="none" stroke="midnightblue" d="M224.73,-75.28C194.1,-65.1 155.21,-52.17 123.41,-41.59"/>
<polygon fill="midnightblue" stroke="midnightblue" points="223.77,-78.65 234.36,-78.49 225.98,-72.01 223.77,-78.65"/>
</g>
<!-- Node3 -->
<g id="node3" class="node">
<title>Node3</title>
<g id="a_node3"><a xlink:href="../../d8/df8/_raf_decoder_8cpp.html" target="_top" xlink:title=" ">
<polygon fill="none" stroke="black" points="147,-6 147,-36 270,-36 270,-6 147,-6"/>
<text text-anchor="start" x="155" y="-24" font-family="Helvetica,sans-Serif" font-size="10.00">librawspeed/decoders</text>
<text text-anchor="middle" x="208.5" y="-13" font-family="Helvetica,sans-Serif" font-size="10.00">/RafDecoder.cpp</text>
</a>
</g>
</g>
<!-- Node1&#45;&gt;Node3 -->
<g id="edge2" class="edge">
<title>Node1&#45;&gt;Node3</title>
<path fill="none" stroke="midnightblue" d="M255.63,-70.86C244.78,-59.61 231.82,-46.18 222.24,-36.25"/>
<polygon fill="midnightblue" stroke="midnightblue" points="253.28,-73.47 262.74,-78.23 258.32,-68.61 253.28,-73.47"/>
</g>
<!-- Node4 -->
<g id="node4" class="node">
<title>Node4</title>
<g id="a_node4"><a xlink:href="../../d2/d87/_fiff_parser_8cpp.html" target="_top" xlink:title=" ">
<polygon fill="none" stroke="black" points="288,-6 288,-36 403,-36 403,-6 288,-6"/>
<text text-anchor="start" x="296" y="-24" font-family="Helvetica,sans-Serif" font-size="10.00">librawspeed/parsers</text>
<text text-anchor="middle" x="345.5" y="-13" font-family="Helvetica,sans-Serif" font-size="10.00">/FiffParser.cpp</text>
</a>
</g>
</g>
<!-- Node1&#45;&gt;Node4 -->
<g id="edge3" class="edge">
<title>Node1&#45;&gt;Node4</title>
<path fill="none" stroke="midnightblue" d="M297.68,-70.86C308.69,-59.61 321.84,-46.18 331.56,-36.25"/>
<polygon fill="midnightblue" stroke="midnightblue" points="294.96,-68.64 290.46,-78.23 299.96,-73.53 294.96,-68.64"/>
</g>
<!-- Node5 -->
<g id="node5" class="node">
<title>Node5</title>
<g id="a_node5"><a xlink:href="../../dc/d4a/_raw_parser_8cpp.html" target="_top" xlink:title=" ">
<polygon fill="none" stroke="black" points="421,-6 421,-36 536,-36 536,-6 421,-6"/>
<text text-anchor="start" x="429" y="-24" font-family="Helvetica,sans-Serif" font-size="10.00">librawspeed/parsers</text>
<text text-anchor="middle" x="478.5" y="-13" font-family="Helvetica,sans-Serif" font-size="10.00">/RawParser.cpp</text>
</a>
</g>
</g>
<!-- Node1&#45;&gt;Node5 -->
<g id="edge4" class="edge">
<title>Node1&#45;&gt;Node5</title>
<path fill="none" stroke="midnightblue" d="M326.74,-74.96C361.13,-62.96 406.13,-47.26 438.18,-36.07"/>
<polygon fill="midnightblue" stroke="midnightblue" points="325.18,-71.8 316.89,-78.4 327.49,-78.41 325.18,-71.8"/>
</g>
</g>
</svg>
