<?xml version="1.0" encoding="UTF-8" standalone="no"?>
<!DOCTYPE svg PUBLIC "-//W3C//DTD SVG 1.1//EN"
 "http://www.w3.org/Graphics/SVG/1.1/DTD/svg11.dtd">
<!-- Generated by graphviz version 2.43.0 (0)
 -->
<!-- Title: rawspeed::ByteStream Pages: 1 -->
<svg width="296pt" height="229pt"
 viewBox="0.00 0.00 295.50 229.00" xmlns="http://www.w3.org/2000/svg" xmlns:xlink="http://www.w3.org/1999/xlink">
<g id="graph0" class="graph" transform="scale(1 1) rotate(0) translate(4 225)">
<title>rawspeed::ByteStream</title>
<!-- Node1 -->
<g id="node1" class="node">
<title>Node1</title>
<g id="a_node1"><a xlink:title=" ">
<polygon fill="#bfbfbf" stroke="black" points="136,-0.5 136,-19.5 264,-19.5 264,-0.5 136,-0.5"/>
<text text-anchor="middle" x="200" y="-7.5" font-family="Helvetica,sans-Serif" font-size="10.00">rawspeed::ByteStream</text>
</a>
</g>
</g>
<!-- Node2 -->
<g id="node2" class="node">
<title>Node2</title>
<g id="a_node2"><a xlink:href="../../d1/dd4/classrawspeed_1_1_data_buffer.html" target="_top" xlink:title=" ">
<polygon fill="none" stroke="black" points="84,-67.5 84,-86.5 206,-86.5 206,-67.5 84,-67.5"/>
<text text-anchor="middle" x="145" y="-74.5" font-family="Helvetica,sans-Serif" font-size="10.00">rawspeed::DataBuffer</text>
</a>
</g>
</g>
<!-- Node2&#45;&gt;Node1 -->
<g id="edge1" class="edge">
<title>Node2&#45;&gt;Node1</title>
<path fill="none" stroke="midnightblue" d="M159.16,-59.27C169.88,-46.6 184.18,-29.7 192.7,-19.63"/>
<polygon fill="midnightblue" stroke="midnightblue" points="156.21,-57.34 152.42,-67.23 161.55,-61.86 156.21,-57.34"/>
</g>
<!-- Node3 -->
<g id="node3" class="node">
<title>Node3</title>
<g id="a_node3"><a xlink:href="../../d3/dca/classrawspeed_1_1_buffer.html" target="_top" xlink:title=" ">
<polygon fill="none" stroke="black" points="43.5,-134.5 43.5,-153.5 142.5,-153.5 142.5,-134.5 43.5,-134.5"/>
<text text-anchor="middle" x="93" y="-141.5" font-family="Helvetica,sans-Serif" font-size="10.00">rawspeed::Buffer</text>
</a>
</g>
</g>
<!-- Node3&#45;&gt;Node2 -->
<g id="edge2" class="edge">
<title>Node3&#45;&gt;Node2</title>
<path fill="none" stroke="midnightblue" d="M106.38,-126.27C116.52,-113.6 130.04,-96.7 138.1,-86.63"/>
<polygon fill="midnightblue" stroke="midnightblue" points="103.53,-124.24 100.01,-134.23 108.99,-128.61 103.53,-124.24"/>
</g>
<!-- Node4 -->
<g id="node4" class="node">
<title>Node4</title>
<g id="a_node4"><a xlink:href="../../d3/d87/classuint32__t.html" target="_top" xlink:title=" ">
<polygon fill="none" stroke="black" points="0,-201.5 0,-220.5 56,-220.5 56,-201.5 0,-201.5"/>
<text text-anchor="middle" x="28" y="-208.5" font-family="Helvetica,sans-Serif" font-size="10.00">uint32_t</text>
</a>
</g>
</g>
<!-- Node4&#45;&gt;Node3 -->
<g id="edge3" class="edge">
<title>Node4&#45;&gt;Node3</title>
<path fill="none" stroke="#9a32cd" stroke-dasharray="5,2" d="M44,-194C56.75,-181.25 74.11,-163.89 84.37,-153.63"/>
<polygon fill="#9a32cd" stroke="#9a32cd" points="41.36,-191.69 36.77,-201.23 46.31,-196.64 41.36,-191.69"/>
<text text-anchor="middle" x="76.5" y="-175" font-family="Helvetica,sans-Serif" font-size="10.00"> size</text>
</g>
<!-- Node5 -->
<g id="node5" class="node">
<title>Node5</title>
<g id="a_node5"><a xlink:title=" ">
<polygon fill="none" stroke="#bfbfbf" points="74,-201.5 74,-220.5 112,-220.5 112,-201.5 74,-201.5"/>
<text text-anchor="middle" x="93" y="-208.5" font-family="Helvetica,sans-Serif" font-size="10.00">bool</text>
</a>
</g>
</g>
<!-- Node5&#45;&gt;Node3 -->
<g id="edge4" class="edge">
<title>Node5&#45;&gt;Node3</title>
<path fill="none" stroke="#9a32cd" stroke-dasharray="5,2" d="M93,-191.04C93,-178.67 93,-163.12 93,-153.63"/>
<polygon fill="#9a32cd" stroke="#9a32cd" points="89.5,-191.23 93,-201.23 96.5,-191.23 89.5,-191.23"/>
<text text-anchor="middle" x="114.5" y="-175" font-family="Helvetica,sans-Serif" font-size="10.00"> isOwner</text>
</g>
<!-- Node6 -->
<g id="node6" class="node">
<title>Node6</title>
<g id="a_node6"><a xlink:title=" ">
<polygon fill="none" stroke="#bfbfbf" points="134,-201.5 134,-220.5 184,-220.5 184,-201.5 134,-201.5"/>
<text text-anchor="middle" x="159" y="-208.5" font-family="Helvetica,sans-Serif" font-size="10.00">uint8_t</text>
</a>
</g>
</g>
<!-- Node6&#45;&gt;Node3 -->
<g id="edge5" class="edge">
<title>Node6&#45;&gt;Node3</title>
<path fill="none" stroke="#9a32cd" stroke-dasharray="5,2" d="M151.02,-192.14C147.4,-185.32 142.65,-177.79 137,-172 129.74,-164.56 120.03,-158.31 111.57,-153.71"/>
<polygon fill="#9a32cd" stroke="#9a32cd" points="147.97,-193.88 155.49,-201.35 154.27,-190.83 147.97,-193.88"/>
<text text-anchor="middle" x="158.5" y="-175" font-family="Helvetica,sans-Serif" font-size="10.00"> data</text>
</g>
<!-- Node7 -->
<g id="node7" class="node">
<title>Node7</title>
<g id="a_node7"><a xlink:title=" ">
<polygon fill="none" stroke="#bfbfbf" points="161,-134.5 161,-153.5 233,-153.5 233,-134.5 161,-134.5"/>
<text text-anchor="middle" x="197" y="-141.5" font-family="Helvetica,sans-Serif" font-size="10.00">Endianness</text>
</a>
</g>
</g>
<!-- Node7&#45;&gt;Node2 -->
<g id="edge6" class="edge">
<title>Node7&#45;&gt;Node2</title>
<path fill="none" stroke="#9a32cd" stroke-dasharray="5,2" d="M183.62,-126.27C173.48,-113.6 159.96,-96.7 151.9,-86.63"/>
<polygon fill="#9a32cd" stroke="#9a32cd" points="181.01,-128.61 189.99,-134.23 186.47,-124.24 181.01,-128.61"/>
<text text-anchor="middle" x="204.5" y="-108" font-family="Helvetica,sans-Serif" font-size="10.00"> endianness</text>
</g>
<!-- Node8 -->
<g id="node8" class="node">
<title>Node8</title>
<g id="a_node8"><a xlink:title=" ">
<polygon fill="none" stroke="#bfbfbf" points="224.5,-67.5 224.5,-86.5 287.5,-86.5 287.5,-67.5 224.5,-67.5"/>
<text text-anchor="middle" x="256" y="-74.5" font-family="Helvetica,sans-Serif" font-size="10.00">size_type</text>
</a>
</g>
</g>
<!-- Node8&#45;&gt;Node1 -->
<g id="edge7" class="edge">
<title>Node8&#45;&gt;Node1</title>
<path fill="none" stroke="#9a32cd" stroke-dasharray="5,2" d="M241.9,-59.63C230.95,-46.92 216.2,-29.8 207.43,-19.63"/>
<polygon fill="#9a32cd" stroke="#9a32cd" points="239.27,-61.94 248.45,-67.23 244.57,-57.37 239.27,-61.94"/>
<text text-anchor="middle" x="241.5" y="-41" font-family="Helvetica,sans-Serif" font-size="10.00"> pos</text>
</g>
</g>
</svg>
