<?xml version="1.0" encoding="UTF-8" standalone="no"?>
<!DOCTYPE svg PUBLIC "-//W3C//DTD SVG 1.1//EN"
 "http://www.w3.org/Graphics/SVG/1.1/DTD/svg11.dtd">
<!-- Generated by graphviz version 2.43.0 (0)
 -->
<!-- Title: rawspeed::BitStreamForwardSequentialReplenisher Pages: 1 -->
<svg width="959pt" height="162pt"
 viewBox="0.00 0.00 959.00 162.00" xmlns="http://www.w3.org/2000/svg" xmlns:xlink="http://www.w3.org/1999/xlink">
<g id="graph0" class="graph" transform="scale(1 1) rotate(0) translate(4 158)">
<title>rawspeed::BitStreamForwardSequentialReplenisher</title>
<!-- Node1 -->
<g id="node1" class="node">
<title>Node1</title>
<g id="a_node1"><a xlink:title=" ">
<polygon fill="#bfbfbf" stroke="black" points="793,-57 793,-87 951,-87 951,-57 793,-57"/>
<text text-anchor="start" x="801" y="-75" font-family="Helvetica,sans-Serif" font-size="10.00">rawspeed::BitStreamForward</text>
<text text-anchor="middle" x="872" y="-64" font-family="Helvetica,sans-Serif" font-size="10.00">SequentialReplenisher</text>
</a>
</g>
</g>
<!-- Node2 -->
<g id="node2" class="node">
<title>Node2</title>
<g id="a_node2"><a xlink:href="../../dd/d8d/structrawspeed_1_1_bit_stream_replenisher_base.html" target="_top" xlink:title=" ">
<polygon fill="none" stroke="black" points="556,-62.5 556,-81.5 756,-81.5 756,-62.5 556,-62.5"/>
<text text-anchor="middle" x="656" y="-69.5" font-family="Helvetica,sans-Serif" font-size="10.00">rawspeed::BitStreamReplenisherBase</text>
</a>
</g>
</g>
<!-- Node2&#45;&gt;Node1 -->
<g id="edge1" class="edge">
<title>Node2&#45;&gt;Node1</title>
<path fill="none" stroke="midnightblue" d="M766.32,-72C775.32,-72 784.29,-72 792.99,-72"/>
<polygon fill="midnightblue" stroke="midnightblue" points="766.17,-68.5 756.17,-72 766.17,-75.5 766.17,-68.5"/>
</g>
<!-- Node3 -->
<g id="node3" class="node">
<title>Node3</title>
<g id="a_node3"><a xlink:title=" ">
<polygon fill="none" stroke="#bfbfbf" points="375,-76.5 375,-117.5 497,-117.5 497,-76.5 375,-76.5"/>
<text text-anchor="start" x="383" y="-105.5" font-family="Helvetica,sans-Serif" font-size="10.00">std::array&lt; uint8_t,</text>
<text text-anchor="start" x="383" y="-94.5" font-family="Helvetica,sans-Serif" font-size="10.00"> BitStreamCacheBase</text>
<text text-anchor="middle" x="436" y="-83.5" font-family="Helvetica,sans-Serif" font-size="10.00">::MaxProcessBytes &gt;</text>
</a>
</g>
</g>
<!-- Node3&#45;&gt;Node2 -->
<g id="edge2" class="edge">
<title>Node3&#45;&gt;Node2</title>
<path fill="none" stroke="#9a32cd" stroke-dasharray="5,2" d="M507.36,-88.93C527.9,-86.58 550.54,-83.98 571.8,-81.54"/>
<polygon fill="#9a32cd" stroke="#9a32cd" points="506.68,-85.49 497.15,-90.1 507.48,-92.44 506.68,-85.49"/>
<text text-anchor="middle" x="526.5" y="-90" font-family="Helvetica,sans-Serif" font-size="10.00"> tmp</text>
</g>
<!-- Node4 -->
<g id="node4" class="node">
<title>Node4</title>
<g id="a_node4"><a xlink:title=" ">
<polygon fill="none" stroke="#bfbfbf" points="135,-131.5 135,-150.5 185,-150.5 185,-131.5 135,-131.5"/>
<text text-anchor="middle" x="160" y="-138.5" font-family="Helvetica,sans-Serif" font-size="10.00">uint8_t</text>
</a>
</g>
</g>
<!-- Node4&#45;&gt;Node2 -->
<g id="edge7" class="edge">
<title>Node4&#45;&gt;Node2</title>
<path fill="none" stroke="#9a32cd" stroke-dasharray="5,2" d="M195.7,-143.43C257.22,-146.88 389.08,-150.43 497,-127 546.96,-116.15 602.9,-94.23 632.99,-81.58"/>
<polygon fill="#9a32cd" stroke="#9a32cd" points="195.59,-139.92 185.4,-142.81 195.17,-146.9 195.59,-139.92"/>
<text text-anchor="middle" x="436" y="-146" font-family="Helvetica,sans-Serif" font-size="10.00"> data</text>
</g>
<!-- Node4&#45;&gt;Node3 -->
<g id="edge3" class="edge">
<title>Node4&#45;&gt;Node3</title>
<path fill="none" stroke="#9a32cd" stroke-dasharray="5,2" d="M195.29,-134.23C204.59,-132.45 214.67,-130.6 224,-129 274.76,-120.32 332.61,-111.63 374.88,-105.5"/>
<polygon fill="#9a32cd" stroke="#9a32cd" points="194.35,-130.84 185.19,-136.17 195.68,-137.72 194.35,-130.84"/>
<text text-anchor="middle" x="290.5" y="-132" font-family="Helvetica,sans-Serif" font-size="10.00"> elements</text>
</g>
<!-- Node5 -->
<g id="node5" class="node">
<title>Node5</title>
<g id="a_node5"><a xlink:title="STL class.">
<polygon fill="none" stroke="#bfbfbf" points="114,-73.5 114,-92.5 206,-92.5 206,-73.5 114,-73.5"/>
<text text-anchor="middle" x="160" y="-80.5" font-family="Helvetica,sans-Serif" font-size="10.00">std::array&lt; T &gt;</text>
</a>
</g>
</g>
<!-- Node5&#45;&gt;Node3 -->
<g id="edge4" class="edge">
<title>Node5&#45;&gt;Node3</title>
<path fill="none" stroke="orange" stroke-dasharray="5,2" d="M216.42,-80.93C255.73,-80.03 309.69,-79.96 357,-84 362.75,-84.49 368.7,-85.17 374.65,-85.96"/>
<polygon fill="orange" stroke="orange" points="216.15,-77.43 206.24,-81.18 216.33,-84.43 216.15,-77.43"/>
<text text-anchor="start" x="224" y="-98" font-family="Helvetica,sans-Serif" font-size="10.00"> &lt; uint8_t, BitStreamCache</text>
<text text-anchor="middle" x="290.5" y="-87" font-family="Helvetica,sans-Serif" font-size="10.00">Base::MaxProcessBytes &gt;</text>
</g>
<!-- Node6 -->
<g id="node6" class="node">
<title>Node6</title>
<g id="a_node6"><a xlink:title=" ">
<polygon fill="none" stroke="#bfbfbf" points="0,-73.5 0,-92.5 29,-92.5 29,-73.5 0,-73.5"/>
<text text-anchor="middle" x="14.5" y="-80.5" font-family="Helvetica,sans-Serif" font-size="10.00">T</text>
</a>
</g>
</g>
<!-- Node6&#45;&gt;Node5 -->
<g id="edge5" class="edge">
<title>Node6&#45;&gt;Node5</title>
<path fill="none" stroke="#9a32cd" stroke-dasharray="5,2" d="M39.18,-83C59.42,-83 89.11,-83 113.88,-83"/>
<polygon fill="#9a32cd" stroke="#9a32cd" points="39,-79.5 29,-83 39,-86.5 39,-79.5"/>
<text text-anchor="middle" x="71.5" y="-86" font-family="Helvetica,sans-Serif" font-size="10.00"> elements</text>
</g>
<!-- Node7 -->
<g id="node7" class="node">
<title>Node7</title>
<g id="a_node7"><a xlink:href="../../d3/d87/classuint32__t.html" target="_top" xlink:title=" ">
<polygon fill="none" stroke="black" points="408,-38.5 408,-57.5 464,-57.5 464,-38.5 408,-38.5"/>
<text text-anchor="middle" x="436" y="-45.5" font-family="Helvetica,sans-Serif" font-size="10.00">uint32_t</text>
</a>
</g>
</g>
<!-- Node7&#45;&gt;Node2 -->
<g id="edge6" class="edge">
<title>Node7&#45;&gt;Node2</title>
<path fill="none" stroke="#9a32cd" stroke-dasharray="5,2" d="M474.13,-50.96C493.24,-52.58 516.88,-54.71 538,-57 552.96,-58.63 568.98,-60.55 584.21,-62.48"/>
<polygon fill="#9a32cd" stroke="#9a32cd" points="474.29,-47.46 464.04,-50.12 473.71,-54.44 474.29,-47.46"/>
<text text-anchor="middle" x="526.5" y="-60" font-family="Helvetica,sans-Serif" font-size="10.00"> size</text>
</g>
<!-- Node8 -->
<g id="node8" class="node">
<title>Node8</title>
<g id="a_node8"><a xlink:title=" ">
<polygon fill="none" stroke="#bfbfbf" points="405.5,-0.5 405.5,-19.5 466.5,-19.5 466.5,-0.5 405.5,-0.5"/>
<text text-anchor="middle" x="436" y="-7.5" font-family="Helvetica,sans-Serif" font-size="10.00">unsigned</text>
</a>
</g>
</g>
<!-- Node8&#45;&gt;Node2 -->
<g id="edge8" class="edge">
<title>Node8&#45;&gt;Node2</title>
<path fill="none" stroke="#9a32cd" stroke-dasharray="5,2" d="M476.62,-21.27C518.12,-33.07 582.57,-51.4 621.58,-62.5"/>
<polygon fill="#9a32cd" stroke="#9a32cd" points="477.43,-17.86 466.85,-18.49 475.52,-24.59 477.43,-17.86"/>
<text text-anchor="middle" x="526.5" y="-41" font-family="Helvetica,sans-Serif" font-size="10.00"> pos</text>
</g>
</g>
</svg>
