<?xml version="1.0" encoding="UTF-8" standalone="no"?>
<!DOCTYPE svg PUBLIC "-//W3C//DTD SVG 1.1//EN"
 "http://www.w3.org/Graphics/SVG/1.1/DTD/svg11.dtd">
<!-- Generated by graphviz version 2.43.0 (0)
 -->
<!-- Title: /build/rawspeed/fuzz/librawspeed/fuzz/Common.h Pages: 1 -->
<!--zoomable 263 -->
<svg id="main" version="1.1" xmlns="http://www.w3.org/2000/svg" xmlns:xlink="http://www.w3.org/1999/xlink" xml:space="preserve" onload="init(evt)">
<style type="text/css"><![CDATA[
.edge:hover path { stroke: red; }
.edge:hover polygon { stroke: red; fill: red; }
]]></style>
<script type="text/javascript"><![CDATA[
var edges = document.getElementsByTagName('g');
if (edges && edges.length) {
  for (var i=0;i<edges.length;i++) {
    if (edges[i].id.substr(0,4)=='edge') {
      edges[i].setAttribute('class','edge');
    }
  }
}
]]></script>
        <defs>
                <circle id="rim" cx="0" cy="0" r="7"/>
                <circle id="rim2" cx="0" cy="0" r="3.5"/>
                <g id="zoomPlus">
                        <use xlink:href="#rim" fill="#404040">
                                <set attributeName="fill" to="#808080" begin="zoomplus.mouseover" end="zoomplus.mouseout"/>
                        </use>
                        <path d="M-4,0h8M0,-4v8" fill="none" stroke="white" stroke-width="1.5" pointer-events="none"/>
                </g>
                <g id="zoomMin">
                        <use xlink:href="#rim" fill="#404040">
                                <set attributeName="fill" to="#808080" begin="zoomminus.mouseover" end="zoomminus.mouseout"/>
                        </use>
                        <path d="M-4,0h8" fill="none" stroke="white" stroke-width="1.5" pointer-events="none"/>
                </g>
                <g id="dirArrow">
                        <path fill="none" stroke="white" stroke-width="1.5" d="M0,-3.0v7 M-2.5,-0.5L0,-3.0L2.5,-0.5"/>
                </g>
               <g id="resetDef">
                       <use xlink:href="#rim2" fill="#404040">
                               <set attributeName="fill" to="#808080" begin="reset.mouseover" end="reset.mouseout"/>
                       </use>
               </g>
        </defs>

<script type="text/javascript">
var viewWidth = 1463;
var viewHeight = 263;
var sectionId = 'dynsection-0';
</script>
<script xlink:href="../../svgpan.js"/>
<svg id="graph" class="graph">
<g id="viewport">
<title>/build/rawspeed/fuzz/librawspeed/fuzz/Common.h</title>
<!-- Node1 -->
<g id="node1" class="node">
<title>Node1</title>
<g id="a_node1"><a xlink:title=" ">
<polygon fill="#bfbfbf" stroke="black" points="778,-224.5 778,-254.5 936,-254.5 936,-224.5 778,-224.5"/>
<text text-anchor="start" x="786" y="-242.5" font-family="Helvetica,sans-Serif" font-size="10.00">/build/rawspeed/fuzz</text>
<text text-anchor="middle" x="857" y="-231.5" font-family="Helvetica,sans-Serif" font-size="10.00">/librawspeed/fuzz/Common.h</text>
</a>
</g>
</g>
<!-- Node2 -->
<g id="node2" class="node">
<title>Node2</title>
<g id="a_node2"><a xlink:href="../../d6/da1/_raw_image_8h.html" target="_top" xlink:title=" ">
<polygon fill="none" stroke="black" points="750.5,-168.5 750.5,-187.5 873.5,-187.5 873.5,-168.5 750.5,-168.5"/>
<text text-anchor="middle" x="812" y="-175.5" font-family="Helvetica,sans-Serif" font-size="10.00">common/RawImage.h</text>
</a>
</g>
</g>
<!-- Node1&#45;&gt;Node2 -->
<g id="edge1" class="edge">
<title>Node1&#45;&gt;Node2</title>
<path fill="none" stroke="midnightblue" d="M846.34,-224.4C839.86,-215.84 831.57,-204.87 824.75,-195.86"/>
<polygon fill="midnightblue" stroke="midnightblue" points="827.37,-193.52 818.55,-187.66 821.79,-197.74 827.37,-193.52"/>
</g>
<!-- Node21 -->
<g id="node21" class="node">
<title>Node21</title>
<g id="a_node21"><a xlink:href="../../dd/d27/_color_filter_array_8h.html" target="_top" xlink:title=" ">
<polygon fill="none" stroke="black" points="1123,-112.5 1123,-131.5 1273,-131.5 1273,-112.5 1123,-112.5"/>
<text text-anchor="middle" x="1198" y="-119.5" font-family="Helvetica,sans-Serif" font-size="10.00">metadata/ColorFilterArray.h</text>
</a>
</g>
</g>
<!-- Node1&#45;&gt;Node21 -->
<g id="edge48" class="edge">
<title>Node1&#45;&gt;Node21</title>
<path fill="none" stroke="midnightblue" d="M898.47,-224.45C966.37,-201.46 1100.01,-156.19 1163.25,-134.77"/>
<polygon fill="midnightblue" stroke="midnightblue" points="1164.43,-138.07 1172.78,-131.54 1162.19,-131.44 1164.43,-138.07"/>
</g>
<!-- Node3 -->
<g id="node3" class="node">
<title>Node3</title>
<g id="a_node3"><a xlink:title=" ">
<polygon fill="none" stroke="#bfbfbf" points="150,-0.5 150,-19.5 252,-19.5 252,-0.5 150,-0.5"/>
<text text-anchor="middle" x="201" y="-7.5" font-family="Helvetica,sans-Serif" font-size="10.00">rawspeedconfig.h</text>
</a>
</g>
</g>
<!-- Node2&#45;&gt;Node3 -->
<g id="edge2" class="edge">
<title>Node2&#45;&gt;Node3</title>
<path fill="none" stroke="midnightblue" d="M750.49,-176.45C607.64,-174.59 262.61,-166.53 224,-132 195.27,-106.31 195.6,-56.81 198.3,-29.76"/>
<polygon fill="midnightblue" stroke="midnightblue" points="201.8,-30.03 199.53,-19.68 194.85,-29.19 201.8,-30.03"/>
</g>
<!-- Node4 -->
<g id="node4" class="node">
<title>Node4</title>
<g id="a_node4"><a xlink:href="../../db/d8a/_thread_safety_analysis_8h.html" target="_top" xlink:title=" ">
<polygon fill="none" stroke="black" points="0,-0.5 0,-19.5 132,-19.5 132,-0.5 0,-0.5"/>
<text text-anchor="middle" x="66" y="-7.5" font-family="Helvetica,sans-Serif" font-size="10.00">ThreadSafetyAnalysis.h</text>
</a>
</g>
</g>
<!-- Node2&#45;&gt;Node4 -->
<g id="edge3" class="edge">
<title>Node2&#45;&gt;Node4</title>
<path fill="none" stroke="midnightblue" d="M750.41,-176.25C605.16,-173.96 244.77,-165.03 129,-132 78.14,-117.49 51.21,-121.35 24,-76 13.56,-58.6 30.06,-39.11 45.34,-26.05"/>
<polygon fill="midnightblue" stroke="midnightblue" points="47.9,-28.48 53.53,-19.51 43.53,-23.01 47.9,-28.48"/>
</g>
<!-- Node5 -->
<g id="node5" class="node">
<title>Node5</title>
<g id="a_node5"><a xlink:href="../../dd/d9c/_array2_d_ref_8h.html" target="_top" xlink:title=" ">
<polygon fill="none" stroke="black" points="377,-112.5 377,-131.5 503,-131.5 503,-112.5 377,-112.5"/>
<text text-anchor="middle" x="440" y="-119.5" font-family="Helvetica,sans-Serif" font-size="10.00">common/Array2DRef.h</text>
</a>
</g>
</g>
<!-- Node2&#45;&gt;Node5 -->
<g id="edge4" class="edge">
<title>Node2&#45;&gt;Node5</title>
<path fill="none" stroke="midnightblue" d="M753.06,-168.44C686.66,-158.81 578.9,-143.16 508.74,-132.98"/>
<polygon fill="midnightblue" stroke="midnightblue" points="509.07,-129.49 498.67,-131.52 508.06,-136.42 509.07,-129.49"/>
</g>
<!-- Node6 -->
<g id="node6" class="node">
<title>Node6</title>
<g id="a_node6"><a xlink:title=" ">
<polygon fill="none" stroke="#bfbfbf" points="442,-56.5 442,-75.5 494,-75.5 494,-56.5 442,-56.5"/>
<text text-anchor="middle" x="468" y="-63.5" font-family="Helvetica,sans-Serif" font-size="10.00">cassert</text>
</a>
</g>
</g>
<!-- Node2&#45;&gt;Node6 -->
<g id="edge42" class="edge">
<title>Node2&#45;&gt;Node6</title>
<path fill="none" stroke="midnightblue" d="M750.47,-176.78C609.42,-175.65 272.25,-169.04 238,-132 181.7,-71.11 353.47,-65.68 431.53,-66.22"/>
<polygon fill="midnightblue" stroke="midnightblue" points="431.86,-69.73 441.89,-66.33 431.93,-62.73 431.86,-69.73"/>
</g>
<!-- Node8 -->
<g id="node8" class="node">
<title>Node8</title>
<g id="a_node8"><a xlink:title=" ">
<polygon fill="none" stroke="#bfbfbf" points="512.5,-56.5 512.5,-75.5 559.5,-75.5 559.5,-56.5 512.5,-56.5"/>
<text text-anchor="middle" x="536" y="-63.5" font-family="Helvetica,sans-Serif" font-size="10.00">vector</text>
</a>
</g>
</g>
<!-- Node2&#45;&gt;Node8 -->
<g id="edge47" class="edge">
<title>Node2&#45;&gt;Node8</title>
<path fill="none" stroke="midnightblue" d="M750.33,-174.21C682.07,-169.83 577.98,-158.83 550,-132 537.77,-120.27 534.96,-100.63 534.79,-86"/>
<polygon fill="midnightblue" stroke="midnightblue" points="538.3,-85.69 535.09,-75.59 531.31,-85.48 538.3,-85.69"/>
</g>
<!-- Node9 -->
<g id="node9" class="node">
<title>Node9</title>
<g id="a_node9"><a xlink:href="../../d9/df5/src_2librawspeed_2common_2_common_8h.html" target="_top" xlink:title=" ">
<polygon fill="none" stroke="black" points="711,-112.5 711,-131.5 827,-131.5 827,-112.5 711,-112.5"/>
<text text-anchor="middle" x="769" y="-119.5" font-family="Helvetica,sans-Serif" font-size="10.00">common/Common.h</text>
</a>
</g>
</g>
<!-- Node2&#45;&gt;Node9 -->
<g id="edge8" class="edge">
<title>Node2&#45;&gt;Node9</title>
<path fill="none" stroke="midnightblue" d="M804.9,-168.08C798.76,-160.38 789.73,-149.03 782.26,-139.65"/>
<polygon fill="midnightblue" stroke="midnightblue" points="784.94,-137.39 775.97,-131.75 779.46,-141.75 784.94,-137.39"/>
</g>
<!-- Node12 -->
<g id="node12" class="node">
<title>Node12</title>
<g id="a_node12"><a xlink:title=" ">
<polygon fill="none" stroke="#bfbfbf" points="1091,-0.5 1091,-19.5 1141,-19.5 1141,-0.5 1091,-0.5"/>
<text text-anchor="middle" x="1116" y="-7.5" font-family="Helvetica,sans-Serif" font-size="10.00">cstdint</text>
</a>
</g>
</g>
<!-- Node2&#45;&gt;Node12 -->
<g id="edge44" class="edge">
<title>Node2&#45;&gt;Node12</title>
<path fill="none" stroke="midnightblue" d="M873.83,-175.62C995.16,-172.26 1255.05,-161.65 1282,-132 1328.01,-81.37 1211.87,-38.68 1150.74,-20.46"/>
<polygon fill="midnightblue" stroke="midnightblue" points="1151.66,-17.08 1141.08,-17.64 1149.71,-23.8 1151.66,-17.08"/>
</g>
<!-- Node15 -->
<g id="node15" class="node">
<title>Node15</title>
<g id="a_node15"><a xlink:title=" ">
<polygon fill="none" stroke="#bfbfbf" points="968,-56.5 968,-75.5 1012,-75.5 1012,-56.5 968,-56.5"/>
<text text-anchor="middle" x="990" y="-63.5" font-family="Helvetica,sans-Serif" font-size="10.00">string</text>
</a>
</g>
</g>
<!-- Node2&#45;&gt;Node15 -->
<g id="edge46" class="edge">
<title>Node2&#45;&gt;Node15</title>
<path fill="none" stroke="midnightblue" d="M818.99,-168.33C830.34,-154.74 854.02,-128.28 879,-112 903.73,-95.88 935.18,-83.8 958.28,-76.23"/>
<polygon fill="midnightblue" stroke="midnightblue" points="959.46,-79.53 967.94,-73.17 957.35,-72.86 959.46,-79.53"/>
</g>
<!-- Node16 -->
<g id="node16" class="node">
<title>Node16</title>
<g id="a_node16"><a xlink:href="../../d7/d4f/_error_log_8h.html" target="_top" xlink:title=" ">
<polygon fill="none" stroke="black" points="247,-112.5 247,-131.5 359,-131.5 359,-112.5 247,-112.5"/>
<text text-anchor="middle" x="303" y="-119.5" font-family="Helvetica,sans-Serif" font-size="10.00">common/ErrorLog.h</text>
</a>
</g>
</g>
<!-- Node2&#45;&gt;Node16 -->
<g id="edge18" class="edge">
<title>Node2&#45;&gt;Node16</title>
<path fill="none" stroke="midnightblue" d="M750.15,-171.45C666.3,-163.77 511.63,-149.03 369.23,-132.11"/>
<polygon fill="midnightblue" stroke="midnightblue" points="369.35,-128.6 359,-130.89 368.52,-135.55 369.35,-128.6"/>
</g>
<!-- Node17 -->
<g id="node17" class="node">
<title>Node17</title>
<g id="a_node17"><a xlink:href="../../da/d78/_mutex_8h.html" target="_top" xlink:title=" ">
<polygon fill="none" stroke="black" points="33.5,-56.5 33.5,-75.5 134.5,-75.5 134.5,-56.5 33.5,-56.5"/>
<text text-anchor="middle" x="84" y="-63.5" font-family="Helvetica,sans-Serif" font-size="10.00">common/Mutex.h</text>
</a>
</g>
</g>
<!-- Node2&#45;&gt;Node17 -->
<g id="edge25" class="edge">
<title>Node2&#45;&gt;Node17</title>
<path fill="none" stroke="midnightblue" d="M750.32,-177.27C610.29,-177.14 272.37,-172.51 167,-132 139.65,-121.49 114.05,-98.7 98.7,-83.11"/>
<polygon fill="midnightblue" stroke="midnightblue" points="101.09,-80.54 91.66,-75.71 96.02,-85.36 101.09,-80.54"/>
</g>
<!-- Node18 -->
<g id="node18" class="node">
<title>Node18</title>
<g id="a_node18"><a xlink:href="../../d1/d18/_point_8h.html" target="_top" xlink:title=" ">
<polygon fill="none" stroke="black" points="1030,-56.5 1030,-75.5 1126,-75.5 1126,-56.5 1030,-56.5"/>
<text text-anchor="middle" x="1078" y="-63.5" font-family="Helvetica,sans-Serif" font-size="10.00">common/Point.h</text>
</a>
</g>
</g>
<!-- Node2&#45;&gt;Node18 -->
<g id="edge26" class="edge">
<title>Node2&#45;&gt;Node18</title>
<path fill="none" stroke="midnightblue" d="M824.76,-168.39C849.59,-151.68 902.79,-116.12 912,-112 947.08,-96.31 988.84,-85.03 1021.69,-77.68"/>
<polygon fill="midnightblue" stroke="midnightblue" points="1022.56,-81.07 1031.59,-75.53 1021.07,-74.23 1022.56,-81.07"/>
</g>
<!-- Node19 -->
<g id="node19" class="node">
<title>Node19</title>
<g id="a_node19"><a xlink:href="../../d2/d9b/_table_look_up_8h.html" target="_top" xlink:title=" ">
<polygon fill="none" stroke="black" points="559,-112.5 559,-131.5 693,-131.5 693,-112.5 559,-112.5"/>
<text text-anchor="middle" x="626" y="-119.5" font-family="Helvetica,sans-Serif" font-size="10.00">common/TableLookUp.h</text>
</a>
</g>
</g>
<!-- Node2&#45;&gt;Node19 -->
<g id="edge30" class="edge">
<title>Node2&#45;&gt;Node19</title>
<path fill="none" stroke="midnightblue" d="M782.53,-168.44C750.83,-159.24 700.27,-144.56 665.23,-134.39"/>
<polygon fill="midnightblue" stroke="midnightblue" points="665.91,-130.94 655.33,-131.52 663.96,-137.67 665.91,-130.94"/>
</g>
<!-- Node20 -->
<g id="node20" class="node">
<title>Node20</title>
<g id="a_node20"><a xlink:href="../../db/dca/_black_area_8h.html" target="_top" xlink:title=" ">
<polygon fill="none" stroke="black" points="1329.5,-112.5 1329.5,-131.5 1454.5,-131.5 1454.5,-112.5 1329.5,-112.5"/>
<text text-anchor="middle" x="1392" y="-119.5" font-family="Helvetica,sans-Serif" font-size="10.00">metadata/BlackArea.h</text>
</a>
</g>
</g>
<!-- Node2&#45;&gt;Node20 -->
<g id="edge33" class="edge">
<title>Node2&#45;&gt;Node20</title>
<path fill="none" stroke="midnightblue" d="M873.61,-172.03C968.49,-164.25 1156.06,-148.4 1315,-132 1316.46,-131.85 1317.94,-131.69 1319.44,-131.54"/>
<polygon fill="midnightblue" stroke="midnightblue" points="1319.83,-135.01 1329.4,-130.46 1319.08,-128.05 1319.83,-135.01"/>
</g>
<!-- Node2&#45;&gt;Node21 -->
<g id="edge35" class="edge">
<title>Node2&#45;&gt;Node21</title>
<path fill="none" stroke="midnightblue" d="M873.16,-168.44C942.19,-158.79 1054.33,-143.1 1127.12,-132.92"/>
<polygon fill="midnightblue" stroke="midnightblue" points="1127.7,-136.37 1137.12,-131.52 1126.73,-129.44 1127.7,-136.37"/>
</g>
<!-- Node23 -->
<g id="node23" class="node">
<title>Node23</title>
<g id="a_node23"><a xlink:title=" ">
<polygon fill="none" stroke="#bfbfbf" points="921,-112.5 921,-131.5 963,-131.5 963,-112.5 921,-112.5"/>
<text text-anchor="middle" x="942" y="-119.5" font-family="Helvetica,sans-Serif" font-size="10.00">array</text>
</a>
</g>
</g>
<!-- Node2&#45;&gt;Node23 -->
<g id="edge41" class="edge">
<title>Node2&#45;&gt;Node23</title>
<path fill="none" stroke="midnightblue" d="M832.6,-168.44C853.99,-159.56 887.68,-145.56 912.02,-135.45"/>
<polygon fill="midnightblue" stroke="midnightblue" points="913.61,-138.58 921.5,-131.52 910.92,-132.12 913.61,-138.58"/>
</g>
<!-- Node24 -->
<g id="node24" class="node">
<title>Node24</title>
<g id="a_node24"><a xlink:title=" ">
<polygon fill="none" stroke="#bfbfbf" points="981.5,-112.5 981.5,-131.5 1028.5,-131.5 1028.5,-112.5 981.5,-112.5"/>
<text text-anchor="middle" x="1005" y="-119.5" font-family="Helvetica,sans-Serif" font-size="10.00">cmath</text>
</a>
</g>
</g>
<!-- Node2&#45;&gt;Node24 -->
<g id="edge43" class="edge">
<title>Node2&#45;&gt;Node24</title>
<path fill="none" stroke="midnightblue" d="M842.58,-168.44C877.75,-158.6 935.3,-142.5 971.61,-132.34"/>
<polygon fill="midnightblue" stroke="midnightblue" points="972.57,-135.71 981.25,-129.64 970.68,-128.97 972.57,-135.71"/>
</g>
<!-- Node25 -->
<g id="node25" class="node">
<title>Node25</title>
<g id="a_node25"><a xlink:title=" ">
<polygon fill="none" stroke="#bfbfbf" points="1047,-112.5 1047,-131.5 1105,-131.5 1105,-112.5 1047,-112.5"/>
<text text-anchor="middle" x="1076" y="-119.5" font-family="Helvetica,sans-Serif" font-size="10.00">memory</text>
</a>
</g>
</g>
<!-- Node2&#45;&gt;Node25 -->
<g id="edge45" class="edge">
<title>Node2&#45;&gt;Node25</title>
<path fill="none" stroke="midnightblue" d="M857.55,-168.43C901.12,-160.12 968.93,-146.9 1036.94,-132.17"/>
<polygon fill="midnightblue" stroke="midnightblue" points="1037.95,-135.53 1046.98,-129.99 1036.46,-128.69 1037.95,-135.53"/>
</g>
<!-- Node5&#45;&gt;Node6 -->
<g id="edge5" class="edge">
<title>Node5&#45;&gt;Node6</title>
<path fill="none" stroke="midnightblue" d="M444.62,-112.08C448.46,-104.69 454.02,-93.95 458.76,-84.81"/>
<polygon fill="midnightblue" stroke="midnightblue" points="461.97,-86.24 463.46,-75.75 455.75,-83.02 461.97,-86.24"/>
</g>
<!-- Node7 -->
<g id="node7" class="node">
<title>Node7</title>
<g id="a_node7"><a xlink:title=" ">
<polygon fill="none" stroke="#bfbfbf" points="553.5,-0.5 553.5,-19.5 622.5,-19.5 622.5,-0.5 553.5,-0.5"/>
<text text-anchor="middle" x="588" y="-7.5" font-family="Helvetica,sans-Serif" font-size="10.00">type_traits</text>
</a>
</g>
</g>
<!-- Node5&#45;&gt;Node7 -->
<g id="edge6" class="edge">
<title>Node5&#45;&gt;Node7</title>
<path fill="none" stroke="midnightblue" d="M435.67,-112.43C429.56,-98.97 420.46,-72.7 433,-56 446.3,-38.29 502.29,-25.29 543.17,-17.94"/>
<polygon fill="midnightblue" stroke="midnightblue" points="543.95,-21.36 553.2,-16.19 542.75,-14.46 543.95,-21.36"/>
</g>
<!-- Node5&#45;&gt;Node8 -->
<g id="edge7" class="edge">
<title>Node5&#45;&gt;Node8</title>
<path fill="none" stroke="midnightblue" d="M455.42,-112.32C470.54,-103.82 493.82,-90.73 511.47,-80.8"/>
<polygon fill="midnightblue" stroke="midnightblue" points="513.61,-83.61 520.61,-75.65 510.18,-77.51 513.61,-83.61"/>
</g>
<!-- Node9&#45;&gt;Node6 -->
<g id="edge10" class="edge">
<title>Node9&#45;&gt;Node6</title>
<path fill="none" stroke="midnightblue" d="M710.88,-112.61C659.03,-104.79 580.86,-92.22 504.15,-76.11"/>
<polygon fill="midnightblue" stroke="midnightblue" points="504.83,-72.67 494.32,-74.02 503.37,-79.52 504.83,-72.67"/>
</g>
<!-- Node9&#45;&gt;Node7 -->
<g id="edge16" class="edge">
<title>Node9&#45;&gt;Node7</title>
<path fill="none" stroke="midnightblue" d="M748.23,-112.45C728.77,-104.12 699.15,-90.61 675,-76 650,-60.87 623.38,-40.24 606.27,-26.31"/>
<polygon fill="midnightblue" stroke="midnightblue" points="608.19,-23.36 598.25,-19.7 603.74,-28.76 608.19,-23.36"/>
</g>
<!-- Node9&#45;&gt;Node8 -->
<g id="edge17" class="edge">
<title>Node9&#45;&gt;Node8</title>
<path fill="none" stroke="midnightblue" d="M731.6,-112.44C692.34,-103.43 628.81,-88.81 574,-76 572.56,-75.66 571.08,-75.32 569.59,-74.97"/>
<polygon fill="midnightblue" stroke="midnightblue" points="570.25,-71.53 559.71,-72.64 568.64,-78.34 570.25,-71.53"/>
</g>
<!-- Node10 -->
<g id="node10" class="node">
<title>Node10</title>
<g id="a_node10"><a xlink:title=" ">
<polygon fill="none" stroke="#bfbfbf" points="844,-0.5 844,-19.5 908,-19.5 908,-0.5 844,-0.5"/>
<text text-anchor="middle" x="876" y="-7.5" font-family="Helvetica,sans-Serif" font-size="10.00">algorithm</text>
</a>
</g>
</g>
<!-- Node9&#45;&gt;Node10 -->
<g id="edge9" class="edge">
<title>Node9&#45;&gt;Node10</title>
<path fill="none" stroke="midnightblue" d="M739.99,-112.46C707.9,-101.53 663.16,-80.99 683,-56 701.46,-32.74 782.77,-20.39 833.78,-14.81"/>
<polygon fill="midnightblue" stroke="midnightblue" points="834.28,-18.28 843.86,-13.75 833.55,-11.32 834.28,-18.28"/>
</g>
<!-- Node11 -->
<g id="node11" class="node">
<title>Node11</title>
<g id="a_node11"><a xlink:title=" ">
<polygon fill="none" stroke="#bfbfbf" points="862,-56.5 862,-75.5 912,-75.5 912,-56.5 862,-56.5"/>
<text text-anchor="middle" x="887" y="-63.5" font-family="Helvetica,sans-Serif" font-size="10.00">climits</text>
</a>
</g>
</g>
<!-- Node9&#45;&gt;Node11 -->
<g id="edge11" class="edge">
<title>Node9&#45;&gt;Node11</title>
<path fill="none" stroke="midnightblue" d="M787.7,-112.44C806.94,-103.64 837.15,-89.81 859.2,-79.72"/>
<polygon fill="midnightblue" stroke="midnightblue" points="860.75,-82.86 868.39,-75.52 857.84,-76.5 860.75,-82.86"/>
</g>
<!-- Node9&#45;&gt;Node12 -->
<g id="edge12" class="edge">
<title>Node9&#45;&gt;Node12</title>
<path fill="none" stroke="midnightblue" d="M805,-112.48C836.23,-104.58 882.38,-91.7 921,-76 938.68,-68.81 941.29,-63.11 959,-56 999.72,-39.65 1048.58,-26.62 1080.86,-18.88"/>
<polygon fill="midnightblue" stroke="midnightblue" points="1081.8,-22.25 1090.73,-16.55 1080.19,-15.44 1081.8,-22.25"/>
</g>
<!-- Node13 -->
<g id="node13" class="node">
<title>Node13</title>
<g id="a_node13"><a xlink:title=" ">
<polygon fill="none" stroke="#bfbfbf" points="692,-56.5 692,-75.5 742,-75.5 742,-56.5 692,-56.5"/>
<text text-anchor="middle" x="717" y="-63.5" font-family="Helvetica,sans-Serif" font-size="10.00">cstring</text>
</a>
</g>
</g>
<!-- Node9&#45;&gt;Node13 -->
<g id="edge13" class="edge">
<title>Node9&#45;&gt;Node13</title>
<path fill="none" stroke="midnightblue" d="M760.41,-112.08C752.84,-104.22 741.62,-92.57 732.49,-83.08"/>
<polygon fill="midnightblue" stroke="midnightblue" points="734.88,-80.53 725.43,-75.75 729.84,-85.38 734.88,-80.53"/>
</g>
<!-- Node14 -->
<g id="node14" class="node">
<title>Node14</title>
<g id="a_node14"><a xlink:title=" ">
<polygon fill="none" stroke="#bfbfbf" points="760.5,-56.5 760.5,-75.5 843.5,-75.5 843.5,-56.5 760.5,-56.5"/>
<text text-anchor="middle" x="802" y="-63.5" font-family="Helvetica,sans-Serif" font-size="10.00">initializer_list</text>
</a>
</g>
</g>
<!-- Node9&#45;&gt;Node14 -->
<g id="edge14" class="edge">
<title>Node9&#45;&gt;Node14</title>
<path fill="none" stroke="midnightblue" d="M774.45,-112.08C779.01,-104.61 785.67,-93.72 791.29,-84.52"/>
<polygon fill="midnightblue" stroke="midnightblue" points="794.42,-86.11 796.65,-75.75 788.45,-82.46 794.42,-86.11"/>
</g>
<!-- Node9&#45;&gt;Node15 -->
<g id="edge15" class="edge">
<title>Node9&#45;&gt;Node15</title>
<path fill="none" stroke="midnightblue" d="M804.48,-112.44C841.74,-103.44 902.01,-88.82 954,-76 955.27,-75.69 956.56,-75.37 957.86,-75.05"/>
<polygon fill="midnightblue" stroke="midnightblue" points="959.06,-78.35 967.92,-72.54 957.37,-71.56 959.06,-78.35"/>
</g>
<!-- Node16&#45;&gt;Node4 -->
<g id="edge19" class="edge">
<title>Node16&#45;&gt;Node4</title>
<path fill="none" stroke="midnightblue" d="M284.4,-112.37C242.95,-93.13 142.8,-46.65 93.86,-23.93"/>
<polygon fill="midnightblue" stroke="midnightblue" points="95.05,-20.63 84.51,-19.59 92.11,-26.98 95.05,-20.63"/>
</g>
<!-- Node16&#45;&gt;Node8 -->
<g id="edge24" class="edge">
<title>Node16&#45;&gt;Node8</title>
<path fill="none" stroke="midnightblue" d="M343.35,-112.48C381.78,-104.24 441.46,-91.12 502.45,-76.05"/>
<polygon fill="midnightblue" stroke="midnightblue" points="503.38,-79.43 512.24,-73.62 501.69,-72.63 503.38,-79.43"/>
</g>
<!-- Node16&#45;&gt;Node15 -->
<g id="edge23" class="edge">
<title>Node16&#45;&gt;Node15</title>
<path fill="none" stroke="midnightblue" d="M359.34,-112.94C362.27,-112.61 365.17,-112.29 368,-112 613.04,-87.09 675.87,-99.94 921,-76 933.06,-74.82 946.26,-73.19 957.86,-71.63"/>
<polygon fill="midnightblue" stroke="midnightblue" points="958.55,-75.07 967.98,-70.24 957.6,-68.13 958.55,-75.07"/>
</g>
<!-- Node16&#45;&gt;Node17 -->
<g id="edge20" class="edge">
<title>Node16&#45;&gt;Node17</title>
<path fill="none" stroke="midnightblue" d="M268.3,-112.44C230.42,-103.1 169.65,-88.12 128.34,-77.93"/>
<polygon fill="midnightblue" stroke="midnightblue" points="129.09,-74.51 118.54,-75.52 127.41,-81.31 129.09,-74.51"/>
</g>
<!-- Node17&#45;&gt;Node3 -->
<g id="edge21" class="edge">
<title>Node17&#45;&gt;Node3</title>
<path fill="none" stroke="midnightblue" d="M102.54,-56.44C121.62,-47.64 151.57,-33.81 173.44,-23.72"/>
<polygon fill="midnightblue" stroke="midnightblue" points="174.93,-26.88 182.55,-19.52 172,-20.53 174.93,-26.88"/>
</g>
<!-- Node17&#45;&gt;Node4 -->
<g id="edge22" class="edge">
<title>Node17&#45;&gt;Node4</title>
<path fill="none" stroke="midnightblue" d="M81.03,-56.08C78.62,-48.85 75.14,-38.41 72.13,-29.4"/>
<polygon fill="midnightblue" stroke="midnightblue" points="75.4,-28.13 68.92,-19.75 68.76,-30.34 75.4,-28.13"/>
</g>
<!-- Node18&#45;&gt;Node7 -->
<g id="edge29" class="edge">
<title>Node18&#45;&gt;Node7</title>
<path fill="none" stroke="midnightblue" d="M1029.82,-57.21C1026.84,-56.78 1023.88,-56.38 1021,-56 879.53,-37.49 711.25,-21.81 632.63,-14.85"/>
<polygon fill="midnightblue" stroke="midnightblue" points="632.86,-11.36 622.59,-13.97 632.25,-18.33 632.86,-11.36"/>
</g>
<!-- Node18&#45;&gt;Node10 -->
<g id="edge27" class="edge">
<title>Node18&#45;&gt;Node10</title>
<path fill="none" stroke="midnightblue" d="M1045.99,-56.44C1011.27,-47.16 955.71,-32.31 917.62,-22.13"/>
<polygon fill="midnightblue" stroke="midnightblue" points="918.42,-18.72 907.86,-19.52 916.61,-25.48 918.42,-18.72"/>
</g>
<!-- Node18&#45;&gt;Node12 -->
<g id="edge28" class="edge">
<title>Node18&#45;&gt;Node12</title>
<path fill="none" stroke="midnightblue" d="M1084.27,-56.08C1089.64,-48.46 1097.52,-37.26 1104.08,-27.94"/>
<polygon fill="midnightblue" stroke="midnightblue" points="1106.95,-29.94 1109.84,-19.75 1101.22,-25.91 1106.95,-29.94"/>
</g>
<!-- Node19&#45;&gt;Node8 -->
<g id="edge32" class="edge">
<title>Node19&#45;&gt;Node8</title>
<path fill="none" stroke="midnightblue" d="M611.54,-112.32C597.5,-103.9 575.95,-90.97 559.46,-81.07"/>
<polygon fill="midnightblue" stroke="midnightblue" points="560.8,-77.8 550.42,-75.65 557.2,-83.8 560.8,-77.8"/>
</g>
<!-- Node19&#45;&gt;Node12 -->
<g id="edge31" class="edge">
<title>Node19&#45;&gt;Node12</title>
<path fill="none" stroke="midnightblue" d="M630.62,-112.42C638.94,-97.94 657.94,-68.96 683,-56 718.02,-37.89 983.66,-19.4 1080.67,-13.19"/>
<polygon fill="midnightblue" stroke="midnightblue" points="1081.09,-16.67 1090.85,-12.54 1080.65,-9.68 1081.09,-16.67"/>
</g>
<!-- Node20&#45;&gt;Node12 -->
<g id="edge34" class="edge">
<title>Node20&#45;&gt;Node12</title>
<path fill="none" stroke="midnightblue" d="M1384.41,-112.33C1371.58,-98.24 1344.13,-70.5 1315,-56 1261.61,-29.43 1192.39,-18.35 1151.24,-13.87"/>
<polygon fill="midnightblue" stroke="midnightblue" points="1151.46,-10.38 1141.16,-12.85 1150.75,-17.34 1151.46,-10.38"/>
</g>
<!-- Node21&#45;&gt;Node8 -->
<g id="edge40" class="edge">
<title>Node21&#45;&gt;Node8</title>
<path fill="none" stroke="midnightblue" d="M1122.9,-112.84C1119.9,-112.55 1116.92,-112.27 1114,-112 907.42,-92.9 658.79,-75.38 569.75,-69.28"/>
<polygon fill="midnightblue" stroke="midnightblue" points="569.91,-65.79 559.7,-68.6 569.43,-72.77 569.91,-65.79"/>
</g>
<!-- Node21&#45;&gt;Node12 -->
<g id="edge37" class="edge">
<title>Node21&#45;&gt;Node12</title>
<path fill="none" stroke="midnightblue" d="M1191.57,-112.37C1177.97,-94.14 1146.14,-51.43 1128.43,-27.68"/>
<polygon fill="midnightblue" stroke="midnightblue" points="1131.19,-25.52 1122.4,-19.59 1125.58,-29.7 1131.19,-25.52"/>
</g>
<!-- Node21&#45;&gt;Node15 -->
<g id="edge39" class="edge">
<title>Node21&#45;&gt;Node15</title>
<path fill="none" stroke="midnightblue" d="M1162.98,-112.47C1129.23,-104.16 1076.5,-90.97 1022.13,-76.25"/>
<polygon fill="midnightblue" stroke="midnightblue" points="1022.89,-72.83 1012.33,-73.58 1021.06,-79.58 1022.89,-72.83"/>
</g>
<!-- Node21&#45;&gt;Node18 -->
<g id="edge36" class="edge">
<title>Node21&#45;&gt;Node18</title>
<path fill="none" stroke="midnightblue" d="M1178.99,-112.44C1159.41,-103.64 1128.69,-89.81 1106.27,-79.72"/>
<polygon fill="midnightblue" stroke="midnightblue" points="1107.48,-76.43 1096.93,-75.52 1104.61,-82.81 1107.48,-76.43"/>
</g>
<!-- Node22 -->
<g id="node22" class="node">
<title>Node22</title>
<g id="a_node22"><a xlink:title=" ">
<polygon fill="none" stroke="#bfbfbf" points="1182,-56.5 1182,-75.5 1220,-75.5 1220,-56.5 1182,-56.5"/>
<text text-anchor="middle" x="1201" y="-63.5" font-family="Helvetica,sans-Serif" font-size="10.00">map</text>
</a>
</g>
</g>
<!-- Node21&#45;&gt;Node22 -->
<g id="edge38" class="edge">
<title>Node21&#45;&gt;Node22</title>
<path fill="none" stroke="midnightblue" d="M1198.5,-112.08C1198.89,-105.01 1199.45,-94.86 1199.95,-85.99"/>
<polygon fill="midnightblue" stroke="midnightblue" points="1203.45,-85.93 1200.51,-75.75 1196.46,-85.54 1203.45,-85.93"/>
</g>
</g>
</svg>
        <g id="navigator" transform="translate(0 0)" fill="#404254">
                <rect fill="#f2f5e9" fill-opacity="0.5" stroke="#606060" stroke-width=".5" x="0" y="0" width="60" height="60"/>
                <use id="zoomplus" xlink:href="#zoomPlus" x="17" y="9" onmousedown="handleZoom(evt,'in')"/>
                <use id="zoomminus" xlink:href="#zoomMin" x="42" y="9" onmousedown="handleZoom(evt,'out')"/>
                <use id="reset" xlink:href="#resetDef" x="30" y="36" onmousedown="handleReset()"/>
                <g id="arrowUp" xlink:href="#dirArrow" transform="translate(30 24)" onmousedown="handlePan(0,-1)">
                  <use xlink:href="#rim" fill="#404040">
                        <set attributeName="fill" to="#808080" begin="arrowUp.mouseover" end="arrowUp.mouseout"/>
                  </use>
                  <path fill="none" stroke="white" stroke-width="1.5" d="M0,-3.0v7 M-2.5,-0.5L0,-3.0L2.5,-0.5"/>
                </g>
                <g id="arrowRight" xlink:href="#dirArrow" transform="rotate(90) translate(36 -43)" onmousedown="handlePan(1,0)">
                  <use xlink:href="#rim" fill="#404040">
                        <set attributeName="fill" to="#808080" begin="arrowRight.mouseover" end="arrowRight.mouseout"/>
                  </use>
                  <path fill="none" stroke="white" stroke-width="1.5" d="M0,-3.0v7 M-2.5,-0.5L0,-3.0L2.5,-0.5"/>
                </g>
                <g id="arrowDown" xlink:href="#dirArrow" transform="rotate(180) translate(-30 -48)" onmousedown="handlePan(0,1)">
                  <use xlink:href="#rim" fill="#404040">
                        <set attributeName="fill" to="#808080" begin="arrowDown.mouseover" end="arrowDown.mouseout"/>
                  </use>
                  <path fill="none" stroke="white" stroke-width="1.5" d="M0,-3.0v7 M-2.5,-0.5L0,-3.0L2.5,-0.5"/>
                </g>
                <g id="arrowLeft" xlink:href="#dirArrow" transform="rotate(270) translate(-36 17)" onmousedown="handlePan(-1,0)">
                  <use xlink:href="#rim" fill="#404040">
                        <set attributeName="fill" to="#808080" begin="arrowLeft.mouseover" end="arrowLeft.mouseout"/>
                  </use>
                  <path fill="none" stroke="white" stroke-width="1.5" d="M0,-3.0v7 M-2.5,-0.5L0,-3.0L2.5,-0.5"/>
                </g>
        </g>
        <svg viewBox="0 0 15 15" width="100%" height="30px" preserveAspectRatio="xMaxYMin meet">
         <g id="arrow_out" transform="scale(0.3 0.3)">
          <a xlink:href="fuzz_2librawspeed_2fuzz_2_common_8h__incl_org.svg" target="_base">
           <rect id="button" ry="5" rx="5" y="6" x="6" height="38" width="38"
                fill="#f2f5e9" fill-opacity="0.5" stroke="#606060" stroke-width="1.0"/>
           <path id="arrow"
             d="M 11.500037,31.436501 C 11.940474,20.09759 22.043105,11.32322 32.158766,21.979434 L 37.068811,17.246167 C 37.068811,17.246167 37.088388,32 37.088388,32 L 22.160133,31.978069 C 22.160133,31.978069 26.997745,27.140456 26.997745,27.140456 C 18.528582,18.264221 13.291696,25.230495 11.500037,31.436501 z"
             style="fill:#404040;"/>
          </a>
         </g>
        </svg>
</svg>
