<?xml version="1.0" encoding="UTF-8" standalone="no"?>
<!DOCTYPE svg PUBLIC "-//W3C//DTD SVG 1.1//EN"
 "http://www.w3.org/Graphics/SVG/1.1/DTD/svg11.dtd">
<!-- Generated by graphviz version 2.43.0 (0)
 -->
<!-- Title: librawspeed/tiff/CiffIFD.cpp Pages: 1 -->
<svg width="1782pt" height="476pt"
 viewBox="0.00 0.00 1782.00 476.00" xmlns="http://www.w3.org/2000/svg" xmlns:xlink="http://www.w3.org/1999/xlink">
<g id="graph0" class="graph" transform="scale(1 1) rotate(0) translate(4 472)">
<title>librawspeed/tiff/CiffIFD.cpp</title>
<!-- Node1 -->
<g id="node1" class="node">
<title>Node1</title>
<g id="a_node1"><a xlink:title=" ">
<polygon fill="#bfbfbf" stroke="black" points="1173,-448.5 1173,-467.5 1321,-467.5 1321,-448.5 1173,-448.5"/>
<text text-anchor="middle" x="1247" y="-455.5" font-family="Helvetica,sans-Serif" font-size="10.00">librawspeed/tiff/CiffIFD.cpp</text>
</a>
</g>
</g>
<!-- Node2 -->
<g id="node2" class="node">
<title>Node2</title>
<g id="a_node2"><a xlink:href="../../d8/dd4/_ciff_i_f_d_8h.html" target="_top" xlink:title=" ">
<polygon fill="none" stroke="black" points="1380,-392.5 1380,-411.5 1454,-411.5 1454,-392.5 1380,-392.5"/>
<text text-anchor="middle" x="1417" y="-399.5" font-family="Helvetica,sans-Serif" font-size="10.00">tiff/CiffIFD.h</text>
</a>
</g>
</g>
<!-- Node1&#45;&gt;Node2 -->
<g id="edge1" class="edge">
<title>Node1&#45;&gt;Node2</title>
<path fill="none" stroke="midnightblue" d="M1273.94,-448.44C1302.66,-439.32 1348.33,-424.81 1380.32,-414.65"/>
<polygon fill="midnightblue" stroke="midnightblue" points="1381.72,-417.88 1390.19,-411.52 1379.6,-411.21 1381.72,-417.88"/>
</g>
<!-- Node3 -->
<g id="node3" class="node">
<title>Node3</title>
<g id="a_node3"><a xlink:href="../../d0/d6f/_n_o_ranges_set_8h.html" target="_top" xlink:title=" ">
<polygon fill="none" stroke="black" points="1248,-280.5 1248,-299.5 1386,-299.5 1386,-280.5 1248,-280.5"/>
<text text-anchor="middle" x="1317" y="-287.5" font-family="Helvetica,sans-Serif" font-size="10.00">common/NORangesSet.h</text>
</a>
</g>
</g>
<!-- Node1&#45;&gt;Node3 -->
<g id="edge67" class="edge">
<title>Node1&#45;&gt;Node3</title>
<path fill="none" stroke="midnightblue" d="M1250.76,-448.08C1261.83,-421.83 1294.42,-344.55 1309.36,-309.12"/>
<polygon fill="midnightblue" stroke="midnightblue" points="1312.73,-310.14 1313.39,-299.57 1306.28,-307.42 1312.73,-310.14"/>
</g>
<!-- Node6 -->
<g id="node6" class="node">
<title>Node6</title>
<g id="a_node6"><a xlink:title=" ">
<polygon fill="none" stroke="#bfbfbf" points="579,-0.5 579,-19.5 631,-19.5 631,-0.5 579,-0.5"/>
<text text-anchor="middle" x="605" y="-7.5" font-family="Helvetica,sans-Serif" font-size="10.00">cassert</text>
</a>
</g>
</g>
<!-- Node1&#45;&gt;Node6 -->
<g id="edge75" class="edge">
<title>Node1&#45;&gt;Node6</title>
<path fill="none" stroke="midnightblue" d="M1172.69,-454.18C978.71,-445.84 472,-417.33 472,-347 472,-347 472,-347 472,-121 472,-70.45 529.76,-38.75 569.15,-23.02"/>
<polygon fill="midnightblue" stroke="midnightblue" points="570.63,-26.2 578.72,-19.36 568.13,-19.66 570.63,-26.2"/>
</g>
<!-- Node8 -->
<g id="node8" class="node">
<title>Node8</title>
<g id="a_node8"><a xlink:title=" ">
<polygon fill="none" stroke="#bfbfbf" points="1134.5,-168.5 1134.5,-187.5 1179.5,-187.5 1179.5,-168.5 1134.5,-168.5"/>
<text text-anchor="middle" x="1157" y="-175.5" font-family="Helvetica,sans-Serif" font-size="10.00">utility</text>
</a>
</g>
</g>
<!-- Node1&#45;&gt;Node8 -->
<g id="edge80" class="edge">
<title>Node1&#45;&gt;Node8</title>
<path fill="none" stroke="midnightblue" d="M1217.81,-448.37C1200.18,-441.51 1179.06,-430.03 1168,-412 1125.72,-343.06 1142.71,-239.9 1152.23,-197.85"/>
<polygon fill="midnightblue" stroke="midnightblue" points="1155.68,-198.44 1154.6,-187.9 1148.88,-196.82 1155.68,-198.44"/>
</g>
<!-- Node11 -->
<g id="node11" class="node">
<title>Node11</title>
<g id="a_node11"><a xlink:href="../../d7/de7/_byte_stream_8h.html" target="_top" xlink:title=" ">
<polygon fill="none" stroke="black" points="761.5,-280.5 761.5,-299.5 856.5,-299.5 856.5,-280.5 761.5,-280.5"/>
<text text-anchor="middle" x="809" y="-287.5" font-family="Helvetica,sans-Serif" font-size="10.00">io/ByteStream.h</text>
</a>
</g>
</g>
<!-- Node1&#45;&gt;Node11 -->
<g id="edge68" class="edge">
<title>Node1&#45;&gt;Node11</title>
<path fill="none" stroke="midnightblue" d="M1196.1,-448.44C1156.65,-441.02 1100.97,-428.82 1054,-412 968.88,-381.52 874.71,-329.36 832.14,-304.69"/>
<polygon fill="midnightblue" stroke="midnightblue" points="833.8,-301.61 823.4,-299.59 830.27,-307.65 833.8,-301.61"/>
</g>
<!-- Node14 -->
<g id="node14" class="node">
<title>Node14</title>
<g id="a_node14"><a xlink:href="../../d9/df5/src_2librawspeed_2common_2_common_8h.html" target="_top" xlink:title=" ">
<polygon fill="none" stroke="black" points="982,-56.5 982,-75.5 1098,-75.5 1098,-56.5 982,-56.5"/>
<text text-anchor="middle" x="1040" y="-63.5" font-family="Helvetica,sans-Serif" font-size="10.00">common/Common.h</text>
</a>
</g>
</g>
<!-- Node1&#45;&gt;Node14 -->
<g id="edge66" class="edge">
<title>Node1&#45;&gt;Node14</title>
<path fill="none" stroke="midnightblue" d="M1237.41,-448.34C1219.33,-431.02 1182,-390.03 1182,-347 1182,-347 1182,-347 1182,-289 1182,-235.16 1213.15,-215.61 1188,-168 1164.23,-123 1110.39,-94.26 1074.62,-79.38"/>
<polygon fill="midnightblue" stroke="midnightblue" points="1075.64,-76.02 1065.06,-75.55 1073.04,-82.52 1075.64,-76.02"/>
</g>
<!-- Node18 -->
<g id="node18" class="node">
<title>Node18</title>
<g id="a_node18"><a xlink:title=" ">
<polygon fill="none" stroke="#bfbfbf" points="1578.5,-0.5 1578.5,-19.5 1661.5,-19.5 1661.5,-0.5 1578.5,-0.5"/>
<text text-anchor="middle" x="1620" y="-7.5" font-family="Helvetica,sans-Serif" font-size="10.00">initializer_list</text>
</a>
</g>
</g>
<!-- Node1&#45;&gt;Node18 -->
<g id="edge76" class="edge">
<title>Node1&#45;&gt;Node18</title>
<path fill="none" stroke="midnightblue" d="M1321,-455.56C1457.7,-450.88 1736,-431.03 1736,-347 1736,-347 1736,-347 1736,-289 1736,-182.52 1662.63,-69.57 1632.59,-27.79"/>
<polygon fill="midnightblue" stroke="midnightblue" points="1635.3,-25.57 1626.57,-19.57 1629.65,-29.7 1635.3,-25.57"/>
</g>
<!-- Node19 -->
<g id="node19" class="node">
<title>Node19</title>
<g id="a_node19"><a xlink:title=" ">
<polygon fill="none" stroke="#bfbfbf" points="1464,-0.5 1464,-19.5 1508,-19.5 1508,-0.5 1464,-0.5"/>
<text text-anchor="middle" x="1486" y="-7.5" font-family="Helvetica,sans-Serif" font-size="10.00">string</text>
</a>
</g>
</g>
<!-- Node1&#45;&gt;Node19 -->
<g id="edge79" class="edge">
<title>Node1&#45;&gt;Node19</title>
<path fill="none" stroke="midnightblue" d="M1321.15,-449.51C1425.1,-437.21 1605.44,-408.67 1641,-356 1659.9,-328.01 1649.83,-312.6 1641,-280 1627.42,-229.82 1582,-230.99 1582,-179 1582,-179 1582,-179 1582,-121 1582,-77.54 1538.94,-42.96 1510.5,-24.85"/>
<polygon fill="midnightblue" stroke="midnightblue" points="1512.21,-21.79 1501.85,-19.56 1508.56,-27.77 1512.21,-21.79"/>
</g>
<!-- Node20 -->
<g id="node20" class="node">
<title>Node20</title>
<g id="a_node20"><a xlink:title=" ">
<polygon fill="none" stroke="#bfbfbf" points="1694.5,-0.5 1694.5,-19.5 1741.5,-19.5 1741.5,-0.5 1694.5,-0.5"/>
<text text-anchor="middle" x="1718" y="-7.5" font-family="Helvetica,sans-Serif" font-size="10.00">vector</text>
</a>
</g>
</g>
<!-- Node1&#45;&gt;Node20 -->
<g id="edge81" class="edge">
<title>Node1&#45;&gt;Node20</title>
<path fill="none" stroke="midnightblue" d="M1321.11,-456.79C1466.26,-454.35 1774,-438.42 1774,-347 1774,-347 1774,-347 1774,-121 1774,-84.44 1749.12,-47.75 1732.53,-27.34"/>
<polygon fill="midnightblue" stroke="midnightblue" points="1735.15,-25.02 1726.02,-19.64 1729.8,-29.54 1735.15,-25.02"/>
</g>
<!-- Node31 -->
<g id="node31" class="node">
<title>Node31</title>
<g id="a_node31"><a xlink:title=" ">
<polygon fill="none" stroke="#bfbfbf" points="1058,-168.5 1058,-187.5 1116,-187.5 1116,-168.5 1058,-168.5"/>
<text text-anchor="middle" x="1087" y="-175.5" font-family="Helvetica,sans-Serif" font-size="10.00">memory</text>
</a>
</g>
</g>
<!-- Node1&#45;&gt;Node31 -->
<g id="edge78" class="edge">
<title>Node1&#45;&gt;Node31</title>
<path fill="none" stroke="midnightblue" d="M1197.14,-448.45C1144.17,-436.16 1068,-407.91 1068,-347 1068,-347 1068,-347 1068,-289 1068,-256.49 1076.16,-219.35 1081.78,-197.61"/>
<polygon fill="midnightblue" stroke="midnightblue" points="1085.22,-198.32 1084.44,-187.75 1078.46,-196.5 1085.22,-198.32"/>
</g>
<!-- Node34 -->
<g id="node34" class="node">
<title>Node34</title>
<g id="a_node34"><a xlink:title=" ">
<polygon fill="none" stroke="#bfbfbf" points="1594,-336.5 1594,-355.5 1632,-355.5 1632,-336.5 1594,-336.5"/>
<text text-anchor="middle" x="1613" y="-343.5" font-family="Helvetica,sans-Serif" font-size="10.00">map</text>
</a>
</g>
</g>
<!-- Node1&#45;&gt;Node34 -->
<g id="edge77" class="edge">
<title>Node1&#45;&gt;Node34</title>
<path fill="none" stroke="midnightblue" d="M1303.75,-448.43C1347.79,-441 1410.06,-428.79 1463,-412 1507.97,-397.74 1557.77,-374.59 1587.18,-360.12"/>
<polygon fill="midnightblue" stroke="midnightblue" points="1588.94,-363.15 1596.34,-355.56 1585.82,-356.88 1588.94,-363.15"/>
</g>
<!-- Node35 -->
<g id="node35" class="node">
<title>Node35</title>
<g id="a_node35"><a xlink:href="../../da/dd1/_ciff_parser_exception_8h.html" target="_top" xlink:title=" ">
<polygon fill="none" stroke="black" points="185.5,-224.5 185.5,-243.5 344.5,-243.5 344.5,-224.5 185.5,-224.5"/>
<text text-anchor="middle" x="265" y="-231.5" font-family="Helvetica,sans-Serif" font-size="10.00">parsers/CiffParserException.h</text>
</a>
</g>
</g>
<!-- Node1&#45;&gt;Node35 -->
<g id="edge69" class="edge">
<title>Node1&#45;&gt;Node35</title>
<path fill="none" stroke="midnightblue" d="M1172.91,-455.6C989.19,-451.74 522.74,-439.34 458,-412 374.6,-376.78 304.17,-289.26 277,-252.11"/>
<polygon fill="midnightblue" stroke="midnightblue" points="279.71,-249.9 271.04,-243.82 274.03,-253.98 279.71,-249.9"/>
</g>
<!-- Node2&#45;&gt;Node3 -->
<g id="edge2" class="edge">
<title>Node2&#45;&gt;Node3</title>
<path fill="none" stroke="midnightblue" d="M1405.87,-392.28C1395.13,-383.62 1378.67,-369.69 1366,-356 1351.96,-340.83 1337.97,-321.78 1328.55,-308.23"/>
<polygon fill="midnightblue" stroke="midnightblue" points="1331.36,-306.13 1322.82,-299.85 1325.58,-310.08 1331.36,-306.13"/>
</g>
<!-- Node10 -->
<g id="node10" class="node">
<title>Node10</title>
<g id="a_node10"><a xlink:href="../../d3/dc6/_ciff_entry_8h.html" target="_top" xlink:title=" ">
<polygon fill="none" stroke="black" points="1375.5,-336.5 1375.5,-355.5 1458.5,-355.5 1458.5,-336.5 1375.5,-336.5"/>
<text text-anchor="middle" x="1417" y="-343.5" font-family="Helvetica,sans-Serif" font-size="10.00">tiff/CiffEntry.h</text>
</a>
</g>
</g>
<!-- Node2&#45;&gt;Node10 -->
<g id="edge9" class="edge">
<title>Node2&#45;&gt;Node10</title>
<path fill="none" stroke="midnightblue" d="M1417,-392.08C1417,-385.01 1417,-374.86 1417,-365.99"/>
<polygon fill="midnightblue" stroke="midnightblue" points="1420.5,-365.75 1417,-355.75 1413.5,-365.75 1420.5,-365.75"/>
</g>
<!-- Node16 -->
<g id="node16" class="node">
<title>Node16</title>
<g id="a_node16"><a xlink:title=" ">
<polygon fill="none" stroke="#bfbfbf" points="929,-0.5 929,-19.5 979,-19.5 979,-0.5 929,-0.5"/>
<text text-anchor="middle" x="954" y="-7.5" font-family="Helvetica,sans-Serif" font-size="10.00">cstdint</text>
</a>
</g>
</g>
<!-- Node2&#45;&gt;Node16 -->
<g id="edge61" class="edge">
<title>Node2&#45;&gt;Node16</title>
<path fill="none" stroke="midnightblue" d="M1387.82,-392.5C1347.98,-379.35 1277.16,-350.21 1239,-300 1202.41,-251.85 1232.9,-222.16 1206,-168 1176.45,-108.5 1163.82,-90.43 1107,-56 1087.17,-43.98 1027.77,-28.42 989.08,-19.1"/>
<polygon fill="midnightblue" stroke="midnightblue" points="989.79,-15.67 979.25,-16.76 988.17,-22.48 989.79,-15.67"/>
</g>
<!-- Node2&#45;&gt;Node19 -->
<g id="edge64" class="edge">
<title>Node2&#45;&gt;Node19</title>
<path fill="none" stroke="midnightblue" d="M1430.92,-392.42C1442.65,-384.45 1458.93,-371.49 1468,-356 1508.65,-286.56 1506,-259.46 1506,-179 1506,-179 1506,-179 1506,-121 1506,-88.44 1497.41,-51.32 1491.49,-29.59"/>
<polygon fill="midnightblue" stroke="midnightblue" points="1494.79,-28.41 1488.7,-19.74 1488.06,-30.32 1494.79,-28.41"/>
</g>
<!-- Node2&#45;&gt;Node20 -->
<g id="edge65" class="edge">
<title>Node2&#45;&gt;Node20</title>
<path fill="none" stroke="midnightblue" d="M1441.08,-392.39C1464.55,-383.81 1501.12,-369.93 1532,-356 1556.82,-344.8 1623.91,-321.2 1641,-300 1708.26,-216.53 1717.12,-79.74 1718.02,-29.91"/>
<polygon fill="midnightblue" stroke="midnightblue" points="1721.52,-29.7 1718.11,-19.67 1714.52,-29.64 1721.52,-29.7"/>
</g>
<!-- Node2&#45;&gt;Node31 -->
<g id="edge63" class="edge">
<title>Node2&#45;&gt;Node31</title>
<path fill="none" stroke="midnightblue" d="M1379.82,-401.26C1334.93,-399.85 1258.9,-391.77 1206,-356 1145.97,-315.42 1108.18,-233.46 1093.71,-197.09"/>
<polygon fill="midnightblue" stroke="midnightblue" points="1096.97,-195.81 1090.1,-187.73 1090.43,-198.32 1096.97,-195.81"/>
</g>
<!-- Node33 -->
<g id="node33" class="node">
<title>Node33</title>
<g id="a_node33"><a xlink:href="../../d6/d18/_ciff_tag_8h.html" target="_top" xlink:title=" ">
<polygon fill="none" stroke="black" points="1556.5,-280.5 1556.5,-299.5 1631.5,-299.5 1631.5,-280.5 1556.5,-280.5"/>
<text text-anchor="middle" x="1594" y="-287.5" font-family="Helvetica,sans-Serif" font-size="10.00">tiff/CiffTag.h</text>
</a>
</g>
</g>
<!-- Node2&#45;&gt;Node33 -->
<g id="edge60" class="edge">
<title>Node2&#45;&gt;Node33</title>
<path fill="none" stroke="midnightblue" d="M1435.43,-392.45C1453.34,-383.92 1481.11,-370.08 1504,-356 1529.44,-340.35 1557.07,-319.83 1574.9,-306.06"/>
<polygon fill="midnightblue" stroke="midnightblue" points="1577.54,-308.45 1583.28,-299.55 1573.24,-302.93 1577.54,-308.45"/>
</g>
<!-- Node2&#45;&gt;Node34 -->
<g id="edge62" class="edge">
<title>Node2&#45;&gt;Node34</title>
<path fill="none" stroke="midnightblue" d="M1448.06,-392.44C1485.39,-382.16 1547.55,-365.03 1583.96,-355"/>
<polygon fill="midnightblue" stroke="midnightblue" points="1585.23,-358.28 1593.94,-352.25 1583.37,-351.53 1585.23,-358.28"/>
</g>
<!-- Node4 -->
<g id="node4" class="node">
<title>Node4</title>
<g id="a_node4"><a xlink:href="../../d9/dc1/_range_8h.html" target="_top" xlink:title=" ">
<polygon fill="none" stroke="black" points="1298,-224.5 1298,-243.5 1400,-243.5 1400,-224.5 1298,-224.5"/>
<text text-anchor="middle" x="1349" y="-231.5" font-family="Helvetica,sans-Serif" font-size="10.00">common/Range.h</text>
</a>
</g>
</g>
<!-- Node3&#45;&gt;Node4 -->
<g id="edge3" class="edge">
<title>Node3&#45;&gt;Node4</title>
<path fill="none" stroke="midnightblue" d="M1322.28,-280.08C1326.71,-272.61 1333.16,-261.72 1338.62,-252.52"/>
<polygon fill="midnightblue" stroke="midnightblue" points="1341.73,-254.14 1343.81,-243.75 1335.71,-250.57 1341.73,-254.14"/>
</g>
<!-- Node9 -->
<g id="node9" class="node">
<title>Node9</title>
<g id="a_node9"><a xlink:title=" ">
<polygon fill="none" stroke="#bfbfbf" points="1248,-224.5 1248,-243.5 1280,-243.5 1280,-224.5 1248,-224.5"/>
<text text-anchor="middle" x="1264" y="-231.5" font-family="Helvetica,sans-Serif" font-size="10.00">set</text>
</a>
</g>
</g>
<!-- Node3&#45;&gt;Node9 -->
<g id="edge8" class="edge">
<title>Node3&#45;&gt;Node9</title>
<path fill="none" stroke="midnightblue" d="M1308.25,-280.08C1300.53,-272.22 1289.1,-260.57 1279.78,-251.08"/>
<polygon fill="midnightblue" stroke="midnightblue" points="1282.09,-248.44 1272.59,-243.75 1277.1,-253.34 1282.09,-248.44"/>
</g>
<!-- Node5 -->
<g id="node5" class="node">
<title>Node5</title>
<g id="a_node5"><a xlink:title=" ">
<polygon fill="none" stroke="#bfbfbf" points="1151,-0.5 1151,-19.5 1215,-19.5 1215,-0.5 1151,-0.5"/>
<text text-anchor="middle" x="1183" y="-7.5" font-family="Helvetica,sans-Serif" font-size="10.00">algorithm</text>
</a>
</g>
</g>
<!-- Node4&#45;&gt;Node5 -->
<g id="edge4" class="edge">
<title>Node4&#45;&gt;Node5</title>
<path fill="none" stroke="midnightblue" d="M1349.06,-224.35C1348.77,-196.28 1344.1,-106.58 1298,-56 1279.09,-35.25 1249.43,-23.95 1224.97,-17.87"/>
<polygon fill="midnightblue" stroke="midnightblue" points="1225.73,-14.45 1215.2,-15.64 1224.17,-21.28 1225.73,-14.45"/>
</g>
<!-- Node4&#45;&gt;Node6 -->
<g id="edge5" class="edge">
<title>Node4&#45;&gt;Node6</title>
<path fill="none" stroke="midnightblue" d="M1331.06,-224.41C1301.75,-210.69 1241.49,-183.76 1188,-168 1061.25,-130.64 1026.06,-135.36 896,-112 800.64,-94.87 768.79,-116.98 681,-76 656.31,-64.48 633.33,-42.65 619.24,-27.49"/>
<polygon fill="midnightblue" stroke="midnightblue" points="621.67,-24.95 612.38,-19.86 616.46,-29.63 621.67,-24.95"/>
</g>
<!-- Node7 -->
<g id="node7" class="node">
<title>Node7</title>
<g id="a_node7"><a xlink:title=" ">
<polygon fill="none" stroke="#bfbfbf" points="1328.5,-0.5 1328.5,-19.5 1397.5,-19.5 1397.5,-0.5 1328.5,-0.5"/>
<text text-anchor="middle" x="1363" y="-7.5" font-family="Helvetica,sans-Serif" font-size="10.00">type_traits</text>
</a>
</g>
</g>
<!-- Node4&#45;&gt;Node7 -->
<g id="edge6" class="edge">
<title>Node4&#45;&gt;Node7</title>
<path fill="none" stroke="midnightblue" d="M1352.98,-224.22C1356.86,-215.28 1362.67,-200.94 1366,-188 1380.63,-131.08 1381.03,-114.35 1374,-56 1372.93,-47.11 1370.71,-37.43 1368.54,-29.34"/>
<polygon fill="midnightblue" stroke="midnightblue" points="1371.84,-28.17 1365.73,-19.51 1365.11,-30.09 1371.84,-28.17"/>
</g>
<!-- Node4&#45;&gt;Node8 -->
<g id="edge7" class="edge">
<title>Node4&#45;&gt;Node8</title>
<path fill="none" stroke="midnightblue" d="M1318.58,-224.44C1283.45,-214.56 1225.88,-198.37 1189.79,-188.22"/>
<polygon fill="midnightblue" stroke="midnightblue" points="1190.34,-184.74 1179.76,-185.4 1188.44,-191.48 1190.34,-184.74"/>
</g>
<!-- Node10&#45;&gt;Node3 -->
<g id="edge10" class="edge">
<title>Node10&#45;&gt;Node3</title>
<path fill="none" stroke="midnightblue" d="M1400.93,-336.32C1385.04,-327.74 1360.49,-314.49 1342.04,-304.52"/>
<polygon fill="midnightblue" stroke="midnightblue" points="1343.49,-301.33 1333.03,-299.65 1340.16,-307.49 1343.49,-301.33"/>
</g>
<!-- Node10&#45;&gt;Node11 -->
<g id="edge11" class="edge">
<title>Node10&#45;&gt;Node11</title>
<path fill="none" stroke="midnightblue" d="M1375.21,-341.29C1269.11,-331.86 989.1,-307 867.15,-296.16"/>
<polygon fill="midnightblue" stroke="midnightblue" points="867.17,-292.65 856.9,-295.25 866.55,-299.62 867.17,-292.65"/>
</g>
<!-- Node10&#45;&gt;Node16 -->
<g id="edge57" class="edge">
<title>Node10&#45;&gt;Node16</title>
<path fill="none" stroke="midnightblue" d="M1417.89,-336.5C1419.71,-316.34 1422.58,-264.3 1409,-224 1380.43,-139.19 1374.07,-103.14 1298,-56 1242.43,-21.56 1070.67,-29.58 1006,-20 1000.51,-19.19 994.7,-18.25 989.03,-17.3"/>
<polygon fill="midnightblue" stroke="midnightblue" points="989.53,-13.84 979.09,-15.6 988.35,-20.74 989.53,-13.84"/>
</g>
<!-- Node10&#45;&gt;Node19 -->
<g id="edge58" class="edge">
<title>Node10&#45;&gt;Node19</title>
<path fill="none" stroke="midnightblue" d="M1421.52,-336.27C1433.65,-312.02 1466,-241.5 1466,-179 1466,-179 1466,-179 1466,-121 1466,-88.44 1474.59,-51.32 1480.51,-29.59"/>
<polygon fill="midnightblue" stroke="midnightblue" points="1483.94,-30.32 1483.3,-19.74 1477.21,-28.41 1483.94,-30.32"/>
</g>
<!-- Node10&#45;&gt;Node20 -->
<g id="edge59" class="edge">
<title>Node10&#45;&gt;Node20</title>
<path fill="none" stroke="midnightblue" d="M1426.3,-336.15C1460.66,-303.26 1583,-184.44 1672,-76 1684.7,-60.52 1697.76,-41.75 1706.7,-28.37"/>
<polygon fill="midnightblue" stroke="midnightblue" points="1709.83,-29.97 1712.42,-19.7 1703.99,-26.12 1709.83,-29.97"/>
</g>
<!-- Node10&#45;&gt;Node33 -->
<g id="edge55" class="edge">
<title>Node10&#45;&gt;Node33</title>
<path fill="none" stroke="midnightblue" d="M1445.05,-336.44C1475.08,-327.28 1522.91,-312.69 1556.24,-302.52"/>
<polygon fill="midnightblue" stroke="midnightblue" points="1557.54,-305.78 1566.09,-299.52 1555.5,-299.09 1557.54,-305.78"/>
</g>
<!-- Node11&#45;&gt;Node6 -->
<g id="edge51" class="edge">
<title>Node11&#45;&gt;Node6</title>
<path fill="none" stroke="midnightblue" d="M761.37,-285.23C716.47,-280.26 648.19,-269.01 594,-244 551.14,-224.22 510,-226.21 510,-179 510,-179 510,-179 510,-121 510,-77.74 552.61,-43.09 580.75,-24.91"/>
<polygon fill="midnightblue" stroke="midnightblue" points="582.66,-27.85 589.31,-19.6 578.97,-21.9 582.66,-27.85"/>
</g>
<!-- Node12 -->
<g id="node12" class="node">
<title>Node12</title>
<g id="a_node12"><a xlink:href="../../d2/d4f/_address_sanitizer_8h.html" target="_top" xlink:title=" ">
<polygon fill="none" stroke="black" points="818.5,-168.5 818.5,-187.5 925.5,-187.5 925.5,-168.5 818.5,-168.5"/>
<text text-anchor="middle" x="872" y="-175.5" font-family="Helvetica,sans-Serif" font-size="10.00">AddressSanitizer.h</text>
</a>
</g>
</g>
<!-- Node11&#45;&gt;Node12 -->
<g id="edge12" class="edge">
<title>Node11&#45;&gt;Node12</title>
<path fill="none" stroke="midnightblue" d="M819.35,-280.34C828.8,-271.94 842.55,-258.37 851,-244 859.46,-229.63 864.96,-211.43 868.2,-197.95"/>
<polygon fill="midnightblue" stroke="midnightblue" points="871.68,-198.44 870.41,-187.92 864.84,-196.93 871.68,-198.44"/>
</g>
<!-- Node11&#45;&gt;Node14 -->
<g id="edge14" class="edge">
<title>Node11&#45;&gt;Node14</title>
<path fill="none" stroke="midnightblue" d="M856.66,-281.94C886.06,-275.74 923.3,-264.39 951,-244 1004.97,-204.26 1028.34,-122.48 1036.43,-85.67"/>
<polygon fill="midnightblue" stroke="midnightblue" points="1039.87,-86.29 1038.46,-75.79 1033.02,-84.88 1039.87,-86.29"/>
</g>
<!-- Node11&#45;&gt;Node16 -->
<g id="edge52" class="edge">
<title>Node11&#45;&gt;Node16</title>
<path fill="none" stroke="midnightblue" d="M785.39,-280.46C741.51,-263.11 654.16,-220.91 681,-168 719.12,-92.84 759.86,-96.06 834,-56 861.36,-41.22 894.6,-29.17 919.16,-21.27"/>
<polygon fill="midnightblue" stroke="midnightblue" points="920.29,-24.58 928.78,-18.24 918.19,-17.9 920.29,-24.58"/>
</g>
<!-- Node17 -->
<g id="node17" class="node">
<title>Node17</title>
<g id="a_node17"><a xlink:title=" ">
<polygon fill="none" stroke="#bfbfbf" points="712,-0.5 712,-19.5 762,-19.5 762,-0.5 712,-0.5"/>
<text text-anchor="middle" x="737" y="-7.5" font-family="Helvetica,sans-Serif" font-size="10.00">cstring</text>
</a>
</g>
</g>
<!-- Node11&#45;&gt;Node17 -->
<g id="edge53" class="edge">
<title>Node11&#45;&gt;Node17</title>
<path fill="none" stroke="midnightblue" d="M761.21,-284.94C708.47,-279.36 628.57,-267.24 610,-244 554.24,-174.23 621.48,-122.59 681,-56 691.23,-44.55 704.57,-33.71 715.66,-25.54"/>
<polygon fill="midnightblue" stroke="midnightblue" points="717.88,-28.26 723.98,-19.59 713.81,-22.56 717.88,-28.26"/>
</g>
<!-- Node21 -->
<g id="node21" class="node">
<title>Node21</title>
<g id="a_node21"><a xlink:href="../../d3/de6/_memory_8h.html" target="_top" xlink:title=" ">
<polygon fill="none" stroke="black" points="690,-168.5 690,-187.5 800,-187.5 800,-168.5 690,-168.5"/>
<text text-anchor="middle" x="745" y="-175.5" font-family="Helvetica,sans-Serif" font-size="10.00">common/Memory.h</text>
</a>
</g>
</g>
<!-- Node11&#45;&gt;Node21 -->
<g id="edge24" class="edge">
<title>Node11&#45;&gt;Node21</title>
<path fill="none" stroke="midnightblue" d="M798.7,-280.32C789.28,-271.89 775.55,-258.31 767,-244 758.41,-229.62 752.62,-211.42 749.14,-197.94"/>
<polygon fill="midnightblue" stroke="midnightblue" points="752.48,-196.84 746.76,-187.92 745.67,-198.46 752.48,-196.84"/>
</g>
<!-- Node23 -->
<g id="node23" class="node">
<title>Node23</title>
<g id="a_node23"><a xlink:href="../../d7/d1b/_buffer_8h.html" target="_top" xlink:title=" ">
<polygon fill="none" stroke="black" points="776,-224.5 776,-243.5 842,-243.5 842,-224.5 776,-224.5"/>
<text text-anchor="middle" x="809" y="-231.5" font-family="Helvetica,sans-Serif" font-size="10.00">io/Buffer.h</text>
</a>
</g>
</g>
<!-- Node11&#45;&gt;Node23 -->
<g id="edge29" class="edge">
<title>Node11&#45;&gt;Node23</title>
<path fill="none" stroke="midnightblue" d="M809,-280.08C809,-273.01 809,-262.86 809,-253.99"/>
<polygon fill="midnightblue" stroke="midnightblue" points="812.5,-253.75 809,-243.75 805.5,-253.75 812.5,-253.75"/>
</g>
<!-- Node25 -->
<g id="node25" class="node">
<title>Node25</title>
<g id="a_node25"><a xlink:href="../../d0/dd8/_i_o_exception_8h.html" target="_top" xlink:title=" ">
<polygon fill="none" stroke="black" points="348,-168.5 348,-187.5 444,-187.5 444,-168.5 348,-168.5"/>
<text text-anchor="middle" x="396" y="-175.5" font-family="Helvetica,sans-Serif" font-size="10.00">io/IOException.h</text>
</a>
</g>
</g>
<!-- Node11&#45;&gt;Node25 -->
<g id="edge50" class="edge">
<title>Node11&#45;&gt;Node25</title>
<path fill="none" stroke="midnightblue" d="M761.29,-288.47C698.53,-286.37 585.67,-277.71 496,-244 464.57,-232.18 432.83,-209.26 413.79,-194.03"/>
<polygon fill="midnightblue" stroke="midnightblue" points="415.94,-191.27 405.98,-187.65 411.51,-196.69 415.94,-191.27"/>
</g>
<!-- Node32 -->
<g id="node32" class="node">
<title>Node32</title>
<g id="a_node32"><a xlink:title=" ">
<polygon fill="none" stroke="#bfbfbf" points="898,-224.5 898,-243.5 942,-243.5 942,-224.5 898,-224.5"/>
<text text-anchor="middle" x="920" y="-231.5" font-family="Helvetica,sans-Serif" font-size="10.00">limits</text>
</a>
</g>
</g>
<!-- Node11&#45;&gt;Node32 -->
<g id="edge54" class="edge">
<title>Node11&#45;&gt;Node32</title>
<path fill="none" stroke="midnightblue" d="M826.83,-280.32C844.72,-271.62 872.48,-258.12 893.05,-248.11"/>
<polygon fill="midnightblue" stroke="midnightblue" points="894.75,-251.18 902.21,-243.65 891.69,-244.88 894.75,-251.18"/>
</g>
<!-- Node13 -->
<g id="node13" class="node">
<title>Node13</title>
<g id="a_node13"><a xlink:title=" ">
<polygon fill="none" stroke="#bfbfbf" points="834.5,-112.5 834.5,-131.5 887.5,-131.5 887.5,-112.5 834.5,-112.5"/>
<text text-anchor="middle" x="861" y="-119.5" font-family="Helvetica,sans-Serif" font-size="10.00">cstddef</text>
</a>
</g>
</g>
<!-- Node12&#45;&gt;Node13 -->
<g id="edge13" class="edge">
<title>Node12&#45;&gt;Node13</title>
<path fill="none" stroke="midnightblue" d="M870.18,-168.08C868.73,-160.93 866.63,-150.64 864.81,-141.69"/>
<polygon fill="midnightblue" stroke="midnightblue" points="868.21,-140.85 862.78,-131.75 861.35,-142.25 868.21,-140.85"/>
</g>
<!-- Node14&#45;&gt;Node5 -->
<g id="edge15" class="edge">
<title>Node14&#45;&gt;Node5</title>
<path fill="none" stroke="midnightblue" d="M1062.66,-56.44C1086.4,-47.48 1123.91,-33.31 1150.74,-23.18"/>
<polygon fill="midnightblue" stroke="midnightblue" points="1152.33,-26.32 1160.45,-19.52 1149.86,-19.77 1152.33,-26.32"/>
</g>
<!-- Node14&#45;&gt;Node6 -->
<g id="edge16" class="edge">
<title>Node14&#45;&gt;Node6</title>
<path fill="none" stroke="midnightblue" d="M981.79,-57.77C890.47,-46.44 716.22,-24.81 641.02,-15.47"/>
<polygon fill="midnightblue" stroke="midnightblue" points="641.44,-12 631.09,-14.24 640.58,-18.94 641.44,-12"/>
</g>
<!-- Node14&#45;&gt;Node7 -->
<g id="edge22" class="edge">
<title>Node14&#45;&gt;Node7</title>
<path fill="none" stroke="midnightblue" d="M1091.18,-56.44C1153.77,-45.98 1258.72,-28.43 1318.24,-18.48"/>
<polygon fill="midnightblue" stroke="midnightblue" points="1319.16,-21.88 1328.45,-16.78 1318.01,-14.97 1319.16,-21.88"/>
</g>
<!-- Node15 -->
<g id="node15" class="node">
<title>Node15</title>
<g id="a_node15"><a xlink:title=" ">
<polygon fill="none" stroke="#bfbfbf" points="1015,-0.5 1015,-19.5 1065,-19.5 1065,-0.5 1015,-0.5"/>
<text text-anchor="middle" x="1040" y="-7.5" font-family="Helvetica,sans-Serif" font-size="10.00">climits</text>
</a>
</g>
</g>
<!-- Node14&#45;&gt;Node15 -->
<g id="edge17" class="edge">
<title>Node14&#45;&gt;Node15</title>
<path fill="none" stroke="midnightblue" d="M1040,-56.08C1040,-49.01 1040,-38.86 1040,-29.99"/>
<polygon fill="midnightblue" stroke="midnightblue" points="1043.5,-29.75 1040,-19.75 1036.5,-29.75 1043.5,-29.75"/>
</g>
<!-- Node14&#45;&gt;Node16 -->
<g id="edge18" class="edge">
<title>Node14&#45;&gt;Node16</title>
<path fill="none" stroke="midnightblue" d="M1026.18,-56.32C1012.77,-47.9 992.18,-34.97 976.41,-25.07"/>
<polygon fill="midnightblue" stroke="midnightblue" points="978.11,-22.01 967.78,-19.65 974.39,-27.94 978.11,-22.01"/>
</g>
<!-- Node14&#45;&gt;Node17 -->
<g id="edge19" class="edge">
<title>Node14&#45;&gt;Node17</title>
<path fill="none" stroke="midnightblue" d="M991.99,-56.44C930.82,-45.54 826.54,-26.96 772.23,-17.28"/>
<polygon fill="midnightblue" stroke="midnightblue" points="772.52,-13.78 762.06,-15.47 771.29,-20.67 772.52,-13.78"/>
</g>
<!-- Node14&#45;&gt;Node18 -->
<g id="edge20" class="edge">
<title>Node14&#45;&gt;Node18</title>
<path fill="none" stroke="midnightblue" d="M1098,-59.6C1211.26,-49.06 1460.19,-25.88 1568.24,-15.82"/>
<polygon fill="midnightblue" stroke="midnightblue" points="1568.62,-19.3 1578.25,-14.89 1567.97,-12.33 1568.62,-19.3"/>
</g>
<!-- Node14&#45;&gt;Node19 -->
<g id="edge21" class="edge">
<title>Node14&#45;&gt;Node19</title>
<path fill="none" stroke="midnightblue" d="M1098.31,-57.94C1193.5,-46.41 1379.17,-23.93 1453.8,-14.9"/>
<polygon fill="midnightblue" stroke="midnightblue" points="1454.48,-18.34 1463.98,-13.67 1453.63,-11.39 1454.48,-18.34"/>
</g>
<!-- Node14&#45;&gt;Node20 -->
<g id="edge23" class="edge">
<title>Node14&#45;&gt;Node20</title>
<path fill="none" stroke="midnightblue" d="M1098.08,-63.15C1209.56,-59.09 1461.1,-47.48 1671,-20 1675.26,-19.44 1679.72,-18.74 1684.13,-17.98"/>
<polygon fill="midnightblue" stroke="midnightblue" points="1684.98,-21.38 1694.18,-16.13 1683.71,-14.5 1684.98,-21.38"/>
</g>
<!-- Node21&#45;&gt;Node13 -->
<g id="edge27" class="edge">
<title>Node21&#45;&gt;Node13</title>
<path fill="none" stroke="midnightblue" d="M763.38,-168.44C782.22,-159.68 811.73,-145.94 833.38,-135.86"/>
<polygon fill="midnightblue" stroke="midnightblue" points="835.12,-138.91 842.71,-131.52 832.16,-132.56 835.12,-138.91"/>
</g>
<!-- Node21&#45;&gt;Node14 -->
<g id="edge26" class="edge">
<title>Node21&#45;&gt;Node14</title>
<path fill="none" stroke="midnightblue" d="M752.93,-168.29C766.33,-154.14 794.95,-126.31 825,-112 871.32,-89.95 928.33,-78.65 972,-72.89"/>
<polygon fill="midnightblue" stroke="midnightblue" points="972.46,-76.36 981.95,-71.64 971.59,-69.41 972.46,-76.36"/>
</g>
<!-- Node21&#45;&gt;Node16 -->
<g id="edge28" class="edge">
<title>Node21&#45;&gt;Node16</title>
<path fill="none" stroke="midnightblue" d="M749.56,-168.15C756.77,-154.79 771.87,-129.18 790,-112 831.59,-72.58 891,-40.67 925.73,-23.89"/>
<polygon fill="midnightblue" stroke="midnightblue" points="927.3,-27.01 934.83,-19.56 924.3,-20.69 927.3,-27.01"/>
</g>
<!-- Node22 -->
<g id="node22" class="node">
<title>Node22</title>
<g id="a_node22"><a xlink:title=" ">
<polygon fill="none" stroke="#bfbfbf" points="280,-56.5 280,-75.5 382,-75.5 382,-56.5 280,-56.5"/>
<text text-anchor="middle" x="331" y="-63.5" font-family="Helvetica,sans-Serif" font-size="10.00">rawspeedconfig.h</text>
</a>
</g>
</g>
<!-- Node21&#45;&gt;Node22 -->
<g id="edge25" class="edge">
<title>Node21&#45;&gt;Node22</title>
<path fill="none" stroke="midnightblue" d="M712.86,-168.46C638.72,-148.76 455.78,-100.15 372.95,-78.15"/>
<polygon fill="midnightblue" stroke="midnightblue" points="373.68,-74.72 363.12,-75.53 371.89,-81.49 373.68,-74.72"/>
</g>
<!-- Node23&#45;&gt;Node6 -->
<g id="edge46" class="edge">
<title>Node23&#45;&gt;Node6</title>
<path fill="none" stroke="midnightblue" d="M775.89,-230.44C744.77,-226.35 698.79,-215.69 670,-188 624.44,-144.18 610.63,-65.76 606.59,-29.87"/>
<polygon fill="midnightblue" stroke="midnightblue" points="610.07,-29.41 605.6,-19.81 603.1,-30.1 610.07,-29.41"/>
</g>
<!-- Node23&#45;&gt;Node8 -->
<g id="edge49" class="edge">
<title>Node23&#45;&gt;Node8</title>
<path fill="none" stroke="midnightblue" d="M842.05,-228.86C908.24,-220.48 1055.94,-201.31 1124.46,-187.8"/>
<polygon fill="midnightblue" stroke="midnightblue" points="1125.28,-191.21 1134.37,-185.77 1123.87,-184.35 1125.28,-191.21"/>
</g>
<!-- Node23&#45;&gt;Node12 -->
<g id="edge30" class="edge">
<title>Node23&#45;&gt;Node12</title>
<path fill="none" stroke="midnightblue" d="M819.12,-224.32C828.53,-216.26 842.74,-204.08 854.07,-194.37"/>
<polygon fill="midnightblue" stroke="midnightblue" points="856.38,-197 861.69,-187.83 851.82,-191.68 856.38,-197"/>
</g>
<!-- Node23&#45;&gt;Node14 -->
<g id="edge31" class="edge">
<title>Node23&#45;&gt;Node14</title>
<path fill="none" stroke="midnightblue" d="M842.02,-230.78C876.59,-226.94 930.91,-216.48 968,-188 977.27,-180.88 1012.89,-116.84 1030.3,-84.92"/>
<polygon fill="midnightblue" stroke="midnightblue" points="1033.56,-86.25 1035.26,-75.8 1027.41,-82.91 1033.56,-86.25"/>
</g>
<!-- Node23&#45;&gt;Node16 -->
<g id="edge47" class="edge">
<title>Node23&#45;&gt;Node16</title>
<path fill="none" stroke="midnightblue" d="M842.23,-230.53C871.21,-226.49 911.97,-215.87 934,-188 970.87,-141.35 963.64,-64.94 957.75,-29.78"/>
<polygon fill="midnightblue" stroke="midnightblue" points="961.12,-28.74 955.88,-19.54 954.24,-30 961.12,-28.74"/>
</g>
<!-- Node23&#45;&gt;Node21 -->
<g id="edge32" class="edge">
<title>Node23&#45;&gt;Node21</title>
<path fill="none" stroke="midnightblue" d="M798.72,-224.32C789.16,-216.26 774.72,-204.08 763.22,-194.37"/>
<polygon fill="midnightblue" stroke="midnightblue" points="765.37,-191.61 755.47,-187.83 760.86,-196.96 765.37,-191.61"/>
</g>
<!-- Node24 -->
<g id="node24" class="node">
<title>Node24</title>
<g id="a_node24"><a xlink:href="../../d5/d0b/_endianness_8h.html" target="_top" xlink:title=" ">
<polygon fill="none" stroke="black" points="690.5,-56.5 690.5,-75.5 783.5,-75.5 783.5,-56.5 690.5,-56.5"/>
<text text-anchor="middle" x="737" y="-63.5" font-family="Helvetica,sans-Serif" font-size="10.00">io/Endianness.h</text>
</a>
</g>
</g>
<!-- Node23&#45;&gt;Node24 -->
<g id="edge33" class="edge">
<title>Node23&#45;&gt;Node24</title>
<path fill="none" stroke="midnightblue" d="M775.97,-231.55C745.68,-228.27 702.38,-218.18 681,-188 656.61,-153.57 695.34,-106.83 719.67,-82.76"/>
<polygon fill="midnightblue" stroke="midnightblue" points="722.16,-85.23 726.97,-75.79 717.32,-80.17 722.16,-85.23"/>
</g>
<!-- Node23&#45;&gt;Node25 -->
<g id="edge37" class="edge">
<title>Node23&#45;&gt;Node25</title>
<path fill="none" stroke="midnightblue" d="M775.9,-228.67C705.93,-219.52 542.24,-198.12 454.31,-186.62"/>
<polygon fill="midnightblue" stroke="midnightblue" points="454.6,-183.13 444.23,-185.31 453.69,-190.07 454.6,-183.13"/>
</g>
<!-- Node23&#45;&gt;Node31 -->
<g id="edge48" class="edge">
<title>Node23&#45;&gt;Node31</title>
<path fill="none" stroke="midnightblue" d="M842.26,-226.54C893.84,-216.52 992.91,-197.28 1047.87,-186.6"/>
<polygon fill="midnightblue" stroke="midnightblue" points="1048.77,-189.99 1057.92,-184.65 1047.43,-183.12 1048.77,-189.99"/>
</g>
<!-- Node24&#45;&gt;Node6 -->
<g id="edge34" class="edge">
<title>Node24&#45;&gt;Node6</title>
<path fill="none" stroke="midnightblue" d="M716.08,-56.44C694.26,-47.52 659.85,-33.44 635.11,-23.32"/>
<polygon fill="midnightblue" stroke="midnightblue" points="636.4,-20.06 625.82,-19.52 633.75,-26.54 636.4,-20.06"/>
</g>
<!-- Node24&#45;&gt;Node16 -->
<g id="edge35" class="edge">
<title>Node24&#45;&gt;Node16</title>
<path fill="none" stroke="midnightblue" d="M771.38,-56.44C811.82,-46.38 878.55,-29.77 919.18,-19.67"/>
<polygon fill="midnightblue" stroke="midnightblue" points="920.05,-23.06 928.91,-17.24 918.36,-16.26 920.05,-23.06"/>
</g>
<!-- Node24&#45;&gt;Node17 -->
<g id="edge36" class="edge">
<title>Node24&#45;&gt;Node17</title>
<path fill="none" stroke="midnightblue" d="M737,-56.08C737,-49.01 737,-38.86 737,-29.99"/>
<polygon fill="midnightblue" stroke="midnightblue" points="740.5,-29.75 737,-19.75 733.5,-29.75 740.5,-29.75"/>
</g>
<!-- Node25&#45;&gt;Node22 -->
<g id="edge38" class="edge">
<title>Node25&#45;&gt;Node22</title>
<path fill="none" stroke="midnightblue" d="M390.9,-168.37C380.22,-150.3 355.33,-108.18 341.23,-84.31"/>
<polygon fill="midnightblue" stroke="midnightblue" points="344.18,-82.42 336.08,-75.59 338.15,-85.98 344.18,-82.42"/>
</g>
<!-- Node26 -->
<g id="node26" class="node">
<title>Node26</title>
<g id="a_node26"><a xlink:href="../../d7/d05/_rawspeed_exception_8h.html" target="_top" xlink:title=" ">
<polygon fill="none" stroke="black" points="84,-112.5 84,-131.5 254,-131.5 254,-112.5 84,-112.5"/>
<text text-anchor="middle" x="169" y="-119.5" font-family="Helvetica,sans-Serif" font-size="10.00">common/RawspeedException.h</text>
</a>
</g>
</g>
<!-- Node25&#45;&gt;Node26 -->
<g id="edge39" class="edge">
<title>Node25&#45;&gt;Node26</title>
<path fill="none" stroke="midnightblue" d="M360.03,-168.44C320.68,-159.08 257.51,-144.06 214.69,-133.87"/>
<polygon fill="midnightblue" stroke="midnightblue" points="215.34,-130.43 204.8,-131.52 213.72,-137.24 215.34,-130.43"/>
</g>
<!-- Node26&#45;&gt;Node14 -->
<g id="edge41" class="edge">
<title>Node26&#45;&gt;Node14</title>
<path fill="none" stroke="midnightblue" d="M254.1,-115.72C426.67,-105.02 814.73,-80.97 971.94,-71.22"/>
<polygon fill="midnightblue" stroke="midnightblue" points="972.19,-74.71 981.95,-70.6 971.76,-67.72 972.19,-74.71"/>
</g>
<!-- Node26&#45;&gt;Node22 -->
<g id="edge40" class="edge">
<title>Node26&#45;&gt;Node22</title>
<path fill="none" stroke="midnightblue" d="M194.67,-112.44C221.92,-103.36 265.18,-88.94 295.65,-78.78"/>
<polygon fill="midnightblue" stroke="midnightblue" points="297.07,-82 305.45,-75.52 294.86,-75.36 297.07,-82"/>
</g>
<!-- Node27 -->
<g id="node27" class="node">
<title>Node27</title>
<g id="a_node27"><a xlink:title=" ">
<polygon fill="none" stroke="#bfbfbf" points="148,-56.5 148,-75.5 190,-75.5 190,-56.5 148,-56.5"/>
<text text-anchor="middle" x="169" y="-63.5" font-family="Helvetica,sans-Serif" font-size="10.00">array</text>
</a>
</g>
</g>
<!-- Node26&#45;&gt;Node27 -->
<g id="edge42" class="edge">
<title>Node26&#45;&gt;Node27</title>
<path fill="none" stroke="midnightblue" d="M169,-112.08C169,-105.01 169,-94.86 169,-85.99"/>
<polygon fill="midnightblue" stroke="midnightblue" points="172.5,-85.75 169,-75.75 165.5,-85.75 172.5,-85.75"/>
</g>
<!-- Node28 -->
<g id="node28" class="node">
<title>Node28</title>
<g id="a_node28"><a xlink:title=" ">
<polygon fill="none" stroke="#bfbfbf" points="208.5,-56.5 208.5,-75.5 261.5,-75.5 261.5,-56.5 208.5,-56.5"/>
<text text-anchor="middle" x="235" y="-63.5" font-family="Helvetica,sans-Serif" font-size="10.00">cstdarg</text>
</a>
</g>
</g>
<!-- Node26&#45;&gt;Node28 -->
<g id="edge43" class="edge">
<title>Node26&#45;&gt;Node28</title>
<path fill="none" stroke="midnightblue" d="M179.6,-112.32C189.46,-104.26 204.35,-92.08 216.22,-82.37"/>
<polygon fill="midnightblue" stroke="midnightblue" points="218.68,-84.88 224.2,-75.83 214.25,-79.46 218.68,-84.88"/>
</g>
<!-- Node29 -->
<g id="node29" class="node">
<title>Node29</title>
<g id="a_node29"><a xlink:title=" ">
<polygon fill="none" stroke="#bfbfbf" points="0,-56.5 0,-75.5 46,-75.5 46,-56.5 0,-56.5"/>
<text text-anchor="middle" x="23" y="-63.5" font-family="Helvetica,sans-Serif" font-size="10.00">cstdio</text>
</a>
</g>
</g>
<!-- Node26&#45;&gt;Node29 -->
<g id="edge44" class="edge">
<title>Node26&#45;&gt;Node29</title>
<path fill="none" stroke="midnightblue" d="M145.87,-112.44C121.52,-103.44 82.99,-89.19 55.58,-79.05"/>
<polygon fill="midnightblue" stroke="midnightblue" points="56.62,-75.7 46.03,-75.52 54.19,-82.27 56.62,-75.7"/>
</g>
<!-- Node30 -->
<g id="node30" class="node">
<title>Node30</title>
<g id="a_node30"><a xlink:title=" ">
<polygon fill="none" stroke="#bfbfbf" points="64.5,-56.5 64.5,-75.5 129.5,-75.5 129.5,-56.5 64.5,-56.5"/>
<text text-anchor="middle" x="97" y="-63.5" font-family="Helvetica,sans-Serif" font-size="10.00">stdexcept</text>
</a>
</g>
</g>
<!-- Node26&#45;&gt;Node30 -->
<g id="edge45" class="edge">
<title>Node26&#45;&gt;Node30</title>
<path fill="none" stroke="midnightblue" d="M157.43,-112.32C146.58,-104.18 130.12,-91.84 117.12,-82.09"/>
<polygon fill="midnightblue" stroke="midnightblue" points="118.88,-79.03 108.78,-75.83 114.68,-84.63 118.88,-79.03"/>
</g>
<!-- Node33&#45;&gt;Node18 -->
<g id="edge56" class="edge">
<title>Node33&#45;&gt;Node18</title>
<path fill="none" stroke="midnightblue" d="M1597.51,-280.32C1604.6,-261.96 1620,-217.66 1620,-179 1620,-179 1620,-179 1620,-121 1620,-88.95 1620,-51.64 1620,-29.75"/>
<polygon fill="midnightblue" stroke="midnightblue" points="1623.5,-29.56 1620,-19.56 1616.5,-29.56 1623.5,-29.56"/>
</g>
<!-- Node35&#45;&gt;Node22 -->
<g id="edge70" class="edge">
<title>Node35&#45;&gt;Node22</title>
<path fill="none" stroke="midnightblue" d="M273.71,-224.5C281.93,-215.99 294,-202.17 301,-188 317.72,-154.16 325.58,-110.28 328.89,-85.74"/>
<polygon fill="midnightblue" stroke="midnightblue" points="332.39,-86 330.14,-75.65 325.44,-85.14 332.39,-86"/>
</g>
<!-- Node35&#45;&gt;Node26 -->
<g id="edge71" class="edge">
<title>Node35&#45;&gt;Node26</title>
<path fill="none" stroke="midnightblue" d="M185.21,-226.82C159.96,-220.64 134.6,-209.13 119,-188 105.93,-170.3 126.86,-150.28 145.5,-137.2"/>
<polygon fill="midnightblue" stroke="midnightblue" points="147.64,-139.98 154.04,-131.54 143.77,-134.15 147.64,-139.98"/>
</g>
<!-- Node36 -->
<g id="node36" class="node">
<title>Node36</title>
<g id="a_node36"><a xlink:href="../../d6/d0f/_raw_parser_exception_8h.html" target="_top" xlink:title=" ">
<polygon fill="none" stroke="black" points="128,-168.5 128,-187.5 292,-187.5 292,-168.5 128,-168.5"/>
<text text-anchor="middle" x="210" y="-175.5" font-family="Helvetica,sans-Serif" font-size="10.00">parsers/RawParserException.h</text>
</a>
</g>
</g>
<!-- Node35&#45;&gt;Node36 -->
<g id="edge72" class="edge">
<title>Node35&#45;&gt;Node36</title>
<path fill="none" stroke="midnightblue" d="M255.92,-224.08C247.83,-216.14 235.8,-204.34 226.09,-194.8"/>
<polygon fill="midnightblue" stroke="midnightblue" points="228.5,-192.26 218.91,-187.75 223.6,-197.25 228.5,-192.26"/>
</g>
<!-- Node36&#45;&gt;Node22 -->
<g id="edge73" class="edge">
<title>Node36&#45;&gt;Node22</title>
<path fill="none" stroke="midnightblue" d="M220.72,-168.22C231.54,-159.27 248.65,-144.93 263,-132 281.26,-115.55 301.54,-95.98 315.17,-82.64"/>
<polygon fill="midnightblue" stroke="midnightblue" points="317.67,-85.09 322.35,-75.58 312.77,-80.1 317.67,-85.09"/>
</g>
<!-- Node36&#45;&gt;Node26 -->
<g id="edge74" class="edge">
<title>Node36&#45;&gt;Node26</title>
<path fill="none" stroke="midnightblue" d="M203.23,-168.08C197.44,-160.46 188.94,-149.26 181.86,-139.94"/>
<polygon fill="midnightblue" stroke="midnightblue" points="184.48,-137.6 175.64,-131.75 178.9,-141.83 184.48,-137.6"/>
</g>
</g>
</svg>
