<?xml version="1.0" encoding="UTF-8" standalone="no"?>
<!DOCTYPE svg PUBLIC "-//W3C//DTD SVG 1.1//EN"
 "http://www.w3.org/Graphics/SVG/1.1/DTD/svg11.dtd">
<!-- Generated by graphviz version 2.43.0 (0)
 -->
<!-- Title: rawspeed::TiffEntry::TiffEntry Pages: 1 -->
<svg width="447pt" height="323pt"
 viewBox="0.00 0.00 447.00 323.00" xmlns="http://www.w3.org/2000/svg" xmlns:xlink="http://www.w3.org/1999/xlink">
<g id="graph0" class="graph" transform="scale(1 1) rotate(0) translate(4 319)">
<title>rawspeed::TiffEntry::TiffEntry</title>
<!-- Node1 -->
<g id="node1" class="node">
<title>Node1</title>
<g id="a_node1"><a xlink:title=" ">
<polygon fill="#bfbfbf" stroke="black" points="0,-147.5 0,-177.5 111,-177.5 111,-147.5 0,-147.5"/>
<text text-anchor="start" x="8" y="-165.5" font-family="Helvetica,sans-Serif" font-size="10.00">rawspeed::TiffEntry</text>
<text text-anchor="middle" x="55.5" y="-154.5" font-family="Helvetica,sans-Serif" font-size="10.00">::TiffEntry</text>
</a>
</g>
</g>
<!-- Node2 -->
<g id="node2" class="node">
<title>Node2</title>
<g id="a_node2"><a xlink:href="../../dd/da0/classrawspeed_1_1_byte_stream.html#a33bbb3baf3bb9730f9da8765175ec4ce" target="_top" xlink:title=" ">
<polygon fill="none" stroke="black" points="311,-123.5 311,-153.5 439,-153.5 439,-123.5 311,-123.5"/>
<text text-anchor="start" x="319" y="-141.5" font-family="Helvetica,sans-Serif" font-size="10.00">rawspeed::ByteStream</text>
<text text-anchor="middle" x="375" y="-130.5" font-family="Helvetica,sans-Serif" font-size="10.00">::check</text>
</a>
</g>
</g>
<!-- Node1&#45;&gt;Node2 -->
<g id="edge1" class="edge">
<title>Node1&#45;&gt;Node2</title>
<path fill="none" stroke="midnightblue" d="M69.32,-177.81C85.35,-195.63 114.64,-224.08 147,-235.5 200.64,-254.44 222.33,-257 275,-235.5 311.15,-220.74 341.25,-185.72 358.44,-162.05"/>
<polygon fill="midnightblue" stroke="midnightblue" points="361.49,-163.8 364.39,-153.6 355.77,-159.77 361.49,-163.8"/>
</g>
<!-- Node3 -->
<g id="node3" class="node">
<title>Node3</title>
<g id="a_node3"><a xlink:href="../../dd/da0/classrawspeed_1_1_byte_stream.html#adca9133f43b10d0047764d6a9fe1e142" target="_top" xlink:title=" ">
<polygon fill="none" stroke="black" points="147,-196.5 147,-226.5 275,-226.5 275,-196.5 147,-196.5"/>
<text text-anchor="start" x="155" y="-214.5" font-family="Helvetica,sans-Serif" font-size="10.00">rawspeed::ByteStream</text>
<text text-anchor="middle" x="211" y="-203.5" font-family="Helvetica,sans-Serif" font-size="10.00">::getPosition</text>
</a>
</g>
</g>
<!-- Node1&#45;&gt;Node3 -->
<g id="edge2" class="edge">
<title>Node1&#45;&gt;Node3</title>
<path fill="none" stroke="midnightblue" d="M103.81,-177.6C119.35,-182.56 136.78,-188.13 152.96,-193.29"/>
<polygon fill="midnightblue" stroke="midnightblue" points="152.26,-196.74 162.85,-196.45 154.39,-190.07 152.26,-196.74"/>
</g>
<!-- Node4 -->
<g id="node4" class="node">
<title>Node4</title>
<g id="a_node4"><a xlink:href="../../dd/da0/classrawspeed_1_1_byte_stream.html#a5eb5f775dd7efaa22b490007fe835a32" target="_top" xlink:title=" ">
<polygon fill="none" stroke="black" points="147,-284.5 147,-314.5 275,-314.5 275,-284.5 147,-284.5"/>
<text text-anchor="start" x="155" y="-302.5" font-family="Helvetica,sans-Serif" font-size="10.00">rawspeed::ByteStream</text>
<text text-anchor="middle" x="211" y="-291.5" font-family="Helvetica,sans-Serif" font-size="10.00">::getSubStream</text>
</a>
</g>
</g>
<!-- Node1&#45;&gt;Node4 -->
<g id="edge4" class="edge">
<title>Node1&#45;&gt;Node4</title>
<path fill="none" stroke="midnightblue" d="M66.27,-177.75C81.32,-200.26 112.12,-242.62 147,-269.5 151.73,-273.15 156.98,-276.5 162.37,-279.54"/>
<polygon fill="midnightblue" stroke="midnightblue" points="161.03,-282.79 171.51,-284.36 164.29,-276.6 161.03,-282.79"/>
</g>
<!-- Node6 -->
<g id="node6" class="node">
<title>Node6</title>
<g id="a_node6"><a xlink:href="../../dd/da0/classrawspeed_1_1_byte_stream.html#a36ff2619c262c246a208edd76e6372c5" target="_top" xlink:title=" ">
<polygon fill="none" stroke="black" points="147,-147.5 147,-177.5 275,-177.5 275,-147.5 147,-147.5"/>
<text text-anchor="start" x="155" y="-165.5" font-family="Helvetica,sans-Serif" font-size="10.00">rawspeed::ByteStream</text>
<text text-anchor="middle" x="211" y="-154.5" font-family="Helvetica,sans-Serif" font-size="10.00">::getU16</text>
</a>
</g>
</g>
<!-- Node1&#45;&gt;Node6 -->
<g id="edge6" class="edge">
<title>Node1&#45;&gt;Node6</title>
<path fill="none" stroke="midnightblue" d="M111.05,-162.5C119.41,-162.5 128.16,-162.5 136.84,-162.5"/>
<polygon fill="midnightblue" stroke="midnightblue" points="136.98,-166 146.98,-162.5 136.98,-159 136.98,-166"/>
</g>
<!-- Node7 -->
<g id="node7" class="node">
<title>Node7</title>
<g id="a_node7"><a xlink:href="../../dd/da0/classrawspeed_1_1_byte_stream.html#ac598b7b6f0f8fd5476adb7c1363b1518" target="_top" xlink:title=" ">
<polygon fill="none" stroke="black" points="147,-98.5 147,-128.5 275,-128.5 275,-98.5 147,-98.5"/>
<text text-anchor="start" x="155" y="-116.5" font-family="Helvetica,sans-Serif" font-size="10.00">rawspeed::ByteStream</text>
<text text-anchor="middle" x="211" y="-105.5" font-family="Helvetica,sans-Serif" font-size="10.00">::getU32</text>
</a>
</g>
</g>
<!-- Node1&#45;&gt;Node7 -->
<g id="edge7" class="edge">
<title>Node1&#45;&gt;Node7</title>
<path fill="none" stroke="midnightblue" d="M103.81,-147.4C119.35,-142.44 136.78,-136.87 152.96,-131.71"/>
<polygon fill="midnightblue" stroke="midnightblue" points="154.39,-134.93 162.85,-128.55 152.26,-128.26 154.39,-134.93"/>
</g>
<!-- Node8 -->
<g id="node8" class="node">
<title>Node8</title>
<g id="a_node8"><a xlink:href="../../dd/da0/classrawspeed_1_1_byte_stream.html#a3af0299ae09e0badd1199070717e6974" target="_top" xlink:title=" ">
<polygon fill="none" stroke="black" points="147,-49.5 147,-79.5 275,-79.5 275,-49.5 147,-49.5"/>
<text text-anchor="start" x="155" y="-67.5" font-family="Helvetica,sans-Serif" font-size="10.00">rawspeed::ByteStream</text>
<text text-anchor="middle" x="211" y="-56.5" font-family="Helvetica,sans-Serif" font-size="10.00">::setPosition</text>
</a>
</g>
</g>
<!-- Node1&#45;&gt;Node8 -->
<g id="edge8" class="edge">
<title>Node1&#45;&gt;Node8</title>
<path fill="none" stroke="midnightblue" d="M71.69,-147.46C88.8,-131.17 118.02,-105.28 147,-88.5 149.84,-86.86 152.81,-85.29 155.85,-83.79"/>
<polygon fill="midnightblue" stroke="midnightblue" points="157.48,-86.9 165.11,-79.54 154.56,-80.53 157.48,-86.9"/>
</g>
<!-- Node9 -->
<g id="node9" class="node">
<title>Node9</title>
<g id="a_node9"><a xlink:href="../../dd/da0/classrawspeed_1_1_byte_stream.html#ab77bbfb370f041df54b9b67e0d8ff711" target="_top" xlink:title=" ">
<polygon fill="none" stroke="black" points="147,-0.5 147,-30.5 275,-30.5 275,-0.5 147,-0.5"/>
<text text-anchor="start" x="155" y="-18.5" font-family="Helvetica,sans-Serif" font-size="10.00">rawspeed::ByteStream</text>
<text text-anchor="middle" x="211" y="-7.5" font-family="Helvetica,sans-Serif" font-size="10.00">::skipBytes</text>
</a>
</g>
</g>
<!-- Node1&#45;&gt;Node9 -->
<g id="edge10" class="edge">
<title>Node1&#45;&gt;Node9</title>
<path fill="none" stroke="midnightblue" d="M63.87,-147.46C77.12,-121.86 107.33,-69.67 147,-39.5 148.82,-38.12 150.72,-36.81 152.69,-35.57"/>
<polygon fill="midnightblue" stroke="midnightblue" points="154.65,-38.48 161.67,-30.55 151.23,-32.37 154.65,-38.48"/>
</g>
<!-- Node3&#45;&gt;Node2 -->
<g id="edge3" class="edge">
<title>Node3&#45;&gt;Node2</title>
<path fill="none" stroke="midnightblue" d="M251.17,-196.48C259.1,-193.29 267.35,-189.87 275,-186.5 295.1,-177.65 317.11,-167.07 335.26,-158.1"/>
<polygon fill="midnightblue" stroke="midnightblue" points="336.98,-161.16 344.37,-153.57 333.86,-154.89 336.98,-161.16"/>
</g>
<!-- Node5 -->
<g id="node5" class="node">
<title>Node5</title>
<g id="a_node5"><a xlink:href="../../dd/da0/classrawspeed_1_1_byte_stream.html#a804858089e7e6c442815d46128cca1ed" target="_top" xlink:title=" ">
<polygon fill="none" stroke="black" points="311,-284.5 311,-314.5 439,-314.5 439,-284.5 311,-284.5"/>
<text text-anchor="start" x="319" y="-302.5" font-family="Helvetica,sans-Serif" font-size="10.00">rawspeed::ByteStream</text>
<text text-anchor="middle" x="375" y="-291.5" font-family="Helvetica,sans-Serif" font-size="10.00">::ByteStream</text>
</a>
</g>
</g>
<!-- Node4&#45;&gt;Node5 -->
<g id="edge5" class="edge">
<title>Node4&#45;&gt;Node5</title>
<path fill="none" stroke="midnightblue" d="M275.1,-299.5C283.43,-299.5 292.04,-299.5 300.53,-299.5"/>
<polygon fill="midnightblue" stroke="midnightblue" points="300.81,-303 310.81,-299.5 300.81,-296 300.81,-303"/>
</g>
<!-- Node8&#45;&gt;Node2 -->
<g id="edge9" class="edge">
<title>Node8&#45;&gt;Node2</title>
<path fill="none" stroke="midnightblue" d="M253.26,-79.51C260.55,-82.37 268.04,-85.43 275,-88.5 295.95,-97.75 318.79,-109.19 337.26,-118.8"/>
<polygon fill="midnightblue" stroke="midnightblue" points="335.73,-121.95 346.21,-123.49 338.97,-115.75 335.73,-121.95"/>
</g>
<!-- Node9&#45;&gt;Node2 -->
<g id="edge11" class="edge">
<title>Node9&#45;&gt;Node2</title>
<path fill="none" stroke="midnightblue" d="M258.53,-30.63C264.26,-33.24 269.89,-36.19 275,-39.5 307.38,-60.47 337.67,-93.49 356.01,-115.56"/>
<polygon fill="midnightblue" stroke="midnightblue" points="353.4,-117.9 362.43,-123.44 358.82,-113.48 353.4,-117.9"/>
</g>
</g>
</svg>
