<?xml version="1.0" encoding="UTF-8" standalone="no"?>
<!DOCTYPE svg PUBLIC "-//W3C//DTD SVG 1.1//EN"
 "http://www.w3.org/Graphics/SVG/1.1/DTD/svg11.dtd">
<!-- Generated by graphviz version 2.43.0 (0)
 -->
<!-- Title: rawspeed::HuffmanTableTree Pages: 1 -->
<svg width="1432pt" height="308pt"
 viewBox="0.00 0.00 1432.00 308.00" xmlns="http://www.w3.org/2000/svg" xmlns:xlink="http://www.w3.org/1999/xlink">
<g id="graph0" class="graph" transform="scale(1 1) rotate(0) translate(4 304)">
<title>rawspeed::HuffmanTableTree</title>
<!-- Node1 -->
<g id="node1" class="node">
<title>Node1</title>
<g id="a_node1"><a xlink:title=" ">
<polygon fill="#bfbfbf" stroke="black" points="1266,-94.5 1266,-113.5 1424,-113.5 1424,-94.5 1266,-94.5"/>
<text text-anchor="middle" x="1345" y="-101.5" font-family="Helvetica,sans-Serif" font-size="10.00">rawspeed::HuffmanTableTree</text>
</a>
</g>
</g>
<!-- Node2 -->
<g id="node2" class="node">
<title>Node2</title>
<g id="a_node2"><a xlink:href="../../d8/d1c/classrawspeed_1_1_abstract_huffman_table.html" target="_top" xlink:title=" ">
<polygon fill="none" stroke="black" points="759,-148 759,-178 911,-178 911,-148 759,-148"/>
<text text-anchor="start" x="767" y="-166" font-family="Helvetica,sans-Serif" font-size="10.00">rawspeed::AbstractHuffman</text>
<text text-anchor="middle" x="835" y="-155" font-family="Helvetica,sans-Serif" font-size="10.00">Table</text>
</a>
</g>
</g>
<!-- Node2&#45;&gt;Node1 -->
<g id="edge1" class="edge">
<title>Node2&#45;&gt;Node1</title>
<path fill="none" stroke="midnightblue" d="M921.22,-153.1C1017.45,-141.93 1172.71,-123.89 1265.9,-113.07"/>
<polygon fill="midnightblue" stroke="midnightblue" points="920.76,-149.63 911.23,-154.26 921.57,-156.59 920.76,-149.63"/>
</g>
<!-- Node3 -->
<g id="node3" class="node">
<title>Node3</title>
<g id="a_node3"><a xlink:title=" ">
<polygon fill="none" stroke="#bfbfbf" points="512.5,-280.5 512.5,-299.5 558.5,-299.5 558.5,-280.5 512.5,-280.5"/>
<text text-anchor="middle" x="535.5" y="-287.5" font-family="Helvetica,sans-Serif" font-size="10.00">return</text>
</a>
</g>
</g>
<!-- Node3&#45;&gt;Node2 -->
<g id="edge2" class="edge">
<title>Node3&#45;&gt;Node2</title>
<path fill="none" stroke="#9a32cd" stroke-dasharray="5,2" d="M568.75,-287.08C606.68,-282.69 670.81,-272.3 721,-249 759.91,-230.94 798.13,-197.7 818.62,-178.26"/>
<polygon fill="#9a32cd" stroke="#9a32cd" points="568.35,-283.6 558.79,-288.16 569.11,-290.56 568.35,-283.6"/>
<text text-anchor="middle" x="677" y="-278" font-family="Helvetica,sans-Serif" font-size="10.00"> ret</text>
</g>
<!-- Node4 -->
<g id="node4" class="node">
<title>Node4</title>
<g id="a_node4"><a xlink:title=" ">
<polygon fill="none" stroke="#bfbfbf" points="473,-242.5 473,-261.5 598,-261.5 598,-242.5 473,-242.5"/>
<text text-anchor="middle" x="535.5" y="-249.5" font-family="Helvetica,sans-Serif" font-size="10.00">std::vector&lt; uint8_t &gt;</text>
</a>
</g>
</g>
<!-- Node4&#45;&gt;Node2 -->
<g id="edge3" class="edge">
<title>Node4&#45;&gt;Node2</title>
<path fill="none" stroke="#9a32cd" stroke-dasharray="5,2" d="M604.37,-240.58C639.6,-233.83 683.09,-224.2 721,-212 749.7,-202.76 781.07,-188.84 803.45,-178.19"/>
<polygon fill="#9a32cd" stroke="#9a32cd" points="603.38,-237.21 594.2,-242.5 604.67,-244.09 603.38,-237.21"/>
<text text-anchor="middle" x="677" y="-237" font-family="Helvetica,sans-Serif" font-size="10.00"> codeValues</text>
</g>
<!-- Node5 -->
<g id="node5" class="node">
<title>Node5</title>
<g id="a_node5"><a xlink:title=" ">
<polygon fill="none" stroke="#bfbfbf" points="171,-262.5 171,-281.5 221,-281.5 221,-262.5 171,-262.5"/>
<text text-anchor="middle" x="196" y="-269.5" font-family="Helvetica,sans-Serif" font-size="10.00">uint8_t</text>
</a>
</g>
</g>
<!-- Node5&#45;&gt;Node4 -->
<g id="edge4" class="edge">
<title>Node5&#45;&gt;Node4</title>
<path fill="none" stroke="#9a32cd" stroke-dasharray="5,2" d="M231.21,-269.97C287.83,-266.62 401.81,-259.86 472.78,-255.66"/>
<polygon fill="#9a32cd" stroke="#9a32cd" points="230.78,-266.49 221,-270.58 231.19,-273.48 230.78,-266.49"/>
<text text-anchor="middle" x="367" y="-269" font-family="Helvetica,sans-Serif" font-size="10.00"> elements</text>
</g>
<!-- Node6 -->
<g id="node6" class="node">
<title>Node6</title>
<g id="a_node6"><a xlink:title="STL class.">
<polygon fill="none" stroke="#bfbfbf" points="147.5,-194.5 147.5,-213.5 244.5,-213.5 244.5,-194.5 147.5,-194.5"/>
<text text-anchor="middle" x="196" y="-201.5" font-family="Helvetica,sans-Serif" font-size="10.00">std::vector&lt; T &gt;</text>
</a>
</g>
</g>
<!-- Node6&#45;&gt;Node4 -->
<g id="edge5" class="edge">
<title>Node6&#45;&gt;Node4</title>
<path fill="none" stroke="orange" stroke-dasharray="5,2" d="M254.82,-212.22C315.54,-220.86 410.65,-234.39 472.79,-243.22"/>
<polygon fill="orange" stroke="orange" points="255.03,-208.72 244.64,-210.78 254.05,-215.65 255.03,-208.72"/>
<text text-anchor="middle" x="367" y="-240" font-family="Helvetica,sans-Serif" font-size="10.00"> &lt; uint8_t &gt;</text>
</g>
<!-- Node10 -->
<g id="node10" class="node">
<title>Node10</title>
<g id="a_node10"><a xlink:title=" ">
<polygon fill="none" stroke="#bfbfbf" points="473.5,-193 473.5,-223 597.5,-223 597.5,-193 473.5,-193"/>
<text text-anchor="start" x="481.5" y="-211" font-family="Helvetica,sans-Serif" font-size="10.00">std::vector&lt; unsigned</text>
<text text-anchor="middle" x="535.5" y="-200" font-family="Helvetica,sans-Serif" font-size="10.00"> int &gt;</text>
</a>
</g>
</g>
<!-- Node6&#45;&gt;Node10 -->
<g id="edge11" class="edge">
<title>Node6&#45;&gt;Node10</title>
<path fill="none" stroke="orange" stroke-dasharray="5,2" d="M254.62,-203.8C303.45,-203.74 375.31,-203.9 438,-205 449.4,-205.2 461.55,-205.51 473.25,-205.85"/>
<polygon fill="orange" stroke="orange" points="254.55,-200.3 244.56,-203.82 254.57,-207.3 254.55,-200.3"/>
<text text-anchor="middle" x="367" y="-208" font-family="Helvetica,sans-Serif" font-size="10.00"> &lt; unsigned int &gt;</text>
</g>
<!-- Node7 -->
<g id="node7" class="node">
<title>Node7</title>
<g id="a_node7"><a xlink:title=" ">
<polygon fill="none" stroke="#bfbfbf" points="0,-104.5 0,-123.5 29,-123.5 29,-104.5 0,-104.5"/>
<text text-anchor="middle" x="14.5" y="-111.5" font-family="Helvetica,sans-Serif" font-size="10.00">T</text>
</a>
</g>
</g>
<!-- Node7&#45;&gt;Node6 -->
<g id="edge6" class="edge">
<title>Node7&#45;&gt;Node6</title>
<path fill="none" stroke="#9a32cd" stroke-dasharray="5,2" d="M37.73,-128.05C57.39,-140.18 87.04,-157.79 114,-171 132,-179.82 152.97,-188.32 169.07,-194.48"/>
<polygon fill="#9a32cd" stroke="#9a32cd" points="39.54,-125.05 29.2,-122.74 35.84,-130.99 39.54,-125.05"/>
<text text-anchor="middle" x="71.5" y="-164" font-family="Helvetica,sans-Serif" font-size="10.00"> elements</text>
</g>
<!-- Node15 -->
<g id="node15" class="node">
<title>Node15</title>
<g id="a_node15"><a xlink:title="STL class.">
<polygon fill="none" stroke="#bfbfbf" points="137,-26.5 137,-45.5 255,-45.5 255,-26.5 137,-26.5"/>
<text text-anchor="middle" x="196" y="-33.5" font-family="Helvetica,sans-Serif" font-size="10.00">std::unique_ptr&lt; T &gt;</text>
</a>
</g>
</g>
<!-- Node7&#45;&gt;Node15 -->
<g id="edge17" class="edge">
<title>Node7&#45;&gt;Node15</title>
<path fill="none" stroke="#9a32cd" stroke-dasharray="5,2" d="M36.85,-98.54C56.15,-85.24 85.77,-66.44 114,-55 123.37,-51.2 133.67,-48.06 143.7,-45.5"/>
<polygon fill="#9a32cd" stroke="#9a32cd" points="34.69,-95.79 28.51,-104.4 38.71,-101.52 34.69,-95.79"/>
<text text-anchor="middle" x="71.5" y="-95" font-family="Helvetica,sans-Serif" font-size="10.00"> ptr</text>
</g>
<!-- Node8 -->
<g id="node8" class="node">
<title>Node8</title>
<g id="a_node8"><a xlink:title=" ">
<polygon fill="none" stroke="#bfbfbf" points="181.5,-142.5 181.5,-161.5 210.5,-161.5 210.5,-142.5 181.5,-142.5"/>
<text text-anchor="middle" x="196" y="-149.5" font-family="Helvetica,sans-Serif" font-size="10.00">int</text>
</a>
</g>
</g>
<!-- Node8&#45;&gt;Node2 -->
<g id="edge7" class="edge">
<title>Node8&#45;&gt;Node2</title>
<path fill="none" stroke="#9a32cd" stroke-dasharray="5,2" d="M220.96,-149.14C284.97,-141.91 465.26,-124.13 615,-134 663.12,-137.17 716.81,-144.23 758.99,-150.58"/>
<polygon fill="#9a32cd" stroke="#9a32cd" points="220.26,-145.7 210.72,-150.32 221.06,-152.66 220.26,-145.7"/>
<text text-anchor="middle" x="535.5" y="-137" font-family="Helvetica,sans-Serif" font-size="10.00"> len</text>
</g>
<!-- Node8&#45;&gt;Node10 -->
<g id="edge10" class="edge">
<title>Node8&#45;&gt;Node10</title>
<path fill="none" stroke="#9a32cd" stroke-dasharray="5,2" d="M220.73,-155.09C264.02,-160.84 358.69,-173.87 438,-188 449.45,-190.04 461.63,-192.41 473.34,-194.79"/>
<polygon fill="#9a32cd" stroke="#9a32cd" points="221,-151.6 210.63,-153.76 220.09,-158.54 221,-151.6"/>
<text text-anchor="middle" x="367" y="-191" font-family="Helvetica,sans-Serif" font-size="10.00"> elements</text>
</g>
<!-- Node9 -->
<g id="node9" class="node">
<title>Node9</title>
<g id="a_node9"><a xlink:title=" ">
<polygon fill="none" stroke="#bfbfbf" points="516.5,-154.5 516.5,-173.5 554.5,-173.5 554.5,-154.5 516.5,-154.5"/>
<text text-anchor="middle" x="535.5" y="-161.5" font-family="Helvetica,sans-Serif" font-size="10.00">bool</text>
</a>
</g>
</g>
<!-- Node9&#45;&gt;Node2 -->
<g id="edge8" class="edge">
<title>Node9&#45;&gt;Node2</title>
<path fill="none" stroke="#9a32cd" stroke-dasharray="5,2" d="M564.94,-163.9C609.12,-163.76 695.71,-163.46 758.76,-163.25"/>
<polygon fill="#9a32cd" stroke="#9a32cd" points="564.65,-160.41 554.66,-163.94 564.67,-167.41 564.65,-160.41"/>
<text text-anchor="middle" x="677" y="-177" font-family="Helvetica,sans-Serif" font-size="10.00"> fullDecode</text>
<text text-anchor="middle" x="677" y="-166" font-family="Helvetica,sans-Serif" font-size="10.00">fixDNGBug16</text>
</g>
<!-- Node10&#45;&gt;Node2 -->
<g id="edge9" class="edge">
<title>Node10&#45;&gt;Node2</title>
<path fill="none" stroke="#9a32cd" stroke-dasharray="5,2" d="M608.14,-200.84C642.39,-197.07 683.91,-191.98 721,-186 735.23,-183.71 750.4,-180.88 764.84,-178.01"/>
<polygon fill="#9a32cd" stroke="#9a32cd" points="607.32,-197.41 597.76,-201.97 608.08,-204.37 607.32,-197.41"/>
<text text-anchor="middle" x="677" y="-200" font-family="Helvetica,sans-Serif" font-size="10.00"> nCodesPerLength</text>
</g>
<!-- Node11 -->
<g id="node11" class="node">
<title>Node11</title>
<g id="a_node11"><a xlink:title=" ">
<polygon fill="none" stroke="#bfbfbf" points="516.5,-69.5 516.5,-88.5 554.5,-88.5 554.5,-69.5 516.5,-69.5"/>
<text text-anchor="middle" x="535.5" y="-76.5" font-family="Helvetica,sans-Serif" font-size="10.00">auto</text>
</a>
</g>
</g>
<!-- Node11&#45;&gt;Node2 -->
<g id="edge12" class="edge">
<title>Node11&#45;&gt;Node2</title>
<path fill="none" stroke="#9a32cd" stroke-dasharray="5,2" d="M565.01,-78.8C601.9,-79.32 667.74,-82.88 721,-100 755.43,-111.06 791.25,-133.13 813.09,-147.98"/>
<polygon fill="#9a32cd" stroke="#9a32cd" points="564.57,-75.3 554.54,-78.73 564.52,-82.3 564.57,-75.3"/>
<text text-anchor="middle" x="677" y="-103" font-family="Helvetica,sans-Serif" font-size="10.00"> ret</text>
</g>
<!-- Node12 -->
<g id="node12" class="node">
<title>Node12</title>
<g id="a_node12"><a xlink:href="../../da/d20/classrawspeed_1_1_binary_huffman_tree.html" target="_top" xlink:title=" ">
<polygon fill="none" stroke="black" points="1043,-41 1043,-71 1207,-71 1207,-41 1043,-41"/>
<text text-anchor="start" x="1051" y="-59" font-family="Helvetica,sans-Serif" font-size="10.00">rawspeed::BinaryHuffmanTree</text>
<text text-anchor="middle" x="1125" y="-48" font-family="Helvetica,sans-Serif" font-size="10.00">&lt; ValueType &gt;</text>
</a>
</g>
</g>
<!-- Node12&#45;&gt;Node1 -->
<g id="edge13" class="edge">
<title>Node12&#45;&gt;Node1</title>
<path fill="none" stroke="#9a32cd" stroke-dasharray="5,2" d="M1204.3,-73.24C1236.71,-80.38 1273.06,-88.38 1300.56,-94.44"/>
<polygon fill="#9a32cd" stroke="#9a32cd" points="1204.9,-69.79 1194.38,-71.06 1203.39,-76.62 1204.9,-69.79"/>
<text text-anchor="middle" x="1236.5" y="-85" font-family="Helvetica,sans-Serif" font-size="10.00"> tree</text>
</g>
<!-- Node13 -->
<g id="node13" class="node">
<title>Node13</title>
<g id="a_node13"><a xlink:title=" ">
<polygon fill="none" stroke="#bfbfbf" points="456,-20 456,-50 615,-50 615,-20 456,-20"/>
<text text-anchor="start" x="464" y="-38" font-family="Helvetica,sans-Serif" font-size="10.00">std::unique_ptr&lt; rawspeed</text>
<text text-anchor="middle" x="535.5" y="-27" font-family="Helvetica,sans-Serif" font-size="10.00">::BinaryHuffmanTree::Node &gt;</text>
</a>
</g>
</g>
<!-- Node13&#45;&gt;Node12 -->
<g id="edge14" class="edge">
<title>Node13&#45;&gt;Node12</title>
<path fill="none" stroke="#9a32cd" stroke-dasharray="5,2" d="M625.31,-41.59C627.9,-41.73 630.47,-41.87 633,-42 777.15,-49.28 945.31,-53.05 1042.72,-54.77"/>
<polygon fill="#9a32cd" stroke="#9a32cd" points="625.4,-38.09 615.22,-41 624.99,-45.08 625.4,-38.09"/>
<text text-anchor="middle" x="835" y="-56" font-family="Helvetica,sans-Serif" font-size="10.00"> root</text>
</g>
<!-- Node16 -->
<g id="node16" class="node">
<title>Node16</title>
<g id="a_node16"><a xlink:href="../../da/d20/classrawspeed_1_1_binary_huffman_tree.html" target="_top" xlink:title=" ">
<polygon fill="none" stroke="black" points="739,-0.5 739,-19.5 931,-19.5 931,-0.5 739,-0.5"/>
<text text-anchor="middle" x="835" y="-7.5" font-family="Helvetica,sans-Serif" font-size="10.00">rawspeed::BinaryHuffmanTree&lt; T &gt;</text>
</a>
</g>
</g>
<!-- Node13&#45;&gt;Node16 -->
<g id="edge19" class="edge">
<title>Node13&#45;&gt;Node16</title>
<path fill="none" stroke="#9a32cd" stroke-dasharray="5,2" d="M625.47,-27.52C661.21,-24.52 702.47,-21.05 738.81,-18"/>
<polygon fill="#9a32cd" stroke="#9a32cd" points="624.73,-24.07 615.05,-28.4 625.31,-31.05 624.73,-24.07"/>
<text text-anchor="middle" x="677" y="-30" font-family="Helvetica,sans-Serif" font-size="10.00"> root</text>
</g>
<!-- Node14 -->
<g id="node14" class="node">
<title>Node14</title>
<g id="a_node14"><a xlink:href="../../df/d9b/structrawspeed_1_1_binary_huffman_tree_1_1_node.html" target="_top" xlink:title=" ">
<polygon fill="none" stroke="black" points="114,-65 114,-95 278,-95 278,-65 114,-65"/>
<text text-anchor="start" x="122" y="-83" font-family="Helvetica,sans-Serif" font-size="10.00">rawspeed::BinaryHuffmanTree</text>
<text text-anchor="middle" x="196" y="-72" font-family="Helvetica,sans-Serif" font-size="10.00">&lt; T &gt;::Node</text>
</a>
</g>
</g>
<!-- Node14&#45;&gt;Node13 -->
<g id="edge15" class="edge">
<title>Node14&#45;&gt;Node13</title>
<path fill="none" stroke="#9a32cd" stroke-dasharray="5,2" d="M288.33,-74.75C333.55,-71.37 388.85,-66.06 438,-58 450.83,-55.9 464.49,-53.03 477.37,-50.04"/>
<polygon fill="#9a32cd" stroke="#9a32cd" points="287.97,-71.27 278.25,-75.49 288.48,-78.25 287.97,-71.27"/>
<text text-anchor="middle" x="367" y="-77" font-family="Helvetica,sans-Serif" font-size="10.00"> ptr</text>
</g>
<!-- Node15&#45;&gt;Node13 -->
<g id="edge16" class="edge">
<title>Node15&#45;&gt;Node13</title>
<path fill="none" stroke="orange" stroke-dasharray="5,2" d="M265.04,-35.8C320.19,-35.64 397.96,-35.4 455.78,-35.23"/>
<polygon fill="orange" stroke="orange" points="265.01,-32.3 255.02,-35.83 265.03,-39.3 265.01,-32.3"/>
<text text-anchor="start" x="296" y="-50" font-family="Helvetica,sans-Serif" font-size="10.00"> &lt; rawspeed::BinaryHuffman</text>
<text text-anchor="middle" x="367" y="-39" font-family="Helvetica,sans-Serif" font-size="10.00">Tree::Node &gt;</text>
</g>
<!-- Node16&#45;&gt;Node12 -->
<g id="edge18" class="edge">
<title>Node16&#45;&gt;Node12</title>
<path fill="none" stroke="orange" stroke-dasharray="5,2" d="M941.07,-19.09C968.5,-22.17 997.95,-26.1 1025,-31 1039.74,-33.67 1055.54,-37.3 1070.08,-40.96"/>
<polygon fill="orange" stroke="orange" points="941.39,-15.61 931.06,-18 940.62,-22.57 941.39,-15.61"/>
<text text-anchor="middle" x="987" y="-34" font-family="Helvetica,sans-Serif" font-size="10.00"> &lt; ValueType &gt;</text>
</g>
</g>
</svg>
