<?xml version="1.0" encoding="UTF-8" standalone="no"?>
<!DOCTYPE svg PUBLIC "-//W3C//DTD SVG 1.1//EN"
 "http://www.w3.org/Graphics/SVG/1.1/DTD/svg11.dtd">
<!-- Generated by graphviz version 2.43.0 (0)
 -->
<!-- Title: librawspeed/metadata/CameraMetaData.cpp Pages: 1 -->
<!--zoomable 319 -->
<svg id="main" version="1.1" xmlns="http://www.w3.org/2000/svg" xmlns:xlink="http://www.w3.org/1999/xlink" xml:space="preserve" onload="init(evt)">
<style type="text/css"><![CDATA[
.edge:hover path { stroke: red; }
.edge:hover polygon { stroke: red; fill: red; }
]]></style>
<script type="text/javascript"><![CDATA[
var edges = document.getElementsByTagName('g');
if (edges && edges.length) {
  for (var i=0;i<edges.length;i++) {
    if (edges[i].id.substr(0,4)=='edge') {
      edges[i].setAttribute('class','edge');
    }
  }
}
]]></script>
        <defs>
                <circle id="rim" cx="0" cy="0" r="7"/>
                <circle id="rim2" cx="0" cy="0" r="3.5"/>
                <g id="zoomPlus">
                        <use xlink:href="#rim" fill="#404040">
                                <set attributeName="fill" to="#808080" begin="zoomplus.mouseover" end="zoomplus.mouseout"/>
                        </use>
                        <path d="M-4,0h8M0,-4v8" fill="none" stroke="white" stroke-width="1.5" pointer-events="none"/>
                </g>
                <g id="zoomMin">
                        <use xlink:href="#rim" fill="#404040">
                                <set attributeName="fill" to="#808080" begin="zoomminus.mouseover" end="zoomminus.mouseout"/>
                        </use>
                        <path d="M-4,0h8" fill="none" stroke="white" stroke-width="1.5" pointer-events="none"/>
                </g>
                <g id="dirArrow">
                        <path fill="none" stroke="white" stroke-width="1.5" d="M0,-3.0v7 M-2.5,-0.5L0,-3.0L2.5,-0.5"/>
                </g>
               <g id="resetDef">
                       <use xlink:href="#rim2" fill="#404040">
                               <set attributeName="fill" to="#808080" begin="reset.mouseover" end="reset.mouseout"/>
                       </use>
               </g>
        </defs>

<script type="text/javascript">
var viewWidth = 1430;
var viewHeight = 319;
var sectionId = 'dynsection-0';
</script>
<script xlink:href="../../svgpan.js"/>
<svg id="graph" class="graph">
<g id="viewport">
<title>librawspeed/metadata/CameraMetaData.cpp</title>
<!-- Node1 -->
<g id="node1" class="node">
<title>Node1</title>
<g id="a_node1"><a xlink:title=" ">
<polygon fill="#bfbfbf" stroke="black" points="735.98,-280.5 735.98,-310.5 861.98,-310.5 861.98,-280.5 735.98,-280.5"/>
<text text-anchor="start" x="743.98" y="-298.5" font-family="Helvetica,sans-Serif" font-size="10.00">librawspeed/metadata</text>
<text text-anchor="middle" x="798.98" y="-287.5" font-family="Helvetica,sans-Serif" font-size="10.00">/CameraMetaData.cpp</text>
</a>
</g>
</g>
<!-- Node2 -->
<g id="node2" class="node">
<title>Node2</title>
<g id="a_node2"><a xlink:href="../../da/d1d/_camera_meta_data_8h.html" target="_top" xlink:title=" ">
<polygon fill="none" stroke="black" points="87.48,-224.5 87.48,-243.5 248.48,-243.5 248.48,-224.5 87.48,-224.5"/>
<text text-anchor="middle" x="167.98" y="-231.5" font-family="Helvetica,sans-Serif" font-size="10.00">metadata/CameraMetaData.h</text>
</a>
</g>
</g>
<!-- Node1&#45;&gt;Node2 -->
<g id="edge1" class="edge">
<title>Node1&#45;&gt;Node2</title>
<path fill="none" stroke="midnightblue" d="M735.88,-288.55C623.59,-277.96 388.72,-255.81 258.97,-243.58"/>
<polygon fill="midnightblue" stroke="midnightblue" points="258.95,-240.06 248.67,-242.61 258.29,-247.03 258.95,-240.06"/>
</g>
<!-- Node4 -->
<g id="node4" class="node">
<title>Node4</title>
<g id="a_node4"><a xlink:href="../../d5/d91/_camera_8h.html" target="_top" xlink:title=" ">
<polygon fill="none" stroke="black" points="412.98,-168.5 412.98,-187.5 526.98,-187.5 526.98,-168.5 412.98,-168.5"/>
<text text-anchor="middle" x="469.98" y="-175.5" font-family="Helvetica,sans-Serif" font-size="10.00">metadata/Camera.h</text>
</a>
</g>
</g>
<!-- Node1&#45;&gt;Node4 -->
<g id="edge40" class="edge">
<title>Node1&#45;&gt;Node4</title>
<path fill="none" stroke="midnightblue" d="M758.97,-280.45C693.6,-257.5 565.05,-212.38 503.88,-190.9"/>
<polygon fill="midnightblue" stroke="midnightblue" points="504.91,-187.55 494.31,-187.54 502.59,-194.16 504.91,-187.55"/>
</g>
<!-- Node6 -->
<g id="node6" class="node">
<title>Node6</title>
<g id="a_node6"><a xlink:title=" ">
<polygon fill="none" stroke="#bfbfbf" points="1351.98,-0.5 1351.98,-19.5 1415.98,-19.5 1415.98,-0.5 1351.98,-0.5"/>
<text text-anchor="middle" x="1383.98" y="-7.5" font-family="Helvetica,sans-Serif" font-size="10.00">algorithm</text>
</a>
</g>
</g>
<!-- Node1&#45;&gt;Node6 -->
<g id="edge50" class="edge">
<title>Node1&#45;&gt;Node6</title>
<path fill="none" stroke="midnightblue" d="M862.06,-292.05C949.04,-287.6 1110.22,-275.54 1243.98,-244 1325.95,-224.67 1421.98,-263.22 1421.98,-179 1421.98,-179 1421.98,-179 1421.98,-121 1421.98,-86.81 1405.38,-49.76 1394.12,-28.57"/>
<polygon fill="midnightblue" stroke="midnightblue" points="1397.16,-26.83 1389.27,-19.77 1391.03,-30.22 1397.16,-26.83"/>
</g>
<!-- Node11 -->
<g id="node11" class="node">
<title>Node11</title>
<g id="a_node11"><a xlink:title=" ">
<polygon fill="none" stroke="#bfbfbf" points="724.48,-56.5 724.48,-75.5 771.48,-75.5 771.48,-56.5 724.48,-56.5"/>
<text text-anchor="middle" x="747.98" y="-63.5" font-family="Helvetica,sans-Serif" font-size="10.00">vector</text>
</a>
</g>
</g>
<!-- Node1&#45;&gt;Node11 -->
<g id="edge54" class="edge">
<title>Node1&#45;&gt;Node11</title>
<path fill="none" stroke="midnightblue" d="M826.72,-280.45C883.21,-250.02 1002.08,-175.67 950.98,-112 948.31,-108.67 838.68,-85.68 781.67,-73.91"/>
<polygon fill="midnightblue" stroke="midnightblue" points="782.17,-70.44 771.67,-71.85 780.76,-77.3 782.17,-70.44"/>
</g>
<!-- Node13 -->
<g id="node13" class="node">
<title>Node13</title>
<g id="a_node13"><a xlink:title=" ">
<polygon fill="none" stroke="#bfbfbf" points="40.98,-56.5 40.98,-75.5 78.98,-75.5 78.98,-56.5 40.98,-56.5"/>
<text text-anchor="middle" x="59.98" y="-63.5" font-family="Helvetica,sans-Serif" font-size="10.00">map</text>
</a>
</g>
</g>
<!-- Node1&#45;&gt;Node13 -->
<g id="edge51" class="edge">
<title>Node1&#45;&gt;Node13</title>
<path fill="none" stroke="midnightblue" d="M735.69,-294.27C564.01,-293.11 98.8,-286.06 44.98,-244 -1.67,-207.54 8.56,-168.27 26.98,-112 30.47,-101.34 37.55,-91.12 44.27,-83.12"/>
<polygon fill="midnightblue" stroke="midnightblue" points="46.89,-85.44 50.96,-75.66 41.68,-80.76 46.89,-85.44"/>
</g>
<!-- Node14 -->
<g id="node14" class="node">
<title>Node14</title>
<g id="a_node14"><a xlink:title=" ">
<polygon fill="none" stroke="#bfbfbf" points="197.98,-56.5 197.98,-75.5 241.98,-75.5 241.98,-56.5 197.98,-56.5"/>
<text text-anchor="middle" x="219.98" y="-63.5" font-family="Helvetica,sans-Serif" font-size="10.00">string</text>
</a>
</g>
</g>
<!-- Node1&#45;&gt;Node14 -->
<g id="edge52" class="edge">
<title>Node1&#45;&gt;Node14</title>
<path fill="none" stroke="midnightblue" d="M735.8,-293.1C570.62,-289.01 134.8,-275.36 77.98,-244 44.38,-225.45 17.47,-201.05 36.98,-168 69.68,-112.6 144.86,-85.49 187.99,-74.06"/>
<polygon fill="midnightblue" stroke="midnightblue" points="188.87,-77.45 197.71,-71.61 187.16,-70.66 188.87,-77.45"/>
</g>
<!-- Node16 -->
<g id="node16" class="node">
<title>Node16</title>
<g id="a_node16"><a xlink:title=" ">
<polygon fill="none" stroke="#bfbfbf" points="776.48,-112.5 776.48,-131.5 821.48,-131.5 821.48,-112.5 776.48,-112.5"/>
<text text-anchor="middle" x="798.98" y="-119.5" font-family="Helvetica,sans-Serif" font-size="10.00">utility</text>
</a>
</g>
</g>
<!-- Node1&#45;&gt;Node16 -->
<g id="edge53" class="edge">
<title>Node1&#45;&gt;Node16</title>
<path fill="none" stroke="midnightblue" d="M798.98,-280.47C798.98,-249.7 798.98,-176.33 798.98,-141.7"/>
<polygon fill="midnightblue" stroke="midnightblue" points="802.48,-141.56 798.98,-131.56 795.48,-141.56 802.48,-141.56"/>
</g>
<!-- Node19 -->
<g id="node19" class="node">
<title>Node19</title>
<g id="a_node19"><a xlink:href="../../d9/df5/src_2librawspeed_2common_2_common_8h.html" target="_top" xlink:title=" ">
<polygon fill="none" stroke="black" points="1277.98,-112.5 1277.98,-131.5 1393.98,-131.5 1393.98,-112.5 1277.98,-112.5"/>
<text text-anchor="middle" x="1335.98" y="-119.5" font-family="Helvetica,sans-Serif" font-size="10.00">common/Common.h</text>
</a>
</g>
</g>
<!-- Node1&#45;&gt;Node19 -->
<g id="edge30" class="edge">
<title>Node1&#45;&gt;Node19</title>
<path fill="none" stroke="midnightblue" d="M862.04,-291.86C962.63,-286.82 1154.23,-273.58 1214.98,-244 1264.44,-219.92 1305.66,-167.37 1324.68,-140.13"/>
<polygon fill="midnightblue" stroke="midnightblue" points="1327.72,-141.88 1330.46,-131.64 1321.94,-137.94 1327.72,-141.88"/>
</g>
<!-- Node24 -->
<g id="node24" class="node">
<title>Node24</title>
<g id="a_node24"><a xlink:href="../../d0/d53/_camera_metadata_exception_8h.html" target="_top" xlink:title=" ">
<polygon fill="none" stroke="black" points="997.98,-224.5 997.98,-243.5 1205.98,-243.5 1205.98,-224.5 997.98,-224.5"/>
<text text-anchor="middle" x="1101.98" y="-231.5" font-family="Helvetica,sans-Serif" font-size="10.00">metadata/CameraMetadataException.h</text>
</a>
</g>
</g>
<!-- Node1&#45;&gt;Node24 -->
<g id="edge41" class="edge">
<title>Node1&#45;&gt;Node24</title>
<path fill="none" stroke="midnightblue" d="M862.13,-282.1C917.25,-271.28 996.36,-255.74 1048.43,-245.52"/>
<polygon fill="midnightblue" stroke="midnightblue" points="1049.34,-248.9 1058.47,-243.54 1047.99,-242.04 1049.34,-248.9"/>
</g>
<!-- Node3 -->
<g id="node3" class="node">
<title>Node3</title>
<g id="a_node3"><a xlink:title=" ">
<polygon fill="none" stroke="#bfbfbf" points="839.98,-112.5 839.98,-131.5 941.98,-131.5 941.98,-112.5 839.98,-112.5"/>
<text text-anchor="middle" x="890.98" y="-119.5" font-family="Helvetica,sans-Serif" font-size="10.00">rawspeedconfig.h</text>
</a>
</g>
</g>
<!-- Node2&#45;&gt;Node3 -->
<g id="edge2" class="edge">
<title>Node2&#45;&gt;Node3</title>
<path fill="none" stroke="midnightblue" d="M248.57,-224.54C323.25,-216.37 437.36,-203.05 535.98,-188 644.09,-171.51 769.8,-147.29 838.86,-133.55"/>
<polygon fill="midnightblue" stroke="midnightblue" points="839.92,-136.9 849.04,-131.51 838.55,-130.04 839.92,-136.9"/>
</g>
<!-- Node2&#45;&gt;Node4 -->
<g id="edge3" class="edge">
<title>Node2&#45;&gt;Node4</title>
<path fill="none" stroke="midnightblue" d="M215.83,-224.44C269.18,-214.9 355.43,-199.48 412.42,-189.29"/>
<polygon fill="midnightblue" stroke="midnightblue" points="413.13,-192.72 422.35,-187.52 411.89,-185.83 413.13,-192.72"/>
</g>
<!-- Node7 -->
<g id="node7" class="node">
<title>Node7</title>
<g id="a_node7"><a xlink:title=" ">
<polygon fill="none" stroke="#bfbfbf" points="330.98,-0.5 330.98,-19.5 380.98,-19.5 380.98,-0.5 330.98,-0.5"/>
<text text-anchor="middle" x="355.98" y="-7.5" font-family="Helvetica,sans-Serif" font-size="10.00">cstdint</text>
</a>
</g>
</g>
<!-- Node2&#45;&gt;Node7 -->
<g id="edge25" class="edge">
<title>Node2&#45;&gt;Node7</title>
<path fill="none" stroke="midnightblue" d="M87.17,-225.75C63.32,-219.39 39.68,-208.04 24.98,-188 -9.77,-140.63 -8.53,-98.55 31.98,-56 70.89,-15.13 244.64,-10.6 320.43,-10.61"/>
<polygon fill="midnightblue" stroke="midnightblue" points="320.86,-14.11 330.87,-10.64 320.88,-7.11 320.86,-14.11"/>
</g>
<!-- Node2&#45;&gt;Node13 -->
<g id="edge26" class="edge">
<title>Node2&#45;&gt;Node13</title>
<path fill="none" stroke="midnightblue" d="M94.84,-224.46C72.62,-218.04 50.53,-206.99 36.98,-188 14.61,-156.66 35.1,-109.53 49.21,-84.34"/>
<polygon fill="midnightblue" stroke="midnightblue" points="52.33,-85.95 54.38,-75.55 46.29,-82.4 52.33,-85.95"/>
</g>
<!-- Node2&#45;&gt;Node14 -->
<g id="edge28" class="edge">
<title>Node2&#45;&gt;Node14</title>
<path fill="none" stroke="midnightblue" d="M170.78,-224.08C179,-197.83 203.21,-120.55 214.31,-85.12"/>
<polygon fill="midnightblue" stroke="midnightblue" points="217.65,-86.16 217.3,-75.57 210.97,-84.06 217.65,-86.16"/>
</g>
<!-- Node17 -->
<g id="node17" class="node">
<title>Node17</title>
<g id="a_node17"><a xlink:title=" ">
<polygon fill="none" stroke="#bfbfbf" points="45.98,-168.5 45.98,-187.5 103.98,-187.5 103.98,-168.5 45.98,-168.5"/>
<text text-anchor="middle" x="74.98" y="-175.5" font-family="Helvetica,sans-Serif" font-size="10.00">memory</text>
</a>
</g>
</g>
<!-- Node2&#45;&gt;Node17 -->
<g id="edge27" class="edge">
<title>Node2&#45;&gt;Node17</title>
<path fill="none" stroke="midnightblue" d="M153.04,-224.32C138.4,-215.82 115.85,-202.73 98.74,-192.8"/>
<polygon fill="midnightblue" stroke="midnightblue" points="100.29,-189.65 89.89,-187.65 96.78,-195.7 100.29,-189.65"/>
</g>
<!-- Node18 -->
<g id="node18" class="node">
<title>Node18</title>
<g id="a_node18"><a xlink:title=" ">
<polygon fill="none" stroke="#bfbfbf" points="122.48,-168.5 122.48,-187.5 163.48,-187.5 163.48,-168.5 122.48,-168.5"/>
<text text-anchor="middle" x="142.98" y="-175.5" font-family="Helvetica,sans-Serif" font-size="10.00">tuple</text>
</a>
</g>
</g>
<!-- Node2&#45;&gt;Node18 -->
<g id="edge29" class="edge">
<title>Node2&#45;&gt;Node18</title>
<path fill="none" stroke="midnightblue" d="M163.85,-224.08C160.47,-216.77 155.57,-206.18 151.36,-197.1"/>
<polygon fill="midnightblue" stroke="midnightblue" points="154.41,-195.36 147.03,-187.75 148.06,-198.3 154.41,-195.36"/>
</g>
<!-- Node4&#45;&gt;Node3 -->
<g id="edge4" class="edge">
<title>Node4&#45;&gt;Node3</title>
<path fill="none" stroke="midnightblue" d="M527.25,-170.31C596.4,-162.13 716.53,-147.6 829.7,-132.15"/>
<polygon fill="midnightblue" stroke="midnightblue" points="830.5,-135.57 839.93,-130.75 829.55,-128.64 830.5,-135.57"/>
</g>
<!-- Node5 -->
<g id="node5" class="node">
<title>Node5</title>
<g id="a_node5"><a xlink:href="../../d1/d18/_point_8h.html" target="_top" xlink:title=" ">
<polygon fill="none" stroke="black" points="482.98,-56.5 482.98,-75.5 578.98,-75.5 578.98,-56.5 482.98,-56.5"/>
<text text-anchor="middle" x="530.98" y="-63.5" font-family="Helvetica,sans-Serif" font-size="10.00">common/Point.h</text>
</a>
</g>
</g>
<!-- Node4&#45;&gt;Node5 -->
<g id="edge5" class="edge">
<title>Node4&#45;&gt;Node5</title>
<path fill="none" stroke="midnightblue" d="M478.6,-168.36C486.8,-159.75 499.03,-145.86 506.98,-132 515.4,-117.33 521.81,-99.16 525.88,-85.77"/>
<polygon fill="midnightblue" stroke="midnightblue" points="529.34,-86.4 528.74,-75.82 522.61,-84.46 529.34,-86.4"/>
</g>
<!-- Node4&#45;&gt;Node7 -->
<g id="edge19" class="edge">
<title>Node4&#45;&gt;Node7</title>
<path fill="none" stroke="midnightblue" d="M412.96,-173.16C347.19,-167.69 244.23,-155.59 213.98,-132 192.49,-115.24 194.66,-102.66 188.98,-76 187.13,-67.31 183.58,-63.06 188.98,-56 204.92,-35.2 276.73,-21.85 320.83,-15.45"/>
<polygon fill="midnightblue" stroke="midnightblue" points="321.45,-18.9 330.86,-14.05 320.47,-11.97 321.45,-18.9"/>
</g>
<!-- Node9 -->
<g id="node9" class="node">
<title>Node9</title>
<g id="a_node9"><a xlink:href="../../db/dca/_black_area_8h.html" target="_top" xlink:title=" ">
<polygon fill="none" stroke="black" points="339.48,-56.5 339.48,-75.5 464.48,-75.5 464.48,-56.5 339.48,-56.5"/>
<text text-anchor="middle" x="401.98" y="-63.5" font-family="Helvetica,sans-Serif" font-size="10.00">metadata/BlackArea.h</text>
</a>
</g>
</g>
<!-- Node4&#45;&gt;Node9 -->
<g id="edge9" class="edge">
<title>Node4&#45;&gt;Node9</title>
<path fill="none" stroke="midnightblue" d="M461.64,-168.19C453.64,-159.46 441.56,-145.48 432.98,-132 423.45,-117.02 414.95,-98.65 409.28,-85.27"/>
<polygon fill="midnightblue" stroke="midnightblue" points="412.41,-83.68 405.36,-75.76 405.93,-86.34 412.41,-83.68"/>
</g>
<!-- Node10 -->
<g id="node10" class="node">
<title>Node10</title>
<g id="a_node10"><a xlink:href="../../d3/d36/_camera_sensor_info_8h.html" target="_top" xlink:title=" ">
<polygon fill="none" stroke="black" points="553.98,-112.5 553.98,-131.5 719.98,-131.5 719.98,-112.5 553.98,-112.5"/>
<text text-anchor="middle" x="636.98" y="-119.5" font-family="Helvetica,sans-Serif" font-size="10.00">metadata/CameraSensorInfo.h</text>
</a>
</g>
</g>
<!-- Node4&#45;&gt;Node10 -->
<g id="edge11" class="edge">
<title>Node4&#45;&gt;Node10</title>
<path fill="none" stroke="midnightblue" d="M496.44,-168.44C524.66,-159.32 569.52,-144.81 600.95,-134.65"/>
<polygon fill="midnightblue" stroke="midnightblue" points="602.21,-137.92 610.64,-131.52 600.05,-131.26 602.21,-137.92"/>
</g>
<!-- Node4&#45;&gt;Node11 -->
<g id="edge24" class="edge">
<title>Node4&#45;&gt;Node11</title>
<path fill="none" stroke="midnightblue" d="M527.06,-174.01C594.1,-169.34 699.88,-158 728.98,-132 741.98,-120.39 746.29,-100.43 747.62,-85.69"/>
<polygon fill="midnightblue" stroke="midnightblue" points="751.12,-85.82 748.15,-75.65 744.13,-85.46 751.12,-85.82"/>
</g>
<!-- Node12 -->
<g id="node12" class="node">
<title>Node12</title>
<g id="a_node12"><a xlink:href="../../dd/d27/_color_filter_array_8h.html" target="_top" xlink:title=" ">
<polygon fill="none" stroke="black" points="235.98,-112.5 235.98,-131.5 385.98,-131.5 385.98,-112.5 235.98,-112.5"/>
<text text-anchor="middle" x="310.98" y="-119.5" font-family="Helvetica,sans-Serif" font-size="10.00">metadata/ColorFilterArray.h</text>
</a>
</g>
</g>
<!-- Node4&#45;&gt;Node12 -->
<g id="edge13" class="edge">
<title>Node4&#45;&gt;Node12</title>
<path fill="none" stroke="midnightblue" d="M444.79,-168.44C418.04,-159.36 375.58,-144.94 345.68,-134.78"/>
<polygon fill="midnightblue" stroke="midnightblue" points="346.65,-131.42 336.06,-131.52 344.4,-138.05 346.65,-131.42"/>
</g>
<!-- Node4&#45;&gt;Node13 -->
<g id="edge20" class="edge">
<title>Node4&#45;&gt;Node13</title>
<path fill="none" stroke="midnightblue" d="M412.75,-176.45C348.29,-174.12 241.38,-165 155.98,-132 125.81,-120.34 95.69,-97.71 77.44,-82.47"/>
<polygon fill="midnightblue" stroke="midnightblue" points="79.37,-79.51 69.49,-75.66 74.81,-84.83 79.37,-79.51"/>
</g>
<!-- Node4&#45;&gt;Node14 -->
<g id="edge22" class="edge">
<title>Node4&#45;&gt;Node14</title>
<path fill="none" stroke="midnightblue" d="M412.83,-174.11C349.05,-169.62 251.55,-158.51 226.98,-132 215.78,-119.91 215.03,-100.63 216.48,-86.2"/>
<polygon fill="midnightblue" stroke="midnightblue" points="220.01,-86.29 217.96,-75.9 213.08,-85.3 220.01,-86.29"/>
</g>
<!-- Node15 -->
<g id="node15" class="node">
<title>Node15</title>
<g id="a_node15"><a xlink:title=" ">
<polygon fill="none" stroke="#bfbfbf" points="441.98,-112.5 441.98,-131.5 497.98,-131.5 497.98,-112.5 441.98,-112.5"/>
<text text-anchor="middle" x="469.98" y="-119.5" font-family="Helvetica,sans-Serif" font-size="10.00">sstream</text>
</a>
</g>
</g>
<!-- Node4&#45;&gt;Node15 -->
<g id="edge21" class="edge">
<title>Node4&#45;&gt;Node15</title>
<path fill="none" stroke="midnightblue" d="M469.98,-168.08C469.98,-161.01 469.98,-150.86 469.98,-141.99"/>
<polygon fill="midnightblue" stroke="midnightblue" points="473.48,-141.75 469.98,-131.75 466.48,-141.75 473.48,-141.75"/>
</g>
<!-- Node4&#45;&gt;Node16 -->
<g id="edge23" class="edge">
<title>Node4&#45;&gt;Node16</title>
<path fill="none" stroke="midnightblue" d="M527.03,-169.68C586.07,-161.76 680.85,-148.09 761.98,-132 763.44,-131.71 764.93,-131.4 766.43,-131.08"/>
<polygon fill="midnightblue" stroke="midnightblue" points="767.37,-134.46 776.35,-128.83 765.83,-127.63 767.37,-134.46"/>
</g>
<!-- Node5&#45;&gt;Node6 -->
<g id="edge6" class="edge">
<title>Node5&#45;&gt;Node6</title>
<path fill="none" stroke="midnightblue" d="M579.29,-61.94C731.26,-52.32 1198.03,-22.77 1341.55,-13.69"/>
<polygon fill="midnightblue" stroke="midnightblue" points="1341.95,-17.17 1351.71,-13.04 1341.5,-10.18 1341.95,-17.17"/>
</g>
<!-- Node5&#45;&gt;Node7 -->
<g id="edge7" class="edge">
<title>Node5&#45;&gt;Node7</title>
<path fill="none" stroke="midnightblue" d="M503.25,-56.44C472.77,-47.04 423.75,-31.91 390.73,-21.72"/>
<polygon fill="midnightblue" stroke="midnightblue" points="391.62,-18.33 381.03,-18.73 389.55,-25.02 391.62,-18.33"/>
</g>
<!-- Node8 -->
<g id="node8" class="node">
<title>Node8</title>
<g id="a_node8"><a xlink:title=" ">
<polygon fill="none" stroke="#bfbfbf" points="880.48,-0.5 880.48,-19.5 949.48,-19.5 949.48,-0.5 880.48,-0.5"/>
<text text-anchor="middle" x="914.98" y="-7.5" font-family="Helvetica,sans-Serif" font-size="10.00">type_traits</text>
</a>
</g>
</g>
<!-- Node5&#45;&gt;Node8 -->
<g id="edge8" class="edge">
<title>Node5&#45;&gt;Node8</title>
<path fill="none" stroke="midnightblue" d="M579.23,-58.22C654.1,-47.69 797.23,-27.56 870.04,-17.32"/>
<polygon fill="midnightblue" stroke="midnightblue" points="870.84,-20.74 880.26,-15.88 869.87,-13.81 870.84,-20.74"/>
</g>
<!-- Node9&#45;&gt;Node7 -->
<g id="edge10" class="edge">
<title>Node9&#45;&gt;Node7</title>
<path fill="none" stroke="midnightblue" d="M394.39,-56.08C387.75,-48.3 377.96,-36.8 369.92,-27.37"/>
<polygon fill="midnightblue" stroke="midnightblue" points="372.59,-25.09 363.44,-19.75 367.26,-29.63 372.59,-25.09"/>
</g>
<!-- Node10&#45;&gt;Node11 -->
<g id="edge12" class="edge">
<title>Node10&#45;&gt;Node11</title>
<path fill="none" stroke="midnightblue" d="M654.82,-112.32C672.7,-103.62 700.46,-90.12 721.03,-80.11"/>
<polygon fill="midnightblue" stroke="midnightblue" points="722.73,-83.18 730.19,-75.65 719.67,-76.88 722.73,-83.18"/>
</g>
<!-- Node12&#45;&gt;Node5 -->
<g id="edge14" class="edge">
<title>Node12&#45;&gt;Node5</title>
<path fill="none" stroke="midnightblue" d="M345.84,-112.44C383.9,-103.1 444.94,-88.12 486.44,-77.93"/>
<polygon fill="midnightblue" stroke="midnightblue" points="487.41,-81.3 496.29,-75.52 485.74,-74.5 487.41,-81.3"/>
</g>
<!-- Node12&#45;&gt;Node7 -->
<g id="edge15" class="edge">
<title>Node12&#45;&gt;Node7</title>
<path fill="none" stroke="midnightblue" d="M312.81,-112.36C315.65,-99.69 321.66,-75.46 329.98,-56 334.06,-46.46 339.72,-36.41 344.72,-28.23"/>
<polygon fill="midnightblue" stroke="midnightblue" points="347.77,-29.96 350.15,-19.64 341.85,-26.22 347.77,-29.96"/>
</g>
<!-- Node12&#45;&gt;Node11 -->
<g id="edge18" class="edge">
<title>Node12&#45;&gt;Node11</title>
<path fill="none" stroke="midnightblue" d="M380.23,-112.44C475.23,-100.7 642.33,-80.05 713.9,-71.21"/>
<polygon fill="midnightblue" stroke="midnightblue" points="714.64,-74.65 724.14,-69.95 713.78,-67.7 714.64,-74.65"/>
</g>
<!-- Node12&#45;&gt;Node13 -->
<g id="edge16" class="edge">
<title>Node12&#45;&gt;Node13</title>
<path fill="none" stroke="midnightblue" d="M271.21,-112.44C220.53,-101.54 134.13,-82.95 89.15,-73.27"/>
<polygon fill="midnightblue" stroke="midnightblue" points="89.68,-69.81 79.17,-71.13 88.21,-76.65 89.68,-69.81"/>
</g>
<!-- Node12&#45;&gt;Node14 -->
<g id="edge17" class="edge">
<title>Node12&#45;&gt;Node14</title>
<path fill="none" stroke="midnightblue" d="M296.36,-112.32C282.03,-103.82 259.97,-90.73 243.23,-80.8"/>
<polygon fill="midnightblue" stroke="midnightblue" points="244.95,-77.75 234.57,-75.65 241.38,-83.77 244.95,-77.75"/>
</g>
<!-- Node19&#45;&gt;Node6 -->
<g id="edge31" class="edge">
<title>Node19&#45;&gt;Node6</title>
<path fill="none" stroke="midnightblue" d="M1341.13,-112.21C1346.26,-103.27 1354.18,-88.92 1359.98,-76 1366.91,-60.57 1373.47,-42.48 1377.97,-29.3"/>
<polygon fill="midnightblue" stroke="midnightblue" points="1381.38,-30.16 1381.24,-19.56 1374.74,-27.93 1381.38,-30.16"/>
</g>
<!-- Node19&#45;&gt;Node7 -->
<g id="edge34" class="edge">
<title>Node19&#45;&gt;Node7</title>
<path fill="none" stroke="midnightblue" d="M1277.89,-113.13C1274.88,-112.74 1271.89,-112.36 1268.98,-112 927.57,-69.48 513.19,-26.9 391.29,-14.55"/>
<polygon fill="midnightblue" stroke="midnightblue" points="391.37,-11.04 381.06,-13.52 390.66,-18.01 391.37,-11.04"/>
</g>
<!-- Node19&#45;&gt;Node8 -->
<g id="edge38" class="edge">
<title>Node19&#45;&gt;Node8</title>
<path fill="none" stroke="midnightblue" d="M1337.74,-112.39C1340.04,-98.39 1342.18,-70.77 1326.98,-56 1301,-30.76 1060.96,-17.38 959.71,-12.82"/>
<polygon fill="midnightblue" stroke="midnightblue" points="959.64,-9.32 949.49,-12.37 959.33,-16.31 959.64,-9.32"/>
</g>
<!-- Node19&#45;&gt;Node11 -->
<g id="edge39" class="edge">
<title>Node19&#45;&gt;Node11</title>
<path fill="none" stroke="midnightblue" d="M1277.9,-113.03C1274.88,-112.67 1271.9,-112.32 1268.98,-112 1085.49,-91.76 864.79,-75.28 781.76,-69.36"/>
<polygon fill="midnightblue" stroke="midnightblue" points="781.87,-65.86 771.65,-68.64 781.38,-72.84 781.87,-65.86"/>
</g>
<!-- Node19&#45;&gt;Node14 -->
<g id="edge37" class="edge">
<title>Node19&#45;&gt;Node14</title>
<path fill="none" stroke="midnightblue" d="M1277.91,-112.86C1274.9,-112.54 1271.91,-112.25 1268.98,-112 852.88,-76.16 746.87,-101.03 329.98,-76 303.85,-74.43 274.27,-71.97 252.38,-70.02"/>
<polygon fill="midnightblue" stroke="midnightblue" points="252.57,-66.52 242.29,-69.11 251.94,-73.5 252.57,-66.52"/>
</g>
<!-- Node20 -->
<g id="node20" class="node">
<title>Node20</title>
<g id="a_node20"><a xlink:title=" ">
<polygon fill="none" stroke="#bfbfbf" points="1027.98,-56.5 1027.98,-75.5 1079.98,-75.5 1079.98,-56.5 1027.98,-56.5"/>
<text text-anchor="middle" x="1053.98" y="-63.5" font-family="Helvetica,sans-Serif" font-size="10.00">cassert</text>
</a>
</g>
</g>
<!-- Node19&#45;&gt;Node20 -->
<g id="edge32" class="edge">
<title>Node19&#45;&gt;Node20</title>
<path fill="none" stroke="midnightblue" d="M1282.76,-112.43C1234.84,-104.47 1162.28,-91.77 1090.44,-76.2"/>
<polygon fill="midnightblue" stroke="midnightblue" points="1090.82,-72.7 1080.31,-73.98 1089.33,-79.54 1090.82,-72.7"/>
</g>
<!-- Node21 -->
<g id="node21" class="node">
<title>Node21</title>
<g id="a_node21"><a xlink:title=" ">
<polygon fill="none" stroke="#bfbfbf" points="1097.98,-56.5 1097.98,-75.5 1147.98,-75.5 1147.98,-56.5 1097.98,-56.5"/>
<text text-anchor="middle" x="1122.98" y="-63.5" font-family="Helvetica,sans-Serif" font-size="10.00">climits</text>
</a>
</g>
</g>
<!-- Node19&#45;&gt;Node21 -->
<g id="edge33" class="edge">
<title>Node19&#45;&gt;Node21</title>
<path fill="none" stroke="midnightblue" d="M1301.3,-112.42C1267.26,-103.96 1213.6,-90.56 1158.22,-76.3"/>
<polygon fill="midnightblue" stroke="midnightblue" points="1158.78,-72.83 1148.22,-73.72 1157.03,-79.61 1158.78,-72.83"/>
</g>
<!-- Node22 -->
<g id="node22" class="node">
<title>Node22</title>
<g id="a_node22"><a xlink:title=" ">
<polygon fill="none" stroke="#bfbfbf" points="1165.98,-56.5 1165.98,-75.5 1215.98,-75.5 1215.98,-56.5 1165.98,-56.5"/>
<text text-anchor="middle" x="1190.98" y="-63.5" font-family="Helvetica,sans-Serif" font-size="10.00">cstring</text>
</a>
</g>
</g>
<!-- Node19&#45;&gt;Node22 -->
<g id="edge35" class="edge">
<title>Node19&#45;&gt;Node22</title>
<path fill="none" stroke="midnightblue" d="M1313.01,-112.44C1288.82,-103.44 1250.56,-89.19 1223.34,-79.05"/>
<polygon fill="midnightblue" stroke="midnightblue" points="1224.44,-75.73 1213.85,-75.52 1222,-82.29 1224.44,-75.73"/>
</g>
<!-- Node23 -->
<g id="node23" class="node">
<title>Node23</title>
<g id="a_node23"><a xlink:title=" ">
<polygon fill="none" stroke="#bfbfbf" points="1234.48,-56.5 1234.48,-75.5 1317.48,-75.5 1317.48,-56.5 1234.48,-56.5"/>
<text text-anchor="middle" x="1275.98" y="-63.5" font-family="Helvetica,sans-Serif" font-size="10.00">initializer_list</text>
</a>
</g>
</g>
<!-- Node19&#45;&gt;Node23 -->
<g id="edge36" class="edge">
<title>Node19&#45;&gt;Node23</title>
<path fill="none" stroke="midnightblue" d="M1326.34,-112.32C1317.47,-104.34 1304.11,-92.31 1293.37,-82.65"/>
<polygon fill="midnightblue" stroke="midnightblue" points="1295.57,-79.92 1285.8,-75.83 1290.89,-85.13 1295.57,-79.92"/>
</g>
<!-- Node24&#45;&gt;Node3 -->
<g id="edge42" class="edge">
<title>Node24&#45;&gt;Node3</title>
<path fill="none" stroke="midnightblue" d="M1085.42,-224.37C1048.68,-205.21 960.1,-159.04 916.33,-136.22"/>
<polygon fill="midnightblue" stroke="midnightblue" points="917.95,-133.11 907.46,-131.59 914.71,-139.32 917.95,-133.11"/>
</g>
<!-- Node25 -->
<g id="node25" class="node">
<title>Node25</title>
<g id="a_node25"><a xlink:href="../../d7/d05/_rawspeed_exception_8h.html" target="_top" xlink:title=" ">
<polygon fill="none" stroke="black" points="1035.98,-168.5 1035.98,-187.5 1205.98,-187.5 1205.98,-168.5 1035.98,-168.5"/>
<text text-anchor="middle" x="1120.98" y="-175.5" font-family="Helvetica,sans-Serif" font-size="10.00">common/RawspeedException.h</text>
</a>
</g>
</g>
<!-- Node24&#45;&gt;Node25 -->
<g id="edge43" class="edge">
<title>Node24&#45;&gt;Node25</title>
<path fill="none" stroke="midnightblue" d="M1105.12,-224.08C1107.66,-216.85 1111.34,-206.41 1114.51,-197.4"/>
<polygon fill="midnightblue" stroke="midnightblue" points="1117.89,-198.35 1117.9,-187.75 1111.28,-196.02 1117.89,-198.35"/>
</g>
<!-- Node25&#45;&gt;Node3 -->
<g id="edge44" class="edge">
<title>Node25&#45;&gt;Node3</title>
<path fill="none" stroke="midnightblue" d="M1084.54,-168.44C1044.58,-159.06 980.39,-143.99 937,-133.8"/>
<polygon fill="midnightblue" stroke="midnightblue" points="937.79,-130.39 927.26,-131.52 936.19,-137.21 937.79,-130.39"/>
</g>
<!-- Node25&#45;&gt;Node19 -->
<g id="edge45" class="edge">
<title>Node25&#45;&gt;Node19</title>
<path fill="none" stroke="midnightblue" d="M1155.05,-168.44C1192.16,-159.12 1251.64,-144.18 1292.2,-134"/>
<polygon fill="midnightblue" stroke="midnightblue" points="1293.23,-137.35 1302.07,-131.52 1291.52,-130.56 1293.23,-137.35"/>
</g>
<!-- Node26 -->
<g id="node26" class="node">
<title>Node26</title>
<g id="a_node26"><a xlink:title=" ">
<polygon fill="none" stroke="#bfbfbf" points="1217.98,-112.5 1217.98,-131.5 1259.98,-131.5 1259.98,-112.5 1217.98,-112.5"/>
<text text-anchor="middle" x="1238.98" y="-119.5" font-family="Helvetica,sans-Serif" font-size="10.00">array</text>
</a>
</g>
</g>
<!-- Node25&#45;&gt;Node26 -->
<g id="edge46" class="edge">
<title>Node25&#45;&gt;Node26</title>
<path fill="none" stroke="midnightblue" d="M1139.68,-168.44C1158.93,-159.64 1189.13,-145.81 1211.18,-135.72"/>
<polygon fill="midnightblue" stroke="midnightblue" points="1212.74,-138.86 1220.37,-131.52 1209.82,-132.5 1212.74,-138.86"/>
</g>
<!-- Node27 -->
<g id="node27" class="node">
<title>Node27</title>
<g id="a_node27"><a xlink:title=" ">
<polygon fill="none" stroke="#bfbfbf" points="998.48,-112.5 998.48,-131.5 1051.48,-131.5 1051.48,-112.5 998.48,-112.5"/>
<text text-anchor="middle" x="1024.98" y="-119.5" font-family="Helvetica,sans-Serif" font-size="10.00">cstdarg</text>
</a>
</g>
</g>
<!-- Node25&#45;&gt;Node27 -->
<g id="edge47" class="edge">
<title>Node25&#45;&gt;Node27</title>
<path fill="none" stroke="midnightblue" d="M1105.56,-168.32C1090.44,-159.82 1067.17,-146.73 1049.51,-136.8"/>
<polygon fill="midnightblue" stroke="midnightblue" points="1050.8,-133.51 1040.37,-131.65 1047.37,-139.61 1050.8,-133.51"/>
</g>
<!-- Node28 -->
<g id="node28" class="node">
<title>Node28</title>
<g id="a_node28"><a xlink:title=" ">
<polygon fill="none" stroke="#bfbfbf" points="1069.98,-112.5 1069.98,-131.5 1115.98,-131.5 1115.98,-112.5 1069.98,-112.5"/>
<text text-anchor="middle" x="1092.98" y="-119.5" font-family="Helvetica,sans-Serif" font-size="10.00">cstdio</text>
</a>
</g>
</g>
<!-- Node25&#45;&gt;Node28 -->
<g id="edge48" class="edge">
<title>Node25&#45;&gt;Node28</title>
<path fill="none" stroke="midnightblue" d="M1116.36,-168.08C1112.53,-160.69 1106.96,-149.95 1102.22,-140.81"/>
<polygon fill="midnightblue" stroke="midnightblue" points="1105.23,-139.02 1097.52,-131.75 1099.02,-142.24 1105.23,-139.02"/>
</g>
<!-- Node29 -->
<g id="node29" class="node">
<title>Node29</title>
<g id="a_node29"><a xlink:title=" ">
<polygon fill="none" stroke="#bfbfbf" points="1134.48,-112.5 1134.48,-131.5 1199.48,-131.5 1199.48,-112.5 1134.48,-112.5"/>
<text text-anchor="middle" x="1166.98" y="-119.5" font-family="Helvetica,sans-Serif" font-size="10.00">stdexcept</text>
</a>
</g>
</g>
<!-- Node25&#45;&gt;Node29 -->
<g id="edge49" class="edge">
<title>Node25&#45;&gt;Node29</title>
<path fill="none" stroke="midnightblue" d="M1128.58,-168.08C1135.21,-160.3 1145,-148.8 1153.04,-139.37"/>
<polygon fill="midnightblue" stroke="midnightblue" points="1155.71,-141.63 1159.53,-131.75 1150.38,-137.09 1155.71,-141.63"/>
</g>
</g>
</svg>
        <g id="navigator" transform="translate(0 0)" fill="#404254">
                <rect fill="#f2f5e9" fill-opacity="0.5" stroke="#606060" stroke-width=".5" x="0" y="0" width="60" height="60"/>
                <use id="zoomplus" xlink:href="#zoomPlus" x="17" y="9" onmousedown="handleZoom(evt,'in')"/>
                <use id="zoomminus" xlink:href="#zoomMin" x="42" y="9" onmousedown="handleZoom(evt,'out')"/>
                <use id="reset" xlink:href="#resetDef" x="30" y="36" onmousedown="handleReset()"/>
                <g id="arrowUp" xlink:href="#dirArrow" transform="translate(30 24)" onmousedown="handlePan(0,-1)">
                  <use xlink:href="#rim" fill="#404040">
                        <set attributeName="fill" to="#808080" begin="arrowUp.mouseover" end="arrowUp.mouseout"/>
                  </use>
                  <path fill="none" stroke="white" stroke-width="1.5" d="M0,-3.0v7 M-2.5,-0.5L0,-3.0L2.5,-0.5"/>
                </g>
                <g id="arrowRight" xlink:href="#dirArrow" transform="rotate(90) translate(36 -43)" onmousedown="handlePan(1,0)">
                  <use xlink:href="#rim" fill="#404040">
                        <set attributeName="fill" to="#808080" begin="arrowRight.mouseover" end="arrowRight.mouseout"/>
                  </use>
                  <path fill="none" stroke="white" stroke-width="1.5" d="M0,-3.0v7 M-2.5,-0.5L0,-3.0L2.5,-0.5"/>
                </g>
                <g id="arrowDown" xlink:href="#dirArrow" transform="rotate(180) translate(-30 -48)" onmousedown="handlePan(0,1)">
                  <use xlink:href="#rim" fill="#404040">
                        <set attributeName="fill" to="#808080" begin="arrowDown.mouseover" end="arrowDown.mouseout"/>
                  </use>
                  <path fill="none" stroke="white" stroke-width="1.5" d="M0,-3.0v7 M-2.5,-0.5L0,-3.0L2.5,-0.5"/>
                </g>
                <g id="arrowLeft" xlink:href="#dirArrow" transform="rotate(270) translate(-36 17)" onmousedown="handlePan(-1,0)">
                  <use xlink:href="#rim" fill="#404040">
                        <set attributeName="fill" to="#808080" begin="arrowLeft.mouseover" end="arrowLeft.mouseout"/>
                  </use>
                  <path fill="none" stroke="white" stroke-width="1.5" d="M0,-3.0v7 M-2.5,-0.5L0,-3.0L2.5,-0.5"/>
                </g>
        </g>
        <svg viewBox="0 0 15 15" width="100%" height="30px" preserveAspectRatio="xMaxYMin meet">
         <g id="arrow_out" transform="scale(0.3 0.3)">
          <a xlink:href="_camera_meta_data_8cpp__incl_org.svg" target="_base">
           <rect id="button" ry="5" rx="5" y="6" x="6" height="38" width="38"
                fill="#f2f5e9" fill-opacity="0.5" stroke="#606060" stroke-width="1.0"/>
           <path id="arrow"
             d="M 11.500037,31.436501 C 11.940474,20.09759 22.043105,11.32322 32.158766,21.979434 L 37.068811,17.246167 C 37.068811,17.246167 37.088388,32 37.088388,32 L 22.160133,31.978069 C 22.160133,31.978069 26.997745,27.140456 26.997745,27.140456 C 18.528582,18.264221 13.291696,25.230495 11.500037,31.436501 z"
             style="fill:#404040;"/>
          </a>
         </g>
        </svg>
</svg>
