<?xml version="1.0" encoding="UTF-8" standalone="no"?>
<!DOCTYPE svg PUBLIC "-//W3C//DTD SVG 1.1//EN"
 "http://www.w3.org/Graphics/SVG/1.1/DTD/svg11.dtd">
<!-- Generated by graphviz version 2.43.0 (0)
 -->
<!-- Title: rawspeed::VC5Decompressor::Wavelet::HighPassBand Pages: 1 -->
<svg width="1264pt" height="208pt"
 viewBox="0.00 0.00 1264.00 208.00" xmlns="http://www.w3.org/2000/svg" xmlns:xlink="http://www.w3.org/1999/xlink">
<g id="graph0" class="graph" transform="scale(1 1) rotate(0) translate(4 204)">
<title>rawspeed::VC5Decompressor::Wavelet::HighPassBand</title>
<!-- Node1 -->
<g id="node1" class="node">
<title>Node1</title>
<g id="a_node1"><a xlink:title=" ">
<polygon fill="#bfbfbf" stroke="black" points="1096,-148 1096,-178 1256,-178 1256,-148 1096,-148"/>
<text text-anchor="start" x="1104" y="-166" font-family="Helvetica,sans-Serif" font-size="10.00">rawspeed::VC5Decompressor</text>
<text text-anchor="middle" x="1176" y="-155" font-family="Helvetica,sans-Serif" font-size="10.00">::Wavelet::HighPassBand</text>
</a>
</g>
</g>
<!-- Node2 -->
<g id="node2" class="node">
<title>Node2</title>
<g id="a_node2"><a xlink:href="../../d4/d7d/structrawspeed_1_1_v_c5_decompressor_1_1_wavelet_1_1_abstract_decodeable_band.html" target="_top" xlink:title=" ">
<polygon fill="none" stroke="black" points="868,-115 868,-145 1059,-145 1059,-115 868,-115"/>
<text text-anchor="start" x="876" y="-133" font-family="Helvetica,sans-Serif" font-size="10.00">rawspeed::VC5Decompressor</text>
<text text-anchor="middle" x="963.5" y="-122" font-family="Helvetica,sans-Serif" font-size="10.00">::Wavelet::AbstractDecodeableBand</text>
</a>
</g>
</g>
<!-- Node2&#45;&gt;Node1 -->
<g id="edge1" class="edge">
<title>Node2&#45;&gt;Node1</title>
<path fill="none" stroke="midnightblue" d="M1069.34,-146.44C1078.26,-147.83 1087.18,-149.23 1095.85,-150.59"/>
<polygon fill="midnightblue" stroke="midnightblue" points="1069.7,-142.95 1059.28,-144.86 1068.62,-149.87 1069.7,-142.95"/>
</g>
<!-- Node3 -->
<g id="node3" class="node">
<title>Node3</title>
<g id="a_node3"><a xlink:href="../../dd/d5b/structrawspeed_1_1_v_c5_decompressor_1_1_wavelet_1_1_abstract_band.html" target="_top" xlink:title=" ">
<polygon fill="none" stroke="black" points="657,-115 657,-145 817,-145 817,-115 657,-115"/>
<text text-anchor="start" x="665" y="-133" font-family="Helvetica,sans-Serif" font-size="10.00">rawspeed::VC5Decompressor</text>
<text text-anchor="middle" x="737" y="-122" font-family="Helvetica,sans-Serif" font-size="10.00">::Wavelet::AbstractBand</text>
</a>
</g>
</g>
<!-- Node3&#45;&gt;Node2 -->
<g id="edge2" class="edge">
<title>Node3&#45;&gt;Node2</title>
<path fill="none" stroke="midnightblue" d="M827.27,-130C840.63,-130 854.44,-130 867.91,-130"/>
<polygon fill="midnightblue" stroke="midnightblue" points="827.15,-126.5 817.15,-130 827.15,-133.5 827.15,-126.5"/>
</g>
<!-- Node4 -->
<g id="node4" class="node">
<title>Node4</title>
<g id="a_node4"><a xlink:title=" ">
<polygon fill="none" stroke="#bfbfbf" points="416,-109.5 416,-150.5 596,-150.5 596,-109.5 416,-109.5"/>
<text text-anchor="start" x="424" y="-138.5" font-family="Helvetica,sans-Serif" font-size="10.00">std::vector&lt; int16</text>
<text text-anchor="start" x="424" y="-127.5" font-family="Helvetica,sans-Serif" font-size="10.00">_t, rawspeed::DefaultInitAllocator</text>
<text text-anchor="middle" x="506" y="-116.5" font-family="Helvetica,sans-Serif" font-size="10.00">Adaptor&lt; int16_t &gt; &gt;</text>
</a>
</g>
</g>
<!-- Node4&#45;&gt;Node3 -->
<g id="edge3" class="edge">
<title>Node4&#45;&gt;Node3</title>
<path fill="none" stroke="#9a32cd" stroke-dasharray="5,2" d="M606.57,-130C623.35,-130 640.57,-130 656.74,-130"/>
<polygon fill="#9a32cd" stroke="#9a32cd" points="606.19,-126.5 596.19,-130 606.19,-133.5 606.19,-126.5"/>
<text text-anchor="middle" x="626.5" y="-133" font-family="Helvetica,sans-Serif" font-size="10.00"> data</text>
</g>
<!-- Node5 -->
<g id="node5" class="node">
<title>Node5</title>
<g id="a_node5"><a xlink:href="../../d2/d54/classint16__t.html" target="_top" xlink:title=" ">
<polygon fill="none" stroke="black" points="165.5,-166.5 165.5,-185.5 215.5,-185.5 215.5,-166.5 165.5,-166.5"/>
<text text-anchor="middle" x="190.5" y="-173.5" font-family="Helvetica,sans-Serif" font-size="10.00">int16_t</text>
</a>
</g>
</g>
<!-- Node5&#45;&gt;Node1 -->
<g id="edge15" class="edge">
<title>Node5&#45;&gt;Node1</title>
<path fill="none" stroke="#9a32cd" stroke-dasharray="5,2" d="M225.9,-178.36C283.58,-182.11 403.46,-189 505,-189 505,-189 505,-189 964.5,-189 1008.14,-189 1056.48,-183.43 1095.82,-177.44"/>
<polygon fill="#9a32cd" stroke="#9a32cd" points="226.08,-174.86 215.88,-177.7 225.62,-181.85 226.08,-174.86"/>
<text text-anchor="middle" x="737" y="-192" font-family="Helvetica,sans-Serif" font-size="10.00"> quant</text>
</g>
<!-- Node5&#45;&gt;Node4 -->
<g id="edge4" class="edge">
<title>Node5&#45;&gt;Node4</title>
<path fill="none" stroke="#9a32cd" stroke-dasharray="5,2" d="M225.71,-169.54C236.07,-167.67 247.49,-165.67 258,-164 310.26,-155.69 368.94,-147.56 415.98,-141.34"/>
<polygon fill="#9a32cd" stroke="#9a32cd" points="224.98,-166.12 215.78,-171.37 226.25,-173 224.98,-166.12"/>
<text text-anchor="middle" x="328" y="-167" font-family="Helvetica,sans-Serif" font-size="10.00"> elements</text>
</g>
<!-- Node6 -->
<g id="node6" class="node">
<title>Node6</title>
<g id="a_node6"><a xlink:title="STL class.">
<polygon fill="none" stroke="#bfbfbf" points="142,-114.5 142,-133.5 239,-133.5 239,-114.5 142,-114.5"/>
<text text-anchor="middle" x="190.5" y="-121.5" font-family="Helvetica,sans-Serif" font-size="10.00">std::vector&lt; T &gt;</text>
</a>
</g>
</g>
<!-- Node6&#45;&gt;Node4 -->
<g id="edge5" class="edge">
<title>Node6&#45;&gt;Node4</title>
<path fill="none" stroke="orange" stroke-dasharray="5,2" d="M234.12,-112.17C242,-110.44 250.21,-108.92 258,-108 319.79,-100.67 336.1,-101.7 398,-108 403.85,-108.6 409.85,-109.37 415.88,-110.27"/>
<polygon fill="orange" stroke="orange" points="233.3,-108.77 224.37,-114.47 234.91,-115.59 233.3,-108.77"/>
<text text-anchor="start" x="258" y="-133" font-family="Helvetica,sans-Serif" font-size="10.00"> &lt; int16_t, rawspeed</text>
<text text-anchor="start" x="258" y="-122" font-family="Helvetica,sans-Serif" font-size="10.00">::DefaultInitAllocatorAdaptor</text>
<text text-anchor="middle" x="328" y="-111" font-family="Helvetica,sans-Serif" font-size="10.00">&lt; int16_t &gt; &gt;</text>
</g>
<!-- Node7 -->
<g id="node7" class="node">
<title>Node7</title>
<g id="a_node7"><a xlink:title=" ">
<polygon fill="none" stroke="#bfbfbf" points="13.5,-114.5 13.5,-133.5 42.5,-133.5 42.5,-114.5 13.5,-114.5"/>
<text text-anchor="middle" x="28" y="-121.5" font-family="Helvetica,sans-Serif" font-size="10.00">T</text>
</a>
</g>
</g>
<!-- Node7&#45;&gt;Node6 -->
<g id="edge6" class="edge">
<title>Node7&#45;&gt;Node6</title>
<path fill="none" stroke="#9a32cd" stroke-dasharray="5,2" d="M52.75,-124C76.16,-124 112.59,-124 141.97,-124"/>
<polygon fill="#9a32cd" stroke="#9a32cd" points="52.68,-120.5 42.68,-124 52.68,-127.5 52.68,-120.5"/>
<text text-anchor="middle" x="98.5" y="-127" font-family="Helvetica,sans-Serif" font-size="10.00"> elements</text>
</g>
<!-- Node8 -->
<g id="node8" class="node">
<title>Node8</title>
<g id="a_node8"><a xlink:href="../../dd/da0/classrawspeed_1_1_byte_stream.html" target="_top" xlink:title=" ">
<polygon fill="none" stroke="black" points="673,-62.5 673,-81.5 801,-81.5 801,-62.5 673,-62.5"/>
<text text-anchor="middle" x="737" y="-69.5" font-family="Helvetica,sans-Serif" font-size="10.00">rawspeed::ByteStream</text>
</a>
</g>
</g>
<!-- Node8&#45;&gt;Node2 -->
<g id="edge7" class="edge">
<title>Node8&#45;&gt;Node2</title>
<path fill="none" stroke="#9a32cd" stroke-dasharray="5,2" d="M784.96,-84.13C819.67,-93.1 867.15,-105.37 904.27,-114.96"/>
<polygon fill="#9a32cd" stroke="#9a32cd" points="785.63,-80.69 775.07,-81.58 783.88,-87.47 785.63,-80.69"/>
<text text-anchor="middle" x="842.5" y="-102" font-family="Helvetica,sans-Serif" font-size="10.00"> bs</text>
</g>
<!-- Node9 -->
<g id="node9" class="node">
<title>Node9</title>
<g id="a_node9"><a xlink:href="../../d1/dd4/classrawspeed_1_1_data_buffer.html" target="_top" xlink:title=" ">
<polygon fill="none" stroke="black" points="445,-62.5 445,-81.5 567,-81.5 567,-62.5 445,-62.5"/>
<text text-anchor="middle" x="506" y="-69.5" font-family="Helvetica,sans-Serif" font-size="10.00">rawspeed::DataBuffer</text>
</a>
</g>
</g>
<!-- Node9&#45;&gt;Node8 -->
<g id="edge8" class="edge">
<title>Node9&#45;&gt;Node8</title>
<path fill="none" stroke="midnightblue" d="M577.28,-72C607.7,-72 643.03,-72 672.63,-72"/>
<polygon fill="midnightblue" stroke="midnightblue" points="577.17,-68.5 567.17,-72 577.17,-75.5 577.17,-68.5"/>
</g>
<!-- Node10 -->
<g id="node10" class="node">
<title>Node10</title>
<g id="a_node10"><a xlink:href="../../d3/dca/classrawspeed_1_1_buffer.html" target="_top" xlink:title=" ">
<polygon fill="none" stroke="black" points="141,-62.5 141,-81.5 240,-81.5 240,-62.5 141,-62.5"/>
<text text-anchor="middle" x="190.5" y="-69.5" font-family="Helvetica,sans-Serif" font-size="10.00">rawspeed::Buffer</text>
</a>
</g>
</g>
<!-- Node10&#45;&gt;Node9 -->
<g id="edge9" class="edge">
<title>Node10&#45;&gt;Node9</title>
<path fill="none" stroke="midnightblue" d="M250.19,-72C305.8,-72 388.93,-72 444.97,-72"/>
<polygon fill="midnightblue" stroke="midnightblue" points="250.14,-68.5 240.14,-72 250.14,-75.5 250.14,-68.5"/>
</g>
<!-- Node11 -->
<g id="node11" class="node">
<title>Node11</title>
<g id="a_node11"><a xlink:href="../../d3/d87/classuint32__t.html" target="_top" xlink:title=" ">
<polygon fill="none" stroke="black" points="0,-76.5 0,-95.5 56,-95.5 56,-76.5 0,-76.5"/>
<text text-anchor="middle" x="28" y="-83.5" font-family="Helvetica,sans-Serif" font-size="10.00">uint32_t</text>
</a>
</g>
</g>
<!-- Node11&#45;&gt;Node10 -->
<g id="edge10" class="edge">
<title>Node11&#45;&gt;Node10</title>
<path fill="none" stroke="#9a32cd" stroke-dasharray="5,2" d="M66.24,-82.75C88.39,-80.82 116.75,-78.35 140.68,-76.26"/>
<polygon fill="#9a32cd" stroke="#9a32cd" points="65.88,-79.27 56.23,-83.63 66.49,-86.24 65.88,-79.27"/>
<text text-anchor="middle" x="98.5" y="-84" font-family="Helvetica,sans-Serif" font-size="10.00"> size</text>
</g>
<!-- Node12 -->
<g id="node12" class="node">
<title>Node12</title>
<g id="a_node12"><a xlink:title=" ">
<polygon fill="none" stroke="#bfbfbf" points="9,-38.5 9,-57.5 47,-57.5 47,-38.5 9,-38.5"/>
<text text-anchor="middle" x="28" y="-45.5" font-family="Helvetica,sans-Serif" font-size="10.00">bool</text>
</a>
</g>
</g>
<!-- Node12&#45;&gt;Node10 -->
<g id="edge11" class="edge">
<title>Node12&#45;&gt;Node10</title>
<path fill="none" stroke="#9a32cd" stroke-dasharray="5,2" d="M57.23,-52.22C80.27,-55.67 113.38,-60.62 140.7,-64.7"/>
<polygon fill="#9a32cd" stroke="#9a32cd" points="57.51,-48.72 47.1,-50.71 56.47,-55.65 57.51,-48.72"/>
<text text-anchor="middle" x="98.5" y="-64" font-family="Helvetica,sans-Serif" font-size="10.00"> isOwner</text>
</g>
<!-- Node13 -->
<g id="node13" class="node">
<title>Node13</title>
<g id="a_node13"><a xlink:title=" ">
<polygon fill="none" stroke="#bfbfbf" points="3,-0.5 3,-19.5 53,-19.5 53,-0.5 3,-0.5"/>
<text text-anchor="middle" x="28" y="-7.5" font-family="Helvetica,sans-Serif" font-size="10.00">uint8_t</text>
</a>
</g>
</g>
<!-- Node13&#45;&gt;Node10 -->
<g id="edge12" class="edge">
<title>Node13&#45;&gt;Node10</title>
<path fill="none" stroke="#9a32cd" stroke-dasharray="5,2" d="M63.06,-18.07C81.38,-23.09 104.03,-30.43 123,-40 131.81,-44.44 132.34,-48.27 141,-53 147.43,-56.51 154.65,-59.7 161.51,-62.42"/>
<polygon fill="#9a32cd" stroke="#9a32cd" points="63.95,-14.68 53.38,-15.52 62.16,-21.45 63.95,-14.68"/>
<text text-anchor="middle" x="98.5" y="-43" font-family="Helvetica,sans-Serif" font-size="10.00"> data</text>
</g>
<!-- Node14 -->
<g id="node14" class="node">
<title>Node14</title>
<g id="a_node14"><a xlink:title=" ">
<polygon fill="none" stroke="#bfbfbf" points="154.5,-24.5 154.5,-43.5 226.5,-43.5 226.5,-24.5 154.5,-24.5"/>
<text text-anchor="middle" x="190.5" y="-31.5" font-family="Helvetica,sans-Serif" font-size="10.00">Endianness</text>
</a>
</g>
</g>
<!-- Node14&#45;&gt;Node9 -->
<g id="edge13" class="edge">
<title>Node14&#45;&gt;Node9</title>
<path fill="none" stroke="#9a32cd" stroke-dasharray="5,2" d="M236.76,-38.67C278.63,-43.07 342.57,-50.03 398,-57 413.17,-58.91 429.52,-61.12 444.77,-63.25"/>
<polygon fill="#9a32cd" stroke="#9a32cd" points="236.92,-35.17 226.61,-37.6 236.19,-42.13 236.92,-35.17"/>
<text text-anchor="middle" x="328" y="-60" font-family="Helvetica,sans-Serif" font-size="10.00"> endianness</text>
</g>
<!-- Node15 -->
<g id="node15" class="node">
<title>Node15</title>
<g id="a_node15"><a xlink:title=" ">
<polygon fill="none" stroke="#bfbfbf" points="474.5,-24.5 474.5,-43.5 537.5,-43.5 537.5,-24.5 474.5,-24.5"/>
<text text-anchor="middle" x="506" y="-31.5" font-family="Helvetica,sans-Serif" font-size="10.00">size_type</text>
</a>
</g>
</g>
<!-- Node15&#45;&gt;Node8 -->
<g id="edge14" class="edge">
<title>Node15&#45;&gt;Node8</title>
<path fill="none" stroke="#9a32cd" stroke-dasharray="5,2" d="M548.11,-40.82C584.43,-46.85 637.78,-55.7 678.36,-62.43"/>
<polygon fill="#9a32cd" stroke="#9a32cd" points="548.32,-37.31 537.88,-39.12 547.18,-44.21 548.32,-37.31"/>
<text text-anchor="middle" x="626.5" y="-58" font-family="Helvetica,sans-Serif" font-size="10.00"> pos</text>
</g>
</g>
</svg>
