<?xml version="1.0" encoding="UTF-8" standalone="no"?>
<!DOCTYPE svg PUBLIC "-//W3C//DTD SVG 1.1//EN"
 "http://www.w3.org/Graphics/SVG/1.1/DTD/svg11.dtd">
<!-- Generated by graphviz version 2.43.0 (0)
 -->
<!-- Title: librawspeed/decompressors/HuffmanTableTree.h Pages: 1 -->
<svg width="338pt" height="117pt"
 viewBox="0.00 0.00 338.00 117.00" xmlns="http://www.w3.org/2000/svg" xmlns:xlink="http://www.w3.org/1999/xlink">
<g id="graph0" class="graph" transform="scale(1 1) rotate(0) translate(4 113)">
<title>librawspeed/decompressors/HuffmanTableTree.h</title>
<!-- Node1 -->
<g id="node1" class="node">
<title>Node1</title>
<g id="a_node1"><a xlink:title=" ">
<polygon fill="#bfbfbf" stroke="black" points="88.5,-78.5 88.5,-108.5 241.5,-108.5 241.5,-78.5 88.5,-78.5"/>
<text text-anchor="start" x="96.5" y="-96.5" font-family="Helvetica,sans-Serif" font-size="10.00">librawspeed/decompressors</text>
<text text-anchor="middle" x="165" y="-85.5" font-family="Helvetica,sans-Serif" font-size="10.00">/HuffmanTableTree.h</text>
</a>
</g>
</g>
<!-- Node2 -->
<g id="node2" class="node">
<title>Node2</title>
<g id="a_node2"><a xlink:href="../../d7/d34/_dual_8cpp.html" target="_top" xlink:title=" ">
<polygon fill="none" stroke="black" points="0,-0.5 0,-41.5 156,-41.5 156,-0.5 0,-0.5"/>
<text text-anchor="start" x="8" y="-29.5" font-family="Helvetica,sans-Serif" font-size="10.00">/build/rawspeed/fuzz</text>
<text text-anchor="start" x="8" y="-18.5" font-family="Helvetica,sans-Serif" font-size="10.00">/librawspeed/decompressors</text>
<text text-anchor="middle" x="78" y="-7.5" font-family="Helvetica,sans-Serif" font-size="10.00">/HuffmanTable/Dual.cpp</text>
</a>
</g>
</g>
<!-- Node1&#45;&gt;Node2 -->
<g id="edge1" class="edge">
<title>Node1&#45;&gt;Node2</title>
<path fill="none" stroke="midnightblue" d="M139.62,-71.93C127.81,-62.36 113.83,-51.03 102.17,-41.59"/>
<polygon fill="midnightblue" stroke="midnightblue" points="137.42,-74.66 147.39,-78.23 141.83,-69.22 137.42,-74.66"/>
</g>
<!-- Node3 -->
<g id="node3" class="node">
<title>Node3</title>
<g id="a_node3"><a xlink:href="../../d0/d53/_solo_8cpp.html" target="_top" xlink:title=" ">
<polygon fill="none" stroke="black" points="174,-0.5 174,-41.5 330,-41.5 330,-0.5 174,-0.5"/>
<text text-anchor="start" x="182" y="-29.5" font-family="Helvetica,sans-Serif" font-size="10.00">/build/rawspeed/fuzz</text>
<text text-anchor="start" x="182" y="-18.5" font-family="Helvetica,sans-Serif" font-size="10.00">/librawspeed/decompressors</text>
<text text-anchor="middle" x="252" y="-7.5" font-family="Helvetica,sans-Serif" font-size="10.00">/HuffmanTable/Solo.cpp</text>
</a>
</g>
</g>
<!-- Node1&#45;&gt;Node3 -->
<g id="edge2" class="edge">
<title>Node1&#45;&gt;Node3</title>
<path fill="none" stroke="midnightblue" d="M190.38,-71.93C202.19,-62.36 216.17,-51.03 227.83,-41.59"/>
<polygon fill="midnightblue" stroke="midnightblue" points="188.17,-69.22 182.61,-78.23 192.58,-74.66 188.17,-69.22"/>
</g>
</g>
</svg>
