<?xml version="1.0" encoding="UTF-8" standalone="no"?>
<!DOCTYPE svg PUBLIC "-//W3C//DTD SVG 1.1//EN"
 "http://www.w3.org/Graphics/SVG/1.1/DTD/svg11.dtd">
<!-- Generated by graphviz version 2.43.0 (0)
 -->
<!-- Title: LLVMFuzzerTestOneInput Pages: 1 -->
<svg width="859pt" height="568pt"
 viewBox="0.00 0.00 859.00 568.00" xmlns="http://www.w3.org/2000/svg" xmlns:xlink="http://www.w3.org/1999/xlink">
<g id="graph0" class="graph" transform="scale(1 1) rotate(0) translate(4 564)">
<title>LLVMFuzzerTestOneInput</title>
<!-- Node1 -->
<g id="node1" class="node">
<title>Node1</title>
<g id="a_node1"><a xlink:title=" ">
<polygon fill="#bfbfbf" stroke="black" points="0,-301 0,-320 136,-320 136,-301 0,-301"/>
<text text-anchor="middle" x="68" y="-308" font-family="Helvetica,sans-Serif" font-size="10.00">LLVMFuzzerTestOneInput</text>
</a>
</g>
</g>
<!-- Node2 -->
<g id="node2" class="node">
<title>Node2</title>
<g id="a_node2"><a xlink:href="../../dd/da0/classrawspeed_1_1_byte_stream.html#a804858089e7e6c442815d46128cca1ed" target="_top" xlink:title=" ">
<polygon fill="none" stroke="black" points="723,-507.5 723,-537.5 851,-537.5 851,-507.5 723,-507.5"/>
<text text-anchor="start" x="731" y="-525.5" font-family="Helvetica,sans-Serif" font-size="10.00">rawspeed::ByteStream</text>
<text text-anchor="middle" x="787" y="-514.5" font-family="Helvetica,sans-Serif" font-size="10.00">::ByteStream</text>
</a>
</g>
</g>
<!-- Node1&#45;&gt;Node2 -->
<g id="edge1" class="edge">
<title>Node1&#45;&gt;Node2</title>
<path fill="none" stroke="midnightblue" d="M71.57,-320.41C79.97,-350.58 109.77,-441.63 172,-479.5 194.76,-493.35 554.91,-511.73 712.79,-519.16"/>
<polygon fill="midnightblue" stroke="midnightblue" points="712.74,-522.67 722.89,-519.64 713.07,-515.67 712.74,-522.67"/>
</g>
<!-- Node3 -->
<g id="node3" class="node">
<title>Node3</title>
<g id="a_node3"><a xlink:href="../../dc/d44/classrawspeed_1_1_raw_image_data.html#a9c4e731cd919ff9b06fe440284b2e8c8" target="_top" xlink:title=" ">
<polygon fill="none" stroke="black" points="184.5,-439.5 184.5,-469.5 329.5,-469.5 329.5,-439.5 184.5,-439.5"/>
<text text-anchor="start" x="192.5" y="-457.5" font-family="Helvetica,sans-Serif" font-size="10.00">rawspeed::RawImageData</text>
<text text-anchor="middle" x="257" y="-446.5" font-family="Helvetica,sans-Serif" font-size="10.00">::checkMemIsInitialized</text>
</a>
</g>
</g>
<!-- Node1&#45;&gt;Node3 -->
<g id="edge2" class="edge">
<title>Node1&#45;&gt;Node3</title>
<path fill="none" stroke="midnightblue" d="M74.58,-320.27C88.17,-343.16 125.31,-400.58 172,-430.5 174.6,-432.16 177.31,-433.72 180.11,-435.16"/>
<polygon fill="midnightblue" stroke="midnightblue" points="178.74,-438.39 189.28,-439.43 181.69,-432.04 178.74,-438.39"/>
</g>
<!-- Node4 -->
<g id="node4" class="node">
<title>Node4</title>
<g id="a_node4"><a xlink:href="../../dc/d44/classrawspeed_1_1_raw_image_data.html#af7cbbd3ab6bb415e7e1b1f58a285084f" target="_top" xlink:title=" ">
<polygon fill="none" stroke="black" points="184.5,-390.5 184.5,-420.5 329.5,-420.5 329.5,-390.5 184.5,-390.5"/>
<text text-anchor="start" x="192.5" y="-408.5" font-family="Helvetica,sans-Serif" font-size="10.00">rawspeed::RawImageData</text>
<text text-anchor="middle" x="257" y="-397.5" font-family="Helvetica,sans-Serif" font-size="10.00">::createData</text>
</a>
</g>
</g>
<!-- Node1&#45;&gt;Node4 -->
<g id="edge3" class="edge">
<title>Node1&#45;&gt;Node4</title>
<path fill="none" stroke="midnightblue" d="M87.96,-320.13C118.13,-335.46 177.69,-365.72 217.18,-385.78"/>
<polygon fill="midnightblue" stroke="midnightblue" points="215.77,-388.99 226.27,-390.4 218.94,-382.75 215.77,-388.99"/>
</g>
<!-- Node7 -->
<g id="node7" class="node">
<title>Node7</title>
<g id="a_node7"><a xlink:href="../../d9/d5a/fuzz_2librawspeed_2fuzz_2_common_8cpp.html#a9b5193764409a69db1176954187dad97" target="_top" xlink:title=" ">
<polygon fill="none" stroke="black" points="206.5,-277 206.5,-296 307.5,-296 307.5,-277 206.5,-277"/>
<text text-anchor="middle" x="257" y="-284" font-family="Helvetica,sans-Serif" font-size="10.00">CreateRawImage</text>
</a>
</g>
</g>
<!-- Node1&#45;&gt;Node7 -->
<g id="edge6" class="edge">
<title>Node1&#45;&gt;Node7</title>
<path fill="none" stroke="midnightblue" d="M136.25,-301.87C155.86,-299.35 177.16,-296.62 196.27,-294.17"/>
<polygon fill="midnightblue" stroke="midnightblue" points="196.87,-297.62 206.35,-292.87 195.98,-290.67 196.87,-297.62"/>
</g>
<!-- Node10 -->
<g id="node10" class="node">
<title>Node10</title>
<g id="a_node10"><a xlink:href="../../dd/da0/classrawspeed_1_1_byte_stream.html#ac598b7b6f0f8fd5476adb7c1363b1518" target="_top" xlink:title=" ">
<polygon fill="none" stroke="black" points="386.5,-343.5 386.5,-373.5 514.5,-373.5 514.5,-343.5 386.5,-343.5"/>
<text text-anchor="start" x="394.5" y="-361.5" font-family="Helvetica,sans-Serif" font-size="10.00">rawspeed::ByteStream</text>
<text text-anchor="middle" x="450.5" y="-350.5" font-family="Helvetica,sans-Serif" font-size="10.00">::getU32</text>
</a>
</g>
</g>
<!-- Node1&#45;&gt;Node10 -->
<g id="edge20" class="edge">
<title>Node1&#45;&gt;Node10</title>
<path fill="none" stroke="midnightblue" d="M136.15,-318.97C203.56,-327.47 307.1,-340.54 376.51,-349.29"/>
<polygon fill="midnightblue" stroke="midnightblue" points="376.14,-352.77 386.5,-350.55 377.01,-345.83 376.14,-352.77"/>
</g>
<!-- Node12 -->
<g id="node12" class="node">
<title>Node12</title>
<g id="a_node12"><a xlink:href="../../dd/d12/classrawspeed_1_1_raw_image.html#a2907002b5c707eca6939061f8b0d5e5d" target="_top" xlink:title=" ">
<polygon fill="none" stroke="black" points="389.5,-147.5 389.5,-177.5 511.5,-177.5 511.5,-147.5 389.5,-147.5"/>
<text text-anchor="start" x="397.5" y="-165.5" font-family="Helvetica,sans-Serif" font-size="10.00">rawspeed::RawImage</text>
<text text-anchor="middle" x="450.5" y="-154.5" font-family="Helvetica,sans-Serif" font-size="10.00">::operator&#45;&gt;</text>
</a>
</g>
</g>
<!-- Node1&#45;&gt;Node12 -->
<g id="edge27" class="edge">
<title>Node1&#45;&gt;Node12</title>
<path fill="none" stroke="midnightblue" d="M90.51,-300.95C111.21,-291.89 143.49,-278.13 172,-267.5 246.54,-239.71 270.48,-246.32 342,-211.5 359.29,-203.08 360.79,-196.07 378,-187.5 382.33,-185.34 386.9,-183.29 391.54,-181.35"/>
<polygon fill="midnightblue" stroke="midnightblue" points="393.12,-184.49 401.12,-177.55 390.54,-177.98 393.12,-184.49"/>
</g>
<!-- Node14 -->
<g id="node14" class="node">
<title>Node14</title>
<g id="a_node14"><a xlink:href="../../d3/dfe/classrawspeed_1_1_kodak_decompressor.html#aa16b028d6f0f3dce51a999f8f9695f0a" target="_top" xlink:title=" ">
<polygon fill="none" stroke="black" points="172,-52.5 172,-82.5 342,-82.5 342,-52.5 172,-52.5"/>
<text text-anchor="start" x="180" y="-70.5" font-family="Helvetica,sans-Serif" font-size="10.00">rawspeed::KodakDecompressor</text>
<text text-anchor="middle" x="257" y="-59.5" font-family="Helvetica,sans-Serif" font-size="10.00">::decompress</text>
</a>
</g>
</g>
<!-- Node1&#45;&gt;Node14 -->
<g id="edge13" class="edge">
<title>Node1&#45;&gt;Node14</title>
<path fill="none" stroke="midnightblue" d="M70.64,-300.98C76.99,-267.16 103.08,-151.66 172,-92.5 173.97,-90.81 176.05,-89.23 178.22,-87.76"/>
<polygon fill="midnightblue" stroke="midnightblue" points="180.13,-90.7 186.96,-82.6 176.57,-84.67 180.13,-90.7"/>
</g>
<!-- Node15 -->
<g id="node15" class="node">
<title>Node15</title>
<g id="a_node15"><a xlink:href="../../dd/da0/classrawspeed_1_1_byte_stream.html#ab4972769baa5c0ed59ec0608ed2b307d" target="_top" xlink:title=" ">
<polygon fill="none" stroke="black" points="193,-171.5 193,-201.5 321,-201.5 321,-171.5 193,-171.5"/>
<text text-anchor="start" x="201" y="-189.5" font-family="Helvetica,sans-Serif" font-size="10.00">rawspeed::ByteStream</text>
<text text-anchor="middle" x="257" y="-178.5" font-family="Helvetica,sans-Serif" font-size="10.00">::getRemainSize</text>
</a>
</g>
</g>
<!-- Node1&#45;&gt;Node15 -->
<g id="edge14" class="edge">
<title>Node1&#45;&gt;Node15</title>
<path fill="none" stroke="midnightblue" d="M79.56,-300.85C97.62,-284.65 135.97,-251.49 172,-228.5 184.84,-220.3 199.5,-212.5 212.94,-205.88"/>
<polygon fill="midnightblue" stroke="midnightblue" points="214.52,-209.01 222.01,-201.51 211.48,-202.7 214.52,-209.01"/>
</g>
<!-- Node17 -->
<g id="node17" class="node">
<title>Node17</title>
<g id="a_node17"><a xlink:href="../../dd/da0/classrawspeed_1_1_byte_stream.html#a7a5f5eaad404d367efb8a64fa82d20ae" target="_top" xlink:title=" ">
<polygon fill="none" stroke="black" points="193,-529.5 193,-559.5 321,-559.5 321,-529.5 193,-529.5"/>
<text text-anchor="start" x="201" y="-547.5" font-family="Helvetica,sans-Serif" font-size="10.00">rawspeed::ByteStream</text>
<text text-anchor="middle" x="257" y="-536.5" font-family="Helvetica,sans-Serif" font-size="10.00">::getStream</text>
</a>
</g>
</g>
<!-- Node1&#45;&gt;Node17 -->
<g id="edge16" class="edge">
<title>Node1&#45;&gt;Node17</title>
<path fill="none" stroke="midnightblue" d="M71.16,-320.18C78.87,-352.53 108.05,-458.05 172,-514.5 176.46,-518.44 181.48,-521.87 186.78,-524.86"/>
<polygon fill="midnightblue" stroke="midnightblue" points="185.43,-528.1 195.93,-529.48 188.58,-521.85 185.43,-528.1"/>
</g>
<!-- Node20 -->
<g id="node20" class="node">
<title>Node20</title>
<g id="a_node20"><a xlink:href="../../d3/dfe/classrawspeed_1_1_kodak_decompressor.html#af4fb7c8286921882ccc2ef96b328fcdf" target="_top" xlink:title=" ">
<polygon fill="none" stroke="black" points="172,-101.5 172,-131.5 342,-131.5 342,-101.5 172,-101.5"/>
<text text-anchor="start" x="180" y="-119.5" font-family="Helvetica,sans-Serif" font-size="10.00">rawspeed::KodakDecompressor</text>
<text text-anchor="middle" x="257" y="-108.5" font-family="Helvetica,sans-Serif" font-size="10.00">::KodakDecompressor</text>
</a>
</g>
</g>
<!-- Node1&#45;&gt;Node20 -->
<g id="edge21" class="edge">
<title>Node1&#45;&gt;Node20</title>
<path fill="none" stroke="midnightblue" d="M73.76,-300.7C86.57,-275.17 124.03,-205.6 172,-162.5 183.46,-152.21 197.62,-143.34 211.03,-136.22"/>
<polygon fill="midnightblue" stroke="midnightblue" points="212.83,-139.23 220.15,-131.57 209.65,-132.99 212.83,-139.23"/>
</g>
<!-- Node5 -->
<g id="node5" class="node">
<title>Node5</title>
<g id="a_node5"><a xlink:href="../../dc/d44/classrawspeed_1_1_raw_image_data.html#a724d8812aca44f04e6aeb965daeab36d" target="_top" xlink:title=" ">
<polygon fill="none" stroke="black" points="378,-441.5 378,-471.5 523,-471.5 523,-441.5 378,-441.5"/>
<text text-anchor="start" x="386" y="-459.5" font-family="Helvetica,sans-Serif" font-size="10.00">rawspeed::RawImageData</text>
<text text-anchor="middle" x="450.5" y="-448.5" font-family="Helvetica,sans-Serif" font-size="10.00">::getData</text>
</a>
</g>
</g>
<!-- Node4&#45;&gt;Node5 -->
<g id="edge4" class="edge">
<title>Node4&#45;&gt;Node5</title>
<path fill="none" stroke="midnightblue" d="M314.42,-420.53C336.04,-426.28 360.91,-432.91 383.36,-438.89"/>
<polygon fill="midnightblue" stroke="midnightblue" points="382.59,-442.3 393.15,-441.49 384.39,-435.54 382.59,-442.3"/>
</g>
<!-- Node6 -->
<g id="node6" class="node">
<title>Node6</title>
<g id="a_node6"><a xlink:href="../../dc/d44/classrawspeed_1_1_raw_image_data.html#a383099b27aea42a05858e18b6cf69c96" target="_top" xlink:title=" ">
<polygon fill="none" stroke="black" points="378,-392.5 378,-422.5 523,-422.5 523,-392.5 378,-392.5"/>
<text text-anchor="start" x="386" y="-410.5" font-family="Helvetica,sans-Serif" font-size="10.00">rawspeed::RawImageData</text>
<text text-anchor="middle" x="450.5" y="-399.5" font-family="Helvetica,sans-Serif" font-size="10.00">::poisonPadding</text>
</a>
</g>
</g>
<!-- Node4&#45;&gt;Node6 -->
<g id="edge5" class="edge">
<title>Node4&#45;&gt;Node6</title>
<path fill="none" stroke="midnightblue" d="M329.58,-406.25C341.99,-406.38 354.97,-406.51 367.63,-406.64"/>
<polygon fill="midnightblue" stroke="midnightblue" points="367.65,-410.15 377.69,-406.75 367.73,-403.15 367.65,-410.15"/>
</g>
<!-- Node8 -->
<g id="node8" class="node">
<title>Node8</title>
<g id="a_node8"><a xlink:href="../../dd/d12/classrawspeed_1_1_raw_image.html#a4a7b73d675f5ac9c8730a9b7f60c3d82" target="_top" xlink:title=" ">
<polygon fill="none" stroke="black" points="389.5,-294.5 389.5,-324.5 511.5,-324.5 511.5,-294.5 389.5,-294.5"/>
<text text-anchor="start" x="397.5" y="-312.5" font-family="Helvetica,sans-Serif" font-size="10.00">rawspeed::RawImage</text>
<text text-anchor="middle" x="450.5" y="-301.5" font-family="Helvetica,sans-Serif" font-size="10.00">::create</text>
</a>
</g>
</g>
<!-- Node7&#45;&gt;Node8 -->
<g id="edge7" class="edge">
<title>Node7&#45;&gt;Node8</title>
<path fill="none" stroke="midnightblue" d="M307.81,-292.48C329.63,-295.1 355.62,-298.22 379.35,-301.07"/>
<polygon fill="midnightblue" stroke="midnightblue" points="379.01,-304.56 389.36,-302.28 379.85,-297.61 379.01,-304.56"/>
</g>
<!-- Node7&#45;&gt;Node10 -->
<g id="edge9" class="edge">
<title>Node7&#45;&gt;Node10</title>
<path fill="none" stroke="midnightblue" d="M280.86,-296.09C304.89,-306.07 343.88,-321.96 378,-334.5 383.07,-336.36 388.36,-338.25 393.67,-340.1"/>
<polygon fill="midnightblue" stroke="midnightblue" points="392.62,-343.44 403.21,-343.39 394.9,-336.82 392.62,-343.44"/>
</g>
<!-- Node11 -->
<g id="node11" class="node">
<title>Node11</title>
<g id="a_node11"><a xlink:href="../../d8/d75/classrawspeed_1_1i_point2_d.html#ab980cc8ab2f3502a5a2c230530ba2a64" target="_top" xlink:title=" ">
<polygon fill="none" stroke="black" points="395,-245.5 395,-275.5 506,-275.5 506,-245.5 395,-245.5"/>
<text text-anchor="start" x="403" y="-263.5" font-family="Helvetica,sans-Serif" font-size="10.00">rawspeed::iPoint2D</text>
<text text-anchor="middle" x="450.5" y="-252.5" font-family="Helvetica,sans-Serif" font-size="10.00">::iPoint2D</text>
</a>
</g>
</g>
<!-- Node7&#45;&gt;Node11 -->
<g id="edge10" class="edge">
<title>Node7&#45;&gt;Node11</title>
<path fill="none" stroke="midnightblue" d="M307.81,-279.74C331.29,-276.55 359.59,-272.71 384.71,-269.3"/>
<polygon fill="midnightblue" stroke="midnightblue" points="385.45,-272.73 394.89,-267.92 384.51,-265.79 385.45,-272.73"/>
</g>
<!-- Node7&#45;&gt;Node12 -->
<g id="edge11" class="edge">
<title>Node7&#45;&gt;Node12</title>
<path fill="none" stroke="midnightblue" d="M304.02,-276.86C317.39,-272.36 331.26,-265.86 342,-256.5 368.09,-233.78 351.84,-210.13 378,-187.5 379.96,-185.81 382.04,-184.23 384.21,-182.75"/>
<polygon fill="midnightblue" stroke="midnightblue" points="386.15,-185.67 392.97,-177.56 382.58,-179.64 386.15,-185.67"/>
</g>
<!-- Node13 -->
<g id="node13" class="node">
<title>Node13</title>
<g id="a_node13"><a xlink:href="../../dc/d44/classrawspeed_1_1_raw_image_data.html#a180f90ba4cf9e6e6ff1c307f6106f4ed" target="_top" xlink:title=" ">
<polygon fill="none" stroke="black" points="378,-196.5 378,-226.5 523,-226.5 523,-196.5 378,-196.5"/>
<text text-anchor="start" x="386" y="-214.5" font-family="Helvetica,sans-Serif" font-size="10.00">rawspeed::RawImageData</text>
<text text-anchor="middle" x="450.5" y="-203.5" font-family="Helvetica,sans-Serif" font-size="10.00">::setCpp</text>
</a>
</g>
</g>
<!-- Node7&#45;&gt;Node13 -->
<g id="edge12" class="edge">
<title>Node7&#45;&gt;Node13</title>
<path fill="none" stroke="midnightblue" d="M288.41,-276.98C304.58,-271.59 324.65,-264.35 342,-256.5 358.67,-248.95 361.3,-243.99 378,-236.5 382.95,-234.28 388.16,-232.13 393.42,-230.07"/>
<polygon fill="midnightblue" stroke="midnightblue" points="394.77,-233.31 402.89,-226.5 392.3,-226.76 394.77,-233.31"/>
</g>
<!-- Node9 -->
<g id="node9" class="node">
<title>Node9</title>
<g id="a_node9"><a xlink:href="../../de/dc3/namespacerawspeed.html#a8a98a18f46994d6cae15ce24462fb7d4" target="_top" xlink:title=" ">
<polygon fill="none" stroke="black" points="567,-300 567,-319 679,-319 679,-300 567,-300"/>
<text text-anchor="middle" x="623" y="-307" font-family="Helvetica,sans-Serif" font-size="10.00">rawspeed::writeLog</text>
</a>
</g>
</g>
<!-- Node8&#45;&gt;Node9 -->
<g id="edge8" class="edge">
<title>Node8&#45;&gt;Node9</title>
<path fill="none" stroke="midnightblue" d="M511.61,-309.5C526.26,-309.5 541.99,-309.5 556.86,-309.5"/>
<polygon fill="midnightblue" stroke="midnightblue" points="556.99,-313 566.99,-309.5 556.99,-306 556.99,-313"/>
</g>
<!-- Node16 -->
<g id="node16" class="node">
<title>Node16</title>
<g id="a_node16"><a xlink:href="../../dd/da0/classrawspeed_1_1_byte_stream.html#a33bbb3baf3bb9730f9da8765175ec4ce" target="_top" xlink:title=" ">
<polygon fill="none" stroke="black" points="386.5,-98.5 386.5,-128.5 514.5,-128.5 514.5,-98.5 386.5,-98.5"/>
<text text-anchor="start" x="394.5" y="-116.5" font-family="Helvetica,sans-Serif" font-size="10.00">rawspeed::ByteStream</text>
<text text-anchor="middle" x="450.5" y="-105.5" font-family="Helvetica,sans-Serif" font-size="10.00">::check</text>
</a>
</g>
</g>
<!-- Node15&#45;&gt;Node16 -->
<g id="edge15" class="edge">
<title>Node15&#45;&gt;Node16</title>
<path fill="none" stroke="midnightblue" d="M311.08,-171.37C321.49,-167.87 332.21,-163.87 342,-159.5 358.92,-151.95 361.18,-146.26 378,-138.5 382.73,-136.32 387.71,-134.21 392.74,-132.21"/>
<polygon fill="midnightblue" stroke="midnightblue" points="394.36,-135.34 402.45,-128.5 391.86,-128.8 394.36,-135.34"/>
</g>
<!-- Node18 -->
<g id="node18" class="node">
<title>Node18</title>
<g id="a_node18"><a xlink:href="../../dd/da0/classrawspeed_1_1_byte_stream.html#a81cc27671b93889f9c8adb62ece8340e" target="_top" xlink:title=" ">
<polygon fill="none" stroke="black" points="386.5,-529.5 386.5,-559.5 514.5,-559.5 514.5,-529.5 386.5,-529.5"/>
<text text-anchor="start" x="394.5" y="-547.5" font-family="Helvetica,sans-Serif" font-size="10.00">rawspeed::ByteStream</text>
<text text-anchor="middle" x="450.5" y="-536.5" font-family="Helvetica,sans-Serif" font-size="10.00">::peekStream</text>
</a>
</g>
</g>
<!-- Node17&#45;&gt;Node18 -->
<g id="edge17" class="edge">
<title>Node17&#45;&gt;Node18</title>
<path fill="none" stroke="midnightblue" d="M321.23,-544.5C338.8,-544.5 358.03,-544.5 376.12,-544.5"/>
<polygon fill="midnightblue" stroke="midnightblue" points="376.33,-548 386.33,-544.5 376.33,-541 376.33,-548"/>
</g>
<!-- Node19 -->
<g id="node19" class="node">
<title>Node19</title>
<g id="a_node19"><a xlink:href="../../dd/da0/classrawspeed_1_1_byte_stream.html#a5eb5f775dd7efaa22b490007fe835a32" target="_top" xlink:title=" ">
<polygon fill="none" stroke="black" points="559,-529.5 559,-559.5 687,-559.5 687,-529.5 559,-529.5"/>
<text text-anchor="start" x="567" y="-547.5" font-family="Helvetica,sans-Serif" font-size="10.00">rawspeed::ByteStream</text>
<text text-anchor="middle" x="623" y="-536.5" font-family="Helvetica,sans-Serif" font-size="10.00">::getSubStream</text>
</a>
</g>
</g>
<!-- Node18&#45;&gt;Node19 -->
<g id="edge18" class="edge">
<title>Node18&#45;&gt;Node19</title>
<path fill="none" stroke="midnightblue" d="M514.5,-544.5C525.62,-544.5 537.27,-544.5 548.64,-544.5"/>
<polygon fill="midnightblue" stroke="midnightblue" points="548.97,-548 558.97,-544.5 548.97,-541 548.97,-548"/>
</g>
<!-- Node19&#45;&gt;Node2 -->
<g id="edge19" class="edge">
<title>Node19&#45;&gt;Node2</title>
<path fill="none" stroke="midnightblue" d="M687.1,-535.93C695.53,-534.79 704.23,-533.6 712.81,-532.44"/>
<polygon fill="midnightblue" stroke="midnightblue" points="713.37,-535.9 722.81,-531.08 712.43,-528.96 713.37,-535.9"/>
</g>
<!-- Node20&#45;&gt;Node12 -->
<g id="edge25" class="edge">
<title>Node20&#45;&gt;Node12</title>
<path fill="none" stroke="midnightblue" d="M320.7,-131.56C339.47,-136.07 360.16,-141.04 379.37,-145.65"/>
<polygon fill="midnightblue" stroke="midnightblue" points="378.72,-149.1 389.26,-148.03 380.36,-142.29 378.72,-149.1"/>
</g>
<!-- Node20&#45;&gt;Node16 -->
<g id="edge23" class="edge">
<title>Node20&#45;&gt;Node16</title>
<path fill="none" stroke="midnightblue" d="M342.27,-115.18C353.64,-115 365.23,-114.82 376.39,-114.65"/>
<polygon fill="midnightblue" stroke="midnightblue" points="376.55,-118.14 386.49,-114.49 376.44,-111.14 376.55,-118.14"/>
</g>
<!-- Node20&#45;&gt;Node20 -->
<g id="edge24" class="edge">
<title>Node20&#45;&gt;Node20</title>
<path fill="none" stroke="midnightblue" d="M224.24,-131.66C216.34,-141.06 227.26,-150 257,-150 275.12,-150 286.26,-146.68 290.41,-141.96"/>
<polygon fill="midnightblue" stroke="midnightblue" points="293.88,-141.42 289.76,-131.66 286.89,-141.86 293.88,-141.42"/>
</g>
<!-- Node21 -->
<g id="node21" class="node">
<title>Node21</title>
<g id="a_node21"><a xlink:href="../../d8/d75/classrawspeed_1_1i_point2_d.html#abb9155da47f90ec694b75ad521bb7978" target="_top" xlink:title=" ">
<polygon fill="none" stroke="black" points="395,-49.5 395,-79.5 506,-79.5 506,-49.5 395,-49.5"/>
<text text-anchor="start" x="403" y="-67.5" font-family="Helvetica,sans-Serif" font-size="10.00">rawspeed::iPoint2D</text>
<text text-anchor="middle" x="450.5" y="-56.5" font-family="Helvetica,sans-Serif" font-size="10.00">::__attribute__</text>
</a>
</g>
</g>
<!-- Node20&#45;&gt;Node21 -->
<g id="edge22" class="edge">
<title>Node20&#45;&gt;Node21</title>
<path fill="none" stroke="midnightblue" d="M313.39,-101.46C335.81,-95.37 361.85,-88.3 385.12,-81.98"/>
<polygon fill="midnightblue" stroke="midnightblue" points="386.16,-85.33 394.9,-79.33 384.33,-78.57 386.16,-85.33"/>
</g>
<!-- Node22 -->
<g id="node22" class="node">
<title>Node22</title>
<g id="a_node22"><a xlink:href="../../dd/d12/classrawspeed_1_1_raw_image.html#a4a01d153bb4518ddfaac18a5d0694154" target="_top" xlink:title=" ">
<polygon fill="none" stroke="black" points="389.5,-0.5 389.5,-30.5 511.5,-30.5 511.5,-0.5 389.5,-0.5"/>
<text text-anchor="start" x="397.5" y="-18.5" font-family="Helvetica,sans-Serif" font-size="10.00">rawspeed::RawImage</text>
<text text-anchor="middle" x="450.5" y="-7.5" font-family="Helvetica,sans-Serif" font-size="10.00">::RawImage</text>
</a>
</g>
</g>
<!-- Node20&#45;&gt;Node22 -->
<g id="edge26" class="edge">
<title>Node20&#45;&gt;Node22</title>
<path fill="none" stroke="midnightblue" d="M326.38,-101.43C331.9,-98.9 337.19,-95.95 342,-92.5 364.85,-76.13 355.64,-57.53 378,-40.5 380.43,-38.65 383.01,-36.93 385.69,-35.33"/>
<polygon fill="midnightblue" stroke="midnightblue" points="387.36,-38.4 394.54,-30.62 384.07,-32.22 387.36,-38.4"/>
</g>
</g>
</svg>
