<?xml version="1.0" encoding="UTF-8" standalone="no"?>
<!DOCTYPE svg PUBLIC "-//W3C//DTD SVG 1.1//EN"
 "http://www.w3.org/Graphics/SVG/1.1/DTD/svg11.dtd">
<!-- Generated by graphviz version 2.43.0 (0)
 -->
<!-- Title: librawspeed/common/RawspeedException.h Pages: 1 -->
<svg width="663pt" height="151pt"
 viewBox="0.00 0.00 662.50 151.00" xmlns="http://www.w3.org/2000/svg" xmlns:xlink="http://www.w3.org/1999/xlink">
<g id="graph0" class="graph" transform="scale(1 1) rotate(0) translate(4 147)">
<title>librawspeed/common/RawspeedException.h</title>
<!-- Node1 -->
<g id="node1" class="node">
<title>Node1</title>
<g id="a_node1"><a xlink:title=" ">
<polygon fill="#bfbfbf" stroke="black" points="379.5,-112.5 379.5,-142.5 506.5,-142.5 506.5,-112.5 379.5,-112.5"/>
<text text-anchor="start" x="387.5" y="-130.5" font-family="Helvetica,sans-Serif" font-size="10.00">librawspeed/common</text>
<text text-anchor="middle" x="443" y="-119.5" font-family="Helvetica,sans-Serif" font-size="10.00">/RawspeedException.h</text>
</a>
</g>
</g>
<!-- Node2 -->
<g id="node2" class="node">
<title>Node2</title>
<g id="a_node2"><a xlink:title=" ">
<polygon fill="none" stroke="#bfbfbf" points="135,-56.5 135,-75.5 237,-75.5 237,-56.5 135,-56.5"/>
<text text-anchor="middle" x="186" y="-63.5" font-family="Helvetica,sans-Serif" font-size="10.00">rawspeedconfig.h</text>
</a>
</g>
</g>
<!-- Node1&#45;&gt;Node2 -->
<g id="edge1" class="edge">
<title>Node1&#45;&gt;Node2</title>
<path fill="none" stroke="midnightblue" d="M382.42,-112.47C336.63,-101.87 274.69,-87.53 232.7,-77.81"/>
<polygon fill="midnightblue" stroke="midnightblue" points="233.27,-74.35 222.74,-75.51 231.69,-81.17 233.27,-74.35"/>
</g>
<!-- Node3 -->
<g id="node3" class="node">
<title>Node3</title>
<g id="a_node3"><a xlink:href="../../d9/df5/src_2librawspeed_2common_2_common_8h.html" target="_top" xlink:title=" ">
<polygon fill="none" stroke="black" points="255,-56.5 255,-75.5 371,-75.5 371,-56.5 255,-56.5"/>
<text text-anchor="middle" x="313" y="-63.5" font-family="Helvetica,sans-Serif" font-size="10.00">common/Common.h</text>
</a>
</g>
</g>
<!-- Node1&#45;&gt;Node3 -->
<g id="edge2" class="edge">
<title>Node1&#45;&gt;Node3</title>
<path fill="none" stroke="midnightblue" d="M412.19,-112.4C390.67,-102.55 362.16,-89.5 341.23,-79.92"/>
<polygon fill="midnightblue" stroke="midnightblue" points="342.47,-76.64 331.92,-75.66 339.55,-83 342.47,-76.64"/>
</g>
<!-- Node13 -->
<g id="node13" class="node">
<title>Node13</title>
<g id="a_node13"><a xlink:title=" ">
<polygon fill="none" stroke="#bfbfbf" points="389,-56.5 389,-75.5 431,-75.5 431,-56.5 389,-56.5"/>
<text text-anchor="middle" x="410" y="-63.5" font-family="Helvetica,sans-Serif" font-size="10.00">array</text>
</a>
</g>
</g>
<!-- Node1&#45;&gt;Node13 -->
<g id="edge12" class="edge">
<title>Node1&#45;&gt;Node13</title>
<path fill="none" stroke="midnightblue" d="M435.18,-112.4C430.53,-104.02 424.6,-93.33 419.66,-84.42"/>
<polygon fill="midnightblue" stroke="midnightblue" points="422.71,-82.71 414.8,-75.66 416.59,-86.1 422.71,-82.71"/>
</g>
<!-- Node14 -->
<g id="node14" class="node">
<title>Node14</title>
<g id="a_node14"><a xlink:title=" ">
<polygon fill="none" stroke="#bfbfbf" points="449.5,-56.5 449.5,-75.5 502.5,-75.5 502.5,-56.5 449.5,-56.5"/>
<text text-anchor="middle" x="476" y="-63.5" font-family="Helvetica,sans-Serif" font-size="10.00">cstdarg</text>
</a>
</g>
</g>
<!-- Node1&#45;&gt;Node14 -->
<g id="edge13" class="edge">
<title>Node1&#45;&gt;Node14</title>
<path fill="none" stroke="midnightblue" d="M450.82,-112.4C455.47,-104.02 461.4,-93.33 466.34,-84.42"/>
<polygon fill="midnightblue" stroke="midnightblue" points="469.41,-86.1 471.2,-75.66 463.29,-82.71 469.41,-86.1"/>
</g>
<!-- Node15 -->
<g id="node15" class="node">
<title>Node15</title>
<g id="a_node15"><a xlink:title=" ">
<polygon fill="none" stroke="#bfbfbf" points="521,-56.5 521,-75.5 567,-75.5 567,-56.5 521,-56.5"/>
<text text-anchor="middle" x="544" y="-63.5" font-family="Helvetica,sans-Serif" font-size="10.00">cstdio</text>
</a>
</g>
</g>
<!-- Node1&#45;&gt;Node15 -->
<g id="edge14" class="edge">
<title>Node1&#45;&gt;Node15</title>
<path fill="none" stroke="midnightblue" d="M466.94,-112.4C483.13,-102.86 504.41,-90.32 520.5,-80.84"/>
<polygon fill="midnightblue" stroke="midnightblue" points="522.46,-83.75 529.3,-75.66 518.91,-77.72 522.46,-83.75"/>
</g>
<!-- Node16 -->
<g id="node16" class="node">
<title>Node16</title>
<g id="a_node16"><a xlink:title=" ">
<polygon fill="none" stroke="#bfbfbf" points="585.5,-56.5 585.5,-75.5 650.5,-75.5 650.5,-56.5 585.5,-56.5"/>
<text text-anchor="middle" x="618" y="-63.5" font-family="Helvetica,sans-Serif" font-size="10.00">stdexcept</text>
</a>
</g>
</g>
<!-- Node1&#45;&gt;Node16 -->
<g id="edge15" class="edge">
<title>Node1&#45;&gt;Node16</title>
<path fill="none" stroke="midnightblue" d="M484.47,-112.4C514.58,-102.16 554.85,-88.47 583.27,-78.81"/>
<polygon fill="midnightblue" stroke="midnightblue" points="584.45,-82.1 592.79,-75.57 582.2,-75.48 584.45,-82.1"/>
</g>
<!-- Node4 -->
<g id="node4" class="node">
<title>Node4</title>
<g id="a_node4"><a xlink:title=" ">
<polygon fill="none" stroke="#bfbfbf" points="0,-0.5 0,-19.5 64,-19.5 64,-0.5 0,-0.5"/>
<text text-anchor="middle" x="32" y="-7.5" font-family="Helvetica,sans-Serif" font-size="10.00">algorithm</text>
</a>
</g>
</g>
<!-- Node3&#45;&gt;Node4 -->
<g id="edge3" class="edge">
<title>Node3&#45;&gt;Node4</title>
<path fill="none" stroke="midnightblue" d="M265.1,-56.47C218.78,-48.11 146.34,-34.79 74.36,-20.23"/>
<polygon fill="midnightblue" stroke="midnightblue" points="74.71,-16.73 64.21,-18.17 73.31,-23.59 74.71,-16.73"/>
</g>
<!-- Node5 -->
<g id="node5" class="node">
<title>Node5</title>
<g id="a_node5"><a xlink:title=" ">
<polygon fill="none" stroke="#bfbfbf" points="82,-0.5 82,-19.5 134,-19.5 134,-0.5 82,-0.5"/>
<text text-anchor="middle" x="108" y="-7.5" font-family="Helvetica,sans-Serif" font-size="10.00">cassert</text>
</a>
</g>
</g>
<!-- Node3&#45;&gt;Node5 -->
<g id="edge4" class="edge">
<title>Node3&#45;&gt;Node5</title>
<path fill="none" stroke="midnightblue" d="M280.52,-56.44C243.31,-46.64 182.53,-30.63 143.93,-20.47"/>
<polygon fill="midnightblue" stroke="midnightblue" points="144.71,-17.05 134.15,-17.89 142.93,-23.82 144.71,-17.05"/>
</g>
<!-- Node6 -->
<g id="node6" class="node">
<title>Node6</title>
<g id="a_node6"><a xlink:title=" ">
<polygon fill="none" stroke="#bfbfbf" points="152,-0.5 152,-19.5 202,-19.5 202,-0.5 152,-0.5"/>
<text text-anchor="middle" x="177" y="-7.5" font-family="Helvetica,sans-Serif" font-size="10.00">climits</text>
</a>
</g>
</g>
<!-- Node3&#45;&gt;Node6 -->
<g id="edge5" class="edge">
<title>Node3&#45;&gt;Node6</title>
<path fill="none" stroke="midnightblue" d="M291.45,-56.44C268.97,-47.52 233.51,-33.44 208.02,-23.32"/>
<polygon fill="midnightblue" stroke="midnightblue" points="209.03,-19.95 198.45,-19.52 206.45,-26.46 209.03,-19.95"/>
</g>
<!-- Node7 -->
<g id="node7" class="node">
<title>Node7</title>
<g id="a_node7"><a xlink:title=" ">
<polygon fill="none" stroke="#bfbfbf" points="220,-0.5 220,-19.5 270,-19.5 270,-0.5 220,-0.5"/>
<text text-anchor="middle" x="245" y="-7.5" font-family="Helvetica,sans-Serif" font-size="10.00">cstdint</text>
</a>
</g>
</g>
<!-- Node3&#45;&gt;Node7 -->
<g id="edge6" class="edge">
<title>Node3&#45;&gt;Node7</title>
<path fill="none" stroke="midnightblue" d="M302.07,-56.32C291.83,-48.18 276.28,-35.84 264,-26.09"/>
<polygon fill="midnightblue" stroke="midnightblue" points="266.13,-23.31 256.12,-19.83 261.78,-28.79 266.13,-23.31"/>
</g>
<!-- Node8 -->
<g id="node8" class="node">
<title>Node8</title>
<g id="a_node8"><a xlink:title=" ">
<polygon fill="none" stroke="#bfbfbf" points="288,-0.5 288,-19.5 338,-19.5 338,-0.5 288,-0.5"/>
<text text-anchor="middle" x="313" y="-7.5" font-family="Helvetica,sans-Serif" font-size="10.00">cstring</text>
</a>
</g>
</g>
<!-- Node3&#45;&gt;Node8 -->
<g id="edge7" class="edge">
<title>Node3&#45;&gt;Node8</title>
<path fill="none" stroke="midnightblue" d="M313,-56.08C313,-49.01 313,-38.86 313,-29.99"/>
<polygon fill="midnightblue" stroke="midnightblue" points="316.5,-29.75 313,-19.75 309.5,-29.75 316.5,-29.75"/>
</g>
<!-- Node9 -->
<g id="node9" class="node">
<title>Node9</title>
<g id="a_node9"><a xlink:title=" ">
<polygon fill="none" stroke="#bfbfbf" points="356.5,-0.5 356.5,-19.5 439.5,-19.5 439.5,-0.5 356.5,-0.5"/>
<text text-anchor="middle" x="398" y="-7.5" font-family="Helvetica,sans-Serif" font-size="10.00">initializer_list</text>
</a>
</g>
</g>
<!-- Node3&#45;&gt;Node9 -->
<g id="edge8" class="edge">
<title>Node3&#45;&gt;Node9</title>
<path fill="none" stroke="midnightblue" d="M326.66,-56.32C339.92,-47.9 360.27,-34.97 375.85,-25.07"/>
<polygon fill="midnightblue" stroke="midnightblue" points="377.81,-27.97 384.38,-19.65 374.06,-22.06 377.81,-27.97"/>
</g>
<!-- Node10 -->
<g id="node10" class="node">
<title>Node10</title>
<g id="a_node10"><a xlink:title=" ">
<polygon fill="none" stroke="#bfbfbf" points="458,-0.5 458,-19.5 502,-19.5 502,-0.5 458,-0.5"/>
<text text-anchor="middle" x="480" y="-7.5" font-family="Helvetica,sans-Serif" font-size="10.00">string</text>
</a>
</g>
</g>
<!-- Node3&#45;&gt;Node10 -->
<g id="edge9" class="edge">
<title>Node3&#45;&gt;Node10</title>
<path fill="none" stroke="midnightblue" d="M339.46,-56.44C369.01,-46.89 416.8,-31.44 448.31,-21.25"/>
<polygon fill="midnightblue" stroke="midnightblue" points="449.49,-24.54 457.93,-18.14 447.34,-17.88 449.49,-24.54"/>
</g>
<!-- Node11 -->
<g id="node11" class="node">
<title>Node11</title>
<g id="a_node11"><a xlink:title=" ">
<polygon fill="none" stroke="#bfbfbf" points="520.5,-0.5 520.5,-19.5 589.5,-19.5 589.5,-0.5 520.5,-0.5"/>
<text text-anchor="middle" x="555" y="-7.5" font-family="Helvetica,sans-Serif" font-size="10.00">type_traits</text>
</a>
</g>
</g>
<!-- Node3&#45;&gt;Node11 -->
<g id="edge10" class="edge">
<title>Node3&#45;&gt;Node11</title>
<path fill="none" stroke="midnightblue" d="M351.35,-56.44C394.59,-46.79 464.81,-31.12 510.45,-20.94"/>
<polygon fill="midnightblue" stroke="midnightblue" points="511.36,-24.32 520.36,-18.73 509.84,-17.49 511.36,-24.32"/>
</g>
<!-- Node12 -->
<g id="node12" class="node">
<title>Node12</title>
<g id="a_node12"><a xlink:title=" ">
<polygon fill="none" stroke="#bfbfbf" points="607.5,-0.5 607.5,-19.5 654.5,-19.5 654.5,-0.5 607.5,-0.5"/>
<text text-anchor="middle" x="631" y="-7.5" font-family="Helvetica,sans-Serif" font-size="10.00">vector</text>
</a>
</g>
</g>
<!-- Node3&#45;&gt;Node12 -->
<g id="edge11" class="edge">
<title>Node3&#45;&gt;Node12</title>
<path fill="none" stroke="midnightblue" d="M371.22,-56.67C437.57,-47.04 542.96,-31.3 597.44,-20.1"/>
<polygon fill="midnightblue" stroke="midnightblue" points="598.26,-23.51 607.31,-18 596.8,-16.66 598.26,-23.51"/>
</g>
</g>
</svg>
