<?xml version="1.0" encoding="UTF-8" standalone="no"?>
<!DOCTYPE svg PUBLIC "-//W3C//DTD SVG 1.1//EN"
 "http://www.w3.org/Graphics/SVG/1.1/DTD/svg11.dtd">
<!-- Generated by graphviz version 2.43.0 (0)
 -->
<!-- Title: rawspeed::SimpleTiffDecoder Pages: 1 -->
<svg width="570pt" height="196pt"
 viewBox="0.00 0.00 569.50 196.00" xmlns="http://www.w3.org/2000/svg" xmlns:xlink="http://www.w3.org/1999/xlink">
<g id="graph0" class="graph" transform="scale(1 1) rotate(0) translate(4 192)">
<title>rawspeed::SimpleTiffDecoder</title>
<!-- Node1 -->
<g id="node1" class="node">
<title>Node1</title>
<g id="a_node1"><a xlink:title=" ">
<polygon fill="#bfbfbf" stroke="black" points="201.5,-56.5 201.5,-75.5 361.5,-75.5 361.5,-56.5 201.5,-56.5"/>
<text text-anchor="middle" x="281.5" y="-63.5" font-family="Helvetica,sans-Serif" font-size="10.00">rawspeed::SimpleTiffDecoder</text>
</a>
</g>
</g>
<!-- Node4 -->
<g id="node4" class="node">
<title>Node4</title>
<g id="a_node4"><a xlink:href="../../d8/d4f/classrawspeed_1_1_dcr_decoder.html" target="_top" xlink:title=" ">
<polygon fill="none" stroke="black" points="0,-0.5 0,-19.5 127,-19.5 127,-0.5 0,-0.5"/>
<text text-anchor="middle" x="63.5" y="-7.5" font-family="Helvetica,sans-Serif" font-size="10.00">rawspeed::DcrDecoder</text>
</a>
</g>
</g>
<!-- Node1&#45;&gt;Node4 -->
<g id="edge3" class="edge">
<title>Node1&#45;&gt;Node4</title>
<path fill="none" stroke="midnightblue" d="M237.19,-54.02C196.01,-43.82 135.53,-28.84 97.88,-19.52"/>
<polygon fill="midnightblue" stroke="midnightblue" points="236.41,-57.44 246.96,-56.44 238.09,-50.64 236.41,-57.44"/>
</g>
<!-- Node5 -->
<g id="node5" class="node">
<title>Node5</title>
<g id="a_node5"><a xlink:href="../../d2/d89/classrawspeed_1_1_dcs_decoder.html" target="_top" xlink:title=" ">
<polygon fill="none" stroke="black" points="145.5,-0.5 145.5,-19.5 273.5,-19.5 273.5,-0.5 145.5,-0.5"/>
<text text-anchor="middle" x="209.5" y="-7.5" font-family="Helvetica,sans-Serif" font-size="10.00">rawspeed::DcsDecoder</text>
</a>
</g>
</g>
<!-- Node1&#45;&gt;Node5 -->
<g id="edge4" class="edge">
<title>Node1&#45;&gt;Node5</title>
<path fill="none" stroke="midnightblue" d="M261.63,-50.1C248.68,-40.38 232.2,-28.03 221.28,-19.83"/>
<polygon fill="midnightblue" stroke="midnightblue" points="259.83,-53.12 269.93,-56.32 264.03,-47.52 259.83,-53.12"/>
</g>
<!-- Node6 -->
<g id="node6" class="node">
<title>Node6</title>
<g id="a_node6"><a xlink:href="../../d9/d0e/classrawspeed_1_1_erf_decoder.html" target="_top" xlink:title=" ">
<polygon fill="none" stroke="black" points="291.5,-0.5 291.5,-19.5 415.5,-19.5 415.5,-0.5 291.5,-0.5"/>
<text text-anchor="middle" x="353.5" y="-7.5" font-family="Helvetica,sans-Serif" font-size="10.00">rawspeed::ErfDecoder</text>
</a>
</g>
</g>
<!-- Node1&#45;&gt;Node6 -->
<g id="edge5" class="edge">
<title>Node1&#45;&gt;Node6</title>
<path fill="none" stroke="midnightblue" d="M301.37,-50.1C314.32,-40.38 330.8,-28.03 341.72,-19.83"/>
<polygon fill="midnightblue" stroke="midnightblue" points="298.97,-47.52 293.07,-56.32 303.17,-53.12 298.97,-47.52"/>
</g>
<!-- Node7 -->
<g id="node7" class="node">
<title>Node7</title>
<g id="a_node7"><a xlink:href="../../d0/d98/classrawspeed_1_1_mef_decoder.html" target="_top" xlink:title=" ">
<polygon fill="none" stroke="black" points="433.5,-0.5 433.5,-19.5 561.5,-19.5 561.5,-0.5 433.5,-0.5"/>
<text text-anchor="middle" x="497.5" y="-7.5" font-family="Helvetica,sans-Serif" font-size="10.00">rawspeed::MefDecoder</text>
</a>
</g>
</g>
<!-- Node1&#45;&gt;Node7 -->
<g id="edge6" class="edge">
<title>Node1&#45;&gt;Node7</title>
<path fill="none" stroke="midnightblue" d="M325.66,-53.96C366.46,-43.76 426.21,-28.82 463.43,-19.52"/>
<polygon fill="midnightblue" stroke="midnightblue" points="324.58,-50.62 315.73,-56.44 326.28,-57.41 324.58,-50.62"/>
</g>
<!-- Node2 -->
<g id="node2" class="node">
<title>Node2</title>
<g id="a_node2"><a xlink:href="../../dc/d61/classrawspeed_1_1_abstract_tiff_decoder.html" target="_top" xlink:title=" ">
<polygon fill="none" stroke="black" points="198,-112.5 198,-131.5 365,-131.5 365,-112.5 198,-112.5"/>
<text text-anchor="middle" x="281.5" y="-119.5" font-family="Helvetica,sans-Serif" font-size="10.00">rawspeed::AbstractTiffDecoder</text>
</a>
</g>
</g>
<!-- Node2&#45;&gt;Node1 -->
<g id="edge1" class="edge">
<title>Node2&#45;&gt;Node1</title>
<path fill="none" stroke="midnightblue" d="M281.5,-101.8C281.5,-92.91 281.5,-82.78 281.5,-75.75"/>
<polygon fill="midnightblue" stroke="midnightblue" points="278,-102.08 281.5,-112.08 285,-102.08 278,-102.08"/>
</g>
<!-- Node3 -->
<g id="node3" class="node">
<title>Node3</title>
<g id="a_node3"><a xlink:href="../../dd/dea/classrawspeed_1_1_raw_decoder.html" target="_top" xlink:title=" ">
<polygon fill="none" stroke="black" points="216,-168.5 216,-187.5 347,-187.5 347,-168.5 216,-168.5"/>
<text text-anchor="middle" x="281.5" y="-175.5" font-family="Helvetica,sans-Serif" font-size="10.00">rawspeed::RawDecoder</text>
</a>
</g>
</g>
<!-- Node3&#45;&gt;Node2 -->
<g id="edge2" class="edge">
<title>Node3&#45;&gt;Node2</title>
<path fill="none" stroke="midnightblue" d="M281.5,-157.8C281.5,-148.91 281.5,-138.78 281.5,-131.75"/>
<polygon fill="midnightblue" stroke="midnightblue" points="278,-158.08 281.5,-168.08 285,-158.08 278,-158.08"/>
</g>
</g>
</svg>
