<?xml version="1.0" encoding="UTF-8" standalone="no"?>
<!DOCTYPE svg PUBLIC "-//W3C//DTD SVG 1.1//EN"
 "http://www.w3.org/Graphics/SVG/1.1/DTD/svg11.dtd">
<!-- Generated by graphviz version 2.43.0 (0)
 -->
<!-- Title: rawspeed::RawImageData Pages: 1 -->
<!--zoomable 906 -->
<svg id="main" version="1.1" xmlns="http://www.w3.org/2000/svg" xmlns:xlink="http://www.w3.org/1999/xlink" xml:space="preserve" onload="init(evt)">
<style type="text/css"><![CDATA[
.edge:hover path { stroke: red; }
.edge:hover polygon { stroke: red; fill: red; }
]]></style>
<script type="text/javascript"><![CDATA[
var edges = document.getElementsByTagName('g');
if (edges && edges.length) {
  for (var i=0;i<edges.length;i++) {
    if (edges[i].id.substr(0,4)=='edge') {
      edges[i].setAttribute('class','edge');
    }
  }
}
]]></script>
        <defs>
                <circle id="rim" cx="0" cy="0" r="7"/>
                <circle id="rim2" cx="0" cy="0" r="3.5"/>
                <g id="zoomPlus">
                        <use xlink:href="#rim" fill="#404040">
                                <set attributeName="fill" to="#808080" begin="zoomplus.mouseover" end="zoomplus.mouseout"/>
                        </use>
                        <path d="M-4,0h8M0,-4v8" fill="none" stroke="white" stroke-width="1.5" pointer-events="none"/>
                </g>
                <g id="zoomMin">
                        <use xlink:href="#rim" fill="#404040">
                                <set attributeName="fill" to="#808080" begin="zoomminus.mouseover" end="zoomminus.mouseout"/>
                        </use>
                        <path d="M-4,0h8" fill="none" stroke="white" stroke-width="1.5" pointer-events="none"/>
                </g>
                <g id="dirArrow">
                        <path fill="none" stroke="white" stroke-width="1.5" d="M0,-3.0v7 M-2.5,-0.5L0,-3.0L2.5,-0.5"/>
                </g>
               <g id="resetDef">
                       <use xlink:href="#rim2" fill="#404040">
                               <set attributeName="fill" to="#808080" begin="reset.mouseover" end="reset.mouseout"/>
                       </use>
               </g>
        </defs>

<script type="text/javascript">
var viewWidth = 1456;
var viewHeight = 906;
var sectionId = 'dynsection-1';
</script>
<script xlink:href="../../svgpan.js"/>
<svg id="graph" class="graph">
<g id="viewport">
<title>rawspeed::RawImageData</title>
<!-- Node1 -->
<g id="node1" class="node">
<title>Node1</title>
<g id="a_node1"><a xlink:title=" ">
<polygon fill="#bfbfbf" stroke="black" points="1303,-447.27 1303,-466.27 1448,-466.27 1448,-447.27 1303,-447.27"/>
<text text-anchor="middle" x="1375.5" y="-454.27" font-family="Helvetica,sans-Serif" font-size="10.00">rawspeed::RawImageData</text>
</a>
</g>
</g>
<!-- Node2 -->
<g id="node2" class="node">
<title>Node2</title>
<g id="a_node2"><a xlink:href="../../d6/d92/classrawspeed_1_1_error_log.html" target="_top" xlink:title=" ">
<polygon fill="none" stroke="black" points="1062,-793.27 1062,-812.27 1172,-812.27 1172,-793.27 1062,-793.27"/>
<text text-anchor="middle" x="1117" y="-800.27" font-family="Helvetica,sans-Serif" font-size="10.00">rawspeed::ErrorLog</text>
</a>
</g>
</g>
<!-- Node2&#45;&gt;Node1 -->
<g id="edge1" class="edge">
<title>Node2&#45;&gt;Node1</title>
<path fill="none" stroke="midnightblue" d="M1182.23,-804.96C1216.7,-802.72 1257.61,-794.09 1285,-768.77 1377.48,-683.28 1376.7,-509.26 1375.01,-466.45"/>
<polygon fill="midnightblue" stroke="midnightblue" points="1182.05,-801.46 1172.23,-805.44 1182.39,-808.45 1182.05,-801.46"/>
</g>
<!-- Node3 -->
<g id="node3" class="node">
<title>Node3</title>
<g id="a_node3"><a xlink:title=" ">
<polygon fill="none" stroke="#bfbfbf" points="812.5,-836.27 812.5,-855.27 859.5,-855.27 859.5,-836.27 812.5,-836.27"/>
<text text-anchor="middle" x="836" y="-843.27" font-family="Helvetica,sans-Serif" font-size="10.00">Mutex</text>
</a>
</g>
</g>
<!-- Node3&#45;&gt;Node1 -->
<g id="edge49" class="edge">
<title>Node3&#45;&gt;Node1</title>
<path fill="none" stroke="#9a32cd" stroke-dasharray="5,2" d="M869.38,-854.25C951.72,-873.64 1170.61,-911.35 1285,-798.77 1334.87,-749.7 1366.9,-516.76 1373.31,-466.39"/>
<polygon fill="#9a32cd" stroke="#9a32cd" points="870.13,-850.83 859.59,-851.87 868.48,-857.63 870.13,-850.83"/>
<text text-anchor="middle" x="1117" y="-889.77" font-family="Helvetica,sans-Serif" font-size="10.00"> mymutex</text>
<text text-anchor="middle" x="1117" y="-878.77" font-family="Helvetica,sans-Serif" font-size="10.00">mBadPixelMutex</text>
</g>
<!-- Node3&#45;&gt;Node2 -->
<g id="edge2" class="edge">
<title>Node3&#45;&gt;Node2</title>
<path fill="none" stroke="#9a32cd" stroke-dasharray="5,2" d="M869.83,-840.71C917.07,-833.43 1004.81,-819.91 1061.78,-811.13"/>
<polygon fill="#9a32cd" stroke="#9a32cd" points="869.18,-837.27 859.83,-842.25 870.25,-844.19 869.18,-837.27"/>
<text text-anchor="middle" x="976.5" y="-832.77" font-family="Helvetica,sans-Serif" font-size="10.00"> mutex</text>
</g>
<!-- Node4 -->
<g id="node4" class="node">
<title>Node4</title>
<g id="a_node4"><a xlink:title=" ">
<polygon fill="none" stroke="#bfbfbf" points="1043,-620.77 1043,-650.77 1191,-650.77 1191,-620.77 1043,-620.77"/>
<text text-anchor="start" x="1051" y="-638.77" font-family="Helvetica,sans-Serif" font-size="10.00">std::unique_ptr&lt; rawspeed</text>
<text text-anchor="middle" x="1117" y="-627.77" font-family="Helvetica,sans-Serif" font-size="10.00">::TableLookUp &gt;</text>
</a>
</g>
</g>
<!-- Node4&#45;&gt;Node1 -->
<g id="edge3" class="edge">
<title>Node4&#45;&gt;Node1</title>
<path fill="none" stroke="#9a32cd" stroke-dasharray="5,2" d="M1164.26,-616.51C1199.14,-600.88 1247.24,-576.87 1285,-548.77 1319.32,-523.23 1352.51,-484.25 1366.95,-466.36"/>
<polygon fill="#9a32cd" stroke="#9a32cd" points="1162.53,-613.45 1154.8,-620.7 1165.36,-619.86 1162.53,-613.45"/>
<text text-anchor="middle" x="1247" y="-596.77" font-family="Helvetica,sans-Serif" font-size="10.00"> table</text>
</g>
<!-- Node5 -->
<g id="node5" class="node">
<title>Node5</title>
<g id="a_node5"><a xlink:href="../../db/d1a/classrawspeed_1_1_table_look_up.html" target="_top" xlink:title=" ">
<polygon fill="none" stroke="black" points="770,-626.27 770,-645.27 902,-645.27 902,-626.27 770,-626.27"/>
<text text-anchor="middle" x="836" y="-633.27" font-family="Helvetica,sans-Serif" font-size="10.00">rawspeed::TableLookUp</text>
</a>
</g>
</g>
<!-- Node5&#45;&gt;Node4 -->
<g id="edge4" class="edge">
<title>Node5&#45;&gt;Node4</title>
<path fill="none" stroke="#9a32cd" stroke-dasharray="5,2" d="M912.17,-635.77C952.78,-635.77 1002.69,-635.77 1042.97,-635.77"/>
<polygon fill="#9a32cd" stroke="#9a32cd" points="912.06,-632.27 902.06,-635.77 912.06,-639.27 912.06,-632.27"/>
<text text-anchor="middle" x="976.5" y="-638.77" font-family="Helvetica,sans-Serif" font-size="10.00"> ptr</text>
</g>
<!-- Node6 -->
<g id="node6" class="node">
<title>Node6</title>
<g id="a_node6"><a xlink:title=" ">
<polygon fill="none" stroke="#bfbfbf" points="451.5,-626.27 451.5,-645.27 582.5,-645.27 582.5,-626.27 451.5,-626.27"/>
<text text-anchor="middle" x="517" y="-633.27" font-family="Helvetica,sans-Serif" font-size="10.00">std::vector&lt; uint16_t &gt;</text>
</a>
</g>
</g>
<!-- Node6&#45;&gt;Node5 -->
<g id="edge5" class="edge">
<title>Node6&#45;&gt;Node5</title>
<path fill="none" stroke="#9a32cd" stroke-dasharray="5,2" d="M592.69,-635.77C646.45,-635.77 718.27,-635.77 769.74,-635.77"/>
<polygon fill="#9a32cd" stroke="#9a32cd" points="592.53,-632.27 582.53,-635.77 592.53,-639.27 592.53,-632.27"/>
<text text-anchor="middle" x="673" y="-638.77" font-family="Helvetica,sans-Serif" font-size="10.00"> tables</text>
</g>
<!-- Node7 -->
<g id="node7" class="node">
<title>Node7</title>
<g id="a_node7"><a xlink:href="../../d5/df4/classuint16__t.html" target="_top" xlink:title=" ">
<polygon fill="none" stroke="black" points="211.5,-744.27 211.5,-763.27 267.5,-763.27 267.5,-744.27 211.5,-744.27"/>
<text text-anchor="middle" x="239.5" y="-751.27" font-family="Helvetica,sans-Serif" font-size="10.00">uint16_t</text>
</a>
</g>
</g>
<!-- Node7&#45;&gt;Node6 -->
<g id="edge6" class="edge">
<title>Node7&#45;&gt;Node6</title>
<path fill="none" stroke="#9a32cd" stroke-dasharray="5,2" d="M269.73,-739.84C309.96,-720.86 384.81,-686.21 450,-659.77 462.43,-654.73 476.36,-649.59 488.21,-645.37"/>
<polygon fill="#9a32cd" stroke="#9a32cd" points="268.06,-736.76 260.51,-744.21 271.05,-743.09 268.06,-736.76"/>
<text text-anchor="middle" x="370" y="-723.77" font-family="Helvetica,sans-Serif" font-size="10.00"> elements</text>
</g>
<!-- Node8 -->
<g id="node8" class="node">
<title>Node8</title>
<g id="a_node8"><a xlink:title="STL class.">
<polygon fill="none" stroke="#bfbfbf" points="191,-428.27 191,-447.27 288,-447.27 288,-428.27 191,-428.27"/>
<text text-anchor="middle" x="239.5" y="-435.27" font-family="Helvetica,sans-Serif" font-size="10.00">std::vector&lt; T &gt;</text>
</a>
</g>
</g>
<!-- Node8&#45;&gt;Node6 -->
<g id="edge7" class="edge">
<title>Node8&#45;&gt;Node6</title>
<path fill="none" stroke="orange" stroke-dasharray="5,2" d="M279.09,-451.25C282.85,-452.96 286.55,-454.8 290,-456.77 381.75,-509.08 475.78,-596.76 506.01,-625.97"/>
<polygon fill="orange" stroke="orange" points="280.28,-447.96 269.71,-447.3 277.56,-454.41 280.28,-447.96"/>
<text text-anchor="middle" x="370" y="-558.77" font-family="Helvetica,sans-Serif" font-size="10.00"> &lt; uint16_t &gt;</text>
</g>
<!-- Node13 -->
<g id="node13" class="node">
<title>Node13</title>
<g id="a_node13"><a xlink:title=" ">
<polygon fill="none" stroke="#bfbfbf" points="1053.5,-441.77 1053.5,-471.77 1180.5,-471.77 1180.5,-441.77 1053.5,-441.77"/>
<text text-anchor="start" x="1061.5" y="-459.77" font-family="Helvetica,sans-Serif" font-size="10.00">std::vector&lt; rawspeed</text>
<text text-anchor="middle" x="1117" y="-448.77" font-family="Helvetica,sans-Serif" font-size="10.00">::BlackArea &gt;</text>
</a>
</g>
</g>
<!-- Node8&#45;&gt;Node13 -->
<g id="edge17" class="edge">
<title>Node8&#45;&gt;Node13</title>
<path fill="none" stroke="orange" stroke-dasharray="5,2" d="M298.28,-435.89C369.64,-433.67 494.75,-430.11 602,-428.77 665.11,-427.99 680.93,-426.4 744,-428.77 852.89,-432.87 979.33,-443.67 1053.22,-450.6"/>
<polygon fill="orange" stroke="orange" points="298.04,-432.4 288.15,-436.21 298.26,-439.39 298.04,-432.4"/>
<text text-anchor="middle" x="673" y="-431.77" font-family="Helvetica,sans-Serif" font-size="10.00"> &lt; rawspeed::BlackArea &gt;</text>
</g>
<!-- Node30 -->
<g id="node30" class="node">
<title>Node30</title>
<g id="a_node30"><a xlink:title=" ">
<polygon fill="none" stroke="#bfbfbf" points="450,-163.27 450,-182.27 584,-182.27 584,-163.27 450,-163.27"/>
<text text-anchor="middle" x="517" y="-170.27" font-family="Helvetica,sans-Serif" font-size="10.00">std::vector&lt; CFAColor &gt;</text>
</a>
</g>
</g>
<!-- Node8&#45;&gt;Node30 -->
<g id="edge41" class="edge">
<title>Node8&#45;&gt;Node30</title>
<path fill="none" stroke="orange" stroke-dasharray="5,2" d="M257.14,-420.72C267.31,-409.81 280.2,-395.07 290,-380.77 299.67,-366.67 298.03,-360.66 308,-346.77 361.52,-272.19 373.25,-247.14 450,-196.77 459.17,-190.75 470.05,-186 480.31,-182.37"/>
<polygon fill="orange" stroke="orange" points="254.34,-418.59 249.99,-428.25 259.42,-423.41 254.34,-418.59"/>
<text text-anchor="middle" x="370" y="-349.77" font-family="Helvetica,sans-Serif" font-size="10.00"> &lt; CFAColor &gt;</text>
</g>
<!-- Node9 -->
<g id="node9" class="node">
<title>Node9</title>
<g id="a_node9"><a xlink:title=" ">
<polygon fill="none" stroke="#bfbfbf" points="37.5,-447.27 37.5,-466.27 66.5,-466.27 66.5,-447.27 37.5,-447.27"/>
<text text-anchor="middle" x="52" y="-454.27" font-family="Helvetica,sans-Serif" font-size="10.00">T</text>
</a>
</g>
</g>
<!-- Node9&#45;&gt;Node8 -->
<g id="edge8" class="edge">
<title>Node9&#45;&gt;Node8</title>
<path fill="none" stroke="#9a32cd" stroke-dasharray="5,2" d="M76.37,-450.6C89.65,-447.37 106.64,-443.69 122,-441.77 144.49,-438.97 169.6,-437.85 190.73,-437.48"/>
<polygon fill="#9a32cd" stroke="#9a32cd" points="75.46,-447.22 66.62,-453.05 77.17,-454 75.46,-447.22"/>
<text text-anchor="middle" x="146.5" y="-444.77" font-family="Helvetica,sans-Serif" font-size="10.00"> elements</text>
</g>
<!-- Node12 -->
<g id="node12" class="node">
<title>Node12</title>
<g id="a_node12"><a xlink:title="STL class.">
<polygon fill="none" stroke="#bfbfbf" points="311,-779.27 311,-798.27 429,-798.27 429,-779.27 311,-779.27"/>
<text text-anchor="middle" x="370" y="-786.27" font-family="Helvetica,sans-Serif" font-size="10.00">std::unique_ptr&lt; T &gt;</text>
</a>
</g>
</g>
<!-- Node9&#45;&gt;Node12 -->
<g id="edge12" class="edge">
<title>Node9&#45;&gt;Node12</title>
<path fill="none" stroke="#9a32cd" stroke-dasharray="5,2" d="M54.75,-476.57C60.96,-533.66 87.38,-699.22 189,-772.77 223.69,-797.88 272.56,-800.76 310.63,-797.98"/>
<polygon fill="#9a32cd" stroke="#9a32cd" points="58.21,-475.98 53.74,-466.38 51.24,-476.68 58.21,-475.98"/>
<text text-anchor="middle" x="146.5" y="-758.77" font-family="Helvetica,sans-Serif" font-size="10.00"> ptr</text>
</g>
<!-- Node24 -->
<g id="node24" class="node">
<title>Node24</title>
<g id="a_node24"><a xlink:title="STL class.">
<polygon fill="none" stroke="#bfbfbf" points="193.5,-466.27 193.5,-485.27 285.5,-485.27 285.5,-466.27 193.5,-466.27"/>
<text text-anchor="middle" x="239.5" y="-473.27" font-family="Helvetica,sans-Serif" font-size="10.00">std::array&lt; T &gt;</text>
</a>
</g>
</g>
<!-- Node9&#45;&gt;Node24 -->
<g id="edge29" class="edge">
<title>Node9&#45;&gt;Node24</title>
<path fill="none" stroke="#9a32cd" stroke-dasharray="5,2" d="M76.78,-459.21C106.13,-462.22 156.67,-467.39 193.46,-471.16"/>
<polygon fill="#9a32cd" stroke="#9a32cd" points="76.94,-455.71 66.64,-458.17 76.23,-462.67 76.94,-455.71"/>
<text text-anchor="middle" x="146.5" y="-470.77" font-family="Helvetica,sans-Serif" font-size="10.00"> elements</text>
</g>
<!-- Node28 -->
<g id="node28" class="node">
<title>Node28</title>
<g id="a_node28"><a xlink:title="STL class.">
<polygon fill="none" stroke="#bfbfbf" points="189,-71.27 189,-90.27 290,-90.27 290,-71.27 189,-71.27"/>
<text text-anchor="middle" x="239.5" y="-78.27" font-family="Helvetica,sans-Serif" font-size="10.00">std::map&lt; K, T &gt;</text>
</a>
</g>
</g>
<!-- Node9&#45;&gt;Node28 -->
<g id="edge36" class="edge">
<title>Node9&#45;&gt;Node28</title>
<path fill="none" stroke="#9a32cd" stroke-dasharray="5,2" d="M56.63,-437.05C67.73,-381.19 105.64,-219.19 189,-114.77 197.07,-104.67 208.93,-96.38 219.02,-90.51"/>
<polygon fill="#9a32cd" stroke="#9a32cd" points="53.16,-436.55 54.71,-447.03 60.04,-437.87 53.16,-436.55"/>
<text text-anchor="middle" x="146.5" y="-228.77" font-family="Helvetica,sans-Serif" font-size="10.00"> elements</text>
</g>
<!-- Node10 -->
<g id="node10" class="node">
<title>Node10</title>
<g id="a_node10"><a xlink:title=" ">
<polygon fill="none" stroke="#bfbfbf" points="502.5,-669.27 502.5,-688.27 531.5,-688.27 531.5,-669.27 502.5,-669.27"/>
<text text-anchor="middle" x="517" y="-676.27" font-family="Helvetica,sans-Serif" font-size="10.00">int</text>
</a>
</g>
</g>
<!-- Node10&#45;&gt;Node1 -->
<g id="edge48" class="edge">
<title>Node10&#45;&gt;Node1</title>
<path fill="none" stroke="#9a32cd" stroke-dasharray="5,2" d="M541.55,-684.38C562.15,-689.19 590.51,-695.52 602,-696.77 672.69,-704.49 690.89,-697.34 762,-697.77 952.66,-698.94 1006.53,-745.99 1191,-697.77 1237.19,-685.7 1252.32,-680.58 1285,-645.77 1337.68,-589.66 1364.49,-496.87 1372.15,-466.63"/>
<polygon fill="#9a32cd" stroke="#9a32cd" points="542.15,-680.93 531.62,-682.05 540.55,-687.74 542.15,-680.93"/>
<text text-anchor="middle" x="976.5" y="-765.77" font-family="Helvetica,sans-Serif" font-size="10.00"> blackLevel</text>
<text text-anchor="middle" x="976.5" y="-754.77" font-family="Helvetica,sans-Serif" font-size="10.00">pitch</text>
<text text-anchor="middle" x="976.5" y="-743.77" font-family="Helvetica,sans-Serif" font-size="10.00">whitePoint</text>
<text text-anchor="middle" x="976.5" y="-732.77" font-family="Helvetica,sans-Serif" font-size="10.00">bpp</text>
<text text-anchor="middle" x="976.5" y="-721.77" font-family="Helvetica,sans-Serif" font-size="10.00">cpp</text>
</g>
<!-- Node10&#45;&gt;Node5 -->
<g id="edge9" class="edge">
<title>Node10&#45;&gt;Node5</title>
<path fill="none" stroke="#9a32cd" stroke-dasharray="5,2" d="M541.62,-675.57C589.41,-669.09 699.06,-654.21 769.94,-644.6"/>
<polygon fill="#9a32cd" stroke="#9a32cd" points="541.06,-672.11 531.62,-676.93 542,-679.05 541.06,-672.11"/>
<text text-anchor="middle" x="673" y="-669.77" font-family="Helvetica,sans-Serif" font-size="10.00"> ntables</text>
</g>
<!-- Node16 -->
<g id="node16" class="node">
<title>Node16</title>
<g id="a_node16"><a xlink:href="../../dc/d97/classrawspeed_1_1_image_meta_data.html" target="_top" xlink:title=" ">
<polygon fill="none" stroke="black" points="762,-327.27 762,-346.27 910,-346.27 910,-327.27 762,-327.27"/>
<text text-anchor="middle" x="836" y="-334.27" font-family="Helvetica,sans-Serif" font-size="10.00">rawspeed::ImageMetaData</text>
</a>
</g>
</g>
<!-- Node10&#45;&gt;Node16 -->
<g id="edge23" class="edge">
<title>Node10&#45;&gt;Node16</title>
<path fill="none" stroke="#9a32cd" stroke-dasharray="5,2" d="M541.71,-675.98C555.99,-673.06 573.4,-667.06 584,-654.77 610.08,-624.55 575.01,-596.19 602,-566.77 646.5,-518.28 698.39,-572.22 744,-524.77 766.56,-501.31 749.23,-483.72 762,-453.77 780.22,-411.05 812.75,-365.89 827.43,-346.52"/>
<polygon fill="#9a32cd" stroke="#9a32cd" points="540.85,-672.58 531.56,-677.68 542,-679.48 540.85,-672.58"/>
<text text-anchor="middle" x="673" y="-569.77" font-family="Helvetica,sans-Serif" font-size="10.00"> isoSpeed</text>
</g>
<!-- Node32 -->
<g id="node32" class="node">
<title>Node32</title>
<g id="a_node32"><a xlink:title=" ">
<polygon fill="none" stroke="#bfbfbf" points="781,-669.27 781,-688.27 891,-688.27 891,-669.27 781,-669.27"/>
<text text-anchor="middle" x="836" y="-676.27" font-family="Helvetica,sans-Serif" font-size="10.00">std::array&lt; int, 4 &gt;</text>
</a>
</g>
</g>
<!-- Node10&#45;&gt;Node32 -->
<g id="edge44" class="edge">
<title>Node10&#45;&gt;Node32</title>
<path fill="none" stroke="#9a32cd" stroke-dasharray="5,2" d="M541.73,-679.85C558.55,-680.55 581.65,-681.41 602,-681.77 665.1,-682.9 680.9,-682.81 744,-681.77 755.85,-681.58 768.57,-681.24 780.63,-680.86"/>
<polygon fill="#9a32cd" stroke="#9a32cd" points="541.81,-676.35 531.67,-679.41 541.51,-683.34 541.81,-676.35"/>
<text text-anchor="middle" x="673" y="-684.77" font-family="Helvetica,sans-Serif" font-size="10.00"> elements</text>
</g>
<!-- Node11 -->
<g id="node11" class="node">
<title>Node11</title>
<g id="a_node11"><a xlink:title=" ">
<polygon fill="none" stroke="#bfbfbf" points="498,-525.27 498,-544.27 536,-544.27 536,-525.27 498,-525.27"/>
<text text-anchor="middle" x="517" y="-532.27" font-family="Helvetica,sans-Serif" font-size="10.00">bool</text>
</a>
</g>
</g>
<!-- Node11&#45;&gt;Node1 -->
<g id="edge51" class="edge">
<title>Node11&#45;&gt;Node1</title>
<path fill="none" stroke="#9a32cd" stroke-dasharray="5,2" d="M546.4,-533.24C589.24,-530.89 672.96,-526.07 744,-520.77 942.87,-505.94 992.51,-500.99 1191,-481.77 1232.82,-477.73 1243.37,-477.47 1285,-471.77 1296.55,-470.19 1308.9,-468.27 1320.63,-466.34"/>
<polygon fill="#9a32cd" stroke="#9a32cd" points="545.97,-529.76 536.17,-533.8 546.35,-536.75 545.97,-529.76"/>
<text text-anchor="middle" x="976.5" y="-519.77" font-family="Helvetica,sans-Serif" font-size="10.00"> isCFA</text>
<text text-anchor="middle" x="976.5" y="-508.77" font-family="Helvetica,sans-Serif" font-size="10.00">mDitherScale</text>
</g>
<!-- Node11&#45;&gt;Node5 -->
<g id="edge10" class="edge">
<title>Node11&#45;&gt;Node5</title>
<path fill="none" stroke="#9a32cd" stroke-dasharray="5,2" d="M541.81,-549.66C558.22,-559.37 580.8,-571.7 602,-579.77 660.13,-601.91 729.82,-617.29 777.76,-626.25"/>
<polygon fill="#9a32cd" stroke="#9a32cd" points="543.29,-546.46 532.92,-544.29 539.68,-552.45 543.29,-546.46"/>
<text text-anchor="middle" x="673" y="-620.77" font-family="Helvetica,sans-Serif" font-size="10.00"> dither</text>
</g>
<!-- Node14 -->
<g id="node14" class="node">
<title>Node14</title>
<g id="a_node14"><a xlink:href="../../d8/d30/classrawspeed_1_1_black_area.html" target="_top" xlink:title=" ">
<polygon fill="none" stroke="black" points="776.5,-463.27 776.5,-482.27 895.5,-482.27 895.5,-463.27 776.5,-463.27"/>
<text text-anchor="middle" x="836" y="-470.27" font-family="Helvetica,sans-Serif" font-size="10.00">rawspeed::BlackArea</text>
</a>
</g>
</g>
<!-- Node11&#45;&gt;Node14 -->
<g id="edge16" class="edge">
<title>Node11&#45;&gt;Node14</title>
<path fill="none" stroke="#9a32cd" stroke-dasharray="5,2" d="M546.08,-525.41C562.29,-520.25 583.13,-514.06 602,-509.77 610.47,-507.85 710.16,-492.21 776.36,-481.89"/>
<polygon fill="#9a32cd" stroke="#9a32cd" points="544.61,-522.2 536.17,-528.61 546.76,-528.86 544.61,-522.2"/>
<text text-anchor="middle" x="673" y="-512.77" font-family="Helvetica,sans-Serif" font-size="10.00"> isVertical</text>
</g>
<!-- Node12&#45;&gt;Node4 -->
<g id="edge11" class="edge">
<title>Node12&#45;&gt;Node4</title>
<path fill="none" stroke="orange" stroke-dasharray="5,2" d="M439.28,-780.19C542.16,-766.59 742.68,-737.51 910,-697.77 970.18,-683.48 983.72,-674.44 1043,-656.77 1049.57,-654.82 1056.49,-652.79 1063.33,-650.8"/>
<polygon fill="orange" stroke="orange" points="438.79,-776.72 429.33,-781.49 439.7,-783.66 438.79,-776.72"/>
<text text-anchor="middle" x="673" y="-758.77" font-family="Helvetica,sans-Serif" font-size="10.00"> &lt; rawspeed::TableLookUp &gt;</text>
</g>
<!-- Node13&#45;&gt;Node1 -->
<g id="edge13" class="edge">
<title>Node13&#45;&gt;Node1</title>
<path fill="none" stroke="#9a32cd" stroke-dasharray="5,2" d="M1190.93,-456.77C1226.02,-456.77 1267.96,-456.77 1302.88,-456.77"/>
<polygon fill="#9a32cd" stroke="#9a32cd" points="1190.75,-453.27 1180.75,-456.77 1190.75,-460.27 1190.75,-453.27"/>
<text text-anchor="middle" x="1247" y="-459.77" font-family="Helvetica,sans-Serif" font-size="10.00"> blackAreas</text>
</g>
<!-- Node14&#45;&gt;Node13 -->
<g id="edge14" class="edge">
<title>Node14&#45;&gt;Node13</title>
<path fill="none" stroke="#9a32cd" stroke-dasharray="5,2" d="M905.83,-468.83C950.97,-466.24 1009.54,-462.88 1053.38,-460.36"/>
<polygon fill="#9a32cd" stroke="#9a32cd" points="905.61,-465.33 895.83,-469.4 906.01,-472.32 905.61,-465.33"/>
<text text-anchor="middle" x="976.5" y="-469.77" font-family="Helvetica,sans-Serif" font-size="10.00"> elements</text>
</g>
<!-- Node15 -->
<g id="node15" class="node">
<title>Node15</title>
<g id="a_node15"><a xlink:href="../../d3/d87/classuint32__t.html" target="_top" xlink:title=" ">
<polygon fill="none" stroke="black" points="489,-390.27 489,-409.27 545,-409.27 545,-390.27 489,-390.27"/>
<text text-anchor="middle" x="517" y="-397.27" font-family="Helvetica,sans-Serif" font-size="10.00">uint32_t</text>
</a>
</g>
</g>
<!-- Node15&#45;&gt;Node1 -->
<g id="edge46" class="edge">
<title>Node15&#45;&gt;Node1</title>
<path fill="none" stroke="#9a32cd" stroke-dasharray="5,2" d="M555.32,-399.7C639.31,-399.78 849.59,-401.34 1025,-413.77 1099.07,-419.03 1117.29,-423.74 1191,-432.77 1228.15,-437.33 1269.49,-442.71 1303.51,-447.22"/>
<polygon fill="#9a32cd" stroke="#9a32cd" points="555.25,-396.2 545.25,-399.7 555.24,-403.2 555.25,-396.2"/>
<text text-anchor="middle" x="976.5" y="-427.77" font-family="Helvetica,sans-Serif" font-size="10.00"> padding</text>
<text text-anchor="middle" x="976.5" y="-416.77" font-family="Helvetica,sans-Serif" font-size="10.00">mBadPixelMapPitch</text>
</g>
<!-- Node15&#45;&gt;Node14 -->
<g id="edge15" class="edge">
<title>Node15&#45;&gt;Node14</title>
<path fill="none" stroke="#9a32cd" stroke-dasharray="5,2" d="M542,-414.46C558.34,-423.77 580.76,-435.25 602,-441.77 603.05,-442.1 707.56,-455.94 776.24,-465.02"/>
<polygon fill="#9a32cd" stroke="#9a32cd" points="543.54,-411.31 533.14,-409.29 540.01,-417.35 543.54,-411.31"/>
<text text-anchor="middle" x="673" y="-473.77" font-family="Helvetica,sans-Serif" font-size="10.00"> offset</text>
<text text-anchor="middle" x="673" y="-462.77" font-family="Helvetica,sans-Serif" font-size="10.00">size</text>
</g>
<!-- Node15&#45;&gt;Node16 -->
<g id="edge22" class="edge">
<title>Node15&#45;&gt;Node16</title>
<path fill="none" stroke="#9a32cd" stroke-dasharray="5,2" d="M554.75,-390.48C564.39,-387.7 574.68,-384.41 584,-380.77 592.33,-377.52 593.47,-374.47 602,-371.77 617.28,-366.94 701.21,-354.9 763.98,-346.3"/>
<polygon fill="#9a32cd" stroke="#9a32cd" points="553.72,-387.14 545.02,-393.2 555.6,-393.88 553.72,-387.14"/>
<text text-anchor="middle" x="673" y="-374.77" font-family="Helvetica,sans-Serif" font-size="10.00"> fujiRotationPos</text>
</g>
<!-- Node25 -->
<g id="node25" class="node">
<title>Node25</title>
<g id="a_node25"><a xlink:href="../../d2/d4f/classrawspeed_1_1_color_filter_array.html" target="_top" xlink:title=" ">
<polygon fill="none" stroke="black" points="763,-183.27 763,-202.27 909,-202.27 909,-183.27 763,-183.27"/>
<text text-anchor="middle" x="836" y="-190.27" font-family="Helvetica,sans-Serif" font-size="10.00">rawspeed::ColorFilterArray</text>
</a>
</g>
</g>
<!-- Node15&#45;&gt;Node25 -->
<g id="edge37" class="edge">
<title>Node15&#45;&gt;Node25</title>
<path fill="none" stroke="#9a32cd" stroke-dasharray="5,2" d="M555.17,-396.58C565.86,-393.86 576.62,-389.08 584,-380.77 616.9,-343.74 569.9,-308.5 602,-270.77 626.43,-242.06 728.19,-215.81 788.86,-202.32"/>
<polygon fill="#9a32cd" stroke="#9a32cd" points="554.17,-393.21 545.05,-398.6 555.54,-400.07 554.17,-393.21"/>
<text text-anchor="middle" x="673" y="-284.77" font-family="Helvetica,sans-Serif" font-size="10.00"> x</text>
<text text-anchor="middle" x="673" y="-273.77" font-family="Helvetica,sans-Serif" font-size="10.00">y</text>
</g>
<!-- Node16&#45;&gt;Node1 -->
<g id="edge18" class="edge">
<title>Node16&#45;&gt;Node1</title>
<path fill="none" stroke="#9a32cd" stroke-dasharray="5,2" d="M920.28,-330.92C1013.1,-327.6 1165.8,-331.86 1285,-382.77 1319.86,-397.66 1351.79,-430.59 1366.29,-447.04"/>
<polygon fill="#9a32cd" stroke="#9a32cd" points="919.96,-327.43 910.1,-331.32 920.23,-334.42 919.96,-327.43"/>
<text text-anchor="middle" x="1117" y="-354.77" font-family="Helvetica,sans-Serif" font-size="10.00"> metadata</text>
</g>
<!-- Node17 -->
<g id="node17" class="node">
<title>Node17</title>
<g id="a_node17"><a xlink:href="../../df/de6/classdouble.html" target="_top" xlink:title=" ">
<polygon fill="none" stroke="black" points="492,-314.27 492,-333.27 542,-333.27 542,-314.27 492,-314.27"/>
<text text-anchor="middle" x="517" y="-321.27" font-family="Helvetica,sans-Serif" font-size="10.00">double</text>
</a>
</g>
</g>
<!-- Node17&#45;&gt;Node16 -->
<g id="edge19" class="edge">
<title>Node17&#45;&gt;Node16</title>
<path fill="none" stroke="#9a32cd" stroke-dasharray="5,2" d="M552.28,-313.69C567.38,-309.75 585.43,-305.72 602,-303.77 664.68,-296.41 681.84,-292.85 744,-303.77 769.32,-308.22 796.88,-319.14 814.96,-327.21"/>
<polygon fill="#9a32cd" stroke="#9a32cd" points="551.09,-310.39 542.36,-316.38 552.92,-317.15 551.09,-310.39"/>
<text text-anchor="middle" x="673" y="-306.77" font-family="Helvetica,sans-Serif" font-size="10.00"> pixelAspectRatio</text>
</g>
<!-- Node18 -->
<g id="node18" class="node">
<title>Node18</title>
<g id="a_node18"><a xlink:href="../../d8/d75/classrawspeed_1_1i_point2_d.html" target="_top" xlink:title=" ">
<polygon fill="none" stroke="black" points="461.5,-55.27 461.5,-74.27 572.5,-74.27 572.5,-55.27 461.5,-55.27"/>
<text text-anchor="middle" x="517" y="-62.27" font-family="Helvetica,sans-Serif" font-size="10.00">rawspeed::iPoint2D</text>
</a>
</g>
</g>
<!-- Node18&#45;&gt;Node1 -->
<g id="edge47" class="edge">
<title>Node18&#45;&gt;Node1</title>
<path fill="none" stroke="#9a32cd" stroke-dasharray="5,2" d="M582.78,-61.75C727.88,-58.61 1082.14,-71.64 1285,-256.77 1345.41,-311.91 1367.48,-415.5 1373,-447.27"/>
<polygon fill="#9a32cd" stroke="#9a32cd" points="582.61,-58.26 572.7,-62 582.78,-65.25 582.61,-58.26"/>
<text text-anchor="middle" x="976.5" y="-139.77" font-family="Helvetica,sans-Serif" font-size="10.00"> dim</text>
<text text-anchor="middle" x="976.5" y="-128.77" font-family="Helvetica,sans-Serif" font-size="10.00">uncropped_dim</text>
<text text-anchor="middle" x="976.5" y="-117.77" font-family="Helvetica,sans-Serif" font-size="10.00">mOffset</text>
</g>
<!-- Node18&#45;&gt;Node16 -->
<g id="edge20" class="edge">
<title>Node18&#45;&gt;Node16</title>
<path fill="none" stroke="#9a32cd" stroke-dasharray="5,2" d="M544.81,-79.22C560.95,-87.32 582.16,-96.94 602,-102.77 632.6,-111.77 720.83,-101.85 744,-123.77 772.99,-151.22 747.74,-174.48 762,-211.77 779.59,-257.78 813.04,-306.61 827.75,-326.97"/>
<polygon fill="#9a32cd" stroke="#9a32cd" points="545.97,-75.88 535.47,-74.42 542.77,-82.1 545.97,-75.88"/>
<text text-anchor="middle" x="673" y="-126.77" font-family="Helvetica,sans-Serif" font-size="10.00"> subsampling</text>
</g>
<!-- Node18&#45;&gt;Node25 -->
<g id="edge38" class="edge">
<title>Node18&#45;&gt;Node25</title>
<path fill="none" stroke="#9a32cd" stroke-dasharray="5,2" d="M582.67,-70.17C644.35,-75.68 729.9,-84.46 744,-91.77 785.7,-113.39 817.56,-162.43 829.68,-183.2"/>
<polygon fill="#9a32cd" stroke="#9a32cd" points="582.87,-66.67 572.6,-69.28 582.26,-73.64 582.87,-66.67"/>
<text text-anchor="middle" x="673" y="-94.77" font-family="Helvetica,sans-Serif" font-size="10.00"> size</text>
</g>
<!-- Node19 -->
<g id="node19" class="node">
<title>Node19</title>
<g id="a_node19"><a xlink:href="../../de/d73/classint32__t.html" target="_top" xlink:title=" ">
<polygon fill="none" stroke="black" points="214.5,-18.27 214.5,-37.27 264.5,-37.27 264.5,-18.27 214.5,-18.27"/>
<text text-anchor="middle" x="239.5" y="-25.27" font-family="Helvetica,sans-Serif" font-size="10.00">int32_t</text>
</a>
</g>
</g>
<!-- Node19&#45;&gt;Node18 -->
<g id="edge21" class="edge">
<title>Node19&#45;&gt;Node18</title>
<path fill="none" stroke="#9a32cd" stroke-dasharray="5,2" d="M274.9,-23.88C313.56,-20.45 378,-17.54 432,-28.77 456.54,-33.88 482.79,-46.39 499.29,-55.23"/>
<polygon fill="#9a32cd" stroke="#9a32cd" points="274.33,-20.42 264.7,-24.86 274.99,-27.39 274.33,-20.42"/>
<text text-anchor="middle" x="370" y="-42.77" font-family="Helvetica,sans-Serif" font-size="10.00"> x</text>
<text text-anchor="middle" x="370" y="-31.77" font-family="Helvetica,sans-Serif" font-size="10.00">y</text>
</g>
<!-- Node20 -->
<g id="node20" class="node">
<title>Node20</title>
<g id="a_node20"><a xlink:title="STL class.">
<polygon fill="none" stroke="#bfbfbf" points="207,-197.27 207,-216.27 272,-216.27 272,-197.27 207,-197.27"/>
<text text-anchor="middle" x="239.5" y="-204.27" font-family="Helvetica,sans-Serif" font-size="10.00">std::string</text>
</a>
</g>
</g>
<!-- Node20&#45;&gt;Node16 -->
<g id="edge24" class="edge">
<title>Node20&#45;&gt;Node16</title>
<path fill="none" stroke="#9a32cd" stroke-dasharray="5,2" d="M282.3,-216.66C290.76,-218.31 299.63,-219.81 308,-220.77 356.14,-226.33 700.19,-212.06 744,-232.77 787.38,-253.28 818.52,-305.22 830.07,-326.97"/>
<polygon fill="#9a32cd" stroke="#9a32cd" points="282.74,-213.17 272.24,-214.58 281.33,-220.03 282.74,-213.17"/>
<text text-anchor="middle" x="517" y="-289.77" font-family="Helvetica,sans-Serif" font-size="10.00"> mode</text>
<text text-anchor="middle" x="517" y="-278.77" font-family="Helvetica,sans-Serif" font-size="10.00">model</text>
<text text-anchor="middle" x="517" y="-267.77" font-family="Helvetica,sans-Serif" font-size="10.00">canonical_alias</text>
<text text-anchor="middle" x="517" y="-256.77" font-family="Helvetica,sans-Serif" font-size="10.00">canonical_model</text>
<text text-anchor="middle" x="517" y="-245.77" font-family="Helvetica,sans-Serif" font-size="10.00">canonical_make</text>
<text text-anchor="middle" x="517" y="-234.77" font-family="Helvetica,sans-Serif" font-size="10.00">canonical_id</text>
<text text-anchor="middle" x="517" y="-223.77" font-family="Helvetica,sans-Serif" font-size="10.00">make</text>
</g>
<!-- Node26 -->
<g id="node26" class="node">
<title>Node26</title>
<g id="a_node26"><a xlink:title=" ">
<polygon fill="none" stroke="#bfbfbf" points="458.5,-106.77 458.5,-136.77 575.5,-136.77 575.5,-106.77 458.5,-106.77"/>
<text text-anchor="start" x="466.5" y="-124.77" font-family="Helvetica,sans-Serif" font-size="10.00">std::map&lt; CFAColor,</text>
<text text-anchor="middle" x="517" y="-113.77" font-family="Helvetica,sans-Serif" font-size="10.00"> std::string &gt;</text>
</a>
</g>
</g>
<!-- Node20&#45;&gt;Node26 -->
<g id="edge33" class="edge">
<title>Node20&#45;&gt;Node26</title>
<path fill="none" stroke="#9a32cd" stroke-dasharray="5,2" d="M267.21,-192.66C279.37,-186.71 294.13,-180.17 308,-175.77 361.43,-158.84 377.96,-167.64 432,-152.77 447.74,-148.44 464.7,-142.45 479.23,-136.89"/>
<polygon fill="#9a32cd" stroke="#9a32cd" points="265.44,-189.63 258.07,-197.24 268.58,-195.89 265.44,-189.63"/>
<text text-anchor="middle" x="370" y="-178.77" font-family="Helvetica,sans-Serif" font-size="10.00"> elements</text>
</g>
<!-- Node21 -->
<g id="node21" class="node">
<title>Node21</title>
<g id="a_node21"><a xlink:title="STL class.">
<polygon fill="none" stroke="#bfbfbf" points="0,-191.77 0,-221.77 104,-221.77 104,-191.77 0,-191.77"/>
<text text-anchor="start" x="8" y="-209.77" font-family="Helvetica,sans-Serif" font-size="10.00">std::basic_string&lt;</text>
<text text-anchor="middle" x="52" y="-198.77" font-family="Helvetica,sans-Serif" font-size="10.00"> char &gt;</text>
</a>
</g>
</g>
<!-- Node21&#45;&gt;Node20 -->
<g id="edge25" class="edge">
<title>Node21&#45;&gt;Node20</title>
<path fill="none" stroke="midnightblue" d="M114.46,-206.77C145.44,-206.77 181.69,-206.77 206.98,-206.77"/>
<polygon fill="midnightblue" stroke="midnightblue" points="114.18,-203.27 104.18,-206.77 114.18,-210.27 114.18,-203.27"/>
</g>
<!-- Node22 -->
<g id="node22" class="node">
<title>Node22</title>
<g id="a_node22"><a xlink:title=" ">
<polygon fill="none" stroke="#bfbfbf" points="457.5,-352.27 457.5,-371.27 576.5,-371.27 576.5,-352.27 457.5,-352.27"/>
<text text-anchor="middle" x="517" y="-359.27" font-family="Helvetica,sans-Serif" font-size="10.00">std::array&lt; float, 4 &gt;</text>
</a>
</g>
</g>
<!-- Node22&#45;&gt;Node16 -->
<g id="edge26" class="edge">
<title>Node22&#45;&gt;Node16</title>
<path fill="none" stroke="#9a32cd" stroke-dasharray="5,2" d="M560.74,-349.43C580.9,-343.63 600.83,-337.94 602,-337.77 655.16,-330.21 715.85,-330.22 761.95,-331.99"/>
<polygon fill="#9a32cd" stroke="#9a32cd" points="559.56,-346.13 550.91,-352.26 561.49,-352.86 559.56,-346.13"/>
<text text-anchor="middle" x="673" y="-340.77" font-family="Helvetica,sans-Serif" font-size="10.00"> wbCoeffs</text>
</g>
<!-- Node23 -->
<g id="node23" class="node">
<title>Node23</title>
<g id="a_node23"><a xlink:href="../../d4/dc3/classfloat.html" target="_top" xlink:title=" ">
<polygon fill="none" stroke="black" points="220.5,-352.27 220.5,-371.27 258.5,-371.27 258.5,-352.27 220.5,-352.27"/>
<text text-anchor="middle" x="239.5" y="-359.27" font-family="Helvetica,sans-Serif" font-size="10.00">float</text>
</a>
</g>
</g>
<!-- Node23&#45;&gt;Node22 -->
<g id="edge27" class="edge">
<title>Node23&#45;&gt;Node22</title>
<path fill="none" stroke="#9a32cd" stroke-dasharray="5,2" d="M268.59,-361.77C312.72,-361.77 399.26,-361.77 457.37,-361.77"/>
<polygon fill="#9a32cd" stroke="#9a32cd" points="268.58,-358.27 258.58,-361.77 268.58,-365.27 268.58,-358.27"/>
<text text-anchor="middle" x="370" y="-364.77" font-family="Helvetica,sans-Serif" font-size="10.00"> elements</text>
</g>
<!-- Node24&#45;&gt;Node22 -->
<g id="edge28" class="edge">
<title>Node24&#45;&gt;Node22</title>
<path fill="none" stroke="orange" stroke-dasharray="5,2" d="M276.1,-462.49C280.79,-460.62 285.53,-458.69 290,-456.77 362.36,-425.76 376.37,-408.64 450,-380.77 459.26,-377.27 469.45,-374.04 479,-371.28"/>
<polygon fill="orange" stroke="orange" points="274.65,-459.3 266.6,-466.19 277.19,-465.82 274.65,-459.3"/>
<text text-anchor="middle" x="370" y="-450.77" font-family="Helvetica,sans-Serif" font-size="10.00"> &lt; float, 4 &gt;</text>
</g>
<!-- Node24&#45;&gt;Node32 -->
<g id="edge45" class="edge">
<title>Node24&#45;&gt;Node32</title>
<path fill="none" stroke="orange" stroke-dasharray="5,2" d="M250.23,-494.42C275.58,-540.56 348.76,-659.11 450,-697.77 574.25,-745.23 737.63,-707.55 804.49,-688.32"/>
<polygon fill="orange" stroke="orange" points="253.25,-492.64 245.44,-485.49 247.09,-495.96 253.25,-492.64"/>
<text text-anchor="middle" x="517" y="-722.77" font-family="Helvetica,sans-Serif" font-size="10.00"> &lt; int, 4 &gt;</text>
</g>
<!-- Node25&#45;&gt;Node1 -->
<g id="edge30" class="edge">
<title>Node25&#45;&gt;Node1</title>
<path fill="none" stroke="#9a32cd" stroke-dasharray="5,2" d="M864.36,-206.94C903.19,-226.56 976.92,-262.04 1043,-283.77 1149.36,-318.75 1193.56,-289.16 1285,-353.77 1323.11,-380.71 1355.57,-427.18 1368.5,-447.17"/>
<polygon fill="#9a32cd" stroke="#9a32cd" points="865.76,-203.73 855.26,-202.31 862.59,-209.97 865.76,-203.73"/>
<text text-anchor="middle" x="1117" y="-313.77" font-family="Helvetica,sans-Serif" font-size="10.00"> cfa</text>
</g>
<!-- Node26&#45;&gt;Node25 -->
<g id="edge31" class="edge">
<title>Node26&#45;&gt;Node25</title>
<path fill="none" stroke="#9a32cd" stroke-dasharray="5,2" d="M585.93,-133.98C651.06,-145.7 740.1,-161.78 744,-162.77 766.41,-168.47 791.31,-176.83 809.39,-183.27"/>
<polygon fill="#9a32cd" stroke="#9a32cd" points="586.16,-130.47 575.7,-132.14 584.92,-137.36 586.16,-130.47"/>
<text text-anchor="middle" x="673" y="-165.77" font-family="Helvetica,sans-Serif" font-size="10.00"> color2String</text>
</g>
<!-- Node27 -->
<g id="node27" class="node">
<title>Node27</title>
<g id="a_node27"><a xlink:title=" ">
<polygon fill="none" stroke="#bfbfbf" points="209.5,-124.27 209.5,-143.27 269.5,-143.27 269.5,-124.27 209.5,-124.27"/>
<text text-anchor="middle" x="239.5" y="-131.27" font-family="Helvetica,sans-Serif" font-size="10.00">CFAColor</text>
</a>
</g>
</g>
<!-- Node27&#45;&gt;Node26 -->
<g id="edge32" class="edge">
<title>Node27&#45;&gt;Node26</title>
<path fill="none" stroke="#9a32cd" stroke-dasharray="5,2" d="M269.05,-120.1C280.82,-115.18 294.79,-110.23 308,-107.77 358.17,-98.44 416.18,-103.64 458.16,-110.19"/>
<polygon fill="#9a32cd" stroke="#9a32cd" points="267.49,-116.96 259.73,-124.18 270.3,-123.38 267.49,-116.96"/>
<text text-anchor="middle" x="370" y="-110.77" font-family="Helvetica,sans-Serif" font-size="10.00"> keys</text>
</g>
<!-- Node27&#45;&gt;Node30 -->
<g id="edge40" class="edge">
<title>Node27&#45;&gt;Node30</title>
<path fill="none" stroke="#9a32cd" stroke-dasharray="5,2" d="M280.1,-131.87C319.13,-130.82 380.26,-131.41 432,-141.77 443.81,-144.14 472.11,-155 492.61,-163.21"/>
<polygon fill="#9a32cd" stroke="#9a32cd" points="279.59,-128.38 269.71,-132.2 279.82,-135.38 279.59,-128.38"/>
<text text-anchor="middle" x="370" y="-144.77" font-family="Helvetica,sans-Serif" font-size="10.00"> elements</text>
</g>
<!-- Node28&#45;&gt;Node26 -->
<g id="edge34" class="edge">
<title>Node28&#45;&gt;Node26</title>
<path fill="none" stroke="orange" stroke-dasharray="5,2" d="M300.7,-77.12C338.76,-76.17 388.76,-77.42 432,-86.77 451.15,-90.92 471.45,-99.26 487.3,-106.76"/>
<polygon fill="orange" stroke="orange" points="300.18,-73.63 290.3,-77.44 300.4,-80.63 300.18,-73.63"/>
<text text-anchor="middle" x="370" y="-89.77" font-family="Helvetica,sans-Serif" font-size="10.00"> &lt; CFAColor, std::string &gt;</text>
</g>
<!-- Node29 -->
<g id="node29" class="node">
<title>Node29</title>
<g id="a_node29"><a xlink:title=" ">
<polygon fill="none" stroke="#bfbfbf" points="37.5,-71.27 37.5,-90.27 66.5,-90.27 66.5,-71.27 37.5,-71.27"/>
<text text-anchor="middle" x="52" y="-78.27" font-family="Helvetica,sans-Serif" font-size="10.00">K</text>
</a>
</g>
</g>
<!-- Node29&#45;&gt;Node28 -->
<g id="edge35" class="edge">
<title>Node29&#45;&gt;Node28</title>
<path fill="none" stroke="#9a32cd" stroke-dasharray="5,2" d="M76.72,-80.77C104.81,-80.77 152.35,-80.77 188.64,-80.77"/>
<polygon fill="#9a32cd" stroke="#9a32cd" points="76.64,-77.27 66.64,-80.77 76.64,-84.27 76.64,-77.27"/>
<text text-anchor="middle" x="146.5" y="-83.77" font-family="Helvetica,sans-Serif" font-size="10.00"> keys</text>
</g>
<!-- Node30&#45;&gt;Node25 -->
<g id="edge39" class="edge">
<title>Node30&#45;&gt;Node25</title>
<path fill="none" stroke="#9a32cd" stroke-dasharray="5,2" d="M594.1,-177.57C645.36,-180.81 712.55,-185.05 762.94,-188.23"/>
<polygon fill="#9a32cd" stroke="#9a32cd" points="594.27,-174.08 584.07,-176.94 593.83,-181.06 594.27,-174.08"/>
<text text-anchor="middle" x="673" y="-189.77" font-family="Helvetica,sans-Serif" font-size="10.00"> cfa</text>
</g>
<!-- Node31 -->
<g id="node31" class="node">
<title>Node31</title>
<g id="a_node31"><a xlink:title=" ">
<polygon fill="none" stroke="#bfbfbf" points="1071.5,-255.27 1071.5,-274.27 1162.5,-274.27 1162.5,-255.27 1071.5,-255.27"/>
<text text-anchor="middle" x="1117" y="-262.27" font-family="Helvetica,sans-Serif" font-size="10.00">RawImageType</text>
</a>
</g>
</g>
<!-- Node31&#45;&gt;Node1 -->
<g id="edge42" class="edge">
<title>Node31&#45;&gt;Node1</title>
<path fill="none" stroke="#9a32cd" stroke-dasharray="5,2" d="M1172.82,-259.34C1207.82,-258.66 1252.56,-263.25 1285,-285.77 1343.35,-326.28 1366.44,-416.97 1372.65,-446.95"/>
<polygon fill="#9a32cd" stroke="#9a32cd" points="1172.63,-255.84 1162.76,-259.68 1172.87,-262.84 1172.63,-255.84"/>
<text text-anchor="middle" x="1247" y="-288.77" font-family="Helvetica,sans-Serif" font-size="10.00"> dataType</text>
</g>
<!-- Node32&#45;&gt;Node1 -->
<g id="edge43" class="edge">
<title>Node32&#45;&gt;Node1</title>
<path fill="none" stroke="#9a32cd" stroke-dasharray="5,2" d="M901.28,-684.07C973.31,-688.06 1092.86,-688.79 1191,-660.77 1236.91,-647.67 1250.79,-642.08 1285,-608.77 1330.42,-564.56 1360.91,-492.47 1370.91,-466.49"/>
<polygon fill="#9a32cd" stroke="#9a32cd" points="901.19,-680.56 891,-683.46 900.78,-687.55 901.19,-680.56"/>
<text text-anchor="middle" x="1117" y="-685.77" font-family="Helvetica,sans-Serif" font-size="10.00"> blackLevelSeparate</text>
</g>
<!-- Node33 -->
<g id="node33" class="node">
<title>Node33</title>
<g id="a_node33"><a xlink:title=" ">
<polygon fill="none" stroke="#bfbfbf" points="1092,-10.27 1092,-29.27 1142,-29.27 1142,-10.27 1092,-10.27"/>
<text text-anchor="middle" x="1117" y="-17.27" font-family="Helvetica,sans-Serif" font-size="10.00">uint8_t</text>
</a>
</g>
</g>
<!-- Node33&#45;&gt;Node1 -->
<g id="edge50" class="edge">
<title>Node33&#45;&gt;Node1</title>
<path fill="none" stroke="#9a32cd" stroke-dasharray="5,2" d="M1152.02,-8.89C1189.07,0.66 1248,8.76 1285,-21.77 1353.84,-78.58 1371.36,-388.37 1374.09,-447.14"/>
<polygon fill="#9a32cd" stroke="#9a32cd" points="1150.9,-5.56 1142.18,-11.59 1152.75,-12.31 1150.9,-5.56"/>
<text text-anchor="middle" x="1247" y="-35.77" font-family="Helvetica,sans-Serif" font-size="10.00"> mBadPixelMap</text>
<text text-anchor="middle" x="1247" y="-24.77" font-family="Helvetica,sans-Serif" font-size="10.00">data</text>
</g>
</g>
</svg>
        <g id="navigator" transform="translate(0 0)" fill="#404254">
                <rect fill="#f2f5e9" fill-opacity="0.5" stroke="#606060" stroke-width=".5" x="0" y="0" width="60" height="60"/>
                <use id="zoomplus" xlink:href="#zoomPlus" x="17" y="9" onmousedown="handleZoom(evt,'in')"/>
                <use id="zoomminus" xlink:href="#zoomMin" x="42" y="9" onmousedown="handleZoom(evt,'out')"/>
                <use id="reset" xlink:href="#resetDef" x="30" y="36" onmousedown="handleReset()"/>
                <g id="arrowUp" xlink:href="#dirArrow" transform="translate(30 24)" onmousedown="handlePan(0,-1)">
                  <use xlink:href="#rim" fill="#404040">
                        <set attributeName="fill" to="#808080" begin="arrowUp.mouseover" end="arrowUp.mouseout"/>
                  </use>
                  <path fill="none" stroke="white" stroke-width="1.5" d="M0,-3.0v7 M-2.5,-0.5L0,-3.0L2.5,-0.5"/>
                </g>
                <g id="arrowRight" xlink:href="#dirArrow" transform="rotate(90) translate(36 -43)" onmousedown="handlePan(1,0)">
                  <use xlink:href="#rim" fill="#404040">
                        <set attributeName="fill" to="#808080" begin="arrowRight.mouseover" end="arrowRight.mouseout"/>
                  </use>
                  <path fill="none" stroke="white" stroke-width="1.5" d="M0,-3.0v7 M-2.5,-0.5L0,-3.0L2.5,-0.5"/>
                </g>
                <g id="arrowDown" xlink:href="#dirArrow" transform="rotate(180) translate(-30 -48)" onmousedown="handlePan(0,1)">
                  <use xlink:href="#rim" fill="#404040">
                        <set attributeName="fill" to="#808080" begin="arrowDown.mouseover" end="arrowDown.mouseout"/>
                  </use>
                  <path fill="none" stroke="white" stroke-width="1.5" d="M0,-3.0v7 M-2.5,-0.5L0,-3.0L2.5,-0.5"/>
                </g>
                <g id="arrowLeft" xlink:href="#dirArrow" transform="rotate(270) translate(-36 17)" onmousedown="handlePan(-1,0)">
                  <use xlink:href="#rim" fill="#404040">
                        <set attributeName="fill" to="#808080" begin="arrowLeft.mouseover" end="arrowLeft.mouseout"/>
                  </use>
                  <path fill="none" stroke="white" stroke-width="1.5" d="M0,-3.0v7 M-2.5,-0.5L0,-3.0L2.5,-0.5"/>
                </g>
        </g>
        <svg viewBox="0 0 15 15" width="100%" height="30px" preserveAspectRatio="xMaxYMin meet">
         <g id="arrow_out" transform="scale(0.3 0.3)">
          <a xlink:href="classrawspeed_1_1_raw_image_data__coll__graph_org.svg" target="_base">
           <rect id="button" ry="5" rx="5" y="6" x="6" height="38" width="38"
                fill="#f2f5e9" fill-opacity="0.5" stroke="#606060" stroke-width="1.0"/>
           <path id="arrow"
             d="M 11.500037,31.436501 C 11.940474,20.09759 22.043105,11.32322 32.158766,21.979434 L 37.068811,17.246167 C 37.068811,17.246167 37.088388,32 37.088388,32 L 22.160133,31.978069 C 22.160133,31.978069 26.997745,27.140456 26.997745,27.140456 C 18.528582,18.264221 13.291696,25.230495 11.500037,31.436501 z"
             style="fill:#404040;"/>
          </a>
         </g>
        </svg>
</svg>
