<?xml version="1.0" encoding="UTF-8" standalone="no"?>
<!DOCTYPE svg PUBLIC "-//W3C//DTD SVG 1.1//EN"
 "http://www.w3.org/Graphics/SVG/1.1/DTD/svg11.dtd">
<!-- Generated by graphviz version 2.43.0 (0)
 -->
<!-- Title: librawspeed/common/Mutex.h Pages: 1 -->
<svg width="260pt" height="95pt"
 viewBox="0.00 0.00 260.00 95.00" xmlns="http://www.w3.org/2000/svg" xmlns:xlink="http://www.w3.org/1999/xlink">
<g id="graph0" class="graph" transform="scale(1 1) rotate(0) translate(4 91)">
<title>librawspeed/common/Mutex.h</title>
<!-- Node1 -->
<g id="node1" class="node">
<title>Node1</title>
<g id="a_node1"><a xlink:title=" ">
<polygon fill="#bfbfbf" stroke="black" points="57,-56.5 57,-86.5 179,-86.5 179,-56.5 57,-56.5"/>
<text text-anchor="start" x="65" y="-74.5" font-family="Helvetica,sans-Serif" font-size="10.00">librawspeed/common</text>
<text text-anchor="middle" x="118" y="-63.5" font-family="Helvetica,sans-Serif" font-size="10.00">/Mutex.h</text>
</a>
</g>
</g>
<!-- Node2 -->
<g id="node2" class="node">
<title>Node2</title>
<g id="a_node2"><a xlink:title=" ">
<polygon fill="none" stroke="#bfbfbf" points="0,-0.5 0,-19.5 102,-19.5 102,-0.5 0,-0.5"/>
<text text-anchor="middle" x="51" y="-7.5" font-family="Helvetica,sans-Serif" font-size="10.00">rawspeedconfig.h</text>
</a>
</g>
</g>
<!-- Node1&#45;&gt;Node2 -->
<g id="edge1" class="edge">
<title>Node1&#45;&gt;Node2</title>
<path fill="none" stroke="midnightblue" d="M102.12,-56.4C91.98,-47.4 78.84,-35.72 68.41,-26.47"/>
<polygon fill="midnightblue" stroke="midnightblue" points="70.55,-23.68 60.75,-19.66 65.9,-28.92 70.55,-23.68"/>
</g>
<!-- Node3 -->
<g id="node3" class="node">
<title>Node3</title>
<g id="a_node3"><a xlink:href="../../db/d8a/_thread_safety_analysis_8h.html" target="_top" xlink:title=" ">
<polygon fill="none" stroke="black" points="120,-0.5 120,-19.5 252,-19.5 252,-0.5 120,-0.5"/>
<text text-anchor="middle" x="186" y="-7.5" font-family="Helvetica,sans-Serif" font-size="10.00">ThreadSafetyAnalysis.h</text>
</a>
</g>
</g>
<!-- Node1&#45;&gt;Node3 -->
<g id="edge2" class="edge">
<title>Node1&#45;&gt;Node3</title>
<path fill="none" stroke="midnightblue" d="M134.12,-56.4C144.4,-47.4 157.75,-35.72 168.33,-26.47"/>
<polygon fill="midnightblue" stroke="midnightblue" points="170.88,-28.88 176.11,-19.66 166.27,-23.61 170.88,-28.88"/>
</g>
</g>
</svg>
