<?xml version="1.0" encoding="UTF-8" standalone="no"?>
<!DOCTYPE svg PUBLIC "-//W3C//DTD SVG 1.1//EN"
 "http://www.w3.org/Graphics/SVG/1.1/DTD/svg11.dtd">
<!-- Generated by graphviz version 2.43.0 (0)
 -->
<!-- Title: utilities/rstest/md5.cpp Pages: 1 -->
<svg width="275pt" height="140pt"
 viewBox="0.00 0.00 275.00 140.00" xmlns="http://www.w3.org/2000/svg" xmlns:xlink="http://www.w3.org/1999/xlink">
<g id="graph0" class="graph" transform="scale(1 1) rotate(0) translate(4 136)">
<title>utilities/rstest/md5.cpp</title>
<!-- Node1 -->
<g id="node1" class="node">
<title>Node1</title>
<g id="a_node1"><a xlink:title=" ">
<polygon fill="#bfbfbf" stroke="black" points="86.5,-112.5 86.5,-131.5 215.5,-131.5 215.5,-112.5 86.5,-112.5"/>
<text text-anchor="middle" x="151" y="-119.5" font-family="Helvetica,sans-Serif" font-size="10.00">utilities/rstest/md5.cpp</text>
</a>
</g>
</g>
<!-- Node2 -->
<g id="node2" class="node">
<title>Node2</title>
<g id="a_node2"><a xlink:href="../../da/db0/md5_8h.html" target="_top" xlink:title=" ">
<polygon fill="none" stroke="black" points="75.5,-56.5 75.5,-75.5 122.5,-75.5 122.5,-56.5 75.5,-56.5"/>
<text text-anchor="middle" x="99" y="-63.5" font-family="Helvetica,sans-Serif" font-size="10.00">md5.h</text>
</a>
</g>
</g>
<!-- Node1&#45;&gt;Node2 -->
<g id="edge1" class="edge">
<title>Node1&#45;&gt;Node2</title>
<path fill="none" stroke="midnightblue" d="M142.41,-112.08C134.84,-104.22 123.62,-92.57 114.49,-83.08"/>
<polygon fill="midnightblue" stroke="midnightblue" points="116.88,-80.53 107.43,-75.75 111.84,-85.38 116.88,-80.53"/>
</g>
<!-- Node4 -->
<g id="node4" class="node">
<title>Node4</title>
<g id="a_node4"><a xlink:title=" ">
<polygon fill="none" stroke="#bfbfbf" points="0,-0.5 0,-19.5 50,-19.5 50,-0.5 0,-0.5"/>
<text text-anchor="middle" x="25" y="-7.5" font-family="Helvetica,sans-Serif" font-size="10.00">cstdint</text>
</a>
</g>
</g>
<!-- Node1&#45;&gt;Node4 -->
<g id="edge6" class="edge">
<title>Node1&#45;&gt;Node4</title>
<path fill="none" stroke="midnightblue" d="M127.31,-112.39C109.01,-104.88 83.88,-92.57 66,-76 51.51,-62.57 40.07,-42.93 32.99,-28.76"/>
<polygon fill="midnightblue" stroke="midnightblue" points="36.08,-27.11 28.63,-19.57 29.76,-30.11 36.08,-27.11"/>
</g>
<!-- Node5 -->
<g id="node5" class="node">
<title>Node5</title>
<g id="a_node5"><a xlink:title=" ">
<polygon fill="none" stroke="#bfbfbf" points="128,-0.5 128,-19.5 174,-19.5 174,-0.5 128,-0.5"/>
<text text-anchor="middle" x="151" y="-7.5" font-family="Helvetica,sans-Serif" font-size="10.00">cstdio</text>
</a>
</g>
</g>
<!-- Node1&#45;&gt;Node5 -->
<g id="edge7" class="edge">
<title>Node1&#45;&gt;Node5</title>
<path fill="none" stroke="midnightblue" d="M151,-112.37C151,-94.62 151,-53.67 151,-29.6"/>
<polygon fill="midnightblue" stroke="midnightblue" points="154.5,-29.59 151,-19.59 147.5,-29.59 154.5,-29.59"/>
</g>
<!-- Node6 -->
<g id="node6" class="node">
<title>Node6</title>
<g id="a_node6"><a xlink:title=" ">
<polygon fill="none" stroke="#bfbfbf" points="192,-0.5 192,-19.5 236,-19.5 236,-0.5 192,-0.5"/>
<text text-anchor="middle" x="214" y="-7.5" font-family="Helvetica,sans-Serif" font-size="10.00">string</text>
</a>
</g>
</g>
<!-- Node1&#45;&gt;Node6 -->
<g id="edge9" class="edge">
<title>Node1&#45;&gt;Node6</title>
<path fill="none" stroke="midnightblue" d="M155.94,-112.37C166.29,-94.3 190.42,-52.18 204.09,-28.31"/>
<polygon fill="midnightblue" stroke="midnightblue" points="207.15,-30.01 209.08,-19.59 201.07,-26.53 207.15,-30.01"/>
</g>
<!-- Node7 -->
<g id="node7" class="node">
<title>Node7</title>
<g id="a_node7"><a xlink:title=" ">
<polygon fill="none" stroke="#bfbfbf" points="217,-56.5 217,-75.5 267,-75.5 267,-56.5 217,-56.5"/>
<text text-anchor="middle" x="242" y="-63.5" font-family="Helvetica,sans-Serif" font-size="10.00">cstring</text>
</a>
</g>
</g>
<!-- Node1&#45;&gt;Node7 -->
<g id="edge8" class="edge">
<title>Node1&#45;&gt;Node7</title>
<path fill="none" stroke="midnightblue" d="M165.62,-112.32C179.95,-103.82 202.01,-90.73 218.75,-80.8"/>
<polygon fill="midnightblue" stroke="midnightblue" points="220.6,-83.77 227.42,-75.65 217.03,-77.75 220.6,-83.77"/>
</g>
<!-- Node3 -->
<g id="node3" class="node">
<title>Node3</title>
<g id="a_node3"><a xlink:title=" ">
<polygon fill="none" stroke="#bfbfbf" points="68,-0.5 68,-19.5 110,-19.5 110,-0.5 68,-0.5"/>
<text text-anchor="middle" x="89" y="-7.5" font-family="Helvetica,sans-Serif" font-size="10.00">array</text>
</a>
</g>
</g>
<!-- Node2&#45;&gt;Node3 -->
<g id="edge2" class="edge">
<title>Node2&#45;&gt;Node3</title>
<path fill="none" stroke="midnightblue" d="M97.35,-56.08C96.02,-48.93 94.12,-38.64 92.46,-29.69"/>
<polygon fill="midnightblue" stroke="midnightblue" points="95.88,-28.95 90.62,-19.75 89,-30.22 95.88,-28.95"/>
</g>
<!-- Node2&#45;&gt;Node4 -->
<g id="edge3" class="edge">
<title>Node2&#45;&gt;Node4</title>
<path fill="none" stroke="midnightblue" d="M87.11,-56.32C75.85,-48.11 58.71,-35.6 45.29,-25.81"/>
<polygon fill="midnightblue" stroke="midnightblue" points="47.25,-22.9 37.11,-19.83 43.12,-28.56 47.25,-22.9"/>
</g>
<!-- Node2&#45;&gt;Node5 -->
<g id="edge4" class="edge">
<title>Node2&#45;&gt;Node5</title>
<path fill="none" stroke="midnightblue" d="M107.59,-56.08C115.16,-48.22 126.38,-36.57 135.51,-27.08"/>
<polygon fill="midnightblue" stroke="midnightblue" points="138.16,-29.38 142.57,-19.75 133.12,-24.53 138.16,-29.38"/>
</g>
<!-- Node2&#45;&gt;Node6 -->
<g id="edge5" class="edge">
<title>Node2&#45;&gt;Node6</title>
<path fill="none" stroke="midnightblue" d="M117.22,-56.44C135.9,-47.68 165.16,-33.94 186.62,-23.86"/>
<polygon fill="midnightblue" stroke="midnightblue" points="188.3,-26.93 195.86,-19.52 185.32,-20.6 188.3,-26.93"/>
</g>
</g>
</svg>
