<?xml version="1.0" encoding="UTF-8" standalone="no"?>
<!DOCTYPE svg PUBLIC "-//W3C//DTD SVG 1.1//EN"
 "http://www.w3.org/Graphics/SVG/1.1/DTD/svg11.dtd">
<!-- Generated by graphviz version 2.43.0 (0)
 -->
<!-- Title: /build/rawspeed/fuzz/librawspeed/decoders/TiffDecoders/main.cpp Pages: 1 -->
<svg width="3440pt" height="610pt"
 viewBox="0.00 0.00 3440.26 610.00" xmlns="http://www.w3.org/2000/svg" xmlns:xlink="http://www.w3.org/1999/xlink">
<g id="graph0" class="graph" transform="scale(1 1) rotate(0) translate(4 606)">
<title>/build/rawspeed/fuzz/librawspeed/decoders/TiffDecoders/main.cpp</title>
<!-- Node1 -->
<g id="node1" class="node">
<title>Node1</title>
<g id="a_node1"><a xlink:title=" ">
<polygon fill="#bfbfbf" stroke="black" points="1267.5,-560.5 1267.5,-601.5 1396.5,-601.5 1396.5,-560.5 1267.5,-560.5"/>
<text text-anchor="start" x="1275.5" y="-589.5" font-family="Helvetica,sans-Serif" font-size="10.00">/build/rawspeed/fuzz</text>
<text text-anchor="start" x="1275.5" y="-578.5" font-family="Helvetica,sans-Serif" font-size="10.00">/librawspeed/decoders</text>
<text text-anchor="middle" x="1332" y="-567.5" font-family="Helvetica,sans-Serif" font-size="10.00">/TiffDecoders/main.cpp</text>
</a>
</g>
</g>
<!-- Node2 -->
<g id="node2" class="node">
<title>Node2</title>
<g id="a_node2"><a xlink:href="../../d7/d05/_rawspeed_exception_8h.html" target="_top" xlink:title=" ">
<polygon fill="none" stroke="black" points="1206,-112.5 1206,-131.5 1376,-131.5 1376,-112.5 1206,-112.5"/>
<text text-anchor="middle" x="1291" y="-119.5" font-family="Helvetica,sans-Serif" font-size="10.00">common/RawspeedException.h</text>
</a>
</g>
</g>
<!-- Node1&#45;&gt;Node2 -->
<g id="edge1" class="edge">
<title>Node1&#45;&gt;Node2</title>
<path fill="none" stroke="midnightblue" d="M1267.18,-578.87C1038.54,-574.63 277.81,-558.06 174,-524 124.34,-507.71 76,-511.27 76,-459 76,-459 76,-459 76,-289 76,-243.53 112.92,-241.23 155,-224 202.91,-204.38 931.03,-149.39 1195.73,-129.93"/>
<polygon fill="midnightblue" stroke="midnightblue" points="1195.99,-133.42 1205.71,-129.2 1195.48,-126.44 1195.99,-133.42"/>
</g>
<!-- Node6 -->
<g id="node6" class="node">
<title>Node6</title>
<g id="a_node6"><a xlink:title=" ">
<polygon fill="none" stroke="#bfbfbf" points="1095,-0.5 1095,-19.5 1147,-19.5 1147,-0.5 1095,-0.5"/>
<text text-anchor="middle" x="1121" y="-7.5" font-family="Helvetica,sans-Serif" font-size="10.00">cassert</text>
</a>
</g>
</g>
<!-- Node1&#45;&gt;Node6 -->
<g id="edge190" class="edge">
<title>Node1&#45;&gt;Node6</title>
<path fill="none" stroke="midnightblue" d="M1267.42,-580.15C1023.34,-580.31 165.35,-577.06 56,-524 21.69,-507.35 0,-497.13 0,-459 0,-459 0,-459 0,-121 0,-9.32 892.56,-9.36 1084.8,-10.67"/>
<polygon fill="midnightblue" stroke="midnightblue" points="1084.91,-14.17 1094.94,-10.74 1084.97,-7.17 1084.91,-14.17"/>
</g>
<!-- Node8 -->
<g id="node8" class="node">
<title>Node8</title>
<g id="a_node8"><a xlink:title=" ">
<polygon fill="none" stroke="#bfbfbf" points="1961,-0.5 1961,-19.5 2011,-19.5 2011,-0.5 1961,-0.5"/>
<text text-anchor="middle" x="1986" y="-7.5" font-family="Helvetica,sans-Serif" font-size="10.00">cstdint</text>
</a>
</g>
</g>
<!-- Node1&#45;&gt;Node8 -->
<g id="edge191" class="edge">
<title>Node1&#45;&gt;Node8</title>
<path fill="none" stroke="midnightblue" d="M1396.57,-579.74C1749.77,-577.89 3432,-563.59 3432,-459 3432,-459 3432,-459 3432,-401 3432,-221.57 2875.75,-100.76 2702,-56 2571.03,-22.26 2147,-13.38 2021.38,-11.46"/>
<polygon fill="midnightblue" stroke="midnightblue" points="2021.22,-7.96 2011.17,-11.31 2021.12,-14.96 2021.22,-7.96"/>
</g>
<!-- Node16 -->
<g id="node13" class="node">
<title>Node16</title>
<g id="a_node13"><a xlink:title=" ">
<polygon fill="none" stroke="#bfbfbf" points="1117,-56.5 1117,-75.5 1163,-75.5 1163,-56.5 1117,-56.5"/>
<text text-anchor="middle" x="1140" y="-63.5" font-family="Helvetica,sans-Serif" font-size="10.00">cstdio</text>
</a>
</g>
</g>
<!-- Node1&#45;&gt;Node16 -->
<g id="edge192" class="edge">
<title>Node1&#45;&gt;Node16</title>
<path fill="none" stroke="midnightblue" d="M1267.29,-579.87C1028.68,-578.99 206.45,-572.46 100,-524 63.66,-507.46 38,-498.92 38,-459 38,-459 38,-459 38,-289 38,-249.38 63.95,-242.46 99,-224 281.2,-128.06 949.12,-79.38 1106.59,-69.09"/>
<polygon fill="midnightblue" stroke="midnightblue" points="1106.87,-72.58 1116.62,-68.44 1106.41,-65.59 1106.87,-72.58"/>
</g>
<!-- Node18 -->
<g id="node15" class="node">
<title>Node18</title>
<g id="a_node15"><a xlink:href="../../d1/dde/_arw_decoder_8h.html" target="_top" xlink:title=" ">
<polygon fill="none" stroke="black" points="535.5,-448.5 535.5,-467.5 666.5,-467.5 666.5,-448.5 535.5,-448.5"/>
<text text-anchor="middle" x="601" y="-455.5" font-family="Helvetica,sans-Serif" font-size="10.00">decoders/ArwDecoder.h</text>
</a>
</g>
</g>
<!-- Node1&#45;&gt;Node18 -->
<g id="edge14" class="edge">
<title>Node1&#45;&gt;Node18</title>
<path fill="none" stroke="midnightblue" d="M1267.22,-578.99C1101.35,-575.85 670.8,-563.89 621,-524 607.34,-513.06 602.8,-493 601.39,-478.04"/>
<polygon fill="midnightblue" stroke="midnightblue" points="604.87,-477.63 600.82,-467.84 597.88,-478.02 604.87,-477.63"/>
</g>
<!-- Node30 -->
<g id="node17" class="node">
<title>Node30</title>
<g id="a_node17"><a xlink:title=" ">
<polygon fill="none" stroke="#bfbfbf" points="2128,-168.5 2128,-187.5 2186,-187.5 2186,-168.5 2128,-168.5"/>
<text text-anchor="middle" x="2157" y="-175.5" font-family="Helvetica,sans-Serif" font-size="10.00">memory</text>
</a>
</g>
</g>
<!-- Node1&#45;&gt;Node30 -->
<g id="edge193" class="edge">
<title>Node1&#45;&gt;Node30</title>
<path fill="none" stroke="midnightblue" d="M1396.86,-580.19C1669.69,-580.31 2714.6,-573.83 2811,-468 2816.99,-461.43 2816.82,-454.72 2811,-448 2774.25,-405.58 2615.39,-425.87 2561,-412 2552.36,-409.8 2267.7,-304.51 2260,-300 2226.81,-280.56 2218.56,-273.61 2194,-244 2181.98,-229.5 2171.7,-210.57 2165.05,-196.88"/>
<polygon fill="midnightblue" stroke="midnightblue" points="2168.12,-195.17 2160.71,-187.59 2161.78,-198.13 2168.12,-195.17"/>
</g>
<!-- Node36 -->
<g id="node22" class="node">
<title>Node36</title>
<g id="a_node22"><a xlink:title=" ">
<polygon fill="none" stroke="#bfbfbf" points="851.5,-168.5 851.5,-187.5 896.5,-187.5 896.5,-168.5 851.5,-168.5"/>
<text text-anchor="middle" x="874" y="-175.5" font-family="Helvetica,sans-Serif" font-size="10.00">utility</text>
</a>
</g>
</g>
<!-- Node1&#45;&gt;Node36 -->
<g id="edge194" class="edge">
<title>Node1&#45;&gt;Node36</title>
<path fill="none" stroke="midnightblue" d="M1267.37,-580.43C1015.57,-581.24 114,-576.01 114,-459 114,-459 114,-459 114,-345 114,-281.26 135.5,-255.35 191,-224 247.99,-191.81 712.71,-181.7 841.19,-179.5"/>
<polygon fill="midnightblue" stroke="midnightblue" points="841.28,-183 851.22,-179.34 841.16,-176 841.28,-183"/>
</g>
<!-- Node41 -->
<g id="node24" class="node">
<title>Node41</title>
<g id="a_node24"><a xlink:href="../../d7/d1b/_buffer_8h.html" target="_top" xlink:title=" ">
<polygon fill="none" stroke="black" points="1434,-224.5 1434,-243.5 1500,-243.5 1500,-224.5 1434,-224.5"/>
<text text-anchor="middle" x="1467" y="-231.5" font-family="Helvetica,sans-Serif" font-size="10.00">io/Buffer.h</text>
</a>
</g>
</g>
<!-- Node1&#45;&gt;Node41 -->
<g id="edge173" class="edge">
<title>Node1&#45;&gt;Node41</title>
<path fill="none" stroke="midnightblue" d="M1267.25,-577.57C1104.42,-571.12 681.01,-552.1 543,-524 464.68,-508.05 332.82,-512.52 380,-448 428.45,-381.74 475.85,-409.74 556,-392 869.69,-322.57 963.61,-386.6 1273,-300 1294.08,-294.1 1297.48,-287.62 1318,-280 1353.5,-266.81 1394.79,-254.57 1424.89,-246.2"/>
<polygon fill="midnightblue" stroke="midnightblue" points="1425.93,-249.54 1434.64,-243.51 1424.07,-242.8 1425.93,-249.54"/>
</g>
<!-- Node53 -->
<g id="node30" class="node">
<title>Node53</title>
<g id="a_node30"><a xlink:href="../../db/d6a/_cr2_decoder_8h.html" target="_top" xlink:title=" ">
<polygon fill="none" stroke="black" points="1498.5,-448.5 1498.5,-467.5 1627.5,-467.5 1627.5,-448.5 1498.5,-448.5"/>
<text text-anchor="middle" x="1563" y="-455.5" font-family="Helvetica,sans-Serif" font-size="10.00">decoders/Cr2Decoder.h</text>
</a>
</g>
</g>
<!-- Node1&#45;&gt;Node53 -->
<g id="edge76" class="edge">
<title>Node1&#45;&gt;Node53</title>
<path fill="none" stroke="midnightblue" d="M1369.37,-560.42C1416.66,-535.66 1496.83,-493.66 1537.59,-472.31"/>
<polygon fill="midnightblue" stroke="midnightblue" points="1539.36,-475.34 1546.59,-467.6 1536.11,-469.14 1539.36,-475.34"/>
</g>
<!-- Node54 -->
<g id="node31" class="node">
<title>Node54</title>
<g id="a_node31"><a xlink:href="../../d3/d56/_dcr_decoder_8h.html" target="_top" xlink:title=" ">
<polygon fill="none" stroke="black" points="629.5,-504.5 629.5,-523.5 758.5,-523.5 758.5,-504.5 629.5,-504.5"/>
<text text-anchor="middle" x="694" y="-511.5" font-family="Helvetica,sans-Serif" font-size="10.00">decoders/DcrDecoder.h</text>
</a>
</g>
</g>
<!-- Node1&#45;&gt;Node54 -->
<g id="edge81" class="edge">
<title>Node1&#45;&gt;Node54</title>
<path fill="none" stroke="midnightblue" d="M1267.24,-574.04C1164.17,-564.45 956.17,-544.67 768.61,-524.05"/>
<polygon fill="midnightblue" stroke="midnightblue" points="768.89,-520.55 758.56,-522.94 768.12,-527.51 768.89,-520.55"/>
</g>
<!-- Node56 -->
<g id="node33" class="node">
<title>Node56</title>
<g id="a_node33"><a xlink:href="../../db/d7d/_dcs_decoder_8h.html" target="_top" xlink:title=" ">
<polygon fill="none" stroke="black" points="776.5,-504.5 776.5,-523.5 907.5,-523.5 907.5,-504.5 776.5,-504.5"/>
<text text-anchor="middle" x="842" y="-511.5" font-family="Helvetica,sans-Serif" font-size="10.00">decoders/DcsDecoder.h</text>
</a>
</g>
</g>
<!-- Node1&#45;&gt;Node56 -->
<g id="edge90" class="edge">
<title>Node1&#45;&gt;Node56</title>
<path fill="none" stroke="midnightblue" d="M1267.44,-571.44C1176.79,-559.41 1012.21,-537.58 916.5,-524.88"/>
<polygon fill="midnightblue" stroke="midnightblue" points="916.69,-521.38 906.32,-523.53 915.77,-528.32 916.69,-521.38"/>
</g>
<!-- Node57 -->
<g id="node34" class="node">
<title>Node57</title>
<g id="a_node34"><a xlink:href="../../d6/d2a/_dng_decoder_8h.html" target="_top" xlink:title=" ">
<polygon fill="none" stroke="black" points="2372,-448.5 2372,-467.5 2504,-467.5 2504,-448.5 2372,-448.5"/>
<text text-anchor="middle" x="2438" y="-455.5" font-family="Helvetica,sans-Serif" font-size="10.00">decoders/DngDecoder.h</text>
</a>
</g>
</g>
<!-- Node1&#45;&gt;Node57 -->
<g id="edge95" class="edge">
<title>Node1&#45;&gt;Node57</title>
<path fill="none" stroke="midnightblue" d="M1396.79,-573.41C1497.58,-563.12 1698.02,-542.49 1868,-524 2084.88,-500.4 2141.44,-493.83 2361.81,-468.13"/>
<polygon fill="midnightblue" stroke="midnightblue" points="2362.22,-471.61 2371.75,-466.97 2361.41,-464.66 2362.22,-471.61"/>
</g>
<!-- Node58 -->
<g id="node35" class="node">
<title>Node58</title>
<g id="a_node35"><a xlink:href="../../d3/d79/_erf_decoder_8h.html" target="_top" xlink:title=" ">
<polygon fill="none" stroke="black" points="926,-504.5 926,-523.5 1052,-523.5 1052,-504.5 926,-504.5"/>
<text text-anchor="middle" x="989" y="-511.5" font-family="Helvetica,sans-Serif" font-size="10.00">decoders/ErfDecoder.h</text>
</a>
</g>
</g>
<!-- Node1&#45;&gt;Node58 -->
<g id="edge101" class="edge">
<title>Node1&#45;&gt;Node58</title>
<path fill="none" stroke="midnightblue" d="M1267.48,-567.77C1203.09,-555.57 1105.2,-537.02 1044.28,-525.48"/>
<polygon fill="midnightblue" stroke="midnightblue" points="1044.56,-521.97 1034.09,-523.54 1043.26,-528.84 1044.56,-521.97"/>
</g>
<!-- Node59 -->
<g id="node36" class="node">
<title>Node59</title>
<g id="a_node36"><a xlink:href="../../d7/df7/_iiq_decoder_8h.html" target="_top" xlink:title=" ">
<polygon fill="none" stroke="black" points="2228.5,-448.5 2228.5,-467.5 2353.5,-467.5 2353.5,-448.5 2228.5,-448.5"/>
<text text-anchor="middle" x="2291" y="-455.5" font-family="Helvetica,sans-Serif" font-size="10.00">decoders/IiqDecoder.h</text>
</a>
</g>
</g>
<!-- Node1&#45;&gt;Node59 -->
<g id="edge106" class="edge">
<title>Node1&#45;&gt;Node59</title>
<path fill="none" stroke="midnightblue" d="M1396.79,-571.83C1568.99,-550.1 2037.25,-491.02 2218.24,-468.18"/>
<polygon fill="midnightblue" stroke="midnightblue" points="2218.71,-471.65 2228.19,-466.93 2217.83,-464.7 2218.71,-471.65"/>
</g>
<!-- Node60 -->
<g id="node37" class="node">
<title>Node60</title>
<g id="a_node37"><a xlink:href="../../d7/dd2/_kdc_decoder_8h.html" target="_top" xlink:title=" ">
<polygon fill="none" stroke="black" points="1017.5,-448.5 1017.5,-467.5 1148.5,-467.5 1148.5,-448.5 1017.5,-448.5"/>
<text text-anchor="middle" x="1083" y="-455.5" font-family="Helvetica,sans-Serif" font-size="10.00">decoders/KdcDecoder.h</text>
</a>
</g>
</g>
<!-- Node1&#45;&gt;Node60 -->
<g id="edge113" class="edge">
<title>Node1&#45;&gt;Node60</title>
<path fill="none" stroke="midnightblue" d="M1304.66,-560.35C1280.77,-543.79 1244.74,-520.27 1211,-504 1182.53,-490.27 1148.74,-478.57 1123.03,-470.54"/>
<polygon fill="midnightblue" stroke="midnightblue" points="1123.83,-467.13 1113.24,-467.54 1121.78,-473.82 1123.83,-467.13"/>
</g>
<!-- Node61 -->
<g id="node38" class="node">
<title>Node61</title>
<g id="a_node38"><a xlink:href="../../d0/d9a/_mef_decoder_8h.html" target="_top" xlink:title=" ">
<polygon fill="none" stroke="black" points="1070.5,-504.5 1070.5,-523.5 1201.5,-523.5 1201.5,-504.5 1070.5,-504.5"/>
<text text-anchor="middle" x="1136" y="-511.5" font-family="Helvetica,sans-Serif" font-size="10.00">decoders/MefDecoder.h</text>
</a>
</g>
</g>
<!-- Node1&#45;&gt;Node61 -->
<g id="edge119" class="edge">
<title>Node1&#45;&gt;Node61</title>
<path fill="none" stroke="midnightblue" d="M1273.19,-560.5C1240.15,-549.54 1200,-536.22 1171.69,-526.84"/>
<polygon fill="midnightblue" stroke="midnightblue" points="1172.43,-523.39 1161.83,-523.57 1170.22,-530.04 1172.43,-523.39"/>
</g>
<!-- Node62 -->
<g id="node39" class="node">
<title>Node62</title>
<g id="a_node39"><a xlink:href="../../d9/d41/_mos_decoder_8h.html" target="_top" xlink:title=" ">
<polygon fill="none" stroke="black" points="2670,-448.5 2670,-467.5 2802,-467.5 2802,-448.5 2670,-448.5"/>
<text text-anchor="middle" x="2736" y="-455.5" font-family="Helvetica,sans-Serif" font-size="10.00">decoders/MosDecoder.h</text>
</a>
</g>
</g>
<!-- Node1&#45;&gt;Node62 -->
<g id="edge124" class="edge">
<title>Node1&#45;&gt;Node62</title>
<path fill="none" stroke="midnightblue" d="M1396.6,-575.74C1527.37,-567 1832.8,-546.01 2089,-524 2340.14,-502.42 2405.36,-495.84 2659.47,-468.15"/>
<polygon fill="midnightblue" stroke="midnightblue" points="2660.19,-471.59 2669.76,-467.03 2659.44,-464.63 2660.19,-471.59"/>
</g>
<!-- Node63 -->
<g id="node40" class="node">
<title>Node63</title>
<g id="a_node40"><a xlink:href="../../dc/dda/_nef_decoder_8h.html" target="_top" xlink:title=" ">
<polygon fill="none" stroke="black" points="2522,-448.5 2522,-467.5 2652,-467.5 2652,-448.5 2522,-448.5"/>
<text text-anchor="middle" x="2587" y="-455.5" font-family="Helvetica,sans-Serif" font-size="10.00">decoders/NefDecoder.h</text>
</a>
</g>
</g>
<!-- Node1&#45;&gt;Node63 -->
<g id="edge129" class="edge">
<title>Node1&#45;&gt;Node63</title>
<path fill="none" stroke="midnightblue" d="M1396.53,-574.69C1512,-565.12 1761.6,-544.09 1972,-524 2209.34,-501.33 2271.11,-495.2 2511.54,-468.15"/>
<polygon fill="midnightblue" stroke="midnightblue" points="2512.09,-471.61 2521.64,-467.01 2511.31,-464.65 2512.09,-471.61"/>
</g>
<!-- Node64 -->
<g id="node41" class="node">
<title>Node64</title>
<g id="a_node41"><a xlink:href="../../dc/d29/_orf_decoder_8h.html" target="_top" xlink:title=" ">
<polygon fill="none" stroke="black" points="389,-448.5 389,-467.5 517,-467.5 517,-448.5 389,-448.5"/>
<text text-anchor="middle" x="453" y="-455.5" font-family="Helvetica,sans-Serif" font-size="10.00">decoders/OrfDecoder.h</text>
</a>
</g>
</g>
<!-- Node1&#45;&gt;Node64 -->
<g id="edge139" class="edge">
<title>Node1&#45;&gt;Node64</title>
<path fill="none" stroke="midnightblue" d="M1267.28,-577.78C1113.18,-572.04 728.06,-554.97 603,-524 556.47,-512.48 506.04,-487.86 477.11,-472.45"/>
<polygon fill="midnightblue" stroke="midnightblue" points="478.63,-469.29 468.17,-467.61 475.29,-475.44 478.63,-469.29"/>
</g>
<!-- Node65 -->
<g id="node42" class="node">
<title>Node65</title>
<g id="a_node42"><a xlink:href="../../d5/dcc/_pef_decoder_8h.html" target="_top" xlink:title=" ">
<polygon fill="none" stroke="black" points="1314,-448.5 1314,-467.5 1442,-467.5 1442,-448.5 1314,-448.5"/>
<text text-anchor="middle" x="1378" y="-455.5" font-family="Helvetica,sans-Serif" font-size="10.00">decoders/PefDecoder.h</text>
</a>
</g>
</g>
<!-- Node1&#45;&gt;Node65 -->
<g id="edge146" class="edge">
<title>Node1&#45;&gt;Node65</title>
<path fill="none" stroke="midnightblue" d="M1339.49,-560.29C1348.24,-537.27 1362.6,-499.5 1371.09,-477.17"/>
<polygon fill="midnightblue" stroke="midnightblue" points="1374.46,-478.17 1374.74,-467.57 1367.92,-475.68 1374.46,-478.17"/>
</g>
<!-- Node66 -->
<g id="node43" class="node">
<title>Node66</title>
<g id="a_node43"><a xlink:href="../../de/d30/_raf_decoder_8h.html" target="_top" xlink:title=" ">
<polygon fill="none" stroke="black" points="1166.5,-448.5 1166.5,-467.5 1295.5,-467.5 1295.5,-448.5 1166.5,-448.5"/>
<text text-anchor="middle" x="1231" y="-455.5" font-family="Helvetica,sans-Serif" font-size="10.00">decoders/RafDecoder.h</text>
</a>
</g>
</g>
<!-- Node1&#45;&gt;Node66 -->
<g id="edge151" class="edge">
<title>Node1&#45;&gt;Node66</title>
<path fill="none" stroke="midnightblue" d="M1320.32,-560.38C1310.45,-544.49 1295.49,-521.88 1280,-504 1270.76,-493.33 1259.17,-482.6 1249.59,-474.29"/>
<polygon fill="midnightblue" stroke="midnightblue" points="1251.68,-471.47 1241.79,-467.67 1247.15,-476.81 1251.68,-471.47"/>
</g>
<!-- Node67 -->
<g id="node44" class="node">
<title>Node67</title>
<g id="a_node44"><a xlink:href="../../de/d21/_rw2_decoder_8h.html" target="_top" xlink:title=" ">
<polygon fill="none" stroke="black" points="1850,-448.5 1850,-467.5 1984,-467.5 1984,-448.5 1850,-448.5"/>
<text text-anchor="middle" x="1917" y="-455.5" font-family="Helvetica,sans-Serif" font-size="10.00">decoders/Rw2Decoder.h</text>
</a>
</g>
</g>
<!-- Node1&#45;&gt;Node67 -->
<g id="edge156" class="edge">
<title>Node1&#45;&gt;Node67</title>
<path fill="none" stroke="midnightblue" d="M1396.56,-566.65C1513.72,-542.41 1759.07,-491.67 1865.7,-469.61"/>
<polygon fill="midnightblue" stroke="midnightblue" points="1866.49,-473.02 1875.57,-467.57 1865.07,-466.17 1866.49,-473.02"/>
</g>
<!-- Node68 -->
<g id="node45" class="node">
<title>Node68</title>
<g id="a_node45"><a xlink:href="../../db/daa/_srw_decoder_8h.html" target="_top" xlink:title=" ">
<polygon fill="none" stroke="black" points="2002.5,-448.5 2002.5,-467.5 2133.5,-467.5 2133.5,-448.5 2002.5,-448.5"/>
<text text-anchor="middle" x="2068" y="-455.5" font-family="Helvetica,sans-Serif" font-size="10.00">decoders/SrwDecoder.h</text>
</a>
</g>
</g>
<!-- Node1&#45;&gt;Node68 -->
<g id="edge162" class="edge">
<title>Node1&#45;&gt;Node68</title>
<path fill="none" stroke="midnightblue" d="M1396.67,-569.37C1537.15,-546.27 1868.59,-491.78 2006.32,-469.14"/>
<polygon fill="midnightblue" stroke="midnightblue" points="2006.99,-472.58 2016.29,-467.5 2005.85,-465.67 2006.99,-472.58"/>
</g>
<!-- Node69 -->
<g id="node46" class="node">
<title>Node69</title>
<g id="a_node46"><a xlink:href="../../d8/da1/_threefr_decoder_8h.html" target="_top" xlink:title=" ">
<polygon fill="none" stroke="black" points="1684,-448.5 1684,-467.5 1832,-467.5 1832,-448.5 1684,-448.5"/>
<text text-anchor="middle" x="1758" y="-455.5" font-family="Helvetica,sans-Serif" font-size="10.00">decoders/ThreefrDecoder.h</text>
</a>
</g>
</g>
<!-- Node1&#45;&gt;Node69 -->
<g id="edge168" class="edge">
<title>Node1&#45;&gt;Node69</title>
<path fill="none" stroke="midnightblue" d="M1396.7,-561.62C1485.95,-536.27 1644.18,-491.33 1718,-470.36"/>
<polygon fill="midnightblue" stroke="midnightblue" points="1719.17,-473.67 1727.84,-467.57 1717.26,-466.93 1719.17,-473.67"/>
</g>
<!-- Node70 -->
<g id="node47" class="node">
<title>Node70</title>
<g id="a_node47"><a xlink:href="../../da/d1d/_camera_meta_data_8h.html" target="_top" xlink:title=" ">
<polygon fill="none" stroke="black" points="2810.5,-280.5 2810.5,-299.5 2971.5,-299.5 2971.5,-280.5 2810.5,-280.5"/>
<text text-anchor="middle" x="2891" y="-287.5" font-family="Helvetica,sans-Serif" font-size="10.00">metadata/CameraMetaData.h</text>
</a>
</g>
</g>
<!-- Node1&#45;&gt;Node70 -->
<g id="edge174" class="edge">
<title>Node1&#45;&gt;Node70</title>
<path fill="none" stroke="midnightblue" d="M1396.62,-579.77C1669.95,-578.52 2723.5,-570.67 2864,-524 2947.07,-496.41 2985.35,-489.52 3026,-412 3041.69,-382.09 3045.75,-363.4 3026,-336 3014.32,-319.8 2996.56,-309.34 2977.71,-302.62"/>
<polygon fill="midnightblue" stroke="midnightblue" points="2978.69,-299.25 2968.1,-299.52 2976.54,-305.92 2978.69,-299.25"/>
</g>
<!-- Node72 -->
<g id="node49" class="node">
<title>Node72</title>
<g id="a_node49"><a xlink:href="../../d3/dc8/_tiff_parser_8h.html" target="_top" xlink:title=" ">
<polygon fill="none" stroke="black" points="2570,-392.5 2570,-411.5 2680,-411.5 2680,-392.5 2570,-392.5"/>
<text text-anchor="middle" x="2625" y="-399.5" font-family="Helvetica,sans-Serif" font-size="10.00">parsers/TiffParser.h</text>
</a>
</g>
</g>
<!-- Node1&#45;&gt;Node72 -->
<g id="edge182" class="edge">
<title>Node1&#45;&gt;Node72</title>
<path fill="none" stroke="midnightblue" d="M1396.93,-580.08C1679.85,-580.1 2793.11,-576.81 2844,-524 2867.44,-499.68 2865.35,-474.18 2844,-448 2824.85,-424.52 2747.6,-412.94 2690.25,-407.48"/>
<polygon fill="midnightblue" stroke="midnightblue" points="2690.42,-403.98 2680.15,-406.56 2689.79,-410.95 2690.42,-403.98"/>
</g>
<!-- Node3 -->
<g id="node3" class="node">
<title>Node3</title>
<g id="a_node3"><a xlink:title=" ">
<polygon fill="none" stroke="#bfbfbf" points="1818,-56.5 1818,-75.5 1920,-75.5 1920,-56.5 1818,-56.5"/>
<text text-anchor="middle" x="1869" y="-63.5" font-family="Helvetica,sans-Serif" font-size="10.00">rawspeedconfig.h</text>
</a>
</g>
</g>
<!-- Node2&#45;&gt;Node3 -->
<g id="edge2" class="edge">
<title>Node2&#45;&gt;Node3</title>
<path fill="none" stroke="midnightblue" d="M1376.29,-113.03C1494.2,-102.02 1704.17,-82.4 1807.75,-72.72"/>
<polygon fill="midnightblue" stroke="midnightblue" points="1808.11,-76.2 1817.74,-71.79 1807.46,-69.23 1808.11,-76.2"/>
</g>
<!-- Node4 -->
<g id="node4" class="node">
<title>Node4</title>
<g id="a_node4"><a xlink:href="../../d9/df5/src_2librawspeed_2common_2_common_8h.html" target="_top" xlink:title=" ">
<polygon fill="none" stroke="red" points="1532,-56.5 1532,-75.5 1648,-75.5 1648,-56.5 1532,-56.5"/>
<text text-anchor="middle" x="1590" y="-63.5" font-family="Helvetica,sans-Serif" font-size="10.00">common/Common.h</text>
</a>
</g>
</g>
<!-- Node2&#45;&gt;Node4 -->
<g id="edge3" class="edge">
<title>Node2&#45;&gt;Node4</title>
<path fill="none" stroke="midnightblue" d="M1338.38,-112.44C1391.08,-102.92 1476.23,-87.55 1532.66,-77.36"/>
<polygon fill="midnightblue" stroke="midnightblue" points="1533.63,-80.74 1542.84,-75.52 1532.38,-73.85 1533.63,-80.74"/>
</g>
<!-- Node14 -->
<g id="node11" class="node">
<title>Node14</title>
<g id="a_node11"><a xlink:title=" ">
<polygon fill="none" stroke="#bfbfbf" points="2180,-56.5 2180,-75.5 2222,-75.5 2222,-56.5 2180,-56.5"/>
<text text-anchor="middle" x="2201" y="-63.5" font-family="Helvetica,sans-Serif" font-size="10.00">array</text>
</a>
</g>
</g>
<!-- Node2&#45;&gt;Node14 -->
<g id="edge10" class="edge">
<title>Node2&#45;&gt;Node14</title>
<path fill="none" stroke="midnightblue" d="M1376.2,-115.94C1571.33,-104.37 2043.49,-76.35 2169.6,-68.86"/>
<polygon fill="midnightblue" stroke="midnightblue" points="2169.95,-72.35 2179.73,-68.26 2169.54,-65.36 2169.95,-72.35"/>
</g>
<!-- Node15 -->
<g id="node12" class="node">
<title>Node15</title>
<g id="a_node12"><a xlink:title=" ">
<polygon fill="none" stroke="#bfbfbf" points="1322.5,-56.5 1322.5,-75.5 1375.5,-75.5 1375.5,-56.5 1322.5,-56.5"/>
<text text-anchor="middle" x="1349" y="-63.5" font-family="Helvetica,sans-Serif" font-size="10.00">cstdarg</text>
</a>
</g>
</g>
<!-- Node2&#45;&gt;Node15 -->
<g id="edge11" class="edge">
<title>Node2&#45;&gt;Node15</title>
<path fill="none" stroke="midnightblue" d="M1300.32,-112.32C1308.89,-104.34 1321.81,-92.31 1332.19,-82.65"/>
<polygon fill="midnightblue" stroke="midnightblue" points="1334.58,-85.21 1339.51,-75.83 1329.81,-80.09 1334.58,-85.21"/>
</g>
<!-- Node2&#45;&gt;Node16 -->
<g id="edge12" class="edge">
<title>Node2&#45;&gt;Node16</title>
<path fill="none" stroke="midnightblue" d="M1267.07,-112.44C1241.63,-103.35 1201.23,-88.9 1172.82,-78.74"/>
<polygon fill="midnightblue" stroke="midnightblue" points="1173.91,-75.41 1163.32,-75.34 1171.56,-82 1173.91,-75.41"/>
</g>
<!-- Node17 -->
<g id="node14" class="node">
<title>Node17</title>
<g id="a_node14"><a xlink:title=" ">
<polygon fill="none" stroke="#bfbfbf" points="1239.5,-56.5 1239.5,-75.5 1304.5,-75.5 1304.5,-56.5 1239.5,-56.5"/>
<text text-anchor="middle" x="1272" y="-63.5" font-family="Helvetica,sans-Serif" font-size="10.00">stdexcept</text>
</a>
</g>
</g>
<!-- Node2&#45;&gt;Node17 -->
<g id="edge13" class="edge">
<title>Node2&#45;&gt;Node17</title>
<path fill="none" stroke="midnightblue" d="M1287.86,-112.08C1285.32,-104.85 1281.64,-94.41 1278.47,-85.4"/>
<polygon fill="midnightblue" stroke="midnightblue" points="1281.7,-84.02 1275.08,-75.75 1275.1,-86.35 1281.7,-84.02"/>
</g>
<!-- Node5 -->
<g id="node5" class="node">
<title>Node5</title>
<g id="a_node5"><a xlink:title=" ">
<polygon fill="none" stroke="#bfbfbf" points="1595,-0.5 1595,-19.5 1659,-19.5 1659,-0.5 1595,-0.5"/>
<text text-anchor="middle" x="1627" y="-7.5" font-family="Helvetica,sans-Serif" font-size="10.00">algorithm</text>
</a>
</g>
</g>
<!-- Node4&#45;&gt;Node5 -->
<g id="edge4" class="edge">
<title>Node4&#45;&gt;Node5</title>
<path fill="none" stroke="midnightblue" d="M1596.11,-56.08C1601.28,-48.53 1608.85,-37.49 1615.19,-28.23"/>
<polygon fill="midnightblue" stroke="midnightblue" points="1618.24,-29.98 1621,-19.75 1612.46,-26.02 1618.24,-29.98"/>
</g>
<!-- Node4&#45;&gt;Node6 -->
<g id="edge5" class="edge">
<title>Node4&#45;&gt;Node6</title>
<path fill="none" stroke="midnightblue" d="M1531.55,-58.27C1433.32,-46.96 1237.96,-24.47 1157.22,-15.17"/>
<polygon fill="midnightblue" stroke="midnightblue" points="1157.39,-11.67 1147.05,-14 1156.59,-18.62 1157.39,-11.67"/>
</g>
<!-- Node7 -->
<g id="node7" class="node">
<title>Node7</title>
<g id="a_node7"><a xlink:title=" ">
<polygon fill="none" stroke="#bfbfbf" points="1527,-0.5 1527,-19.5 1577,-19.5 1577,-0.5 1527,-0.5"/>
<text text-anchor="middle" x="1552" y="-7.5" font-family="Helvetica,sans-Serif" font-size="10.00">climits</text>
</a>
</g>
</g>
<!-- Node4&#45;&gt;Node7 -->
<g id="edge6" class="edge">
<title>Node4&#45;&gt;Node7</title>
<path fill="none" stroke="midnightblue" d="M1583.73,-56.08C1578.36,-48.46 1570.48,-37.26 1563.92,-27.94"/>
<polygon fill="midnightblue" stroke="midnightblue" points="1566.78,-25.91 1558.16,-19.75 1561.05,-29.94 1566.78,-25.91"/>
</g>
<!-- Node4&#45;&gt;Node8 -->
<g id="edge7" class="edge">
<title>Node4&#45;&gt;Node8</title>
<path fill="none" stroke="midnightblue" d="M1648.01,-57.09C1731.21,-45.74 1881.92,-25.19 1950.41,-15.85"/>
<polygon fill="midnightblue" stroke="midnightblue" points="1951.24,-19.27 1960.68,-14.45 1950.3,-12.34 1951.24,-19.27"/>
</g>
<!-- Node11 -->
<g id="node9" class="node">
<title>Node11</title>
<g id="a_node9"><a xlink:title=" ">
<polygon fill="none" stroke="#bfbfbf" points="3182,-0.5 3182,-19.5 3226,-19.5 3226,-0.5 3182,-0.5"/>
<text text-anchor="middle" x="3204" y="-7.5" font-family="Helvetica,sans-Serif" font-size="10.00">string</text>
</a>
</g>
</g>
<!-- Node4&#45;&gt;Node11 -->
<g id="edge8" class="edge">
<title>Node4&#45;&gt;Node11</title>
<path fill="none" stroke="midnightblue" d="M1648.09,-62.47C1692.23,-60.59 1754.43,-58 1809,-56 2354.08,-36.01 3019.13,-16.38 3171.75,-11.93"/>
<polygon fill="midnightblue" stroke="midnightblue" points="3171.95,-15.43 3181.85,-11.64 3171.75,-8.43 3171.95,-15.43"/>
</g>
<!-- Node13 -->
<g id="node10" class="node">
<title>Node13</title>
<g id="a_node10"><a xlink:title=" ">
<polygon fill="none" stroke="#bfbfbf" points="2798.5,-0.5 2798.5,-19.5 2845.5,-19.5 2845.5,-0.5 2798.5,-0.5"/>
<text text-anchor="middle" x="2822" y="-7.5" font-family="Helvetica,sans-Serif" font-size="10.00">vector</text>
</a>
</g>
</g>
<!-- Node4&#45;&gt;Node13 -->
<g id="edge9" class="edge">
<title>Node4&#45;&gt;Node13</title>
<path fill="none" stroke="midnightblue" d="M1648.18,-62.45C1864.61,-52.96 2619.41,-19.88 2788.3,-12.48"/>
<polygon fill="midnightblue" stroke="midnightblue" points="2788.51,-15.97 2798.35,-12.04 2788.2,-8.98 2788.51,-15.97"/>
</g>
<!-- Node18&#45;&gt;Node8 -->
<g id="edge74" class="edge">
<title>Node18&#45;&gt;Node8</title>
<path fill="none" stroke="midnightblue" d="M606.84,-448.06C616.83,-433.57 638.7,-405.28 665,-392 697.26,-375.71 1273.5,-306.79 1309,-300 1413.61,-280 1442.18,-281.14 1542,-244 1643.72,-206.16 1678.32,-204.59 1759,-132 1789.06,-104.96 1776.07,-79.46 1809,-56 1851.49,-25.73 1912.48,-15.78 1950.63,-12.54"/>
<polygon fill="midnightblue" stroke="midnightblue" points="1951.04,-16.02 1960.75,-11.79 1950.52,-9.04 1951.04,-16.02"/>
</g>
<!-- Node19 -->
<g id="node16" class="node">
<title>Node19</title>
<g id="a_node16"><a xlink:href="../../d6/da1/_raw_image_8h.html" target="_top" xlink:title=" ">
<polygon fill="none" stroke="red" points="2005.5,-280.5 2005.5,-299.5 2128.5,-299.5 2128.5,-280.5 2005.5,-280.5"/>
<text text-anchor="middle" x="2067" y="-287.5" font-family="Helvetica,sans-Serif" font-size="10.00">common/RawImage.h</text>
</a>
</g>
</g>
<!-- Node18&#45;&gt;Node19 -->
<g id="edge15" class="edge">
<title>Node18&#45;&gt;Node19</title>
<path fill="none" stroke="midnightblue" d="M612,-448.45C631.25,-434.01 672.81,-405.09 713,-392 770.15,-373.39 1191.09,-340.77 1251,-336 1525.41,-314.16 1852.58,-299.58 1994.92,-293.8"/>
<polygon fill="midnightblue" stroke="midnightblue" points="1995.41,-297.28 2005.26,-293.38 1995.12,-290.29 1995.41,-297.28"/>
</g>
<!-- Node31 -->
<g id="node18" class="node">
<title>Node31</title>
<g id="a_node18"><a xlink:href="../../d5/db8/_abstract_tiff_decoder_8h.html" target="_top" xlink:title=" ">
<polygon fill="none" stroke="red" points="1699.5,-392.5 1699.5,-411.5 1868.5,-411.5 1868.5,-392.5 1699.5,-392.5"/>
<text text-anchor="middle" x="1784" y="-399.5" font-family="Helvetica,sans-Serif" font-size="10.00">decoders/AbstractTiffDecoder.h</text>
</a>
</g>
</g>
<!-- Node18&#45;&gt;Node31 -->
<g id="edge24" class="edge">
<title>Node18&#45;&gt;Node31</title>
<path fill="none" stroke="midnightblue" d="M666.77,-452.85C693.24,-451.24 724.07,-449.44 752,-448 1097.18,-430.19 1507.55,-413.69 1689.3,-406.62"/>
<polygon fill="midnightblue" stroke="midnightblue" points="1689.51,-410.12 1699.37,-406.23 1689.24,-403.12 1689.51,-410.12"/>
</g>
<!-- Node18&#45;&gt;Node36 -->
<g id="edge75" class="edge">
<title>Node18&#45;&gt;Node36</title>
<path fill="none" stroke="midnightblue" d="M569.54,-448.48C526.89,-434.8 456,-403.56 456,-347 456,-347 456,-347 456,-289 456,-209.45 742.73,-186.21 841.23,-180.58"/>
<polygon fill="midnightblue" stroke="midnightblue" points="841.44,-184.07 851.23,-180.03 841.05,-177.09 841.44,-184.07"/>
</g>
<!-- Node37 -->
<g id="node23" class="node">
<title>Node37</title>
<g id="a_node23"><a xlink:href="../../db/d5e/_tiff_i_f_d_8h.html" target="_top" xlink:title=" ">
<polygon fill="none" stroke="red" points="1260,-336.5 1260,-355.5 1334,-355.5 1334,-336.5 1260,-336.5"/>
<text text-anchor="middle" x="1297" y="-343.5" font-family="Helvetica,sans-Serif" font-size="10.00">tiff/TiffIFD.h</text>
</a>
</g>
</g>
<!-- Node18&#45;&gt;Node37 -->
<g id="edge73" class="edge">
<title>Node18&#45;&gt;Node37</title>
<path fill="none" stroke="midnightblue" d="M620.03,-448.42C652.78,-434.07 722.23,-405.45 784,-392 828.78,-382.25 1130.98,-359.25 1249.47,-350.48"/>
<polygon fill="midnightblue" stroke="midnightblue" points="1249.97,-353.95 1259.68,-349.72 1249.45,-346.97 1249.97,-353.95"/>
</g>
<!-- Node47 -->
<g id="node29" class="node">
<title>Node47</title>
<g id="a_node29"><a xlink:href="../../d7/de7/_byte_stream_8h.html" target="_top" xlink:title=" ">
<polygon fill="none" stroke="red" points="1168.5,-280.5 1168.5,-299.5 1263.5,-299.5 1263.5,-280.5 1168.5,-280.5"/>
<text text-anchor="middle" x="1216" y="-287.5" font-family="Helvetica,sans-Serif" font-size="10.00">io/ByteStream.h</text>
</a>
</g>
</g>
<!-- Node18&#45;&gt;Node47 -->
<g id="edge72" class="edge">
<title>Node18&#45;&gt;Node47</title>
<path fill="none" stroke="midnightblue" d="M596.44,-448.25C590.02,-434.54 580.49,-407.92 594,-392 625.77,-354.56 763.84,-365.57 812,-356 850.49,-348.35 859.42,-343.2 898,-336 988.34,-319.14 1094.17,-305.33 1158.1,-297.64"/>
<polygon fill="midnightblue" stroke="midnightblue" points="1158.86,-301.08 1168.38,-296.41 1158.03,-294.12 1158.86,-301.08"/>
</g>
<!-- Node19&#45;&gt;Node3 -->
<g id="edge16" class="edge">
<title>Node19&#45;&gt;Node3</title>
<path fill="none" stroke="midnightblue" d="M2054.54,-280.44C2042.52,-271.9 2024.12,-258.06 2010,-244 1956.28,-190.51 1903.44,-117.1 1880.67,-84.19"/>
<polygon fill="midnightblue" stroke="midnightblue" points="1883.38,-81.95 1874.83,-75.68 1877.6,-85.91 1883.38,-81.95"/>
</g>
<!-- Node19&#45;&gt;Node4 -->
<g id="edge17" class="edge">
<title>Node19&#45;&gt;Node4</title>
<path fill="none" stroke="midnightblue" d="M2005.47,-284.91C1908.28,-275.14 1719.18,-242.27 1611,-132 1598.94,-119.71 1593.81,-100.45 1591.62,-86.08"/>
<polygon fill="midnightblue" stroke="midnightblue" points="1595.06,-85.36 1590.42,-75.84 1588.11,-86.17 1595.06,-85.36"/>
</g>
<!-- Node19&#45;&gt;Node6 -->
<g id="edge19" class="edge">
<title>Node19&#45;&gt;Node6</title>
<path fill="none" stroke="midnightblue" d="M2005.29,-289.27C1827.4,-288.93 1317.74,-279.78 1184,-188 1134.4,-153.96 1125.67,-133.5 1108,-76 1103.2,-60.38 1107.73,-42.08 1112.71,-28.89"/>
<polygon fill="midnightblue" stroke="midnightblue" points="1115.99,-30.12 1116.63,-19.55 1109.53,-27.41 1115.99,-30.12"/>
</g>
<!-- Node19&#45;&gt;Node8 -->
<g id="edge20" class="edge">
<title>Node19&#45;&gt;Node8</title>
<path fill="none" stroke="midnightblue" d="M2061.02,-280.33C2049.21,-262.32 2024,-219.19 2024,-179 2024,-179 2024,-179 2024,-121 2024,-86.81 2007.4,-49.76 1996.14,-28.57"/>
<polygon fill="midnightblue" stroke="midnightblue" points="1999.18,-26.83 1991.28,-19.77 1993.05,-30.22 1999.18,-26.83"/>
</g>
<!-- Node19&#45;&gt;Node11 -->
<g id="edge22" class="edge">
<title>Node19&#45;&gt;Node11</title>
<path fill="none" stroke="midnightblue" d="M2128.6,-289.37C2282.94,-289.63 2682.78,-286.1 2808,-244 2950.78,-196 2956.53,-125.82 3090,-56 3116.77,-42 3148.91,-29.68 3172.24,-21.49"/>
<polygon fill="midnightblue" stroke="midnightblue" points="3173.65,-24.71 3181.96,-18.14 3171.37,-18.09 3173.65,-24.71"/>
</g>
<!-- Node19&#45;&gt;Node13 -->
<g id="edge23" class="edge">
<title>Node19&#45;&gt;Node13</title>
<path fill="none" stroke="midnightblue" d="M2090.42,-280.38C2199.96,-240.04 2661.68,-70.03 2789.24,-23.06"/>
<polygon fill="midnightblue" stroke="midnightblue" points="2790.67,-26.26 2798.85,-19.52 2788.26,-19.7 2790.67,-26.26"/>
</g>
<!-- Node19&#45;&gt;Node14 -->
<g id="edge18" class="edge">
<title>Node19&#45;&gt;Node14</title>
<path fill="none" stroke="midnightblue" d="M2069.77,-280.4C2076.54,-260.01 2095.1,-207.52 2119,-168 2138.65,-135.51 2167.86,-102.13 2185.59,-83.05"/>
<polygon fill="midnightblue" stroke="midnightblue" points="2188.33,-85.24 2192.64,-75.56 2183.24,-80.44 2188.33,-85.24"/>
</g>
<!-- Node19&#45;&gt;Node30 -->
<g id="edge21" class="edge">
<title>Node19&#45;&gt;Node30</title>
<path fill="none" stroke="midnightblue" d="M2074.06,-280.37C2089.05,-262.05 2124.23,-219.05 2143.61,-195.36"/>
<polygon fill="midnightblue" stroke="midnightblue" points="2146.35,-197.55 2149.97,-187.59 2140.93,-193.11 2146.35,-197.55"/>
</g>
<!-- Node31&#45;&gt;Node11 -->
<g id="edge70" class="edge">
<title>Node31&#45;&gt;Node11</title>
<path fill="none" stroke="midnightblue" d="M1868.79,-400.54C2123.36,-398.22 2877.47,-384.23 3106,-300 3181.91,-272.02 3242,-259.9 3242,-179 3242,-179 3242,-179 3242,-121 3242,-86.81 3225.4,-49.76 3214.14,-28.57"/>
<polygon fill="midnightblue" stroke="midnightblue" points="3217.18,-26.83 3209.28,-19.77 3211.05,-30.22 3217.18,-26.83"/>
</g>
<!-- Node31&#45;&gt;Node30 -->
<g id="edge69" class="edge">
<title>Node31&#45;&gt;Node30</title>
<path fill="none" stroke="midnightblue" d="M1840.1,-392.46C1929.59,-377.66 2098.62,-344.52 2138,-300 2163.16,-271.56 2162.46,-223.92 2159.74,-197.71"/>
<polygon fill="midnightblue" stroke="midnightblue" points="2163.19,-197.09 2158.48,-187.61 2156.25,-197.96 2163.19,-197.09"/>
</g>
<!-- Node32 -->
<g id="node19" class="node">
<title>Node32</title>
<g id="a_node19"><a xlink:href="../../d8/dff/_raw_decoder_8h.html" target="_top" xlink:title=" ">
<polygon fill="none" stroke="black" points="2652,-336.5 2652,-355.5 2786,-355.5 2786,-336.5 2652,-336.5"/>
<text text-anchor="middle" x="2719" y="-343.5" font-family="Helvetica,sans-Serif" font-size="10.00">decoders/RawDecoder.h</text>
</a>
</g>
</g>
<!-- Node31&#45;&gt;Node32 -->
<g id="edge25" class="edge">
<title>Node31&#45;&gt;Node32</title>
<path fill="none" stroke="midnightblue" d="M1868.59,-396.19C2012.18,-388.01 2312.81,-370.83 2567,-356 2591.25,-354.59 2617.67,-353.03 2641.58,-351.61"/>
<polygon fill="midnightblue" stroke="midnightblue" points="2641.88,-355.1 2651.66,-351.01 2641.47,-348.11 2641.88,-355.1"/>
</g>
<!-- Node31&#45;&gt;Node36 -->
<g id="edge71" class="edge">
<title>Node31&#45;&gt;Node36</title>
<path fill="none" stroke="midnightblue" d="M1699.08,-400.15C1593.13,-397.65 1406.91,-388.5 1251,-356 1223.89,-350.35 1218.55,-343.85 1192,-336 1129.57,-317.53 1102.69,-338.25 1050,-300 1017.67,-276.53 1033.25,-248.9 1002,-224 974.07,-201.74 934.32,-190.06 906.55,-184.24"/>
<polygon fill="midnightblue" stroke="midnightblue" points="907.03,-180.77 896.54,-182.29 905.69,-187.64 907.03,-180.77"/>
</g>
<!-- Node31&#45;&gt;Node37 -->
<g id="edge37" class="edge">
<title>Node31&#45;&gt;Node37</title>
<path fill="none" stroke="midnightblue" d="M1699.38,-394.08C1611.38,-386.46 1469.71,-373 1348,-356 1346.75,-355.83 1345.48,-355.64 1344.2,-355.45"/>
<polygon fill="midnightblue" stroke="midnightblue" points="1344.7,-351.99 1334.27,-353.9 1343.61,-358.9 1344.7,-351.99"/>
</g>
<!-- Node32&#45;&gt;Node4 -->
<g id="edge26" class="edge">
<title>Node32&#45;&gt;Node4</title>
<path fill="none" stroke="midnightblue" d="M2660.23,-336.47C2597.14,-326.98 2501.21,-311.46 2466,-300 2338.6,-258.54 2322.61,-208.79 2195,-168 2006.14,-107.64 1771.98,-81.66 1658.3,-71.97"/>
<polygon fill="midnightblue" stroke="midnightblue" points="1658.27,-68.46 1648.02,-71.11 1657.69,-75.43 1658.27,-68.46"/>
</g>
<!-- Node32&#45;&gt;Node8 -->
<g id="edge35" class="edge">
<title>Node32&#45;&gt;Node8</title>
<path fill="none" stroke="midnightblue" d="M2658.68,-336.49C2630.42,-330.12 2597.64,-319.08 2573,-300 2526.77,-264.21 2529.46,-240.63 2504,-188 2476.82,-131.8 2505.36,-94.21 2456,-56 2421.8,-29.53 2124.6,-16.12 2021.25,-12.23"/>
<polygon fill="midnightblue" stroke="midnightblue" points="2021.14,-8.72 2011.02,-11.85 2020.89,-15.72 2021.14,-8.72"/>
</g>
<!-- Node32&#45;&gt;Node11 -->
<g id="edge36" class="edge">
<title>Node32&#45;&gt;Node11</title>
<path fill="none" stroke="midnightblue" d="M2786.05,-340.32C2872.22,-333.61 3016.61,-319.84 3066,-300 3141.69,-269.59 3204,-260.57 3204,-179 3204,-179 3204,-179 3204,-121 3204,-88.95 3204,-51.64 3204,-29.75"/>
<polygon fill="midnightblue" stroke="midnightblue" points="3207.5,-29.56 3204,-19.56 3200.5,-29.56 3207.5,-29.56"/>
</g>
<!-- Node32&#45;&gt;Node19 -->
<g id="edge27" class="edge">
<title>Node32&#45;&gt;Node19</title>
<path fill="none" stroke="midnightblue" d="M2651.98,-339.45C2528.43,-329.22 2265.8,-307.46 2138.77,-296.94"/>
<polygon fill="midnightblue" stroke="midnightblue" points="2139.01,-293.45 2128.75,-296.11 2138.43,-300.43 2139.01,-293.45"/>
</g>
<!-- Node33 -->
<g id="node20" class="node">
<title>Node33</title>
<g id="a_node20"><a xlink:href="../../d5/d91/_camera_8h.html" target="_top" xlink:title=" ">
<polygon fill="none" stroke="red" points="2660,-224.5 2660,-243.5 2774,-243.5 2774,-224.5 2660,-224.5"/>
<text text-anchor="middle" x="2717" y="-231.5" font-family="Helvetica,sans-Serif" font-size="10.00">metadata/Camera.h</text>
</a>
</g>
</g>
<!-- Node32&#45;&gt;Node33 -->
<g id="edge28" class="edge">
<title>Node32&#45;&gt;Node33</title>
<path fill="none" stroke="midnightblue" d="M2718.84,-336.37C2718.52,-318.62 2717.78,-277.67 2717.34,-253.6"/>
<polygon fill="midnightblue" stroke="midnightblue" points="2720.84,-253.53 2717.16,-243.59 2713.84,-253.65 2720.84,-253.53"/>
</g>
<!-- Node33&#45;&gt;Node3 -->
<g id="edge29" class="edge">
<title>Node33&#45;&gt;Node3</title>
<path fill="none" stroke="midnightblue" d="M2698.5,-224.43C2648.45,-201.68 2505.68,-139.61 2380,-112 2220.33,-76.92 2026.91,-69.01 1930.24,-67.34"/>
<polygon fill="midnightblue" stroke="midnightblue" points="1930.11,-63.84 1920.06,-67.19 1930,-70.84 1930.11,-63.84"/>
</g>
<!-- Node33&#45;&gt;Node8 -->
<g id="edge30" class="edge">
<title>Node33&#45;&gt;Node8</title>
<path fill="none" stroke="midnightblue" d="M2716.58,-224.47C2714.62,-195.15 2703.84,-98.06 2646,-56 2595.29,-19.13 2150.9,-12.42 2021.32,-11.24"/>
<polygon fill="midnightblue" stroke="midnightblue" points="2021.18,-7.74 2011.15,-11.15 2021.12,-14.74 2021.18,-7.74"/>
</g>
<!-- Node33&#45;&gt;Node11 -->
<g id="edge32" class="edge">
<title>Node33&#45;&gt;Node11</title>
<path fill="none" stroke="midnightblue" d="M2725.68,-224.34C2758.48,-191.81 2875.31,-77.71 2922,-56 3006.08,-16.9 3117.83,-10.92 3171.93,-10.53"/>
<polygon fill="midnightblue" stroke="midnightblue" points="3171.96,-14.03 3181.96,-10.51 3171.96,-7.03 3171.96,-14.03"/>
</g>
<!-- Node33&#45;&gt;Node13 -->
<g id="edge34" class="edge">
<title>Node33&#45;&gt;Node13</title>
<path fill="none" stroke="midnightblue" d="M2721.95,-224.33C2735.24,-200.89 2772.4,-134.1 2798,-76 2804.82,-60.52 2811.39,-42.43 2815.93,-29.27"/>
<polygon fill="midnightblue" stroke="midnightblue" points="2819.33,-30.14 2819.22,-19.55 2812.7,-27.9 2819.33,-30.14"/>
</g>
<!-- Node28 -->
<g id="node21" class="node">
<title>Node28</title>
<g id="a_node21"><a xlink:title=" ">
<polygon fill="none" stroke="#bfbfbf" points="2812,-168.5 2812,-187.5 2850,-187.5 2850,-168.5 2812,-168.5"/>
<text text-anchor="middle" x="2831" y="-175.5" font-family="Helvetica,sans-Serif" font-size="10.00">map</text>
</a>
</g>
</g>
<!-- Node33&#45;&gt;Node28 -->
<g id="edge31" class="edge">
<title>Node33&#45;&gt;Node28</title>
<path fill="none" stroke="midnightblue" d="M2735.06,-224.44C2753.57,-215.68 2782.58,-201.94 2803.86,-191.86"/>
<polygon fill="midnightblue" stroke="midnightblue" points="2805.48,-194.96 2813.02,-187.52 2802.49,-188.63 2805.48,-194.96"/>
</g>
<!-- Node33&#45;&gt;Node36 -->
<g id="edge33" class="edge">
<title>Node33&#45;&gt;Node36</title>
<path fill="none" stroke="midnightblue" d="M2659.82,-231.32C2376.31,-223.02 1126.27,-186.39 906.92,-179.96"/>
<polygon fill="midnightblue" stroke="midnightblue" points="906.8,-176.46 896.7,-179.67 906.59,-183.46 906.8,-176.46"/>
</g>
<!-- Node37&#45;&gt;Node8 -->
<g id="edge64" class="edge">
<title>Node37&#45;&gt;Node8</title>
<path fill="none" stroke="midnightblue" d="M1334,-338.7C1340.33,-337.72 1346.85,-336.78 1353,-336 1523.05,-314.39 1574.04,-353.17 1737,-300 1871.15,-256.23 1893.36,-199.29 1962,-76 1970.23,-61.22 1976.66,-43.06 1980.78,-29.7"/>
<polygon fill="midnightblue" stroke="midnightblue" points="1984.24,-30.36 1983.7,-19.78 1977.52,-28.39 1984.24,-30.36"/>
</g>
<!-- Node37&#45;&gt;Node11 -->
<g id="edge67" class="edge">
<title>Node37&#45;&gt;Node11</title>
<path fill="none" stroke="midnightblue" d="M1334.18,-344.69C1574.52,-342.61 2901.3,-329.79 2981,-300 3060.26,-270.37 3128,-263.62 3128,-179 3128,-179 3128,-179 3128,-121 3128,-81.28 3161.96,-45.5 3184.48,-26.15"/>
<polygon fill="midnightblue" stroke="midnightblue" points="3186.98,-28.63 3192.46,-19.57 3182.52,-23.24 3186.98,-28.63"/>
</g>
<!-- Node37&#45;&gt;Node13 -->
<g id="edge68" class="edge">
<title>Node37&#45;&gt;Node13</title>
<path fill="none" stroke="midnightblue" d="M1334.3,-338.61C1340.53,-337.66 1346.94,-336.74 1353,-336 1539.83,-313.05 1595.41,-356.41 1775,-300 1972.23,-238.05 1974.45,-120.08 2171,-56 2287.46,-18.03 2671.69,-12.1 2788.21,-11.17"/>
<polygon fill="midnightblue" stroke="midnightblue" points="2788.35,-14.67 2798.32,-11.1 2788.3,-7.67 2788.35,-14.67"/>
</g>
<!-- Node37&#45;&gt;Node30 -->
<g id="edge66" class="edge">
<title>Node37&#45;&gt;Node30</title>
<path fill="none" stroke="midnightblue" d="M1334.21,-340.96C1350.15,-339.3 1368.98,-337.44 1386,-336 1620.82,-316.14 1687.62,-361.9 1915,-300 1937.81,-293.79 2074.45,-222.49 2131.74,-192.34"/>
<polygon fill="midnightblue" stroke="midnightblue" points="2133.64,-195.3 2140.85,-187.54 2130.37,-189.1 2133.64,-195.3"/>
</g>
<!-- Node37&#45;&gt;Node28 -->
<g id="edge65" class="edge">
<title>Node37&#45;&gt;Node28</title>
<path fill="none" stroke="midnightblue" d="M1334.28,-338.48C1340.52,-337.54 1346.93,-336.67 1353,-336 1617.21,-306.87 1691.26,-360.93 1950,-300 1972.1,-294.8 1974.87,-285.04 1997,-280 2082.24,-260.58 2705.87,-285.16 2783,-244 2802.09,-233.81 2815.6,-212.31 2823.32,-196.82"/>
<polygon fill="midnightblue" stroke="midnightblue" points="2826.52,-198.24 2827.56,-187.69 2820.18,-195.29 2826.52,-198.24"/>
</g>
<!-- Node37&#45;&gt;Node41 -->
<g id="edge38" class="edge">
<title>Node37&#45;&gt;Node41</title>
<path fill="none" stroke="midnightblue" d="M1310.34,-336.37C1339.51,-317.49 1409.22,-272.38 1445,-249.24"/>
<polygon fill="midnightblue" stroke="midnightblue" points="1447.23,-251.96 1453.72,-243.59 1443.43,-246.09 1447.23,-251.96"/>
</g>
<!-- Node45 -->
<g id="node27" class="node">
<title>Node45</title>
<g id="a_node27"><a xlink:href="../../d5/d0b/_endianness_8h.html" target="_top" xlink:title=" ">
<polygon fill="none" stroke="red" points="1470.5,-112.5 1470.5,-131.5 1563.5,-131.5 1563.5,-112.5 1470.5,-112.5"/>
<text text-anchor="middle" x="1517" y="-119.5" font-family="Helvetica,sans-Serif" font-size="10.00">io/Endianness.h</text>
</a>
</g>
</g>
<!-- Node37&#45;&gt;Node45 -->
<g id="edge63" class="edge">
<title>Node37&#45;&gt;Node45</title>
<path fill="none" stroke="midnightblue" d="M1334.08,-339.15C1383.42,-329.19 1469.06,-303.86 1509,-244 1529.67,-213.02 1525.59,-167.07 1521.1,-141.64"/>
<polygon fill="midnightblue" stroke="midnightblue" points="1524.47,-140.66 1519.09,-131.53 1517.61,-142.02 1524.47,-140.66"/>
</g>
<!-- Node37&#45;&gt;Node47 -->
<g id="edge55" class="edge">
<title>Node37&#45;&gt;Node47</title>
<path fill="none" stroke="midnightblue" d="M1283.99,-336.32C1271.47,-327.98 1252.32,-315.21 1237.53,-305.35"/>
<polygon fill="midnightblue" stroke="midnightblue" points="1239.24,-302.29 1228.98,-299.65 1235.36,-308.11 1239.24,-302.29"/>
</g>
<!-- Node41&#45;&gt;Node4 -->
<g id="edge40" class="edge">
<title>Node41&#45;&gt;Node4</title>
<path fill="none" stroke="midnightblue" d="M1466.35,-224.29C1464.37,-197.3 1458.76,-116.57 1462,-112 1475.94,-92.32 1499.2,-81.19 1522.1,-74.91"/>
<polygon fill="midnightblue" stroke="midnightblue" points="1522.99,-78.29 1531.86,-72.5 1521.31,-71.5 1522.99,-78.29"/>
</g>
<!-- Node41&#45;&gt;Node6 -->
<g id="edge51" class="edge">
<title>Node41&#45;&gt;Node6</title>
<path fill="none" stroke="midnightblue" d="M1441.34,-224.43C1416.79,-215.98 1378.87,-202.3 1347,-188 1329.59,-180.19 1326.6,-175.39 1309,-168 1260.8,-147.75 1234.1,-168.85 1197,-132 1171.77,-106.94 1191.57,-85.69 1172,-56 1164.18,-44.14 1152.45,-33.49 1142.2,-25.53"/>
<polygon fill="midnightblue" stroke="midnightblue" points="1144.19,-22.64 1134.07,-19.51 1140.03,-28.27 1144.19,-22.64"/>
</g>
<!-- Node41&#45;&gt;Node8 -->
<g id="edge52" class="edge">
<title>Node41&#45;&gt;Node8</title>
<path fill="none" stroke="midnightblue" d="M1500.42,-228.73C1556.25,-220 1669.23,-195.28 1739,-132 1766.83,-106.76 1746.42,-79.16 1776,-56 1802.78,-35.03 1898.03,-21.09 1950.57,-14.82"/>
<polygon fill="midnightblue" stroke="midnightblue" points="1951.26,-18.26 1960.79,-13.63 1950.45,-11.31 1951.26,-18.26"/>
</g>
<!-- Node41&#45;&gt;Node30 -->
<g id="edge53" class="edge">
<title>Node41&#45;&gt;Node30</title>
<path fill="none" stroke="midnightblue" d="M1500.28,-230.4C1615.11,-221.41 1994.45,-191.72 2117.84,-182.06"/>
<polygon fill="midnightblue" stroke="midnightblue" points="2118.27,-185.54 2127.96,-181.27 2117.72,-178.56 2118.27,-185.54"/>
</g>
<!-- Node41&#45;&gt;Node36 -->
<g id="edge54" class="edge">
<title>Node41&#45;&gt;Node36</title>
<path fill="none" stroke="midnightblue" d="M1433.85,-229.98C1329.84,-220.51 1010.76,-191.45 906.99,-182"/>
<polygon fill="midnightblue" stroke="midnightblue" points="907.07,-178.5 896.8,-181.08 906.44,-185.47 907.07,-178.5"/>
</g>
<!-- Node42 -->
<g id="node25" class="node">
<title>Node42</title>
<g id="a_node25"><a xlink:href="../../d2/d4f/_address_sanitizer_8h.html" target="_top" xlink:title=" ">
<polygon fill="none" stroke="red" points="1192.5,-168.5 1192.5,-187.5 1299.5,-187.5 1299.5,-168.5 1192.5,-168.5"/>
<text text-anchor="middle" x="1246" y="-175.5" font-family="Helvetica,sans-Serif" font-size="10.00">AddressSanitizer.h</text>
</a>
</g>
</g>
<!-- Node41&#45;&gt;Node42 -->
<g id="edge39" class="edge">
<title>Node41&#45;&gt;Node42</title>
<path fill="none" stroke="midnightblue" d="M1433.91,-224.92C1395.9,-215.63 1333.32,-200.34 1290.93,-189.98"/>
<polygon fill="midnightblue" stroke="midnightblue" points="1291.69,-186.56 1281.14,-187.59 1290.02,-193.36 1291.69,-186.56"/>
</g>
<!-- Node44 -->
<g id="node26" class="node">
<title>Node44</title>
<g id="a_node26"><a xlink:href="../../d3/de6/_memory_8h.html" target="_top" xlink:title=" ">
<polygon fill="none" stroke="red" points="1620,-112.5 1620,-131.5 1730,-131.5 1730,-112.5 1620,-112.5"/>
<text text-anchor="middle" x="1675" y="-119.5" font-family="Helvetica,sans-Serif" font-size="10.00">common/Memory.h</text>
</a>
</g>
</g>
<!-- Node41&#45;&gt;Node44 -->
<g id="edge41" class="edge">
<title>Node41&#45;&gt;Node44</title>
<path fill="none" stroke="midnightblue" d="M1483.32,-224.37C1519.47,-205.25 1606.49,-159.23 1649.74,-136.36"/>
<polygon fill="midnightblue" stroke="midnightblue" points="1651.55,-139.36 1658.75,-131.59 1648.28,-133.17 1651.55,-139.36"/>
</g>
<!-- Node41&#45;&gt;Node45 -->
<g id="edge45" class="edge">
<title>Node41&#45;&gt;Node45</title>
<path fill="none" stroke="midnightblue" d="M1472.92,-224.33C1478.79,-215.47 1487.79,-201.19 1494,-188 1501.17,-172.77 1507.41,-154.66 1511.57,-141.43"/>
<polygon fill="midnightblue" stroke="midnightblue" points="1514.99,-142.22 1514.55,-131.63 1508.29,-140.18 1514.99,-142.22"/>
</g>
<!-- Node46 -->
<g id="node28" class="node">
<title>Node46</title>
<g id="a_node28"><a xlink:href="../../d0/dd8/_i_o_exception_8h.html" target="_top" xlink:title=" ">
<polygon fill="none" stroke="black" points="1356,-168.5 1356,-187.5 1452,-187.5 1452,-168.5 1356,-168.5"/>
<text text-anchor="middle" x="1404" y="-175.5" font-family="Helvetica,sans-Serif" font-size="10.00">io/IOException.h</text>
</a>
</g>
</g>
<!-- Node41&#45;&gt;Node46 -->
<g id="edge48" class="edge">
<title>Node41&#45;&gt;Node46</title>
<path fill="none" stroke="midnightblue" d="M1456.88,-224.32C1447.47,-216.26 1433.26,-204.08 1421.93,-194.37"/>
<polygon fill="midnightblue" stroke="midnightblue" points="1424.18,-191.68 1414.31,-187.83 1419.62,-197 1424.18,-191.68"/>
</g>
<!-- Node44&#45;&gt;Node3 -->
<g id="edge42" class="edge">
<title>Node44&#45;&gt;Node3</title>
<path fill="none" stroke="midnightblue" d="M1705.74,-112.44C1738.94,-103.2 1791.99,-88.44 1828.56,-78.26"/>
<polygon fill="midnightblue" stroke="midnightblue" points="1829.71,-81.57 1838.4,-75.52 1827.83,-74.83 1829.71,-81.57"/>
</g>
<!-- Node44&#45;&gt;Node4 -->
<g id="edge43" class="edge">
<title>Node44&#45;&gt;Node4</title>
<path fill="none" stroke="midnightblue" d="M1661.34,-112.32C1648.08,-103.9 1627.73,-90.97 1612.15,-81.07"/>
<polygon fill="midnightblue" stroke="midnightblue" points="1613.94,-78.06 1603.62,-75.65 1610.19,-83.97 1613.94,-78.06"/>
</g>
<!-- Node44&#45;&gt;Node8 -->
<g id="edge44" class="edge">
<title>Node44&#45;&gt;Node8</title>
<path fill="none" stroke="midnightblue" d="M1680.77,-112.17C1690.64,-97.84 1712.21,-69.76 1738,-56 1807.02,-19.16 1900.59,-11.83 1950.76,-10.76"/>
<polygon fill="midnightblue" stroke="midnightblue" points="1950.83,-14.26 1960.78,-10.62 1950.73,-7.26 1950.83,-14.26"/>
</g>
<!-- Node45&#45;&gt;Node6 -->
<g id="edge46" class="edge">
<title>Node45&#45;&gt;Node6</title>
<path fill="none" stroke="midnightblue" d="M1502.93,-112.36C1479.4,-98.32 1430.2,-70.64 1385,-56 1305.96,-30.4 1208.64,-18.61 1157.06,-13.83"/>
<polygon fill="midnightblue" stroke="midnightblue" points="1157.35,-10.34 1147.08,-12.94 1156.73,-17.31 1157.35,-10.34"/>
</g>
<!-- Node45&#45;&gt;Node8 -->
<g id="edge47" class="edge">
<title>Node45&#45;&gt;Node8</title>
<path fill="none" stroke="midnightblue" d="M1545.33,-112.47C1573.74,-103.77 1618.64,-89.67 1657,-76 1679.93,-67.83 1684.52,-62.43 1708,-56 1793.55,-32.59 1897.45,-19.76 1950.74,-14.27"/>
<polygon fill="midnightblue" stroke="midnightblue" points="1951.1,-17.75 1960.7,-13.27 1950.4,-10.79 1951.1,-17.75"/>
</g>
<!-- Node46&#45;&gt;Node2 -->
<g id="edge50" class="edge">
<title>Node46&#45;&gt;Node2</title>
<path fill="none" stroke="midnightblue" d="M1386.09,-168.44C1367.75,-159.68 1338.99,-145.94 1317.91,-135.86"/>
<polygon fill="midnightblue" stroke="midnightblue" points="1319.35,-132.67 1308.82,-131.52 1316.33,-138.99 1319.35,-132.67"/>
</g>
<!-- Node46&#45;&gt;Node3 -->
<g id="edge49" class="edge">
<title>Node46&#45;&gt;Node3</title>
<path fill="none" stroke="midnightblue" d="M1452.22,-175.49C1518.28,-172.31 1640.01,-162.47 1739,-132 1778.99,-119.69 1821.72,-96.06 1846.86,-80.93"/>
<polygon fill="midnightblue" stroke="midnightblue" points="1848.88,-83.8 1855.59,-75.6 1845.23,-77.83 1848.88,-83.8"/>
</g>
<!-- Node47&#45;&gt;Node4 -->
<g id="edge57" class="edge">
<title>Node47&#45;&gt;Node4</title>
<path fill="none" stroke="midnightblue" d="M1221.38,-280.15C1228.48,-267.23 1239.1,-242.68 1230,-224 1218.63,-200.66 1195.37,-211.34 1184,-188 1180.11,-180.01 1178.3,-174.82 1184,-168 1213.12,-133.2 1340.95,-142.88 1385,-132 1446.65,-116.77 1516.87,-93.09 1557.06,-78.9"/>
<polygon fill="midnightblue" stroke="midnightblue" points="1558.36,-82.16 1566.61,-75.51 1556.01,-75.56 1558.36,-82.16"/>
</g>
<!-- Node47&#45;&gt;Node6 -->
<g id="edge61" class="edge">
<title>Node47&#45;&gt;Node6</title>
<path fill="none" stroke="midnightblue" d="M1209.74,-280.2C1199.53,-266.43 1177.99,-239.74 1154,-224 1115.2,-198.55 1085.66,-223.69 1056,-188 1018.12,-142.42 1006.55,-106.85 1037,-56 1047.47,-38.51 1067.31,-27.44 1085.09,-20.65"/>
<polygon fill="midnightblue" stroke="midnightblue" points="1086.38,-23.9 1094.67,-17.31 1084.08,-17.29 1086.38,-23.9"/>
</g>
<!-- Node47&#45;&gt;Node8 -->
<g id="edge62" class="edge">
<title>Node47&#45;&gt;Node8</title>
<path fill="none" stroke="midnightblue" d="M1211.35,-280.42C1191.34,-243.42 1113.37,-98.48 1108,-76 1105.93,-67.35 1101.88,-62.44 1108,-56 1122.76,-40.47 1787.38,-17.55 1950.26,-12.16"/>
<polygon fill="midnightblue" stroke="midnightblue" points="1950.8,-15.65 1960.67,-11.82 1950.56,-8.65 1950.8,-15.65"/>
</g>
<!-- Node47&#45;&gt;Node41 -->
<g id="edge59" class="edge">
<title>Node47&#45;&gt;Node41</title>
<path fill="none" stroke="midnightblue" d="M1255.77,-280.44C1301.62,-270.58 1376.7,-254.43 1423.91,-244.27"/>
<polygon fill="midnightblue" stroke="midnightblue" points="1424.79,-247.66 1433.83,-242.14 1423.31,-240.82 1424.79,-247.66"/>
</g>
<!-- Node47&#45;&gt;Node42 -->
<g id="edge56" class="edge">
<title>Node47&#45;&gt;Node42</title>
<path fill="none" stroke="midnightblue" d="M1253.1,-280.46C1272.44,-273.92 1294.43,-262.72 1306,-244 1318.36,-224 1294.47,-204.67 1273.27,-192.36"/>
<polygon fill="midnightblue" stroke="midnightblue" points="1274.91,-189.27 1264.46,-187.54 1271.55,-195.41 1274.91,-189.27"/>
</g>
<!-- Node47&#45;&gt;Node44 -->
<g id="edge58" class="edge">
<title>Node47&#45;&gt;Node44</title>
<path fill="none" stroke="midnightblue" d="M1263.5,-288.54C1323.03,-286.46 1427.17,-277.75 1509,-244 1571.12,-218.38 1631.71,-164.94 1659.38,-138.5"/>
<polygon fill="midnightblue" stroke="midnightblue" points="1661.84,-140.98 1666.58,-131.51 1656.97,-135.96 1661.84,-140.98"/>
</g>
<!-- Node47&#45;&gt;Node46 -->
<g id="edge60" class="edge">
<title>Node47&#45;&gt;Node46</title>
<path fill="none" stroke="midnightblue" d="M1241.06,-280.36C1262.91,-272.34 1295.06,-259.36 1321,-244 1345.41,-229.55 1370.68,-208.77 1386.83,-194.62"/>
<polygon fill="midnightblue" stroke="midnightblue" points="1389.24,-197.16 1394.39,-187.9 1384.59,-191.93 1389.24,-197.16"/>
</g>
<!-- Node53&#45;&gt;Node19 -->
<g id="edge77" class="edge">
<title>Node53&#45;&gt;Node19</title>
<path fill="none" stroke="midnightblue" d="M1564.15,-448.44C1567.69,-425.71 1580.7,-363.68 1620,-336 1687.72,-288.3 1908.64,-308.87 1991,-300 1992.3,-299.86 1993.61,-299.72 1994.94,-299.57"/>
<polygon fill="midnightblue" stroke="midnightblue" points="1995.66,-303.01 2005.21,-298.43 1994.88,-296.06 1995.66,-303.01"/>
</g>
<!-- Node53&#45;&gt;Node31 -->
<g id="edge78" class="edge">
<title>Node53&#45;&gt;Node31</title>
<path fill="none" stroke="midnightblue" d="M1598.02,-448.44C1636.25,-439.1 1697.57,-424.12 1739.26,-413.93"/>
<polygon fill="midnightblue" stroke="midnightblue" points="1740.26,-417.29 1749.15,-411.52 1738.6,-410.49 1740.26,-417.29"/>
</g>
<!-- Node53&#45;&gt;Node36 -->
<g id="edge80" class="edge">
<title>Node53&#45;&gt;Node36</title>
<path fill="none" stroke="midnightblue" d="M1498.44,-448.47C1355.85,-428.45 1020.04,-374.47 936,-300 919.41,-285.3 893.78,-227.02 881.31,-197.03"/>
<polygon fill="midnightblue" stroke="midnightblue" points="884.53,-195.64 877.49,-187.72 878.05,-198.3 884.53,-195.64"/>
</g>
<!-- Node53&#45;&gt;Node37 -->
<g id="edge79" class="edge">
<title>Node53&#45;&gt;Node37</title>
<path fill="none" stroke="midnightblue" d="M1542.13,-448.37C1495.32,-429.01 1381.79,-382.06 1327.25,-359.51"/>
<polygon fill="midnightblue" stroke="midnightblue" points="1328.35,-356.18 1317.78,-355.59 1325.68,-362.65 1328.35,-356.18"/>
</g>
<!-- Node54&#45;&gt;Node19 -->
<g id="edge82" class="edge">
<title>Node54&#45;&gt;Node19</title>
<path fill="none" stroke="midnightblue" d="M758.55,-504.89C761.74,-504.57 764.91,-504.27 768,-504 919.42,-490.82 1310.85,-526.81 1451,-468 1531.06,-434.41 1515.61,-371.15 1595,-336 1674.99,-300.59 1899.98,-308.89 1987,-300 1989.71,-299.72 1992.47,-299.44 1995.26,-299.14"/>
<polygon fill="midnightblue" stroke="midnightblue" points="1995.86,-302.6 2005.43,-298.06 1995.11,-295.64 1995.86,-302.6"/>
</g>
<!-- Node54&#45;&gt;Node36 -->
<g id="edge89" class="edge">
<title>Node54&#45;&gt;Node36</title>
<path fill="none" stroke="midnightblue" d="M629.28,-511.79C517.87,-508.9 294.98,-499.27 224,-468 184.55,-450.62 152,-446.11 152,-403 152,-403 152,-403 152,-345 152,-281.96 170.46,-253.81 226,-224 280.49,-194.75 717.37,-182.59 841.32,-179.7"/>
<polygon fill="midnightblue" stroke="midnightblue" points="841.43,-183.2 851.34,-179.48 841.27,-176.2 841.43,-183.2"/>
</g>
<!-- Node54&#45;&gt;Node37 -->
<g id="edge88" class="edge">
<title>Node54&#45;&gt;Node37</title>
<path fill="none" stroke="midnightblue" d="M698.72,-504.43C706.48,-490.98 723.08,-464.71 743,-448 785.03,-412.75 800.37,-407.47 853,-392 890.36,-381.02 1142.9,-359.53 1249.58,-350.81"/>
<polygon fill="midnightblue" stroke="midnightblue" points="1250.06,-354.28 1259.74,-349.98 1249.49,-347.31 1250.06,-354.28"/>
</g>
<!-- Node55 -->
<g id="node32" class="node">
<title>Node55</title>
<g id="a_node32"><a xlink:href="../../db/db8/_simple_tiff_decoder_8h.html" target="_top" xlink:title=" ">
<polygon fill="none" stroke="black" points="761,-448.5 761,-467.5 923,-467.5 923,-448.5 761,-448.5"/>
<text text-anchor="middle" x="842" y="-455.5" font-family="Helvetica,sans-Serif" font-size="10.00">decoders/SimpleTiffDecoder.h</text>
</a>
</g>
</g>
<!-- Node54&#45;&gt;Node55 -->
<g id="edge83" class="edge">
<title>Node54&#45;&gt;Node55</title>
<path fill="none" stroke="midnightblue" d="M717.45,-504.44C742.13,-495.44 781.19,-481.19 808.98,-471.05"/>
<polygon fill="midnightblue" stroke="midnightblue" points="810.46,-474.23 818.66,-467.52 808.06,-467.66 810.46,-474.23"/>
</g>
<!-- Node55&#45;&gt;Node8 -->
<g id="edge86" class="edge">
<title>Node55&#45;&gt;Node8</title>
<path fill="none" stroke="midnightblue" d="M856.75,-448.31C880.89,-434.45 930.69,-407.33 976,-392 1208.28,-313.41 1278.55,-342.8 1520,-300 1633.4,-279.9 1673.06,-301.24 1773,-244 1870.27,-188.29 1948.08,-72.87 1975.43,-28.71"/>
<polygon fill="midnightblue" stroke="midnightblue" points="1978.54,-30.33 1980.76,-19.97 1972.56,-26.69 1978.54,-30.33"/>
</g>
<!-- Node55&#45;&gt;Node31 -->
<g id="edge84" class="edge">
<title>Node55&#45;&gt;Node31</title>
<path fill="none" stroke="midnightblue" d="M923.13,-452.35C1096.88,-442.39 1504.18,-419.04 1689.36,-408.43"/>
<polygon fill="midnightblue" stroke="midnightblue" points="1689.57,-411.92 1699.35,-407.85 1689.17,-404.93 1689.57,-411.92"/>
</g>
<!-- Node55&#45;&gt;Node36 -->
<g id="edge87" class="edge">
<title>Node55&#45;&gt;Node36</title>
<path fill="none" stroke="midnightblue" d="M783.69,-448.5C693.89,-433.75 532,-399.82 532,-347 532,-347 532,-347 532,-289 532,-224.41 755.85,-192.33 841.35,-182.44"/>
<polygon fill="midnightblue" stroke="midnightblue" points="841.75,-185.91 851.3,-181.31 840.97,-178.96 841.75,-185.91"/>
</g>
<!-- Node55&#45;&gt;Node37 -->
<g id="edge85" class="edge">
<title>Node55&#45;&gt;Node37</title>
<path fill="none" stroke="midnightblue" d="M866.06,-448.42C904.53,-434.95 982.41,-408.65 1050,-392 1118.75,-375.06 1199.71,-361.5 1249.69,-353.85"/>
<polygon fill="midnightblue" stroke="midnightblue" points="1250.51,-357.27 1259.87,-352.31 1249.46,-350.35 1250.51,-357.27"/>
</g>
<!-- Node56&#45;&gt;Node19 -->
<g id="edge91" class="edge">
<title>Node56&#45;&gt;Node19</title>
<path fill="none" stroke="midnightblue" d="M907.82,-504.84C910.92,-504.54 913.99,-504.26 917,-504 996.81,-497.22 1568.42,-509.39 1637,-468 1670.61,-447.71 1656.91,-422.19 1682,-392 1706.15,-362.93 1711.63,-351.72 1746,-336 1757.24,-330.86 1904.2,-311.59 1995.33,-299.99"/>
<polygon fill="midnightblue" stroke="midnightblue" points="1995.85,-303.46 2005.33,-298.72 1994.97,-296.51 1995.85,-303.46"/>
</g>
<!-- Node56&#45;&gt;Node36 -->
<g id="edge94" class="edge">
<title>Node56&#45;&gt;Node36</title>
<path fill="none" stroke="midnightblue" d="M776.25,-504.83C773.46,-504.54 770.71,-504.26 768,-504 653.58,-493.06 351.63,-525.33 252,-468 225.93,-453 222.83,-440.75 214,-412 194.2,-347.57 134.13,-325.37 252,-224 296.87,-185.41 718.84,-179.91 841.01,-179.13"/>
<polygon fill="midnightblue" stroke="midnightblue" points="841.25,-182.63 851.23,-179.07 841.21,-175.63 841.25,-182.63"/>
</g>
<!-- Node56&#45;&gt;Node37 -->
<g id="edge93" class="edge">
<title>Node56&#45;&gt;Node37</title>
<path fill="none" stroke="midnightblue" d="M810.94,-504.48C777.6,-493.78 731.95,-473.67 752,-448 782.78,-408.58 1123.02,-366.57 1249.78,-352.18"/>
<polygon fill="midnightblue" stroke="midnightblue" points="1250.41,-355.63 1259.95,-351.03 1249.62,-348.68 1250.41,-355.63"/>
</g>
<!-- Node56&#45;&gt;Node55 -->
<g id="edge92" class="edge">
<title>Node56&#45;&gt;Node55</title>
<path fill="none" stroke="midnightblue" d="M842,-504.08C842,-497.01 842,-486.86 842,-477.99"/>
<polygon fill="midnightblue" stroke="midnightblue" points="845.5,-477.75 842,-467.75 838.5,-477.75 845.5,-477.75"/>
</g>
<!-- Node57&#45;&gt;Node8 -->
<g id="edge99" class="edge">
<title>Node57&#45;&gt;Node8</title>
<path fill="none" stroke="midnightblue" d="M2504.01,-448.72C2585.22,-438.27 2714.97,-420.63 2736,-412 2780.49,-393.75 2837.19,-377.56 2813,-336 2771.34,-264.44 2713.69,-298.09 2651,-244 2570.69,-174.72 2597.24,-106.56 2504,-56 2420.46,-10.7 2123.94,-9.47 2021.29,-10.47"/>
<polygon fill="midnightblue" stroke="midnightblue" points="2021.1,-6.97 2011.13,-10.58 2021.17,-13.97 2021.1,-6.97"/>
</g>
<!-- Node57&#45;&gt;Node13 -->
<g id="edge100" class="edge">
<title>Node57&#45;&gt;Node13</title>
<path fill="none" stroke="midnightblue" d="M2504.23,-448.87C2507.2,-448.57 2510.13,-448.27 2513,-448 2740.54,-426.38 2799.82,-444.92 3026,-412 3157.57,-392.85 3318,-479.95 3318,-347 3318,-347 3318,-347 3318,-233 3318,-29.88 2967.16,-11.39 2855.62,-10.65"/>
<polygon fill="midnightblue" stroke="midnightblue" points="2855.6,-7.15 2845.59,-10.63 2855.58,-14.15 2855.6,-7.15"/>
</g>
<!-- Node57&#45;&gt;Node19 -->
<g id="edge96" class="edge">
<title>Node57&#45;&gt;Node19</title>
<path fill="none" stroke="midnightblue" d="M2423.27,-448.38C2386.81,-427.29 2289.1,-372.15 2203,-336 2171.34,-322.71 2134.28,-310.67 2106.85,-302.39"/>
<polygon fill="midnightblue" stroke="midnightblue" points="2107.79,-299.02 2097.21,-299.52 2105.79,-305.73 2107.79,-299.02"/>
</g>
<!-- Node57&#45;&gt;Node31 -->
<g id="edge97" class="edge">
<title>Node57&#45;&gt;Node31</title>
<path fill="none" stroke="midnightblue" d="M2371.76,-448.9C2368.8,-448.59 2365.87,-448.28 2363,-448 2192.8,-431.18 1993.94,-416.89 1879.13,-409.17"/>
<polygon fill="midnightblue" stroke="midnightblue" points="1879.18,-405.66 1868.96,-408.49 1878.71,-412.65 1879.18,-405.66"/>
</g>
<!-- Node57&#45;&gt;Node37 -->
<g id="edge98" class="edge">
<title>Node57&#45;&gt;Node37</title>
<path fill="none" stroke="midnightblue" d="M2389.67,-448.46C2309.27,-434.55 2142.87,-407.06 2001,-392 1754.46,-365.83 1457.63,-352.91 1344.19,-348.65"/>
<polygon fill="midnightblue" stroke="midnightblue" points="1344.24,-345.15 1334.11,-348.28 1343.98,-352.14 1344.24,-345.15"/>
</g>
<!-- Node58&#45;&gt;Node19 -->
<g id="edge102" class="edge">
<title>Node58&#45;&gt;Node19</title>
<path fill="none" stroke="midnightblue" d="M1052.27,-504.85C1055.56,-504.53 1058.82,-504.25 1062,-504 1121.91,-499.32 2101.22,-511.19 2143,-468 2189.06,-420.38 2118.31,-340.46 2083.96,-306.75"/>
<polygon fill="midnightblue" stroke="midnightblue" points="2086.12,-303.97 2076.48,-299.58 2081.28,-309.02 2086.12,-303.97"/>
</g>
<!-- Node58&#45;&gt;Node36 -->
<g id="edge105" class="edge">
<title>Node58&#45;&gt;Node36</title>
<path fill="none" stroke="midnightblue" d="M925.81,-504.86C922.83,-504.55 919.89,-504.26 917,-504 847.51,-497.67 350.7,-502.43 290,-468 263.84,-453.16 260.83,-440.75 252,-412 232.22,-347.61 172.25,-325.75 290,-224 331.83,-187.85 724,-180.65 841.12,-179.29"/>
<polygon fill="midnightblue" stroke="midnightblue" points="841.31,-182.79 851.27,-179.18 841.23,-175.79 841.31,-182.79"/>
</g>
<!-- Node58&#45;&gt;Node37 -->
<g id="edge104" class="edge">
<title>Node58&#45;&gt;Node37</title>
<path fill="none" stroke="midnightblue" d="M988.19,-504.22C987.4,-490.93 987.69,-465.43 999,-448 1024.04,-409.43 1043.49,-409.53 1086,-392 1139.86,-369.8 1206.16,-357.96 1249.9,-352.09"/>
<polygon fill="midnightblue" stroke="midnightblue" points="1250.5,-355.55 1259.97,-350.79 1249.6,-348.6 1250.5,-355.55"/>
</g>
<!-- Node58&#45;&gt;Node55 -->
<g id="edge103" class="edge">
<title>Node58&#45;&gt;Node55</title>
<path fill="none" stroke="midnightblue" d="M965.71,-504.44C941.19,-495.44 902.4,-481.19 874.8,-471.05"/>
<polygon fill="midnightblue" stroke="midnightblue" points="875.78,-467.68 865.18,-467.52 873.36,-474.25 875.78,-467.68"/>
</g>
<!-- Node59&#45;&gt;Node8 -->
<g id="edge110" class="edge">
<title>Node59&#45;&gt;Node8</title>
<path fill="none" stroke="midnightblue" d="M2353.82,-449.09C2356.92,-448.72 2360,-448.35 2363,-448 2507.77,-430.96 2549.66,-454.8 2689,-412 2744.41,-394.98 2831.94,-380.68 2795,-336 2740.8,-270.43 2675.32,-350.7 2607,-300 2508.66,-227.02 2580.8,-124.07 2479,-56 2441.14,-30.69 2127.98,-16.44 2021.37,-12.29"/>
<polygon fill="midnightblue" stroke="midnightblue" points="2021.27,-8.78 2011.14,-11.9 2021,-15.78 2021.27,-8.78"/>
</g>
<!-- Node59&#45;&gt;Node13 -->
<g id="edge112" class="edge">
<title>Node59&#45;&gt;Node13</title>
<path fill="none" stroke="midnightblue" d="M2353.82,-449.04C2356.92,-448.68 2360,-448.33 2363,-448 2643.72,-416.91 2800.46,-517.2 2981,-300 3058.47,-206.8 2899.18,-70.18 2841.65,-25.63"/>
<polygon fill="midnightblue" stroke="midnightblue" points="2843.71,-22.8 2833.64,-19.52 2839.46,-28.37 2843.71,-22.8"/>
</g>
<!-- Node59&#45;&gt;Node19 -->
<g id="edge107" class="edge">
<title>Node59&#45;&gt;Node19</title>
<path fill="none" stroke="midnightblue" d="M2287.63,-448.45C2281.97,-435.01 2269.47,-408.77 2252,-392 2207.35,-349.13 2140.93,-318.81 2101,-303.18"/>
<polygon fill="midnightblue" stroke="midnightblue" points="2102.04,-299.83 2091.45,-299.52 2099.54,-306.37 2102.04,-299.83"/>
</g>
<!-- Node59&#45;&gt;Node31 -->
<g id="edge108" class="edge">
<title>Node59&#45;&gt;Node31</title>
<path fill="none" stroke="midnightblue" d="M2228.32,-450.32C2139.35,-440.85 1975.95,-423.44 1874.02,-412.59"/>
<polygon fill="midnightblue" stroke="midnightblue" points="1874.36,-409.1 1864.05,-411.53 1873.62,-416.07 1874.36,-409.1"/>
</g>
<!-- Node59&#45;&gt;Node36 -->
<g id="edge111" class="edge">
<title>Node59&#45;&gt;Node36</title>
<path fill="none" stroke="midnightblue" d="M2258.18,-448.4C2204.67,-434.65 2095.15,-407.7 2001,-392 1777.38,-354.71 1719.48,-359.48 1494,-336 1412.27,-327.49 1200.52,-334.62 1126,-300 1082.11,-279.6 1090.18,-247.74 1048,-224 1002.84,-198.57 943.03,-187.2 906.59,-182.34"/>
<polygon fill="midnightblue" stroke="midnightblue" points="906.88,-178.85 896.52,-181.09 906.01,-185.8 906.88,-178.85"/>
</g>
<!-- Node59&#45;&gt;Node37 -->
<g id="edge109" class="edge">
<title>Node59&#45;&gt;Node37</title>
<path fill="none" stroke="midnightblue" d="M2238.72,-448.45C2186.71,-439.81 2104.69,-425.78 2034,-412 1992.5,-403.91 1982.86,-397.93 1941,-392 1719.23,-360.57 1451.25,-350.79 1344.35,-348.01"/>
<polygon fill="midnightblue" stroke="midnightblue" points="1344.3,-344.51 1334.22,-347.75 1344.13,-351.5 1344.3,-344.51"/>
</g>
<!-- Node60&#45;&gt;Node19 -->
<g id="edge114" class="edge">
<title>Node60&#45;&gt;Node19</title>
<path fill="none" stroke="midnightblue" d="M1105.45,-448.47C1175.26,-422.01 1385.76,-342.69 1418,-336 1667.84,-284.14 1736.87,-323.01 1991,-300 1992.3,-299.88 1993.62,-299.76 1994.94,-299.63"/>
<polygon fill="midnightblue" stroke="midnightblue" points="1995.63,-303.08 2005.23,-298.6 1994.93,-296.12 1995.63,-303.08"/>
</g>
<!-- Node60&#45;&gt;Node31 -->
<g id="edge115" class="edge">
<title>Node60&#45;&gt;Node31</title>
<path fill="none" stroke="midnightblue" d="M1148.83,-448.92C1151.93,-448.6 1155,-448.29 1158,-448 1346.05,-429.97 1566.51,-415.72 1689.23,-408.4"/>
<polygon fill="midnightblue" stroke="midnightblue" points="1689.57,-411.89 1699.35,-407.8 1689.16,-404.9 1689.57,-411.89"/>
</g>
<!-- Node60&#45;&gt;Node36 -->
<g id="edge118" class="edge">
<title>Node60&#45;&gt;Node36</title>
<path fill="none" stroke="midnightblue" d="M1027.4,-448.46C940.7,-433.89 779.73,-401.32 746,-356 710.97,-308.94 712.09,-271.87 746,-224 767.44,-193.74 810.92,-183.68 841.22,-180.42"/>
<polygon fill="midnightblue" stroke="midnightblue" points="841.68,-183.89 851.33,-179.53 841.06,-176.92 841.68,-183.89"/>
</g>
<!-- Node60&#45;&gt;Node37 -->
<g id="edge117" class="edge">
<title>Node60&#45;&gt;Node37</title>
<path fill="none" stroke="midnightblue" d="M1098.25,-448.3C1120.75,-435.56 1164.24,-411.23 1202,-392 1224.16,-380.71 1249.64,-368.69 1268.63,-359.92"/>
<polygon fill="midnightblue" stroke="midnightblue" points="1270.3,-363.01 1277.92,-355.65 1267.37,-356.65 1270.3,-363.01"/>
</g>
<!-- Node60&#45;&gt;Node41 -->
<g id="edge116" class="edge">
<title>Node60&#45;&gt;Node41</title>
<path fill="none" stroke="midnightblue" d="M1092.74,-448.13C1107.17,-435.17 1135.28,-410.58 1161,-392 1253.42,-325.23 1378.22,-270.72 1435.67,-247.32"/>
<polygon fill="midnightblue" stroke="midnightblue" points="1436.98,-250.57 1444.95,-243.58 1434.36,-244.08 1436.98,-250.57"/>
</g>
<!-- Node61&#45;&gt;Node19 -->
<g id="edge120" class="edge">
<title>Node61&#45;&gt;Node19</title>
<path fill="none" stroke="midnightblue" d="M1201.77,-512.63C1425.06,-511.05 2142.25,-503.24 2176,-468 2199.36,-443.6 2189.52,-422.95 2176,-392 2158.82,-352.66 2117.93,-321.8 2091.41,-305"/>
<polygon fill="midnightblue" stroke="midnightblue" points="2093.04,-301.9 2082.68,-299.66 2089.38,-307.87 2093.04,-301.9"/>
</g>
<!-- Node61&#45;&gt;Node36 -->
<g id="edge123" class="edge">
<title>Node61&#45;&gt;Node36</title>
<path fill="none" stroke="midnightblue" d="M1070.18,-504.85C1067.08,-504.54 1064.01,-504.26 1061,-504 985.51,-497.48 434.39,-520.76 380,-468 301.62,-391.96 313.49,-276.95 409,-224 483.37,-182.77 747.91,-178.89 841.17,-178.84"/>
<polygon fill="midnightblue" stroke="midnightblue" points="841.41,-182.34 851.42,-178.85 841.42,-175.34 841.41,-182.34"/>
</g>
<!-- Node61&#45;&gt;Node37 -->
<g id="edge122" class="edge">
<title>Node61&#45;&gt;Node37</title>
<path fill="none" stroke="midnightblue" d="M1077.78,-504.47C1035,-495.55 987.75,-478.48 1009,-448 1023.68,-426.94 1181.18,-379.89 1256.86,-358.26"/>
<polygon fill="midnightblue" stroke="midnightblue" points="1257.87,-361.61 1266.53,-355.51 1255.96,-354.88 1257.87,-361.61"/>
</g>
<!-- Node61&#45;&gt;Node55 -->
<g id="edge121" class="edge">
<title>Node61&#45;&gt;Node55</title>
<path fill="none" stroke="midnightblue" d="M1089.41,-504.44C1037.59,-494.92 953.87,-479.55 898.38,-469.36"/>
<polygon fill="midnightblue" stroke="midnightblue" points="898.84,-465.88 888.37,-467.52 897.57,-472.77 898.84,-465.88"/>
</g>
<!-- Node62&#45;&gt;Node11 -->
<g id="edge128" class="edge">
<title>Node62&#45;&gt;Node11</title>
<path fill="none" stroke="midnightblue" d="M2802.25,-456.36C2955.66,-454.31 3325.66,-445.87 3370,-412 3436.24,-361.4 3432,-318.35 3432,-235 3432,-235 3432,-235 3432,-121 3432,-90.2 3431.21,-76.24 3408,-56 3382.67,-33.91 3287.11,-20.22 3236.27,-14.35"/>
<polygon fill="midnightblue" stroke="midnightblue" points="3236.47,-10.85 3226.15,-13.21 3235.69,-17.8 3236.47,-10.85"/>
</g>
<!-- Node62&#45;&gt;Node19 -->
<g id="edge125" class="edge">
<title>Node62&#45;&gt;Node19</title>
<path fill="none" stroke="midnightblue" d="M2694.05,-448.48C2651.95,-439.81 2585.31,-425.71 2528,-412 2517.57,-409.51 2221.81,-331.72 2109.6,-302.21"/>
<polygon fill="midnightblue" stroke="midnightblue" points="2110.21,-298.75 2099.65,-299.59 2108.43,-305.52 2110.21,-298.75"/>
</g>
<!-- Node62&#45;&gt;Node31 -->
<g id="edge126" class="edge">
<title>Node62&#45;&gt;Node31</title>
<path fill="none" stroke="midnightblue" d="M2669.77,-448.8C2666.81,-448.52 2663.87,-448.25 2661,-448 2377.1,-423.71 2040.29,-410.9 1879.15,-405.76"/>
<polygon fill="midnightblue" stroke="midnightblue" points="1878.9,-402.25 1868.79,-405.43 1878.68,-409.24 1878.9,-402.25"/>
</g>
<!-- Node62&#45;&gt;Node37 -->
<g id="edge127" class="edge">
<title>Node62&#45;&gt;Node37</title>
<path fill="none" stroke="midnightblue" d="M2669.76,-448.97C2666.8,-448.64 2663.87,-448.31 2661,-448 2408.83,-420.44 2345.91,-411.61 2093,-392 1809.39,-370.01 1468.15,-354.33 1344.58,-348.99"/>
<polygon fill="midnightblue" stroke="midnightblue" points="1344.48,-345.49 1334.34,-348.56 1344.18,-352.48 1344.48,-345.49"/>
</g>
<!-- Node63&#45;&gt;Node8 -->
<g id="edge135" class="edge">
<title>Node63&#45;&gt;Node8</title>
<path fill="none" stroke="midnightblue" d="M2634.58,-448.49C2710.5,-432.91 2845.61,-395.79 2795,-336 2732.4,-262.05 2667.54,-341.52 2580,-300 2506.3,-265.04 2442,-260.57 2442,-179 2442,-179 2442,-179 2442,-121 2442,-34.59 2128.65,-15.85 2021.46,-11.97"/>
<polygon fill="midnightblue" stroke="midnightblue" points="2021.28,-8.46 2011.17,-11.62 2021.04,-15.46 2021.28,-8.46"/>
</g>
<!-- Node63&#45;&gt;Node11 -->
<g id="edge136" class="edge">
<title>Node63&#45;&gt;Node11</title>
<path fill="none" stroke="midnightblue" d="M2652.35,-448.87C2655.27,-448.56 2658.17,-448.27 2661,-448 2810.61,-433.72 3225.43,-462.97 3331,-356 3389.65,-296.57 3394,-262.5 3394,-179 3394,-179 3394,-179 3394,-121 3394,-90.2 3392.72,-76.79 3370,-56 3333,-22.16 3273.12,-13.35 3236.29,-11.3"/>
<polygon fill="midnightblue" stroke="midnightblue" points="3236.24,-7.79 3226.1,-10.87 3235.95,-14.79 3236.24,-7.79"/>
</g>
<!-- Node63&#45;&gt;Node13 -->
<g id="edge138" class="edge">
<title>Node63&#45;&gt;Node13</title>
<path fill="none" stroke="midnightblue" d="M2652.36,-448.97C2655.28,-448.64 2658.17,-448.31 2661,-448 2742.02,-439.08 2958.33,-457.43 3026,-412 3076.51,-378.09 3090,-351.84 3090,-291 3090,-291 3090,-291 3090,-233 3090,-112.65 2927.73,-45.18 2855.72,-21.16"/>
<polygon fill="midnightblue" stroke="midnightblue" points="2856.38,-17.69 2845.78,-17.93 2854.21,-24.35 2856.38,-17.69"/>
</g>
<!-- Node63&#45;&gt;Node14 -->
<g id="edge134" class="edge">
<title>Node63&#45;&gt;Node14</title>
<path fill="none" stroke="midnightblue" d="M2652.16,-448.94C2734.59,-438.44 2866.81,-420.41 2874,-412 2884.67,-399.53 2893.99,-362.35 2870,-336 2804.48,-264.03 2744.42,-336.01 2654,-300 2515.09,-244.67 2511.34,-173.38 2375,-112 2327.56,-90.64 2268.09,-78.01 2232.4,-71.81"/>
<polygon fill="midnightblue" stroke="midnightblue" points="2232.57,-68.29 2222.13,-70.08 2231.41,-75.19 2232.57,-68.29"/>
</g>
<!-- Node63&#45;&gt;Node19 -->
<g id="edge130" class="edge">
<title>Node63&#45;&gt;Node19</title>
<path fill="none" stroke="midnightblue" d="M2560.14,-448.42C2473.58,-420.79 2201.88,-334.06 2103.24,-302.57"/>
<polygon fill="midnightblue" stroke="midnightblue" points="2104.29,-299.23 2093.7,-299.52 2102.16,-305.9 2104.29,-299.23"/>
</g>
<!-- Node63&#45;&gt;Node31 -->
<g id="edge131" class="edge">
<title>Node63&#45;&gt;Node31</title>
<path fill="none" stroke="midnightblue" d="M2521.65,-448.84C2518.73,-448.54 2515.84,-448.26 2513,-448 2285.86,-427.2 2018.01,-413.41 1878.8,-407.05"/>
<polygon fill="midnightblue" stroke="midnightblue" points="1878.74,-403.55 1868.59,-406.59 1878.42,-410.54 1878.74,-403.55"/>
</g>
<!-- Node63&#45;&gt;Node32 -->
<g id="edge132" class="edge">
<title>Node63&#45;&gt;Node32</title>
<path fill="none" stroke="midnightblue" d="M2621.82,-448.47C2643.43,-441.66 2670.51,-430.18 2689,-412 2701.99,-399.22 2709.95,-379.76 2714.37,-365.46"/>
<polygon fill="midnightblue" stroke="midnightblue" points="2717.77,-366.3 2717.09,-355.73 2711.02,-364.42 2717.77,-366.3"/>
</g>
<!-- Node63&#45;&gt;Node36 -->
<g id="edge137" class="edge">
<title>Node63&#45;&gt;Node36</title>
<path fill="none" stroke="midnightblue" d="M2524.26,-448.46C2430.48,-435.77 2248.15,-411.33 2093,-392 1881.62,-365.66 1829,-356.81 1617,-336 1515.62,-326.05 1253.78,-339.78 1160,-300 1113.04,-280.08 1119.42,-247.22 1074,-224 1019.34,-196.06 947.54,-185.34 906.52,-181.32"/>
<polygon fill="midnightblue" stroke="midnightblue" points="906.81,-177.83 896.53,-180.42 906.18,-184.81 906.81,-177.83"/>
</g>
<!-- Node63&#45;&gt;Node37 -->
<g id="edge133" class="edge">
<title>Node63&#45;&gt;Node37</title>
<path fill="none" stroke="midnightblue" d="M2521.64,-449.01C2518.72,-448.66 2515.83,-448.33 2513,-448 2285.6,-421.74 2229.06,-411.75 2001,-392 1754,-370.61 1457.44,-354.91 1344.13,-349.28"/>
<polygon fill="midnightblue" stroke="midnightblue" points="1344.22,-345.78 1334.06,-348.78 1343.88,-352.77 1344.22,-345.78"/>
</g>
<!-- Node64&#45;&gt;Node8 -->
<g id="edge144" class="edge">
<title>Node64&#45;&gt;Node8</title>
<path fill="none" stroke="midnightblue" d="M431.93,-448.4C362.33,-418.8 148.49,-317.83 226,-224 477.92,80.96 707.3,-103.48 1100,-56 1269.12,-35.55 1807.54,-16.84 1950.74,-12.13"/>
<polygon fill="midnightblue" stroke="midnightblue" points="1950.85,-15.63 1960.73,-11.81 1950.62,-8.64 1950.85,-15.63"/>
</g>
<!-- Node64&#45;&gt;Node19 -->
<g id="edge140" class="edge">
<title>Node64&#45;&gt;Node19</title>
<path fill="none" stroke="midnightblue" d="M472.47,-448.49C509.01,-432.64 586.74,-399.52 615,-392 789.33,-345.63 837.35,-352.33 1017,-336 1383.83,-302.67 1825.06,-293.92 1995.23,-291.71"/>
<polygon fill="midnightblue" stroke="midnightblue" points="1995.37,-295.21 2005.32,-291.59 1995.28,-288.21 1995.37,-295.21"/>
</g>
<!-- Node64&#45;&gt;Node31 -->
<g id="edge141" class="edge">
<title>Node64&#45;&gt;Node31</title>
<path fill="none" stroke="midnightblue" d="M517.14,-448.86C520.47,-448.54 523.77,-448.25 527,-448 960.2,-413.96 1479.43,-405.65 1689.2,-403.64"/>
<polygon fill="midnightblue" stroke="midnightblue" points="1689.29,-407.14 1699.26,-403.54 1689.23,-400.14 1689.29,-407.14"/>
</g>
<!-- Node64&#45;&gt;Node36 -->
<g id="edge145" class="edge">
<title>Node64&#45;&gt;Node36</title>
<path fill="none" stroke="midnightblue" d="M441.91,-448.33C421.49,-431.29 380,-391.24 380,-347 380,-347 380,-347 380,-289 380,-194.19 731.08,-181.06 841.3,-179.27"/>
<polygon fill="midnightblue" stroke="midnightblue" points="841.54,-182.77 851.49,-179.13 841.44,-175.77 841.54,-182.77"/>
</g>
<!-- Node64&#45;&gt;Node37 -->
<g id="edge143" class="edge">
<title>Node64&#45;&gt;Node37</title>
<path fill="none" stroke="midnightblue" d="M480.77,-448.42C527.97,-434.2 627.12,-405.94 713,-392 910.77,-359.89 1150.04,-350.55 1249.79,-347.95"/>
<polygon fill="midnightblue" stroke="midnightblue" points="1249.94,-351.45 1259.85,-347.7 1249.76,-344.45 1249.94,-351.45"/>
</g>
<!-- Node64&#45;&gt;Node47 -->
<g id="edge142" class="edge">
<title>Node64&#45;&gt;Node47</title>
<path fill="none" stroke="midnightblue" d="M467.34,-448.49C490.8,-434.87 539.18,-408.08 583,-392 785.62,-317.64 1044.54,-297.98 1158.17,-292.82"/>
<polygon fill="midnightblue" stroke="midnightblue" points="1158.54,-296.31 1168.38,-292.38 1158.23,-289.31 1158.54,-296.31"/>
</g>
<!-- Node65&#45;&gt;Node19 -->
<g id="edge147" class="edge">
<title>Node65&#45;&gt;Node19</title>
<path fill="none" stroke="midnightblue" d="M1383.91,-448.21C1400.14,-424.9 1448.09,-361.56 1506,-336 1604.87,-292.36 1883.42,-310.36 1991,-300 1992.3,-299.87 1993.62,-299.75 1994.94,-299.61"/>
<polygon fill="midnightblue" stroke="midnightblue" points="1995.64,-303.06 2005.22,-298.54 1994.91,-296.1 1995.64,-303.06"/>
</g>
<!-- Node65&#45;&gt;Node31 -->
<g id="edge148" class="edge">
<title>Node65&#45;&gt;Node31</title>
<path fill="none" stroke="midnightblue" d="M1442.33,-448.44C1515.09,-438.77 1633.37,-423.04 1709.92,-412.85"/>
<polygon fill="midnightblue" stroke="midnightblue" points="1710.52,-416.3 1719.97,-411.52 1709.59,-409.37 1710.52,-416.3"/>
</g>
<!-- Node65&#45;&gt;Node36 -->
<g id="edge150" class="edge">
<title>Node65&#45;&gt;Node36</title>
<path fill="none" stroke="midnightblue" d="M1319.46,-448.48C1256.61,-439 1161.05,-423.49 1126,-412 1018.71,-376.84 966.77,-389.53 898,-300 874.92,-269.95 872.28,-223.65 872.85,-197.91"/>
<polygon fill="midnightblue" stroke="midnightblue" points="876.36,-197.8 873.27,-187.66 869.36,-197.51 876.36,-197.8"/>
</g>
<!-- Node65&#45;&gt;Node37 -->
<g id="edge149" class="edge">
<title>Node65&#45;&gt;Node37</title>
<path fill="none" stroke="midnightblue" d="M1371.64,-448.37C1358.22,-430.14 1326.77,-387.43 1309.28,-363.68"/>
<polygon fill="midnightblue" stroke="midnightblue" points="1312.07,-361.57 1303.33,-355.59 1306.44,-365.72 1312.07,-361.57"/>
</g>
<!-- Node66&#45;&gt;Node19 -->
<g id="edge152" class="edge">
<title>Node66&#45;&gt;Node19</title>
<path fill="none" stroke="midnightblue" d="M1245.79,-448.49C1290.12,-423.13 1421.75,-349.06 1469,-336 1693.15,-274.06 1759.46,-321.68 1991,-300 1992.3,-299.88 1993.62,-299.75 1994.94,-299.62"/>
<polygon fill="midnightblue" stroke="midnightblue" points="1995.63,-303.07 2005.23,-298.57 1994.92,-296.11 1995.63,-303.07"/>
</g>
<!-- Node66&#45;&gt;Node31 -->
<g id="edge153" class="edge">
<title>Node66&#45;&gt;Node31</title>
<path fill="none" stroke="midnightblue" d="M1295.56,-449.04C1298.75,-448.68 1301.91,-448.33 1305,-448 1438.14,-433.65 1592.39,-419.63 1689.09,-411.15"/>
<polygon fill="midnightblue" stroke="midnightblue" points="1689.48,-414.63 1699.13,-410.27 1688.87,-407.65 1689.48,-414.63"/>
</g>
<!-- Node66&#45;&gt;Node36 -->
<g id="edge155" class="edge">
<title>Node66&#45;&gt;Node36</title>
<path fill="none" stroke="midnightblue" d="M1178.25,-448.46C1133.55,-440.67 1067.99,-427.97 1012,-412 942.77,-392.25 901.18,-415.06 860,-356 825.97,-307.19 851.22,-231.35 865.7,-197"/>
<polygon fill="midnightblue" stroke="midnightblue" points="868.95,-198.31 869.77,-187.75 862.54,-195.49 868.95,-198.31"/>
</g>
<!-- Node66&#45;&gt;Node37 -->
<g id="edge154" class="edge">
<title>Node66&#45;&gt;Node37</title>
<path fill="none" stroke="midnightblue" d="M1236.18,-448.37C1247.02,-430.3 1272.29,-388.18 1286.62,-364.31"/>
<polygon fill="midnightblue" stroke="midnightblue" points="1289.7,-365.97 1291.85,-355.59 1283.7,-362.37 1289.7,-365.97"/>
</g>
<!-- Node67&#45;&gt;Node11 -->
<g id="edge160" class="edge">
<title>Node67&#45;&gt;Node11</title>
<path fill="none" stroke="midnightblue" d="M1984.17,-448.89C1987.49,-448.57 1990.78,-448.27 1994,-448 2302.21,-422.03 2382.98,-456.93 2689,-412 2740.83,-404.39 3098.56,-319.96 3147,-300 3191.61,-281.62 3210.98,-282.55 3240,-244 3255.5,-223.41 3251.41,-213.51 3255,-188 3263.2,-129.7 3270.6,-108.52 3244,-56 3238.47,-45.09 3229.64,-34.75 3221.68,-26.74"/>
<polygon fill="midnightblue" stroke="midnightblue" points="3223.82,-23.95 3214.17,-19.58 3218.99,-29.01 3223.82,-23.95"/>
</g>
<!-- Node67&#45;&gt;Node19 -->
<g id="edge157" class="edge">
<title>Node67&#45;&gt;Node19</title>
<path fill="none" stroke="midnightblue" d="M1925.06,-448.08C1949.19,-421.38 2021.04,-341.87 2052.25,-307.32"/>
<polygon fill="midnightblue" stroke="midnightblue" points="2055.15,-309.33 2059.26,-299.57 2049.96,-304.64 2055.15,-309.33"/>
</g>
<!-- Node67&#45;&gt;Node31 -->
<g id="edge158" class="edge">
<title>Node67&#45;&gt;Node31</title>
<path fill="none" stroke="midnightblue" d="M1895.93,-448.44C1873.94,-439.52 1839.27,-425.44 1814.34,-415.32"/>
<polygon fill="midnightblue" stroke="midnightblue" points="1815.56,-412.04 1804.98,-411.52 1812.92,-418.52 1815.56,-412.04"/>
</g>
<!-- Node67&#45;&gt;Node36 -->
<g id="edge161" class="edge">
<title>Node67&#45;&gt;Node36</title>
<path fill="none" stroke="midnightblue" d="M1850.6,-448.49C1683.71,-426.98 1255.48,-371.11 1192,-356 1117.07,-338.16 1095.62,-336.88 1028,-300 980.23,-273.94 974.83,-257.57 932,-224 919.05,-213.85 904.41,-202.49 893.08,-193.73"/>
<polygon fill="midnightblue" stroke="midnightblue" points="895.2,-190.94 885.14,-187.59 890.92,-196.48 895.2,-190.94"/>
</g>
<!-- Node67&#45;&gt;Node37 -->
<g id="edge159" class="edge">
<title>Node67&#45;&gt;Node37</title>
<path fill="none" stroke="midnightblue" d="M1914.67,-448.41C1910.24,-433.91 1899.1,-404.91 1878,-392 1777.3,-330.39 1465.18,-370.28 1348,-356 1346.74,-355.85 1345.47,-355.68 1344.19,-355.51"/>
<polygon fill="midnightblue" stroke="midnightblue" points="1344.66,-352.04 1334.25,-354.05 1343.64,-358.97 1344.66,-352.04"/>
</g>
<!-- Node68&#45;&gt;Node11 -->
<g id="edge166" class="edge">
<title>Node68&#45;&gt;Node11</title>
<path fill="none" stroke="midnightblue" d="M2133.78,-453.1C2307.1,-442.81 2765.29,-415.46 2798,-412 2881.35,-403.19 3092.73,-385.98 3171,-356 3277.27,-315.3 3356,-292.79 3356,-179 3356,-179 3356,-179 3356,-121 3356,-90.2 3353.95,-77.6 3332,-56 3306.14,-30.54 3265.04,-19.42 3236.41,-14.61"/>
<polygon fill="midnightblue" stroke="midnightblue" points="3236.89,-11.14 3226.48,-13.11 3235.85,-18.07 3236.89,-11.14"/>
</g>
<!-- Node68&#45;&gt;Node19 -->
<g id="edge163" class="edge">
<title>Node68&#45;&gt;Node19</title>
<path fill="none" stroke="midnightblue" d="M2076.75,-448.29C2084.56,-439.84 2095.45,-426.25 2100,-412 2102.7,-403.53 2103.71,-400.08 2100,-392 2089.73,-369.66 2068.27,-378.34 2058,-356 2051.24,-341.3 2054.75,-322.9 2059.22,-309.44"/>
<polygon fill="midnightblue" stroke="midnightblue" points="2062.57,-310.45 2062.83,-299.86 2056.02,-307.98 2062.57,-310.45"/>
</g>
<!-- Node68&#45;&gt;Node31 -->
<g id="edge164" class="edge">
<title>Node68&#45;&gt;Node31</title>
<path fill="none" stroke="midnightblue" d="M2023,-448.44C1973.04,-438.94 1892.4,-423.61 1838.8,-413.42"/>
<polygon fill="midnightblue" stroke="midnightblue" points="1839.27,-409.95 1828.79,-411.52 1837.96,-416.82 1839.27,-409.95"/>
</g>
<!-- Node68&#45;&gt;Node36 -->
<g id="edge167" class="edge">
<title>Node68&#45;&gt;Node36</title>
<path fill="none" stroke="midnightblue" d="M2055.33,-448.46C2033.22,-434.05 1985.67,-405.16 1941,-392 1787.18,-346.68 1741.45,-373.03 1582,-356 1554.54,-353.07 1112.35,-313.04 1088,-300 1049.08,-279.14 1060.91,-248.24 1024,-224 987.86,-200.26 938.74,-188.65 906.71,-183.26"/>
<polygon fill="midnightblue" stroke="midnightblue" points="906.97,-179.76 896.55,-181.66 905.88,-186.67 906.97,-179.76"/>
</g>
<!-- Node68&#45;&gt;Node37 -->
<g id="edge165" class="edge">
<title>Node68&#45;&gt;Node37</title>
<path fill="none" stroke="midnightblue" d="M2046.91,-448.38C2005.41,-431.46 1915.85,-395.29 1901,-392 1660.54,-338.71 1592.53,-385.45 1348,-356 1346.74,-355.85 1345.47,-355.69 1344.19,-355.52"/>
<polygon fill="midnightblue" stroke="midnightblue" points="1344.66,-352.05 1334.25,-354.06 1343.64,-358.97 1344.66,-352.05"/>
</g>
<!-- Node69&#45;&gt;Node19 -->
<g id="edge169" class="edge">
<title>Node69&#45;&gt;Node19</title>
<path fill="none" stroke="midnightblue" d="M1736.94,-448.36C1711.39,-436.62 1673.74,-414.51 1691,-392 1727.8,-344.02 1896.82,-313.77 1995.27,-299.91"/>
<polygon fill="midnightblue" stroke="midnightblue" points="1996.02,-303.33 2005.45,-298.5 1995.06,-296.4 1996.02,-303.33"/>
</g>
<!-- Node69&#45;&gt;Node31 -->
<g id="edge170" class="edge">
<title>Node69&#45;&gt;Node31</title>
<path fill="none" stroke="midnightblue" d="M1762.29,-448.08C1765.85,-440.69 1771.02,-429.95 1775.42,-420.81"/>
<polygon fill="midnightblue" stroke="midnightblue" points="1778.6,-422.28 1779.79,-411.75 1772.29,-419.24 1778.6,-422.28"/>
</g>
<!-- Node69&#45;&gt;Node36 -->
<g id="edge172" class="edge">
<title>Node69&#45;&gt;Node36</title>
<path fill="none" stroke="midnightblue" d="M1683.68,-449.3C1511.5,-430.33 1091.01,-377.23 974,-300 973.3,-299.54 914.79,-228.53 887.6,-195.52"/>
<polygon fill="midnightblue" stroke="midnightblue" points="890.19,-193.16 881.13,-187.66 884.79,-197.61 890.19,-193.16"/>
</g>
<!-- Node69&#45;&gt;Node37 -->
<g id="edge171" class="edge">
<title>Node69&#45;&gt;Node37</title>
<path fill="none" stroke="midnightblue" d="M1722.21,-448.46C1639.32,-428.68 1434.28,-379.76 1342.59,-357.88"/>
<polygon fill="midnightblue" stroke="midnightblue" points="1343.31,-354.45 1332.77,-355.53 1341.68,-361.26 1343.31,-354.45"/>
</g>
<!-- Node70&#45;&gt;Node3 -->
<g id="edge175" class="edge">
<title>Node70&#45;&gt;Node3</title>
<path fill="none" stroke="midnightblue" d="M2825.71,-280.48C2776.95,-273.23 2709.01,-261.22 2651,-244 2526.07,-206.9 2498.01,-187.3 2380,-132 2362.72,-123.9 2360.29,-117.45 2342,-112 2266.57,-89.52 2040.73,-75.55 1930.66,-69.89"/>
<polygon fill="midnightblue" stroke="midnightblue" points="1930.55,-66.38 1920.38,-69.37 1930.19,-73.37 1930.55,-66.38"/>
</g>
<!-- Node70&#45;&gt;Node8 -->
<g id="edge177" class="edge">
<title>Node70&#45;&gt;Node8</title>
<path fill="none" stroke="midnightblue" d="M2890.93,-280.4C2890.32,-259.09 2886.08,-203.1 2859,-168 2851.55,-158.34 2681.66,-59.61 2670,-56 2547.1,-17.94 2143.85,-12.07 2021.51,-11.16"/>
<polygon fill="midnightblue" stroke="midnightblue" points="2021.23,-7.66 2011.21,-11.1 2021.19,-14.66 2021.23,-7.66"/>
</g>
<!-- Node70&#45;&gt;Node11 -->
<g id="edge180" class="edge">
<title>Node70&#45;&gt;Node11</title>
<path fill="none" stroke="midnightblue" d="M2923.77,-280.38C2945.76,-273.34 2974.37,-261.64 2995,-244 3070.16,-179.74 3040.65,-122.32 3114,-56 3130.81,-40.81 3153.68,-29.46 3172.17,-21.96"/>
<polygon fill="midnightblue" stroke="midnightblue" points="3173.58,-25.16 3181.64,-18.29 3171.06,-18.63 3173.58,-25.16"/>
</g>
<!-- Node70&#45;&gt;Node30 -->
<g id="edge179" class="edge">
<title>Node70&#45;&gt;Node30</title>
<path fill="none" stroke="midnightblue" d="M2810.36,-281.27C2731.93,-273.36 2609.5,-259.99 2504,-244 2391.78,-226.99 2260.33,-200.57 2196.2,-187.26"/>
<polygon fill="midnightblue" stroke="midnightblue" points="2196.63,-183.78 2186.13,-185.17 2195.21,-190.63 2196.63,-183.78"/>
</g>
<!-- Node70&#45;&gt;Node33 -->
<g id="edge176" class="edge">
<title>Node70&#45;&gt;Node33</title>
<path fill="none" stroke="midnightblue" d="M2863.43,-280.44C2833.9,-271.28 2786.88,-256.69 2754.12,-246.52"/>
<polygon fill="midnightblue" stroke="midnightblue" points="2755.03,-243.14 2744.44,-243.52 2752.96,-249.82 2755.03,-243.14"/>
</g>
<!-- Node70&#45;&gt;Node28 -->
<g id="edge178" class="edge">
<title>Node70&#45;&gt;Node28</title>
<path fill="none" stroke="midnightblue" d="M2886.29,-280.37C2876.48,-262.38 2853.66,-220.55 2840.61,-196.63"/>
<polygon fill="midnightblue" stroke="midnightblue" points="2843.55,-194.69 2835.69,-187.59 2837.4,-198.05 2843.55,-194.69"/>
</g>
<!-- Node71 -->
<g id="node48" class="node">
<title>Node71</title>
<g id="a_node48"><a xlink:title=" ">
<polygon fill="none" stroke="#bfbfbf" points="2944.5,-224.5 2944.5,-243.5 2985.5,-243.5 2985.5,-224.5 2944.5,-224.5"/>
<text text-anchor="middle" x="2965" y="-231.5" font-family="Helvetica,sans-Serif" font-size="10.00">tuple</text>
</a>
</g>
</g>
<!-- Node70&#45;&gt;Node71 -->
<g id="edge181" class="edge">
<title>Node70&#45;&gt;Node71</title>
<path fill="none" stroke="midnightblue" d="M2902.89,-280.32C2914.15,-272.11 2931.29,-259.6 2944.71,-249.81"/>
<polygon fill="midnightblue" stroke="midnightblue" points="2946.88,-252.56 2952.89,-243.83 2942.75,-246.9 2946.88,-252.56"/>
</g>
<!-- Node72&#45;&gt;Node14 -->
<g id="edge187" class="edge">
<title>Node72&#45;&gt;Node14</title>
<path fill="none" stroke="midnightblue" d="M2623.3,-392.27C2620.05,-378.09 2611.57,-350.23 2593,-336 2527.2,-285.59 2487.67,-328.94 2410,-300 2362.99,-282.48 2348.19,-278.74 2312,-244 2261.49,-195.52 2224.04,-119.51 2208.68,-85.06"/>
<polygon fill="midnightblue" stroke="midnightblue" points="2211.83,-83.54 2204.63,-75.78 2205.42,-86.34 2211.83,-83.54"/>
</g>
<!-- Node72&#45;&gt;Node30 -->
<g id="edge188" class="edge">
<title>Node72&#45;&gt;Node30</title>
<path fill="none" stroke="midnightblue" d="M2619.91,-392.09C2611.14,-377.65 2591.72,-349.42 2567,-336 2474.53,-285.79 2430.82,-338.78 2333,-300 2330.84,-299.14 2223.97,-225.31 2177.84,-193.42"/>
<polygon fill="midnightblue" stroke="midnightblue" points="2179.69,-190.44 2169.47,-187.63 2175.71,-196.19 2179.69,-190.44"/>
</g>
<!-- Node72&#45;&gt;Node32 -->
<g id="edge183" class="edge">
<title>Node72&#45;&gt;Node32</title>
<path fill="none" stroke="midnightblue" d="M2640.1,-392.32C2654.9,-383.82 2677.69,-370.73 2694.98,-360.8"/>
<polygon fill="midnightblue" stroke="midnightblue" points="2697.01,-363.67 2703.93,-355.65 2693.52,-357.6 2697.01,-363.67"/>
</g>
<!-- Node72&#45;&gt;Node36 -->
<g id="edge189" class="edge">
<title>Node72&#45;&gt;Node36</title>
<path fill="none" stroke="midnightblue" d="M2587.62,-392.42C2549.07,-383.53 2487.26,-369.11 2434,-356 2302.11,-323.54 2272.28,-300.42 2138,-280 1824.31,-232.31 1741.18,-270.6 1425,-244 1227.56,-227.39 991.66,-195.51 906.59,-183.62"/>
<polygon fill="midnightblue" stroke="midnightblue" points="906.9,-180.13 896.51,-182.21 905.93,-187.06 906.9,-180.13"/>
</g>
<!-- Node72&#45;&gt;Node37 -->
<g id="edge186" class="edge">
<title>Node72&#45;&gt;Node37</title>
<path fill="none" stroke="midnightblue" d="M2569.93,-397.27C2542.85,-395.52 2509.72,-393.49 2480,-392 2038.79,-369.92 1504.54,-353.19 1344.49,-348.4"/>
<polygon fill="midnightblue" stroke="midnightblue" points="1344.16,-344.89 1334.06,-348.09 1343.95,-351.88 1344.16,-344.89"/>
</g>
<!-- Node73 -->
<g id="node50" class="node">
<title>Node73</title>
<g id="a_node50"><a xlink:href="../../d7/d46/_raw_parser_8h.html" target="_top" xlink:title=" ">
<polygon fill="none" stroke="black" points="2442.5,-336.5 2442.5,-355.5 2557.5,-355.5 2557.5,-336.5 2442.5,-336.5"/>
<text text-anchor="middle" x="2500" y="-343.5" font-family="Helvetica,sans-Serif" font-size="10.00">parsers/RawParser.h</text>
</a>
</g>
</g>
<!-- Node72&#45;&gt;Node73 -->
<g id="edge184" class="edge">
<title>Node72&#45;&gt;Node73</title>
<path fill="none" stroke="midnightblue" d="M2605.19,-392.44C2584.71,-383.6 2552.52,-369.69 2529.14,-359.59"/>
<polygon fill="midnightblue" stroke="midnightblue" points="2530.28,-356.27 2519.71,-355.52 2527.51,-362.7 2530.28,-356.27"/>
</g>
<!-- Node73&#45;&gt;Node30 -->
<g id="edge185" class="edge">
<title>Node73&#45;&gt;Node30</title>
<path fill="none" stroke="midnightblue" d="M2447.08,-336.47C2395.51,-327.62 2321.18,-313.23 2295,-300 2242.37,-273.4 2193.71,-222.02 2170.79,-195.59"/>
<polygon fill="midnightblue" stroke="midnightblue" points="2173.18,-193 2164.03,-187.66 2167.85,-197.54 2173.18,-193"/>
</g>
</g>
</svg>
