<?xml version="1.0" encoding="UTF-8" standalone="no"?>
<!DOCTYPE svg PUBLIC "-//W3C//DTD SVG 1.1//EN"
 "http://www.w3.org/Graphics/SVG/1.1/DTD/svg11.dtd">
<!-- Generated by graphviz version 2.43.0 (0)
 -->
<!-- Title: librawspeed/tiff/TiffEntry.h Pages: 1 -->
<svg width="1228pt" height="364pt"
 viewBox="0.00 0.00 1228.00 364.00" xmlns="http://www.w3.org/2000/svg" xmlns:xlink="http://www.w3.org/1999/xlink">
<g id="graph0" class="graph" transform="scale(1 1) rotate(0) translate(4 360)">
<title>librawspeed/tiff/TiffEntry.h</title>
<!-- Node1 -->
<g id="node1" class="node">
<title>Node1</title>
<g id="a_node1"><a xlink:title=" ">
<polygon fill="#bfbfbf" stroke="black" points="967,-336.5 967,-355.5 1111,-355.5 1111,-336.5 967,-336.5"/>
<text text-anchor="middle" x="1039" y="-343.5" font-family="Helvetica,sans-Serif" font-size="10.00">librawspeed/tiff/TiffEntry.h</text>
</a>
</g>
</g>
<!-- Node2 -->
<g id="node2" class="node">
<title>Node2</title>
<g id="a_node2"><a xlink:href="../../d7/de7/_byte_stream_8h.html" target="_top" xlink:title=" ">
<polygon fill="none" stroke="black" points="584.5,-280.5 584.5,-299.5 679.5,-299.5 679.5,-280.5 584.5,-280.5"/>
<text text-anchor="middle" x="632" y="-287.5" font-family="Helvetica,sans-Serif" font-size="10.00">io/ByteStream.h</text>
</a>
</g>
</g>
<!-- Node1&#45;&gt;Node2 -->
<g id="edge1" class="edge">
<title>Node1&#45;&gt;Node2</title>
<path fill="none" stroke="midnightblue" d="M974.51,-336.44C896.16,-326.05 765.14,-308.66 689.89,-298.68"/>
<polygon fill="midnightblue" stroke="midnightblue" points="690.03,-295.17 679.66,-297.32 689.11,-302.11 690.03,-295.17"/>
</g>
<!-- Node9 -->
<g id="node9" class="node">
<title>Node9</title>
<g id="a_node9"><a xlink:title=" ">
<polygon fill="none" stroke="#bfbfbf" points="379,-0.5 379,-19.5 429,-19.5 429,-0.5 379,-0.5"/>
<text text-anchor="middle" x="404" y="-7.5" font-family="Helvetica,sans-Serif" font-size="10.00">cstdint</text>
</a>
</g>
</g>
<!-- Node1&#45;&gt;Node9 -->
<g id="edge47" class="edge">
<title>Node1&#45;&gt;Node9</title>
<path fill="none" stroke="midnightblue" d="M966.81,-343.21C761.33,-337.16 188,-313.26 188,-235 188,-235 188,-235 188,-121 188,-40.84 307.58,-19.07 368.8,-13.18"/>
<polygon fill="midnightblue" stroke="midnightblue" points="369.14,-16.66 378.8,-12.3 368.53,-9.69 369.14,-16.66"/>
</g>
<!-- Node12 -->
<g id="node12" class="node">
<title>Node12</title>
<g id="a_node12"><a xlink:title=" ">
<polygon fill="none" stroke="#bfbfbf" points="909,-0.5 909,-19.5 953,-19.5 953,-0.5 909,-0.5"/>
<text text-anchor="middle" x="931" y="-7.5" font-family="Helvetica,sans-Serif" font-size="10.00">string</text>
</a>
</g>
</g>
<!-- Node1&#45;&gt;Node12 -->
<g id="edge48" class="edge">
<title>Node1&#45;&gt;Node12</title>
<path fill="none" stroke="midnightblue" d="M1044.7,-336.29C1055.97,-318.2 1080,-274.95 1080,-235 1080,-235 1080,-235 1080,-121 1080,-87.98 1068.78,-77.82 1044,-56 1020.98,-35.73 987.71,-23.97 963.22,-17.6"/>
<polygon fill="midnightblue" stroke="midnightblue" points="963.87,-14.15 953.32,-15.19 962.21,-20.95 963.87,-14.15"/>
</g>
<!-- Node14 -->
<g id="node14" class="node">
<title>Node14</title>
<g id="a_node14"><a xlink:title=" ">
<polygon fill="none" stroke="#bfbfbf" points="1032.5,-0.5 1032.5,-19.5 1079.5,-19.5 1079.5,-0.5 1032.5,-0.5"/>
<text text-anchor="middle" x="1056" y="-7.5" font-family="Helvetica,sans-Serif" font-size="10.00">vector</text>
</a>
</g>
</g>
<!-- Node1&#45;&gt;Node14 -->
<g id="edge49" class="edge">
<title>Node1&#45;&gt;Node14</title>
<path fill="none" stroke="midnightblue" d="M1053.47,-336.31C1065.76,-328.27 1083.11,-315.27 1094,-300 1111.88,-274.93 1118,-265.8 1118,-235 1118,-235 1118,-235 1118,-121 1118,-83.62 1090.5,-47.24 1072.13,-27.1"/>
<polygon fill="midnightblue" stroke="midnightblue" points="1074.57,-24.59 1065.15,-19.75 1069.49,-29.41 1074.57,-24.59"/>
</g>
<!-- Node21 -->
<g id="node21" class="node">
<title>Node21</title>
<g id="a_node21"><a xlink:title=" ">
<polygon fill="none" stroke="#bfbfbf" points="972,-56.5 972,-75.5 1014,-75.5 1014,-56.5 972,-56.5"/>
<text text-anchor="middle" x="993" y="-63.5" font-family="Helvetica,sans-Serif" font-size="10.00">array</text>
</a>
</g>
</g>
<!-- Node1&#45;&gt;Node21 -->
<g id="edge46" class="edge">
<title>Node1&#45;&gt;Node21</title>
<path fill="none" stroke="midnightblue" d="M1033.3,-336.29C1022.03,-318.2 998,-274.95 998,-235 998,-235 998,-235 998,-177 998,-144.91 995.85,-107.62 994.37,-85.74"/>
<polygon fill="midnightblue" stroke="midnightblue" points="997.85,-85.28 993.65,-75.55 990.86,-85.77 997.85,-85.28"/>
</g>
<!-- Node28 -->
<g id="node28" class="node">
<title>Node28</title>
<g id="a_node28"><a xlink:href="../../d0/d6b/_tiff_tag_8h.html" target="_top" xlink:title=" ">
<polygon fill="none" stroke="black" points="1146,-280.5 1146,-299.5 1220,-299.5 1220,-280.5 1146,-280.5"/>
<text text-anchor="middle" x="1183" y="-287.5" font-family="Helvetica,sans-Serif" font-size="10.00">tiff/TiffTag.h</text>
</a>
</g>
</g>
<!-- Node1&#45;&gt;Node28 -->
<g id="edge45" class="edge">
<title>Node1&#45;&gt;Node28</title>
<path fill="none" stroke="midnightblue" d="M1061.82,-336.44C1085.83,-327.44 1123.83,-313.19 1150.87,-303.05"/>
<polygon fill="midnightblue" stroke="midnightblue" points="1152.16,-306.3 1160.29,-299.52 1149.7,-299.75 1152.16,-306.3"/>
</g>
<!-- Node3 -->
<g id="node3" class="node">
<title>Node3</title>
<g id="a_node3"><a xlink:href="../../d2/d4f/_address_sanitizer_8h.html" target="_top" xlink:title=" ">
<polygon fill="none" stroke="black" points="470.5,-168.5 470.5,-187.5 577.5,-187.5 577.5,-168.5 470.5,-168.5"/>
<text text-anchor="middle" x="524" y="-175.5" font-family="Helvetica,sans-Serif" font-size="10.00">AddressSanitizer.h</text>
</a>
</g>
</g>
<!-- Node2&#45;&gt;Node3 -->
<g id="edge2" class="edge">
<title>Node2&#45;&gt;Node3</title>
<path fill="none" stroke="midnightblue" d="M628.44,-280.15C622.72,-266.78 610.46,-241.17 594,-224 581.73,-211.2 565.15,-200.34 551.2,-192.49"/>
<polygon fill="midnightblue" stroke="midnightblue" points="552.51,-189.22 542.05,-187.55 549.19,-195.38 552.51,-189.22"/>
</g>
<!-- Node5 -->
<g id="node5" class="node">
<title>Node5</title>
<g id="a_node5"><a xlink:href="../../d9/df5/src_2librawspeed_2common_2_common_8h.html" target="_top" xlink:title=" ">
<polygon fill="none" stroke="black" points="499,-56.5 499,-75.5 615,-75.5 615,-56.5 499,-56.5"/>
<text text-anchor="middle" x="557" y="-63.5" font-family="Helvetica,sans-Serif" font-size="10.00">common/Common.h</text>
</a>
</g>
</g>
<!-- Node2&#45;&gt;Node5 -->
<g id="edge4" class="edge">
<title>Node2&#45;&gt;Node5</title>
<path fill="none" stroke="midnightblue" d="M646.13,-280.29C675.69,-260.92 739.35,-212.46 715,-168 689.66,-121.73 633.11,-93.58 595,-79.14"/>
<polygon fill="midnightblue" stroke="midnightblue" points="595.86,-75.72 585.26,-75.59 593.46,-82.3 595.86,-75.72"/>
</g>
<!-- Node7 -->
<g id="node7" class="node">
<title>Node7</title>
<g id="a_node7"><a xlink:title=" ">
<polygon fill="none" stroke="#bfbfbf" points="178,-0.5 178,-19.5 230,-19.5 230,-0.5 178,-0.5"/>
<text text-anchor="middle" x="204" y="-7.5" font-family="Helvetica,sans-Serif" font-size="10.00">cassert</text>
</a>
</g>
</g>
<!-- Node2&#45;&gt;Node7 -->
<g id="edge41" class="edge">
<title>Node2&#45;&gt;Node7</title>
<path fill="none" stroke="midnightblue" d="M584.39,-285.21C443.44,-273.36 38,-234.45 38,-179 38,-179 38,-179 38,-121 38,-90.9 35.85,-77.42 57,-56 72.51,-40.29 129.37,-26.09 167.66,-18.01"/>
<polygon fill="midnightblue" stroke="midnightblue" points="168.82,-21.34 177.91,-15.9 167.41,-14.49 168.82,-21.34"/>
</g>
<!-- Node2&#45;&gt;Node9 -->
<g id="edge42" class="edge">
<title>Node2&#45;&gt;Node9</title>
<path fill="none" stroke="midnightblue" d="M679.83,-286.26C787.99,-278.76 1042,-253.25 1042,-179 1042,-179 1042,-179 1042,-121 1042,-90.9 1046.52,-74.78 1023,-56 974.05,-16.91 537.47,-29.32 439.17,-19.52"/>
<polygon fill="midnightblue" stroke="midnightblue" points="439.49,-16.03 429.13,-18.24 438.61,-22.97 439.49,-16.03"/>
</g>
<!-- Node10 -->
<g id="node10" class="node">
<title>Node10</title>
<g id="a_node10"><a xlink:title=" ">
<polygon fill="none" stroke="#bfbfbf" points="88,-0.5 88,-19.5 138,-19.5 138,-0.5 88,-0.5"/>
<text text-anchor="middle" x="113" y="-7.5" font-family="Helvetica,sans-Serif" font-size="10.00">cstring</text>
</a>
</g>
</g>
<!-- Node2&#45;&gt;Node10 -->
<g id="edge43" class="edge">
<title>Node2&#45;&gt;Node10</title>
<path fill="none" stroke="midnightblue" d="M584.16,-286.87C476.48,-281.74 217.96,-267.32 134,-244 70.22,-226.29 0,-245.19 0,-179 0,-179 0,-179 0,-121 0,-74.4 49.95,-41.14 83.43,-24.08"/>
<polygon fill="midnightblue" stroke="midnightblue" points="85.35,-27.04 92.8,-19.51 82.28,-20.75 85.35,-27.04"/>
</g>
<!-- Node15 -->
<g id="node15" class="node">
<title>Node15</title>
<g id="a_node15"><a xlink:href="../../d3/de6/_memory_8h.html" target="_top" xlink:title=" ">
<polygon fill="none" stroke="black" points="596,-168.5 596,-187.5 706,-187.5 706,-168.5 596,-168.5"/>
<text text-anchor="middle" x="651" y="-175.5" font-family="Helvetica,sans-Serif" font-size="10.00">common/Memory.h</text>
</a>
</g>
</g>
<!-- Node2&#45;&gt;Node15 -->
<g id="edge14" class="edge">
<title>Node2&#45;&gt;Node15</title>
<path fill="none" stroke="midnightblue" d="M633.49,-280.37C636.56,-262.62 643.63,-221.67 647.79,-197.6"/>
<polygon fill="midnightblue" stroke="midnightblue" points="651.26,-198.04 649.52,-187.59 644.36,-196.85 651.26,-198.04"/>
</g>
<!-- Node17 -->
<g id="node17" class="node">
<title>Node17</title>
<g id="a_node17"><a xlink:href="../../d7/d1b/_buffer_8h.html" target="_top" xlink:title=" ">
<polygon fill="none" stroke="black" points="390,-224.5 390,-243.5 456,-243.5 456,-224.5 390,-224.5"/>
<text text-anchor="middle" x="423" y="-231.5" font-family="Helvetica,sans-Serif" font-size="10.00">io/Buffer.h</text>
</a>
</g>
</g>
<!-- Node2&#45;&gt;Node17 -->
<g id="edge19" class="edge">
<title>Node2&#45;&gt;Node17</title>
<path fill="none" stroke="midnightblue" d="M598.88,-280.44C562.88,-271.14 505.23,-256.25 465.81,-246.06"/>
<polygon fill="midnightblue" stroke="midnightblue" points="466.52,-242.63 455.96,-243.52 464.77,-249.41 466.52,-242.63"/>
</g>
<!-- Node19 -->
<g id="node19" class="node">
<title>Node19</title>
<g id="a_node19"><a xlink:href="../../d0/dd8/_i_o_exception_8h.html" target="_top" xlink:title=" ">
<polygon fill="none" stroke="black" points="762,-168.5 762,-187.5 858,-187.5 858,-168.5 762,-168.5"/>
<text text-anchor="middle" x="810" y="-175.5" font-family="Helvetica,sans-Serif" font-size="10.00">io/IOException.h</text>
</a>
</g>
</g>
<!-- Node2&#45;&gt;Node19 -->
<g id="edge40" class="edge">
<title>Node2&#45;&gt;Node19</title>
<path fill="none" stroke="midnightblue" d="M664.84,-280.48C689.14,-273.2 722.32,-261.17 748,-244 767.75,-230.79 785.96,-210.28 797.46,-195.83"/>
<polygon fill="midnightblue" stroke="midnightblue" points="800.36,-197.8 803.71,-187.75 794.82,-193.52 800.36,-197.8"/>
</g>
<!-- Node27 -->
<g id="node27" class="node">
<title>Node27</title>
<g id="a_node27"><a xlink:title=" ">
<polygon fill="none" stroke="#bfbfbf" points="541,-224.5 541,-243.5 585,-243.5 585,-224.5 541,-224.5"/>
<text text-anchor="middle" x="563" y="-231.5" font-family="Helvetica,sans-Serif" font-size="10.00">limits</text>
</a>
</g>
</g>
<!-- Node2&#45;&gt;Node27 -->
<g id="edge44" class="edge">
<title>Node2&#45;&gt;Node27</title>
<path fill="none" stroke="midnightblue" d="M620.91,-280.32C610.51,-272.18 594.74,-259.84 582.28,-250.09"/>
<polygon fill="midnightblue" stroke="midnightblue" points="584.32,-247.24 574.29,-243.83 580.01,-252.75 584.32,-247.24"/>
</g>
<!-- Node4 -->
<g id="node4" class="node">
<title>Node4</title>
<g id="a_node4"><a xlink:title=" ">
<polygon fill="none" stroke="#bfbfbf" points="470.5,-112.5 470.5,-131.5 523.5,-131.5 523.5,-112.5 470.5,-112.5"/>
<text text-anchor="middle" x="497" y="-119.5" font-family="Helvetica,sans-Serif" font-size="10.00">cstddef</text>
</a>
</g>
</g>
<!-- Node3&#45;&gt;Node4 -->
<g id="edge3" class="edge">
<title>Node3&#45;&gt;Node4</title>
<path fill="none" stroke="midnightblue" d="M519.54,-168.08C515.85,-160.69 510.48,-149.95 505.91,-140.81"/>
<polygon fill="midnightblue" stroke="midnightblue" points="508.98,-139.13 501.38,-131.75 502.72,-142.26 508.98,-139.13"/>
</g>
<!-- Node6 -->
<g id="node6" class="node">
<title>Node6</title>
<g id="a_node6"><a xlink:title=" ">
<polygon fill="none" stroke="#bfbfbf" points="704,-0.5 704,-19.5 768,-19.5 768,-0.5 704,-0.5"/>
<text text-anchor="middle" x="736" y="-7.5" font-family="Helvetica,sans-Serif" font-size="10.00">algorithm</text>
</a>
</g>
</g>
<!-- Node5&#45;&gt;Node6 -->
<g id="edge5" class="edge">
<title>Node5&#45;&gt;Node6</title>
<path fill="none" stroke="midnightblue" d="M585.36,-56.44C615.74,-47.28 664.11,-32.69 697.82,-22.52"/>
<polygon fill="midnightblue" stroke="midnightblue" points="699.21,-25.76 707.77,-19.52 697.18,-19.05 699.21,-25.76"/>
</g>
<!-- Node5&#45;&gt;Node7 -->
<g id="edge6" class="edge">
<title>Node5&#45;&gt;Node7</title>
<path fill="none" stroke="midnightblue" d="M501.07,-56.44C427.92,-45.25 301.87,-25.97 240.16,-16.53"/>
<polygon fill="midnightblue" stroke="midnightblue" points="240.53,-13.05 230.12,-15 239.47,-19.97 240.53,-13.05"/>
</g>
<!-- Node8 -->
<g id="node8" class="node">
<title>Node8</title>
<g id="a_node8"><a xlink:title=" ">
<polygon fill="none" stroke="#bfbfbf" points="447,-0.5 447,-19.5 497,-19.5 497,-0.5 447,-0.5"/>
<text text-anchor="middle" x="472" y="-7.5" font-family="Helvetica,sans-Serif" font-size="10.00">climits</text>
</a>
</g>
</g>
<!-- Node5&#45;&gt;Node8 -->
<g id="edge7" class="edge">
<title>Node5&#45;&gt;Node8</title>
<path fill="none" stroke="midnightblue" d="M543.34,-56.32C530.08,-47.9 509.73,-34.97 494.15,-25.07"/>
<polygon fill="midnightblue" stroke="midnightblue" points="495.94,-22.06 485.62,-19.65 492.19,-27.97 495.94,-22.06"/>
</g>
<!-- Node5&#45;&gt;Node9 -->
<g id="edge8" class="edge">
<title>Node5&#45;&gt;Node9</title>
<path fill="none" stroke="midnightblue" d="M532.76,-56.44C507.13,-47.4 466.51,-33.06 437.76,-22.92"/>
<polygon fill="midnightblue" stroke="midnightblue" points="438.72,-19.54 428.13,-19.52 436.39,-26.15 438.72,-19.54"/>
</g>
<!-- Node5&#45;&gt;Node10 -->
<g id="edge9" class="edge">
<title>Node5&#45;&gt;Node10</title>
<path fill="none" stroke="midnightblue" d="M498.72,-59.05C422.73,-51.1 285.71,-36.14 169,-20 162.18,-19.06 154.92,-17.96 147.95,-16.86"/>
<polygon fill="midnightblue" stroke="midnightblue" points="148.48,-13.4 138.05,-15.27 147.37,-20.31 148.48,-13.4"/>
</g>
<!-- Node11 -->
<g id="node11" class="node">
<title>Node11</title>
<g id="a_node11"><a xlink:title=" ">
<polygon fill="none" stroke="#bfbfbf" points="515.5,-0.5 515.5,-19.5 598.5,-19.5 598.5,-0.5 515.5,-0.5"/>
<text text-anchor="middle" x="557" y="-7.5" font-family="Helvetica,sans-Serif" font-size="10.00">initializer_list</text>
</a>
</g>
</g>
<!-- Node5&#45;&gt;Node11 -->
<g id="edge10" class="edge">
<title>Node5&#45;&gt;Node11</title>
<path fill="none" stroke="midnightblue" d="M557,-56.08C557,-49.01 557,-38.86 557,-29.99"/>
<polygon fill="midnightblue" stroke="midnightblue" points="560.5,-29.75 557,-19.75 553.5,-29.75 560.5,-29.75"/>
</g>
<!-- Node5&#45;&gt;Node12 -->
<g id="edge11" class="edge">
<title>Node5&#45;&gt;Node12</title>
<path fill="none" stroke="midnightblue" d="M615.03,-56.62C694.74,-45.11 835.42,-24.8 898.64,-15.67"/>
<polygon fill="midnightblue" stroke="midnightblue" points="899.41,-19.1 908.81,-14.2 898.41,-12.17 899.41,-19.1"/>
</g>
<!-- Node13 -->
<g id="node13" class="node">
<title>Node13</title>
<g id="a_node13"><a xlink:title=" ">
<polygon fill="none" stroke="#bfbfbf" points="616.5,-0.5 616.5,-19.5 685.5,-19.5 685.5,-0.5 616.5,-0.5"/>
<text text-anchor="middle" x="651" y="-7.5" font-family="Helvetica,sans-Serif" font-size="10.00">type_traits</text>
</a>
</g>
</g>
<!-- Node5&#45;&gt;Node13 -->
<g id="edge12" class="edge">
<title>Node5&#45;&gt;Node13</title>
<path fill="none" stroke="midnightblue" d="M572.1,-56.32C586.9,-47.82 609.69,-34.73 626.98,-24.8"/>
<polygon fill="midnightblue" stroke="midnightblue" points="629.01,-27.67 635.93,-19.65 625.52,-21.6 629.01,-27.67"/>
</g>
<!-- Node5&#45;&gt;Node14 -->
<g id="edge13" class="edge">
<title>Node5&#45;&gt;Node14</title>
<path fill="none" stroke="midnightblue" d="M615.09,-57.09C618.1,-56.71 621.09,-56.35 624,-56 701.18,-46.8 934.2,-23.24 1022.02,-14.41"/>
<polygon fill="midnightblue" stroke="midnightblue" points="1022.63,-17.86 1032.23,-13.38 1021.93,-10.9 1022.63,-17.86"/>
</g>
<!-- Node15&#45;&gt;Node4 -->
<g id="edge17" class="edge">
<title>Node15&#45;&gt;Node4</title>
<path fill="none" stroke="midnightblue" d="M626.6,-168.44C600.8,-159.4 559.92,-145.06 530.98,-134.92"/>
<polygon fill="midnightblue" stroke="midnightblue" points="531.88,-131.52 521.29,-131.52 529.57,-138.13 531.88,-131.52"/>
</g>
<!-- Node15&#45;&gt;Node5 -->
<g id="edge16" class="edge">
<title>Node15&#45;&gt;Node5</title>
<path fill="none" stroke="midnightblue" d="M643.62,-168.37C627.97,-150.05 591.22,-107.05 570.98,-83.36"/>
<polygon fill="midnightblue" stroke="midnightblue" points="573.5,-80.92 564.34,-75.59 568.18,-85.47 573.5,-80.92"/>
</g>
<!-- Node15&#45;&gt;Node9 -->
<g id="edge18" class="edge">
<title>Node15&#45;&gt;Node9</title>
<path fill="none" stroke="midnightblue" d="M636.52,-168.49C607.98,-151.61 542.7,-112.34 490,-76 466.25,-59.62 439.93,-39.4 422.73,-25.91"/>
<polygon fill="midnightblue" stroke="midnightblue" points="424.66,-22.96 414.64,-19.52 420.32,-28.46 424.66,-22.96"/>
</g>
<!-- Node16 -->
<g id="node16" class="node">
<title>Node16</title>
<g id="a_node16"><a xlink:title=" ">
<polygon fill="none" stroke="#bfbfbf" points="633,-56.5 633,-75.5 735,-75.5 735,-56.5 633,-56.5"/>
<text text-anchor="middle" x="684" y="-63.5" font-family="Helvetica,sans-Serif" font-size="10.00">rawspeedconfig.h</text>
</a>
</g>
</g>
<!-- Node15&#45;&gt;Node16 -->
<g id="edge15" class="edge">
<title>Node15&#45;&gt;Node16</title>
<path fill="none" stroke="midnightblue" d="M653.59,-168.37C658.94,-150.54 671.31,-109.3 678.52,-85.27"/>
<polygon fill="midnightblue" stroke="midnightblue" points="681.9,-86.18 681.42,-75.59 675.2,-84.16 681.9,-86.18"/>
</g>
<!-- Node17&#45;&gt;Node3 -->
<g id="edge20" class="edge">
<title>Node17&#45;&gt;Node3</title>
<path fill="none" stroke="midnightblue" d="M439.23,-224.32C455.35,-215.7 480.3,-202.36 498.96,-192.39"/>
<polygon fill="midnightblue" stroke="midnightblue" points="500.64,-195.46 507.81,-187.65 497.34,-189.28 500.64,-195.46"/>
</g>
<!-- Node17&#45;&gt;Node5 -->
<g id="edge21" class="edge">
<title>Node17&#45;&gt;Node5</title>
<path fill="none" stroke="midnightblue" d="M423.41,-224.24C424.86,-202.57 431.44,-145.82 461,-112 474.56,-96.49 494.6,-85.95 512.87,-78.98"/>
<polygon fill="midnightblue" stroke="midnightblue" points="514.25,-82.21 522.5,-75.57 511.91,-75.61 514.25,-82.21"/>
</g>
<!-- Node17&#45;&gt;Node7 -->
<g id="edge36" class="edge">
<title>Node17&#45;&gt;Node7</title>
<path fill="none" stroke="midnightblue" d="M389.8,-228.77C344.04,-222.26 264.97,-208.37 245,-188 202.36,-144.5 200.72,-65.92 202.49,-29.93"/>
<polygon fill="midnightblue" stroke="midnightblue" points="205.99,-30.04 203.13,-19.84 199,-29.59 205.99,-30.04"/>
</g>
<!-- Node17&#45;&gt;Node9 -->
<g id="edge37" class="edge">
<title>Node17&#45;&gt;Node9</title>
<path fill="none" stroke="midnightblue" d="M422.26,-224.3C419.46,-191.63 409.55,-75.87 405.62,-29.96"/>
<polygon fill="midnightblue" stroke="midnightblue" points="409.1,-29.55 404.76,-19.88 402.13,-30.15 409.1,-29.55"/>
</g>
<!-- Node17&#45;&gt;Node15 -->
<g id="edge22" class="edge">
<title>Node17&#45;&gt;Node15</title>
<path fill="none" stroke="midnightblue" d="M456.15,-225.15C495.34,-215.87 560.78,-200.37 604.9,-189.92"/>
<polygon fill="midnightblue" stroke="midnightblue" points="605.87,-193.29 614.79,-187.58 604.25,-186.47 605.87,-193.29"/>
</g>
<!-- Node18 -->
<g id="node18" class="node">
<title>Node18</title>
<g id="a_node18"><a xlink:href="../../d5/d0b/_endianness_8h.html" target="_top" xlink:title=" ">
<polygon fill="none" stroke="black" points="66.5,-56.5 66.5,-75.5 159.5,-75.5 159.5,-56.5 66.5,-56.5"/>
<text text-anchor="middle" x="113" y="-63.5" font-family="Helvetica,sans-Serif" font-size="10.00">io/Endianness.h</text>
</a>
</g>
</g>
<!-- Node17&#45;&gt;Node18 -->
<g id="edge23" class="edge">
<title>Node17&#45;&gt;Node18</title>
<path fill="none" stroke="midnightblue" d="M389.8,-232.59C346.01,-230.62 267.96,-222.13 212,-188 169.67,-162.19 137.34,-111.61 122.3,-84.75"/>
<polygon fill="midnightblue" stroke="midnightblue" points="125.24,-82.83 117.39,-75.71 119.09,-86.17 125.24,-82.83"/>
</g>
<!-- Node17&#45;&gt;Node19 -->
<g id="edge27" class="edge">
<title>Node17&#45;&gt;Node19</title>
<path fill="none" stroke="midnightblue" d="M456.33,-228.35C522.16,-219.16 669.57,-198.6 751.78,-187.12"/>
<polygon fill="midnightblue" stroke="midnightblue" points="752.3,-190.59 761.72,-185.74 751.33,-183.65 752.3,-190.59"/>
</g>
<!-- Node25 -->
<g id="node25" class="node">
<title>Node25</title>
<g id="a_node25"><a xlink:title=" ">
<polygon fill="none" stroke="#bfbfbf" points="254,-168.5 254,-187.5 312,-187.5 312,-168.5 254,-168.5"/>
<text text-anchor="middle" x="283" y="-175.5" font-family="Helvetica,sans-Serif" font-size="10.00">memory</text>
</a>
</g>
</g>
<!-- Node17&#45;&gt;Node25 -->
<g id="edge38" class="edge">
<title>Node17&#45;&gt;Node25</title>
<path fill="none" stroke="midnightblue" d="M400.82,-224.44C377.57,-215.48 340.85,-201.31 314.58,-191.18"/>
<polygon fill="midnightblue" stroke="midnightblue" points="315.67,-187.85 305.08,-187.52 313.15,-194.38 315.67,-187.85"/>
</g>
<!-- Node26 -->
<g id="node26" class="node">
<title>Node26</title>
<g id="a_node26"><a xlink:title=" ">
<polygon fill="none" stroke="#bfbfbf" points="330.5,-168.5 330.5,-187.5 375.5,-187.5 375.5,-168.5 330.5,-168.5"/>
<text text-anchor="middle" x="353" y="-175.5" font-family="Helvetica,sans-Serif" font-size="10.00">utility</text>
</a>
</g>
</g>
<!-- Node17&#45;&gt;Node26 -->
<g id="edge39" class="edge">
<title>Node17&#45;&gt;Node26</title>
<path fill="none" stroke="midnightblue" d="M411.75,-224.32C401.2,-216.18 385.2,-203.84 372.56,-194.09"/>
<polygon fill="midnightblue" stroke="midnightblue" points="374.51,-191.17 364.45,-187.83 370.23,-196.71 374.51,-191.17"/>
</g>
<!-- Node18&#45;&gt;Node7 -->
<g id="edge24" class="edge">
<title>Node18&#45;&gt;Node7</title>
<path fill="none" stroke="midnightblue" d="M127.62,-56.32C141.95,-47.82 164.01,-34.73 180.75,-24.8"/>
<polygon fill="midnightblue" stroke="midnightblue" points="182.6,-27.77 189.42,-19.65 179.03,-21.75 182.6,-27.77"/>
</g>
<!-- Node18&#45;&gt;Node9 -->
<g id="edge25" class="edge">
<title>Node18&#45;&gt;Node9</title>
<path fill="none" stroke="midnightblue" d="M159.11,-56.44C217.41,-45.63 316.47,-27.24 368.96,-17.5"/>
<polygon fill="midnightblue" stroke="midnightblue" points="369.61,-20.94 378.81,-15.67 368.34,-14.06 369.61,-20.94"/>
</g>
<!-- Node18&#45;&gt;Node10 -->
<g id="edge26" class="edge">
<title>Node18&#45;&gt;Node10</title>
<path fill="none" stroke="midnightblue" d="M113,-56.08C113,-49.01 113,-38.86 113,-29.99"/>
<polygon fill="midnightblue" stroke="midnightblue" points="116.5,-29.75 113,-19.75 109.5,-29.75 116.5,-29.75"/>
</g>
<!-- Node19&#45;&gt;Node16 -->
<g id="edge28" class="edge">
<title>Node19&#45;&gt;Node16</title>
<path fill="none" stroke="midnightblue" d="M796.7,-168.29C783.81,-159.63 763.93,-145.71 748,-132 730.11,-116.6 711.35,-97.1 698.81,-83.49"/>
<polygon fill="midnightblue" stroke="midnightblue" points="701.18,-80.9 691.86,-75.87 696.01,-85.62 701.18,-80.9"/>
</g>
<!-- Node20 -->
<g id="node20" class="node">
<title>Node20</title>
<g id="a_node20"><a xlink:href="../../d7/d05/_rawspeed_exception_8h.html" target="_top" xlink:title=" ">
<polygon fill="none" stroke="black" points="757,-112.5 757,-131.5 927,-131.5 927,-112.5 757,-112.5"/>
<text text-anchor="middle" x="842" y="-119.5" font-family="Helvetica,sans-Serif" font-size="10.00">common/RawspeedException.h</text>
</a>
</g>
</g>
<!-- Node19&#45;&gt;Node20 -->
<g id="edge29" class="edge">
<title>Node19&#45;&gt;Node20</title>
<path fill="none" stroke="midnightblue" d="M815.28,-168.08C819.71,-160.61 826.16,-149.72 831.62,-140.52"/>
<polygon fill="midnightblue" stroke="midnightblue" points="834.73,-142.14 836.81,-131.75 828.71,-138.57 834.73,-142.14"/>
</g>
<!-- Node20&#45;&gt;Node5 -->
<g id="edge31" class="edge">
<title>Node20&#45;&gt;Node5</title>
<path fill="none" stroke="midnightblue" d="M796.84,-112.44C746.71,-102.94 665.78,-87.61 611.99,-77.42"/>
<polygon fill="midnightblue" stroke="midnightblue" points="612.42,-73.94 601.95,-75.52 611.12,-80.82 612.42,-73.94"/>
</g>
<!-- Node20&#45;&gt;Node16 -->
<g id="edge30" class="edge">
<title>Node20&#45;&gt;Node16</title>
<path fill="none" stroke="midnightblue" d="M816.96,-112.44C790.38,-103.36 748.19,-88.94 718.48,-78.78"/>
<polygon fill="midnightblue" stroke="midnightblue" points="719.51,-75.44 708.92,-75.52 717.25,-82.06 719.51,-75.44"/>
</g>
<!-- Node20&#45;&gt;Node21 -->
<g id="edge32" class="edge">
<title>Node20&#45;&gt;Node21</title>
<path fill="none" stroke="midnightblue" d="M865.93,-112.44C891.96,-103.13 933.67,-88.22 962.15,-78.03"/>
<polygon fill="midnightblue" stroke="midnightblue" points="963.39,-81.31 971.63,-74.64 961.03,-74.72 963.39,-81.31"/>
</g>
<!-- Node22 -->
<g id="node22" class="node">
<title>Node22</title>
<g id="a_node22"><a xlink:title=" ">
<polygon fill="none" stroke="#bfbfbf" points="900.5,-56.5 900.5,-75.5 953.5,-75.5 953.5,-56.5 900.5,-56.5"/>
<text text-anchor="middle" x="927" y="-63.5" font-family="Helvetica,sans-Serif" font-size="10.00">cstdarg</text>
</a>
</g>
</g>
<!-- Node20&#45;&gt;Node22 -->
<g id="edge33" class="edge">
<title>Node20&#45;&gt;Node22</title>
<path fill="none" stroke="midnightblue" d="M855.66,-112.32C868.92,-103.9 889.27,-90.97 904.85,-81.07"/>
<polygon fill="midnightblue" stroke="midnightblue" points="906.81,-83.97 913.38,-75.65 903.06,-78.06 906.81,-83.97"/>
</g>
<!-- Node23 -->
<g id="node23" class="node">
<title>Node23</title>
<g id="a_node23"><a xlink:title=" ">
<polygon fill="none" stroke="#bfbfbf" points="753,-56.5 753,-75.5 799,-75.5 799,-56.5 753,-56.5"/>
<text text-anchor="middle" x="776" y="-63.5" font-family="Helvetica,sans-Serif" font-size="10.00">cstdio</text>
</a>
</g>
</g>
<!-- Node20&#45;&gt;Node23 -->
<g id="edge34" class="edge">
<title>Node20&#45;&gt;Node23</title>
<path fill="none" stroke="midnightblue" d="M831.4,-112.32C821.54,-104.26 806.65,-92.08 794.78,-82.37"/>
<polygon fill="midnightblue" stroke="midnightblue" points="796.75,-79.46 786.8,-75.83 792.32,-84.88 796.75,-79.46"/>
</g>
<!-- Node24 -->
<g id="node24" class="node">
<title>Node24</title>
<g id="a_node24"><a xlink:title=" ">
<polygon fill="none" stroke="#bfbfbf" points="817.5,-56.5 817.5,-75.5 882.5,-75.5 882.5,-56.5 817.5,-56.5"/>
<text text-anchor="middle" x="850" y="-63.5" font-family="Helvetica,sans-Serif" font-size="10.00">stdexcept</text>
</a>
</g>
</g>
<!-- Node20&#45;&gt;Node24 -->
<g id="edge35" class="edge">
<title>Node20&#45;&gt;Node24</title>
<path fill="none" stroke="midnightblue" d="M843.32,-112.08C844.38,-104.93 845.91,-94.64 847.23,-85.69"/>
<polygon fill="midnightblue" stroke="midnightblue" points="850.7,-86.16 848.7,-75.75 843.78,-85.13 850.7,-86.16"/>
</g>
</g>
</svg>
