<?xml version="1.0" encoding="UTF-8" standalone="no"?>
<!DOCTYPE svg PUBLIC "-//W3C//DTD SVG 1.1//EN"
 "http://www.w3.org/Graphics/SVG/1.1/DTD/svg11.dtd">
<!-- Generated by graphviz version 2.43.0 (0)
 -->
<!-- Title: rawspeed::BitStreamCacheRightInLeftOut Pages: 1 -->
<svg width="213pt" height="196pt"
 viewBox="0.00 0.00 212.50 196.00" xmlns="http://www.w3.org/2000/svg" xmlns:xlink="http://www.w3.org/1999/xlink">
<g id="graph0" class="graph" transform="scale(1 1) rotate(0) translate(4 192)">
<title>rawspeed::BitStreamCacheRightInLeftOut</title>
<!-- Node1 -->
<g id="node1" class="node">
<title>Node1</title>
<g id="a_node1"><a xlink:title=" ">
<polygon fill="#bfbfbf" stroke="black" points="12,-0.5 12,-30.5 161,-30.5 161,-0.5 12,-0.5"/>
<text text-anchor="start" x="20" y="-18.5" font-family="Helvetica,sans-Serif" font-size="10.00">rawspeed::BitStreamCache</text>
<text text-anchor="middle" x="86.5" y="-7.5" font-family="Helvetica,sans-Serif" font-size="10.00">RightInLeftOut</text>
</a>
</g>
</g>
<!-- Node2 -->
<g id="node2" class="node">
<title>Node2</title>
<g id="a_node2"><a xlink:href="../../d0/d4e/structrawspeed_1_1_bit_stream_cache_base.html" target="_top" xlink:title=" ">
<polygon fill="none" stroke="black" points="0,-68.5 0,-87.5 173,-87.5 173,-68.5 0,-68.5"/>
<text text-anchor="middle" x="86.5" y="-75.5" font-family="Helvetica,sans-Serif" font-size="10.00">rawspeed::BitStreamCacheBase</text>
</a>
</g>
</g>
<!-- Node2&#45;&gt;Node1 -->
<g id="edge1" class="edge">
<title>Node2&#45;&gt;Node1</title>
<path fill="none" stroke="midnightblue" d="M86.5,-58.22C86.5,-49.36 86.5,-38.96 86.5,-30.76"/>
<polygon fill="midnightblue" stroke="midnightblue" points="83,-58.33 86.5,-68.33 90,-58.33 83,-58.33"/>
</g>
<!-- Node3 -->
<g id="node3" class="node">
<title>Node3</title>
<g id="a_node3"><a xlink:href="../../d6/d30/classuint64__t.html" target="_top" xlink:title=" ">
<polygon fill="none" stroke="black" points="20.5,-168.5 20.5,-187.5 76.5,-187.5 76.5,-168.5 20.5,-168.5"/>
<text text-anchor="middle" x="48.5" y="-175.5" font-family="Helvetica,sans-Serif" font-size="10.00">uint64_t</text>
</a>
</g>
</g>
<!-- Node3&#45;&gt;Node2 -->
<g id="edge2" class="edge">
<title>Node3&#45;&gt;Node2</title>
<path fill="none" stroke="#9a32cd" stroke-dasharray="5,2" d="M53.36,-158.73C57.48,-144.18 63.92,-123.42 71.5,-106 74.24,-99.71 77.99,-92.96 81.05,-87.78"/>
<polygon fill="#9a32cd" stroke="#9a32cd" points="49.95,-157.93 50.68,-168.5 56.7,-159.78 49.95,-157.93"/>
<text text-anchor="middle" x="87.5" y="-125.5" font-family="Helvetica,sans-Serif" font-size="10.00"> cache</text>
</g>
<!-- Node4 -->
<g id="node4" class="node">
<title>Node4</title>
<g id="a_node4"><a xlink:title=" ">
<polygon fill="none" stroke="#bfbfbf" points="95,-168.5 95,-187.5 156,-187.5 156,-168.5 95,-168.5"/>
<text text-anchor="middle" x="125.5" y="-175.5" font-family="Helvetica,sans-Serif" font-size="10.00">unsigned</text>
</a>
</g>
</g>
<!-- Node4&#45;&gt;Node2 -->
<g id="edge3" class="edge">
<title>Node4&#45;&gt;Node2</title>
<path fill="none" stroke="#9a32cd" stroke-dasharray="5,2" d="M121.21,-158.61C117.47,-143.98 111.41,-123.19 103.5,-106 100.54,-99.56 96.29,-92.81 92.78,-87.67"/>
<polygon fill="#9a32cd" stroke="#9a32cd" points="117.84,-159.55 123.61,-168.43 124.64,-157.88 117.84,-159.55"/>
<text text-anchor="middle" x="161.5" y="-142" font-family="Helvetica,sans-Serif" font-size="10.00"> Size</text>
<text text-anchor="middle" x="161.5" y="-131" font-family="Helvetica,sans-Serif" font-size="10.00">MaxProcessBytes</text>
<text text-anchor="middle" x="161.5" y="-120" font-family="Helvetica,sans-Serif" font-size="10.00">MaxGetBits</text>
<text text-anchor="middle" x="161.5" y="-109" font-family="Helvetica,sans-Serif" font-size="10.00">fillLevel</text>
</g>
</g>
</svg>
