<?xml version="1.0" encoding="UTF-8" standalone="no"?>
<!DOCTYPE svg PUBLIC "-//W3C//DTD SVG 1.1//EN"
 "http://www.w3.org/Graphics/SVG/1.1/DTD/svg11.dtd">
<!-- Generated by graphviz version 2.43.0 (0)
 -->
<!-- Title: librawspeed/common/ChecksumFile.h Pages: 1 -->
<svg width="489pt" height="117pt"
 viewBox="0.00 0.00 488.50 117.00" xmlns="http://www.w3.org/2000/svg" xmlns:xlink="http://www.w3.org/1999/xlink">
<g id="graph0" class="graph" transform="scale(1 1) rotate(0) translate(4 113)">
<title>librawspeed/common/ChecksumFile.h</title>
<!-- Node1 -->
<g id="node1" class="node">
<title>Node1</title>
<g id="a_node1"><a xlink:title=" ">
<polygon fill="#bfbfbf" stroke="black" points="151,-78.5 151,-108.5 273,-108.5 273,-78.5 151,-78.5"/>
<text text-anchor="start" x="159" y="-96.5" font-family="Helvetica,sans-Serif" font-size="10.00">librawspeed/common</text>
<text text-anchor="middle" x="212" y="-85.5" font-family="Helvetica,sans-Serif" font-size="10.00">/ChecksumFile.h</text>
</a>
</g>
</g>
<!-- Node2 -->
<g id="node2" class="node">
<title>Node2</title>
<g id="a_node2"><a xlink:href="../../d4/dc3/_checksum_file_8cpp.html" target="_top" xlink:title=" ">
<polygon fill="none" stroke="black" points="0,-6 0,-36 122,-36 122,-6 0,-6"/>
<text text-anchor="start" x="8" y="-24" font-family="Helvetica,sans-Serif" font-size="10.00">librawspeed/common</text>
<text text-anchor="middle" x="61" y="-13" font-family="Helvetica,sans-Serif" font-size="10.00">/ChecksumFile.cpp</text>
</a>
</g>
</g>
<!-- Node1&#45;&gt;Node2 -->
<g id="edge1" class="edge">
<title>Node1&#45;&gt;Node2</title>
<path fill="none" stroke="midnightblue" d="M172.44,-74.03C147.01,-62.16 114.48,-46.97 91.14,-36.07"/>
<polygon fill="midnightblue" stroke="midnightblue" points="171.26,-77.34 181.81,-78.4 174.23,-71 171.26,-77.34"/>
</g>
<!-- Node3 -->
<g id="node3" class="node">
<title>Node3</title>
<g id="a_node3"><a xlink:href="../../d0/dc4/src_2utilities_2rsbench_2main_8cpp.html" target="_top" xlink:title=" ">
<polygon fill="none" stroke="black" points="140.5,-11.5 140.5,-30.5 283.5,-30.5 283.5,-11.5 140.5,-11.5"/>
<text text-anchor="middle" x="212" y="-18.5" font-family="Helvetica,sans-Serif" font-size="10.00">utilities/rsbench/main.cpp</text>
</a>
</g>
</g>
<!-- Node1&#45;&gt;Node3 -->
<g id="edge2" class="edge">
<title>Node1&#45;&gt;Node3</title>
<path fill="none" stroke="midnightblue" d="M212,-68.09C212,-55.21 212,-40.2 212,-30.89"/>
<polygon fill="midnightblue" stroke="midnightblue" points="208.5,-68.23 212,-78.23 215.5,-68.23 208.5,-68.23"/>
</g>
<!-- Node4 -->
<g id="node4" class="node">
<title>Node4</title>
<g id="a_node4"><a xlink:href="../../d3/d48/_checksum_file_test_8cpp.html" target="_top" xlink:title=" ">
<polygon fill="none" stroke="black" points="301.5,-0.5 301.5,-41.5 480.5,-41.5 480.5,-0.5 301.5,-0.5"/>
<text text-anchor="start" x="309.5" y="-29.5" font-family="Helvetica,sans-Serif" font-size="10.00">/build/rawspeed/test</text>
<text text-anchor="start" x="309.5" y="-18.5" font-family="Helvetica,sans-Serif" font-size="10.00">/librawspeed/common/Checksum</text>
<text text-anchor="middle" x="391" y="-7.5" font-family="Helvetica,sans-Serif" font-size="10.00">FileTest.cpp</text>
</a>
</g>
</g>
<!-- Node1&#45;&gt;Node4 -->
<g id="edge3" class="edge">
<title>Node1&#45;&gt;Node4</title>
<path fill="none" stroke="midnightblue" d="M257.28,-74.67C282.93,-64.57 315.04,-51.92 341.37,-41.55"/>
<polygon fill="midnightblue" stroke="midnightblue" points="255.81,-71.48 247.79,-78.4 258.38,-77.99 255.81,-71.48"/>
</g>
</g>
</svg>
