<?xml version="1.0" encoding="UTF-8" standalone="no"?>
<!DOCTYPE svg PUBLIC "-//W3C//DTD SVG 1.1//EN"
 "http://www.w3.org/Graphics/SVG/1.1/DTD/svg11.dtd">
<!-- Generated by graphviz version 2.43.0 (0)
 -->
<!-- Title: rawspeed::RawImageDataFloat::RawImageDataFloat Pages: 1 -->
<svg width="720pt" height="88pt"
 viewBox="0.00 0.00 720.00 88.00" xmlns="http://www.w3.org/2000/svg" xmlns:xlink="http://www.w3.org/1999/xlink">
<g id="graph0" class="graph" transform="scale(1 1) rotate(0) translate(4 84)">
<title>rawspeed::RawImageDataFloat::RawImageDataFloat</title>
<!-- Node1 -->
<g id="node1" class="node">
<title>Node1</title>
<g id="a_node1"><a xlink:title=" ">
<polygon fill="#bfbfbf" stroke="black" points="0,-24.5 0,-54.5 169,-54.5 169,-24.5 0,-24.5"/>
<text text-anchor="start" x="8" y="-42.5" font-family="Helvetica,sans-Serif" font-size="10.00">rawspeed::RawImageDataFloat</text>
<text text-anchor="middle" x="84.5" y="-31.5" font-family="Helvetica,sans-Serif" font-size="10.00">::RawImageDataFloat</text>
</a>
</g>
</g>
<!-- Node2 -->
<g id="node2" class="node">
<title>Node2</title>
<g id="a_node2"><a xlink:href="../../dc/d44/classrawspeed_1_1_raw_image_data.html#a42cde71f129a30ef28b07012b1be4af5" target="_top" xlink:title=" ">
<polygon fill="none" stroke="black" points="205,-24.5 205,-54.5 350,-54.5 350,-24.5 205,-24.5"/>
<text text-anchor="start" x="213" y="-42.5" font-family="Helvetica,sans-Serif" font-size="10.00">rawspeed::RawImageData</text>
<text text-anchor="middle" x="277.5" y="-31.5" font-family="Helvetica,sans-Serif" font-size="10.00">::RawImageData</text>
</a>
</g>
</g>
<!-- Node1&#45;&gt;Node2 -->
<g id="edge1" class="edge">
<title>Node1&#45;&gt;Node2</title>
<path fill="none" stroke="midnightblue" d="M169.28,-39.5C177.68,-39.5 186.22,-39.5 194.6,-39.5"/>
<polygon fill="midnightblue" stroke="midnightblue" points="194.75,-43 204.75,-39.5 194.75,-36 194.75,-43"/>
</g>
<!-- Node2&#45;&gt;Node2 -->
<g id="edge5" class="edge">
<title>Node2&#45;&gt;Node2</title>
<path fill="none" stroke="midnightblue" d="M246.13,-54.66C238.57,-64.06 249.02,-73 277.5,-73 294.85,-73 305.51,-69.68 309.48,-64.96"/>
<polygon fill="midnightblue" stroke="midnightblue" points="312.96,-64.43 308.87,-54.66 305.97,-64.85 312.96,-64.43"/>
</g>
<!-- Node3 -->
<g id="node3" class="node">
<title>Node3</title>
<g id="a_node3"><a xlink:href="../../dc/d44/classrawspeed_1_1_raw_image_data.html#af7cbbd3ab6bb415e7e1b1f58a285084f" target="_top" xlink:title=" ">
<polygon fill="none" stroke="black" points="386,-24.5 386,-54.5 531,-54.5 531,-24.5 386,-24.5"/>
<text text-anchor="start" x="394" y="-42.5" font-family="Helvetica,sans-Serif" font-size="10.00">rawspeed::RawImageData</text>
<text text-anchor="middle" x="458.5" y="-31.5" font-family="Helvetica,sans-Serif" font-size="10.00">::createData</text>
</a>
</g>
</g>
<!-- Node2&#45;&gt;Node3 -->
<g id="edge2" class="edge">
<title>Node2&#45;&gt;Node3</title>
<path fill="none" stroke="midnightblue" d="M350.02,-39.5C358.49,-39.5 367.18,-39.5 375.78,-39.5"/>
<polygon fill="midnightblue" stroke="midnightblue" points="375.8,-43 385.8,-39.5 375.8,-36 375.8,-43"/>
</g>
<!-- Node4 -->
<g id="node4" class="node">
<title>Node4</title>
<g id="a_node4"><a xlink:href="../../dc/d44/classrawspeed_1_1_raw_image_data.html#a724d8812aca44f04e6aeb965daeab36d" target="_top" xlink:title=" ">
<polygon fill="none" stroke="black" points="567,-49.5 567,-79.5 712,-79.5 712,-49.5 567,-49.5"/>
<text text-anchor="start" x="575" y="-67.5" font-family="Helvetica,sans-Serif" font-size="10.00">rawspeed::RawImageData</text>
<text text-anchor="middle" x="639.5" y="-56.5" font-family="Helvetica,sans-Serif" font-size="10.00">::getData</text>
</a>
</g>
</g>
<!-- Node3&#45;&gt;Node4 -->
<g id="edge3" class="edge">
<title>Node3&#45;&gt;Node4</title>
<path fill="none" stroke="midnightblue" d="M531.02,-49.49C539.49,-50.67 548.18,-51.89 556.78,-53.09"/>
<polygon fill="midnightblue" stroke="midnightblue" points="556.42,-56.57 566.8,-54.49 557.38,-49.64 556.42,-56.57"/>
</g>
<!-- Node5 -->
<g id="node5" class="node">
<title>Node5</title>
<g id="a_node5"><a xlink:href="../../dc/d44/classrawspeed_1_1_raw_image_data.html#a383099b27aea42a05858e18b6cf69c96" target="_top" xlink:title=" ">
<polygon fill="none" stroke="black" points="567,-0.5 567,-30.5 712,-30.5 712,-0.5 567,-0.5"/>
<text text-anchor="start" x="575" y="-18.5" font-family="Helvetica,sans-Serif" font-size="10.00">rawspeed::RawImageData</text>
<text text-anchor="middle" x="639.5" y="-7.5" font-family="Helvetica,sans-Serif" font-size="10.00">::poisonPadding</text>
</a>
</g>
</g>
<!-- Node3&#45;&gt;Node5 -->
<g id="edge4" class="edge">
<title>Node3&#45;&gt;Node5</title>
<path fill="none" stroke="midnightblue" d="M531.02,-29.91C539.49,-28.78 548.18,-27.61 556.78,-26.46"/>
<polygon fill="midnightblue" stroke="midnightblue" points="557.36,-29.91 566.8,-25.11 556.43,-22.97 557.36,-29.91"/>
</g>
</g>
</svg>
