<?xml version="1.0" encoding="UTF-8" standalone="no"?>
<!DOCTYPE svg PUBLIC "-//W3C//DTD SVG 1.1//EN"
 "http://www.w3.org/Graphics/SVG/1.1/DTD/svg11.dtd">
<!-- Generated by graphviz version 2.43.0 (0)
 -->
<!-- Title: rawspeed::SOFInfo Pages: 1 -->
<svg width="375pt" height="306pt"
 viewBox="0.00 0.00 375.00 306.00" xmlns="http://www.w3.org/2000/svg" xmlns:xlink="http://www.w3.org/1999/xlink">
<g id="graph0" class="graph" transform="scale(1 1) rotate(0) translate(4 302)">
<title>rawspeed::SOFInfo</title>
<!-- Node1 -->
<g id="node1" class="node">
<title>Node1</title>
<g id="a_node1"><a xlink:title=" ">
<polygon fill="#bfbfbf" stroke="black" points="57.5,-0.5 57.5,-19.5 164.5,-19.5 164.5,-0.5 57.5,-0.5"/>
<text text-anchor="middle" x="111" y="-7.5" font-family="Helvetica,sans-Serif" font-size="10.00">rawspeed::SOFInfo</text>
</a>
</g>
</g>
<!-- Node2 -->
<g id="node2" class="node">
<title>Node2</title>
<g id="a_node2"><a xlink:href="../../d3/d87/classuint32__t.html" target="_top" xlink:title=" ">
<polygon fill="none" stroke="black" points="0,-278.5 0,-297.5 56,-297.5 56,-278.5 0,-278.5"/>
<text text-anchor="middle" x="28" y="-285.5" font-family="Helvetica,sans-Serif" font-size="10.00">uint32_t</text>
</a>
</g>
</g>
<!-- Node2&#45;&gt;Node1 -->
<g id="edge1" class="edge">
<title>Node2&#45;&gt;Node1</title>
<path fill="none" stroke="#9a32cd" stroke-dasharray="5,2" d="M22.52,-268.48C11.83,-228.45 -7.56,-132.22 31,-67 44.46,-44.23 71.22,-28.42 90.08,-19.54"/>
<polygon fill="#9a32cd" stroke="#9a32cd" points="19.18,-269.52 25.25,-278.21 25.92,-267.63 19.18,-269.52"/>
<text text-anchor="middle" x="25.5" y="-152" font-family="Helvetica,sans-Serif" font-size="10.00"> prec</text>
<text text-anchor="middle" x="25.5" y="-141" font-family="Helvetica,sans-Serif" font-size="10.00">cps</text>
<text text-anchor="middle" x="25.5" y="-130" font-family="Helvetica,sans-Serif" font-size="10.00">w</text>
<text text-anchor="middle" x="25.5" y="-119" font-family="Helvetica,sans-Serif" font-size="10.00">h</text>
</g>
<!-- Node5 -->
<g id="node5" class="node">
<title>Node5</title>
<g id="a_node5"><a xlink:href="../../d6/d1d/structrawspeed_1_1_jpeg_component_info.html" target="_top" xlink:title=" ">
<polygon fill="none" stroke="black" points="28,-178.5 28,-197.5 194,-197.5 194,-178.5 28,-178.5"/>
<text text-anchor="middle" x="111" y="-185.5" font-family="Helvetica,sans-Serif" font-size="10.00">rawspeed::JpegComponentInfo</text>
</a>
</g>
</g>
<!-- Node2&#45;&gt;Node5 -->
<g id="edge5" class="edge">
<title>Node2&#45;&gt;Node5</title>
<path fill="none" stroke="#9a32cd" stroke-dasharray="5,2" d="M41.96,-270.52C59.79,-249.46 90,-213.8 103.77,-197.54"/>
<polygon fill="#9a32cd" stroke="#9a32cd" points="39.16,-268.41 35.37,-278.3 44.5,-272.93 39.16,-268.41"/>
<text text-anchor="middle" x="119" y="-252" font-family="Helvetica,sans-Serif" font-size="10.00"> superH</text>
<text text-anchor="middle" x="119" y="-241" font-family="Helvetica,sans-Serif" font-size="10.00">dcTblNo</text>
<text text-anchor="middle" x="119" y="-230" font-family="Helvetica,sans-Serif" font-size="10.00">componentId</text>
<text text-anchor="middle" x="119" y="-219" font-family="Helvetica,sans-Serif" font-size="10.00">superV</text>
</g>
<!-- Node3 -->
<g id="node3" class="node">
<title>Node3</title>
<g id="a_node3"><a xlink:title=" ">
<polygon fill="none" stroke="#bfbfbf" points="200,-73 200,-92 238,-92 238,-73 200,-73"/>
<text text-anchor="middle" x="219" y="-80" font-family="Helvetica,sans-Serif" font-size="10.00">bool</text>
</a>
</g>
</g>
<!-- Node3&#45;&gt;Node1 -->
<g id="edge2" class="edge">
<title>Node3&#45;&gt;Node1</title>
<path fill="none" stroke="#9a32cd" stroke-dasharray="5,2" d="M201.68,-66.35C191.17,-57.53 177.26,-46.5 164,-38 153.22,-31.09 140.45,-24.54 130.14,-19.62"/>
<polygon fill="#9a32cd" stroke="#9a32cd" points="199.43,-69.03 209.31,-72.86 203.98,-63.7 199.43,-69.03"/>
<text text-anchor="middle" x="205" y="-41" font-family="Helvetica,sans-Serif" font-size="10.00"> initialized</text>
</g>
<!-- Node4 -->
<g id="node4" class="node">
<title>Node4</title>
<g id="a_node4"><a xlink:title=" ">
<polygon fill="none" stroke="#bfbfbf" points="40,-67.5 40,-97.5 182,-97.5 182,-67.5 40,-67.5"/>
<text text-anchor="start" x="48" y="-85.5" font-family="Helvetica,sans-Serif" font-size="10.00">std::array&lt; rawspeed</text>
<text text-anchor="middle" x="111" y="-74.5" font-family="Helvetica,sans-Serif" font-size="10.00">::JpegComponentInfo, 4 &gt;</text>
</a>
</g>
</g>
<!-- Node4&#45;&gt;Node1 -->
<g id="edge3" class="edge">
<title>Node4&#45;&gt;Node1</title>
<path fill="none" stroke="#9a32cd" stroke-dasharray="5,2" d="M111,-57.09C111,-44.21 111,-29.2 111,-19.89"/>
<polygon fill="#9a32cd" stroke="#9a32cd" points="107.5,-57.23 111,-67.23 114.5,-57.23 107.5,-57.23"/>
<text text-anchor="middle" x="135.5" y="-41" font-family="Helvetica,sans-Serif" font-size="10.00"> compInfo</text>
</g>
<!-- Node5&#45;&gt;Node4 -->
<g id="edge4" class="edge">
<title>Node5&#45;&gt;Node4</title>
<path fill="none" stroke="#9a32cd" stroke-dasharray="5,2" d="M111,-168C111,-147.74 111,-116.11 111,-97.84"/>
<polygon fill="#9a32cd" stroke="#9a32cd" points="107.5,-168.18 111,-178.18 114.5,-168.18 107.5,-168.18"/>
<text text-anchor="middle" x="135.5" y="-135.5" font-family="Helvetica,sans-Serif" font-size="10.00"> elements</text>
</g>
<!-- Node6 -->
<g id="node6" class="node">
<title>Node6</title>
<g id="a_node6"><a xlink:title="STL class.">
<polygon fill="none" stroke="#bfbfbf" points="212,-178.5 212,-197.5 304,-197.5 304,-178.5 212,-178.5"/>
<text text-anchor="middle" x="258" y="-185.5" font-family="Helvetica,sans-Serif" font-size="10.00">std::array&lt; T &gt;</text>
</a>
</g>
</g>
<!-- Node6&#45;&gt;Node4 -->
<g id="edge6" class="edge">
<title>Node6&#45;&gt;Node4</title>
<path fill="none" stroke="orange" stroke-dasharray="5,2" d="M239.26,-171.99C220.56,-157.23 190.84,-134.3 164,-116 154.73,-109.68 144.24,-103.13 135.06,-97.58"/>
<polygon fill="orange" stroke="orange" points="237.25,-174.86 247.25,-178.34 241.6,-169.38 237.25,-174.86"/>
<text text-anchor="start" x="222" y="-141" font-family="Helvetica,sans-Serif" font-size="10.00"> &lt; rawspeed::JpegComponent</text>
<text text-anchor="middle" x="294.5" y="-130" font-family="Helvetica,sans-Serif" font-size="10.00">Info, 4 &gt;</text>
</g>
<!-- Node7 -->
<g id="node7" class="node">
<title>Node7</title>
<g id="a_node7"><a xlink:title=" ">
<polygon fill="none" stroke="#bfbfbf" points="243.5,-278.5 243.5,-297.5 272.5,-297.5 272.5,-278.5 243.5,-278.5"/>
<text text-anchor="middle" x="258" y="-285.5" font-family="Helvetica,sans-Serif" font-size="10.00">T</text>
</a>
</g>
</g>
<!-- Node7&#45;&gt;Node6 -->
<g id="edge7" class="edge">
<title>Node7&#45;&gt;Node6</title>
<path fill="none" stroke="#9a32cd" stroke-dasharray="5,2" d="M258,-268.22C258,-246.95 258,-213.22 258,-197.54"/>
<polygon fill="#9a32cd" stroke="#9a32cd" points="254.5,-268.3 258,-278.3 261.5,-268.3 254.5,-268.3"/>
<text text-anchor="middle" x="282.5" y="-235.5" font-family="Helvetica,sans-Serif" font-size="10.00"> elements</text>
</g>
</g>
</svg>
