<?xml version="1.0" encoding="UTF-8" standalone="no"?>
<!DOCTYPE svg PUBLIC "-//W3C//DTD SVG 1.1//EN"
 "http://www.w3.org/Graphics/SVG/1.1/DTD/svg11.dtd">
<!-- Generated by graphviz version 2.43.0 (0)
 -->
<!-- Title: anonymous_namespace{VC5Decompressor.cpp}::RLV Pages: 1 -->
<svg width="230pt" height="117pt"
 viewBox="0.00 0.00 230.00 117.00" xmlns="http://www.w3.org/2000/svg" xmlns:xlink="http://www.w3.org/1999/xlink">
<g id="graph0" class="graph" transform="scale(1 1) rotate(0) translate(4 113)">
<title>anonymous_namespace{VC5Decompressor.cpp}::RLV</title>
<!-- Node1 -->
<g id="node1" class="node">
<title>Node1</title>
<g id="a_node1"><a xlink:title=" ">
<polygon fill="#bfbfbf" stroke="black" points="30,-0.5 30,-30.5 192,-30.5 192,-0.5 30,-0.5"/>
<text text-anchor="start" x="38" y="-18.5" font-family="Helvetica,sans-Serif" font-size="10.00">anonymous_namespace</text>
<text text-anchor="middle" x="111" y="-7.5" font-family="Helvetica,sans-Serif" font-size="10.00">{VC5Decompressor.cpp}::RLV</text>
</a>
</g>
</g>
<!-- Node2 -->
<g id="node2" class="node">
<title>Node2</title>
<g id="a_node2"><a xlink:href="../../d5/df4/classuint16__t.html" target="_top" xlink:title=" ">
<polygon fill="none" stroke="black" points="0,-89.5 0,-108.5 56,-108.5 56,-89.5 0,-89.5"/>
<text text-anchor="middle" x="28" y="-96.5" font-family="Helvetica,sans-Serif" font-size="10.00">uint16_t</text>
</a>
</g>
</g>
<!-- Node2&#45;&gt;Node1 -->
<g id="edge1" class="edge">
<title>Node2&#45;&gt;Node1</title>
<path fill="none" stroke="#9a32cd" stroke-dasharray="5,2" d="M43.44,-81.85C52.76,-72.21 64.93,-59.77 76,-49 82.3,-42.87 89.38,-36.24 95.52,-30.58"/>
<polygon fill="#9a32cd" stroke="#9a32cd" points="40.78,-79.57 36.37,-89.2 45.83,-84.42 40.78,-79.57"/>
<text text-anchor="middle" x="91.5" y="-63" font-family="Helvetica,sans-Serif" font-size="10.00"> count</text>
<text text-anchor="middle" x="91.5" y="-52" font-family="Helvetica,sans-Serif" font-size="10.00">value</text>
</g>
<!-- Node3 -->
<g id="node3" class="node">
<title>Node3</title>
<g id="a_node3"><a xlink:title=" ">
<polygon fill="none" stroke="#bfbfbf" points="74,-89.5 74,-108.5 148,-108.5 148,-89.5 74,-89.5"/>
<text text-anchor="middle" x="111" y="-96.5" font-family="Helvetica,sans-Serif" font-size="10.00">uint_fast8_t</text>
</a>
</g>
</g>
<!-- Node3&#45;&gt;Node1 -->
<g id="edge2" class="edge">
<title>Node3&#45;&gt;Node1</title>
<path fill="none" stroke="#9a32cd" stroke-dasharray="5,2" d="M111,-79.23C111,-64.41 111,-44.05 111,-30.6"/>
<polygon fill="#9a32cd" stroke="#9a32cd" points="107.5,-79.28 111,-89.28 114.5,-79.28 107.5,-79.28"/>
<text text-anchor="middle" x="122.5" y="-57.5" font-family="Helvetica,sans-Serif" font-size="10.00"> size</text>
</g>
<!-- Node4 -->
<g id="node4" class="node">
<title>Node4</title>
<g id="a_node4"><a xlink:href="../../d3/d87/classuint32__t.html" target="_top" xlink:title=" ">
<polygon fill="none" stroke="black" points="166,-89.5 166,-108.5 222,-108.5 222,-89.5 166,-89.5"/>
<text text-anchor="middle" x="194" y="-96.5" font-family="Helvetica,sans-Serif" font-size="10.00">uint32_t</text>
</a>
</g>
</g>
<!-- Node4&#45;&gt;Node1 -->
<g id="edge3" class="edge">
<title>Node4&#45;&gt;Node1</title>
<path fill="none" stroke="#9a32cd" stroke-dasharray="5,2" d="M177.91,-82.2C162.67,-67.23 140,-44.97 125.36,-30.6"/>
<polygon fill="#9a32cd" stroke="#9a32cd" points="175.53,-84.77 185.12,-89.28 180.43,-79.77 175.53,-84.77"/>
<text text-anchor="middle" x="175" y="-57.5" font-family="Helvetica,sans-Serif" font-size="10.00"> bits</text>
</g>
</g>
</svg>
