<?xml version="1.0" encoding="UTF-8" standalone="no"?>
<!DOCTYPE svg PUBLIC "-//W3C//DTD SVG 1.1//EN"
 "http://www.w3.org/Graphics/SVG/1.1/DTD/svg11.dtd">
<!-- Generated by graphviz version 2.43.0 (0)
 -->
<!-- Title: librawspeed/decoders/SimpleTiffDecoder.h Pages: 1 -->
<svg width="844pt" height="184pt"
 viewBox="0.00 0.00 844.00 184.00" xmlns="http://www.w3.org/2000/svg" xmlns:xlink="http://www.w3.org/1999/xlink">
<g id="graph0" class="graph" transform="scale(1 1) rotate(0) translate(4 180)">
<title>librawspeed/decoders/SimpleTiffDecoder.h</title>
<!-- Node1 -->
<g id="node1" class="node">
<title>Node1</title>
<g id="a_node1"><a xlink:title=" ">
<polygon fill="#bfbfbf" stroke="black" points="425,-145.5 425,-175.5 548,-175.5 548,-145.5 425,-145.5"/>
<text text-anchor="start" x="433" y="-163.5" font-family="Helvetica,sans-Serif" font-size="10.00">librawspeed/decoders</text>
<text text-anchor="middle" x="486.5" y="-152.5" font-family="Helvetica,sans-Serif" font-size="10.00">/SimpleTiffDecoder.h</text>
</a>
</g>
</g>
<!-- Node2 -->
<g id="node2" class="node">
<title>Node2</title>
<g id="a_node2"><a xlink:href="../../d3/d56/_dcr_decoder_8h.html" target="_top" xlink:title=" ">
<polygon fill="none" stroke="black" points="566,-78.5 566,-108.5 689,-108.5 689,-78.5 566,-78.5"/>
<text text-anchor="start" x="574" y="-96.5" font-family="Helvetica,sans-Serif" font-size="10.00">librawspeed/decoders</text>
<text text-anchor="middle" x="627.5" y="-85.5" font-family="Helvetica,sans-Serif" font-size="10.00">/DcrDecoder.h</text>
</a>
</g>
</g>
<!-- Node1&#45;&gt;Node2 -->
<g id="edge1" class="edge">
<title>Node1&#45;&gt;Node2</title>
<path fill="none" stroke="midnightblue" d="M526.35,-141.13C548.75,-130.8 576.28,-118.11 596.96,-108.58"/>
<polygon fill="midnightblue" stroke="midnightblue" points="524.71,-138.03 517.09,-145.4 527.64,-144.39 524.71,-138.03"/>
</g>
<!-- Node6 -->
<g id="node6" class="node">
<title>Node6</title>
<g id="a_node6"><a xlink:href="../../db/d7d/_dcs_decoder_8h.html" target="_top" xlink:title=" ">
<polygon fill="none" stroke="black" points="284,-78.5 284,-108.5 407,-108.5 407,-78.5 284,-78.5"/>
<text text-anchor="start" x="292" y="-96.5" font-family="Helvetica,sans-Serif" font-size="10.00">librawspeed/decoders</text>
<text text-anchor="middle" x="345.5" y="-85.5" font-family="Helvetica,sans-Serif" font-size="10.00">/DcsDecoder.h</text>
</a>
</g>
</g>
<!-- Node1&#45;&gt;Node6 -->
<g id="edge5" class="edge">
<title>Node1&#45;&gt;Node6</title>
<path fill="none" stroke="midnightblue" d="M446.65,-141.13C424.25,-130.8 396.72,-118.11 376.04,-108.58"/>
<polygon fill="midnightblue" stroke="midnightblue" points="445.36,-144.39 455.91,-145.4 448.29,-138.03 445.36,-144.39"/>
</g>
<!-- Node8 -->
<g id="node8" class="node">
<title>Node8</title>
<g id="a_node8"><a xlink:href="../../d3/d79/_erf_decoder_8h.html" target="_top" xlink:title=" ">
<polygon fill="none" stroke="black" points="143,-78.5 143,-108.5 266,-108.5 266,-78.5 143,-78.5"/>
<text text-anchor="start" x="151" y="-96.5" font-family="Helvetica,sans-Serif" font-size="10.00">librawspeed/decoders</text>
<text text-anchor="middle" x="204.5" y="-85.5" font-family="Helvetica,sans-Serif" font-size="10.00">/ErfDecoder.h</text>
</a>
</g>
</g>
<!-- Node1&#45;&gt;Node8 -->
<g id="edge9" class="edge">
<title>Node1&#45;&gt;Node8</title>
<path fill="none" stroke="midnightblue" d="M415.72,-143.19C369.54,-132.54 309.86,-118.78 265.72,-108.61"/>
<polygon fill="midnightblue" stroke="midnightblue" points="415.13,-146.64 425.66,-145.48 416.7,-139.82 415.13,-146.64"/>
</g>
<!-- Node10 -->
<g id="node10" class="node">
<title>Node10</title>
<g id="a_node10"><a xlink:href="../../d0/d9a/_mef_decoder_8h.html" target="_top" xlink:title=" ">
<polygon fill="none" stroke="black" points="425,-78.5 425,-108.5 548,-108.5 548,-78.5 425,-78.5"/>
<text text-anchor="start" x="433" y="-96.5" font-family="Helvetica,sans-Serif" font-size="10.00">librawspeed/decoders</text>
<text text-anchor="middle" x="486.5" y="-85.5" font-family="Helvetica,sans-Serif" font-size="10.00">/MefDecoder.h</text>
</a>
</g>
</g>
<!-- Node1&#45;&gt;Node10 -->
<g id="edge13" class="edge">
<title>Node1&#45;&gt;Node10</title>
<path fill="none" stroke="midnightblue" d="M486.5,-135.11C486.5,-126.15 486.5,-116.32 486.5,-108.58"/>
<polygon fill="midnightblue" stroke="midnightblue" points="483,-135.4 486.5,-145.4 490,-135.4 483,-135.4"/>
</g>
<!-- Node12 -->
<g id="node12" class="node">
<title>Node12</title>
<g id="a_node12"><a xlink:href="../../de/d7c/_simple_tiff_decoder_8cpp.html" target="_top" xlink:title=" ">
<polygon fill="none" stroke="black" points="707,-78.5 707,-108.5 836,-108.5 836,-78.5 707,-78.5"/>
<text text-anchor="start" x="715" y="-96.5" font-family="Helvetica,sans-Serif" font-size="10.00">librawspeed/decoders</text>
<text text-anchor="middle" x="771.5" y="-85.5" font-family="Helvetica,sans-Serif" font-size="10.00">/SimpleTiffDecoder.cpp</text>
</a>
</g>
</g>
<!-- Node1&#45;&gt;Node12 -->
<g id="edge17" class="edge">
<title>Node1&#45;&gt;Node12</title>
<path fill="none" stroke="midnightblue" d="M558.03,-143.19C604.71,-132.54 665.02,-118.78 709.63,-108.61"/>
<polygon fill="midnightblue" stroke="midnightblue" points="556.96,-139.84 547.99,-145.48 558.52,-146.66 556.96,-139.84"/>
</g>
<!-- Node3 -->
<g id="node3" class="node">
<title>Node3</title>
<g id="a_node3"><a xlink:href="../../d6/da1/fuzz_2librawspeed_2decoders_2_tiff_decoders_2main_8cpp.html" target="_top" xlink:title=" ">
<polygon fill="none" stroke="black" points="282,-0.5 282,-41.5 411,-41.5 411,-0.5 282,-0.5"/>
<text text-anchor="start" x="290" y="-29.5" font-family="Helvetica,sans-Serif" font-size="10.00">/build/rawspeed/fuzz</text>
<text text-anchor="start" x="290" y="-18.5" font-family="Helvetica,sans-Serif" font-size="10.00">/librawspeed/decoders</text>
<text text-anchor="middle" x="346.5" y="-7.5" font-family="Helvetica,sans-Serif" font-size="10.00">/TiffDecoders/main.cpp</text>
</a>
</g>
</g>
<!-- Node2&#45;&gt;Node3 -->
<g id="edge2" class="edge">
<title>Node2&#45;&gt;Node3</title>
<path fill="none" stroke="midnightblue" d="M558.09,-76.02C517.85,-66.35 466.24,-53.76 420.5,-42 417.41,-41.2 414.24,-40.38 411.05,-39.55"/>
<polygon fill="midnightblue" stroke="midnightblue" points="557.53,-79.48 568.07,-78.41 559.16,-72.68 557.53,-79.48"/>
</g>
<!-- Node4 -->
<g id="node4" class="node">
<title>Node4</title>
<g id="a_node4"><a xlink:href="../../d7/d36/_dcr_decoder_8cpp.html" target="_top" xlink:title=" ">
<polygon fill="none" stroke="black" points="703,-6 703,-36 826,-36 826,-6 703,-6"/>
<text text-anchor="start" x="711" y="-24" font-family="Helvetica,sans-Serif" font-size="10.00">librawspeed/decoders</text>
<text text-anchor="middle" x="764.5" y="-13" font-family="Helvetica,sans-Serif" font-size="10.00">/DcrDecoder.cpp</text>
</a>
</g>
</g>
<!-- Node2&#45;&gt;Node4 -->
<g id="edge3" class="edge">
<title>Node2&#45;&gt;Node4</title>
<path fill="none" stroke="midnightblue" d="M664,-73.72C686.99,-61.89 716.16,-46.87 737.15,-36.07"/>
<polygon fill="midnightblue" stroke="midnightblue" points="662.18,-70.71 654.89,-78.4 665.39,-76.94 662.18,-70.71"/>
</g>
<!-- Node5 -->
<g id="node5" class="node">
<title>Node5</title>
<g id="a_node5"><a xlink:href="../../d2/d36/_tiff_parser_8cpp.html" target="_top" xlink:title=" ">
<polygon fill="none" stroke="black" points="429,-6 429,-36 544,-36 544,-6 429,-6"/>
<text text-anchor="start" x="437" y="-24" font-family="Helvetica,sans-Serif" font-size="10.00">librawspeed/parsers</text>
<text text-anchor="middle" x="486.5" y="-13" font-family="Helvetica,sans-Serif" font-size="10.00">/TiffParser.cpp</text>
</a>
</g>
</g>
<!-- Node2&#45;&gt;Node5 -->
<g id="edge4" class="edge">
<title>Node2&#45;&gt;Node5</title>
<path fill="none" stroke="midnightblue" d="M590.25,-73.87C566.55,-62.02 536.34,-46.92 514.65,-36.07"/>
<polygon fill="midnightblue" stroke="midnightblue" points="588.8,-77.06 599.31,-78.4 591.93,-70.8 588.8,-77.06"/>
</g>
<!-- Node6&#45;&gt;Node3 -->
<g id="edge6" class="edge">
<title>Node6&#45;&gt;Node3</title>
<path fill="none" stroke="midnightblue" d="M345.85,-67.98C345.97,-59.35 346.11,-49.76 346.22,-41.59"/>
<polygon fill="midnightblue" stroke="midnightblue" points="342.34,-68.18 345.7,-78.23 349.34,-68.28 342.34,-68.18"/>
</g>
<!-- Node6&#45;&gt;Node5 -->
<g id="edge8" class="edge">
<title>Node6&#45;&gt;Node5</title>
<path fill="none" stroke="midnightblue" d="M382.75,-73.87C406.45,-62.02 436.66,-46.92 458.35,-36.07"/>
<polygon fill="midnightblue" stroke="midnightblue" points="381.07,-70.8 373.69,-78.4 384.2,-77.06 381.07,-70.8"/>
</g>
<!-- Node7 -->
<g id="node7" class="node">
<title>Node7</title>
<g id="a_node7"><a xlink:href="../../d8/d1d/_dcs_decoder_8cpp.html" target="_top" xlink:title=" ">
<polygon fill="none" stroke="black" points="141,-6 141,-36 264,-36 264,-6 141,-6"/>
<text text-anchor="start" x="149" y="-24" font-family="Helvetica,sans-Serif" font-size="10.00">librawspeed/decoders</text>
<text text-anchor="middle" x="202.5" y="-13" font-family="Helvetica,sans-Serif" font-size="10.00">/DcsDecoder.cpp</text>
</a>
</g>
</g>
<!-- Node6&#45;&gt;Node7 -->
<g id="edge7" class="edge">
<title>Node6&#45;&gt;Node7</title>
<path fill="none" stroke="midnightblue" d="M307.72,-73.87C283.68,-62.02 253.05,-46.92 231.04,-36.07"/>
<polygon fill="midnightblue" stroke="midnightblue" points="306.39,-77.12 316.91,-78.4 309.48,-70.84 306.39,-77.12"/>
</g>
<!-- Node8&#45;&gt;Node3 -->
<g id="edge10" class="edge">
<title>Node8&#45;&gt;Node3</title>
<path fill="none" stroke="midnightblue" d="M242.04,-73.86C262.11,-63.9 286.79,-51.64 307.13,-41.55"/>
<polygon fill="midnightblue" stroke="midnightblue" points="240.29,-70.82 232.89,-78.4 243.41,-77.09 240.29,-70.82"/>
</g>
<!-- Node8&#45;&gt;Node5 -->
<g id="edge12" class="edge">
<title>Node8&#45;&gt;Node5</title>
<path fill="none" stroke="midnightblue" d="M276.12,-76.98C318.31,-67.53 372.63,-54.83 420.5,-42 427.32,-40.17 434.51,-38.12 441.52,-36.05"/>
<polygon fill="midnightblue" stroke="midnightblue" points="275.21,-73.59 266.21,-79.18 276.73,-80.42 275.21,-73.59"/>
</g>
<!-- Node9 -->
<g id="node9" class="node">
<title>Node9</title>
<g id="a_node9"><a xlink:href="../../d8/db2/_erf_decoder_8cpp.html" target="_top" xlink:title=" ">
<polygon fill="none" stroke="black" points="0,-6 0,-36 123,-36 123,-6 0,-6"/>
<text text-anchor="start" x="8" y="-24" font-family="Helvetica,sans-Serif" font-size="10.00">librawspeed/decoders</text>
<text text-anchor="middle" x="61.5" y="-13" font-family="Helvetica,sans-Serif" font-size="10.00">/ErfDecoder.cpp</text>
</a>
</g>
</g>
<!-- Node8&#45;&gt;Node9 -->
<g id="edge11" class="edge">
<title>Node8&#45;&gt;Node9</title>
<path fill="none" stroke="midnightblue" d="M166.72,-73.87C142.68,-62.02 112.05,-46.92 90.04,-36.07"/>
<polygon fill="midnightblue" stroke="midnightblue" points="165.39,-77.12 175.91,-78.4 168.48,-70.84 165.39,-77.12"/>
</g>
<!-- Node10&#45;&gt;Node3 -->
<g id="edge14" class="edge">
<title>Node10&#45;&gt;Node3</title>
<path fill="none" stroke="midnightblue" d="M449.48,-73.86C429.7,-63.9 405.36,-51.64 385.32,-41.55"/>
<polygon fill="midnightblue" stroke="midnightblue" points="448,-77.03 458.51,-78.4 451.15,-70.78 448,-77.03"/>
</g>
<!-- Node10&#45;&gt;Node5 -->
<g id="edge16" class="edge">
<title>Node10&#45;&gt;Node5</title>
<path fill="none" stroke="midnightblue" d="M486.5,-68.23C486.5,-57.57 486.5,-45.41 486.5,-36.25"/>
<polygon fill="midnightblue" stroke="midnightblue" points="483,-68.23 486.5,-78.23 490,-68.23 483,-68.23"/>
</g>
<!-- Node11 -->
<g id="node11" class="node">
<title>Node11</title>
<g id="a_node11"><a xlink:href="../../d9/d6b/_mef_decoder_8cpp.html" target="_top" xlink:title=" ">
<polygon fill="none" stroke="black" points="562,-6 562,-36 685,-36 685,-6 562,-6"/>
<text text-anchor="start" x="570" y="-24" font-family="Helvetica,sans-Serif" font-size="10.00">librawspeed/decoders</text>
<text text-anchor="middle" x="623.5" y="-13" font-family="Helvetica,sans-Serif" font-size="10.00">/MefDecoder.cpp</text>
</a>
</g>
</g>
<!-- Node10&#45;&gt;Node11 -->
<g id="edge15" class="edge">
<title>Node10&#45;&gt;Node11</title>
<path fill="none" stroke="midnightblue" d="M523,-73.72C545.99,-61.89 575.16,-46.87 596.15,-36.07"/>
<polygon fill="midnightblue" stroke="midnightblue" points="521.18,-70.71 513.89,-78.4 524.39,-76.94 521.18,-70.71"/>
</g>
</g>
</svg>
