<?xml version="1.0" encoding="UTF-8" standalone="no"?>
<!DOCTYPE svg PUBLIC "-//W3C//DTD SVG 1.1//EN"
 "http://www.w3.org/Graphics/SVG/1.1/DTD/svg11.dtd">
<!-- Generated by graphviz version 2.43.0 (0)
 -->
<!-- Title: rawspeed::AbstractLJpegDecompressor::decode Pages: 1 -->
<!--zoomable 262 -->
<svg id="main" version="1.1" xmlns="http://www.w3.org/2000/svg" xmlns:xlink="http://www.w3.org/1999/xlink" xml:space="preserve" onload="init(evt)">
<style type="text/css"><![CDATA[
.edge:hover path { stroke: red; }
.edge:hover polygon { stroke: red; fill: red; }
]]></style>
<script type="text/javascript"><![CDATA[
var edges = document.getElementsByTagName('g');
if (edges && edges.length) {
  for (var i=0;i<edges.length;i++) {
    if (edges[i].id.substr(0,4)=='edge') {
      edges[i].setAttribute('class','edge');
    }
  }
}
]]></script>
        <defs>
                <circle id="rim" cx="0" cy="0" r="7"/>
                <circle id="rim2" cx="0" cy="0" r="3.5"/>
                <g id="zoomPlus">
                        <use xlink:href="#rim" fill="#404040">
                                <set attributeName="fill" to="#808080" begin="zoomplus.mouseover" end="zoomplus.mouseout"/>
                        </use>
                        <path d="M-4,0h8M0,-4v8" fill="none" stroke="white" stroke-width="1.5" pointer-events="none"/>
                </g>
                <g id="zoomMin">
                        <use xlink:href="#rim" fill="#404040">
                                <set attributeName="fill" to="#808080" begin="zoomminus.mouseover" end="zoomminus.mouseout"/>
                        </use>
                        <path d="M-4,0h8" fill="none" stroke="white" stroke-width="1.5" pointer-events="none"/>
                </g>
                <g id="dirArrow">
                        <path fill="none" stroke="white" stroke-width="1.5" d="M0,-3.0v7 M-2.5,-0.5L0,-3.0L2.5,-0.5"/>
                </g>
               <g id="resetDef">
                       <use xlink:href="#rim2" fill="#404040">
                               <set attributeName="fill" to="#808080" begin="reset.mouseover" end="reset.mouseout"/>
                       </use>
               </g>
        </defs>

<script type="text/javascript">
var viewWidth = 950;
var viewHeight = 262;
var sectionId = 'dynsection-4';
</script>
<script xlink:href="../../svgpan.js"/>
<svg id="graph" class="graph">
<g id="viewport">
<title>rawspeed::AbstractLJpegDecompressor::decode</title>
<!-- Node1 -->
<g id="node1" class="node">
<title>Node1</title>
<g id="a_node1"><a xlink:title=" ">
<polygon fill="#bfbfbf" stroke="black" points="0,-100.81 0,-130.81 207,-130.81 207,-100.81 0,-100.81"/>
<text text-anchor="start" x="8" y="-118.81" font-family="Helvetica,sans-Serif" font-size="10.00">rawspeed::AbstractLJpegDecompressor</text>
<text text-anchor="middle" x="103.5" y="-107.81" font-family="Helvetica,sans-Serif" font-size="10.00">::decode</text>
</a>
</g>
</g>
<!-- Node2 -->
<g id="node2" class="node">
<title>Node2</title>
<g id="a_node2"><a xlink:href="../../d4/d03/classrawspeed_1_1_abstract_l_jpeg_decompressor.html#a15c3485c0ee7fcaaf335d88b88c7b889" target="_top" xlink:title=" ">
<polygon fill="none" stroke="black" points="243,-125.81 243,-155.81 450,-155.81 450,-125.81 243,-125.81"/>
<text text-anchor="start" x="251" y="-143.81" font-family="Helvetica,sans-Serif" font-size="10.00">rawspeed::AbstractLJpegDecompressor</text>
<text text-anchor="middle" x="346.5" y="-132.81" font-family="Helvetica,sans-Serif" font-size="10.00">::getNextMarker</text>
</a>
</g>
</g>
<!-- Node1&#45;&gt;Node2 -->
<g id="edge1" class="edge">
<title>Node1&#45;&gt;Node2</title>
<path fill="none" stroke="midnightblue" d="M207.06,-126.45C215.53,-127.33 224.12,-128.22 232.66,-129.1"/>
<polygon fill="midnightblue" stroke="midnightblue" points="232.34,-132.59 242.65,-130.14 233.07,-125.63 232.34,-132.59"/>
</g>
<!-- Node5 -->
<g id="node5" class="node">
<title>Node5</title>
<g id="a_node5"><a xlink:href="../../dd/da0/classrawspeed_1_1_byte_stream.html#a7a5f5eaad404d367efb8a64fa82d20ae" target="_top" xlink:title=" ">
<polygon fill="none" stroke="black" points="282.5,-223.81 282.5,-253.81 410.5,-253.81 410.5,-223.81 282.5,-223.81"/>
<text text-anchor="start" x="290.5" y="-241.81" font-family="Helvetica,sans-Serif" font-size="10.00">rawspeed::ByteStream</text>
<text text-anchor="middle" x="346.5" y="-230.81" font-family="Helvetica,sans-Serif" font-size="10.00">::getStream</text>
</a>
</g>
</g>
<!-- Node1&#45;&gt;Node5 -->
<g id="edge4" class="edge">
<title>Node1&#45;&gt;Node5</title>
<path fill="none" stroke="midnightblue" d="M121.53,-131.14C146.42,-152.75 195.02,-191.95 243,-213.81 252.35,-218.07 262.52,-221.66 272.7,-224.67"/>
<polygon fill="midnightblue" stroke="midnightblue" points="271.87,-228.08 282.45,-227.39 273.75,-221.33 271.87,-228.08"/>
</g>
<!-- Node9 -->
<g id="node9" class="node">
<title>Node9</title>
<g id="a_node9"><a xlink:href="../../d4/d03/classrawspeed_1_1_abstract_l_jpeg_decompressor.html#a077189e766663c0bd306bdb2423f0c8f" target="_top" xlink:title=" ">
<polygon fill="none" stroke="black" points="243,-76.81 243,-106.81 450,-106.81 450,-76.81 243,-76.81"/>
<text text-anchor="start" x="251" y="-94.81" font-family="Helvetica,sans-Serif" font-size="10.00">rawspeed::AbstractLJpegDecompressor</text>
<text text-anchor="middle" x="346.5" y="-83.81" font-family="Helvetica,sans-Serif" font-size="10.00">::parseDHT</text>
</a>
</g>
</g>
<!-- Node1&#45;&gt;Node9 -->
<g id="edge8" class="edge">
<title>Node1&#45;&gt;Node9</title>
<path fill="none" stroke="midnightblue" d="M207.06,-105.6C215.53,-104.75 224.12,-103.9 232.66,-103.05"/>
<polygon fill="midnightblue" stroke="midnightblue" points="233.05,-106.53 242.65,-102.05 232.35,-99.56 233.05,-106.53"/>
</g>
<!-- Node11 -->
<g id="node11" class="node">
<title>Node11</title>
<g id="a_node11"><a xlink:href="../../d4/d03/classrawspeed_1_1_abstract_l_jpeg_decompressor.html#a721efcf810434ff423279f02abfebaee" target="_top" xlink:title=" ">
<polygon fill="none" stroke="black" points="243,-174.81 243,-204.81 450,-204.81 450,-174.81 243,-174.81"/>
<text text-anchor="start" x="251" y="-192.81" font-family="Helvetica,sans-Serif" font-size="10.00">rawspeed::AbstractLJpegDecompressor</text>
<text text-anchor="middle" x="346.5" y="-181.81" font-family="Helvetica,sans-Serif" font-size="10.00">::parseSOS</text>
</a>
</g>
</g>
<!-- Node1&#45;&gt;Node11 -->
<g id="edge12" class="edge">
<title>Node1&#45;&gt;Node11</title>
<path fill="none" stroke="midnightblue" d="M143.55,-130.81C171.11,-141.11 209.02,-154.68 243,-164.81 251.64,-167.38 260.74,-169.89 269.81,-172.26"/>
<polygon fill="midnightblue" stroke="midnightblue" points="269.06,-175.68 279.62,-174.78 270.8,-168.9 269.06,-175.68"/>
</g>
<!-- Node12 -->
<g id="node12" class="node">
<title>Node12</title>
<g id="a_node12"><a xlink:href="../../dd/da0/classrawspeed_1_1_byte_stream.html#a284feb49cffbfc242b93deb8ac932f84" target="_top" xlink:title=" ">
<polygon fill="none" stroke="black" points="282.5,-27.81 282.5,-57.81 410.5,-57.81 410.5,-27.81 282.5,-27.81"/>
<text text-anchor="start" x="290.5" y="-45.81" font-family="Helvetica,sans-Serif" font-size="10.00">rawspeed::ByteStream</text>
<text text-anchor="middle" x="346.5" y="-34.81" font-family="Helvetica,sans-Serif" font-size="10.00">::peekU16</text>
</a>
</g>
</g>
<!-- Node1&#45;&gt;Node12 -->
<g id="edge14" class="edge">
<title>Node1&#45;&gt;Node12</title>
<path fill="none" stroke="midnightblue" d="M143.53,-100.71C171.07,-90.37 208.98,-76.78 243,-66.81 252.47,-64.03 262.51,-61.36 272.45,-58.87"/>
<polygon fill="midnightblue" stroke="midnightblue" points="273.46,-62.23 282.33,-56.45 271.79,-55.43 273.46,-62.23"/>
</g>
<!-- Node13 -->
<g id="node13" class="node">
<title>Node13</title>
<g id="a_node13"><a xlink:href="../../dd/da0/classrawspeed_1_1_byte_stream.html#ab77bbfb370f041df54b9b67e0d8ff711" target="_top" xlink:title=" ">
<polygon fill="none" stroke="black" points="486,-5.81 486,-35.81 614,-35.81 614,-5.81 486,-5.81"/>
<text text-anchor="start" x="494" y="-23.81" font-family="Helvetica,sans-Serif" font-size="10.00">rawspeed::ByteStream</text>
<text text-anchor="middle" x="550" y="-12.81" font-family="Helvetica,sans-Serif" font-size="10.00">::skipBytes</text>
</a>
</g>
</g>
<!-- Node1&#45;&gt;Node13 -->
<g id="edge15" class="edge">
<title>Node1&#45;&gt;Node13</title>
<path fill="none" stroke="midnightblue" d="M119.33,-100.43C142.93,-77.2 191.63,-34.15 243,-17.81 319.49,6.52 412.28,1.08 475.49,-7.45"/>
<polygon fill="midnightblue" stroke="midnightblue" points="475.37,-10.97 485.76,-8.9 476.35,-4.04 475.37,-10.97"/>
</g>
<!-- Node3 -->
<g id="node3" class="node">
<title>Node3</title>
<g id="a_node3"><a xlink:href="../../dd/da0/classrawspeed_1_1_byte_stream.html#aefa3f71685c6dfe217732a3a23d4e34e" target="_top" xlink:title=" ">
<polygon fill="none" stroke="black" points="486,-125.81 486,-155.81 614,-155.81 614,-125.81 486,-125.81"/>
<text text-anchor="start" x="494" y="-143.81" font-family="Helvetica,sans-Serif" font-size="10.00">rawspeed::ByteStream</text>
<text text-anchor="middle" x="550" y="-132.81" font-family="Helvetica,sans-Serif" font-size="10.00">::getByte</text>
</a>
</g>
</g>
<!-- Node2&#45;&gt;Node3 -->
<g id="edge2" class="edge">
<title>Node2&#45;&gt;Node3</title>
<path fill="none" stroke="midnightblue" d="M450.02,-140.81C458.73,-140.81 467.42,-140.81 475.83,-140.81"/>
<polygon fill="midnightblue" stroke="midnightblue" points="475.94,-144.31 485.94,-140.81 475.94,-137.31 475.94,-144.31"/>
</g>
<!-- Node4 -->
<g id="node4" class="node">
<title>Node4</title>
<g id="a_node4"><a xlink:href="../../dd/da0/classrawspeed_1_1_byte_stream.html#a33bbb3baf3bb9730f9da8765175ec4ce" target="_top" xlink:title=" ">
<polygon fill="none" stroke="black" points="650,-76.81 650,-106.81 778,-106.81 778,-76.81 650,-76.81"/>
<text text-anchor="start" x="658" y="-94.81" font-family="Helvetica,sans-Serif" font-size="10.00">rawspeed::ByteStream</text>
<text text-anchor="middle" x="714" y="-83.81" font-family="Helvetica,sans-Serif" font-size="10.00">::check</text>
</a>
</g>
</g>
<!-- Node3&#45;&gt;Node4 -->
<g id="edge3" class="edge">
<title>Node3&#45;&gt;Node4</title>
<path fill="none" stroke="midnightblue" d="M600.93,-125.71C617.48,-120.7 636.07,-115.08 653.29,-109.87"/>
<polygon fill="midnightblue" stroke="midnightblue" points="654.68,-113.11 663.24,-106.86 652.65,-106.41 654.68,-113.11"/>
</g>
<!-- Node6 -->
<g id="node6" class="node">
<title>Node6</title>
<g id="a_node6"><a xlink:href="../../dd/da0/classrawspeed_1_1_byte_stream.html#a81cc27671b93889f9c8adb62ece8340e" target="_top" xlink:title=" ">
<polygon fill="none" stroke="black" points="486,-223.81 486,-253.81 614,-253.81 614,-223.81 486,-223.81"/>
<text text-anchor="start" x="494" y="-241.81" font-family="Helvetica,sans-Serif" font-size="10.00">rawspeed::ByteStream</text>
<text text-anchor="middle" x="550" y="-230.81" font-family="Helvetica,sans-Serif" font-size="10.00">::peekStream</text>
</a>
</g>
</g>
<!-- Node5&#45;&gt;Node6 -->
<g id="edge5" class="edge">
<title>Node5&#45;&gt;Node6</title>
<path fill="none" stroke="midnightblue" d="M410.7,-238.81C431.23,-238.81 454.19,-238.81 475.42,-238.81"/>
<polygon fill="midnightblue" stroke="midnightblue" points="475.68,-242.31 485.68,-238.81 475.68,-235.31 475.68,-242.31"/>
</g>
<!-- Node7 -->
<g id="node7" class="node">
<title>Node7</title>
<g id="a_node7"><a xlink:href="../../dd/da0/classrawspeed_1_1_byte_stream.html#a5eb5f775dd7efaa22b490007fe835a32" target="_top" xlink:title=" ">
<polygon fill="none" stroke="black" points="650,-223.81 650,-253.81 778,-253.81 778,-223.81 650,-223.81"/>
<text text-anchor="start" x="658" y="-241.81" font-family="Helvetica,sans-Serif" font-size="10.00">rawspeed::ByteStream</text>
<text text-anchor="middle" x="714" y="-230.81" font-family="Helvetica,sans-Serif" font-size="10.00">::getSubStream</text>
</a>
</g>
</g>
<!-- Node6&#45;&gt;Node7 -->
<g id="edge6" class="edge">
<title>Node6&#45;&gt;Node7</title>
<path fill="none" stroke="midnightblue" d="M614.1,-238.81C622.43,-238.81 631.04,-238.81 639.53,-238.81"/>
<polygon fill="midnightblue" stroke="midnightblue" points="639.81,-242.31 649.81,-238.81 639.81,-235.31 639.81,-242.31"/>
</g>
<!-- Node8 -->
<g id="node8" class="node">
<title>Node8</title>
<g id="a_node8"><a xlink:href="../../dd/da0/classrawspeed_1_1_byte_stream.html#a804858089e7e6c442815d46128cca1ed" target="_top" xlink:title=" ">
<polygon fill="none" stroke="black" points="814,-223.81 814,-253.81 942,-253.81 942,-223.81 814,-223.81"/>
<text text-anchor="start" x="822" y="-241.81" font-family="Helvetica,sans-Serif" font-size="10.00">rawspeed::ByteStream</text>
<text text-anchor="middle" x="878" y="-230.81" font-family="Helvetica,sans-Serif" font-size="10.00">::ByteStream</text>
</a>
</g>
</g>
<!-- Node7&#45;&gt;Node8 -->
<g id="edge7" class="edge">
<title>Node7&#45;&gt;Node8</title>
<path fill="none" stroke="midnightblue" d="M778.1,-238.81C786.43,-238.81 795.04,-238.81 803.53,-238.81"/>
<polygon fill="midnightblue" stroke="midnightblue" points="803.81,-242.31 813.81,-238.81 803.81,-235.31 803.81,-242.31"/>
</g>
<!-- Node9&#45;&gt;Node3 -->
<g id="edge9" class="edge">
<title>Node9&#45;&gt;Node3</title>
<path fill="none" stroke="midnightblue" d="M412.33,-106.81C424.84,-109.76 437.84,-112.85 450,-115.81 459.75,-118.18 470.04,-120.73 480.14,-123.26"/>
<polygon fill="midnightblue" stroke="midnightblue" points="479.6,-126.73 490.15,-125.77 481.3,-119.94 479.6,-126.73"/>
</g>
<!-- Node10 -->
<g id="node10" class="node">
<title>Node10</title>
<g id="a_node10"><a xlink:href="../../dd/da0/classrawspeed_1_1_byte_stream.html#ab4972769baa5c0ed59ec0608ed2b307d" target="_top" xlink:title=" ">
<polygon fill="none" stroke="black" points="486,-76.81 486,-106.81 614,-106.81 614,-76.81 486,-76.81"/>
<text text-anchor="start" x="494" y="-94.81" font-family="Helvetica,sans-Serif" font-size="10.00">rawspeed::ByteStream</text>
<text text-anchor="middle" x="550" y="-83.81" font-family="Helvetica,sans-Serif" font-size="10.00">::getRemainSize</text>
</a>
</g>
</g>
<!-- Node9&#45;&gt;Node10 -->
<g id="edge10" class="edge">
<title>Node9&#45;&gt;Node10</title>
<path fill="none" stroke="midnightblue" d="M450.02,-91.81C458.73,-91.81 467.42,-91.81 475.83,-91.81"/>
<polygon fill="midnightblue" stroke="midnightblue" points="475.94,-95.31 485.94,-91.81 475.94,-88.31 475.94,-95.31"/>
</g>
<!-- Node10&#45;&gt;Node4 -->
<g id="edge11" class="edge">
<title>Node10&#45;&gt;Node4</title>
<path fill="none" stroke="midnightblue" d="M614.1,-91.81C622.43,-91.81 631.04,-91.81 639.53,-91.81"/>
<polygon fill="midnightblue" stroke="midnightblue" points="639.81,-95.31 649.81,-91.81 639.81,-88.31 639.81,-95.31"/>
</g>
<!-- Node11&#45;&gt;Node3 -->
<g id="edge13" class="edge">
<title>Node11&#45;&gt;Node3</title>
<path fill="none" stroke="midnightblue" d="M409.33,-174.77C430.89,-169.53 455.27,-163.6 477.55,-158.18"/>
<polygon fill="midnightblue" stroke="midnightblue" points="478.4,-161.58 487.29,-155.82 476.75,-154.78 478.4,-161.58"/>
</g>
<!-- Node13&#45;&gt;Node4 -->
<g id="edge16" class="edge">
<title>Node13&#45;&gt;Node4</title>
<path fill="none" stroke="midnightblue" d="M585.36,-35.87C609.84,-46.6 642.95,-61.11 669.31,-72.66"/>
<polygon fill="midnightblue" stroke="midnightblue" points="668.13,-75.97 678.69,-76.77 670.94,-69.55 668.13,-75.97"/>
</g>
</g>
</svg>
        <g id="navigator" transform="translate(0 0)" fill="#404254">
                <rect fill="#f2f5e9" fill-opacity="0.5" stroke="#606060" stroke-width=".5" x="0" y="0" width="60" height="60"/>
                <use id="zoomplus" xlink:href="#zoomPlus" x="17" y="9" onmousedown="handleZoom(evt,'in')"/>
                <use id="zoomminus" xlink:href="#zoomMin" x="42" y="9" onmousedown="handleZoom(evt,'out')"/>
                <use id="reset" xlink:href="#resetDef" x="30" y="36" onmousedown="handleReset()"/>
                <g id="arrowUp" xlink:href="#dirArrow" transform="translate(30 24)" onmousedown="handlePan(0,-1)">
                  <use xlink:href="#rim" fill="#404040">
                        <set attributeName="fill" to="#808080" begin="arrowUp.mouseover" end="arrowUp.mouseout"/>
                  </use>
                  <path fill="none" stroke="white" stroke-width="1.5" d="M0,-3.0v7 M-2.5,-0.5L0,-3.0L2.5,-0.5"/>
                </g>
                <g id="arrowRight" xlink:href="#dirArrow" transform="rotate(90) translate(36 -43)" onmousedown="handlePan(1,0)">
                  <use xlink:href="#rim" fill="#404040">
                        <set attributeName="fill" to="#808080" begin="arrowRight.mouseover" end="arrowRight.mouseout"/>
                  </use>
                  <path fill="none" stroke="white" stroke-width="1.5" d="M0,-3.0v7 M-2.5,-0.5L0,-3.0L2.5,-0.5"/>
                </g>
                <g id="arrowDown" xlink:href="#dirArrow" transform="rotate(180) translate(-30 -48)" onmousedown="handlePan(0,1)">
                  <use xlink:href="#rim" fill="#404040">
                        <set attributeName="fill" to="#808080" begin="arrowDown.mouseover" end="arrowDown.mouseout"/>
                  </use>
                  <path fill="none" stroke="white" stroke-width="1.5" d="M0,-3.0v7 M-2.5,-0.5L0,-3.0L2.5,-0.5"/>
                </g>
                <g id="arrowLeft" xlink:href="#dirArrow" transform="rotate(270) translate(-36 17)" onmousedown="handlePan(-1,0)">
                  <use xlink:href="#rim" fill="#404040">
                        <set attributeName="fill" to="#808080" begin="arrowLeft.mouseover" end="arrowLeft.mouseout"/>
                  </use>
                  <path fill="none" stroke="white" stroke-width="1.5" d="M0,-3.0v7 M-2.5,-0.5L0,-3.0L2.5,-0.5"/>
                </g>
        </g>
        <svg viewBox="0 0 15 15" width="100%" height="30px" preserveAspectRatio="xMaxYMin meet">
         <g id="arrow_out" transform="scale(0.3 0.3)">
          <a xlink:href="classrawspeed_1_1_abstract_l_jpeg_decompressor_a761a4fac2d0114cbd56eca1787b8e409_cgraph_org.svg" target="_base">
           <rect id="button" ry="5" rx="5" y="6" x="6" height="38" width="38"
                fill="#f2f5e9" fill-opacity="0.5" stroke="#606060" stroke-width="1.0"/>
           <path id="arrow"
             d="M 11.500037,31.436501 C 11.940474,20.09759 22.043105,11.32322 32.158766,21.979434 L 37.068811,17.246167 C 37.068811,17.246167 37.088388,32 37.088388,32 L 22.160133,31.978069 C 22.160133,31.978069 26.997745,27.140456 26.997745,27.140456 C 18.528582,18.264221 13.291696,25.230495 11.500037,31.436501 z"
             style="fill:#404040;"/>
          </a>
         </g>
        </svg>
</svg>
