<?xml version="1.0" encoding="UTF-8" standalone="no"?>
<!DOCTYPE svg PUBLIC "-//W3C//DTD SVG 1.1//EN"
 "http://www.w3.org/Graphics/SVG/1.1/DTD/svg11.dtd">
<!-- Generated by graphviz version 2.43.0 (0)
 -->
<!-- Title: rawspeed::OlympusDecompressor::OlympusDecompressor Pages: 1 -->
<svg width="350pt" height="88pt"
 viewBox="0.00 0.00 350.00 88.00" xmlns="http://www.w3.org/2000/svg" xmlns:xlink="http://www.w3.org/1999/xlink">
<g id="graph0" class="graph" transform="scale(1 1) rotate(0) translate(4 84)">
<title>rawspeed::OlympusDecompressor::OlympusDecompressor</title>
<!-- Node1 -->
<g id="node1" class="node">
<title>Node1</title>
<g id="a_node1"><a xlink:title=" ">
<polygon fill="#bfbfbf" stroke="black" points="0,-24.5 0,-54.5 184,-54.5 184,-24.5 0,-24.5"/>
<text text-anchor="start" x="8" y="-42.5" font-family="Helvetica,sans-Serif" font-size="10.00">rawspeed::OlympusDecompressor</text>
<text text-anchor="middle" x="92" y="-31.5" font-family="Helvetica,sans-Serif" font-size="10.00">::OlympusDecompressor</text>
</a>
</g>
</g>
<!-- Node2 -->
<g id="node2" class="node">
<title>Node2</title>
<g id="a_node2"><a xlink:href="../../dd/d12/classrawspeed_1_1_raw_image.html#a2907002b5c707eca6939061f8b0d5e5d" target="_top" xlink:title=" ">
<polygon fill="none" stroke="black" points="220,-49.5 220,-79.5 342,-79.5 342,-49.5 220,-49.5"/>
<text text-anchor="start" x="228" y="-67.5" font-family="Helvetica,sans-Serif" font-size="10.00">rawspeed::RawImage</text>
<text text-anchor="middle" x="281" y="-56.5" font-family="Helvetica,sans-Serif" font-size="10.00">::operator&#45;&gt;</text>
</a>
</g>
</g>
<!-- Node1&#45;&gt;Node2 -->
<g id="edge1" class="edge">
<title>Node1&#45;&gt;Node2</title>
<path fill="none" stroke="midnightblue" d="M184.03,-51.67C192.69,-52.83 201.36,-53.99 209.77,-55.11"/>
<polygon fill="midnightblue" stroke="midnightblue" points="209.51,-58.61 219.88,-56.46 210.43,-51.67 209.51,-58.61"/>
</g>
<!-- Node3 -->
<g id="node3" class="node">
<title>Node3</title>
<g id="a_node3"><a xlink:href="../../dd/d12/classrawspeed_1_1_raw_image.html#a4a01d153bb4518ddfaac18a5d0694154" target="_top" xlink:title=" ">
<polygon fill="none" stroke="black" points="220,-0.5 220,-30.5 342,-30.5 342,-0.5 220,-0.5"/>
<text text-anchor="start" x="228" y="-18.5" font-family="Helvetica,sans-Serif" font-size="10.00">rawspeed::RawImage</text>
<text text-anchor="middle" x="281" y="-7.5" font-family="Helvetica,sans-Serif" font-size="10.00">::RawImage</text>
</a>
</g>
</g>
<!-- Node1&#45;&gt;Node3 -->
<g id="edge2" class="edge">
<title>Node1&#45;&gt;Node3</title>
<path fill="none" stroke="midnightblue" d="M184.03,-27.82C192.69,-26.71 201.36,-25.59 209.77,-24.51"/>
<polygon fill="midnightblue" stroke="midnightblue" points="210.41,-27.96 219.88,-23.22 209.52,-21.02 210.41,-27.96"/>
</g>
</g>
</svg>
