<?xml version="1.0" encoding="UTF-8" standalone="no"?>
<!DOCTYPE svg PUBLIC "-//W3C//DTD SVG 1.1//EN"
 "http://www.w3.org/Graphics/SVG/1.1/DTD/svg11.dtd">
<!-- Generated by graphviz version 2.43.0 (0)
 -->
<!-- Title: rawspeed::AbstractLJpegDecompressor Pages: 1 -->
<svg width="662pt" height="164pt"
 viewBox="0.00 0.00 662.00 164.00" xmlns="http://www.w3.org/2000/svg" xmlns:xlink="http://www.w3.org/1999/xlink">
<g id="graph0" class="graph" transform="scale(1 1) rotate(0) translate(4 160)">
<title>rawspeed::AbstractLJpegDecompressor</title>
<!-- Node1 -->
<g id="node1" class="node">
<title>Node1</title>
<g id="a_node1"><a xlink:title=" ">
<polygon fill="#bfbfbf" stroke="black" points="217,-57.5 217,-76.5 424,-76.5 424,-57.5 217,-57.5"/>
<text text-anchor="middle" x="320.5" y="-64.5" font-family="Helvetica,sans-Serif" font-size="10.00">rawspeed::AbstractLJpegDecompressor</text>
</a>
</g>
</g>
<!-- Node3 -->
<g id="node3" class="node">
<title>Node3</title>
<g id="a_node3"><a xlink:href="../../dc/db5/classanonymous__namespace_02_dummy_l_jpeg_decompressor_8cpp_03_1_1_dummy_l_jpeg_decompressor.html" target="_top" xlink:title=" ">
<polygon fill="none" stroke="black" points="465,-114.5 465,-155.5 649,-155.5 649,-114.5 465,-114.5"/>
<text text-anchor="start" x="473" y="-143.5" font-family="Helvetica,sans-Serif" font-size="10.00">anonymous_namespace</text>
<text text-anchor="start" x="473" y="-132.5" font-family="Helvetica,sans-Serif" font-size="10.00">{DummyLJpegDecompressor.cpp}</text>
<text text-anchor="middle" x="557" y="-121.5" font-family="Helvetica,sans-Serif" font-size="10.00">::DummyLJpegDecompressor</text>
</a>
</g>
</g>
<!-- Node1&#45;&gt;Node3 -->
<g id="edge2" class="edge">
<title>Node1&#45;&gt;Node3</title>
<path fill="none" stroke="midnightblue" d="M364.57,-79.49C398.22,-89.25 445.69,-103.01 484.94,-114.39"/>
<polygon fill="midnightblue" stroke="midnightblue" points="365.18,-76.02 354.6,-76.6 363.23,-82.75 365.18,-76.02"/>
</g>
<!-- Node4 -->
<g id="node4" class="node">
<title>Node4</title>
<g id="a_node4"><a xlink:href="../../d3/d55/classrawspeed_1_1_cr2_decompressor.html" target="_top" xlink:title=" ">
<polygon fill="none" stroke="black" points="478.5,-76.5 478.5,-95.5 635.5,-95.5 635.5,-76.5 478.5,-76.5"/>
<text text-anchor="middle" x="557" y="-83.5" font-family="Helvetica,sans-Serif" font-size="10.00">rawspeed::Cr2Decompressor</text>
</a>
</g>
</g>
<!-- Node1&#45;&gt;Node4 -->
<g id="edge3" class="edge">
<title>Node1&#45;&gt;Node4</title>
<path fill="none" stroke="midnightblue" d="M434.31,-76.14C449.23,-77.35 464.24,-78.57 478.38,-79.71"/>
<polygon fill="midnightblue" stroke="midnightblue" points="434.26,-72.63 424.01,-75.31 433.7,-79.6 434.26,-72.63"/>
</g>
<!-- Node5 -->
<g id="node5" class="node">
<title>Node5</title>
<g id="a_node5"><a xlink:href="../../d3/d6d/classrawspeed_1_1_hasselblad_decompressor.html" target="_top" xlink:title=" ">
<polygon fill="none" stroke="black" points="460,-38.5 460,-57.5 654,-57.5 654,-38.5 460,-38.5"/>
<text text-anchor="middle" x="557" y="-45.5" font-family="Helvetica,sans-Serif" font-size="10.00">rawspeed::HasselbladDecompressor</text>
</a>
</g>
</g>
<!-- Node1&#45;&gt;Node5 -->
<g id="edge4" class="edge">
<title>Node1&#45;&gt;Node5</title>
<path fill="none" stroke="midnightblue" d="M434.14,-57.87C442.79,-57.17 451.47,-56.47 459.99,-55.78"/>
<polygon fill="midnightblue" stroke="midnightblue" points="433.7,-54.4 424.01,-58.69 434.26,-61.37 433.7,-54.4"/>
</g>
<!-- Node6 -->
<g id="node6" class="node">
<title>Node6</title>
<g id="a_node6"><a xlink:href="../../d7/d6d/classrawspeed_1_1_l_jpeg_decompressor.html" target="_top" xlink:title=" ">
<polygon fill="none" stroke="black" points="473.5,-0.5 473.5,-19.5 640.5,-19.5 640.5,-0.5 473.5,-0.5"/>
<text text-anchor="middle" x="557" y="-7.5" font-family="Helvetica,sans-Serif" font-size="10.00">rawspeed::LJpegDecompressor</text>
</a>
</g>
</g>
<!-- Node1&#45;&gt;Node6 -->
<g id="edge5" class="edge">
<title>Node1&#45;&gt;Node6</title>
<path fill="none" stroke="midnightblue" d="M363.43,-54.64C390.79,-46.79 427.36,-36.7 460,-29 474.22,-25.65 489.72,-22.4 504.04,-19.57"/>
<polygon fill="midnightblue" stroke="midnightblue" points="362.43,-51.29 353.79,-57.43 364.37,-58.02 362.43,-51.29"/>
</g>
<!-- Node2 -->
<g id="node2" class="node">
<title>Node2</title>
<g id="a_node2"><a xlink:href="../../d9/d57/classrawspeed_1_1_abstract_decompressor.html" target="_top" xlink:title=" ">
<polygon fill="none" stroke="black" points="0,-57.5 0,-76.5 181,-76.5 181,-57.5 0,-57.5"/>
<text text-anchor="middle" x="90.5" y="-64.5" font-family="Helvetica,sans-Serif" font-size="10.00">rawspeed::AbstractDecompressor</text>
</a>
</g>
</g>
<!-- Node2&#45;&gt;Node1 -->
<g id="edge1" class="edge">
<title>Node2&#45;&gt;Node1</title>
<path fill="none" stroke="midnightblue" d="M191.52,-67C199.96,-67 208.51,-67 216.97,-67"/>
<polygon fill="midnightblue" stroke="midnightblue" points="191.28,-63.5 181.28,-67 191.28,-70.5 191.28,-63.5"/>
</g>
</g>
</svg>
