<?xml version="1.0" encoding="UTF-8" standalone="no"?>
<!DOCTYPE svg PUBLIC "-//W3C//DTD SVG 1.1//EN"
 "http://www.w3.org/Graphics/SVG/1.1/DTD/svg11.dtd">
<!-- Generated by graphviz version 2.43.0 (0)
 -->
<!-- Title: librawspeed/decompressors/PanasonicDecompressorV5.h Pages: 1 -->
<svg width="512pt" height="117pt"
 viewBox="0.00 0.00 512.00 117.00" xmlns="http://www.w3.org/2000/svg" xmlns:xlink="http://www.w3.org/1999/xlink">
<g id="graph0" class="graph" transform="scale(1 1) rotate(0) translate(4 113)">
<title>librawspeed/decompressors/PanasonicDecompressorV5.h</title>
<!-- Node1 -->
<g id="node1" class="node">
<title>Node1</title>
<g id="a_node1"><a xlink:title=" ">
<polygon fill="#bfbfbf" stroke="black" points="171.5,-78.5 171.5,-108.5 332.5,-108.5 332.5,-78.5 171.5,-78.5"/>
<text text-anchor="start" x="179.5" y="-96.5" font-family="Helvetica,sans-Serif" font-size="10.00">librawspeed/decompressors</text>
<text text-anchor="middle" x="252" y="-85.5" font-family="Helvetica,sans-Serif" font-size="10.00">/PanasonicDecompressorV5.h</text>
</a>
</g>
</g>
<!-- Node2 -->
<g id="node2" class="node">
<title>Node2</title>
<g id="a_node2"><a xlink:href="../../df/d7b/fuzz_2librawspeed_2decompressors_2_panasonic_decompressor_v5_8cpp.html" target="_top" xlink:title=" ">
<polygon fill="none" stroke="black" points="0,-0.5 0,-41.5 172,-41.5 172,-0.5 0,-0.5"/>
<text text-anchor="start" x="8" y="-29.5" font-family="Helvetica,sans-Serif" font-size="10.00">/build/rawspeed/fuzz</text>
<text text-anchor="start" x="8" y="-18.5" font-family="Helvetica,sans-Serif" font-size="10.00">/librawspeed/decompressors</text>
<text text-anchor="middle" x="86" y="-7.5" font-family="Helvetica,sans-Serif" font-size="10.00">/PanasonicDecompressorV5.cpp</text>
</a>
</g>
</g>
<!-- Node1&#45;&gt;Node2 -->
<g id="edge1" class="edge">
<title>Node1&#45;&gt;Node2</title>
<path fill="none" stroke="midnightblue" d="M209.38,-74.4C185.7,-64.34 156.23,-51.83 132.02,-41.55"/>
<polygon fill="midnightblue" stroke="midnightblue" points="208.23,-77.72 218.81,-78.4 210.97,-71.27 208.23,-77.72"/>
</g>
<!-- Node3 -->
<g id="node3" class="node">
<title>Node3</title>
<g id="a_node3"><a xlink:href="../../da/daf/_rw2_decoder_8cpp.html" target="_top" xlink:title=" ">
<polygon fill="none" stroke="black" points="190.5,-6 190.5,-36 313.5,-36 313.5,-6 190.5,-6"/>
<text text-anchor="start" x="198.5" y="-24" font-family="Helvetica,sans-Serif" font-size="10.00">librawspeed/decoders</text>
<text text-anchor="middle" x="252" y="-13" font-family="Helvetica,sans-Serif" font-size="10.00">/Rw2Decoder.cpp</text>
</a>
</g>
</g>
<!-- Node1&#45;&gt;Node3 -->
<g id="edge2" class="edge">
<title>Node1&#45;&gt;Node3</title>
<path fill="none" stroke="midnightblue" d="M252,-68.23C252,-57.57 252,-45.41 252,-36.25"/>
<polygon fill="midnightblue" stroke="midnightblue" points="248.5,-68.23 252,-78.23 255.5,-68.23 248.5,-68.23"/>
</g>
<!-- Node4 -->
<g id="node4" class="node">
<title>Node4</title>
<g id="a_node4"><a xlink:href="../../dd/da0/src_2librawspeed_2decompressors_2_panasonic_decompressor_v5_8cpp.html" target="_top" xlink:title=" ">
<polygon fill="none" stroke="black" points="332,-6 332,-36 504,-36 504,-6 332,-6"/>
<text text-anchor="start" x="340" y="-24" font-family="Helvetica,sans-Serif" font-size="10.00">librawspeed/decompressors</text>
<text text-anchor="middle" x="418" y="-13" font-family="Helvetica,sans-Serif" font-size="10.00">/PanasonicDecompressorV5.cpp</text>
</a>
</g>
</g>
<!-- Node1&#45;&gt;Node4 -->
<g id="edge3" class="edge">
<title>Node1&#45;&gt;Node4</title>
<path fill="none" stroke="midnightblue" d="M294.75,-74.34C322.82,-62.42 358.98,-47.07 384.86,-36.07"/>
<polygon fill="midnightblue" stroke="midnightblue" points="293.03,-71.27 285.19,-78.4 295.77,-77.72 293.03,-71.27"/>
</g>
</g>
</svg>
