<?xml version="1.0" encoding="UTF-8" standalone="no"?>
<!DOCTYPE svg PUBLIC "-//W3C//DTD SVG 1.1//EN"
 "http://www.w3.org/Graphics/SVG/1.1/DTD/svg11.dtd">
<!-- Generated by graphviz version 2.43.0 (0)
 -->
<!-- Title: rawspeed::ByteStream Pages: 1 -->
<svg width="932pt" height="67pt"
 viewBox="0.00 0.00 932.00 66.50" xmlns="http://www.w3.org/2000/svg" xmlns:xlink="http://www.w3.org/1999/xlink">
<g id="graph0" class="graph" transform="scale(1 1) rotate(0) translate(4 62.5)">
<title>rawspeed::ByteStream</title>
<!-- Node1 -->
<g id="node1" class="node">
<title>Node1</title>
<g id="a_node1"><a xlink:title=" ">
<polygon fill="#bfbfbf" stroke="black" points="295,-28 295,-47 423,-47 423,-28 295,-28"/>
<text text-anchor="middle" x="359" y="-35" font-family="Helvetica,sans-Serif" font-size="10.00">rawspeed::ByteStream</text>
</a>
</g>
</g>
<!-- Node4 -->
<g id="node4" class="node">
<title>Node4</title>
<g id="a_node4"><a xlink:href="../../d3/ded/classrawspeed_1_1_bit_stream.html" target="_top" xlink:title=" ">
<polygon fill="none" stroke="black" points="763,-17 763,-58 924,-58 924,-17 763,-17"/>
<text text-anchor="start" x="771" y="-46" font-family="Helvetica,sans-Serif" font-size="10.00">rawspeed::BitStream</text>
<text text-anchor="start" x="771" y="-35" font-family="Helvetica,sans-Serif" font-size="10.00">&lt; MSBBitPumpTag, BitStream</text>
<text text-anchor="middle" x="843.5" y="-24" font-family="Helvetica,sans-Serif" font-size="10.00">CacheRightInLeftOut &gt;</text>
</a>
</g>
</g>
<!-- Node1&#45;&gt;Node4 -->
<g id="edge3" class="edge">
<title>Node1&#45;&gt;Node4</title>
<path fill="none" stroke="midnightblue" d="M433.18,-41.7C510.65,-45.53 636.48,-49.94 745,-45.5 750.85,-45.26 756.9,-44.94 762.98,-44.56"/>
<polygon fill="midnightblue" stroke="midnightblue" points="433.21,-38.2 423.04,-41.19 432.86,-45.19 433.21,-38.2"/>
</g>
<!-- Node5 -->
<g id="node5" class="node">
<title>Node5</title>
<g id="a_node5"><a xlink:href="../../d3/ded/classrawspeed_1_1_bit_stream.html" target="_top" xlink:title=" ">
<polygon fill="none" stroke="black" points="460,-0.5 460,-30.5 579,-30.5 579,-0.5 460,-0.5"/>
<text text-anchor="start" x="468" y="-18.5" font-family="Helvetica,sans-Serif" font-size="10.00">rawspeed::BitStream</text>
<text text-anchor="middle" x="519.5" y="-7.5" font-family="Helvetica,sans-Serif" font-size="10.00">&lt; Tag, Cache &gt;</text>
</a>
</g>
</g>
<!-- Node1&#45;&gt;Node5 -->
<g id="edge4" class="edge">
<title>Node1&#45;&gt;Node5</title>
<path fill="none" stroke="midnightblue" d="M433.18,-27.34C442.17,-26.1 451.26,-24.83 459.99,-23.62"/>
<polygon fill="midnightblue" stroke="midnightblue" points="432.52,-23.9 423.1,-28.74 433.49,-30.83 432.52,-23.9"/>
</g>
<!-- Node2 -->
<g id="node2" class="node">
<title>Node2</title>
<g id="a_node2"><a xlink:href="../../d1/dd4/classrawspeed_1_1_data_buffer.html" target="_top" xlink:title=" ">
<polygon fill="none" stroke="black" points="136,-28 136,-47 258,-47 258,-28 136,-28"/>
<text text-anchor="middle" x="197" y="-35" font-family="Helvetica,sans-Serif" font-size="10.00">rawspeed::DataBuffer</text>
</a>
</g>
</g>
<!-- Node2&#45;&gt;Node1 -->
<g id="edge1" class="edge">
<title>Node2&#45;&gt;Node1</title>
<path fill="none" stroke="midnightblue" d="M268.05,-37.5C277,-37.5 286.12,-37.5 294.96,-37.5"/>
<polygon fill="midnightblue" stroke="midnightblue" points="268.03,-34 258.03,-37.5 268.03,-41 268.03,-34"/>
</g>
<!-- Node3 -->
<g id="node3" class="node">
<title>Node3</title>
<g id="a_node3"><a xlink:href="../../d3/dca/classrawspeed_1_1_buffer.html" target="_top" xlink:title=" ">
<polygon fill="none" stroke="black" points="0,-28 0,-47 99,-47 99,-28 0,-28"/>
<text text-anchor="middle" x="49.5" y="-35" font-family="Helvetica,sans-Serif" font-size="10.00">rawspeed::Buffer</text>
</a>
</g>
</g>
<!-- Node3&#45;&gt;Node2 -->
<g id="edge2" class="edge">
<title>Node3&#45;&gt;Node2</title>
<path fill="none" stroke="midnightblue" d="M109.43,-37.5C118.16,-37.5 127.15,-37.5 135.9,-37.5"/>
<polygon fill="midnightblue" stroke="midnightblue" points="109.35,-34 99.35,-37.5 109.35,-41 109.35,-34"/>
</g>
<!-- Node5&#45;&gt;Node4 -->
<g id="edge5" class="edge">
<title>Node5&#45;&gt;Node4</title>
<path fill="none" stroke="orange" stroke-dasharray="5,2" d="M589.34,-16.05C633.83,-16.87 692.92,-18.85 745,-23.5 750.79,-24.02 756.76,-24.64 762.77,-25.34"/>
<polygon fill="orange" stroke="orange" points="589.28,-12.55 579.22,-15.88 589.16,-19.55 589.28,-12.55"/>
<text text-anchor="start" x="597" y="-37.5" font-family="Helvetica,sans-Serif" font-size="10.00"> &lt; MSBBitPumpTag, BitStream</text>
<text text-anchor="middle" x="671" y="-26.5" font-family="Helvetica,sans-Serif" font-size="10.00">CacheRightInLeftOut &gt;</text>
</g>
</g>
</svg>
