<?xml version="1.0" encoding="UTF-8" standalone="no"?>
<!DOCTYPE svg PUBLIC "-//W3C//DTD SVG 1.1//EN"
 "http://www.w3.org/Graphics/SVG/1.1/DTD/svg11.dtd">
<!-- Generated by graphviz version 2.43.0 (0)
 -->
<!-- Title: rawspeed::anonymous_namespace{NikonDecompressor.cpp}::NikonLASDecompressor::HuffmanTable Pages: 1 -->
<svg width="762pt" height="376pt"
 viewBox="0.00 0.00 762.00 376.15" xmlns="http://www.w3.org/2000/svg" xmlns:xlink="http://www.w3.org/1999/xlink">
<g id="graph0" class="graph" transform="scale(1 1) rotate(0) translate(4 372.15)">
<title>rawspeed::anonymous_namespace{NikonDecompressor.cpp}::NikonLASDecompressor::HuffmanTable</title>
<!-- Node1 -->
<g id="node1" class="node">
<title>Node1</title>
<g id="a_node1"><a xlink:title=" ">
<polygon fill="#bfbfbf" stroke="black" points="541,-185.65 541,-226.65 754,-226.65 754,-185.65 541,-185.65"/>
<text text-anchor="start" x="549" y="-214.65" font-family="Helvetica,sans-Serif" font-size="10.00">rawspeed::anonymous</text>
<text text-anchor="start" x="549" y="-203.65" font-family="Helvetica,sans-Serif" font-size="10.00">_namespace{NikonDecompressor.cpp}</text>
<text text-anchor="middle" x="647.5" y="-192.65" font-family="Helvetica,sans-Serif" font-size="10.00">::NikonLASDecompressor::HuffmanTable</text>
</a>
</g>
</g>
<!-- Node2 -->
<g id="node2" class="node">
<title>Node2</title>
<g id="a_node2"><a xlink:title=" ">
<polygon fill="none" stroke="#bfbfbf" points="342.5,-279.15 342.5,-309.15 447.5,-309.15 447.5,-279.15 342.5,-279.15"/>
<text text-anchor="start" x="350.5" y="-297.15" font-family="Helvetica,sans-Serif" font-size="10.00">std::array&lt; uint32</text>
<text text-anchor="middle" x="395" y="-286.15" font-family="Helvetica,sans-Serif" font-size="10.00">_t, 256 &gt;</text>
</a>
</g>
</g>
<!-- Node2&#45;&gt;Node1 -->
<g id="edge1" class="edge">
<title>Node2&#45;&gt;Node1</title>
<path fill="none" stroke="#9a32cd" stroke-dasharray="5,2" d="M449.29,-275.81C472.02,-267.95 498.82,-258.65 523,-250.15 544.58,-242.57 568.25,-234.16 589.04,-226.74"/>
<polygon fill="#9a32cd" stroke="#9a32cd" points="448.13,-272.5 439.82,-279.08 450.42,-279.12 448.13,-272.5"/>
<text text-anchor="middle" x="497" y="-281.15" font-family="Helvetica,sans-Serif" font-size="10.00"> huffval</text>
<text text-anchor="middle" x="497" y="-270.15" font-family="Helvetica,sans-Serif" font-size="10.00">numbits</text>
</g>
<!-- Node3 -->
<g id="node3" class="node">
<title>Node3</title>
<g id="a_node3"><a xlink:href="../../d3/d87/classuint32__t.html" target="_top" xlink:title=" ">
<polygon fill="none" stroke="black" points="134.5,-333.65 134.5,-352.65 190.5,-352.65 190.5,-333.65 134.5,-333.65"/>
<text text-anchor="middle" x="162.5" y="-340.65" font-family="Helvetica,sans-Serif" font-size="10.00">uint32_t</text>
</a>
</g>
</g>
<!-- Node3&#45;&gt;Node2 -->
<g id="edge2" class="edge">
<title>Node3&#45;&gt;Node2</title>
<path fill="none" stroke="#9a32cd" stroke-dasharray="5,2" d="M187.39,-328.43C199.43,-321.71 214.52,-314.34 229,-310.15 265.91,-299.47 309.19,-295.58 342.17,-294.3"/>
<polygon fill="#9a32cd" stroke="#9a32cd" points="185.36,-325.56 178.45,-333.6 188.86,-331.62 185.36,-325.56"/>
<text text-anchor="middle" x="274" y="-313.15" font-family="Helvetica,sans-Serif" font-size="10.00"> elements</text>
</g>
<!-- Node15 -->
<g id="node15" class="node">
<title>Node15</title>
<g id="a_node15"><a xlink:title=" ">
<polygon fill="none" stroke="#bfbfbf" points="342.5,-328.15 342.5,-358.15 447.5,-358.15 447.5,-328.15 342.5,-328.15"/>
<text text-anchor="start" x="350.5" y="-346.15" font-family="Helvetica,sans-Serif" font-size="10.00">std::array&lt; uint32</text>
<text text-anchor="middle" x="395" y="-335.15" font-family="Helvetica,sans-Serif" font-size="10.00">_t, 17 &gt;</text>
</a>
</g>
</g>
<!-- Node3&#45;&gt;Node15 -->
<g id="edge20" class="edge">
<title>Node3&#45;&gt;Node15</title>
<path fill="none" stroke="#9a32cd" stroke-dasharray="5,2" d="M200.77,-351.19C209.96,-352.83 219.8,-354.32 229,-355.15 268.84,-358.77 279.13,-358.32 319,-355.15 326.62,-354.55 334.64,-353.6 342.49,-352.5"/>
<polygon fill="#9a32cd" stroke="#9a32cd" points="201.23,-347.71 190.75,-349.29 199.93,-354.59 201.23,-347.71"/>
<text text-anchor="middle" x="274" y="-360.15" font-family="Helvetica,sans-Serif" font-size="10.00"> elements</text>
</g>
<!-- Node4 -->
<g id="node4" class="node">
<title>Node4</title>
<g id="a_node4"><a xlink:title="STL class.">
<polygon fill="none" stroke="#bfbfbf" points="116.5,-233.65 116.5,-252.65 208.5,-252.65 208.5,-233.65 116.5,-233.65"/>
<text text-anchor="middle" x="162.5" y="-240.65" font-family="Helvetica,sans-Serif" font-size="10.00">std::array&lt; T &gt;</text>
</a>
</g>
</g>
<!-- Node4&#45;&gt;Node2 -->
<g id="edge3" class="edge">
<title>Node4&#45;&gt;Node2</title>
<path fill="none" stroke="orange" stroke-dasharray="5,2" d="M216.39,-254.86C254.17,-263.21 304.74,-274.4 342.26,-282.71"/>
<polygon fill="orange" stroke="orange" points="217.1,-251.43 206.58,-252.69 215.59,-258.26 217.1,-251.43"/>
<text text-anchor="middle" x="274" y="-279.15" font-family="Helvetica,sans-Serif" font-size="10.00"> &lt; uint32_t, 256 &gt;</text>
</g>
<!-- Node6 -->
<g id="node6" class="node">
<title>Node6</title>
<g id="a_node6"><a xlink:title=" ">
<polygon fill="none" stroke="#bfbfbf" points="337,-152.65 337,-171.65 453,-171.65 453,-152.65 337,-152.65"/>
<text text-anchor="middle" x="395" y="-159.65" font-family="Helvetica,sans-Serif" font-size="10.00">std::array&lt; int, 18 &gt;</text>
</a>
</g>
</g>
<!-- Node4&#45;&gt;Node6 -->
<g id="edge7" class="edge">
<title>Node4&#45;&gt;Node6</title>
<path fill="none" stroke="orange" stroke-dasharray="5,2" d="M205.47,-228.44C207.42,-227.12 209.28,-225.7 211,-224.15 223.72,-212.72 215.14,-200.17 229,-190.15 259.96,-167.77 302.65,-160.99 336.85,-159.7"/>
<polygon fill="orange" stroke="orange" points="203.43,-225.57 196.44,-233.54 206.87,-231.67 203.43,-225.57"/>
<text text-anchor="middle" x="274" y="-193.15" font-family="Helvetica,sans-Serif" font-size="10.00"> &lt; int, 18 &gt;</text>
</g>
<!-- Node11 -->
<g id="node11" class="node">
<title>Node11</title>
<g id="a_node11"><a xlink:title=" ">
<polygon fill="none" stroke="#bfbfbf" points="342.5,-90.15 342.5,-120.15 447.5,-120.15 447.5,-90.15 342.5,-90.15"/>
<text text-anchor="start" x="350.5" y="-108.15" font-family="Helvetica,sans-Serif" font-size="10.00">std::array&lt; uint16</text>
<text text-anchor="middle" x="395" y="-97.15" font-family="Helvetica,sans-Serif" font-size="10.00">_t, 17 &gt;</text>
</a>
</g>
</g>
<!-- Node4&#45;&gt;Node11 -->
<g id="edge15" class="edge">
<title>Node4&#45;&gt;Node11</title>
<path fill="none" stroke="orange" stroke-dasharray="5,2" d="M207.83,-227.57C208.97,-226.5 210.03,-225.37 211,-224.15 242.25,-185.15 191.73,-146.45 229,-113.15 259.15,-86.21 306.15,-86.52 342.28,-92.24"/>
<polygon fill="orange" stroke="orange" points="205.54,-224.9 199.48,-233.59 209.64,-230.58 205.54,-224.9"/>
<text text-anchor="middle" x="274" y="-116.15" font-family="Helvetica,sans-Serif" font-size="10.00"> &lt; uint16_t, 17 &gt;</text>
</g>
<!-- Node13 -->
<g id="node13" class="node">
<title>Node13</title>
<g id="a_node13"><a xlink:title=" ">
<polygon fill="none" stroke="#bfbfbf" points="339.5,-191.15 339.5,-221.15 450.5,-221.15 450.5,-191.15 339.5,-191.15"/>
<text text-anchor="start" x="347.5" y="-209.15" font-family="Helvetica,sans-Serif" font-size="10.00">std::array&lt; int16_t,</text>
<text text-anchor="middle" x="395" y="-198.15" font-family="Helvetica,sans-Serif" font-size="10.00"> 17 &gt;</text>
</a>
</g>
</g>
<!-- Node4&#45;&gt;Node13 -->
<g id="edge18" class="edge">
<title>Node4&#45;&gt;Node13</title>
<path fill="none" stroke="orange" stroke-dasharray="5,2" d="M218.96,-234.85C248.65,-230.34 285.84,-224.59 319,-219.15 325.52,-218.09 332.36,-216.94 339.13,-215.78"/>
<polygon fill="orange" stroke="orange" points="218.15,-231.43 208.78,-236.39 219.2,-238.35 218.15,-231.43"/>
<text text-anchor="middle" x="274" y="-235.15" font-family="Helvetica,sans-Serif" font-size="10.00"> &lt; int16_t, 17 &gt;</text>
</g>
<!-- Node4&#45;&gt;Node15 -->
<g id="edge21" class="edge">
<title>Node4&#45;&gt;Node15</title>
<path fill="none" stroke="orange" stroke-dasharray="5,2" d="M173.55,-261.72C184.56,-280.11 204.04,-307.44 229,-321.15 248,-331.59 301.38,-337.35 342.33,-340.33"/>
<polygon fill="orange" stroke="orange" points="176.45,-259.75 168.44,-252.81 170.37,-263.23 176.45,-259.75"/>
<text text-anchor="middle" x="274" y="-340.15" font-family="Helvetica,sans-Serif" font-size="10.00"> &lt; uint32_t, 17 &gt;</text>
</g>
<!-- Node5 -->
<g id="node5" class="node">
<title>Node5</title>
<g id="a_node5"><a xlink:title=" ">
<polygon fill="none" stroke="#bfbfbf" points="0,-112.65 0,-131.65 29,-131.65 29,-112.65 0,-112.65"/>
<text text-anchor="middle" x="14.5" y="-119.65" font-family="Helvetica,sans-Serif" font-size="10.00">T</text>
</a>
</g>
</g>
<!-- Node5&#45;&gt;Node4 -->
<g id="edge4" class="edge">
<title>Node5&#45;&gt;Node4</title>
<path fill="none" stroke="#9a32cd" stroke-dasharray="5,2" d="M28.69,-139.86C46.08,-162.16 78.65,-200.4 114,-224.15 119.46,-227.82 125.73,-230.95 131.88,-233.56"/>
<polygon fill="#9a32cd" stroke="#9a32cd" points="31.45,-137.72 22.6,-131.9 25.9,-141.97 31.45,-137.72"/>
<text text-anchor="middle" x="71.5" y="-213.15" font-family="Helvetica,sans-Serif" font-size="10.00"> elements</text>
</g>
<!-- Node10 -->
<g id="node10" class="node">
<title>Node10</title>
<g id="a_node10"><a xlink:title="STL class.">
<polygon fill="none" stroke="#bfbfbf" points="114,-8.65 114,-27.65 211,-27.65 211,-8.65 114,-8.65"/>
<text text-anchor="middle" x="162.5" y="-15.65" font-family="Helvetica,sans-Serif" font-size="10.00">std::vector&lt; T &gt;</text>
</a>
</g>
</g>
<!-- Node5&#45;&gt;Node10 -->
<g id="edge12" class="edge">
<title>Node5&#45;&gt;Node10</title>
<path fill="none" stroke="#9a32cd" stroke-dasharray="5,2" d="M37.28,-106.64C67.91,-84.82 122.77,-45.74 148.06,-27.73"/>
<polygon fill="#9a32cd" stroke="#9a32cd" points="35.09,-103.9 28.97,-112.56 39.15,-109.61 35.09,-103.9"/>
<text text-anchor="middle" x="71.5" y="-103.15" font-family="Helvetica,sans-Serif" font-size="10.00"> elements</text>
</g>
<!-- Node6&#45;&gt;Node1 -->
<g id="edge5" class="edge">
<title>Node6&#45;&gt;Node1</title>
<path fill="none" stroke="#9a32cd" stroke-dasharray="5,2" d="M460.26,-173.44C484.84,-177.76 513.57,-182.8 541,-187.62"/>
<polygon fill="#9a32cd" stroke="#9a32cd" points="460.81,-169.98 450.35,-171.7 459.6,-176.88 460.81,-169.98"/>
<text text-anchor="middle" x="497" y="-187.15" font-family="Helvetica,sans-Serif" font-size="10.00"> maxcode</text>
</g>
<!-- Node7 -->
<g id="node7" class="node">
<title>Node7</title>
<g id="a_node7"><a xlink:title=" ">
<polygon fill="none" stroke="#bfbfbf" points="148,-114.65 148,-133.65 177,-133.65 177,-114.65 148,-114.65"/>
<text text-anchor="middle" x="162.5" y="-121.65" font-family="Helvetica,sans-Serif" font-size="10.00">int</text>
</a>
</g>
</g>
<!-- Node7&#45;&gt;Node6 -->
<g id="edge6" class="edge">
<title>Node7&#45;&gt;Node6</title>
<path fill="none" stroke="#9a32cd" stroke-dasharray="5,2" d="M187.53,-125.26C218.25,-126.99 272.99,-131.12 319,-140.15 334.71,-143.24 351.87,-148.16 365.81,-152.56"/>
<polygon fill="#9a32cd" stroke="#9a32cd" points="187.52,-121.76 177.35,-124.73 187.16,-128.75 187.52,-121.76"/>
<text text-anchor="middle" x="274" y="-143.15" font-family="Helvetica,sans-Serif" font-size="10.00"> elements</text>
</g>
<!-- Node9 -->
<g id="node9" class="node">
<title>Node9</title>
<g id="a_node9"><a xlink:title=" ">
<polygon fill="none" stroke="#bfbfbf" points="343,-27.65 343,-46.65 447,-46.65 447,-27.65 343,-27.65"/>
<text text-anchor="middle" x="395" y="-34.65" font-family="Helvetica,sans-Serif" font-size="10.00">std::vector&lt; int &gt;</text>
</a>
</g>
</g>
<!-- Node7&#45;&gt;Node9 -->
<g id="edge10" class="edge">
<title>Node7&#45;&gt;Node9</title>
<path fill="none" stroke="#9a32cd" stroke-dasharray="5,2" d="M185.69,-111.72C194.41,-106.01 204,-98.62 211,-90.15 223.17,-75.44 213.37,-62.11 229,-51.15 261.84,-28.13 307.88,-26.04 342.99,-28.91"/>
<polygon fill="#9a32cd" stroke="#9a32cd" points="183.73,-108.82 177.05,-117.04 187.4,-114.78 183.73,-108.82"/>
<text text-anchor="middle" x="274" y="-54.15" font-family="Helvetica,sans-Serif" font-size="10.00"> elements</text>
</g>
<!-- Node8 -->
<g id="node8" class="node">
<title>Node8</title>
<g id="a_node8"><a xlink:title=" ">
<polygon fill="none" stroke="#bfbfbf" points="376,-240.65 376,-259.65 414,-259.65 414,-240.65 376,-240.65"/>
<text text-anchor="middle" x="395" y="-247.65" font-family="Helvetica,sans-Serif" font-size="10.00">bool</text>
</a>
</g>
</g>
<!-- Node8&#45;&gt;Node1 -->
<g id="edge8" class="edge">
<title>Node8&#45;&gt;Node1</title>
<path fill="none" stroke="#9a32cd" stroke-dasharray="5,2" d="M424.02,-245.23C452.47,-240.24 498.28,-232.19 540.96,-224.69"/>
<polygon fill="#9a32cd" stroke="#9a32cd" points="423.26,-241.81 414.02,-246.99 424.47,-248.71 423.26,-241.81"/>
<text text-anchor="middle" x="497" y="-238.15" font-family="Helvetica,sans-Serif" font-size="10.00"> initialized</text>
</g>
<!-- Node9&#45;&gt;Node1 -->
<g id="edge9" class="edge">
<title>Node9&#45;&gt;Node1</title>
<path fill="none" stroke="#9a32cd" stroke-dasharray="5,2" d="M419.09,-52.53C444.56,-69.52 486.76,-97.7 523,-122.15 554.92,-143.69 591.36,-168.51 616.34,-185.55"/>
<polygon fill="#9a32cd" stroke="#9a32cd" points="420.76,-49.44 410.5,-46.81 416.88,-55.27 420.76,-49.44"/>
<text text-anchor="middle" x="497" y="-125.15" font-family="Helvetica,sans-Serif" font-size="10.00"> bigTable</text>
</g>
<!-- Node10&#45;&gt;Node9 -->
<g id="edge11" class="edge">
<title>Node10&#45;&gt;Node9</title>
<path fill="none" stroke="orange" stroke-dasharray="5,2" d="M211.04,-6.65C242.05,-0.91 283.25,3.36 319,-4.15 340.3,-8.63 362.93,-19.55 377.69,-27.6"/>
<polygon fill="orange" stroke="orange" points="210.07,-3.27 200.94,-8.64 211.42,-10.14 210.07,-3.27"/>
<text text-anchor="middle" x="274" y="-7.15" font-family="Helvetica,sans-Serif" font-size="10.00"> &lt; int &gt;</text>
</g>
<!-- Node11&#45;&gt;Node1 -->
<g id="edge13" class="edge">
<title>Node11&#45;&gt;Node1</title>
<path fill="none" stroke="#9a32cd" stroke-dasharray="5,2" d="M442.72,-123.99C486.19,-141.52 550.83,-167.58 595.6,-185.63"/>
<polygon fill="#9a32cd" stroke="#9a32cd" points="443.82,-120.66 433.23,-120.17 441.2,-127.15 443.82,-120.66"/>
<text text-anchor="middle" x="497" y="-158.15" font-family="Helvetica,sans-Serif" font-size="10.00"> mincode</text>
</g>
<!-- Node12 -->
<g id="node12" class="node">
<title>Node12</title>
<g id="a_node12"><a xlink:href="../../d5/df4/classuint16__t.html" target="_top" xlink:title=" ">
<polygon fill="none" stroke="black" points="134.5,-61.65 134.5,-80.65 190.5,-80.65 190.5,-61.65 134.5,-61.65"/>
<text text-anchor="middle" x="162.5" y="-68.65" font-family="Helvetica,sans-Serif" font-size="10.00">uint16_t</text>
</a>
</g>
</g>
<!-- Node12&#45;&gt;Node11 -->
<g id="edge14" class="edge">
<title>Node12&#45;&gt;Node11</title>
<path fill="none" stroke="#9a32cd" stroke-dasharray="5,2" d="M200.72,-67.2C232.51,-64.81 279.27,-63.67 319,-72.15 335.69,-75.72 353.22,-83.19 367.12,-90.13"/>
<polygon fill="#9a32cd" stroke="#9a32cd" points="200.22,-63.73 190.55,-68.04 200.8,-70.7 200.22,-63.73"/>
<text text-anchor="middle" x="274" y="-75.15" font-family="Helvetica,sans-Serif" font-size="10.00"> elements</text>
</g>
<!-- Node13&#45;&gt;Node1 -->
<g id="edge16" class="edge">
<title>Node13&#45;&gt;Node1</title>
<path fill="none" stroke="#9a32cd" stroke-dasharray="5,2" d="M460.87,-206.15C485.31,-206.15 513.78,-206.15 540.97,-206.15"/>
<polygon fill="#9a32cd" stroke="#9a32cd" points="460.66,-202.65 450.66,-206.15 460.66,-209.65 460.66,-202.65"/>
<text text-anchor="middle" x="497" y="-209.15" font-family="Helvetica,sans-Serif" font-size="10.00"> valptr</text>
</g>
<!-- Node14 -->
<g id="node14" class="node">
<title>Node14</title>
<g id="a_node14"><a xlink:href="../../d2/d54/classint16__t.html" target="_top" xlink:title=" ">
<polygon fill="none" stroke="black" points="137.5,-195.65 137.5,-214.65 187.5,-214.65 187.5,-195.65 137.5,-195.65"/>
<text text-anchor="middle" x="162.5" y="-202.65" font-family="Helvetica,sans-Serif" font-size="10.00">int16_t</text>
</a>
</g>
</g>
<!-- Node14&#45;&gt;Node13 -->
<g id="edge17" class="edge">
<title>Node14&#45;&gt;Node13</title>
<path fill="none" stroke="#9a32cd" stroke-dasharray="5,2" d="M198.1,-205.3C235.46,-205.47 295.5,-205.73 339.28,-205.92"/>
<polygon fill="#9a32cd" stroke="#9a32cd" points="197.75,-201.8 187.73,-205.26 197.72,-208.8 197.75,-201.8"/>
<text text-anchor="middle" x="274" y="-208.15" font-family="Helvetica,sans-Serif" font-size="10.00"> elements</text>
</g>
<!-- Node15&#45;&gt;Node1 -->
<g id="edge19" class="edge">
<title>Node15&#45;&gt;Node1</title>
<path fill="none" stroke="#9a32cd" stroke-dasharray="5,2" d="M451.36,-324.63C474.11,-316.19 500.37,-305.35 523,-293.15 559.01,-273.74 597,-245.68 621.17,-226.72"/>
<polygon fill="#9a32cd" stroke="#9a32cd" points="450.04,-321.39 441.85,-328.1 452.44,-327.97 450.04,-321.39"/>
<text text-anchor="middle" x="497" y="-319.15" font-family="Helvetica,sans-Serif" font-size="10.00"> bits</text>
</g>
</g>
</svg>
