<?xml version="1.0" encoding="UTF-8" standalone="no"?>
<!DOCTYPE svg PUBLIC "-//W3C//DTD SVG 1.1//EN"
 "http://www.w3.org/Graphics/SVG/1.1/DTD/svg11.dtd">
<!-- Generated by graphviz version 2.43.0 (0)
 -->
<!-- Title: librawspeed/common/DefaultInitAllocatorAdaptor.h Pages: 1 -->
<svg width="550pt" height="195pt"
 viewBox="0.00 0.00 549.50 195.00" xmlns="http://www.w3.org/2000/svg" xmlns:xlink="http://www.w3.org/1999/xlink">
<g id="graph0" class="graph" transform="scale(1 1) rotate(0) translate(4 191)">
<title>librawspeed/common/DefaultInitAllocatorAdaptor.h</title>
<!-- Node1 -->
<g id="node1" class="node">
<title>Node1</title>
<g id="a_node1"><a xlink:title=" ">
<polygon fill="#bfbfbf" stroke="black" points="109.5,-156.5 109.5,-186.5 270.5,-186.5 270.5,-156.5 109.5,-156.5"/>
<text text-anchor="start" x="117.5" y="-174.5" font-family="Helvetica,sans-Serif" font-size="10.00">librawspeed/common</text>
<text text-anchor="middle" x="190" y="-163.5" font-family="Helvetica,sans-Serif" font-size="10.00">/DefaultInitAllocatorAdaptor.h</text>
</a>
</g>
</g>
<!-- Node2 -->
<g id="node2" class="node">
<title>Node2</title>
<g id="a_node2"><a xlink:href="../../d1/d04/_default_init_allocator_adaptor_benchmark_8cpp.html" target="_top" xlink:title=" ">
<polygon fill="none" stroke="black" points="0,-78.5 0,-119.5 190,-119.5 190,-78.5 0,-78.5"/>
<text text-anchor="start" x="8" y="-107.5" font-family="Helvetica,sans-Serif" font-size="10.00">/build/rawspeed/bench</text>
<text text-anchor="start" x="8" y="-96.5" font-family="Helvetica,sans-Serif" font-size="10.00">/librawspeed/common/Default</text>
<text text-anchor="middle" x="95" y="-85.5" font-family="Helvetica,sans-Serif" font-size="10.00">InitAllocatorAdaptorBenchmark.cpp</text>
</a>
</g>
</g>
<!-- Node1&#45;&gt;Node2 -->
<g id="edge1" class="edge">
<title>Node1&#45;&gt;Node2</title>
<path fill="none" stroke="midnightblue" d="M162.66,-150.21C149.68,-140.58 134.25,-129.12 121.4,-119.59"/>
<polygon fill="midnightblue" stroke="midnightblue" points="160.66,-153.08 170.78,-156.23 164.83,-147.46 160.66,-153.08"/>
</g>
<!-- Node3 -->
<g id="node3" class="node">
<title>Node3</title>
<g id="a_node3"><a xlink:href="../../d1/d9c/_v_c5_decompressor_8h.html" target="_top" xlink:title=" ">
<polygon fill="none" stroke="black" points="208.5,-84 208.5,-114 361.5,-114 361.5,-84 208.5,-84"/>
<text text-anchor="start" x="216.5" y="-102" font-family="Helvetica,sans-Serif" font-size="10.00">librawspeed/decompressors</text>
<text text-anchor="middle" x="285" y="-91" font-family="Helvetica,sans-Serif" font-size="10.00">/VC5Decompressor.h</text>
</a>
</g>
</g>
<!-- Node1&#45;&gt;Node3 -->
<g id="edge2" class="edge">
<title>Node1&#45;&gt;Node3</title>
<path fill="none" stroke="midnightblue" d="M217.48,-150.11C233.08,-138.53 252.22,-124.33 266.13,-114"/>
<polygon fill="midnightblue" stroke="midnightblue" points="215.17,-147.46 209.22,-156.23 219.34,-153.08 215.17,-147.46"/>
</g>
<!-- Node4 -->
<g id="node4" class="node">
<title>Node4</title>
<g id="a_node4"><a xlink:href="../../d7/dda/fuzz_2librawspeed_2decompressors_2_v_c5_decompressor_8cpp.html" target="_top" xlink:title=" ">
<polygon fill="none" stroke="black" points="26,-0.5 26,-41.5 182,-41.5 182,-0.5 26,-0.5"/>
<text text-anchor="start" x="34" y="-29.5" font-family="Helvetica,sans-Serif" font-size="10.00">/build/rawspeed/fuzz</text>
<text text-anchor="start" x="34" y="-18.5" font-family="Helvetica,sans-Serif" font-size="10.00">/librawspeed/decompressors</text>
<text text-anchor="middle" x="104" y="-7.5" font-family="Helvetica,sans-Serif" font-size="10.00">/VC5Decompressor.cpp</text>
</a>
</g>
</g>
<!-- Node3&#45;&gt;Node4 -->
<g id="edge3" class="edge">
<title>Node3&#45;&gt;Node4</title>
<path fill="none" stroke="midnightblue" d="M242.03,-79.96C214.55,-68.42 178.92,-53.46 150.75,-41.63"/>
<polygon fill="midnightblue" stroke="midnightblue" points="240.8,-83.24 251.38,-83.88 243.51,-76.78 240.8,-83.24"/>
</g>
<!-- Node5 -->
<g id="node5" class="node">
<title>Node5</title>
<g id="a_node5"><a xlink:href="../../d4/dd6/_abstract_dng_decompressor_8cpp.html" target="_top" xlink:title=" ">
<polygon fill="none" stroke="black" points="200,-6 200,-36 370,-36 370,-6 200,-6"/>
<text text-anchor="start" x="208" y="-24" font-family="Helvetica,sans-Serif" font-size="10.00">librawspeed/decompressors</text>
<text text-anchor="middle" x="285" y="-13" font-family="Helvetica,sans-Serif" font-size="10.00">/AbstractDngDecompressor.cpp</text>
</a>
</g>
</g>
<!-- Node3&#45;&gt;Node5 -->
<g id="edge4" class="edge">
<title>Node3&#45;&gt;Node5</title>
<path fill="none" stroke="midnightblue" d="M285,-73.59C285,-61.26 285,-46.72 285,-36.23"/>
<polygon fill="midnightblue" stroke="midnightblue" points="281.5,-73.7 285,-83.7 288.5,-73.71 281.5,-73.7"/>
</g>
<!-- Node6 -->
<g id="node6" class="node">
<title>Node6</title>
<g id="a_node6"><a xlink:href="../../d4/dce/src_2librawspeed_2decompressors_2_v_c5_decompressor_8cpp.html" target="_top" xlink:title=" ">
<polygon fill="none" stroke="black" points="388.5,-6 388.5,-36 541.5,-36 541.5,-6 388.5,-6"/>
<text text-anchor="start" x="396.5" y="-24" font-family="Helvetica,sans-Serif" font-size="10.00">librawspeed/decompressors</text>
<text text-anchor="middle" x="465" y="-13" font-family="Helvetica,sans-Serif" font-size="10.00">/VC5Decompressor.cpp</text>
</a>
</g>
</g>
<!-- Node3&#45;&gt;Node6 -->
<g id="edge5" class="edge">
<title>Node3&#45;&gt;Node6</title>
<path fill="none" stroke="midnightblue" d="M327.93,-79.87C359.75,-66.44 402.5,-48.39 431.74,-36.04"/>
<polygon fill="midnightblue" stroke="midnightblue" points="326.29,-76.77 318.43,-83.88 329.01,-83.22 326.29,-76.77"/>
</g>
</g>
</svg>
