<?xml version="1.0" encoding="UTF-8" standalone="no"?>
<!DOCTYPE svg PUBLIC "-//W3C//DTD SVG 1.1//EN"
 "http://www.w3.org/Graphics/SVG/1.1/DTD/svg11.dtd">
<!-- Generated by graphviz version 2.43.0 (0)
 -->
<!-- Title: librawspeed/common/ErrorLog.cpp Pages: 1 -->
<svg width="296pt" height="207pt"
 viewBox="0.00 0.00 296.00 207.00" xmlns="http://www.w3.org/2000/svg" xmlns:xlink="http://www.w3.org/1999/xlink">
<g id="graph0" class="graph" transform="scale(1 1) rotate(0) translate(4 203)">
<title>librawspeed/common/ErrorLog.cpp</title>
<!-- Node1 -->
<g id="node1" class="node">
<title>Node1</title>
<g id="a_node1"><a xlink:title=" ">
<polygon fill="#bfbfbf" stroke="black" points="81,-168.5 81,-198.5 203,-198.5 203,-168.5 81,-168.5"/>
<text text-anchor="start" x="89" y="-186.5" font-family="Helvetica,sans-Serif" font-size="10.00">librawspeed/common</text>
<text text-anchor="middle" x="142" y="-175.5" font-family="Helvetica,sans-Serif" font-size="10.00">/ErrorLog.cpp</text>
</a>
</g>
</g>
<!-- Node2 -->
<g id="node2" class="node">
<title>Node2</title>
<g id="a_node2"><a xlink:href="../../d7/d4f/_error_log_8h.html" target="_top" xlink:title=" ">
<polygon fill="none" stroke="black" points="109,-112.5 109,-131.5 175,-131.5 175,-112.5 109,-112.5"/>
<text text-anchor="middle" x="142" y="-119.5" font-family="Helvetica,sans-Serif" font-size="10.00">ErrorLog.h</text>
</a>
</g>
</g>
<!-- Node1&#45;&gt;Node2 -->
<g id="edge1" class="edge">
<title>Node1&#45;&gt;Node2</title>
<path fill="none" stroke="midnightblue" d="M142,-168.4C142,-160.47 142,-150.46 142,-141.86"/>
<polygon fill="midnightblue" stroke="midnightblue" points="145.5,-141.66 142,-131.66 138.5,-141.66 145.5,-141.66"/>
</g>
<!-- Node4 -->
<g id="node4" class="node">
<title>Node4</title>
<g id="a_node4"><a xlink:href="../../da/d78/_mutex_8h.html" target="_top" xlink:title=" ">
<polygon fill="none" stroke="black" points="0.5,-56.5 0.5,-75.5 101.5,-75.5 101.5,-56.5 0.5,-56.5"/>
<text text-anchor="middle" x="51" y="-63.5" font-family="Helvetica,sans-Serif" font-size="10.00">common/Mutex.h</text>
</a>
</g>
</g>
<!-- Node1&#45;&gt;Node4 -->
<g id="edge8" class="edge">
<title>Node1&#45;&gt;Node4</title>
<path fill="none" stroke="midnightblue" d="M130.05,-168.5C121.54,-158.44 109.91,-144.51 100,-132 87.17,-115.8 73.01,-96.89 63.22,-83.66"/>
<polygon fill="midnightblue" stroke="midnightblue" points="65.96,-81.49 57.22,-75.51 60.33,-85.64 65.96,-81.49"/>
</g>
<!-- Node8 -->
<g id="node8" class="node">
<title>Node8</title>
<g id="a_node8"><a xlink:title=" ">
<polygon fill="none" stroke="#bfbfbf" points="193.5,-112.5 193.5,-131.5 238.5,-131.5 238.5,-112.5 193.5,-112.5"/>
<text text-anchor="middle" x="216" y="-119.5" font-family="Helvetica,sans-Serif" font-size="10.00">utility</text>
</a>
</g>
</g>
<!-- Node1&#45;&gt;Node8 -->
<g id="edge9" class="edge">
<title>Node1&#45;&gt;Node8</title>
<path fill="none" stroke="midnightblue" d="M159.54,-168.4C170.84,-159.31 185.54,-147.49 197.11,-138.19"/>
<polygon fill="midnightblue" stroke="midnightblue" points="199.63,-140.65 205.23,-131.66 195.25,-135.2 199.63,-140.65"/>
</g>
<!-- Node3 -->
<g id="node3" class="node">
<title>Node3</title>
<g id="a_node3"><a xlink:href="../../db/d8a/_thread_safety_analysis_8h.html" target="_top" xlink:title=" ">
<polygon fill="none" stroke="black" points="156,-0.5 156,-19.5 288,-19.5 288,-0.5 156,-0.5"/>
<text text-anchor="middle" x="222" y="-7.5" font-family="Helvetica,sans-Serif" font-size="10.00">ThreadSafetyAnalysis.h</text>
</a>
</g>
</g>
<!-- Node2&#45;&gt;Node3 -->
<g id="edge2" class="edge">
<title>Node2&#45;&gt;Node3</title>
<path fill="none" stroke="midnightblue" d="M168.36,-112.38C194.21,-103.33 230.91,-88.67 239,-76 248.28,-61.46 241.17,-42.03 233.5,-28.21"/>
<polygon fill="midnightblue" stroke="midnightblue" points="236.49,-26.39 228.3,-19.67 230.51,-30.03 236.49,-26.39"/>
</g>
<!-- Node2&#45;&gt;Node4 -->
<g id="edge3" class="edge">
<title>Node2&#45;&gt;Node4</title>
<path fill="none" stroke="midnightblue" d="M127.38,-112.32C113.05,-103.82 90.99,-90.73 74.25,-80.8"/>
<polygon fill="midnightblue" stroke="midnightblue" points="75.97,-77.75 65.58,-75.65 72.4,-83.77 75.97,-77.75"/>
</g>
<!-- Node6 -->
<g id="node6" class="node">
<title>Node6</title>
<g id="a_node6"><a xlink:title=" ">
<polygon fill="none" stroke="#bfbfbf" points="120,-56.5 120,-75.5 164,-75.5 164,-56.5 120,-56.5"/>
<text text-anchor="middle" x="142" y="-63.5" font-family="Helvetica,sans-Serif" font-size="10.00">string</text>
</a>
</g>
</g>
<!-- Node2&#45;&gt;Node6 -->
<g id="edge6" class="edge">
<title>Node2&#45;&gt;Node6</title>
<path fill="none" stroke="midnightblue" d="M142,-112.08C142,-105.01 142,-94.86 142,-85.99"/>
<polygon fill="midnightblue" stroke="midnightblue" points="145.5,-85.75 142,-75.75 138.5,-85.75 145.5,-85.75"/>
</g>
<!-- Node7 -->
<g id="node7" class="node">
<title>Node7</title>
<g id="a_node7"><a xlink:title=" ">
<polygon fill="none" stroke="#bfbfbf" points="182.5,-56.5 182.5,-75.5 229.5,-75.5 229.5,-56.5 182.5,-56.5"/>
<text text-anchor="middle" x="206" y="-63.5" font-family="Helvetica,sans-Serif" font-size="10.00">vector</text>
</a>
</g>
</g>
<!-- Node2&#45;&gt;Node7 -->
<g id="edge7" class="edge">
<title>Node2&#45;&gt;Node7</title>
<path fill="none" stroke="midnightblue" d="M152.28,-112.32C161.84,-104.26 176.28,-92.08 187.78,-82.37"/>
<polygon fill="midnightblue" stroke="midnightblue" points="190.14,-84.96 195.53,-75.83 185.63,-79.61 190.14,-84.96"/>
</g>
<!-- Node4&#45;&gt;Node3 -->
<g id="edge5" class="edge">
<title>Node4&#45;&gt;Node3</title>
<path fill="none" stroke="midnightblue" d="M78.1,-56.44C106.99,-47.32 152.92,-32.81 185.11,-22.65"/>
<polygon fill="midnightblue" stroke="midnightblue" points="186.55,-25.87 195.03,-19.52 184.44,-19.19 186.55,-25.87"/>
</g>
<!-- Node5 -->
<g id="node5" class="node">
<title>Node5</title>
<g id="a_node5"><a xlink:title=" ">
<polygon fill="none" stroke="#bfbfbf" points="0,-0.5 0,-19.5 102,-19.5 102,-0.5 0,-0.5"/>
<text text-anchor="middle" x="51" y="-7.5" font-family="Helvetica,sans-Serif" font-size="10.00">rawspeedconfig.h</text>
</a>
</g>
</g>
<!-- Node4&#45;&gt;Node5 -->
<g id="edge4" class="edge">
<title>Node4&#45;&gt;Node5</title>
<path fill="none" stroke="midnightblue" d="M51,-56.08C51,-49.01 51,-38.86 51,-29.99"/>
<polygon fill="midnightblue" stroke="midnightblue" points="54.5,-29.75 51,-19.75 47.5,-29.75 54.5,-29.75"/>
</g>
</g>
</svg>
