<?xml version="1.0" encoding="UTF-8" standalone="no"?>
<!DOCTYPE svg PUBLIC "-//W3C//DTD SVG 1.1//EN"
 "http://www.w3.org/Graphics/SVG/1.1/DTD/svg11.dtd">
<!-- Generated by graphviz version 2.43.0 (0)
 -->
<!-- Title: rawspeed::DngOpcodes::PixelOpcode::PixelOpcode Pages: 1 -->
<svg width="1005pt" height="488pt"
 viewBox="0.00 0.00 1005.00 488.23" xmlns="http://www.w3.org/2000/svg" xmlns:xlink="http://www.w3.org/1999/xlink">
<g id="graph0" class="graph" transform="scale(1 1) rotate(0) translate(4 484.23)">
<title>rawspeed::DngOpcodes::PixelOpcode::PixelOpcode</title>
<!-- Node1 -->
<g id="node1" class="node">
<title>Node1</title>
<g id="a_node1"><a xlink:title=" ">
<polygon fill="#bfbfbf" stroke="black" points="0,-356.73 0,-386.73 150,-386.73 150,-356.73 0,-356.73"/>
<text text-anchor="start" x="8" y="-374.73" font-family="Helvetica,sans-Serif" font-size="10.00">rawspeed::DngOpcodes</text>
<text text-anchor="middle" x="75" y="-363.73" font-family="Helvetica,sans-Serif" font-size="10.00">::PixelOpcode::PixelOpcode</text>
</a>
</g>
</g>
<!-- Node2 -->
<g id="node2" class="node">
<title>Node2</title>
<g id="a_node2"><a xlink:href="../../df/dc9/classrawspeed_1_1_dng_opcodes_1_1_r_o_i_opcode.html#a2ca1b972bdced92fb2d26f50fe498c9f" target="_top" xlink:title=" ">
<polygon fill="none" stroke="black" points="186,-449.73 186,-479.73 332,-479.73 332,-449.73 186,-449.73"/>
<text text-anchor="start" x="194" y="-467.73" font-family="Helvetica,sans-Serif" font-size="10.00">rawspeed::DngOpcodes</text>
<text text-anchor="middle" x="259" y="-456.73" font-family="Helvetica,sans-Serif" font-size="10.00">::ROIOpcode::__attribute__</text>
</a>
</g>
</g>
<!-- Node1&#45;&gt;Node2 -->
<g id="edge1" class="edge">
<title>Node1&#45;&gt;Node2</title>
<path fill="none" stroke="midnightblue" d="M96.64,-386.78C118.13,-401.94 153.18,-425.23 186,-440.73 190,-442.61 194.18,-444.42 198.43,-446.13"/>
<polygon fill="midnightblue" stroke="midnightblue" points="197.23,-449.41 207.82,-449.72 199.73,-442.87 197.23,-449.41"/>
</g>
<!-- Node3 -->
<g id="node3" class="node">
<title>Node3</title>
<g id="a_node3"><a xlink:href="../../dc/d44/classrawspeed_1_1_raw_image_data.html#a1d9a712a918374327fe3fe791318912f" target="_top" xlink:title=" ">
<polygon fill="none" stroke="black" points="186.5,-400.73 186.5,-430.73 331.5,-430.73 331.5,-400.73 186.5,-400.73"/>
<text text-anchor="start" x="194.5" y="-418.73" font-family="Helvetica,sans-Serif" font-size="10.00">rawspeed::RawImageData</text>
<text text-anchor="middle" x="259" y="-407.73" font-family="Helvetica,sans-Serif" font-size="10.00">::getCpp</text>
</a>
</g>
</g>
<!-- Node1&#45;&gt;Node3 -->
<g id="edge2" class="edge">
<title>Node1&#45;&gt;Node3</title>
<path fill="none" stroke="midnightblue" d="M138.13,-386.75C153.56,-390.48 170.23,-394.51 186.09,-398.34"/>
<polygon fill="midnightblue" stroke="midnightblue" points="185.3,-401.75 195.85,-400.7 186.95,-394.95 185.3,-401.75"/>
</g>
<!-- Node4 -->
<g id="node4" class="node">
<title>Node4</title>
<g id="a_node4"><a xlink:href="../../dd/da0/classrawspeed_1_1_byte_stream.html#ac598b7b6f0f8fd5476adb7c1363b1518" target="_top" xlink:title=" ">
<polygon fill="none" stroke="black" points="375,-367.73 375,-397.73 503,-397.73 503,-367.73 375,-367.73"/>
<text text-anchor="start" x="383" y="-385.73" font-family="Helvetica,sans-Serif" font-size="10.00">rawspeed::ByteStream</text>
<text text-anchor="middle" x="439" y="-374.73" font-family="Helvetica,sans-Serif" font-size="10.00">::getU32</text>
</a>
</g>
</g>
<!-- Node1&#45;&gt;Node4 -->
<g id="edge3" class="edge">
<title>Node1&#45;&gt;Node4</title>
<path fill="none" stroke="midnightblue" d="M150.13,-373.98C212.83,-375.88 302.19,-378.6 364.67,-380.5"/>
<polygon fill="midnightblue" stroke="midnightblue" points="364.74,-384 374.84,-380.81 364.95,-377 364.74,-384"/>
</g>
<!-- Node5 -->
<g id="node5" class="node">
<title>Node5</title>
<g id="a_node5"><a xlink:href="../../dd/d12/classrawspeed_1_1_raw_image.html#a2907002b5c707eca6939061f8b0d5e5d" target="_top" xlink:title=" ">
<polygon fill="none" stroke="black" points="378,-318.73 378,-348.73 500,-348.73 500,-318.73 378,-318.73"/>
<text text-anchor="start" x="386" y="-336.73" font-family="Helvetica,sans-Serif" font-size="10.00">rawspeed::RawImage</text>
<text text-anchor="middle" x="439" y="-325.73" font-family="Helvetica,sans-Serif" font-size="10.00">::operator&#45;&gt;</text>
</a>
</g>
</g>
<!-- Node1&#45;&gt;Node5 -->
<g id="edge4" class="edge">
<title>Node1&#45;&gt;Node5</title>
<path fill="none" stroke="midnightblue" d="M150.13,-363.94C213.81,-357.26 304.99,-347.69 367.57,-341.12"/>
<polygon fill="midnightblue" stroke="midnightblue" points="368.17,-344.58 377.75,-340.05 367.44,-337.61 368.17,-344.58"/>
</g>
<!-- Node6 -->
<g id="node6" class="node">
<title>Node6</title>
<g id="a_node6"><a xlink:href="../../df/dc9/classrawspeed_1_1_dng_opcodes_1_1_r_o_i_opcode.html#a18543c8017b64d69566acc55164af4cc" target="_top" xlink:title=" ">
<polygon fill="none" stroke="black" points="190.5,-206.73 190.5,-236.73 327.5,-236.73 327.5,-206.73 190.5,-206.73"/>
<text text-anchor="start" x="198.5" y="-224.73" font-family="Helvetica,sans-Serif" font-size="10.00">rawspeed::DngOpcodes</text>
<text text-anchor="middle" x="259" y="-213.73" font-family="Helvetica,sans-Serif" font-size="10.00">::ROIOpcode::ROIOpcode</text>
</a>
</g>
</g>
<!-- Node1&#45;&gt;Node6 -->
<g id="edge5" class="edge">
<title>Node1&#45;&gt;Node6</title>
<path fill="none" stroke="midnightblue" d="M94.45,-356.52C126.97,-329.72 194.55,-274.02 231.85,-243.28"/>
<polygon fill="midnightblue" stroke="midnightblue" points="234.28,-245.81 239.77,-236.75 229.83,-240.41 234.28,-245.81"/>
</g>
<!-- Node6&#45;&gt;Node4 -->
<g id="edge6" class="edge">
<title>Node6&#45;&gt;Node4</title>
<path fill="none" stroke="midnightblue" d="M267.98,-236.83C283.53,-264.85 320.56,-325.09 368,-358.73 370.11,-360.22 372.32,-361.63 374.6,-362.96"/>
<polygon fill="midnightblue" stroke="midnightblue" points="373.21,-366.18 383.7,-367.67 376.43,-359.96 373.21,-366.18"/>
</g>
<!-- Node6&#45;&gt;Node5 -->
<g id="edge20" class="edge">
<title>Node6&#45;&gt;Node5</title>
<path fill="none" stroke="midnightblue" d="M277.03,-236.77C297.56,-254.39 333.62,-283.71 368,-303.73 374.52,-307.52 381.61,-311.12 388.7,-314.41"/>
<polygon fill="midnightblue" stroke="midnightblue" points="387.74,-317.82 398.3,-318.71 390.6,-311.43 387.74,-317.82"/>
</g>
<!-- Node7 -->
<g id="node7" class="node">
<title>Node7</title>
<g id="a_node7"><a xlink:href="../../d8/d75/classrawspeed_1_1i_point2_d.html#ab980cc8ab2f3502a5a2c230530ba2a64" target="_top" xlink:title=" ">
<polygon fill="none" stroke="black" points="886,-176.73 886,-206.73 997,-206.73 997,-176.73 886,-176.73"/>
<text text-anchor="start" x="894" y="-194.73" font-family="Helvetica,sans-Serif" font-size="10.00">rawspeed::iPoint2D</text>
<text text-anchor="middle" x="941.5" y="-183.73" font-family="Helvetica,sans-Serif" font-size="10.00">::iPoint2D</text>
</a>
</g>
</g>
<!-- Node6&#45;&gt;Node7 -->
<g id="edge7" class="edge">
<title>Node6&#45;&gt;Node7</title>
<path fill="none" stroke="midnightblue" d="M263.29,-206.72C272.37,-169.48 301.6,-73.06 368,-34.73 557.85,74.86 827.42,-106.03 913.19,-170.36"/>
<polygon fill="midnightblue" stroke="midnightblue" points="911.29,-173.31 921.37,-176.56 915.52,-167.73 911.29,-173.31"/>
</g>
<!-- Node8 -->
<g id="node8" class="node">
<title>Node8</title>
<g id="a_node8"><a xlink:href="../../d6/d8f/classrawspeed_1_1i_rectangle2_d.html#a7ec79d6a8dc1f04262729c2d4fd528d3" target="_top" xlink:title=" ">
<polygon fill="none" stroke="black" points="716,-269.73 716,-299.73 850,-299.73 850,-269.73 716,-269.73"/>
<text text-anchor="start" x="724" y="-287.73" font-family="Helvetica,sans-Serif" font-size="10.00">rawspeed::iRectangle2D</text>
<text text-anchor="middle" x="783" y="-276.73" font-family="Helvetica,sans-Serif" font-size="10.00">::iRectangle2D</text>
</a>
</g>
</g>
<!-- Node6&#45;&gt;Node8 -->
<g id="edge8" class="edge">
<title>Node6&#45;&gt;Node8</title>
<path fill="none" stroke="midnightblue" d="M285.6,-236.82C306.87,-248.49 338.33,-263.78 368,-270.73 483.28,-297.7 621.51,-295.77 705.49,-290.96"/>
<polygon fill="midnightblue" stroke="midnightblue" points="705.94,-294.44 715.71,-290.34 705.52,-287.45 705.94,-294.44"/>
</g>
<!-- Node9 -->
<g id="node9" class="node">
<title>Node9</title>
<g id="a_node9"><a xlink:href="../../d6/d8f/classrawspeed_1_1i_rectangle2_d.html#a8e5d729239ce4ebabfc221d463a3c79e" target="_top" xlink:title=" ">
<polygon fill="none" stroke="black" points="372,-132.73 372,-162.73 506,-162.73 506,-132.73 372,-132.73"/>
<text text-anchor="start" x="380" y="-150.73" font-family="Helvetica,sans-Serif" font-size="10.00">rawspeed::iRectangle2D</text>
<text text-anchor="middle" x="439" y="-139.73" font-family="Helvetica,sans-Serif" font-size="10.00">::isPointInsideInclusive</text>
</a>
</g>
</g>
<!-- Node6&#45;&gt;Node9 -->
<g id="edge10" class="edge">
<title>Node6&#45;&gt;Node9</title>
<path fill="none" stroke="midnightblue" d="M291.36,-206.66C312.76,-196.6 341.85,-183.31 368,-172.73 373.36,-170.56 379,-168.38 384.64,-166.26"/>
<polygon fill="midnightblue" stroke="midnightblue" points="385.93,-169.52 394.1,-162.77 383.51,-162.95 385.93,-169.52"/>
</g>
<!-- Node13 -->
<g id="node13" class="node">
<title>Node13</title>
<g id="a_node13"><a xlink:href="../../d8/d75/classrawspeed_1_1i_point2_d.html#a16873af73bf76858d0f31c2b7802c310" target="_top" xlink:title=" ">
<polygon fill="none" stroke="black" points="557.5,-88.73 557.5,-118.73 668.5,-118.73 668.5,-88.73 557.5,-88.73"/>
<text text-anchor="start" x="565.5" y="-106.73" font-family="Helvetica,sans-Serif" font-size="10.00">rawspeed::iPoint2D</text>
<text text-anchor="middle" x="613" y="-95.73" font-family="Helvetica,sans-Serif" font-size="10.00">::operator&gt;=</text>
</a>
</g>
</g>
<!-- Node6&#45;&gt;Node13 -->
<g id="edge21" class="edge">
<title>Node6&#45;&gt;Node13</title>
<path fill="none" stroke="midnightblue" d="M270.92,-206.69C288.46,-183.89 325.31,-141.27 368,-122.73 424.88,-98.02 496.21,-95.31 547.02,-97.54"/>
<polygon fill="midnightblue" stroke="midnightblue" points="547.05,-101.05 557.22,-98.07 547.42,-94.06 547.05,-101.05"/>
</g>
<!-- Node14 -->
<g id="node14" class="node">
<title>Node14</title>
<g id="a_node14"><a xlink:href="../../d6/d8f/classrawspeed_1_1i_rectangle2_d.html#a5fa041d0ecfb6fe7538f73c735cdb42c" target="_top" xlink:title=" ">
<polygon fill="none" stroke="black" points="372,-181.73 372,-211.73 506,-211.73 506,-181.73 372,-181.73"/>
<text text-anchor="start" x="380" y="-199.73" font-family="Helvetica,sans-Serif" font-size="10.00">rawspeed::iRectangle2D</text>
<text text-anchor="middle" x="439" y="-188.73" font-family="Helvetica,sans-Serif" font-size="10.00">::isThisInside</text>
</a>
</g>
</g>
<!-- Node6&#45;&gt;Node14 -->
<g id="edge16" class="edge">
<title>Node6&#45;&gt;Node14</title>
<path fill="none" stroke="midnightblue" d="M327.55,-212.24C338.81,-210.66 350.55,-209.01 362,-207.4"/>
<polygon fill="midnightblue" stroke="midnightblue" points="362.55,-210.86 371.97,-206 361.58,-203.92 362.55,-210.86"/>
</g>
<!-- Node15 -->
<g id="node15" class="node">
<title>Node15</title>
<g id="a_node15"><a xlink:href="../../d6/d8f/classrawspeed_1_1i_rectangle2_d.html#a85b5a792f7646c485c87068744ec99a8" target="_top" xlink:title=" ">
<polygon fill="none" stroke="black" points="368,-230.73 368,-260.73 510,-260.73 510,-230.73 368,-230.73"/>
<text text-anchor="start" x="376" y="-248.73" font-family="Helvetica,sans-Serif" font-size="10.00">rawspeed::iRectangle2D</text>
<text text-anchor="middle" x="439" y="-237.73" font-family="Helvetica,sans-Serif" font-size="10.00">::setBottomRightAbsolute</text>
</a>
</g>
</g>
<!-- Node6&#45;&gt;Node15 -->
<g id="edge22" class="edge">
<title>Node6&#45;&gt;Node15</title>
<path fill="none" stroke="midnightblue" d="M327.55,-230.83C337.43,-232.17 347.69,-233.55 357.8,-234.91"/>
<polygon fill="midnightblue" stroke="midnightblue" points="357.46,-238.4 367.83,-236.27 358.39,-231.46 357.46,-238.4"/>
</g>
<!-- Node17 -->
<g id="node17" class="node">
<title>Node17</title>
<g id="a_node17"><a xlink:href="../../d6/d8f/classrawspeed_1_1i_rectangle2_d.html#a20ef43ce186cdd3bd63929eeb6c727d9" target="_top" xlink:title=" ">
<polygon fill="none" stroke="black" points="372,-44.73 372,-74.73 506,-74.73 506,-44.73 372,-44.73"/>
<text text-anchor="start" x="380" y="-62.73" font-family="Helvetica,sans-Serif" font-size="10.00">rawspeed::iRectangle2D</text>
<text text-anchor="middle" x="439" y="-51.73" font-family="Helvetica,sans-Serif" font-size="10.00">::setTopLeft</text>
</a>
</g>
</g>
<!-- Node6&#45;&gt;Node17 -->
<g id="edge25" class="edge">
<title>Node6&#45;&gt;Node17</title>
<path fill="none" stroke="midnightblue" d="M268.87,-206.67C285.33,-179.88 323.04,-123.55 368,-89.73 373.13,-85.87 378.83,-82.39 384.71,-79.29"/>
<polygon fill="midnightblue" stroke="midnightblue" points="386.58,-82.28 394.02,-74.74 383.5,-75.99 386.58,-82.28"/>
</g>
<!-- Node8&#45;&gt;Node7 -->
<g id="edge9" class="edge">
<title>Node8&#45;&gt;Node7</title>
<path fill="none" stroke="midnightblue" d="M814.91,-269.62C826.1,-263.94 838.75,-257.27 850,-250.73 870.43,-238.84 892.68,-224.36 910.01,-212.72"/>
<polygon fill="midnightblue" stroke="midnightblue" points="912.26,-215.42 918.58,-206.92 908.34,-209.62 912.26,-215.42"/>
</g>
<!-- Node10 -->
<g id="node10" class="node">
<title>Node10</title>
<g id="a_node10"><a xlink:href="../../d6/d8f/classrawspeed_1_1i_rectangle2_d.html#ad6ae3f2ed094abc10d38b954af7e5b99" target="_top" xlink:title=" ">
<polygon fill="none" stroke="black" points="546,-137.73 546,-167.73 680,-167.73 680,-137.73 546,-137.73"/>
<text text-anchor="start" x="554" y="-155.73" font-family="Helvetica,sans-Serif" font-size="10.00">rawspeed::iRectangle2D</text>
<text text-anchor="middle" x="613" y="-144.73" font-family="Helvetica,sans-Serif" font-size="10.00">::getBottomRight</text>
</a>
</g>
</g>
<!-- Node9&#45;&gt;Node10 -->
<g id="edge11" class="edge">
<title>Node9&#45;&gt;Node10</title>
<path fill="none" stroke="midnightblue" d="M506.01,-149.64C515.71,-149.93 525.77,-150.22 535.66,-150.51"/>
<polygon fill="midnightblue" stroke="midnightblue" points="535.79,-154.01 545.88,-150.8 535.99,-147.01 535.79,-154.01"/>
</g>
<!-- Node12 -->
<g id="node12" class="node">
<title>Node12</title>
<g id="a_node12"><a xlink:href="../../d8/d75/classrawspeed_1_1i_point2_d.html#a368d3167882bee5c5d42813d99a17c56" target="_top" xlink:title=" ">
<polygon fill="none" stroke="black" points="557.5,-186.73 557.5,-216.73 668.5,-216.73 668.5,-186.73 557.5,-186.73"/>
<text text-anchor="start" x="565.5" y="-204.73" font-family="Helvetica,sans-Serif" font-size="10.00">rawspeed::iPoint2D</text>
<text text-anchor="middle" x="613" y="-193.73" font-family="Helvetica,sans-Serif" font-size="10.00">::operator&lt;=</text>
</a>
</g>
</g>
<!-- Node9&#45;&gt;Node12 -->
<g id="edge14" class="edge">
<title>Node9&#45;&gt;Node12</title>
<path fill="none" stroke="midnightblue" d="M487.91,-162.77C508.51,-169.24 532.77,-176.85 554.35,-183.62"/>
<polygon fill="midnightblue" stroke="midnightblue" points="553.46,-187.01 564.05,-186.67 555.55,-180.34 553.46,-187.01"/>
</g>
<!-- Node9&#45;&gt;Node13 -->
<g id="edge15" class="edge">
<title>Node9&#45;&gt;Node13</title>
<path fill="none" stroke="midnightblue" d="M498.71,-132.71C514.43,-128.69 531.5,-124.32 547.51,-120.22"/>
<polygon fill="midnightblue" stroke="midnightblue" points="548.5,-123.58 557.32,-117.71 546.76,-116.8 548.5,-123.58"/>
</g>
<!-- Node11 -->
<g id="node11" class="node">
<title>Node11</title>
<g id="a_node11"><a xlink:href="../../d8/d75/classrawspeed_1_1i_point2_d.html#aed6c2f5995cd12a0bb27e6d7e2d88fdb" target="_top" xlink:title=" ">
<polygon fill="none" stroke="black" points="727.5,-142.73 727.5,-172.73 838.5,-172.73 838.5,-142.73 727.5,-142.73"/>
<text text-anchor="start" x="735.5" y="-160.73" font-family="Helvetica,sans-Serif" font-size="10.00">rawspeed::iPoint2D</text>
<text text-anchor="middle" x="783" y="-149.73" font-family="Helvetica,sans-Serif" font-size="10.00">::operator+</text>
</a>
</g>
</g>
<!-- Node10&#45;&gt;Node11 -->
<g id="edge12" class="edge">
<title>Node10&#45;&gt;Node11</title>
<path fill="none" stroke="midnightblue" d="M680.4,-154.7C692.58,-155.06 705.28,-155.44 717.4,-155.8"/>
<polygon fill="midnightblue" stroke="midnightblue" points="717.33,-159.3 727.43,-156.1 717.54,-152.31 717.33,-159.3"/>
</g>
<!-- Node11&#45;&gt;Node7 -->
<g id="edge13" class="edge">
<title>Node11&#45;&gt;Node7</title>
<path fill="none" stroke="midnightblue" d="M838.74,-169.62C850.77,-172.23 863.62,-175.02 876,-177.71"/>
<polygon fill="midnightblue" stroke="midnightblue" points="875.28,-181.14 885.79,-179.84 876.77,-174.3 875.28,-181.14"/>
</g>
<!-- Node14&#45;&gt;Node10 -->
<g id="edge17" class="edge">
<title>Node14&#45;&gt;Node10</title>
<path fill="none" stroke="midnightblue" d="M498.71,-181.71C513.02,-178.05 528.46,-174.1 543.19,-170.33"/>
<polygon fill="midnightblue" stroke="midnightblue" points="544.44,-173.62 553.26,-167.75 542.71,-166.84 544.44,-173.62"/>
</g>
<!-- Node14&#45;&gt;Node12 -->
<g id="edge18" class="edge">
<title>Node14&#45;&gt;Node12</title>
<path fill="none" stroke="midnightblue" d="M506.01,-198.64C519.52,-199.04 533.73,-199.45 547.2,-199.84"/>
<polygon fill="midnightblue" stroke="midnightblue" points="547.24,-203.34 557.33,-200.14 547.44,-196.35 547.24,-203.34"/>
</g>
<!-- Node14&#45;&gt;Node13 -->
<g id="edge19" class="edge">
<title>Node14&#45;&gt;Node13</title>
<path fill="none" stroke="midnightblue" d="M494.28,-181.64C499.81,-179.08 505.17,-176.13 510,-172.73 530.95,-157.99 525.19,-142.66 546,-127.73 548.08,-126.23 550.26,-124.82 552.52,-123.49"/>
<polygon fill="midnightblue" stroke="midnightblue" points="554.29,-126.51 561.51,-118.75 551.03,-120.32 554.29,-126.51"/>
</g>
<!-- Node16 -->
<g id="node16" class="node">
<title>Node16</title>
<g id="a_node16"><a xlink:href="../../d8/d75/classrawspeed_1_1i_point2_d.html#a3c2f09435c8e2610e80b6e5f7f9c0705" target="_top" xlink:title=" ">
<polygon fill="none" stroke="black" points="727.5,-210.73 727.5,-240.73 838.5,-240.73 838.5,-210.73 727.5,-210.73"/>
<text text-anchor="start" x="735.5" y="-228.73" font-family="Helvetica,sans-Serif" font-size="10.00">rawspeed::iPoint2D</text>
<text text-anchor="middle" x="783" y="-217.73" font-family="Helvetica,sans-Serif" font-size="10.00">::operator&#45;</text>
</a>
</g>
</g>
<!-- Node15&#45;&gt;Node16 -->
<g id="edge23" class="edge">
<title>Node15&#45;&gt;Node16</title>
<path fill="none" stroke="midnightblue" d="M510.03,-241.63C570.69,-238.08 657.74,-232.99 716.9,-229.53"/>
<polygon fill="midnightblue" stroke="midnightblue" points="717.47,-233.01 727.25,-228.93 717.06,-226.02 717.47,-233.01"/>
</g>
<!-- Node16&#45;&gt;Node7 -->
<g id="edge24" class="edge">
<title>Node16&#45;&gt;Node7</title>
<path fill="none" stroke="midnightblue" d="M838.74,-213.83C850.77,-211.22 863.62,-208.43 876,-205.74"/>
<polygon fill="midnightblue" stroke="midnightblue" points="876.77,-209.15 885.79,-203.61 875.28,-202.31 876.77,-209.15"/>
</g>
</g>
</svg>
