<?xml version="1.0" encoding="UTF-8" standalone="no"?>
<!DOCTYPE svg PUBLIC "-//W3C//DTD SVG 1.1//EN"
 "http://www.w3.org/Graphics/SVG/1.1/DTD/svg11.dtd">
<!-- Generated by graphviz version 2.43.0 (0)
 -->
<!-- Title: librawspeed/io/BitPumpJPEG.h Pages: 1 -->
<svg width="1312pt" height="420pt"
 viewBox="0.00 0.00 1312.00 420.00" xmlns="http://www.w3.org/2000/svg" xmlns:xlink="http://www.w3.org/1999/xlink">
<g id="graph0" class="graph" transform="scale(1 1) rotate(0) translate(4 416)">
<title>librawspeed/io/BitPumpJPEG.h</title>
<!-- Node1 -->
<g id="node1" class="node">
<title>Node1</title>
<g id="a_node1"><a xlink:title=" ">
<polygon fill="#bfbfbf" stroke="black" points="1070,-392.5 1070,-411.5 1234,-411.5 1234,-392.5 1070,-392.5"/>
<text text-anchor="middle" x="1152" y="-399.5" font-family="Helvetica,sans-Serif" font-size="10.00">librawspeed/io/BitPumpJPEG.h</text>
</a>
</g>
</g>
<!-- Node2 -->
<g id="node2" class="node">
<title>Node2</title>
<g id="a_node2"><a xlink:href="../../d9/df5/src_2librawspeed_2common_2_common_8h.html" target="_top" xlink:title=" ">
<polygon fill="none" stroke="black" points="175,-56.5 175,-75.5 291,-75.5 291,-56.5 175,-56.5"/>
<text text-anchor="middle" x="233" y="-63.5" font-family="Helvetica,sans-Serif" font-size="10.00">common/Common.h</text>
</a>
</g>
</g>
<!-- Node1&#45;&gt;Node2 -->
<g id="edge1" class="edge">
<title>Node1&#45;&gt;Node2</title>
<path fill="none" stroke="midnightblue" d="M1069.97,-400.22C836.48,-396.92 185,-379.76 185,-291 185,-291 185,-291 185,-177 185,-141.58 206.16,-104.71 220.38,-83.92"/>
<polygon fill="midnightblue" stroke="midnightblue" points="223.38,-85.74 226.33,-75.56 217.68,-81.68 223.38,-85.74"/>
</g>
<!-- Node6 -->
<g id="node6" class="node">
<title>Node6</title>
<g id="a_node6"><a xlink:title=" ">
<polygon fill="none" stroke="#bfbfbf" points="1089,-0.5 1089,-19.5 1139,-19.5 1139,-0.5 1089,-0.5"/>
<text text-anchor="middle" x="1114" y="-7.5" font-family="Helvetica,sans-Serif" font-size="10.00">cstdint</text>
</a>
</g>
</g>
<!-- Node1&#45;&gt;Node6 -->
<g id="edge58" class="edge">
<title>Node1&#45;&gt;Node6</title>
<path fill="none" stroke="midnightblue" d="M1186.87,-392.4C1231.75,-379 1304,-348.49 1304,-291 1304,-291 1304,-291 1304,-121 1304,-50.28 1204.19,-24.29 1149.25,-15.34"/>
<polygon fill="midnightblue" stroke="midnightblue" points="1149.64,-11.86 1139.23,-13.81 1148.59,-18.78 1149.64,-11.86"/>
</g>
<!-- Node12 -->
<g id="node12" class="node">
<title>Node12</title>
<g id="a_node12"><a xlink:href="../../d7/dc3/_bit_stream_8h.html" target="_top" xlink:title=" ">
<polygon fill="none" stroke="black" points="781,-336.5 781,-355.5 867,-355.5 867,-336.5 781,-336.5"/>
<text text-anchor="middle" x="824" y="-343.5" font-family="Helvetica,sans-Serif" font-size="10.00">io/BitStream.h</text>
</a>
</g>
</g>
<!-- Node1&#45;&gt;Node12 -->
<g id="edge11" class="edge">
<title>Node1&#45;&gt;Node12</title>
<path fill="none" stroke="midnightblue" d="M1100.03,-392.44C1039.03,-382.4 938.41,-365.84 876.98,-355.72"/>
<polygon fill="midnightblue" stroke="midnightblue" points="877.53,-352.27 867.1,-354.1 876.4,-359.17 877.53,-352.27"/>
</g>
<!-- Node13 -->
<g id="node13" class="node">
<title>Node13</title>
<g id="a_node13"><a xlink:href="../../d7/d1b/_buffer_8h.html" target="_top" xlink:title=" ">
<polygon fill="none" stroke="black" points="791,-224.5 791,-243.5 857,-243.5 857,-224.5 791,-224.5"/>
<text text-anchor="middle" x="824" y="-231.5" font-family="Helvetica,sans-Serif" font-size="10.00">io/Buffer.h</text>
</a>
</g>
</g>
<!-- Node1&#45;&gt;Node13 -->
<g id="edge56" class="edge">
<title>Node1&#45;&gt;Node13</title>
<path fill="none" stroke="midnightblue" d="M1134.83,-392.31C1080.91,-365.02 914.79,-280.95 850.13,-248.22"/>
<polygon fill="midnightblue" stroke="midnightblue" points="851.51,-245 841,-243.61 848.34,-251.24 851.51,-245"/>
</g>
<!-- Node18 -->
<g id="node18" class="node">
<title>Node18</title>
<g id="a_node18"><a xlink:href="../../d5/d0b/_endianness_8h.html" target="_top" xlink:title=" ">
<polygon fill="none" stroke="black" points="1068.5,-112.5 1068.5,-131.5 1161.5,-131.5 1161.5,-112.5 1068.5,-112.5"/>
<text text-anchor="middle" x="1115" y="-119.5" font-family="Helvetica,sans-Serif" font-size="10.00">io/Endianness.h</text>
</a>
</g>
</g>
<!-- Node1&#45;&gt;Node18 -->
<g id="edge57" class="edge">
<title>Node1&#45;&gt;Node18</title>
<path fill="none" stroke="midnightblue" d="M1172.64,-392.42C1205.5,-377.23 1266,-342.29 1266,-291 1266,-291 1266,-291 1266,-233 1266,-179.63 1203.61,-149.42 1159.04,-134.65"/>
<polygon fill="midnightblue" stroke="midnightblue" points="1159.85,-131.24 1149.26,-131.56 1157.74,-137.91 1159.85,-131.24"/>
</g>
<!-- Node3 -->
<g id="node3" class="node">
<title>Node3</title>
<g id="a_node3"><a xlink:title=" ">
<polygon fill="none" stroke="#bfbfbf" points="0,-0.5 0,-19.5 64,-19.5 64,-0.5 0,-0.5"/>
<text text-anchor="middle" x="32" y="-7.5" font-family="Helvetica,sans-Serif" font-size="10.00">algorithm</text>
</a>
</g>
</g>
<!-- Node2&#45;&gt;Node3 -->
<g id="edge2" class="edge">
<title>Node2&#45;&gt;Node3</title>
<path fill="none" stroke="midnightblue" d="M201.15,-56.44C166.6,-47.16 111.32,-32.31 73.42,-22.13"/>
<polygon fill="midnightblue" stroke="midnightblue" points="74.27,-18.73 63.7,-19.52 72.45,-25.49 74.27,-18.73"/>
</g>
<!-- Node4 -->
<g id="node4" class="node">
<title>Node4</title>
<g id="a_node4"><a xlink:title=" ">
<polygon fill="none" stroke="#bfbfbf" points="467,-0.5 467,-19.5 519,-19.5 519,-0.5 467,-0.5"/>
<text text-anchor="middle" x="493" y="-7.5" font-family="Helvetica,sans-Serif" font-size="10.00">cassert</text>
</a>
</g>
</g>
<!-- Node2&#45;&gt;Node4 -->
<g id="edge3" class="edge">
<title>Node2&#45;&gt;Node4</title>
<path fill="none" stroke="midnightblue" d="M278.61,-56.48C321.84,-48.27 388.83,-35.16 456.67,-19.98"/>
<polygon fill="midnightblue" stroke="midnightblue" points="457.7,-23.34 466.69,-17.73 456.16,-16.51 457.7,-23.34"/>
</g>
<!-- Node5 -->
<g id="node5" class="node">
<title>Node5</title>
<g id="a_node5"><a xlink:title=" ">
<polygon fill="none" stroke="#bfbfbf" points="82,-0.5 82,-19.5 132,-19.5 132,-0.5 82,-0.5"/>
<text text-anchor="middle" x="107" y="-7.5" font-family="Helvetica,sans-Serif" font-size="10.00">climits</text>
</a>
</g>
</g>
<!-- Node2&#45;&gt;Node5 -->
<g id="edge4" class="edge">
<title>Node2&#45;&gt;Node5</title>
<path fill="none" stroke="midnightblue" d="M213.03,-56.44C192.39,-47.6 159.94,-33.69 136.37,-23.59"/>
<polygon fill="midnightblue" stroke="midnightblue" points="137.44,-20.24 126.87,-19.52 134.68,-26.67 137.44,-20.24"/>
</g>
<!-- Node2&#45;&gt;Node6 -->
<g id="edge5" class="edge">
<title>Node2&#45;&gt;Node6</title>
<path fill="none" stroke="midnightblue" d="M291.15,-61.44C459.38,-51.12 943.27,-21.46 1078.51,-13.18"/>
<polygon fill="midnightblue" stroke="midnightblue" points="1078.95,-16.66 1088.71,-12.55 1078.52,-9.67 1078.95,-16.66"/>
</g>
<!-- Node7 -->
<g id="node7" class="node">
<title>Node7</title>
<g id="a_node7"><a xlink:title=" ">
<polygon fill="none" stroke="#bfbfbf" points="802,-0.5 802,-19.5 852,-19.5 852,-0.5 802,-0.5"/>
<text text-anchor="middle" x="827" y="-7.5" font-family="Helvetica,sans-Serif" font-size="10.00">cstring</text>
</a>
</g>
</g>
<!-- Node2&#45;&gt;Node7 -->
<g id="edge6" class="edge">
<title>Node2&#45;&gt;Node7</title>
<path fill="none" stroke="midnightblue" d="M291.04,-59.72C413.14,-48.62 693.42,-23.14 791.96,-14.19"/>
<polygon fill="midnightblue" stroke="midnightblue" points="792.35,-17.66 801.99,-13.27 791.72,-10.69 792.35,-17.66"/>
</g>
<!-- Node8 -->
<g id="node8" class="node">
<title>Node8</title>
<g id="a_node8"><a xlink:title=" ">
<polygon fill="none" stroke="#bfbfbf" points="150.5,-0.5 150.5,-19.5 233.5,-19.5 233.5,-0.5 150.5,-0.5"/>
<text text-anchor="middle" x="192" y="-7.5" font-family="Helvetica,sans-Serif" font-size="10.00">initializer_list</text>
</a>
</g>
</g>
<!-- Node2&#45;&gt;Node8 -->
<g id="edge7" class="edge">
<title>Node2&#45;&gt;Node8</title>
<path fill="none" stroke="midnightblue" d="M226.23,-56.08C220.44,-48.46 211.94,-37.26 204.86,-27.94"/>
<polygon fill="midnightblue" stroke="midnightblue" points="207.48,-25.6 198.64,-19.75 201.9,-29.83 207.48,-25.6"/>
</g>
<!-- Node9 -->
<g id="node9" class="node">
<title>Node9</title>
<g id="a_node9"><a xlink:title=" ">
<polygon fill="none" stroke="#bfbfbf" points="252,-0.5 252,-19.5 296,-19.5 296,-0.5 252,-0.5"/>
<text text-anchor="middle" x="274" y="-7.5" font-family="Helvetica,sans-Serif" font-size="10.00">string</text>
</a>
</g>
</g>
<!-- Node2&#45;&gt;Node9 -->
<g id="edge8" class="edge">
<title>Node2&#45;&gt;Node9</title>
<path fill="none" stroke="midnightblue" d="M239.77,-56.08C245.56,-48.46 254.06,-37.26 261.14,-27.94"/>
<polygon fill="midnightblue" stroke="midnightblue" points="264.1,-29.83 267.36,-19.75 258.52,-25.6 264.1,-29.83"/>
</g>
<!-- Node10 -->
<g id="node10" class="node">
<title>Node10</title>
<g id="a_node10"><a xlink:title=" ">
<polygon fill="none" stroke="#bfbfbf" points="314.5,-0.5 314.5,-19.5 383.5,-19.5 383.5,-0.5 314.5,-0.5"/>
<text text-anchor="middle" x="349" y="-7.5" font-family="Helvetica,sans-Serif" font-size="10.00">type_traits</text>
</a>
</g>
</g>
<!-- Node2&#45;&gt;Node10 -->
<g id="edge9" class="edge">
<title>Node2&#45;&gt;Node10</title>
<path fill="none" stroke="midnightblue" d="M251.38,-56.44C270.22,-47.68 299.73,-33.94 321.38,-23.86"/>
<polygon fill="midnightblue" stroke="midnightblue" points="323.12,-26.91 330.71,-19.52 320.16,-20.56 323.12,-26.91"/>
</g>
<!-- Node11 -->
<g id="node11" class="node">
<title>Node11</title>
<g id="a_node11"><a xlink:title=" ">
<polygon fill="none" stroke="#bfbfbf" points="401.5,-0.5 401.5,-19.5 448.5,-19.5 448.5,-0.5 401.5,-0.5"/>
<text text-anchor="middle" x="425" y="-7.5" font-family="Helvetica,sans-Serif" font-size="10.00">vector</text>
</a>
</g>
</g>
<!-- Node2&#45;&gt;Node11 -->
<g id="edge10" class="edge">
<title>Node2&#45;&gt;Node11</title>
<path fill="none" stroke="midnightblue" d="M263.42,-56.44C298.26,-46.65 355.17,-30.64 391.32,-20.47"/>
<polygon fill="midnightblue" stroke="midnightblue" points="392.7,-23.72 401.38,-17.64 390.8,-16.98 392.7,-23.72"/>
</g>
<!-- Node12&#45;&gt;Node2 -->
<g id="edge12" class="edge">
<title>Node12&#45;&gt;Node2</title>
<path fill="none" stroke="midnightblue" d="M780.78,-341.67C642.97,-330.49 223,-291.75 223,-235 223,-235 223,-235 223,-177 223,-144.82 227.3,-107.55 230.26,-85.7"/>
<polygon fill="midnightblue" stroke="midnightblue" points="233.76,-85.92 231.69,-75.53 226.83,-84.95 233.76,-85.92"/>
</g>
<!-- Node12&#45;&gt;Node3 -->
<g id="edge51" class="edge">
<title>Node12&#45;&gt;Node3</title>
<path fill="none" stroke="midnightblue" d="M780.67,-344.59C652.86,-342.97 279.11,-335.28 163,-300 107.56,-283.16 50,-292.94 50,-235 50,-235 50,-235 50,-121 50,-88.54 42.27,-51.38 36.94,-29.63"/>
<polygon fill="midnightblue" stroke="midnightblue" points="40.29,-28.59 34.43,-19.76 33.51,-30.32 40.29,-28.59"/>
</g>
<!-- Node12&#45;&gt;Node4 -->
<g id="edge53" class="edge">
<title>Node12&#45;&gt;Node4</title>
<path fill="none" stroke="midnightblue" d="M780.91,-345.05C693.07,-344.29 487.44,-338.19 320,-300 239.92,-281.74 147,-317.14 147,-235 147,-235 147,-235 147,-121 147,-90.9 143.07,-75.5 166,-56 213.5,-15.6 377.94,-30.48 456.67,-19.59"/>
<polygon fill="midnightblue" stroke="midnightblue" points="457.42,-23.01 466.74,-17.96 456.3,-16.1 457.42,-23.01"/>
</g>
<!-- Node12&#45;&gt;Node6 -->
<g id="edge54" class="edge">
<title>Node12&#45;&gt;Node6</title>
<path fill="none" stroke="midnightblue" d="M867.24,-342.41C971.46,-334.97 1228,-309.15 1228,-235 1228,-235 1228,-235 1228,-121 1228,-74.11 1177.45,-40.89 1143.67,-23.93"/>
<polygon fill="midnightblue" stroke="midnightblue" points="1145.17,-20.77 1134.64,-19.58 1142.13,-27.07 1145.17,-20.77"/>
</g>
<!-- Node12&#45;&gt;Node7 -->
<g id="edge55" class="edge">
<title>Node12&#45;&gt;Node7</title>
<path fill="none" stroke="midnightblue" d="M867.06,-341.22C963.81,-331.54 1190,-301.76 1190,-235 1190,-235 1190,-235 1190,-121 1190,-52.99 953.64,-23.11 862.37,-14.11"/>
<polygon fill="midnightblue" stroke="midnightblue" points="862.53,-10.61 852.24,-13.14 861.86,-17.58 862.53,-10.61"/>
</g>
<!-- Node12&#45;&gt;Node13 -->
<g id="edge13" class="edge">
<title>Node12&#45;&gt;Node13</title>
<path fill="none" stroke="midnightblue" d="M824,-336.37C824,-318.62 824,-277.67 824,-253.6"/>
<polygon fill="midnightblue" stroke="midnightblue" points="827.5,-253.59 824,-243.59 820.5,-253.59 827.5,-253.59"/>
</g>
<!-- Node12&#45;&gt;Node18 -->
<g id="edge49" class="edge">
<title>Node12&#45;&gt;Node18</title>
<path fill="none" stroke="midnightblue" d="M867.01,-344.53C908.87,-342.03 972.37,-332.55 1016,-300 1070.99,-258.98 1099.62,-177.87 1110.16,-141.45"/>
<polygon fill="midnightblue" stroke="midnightblue" points="1113.57,-142.25 1112.86,-131.68 1106.83,-140.39 1113.57,-142.25"/>
</g>
<!-- Node19 -->
<g id="node19" class="node">
<title>Node19</title>
<g id="a_node19"><a xlink:href="../../d0/dd8/_i_o_exception_8h.html" target="_top" xlink:title=" ">
<polygon fill="none" stroke="black" points="700,-168.5 700,-187.5 796,-187.5 796,-168.5 700,-168.5"/>
<text text-anchor="middle" x="748" y="-175.5" font-family="Helvetica,sans-Serif" font-size="10.00">io/IOException.h</text>
</a>
</g>
</g>
<!-- Node12&#45;&gt;Node19 -->
<g id="edge50" class="edge">
<title>Node12&#45;&gt;Node19</title>
<path fill="none" stroke="midnightblue" d="M819.91,-336.08C807.85,-309.72 772.21,-231.88 756.09,-196.66"/>
<polygon fill="midnightblue" stroke="midnightblue" points="759.27,-195.2 751.92,-187.57 752.9,-198.12 759.27,-195.2"/>
</g>
<!-- Node21 -->
<g id="node21" class="node">
<title>Node21</title>
<g id="a_node21"><a xlink:title=" ">
<polygon fill="none" stroke="#bfbfbf" points="930,-56.5 930,-75.5 972,-75.5 972,-56.5 930,-56.5"/>
<text text-anchor="middle" x="951" y="-63.5" font-family="Helvetica,sans-Serif" font-size="10.00">array</text>
</a>
</g>
</g>
<!-- Node12&#45;&gt;Node21 -->
<g id="edge52" class="edge">
<title>Node12&#45;&gt;Node21</title>
<path fill="none" stroke="midnightblue" d="M838.7,-336.34C872.06,-315.7 952.93,-259.94 983,-188 997.8,-152.58 976.94,-108.43 962.58,-84.46"/>
<polygon fill="midnightblue" stroke="midnightblue" points="965.41,-82.38 957.13,-75.78 959.48,-86.11 965.41,-82.38"/>
</g>
<!-- Node27 -->
<g id="node27" class="node">
<title>Node27</title>
<g id="a_node27"><a xlink:href="../../d7/de7/_byte_stream_8h.html" target="_top" xlink:title=" ">
<polygon fill="none" stroke="black" points="446.5,-280.5 446.5,-299.5 541.5,-299.5 541.5,-280.5 446.5,-280.5"/>
<text text-anchor="middle" x="494" y="-287.5" font-family="Helvetica,sans-Serif" font-size="10.00">io/ByteStream.h</text>
</a>
</g>
</g>
<!-- Node12&#45;&gt;Node27 -->
<g id="edge39" class="edge">
<title>Node12&#45;&gt;Node27</title>
<path fill="none" stroke="midnightblue" d="M780.86,-337.94C722.24,-328.35 617.24,-311.17 551.84,-300.46"/>
<polygon fill="midnightblue" stroke="midnightblue" points="552.13,-296.97 541.7,-298.8 551,-303.87 552.13,-296.97"/>
</g>
<!-- Node13&#45;&gt;Node2 -->
<g id="edge16" class="edge">
<title>Node13&#45;&gt;Node2</title>
<path fill="none" stroke="midnightblue" d="M797.92,-224.45C771.04,-215.57 727.97,-201.17 691,-188 600.25,-155.67 580.94,-137.37 488,-112 425.69,-94.99 353,-82.9 301.21,-75.57"/>
<polygon fill="midnightblue" stroke="midnightblue" points="301.53,-72.08 291.14,-74.16 300.56,-79.01 301.53,-72.08"/>
</g>
<!-- Node13&#45;&gt;Node4 -->
<g id="edge35" class="edge">
<title>Node13&#45;&gt;Node4</title>
<path fill="none" stroke="midnightblue" d="M824.67,-224.17C826.07,-210.82 830.33,-185.24 843,-168 889.77,-104.34 1034.23,-114.36 981,-56 950.69,-22.77 637.49,-13.73 529.43,-11.59"/>
<polygon fill="midnightblue" stroke="midnightblue" points="529.39,-8.09 519.33,-11.4 529.26,-15.09 529.39,-8.09"/>
</g>
<!-- Node13&#45;&gt;Node6 -->
<g id="edge36" class="edge">
<title>Node13&#45;&gt;Node6</title>
<path fill="none" stroke="midnightblue" d="M857.1,-229.94C891.25,-225.42 944.77,-214.42 983,-188 1044.54,-145.47 1088.54,-64.54 1105.86,-28.76"/>
<polygon fill="midnightblue" stroke="midnightblue" points="1109.1,-30.11 1110.2,-19.57 1102.77,-27.12 1109.1,-30.11"/>
</g>
<!-- Node14 -->
<g id="node14" class="node">
<title>Node14</title>
<g id="a_node14"><a xlink:href="../../d2/d4f/_address_sanitizer_8h.html" target="_top" xlink:title=" ">
<polygon fill="none" stroke="black" points="370.5,-168.5 370.5,-187.5 477.5,-187.5 477.5,-168.5 370.5,-168.5"/>
<text text-anchor="middle" x="424" y="-175.5" font-family="Helvetica,sans-Serif" font-size="10.00">AddressSanitizer.h</text>
</a>
</g>
</g>
<!-- Node13&#45;&gt;Node14 -->
<g id="edge14" class="edge">
<title>Node13&#45;&gt;Node14</title>
<path fill="none" stroke="midnightblue" d="M790.98,-228.69C732.26,-221.01 605.56,-204.34 487.54,-188.06"/>
<polygon fill="midnightblue" stroke="midnightblue" points="488,-184.59 477.61,-186.69 487.04,-191.53 488,-184.59"/>
</g>
<!-- Node16 -->
<g id="node16" class="node">
<title>Node16</title>
<g id="a_node16"><a xlink:href="../../d3/de6/_memory_8h.html" target="_top" xlink:title=" ">
<polygon fill="none" stroke="black" points="496,-168.5 496,-187.5 606,-187.5 606,-168.5 496,-168.5"/>
<text text-anchor="middle" x="551" y="-175.5" font-family="Helvetica,sans-Serif" font-size="10.00">common/Memory.h</text>
</a>
</g>
</g>
<!-- Node13&#45;&gt;Node16 -->
<g id="edge17" class="edge">
<title>Node13&#45;&gt;Node16</title>
<path fill="none" stroke="midnightblue" d="M790.8,-226.43C744.38,-217.25 659.58,-200.48 604.27,-189.54"/>
<polygon fill="midnightblue" stroke="midnightblue" points="604.79,-186.07 594.3,-187.56 603.43,-192.94 604.79,-186.07"/>
</g>
<!-- Node13&#45;&gt;Node18 -->
<g id="edge22" class="edge">
<title>Node13&#45;&gt;Node18</title>
<path fill="none" stroke="midnightblue" d="M857,-232.79C903.7,-231.16 990.44,-223.15 1054,-188 1074.86,-176.46 1092.7,-155.28 1103.6,-140.23"/>
<polygon fill="midnightblue" stroke="midnightblue" points="1106.63,-142.01 1109.46,-131.8 1100.88,-138.01 1106.63,-142.01"/>
</g>
<!-- Node13&#45;&gt;Node19 -->
<g id="edge26" class="edge">
<title>Node13&#45;&gt;Node19</title>
<path fill="none" stroke="midnightblue" d="M811.79,-224.32C800.22,-216.11 782.62,-203.6 768.84,-193.81"/>
<polygon fill="midnightblue" stroke="midnightblue" points="770.61,-190.77 760.43,-187.83 766.56,-196.48 770.61,-190.77"/>
</g>
<!-- Node25 -->
<g id="node25" class="node">
<title>Node25</title>
<g id="a_node25"><a xlink:title=" ">
<polygon fill="none" stroke="#bfbfbf" points="852,-168.5 852,-187.5 910,-187.5 910,-168.5 852,-168.5"/>
<text text-anchor="middle" x="881" y="-175.5" font-family="Helvetica,sans-Serif" font-size="10.00">memory</text>
</a>
</g>
</g>
<!-- Node13&#45;&gt;Node25 -->
<g id="edge37" class="edge">
<title>Node13&#45;&gt;Node25</title>
<path fill="none" stroke="midnightblue" d="M833.16,-224.32C841.5,-216.42 854.03,-204.55 864.18,-194.94"/>
<polygon fill="midnightblue" stroke="midnightblue" points="866.82,-197.25 871.68,-187.83 862.01,-192.17 866.82,-197.25"/>
</g>
<!-- Node26 -->
<g id="node26" class="node">
<title>Node26</title>
<g id="a_node26"><a xlink:title=" ">
<polygon fill="none" stroke="#bfbfbf" points="928.5,-168.5 928.5,-187.5 973.5,-187.5 973.5,-168.5 928.5,-168.5"/>
<text text-anchor="middle" x="951" y="-175.5" font-family="Helvetica,sans-Serif" font-size="10.00">utility</text>
</a>
</g>
</g>
<!-- Node13&#45;&gt;Node26 -->
<g id="edge38" class="edge">
<title>Node13&#45;&gt;Node26</title>
<path fill="none" stroke="midnightblue" d="M844.12,-224.44C865.02,-215.56 897.93,-201.56 921.72,-191.45"/>
<polygon fill="midnightblue" stroke="midnightblue" points="923.14,-194.65 930.97,-187.52 920.4,-188.21 923.14,-194.65"/>
</g>
<!-- Node15 -->
<g id="node15" class="node">
<title>Node15</title>
<g id="a_node15"><a xlink:title=" ">
<polygon fill="none" stroke="#bfbfbf" points="393.5,-112.5 393.5,-131.5 446.5,-131.5 446.5,-112.5 393.5,-112.5"/>
<text text-anchor="middle" x="420" y="-119.5" font-family="Helvetica,sans-Serif" font-size="10.00">cstddef</text>
</a>
</g>
</g>
<!-- Node14&#45;&gt;Node15 -->
<g id="edge15" class="edge">
<title>Node14&#45;&gt;Node15</title>
<path fill="none" stroke="midnightblue" d="M423.34,-168.08C422.82,-161.01 422.06,-150.86 421.41,-141.99"/>
<polygon fill="midnightblue" stroke="midnightblue" points="424.88,-141.47 420.65,-131.75 417.9,-141.98 424.88,-141.47"/>
</g>
<!-- Node16&#45;&gt;Node2 -->
<g id="edge19" class="edge">
<title>Node16&#45;&gt;Node2</title>
<path fill="none" stroke="midnightblue" d="M541.13,-168.33C524.55,-154.24 489.52,-126.5 455,-112 405.79,-91.33 346.35,-79.93 301.37,-73.78"/>
<polygon fill="midnightblue" stroke="midnightblue" points="301.79,-70.3 291.42,-72.47 300.88,-77.24 301.79,-70.3"/>
</g>
<!-- Node16&#45;&gt;Node6 -->
<g id="edge21" class="edge">
<title>Node16&#45;&gt;Node6</title>
<path fill="none" stroke="midnightblue" d="M547.31,-168.27C538.64,-146.2 519.78,-87.64 549,-56 567.04,-36.46 957.67,-17.83 1078.63,-12.51"/>
<polygon fill="midnightblue" stroke="midnightblue" points="1078.98,-15.99 1088.82,-12.06 1078.68,-9 1078.98,-15.99"/>
</g>
<!-- Node16&#45;&gt;Node15 -->
<g id="edge20" class="edge">
<title>Node16&#45;&gt;Node15</title>
<path fill="none" stroke="midnightblue" d="M530.24,-168.44C508.68,-159.56 474.74,-145.56 450.21,-135.45"/>
<polygon fill="midnightblue" stroke="midnightblue" points="451.24,-132.09 440.66,-131.52 448.57,-138.56 451.24,-132.09"/>
</g>
<!-- Node17 -->
<g id="node17" class="node">
<title>Node17</title>
<g id="a_node17"><a xlink:title=" ">
<polygon fill="none" stroke="#bfbfbf" points="591,-56.5 591,-75.5 693,-75.5 693,-56.5 591,-56.5"/>
<text text-anchor="middle" x="642" y="-63.5" font-family="Helvetica,sans-Serif" font-size="10.00">rawspeedconfig.h</text>
</a>
</g>
</g>
<!-- Node16&#45;&gt;Node17 -->
<g id="edge18" class="edge">
<title>Node16&#45;&gt;Node17</title>
<path fill="none" stroke="midnightblue" d="M558.14,-168.37C573.29,-150.05 608.87,-107.05 628.46,-83.36"/>
<polygon fill="midnightblue" stroke="midnightblue" points="631.22,-85.53 634.89,-75.59 625.82,-81.07 631.22,-85.53"/>
</g>
<!-- Node18&#45;&gt;Node4 -->
<g id="edge23" class="edge">
<title>Node18&#45;&gt;Node4</title>
<path fill="none" stroke="midnightblue" d="M1103.12,-112.31C1080.78,-96.14 1033.04,-62.5 1014,-56 923.96,-25.26 632.15,-14.69 529.29,-11.87"/>
<polygon fill="midnightblue" stroke="midnightblue" points="529.19,-8.37 519.1,-11.6 529,-15.36 529.19,-8.37"/>
</g>
<!-- Node18&#45;&gt;Node6 -->
<g id="edge24" class="edge">
<title>Node18&#45;&gt;Node6</title>
<path fill="none" stroke="midnightblue" d="M1118.74,-112.21C1123.59,-99.77 1131.08,-76.25 1128,-56 1126.63,-47 1123.81,-37.33 1121.05,-29.26"/>
<polygon fill="midnightblue" stroke="midnightblue" points="1124.31,-27.98 1117.6,-19.78 1117.73,-30.37 1124.31,-27.98"/>
</g>
<!-- Node18&#45;&gt;Node7 -->
<g id="edge25" class="edge">
<title>Node18&#45;&gt;Node7</title>
<path fill="none" stroke="midnightblue" d="M1109.2,-112.22C1099.29,-97.97 1077.66,-69.99 1052,-56 991,-22.74 908.68,-13.91 862.4,-11.66"/>
<polygon fill="midnightblue" stroke="midnightblue" points="862.41,-8.16 852.27,-11.25 862.12,-15.15 862.41,-8.16"/>
</g>
<!-- Node19&#45;&gt;Node17 -->
<g id="edge27" class="edge">
<title>Node19&#45;&gt;Node17</title>
<path fill="none" stroke="midnightblue" d="M732.52,-168.44C718.71,-160.3 698.5,-147.08 684,-132 670.36,-117.82 658.58,-98.59 651,-84.73"/>
<polygon fill="midnightblue" stroke="midnightblue" points="654.01,-82.95 646.25,-75.74 647.82,-86.21 654.01,-82.95"/>
</g>
<!-- Node20 -->
<g id="node20" class="node">
<title>Node20</title>
<g id="a_node20"><a xlink:href="../../d7/d05/_rawspeed_exception_8h.html" target="_top" xlink:title=" ">
<polygon fill="none" stroke="black" points="693,-112.5 693,-131.5 863,-131.5 863,-112.5 693,-112.5"/>
<text text-anchor="middle" x="778" y="-119.5" font-family="Helvetica,sans-Serif" font-size="10.00">common/RawspeedException.h</text>
</a>
</g>
</g>
<!-- Node19&#45;&gt;Node20 -->
<g id="edge28" class="edge">
<title>Node19&#45;&gt;Node20</title>
<path fill="none" stroke="midnightblue" d="M752.95,-168.08C757.1,-160.61 763.15,-149.72 768.27,-140.52"/>
<polygon fill="midnightblue" stroke="midnightblue" points="771.34,-142.19 773.14,-131.75 765.22,-138.79 771.34,-142.19"/>
</g>
<!-- Node20&#45;&gt;Node2 -->
<g id="edge30" class="edge">
<title>Node20&#45;&gt;Node2</title>
<path fill="none" stroke="midnightblue" d="M692.84,-112.56C584.85,-101.86 400.76,-83.62 301.42,-73.78"/>
<polygon fill="midnightblue" stroke="midnightblue" points="301.49,-70.27 291.2,-72.77 300.8,-77.24 301.49,-70.27"/>
</g>
<!-- Node20&#45;&gt;Node17 -->
<g id="edge29" class="edge">
<title>Node20&#45;&gt;Node17</title>
<path fill="none" stroke="midnightblue" d="M756.45,-112.44C733.97,-103.52 698.51,-89.44 673.02,-79.32"/>
<polygon fill="midnightblue" stroke="midnightblue" points="674.03,-75.95 663.45,-75.52 671.45,-82.46 674.03,-75.95"/>
</g>
<!-- Node20&#45;&gt;Node21 -->
<g id="edge31" class="edge">
<title>Node20&#45;&gt;Node21</title>
<path fill="none" stroke="midnightblue" d="M805.41,-112.44C836.62,-102.7 887.48,-86.83 920.08,-76.65"/>
<polygon fill="midnightblue" stroke="midnightblue" points="921.47,-79.88 929.97,-73.56 919.39,-73.2 921.47,-79.88"/>
</g>
<!-- Node22 -->
<g id="node22" class="node">
<title>Node22</title>
<g id="a_node22"><a xlink:title=" ">
<polygon fill="none" stroke="#bfbfbf" points="794.5,-56.5 794.5,-75.5 847.5,-75.5 847.5,-56.5 794.5,-56.5"/>
<text text-anchor="middle" x="821" y="-63.5" font-family="Helvetica,sans-Serif" font-size="10.00">cstdarg</text>
</a>
</g>
</g>
<!-- Node20&#45;&gt;Node22 -->
<g id="edge32" class="edge">
<title>Node20&#45;&gt;Node22</title>
<path fill="none" stroke="midnightblue" d="M785.1,-112.08C791.24,-104.38 800.27,-93.03 807.74,-83.65"/>
<polygon fill="midnightblue" stroke="midnightblue" points="810.54,-85.75 814.03,-75.75 805.06,-81.39 810.54,-85.75"/>
</g>
<!-- Node23 -->
<g id="node23" class="node">
<title>Node23</title>
<g id="a_node23"><a xlink:title=" ">
<polygon fill="none" stroke="#bfbfbf" points="866,-56.5 866,-75.5 912,-75.5 912,-56.5 866,-56.5"/>
<text text-anchor="middle" x="889" y="-63.5" font-family="Helvetica,sans-Serif" font-size="10.00">cstdio</text>
</a>
</g>
</g>
<!-- Node20&#45;&gt;Node23 -->
<g id="edge33" class="edge">
<title>Node20&#45;&gt;Node23</title>
<path fill="none" stroke="midnightblue" d="M795.83,-112.32C813.72,-103.62 841.48,-90.12 862.05,-80.11"/>
<polygon fill="midnightblue" stroke="midnightblue" points="863.75,-83.18 871.21,-75.65 860.69,-76.88 863.75,-83.18"/>
</g>
<!-- Node24 -->
<g id="node24" class="node">
<title>Node24</title>
<g id="a_node24"><a xlink:title=" ">
<polygon fill="none" stroke="#bfbfbf" points="711.5,-56.5 711.5,-75.5 776.5,-75.5 776.5,-56.5 711.5,-56.5"/>
<text text-anchor="middle" x="744" y="-63.5" font-family="Helvetica,sans-Serif" font-size="10.00">stdexcept</text>
</a>
</g>
</g>
<!-- Node20&#45;&gt;Node24 -->
<g id="edge34" class="edge">
<title>Node20&#45;&gt;Node24</title>
<path fill="none" stroke="midnightblue" d="M772.39,-112.08C767.63,-104.53 760.68,-93.49 754.85,-84.23"/>
<polygon fill="midnightblue" stroke="midnightblue" points="757.8,-82.35 749.51,-75.75 751.88,-86.08 757.8,-82.35"/>
</g>
<!-- Node27&#45;&gt;Node2 -->
<g id="edge41" class="edge">
<title>Node27&#45;&gt;Node2</title>
<path fill="none" stroke="midnightblue" d="M446.19,-284.75C390.61,-278.84 303.48,-266.28 280,-244 256.92,-222.09 241.2,-126.22 235.44,-85.45"/>
<polygon fill="midnightblue" stroke="midnightblue" points="238.9,-84.96 234.08,-75.52 231.97,-85.9 238.9,-84.96"/>
</g>
<!-- Node27&#45;&gt;Node4 -->
<g id="edge45" class="edge">
<title>Node27&#45;&gt;Node4</title>
<path fill="none" stroke="midnightblue" d="M458.26,-280.48C416.49,-268.23 350.25,-241.04 328,-188 313.02,-152.27 279.52,-130.42 343,-56 346.81,-51.54 413.71,-32.62 456.87,-20.78"/>
<polygon fill="midnightblue" stroke="midnightblue" points="458.02,-24.1 466.75,-18.08 456.18,-17.34 458.02,-24.1"/>
</g>
<!-- Node27&#45;&gt;Node6 -->
<g id="edge46" class="edge">
<title>Node27&#45;&gt;Node6</title>
<path fill="none" stroke="midnightblue" d="M512.27,-280.35C540.49,-265.83 593.66,-233.6 615,-188 640.63,-133.23 541.08,-100.53 582,-56 598.86,-37.66 962.76,-18.38 1078.79,-12.68"/>
<polygon fill="midnightblue" stroke="midnightblue" points="1079.1,-16.17 1088.91,-12.19 1078.76,-9.18 1079.1,-16.17"/>
</g>
<!-- Node27&#45;&gt;Node7 -->
<g id="edge47" class="edge">
<title>Node27&#45;&gt;Node7</title>
<path fill="none" stroke="midnightblue" d="M472.97,-280.41C441.78,-266.38 384.46,-235.27 361,-188 348.57,-162.95 380.42,-115.46 384,-112 442.8,-55.07 697.33,-24.07 791.66,-14.37"/>
<polygon fill="midnightblue" stroke="midnightblue" points="792.23,-17.83 801.83,-13.34 791.53,-10.87 792.23,-17.83"/>
</g>
<!-- Node27&#45;&gt;Node13 -->
<g id="edge43" class="edge">
<title>Node27&#45;&gt;Node13</title>
<path fill="none" stroke="midnightblue" d="M541.63,-281.21C605.75,-270.71 718.89,-252.2 780.7,-242.08"/>
<polygon fill="midnightblue" stroke="midnightblue" points="781.59,-245.49 790.9,-240.42 780.46,-238.58 781.59,-245.49"/>
</g>
<!-- Node27&#45;&gt;Node14 -->
<g id="edge40" class="edge">
<title>Node27&#45;&gt;Node14</title>
<path fill="none" stroke="midnightblue" d="M488.51,-280.37C477.01,-262.3 450.2,-220.18 435.01,-196.31"/>
<polygon fill="midnightblue" stroke="midnightblue" points="437.79,-194.15 429.47,-187.59 431.88,-197.91 437.79,-194.15"/>
</g>
<!-- Node27&#45;&gt;Node16 -->
<g id="edge42" class="edge">
<title>Node27&#45;&gt;Node16</title>
<path fill="none" stroke="midnightblue" d="M498.47,-280.37C507.8,-262.38 529.47,-220.55 541.87,-196.63"/>
<polygon fill="midnightblue" stroke="midnightblue" points="545.05,-198.08 546.55,-187.59 538.84,-194.86 545.05,-198.08"/>
</g>
<!-- Node27&#45;&gt;Node19 -->
<g id="edge44" class="edge">
<title>Node27&#45;&gt;Node19</title>
<path fill="none" stroke="midnightblue" d="M535.05,-280.46C566.76,-273.05 611.29,-260.85 648,-244 678.19,-230.14 709.81,-208.13 729.22,-193.62"/>
<polygon fill="midnightblue" stroke="midnightblue" points="731.38,-196.37 737.22,-187.54 727.14,-190.8 731.38,-196.37"/>
</g>
<!-- Node28 -->
<g id="node28" class="node">
<title>Node28</title>
<g id="a_node28"><a xlink:title=" ">
<polygon fill="none" stroke="#bfbfbf" points="289,-224.5 289,-243.5 333,-243.5 333,-224.5 289,-224.5"/>
<text text-anchor="middle" x="311" y="-231.5" font-family="Helvetica,sans-Serif" font-size="10.00">limits</text>
</a>
</g>
</g>
<!-- Node27&#45;&gt;Node28 -->
<g id="edge48" class="edge">
<title>Node27&#45;&gt;Node28</title>
<path fill="none" stroke="midnightblue" d="M465,-280.44C431.85,-270.66 377.72,-254.69 343.26,-244.52"/>
<polygon fill="midnightblue" stroke="midnightblue" points="343.82,-241.04 333.24,-241.56 341.84,-247.75 343.82,-241.04"/>
</g>
</g>
</svg>
