<?xml version="1.0" encoding="UTF-8" standalone="no"?>
<!DOCTYPE svg PUBLIC "-//W3C//DTD SVG 1.1//EN"
 "http://www.w3.org/Graphics/SVG/1.1/DTD/svg11.dtd">
<!-- Generated by graphviz version 2.43.0 (0)
 -->
<!-- Title: rawspeed::VC5Decompressor::Wavelet::AbstractDecodeableBand Pages: 1 -->
<svg width="591pt" height="88pt"
 viewBox="0.00 0.00 591.00 88.00" xmlns="http://www.w3.org/2000/svg" xmlns:xlink="http://www.w3.org/1999/xlink">
<g id="graph0" class="graph" transform="scale(1 1) rotate(0) translate(4 84)">
<title>rawspeed::VC5Decompressor::Wavelet::AbstractDecodeableBand</title>
<!-- Node1 -->
<g id="node1" class="node">
<title>Node1</title>
<g id="a_node1"><a xlink:title=" ">
<polygon fill="#bfbfbf" stroke="black" points="196,-24.5 196,-54.5 387,-54.5 387,-24.5 196,-24.5"/>
<text text-anchor="start" x="204" y="-42.5" font-family="Helvetica,sans-Serif" font-size="10.00">rawspeed::VC5Decompressor</text>
<text text-anchor="middle" x="291.5" y="-31.5" font-family="Helvetica,sans-Serif" font-size="10.00">::Wavelet::AbstractDecodeableBand</text>
</a>
</g>
</g>
<!-- Node3 -->
<g id="node3" class="node">
<title>Node3</title>
<g id="a_node3"><a xlink:href="../../d7/d85/structrawspeed_1_1_v_c5_decompressor_1_1_wavelet_1_1_high_pass_band.html" target="_top" xlink:title=" ">
<polygon fill="none" stroke="black" points="423,-49.5 423,-79.5 583,-79.5 583,-49.5 423,-49.5"/>
<text text-anchor="start" x="431" y="-67.5" font-family="Helvetica,sans-Serif" font-size="10.00">rawspeed::VC5Decompressor</text>
<text text-anchor="middle" x="503" y="-56.5" font-family="Helvetica,sans-Serif" font-size="10.00">::Wavelet::HighPassBand</text>
</a>
</g>
</g>
<!-- Node1&#45;&gt;Node3 -->
<g id="edge2" class="edge">
<title>Node1&#45;&gt;Node3</title>
<path fill="none" stroke="midnightblue" d="M397.23,-52C405.84,-53.02 414.45,-54.05 422.82,-55.05"/>
<polygon fill="midnightblue" stroke="midnightblue" points="397.48,-48.5 387.14,-50.79 396.65,-55.45 397.48,-48.5"/>
</g>
<!-- Node4 -->
<g id="node4" class="node">
<title>Node4</title>
<g id="a_node4"><a xlink:href="../../d9/dec/structrawspeed_1_1_v_c5_decompressor_1_1_wavelet_1_1_low_pass_band.html" target="_top" xlink:title=" ">
<polygon fill="none" stroke="black" points="423,-0.5 423,-30.5 583,-30.5 583,-0.5 423,-0.5"/>
<text text-anchor="start" x="431" y="-18.5" font-family="Helvetica,sans-Serif" font-size="10.00">rawspeed::VC5Decompressor</text>
<text text-anchor="middle" x="503" y="-7.5" font-family="Helvetica,sans-Serif" font-size="10.00">::Wavelet::LowPassBand</text>
</a>
</g>
</g>
<!-- Node1&#45;&gt;Node4 -->
<g id="edge3" class="edge">
<title>Node1&#45;&gt;Node4</title>
<path fill="none" stroke="midnightblue" d="M397.23,-27.5C405.84,-26.52 414.45,-25.53 422.82,-24.57"/>
<polygon fill="midnightblue" stroke="midnightblue" points="396.67,-24.04 387.14,-28.66 397.47,-31 396.67,-24.04"/>
</g>
<!-- Node2 -->
<g id="node2" class="node">
<title>Node2</title>
<g id="a_node2"><a xlink:href="../../dd/d5b/structrawspeed_1_1_v_c5_decompressor_1_1_wavelet_1_1_abstract_band.html" target="_top" xlink:title=" ">
<polygon fill="none" stroke="black" points="0,-24.5 0,-54.5 160,-54.5 160,-24.5 0,-24.5"/>
<text text-anchor="start" x="8" y="-42.5" font-family="Helvetica,sans-Serif" font-size="10.00">rawspeed::VC5Decompressor</text>
<text text-anchor="middle" x="80" y="-31.5" font-family="Helvetica,sans-Serif" font-size="10.00">::Wavelet::AbstractBand</text>
</a>
</g>
</g>
<!-- Node2&#45;&gt;Node1 -->
<g id="edge1" class="edge">
<title>Node2&#45;&gt;Node1</title>
<path fill="none" stroke="midnightblue" d="M170.35,-39.5C178.73,-39.5 187.25,-39.5 195.68,-39.5"/>
<polygon fill="midnightblue" stroke="midnightblue" points="170.2,-36 160.2,-39.5 170.2,-43 170.2,-36"/>
</g>
</g>
</svg>
