<?xml version="1.0" encoding="UTF-8" standalone="no"?>
<!DOCTYPE svg PUBLIC "-//W3C//DTD SVG 1.1//EN"
 "http://www.w3.org/Graphics/SVG/1.1/DTD/svg11.dtd">
<!-- Generated by graphviz version 2.43.0 (0)
 -->
<!-- Title: rawspeed::DngOpcodes Pages: 1 -->
<!--zoomable 242 -->
<svg id="main" version="1.1" xmlns="http://www.w3.org/2000/svg" xmlns:xlink="http://www.w3.org/1999/xlink" xml:space="preserve" onload="init(evt)">
<style type="text/css"><![CDATA[
.edge:hover path { stroke: red; }
.edge:hover polygon { stroke: red; fill: red; }
]]></style>
<script type="text/javascript"><![CDATA[
var edges = document.getElementsByTagName('g');
if (edges && edges.length) {
  for (var i=0;i<edges.length;i++) {
    if (edges[i].id.substr(0,4)=='edge') {
      edges[i].setAttribute('class','edge');
    }
  }
}
]]></script>
        <defs>
                <circle id="rim" cx="0" cy="0" r="7"/>
                <circle id="rim2" cx="0" cy="0" r="3.5"/>
                <g id="zoomPlus">
                        <use xlink:href="#rim" fill="#404040">
                                <set attributeName="fill" to="#808080" begin="zoomplus.mouseover" end="zoomplus.mouseout"/>
                        </use>
                        <path d="M-4,0h8M0,-4v8" fill="none" stroke="white" stroke-width="1.5" pointer-events="none"/>
                </g>
                <g id="zoomMin">
                        <use xlink:href="#rim" fill="#404040">
                                <set attributeName="fill" to="#808080" begin="zoomminus.mouseover" end="zoomminus.mouseout"/>
                        </use>
                        <path d="M-4,0h8" fill="none" stroke="white" stroke-width="1.5" pointer-events="none"/>
                </g>
                <g id="dirArrow">
                        <path fill="none" stroke="white" stroke-width="1.5" d="M0,-3.0v7 M-2.5,-0.5L0,-3.0L2.5,-0.5"/>
                </g>
               <g id="resetDef">
                       <use xlink:href="#rim2" fill="#404040">
                               <set attributeName="fill" to="#808080" begin="reset.mouseover" end="reset.mouseout"/>
                       </use>
               </g>
        </defs>

<script type="text/javascript">
var viewWidth = 1067;
var viewHeight = 242;
var sectionId = 'dynsection-0';
</script>
<script xlink:href="../../svgpan.js"/>
<svg id="graph" class="graph">
<g id="viewport">
<title>rawspeed::DngOpcodes</title>
<!-- Node1 -->
<g id="node1" class="node">
<title>Node1</title>
<g id="a_node1"><a xlink:title=" ">
<polygon fill="#bfbfbf" stroke="black" points="928,-127 928,-146 1059,-146 1059,-127 928,-127"/>
<text text-anchor="middle" x="993.5" y="-134" font-family="Helvetica,sans-Serif" font-size="10.00">rawspeed::DngOpcodes</text>
</a>
</g>
</g>
<!-- Node2 -->
<g id="node2" class="node">
<title>Node2</title>
<g id="a_node2"><a xlink:title=" ">
<polygon fill="none" stroke="#bfbfbf" points="462.5,-157 462.5,-198 583.5,-198 583.5,-157 462.5,-157"/>
<text text-anchor="start" x="470.5" y="-186" font-family="Helvetica,sans-Serif" font-size="10.00">std::map&lt; uint32_t,</text>
<text text-anchor="start" x="470.5" y="-175" font-family="Helvetica,sans-Serif" font-size="10.00"> std::pair&lt; const char</text>
<text text-anchor="middle" x="523" y="-164" font-family="Helvetica,sans-Serif" font-size="10.00"> *, constructor_t &gt; &gt;</text>
</a>
</g>
</g>
<!-- Node2&#45;&gt;Node1 -->
<g id="edge1" class="edge">
<title>Node2&#45;&gt;Node1</title>
<path fill="none" stroke="#9a32cd" stroke-dasharray="5,2" d="M593.95,-171.38C684.24,-163.48 840.13,-149.83 927.79,-142.16"/>
<polygon fill="#9a32cd" stroke="#9a32cd" points="593.47,-167.91 583.81,-172.27 594.08,-174.88 593.47,-167.91"/>
<text text-anchor="middle" x="767.5" y="-165.5" font-family="Helvetica,sans-Serif" font-size="10.00"> Map</text>
</g>
<!-- Node3 -->
<g id="node3" class="node">
<title>Node3</title>
<g id="a_node3"><a xlink:href="../../d3/d87/classuint32__t.html" target="_top" xlink:title=" ">
<polygon fill="none" stroke="black" points="151.5,-214 151.5,-233 207.5,-233 207.5,-214 151.5,-214"/>
<text text-anchor="middle" x="179.5" y="-221" font-family="Helvetica,sans-Serif" font-size="10.00">uint32_t</text>
</a>
</g>
</g>
<!-- Node3&#45;&gt;Node2 -->
<g id="edge2" class="edge">
<title>Node3&#45;&gt;Node2</title>
<path fill="none" stroke="#9a32cd" stroke-dasharray="5,2" d="M217.76,-219.46C265.93,-214.12 352.36,-204.13 426,-193.5 437.79,-191.8 450.37,-189.82 462.4,-187.85"/>
<polygon fill="#9a32cd" stroke="#9a32cd" points="217.35,-215.98 207.8,-220.56 218.12,-222.94 217.35,-215.98"/>
<text text-anchor="middle" x="344.5" y="-216.5" font-family="Helvetica,sans-Serif" font-size="10.00"> keys</text>
</g>
<!-- Node4 -->
<g id="node4" class="node">
<title>Node4</title>
<g id="a_node4"><a xlink:title=" ">
<polygon fill="none" stroke="#bfbfbf" points="125.5,-164.5 125.5,-194.5 233.5,-194.5 233.5,-164.5 125.5,-164.5"/>
<text text-anchor="start" x="133.5" y="-182.5" font-family="Helvetica,sans-Serif" font-size="10.00">pair&lt; const char *,</text>
<text text-anchor="middle" x="179.5" y="-171.5" font-family="Helvetica,sans-Serif" font-size="10.00"> constructor_t &gt;</text>
</a>
</g>
</g>
<!-- Node4&#45;&gt;Node2 -->
<g id="edge3" class="edge">
<title>Node4&#45;&gt;Node2</title>
<path fill="none" stroke="#9a32cd" stroke-dasharray="5,2" d="M243.99,-179.13C306.51,-178.76 401.28,-178.21 462.42,-177.85"/>
<polygon fill="#9a32cd" stroke="#9a32cd" points="243.84,-175.63 233.86,-179.19 243.88,-182.63 243.84,-175.63"/>
<text text-anchor="middle" x="344.5" y="-181.5" font-family="Helvetica,sans-Serif" font-size="10.00"> elements</text>
</g>
<!-- Node5 -->
<g id="node5" class="node">
<title>Node5</title>
<g id="a_node5"><a xlink:title="STL class.">
<polygon fill="none" stroke="#bfbfbf" points="129,-126 129,-145 230,-145 230,-126 129,-126"/>
<text text-anchor="middle" x="179.5" y="-133" font-family="Helvetica,sans-Serif" font-size="10.00">std::map&lt; K, T &gt;</text>
</a>
</g>
</g>
<!-- Node5&#45;&gt;Node2 -->
<g id="edge4" class="edge">
<title>Node5&#45;&gt;Node2</title>
<path fill="none" stroke="orange" stroke-dasharray="5,2" d="M240.5,-136.08C290.45,-137.36 363.26,-141.07 426,-151.5 437.92,-153.48 450.5,-156.33 462.49,-159.41"/>
<polygon fill="orange" stroke="orange" points="240.28,-132.57 230.21,-135.84 240.12,-139.57 240.28,-132.57"/>
<text text-anchor="start" x="263" y="-165.5" font-family="Helvetica,sans-Serif" font-size="10.00"> &lt; uint32_t, std::pair</text>
<text text-anchor="middle" x="344.5" y="-154.5" font-family="Helvetica,sans-Serif" font-size="10.00">&lt; const char *, constructor_t &gt; &gt;</text>
</g>
<!-- Node6 -->
<g id="node6" class="node">
<title>Node6</title>
<g id="a_node6"><a xlink:title=" ">
<polygon fill="none" stroke="#bfbfbf" points="0,-156 0,-175 29,-175 29,-156 0,-156"/>
<text text-anchor="middle" x="14.5" y="-163" font-family="Helvetica,sans-Serif" font-size="10.00">K</text>
</a>
</g>
</g>
<!-- Node6&#45;&gt;Node5 -->
<g id="edge5" class="edge">
<title>Node6&#45;&gt;Node5</title>
<path fill="none" stroke="#9a32cd" stroke-dasharray="5,2" d="M39.18,-161.14C62.6,-156.83 99.15,-150.1 128.94,-144.62"/>
<polygon fill="#9a32cd" stroke="#9a32cd" points="38.32,-157.74 29.12,-162.99 39.59,-164.63 38.32,-157.74"/>
<text text-anchor="middle" x="71.5" y="-161.5" font-family="Helvetica,sans-Serif" font-size="10.00"> keys</text>
</g>
<!-- Node7 -->
<g id="node7" class="node">
<title>Node7</title>
<g id="a_node7"><a xlink:title=" ">
<polygon fill="none" stroke="#bfbfbf" points="0,-88 0,-107 29,-107 29,-88 0,-88"/>
<text text-anchor="middle" x="14.5" y="-95" font-family="Helvetica,sans-Serif" font-size="10.00">T</text>
</a>
</g>
</g>
<!-- Node7&#45;&gt;Node5 -->
<g id="edge6" class="edge">
<title>Node7&#45;&gt;Node5</title>
<path fill="none" stroke="#9a32cd" stroke-dasharray="5,2" d="M38.74,-106.86C41.5,-107.82 44.3,-108.72 47,-109.5 73.62,-117.14 103.9,-123.3 128.7,-127.7"/>
<polygon fill="#9a32cd" stroke="#9a32cd" points="39.72,-103.49 29.13,-103.27 37.27,-110.04 39.72,-103.49"/>
<text text-anchor="middle" x="71.5" y="-123.5" font-family="Helvetica,sans-Serif" font-size="10.00"> elements</text>
</g>
<!-- Node11 -->
<g id="node11" class="node">
<title>Node11</title>
<g id="a_node11"><a xlink:title="STL class.">
<polygon fill="none" stroke="#bfbfbf" points="120.5,-50 120.5,-69 238.5,-69 238.5,-50 120.5,-50"/>
<text text-anchor="middle" x="179.5" y="-57" font-family="Helvetica,sans-Serif" font-size="10.00">std::unique_ptr&lt; T &gt;</text>
</a>
</g>
</g>
<!-- Node7&#45;&gt;Node11 -->
<g id="edge11" class="edge">
<title>Node7&#45;&gt;Node11</title>
<path fill="none" stroke="#9a32cd" stroke-dasharray="5,2" d="M27.82,-79.84C32.99,-73.86 39.55,-67.86 47,-64.5 69.6,-54.32 96.66,-51.87 120.35,-52.43"/>
<polygon fill="#9a32cd" stroke="#9a32cd" points="25.06,-77.69 21.66,-87.72 30.57,-82 25.06,-77.69"/>
<text text-anchor="middle" x="71.5" y="-67.5" font-family="Helvetica,sans-Serif" font-size="10.00"> ptr</text>
</g>
<!-- Node12 -->
<g id="node12" class="node">
<title>Node12</title>
<g id="a_node12"><a xlink:title="STL class.">
<polygon fill="none" stroke="#bfbfbf" points="296,-89 296,-108 393,-108 393,-89 296,-89"/>
<text text-anchor="middle" x="344.5" y="-96" font-family="Helvetica,sans-Serif" font-size="10.00">std::vector&lt; T &gt;</text>
</a>
</g>
</g>
<!-- Node7&#45;&gt;Node12 -->
<g id="edge13" class="edge">
<title>Node7&#45;&gt;Node12</title>
<path fill="none" stroke="#9a32cd" stroke-dasharray="5,2" d="M39.45,-96.66C42,-96.59 44.55,-96.54 47,-96.5 68.78,-96.15 74.22,-96.41 96,-96.5 165.4,-96.78 245.73,-97.5 295.59,-98"/>
<polygon fill="#9a32cd" stroke="#9a32cd" points="39.19,-93.17 29.3,-96.97 39.4,-100.16 39.19,-93.17"/>
<text text-anchor="middle" x="71.5" y="-99.5" font-family="Helvetica,sans-Serif" font-size="10.00"> elements</text>
</g>
<!-- Node8 -->
<g id="node8" class="node">
<title>Node8</title>
<g id="a_node8"><a xlink:title=" ">
<polygon fill="none" stroke="#bfbfbf" points="687,-80 687,-121 848,-121 848,-80 687,-80"/>
<text text-anchor="start" x="695" y="-109" font-family="Helvetica,sans-Serif" font-size="10.00">std::vector&lt; std::unique</text>
<text text-anchor="start" x="695" y="-98" font-family="Helvetica,sans-Serif" font-size="10.00">_ptr&lt; rawspeed::DngOpcodes</text>
<text text-anchor="middle" x="767.5" y="-87" font-family="Helvetica,sans-Serif" font-size="10.00">::DngOpcode &gt; &gt;</text>
</a>
</g>
</g>
<!-- Node8&#45;&gt;Node1 -->
<g id="edge7" class="edge">
<title>Node8&#45;&gt;Node1</title>
<path fill="none" stroke="#9a32cd" stroke-dasharray="5,2" d="M858.07,-114.9C883.35,-118.96 910.21,-123.27 933.22,-126.97"/>
<polygon fill="#9a32cd" stroke="#9a32cd" points="858.53,-111.42 848.1,-113.29 857.42,-118.34 858.53,-111.42"/>
<text text-anchor="middle" x="888" y="-125.5" font-family="Helvetica,sans-Serif" font-size="10.00"> opcodes</text>
</g>
<!-- Node9 -->
<g id="node9" class="node">
<title>Node9</title>
<g id="a_node9"><a xlink:title=" ">
<polygon fill="none" stroke="#bfbfbf" points="444,-33.5 444,-63.5 602,-63.5 602,-33.5 444,-33.5"/>
<text text-anchor="start" x="452" y="-51.5" font-family="Helvetica,sans-Serif" font-size="10.00">std::unique_ptr&lt; rawspeed</text>
<text text-anchor="middle" x="523" y="-40.5" font-family="Helvetica,sans-Serif" font-size="10.00">::DngOpcodes::DngOpcode &gt;</text>
</a>
</g>
</g>
<!-- Node9&#45;&gt;Node8 -->
<g id="edge8" class="edge">
<title>Node9&#45;&gt;Node8</title>
<path fill="none" stroke="#9a32cd" stroke-dasharray="5,2" d="M612.12,-63.93C630.94,-67.5 650.67,-71.45 669,-75.5 675.31,-76.9 681.84,-78.41 688.38,-79.98"/>
<polygon fill="#9a32cd" stroke="#9a32cd" points="612.55,-60.45 602.08,-62.05 611.26,-67.33 612.55,-60.45"/>
<text text-anchor="middle" x="644.5" y="-78.5" font-family="Helvetica,sans-Serif" font-size="10.00"> elements</text>
</g>
<!-- Node10 -->
<g id="node10" class="node">
<title>Node10</title>
<g id="a_node10"><a xlink:href="../../dd/d5f/classrawspeed_1_1_dng_opcodes_1_1_dng_opcode.html" target="_top" xlink:title=" ">
<polygon fill="none" stroke="black" points="114,-0.5 114,-30.5 245,-30.5 245,-0.5 114,-0.5"/>
<text text-anchor="start" x="122" y="-18.5" font-family="Helvetica,sans-Serif" font-size="10.00">rawspeed::DngOpcodes</text>
<text text-anchor="middle" x="179.5" y="-7.5" font-family="Helvetica,sans-Serif" font-size="10.00">::DngOpcode</text>
</a>
</g>
</g>
<!-- Node10&#45;&gt;Node9 -->
<g id="edge9" class="edge">
<title>Node10&#45;&gt;Node9</title>
<path fill="none" stroke="#9a32cd" stroke-dasharray="5,2" d="M255.28,-21.72C303.94,-25.88 368.77,-31.66 426,-37.5 431.84,-38.1 437.88,-38.74 443.95,-39.39"/>
<polygon fill="#9a32cd" stroke="#9a32cd" points="255.41,-18.22 245.15,-20.85 254.82,-25.19 255.41,-18.22"/>
<text text-anchor="middle" x="344.5" y="-40.5" font-family="Helvetica,sans-Serif" font-size="10.00"> ptr</text>
</g>
<!-- Node11&#45;&gt;Node9 -->
<g id="edge10" class="edge">
<title>Node11&#45;&gt;Node9</title>
<path fill="none" stroke="orange" stroke-dasharray="5,2" d="M249.04,-57.29C305.3,-55.48 384.99,-52.91 443.75,-51.02"/>
<polygon fill="orange" stroke="orange" points="248.7,-53.8 238.82,-57.62 248.93,-60.8 248.7,-53.8"/>
<text text-anchor="start" x="279.5" y="-71.5" font-family="Helvetica,sans-Serif" font-size="10.00"> &lt; rawspeed::DngOpcodes</text>
<text text-anchor="middle" x="344.5" y="-60.5" font-family="Helvetica,sans-Serif" font-size="10.00">::DngOpcode &gt;</text>
</g>
<!-- Node12&#45;&gt;Node8 -->
<g id="edge12" class="edge">
<title>Node12&#45;&gt;Node8</title>
<path fill="none" stroke="orange" stroke-dasharray="5,2" d="M403.39,-98.78C476.89,-99.12 604.06,-99.73 686.72,-100.12"/>
<polygon fill="orange" stroke="orange" points="403.4,-95.28 393.38,-98.73 403.37,-102.28 403.4,-95.28"/>
<text text-anchor="start" x="464" y="-124.5" font-family="Helvetica,sans-Serif" font-size="10.00"> &lt; std::unique_ptr&lt;</text>
<text text-anchor="start" x="464" y="-113.5" font-family="Helvetica,sans-Serif" font-size="10.00"> rawspeed::DngOpcodes</text>
<text text-anchor="middle" x="523" y="-102.5" font-family="Helvetica,sans-Serif" font-size="10.00">::DngOpcode &gt; &gt;</text>
</g>
</g>
</svg>
        <g id="navigator" transform="translate(0 0)" fill="#404254">
                <rect fill="#f2f5e9" fill-opacity="0.5" stroke="#606060" stroke-width=".5" x="0" y="0" width="60" height="60"/>
                <use id="zoomplus" xlink:href="#zoomPlus" x="17" y="9" onmousedown="handleZoom(evt,'in')"/>
                <use id="zoomminus" xlink:href="#zoomMin" x="42" y="9" onmousedown="handleZoom(evt,'out')"/>
                <use id="reset" xlink:href="#resetDef" x="30" y="36" onmousedown="handleReset()"/>
                <g id="arrowUp" xlink:href="#dirArrow" transform="translate(30 24)" onmousedown="handlePan(0,-1)">
                  <use xlink:href="#rim" fill="#404040">
                        <set attributeName="fill" to="#808080" begin="arrowUp.mouseover" end="arrowUp.mouseout"/>
                  </use>
                  <path fill="none" stroke="white" stroke-width="1.5" d="M0,-3.0v7 M-2.5,-0.5L0,-3.0L2.5,-0.5"/>
                </g>
                <g id="arrowRight" xlink:href="#dirArrow" transform="rotate(90) translate(36 -43)" onmousedown="handlePan(1,0)">
                  <use xlink:href="#rim" fill="#404040">
                        <set attributeName="fill" to="#808080" begin="arrowRight.mouseover" end="arrowRight.mouseout"/>
                  </use>
                  <path fill="none" stroke="white" stroke-width="1.5" d="M0,-3.0v7 M-2.5,-0.5L0,-3.0L2.5,-0.5"/>
                </g>
                <g id="arrowDown" xlink:href="#dirArrow" transform="rotate(180) translate(-30 -48)" onmousedown="handlePan(0,1)">
                  <use xlink:href="#rim" fill="#404040">
                        <set attributeName="fill" to="#808080" begin="arrowDown.mouseover" end="arrowDown.mouseout"/>
                  </use>
                  <path fill="none" stroke="white" stroke-width="1.5" d="M0,-3.0v7 M-2.5,-0.5L0,-3.0L2.5,-0.5"/>
                </g>
                <g id="arrowLeft" xlink:href="#dirArrow" transform="rotate(270) translate(-36 17)" onmousedown="handlePan(-1,0)">
                  <use xlink:href="#rim" fill="#404040">
                        <set attributeName="fill" to="#808080" begin="arrowLeft.mouseover" end="arrowLeft.mouseout"/>
                  </use>
                  <path fill="none" stroke="white" stroke-width="1.5" d="M0,-3.0v7 M-2.5,-0.5L0,-3.0L2.5,-0.5"/>
                </g>
        </g>
        <svg viewBox="0 0 15 15" width="100%" height="30px" preserveAspectRatio="xMaxYMin meet">
         <g id="arrow_out" transform="scale(0.3 0.3)">
          <a xlink:href="classrawspeed_1_1_dng_opcodes__coll__graph_org.svg" target="_base">
           <rect id="button" ry="5" rx="5" y="6" x="6" height="38" width="38"
                fill="#f2f5e9" fill-opacity="0.5" stroke="#606060" stroke-width="1.0"/>
           <path id="arrow"
             d="M 11.500037,31.436501 C 11.940474,20.09759 22.043105,11.32322 32.158766,21.979434 L 37.068811,17.246167 C 37.068811,17.246167 37.088388,32 37.088388,32 L 22.160133,31.978069 C 22.160133,31.978069 26.997745,27.140456 26.997745,27.140456 C 18.528582,18.264221 13.291696,25.230495 11.500037,31.436501 z"
             style="fill:#404040;"/>
          </a>
         </g>
        </svg>
</svg>
