<?xml version="1.0" encoding="UTF-8" standalone="no"?>
<!DOCTYPE svg PUBLIC "-//W3C//DTD SVG 1.1//EN"
 "http://www.w3.org/Graphics/SVG/1.1/DTD/svg11.dtd">
<!-- Generated by graphviz version 2.43.0 (0)
 -->
<!-- Title: rawspeed::FujiDecompressor::fuji_compressed_params Pages: 1 -->
<svg width="483pt" height="275pt"
 viewBox="0.00 0.00 483.00 275.00" xmlns="http://www.w3.org/2000/svg" xmlns:xlink="http://www.w3.org/1999/xlink">
<g id="graph0" class="graph" transform="scale(1 1) rotate(0) translate(4 271)">
<title>rawspeed::FujiDecompressor::fuji_compressed_params</title>
<!-- Node1 -->
<g id="node1" class="node">
<title>Node1</title>
<g id="a_node1"><a xlink:title=" ">
<polygon fill="#bfbfbf" stroke="black" points="233.5,-0.5 233.5,-30.5 390.5,-30.5 390.5,-0.5 233.5,-0.5"/>
<text text-anchor="start" x="241.5" y="-18.5" font-family="Helvetica,sans-Serif" font-size="10.00">rawspeed::FujiDecompressor</text>
<text text-anchor="middle" x="312" y="-7.5" font-family="Helvetica,sans-Serif" font-size="10.00">::fuji_compressed_params</text>
</a>
</g>
</g>
<!-- Node2 -->
<g id="node2" class="node">
<title>Node2</title>
<g id="a_node2"><a xlink:title=" ">
<polygon fill="none" stroke="#bfbfbf" points="49,-96 49,-115 161,-115 161,-96 49,-96"/>
<text text-anchor="middle" x="105" y="-103" font-family="Helvetica,sans-Serif" font-size="10.00">std::vector&lt; char &gt;</text>
</a>
</g>
</g>
<!-- Node2&#45;&gt;Node1 -->
<g id="edge1" class="edge">
<title>Node2&#45;&gt;Node1</title>
<path fill="none" stroke="#9a32cd" stroke-dasharray="5,2" d="M134.67,-91.79C161,-80.52 200.55,-63.62 235,-49 249.29,-42.93 265.09,-36.26 278.63,-30.55"/>
<polygon fill="#9a32cd" stroke="#9a32cd" points="133.07,-88.67 125.25,-95.82 135.83,-95.1 133.07,-88.67"/>
<text text-anchor="middle" x="255" y="-52" font-family="Helvetica,sans-Serif" font-size="10.00"> q_table</text>
</g>
<!-- Node3 -->
<g id="node3" class="node">
<title>Node3</title>
<g id="a_node3"><a xlink:title=" ">
<polygon fill="none" stroke="#bfbfbf" points="0,-180.5 0,-199.5 38,-199.5 38,-180.5 0,-180.5"/>
<text text-anchor="middle" x="19" y="-187.5" font-family="Helvetica,sans-Serif" font-size="10.00">char</text>
</a>
</g>
</g>
<!-- Node3&#45;&gt;Node2 -->
<g id="edge2" class="edge">
<title>Node3&#45;&gt;Node2</title>
<path fill="none" stroke="#9a32cd" stroke-dasharray="5,2" d="M32.54,-172.27C38.31,-165.45 45.25,-157.63 52,-151 65.53,-137.69 82.55,-123.86 93.6,-115.22"/>
<polygon fill="#9a32cd" stroke="#9a32cd" points="29.66,-170.27 25.97,-180.2 35.05,-174.74 29.66,-170.27"/>
<text text-anchor="middle" x="76.5" y="-154" font-family="Helvetica,sans-Serif" font-size="10.00"> elements</text>
</g>
<!-- Node4 -->
<g id="node4" class="node">
<title>Node4</title>
<g id="a_node4"><a xlink:title="STL class.">
<polygon fill="none" stroke="#bfbfbf" points="56.5,-180.5 56.5,-199.5 153.5,-199.5 153.5,-180.5 56.5,-180.5"/>
<text text-anchor="middle" x="105" y="-187.5" font-family="Helvetica,sans-Serif" font-size="10.00">std::vector&lt; T &gt;</text>
</a>
</g>
</g>
<!-- Node4&#45;&gt;Node2 -->
<g id="edge3" class="edge">
<title>Node4&#45;&gt;Node2</title>
<path fill="none" stroke="orange" stroke-dasharray="5,2" d="M105,-170.43C105,-153.13 105,-128.11 105,-115.1"/>
<polygon fill="orange" stroke="orange" points="101.5,-170.48 105,-180.48 108.5,-170.48 101.5,-170.48"/>
<text text-anchor="middle" x="128.5" y="-154" font-family="Helvetica,sans-Serif" font-size="10.00"> &lt; char &gt;</text>
</g>
<!-- Node5 -->
<g id="node5" class="node">
<title>Node5</title>
<g id="a_node5"><a xlink:title=" ">
<polygon fill="none" stroke="#bfbfbf" points="146.5,-247.5 146.5,-266.5 175.5,-266.5 175.5,-247.5 146.5,-247.5"/>
<text text-anchor="middle" x="161" y="-254.5" font-family="Helvetica,sans-Serif" font-size="10.00">T</text>
</a>
</g>
</g>
<!-- Node5&#45;&gt;Node4 -->
<g id="edge4" class="edge">
<title>Node5&#45;&gt;Node4</title>
<path fill="none" stroke="#9a32cd" stroke-dasharray="5,2" d="M145.5,-239.59C142.32,-236.13 139.02,-232.47 136,-229 127.4,-219.1 117.93,-207.36 111.75,-199.58"/>
<polygon fill="#9a32cd" stroke="#9a32cd" points="143.15,-242.2 152.52,-247.13 148.27,-237.43 143.15,-242.2"/>
<text text-anchor="middle" x="160.5" y="-221" font-family="Helvetica,sans-Serif" font-size="10.00"> elements</text>
</g>
<!-- Node9 -->
<g id="node9" class="node">
<title>Node9</title>
<g id="a_node9"><a xlink:title="STL class.">
<polygon fill="none" stroke="#bfbfbf" points="172,-180.5 172,-199.5 264,-199.5 264,-180.5 172,-180.5"/>
<text text-anchor="middle" x="218" y="-187.5" font-family="Helvetica,sans-Serif" font-size="10.00">std::array&lt; T &gt;</text>
</a>
</g>
</g>
<!-- Node5&#45;&gt;Node9 -->
<g id="edge10" class="edge">
<title>Node5&#45;&gt;Node9</title>
<path fill="none" stroke="#9a32cd" stroke-dasharray="5,2" d="M175.75,-239.46C178.82,-236.01 182.02,-232.39 185,-229 193.77,-219.02 203.76,-207.5 210.43,-199.78"/>
<polygon fill="#9a32cd" stroke="#9a32cd" points="173.06,-237.23 169.03,-247.02 178.29,-241.88 173.06,-237.23"/>
<text text-anchor="middle" x="219.5" y="-221" font-family="Helvetica,sans-Serif" font-size="10.00"> elements</text>
</g>
<!-- Node6 -->
<g id="node6" class="node">
<title>Node6</title>
<g id="a_node6"><a xlink:href="../../d5/df4/classuint16__t.html" target="_top" xlink:title=" ">
<polygon fill="none" stroke="black" points="419,-96 419,-115 475,-115 475,-96 419,-96"/>
<text text-anchor="middle" x="447" y="-103" font-family="Helvetica,sans-Serif" font-size="10.00">uint16_t</text>
</a>
</g>
</g>
<!-- Node6&#45;&gt;Node1 -->
<g id="edge5" class="edge">
<title>Node6&#45;&gt;Node1</title>
<path fill="none" stroke="#9a32cd" stroke-dasharray="5,2" d="M425.07,-90.2C399.91,-73.8 358.9,-47.07 333.8,-30.71"/>
<polygon fill="#9a32cd" stroke="#9a32cd" points="423.27,-93.21 433.56,-95.74 427.1,-87.35 423.27,-93.21"/>
<text text-anchor="middle" x="402" y="-52" font-family="Helvetica,sans-Serif" font-size="10.00"> line_width</text>
</g>
<!-- Node7 -->
<g id="node7" class="node">
<title>Node7</title>
<g id="a_node7"><a xlink:title=" ">
<polygon fill="none" stroke="#bfbfbf" points="296.5,-180.5 296.5,-199.5 325.5,-199.5 325.5,-180.5 296.5,-180.5"/>
<text text-anchor="middle" x="311" y="-187.5" font-family="Helvetica,sans-Serif" font-size="10.00">int</text>
</a>
</g>
</g>
<!-- Node7&#45;&gt;Node1 -->
<g id="edge6" class="edge">
<title>Node7&#45;&gt;Node1</title>
<path fill="none" stroke="#9a32cd" stroke-dasharray="5,2" d="M322.35,-171.53C323.86,-168.46 325.17,-165.22 326,-162 338.6,-113.38 336.14,-98.19 326,-49 324.71,-42.74 322.16,-36.21 319.58,-30.65"/>
<polygon fill="#9a32cd" stroke="#9a32cd" points="319.15,-170.07 317.21,-180.48 325.22,-173.55 319.15,-170.07"/>
<text text-anchor="middle" x="364.5" y="-125" font-family="Helvetica,sans-Serif" font-size="10.00"> maxDiff</text>
<text text-anchor="middle" x="364.5" y="-114" font-family="Helvetica,sans-Serif" font-size="10.00">max_bits</text>
<text text-anchor="middle" x="364.5" y="-103" font-family="Helvetica,sans-Serif" font-size="10.00">min_value</text>
<text text-anchor="middle" x="364.5" y="-92" font-family="Helvetica,sans-Serif" font-size="10.00">total_values</text>
<text text-anchor="middle" x="364.5" y="-81" font-family="Helvetica,sans-Serif" font-size="10.00">raw_bits</text>
</g>
<!-- Node8 -->
<g id="node8" class="node">
<title>Node8</title>
<g id="a_node8"><a xlink:title=" ">
<polygon fill="none" stroke="#bfbfbf" points="194,-96 194,-115 304,-115 304,-96 194,-96"/>
<text text-anchor="middle" x="249" y="-103" font-family="Helvetica,sans-Serif" font-size="10.00">std::array&lt; int, 5 &gt;</text>
</a>
</g>
</g>
<!-- Node7&#45;&gt;Node8 -->
<g id="edge8" class="edge">
<title>Node7&#45;&gt;Node8</title>
<path fill="none" stroke="#9a32cd" stroke-dasharray="5,2" d="M289.62,-174.35C285.11,-170.65 280.63,-166.46 277,-162 265.01,-147.27 256.27,-126.56 251.98,-115.06"/>
<polygon fill="#9a32cd" stroke="#9a32cd" points="287.5,-177.14 297.58,-180.41 291.74,-171.57 287.5,-177.14"/>
<text text-anchor="middle" x="301.5" y="-154" font-family="Helvetica,sans-Serif" font-size="10.00"> elements</text>
</g>
<!-- Node8&#45;&gt;Node1 -->
<g id="edge7" class="edge">
<title>Node8&#45;&gt;Node1</title>
<path fill="none" stroke="#9a32cd" stroke-dasharray="5,2" d="M260.12,-86.99C267.27,-75.93 276.91,-61.44 286,-49 290.52,-42.82 295.76,-36.18 300.34,-30.53"/>
<polygon fill="#9a32cd" stroke="#9a32cd" points="256.99,-85.38 254.54,-95.69 262.88,-89.16 256.99,-85.38"/>
<text text-anchor="middle" x="306" y="-52" font-family="Helvetica,sans-Serif" font-size="10.00"> q_point</text>
</g>
<!-- Node9&#45;&gt;Node8 -->
<g id="edge9" class="edge">
<title>Node9&#45;&gt;Node8</title>
<path fill="none" stroke="orange" stroke-dasharray="5,2" d="M205.32,-171.8C202.04,-165.26 200.14,-157.76 203,-151 209.51,-135.65 224.18,-123.01 235.22,-115.18"/>
<polygon fill="orange" stroke="orange" points="202.47,-173.85 210.72,-180.5 208.42,-170.16 202.47,-173.85"/>
<text text-anchor="middle" x="228.5" y="-154" font-family="Helvetica,sans-Serif" font-size="10.00"> &lt; int, 5 &gt;</text>
</g>
</g>
</svg>
