<?xml version="1.0" encoding="UTF-8" standalone="no"?>
<!DOCTYPE svg PUBLIC "-//W3C//DTD SVG 1.1//EN"
 "http://www.w3.org/Graphics/SVG/1.1/DTD/svg11.dtd">
<!-- Generated by graphviz version 2.43.0 (0)
 -->
<!-- Title: librawspeed/io/BitStream.cpp Pages: 1 -->
<!--zoomable 420 -->
<svg id="main" version="1.1" xmlns="http://www.w3.org/2000/svg" xmlns:xlink="http://www.w3.org/1999/xlink" xml:space="preserve" onload="init(evt)">
<style type="text/css"><![CDATA[
.edge:hover path { stroke: red; }
.edge:hover polygon { stroke: red; fill: red; }
]]></style>
<script type="text/javascript"><![CDATA[
var edges = document.getElementsByTagName('g');
if (edges && edges.length) {
  for (var i=0;i<edges.length;i++) {
    if (edges[i].id.substr(0,4)=='edge') {
      edges[i].setAttribute('class','edge');
    }
  }
}
]]></script>
        <defs>
                <circle id="rim" cx="0" cy="0" r="7"/>
                <circle id="rim2" cx="0" cy="0" r="3.5"/>
                <g id="zoomPlus">
                        <use xlink:href="#rim" fill="#404040">
                                <set attributeName="fill" to="#808080" begin="zoomplus.mouseover" end="zoomplus.mouseout"/>
                        </use>
                        <path d="M-4,0h8M0,-4v8" fill="none" stroke="white" stroke-width="1.5" pointer-events="none"/>
                </g>
                <g id="zoomMin">
                        <use xlink:href="#rim" fill="#404040">
                                <set attributeName="fill" to="#808080" begin="zoomminus.mouseover" end="zoomminus.mouseout"/>
                        </use>
                        <path d="M-4,0h8" fill="none" stroke="white" stroke-width="1.5" pointer-events="none"/>
                </g>
                <g id="dirArrow">
                        <path fill="none" stroke="white" stroke-width="1.5" d="M0,-3.0v7 M-2.5,-0.5L0,-3.0L2.5,-0.5"/>
                </g>
               <g id="resetDef">
                       <use xlink:href="#rim2" fill="#404040">
                               <set attributeName="fill" to="#808080" begin="reset.mouseover" end="reset.mouseout"/>
                       </use>
               </g>
        </defs>

<script type="text/javascript">
var viewWidth = 1156;
var viewHeight = 420;
var sectionId = 'dynsection-0';
</script>
<script xlink:href="../../svgpan.js"/>
<svg id="graph" class="graph">
<g id="viewport">
<title>librawspeed/io/BitStream.cpp</title>
<!-- Node1 -->
<g id="node1" class="node">
<title>Node1</title>
<g id="a_node1"><a xlink:title=" ">
<polygon fill="#bfbfbf" stroke="black" points="351,-392.5 351,-411.5 511,-411.5 511,-392.5 351,-392.5"/>
<text text-anchor="middle" x="431" y="-399.5" font-family="Helvetica,sans-Serif" font-size="10.00">librawspeed/io/BitStream.cpp</text>
</a>
</g>
</g>
<!-- Node2 -->
<g id="node2" class="node">
<title>Node2</title>
<g id="a_node2"><a xlink:href="../../d7/dc3/_bit_stream_8h.html" target="_top" xlink:title=" ">
<polygon fill="none" stroke="black" points="388,-336.5 388,-355.5 474,-355.5 474,-336.5 388,-336.5"/>
<text text-anchor="middle" x="431" y="-343.5" font-family="Helvetica,sans-Serif" font-size="10.00">io/BitStream.h</text>
</a>
</g>
</g>
<!-- Node1&#45;&gt;Node2 -->
<g id="edge1" class="edge">
<title>Node1&#45;&gt;Node2</title>
<path fill="none" stroke="midnightblue" d="M431,-392.08C431,-385.01 431,-374.86 431,-365.99"/>
<polygon fill="midnightblue" stroke="midnightblue" points="434.5,-365.75 431,-355.75 427.5,-365.75 434.5,-365.75"/>
</g>
<!-- Node3 -->
<g id="node3" class="node">
<title>Node3</title>
<g id="a_node3"><a xlink:href="../../d9/df5/src_2librawspeed_2common_2_common_8h.html" target="_top" xlink:title=" ">
<polygon fill="none" stroke="black" points="768,-56.5 768,-75.5 884,-75.5 884,-56.5 768,-56.5"/>
<text text-anchor="middle" x="826" y="-63.5" font-family="Helvetica,sans-Serif" font-size="10.00">common/Common.h</text>
</a>
</g>
</g>
<!-- Node2&#45;&gt;Node3 -->
<g id="edge2" class="edge">
<title>Node2&#45;&gt;Node3</title>
<path fill="none" stroke="midnightblue" d="M474,-344.95C558.28,-343.97 750.58,-337.41 907,-300 983.66,-281.67 1072,-313.82 1072,-235 1072,-235 1072,-235 1072,-177 1072,-98.81 967.14,-75.83 894.34,-69.3"/>
<polygon fill="midnightblue" stroke="midnightblue" points="894.55,-65.8 884.3,-68.48 893.98,-72.78 894.55,-65.8"/>
</g>
<!-- Node4 -->
<g id="node4" class="node">
<title>Node4</title>
<g id="a_node4"><a xlink:title=" ">
<polygon fill="none" stroke="#bfbfbf" points="112,-0.5 112,-19.5 176,-19.5 176,-0.5 112,-0.5"/>
<text text-anchor="middle" x="144" y="-7.5" font-family="Helvetica,sans-Serif" font-size="10.00">algorithm</text>
</a>
</g>
</g>
<!-- Node2&#45;&gt;Node4 -->
<g id="edge50" class="edge">
<title>Node2&#45;&gt;Node4</title>
<path fill="none" stroke="midnightblue" d="M387.86,-342.68C305.72,-337.74 130.11,-324.6 75,-300 34.72,-282.02 0,-279.11 0,-235 0,-235 0,-235 0,-121 0,-68.76 60.59,-38.01 103.17,-22.85"/>
<polygon fill="midnightblue" stroke="midnightblue" points="104.41,-26.12 112.75,-19.58 102.16,-19.49 104.41,-26.12"/>
</g>
<!-- Node5 -->
<g id="node5" class="node">
<title>Node5</title>
<g id="a_node5"><a xlink:title=" ">
<polygon fill="none" stroke="#bfbfbf" points="1051,-0.5 1051,-19.5 1103,-19.5 1103,-0.5 1051,-0.5"/>
<text text-anchor="middle" x="1077" y="-7.5" font-family="Helvetica,sans-Serif" font-size="10.00">cassert</text>
</a>
</g>
</g>
<!-- Node2&#45;&gt;Node5 -->
<g id="edge52" class="edge">
<title>Node2&#45;&gt;Node5</title>
<path fill="none" stroke="midnightblue" d="M474.4,-343.28C588.32,-338.49 893.83,-323.76 992,-300 1065,-282.33 1148,-310.11 1148,-235 1148,-235 1148,-235 1148,-121 1148,-82.1 1116.27,-46.05 1095.23,-26.43"/>
<polygon fill="midnightblue" stroke="midnightblue" points="1097.56,-23.81 1087.78,-19.74 1092.89,-29.02 1097.56,-23.81"/>
</g>
<!-- Node7 -->
<g id="node7" class="node">
<title>Node7</title>
<g id="a_node7"><a xlink:title=" ">
<polygon fill="none" stroke="#bfbfbf" points="418,-0.5 418,-19.5 468,-19.5 468,-0.5 418,-0.5"/>
<text text-anchor="middle" x="443" y="-7.5" font-family="Helvetica,sans-Serif" font-size="10.00">cstdint</text>
</a>
</g>
</g>
<!-- Node2&#45;&gt;Node7 -->
<g id="edge53" class="edge">
<title>Node2&#45;&gt;Node7</title>
<path fill="none" stroke="midnightblue" d="M387.82,-342.08C285.73,-334.01 38,-307 38,-235 38,-235 38,-235 38,-121 38,-76.89 72.81,-74.18 113,-56 165.1,-32.43 333.65,-18.42 407.64,-13.27"/>
<polygon fill="midnightblue" stroke="midnightblue" points="408.1,-16.74 417.84,-12.57 407.62,-9.76 408.1,-16.74"/>
</g>
<!-- Node8 -->
<g id="node8" class="node">
<title>Node8</title>
<g id="a_node8"><a xlink:title=" ">
<polygon fill="none" stroke="#bfbfbf" points="598,-0.5 598,-19.5 648,-19.5 648,-0.5 598,-0.5"/>
<text text-anchor="middle" x="623" y="-7.5" font-family="Helvetica,sans-Serif" font-size="10.00">cstring</text>
</a>
</g>
</g>
<!-- Node2&#45;&gt;Node8 -->
<g id="edge54" class="edge">
<title>Node2&#45;&gt;Node8</title>
<path fill="none" stroke="midnightblue" d="M430.01,-336.39C429.02,-327.34 427.56,-312.69 427,-300 424.35,-240.26 422.88,-219.65 453,-168 490.69,-103.37 563.5,-49.69 600.39,-25.23"/>
<polygon fill="midnightblue" stroke="midnightblue" points="602.49,-28.04 608.96,-19.65 598.67,-22.18 602.49,-28.04"/>
</g>
<!-- Node13 -->
<g id="node13" class="node">
<title>Node13</title>
<g id="a_node13"><a xlink:href="../../d7/d1b/_buffer_8h.html" target="_top" xlink:title=" ">
<polygon fill="none" stroke="black" points="595,-224.5 595,-243.5 661,-243.5 661,-224.5 595,-224.5"/>
<text text-anchor="middle" x="628" y="-231.5" font-family="Helvetica,sans-Serif" font-size="10.00">io/Buffer.h</text>
</a>
</g>
</g>
<!-- Node2&#45;&gt;Node13 -->
<g id="edge12" class="edge">
<title>Node2&#45;&gt;Node13</title>
<path fill="none" stroke="midnightblue" d="M446.46,-336.37C480.62,-317.29 562.77,-271.42 603.81,-248.51"/>
<polygon fill="midnightblue" stroke="midnightblue" points="605.59,-251.52 612.61,-243.59 602.18,-245.41 605.59,-251.52"/>
</g>
<!-- Node18 -->
<g id="node18" class="node">
<title>Node18</title>
<g id="a_node18"><a xlink:href="../../d5/d0b/_endianness_8h.html" target="_top" xlink:title=" ">
<polygon fill="none" stroke="black" points="618.5,-56.5 618.5,-75.5 711.5,-75.5 711.5,-56.5 618.5,-56.5"/>
<text text-anchor="middle" x="665" y="-63.5" font-family="Helvetica,sans-Serif" font-size="10.00">io/Endianness.h</text>
</a>
</g>
</g>
<!-- Node2&#45;&gt;Node18 -->
<g id="edge48" class="edge">
<title>Node2&#45;&gt;Node18</title>
<path fill="none" stroke="midnightblue" d="M430.41,-336.2C429.03,-308.39 428.31,-221.16 469,-168 506.2,-119.39 573.4,-92.1 618.61,-78.46"/>
<polygon fill="midnightblue" stroke="midnightblue" points="619.84,-81.75 628.47,-75.6 617.89,-75.03 619.84,-81.75"/>
</g>
<!-- Node19 -->
<g id="node19" class="node">
<title>Node19</title>
<g id="a_node19"><a xlink:href="../../d0/dd8/_i_o_exception_8h.html" target="_top" xlink:title=" ">
<polygon fill="none" stroke="black" points="288,-168.5 288,-187.5 384,-187.5 384,-168.5 288,-168.5"/>
<text text-anchor="middle" x="336" y="-175.5" font-family="Helvetica,sans-Serif" font-size="10.00">io/IOException.h</text>
</a>
</g>
</g>
<!-- Node2&#45;&gt;Node19 -->
<g id="edge49" class="edge">
<title>Node2&#45;&gt;Node19</title>
<path fill="none" stroke="midnightblue" d="M417.75,-336.49C406.08,-328.38 389.37,-315.18 379,-300 356.86,-267.6 344.83,-222.54 339.48,-197.56"/>
<polygon fill="midnightblue" stroke="midnightblue" points="342.89,-196.72 337.48,-187.61 336.02,-198.1 342.89,-196.72"/>
</g>
<!-- Node21 -->
<g id="node21" class="node">
<title>Node21</title>
<g id="a_node21"><a xlink:title=" ">
<polygon fill="none" stroke="#bfbfbf" points="142,-56.5 142,-75.5 184,-75.5 184,-56.5 142,-56.5"/>
<text text-anchor="middle" x="163" y="-63.5" font-family="Helvetica,sans-Serif" font-size="10.00">array</text>
</a>
</g>
</g>
<!-- Node2&#45;&gt;Node21 -->
<g id="edge51" class="edge">
<title>Node2&#45;&gt;Node21</title>
<path fill="none" stroke="midnightblue" d="M387.71,-337.24C309.35,-321.96 152,-285.05 152,-235 152,-235 152,-235 152,-177 152,-144.79 156.73,-107.53 159.98,-85.69"/>
<polygon fill="midnightblue" stroke="midnightblue" points="163.49,-85.95 161.56,-75.53 156.57,-84.87 163.49,-85.95"/>
</g>
<!-- Node27 -->
<g id="node27" class="node">
<title>Node27</title>
<g id="a_node27"><a xlink:href="../../d7/de7/_byte_stream_8h.html" target="_top" xlink:title=" ">
<polygon fill="none" stroke="black" points="802.5,-280.5 802.5,-299.5 897.5,-299.5 897.5,-280.5 802.5,-280.5"/>
<text text-anchor="middle" x="850" y="-287.5" font-family="Helvetica,sans-Serif" font-size="10.00">io/ByteStream.h</text>
</a>
</g>
</g>
<!-- Node2&#45;&gt;Node27 -->
<g id="edge38" class="edge">
<title>Node2&#45;&gt;Node27</title>
<path fill="none" stroke="midnightblue" d="M474.26,-339.42C550.11,-329.65 707.09,-309.42 792.17,-298.45"/>
<polygon fill="midnightblue" stroke="midnightblue" points="792.71,-301.91 802.18,-297.16 791.81,-294.97 792.71,-301.91"/>
</g>
<!-- Node3&#45;&gt;Node4 -->
<g id="edge3" class="edge">
<title>Node3&#45;&gt;Node4</title>
<path fill="none" stroke="midnightblue" d="M767.97,-59.95C752.69,-58.64 736.23,-57.25 721,-56 520.95,-39.63 281.77,-21.41 186.34,-14.19"/>
<polygon fill="midnightblue" stroke="midnightblue" points="186.46,-10.69 176.22,-13.43 185.93,-17.67 186.46,-10.69"/>
</g>
<!-- Node3&#45;&gt;Node5 -->
<g id="edge4" class="edge">
<title>Node3&#45;&gt;Node5</title>
<path fill="none" stroke="midnightblue" d="M869.98,-56.46C911.59,-48.24 976,-35.15 1040.7,-20.23"/>
<polygon fill="midnightblue" stroke="midnightblue" points="1041.71,-23.58 1050.66,-17.91 1040.13,-16.77 1041.71,-23.58"/>
</g>
<!-- Node6 -->
<g id="node6" class="node">
<title>Node6</title>
<g id="a_node6"><a xlink:title=" ">
<polygon fill="none" stroke="#bfbfbf" points="666,-0.5 666,-19.5 716,-19.5 716,-0.5 666,-0.5"/>
<text text-anchor="middle" x="691" y="-7.5" font-family="Helvetica,sans-Serif" font-size="10.00">climits</text>
</a>
</g>
</g>
<!-- Node3&#45;&gt;Node6 -->
<g id="edge5" class="edge">
<title>Node3&#45;&gt;Node6</title>
<path fill="none" stroke="midnightblue" d="M804.61,-56.44C782.29,-47.52 747.1,-33.44 721.79,-23.32"/>
<polygon fill="midnightblue" stroke="midnightblue" points="722.88,-19.98 712.29,-19.52 720.28,-26.48 722.88,-19.98"/>
</g>
<!-- Node3&#45;&gt;Node7 -->
<g id="edge6" class="edge">
<title>Node3&#45;&gt;Node7</title>
<path fill="none" stroke="midnightblue" d="M767.83,-56.8C687.35,-45.45 544.5,-25.31 478.38,-15.99"/>
<polygon fill="midnightblue" stroke="midnightblue" points="478.47,-12.47 468.08,-14.54 477.49,-19.4 478.47,-12.47"/>
</g>
<!-- Node3&#45;&gt;Node8 -->
<g id="edge7" class="edge">
<title>Node3&#45;&gt;Node8</title>
<path fill="none" stroke="midnightblue" d="M793.83,-56.44C756.79,-46.59 696.13,-30.45 657.95,-20.3"/>
<polygon fill="midnightblue" stroke="midnightblue" points="658.84,-16.91 648.28,-17.73 657.05,-23.68 658.84,-16.91"/>
</g>
<!-- Node9 -->
<g id="node9" class="node">
<title>Node9</title>
<g id="a_node9"><a xlink:title=" ">
<polygon fill="none" stroke="#bfbfbf" points="734.5,-0.5 734.5,-19.5 817.5,-19.5 817.5,-0.5 734.5,-0.5"/>
<text text-anchor="middle" x="776" y="-7.5" font-family="Helvetica,sans-Serif" font-size="10.00">initializer_list</text>
</a>
</g>
</g>
<!-- Node3&#45;&gt;Node9 -->
<g id="edge8" class="edge">
<title>Node3&#45;&gt;Node9</title>
<path fill="none" stroke="midnightblue" d="M817.74,-56.08C810.54,-48.3 799.89,-36.8 791.15,-27.37"/>
<polygon fill="midnightblue" stroke="midnightblue" points="793.47,-24.71 784.1,-19.75 788.33,-29.47 793.47,-24.71"/>
</g>
<!-- Node10 -->
<g id="node10" class="node">
<title>Node10</title>
<g id="a_node10"><a xlink:title=" ">
<polygon fill="none" stroke="#bfbfbf" points="836,-0.5 836,-19.5 880,-19.5 880,-0.5 836,-0.5"/>
<text text-anchor="middle" x="858" y="-7.5" font-family="Helvetica,sans-Serif" font-size="10.00">string</text>
</a>
</g>
</g>
<!-- Node3&#45;&gt;Node10 -->
<g id="edge9" class="edge">
<title>Node3&#45;&gt;Node10</title>
<path fill="none" stroke="midnightblue" d="M831.28,-56.08C835.71,-48.61 842.16,-37.72 847.62,-28.52"/>
<polygon fill="midnightblue" stroke="midnightblue" points="850.73,-30.14 852.81,-19.75 844.71,-26.57 850.73,-30.14"/>
</g>
<!-- Node11 -->
<g id="node11" class="node">
<title>Node11</title>
<g id="a_node11"><a xlink:title=" ">
<polygon fill="none" stroke="#bfbfbf" points="898.5,-0.5 898.5,-19.5 967.5,-19.5 967.5,-0.5 898.5,-0.5"/>
<text text-anchor="middle" x="933" y="-7.5" font-family="Helvetica,sans-Serif" font-size="10.00">type_traits</text>
</a>
</g>
</g>
<!-- Node3&#45;&gt;Node11 -->
<g id="edge10" class="edge">
<title>Node3&#45;&gt;Node11</title>
<path fill="none" stroke="midnightblue" d="M843.19,-56.32C860.35,-47.66 886.95,-34.24 906.75,-24.25"/>
<polygon fill="midnightblue" stroke="midnightblue" points="908.5,-27.28 915.85,-19.65 905.35,-21.04 908.5,-27.28"/>
</g>
<!-- Node12 -->
<g id="node12" class="node">
<title>Node12</title>
<g id="a_node12"><a xlink:title=" ">
<polygon fill="none" stroke="#bfbfbf" points="985.5,-0.5 985.5,-19.5 1032.5,-19.5 1032.5,-0.5 985.5,-0.5"/>
<text text-anchor="middle" x="1009" y="-7.5" font-family="Helvetica,sans-Serif" font-size="10.00">vector</text>
</a>
</g>
</g>
<!-- Node3&#45;&gt;Node12 -->
<g id="edge11" class="edge">
<title>Node3&#45;&gt;Node12</title>
<path fill="none" stroke="midnightblue" d="M855,-56.44C887.84,-46.75 941.25,-30.99 975.75,-20.81"/>
<polygon fill="midnightblue" stroke="midnightblue" points="976.78,-24.16 985.38,-17.97 974.79,-17.44 976.78,-24.16"/>
</g>
<!-- Node13&#45;&gt;Node3 -->
<g id="edge15" class="edge">
<title>Node13&#45;&gt;Node3</title>
<path fill="none" stroke="midnightblue" d="M634.46,-224.44C644.49,-211.46 664.76,-186.34 685,-168 723.66,-132.97 774.57,-99.09 803.44,-80.86"/>
<polygon fill="midnightblue" stroke="midnightblue" points="805.38,-83.77 812,-75.5 801.67,-77.84 805.38,-83.77"/>
</g>
<!-- Node13&#45;&gt;Node5 -->
<g id="edge34" class="edge">
<title>Node13&#45;&gt;Node5</title>
<path fill="none" stroke="midnightblue" d="M661.26,-231.9C700.65,-229.11 766.77,-219.65 813,-188 846.98,-164.74 834.61,-138.66 866,-112 919.38,-66.66 996.6,-36.57 1041.31,-21.76"/>
<polygon fill="midnightblue" stroke="midnightblue" points="1042.44,-25.08 1050.87,-18.66 1040.28,-18.42 1042.44,-25.08"/>
</g>
<!-- Node13&#45;&gt;Node7 -->
<g id="edge35" class="edge">
<title>Node13&#45;&gt;Node7</title>
<path fill="none" stroke="midnightblue" d="M594.52,-233.79C530.86,-234.2 388.91,-229.84 279,-188 202.57,-158.91 166.79,-150.47 133,-76 129.33,-67.91 127.18,-62.72 133,-56 168.19,-15.33 334.03,-10.64 407.65,-10.61"/>
<polygon fill="midnightblue" stroke="midnightblue" points="407.8,-14.11 417.81,-10.64 407.82,-7.11 407.8,-14.11"/>
</g>
<!-- Node14 -->
<g id="node14" class="node">
<title>Node14</title>
<g id="a_node14"><a xlink:href="../../d2/d4f/_address_sanitizer_8h.html" target="_top" xlink:title=" ">
<polygon fill="none" stroke="black" points="860.5,-168.5 860.5,-187.5 967.5,-187.5 967.5,-168.5 860.5,-168.5"/>
<text text-anchor="middle" x="914" y="-175.5" font-family="Helvetica,sans-Serif" font-size="10.00">AddressSanitizer.h</text>
</a>
</g>
</g>
<!-- Node13&#45;&gt;Node14 -->
<g id="edge13" class="edge">
<title>Node13&#45;&gt;Node14</title>
<path fill="none" stroke="midnightblue" d="M661.09,-226.75C709.46,-217.62 800.08,-200.51 858.69,-189.44"/>
<polygon fill="midnightblue" stroke="midnightblue" points="859.35,-192.88 868.53,-187.59 858.05,-186 859.35,-192.88"/>
</g>
<!-- Node16 -->
<g id="node16" class="node">
<title>Node16</title>
<g id="a_node16"><a xlink:href="../../d3/de6/_memory_8h.html" target="_top" xlink:title=" ">
<polygon fill="none" stroke="black" points="694,-168.5 694,-187.5 804,-187.5 804,-168.5 694,-168.5"/>
<text text-anchor="middle" x="749" y="-175.5" font-family="Helvetica,sans-Serif" font-size="10.00">common/Memory.h</text>
</a>
</g>
</g>
<!-- Node13&#45;&gt;Node16 -->
<g id="edge16" class="edge">
<title>Node13&#45;&gt;Node16</title>
<path fill="none" stroke="midnightblue" d="M647.17,-224.44C666.91,-215.64 697.89,-201.81 720.49,-191.72"/>
<polygon fill="midnightblue" stroke="midnightblue" points="722.21,-194.79 729.92,-187.52 719.36,-188.4 722.21,-194.79"/>
</g>
<!-- Node13&#45;&gt;Node18 -->
<g id="edge21" class="edge">
<title>Node13&#45;&gt;Node18</title>
<path fill="none" stroke="midnightblue" d="M629.44,-224.44C632.83,-204.57 641.83,-153.83 652,-112 654.16,-103.1 656.94,-93.32 659.37,-85.16"/>
<polygon fill="midnightblue" stroke="midnightblue" points="662.73,-86.15 662.29,-75.57 656.03,-84.12 662.73,-86.15"/>
</g>
<!-- Node13&#45;&gt;Node19 -->
<g id="edge25" class="edge">
<title>Node13&#45;&gt;Node19</title>
<path fill="none" stroke="midnightblue" d="M594.79,-226.86C545.47,-217.74 452.26,-200.5 392.2,-189.39"/>
<polygon fill="midnightblue" stroke="midnightblue" points="392.59,-185.91 382.12,-187.53 391.32,-192.79 392.59,-185.91"/>
</g>
<!-- Node25 -->
<g id="node25" class="node">
<title>Node25</title>
<g id="a_node25"><a xlink:title=" ">
<polygon fill="none" stroke="#bfbfbf" points="478,-168.5 478,-187.5 536,-187.5 536,-168.5 478,-168.5"/>
<text text-anchor="middle" x="507" y="-175.5" font-family="Helvetica,sans-Serif" font-size="10.00">memory</text>
</a>
</g>
</g>
<!-- Node13&#45;&gt;Node25 -->
<g id="edge36" class="edge">
<title>Node13&#45;&gt;Node25</title>
<path fill="none" stroke="midnightblue" d="M608.83,-224.44C589.09,-215.64 558.11,-201.81 535.51,-191.72"/>
<polygon fill="midnightblue" stroke="midnightblue" points="536.64,-188.4 526.08,-187.52 533.79,-194.79 536.64,-188.4"/>
</g>
<!-- Node26 -->
<g id="node26" class="node">
<title>Node26</title>
<g id="a_node26"><a xlink:title=" ">
<polygon fill="none" stroke="#bfbfbf" points="554.5,-168.5 554.5,-187.5 599.5,-187.5 599.5,-168.5 554.5,-168.5"/>
<text text-anchor="middle" x="577" y="-175.5" font-family="Helvetica,sans-Serif" font-size="10.00">utility</text>
</a>
</g>
</g>
<!-- Node13&#45;&gt;Node26 -->
<g id="edge37" class="edge">
<title>Node13&#45;&gt;Node26</title>
<path fill="none" stroke="midnightblue" d="M619.58,-224.08C612.15,-216.22 601.15,-204.57 592.19,-195.08"/>
<polygon fill="midnightblue" stroke="midnightblue" points="594.68,-192.62 585.26,-187.75 589.59,-197.42 594.68,-192.62"/>
</g>
<!-- Node15 -->
<g id="node15" class="node">
<title>Node15</title>
<g id="a_node15"><a xlink:title=" ">
<polygon fill="none" stroke="#bfbfbf" points="874.5,-112.5 874.5,-131.5 927.5,-131.5 927.5,-112.5 874.5,-112.5"/>
<text text-anchor="middle" x="901" y="-119.5" font-family="Helvetica,sans-Serif" font-size="10.00">cstddef</text>
</a>
</g>
</g>
<!-- Node14&#45;&gt;Node15 -->
<g id="edge14" class="edge">
<title>Node14&#45;&gt;Node15</title>
<path fill="none" stroke="midnightblue" d="M911.85,-168.08C910.13,-160.93 907.65,-150.64 905.5,-141.69"/>
<polygon fill="midnightblue" stroke="midnightblue" points="908.85,-140.65 903.11,-131.75 902.04,-142.29 908.85,-140.65"/>
</g>
<!-- Node16&#45;&gt;Node3 -->
<g id="edge18" class="edge">
<title>Node16&#45;&gt;Node3</title>
<path fill="none" stroke="midnightblue" d="M755.04,-168.37C767.75,-150.22 797.44,-107.8 814.11,-83.99"/>
<polygon fill="midnightblue" stroke="midnightblue" points="817.12,-85.79 819.99,-75.59 811.38,-81.78 817.12,-85.79"/>
</g>
<!-- Node16&#45;&gt;Node7 -->
<g id="edge20" class="edge">
<title>Node16&#45;&gt;Node7</title>
<path fill="none" stroke="midnightblue" d="M734.21,-168.4C699.41,-148.23 609.54,-96.54 533,-56 512.03,-44.89 487.97,-32.9 470.01,-24.09"/>
<polygon fill="midnightblue" stroke="midnightblue" points="471.24,-20.8 460.72,-19.55 468.16,-27.09 471.24,-20.8"/>
</g>
<!-- Node16&#45;&gt;Node15 -->
<g id="edge19" class="edge">
<title>Node16&#45;&gt;Node15</title>
<path fill="none" stroke="midnightblue" d="M773.08,-168.44C798.54,-159.4 838.89,-145.06 867.46,-134.92"/>
<polygon fill="midnightblue" stroke="midnightblue" points="868.78,-138.16 877.03,-131.52 866.43,-131.57 868.78,-138.16"/>
</g>
<!-- Node17 -->
<g id="node17" class="node">
<title>Node17</title>
<g id="a_node17"><a xlink:title=" ">
<polygon fill="none" stroke="#bfbfbf" points="422,-56.5 422,-75.5 524,-75.5 524,-56.5 422,-56.5"/>
<text text-anchor="middle" x="473" y="-63.5" font-family="Helvetica,sans-Serif" font-size="10.00">rawspeedconfig.h</text>
</a>
</g>
</g>
<!-- Node16&#45;&gt;Node17 -->
<g id="edge17" class="edge">
<title>Node16&#45;&gt;Node17</title>
<path fill="none" stroke="midnightblue" d="M699.94,-168.44C664.56,-161.28 616.15,-149.39 576,-132 544.87,-118.52 512.31,-96.41 492.33,-81.78"/>
<polygon fill="midnightblue" stroke="midnightblue" points="494.2,-78.8 484.09,-75.64 490.02,-84.42 494.2,-78.8"/>
</g>
<!-- Node18&#45;&gt;Node5 -->
<g id="edge22" class="edge">
<title>Node18&#45;&gt;Node5</title>
<path fill="none" stroke="midnightblue" d="M711.57,-60.22C794.02,-51.65 963.51,-33.42 1040.48,-20.02"/>
<polygon fill="midnightblue" stroke="midnightblue" points="1041.5,-23.39 1050.71,-18.16 1040.25,-16.5 1041.5,-23.39"/>
</g>
<!-- Node18&#45;&gt;Node7 -->
<g id="edge23" class="edge">
<title>Node18&#45;&gt;Node7</title>
<path fill="none" stroke="midnightblue" d="M629.82,-56.44C588.23,-46.33 519.44,-29.59 477.95,-19.5"/>
<polygon fill="midnightblue" stroke="midnightblue" points="478.57,-16.05 468.02,-17.09 476.91,-22.85 478.57,-16.05"/>
</g>
<!-- Node18&#45;&gt;Node8 -->
<g id="edge24" class="edge">
<title>Node18&#45;&gt;Node8</title>
<path fill="none" stroke="midnightblue" d="M658.06,-56.08C652.07,-48.38 643.25,-37.03 635.95,-27.65"/>
<polygon fill="midnightblue" stroke="midnightblue" points="638.71,-25.5 629.81,-19.75 633.18,-29.79 638.71,-25.5"/>
</g>
<!-- Node19&#45;&gt;Node17 -->
<g id="edge26" class="edge">
<title>Node19&#45;&gt;Node17</title>
<path fill="none" stroke="midnightblue" d="M346.75,-168.37C369.96,-149.73 425.01,-105.53 454.15,-82.13"/>
<polygon fill="midnightblue" stroke="midnightblue" points="456.69,-84.58 462.3,-75.59 452.31,-79.12 456.69,-84.58"/>
</g>
<!-- Node20 -->
<g id="node20" class="node">
<title>Node20</title>
<g id="a_node20"><a xlink:href="../../d7/d05/_rawspeed_exception_8h.html" target="_top" xlink:title=" ">
<polygon fill="none" stroke="black" points="206,-112.5 206,-131.5 376,-131.5 376,-112.5 206,-112.5"/>
<text text-anchor="middle" x="291" y="-119.5" font-family="Helvetica,sans-Serif" font-size="10.00">common/RawspeedException.h</text>
</a>
</g>
</g>
<!-- Node19&#45;&gt;Node20 -->
<g id="edge27" class="edge">
<title>Node19&#45;&gt;Node20</title>
<path fill="none" stroke="midnightblue" d="M328.57,-168.08C322.15,-160.38 312.69,-149.03 304.88,-139.65"/>
<polygon fill="midnightblue" stroke="midnightblue" points="307.38,-137.19 298.29,-131.75 302.01,-141.67 307.38,-137.19"/>
</g>
<!-- Node20&#45;&gt;Node3 -->
<g id="edge29" class="edge">
<title>Node20&#45;&gt;Node3</title>
<path fill="none" stroke="midnightblue" d="M375.48,-112.47C481.27,-101.8 660.43,-83.71 757.9,-73.87"/>
<polygon fill="midnightblue" stroke="midnightblue" points="758.34,-77.35 767.94,-72.86 757.64,-70.38 758.34,-77.35"/>
</g>
<!-- Node20&#45;&gt;Node17 -->
<g id="edge28" class="edge">
<title>Node20&#45;&gt;Node17</title>
<path fill="none" stroke="midnightblue" d="M319.84,-112.44C350.86,-103.24 400.33,-88.56 434.62,-78.39"/>
<polygon fill="midnightblue" stroke="midnightblue" points="435.71,-81.72 444.3,-75.52 433.71,-75.01 435.71,-81.72"/>
</g>
<!-- Node20&#45;&gt;Node21 -->
<g id="edge30" class="edge">
<title>Node20&#45;&gt;Node21</title>
<path fill="none" stroke="midnightblue" d="M270.72,-112.44C249.65,-103.56 216.48,-89.56 192.51,-79.45"/>
<polygon fill="midnightblue" stroke="midnightblue" points="193.76,-76.18 183.19,-75.52 191.04,-82.63 193.76,-76.18"/>
</g>
<!-- Node22 -->
<g id="node22" class="node">
<title>Node22</title>
<g id="a_node22"><a xlink:title=" ">
<polygon fill="none" stroke="#bfbfbf" points="202.5,-56.5 202.5,-75.5 255.5,-75.5 255.5,-56.5 202.5,-56.5"/>
<text text-anchor="middle" x="229" y="-63.5" font-family="Helvetica,sans-Serif" font-size="10.00">cstdarg</text>
</a>
</g>
</g>
<!-- Node20&#45;&gt;Node22 -->
<g id="edge31" class="edge">
<title>Node20&#45;&gt;Node22</title>
<path fill="none" stroke="midnightblue" d="M281.04,-112.32C271.87,-104.34 258.06,-92.31 246.97,-82.65"/>
<polygon fill="midnightblue" stroke="midnightblue" points="248.98,-79.76 239.14,-75.83 244.38,-85.04 248.98,-79.76"/>
</g>
<!-- Node23 -->
<g id="node23" class="node">
<title>Node23</title>
<g id="a_node23"><a xlink:title=" ">
<polygon fill="none" stroke="#bfbfbf" points="274,-56.5 274,-75.5 320,-75.5 320,-56.5 274,-56.5"/>
<text text-anchor="middle" x="297" y="-63.5" font-family="Helvetica,sans-Serif" font-size="10.00">cstdio</text>
</a>
</g>
</g>
<!-- Node20&#45;&gt;Node23 -->
<g id="edge32" class="edge">
<title>Node20&#45;&gt;Node23</title>
<path fill="none" stroke="midnightblue" d="M291.99,-112.08C292.79,-104.93 293.93,-94.64 294.92,-85.69"/>
<polygon fill="midnightblue" stroke="midnightblue" points="298.4,-86.08 296.03,-75.75 291.44,-85.3 298.4,-86.08"/>
</g>
<!-- Node24 -->
<g id="node24" class="node">
<title>Node24</title>
<g id="a_node24"><a xlink:title=" ">
<polygon fill="none" stroke="#bfbfbf" points="338.5,-56.5 338.5,-75.5 403.5,-75.5 403.5,-56.5 338.5,-56.5"/>
<text text-anchor="middle" x="371" y="-63.5" font-family="Helvetica,sans-Serif" font-size="10.00">stdexcept</text>
</a>
</g>
</g>
<!-- Node20&#45;&gt;Node24 -->
<g id="edge33" class="edge">
<title>Node20&#45;&gt;Node24</title>
<path fill="none" stroke="midnightblue" d="M303.85,-112.32C316.22,-103.98 335.13,-91.21 349.74,-81.35"/>
<polygon fill="midnightblue" stroke="midnightblue" points="351.85,-84.15 358.18,-75.65 347.93,-78.35 351.85,-84.15"/>
</g>
<!-- Node27&#45;&gt;Node3 -->
<g id="edge40" class="edge">
<title>Node27&#45;&gt;Node3</title>
<path fill="none" stroke="midnightblue" d="M897.77,-282.46C941.25,-275.41 1000.76,-262.64 1015,-244 1020.4,-236.94 1015.4,-232.88 1015,-224 1012.73,-173.05 1027.4,-146.68 990,-112 964.1,-87.98 926.6,-76.59 893.99,-71.26"/>
<polygon fill="midnightblue" stroke="midnightblue" points="894.45,-67.79 884.05,-69.79 893.43,-74.71 894.45,-67.79"/>
</g>
<!-- Node27&#45;&gt;Node5 -->
<g id="edge44" class="edge">
<title>Node27&#45;&gt;Node5</title>
<path fill="none" stroke="midnightblue" d="M897.69,-289.27C972.75,-286.92 1110,-270.16 1110,-179 1110,-179 1110,-179 1110,-121 1110,-87.25 1095.57,-50.03 1085.79,-28.69"/>
<polygon fill="midnightblue" stroke="midnightblue" points="1088.91,-27.1 1081.45,-19.58 1082.59,-30.11 1088.91,-27.1"/>
</g>
<!-- Node27&#45;&gt;Node7 -->
<g id="edge45" class="edge">
<title>Node27&#45;&gt;Node7</title>
<path fill="none" stroke="midnightblue" d="M802.45,-289.63C694.54,-289.33 424.89,-278.76 224,-188 186.41,-171.02 175.42,-164.48 150,-132 128.17,-104.1 102.78,-82.75 126,-56 162.12,-14.39 332.41,-10.24 407.4,-10.48"/>
<polygon fill="midnightblue" stroke="midnightblue" points="407.72,-13.99 417.74,-10.55 407.76,-6.99 407.72,-13.99"/>
</g>
<!-- Node27&#45;&gt;Node8 -->
<g id="edge46" class="edge">
<title>Node27&#45;&gt;Node8</title>
<path fill="none" stroke="midnightblue" d="M869.63,-280.37C899.33,-266.09 954.6,-234.43 977,-188 993.58,-153.62 969.03,-132.76 937,-112 869.27,-68.1 835.04,-103.07 759,-76 741.02,-69.6 738.12,-64.43 721,-56 698.01,-44.68 671.59,-32.6 651.98,-23.81"/>
<polygon fill="midnightblue" stroke="midnightblue" points="653.23,-20.54 642.67,-19.66 650.37,-26.93 653.23,-20.54"/>
</g>
<!-- Node27&#45;&gt;Node13 -->
<g id="edge42" class="edge">
<title>Node27&#45;&gt;Node13</title>
<path fill="none" stroke="midnightblue" d="M814.82,-280.44C775.86,-270.96 713.01,-255.68 671.11,-245.49"/>
<polygon fill="midnightblue" stroke="midnightblue" points="671.74,-242.04 661.2,-243.08 670.09,-248.84 671.74,-242.04"/>
</g>
<!-- Node27&#45;&gt;Node14 -->
<g id="edge39" class="edge">
<title>Node27&#45;&gt;Node14</title>
<path fill="none" stroke="midnightblue" d="M855.02,-280.37C865.54,-262.3 890.04,-220.18 903.93,-196.31"/>
<polygon fill="midnightblue" stroke="midnightblue" points="907,-198 909,-187.59 900.95,-194.47 907,-198"/>
</g>
<!-- Node27&#45;&gt;Node16 -->
<g id="edge41" class="edge">
<title>Node27&#45;&gt;Node16</title>
<path fill="none" stroke="midnightblue" d="M842.07,-280.37C825.19,-261.97 785.43,-218.67 763.74,-195.05"/>
<polygon fill="midnightblue" stroke="midnightblue" points="766.23,-192.59 756.89,-187.59 761.07,-197.32 766.23,-192.59"/>
</g>
<!-- Node27&#45;&gt;Node19 -->
<g id="edge43" class="edge">
<title>Node27&#45;&gt;Node19</title>
<path fill="none" stroke="midnightblue" d="M802.07,-282.09C748.99,-274.15 661,-260.11 586,-244 510.89,-227.86 424.35,-204.22 375.31,-190.34"/>
<polygon fill="midnightblue" stroke="midnightblue" points="376.01,-186.9 365.44,-187.53 374.1,-193.63 376.01,-186.9"/>
</g>
<!-- Node28 -->
<g id="node28" class="node">
<title>Node28</title>
<g id="a_node28"><a xlink:title=" ">
<polygon fill="none" stroke="#bfbfbf" points="962,-224.5 962,-243.5 1006,-243.5 1006,-224.5 962,-224.5"/>
<text text-anchor="middle" x="984" y="-231.5" font-family="Helvetica,sans-Serif" font-size="10.00">limits</text>
</a>
</g>
</g>
<!-- Node27&#45;&gt;Node28 -->
<g id="edge47" class="edge">
<title>Node27&#45;&gt;Node28</title>
<path fill="none" stroke="midnightblue" d="M871.23,-280.44C893.38,-271.52 928.32,-257.44 953.44,-247.32"/>
<polygon fill="midnightblue" stroke="midnightblue" points="954.9,-250.5 962.87,-243.52 952.28,-244.01 954.9,-250.5"/>
</g>
</g>
</svg>
        <g id="navigator" transform="translate(0 0)" fill="#404254">
                <rect fill="#f2f5e9" fill-opacity="0.5" stroke="#606060" stroke-width=".5" x="0" y="0" width="60" height="60"/>
                <use id="zoomplus" xlink:href="#zoomPlus" x="17" y="9" onmousedown="handleZoom(evt,'in')"/>
                <use id="zoomminus" xlink:href="#zoomMin" x="42" y="9" onmousedown="handleZoom(evt,'out')"/>
                <use id="reset" xlink:href="#resetDef" x="30" y="36" onmousedown="handleReset()"/>
                <g id="arrowUp" xlink:href="#dirArrow" transform="translate(30 24)" onmousedown="handlePan(0,-1)">
                  <use xlink:href="#rim" fill="#404040">
                        <set attributeName="fill" to="#808080" begin="arrowUp.mouseover" end="arrowUp.mouseout"/>
                  </use>
                  <path fill="none" stroke="white" stroke-width="1.5" d="M0,-3.0v7 M-2.5,-0.5L0,-3.0L2.5,-0.5"/>
                </g>
                <g id="arrowRight" xlink:href="#dirArrow" transform="rotate(90) translate(36 -43)" onmousedown="handlePan(1,0)">
                  <use xlink:href="#rim" fill="#404040">
                        <set attributeName="fill" to="#808080" begin="arrowRight.mouseover" end="arrowRight.mouseout"/>
                  </use>
                  <path fill="none" stroke="white" stroke-width="1.5" d="M0,-3.0v7 M-2.5,-0.5L0,-3.0L2.5,-0.5"/>
                </g>
                <g id="arrowDown" xlink:href="#dirArrow" transform="rotate(180) translate(-30 -48)" onmousedown="handlePan(0,1)">
                  <use xlink:href="#rim" fill="#404040">
                        <set attributeName="fill" to="#808080" begin="arrowDown.mouseover" end="arrowDown.mouseout"/>
                  </use>
                  <path fill="none" stroke="white" stroke-width="1.5" d="M0,-3.0v7 M-2.5,-0.5L0,-3.0L2.5,-0.5"/>
                </g>
                <g id="arrowLeft" xlink:href="#dirArrow" transform="rotate(270) translate(-36 17)" onmousedown="handlePan(-1,0)">
                  <use xlink:href="#rim" fill="#404040">
                        <set attributeName="fill" to="#808080" begin="arrowLeft.mouseover" end="arrowLeft.mouseout"/>
                  </use>
                  <path fill="none" stroke="white" stroke-width="1.5" d="M0,-3.0v7 M-2.5,-0.5L0,-3.0L2.5,-0.5"/>
                </g>
        </g>
        <svg viewBox="0 0 15 15" width="100%" height="30px" preserveAspectRatio="xMaxYMin meet">
         <g id="arrow_out" transform="scale(0.3 0.3)">
          <a xlink:href="_bit_stream_8cpp__incl_org.svg" target="_base">
           <rect id="button" ry="5" rx="5" y="6" x="6" height="38" width="38"
                fill="#f2f5e9" fill-opacity="0.5" stroke="#606060" stroke-width="1.0"/>
           <path id="arrow"
             d="M 11.500037,31.436501 C 11.940474,20.09759 22.043105,11.32322 32.158766,21.979434 L 37.068811,17.246167 C 37.068811,17.246167 37.088388,32 37.088388,32 L 22.160133,31.978069 C 22.160133,31.978069 26.997745,27.140456 26.997745,27.140456 C 18.528582,18.264221 13.291696,25.230495 11.500037,31.436501 z"
             style="fill:#404040;"/>
          </a>
         </g>
        </svg>
</svg>
