<?xml version="1.0" encoding="UTF-8" standalone="no"?>
<!DOCTYPE svg PUBLIC "-//W3C//DTD SVG 1.1//EN"
 "http://www.w3.org/Graphics/SVG/1.1/DTD/svg11.dtd">
<!-- Generated by graphviz version 2.43.0 (0)
 -->
<!-- Title: librawspeed/metadata/ColorFilterArray.h Pages: 1 -->
<svg width="396pt" height="151pt"
 viewBox="0.00 0.00 395.50 151.00" xmlns="http://www.w3.org/2000/svg" xmlns:xlink="http://www.w3.org/1999/xlink">
<g id="graph0" class="graph" transform="scale(1 1) rotate(0) translate(4 147)">
<title>librawspeed/metadata/ColorFilterArray.h</title>
<!-- Node1 -->
<g id="node1" class="node">
<title>Node1</title>
<g id="a_node1"><a xlink:title=" ">
<polygon fill="#bfbfbf" stroke="black" points="178,-112.5 178,-142.5 304,-142.5 304,-112.5 178,-112.5"/>
<text text-anchor="start" x="186" y="-130.5" font-family="Helvetica,sans-Serif" font-size="10.00">librawspeed/metadata</text>
<text text-anchor="middle" x="241" y="-119.5" font-family="Helvetica,sans-Serif" font-size="10.00">/ColorFilterArray.h</text>
</a>
</g>
</g>
<!-- Node2 -->
<g id="node2" class="node">
<title>Node2</title>
<g id="a_node2"><a xlink:href="../../d1/d18/_point_8h.html" target="_top" xlink:title=" ">
<polygon fill="none" stroke="black" points="70,-56.5 70,-75.5 166,-75.5 166,-56.5 70,-56.5"/>
<text text-anchor="middle" x="118" y="-63.5" font-family="Helvetica,sans-Serif" font-size="10.00">common/Point.h</text>
</a>
</g>
</g>
<!-- Node1&#45;&gt;Node2 -->
<g id="edge1" class="edge">
<title>Node1&#45;&gt;Node2</title>
<path fill="none" stroke="midnightblue" d="M211.85,-112.4C191.58,-102.59 164.76,-89.62 144.98,-80.05"/>
<polygon fill="midnightblue" stroke="midnightblue" points="146.42,-76.86 135.9,-75.66 143.38,-83.16 146.42,-76.86"/>
</g>
<!-- Node4 -->
<g id="node4" class="node">
<title>Node4</title>
<g id="a_node4"><a xlink:title=" ">
<polygon fill="none" stroke="#bfbfbf" points="170,-0.5 170,-19.5 220,-19.5 220,-0.5 170,-0.5"/>
<text text-anchor="middle" x="195" y="-7.5" font-family="Helvetica,sans-Serif" font-size="10.00">cstdint</text>
</a>
</g>
</g>
<!-- Node1&#45;&gt;Node4 -->
<g id="edge5" class="edge">
<title>Node1&#45;&gt;Node4</title>
<path fill="none" stroke="midnightblue" d="M231.98,-112.36C225.96,-102.48 218.24,-88.8 213,-76 206.77,-60.76 201.95,-42.65 198.87,-29.42"/>
<polygon fill="midnightblue" stroke="midnightblue" points="202.29,-28.63 196.71,-19.63 195.45,-30.15 202.29,-28.63"/>
</g>
<!-- Node6 -->
<g id="node6" class="node">
<title>Node6</title>
<g id="a_node6"><a xlink:title=" ">
<polygon fill="none" stroke="#bfbfbf" points="222,-56.5 222,-75.5 260,-75.5 260,-56.5 222,-56.5"/>
<text text-anchor="middle" x="241" y="-63.5" font-family="Helvetica,sans-Serif" font-size="10.00">map</text>
</a>
</g>
</g>
<!-- Node1&#45;&gt;Node6 -->
<g id="edge6" class="edge">
<title>Node1&#45;&gt;Node6</title>
<path fill="none" stroke="midnightblue" d="M241,-112.4C241,-104.47 241,-94.46 241,-85.86"/>
<polygon fill="midnightblue" stroke="midnightblue" points="244.5,-85.66 241,-75.66 237.5,-85.66 244.5,-85.66"/>
</g>
<!-- Node7 -->
<g id="node7" class="node">
<title>Node7</title>
<g id="a_node7"><a xlink:title=" ">
<polygon fill="none" stroke="#bfbfbf" points="278,-56.5 278,-75.5 322,-75.5 322,-56.5 278,-56.5"/>
<text text-anchor="middle" x="300" y="-63.5" font-family="Helvetica,sans-Serif" font-size="10.00">string</text>
</a>
</g>
</g>
<!-- Node1&#45;&gt;Node7 -->
<g id="edge7" class="edge">
<title>Node1&#45;&gt;Node7</title>
<path fill="none" stroke="midnightblue" d="M254.98,-112.4C263.73,-103.58 275.03,-92.18 284.12,-83.02"/>
<polygon fill="midnightblue" stroke="midnightblue" points="286.86,-85.22 291.41,-75.66 281.89,-80.29 286.86,-85.22"/>
</g>
<!-- Node8 -->
<g id="node8" class="node">
<title>Node8</title>
<g id="a_node8"><a xlink:title=" ">
<polygon fill="none" stroke="#bfbfbf" points="340.5,-56.5 340.5,-75.5 387.5,-75.5 387.5,-56.5 340.5,-56.5"/>
<text text-anchor="middle" x="364" y="-63.5" font-family="Helvetica,sans-Serif" font-size="10.00">vector</text>
</a>
</g>
</g>
<!-- Node1&#45;&gt;Node8 -->
<g id="edge8" class="edge">
<title>Node1&#45;&gt;Node8</title>
<path fill="none" stroke="midnightblue" d="M270.15,-112.4C290.42,-102.59 317.24,-89.62 337.02,-80.05"/>
<polygon fill="midnightblue" stroke="midnightblue" points="338.62,-83.16 346.1,-75.66 335.58,-76.86 338.62,-83.16"/>
</g>
<!-- Node3 -->
<g id="node3" class="node">
<title>Node3</title>
<g id="a_node3"><a xlink:title=" ">
<polygon fill="none" stroke="#bfbfbf" points="0,-0.5 0,-19.5 64,-19.5 64,-0.5 0,-0.5"/>
<text text-anchor="middle" x="32" y="-7.5" font-family="Helvetica,sans-Serif" font-size="10.00">algorithm</text>
</a>
</g>
</g>
<!-- Node2&#45;&gt;Node3 -->
<g id="edge2" class="edge">
<title>Node2&#45;&gt;Node3</title>
<path fill="none" stroke="midnightblue" d="M104.18,-56.32C90.77,-47.9 70.18,-34.97 54.41,-25.07"/>
<polygon fill="midnightblue" stroke="midnightblue" points="56.11,-22.01 45.78,-19.65 52.39,-27.94 56.11,-22.01"/>
</g>
<!-- Node2&#45;&gt;Node4 -->
<g id="edge3" class="edge">
<title>Node2&#45;&gt;Node4</title>
<path fill="none" stroke="midnightblue" d="M130.37,-56.32C142.16,-48.06 160.13,-35.45 174.14,-25.63"/>
<polygon fill="midnightblue" stroke="midnightblue" points="176.48,-28.26 182.66,-19.65 172.46,-22.53 176.48,-28.26"/>
</g>
<!-- Node5 -->
<g id="node5" class="node">
<title>Node5</title>
<g id="a_node5"><a xlink:title=" ">
<polygon fill="none" stroke="#bfbfbf" points="82.5,-0.5 82.5,-19.5 151.5,-19.5 151.5,-0.5 82.5,-0.5"/>
<text text-anchor="middle" x="117" y="-7.5" font-family="Helvetica,sans-Serif" font-size="10.00">type_traits</text>
</a>
</g>
</g>
<!-- Node2&#45;&gt;Node5 -->
<g id="edge4" class="edge">
<title>Node2&#45;&gt;Node5</title>
<path fill="none" stroke="midnightblue" d="M117.83,-56.08C117.7,-49.01 117.52,-38.86 117.35,-29.99"/>
<polygon fill="midnightblue" stroke="midnightblue" points="120.85,-29.68 117.16,-19.75 113.85,-29.81 120.85,-29.68"/>
</g>
</g>
</svg>
