<?xml version="1.0" encoding="UTF-8" standalone="no"?>
<!DOCTYPE svg PUBLIC "-//W3C//DTD SVG 1.1//EN"
 "http://www.w3.org/Graphics/SVG/1.1/DTD/svg11.dtd">
<!-- Generated by graphviz version 2.43.0 (0)
 -->
<!-- Title: rawspeed::DngOpcodes::DeltaRowOrColBase Pages: 1 -->
<svg width="986pt" height="88pt"
 viewBox="0.00 0.00 986.00 88.00" xmlns="http://www.w3.org/2000/svg" xmlns:xlink="http://www.w3.org/1999/xlink">
<g id="graph0" class="graph" transform="scale(1 1) rotate(0) translate(4 84)">
<title>rawspeed::DngOpcodes::DeltaRowOrColBase</title>
<!-- Node1 -->
<g id="node1" class="node">
<title>Node1</title>
<g id="a_node1"><a xlink:title=" ">
<polygon fill="#bfbfbf" stroke="black" points="501,-24.5 501,-54.5 632,-54.5 632,-24.5 501,-24.5"/>
<text text-anchor="start" x="509" y="-42.5" font-family="Helvetica,sans-Serif" font-size="10.00">rawspeed::DngOpcodes</text>
<text text-anchor="middle" x="566.5" y="-31.5" font-family="Helvetica,sans-Serif" font-size="10.00">::DeltaRowOrColBase</text>
</a>
</g>
</g>
<!-- Node5 -->
<g id="node5" class="node">
<title>Node5</title>
<g id="a_node5"><a xlink:href="../../d0/d95/classrawspeed_1_1_dng_opcodes_1_1_delta_row_or_col.html" target="_top" xlink:title=" ">
<polygon fill="none" stroke="black" points="668,-24.5 668,-54.5 799,-54.5 799,-24.5 668,-24.5"/>
<text text-anchor="start" x="676" y="-42.5" font-family="Helvetica,sans-Serif" font-size="10.00">rawspeed::DngOpcodes</text>
<text text-anchor="middle" x="733.5" y="-31.5" font-family="Helvetica,sans-Serif" font-size="10.00">::DeltaRowOrCol&lt; S &gt;</text>
</a>
</g>
</g>
<!-- Node1&#45;&gt;Node5 -->
<g id="edge4" class="edge">
<title>Node1&#45;&gt;Node5</title>
<path fill="none" stroke="midnightblue" d="M642.24,-39.5C650.82,-39.5 659.52,-39.5 667.95,-39.5"/>
<polygon fill="midnightblue" stroke="midnightblue" points="642.24,-36 632.24,-39.5 642.24,-43 642.24,-36"/>
</g>
<!-- Node2 -->
<g id="node2" class="node">
<title>Node2</title>
<g id="a_node2"><a xlink:href="../../d5/dcb/classrawspeed_1_1_dng_opcodes_1_1_pixel_opcode.html" target="_top" xlink:title=" ">
<polygon fill="none" stroke="black" points="334,-24.5 334,-54.5 465,-54.5 465,-24.5 334,-24.5"/>
<text text-anchor="start" x="342" y="-42.5" font-family="Helvetica,sans-Serif" font-size="10.00">rawspeed::DngOpcodes</text>
<text text-anchor="middle" x="399.5" y="-31.5" font-family="Helvetica,sans-Serif" font-size="10.00">::PixelOpcode</text>
</a>
</g>
</g>
<!-- Node2&#45;&gt;Node1 -->
<g id="edge1" class="edge">
<title>Node2&#45;&gt;Node1</title>
<path fill="none" stroke="midnightblue" d="M475.24,-39.5C483.82,-39.5 492.52,-39.5 500.95,-39.5"/>
<polygon fill="midnightblue" stroke="midnightblue" points="475.24,-36 465.24,-39.5 475.24,-43 475.24,-36"/>
</g>
<!-- Node3 -->
<g id="node3" class="node">
<title>Node3</title>
<g id="a_node3"><a xlink:href="../../df/dc9/classrawspeed_1_1_dng_opcodes_1_1_r_o_i_opcode.html" target="_top" xlink:title=" ">
<polygon fill="none" stroke="black" points="167,-24.5 167,-54.5 298,-54.5 298,-24.5 167,-24.5"/>
<text text-anchor="start" x="175" y="-42.5" font-family="Helvetica,sans-Serif" font-size="10.00">rawspeed::DngOpcodes</text>
<text text-anchor="middle" x="232.5" y="-31.5" font-family="Helvetica,sans-Serif" font-size="10.00">::ROIOpcode</text>
</a>
</g>
</g>
<!-- Node3&#45;&gt;Node2 -->
<g id="edge2" class="edge">
<title>Node3&#45;&gt;Node2</title>
<path fill="none" stroke="midnightblue" d="M308.24,-39.5C316.82,-39.5 325.52,-39.5 333.95,-39.5"/>
<polygon fill="midnightblue" stroke="midnightblue" points="308.24,-36 298.24,-39.5 308.24,-43 308.24,-36"/>
</g>
<!-- Node4 -->
<g id="node4" class="node">
<title>Node4</title>
<g id="a_node4"><a xlink:href="../../dd/d5f/classrawspeed_1_1_dng_opcodes_1_1_dng_opcode.html" target="_top" xlink:title=" ">
<polygon fill="none" stroke="black" points="0,-24.5 0,-54.5 131,-54.5 131,-24.5 0,-24.5"/>
<text text-anchor="start" x="8" y="-42.5" font-family="Helvetica,sans-Serif" font-size="10.00">rawspeed::DngOpcodes</text>
<text text-anchor="middle" x="65.5" y="-31.5" font-family="Helvetica,sans-Serif" font-size="10.00">::DngOpcode</text>
</a>
</g>
</g>
<!-- Node4&#45;&gt;Node3 -->
<g id="edge3" class="edge">
<title>Node4&#45;&gt;Node3</title>
<path fill="none" stroke="midnightblue" d="M141.24,-39.5C149.82,-39.5 158.52,-39.5 166.95,-39.5"/>
<polygon fill="midnightblue" stroke="midnightblue" points="141.24,-36 131.24,-39.5 141.24,-43 141.24,-36"/>
</g>
<!-- Node6 -->
<g id="node6" class="node">
<title>Node6</title>
<g id="a_node6"><a xlink:href="../../df/d9b/classrawspeed_1_1_dng_opcodes_1_1_offset_per_row_or_col.html" target="_top" xlink:title=" ">
<polygon fill="none" stroke="black" points="835,-49.5 835,-79.5 978,-79.5 978,-49.5 835,-49.5"/>
<text text-anchor="start" x="843" y="-67.5" font-family="Helvetica,sans-Serif" font-size="10.00">rawspeed::DngOpcodes</text>
<text text-anchor="middle" x="906.5" y="-56.5" font-family="Helvetica,sans-Serif" font-size="10.00">::OffsetPerRowOrCol&lt; S &gt;</text>
</a>
</g>
</g>
<!-- Node5&#45;&gt;Node6 -->
<g id="edge5" class="edge">
<title>Node5&#45;&gt;Node6</title>
<path fill="none" stroke="midnightblue" d="M809.07,-50.4C817.6,-51.65 826.28,-52.92 834.76,-54.16"/>
<polygon fill="midnightblue" stroke="midnightblue" points="809.55,-46.93 799.15,-48.95 808.54,-53.86 809.55,-46.93"/>
</g>
<!-- Node7 -->
<g id="node7" class="node">
<title>Node7</title>
<g id="a_node7"><a xlink:href="../../d2/d55/classrawspeed_1_1_dng_opcodes_1_1_scale_per_row_or_col.html" target="_top" xlink:title=" ">
<polygon fill="none" stroke="black" points="836.5,-0.5 836.5,-30.5 976.5,-30.5 976.5,-0.5 836.5,-0.5"/>
<text text-anchor="start" x="844.5" y="-18.5" font-family="Helvetica,sans-Serif" font-size="10.00">rawspeed::DngOpcodes</text>
<text text-anchor="middle" x="906.5" y="-7.5" font-family="Helvetica,sans-Serif" font-size="10.00">::ScalePerRowOrCol&lt; S &gt;</text>
</a>
</g>
</g>
<!-- Node5&#45;&gt;Node7 -->
<g id="edge6" class="edge">
<title>Node5&#45;&gt;Node7</title>
<path fill="none" stroke="midnightblue" d="M809.27,-29.01C818.32,-27.74 827.52,-26.44 836.48,-25.19"/>
<polygon fill="midnightblue" stroke="midnightblue" points="808.56,-25.57 799.15,-30.43 809.54,-32.5 808.56,-25.57"/>
</g>
</g>
</svg>
