<?xml version="1.0" encoding="UTF-8" standalone="no"?>
<!DOCTYPE svg PUBLIC "-//W3C//DTD SVG 1.1//EN"
 "http://www.w3.org/Graphics/SVG/1.1/DTD/svg11.dtd">
<!-- Generated by graphviz version 2.43.0 (0)
 -->
<!-- Title: librawspeed/decompressors/AbstractHuffmanTable.h Pages: 1 -->
<!--zoomable 319 -->
<svg id="main" version="1.1" xmlns="http://www.w3.org/2000/svg" xmlns:xlink="http://www.w3.org/1999/xlink" xml:space="preserve" onload="init(evt)">
<style type="text/css"><![CDATA[
.edge:hover path { stroke: red; }
.edge:hover polygon { stroke: red; fill: red; }
]]></style>
<script type="text/javascript"><![CDATA[
var edges = document.getElementsByTagName('g');
if (edges && edges.length) {
  for (var i=0;i<edges.length;i++) {
    if (edges[i].id.substr(0,4)=='edge') {
      edges[i].setAttribute('class','edge');
    }
  }
}
]]></script>
        <defs>
                <circle id="rim" cx="0" cy="0" r="7"/>
                <circle id="rim2" cx="0" cy="0" r="3.5"/>
                <g id="zoomPlus">
                        <use xlink:href="#rim" fill="#404040">
                                <set attributeName="fill" to="#808080" begin="zoomplus.mouseover" end="zoomplus.mouseout"/>
                        </use>
                        <path d="M-4,0h8M0,-4v8" fill="none" stroke="white" stroke-width="1.5" pointer-events="none"/>
                </g>
                <g id="zoomMin">
                        <use xlink:href="#rim" fill="#404040">
                                <set attributeName="fill" to="#808080" begin="zoomminus.mouseover" end="zoomminus.mouseout"/>
                        </use>
                        <path d="M-4,0h8" fill="none" stroke="white" stroke-width="1.5" pointer-events="none"/>
                </g>
                <g id="dirArrow">
                        <path fill="none" stroke="white" stroke-width="1.5" d="M0,-3.0v7 M-2.5,-0.5L0,-3.0L2.5,-0.5"/>
                </g>
               <g id="resetDef">
                       <use xlink:href="#rim2" fill="#404040">
                               <set attributeName="fill" to="#808080" begin="reset.mouseover" end="reset.mouseout"/>
                       </use>
               </g>
        </defs>

<script type="text/javascript">
var viewWidth = 1255;
var viewHeight = 319;
var sectionId = 'dynsection-0';
</script>
<script xlink:href="../../svgpan.js"/>
<svg id="graph" class="graph">
<g id="viewport">
<title>librawspeed/decompressors/AbstractHuffmanTable.h</title>
<!-- Node1 -->
<g id="node1" class="node">
<title>Node1</title>
<g id="a_node1"><a xlink:title=" ">
<polygon fill="#bfbfbf" stroke="black" points="650.5,-280.5 650.5,-310.5 803.5,-310.5 803.5,-280.5 650.5,-280.5"/>
<text text-anchor="start" x="658.5" y="-298.5" font-family="Helvetica,sans-Serif" font-size="10.00">librawspeed/decompressors</text>
<text text-anchor="middle" x="727" y="-287.5" font-family="Helvetica,sans-Serif" font-size="10.00">/AbstractHuffmanTable.h</text>
</a>
</g>
</g>
<!-- Node2 -->
<g id="node2" class="node">
<title>Node2</title>
<g id="a_node2"><a xlink:href="../../d9/df5/src_2librawspeed_2common_2_common_8h.html" target="_top" xlink:title=" ">
<polygon fill="none" stroke="black" points="284,-56.5 284,-75.5 400,-75.5 400,-56.5 284,-56.5"/>
<text text-anchor="middle" x="342" y="-63.5" font-family="Helvetica,sans-Serif" font-size="10.00">common/Common.h</text>
</a>
</g>
</g>
<!-- Node1&#45;&gt;Node2 -->
<g id="edge1" class="edge">
<title>Node1&#45;&gt;Node2</title>
<path fill="none" stroke="midnightblue" d="M650.09,-288.74C530.23,-277.93 307.92,-249.86 263,-188 252.07,-172.94 259.19,-134.12 274,-112 283.22,-98.24 298.21,-87.66 311.78,-80.22"/>
<polygon fill="midnightblue" stroke="midnightblue" points="313.55,-83.25 320.86,-75.58 310.36,-77.02 313.55,-83.25"/>
</g>
<!-- Node3 -->
<g id="node3" class="node">
<title>Node3</title>
<g id="a_node3"><a xlink:title=" ">
<polygon fill="none" stroke="#bfbfbf" points="0,-0.5 0,-19.5 64,-19.5 64,-0.5 0,-0.5"/>
<text text-anchor="middle" x="32" y="-7.5" font-family="Helvetica,sans-Serif" font-size="10.00">algorithm</text>
</a>
</g>
</g>
<!-- Node1&#45;&gt;Node3 -->
<g id="edge40" class="edge">
<title>Node1&#45;&gt;Node3</title>
<path fill="none" stroke="midnightblue" d="M650.49,-293.56C510.43,-290.94 218.62,-281.06 125,-244 81.76,-226.88 43,-225.51 43,-179 43,-179 43,-179 43,-121 43,-88.79 38.27,-51.53 35.02,-29.69"/>
<polygon fill="midnightblue" stroke="midnightblue" points="38.43,-28.87 33.44,-19.53 31.51,-29.95 38.43,-28.87"/>
</g>
<!-- Node4 -->
<g id="node4" class="node">
<title>Node4</title>
<g id="a_node4"><a xlink:title=" ">
<polygon fill="none" stroke="#bfbfbf" points="148,-0.5 148,-19.5 200,-19.5 200,-0.5 148,-0.5"/>
<text text-anchor="middle" x="174" y="-7.5" font-family="Helvetica,sans-Serif" font-size="10.00">cassert</text>
</a>
</g>
</g>
<!-- Node1&#45;&gt;Node4 -->
<g id="edge41" class="edge">
<title>Node1&#45;&gt;Node4</title>
<path fill="none" stroke="midnightblue" d="M650.35,-295.16C491.91,-294.44 143,-281.25 143,-179 143,-179 143,-179 143,-121 143,-87.41 156.56,-50.14 165.74,-28.75"/>
<polygon fill="midnightblue" stroke="midnightblue" points="168.94,-30.17 169.82,-19.61 162.55,-27.31 168.94,-30.17"/>
</g>
<!-- Node6 -->
<g id="node6" class="node">
<title>Node6</title>
<g id="a_node6"><a xlink:title=" ">
<polygon fill="none" stroke="#bfbfbf" points="606,-0.5 606,-19.5 656,-19.5 656,-0.5 606,-0.5"/>
<text text-anchor="middle" x="631" y="-7.5" font-family="Helvetica,sans-Serif" font-size="10.00">cstdint</text>
</a>
</g>
</g>
<!-- Node1&#45;&gt;Node6 -->
<g id="edge43" class="edge">
<title>Node1&#45;&gt;Node6</title>
<path fill="none" stroke="midnightblue" d="M801.12,-280.5C892.59,-261.85 1040.95,-226.68 1081,-188 1106.04,-163.81 1107,-146.11 1100,-112 1094.56,-85.47 1097.83,-72.03 1076,-56 1043.2,-31.92 765.77,-17.1 666.31,-12.52"/>
<polygon fill="midnightblue" stroke="midnightblue" points="666.31,-9.02 656.16,-12.07 666,-16.01 666.31,-9.02"/>
</g>
<!-- Node11 -->
<g id="node11" class="node">
<title>Node11</title>
<g id="a_node11"><a xlink:title=" ">
<polygon fill="none" stroke="#bfbfbf" points="82.5,-0.5 82.5,-19.5 129.5,-19.5 129.5,-0.5 82.5,-0.5"/>
<text text-anchor="middle" x="106" y="-7.5" font-family="Helvetica,sans-Serif" font-size="10.00">vector</text>
</a>
</g>
</g>
<!-- Node1&#45;&gt;Node11 -->
<g id="edge47" class="edge">
<title>Node1&#45;&gt;Node11</title>
<path fill="none" stroke="midnightblue" d="M650.38,-293.94C518.14,-291.93 253.26,-282.99 170,-244 133,-226.68 105,-219.86 105,-179 105,-179 105,-179 105,-121 105,-88.95 105.43,-51.64 105.73,-29.75"/>
<polygon fill="midnightblue" stroke="midnightblue" points="109.23,-29.61 105.87,-19.56 102.23,-29.51 109.23,-29.61"/>
</g>
<!-- Node12 -->
<g id="node12" class="node">
<title>Node12</title>
<g id="a_node12"><a xlink:href="../../d0/daf/_raw_decoder_exception_8h.html" target="_top" xlink:title=" ">
<polygon fill="none" stroke="black" points="869,-168.5 869,-187.5 1051,-187.5 1051,-168.5 869,-168.5"/>
<text text-anchor="middle" x="960" y="-175.5" font-family="Helvetica,sans-Serif" font-size="10.00">decoders/RawDecoderException.h</text>
</a>
</g>
</g>
<!-- Node1&#45;&gt;Node12 -->
<g id="edge11" class="edge">
<title>Node1&#45;&gt;Node12</title>
<path fill="none" stroke="midnightblue" d="M755.57,-280.34C801.1,-257.77 889.46,-213.97 933.59,-192.09"/>
<polygon fill="midnightblue" stroke="midnightblue" points="935.4,-195.1 942.81,-187.52 932.29,-188.83 935.4,-195.1"/>
</g>
<!-- Node19 -->
<g id="node19" class="node">
<title>Node19</title>
<g id="a_node19"><a xlink:href="../../d7/d1b/_buffer_8h.html" target="_top" xlink:title=" ">
<polygon fill="none" stroke="black" points="444,-224.5 444,-243.5 510,-243.5 510,-224.5 444,-224.5"/>
<text text-anchor="middle" x="477" y="-231.5" font-family="Helvetica,sans-Serif" font-size="10.00">io/Buffer.h</text>
</a>
</g>
</g>
<!-- Node1&#45;&gt;Node19 -->
<g id="edge20" class="edge">
<title>Node1&#45;&gt;Node19</title>
<path fill="none" stroke="midnightblue" d="M668.07,-280.47C622.69,-269.67 561.01,-254.99 520.15,-245.27"/>
<polygon fill="midnightblue" stroke="midnightblue" points="520.77,-241.82 510.23,-242.91 519.15,-248.63 520.77,-241.82"/>
</g>
<!-- Node21 -->
<g id="node21" class="node">
<title>Node21</title>
<g id="a_node21"><a xlink:title=" ">
<polygon fill="none" stroke="#bfbfbf" points="618.5,-112.5 618.5,-131.5 671.5,-131.5 671.5,-112.5 618.5,-112.5"/>
<text text-anchor="middle" x="645" y="-119.5" font-family="Helvetica,sans-Serif" font-size="10.00">cstddef</text>
</a>
</g>
</g>
<!-- Node1&#45;&gt;Node21 -->
<g id="edge42" class="edge">
<title>Node1&#45;&gt;Node21</title>
<path fill="none" stroke="midnightblue" d="M728.28,-280.39C729.84,-255.68 729.93,-203.79 708,-168 699.75,-154.54 685.8,-143.95 673.13,-136.44"/>
<polygon fill="midnightblue" stroke="midnightblue" points="674.66,-133.29 664.22,-131.52 671.28,-139.42 674.66,-133.29"/>
</g>
<!-- Node27 -->
<g id="node27" class="node">
<title>Node27</title>
<g id="a_node27"><a xlink:title=" ">
<polygon fill="none" stroke="#bfbfbf" points="1036.5,-224.5 1036.5,-243.5 1101.5,-243.5 1101.5,-224.5 1036.5,-224.5"/>
<text text-anchor="middle" x="1069" y="-231.5" font-family="Helvetica,sans-Serif" font-size="10.00">functional</text>
</a>
</g>
</g>
<!-- Node1&#45;&gt;Node27 -->
<g id="edge44" class="edge">
<title>Node1&#45;&gt;Node27</title>
<path fill="none" stroke="midnightblue" d="M803.78,-281.78C863.36,-271.81 947.99,-257.42 1022,-244 1023.46,-243.74 1024.94,-243.47 1026.43,-243.19"/>
<polygon fill="midnightblue" stroke="midnightblue" points="1027.21,-246.6 1036.4,-241.33 1025.93,-239.72 1027.21,-246.6"/>
</g>
<!-- Node28 -->
<g id="node28" class="node">
<title>Node28</title>
<g id="a_node28"><a xlink:title=" ">
<polygon fill="none" stroke="#bfbfbf" points="1119.5,-224.5 1119.5,-243.5 1172.5,-243.5 1172.5,-224.5 1119.5,-224.5"/>
<text text-anchor="middle" x="1146" y="-231.5" font-family="Helvetica,sans-Serif" font-size="10.00">iterator</text>
</a>
</g>
</g>
<!-- Node1&#45;&gt;Node28 -->
<g id="edge45" class="edge">
<title>Node1&#45;&gt;Node28</title>
<path fill="none" stroke="midnightblue" d="M803.58,-287.19C879.12,-279.34 998,-265.33 1109.27,-244.15"/>
<polygon fill="midnightblue" stroke="midnightblue" points="1110.17,-247.54 1119.32,-242.21 1108.84,-240.67 1110.17,-247.54"/>
</g>
<!-- Node29 -->
<g id="node29" class="node">
<title>Node29</title>
<g id="a_node29"><a xlink:title=" ">
<polygon fill="none" stroke="#bfbfbf" points="1191,-224.5 1191,-243.5 1247,-243.5 1247,-224.5 1191,-224.5"/>
<text text-anchor="middle" x="1219" y="-231.5" font-family="Helvetica,sans-Serif" font-size="10.00">numeric</text>
</a>
</g>
</g>
<!-- Node1&#45;&gt;Node29 -->
<g id="edge46" class="edge">
<title>Node1&#45;&gt;Node29</title>
<path fill="none" stroke="midnightblue" d="M803.5,-289.02C892.14,-281.99 1042.66,-267.97 1180.87,-244"/>
<polygon fill="midnightblue" stroke="midnightblue" points="1181.55,-247.43 1190.8,-242.25 1180.34,-240.54 1181.55,-247.43"/>
</g>
<!-- Node2&#45;&gt;Node3 -->
<g id="edge2" class="edge">
<title>Node2&#45;&gt;Node3</title>
<path fill="none" stroke="midnightblue" d="M285.95,-56.47C233.67,-48.32 153.27,-35.3 74.32,-20.18"/>
<polygon fill="midnightblue" stroke="midnightblue" points="74.68,-16.68 64.2,-18.23 73.35,-23.56 74.68,-16.68"/>
</g>
<!-- Node2&#45;&gt;Node4 -->
<g id="edge3" class="edge">
<title>Node2&#45;&gt;Node4</title>
<path fill="none" stroke="midnightblue" d="M315.38,-56.44C286.91,-47.29 241.6,-32.73 209.97,-22.56"/>
<polygon fill="midnightblue" stroke="midnightblue" points="210.81,-19.16 200.22,-19.43 208.67,-25.82 210.81,-19.16"/>
</g>
<!-- Node5 -->
<g id="node5" class="node">
<title>Node5</title>
<g id="a_node5"><a xlink:title=" ">
<polygon fill="none" stroke="#bfbfbf" points="470,-0.5 470,-19.5 520,-19.5 520,-0.5 470,-0.5"/>
<text text-anchor="middle" x="495" y="-7.5" font-family="Helvetica,sans-Serif" font-size="10.00">climits</text>
</a>
</g>
</g>
<!-- Node2&#45;&gt;Node5 -->
<g id="edge4" class="edge">
<title>Node2&#45;&gt;Node5</title>
<path fill="none" stroke="midnightblue" d="M366.24,-56.44C391.87,-47.4 432.49,-33.06 461.24,-22.92"/>
<polygon fill="midnightblue" stroke="midnightblue" points="462.61,-26.15 470.87,-19.52 460.28,-19.54 462.61,-26.15"/>
</g>
<!-- Node2&#45;&gt;Node6 -->
<g id="edge5" class="edge">
<title>Node2&#45;&gt;Node6</title>
<path fill="none" stroke="midnightblue" d="M398.23,-56.47C447.85,-48.63 522.32,-36.09 595.9,-20.1"/>
<polygon fill="midnightblue" stroke="midnightblue" points="596.79,-23.49 605.81,-17.92 595.29,-16.65 596.79,-23.49"/>
</g>
<!-- Node7 -->
<g id="node7" class="node">
<title>Node7</title>
<g id="a_node7"><a xlink:title=" ">
<polygon fill="none" stroke="#bfbfbf" points="538,-0.5 538,-19.5 588,-19.5 588,-0.5 538,-0.5"/>
<text text-anchor="middle" x="563" y="-7.5" font-family="Helvetica,sans-Serif" font-size="10.00">cstring</text>
</a>
</g>
</g>
<!-- Node2&#45;&gt;Node7 -->
<g id="edge6" class="edge">
<title>Node2&#45;&gt;Node7</title>
<path fill="none" stroke="midnightblue" d="M378.61,-56.45C414.29,-48.06 470.32,-34.73 527.78,-20.27"/>
<polygon fill="midnightblue" stroke="midnightblue" points="528.93,-23.59 537.77,-17.75 527.21,-16.8 528.93,-23.59"/>
</g>
<!-- Node8 -->
<g id="node8" class="node">
<title>Node8</title>
<g id="a_node8"><a xlink:title=" ">
<polygon fill="none" stroke="#bfbfbf" points="218.5,-0.5 218.5,-19.5 301.5,-19.5 301.5,-0.5 218.5,-0.5"/>
<text text-anchor="middle" x="260" y="-7.5" font-family="Helvetica,sans-Serif" font-size="10.00">initializer_list</text>
</a>
</g>
</g>
<!-- Node2&#45;&gt;Node8 -->
<g id="edge7" class="edge">
<title>Node2&#45;&gt;Node8</title>
<path fill="none" stroke="midnightblue" d="M328.83,-56.32C316.15,-47.98 296.77,-35.21 281.79,-25.35"/>
<polygon fill="midnightblue" stroke="midnightblue" points="283.42,-22.23 273.14,-19.65 279.57,-28.08 283.42,-22.23"/>
</g>
<!-- Node9 -->
<g id="node9" class="node">
<title>Node9</title>
<g id="a_node9"><a xlink:title=" ">
<polygon fill="none" stroke="#bfbfbf" points="320,-0.5 320,-19.5 364,-19.5 364,-0.5 320,-0.5"/>
<text text-anchor="middle" x="342" y="-7.5" font-family="Helvetica,sans-Serif" font-size="10.00">string</text>
</a>
</g>
</g>
<!-- Node2&#45;&gt;Node9 -->
<g id="edge8" class="edge">
<title>Node2&#45;&gt;Node9</title>
<path fill="none" stroke="midnightblue" d="M342,-56.08C342,-49.01 342,-38.86 342,-29.99"/>
<polygon fill="midnightblue" stroke="midnightblue" points="345.5,-29.75 342,-19.75 338.5,-29.75 345.5,-29.75"/>
</g>
<!-- Node10 -->
<g id="node10" class="node">
<title>Node10</title>
<g id="a_node10"><a xlink:title=" ">
<polygon fill="none" stroke="#bfbfbf" points="382.5,-0.5 382.5,-19.5 451.5,-19.5 451.5,-0.5 382.5,-0.5"/>
<text text-anchor="middle" x="417" y="-7.5" font-family="Helvetica,sans-Serif" font-size="10.00">type_traits</text>
</a>
</g>
</g>
<!-- Node2&#45;&gt;Node10 -->
<g id="edge9" class="edge">
<title>Node2&#45;&gt;Node10</title>
<path fill="none" stroke="midnightblue" d="M354.05,-56.32C365.46,-48.11 382.83,-35.6 396.43,-25.81"/>
<polygon fill="midnightblue" stroke="midnightblue" points="398.66,-28.52 404.73,-19.83 394.57,-22.84 398.66,-28.52"/>
</g>
<!-- Node2&#45;&gt;Node11 -->
<g id="edge10" class="edge">
<title>Node2&#45;&gt;Node11</title>
<path fill="none" stroke="midnightblue" d="M300.65,-56.44C261.62,-48.23 201.24,-35.18 139.65,-20.07"/>
<polygon fill="midnightblue" stroke="midnightblue" points="140.3,-16.62 129.76,-17.63 138.63,-23.42 140.3,-16.62"/>
</g>
<!-- Node13 -->
<g id="node13" class="node">
<title>Node13</title>
<g id="a_node13"><a xlink:title=" ">
<polygon fill="none" stroke="#bfbfbf" points="664,-56.5 664,-75.5 766,-75.5 766,-56.5 664,-56.5"/>
<text text-anchor="middle" x="715" y="-63.5" font-family="Helvetica,sans-Serif" font-size="10.00">rawspeedconfig.h</text>
</a>
</g>
</g>
<!-- Node12&#45;&gt;Node13 -->
<g id="edge12" class="edge">
<title>Node12&#45;&gt;Node13</title>
<path fill="none" stroke="midnightblue" d="M896.46,-168.48C861.94,-161.97 819.41,-150.8 785,-132 762.37,-119.64 741.41,-98.31 728.43,-83.48"/>
<polygon fill="midnightblue" stroke="midnightblue" points="730.9,-80.97 721.77,-75.6 725.56,-85.5 730.9,-80.97"/>
</g>
<!-- Node14 -->
<g id="node14" class="node">
<title>Node14</title>
<g id="a_node14"><a xlink:href="../../d7/d05/_rawspeed_exception_8h.html" target="_top" xlink:title=" ">
<polygon fill="none" stroke="black" points="794,-112.5 794,-131.5 964,-131.5 964,-112.5 794,-112.5"/>
<text text-anchor="middle" x="879" y="-119.5" font-family="Helvetica,sans-Serif" font-size="10.00">common/RawspeedException.h</text>
</a>
</g>
</g>
<!-- Node12&#45;&gt;Node14 -->
<g id="edge13" class="edge">
<title>Node12&#45;&gt;Node14</title>
<path fill="none" stroke="midnightblue" d="M946.99,-168.32C934.47,-159.98 915.32,-147.21 900.53,-137.35"/>
<polygon fill="midnightblue" stroke="midnightblue" points="902.24,-134.29 891.98,-131.65 898.36,-140.11 902.24,-134.29"/>
</g>
<!-- Node14&#45;&gt;Node2 -->
<g id="edge15" class="edge">
<title>Node14&#45;&gt;Node2</title>
<path fill="none" stroke="midnightblue" d="M793.6,-113.32C700.65,-104.82 547.66,-90.4 416,-76 414.07,-75.79 412.11,-75.57 410.14,-75.35"/>
<polygon fill="midnightblue" stroke="midnightblue" points="410.49,-71.87 400.15,-74.21 409.69,-78.82 410.49,-71.87"/>
</g>
<!-- Node14&#45;&gt;Node13 -->
<g id="edge14" class="edge">
<title>Node14&#45;&gt;Node13</title>
<path fill="none" stroke="midnightblue" d="M853.01,-112.44C825.3,-103.32 781.25,-88.81 750.38,-78.65"/>
<polygon fill="midnightblue" stroke="midnightblue" points="751.46,-75.32 740.86,-75.52 749.27,-81.97 751.46,-75.32"/>
</g>
<!-- Node15 -->
<g id="node15" class="node">
<title>Node15</title>
<g id="a_node15"><a xlink:title=" ">
<polygon fill="none" stroke="#bfbfbf" points="932,-56.5 932,-75.5 974,-75.5 974,-56.5 932,-56.5"/>
<text text-anchor="middle" x="953" y="-63.5" font-family="Helvetica,sans-Serif" font-size="10.00">array</text>
</a>
</g>
</g>
<!-- Node14&#45;&gt;Node15 -->
<g id="edge16" class="edge">
<title>Node14&#45;&gt;Node15</title>
<path fill="none" stroke="midnightblue" d="M890.89,-112.32C902.15,-104.11 919.29,-91.6 932.71,-81.81"/>
<polygon fill="midnightblue" stroke="midnightblue" points="934.88,-84.56 940.89,-75.83 930.75,-78.9 934.88,-84.56"/>
</g>
<!-- Node16 -->
<g id="node16" class="node">
<title>Node16</title>
<g id="a_node16"><a xlink:title=" ">
<polygon fill="none" stroke="#bfbfbf" points="992.5,-56.5 992.5,-75.5 1045.5,-75.5 1045.5,-56.5 992.5,-56.5"/>
<text text-anchor="middle" x="1019" y="-63.5" font-family="Helvetica,sans-Serif" font-size="10.00">cstdarg</text>
</a>
</g>
</g>
<!-- Node14&#45;&gt;Node16 -->
<g id="edge17" class="edge">
<title>Node14&#45;&gt;Node16</title>
<path fill="none" stroke="midnightblue" d="M901.18,-112.44C924.43,-103.48 961.15,-89.31 987.42,-79.18"/>
<polygon fill="midnightblue" stroke="midnightblue" points="988.85,-82.38 996.92,-75.52 986.33,-75.85 988.85,-82.38"/>
</g>
<!-- Node17 -->
<g id="node17" class="node">
<title>Node17</title>
<g id="a_node17"><a xlink:title=" ">
<polygon fill="none" stroke="#bfbfbf" points="784,-56.5 784,-75.5 830,-75.5 830,-56.5 784,-56.5"/>
<text text-anchor="middle" x="807" y="-63.5" font-family="Helvetica,sans-Serif" font-size="10.00">cstdio</text>
</a>
</g>
</g>
<!-- Node14&#45;&gt;Node17 -->
<g id="edge18" class="edge">
<title>Node14&#45;&gt;Node17</title>
<path fill="none" stroke="midnightblue" d="M867.43,-112.32C856.58,-104.18 840.12,-91.84 827.12,-82.09"/>
<polygon fill="midnightblue" stroke="midnightblue" points="828.88,-79.03 818.78,-75.83 824.68,-84.63 828.88,-79.03"/>
</g>
<!-- Node18 -->
<g id="node18" class="node">
<title>Node18</title>
<g id="a_node18"><a xlink:title=" ">
<polygon fill="none" stroke="#bfbfbf" points="848.5,-56.5 848.5,-75.5 913.5,-75.5 913.5,-56.5 848.5,-56.5"/>
<text text-anchor="middle" x="881" y="-63.5" font-family="Helvetica,sans-Serif" font-size="10.00">stdexcept</text>
</a>
</g>
</g>
<!-- Node14&#45;&gt;Node18 -->
<g id="edge19" class="edge">
<title>Node14&#45;&gt;Node18</title>
<path fill="none" stroke="midnightblue" d="M879.33,-112.08C879.59,-105.01 879.97,-94.86 880.3,-85.99"/>
<polygon fill="midnightblue" stroke="midnightblue" points="883.8,-85.87 880.68,-75.75 876.81,-85.61 883.8,-85.87"/>
</g>
<!-- Node19&#45;&gt;Node2 -->
<g id="edge23" class="edge">
<title>Node19&#45;&gt;Node2</title>
<path fill="none" stroke="midnightblue" d="M443.96,-230.49C392.44,-225.82 296.68,-213.82 276,-188 248.48,-153.64 294.6,-106.18 322.73,-82.19"/>
<polygon fill="midnightblue" stroke="midnightblue" points="325.3,-84.6 330.78,-75.54 320.84,-79.21 325.3,-84.6"/>
</g>
<!-- Node19&#45;&gt;Node4 -->
<g id="edge36" class="edge">
<title>Node19&#45;&gt;Node4</title>
<path fill="none" stroke="midnightblue" d="M443.6,-229.53C390.73,-223.46 290.9,-209.48 263,-188 209.9,-147.12 186.07,-65.93 177.72,-29.48"/>
<polygon fill="midnightblue" stroke="midnightblue" points="181.14,-28.73 175.61,-19.69 174.3,-30.21 181.14,-28.73"/>
</g>
<!-- Node19&#45;&gt;Node6 -->
<g id="edge37" class="edge">
<title>Node19&#45;&gt;Node6</title>
<path fill="none" stroke="midnightblue" d="M510.05,-233C627.89,-232.67 1022.5,-228.51 1060,-188 1071.57,-175.5 1116.34,-121.21 1055,-56 1028.54,-27.87 763.49,-15.7 666.4,-12.16"/>
<polygon fill="midnightblue" stroke="midnightblue" points="666.33,-8.66 656.21,-11.8 666.08,-15.65 666.33,-8.66"/>
</g>
<!-- Node20 -->
<g id="node20" class="node">
<title>Node20</title>
<g id="a_node20"><a xlink:href="../../d2/d4f/_address_sanitizer_8h.html" target="_top" xlink:title=" ">
<polygon fill="none" stroke="black" points="591.5,-168.5 591.5,-187.5 698.5,-187.5 698.5,-168.5 591.5,-168.5"/>
<text text-anchor="middle" x="645" y="-175.5" font-family="Helvetica,sans-Serif" font-size="10.00">AddressSanitizer.h</text>
</a>
</g>
</g>
<!-- Node19&#45;&gt;Node20 -->
<g id="edge21" class="edge">
<title>Node19&#45;&gt;Node20</title>
<path fill="none" stroke="midnightblue" d="M503.62,-224.44C532.01,-215.32 577.14,-200.81 608.75,-190.65"/>
<polygon fill="midnightblue" stroke="midnightblue" points="610.06,-193.91 618.5,-187.52 607.91,-187.24 610.06,-193.91"/>
</g>
<!-- Node22 -->
<g id="node22" class="node">
<title>Node22</title>
<g id="a_node22"><a xlink:href="../../d3/de6/_memory_8h.html" target="_top" xlink:title=" ">
<polygon fill="none" stroke="black" points="463,-168.5 463,-187.5 573,-187.5 573,-168.5 463,-168.5"/>
<text text-anchor="middle" x="518" y="-175.5" font-family="Helvetica,sans-Serif" font-size="10.00">common/Memory.h</text>
</a>
</g>
</g>
<!-- Node19&#45;&gt;Node22 -->
<g id="edge24" class="edge">
<title>Node19&#45;&gt;Node22</title>
<path fill="none" stroke="midnightblue" d="M483.77,-224.08C489.56,-216.46 498.06,-205.26 505.14,-195.94"/>
<polygon fill="midnightblue" stroke="midnightblue" points="508.1,-197.83 511.36,-187.75 502.52,-193.6 508.1,-197.83"/>
</g>
<!-- Node23 -->
<g id="node23" class="node">
<title>Node23</title>
<g id="a_node23"><a xlink:href="../../d5/d0b/_endianness_8h.html" target="_top" xlink:title=" ">
<polygon fill="none" stroke="black" points="424.5,-56.5 424.5,-75.5 517.5,-75.5 517.5,-56.5 424.5,-56.5"/>
<text text-anchor="middle" x="471" y="-63.5" font-family="Helvetica,sans-Serif" font-size="10.00">io/Endianness.h</text>
</a>
</g>
</g>
<!-- Node19&#45;&gt;Node23 -->
<g id="edge29" class="edge">
<title>Node19&#45;&gt;Node23</title>
<path fill="none" stroke="midnightblue" d="M470.9,-224.19C465.25,-215.46 457.24,-201.48 454,-188 445.35,-152.05 456.36,-108.96 464.27,-85.12"/>
<polygon fill="midnightblue" stroke="midnightblue" points="467.59,-86.21 467.6,-75.62 460.99,-83.89 467.59,-86.21"/>
</g>
<!-- Node24 -->
<g id="node24" class="node">
<title>Node24</title>
<g id="a_node24"><a xlink:href="../../d0/dd8/_i_o_exception_8h.html" target="_top" xlink:title=" ">
<polygon fill="none" stroke="black" points="755,-168.5 755,-187.5 851,-187.5 851,-168.5 755,-168.5"/>
<text text-anchor="middle" x="803" y="-175.5" font-family="Helvetica,sans-Serif" font-size="10.00">io/IOException.h</text>
</a>
</g>
</g>
<!-- Node19&#45;&gt;Node24 -->
<g id="edge33" class="edge">
<title>Node19&#45;&gt;Node24</title>
<path fill="none" stroke="midnightblue" d="M510.05,-227.53C565.1,-218.41 676.24,-200 744.69,-188.66"/>
<polygon fill="midnightblue" stroke="midnightblue" points="745.59,-192.06 754.88,-186.97 744.44,-185.15 745.59,-192.06"/>
</g>
<!-- Node25 -->
<g id="node25" class="node">
<title>Node25</title>
<g id="a_node25"><a xlink:title=" ">
<polygon fill="none" stroke="#bfbfbf" points="285,-168.5 285,-187.5 343,-187.5 343,-168.5 285,-168.5"/>
<text text-anchor="middle" x="314" y="-175.5" font-family="Helvetica,sans-Serif" font-size="10.00">memory</text>
</a>
</g>
</g>
<!-- Node19&#45;&gt;Node25 -->
<g id="edge38" class="edge">
<title>Node19&#45;&gt;Node25</title>
<path fill="none" stroke="midnightblue" d="M451.17,-224.44C423.75,-215.36 380.22,-200.94 349.57,-190.78"/>
<polygon fill="midnightblue" stroke="midnightblue" points="350.3,-187.34 339.71,-187.52 348.1,-193.98 350.3,-187.34"/>
</g>
<!-- Node26 -->
<g id="node26" class="node">
<title>Node26</title>
<g id="a_node26"><a xlink:title=" ">
<polygon fill="none" stroke="#bfbfbf" points="361.5,-168.5 361.5,-187.5 406.5,-187.5 406.5,-168.5 361.5,-168.5"/>
<text text-anchor="middle" x="384" y="-175.5" font-family="Helvetica,sans-Serif" font-size="10.00">utility</text>
</a>
</g>
</g>
<!-- Node19&#45;&gt;Node26 -->
<g id="edge39" class="edge">
<title>Node19&#45;&gt;Node26</title>
<path fill="none" stroke="midnightblue" d="M462.06,-224.32C447.41,-215.82 424.87,-202.73 407.76,-192.8"/>
<polygon fill="midnightblue" stroke="midnightblue" points="409.31,-189.65 398.9,-187.65 405.8,-195.7 409.31,-189.65"/>
</g>
<!-- Node20&#45;&gt;Node21 -->
<g id="edge22" class="edge">
<title>Node20&#45;&gt;Node21</title>
<path fill="none" stroke="midnightblue" d="M645,-168.08C645,-161.01 645,-150.86 645,-141.99"/>
<polygon fill="midnightblue" stroke="midnightblue" points="648.5,-141.75 645,-131.75 641.5,-141.75 648.5,-141.75"/>
</g>
<!-- Node22&#45;&gt;Node2 -->
<g id="edge26" class="edge">
<title>Node22&#45;&gt;Node2</title>
<path fill="none" stroke="midnightblue" d="M504.19,-168.37C473.86,-149.41 401.2,-104 364.31,-80.94"/>
<polygon fill="midnightblue" stroke="midnightblue" points="366.08,-77.92 355.75,-75.59 362.37,-83.86 366.08,-77.92"/>
</g>
<!-- Node22&#45;&gt;Node6 -->
<g id="edge28" class="edge">
<title>Node22&#45;&gt;Node6</title>
<path fill="none" stroke="midnightblue" d="M524.08,-168.08C542.09,-141.61 595.46,-63.21 619.28,-28.21"/>
<polygon fill="midnightblue" stroke="midnightblue" points="622.43,-29.8 625.17,-19.57 616.65,-25.87 622.43,-29.8"/>
</g>
<!-- Node22&#45;&gt;Node13 -->
<g id="edge25" class="edge">
<title>Node22&#45;&gt;Node13</title>
<path fill="none" stroke="midnightblue" d="M528.56,-168.42C545.17,-155.18 578.77,-129.47 610,-112 633.01,-99.13 660.44,-87.49 681.49,-79.27"/>
<polygon fill="midnightblue" stroke="midnightblue" points="682.89,-82.49 690.97,-75.64 680.38,-75.95 682.89,-82.49"/>
</g>
<!-- Node22&#45;&gt;Node21 -->
<g id="edge27" class="edge">
<title>Node22&#45;&gt;Node21</title>
<path fill="none" stroke="midnightblue" d="M538.12,-168.44C559.02,-159.56 591.93,-145.56 615.72,-135.45"/>
<polygon fill="midnightblue" stroke="midnightblue" points="617.14,-138.65 624.97,-131.52 614.4,-132.21 617.14,-138.65"/>
</g>
<!-- Node23&#45;&gt;Node4 -->
<g id="edge30" class="edge">
<title>Node23&#45;&gt;Node4</title>
<path fill="none" stroke="midnightblue" d="M424.12,-57.99C373.78,-50.23 291.23,-36.8 210.17,-19.89"/>
<polygon fill="midnightblue" stroke="midnightblue" points="210.8,-16.45 200.29,-17.81 209.36,-23.3 210.8,-16.45"/>
</g>
<!-- Node23&#45;&gt;Node6 -->
<g id="edge31" class="edge">
<title>Node23&#45;&gt;Node6</title>
<path fill="none" stroke="midnightblue" d="M496.35,-56.44C523.27,-47.36 566,-32.94 596.09,-22.78"/>
<polygon fill="midnightblue" stroke="midnightblue" points="597.41,-26.03 605.77,-19.52 595.17,-19.4 597.41,-26.03"/>
</g>
<!-- Node23&#45;&gt;Node7 -->
<g id="edge32" class="edge">
<title>Node23&#45;&gt;Node7</title>
<path fill="none" stroke="midnightblue" d="M485.78,-56.32C500.27,-47.82 522.57,-34.73 539.49,-24.8"/>
<polygon fill="midnightblue" stroke="midnightblue" points="541.4,-27.74 548.26,-19.65 537.86,-21.7 541.4,-27.74"/>
</g>
<!-- Node24&#45;&gt;Node13 -->
<g id="edge34" class="edge">
<title>Node24&#45;&gt;Node13</title>
<path fill="none" stroke="midnightblue" d="M789.44,-168.31C777.39,-160.08 759.91,-146.8 748,-132 736.5,-117.7 727.43,-98.74 721.74,-84.99"/>
<polygon fill="midnightblue" stroke="midnightblue" points="724.98,-83.67 718.06,-75.65 718.47,-86.24 724.98,-83.67"/>
</g>
<!-- Node24&#45;&gt;Node14 -->
<g id="edge35" class="edge">
<title>Node24&#45;&gt;Node14</title>
<path fill="none" stroke="midnightblue" d="M815.21,-168.32C826.78,-160.11 844.38,-147.6 858.16,-137.81"/>
<polygon fill="midnightblue" stroke="midnightblue" points="860.44,-140.48 866.57,-131.83 856.39,-134.77 860.44,-140.48"/>
</g>
</g>
</svg>
        <g id="navigator" transform="translate(0 0)" fill="#404254">
                <rect fill="#f2f5e9" fill-opacity="0.5" stroke="#606060" stroke-width=".5" x="0" y="0" width="60" height="60"/>
                <use id="zoomplus" xlink:href="#zoomPlus" x="17" y="9" onmousedown="handleZoom(evt,'in')"/>
                <use id="zoomminus" xlink:href="#zoomMin" x="42" y="9" onmousedown="handleZoom(evt,'out')"/>
                <use id="reset" xlink:href="#resetDef" x="30" y="36" onmousedown="handleReset()"/>
                <g id="arrowUp" xlink:href="#dirArrow" transform="translate(30 24)" onmousedown="handlePan(0,-1)">
                  <use xlink:href="#rim" fill="#404040">
                        <set attributeName="fill" to="#808080" begin="arrowUp.mouseover" end="arrowUp.mouseout"/>
                  </use>
                  <path fill="none" stroke="white" stroke-width="1.5" d="M0,-3.0v7 M-2.5,-0.5L0,-3.0L2.5,-0.5"/>
                </g>
                <g id="arrowRight" xlink:href="#dirArrow" transform="rotate(90) translate(36 -43)" onmousedown="handlePan(1,0)">
                  <use xlink:href="#rim" fill="#404040">
                        <set attributeName="fill" to="#808080" begin="arrowRight.mouseover" end="arrowRight.mouseout"/>
                  </use>
                  <path fill="none" stroke="white" stroke-width="1.5" d="M0,-3.0v7 M-2.5,-0.5L0,-3.0L2.5,-0.5"/>
                </g>
                <g id="arrowDown" xlink:href="#dirArrow" transform="rotate(180) translate(-30 -48)" onmousedown="handlePan(0,1)">
                  <use xlink:href="#rim" fill="#404040">
                        <set attributeName="fill" to="#808080" begin="arrowDown.mouseover" end="arrowDown.mouseout"/>
                  </use>
                  <path fill="none" stroke="white" stroke-width="1.5" d="M0,-3.0v7 M-2.5,-0.5L0,-3.0L2.5,-0.5"/>
                </g>
                <g id="arrowLeft" xlink:href="#dirArrow" transform="rotate(270) translate(-36 17)" onmousedown="handlePan(-1,0)">
                  <use xlink:href="#rim" fill="#404040">
                        <set attributeName="fill" to="#808080" begin="arrowLeft.mouseover" end="arrowLeft.mouseout"/>
                  </use>
                  <path fill="none" stroke="white" stroke-width="1.5" d="M0,-3.0v7 M-2.5,-0.5L0,-3.0L2.5,-0.5"/>
                </g>
        </g>
        <svg viewBox="0 0 15 15" width="100%" height="30px" preserveAspectRatio="xMaxYMin meet">
         <g id="arrow_out" transform="scale(0.3 0.3)">
          <a xlink:href="_abstract_huffman_table_8h__incl_org.svg" target="_base">
           <rect id="button" ry="5" rx="5" y="6" x="6" height="38" width="38"
                fill="#f2f5e9" fill-opacity="0.5" stroke="#606060" stroke-width="1.0"/>
           <path id="arrow"
             d="M 11.500037,31.436501 C 11.940474,20.09759 22.043105,11.32322 32.158766,21.979434 L 37.068811,17.246167 C 37.068811,17.246167 37.088388,32 37.088388,32 L 22.160133,31.978069 C 22.160133,31.978069 26.997745,27.140456 26.997745,27.140456 C 18.528582,18.264221 13.291696,25.230495 11.500037,31.436501 z"
             style="fill:#404040;"/>
          </a>
         </g>
        </svg>
</svg>
