<?xml version="1.0" encoding="UTF-8" standalone="no"?>
<!DOCTYPE svg PUBLIC "-//W3C//DTD SVG 1.1//EN"
 "http://www.w3.org/Graphics/SVG/1.1/DTD/svg11.dtd">
<!-- Generated by graphviz version 2.43.0 (0)
 -->
<!-- Title: librawspeed/parsers/RawParser.h Pages: 1 -->
<!--zoomable 184 -->
<svg id="main" version="1.1" xmlns="http://www.w3.org/2000/svg" xmlns:xlink="http://www.w3.org/1999/xlink" xml:space="preserve" onload="init(evt)">
<style type="text/css"><![CDATA[
.edge:hover path { stroke: red; }
.edge:hover polygon { stroke: red; fill: red; }
]]></style>
<script type="text/javascript"><![CDATA[
var edges = document.getElementsByTagName('g');
if (edges && edges.length) {
  for (var i=0;i<edges.length;i++) {
    if (edges[i].id.substr(0,4)=='edge') {
      edges[i].setAttribute('class','edge');
    }
  }
}
]]></script>
        <defs>
                <circle id="rim" cx="0" cy="0" r="7"/>
                <circle id="rim2" cx="0" cy="0" r="3.5"/>
                <g id="zoomPlus">
                        <use xlink:href="#rim" fill="#404040">
                                <set attributeName="fill" to="#808080" begin="zoomplus.mouseover" end="zoomplus.mouseout"/>
                        </use>
                        <path d="M-4,0h8M0,-4v8" fill="none" stroke="white" stroke-width="1.5" pointer-events="none"/>
                </g>
                <g id="zoomMin">
                        <use xlink:href="#rim" fill="#404040">
                                <set attributeName="fill" to="#808080" begin="zoomminus.mouseover" end="zoomminus.mouseout"/>
                        </use>
                        <path d="M-4,0h8" fill="none" stroke="white" stroke-width="1.5" pointer-events="none"/>
                </g>
                <g id="dirArrow">
                        <path fill="none" stroke="white" stroke-width="1.5" d="M0,-3.0v7 M-2.5,-0.5L0,-3.0L2.5,-0.5"/>
                </g>
               <g id="resetDef">
                       <use xlink:href="#rim2" fill="#404040">
                               <set attributeName="fill" to="#808080" begin="reset.mouseover" end="reset.mouseout"/>
                       </use>
               </g>
        </defs>

<script type="text/javascript">
var viewWidth = 1541;
var viewHeight = 184;
var sectionId = 'dynsection-1';
</script>
<script xlink:href="../../svgpan.js"/>
<svg id="graph" class="graph">
<g id="viewport">
<title>librawspeed/parsers/RawParser.h</title>
<!-- Node1 -->
<g id="node1" class="node">
<title>Node1</title>
<g id="a_node1"><a xlink:title=" ">
<polygon fill="#bfbfbf" stroke="black" points="599,-145.5 599,-175.5 714,-175.5 714,-145.5 599,-145.5"/>
<text text-anchor="start" x="607" y="-163.5" font-family="Helvetica,sans-Serif" font-size="10.00">librawspeed/parsers</text>
<text text-anchor="middle" x="656.5" y="-152.5" font-family="Helvetica,sans-Serif" font-size="10.00">/RawParser.h</text>
</a>
</g>
</g>
<!-- Node2 -->
<g id="node2" class="node">
<title>Node2</title>
<g id="a_node2"><a xlink:href="../../d3/dc8/_tiff_parser_8h.html" target="_top" xlink:title=" ">
<polygon fill="none" stroke="black" points="341,-78.5 341,-108.5 456,-108.5 456,-78.5 341,-78.5"/>
<text text-anchor="start" x="349" y="-96.5" font-family="Helvetica,sans-Serif" font-size="10.00">librawspeed/parsers</text>
<text text-anchor="middle" x="398.5" y="-85.5" font-family="Helvetica,sans-Serif" font-size="10.00">/TiffParser.h</text>
</a>
</g>
</g>
<!-- Node1&#45;&gt;Node2 -->
<g id="edge1" class="edge">
<title>Node1&#45;&gt;Node2</title>
<path fill="none" stroke="midnightblue" d="M590.95,-142.98C548.8,-132.37 494.64,-118.72 454.51,-108.61"/>
<polygon fill="midnightblue" stroke="midnightblue" points="590.28,-146.43 600.84,-145.48 591.99,-139.64 590.28,-146.43"/>
</g>
<!-- Node4 -->
<g id="node4" class="node">
<title>Node4</title>
<g id="a_node4"><a xlink:href="../../d1/d26/fuzz_2librawspeed_2parsers_2main_8cpp.html" target="_top" xlink:title=" ">
<polygon fill="none" stroke="black" points="554.5,-0.5 554.5,-41.5 672.5,-41.5 672.5,-0.5 554.5,-0.5"/>
<text text-anchor="start" x="562.5" y="-29.5" font-family="Helvetica,sans-Serif" font-size="10.00">/build/rawspeed/fuzz</text>
<text text-anchor="start" x="562.5" y="-18.5" font-family="Helvetica,sans-Serif" font-size="10.00">/librawspeed/parsers</text>
<text text-anchor="middle" x="613.5" y="-7.5" font-family="Helvetica,sans-Serif" font-size="10.00">/main.cpp</text>
</a>
</g>
</g>
<!-- Node1&#45;&gt;Node4 -->
<g id="edge8" class="edge">
<title>Node1&#45;&gt;Node4</title>
<path fill="none" stroke="midnightblue" d="M651.63,-135.63C648.04,-119.24 642.72,-97.09 636.5,-78 632.49,-65.71 627.03,-52.3 622.43,-41.69"/>
<polygon fill="midnightblue" stroke="midnightblue" points="648.22,-136.43 653.72,-145.48 655.06,-134.97 648.22,-136.43"/>
</g>
<!-- Node6 -->
<g id="node6" class="node">
<title>Node6</title>
<g id="a_node6"><a xlink:href="../../d2/d87/_fiff_parser_8cpp.html" target="_top" xlink:title=" ">
<polygon fill="none" stroke="black" points="421,-6 421,-36 536,-36 536,-6 421,-6"/>
<text text-anchor="start" x="429" y="-24" font-family="Helvetica,sans-Serif" font-size="10.00">librawspeed/parsers</text>
<text text-anchor="middle" x="478.5" y="-13" font-family="Helvetica,sans-Serif" font-size="10.00">/FiffParser.cpp</text>
</a>
</g>
</g>
<!-- Node1&#45;&gt;Node6 -->
<g id="edge22" class="edge">
<title>Node1&#45;&gt;Node6</title>
<path fill="none" stroke="midnightblue" d="M589.03,-151.6C559.2,-144.83 525.89,-132.28 503.5,-109 484.22,-88.95 479.65,-55.04 478.66,-36.01"/>
<polygon fill="midnightblue" stroke="midnightblue" points="588.49,-155.06 598.99,-153.68 589.92,-148.21 588.49,-155.06"/>
</g>
<!-- Node7 -->
<g id="node7" class="node">
<title>Node7</title>
<g id="a_node7"><a xlink:href="../../dc/d4a/_raw_parser_8cpp.html" target="_top" xlink:title=" ">
<polygon fill="none" stroke="black" points="691,-6 691,-36 806,-36 806,-6 691,-6"/>
<text text-anchor="start" x="699" y="-24" font-family="Helvetica,sans-Serif" font-size="10.00">librawspeed/parsers</text>
<text text-anchor="middle" x="748.5" y="-13" font-family="Helvetica,sans-Serif" font-size="10.00">/RawParser.cpp</text>
</a>
</g>
</g>
<!-- Node1&#45;&gt;Node7 -->
<g id="edge23" class="edge">
<title>Node1&#45;&gt;Node7</title>
<path fill="none" stroke="midnightblue" d="M724.14,-154.6C755.13,-148.56 789.19,-135.76 808.5,-109 826.75,-83.71 794.3,-53.64 770.44,-36.29"/>
<polygon fill="midnightblue" stroke="midnightblue" points="723.45,-151.16 714.2,-156.33 724.65,-158.06 723.45,-151.16"/>
</g>
<!-- Node9 -->
<g id="node9" class="node">
<title>Node9</title>
<g id="a_node9"><a xlink:href="../../dd/d2d/_ciff_parser_8h.html" target="_top" xlink:title=" ">
<polygon fill="none" stroke="black" points="685,-78.5 685,-108.5 800,-108.5 800,-78.5 685,-78.5"/>
<text text-anchor="start" x="693" y="-96.5" font-family="Helvetica,sans-Serif" font-size="10.00">librawspeed/parsers</text>
<text text-anchor="middle" x="742.5" y="-85.5" font-family="Helvetica,sans-Serif" font-size="10.00">/CiffParser.h</text>
</a>
</g>
</g>
<!-- Node1&#45;&gt;Node9 -->
<g id="edge9" class="edge">
<title>Node1&#45;&gt;Node9</title>
<path fill="none" stroke="midnightblue" d="M683.4,-139.17C696.55,-129.23 712.05,-117.51 723.88,-108.58"/>
<polygon fill="midnightblue" stroke="midnightblue" points="681.03,-136.57 675.16,-145.4 685.25,-142.16 681.03,-136.57"/>
</g>
<!-- Node11 -->
<g id="node11" class="node">
<title>Node11</title>
<g id="a_node11"><a xlink:href="../../d4/d4e/_fiff_parser_8h.html" target="_top" xlink:title=" ">
<polygon fill="none" stroke="black" points="513,-78.5 513,-108.5 628,-108.5 628,-78.5 513,-78.5"/>
<text text-anchor="start" x="521" y="-96.5" font-family="Helvetica,sans-Serif" font-size="10.00">librawspeed/parsers</text>
<text text-anchor="middle" x="570.5" y="-85.5" font-family="Helvetica,sans-Serif" font-size="10.00">/FiffParser.h</text>
</a>
</g>
</g>
<!-- Node1&#45;&gt;Node11 -->
<g id="edge13" class="edge">
<title>Node1&#45;&gt;Node11</title>
<path fill="none" stroke="midnightblue" d="M629.6,-139.17C616.45,-129.23 600.95,-117.51 589.12,-108.58"/>
<polygon fill="midnightblue" stroke="midnightblue" points="627.75,-142.16 637.84,-145.4 631.97,-136.57 627.75,-142.16"/>
</g>
<!-- Node12 -->
<g id="node12" class="node">
<title>Node12</title>
<g id="a_node12"><a xlink:href="../../d5/d31/_raw_speed-_a_p_i_8h.html" target="_top" xlink:title=" ">
<polygon fill="none" stroke="black" points="1108.5,-78.5 1108.5,-108.5 1238.5,-108.5 1238.5,-78.5 1108.5,-78.5"/>
<text text-anchor="start" x="1116.5" y="-96.5" font-family="Helvetica,sans-Serif" font-size="10.00">librawspeed/RawSpeed</text>
<text text-anchor="middle" x="1173.5" y="-85.5" font-family="Helvetica,sans-Serif" font-size="10.00">&#45;API.h</text>
</a>
</g>
</g>
<!-- Node1&#45;&gt;Node12 -->
<g id="edge17" class="edge">
<title>Node1&#45;&gt;Node12</title>
<path fill="none" stroke="midnightblue" d="M724.29,-150.98C824.26,-138.41 1009.98,-115.06 1108.39,-102.69"/>
<polygon fill="midnightblue" stroke="midnightblue" points="723.79,-147.51 714.3,-152.23 724.66,-154.46 723.79,-147.51"/>
</g>
<!-- Node3 -->
<g id="node3" class="node">
<title>Node3</title>
<g id="a_node3"><a xlink:href="../../d6/da1/fuzz_2librawspeed_2decoders_2_tiff_decoders_2main_8cpp.html" target="_top" xlink:title=" ">
<polygon fill="none" stroke="black" points="0,-0.5 0,-41.5 129,-41.5 129,-0.5 0,-0.5"/>
<text text-anchor="start" x="8" y="-29.5" font-family="Helvetica,sans-Serif" font-size="10.00">/build/rawspeed/fuzz</text>
<text text-anchor="start" x="8" y="-18.5" font-family="Helvetica,sans-Serif" font-size="10.00">/librawspeed/decoders</text>
<text text-anchor="middle" x="64.5" y="-7.5" font-family="Helvetica,sans-Serif" font-size="10.00">/TiffDecoders/main.cpp</text>
</a>
</g>
</g>
<!-- Node2&#45;&gt;Node3 -->
<g id="edge2" class="edge">
<title>Node2&#45;&gt;Node3</title>
<path fill="none" stroke="midnightblue" d="M331.02,-80.9C278.14,-71.46 202.84,-57.25 137.5,-42 134.81,-41.37 132.08,-40.71 129.31,-40.03"/>
<polygon fill="midnightblue" stroke="midnightblue" points="330.49,-84.36 340.95,-82.67 331.72,-77.47 330.49,-84.36"/>
</g>
<!-- Node2&#45;&gt;Node4 -->
<g id="edge3" class="edge">
<title>Node2&#45;&gt;Node4</title>
<path fill="none" stroke="midnightblue" d="M451.04,-75.27C482.23,-65.05 521.85,-52.05 554.16,-41.46"/>
<polygon fill="midnightblue" stroke="midnightblue" points="449.65,-72.05 441.23,-78.49 451.83,-78.7 449.65,-72.05"/>
</g>
<!-- Node5 -->
<g id="node5" class="node">
<title>Node5</title>
<g id="a_node5"><a xlink:href="../../d2/d50/_mrw_decoder_8cpp.html" target="_top" xlink:title=" ">
<polygon fill="none" stroke="black" points="147,-6 147,-36 270,-36 270,-6 147,-6"/>
<text text-anchor="start" x="155" y="-24" font-family="Helvetica,sans-Serif" font-size="10.00">librawspeed/decoders</text>
<text text-anchor="middle" x="208.5" y="-13" font-family="Helvetica,sans-Serif" font-size="10.00">/MrwDecoder.cpp</text>
</a>
</g>
</g>
<!-- Node2&#45;&gt;Node5 -->
<g id="edge4" class="edge">
<title>Node2&#45;&gt;Node5</title>
<path fill="none" stroke="midnightblue" d="M350.82,-74.81C318.53,-62.83 276.44,-47.21 246.43,-36.07"/>
<polygon fill="midnightblue" stroke="midnightblue" points="349.91,-78.21 360.51,-78.4 352.35,-71.64 349.91,-78.21"/>
</g>
<!-- Node2&#45;&gt;Node6 -->
<g id="edge5" class="edge">
<title>Node2&#45;&gt;Node6</title>
<path fill="none" stroke="midnightblue" d="M422.37,-71.46C435.37,-60 451.11,-46.14 462.61,-36"/>
<polygon fill="midnightblue" stroke="midnightblue" points="419.88,-69 414.69,-78.23 424.51,-74.25 419.88,-69"/>
</g>
<!-- Node2&#45;&gt;Node7 -->
<g id="edge6" class="edge">
<title>Node2&#45;&gt;Node7</title>
<path fill="none" stroke="midnightblue" d="M466.15,-82.64C523.76,-73.72 608.55,-59.34 681.5,-42 688.82,-40.26 696.53,-38.19 704,-36.05"/>
<polygon fill="midnightblue" stroke="midnightblue" points="465.43,-79.21 456.08,-84.19 466.49,-86.13 465.43,-79.21"/>
</g>
<!-- Node8 -->
<g id="node8" class="node">
<title>Node8</title>
<g id="a_node8"><a xlink:href="../../d2/d36/_tiff_parser_8cpp.html" target="_top" xlink:title=" ">
<polygon fill="none" stroke="black" points="288,-6 288,-36 403,-36 403,-6 288,-6"/>
<text text-anchor="start" x="296" y="-24" font-family="Helvetica,sans-Serif" font-size="10.00">librawspeed/parsers</text>
<text text-anchor="middle" x="345.5" y="-13" font-family="Helvetica,sans-Serif" font-size="10.00">/TiffParser.cpp</text>
</a>
</g>
</g>
<!-- Node2&#45;&gt;Node8 -->
<g id="edge7" class="edge">
<title>Node2&#45;&gt;Node8</title>
<path fill="none" stroke="midnightblue" d="M381.74,-70.21C373.39,-59.1 363.53,-45.99 356.21,-36.25"/>
<polygon fill="midnightblue" stroke="midnightblue" points="378.97,-72.34 387.77,-78.23 384.56,-68.14 378.97,-72.34"/>
</g>
<!-- Node9&#45;&gt;Node4 -->
<g id="edge10" class="edge">
<title>Node9&#45;&gt;Node4</title>
<path fill="none" stroke="midnightblue" d="M707.68,-73.47C689.67,-63.63 667.7,-51.62 649.51,-41.68"/>
<polygon fill="midnightblue" stroke="midnightblue" points="706.25,-76.68 716.7,-78.4 709.61,-70.54 706.25,-76.68"/>
</g>
<!-- Node9&#45;&gt;Node7 -->
<g id="edge12" class="edge">
<title>Node9&#45;&gt;Node7</title>
<path fill="none" stroke="midnightblue" d="M744.57,-68.23C745.47,-57.57 746.51,-45.41 747.29,-36.25"/>
<polygon fill="midnightblue" stroke="midnightblue" points="741.07,-67.97 743.71,-78.23 748.05,-68.57 741.07,-67.97"/>
</g>
<!-- Node10 -->
<g id="node10" class="node">
<title>Node10</title>
<g id="a_node10"><a xlink:href="../../d9/dec/_ciff_parser_8cpp.html" target="_top" xlink:title=" ">
<polygon fill="none" stroke="black" points="824,-6 824,-36 939,-36 939,-6 824,-6"/>
<text text-anchor="start" x="832" y="-24" font-family="Helvetica,sans-Serif" font-size="10.00">librawspeed/parsers</text>
<text text-anchor="middle" x="881.5" y="-13" font-family="Helvetica,sans-Serif" font-size="10.00">/CiffParser.cpp</text>
</a>
</g>
</g>
<!-- Node9&#45;&gt;Node10 -->
<g id="edge11" class="edge">
<title>Node9&#45;&gt;Node10</title>
<path fill="none" stroke="midnightblue" d="M779.23,-73.87C802.59,-62.02 832.36,-46.92 853.75,-36.07"/>
<polygon fill="midnightblue" stroke="midnightblue" points="777.63,-70.76 770.29,-78.4 780.8,-77 777.63,-70.76"/>
</g>
<!-- Node11&#45;&gt;Node4 -->
<g id="edge14" class="edge">
<title>Node11&#45;&gt;Node4</title>
<path fill="none" stroke="midnightblue" d="M584.41,-69.7C589.94,-60.63 596.23,-50.31 601.55,-41.59"/>
<polygon fill="midnightblue" stroke="midnightblue" points="581.42,-67.87 579.2,-78.23 587.4,-71.52 581.42,-67.87"/>
</g>
<!-- Node11&#45;&gt;Node6 -->
<g id="edge15" class="edge">
<title>Node11&#45;&gt;Node6</title>
<path fill="none" stroke="midnightblue" d="M543.89,-72.11C528.78,-60.53 510.25,-46.33 496.78,-36"/>
<polygon fill="midnightblue" stroke="midnightblue" points="541.82,-74.93 551.88,-78.23 546.07,-69.37 541.82,-74.93"/>
</g>
<!-- Node11&#45;&gt;Node7 -->
<g id="edge16" class="edge">
<title>Node11&#45;&gt;Node7</title>
<path fill="none" stroke="midnightblue" d="M615.56,-74.65C645.76,-62.69 684.97,-47.16 712.97,-36.07"/>
<polygon fill="midnightblue" stroke="midnightblue" points="614.1,-71.47 606.09,-78.4 616.68,-77.97 614.1,-71.47"/>
</g>
<!-- Node13 -->
<g id="node13" class="node">
<title>Node13</title>
<g id="a_node13"><a xlink:href="../../d9/db6/fuzz_2rawspeed_2main_8cpp.html" target="_top" xlink:title=" ">
<polygon fill="none" stroke="black" points="1416,-6 1416,-36 1533,-36 1533,-6 1416,-6"/>
<text text-anchor="start" x="1424" y="-24" font-family="Helvetica,sans-Serif" font-size="10.00">/build/rawspeed/fuzz</text>
<text text-anchor="middle" x="1474.5" y="-13" font-family="Helvetica,sans-Serif" font-size="10.00">/rawspeed/main.cpp</text>
</a>
</g>
</g>
<!-- Node12&#45;&gt;Node13 -->
<g id="edge18" class="edge">
<title>Node12&#45;&gt;Node13</title>
<path fill="none" stroke="midnightblue" d="M1248.53,-77.85C1294.61,-68.47 1354.71,-55.55 1407.5,-42 1414.55,-40.19 1421.98,-38.13 1429.22,-36.03"/>
<polygon fill="midnightblue" stroke="midnightblue" points="1247.73,-74.44 1238.63,-79.86 1249.12,-81.3 1247.73,-74.44"/>
</g>
<!-- Node14 -->
<g id="node14" class="node">
<title>Node14</title>
<g id="a_node14"><a xlink:href="../../d6/d0e/rawspeed-identify_8cpp.html" target="_top" xlink:title=" ">
<polygon fill="none" stroke="black" points="957,-6 957,-36 1084,-36 1084,-6 957,-6"/>
<text text-anchor="start" x="965" y="-24" font-family="Helvetica,sans-Serif" font-size="10.00">utilities/identify</text>
<text text-anchor="middle" x="1020.5" y="-13" font-family="Helvetica,sans-Serif" font-size="10.00">/rawspeed&#45;identify.cpp</text>
</a>
</g>
</g>
<!-- Node12&#45;&gt;Node14 -->
<g id="edge19" class="edge">
<title>Node12&#45;&gt;Node14</title>
<path fill="none" stroke="midnightblue" d="M1133.76,-74.19C1107.94,-62.29 1074.79,-47.02 1051.04,-36.07"/>
<polygon fill="midnightblue" stroke="midnightblue" points="1132.36,-77.4 1142.91,-78.4 1135.29,-71.04 1132.36,-77.4"/>
</g>
<!-- Node15 -->
<g id="node15" class="node">
<title>Node15</title>
<g id="a_node15"><a xlink:href="../../d0/dc4/src_2utilities_2rsbench_2main_8cpp.html" target="_top" xlink:title=" ">
<polygon fill="none" stroke="black" points="1102,-11.5 1102,-30.5 1245,-30.5 1245,-11.5 1102,-11.5"/>
<text text-anchor="middle" x="1173.5" y="-18.5" font-family="Helvetica,sans-Serif" font-size="10.00">utilities/rsbench/main.cpp</text>
</a>
</g>
</g>
<!-- Node12&#45;&gt;Node15 -->
<g id="edge20" class="edge">
<title>Node12&#45;&gt;Node15</title>
<path fill="none" stroke="midnightblue" d="M1173.5,-68.09C1173.5,-55.21 1173.5,-40.2 1173.5,-30.89"/>
<polygon fill="midnightblue" stroke="midnightblue" points="1170,-68.23 1173.5,-78.23 1177,-68.23 1170,-68.23"/>
</g>
<!-- Node16 -->
<g id="node16" class="node">
<title>Node16</title>
<g id="a_node16"><a xlink:href="../../d9/d41/rstest_8cpp.html" target="_top" xlink:title=" ">
<polygon fill="none" stroke="black" points="1263,-11.5 1263,-30.5 1398,-30.5 1398,-11.5 1263,-11.5"/>
<text text-anchor="middle" x="1330.5" y="-18.5" font-family="Helvetica,sans-Serif" font-size="10.00">utilities/rstest/rstest.cpp</text>
</a>
</g>
</g>
<!-- Node12&#45;&gt;Node16 -->
<g id="edge21" class="edge">
<title>Node12&#45;&gt;Node16</title>
<path fill="none" stroke="midnightblue" d="M1214.26,-74.2C1245.61,-60.12 1287.51,-41.3 1311.5,-30.53"/>
<polygon fill="midnightblue" stroke="midnightblue" points="1212.58,-71.11 1204.89,-78.4 1215.45,-77.5 1212.58,-71.11"/>
</g>
</g>
</svg>
        <g id="navigator" transform="translate(0 0)" fill="#404254">
                <rect fill="#f2f5e9" fill-opacity="0.5" stroke="#606060" stroke-width=".5" x="0" y="0" width="60" height="60"/>
                <use id="zoomplus" xlink:href="#zoomPlus" x="17" y="9" onmousedown="handleZoom(evt,'in')"/>
                <use id="zoomminus" xlink:href="#zoomMin" x="42" y="9" onmousedown="handleZoom(evt,'out')"/>
                <use id="reset" xlink:href="#resetDef" x="30" y="36" onmousedown="handleReset()"/>
                <g id="arrowUp" xlink:href="#dirArrow" transform="translate(30 24)" onmousedown="handlePan(0,-1)">
                  <use xlink:href="#rim" fill="#404040">
                        <set attributeName="fill" to="#808080" begin="arrowUp.mouseover" end="arrowUp.mouseout"/>
                  </use>
                  <path fill="none" stroke="white" stroke-width="1.5" d="M0,-3.0v7 M-2.5,-0.5L0,-3.0L2.5,-0.5"/>
                </g>
                <g id="arrowRight" xlink:href="#dirArrow" transform="rotate(90) translate(36 -43)" onmousedown="handlePan(1,0)">
                  <use xlink:href="#rim" fill="#404040">
                        <set attributeName="fill" to="#808080" begin="arrowRight.mouseover" end="arrowRight.mouseout"/>
                  </use>
                  <path fill="none" stroke="white" stroke-width="1.5" d="M0,-3.0v7 M-2.5,-0.5L0,-3.0L2.5,-0.5"/>
                </g>
                <g id="arrowDown" xlink:href="#dirArrow" transform="rotate(180) translate(-30 -48)" onmousedown="handlePan(0,1)">
                  <use xlink:href="#rim" fill="#404040">
                        <set attributeName="fill" to="#808080" begin="arrowDown.mouseover" end="arrowDown.mouseout"/>
                  </use>
                  <path fill="none" stroke="white" stroke-width="1.5" d="M0,-3.0v7 M-2.5,-0.5L0,-3.0L2.5,-0.5"/>
                </g>
                <g id="arrowLeft" xlink:href="#dirArrow" transform="rotate(270) translate(-36 17)" onmousedown="handlePan(-1,0)">
                  <use xlink:href="#rim" fill="#404040">
                        <set attributeName="fill" to="#808080" begin="arrowLeft.mouseover" end="arrowLeft.mouseout"/>
                  </use>
                  <path fill="none" stroke="white" stroke-width="1.5" d="M0,-3.0v7 M-2.5,-0.5L0,-3.0L2.5,-0.5"/>
                </g>
        </g>
        <svg viewBox="0 0 15 15" width="100%" height="30px" preserveAspectRatio="xMaxYMin meet">
         <g id="arrow_out" transform="scale(0.3 0.3)">
          <a xlink:href="_raw_parser_8h__dep__incl_org.svg" target="_base">
           <rect id="button" ry="5" rx="5" y="6" x="6" height="38" width="38"
                fill="#f2f5e9" fill-opacity="0.5" stroke="#606060" stroke-width="1.0"/>
           <path id="arrow"
             d="M 11.500037,31.436501 C 11.940474,20.09759 22.043105,11.32322 32.158766,21.979434 L 37.068811,17.246167 C 37.068811,17.246167 37.088388,32 37.088388,32 L 22.160133,31.978069 C 22.160133,31.978069 26.997745,27.140456 26.997745,27.140456 C 18.528582,18.264221 13.291696,25.230495 11.500037,31.436501 z"
             style="fill:#404040;"/>
          </a>
         </g>
        </svg>
</svg>
