<?xml version="1.0" encoding="UTF-8" standalone="no"?>
<!DOCTYPE svg PUBLIC "-//W3C//DTD SVG 1.1//EN"
 "http://www.w3.org/Graphics/SVG/1.1/DTD/svg11.dtd">
<!-- Generated by graphviz version 2.43.0 (0)
 -->
<!-- Title: LLVMFuzzerTestOneInput Pages: 1 -->
<svg width="738pt" height="476pt"
 viewBox="0.00 0.00 738.00 476.00" xmlns="http://www.w3.org/2000/svg" xmlns:xlink="http://www.w3.org/1999/xlink">
<g id="graph0" class="graph" transform="scale(1 1) rotate(0) translate(4 472)">
<title>LLVMFuzzerTestOneInput</title>
<!-- Node1 -->
<g id="node1" class="node">
<title>Node1</title>
<g id="a_node1"><a xlink:title=" ">
<polygon fill="#bfbfbf" stroke="black" points="0,-301 0,-320 136,-320 136,-301 0,-301"/>
<text text-anchor="middle" x="68" y="-308" font-family="Helvetica,sans-Serif" font-size="10.00">LLVMFuzzerTestOneInput</text>
</a>
</g>
</g>
<!-- Node2 -->
<g id="node2" class="node">
<title>Node2</title>
<g id="a_node2"><a xlink:href="../../dd/da0/classrawspeed_1_1_byte_stream.html#a804858089e7e6c442815d46128cca1ed" target="_top" xlink:title=" ">
<polygon fill="none" stroke="black" points="186.5,-437.5 186.5,-467.5 314.5,-467.5 314.5,-437.5 186.5,-437.5"/>
<text text-anchor="start" x="194.5" y="-455.5" font-family="Helvetica,sans-Serif" font-size="10.00">rawspeed::ByteStream</text>
<text text-anchor="middle" x="250.5" y="-444.5" font-family="Helvetica,sans-Serif" font-size="10.00">::ByteStream</text>
</a>
</g>
</g>
<!-- Node1&#45;&gt;Node2 -->
<g id="edge1" class="edge">
<title>Node1&#45;&gt;Node2</title>
<path fill="none" stroke="midnightblue" d="M74.67,-320.04C88.45,-342.39 125.96,-398.55 172,-428.5 174.44,-430.08 176.98,-431.57 179.6,-432.96"/>
<polygon fill="midnightblue" stroke="midnightblue" points="178.24,-436.19 188.77,-437.34 181.25,-429.87 178.24,-436.19"/>
</g>
<!-- Node3 -->
<g id="node3" class="node">
<title>Node3</title>
<g id="a_node3"><a xlink:href="../../dc/d44/classrawspeed_1_1_raw_image_data.html#a9c4e731cd919ff9b06fe440284b2e8c8" target="_top" xlink:title=" ">
<polygon fill="none" stroke="black" points="178,-388.5 178,-418.5 323,-418.5 323,-388.5 178,-388.5"/>
<text text-anchor="start" x="186" y="-406.5" font-family="Helvetica,sans-Serif" font-size="10.00">rawspeed::RawImageData</text>
<text text-anchor="middle" x="250.5" y="-395.5" font-family="Helvetica,sans-Serif" font-size="10.00">::checkMemIsInitialized</text>
</a>
</g>
</g>
<!-- Node1&#45;&gt;Node3 -->
<g id="edge2" class="edge">
<title>Node1&#45;&gt;Node3</title>
<path fill="none" stroke="midnightblue" d="M80.98,-320.23C99.5,-334.87 136.65,-362.63 172,-379.5 175.86,-381.34 179.9,-383.09 184.01,-384.73"/>
<polygon fill="midnightblue" stroke="midnightblue" points="183.12,-388.13 193.71,-388.37 185.58,-381.58 183.12,-388.13"/>
</g>
<!-- Node4 -->
<g id="node4" class="node">
<title>Node4</title>
<g id="a_node4"><a xlink:href="../../d3/d55/classrawspeed_1_1_cr2_decompressor.html#a52102d5b2f25b6b53d7117e084ccc2d4" target="_top" xlink:title=" ">
<polygon fill="none" stroke="black" points="172,-339.5 172,-369.5 329,-369.5 329,-339.5 172,-339.5"/>
<text text-anchor="start" x="180" y="-357.5" font-family="Helvetica,sans-Serif" font-size="10.00">rawspeed::Cr2Decompressor</text>
<text text-anchor="middle" x="250.5" y="-346.5" font-family="Helvetica,sans-Serif" font-size="10.00">::Cr2Decompressor</text>
</a>
</g>
</g>
<!-- Node1&#45;&gt;Node4 -->
<g id="edge3" class="edge">
<title>Node1&#45;&gt;Node4</title>
<path fill="none" stroke="midnightblue" d="M108.17,-320.05C128.49,-325 153.96,-331.21 177.67,-336.99"/>
<polygon fill="midnightblue" stroke="midnightblue" points="177.15,-340.47 187.7,-339.43 178.81,-333.67 177.15,-340.47"/>
</g>
<!-- Node7 -->
<g id="node7" class="node">
<title>Node7</title>
<g id="a_node7"><a xlink:href="../../dd/d12/classrawspeed_1_1_raw_image.html#a2907002b5c707eca6939061f8b0d5e5d" target="_top" xlink:title=" ">
<polygon fill="none" stroke="black" points="407.5,-343.5 407.5,-373.5 529.5,-373.5 529.5,-343.5 407.5,-343.5"/>
<text text-anchor="start" x="415.5" y="-361.5" font-family="Helvetica,sans-Serif" font-size="10.00">rawspeed::RawImage</text>
<text text-anchor="middle" x="468.5" y="-350.5" font-family="Helvetica,sans-Serif" font-size="10.00">::operator&#45;&gt;</text>
</a>
</g>
</g>
<!-- Node1&#45;&gt;Node7 -->
<g id="edge20" class="edge">
<title>Node1&#45;&gt;Node7</title>
<path fill="none" stroke="midnightblue" d="M136.04,-313.39C188.69,-316.21 263.76,-321.43 329,-330.5 351.44,-333.62 375.72,-338.13 397.58,-342.63"/>
<polygon fill="midnightblue" stroke="midnightblue" points="396.94,-346.07 407.44,-344.69 398.37,-339.22 396.94,-346.07"/>
</g>
<!-- Node8 -->
<g id="node8" class="node">
<title>Node8</title>
<g id="a_node8"><a xlink:href="../../dc/d44/classrawspeed_1_1_raw_image_data.html#af7cbbd3ab6bb415e7e1b1f58a285084f" target="_top" xlink:title=" ">
<polygon fill="none" stroke="black" points="178,-98.5 178,-128.5 323,-128.5 323,-98.5 178,-98.5"/>
<text text-anchor="start" x="186" y="-116.5" font-family="Helvetica,sans-Serif" font-size="10.00">rawspeed::RawImageData</text>
<text text-anchor="middle" x="250.5" y="-105.5" font-family="Helvetica,sans-Serif" font-size="10.00">::createData</text>
</a>
</g>
</g>
<!-- Node1&#45;&gt;Node8 -->
<g id="edge8" class="edge">
<title>Node1&#45;&gt;Node8</title>
<path fill="none" stroke="midnightblue" d="M77.71,-301C105.02,-271.19 189.54,-178.94 228.92,-135.97"/>
<polygon fill="midnightblue" stroke="midnightblue" points="231.54,-138.28 235.72,-128.54 226.38,-133.55 231.54,-138.28"/>
</g>
<!-- Node11 -->
<g id="node11" class="node">
<title>Node11</title>
<g id="a_node11"><a xlink:href="../../d9/d5a/fuzz_2librawspeed_2fuzz_2_common_8cpp.html#a9b5193764409a69db1176954187dad97" target="_top" xlink:title=" ">
<polygon fill="none" stroke="black" points="200,-255 200,-274 301,-274 301,-255 200,-255"/>
<text text-anchor="middle" x="250.5" y="-262" font-family="Helvetica,sans-Serif" font-size="10.00">CreateRawImage</text>
</a>
</g>
</g>
<!-- Node1&#45;&gt;Node11 -->
<g id="edge11" class="edge">
<title>Node1&#45;&gt;Node11</title>
<path fill="none" stroke="midnightblue" d="M106.4,-300.97C134.23,-293.88 172.42,-284.14 202.34,-276.52"/>
<polygon fill="midnightblue" stroke="midnightblue" points="203.32,-279.88 212.15,-274.02 201.59,-273.1 203.32,-279.88"/>
</g>
<!-- Node17 -->
<g id="node17" class="node">
<title>Node17</title>
<g id="a_node17"><a xlink:href="../../d3/d55/classrawspeed_1_1_cr2_decompressor.html#a3320685b5bfcc491bea6f410c866a36c" target="_top" xlink:title=" ">
<polygon fill="none" stroke="black" points="172,-25.5 172,-55.5 329,-55.5 329,-25.5 172,-25.5"/>
<text text-anchor="start" x="180" y="-43.5" font-family="Helvetica,sans-Serif" font-size="10.00">rawspeed::Cr2Decompressor</text>
<text text-anchor="middle" x="250.5" y="-32.5" font-family="Helvetica,sans-Serif" font-size="10.00">::decode</text>
</a>
</g>
</g>
<!-- Node1&#45;&gt;Node17 -->
<g id="edge18" class="edge">
<title>Node1&#45;&gt;Node17</title>
<path fill="none" stroke="midnightblue" d="M71.45,-300.57C80.09,-267.27 111.88,-157.83 172,-89.5 182.08,-78.04 195.48,-68.29 208.3,-60.58"/>
<polygon fill="midnightblue" stroke="midnightblue" points="210.1,-63.58 217.03,-55.57 206.62,-57.51 210.1,-63.58"/>
</g>
<!-- Node5 -->
<g id="node5" class="node">
<title>Node5</title>
<g id="a_node5"><a xlink:href="../../d4/d03/classrawspeed_1_1_abstract_l_jpeg_decompressor.html#af76f70a59a14657a13c9c495ee0d7e62" target="_top" xlink:title=" ">
<polygon fill="none" stroke="black" points="365,-392.5 365,-422.5 572,-422.5 572,-392.5 365,-392.5"/>
<text text-anchor="start" x="373" y="-410.5" font-family="Helvetica,sans-Serif" font-size="10.00">rawspeed::AbstractLJpegDecompressor</text>
<text text-anchor="middle" x="468.5" y="-399.5" font-family="Helvetica,sans-Serif" font-size="10.00">::AbstractLJpegDecompressor</text>
</a>
</g>
</g>
<!-- Node4&#45;&gt;Node5 -->
<g id="edge4" class="edge">
<title>Node4&#45;&gt;Node5</title>
<path fill="none" stroke="midnightblue" d="M309.48,-369.55C327.27,-374.11 346.92,-379.08 365,-383.5 373.87,-385.67 383.17,-387.91 392.41,-390.1"/>
<polygon fill="midnightblue" stroke="midnightblue" points="391.85,-393.57 402.38,-392.46 393.46,-386.75 391.85,-393.57"/>
</g>
<!-- Node4&#45;&gt;Node7 -->
<g id="edge7" class="edge">
<title>Node4&#45;&gt;Node7</title>
<path fill="none" stroke="midnightblue" d="M329.18,-355.94C351.42,-356.35 375.52,-356.8 397.29,-357.2"/>
<polygon fill="midnightblue" stroke="midnightblue" points="397.37,-360.7 407.43,-357.39 397.5,-353.7 397.37,-360.7"/>
</g>
<!-- Node5&#45;&gt;Node5 -->
<g id="edge5" class="edge">
<title>Node5&#45;&gt;Node5</title>
<path fill="none" stroke="midnightblue" d="M433.65,-422.66C425.24,-432.06 436.86,-441 468.5,-441 487.78,-441 499.63,-437.68 504.04,-432.96"/>
<polygon fill="midnightblue" stroke="midnightblue" points="507.51,-432.41 503.35,-422.66 500.52,-432.87 507.51,-432.41"/>
</g>
<!-- Node6 -->
<g id="node6" class="node">
<title>Node6</title>
<g id="a_node6"><a xlink:href="../../dd/d12/classrawspeed_1_1_raw_image.html#a4a01d153bb4518ddfaac18a5d0694154" target="_top" xlink:title=" ">
<polygon fill="none" stroke="black" points="608,-392.5 608,-422.5 730,-422.5 730,-392.5 608,-392.5"/>
<text text-anchor="start" x="616" y="-410.5" font-family="Helvetica,sans-Serif" font-size="10.00">rawspeed::RawImage</text>
<text text-anchor="middle" x="669" y="-399.5" font-family="Helvetica,sans-Serif" font-size="10.00">::RawImage</text>
</a>
</g>
</g>
<!-- Node5&#45;&gt;Node6 -->
<g id="edge6" class="edge">
<title>Node5&#45;&gt;Node6</title>
<path fill="none" stroke="midnightblue" d="M572.24,-407.5C580.91,-407.5 589.55,-407.5 597.89,-407.5"/>
<polygon fill="midnightblue" stroke="midnightblue" points="597.9,-411 607.9,-407.5 597.9,-404 597.9,-411"/>
</g>
<!-- Node9 -->
<g id="node9" class="node">
<title>Node9</title>
<g id="a_node9"><a xlink:href="../../dc/d44/classrawspeed_1_1_raw_image_data.html#a724d8812aca44f04e6aeb965daeab36d" target="_top" xlink:title=" ">
<polygon fill="none" stroke="black" points="396,-98.5 396,-128.5 541,-128.5 541,-98.5 396,-98.5"/>
<text text-anchor="start" x="404" y="-116.5" font-family="Helvetica,sans-Serif" font-size="10.00">rawspeed::RawImageData</text>
<text text-anchor="middle" x="468.5" y="-105.5" font-family="Helvetica,sans-Serif" font-size="10.00">::getData</text>
</a>
</g>
</g>
<!-- Node8&#45;&gt;Node9 -->
<g id="edge9" class="edge">
<title>Node8&#45;&gt;Node9</title>
<path fill="none" stroke="midnightblue" d="M323.12,-113.5C343.09,-113.5 364.92,-113.5 385.43,-113.5"/>
<polygon fill="midnightblue" stroke="midnightblue" points="385.7,-117 395.7,-113.5 385.7,-110 385.7,-117"/>
</g>
<!-- Node10 -->
<g id="node10" class="node">
<title>Node10</title>
<g id="a_node10"><a xlink:href="../../dc/d44/classrawspeed_1_1_raw_image_data.html#a383099b27aea42a05858e18b6cf69c96" target="_top" xlink:title=" ">
<polygon fill="none" stroke="black" points="396,-49.5 396,-79.5 541,-79.5 541,-49.5 396,-49.5"/>
<text text-anchor="start" x="404" y="-67.5" font-family="Helvetica,sans-Serif" font-size="10.00">rawspeed::RawImageData</text>
<text text-anchor="middle" x="468.5" y="-56.5" font-family="Helvetica,sans-Serif" font-size="10.00">::poisonPadding</text>
</a>
</g>
</g>
<!-- Node8&#45;&gt;Node10 -->
<g id="edge10" class="edge">
<title>Node8&#45;&gt;Node10</title>
<path fill="none" stroke="midnightblue" d="M317.78,-98.47C341.1,-93.17 367.49,-87.19 391.55,-81.73"/>
<polygon fill="midnightblue" stroke="midnightblue" points="392.37,-85.13 401.35,-79.51 390.82,-78.31 392.37,-85.13"/>
</g>
<!-- Node11&#45;&gt;Node7 -->
<g id="edge16" class="edge">
<title>Node11&#45;&gt;Node7</title>
<path fill="none" stroke="midnightblue" d="M282.82,-274.03C297.57,-279.34 314.96,-286.86 329,-296.5 348.17,-309.67 344.82,-322.92 365,-334.5 374.93,-340.2 386.14,-344.55 397.4,-347.87"/>
<polygon fill="midnightblue" stroke="midnightblue" points="396.72,-351.31 407.29,-350.52 398.54,-344.55 396.72,-351.31"/>
</g>
<!-- Node12 -->
<g id="node12" class="node">
<title>Node12</title>
<g id="a_node12"><a xlink:href="../../dd/d12/classrawspeed_1_1_raw_image.html#a4a7b73d675f5ac9c8730a9b7f60c3d82" target="_top" xlink:title=" ">
<polygon fill="none" stroke="black" points="407.5,-294.5 407.5,-324.5 529.5,-324.5 529.5,-294.5 407.5,-294.5"/>
<text text-anchor="start" x="415.5" y="-312.5" font-family="Helvetica,sans-Serif" font-size="10.00">rawspeed::RawImage</text>
<text text-anchor="middle" x="468.5" y="-301.5" font-family="Helvetica,sans-Serif" font-size="10.00">::create</text>
</a>
</g>
</g>
<!-- Node11&#45;&gt;Node12 -->
<g id="edge12" class="edge">
<title>Node11&#45;&gt;Node12</title>
<path fill="none" stroke="midnightblue" d="M297.31,-274.04C326.38,-280.1 364.56,-288.05 397.39,-294.89"/>
<polygon fill="midnightblue" stroke="midnightblue" points="396.89,-298.36 407.39,-296.98 398.32,-291.51 396.89,-298.36"/>
</g>
<!-- Node14 -->
<g id="node14" class="node">
<title>Node14</title>
<g id="a_node14"><a xlink:href="../../dd/da0/classrawspeed_1_1_byte_stream.html#ac598b7b6f0f8fd5476adb7c1363b1518" target="_top" xlink:title=" ">
<polygon fill="none" stroke="black" points="404.5,-245.5 404.5,-275.5 532.5,-275.5 532.5,-245.5 404.5,-245.5"/>
<text text-anchor="start" x="412.5" y="-263.5" font-family="Helvetica,sans-Serif" font-size="10.00">rawspeed::ByteStream</text>
<text text-anchor="middle" x="468.5" y="-252.5" font-family="Helvetica,sans-Serif" font-size="10.00">::getU32</text>
</a>
</g>
</g>
<!-- Node11&#45;&gt;Node14 -->
<g id="edge14" class="edge">
<title>Node11&#45;&gt;Node14</title>
<path fill="none" stroke="midnightblue" d="M301.05,-263.58C328.58,-263.07 363.36,-262.43 394,-261.86"/>
<polygon fill="midnightblue" stroke="midnightblue" points="394.28,-265.36 404.21,-261.67 394.15,-258.36 394.28,-265.36"/>
</g>
<!-- Node15 -->
<g id="node15" class="node">
<title>Node15</title>
<g id="a_node15"><a xlink:href="../../d8/d75/classrawspeed_1_1i_point2_d.html#ab980cc8ab2f3502a5a2c230530ba2a64" target="_top" xlink:title=" ">
<polygon fill="none" stroke="black" points="413,-196.5 413,-226.5 524,-226.5 524,-196.5 413,-196.5"/>
<text text-anchor="start" x="421" y="-214.5" font-family="Helvetica,sans-Serif" font-size="10.00">rawspeed::iPoint2D</text>
<text text-anchor="middle" x="468.5" y="-203.5" font-family="Helvetica,sans-Serif" font-size="10.00">::iPoint2D</text>
</a>
</g>
</g>
<!-- Node11&#45;&gt;Node15 -->
<g id="edge15" class="edge">
<title>Node11&#45;&gt;Node15</title>
<path fill="none" stroke="midnightblue" d="M290.11,-254.95C312.06,-249.53 340.07,-242.62 365,-236.5 377.28,-233.49 390.4,-230.28 403,-227.2"/>
<polygon fill="midnightblue" stroke="midnightblue" points="404.08,-230.54 412.97,-224.77 402.42,-223.74 404.08,-230.54"/>
</g>
<!-- Node16 -->
<g id="node16" class="node">
<title>Node16</title>
<g id="a_node16"><a xlink:href="../../dc/d44/classrawspeed_1_1_raw_image_data.html#a180f90ba4cf9e6e6ff1c307f6106f4ed" target="_top" xlink:title=" ">
<polygon fill="none" stroke="black" points="396,-147.5 396,-177.5 541,-177.5 541,-147.5 396,-147.5"/>
<text text-anchor="start" x="404" y="-165.5" font-family="Helvetica,sans-Serif" font-size="10.00">rawspeed::RawImageData</text>
<text text-anchor="middle" x="468.5" y="-154.5" font-family="Helvetica,sans-Serif" font-size="10.00">::setCpp</text>
</a>
</g>
</g>
<!-- Node11&#45;&gt;Node16 -->
<g id="edge17" class="edge">
<title>Node11&#45;&gt;Node16</title>
<path fill="none" stroke="midnightblue" d="M262.61,-254.93C282.05,-238.67 324.08,-205.66 365,-187.5 371.68,-184.54 378.76,-181.89 385.96,-179.53"/>
<polygon fill="midnightblue" stroke="midnightblue" points="387.3,-182.78 395.83,-176.5 385.24,-176.09 387.3,-182.78"/>
</g>
<!-- Node13 -->
<g id="node13" class="node">
<title>Node13</title>
<g id="a_node13"><a xlink:href="../../de/dc3/namespacerawspeed.html#a8a98a18f46994d6cae15ce24462fb7d4" target="_top" xlink:title=" ">
<polygon fill="none" stroke="black" points="613,-300 613,-319 725,-319 725,-300 613,-300"/>
<text text-anchor="middle" x="669" y="-307" font-family="Helvetica,sans-Serif" font-size="10.00">rawspeed::writeLog</text>
</a>
</g>
</g>
<!-- Node12&#45;&gt;Node13 -->
<g id="edge13" class="edge">
<title>Node12&#45;&gt;Node13</title>
<path fill="none" stroke="midnightblue" d="M529.6,-309.5C552.66,-309.5 579.08,-309.5 602.61,-309.5"/>
<polygon fill="midnightblue" stroke="midnightblue" points="602.85,-313 612.85,-309.5 602.85,-306 602.85,-313"/>
</g>
<!-- Node18 -->
<g id="node18" class="node">
<title>Node18</title>
<g id="a_node18"><a xlink:href="../../d3/de5/classrawspeed_1_1_cr2_slicing.html#adf4342251d2c4859c508b4adfee982d4" target="_top" xlink:title=" ">
<polygon fill="none" stroke="black" points="409,-0.5 409,-30.5 528,-30.5 528,-0.5 409,-0.5"/>
<text text-anchor="start" x="417" y="-18.5" font-family="Helvetica,sans-Serif" font-size="10.00">rawspeed::Cr2Slicing</text>
<text text-anchor="middle" x="468.5" y="-7.5" font-family="Helvetica,sans-Serif" font-size="10.00">::widthOfSlice</text>
</a>
</g>
</g>
<!-- Node17&#45;&gt;Node18 -->
<g id="edge19" class="edge">
<title>Node17&#45;&gt;Node18</title>
<path fill="none" stroke="midnightblue" d="M329.18,-31.51C351.94,-28.88 376.65,-26.01 398.81,-23.45"/>
<polygon fill="midnightblue" stroke="midnightblue" points="399.26,-26.92 408.79,-22.29 398.46,-19.97 399.26,-26.92"/>
</g>
</g>
</svg>
