<?xml version="1.0" encoding="UTF-8" standalone="no"?>
<!DOCTYPE svg PUBLIC "-//W3C//DTD SVG 1.1//EN"
 "http://www.w3.org/Graphics/SVG/1.1/DTD/svg11.dtd">
<!-- Generated by graphviz version 2.43.0 (0)
 -->
<!-- Title: rawspeed::FujiDecompressor::FujiStrip::lineHeight Pages: 1 -->
<svg width="358pt" height="88pt"
 viewBox="0.00 0.00 358.00 88.00" xmlns="http://www.w3.org/2000/svg" xmlns:xlink="http://www.w3.org/1999/xlink">
<g id="graph0" class="graph" transform="scale(1 1) rotate(0) translate(4 84)">
<title>rawspeed::FujiDecompressor::FujiStrip::lineHeight</title>
<!-- Node1 -->
<g id="node1" class="node">
<title>Node1</title>
<g id="a_node1"><a xlink:title=" ">
<polygon fill="#bfbfbf" stroke="black" points="193,-24.5 193,-54.5 350,-54.5 350,-24.5 193,-24.5"/>
<text text-anchor="start" x="201" y="-42.5" font-family="Helvetica,sans-Serif" font-size="10.00">rawspeed::FujiDecompressor</text>
<text text-anchor="middle" x="271.5" y="-31.5" font-family="Helvetica,sans-Serif" font-size="10.00">::FujiStrip::lineHeight</text>
</a>
</g>
</g>
<!-- Node2 -->
<g id="node2" class="node">
<title>Node2</title>
<g id="a_node2"><a xlink:href="../../de/d5f/classrawspeed_1_1_fuji_decompressor.html#a2ac18b9555af7da986b1318748931314" target="_top" xlink:title=" ">
<polygon fill="none" stroke="black" points="0,-49.5 0,-79.5 157,-79.5 157,-49.5 0,-49.5"/>
<text text-anchor="start" x="8" y="-67.5" font-family="Helvetica,sans-Serif" font-size="10.00">rawspeed::FujiDecompressor</text>
<text text-anchor="middle" x="78.5" y="-56.5" font-family="Helvetica,sans-Serif" font-size="10.00">::copy_line</text>
</a>
</g>
</g>
<!-- Node1&#45;&gt;Node2 -->
<g id="edge1" class="edge">
<title>Node1&#45;&gt;Node2</title>
<path fill="none" stroke="midnightblue" d="M182.81,-50.98C174.24,-52.1 165.58,-53.23 157.12,-54.34"/>
<polygon fill="midnightblue" stroke="midnightblue" points="183.35,-54.44 192.81,-49.67 182.44,-47.5 183.35,-54.44"/>
</g>
<!-- Node3 -->
<g id="node3" class="node">
<title>Node3</title>
<g id="a_node3"><a xlink:href="../../d4/dc4/structrawspeed_1_1_fuji_decompressor_1_1_fuji_strip.html#a9fbb2d155a1809c63e6580c7cd628d2d" target="_top" xlink:title=" ">
<polygon fill="none" stroke="black" points="0,-0.5 0,-30.5 157,-30.5 157,-0.5 0,-0.5"/>
<text text-anchor="start" x="8" y="-18.5" font-family="Helvetica,sans-Serif" font-size="10.00">rawspeed::FujiDecompressor</text>
<text text-anchor="middle" x="78.5" y="-7.5" font-family="Helvetica,sans-Serif" font-size="10.00">::FujiStrip::offsetY</text>
</a>
</g>
</g>
<!-- Node1&#45;&gt;Node3 -->
<g id="edge2" class="edge">
<title>Node1&#45;&gt;Node3</title>
<path fill="none" stroke="midnightblue" d="M182.81,-28.48C174.24,-27.4 165.58,-26.32 157.12,-25.25"/>
<polygon fill="midnightblue" stroke="midnightblue" points="182.45,-31.96 192.81,-29.74 183.33,-25.02 182.45,-31.96"/>
</g>
</g>
</svg>
