<?xml version="1.0" encoding="UTF-8" standalone="no"?>
<!DOCTYPE svg PUBLIC "-//W3C//DTD SVG 1.1//EN"
 "http://www.w3.org/Graphics/SVG/1.1/DTD/svg11.dtd">
<!-- Generated by graphviz version 2.43.0 (0)
 -->
<!-- Title: rawspeed::iPoint2D::operator&gt;= Pages: 1 -->
<svg width="1150pt" height="219pt"
 viewBox="0.00 0.00 1150.00 219.00" xmlns="http://www.w3.org/2000/svg" xmlns:xlink="http://www.w3.org/1999/xlink">
<g id="graph0" class="graph" transform="scale(1 1) rotate(0) translate(4 215)">
<title>rawspeed::iPoint2D::operator&gt;=</title>
<!-- Node1 -->
<g id="node1" class="node">
<title>Node1</title>
<g id="a_node1"><a xlink:title=" ">
<polygon fill="#bfbfbf" stroke="black" points="1031,-44.5 1031,-74.5 1142,-74.5 1142,-44.5 1031,-44.5"/>
<text text-anchor="start" x="1039" y="-62.5" font-family="Helvetica,sans-Serif" font-size="10.00">rawspeed::iPoint2D</text>
<text text-anchor="middle" x="1086.5" y="-51.5" font-family="Helvetica,sans-Serif" font-size="10.00">::operator&gt;=</text>
</a>
</g>
</g>
<!-- Node2 -->
<g id="node2" class="node">
<title>Node2</title>
<g id="a_node2"><a xlink:href="../../d6/d8f/classrawspeed_1_1i_rectangle2_d.html#a8e5d729239ce4ebabfc221d463a3c79e" target="_top" xlink:title=" ">
<polygon fill="none" stroke="black" points="861,-88.5 861,-118.5 995,-118.5 995,-88.5 861,-88.5"/>
<text text-anchor="start" x="869" y="-106.5" font-family="Helvetica,sans-Serif" font-size="10.00">rawspeed::iRectangle2D</text>
<text text-anchor="middle" x="928" y="-95.5" font-family="Helvetica,sans-Serif" font-size="10.00">::isPointInsideInclusive</text>
</a>
</g>
</g>
<!-- Node1&#45;&gt;Node2 -->
<g id="edge1" class="edge">
<title>Node1&#45;&gt;Node2</title>
<path fill="none" stroke="midnightblue" d="M1022.15,-77.31C1008.97,-81.02 995.22,-84.88 982.45,-88.47"/>
<polygon fill="midnightblue" stroke="midnightblue" points="1023.4,-80.6 1032.08,-74.52 1021.51,-73.86 1023.4,-80.6"/>
</g>
<!-- Node3 -->
<g id="node3" class="node">
<title>Node3</title>
<g id="a_node3"><a xlink:href="../../df/dc9/classrawspeed_1_1_dng_opcodes_1_1_r_o_i_opcode.html#a18543c8017b64d69566acc55164af4cc" target="_top" xlink:title=" ">
<polygon fill="none" stroke="black" points="688,-66.5 688,-96.5 825,-96.5 825,-66.5 688,-66.5"/>
<text text-anchor="start" x="696" y="-84.5" font-family="Helvetica,sans-Serif" font-size="10.00">rawspeed::DngOpcodes</text>
<text text-anchor="middle" x="756.5" y="-73.5" font-family="Helvetica,sans-Serif" font-size="10.00">::ROIOpcode::ROIOpcode</text>
</a>
</g>
</g>
<!-- Node1&#45;&gt;Node3 -->
<g id="edge15" class="edge">
<title>Node1&#45;&gt;Node3</title>
<path fill="none" stroke="midnightblue" d="M1020.73,-63.84C964.24,-67.63 882.59,-73.11 825.24,-76.96"/>
<polygon fill="midnightblue" stroke="midnightblue" points="1021.23,-67.32 1030.97,-63.16 1020.76,-60.33 1021.23,-67.32"/>
</g>
<!-- Node12 -->
<g id="node12" class="node">
<title>Node12</title>
<g id="a_node12"><a xlink:href="../../d6/d8f/classrawspeed_1_1i_rectangle2_d.html#a5fa041d0ecfb6fe7538f73c735cdb42c" target="_top" xlink:title=" ">
<polygon fill="none" stroke="black" points="861,-0.5 861,-30.5 995,-30.5 995,-0.5 861,-0.5"/>
<text text-anchor="start" x="869" y="-18.5" font-family="Helvetica,sans-Serif" font-size="10.00">rawspeed::iRectangle2D</text>
<text text-anchor="middle" x="928" y="-7.5" font-family="Helvetica,sans-Serif" font-size="10.00">::isThisInside</text>
</a>
</g>
</g>
<!-- Node1&#45;&gt;Node12 -->
<g id="edge12" class="edge">
<title>Node1&#45;&gt;Node12</title>
<path fill="none" stroke="midnightblue" d="M1022.15,-41.69C1008.97,-37.98 995.22,-34.12 982.45,-30.53"/>
<polygon fill="midnightblue" stroke="midnightblue" points="1021.51,-45.14 1032.08,-44.48 1023.4,-38.4 1021.51,-45.14"/>
</g>
<!-- Node2&#45;&gt;Node3 -->
<g id="edge2" class="edge">
<title>Node2&#45;&gt;Node3</title>
<path fill="none" stroke="midnightblue" d="M850.92,-93.63C842.29,-92.5 833.53,-91.37 825.01,-90.26"/>
<polygon fill="midnightblue" stroke="midnightblue" points="850.61,-97.11 860.98,-94.93 851.52,-90.17 850.61,-97.11"/>
</g>
<!-- Node4 -->
<g id="node4" class="node">
<title>Node4</title>
<g id="a_node4"><a xlink:href="../../d5/d66/classrawspeed_1_1_dng_opcodes_1_1_dummy_r_o_i_opcode.html#a41065e2a0a4c5a97fa22a998d446e92f" target="_top" xlink:title=" ">
<polygon fill="none" stroke="black" points="437,-44.5 437,-74.5 652,-74.5 652,-44.5 437,-44.5"/>
<text text-anchor="start" x="445" y="-62.5" font-family="Helvetica,sans-Serif" font-size="10.00">rawspeed::DngOpcodes</text>
<text text-anchor="middle" x="544.5" y="-51.5" font-family="Helvetica,sans-Serif" font-size="10.00">::DummyROIOpcode::DummyROIOpcode</text>
</a>
</g>
</g>
<!-- Node3&#45;&gt;Node4 -->
<g id="edge3" class="edge">
<title>Node3&#45;&gt;Node4</title>
<path fill="none" stroke="midnightblue" d="M677.87,-73.37C669.53,-72.49 660.94,-71.59 652.34,-70.69"/>
<polygon fill="midnightblue" stroke="midnightblue" points="677.59,-76.86 687.9,-74.42 678.32,-69.9 677.59,-76.86"/>
</g>
<!-- Node6 -->
<g id="node6" class="node">
<title>Node6</title>
<g id="a_node6"><a xlink:href="../../d5/dcb/classrawspeed_1_1_dng_opcodes_1_1_pixel_opcode.html#a2d4cef258692d4e1609527e09b51c8f1" target="_top" xlink:title=" ">
<polygon fill="none" stroke="black" points="469.5,-142.5 469.5,-172.5 619.5,-172.5 619.5,-142.5 469.5,-142.5"/>
<text text-anchor="start" x="477.5" y="-160.5" font-family="Helvetica,sans-Serif" font-size="10.00">rawspeed::DngOpcodes</text>
<text text-anchor="middle" x="544.5" y="-149.5" font-family="Helvetica,sans-Serif" font-size="10.00">::PixelOpcode::PixelOpcode</text>
</a>
</g>
</g>
<!-- Node3&#45;&gt;Node6 -->
<g id="edge5" class="edge">
<title>Node3&#45;&gt;Node6</title>
<path fill="none" stroke="midnightblue" d="M721.01,-101.5C701.32,-112.23 675.86,-124.96 652,-133.5 641.65,-137.2 630.52,-140.46 619.5,-143.28"/>
<polygon fill="midnightblue" stroke="midnightblue" points="722.85,-104.48 729.91,-96.57 719.46,-98.35 722.85,-104.48"/>
</g>
<!-- Node11 -->
<g id="node11" class="node">
<title>Node11</title>
<g id="a_node11"><a xlink:href="../../da/ddd/classrawspeed_1_1_dng_opcodes_1_1_trim_bounds.html#a2e5018f45c2e01536269db5799d35c8f" target="_top" xlink:title=" ">
<polygon fill="none" stroke="black" points="473,-93.5 473,-123.5 616,-123.5 616,-93.5 473,-93.5"/>
<text text-anchor="start" x="481" y="-111.5" font-family="Helvetica,sans-Serif" font-size="10.00">rawspeed::DngOpcodes</text>
<text text-anchor="middle" x="544.5" y="-100.5" font-family="Helvetica,sans-Serif" font-size="10.00">::TrimBounds::TrimBounds</text>
</a>
</g>
</g>
<!-- Node3&#45;&gt;Node11 -->
<g id="edge11" class="edge">
<title>Node3&#45;&gt;Node11</title>
<path fill="none" stroke="midnightblue" d="M677.81,-91.49C657.64,-94.08 636.02,-96.86 616.23,-99.41"/>
<polygon fill="midnightblue" stroke="midnightblue" points="678.43,-94.94 687.9,-90.19 677.53,-88 678.43,-94.94"/>
</g>
<!-- Node5 -->
<g id="node5" class="node">
<title>Node5</title>
<g id="a_node5"><a xlink:href="../../d9/d5b/classrawspeed_1_1_dng_opcodes_1_1_fix_bad_pixels_list.html#ab7bf4c8e7f4039739d0a1f520c841672" target="_top" xlink:title=" ">
<polygon fill="none" stroke="black" points="215,-30.5 215,-60.5 401,-60.5 401,-30.5 215,-30.5"/>
<text text-anchor="start" x="223" y="-48.5" font-family="Helvetica,sans-Serif" font-size="10.00">rawspeed::DngOpcodes</text>
<text text-anchor="middle" x="308" y="-37.5" font-family="Helvetica,sans-Serif" font-size="10.00">::FixBadPixelsList::FixBadPixelsList</text>
</a>
</g>
</g>
<!-- Node4&#45;&gt;Node5 -->
<g id="edge4" class="edge">
<title>Node4&#45;&gt;Node5</title>
<path fill="none" stroke="midnightblue" d="M426.76,-52.53C418.11,-52.01 409.47,-51.5 401.01,-50.99"/>
<polygon fill="midnightblue" stroke="midnightblue" points="426.69,-56.03 436.89,-53.13 427.11,-49.05 426.69,-56.03"/>
</g>
<!-- Node7 -->
<g id="node7" class="node">
<title>Node7</title>
<g id="a_node7"><a xlink:href="../../d0/d58/classrawspeed_1_1_dng_opcodes_1_1_delta_row_or_col_base.html#aee44344d07cc5c0dd84dd96d8c2db5e3" target="_top" xlink:title=" ">
<polygon fill="none" stroke="black" points="242.5,-96 242.5,-137 373.5,-137 373.5,-96 242.5,-96"/>
<text text-anchor="start" x="250.5" y="-125" font-family="Helvetica,sans-Serif" font-size="10.00">rawspeed::DngOpcodes</text>
<text text-anchor="start" x="250.5" y="-114" font-family="Helvetica,sans-Serif" font-size="10.00">::DeltaRowOrColBase::</text>
<text text-anchor="middle" x="308" y="-103" font-family="Helvetica,sans-Serif" font-size="10.00">DeltaRowOrColBase</text>
</a>
</g>
</g>
<!-- Node6&#45;&gt;Node7 -->
<g id="edge6" class="edge">
<title>Node6&#45;&gt;Node7</title>
<path fill="none" stroke="midnightblue" d="M459.44,-142.8C431.19,-137.86 400.14,-132.43 373.62,-127.8"/>
<polygon fill="midnightblue" stroke="midnightblue" points="458.85,-146.25 469.3,-144.53 460.05,-139.36 458.85,-146.25"/>
</g>
<!-- Node8 -->
<g id="node8" class="node">
<title>Node8</title>
<g id="a_node8"><a xlink:href="../../de/d8e/classrawspeed_1_1_dng_opcodes_1_1_lookup_opcode.html#a90e7b20b578b60967bd9e9b85e323a17" target="_top" xlink:title=" ">
<polygon fill="none" stroke="black" points="221.5,-156.5 221.5,-186.5 394.5,-186.5 394.5,-156.5 221.5,-156.5"/>
<text text-anchor="start" x="229.5" y="-174.5" font-family="Helvetica,sans-Serif" font-size="10.00">rawspeed::DngOpcodes</text>
<text text-anchor="middle" x="308" y="-163.5" font-family="Helvetica,sans-Serif" font-size="10.00">::LookupOpcode::LookupOpcode</text>
</a>
</g>
</g>
<!-- Node6&#45;&gt;Node8 -->
<g id="edge7" class="edge">
<title>Node6&#45;&gt;Node8</title>
<path fill="none" stroke="midnightblue" d="M459.13,-162.54C438.14,-163.79 415.62,-165.13 394.57,-166.39"/>
<polygon fill="midnightblue" stroke="midnightblue" points="459.53,-166.02 469.3,-161.93 459.11,-159.03 459.53,-166.02"/>
</g>
<!-- Node8&#45;&gt;Node8 -->
<g id="edge8" class="edge">
<title>Node8&#45;&gt;Node8</title>
<path fill="none" stroke="midnightblue" d="M346.74,-196.96C341.93,-201.68 329.02,-205 308,-205 273.51,-205 260.85,-196.06 270.01,-186.66"/>
<polygon fill="midnightblue" stroke="midnightblue" points="350.2,-196.38 345.99,-186.66 343.22,-196.89 350.2,-196.38"/>
</g>
<!-- Node9 -->
<g id="node9" class="node">
<title>Node9</title>
<g id="a_node9"><a xlink:href="../../d8/d70/classrawspeed_1_1_dng_opcodes_1_1_polynomial_map.html#a5ba7f4d079c409526da52143518d6c6f" target="_top" xlink:title=" ">
<polygon fill="none" stroke="black" points="0,-180.5 0,-210.5 179,-210.5 179,-180.5 0,-180.5"/>
<text text-anchor="start" x="8" y="-198.5" font-family="Helvetica,sans-Serif" font-size="10.00">rawspeed::DngOpcodes</text>
<text text-anchor="middle" x="89.5" y="-187.5" font-family="Helvetica,sans-Serif" font-size="10.00">::PolynomialMap::PolynomialMap</text>
</a>
</g>
</g>
<!-- Node8&#45;&gt;Node9 -->
<g id="edge9" class="edge">
<title>Node8&#45;&gt;Node9</title>
<path fill="none" stroke="midnightblue" d="M211.31,-182.11C200.68,-183.29 189.89,-184.48 179.35,-185.65"/>
<polygon fill="midnightblue" stroke="midnightblue" points="211.88,-185.57 221.43,-180.99 211.11,-178.61 211.88,-185.57"/>
</g>
<!-- Node10 -->
<g id="node10" class="node">
<title>Node10</title>
<g id="a_node10"><a xlink:href="../../dc/d9c/classrawspeed_1_1_dng_opcodes_1_1_table_map.html#a0f4b8c3112f447ae3a1e487b42e11d3d" target="_top" xlink:title=" ">
<polygon fill="none" stroke="black" points="24,-131.5 24,-161.5 155,-161.5 155,-131.5 24,-131.5"/>
<text text-anchor="start" x="32" y="-149.5" font-family="Helvetica,sans-Serif" font-size="10.00">rawspeed::DngOpcodes</text>
<text text-anchor="middle" x="89.5" y="-138.5" font-family="Helvetica,sans-Serif" font-size="10.00">::TableMap::TableMap</text>
</a>
</g>
</g>
<!-- Node8&#45;&gt;Node10 -->
<g id="edge10" class="edge">
<title>Node8&#45;&gt;Node10</title>
<path fill="none" stroke="midnightblue" d="M211.25,-160.44C192.25,-158.25 172.73,-156 155.08,-153.96"/>
<polygon fill="midnightblue" stroke="midnightblue" points="211.1,-163.95 221.43,-161.62 211.9,-157 211.1,-163.95"/>
</g>
<!-- Node12&#45;&gt;Node3 -->
<g id="edge14" class="edge">
<title>Node12&#45;&gt;Node3</title>
<path fill="none" stroke="midnightblue" d="M878.76,-34.28C852.61,-44.47 820.72,-56.88 796.21,-66.43"/>
<polygon fill="midnightblue" stroke="midnightblue" points="880.06,-37.53 888.11,-30.64 877.52,-31.01 880.06,-37.53"/>
</g>
<!-- Node12&#45;&gt;Node5 -->
<g id="edge13" class="edge">
<title>Node12&#45;&gt;Node5</title>
<path fill="none" stroke="midnightblue" d="M850.53,-17.35C754.07,-19.95 583.13,-25.39 437,-34.5 425.42,-35.22 413.27,-36.1 401.25,-37.05"/>
<polygon fill="midnightblue" stroke="midnightblue" points="850.87,-20.85 860.77,-17.08 850.68,-13.85 850.87,-20.85"/>
</g>
</g>
</svg>
