<?xml version="1.0" encoding="UTF-8" standalone="no"?>
<!DOCTYPE svg PUBLIC "-//W3C//DTD SVG 1.1//EN"
 "http://www.w3.org/Graphics/SVG/1.1/DTD/svg11.dtd">
<!-- Generated by graphviz version 2.43.0 (0)
 -->
<!-- Title: rawspeed::iPoint2D::operator+ Pages: 1 -->
<!--zoomable 261 -->
<svg id="main" version="1.1" xmlns="http://www.w3.org/2000/svg" xmlns:xlink="http://www.w3.org/1999/xlink" xml:space="preserve" onload="init(evt)">
<style type="text/css"><![CDATA[
.edge:hover path { stroke: red; }
.edge:hover polygon { stroke: red; fill: red; }
]]></style>
<script type="text/javascript"><![CDATA[
var edges = document.getElementsByTagName('g');
if (edges && edges.length) {
  for (var i=0;i<edges.length;i++) {
    if (edges[i].id.substr(0,4)=='edge') {
      edges[i].setAttribute('class','edge');
    }
  }
}
]]></script>
        <defs>
                <circle id="rim" cx="0" cy="0" r="7"/>
                <circle id="rim2" cx="0" cy="0" r="3.5"/>
                <g id="zoomPlus">
                        <use xlink:href="#rim" fill="#404040">
                                <set attributeName="fill" to="#808080" begin="zoomplus.mouseover" end="zoomplus.mouseout"/>
                        </use>
                        <path d="M-4,0h8M0,-4v8" fill="none" stroke="white" stroke-width="1.5" pointer-events="none"/>
                </g>
                <g id="zoomMin">
                        <use xlink:href="#rim" fill="#404040">
                                <set attributeName="fill" to="#808080" begin="zoomminus.mouseover" end="zoomminus.mouseout"/>
                        </use>
                        <path d="M-4,0h8" fill="none" stroke="white" stroke-width="1.5" pointer-events="none"/>
                </g>
                <g id="dirArrow">
                        <path fill="none" stroke="white" stroke-width="1.5" d="M0,-3.0v7 M-2.5,-0.5L0,-3.0L2.5,-0.5"/>
                </g>
               <g id="resetDef">
                       <use xlink:href="#rim2" fill="#404040">
                               <set attributeName="fill" to="#808080" begin="reset.mouseover" end="reset.mouseout"/>
                       </use>
               </g>
        </defs>

<script type="text/javascript">
var viewWidth = 1328;
var viewHeight = 261;
var sectionId = 'dynsection-9';
</script>
<script xlink:href="../../svgpan.js"/>
<svg id="graph" class="graph">
<g id="viewport">
<title>rawspeed::iPoint2D::operator+</title>
<!-- Node1 -->
<g id="node1" class="node">
<title>Node1</title>
<g id="a_node1"><a xlink:title=" ">
<polygon fill="#bfbfbf" stroke="black" points="1209,-71.5 1209,-101.5 1320,-101.5 1320,-71.5 1209,-71.5"/>
<text text-anchor="start" x="1217" y="-89.5" font-family="Helvetica,sans-Serif" font-size="10.00">rawspeed::iPoint2D</text>
<text text-anchor="middle" x="1264.5" y="-78.5" font-family="Helvetica,sans-Serif" font-size="10.00">::operator+</text>
</a>
</g>
</g>
<!-- Node2 -->
<g id="node2" class="node">
<title>Node2</title>
<g id="a_node2"><a xlink:href="../../d6/d8f/classrawspeed_1_1i_rectangle2_d.html#ad6ae3f2ed094abc10d38b954af7e5b99" target="_top" xlink:title=" ">
<polygon fill="none" stroke="black" points="1039,-120.5 1039,-150.5 1173,-150.5 1173,-120.5 1039,-120.5"/>
<text text-anchor="start" x="1047" y="-138.5" font-family="Helvetica,sans-Serif" font-size="10.00">rawspeed::iRectangle2D</text>
<text text-anchor="middle" x="1106" y="-127.5" font-family="Helvetica,sans-Serif" font-size="10.00">::getBottomRight</text>
</a>
</g>
</g>
<!-- Node1&#45;&gt;Node2 -->
<g id="edge1" class="edge">
<title>Node1&#45;&gt;Node2</title>
<path fill="none" stroke="midnightblue" d="M1205.65,-104.61C1189.01,-109.82 1171.05,-115.45 1155.07,-120.45"/>
<polygon fill="midnightblue" stroke="midnightblue" points="1206.77,-107.93 1215.27,-101.6 1204.68,-101.25 1206.77,-107.93"/>
</g>
<!-- Node19 -->
<g id="node19" class="node">
<title>Node19</title>
<g id="a_node19"><a xlink:href="../../d8/d75/classrawspeed_1_1i_point2_d.html#a5dca3a0a61294de94541bd48907599bf" target="_top" xlink:title=" ">
<polygon fill="none" stroke="black" points="1050.5,-47.5 1050.5,-77.5 1161.5,-77.5 1161.5,-47.5 1050.5,-47.5"/>
<text text-anchor="start" x="1058.5" y="-65.5" font-family="Helvetica,sans-Serif" font-size="10.00">rawspeed::iPoint2D</text>
<text text-anchor="middle" x="1106" y="-54.5" font-family="Helvetica,sans-Serif" font-size="10.00">::operator+=</text>
</a>
</g>
</g>
<!-- Node1&#45;&gt;Node19 -->
<g id="edge21" class="edge">
<title>Node1&#45;&gt;Node19</title>
<path fill="none" stroke="midnightblue" d="M1198.6,-76.55C1186.33,-74.67 1173.62,-72.72 1161.71,-70.89"/>
<polygon fill="midnightblue" stroke="midnightblue" points="1198.35,-80.05 1208.76,-78.11 1199.41,-73.13 1198.35,-80.05"/>
</g>
<!-- Node3 -->
<g id="node3" class="node">
<title>Node3</title>
<g id="a_node3"><a xlink:href="../../d6/d8f/classrawspeed_1_1i_rectangle2_d.html#a5e2b95d9fa93ccc8a1fb3dc3b2a1f0c5" target="_top" xlink:title=" ">
<polygon fill="none" stroke="black" points="869,-169.5 869,-199.5 1003,-199.5 1003,-169.5 869,-169.5"/>
<text text-anchor="start" x="877" y="-187.5" font-family="Helvetica,sans-Serif" font-size="10.00">rawspeed::iRectangle2D</text>
<text text-anchor="middle" x="936" y="-176.5" font-family="Helvetica,sans-Serif" font-size="10.00">::combine</text>
</a>
</g>
</g>
<!-- Node2&#45;&gt;Node3 -->
<g id="edge2" class="edge">
<title>Node2&#45;&gt;Node3</title>
<path fill="none" stroke="midnightblue" d="M1043.4,-153.47C1025.4,-158.72 1005.92,-164.4 988.61,-169.45"/>
<polygon fill="midnightblue" stroke="midnightblue" points="1044.6,-156.76 1053.22,-150.6 1042.64,-150.04 1044.6,-156.76"/>
</g>
<!-- Node4 -->
<g id="node4" class="node">
<title>Node4</title>
<g id="a_node4"><a xlink:href="../../d6/d8f/classrawspeed_1_1i_rectangle2_d.html#aa8495c35de68f8002d471bc1c89c4e43" target="_top" xlink:title=" ">
<polygon fill="none" stroke="black" points="869,-71.5 869,-101.5 1003,-101.5 1003,-71.5 869,-71.5"/>
<text text-anchor="start" x="877" y="-89.5" font-family="Helvetica,sans-Serif" font-size="10.00">rawspeed::iRectangle2D</text>
<text text-anchor="middle" x="936" y="-78.5" font-family="Helvetica,sans-Serif" font-size="10.00">::getOverlap</text>
</a>
</g>
</g>
<!-- Node2&#45;&gt;Node4 -->
<g id="edge3" class="edge">
<title>Node2&#45;&gt;Node4</title>
<path fill="none" stroke="midnightblue" d="M1043.4,-117.53C1025.4,-112.28 1005.92,-106.6 988.61,-101.55"/>
<polygon fill="midnightblue" stroke="midnightblue" points="1042.64,-120.96 1053.22,-120.4 1044.6,-114.24 1042.64,-120.96"/>
</g>
<!-- Node8 -->
<g id="node8" class="node">
<title>Node8</title>
<g id="a_node8"><a xlink:href="../../d6/d8f/classrawspeed_1_1i_rectangle2_d.html#a8e5d729239ce4ebabfc221d463a3c79e" target="_top" xlink:title=" ">
<polygon fill="none" stroke="black" points="869,-120.5 869,-150.5 1003,-150.5 1003,-120.5 869,-120.5"/>
<text text-anchor="start" x="877" y="-138.5" font-family="Helvetica,sans-Serif" font-size="10.00">rawspeed::iRectangle2D</text>
<text text-anchor="middle" x="936" y="-127.5" font-family="Helvetica,sans-Serif" font-size="10.00">::isPointInsideInclusive</text>
</a>
</g>
</g>
<!-- Node2&#45;&gt;Node8 -->
<g id="edge7" class="edge">
<title>Node2&#45;&gt;Node8</title>
<path fill="none" stroke="midnightblue" d="M1028.41,-135.5C1019.99,-135.5 1011.47,-135.5 1003.19,-135.5"/>
<polygon fill="midnightblue" stroke="midnightblue" points="1028.6,-139 1038.6,-135.5 1028.6,-132 1028.6,-139"/>
</g>
<!-- Node18 -->
<g id="node18" class="node">
<title>Node18</title>
<g id="a_node18"><a xlink:href="../../d6/d8f/classrawspeed_1_1i_rectangle2_d.html#a5fa041d0ecfb6fe7538f73c735cdb42c" target="_top" xlink:title=" ">
<polygon fill="none" stroke="black" points="869,-218.5 869,-248.5 1003,-248.5 1003,-218.5 869,-218.5"/>
<text text-anchor="start" x="877" y="-236.5" font-family="Helvetica,sans-Serif" font-size="10.00">rawspeed::iRectangle2D</text>
<text text-anchor="middle" x="936" y="-225.5" font-family="Helvetica,sans-Serif" font-size="10.00">::isThisInside</text>
</a>
</g>
</g>
<!-- Node2&#45;&gt;Node18 -->
<g id="edge18" class="edge">
<title>Node2&#45;&gt;Node18</title>
<path fill="none" stroke="midnightblue" d="M1079.28,-157.28C1059.42,-173.31 1030.73,-194.77 1003,-209.5 996.86,-212.76 990.19,-215.76 983.51,-218.45"/>
<polygon fill="midnightblue" stroke="midnightblue" points="1081.7,-159.82 1087.23,-150.78 1077.27,-154.41 1081.7,-159.82"/>
</g>
<!-- Node5 -->
<g id="node5" class="node">
<title>Node5</title>
<g id="a_node5"><a xlink:href="../../dc/d44/classrawspeed_1_1_raw_image_data.html#a5a1884d989dce1f16ac3ac579fe5c286" target="_top" xlink:title=" ">
<polygon fill="none" stroke="black" points="688,-98.5 688,-128.5 833,-128.5 833,-98.5 688,-98.5"/>
<text text-anchor="start" x="696" y="-116.5" font-family="Helvetica,sans-Serif" font-size="10.00">rawspeed::RawImageData</text>
<text text-anchor="middle" x="760.5" y="-105.5" font-family="Helvetica,sans-Serif" font-size="10.00">::blitFrom</text>
</a>
</g>
</g>
<!-- Node4&#45;&gt;Node5 -->
<g id="edge4" class="edge">
<title>Node4&#45;&gt;Node5</title>
<path fill="none" stroke="midnightblue" d="M858.95,-98.34C850.39,-99.67 841.69,-101.02 833.19,-102.34"/>
<polygon fill="midnightblue" stroke="midnightblue" points="859.57,-101.78 868.91,-96.78 858.49,-94.86 859.57,-101.78"/>
</g>
<!-- Node6 -->
<g id="node6" class="node">
<title>Node6</title>
<g id="a_node6"><a xlink:href="../../dc/d44/classrawspeed_1_1_raw_image_data.html#a46e3940e5a515c9cf0ac6af059f61485" target="_top" xlink:title=" ">
<polygon fill="none" stroke="black" points="688,-49.5 688,-79.5 833,-79.5 833,-49.5 688,-49.5"/>
<text text-anchor="start" x="696" y="-67.5" font-family="Helvetica,sans-Serif" font-size="10.00">rawspeed::RawImageData</text>
<text text-anchor="middle" x="760.5" y="-56.5" font-family="Helvetica,sans-Serif" font-size="10.00">::clearArea</text>
</a>
</g>
</g>
<!-- Node4&#45;&gt;Node6 -->
<g id="edge5" class="edge">
<title>Node4&#45;&gt;Node6</title>
<path fill="none" stroke="midnightblue" d="M858.95,-76.86C850.39,-75.77 841.69,-74.67 833.19,-73.59"/>
<polygon fill="midnightblue" stroke="midnightblue" points="858.55,-80.33 868.91,-78.12 859.43,-73.39 858.55,-80.33"/>
</g>
<!-- Node7 -->
<g id="node7" class="node">
<title>Node7</title>
<g id="a_node7"><a xlink:href="../../dc/d44/classrawspeed_1_1_raw_image_data.html#a51031166015f5dd9cbc5dca5d2e03a5e" target="_top" xlink:title=" ">
<polygon fill="none" stroke="black" points="688,-0.5 688,-30.5 833,-30.5 833,-0.5 688,-0.5"/>
<text text-anchor="start" x="696" y="-18.5" font-family="Helvetica,sans-Serif" font-size="10.00">rawspeed::RawImageData</text>
<text text-anchor="middle" x="760.5" y="-7.5" font-family="Helvetica,sans-Serif" font-size="10.00">::expandBorder</text>
</a>
</g>
</g>
<!-- Node4&#45;&gt;Node7 -->
<g id="edge6" class="edge">
<title>Node4&#45;&gt;Node7</title>
<path fill="none" stroke="midnightblue" d="M882.24,-67.53C877.71,-65.6 873.25,-63.58 869,-61.5 852.16,-53.25 850,-47.42 833,-39.5 826.12,-36.29 818.68,-33.3 811.3,-30.6"/>
<polygon fill="midnightblue" stroke="midnightblue" points="880.97,-70.8 891.55,-71.37 883.63,-64.32 880.97,-70.8"/>
</g>
<!-- Node9 -->
<g id="node9" class="node">
<title>Node9</title>
<g id="a_node9"><a xlink:href="../../df/dc9/classrawspeed_1_1_dng_opcodes_1_1_r_o_i_opcode.html#a18543c8017b64d69566acc55164af4cc" target="_top" xlink:title=" ">
<polygon fill="none" stroke="black" points="692,-147.5 692,-177.5 829,-177.5 829,-147.5 692,-147.5"/>
<text text-anchor="start" x="700" y="-165.5" font-family="Helvetica,sans-Serif" font-size="10.00">rawspeed::DngOpcodes</text>
<text text-anchor="middle" x="760.5" y="-154.5" font-family="Helvetica,sans-Serif" font-size="10.00">::ROIOpcode::ROIOpcode</text>
</a>
</g>
</g>
<!-- Node8&#45;&gt;Node9 -->
<g id="edge8" class="edge">
<title>Node8&#45;&gt;Node9</title>
<path fill="none" stroke="midnightblue" d="M858.73,-147.37C848.87,-148.9 838.83,-150.47 829.13,-151.98"/>
<polygon fill="midnightblue" stroke="midnightblue" points="859.57,-150.78 868.91,-145.78 858.49,-143.86 859.57,-150.78"/>
</g>
<!-- Node10 -->
<g id="node10" class="node">
<title>Node10</title>
<g id="a_node10"><a xlink:href="../../d5/d66/classrawspeed_1_1_dng_opcodes_1_1_dummy_r_o_i_opcode.html#a41065e2a0a4c5a97fa22a998d446e92f" target="_top" xlink:title=" ">
<polygon fill="none" stroke="black" points="437,-185.5 437,-215.5 652,-215.5 652,-185.5 437,-185.5"/>
<text text-anchor="start" x="445" y="-203.5" font-family="Helvetica,sans-Serif" font-size="10.00">rawspeed::DngOpcodes</text>
<text text-anchor="middle" x="544.5" y="-192.5" font-family="Helvetica,sans-Serif" font-size="10.00">::DummyROIOpcode::DummyROIOpcode</text>
</a>
</g>
</g>
<!-- Node9&#45;&gt;Node10 -->
<g id="edge9" class="edge">
<title>Node9&#45;&gt;Node10</title>
<path fill="none" stroke="midnightblue" d="M681.52,-176.35C664.79,-179.32 647.04,-182.47 630.08,-185.48"/>
<polygon fill="midnightblue" stroke="midnightblue" points="682.56,-179.72 691.79,-174.52 681.33,-172.83 682.56,-179.72"/>
</g>
<!-- Node12 -->
<g id="node12" class="node">
<title>Node12</title>
<g id="a_node12"><a xlink:href="../../d5/dcb/classrawspeed_1_1_dng_opcodes_1_1_pixel_opcode.html#a2d4cef258692d4e1609527e09b51c8f1" target="_top" xlink:title=" ">
<polygon fill="none" stroke="black" points="469.5,-136.5 469.5,-166.5 619.5,-166.5 619.5,-136.5 469.5,-136.5"/>
<text text-anchor="start" x="477.5" y="-154.5" font-family="Helvetica,sans-Serif" font-size="10.00">rawspeed::DngOpcodes</text>
<text text-anchor="middle" x="544.5" y="-143.5" font-family="Helvetica,sans-Serif" font-size="10.00">::PixelOpcode::PixelOpcode</text>
</a>
</g>
</g>
<!-- Node9&#45;&gt;Node12 -->
<g id="edge11" class="edge">
<title>Node9&#45;&gt;Node12</title>
<path fill="none" stroke="midnightblue" d="M681.7,-158.5C661.51,-157.46 639.82,-156.35 619.82,-155.32"/>
<polygon fill="midnightblue" stroke="midnightblue" points="681.62,-162 691.79,-159.02 681.98,-155.01 681.62,-162"/>
</g>
<!-- Node17 -->
<g id="node17" class="node">
<title>Node17</title>
<g id="a_node17"><a xlink:href="../../da/ddd/classrawspeed_1_1_dng_opcodes_1_1_trim_bounds.html#a2e5018f45c2e01536269db5799d35c8f" target="_top" xlink:title=" ">
<polygon fill="none" stroke="black" points="473,-87.5 473,-117.5 616,-117.5 616,-87.5 473,-87.5"/>
<text text-anchor="start" x="481" y="-105.5" font-family="Helvetica,sans-Serif" font-size="10.00">rawspeed::DngOpcodes</text>
<text text-anchor="middle" x="544.5" y="-94.5" font-family="Helvetica,sans-Serif" font-size="10.00">::TrimBounds::TrimBounds</text>
</a>
</g>
</g>
<!-- Node9&#45;&gt;Node17 -->
<g id="edge17" class="edge">
<title>Node9&#45;&gt;Node17</title>
<path fill="none" stroke="midnightblue" d="M704.95,-144.28C683.93,-137.35 662.45,-130.42 652,-127.5 639.56,-124.02 626.22,-120.63 613.33,-117.52"/>
<polygon fill="midnightblue" stroke="midnightblue" points="703.95,-147.63 714.54,-147.44 706.15,-140.98 703.95,-147.63"/>
</g>
<!-- Node11 -->
<g id="node11" class="node">
<title>Node11</title>
<g id="a_node11"><a xlink:href="../../d9/d5b/classrawspeed_1_1_dng_opcodes_1_1_fix_bad_pixels_list.html#ab7bf4c8e7f4039739d0a1f520c841672" target="_top" xlink:title=" ">
<polygon fill="none" stroke="black" points="215,-222.5 215,-252.5 401,-252.5 401,-222.5 215,-222.5"/>
<text text-anchor="start" x="223" y="-240.5" font-family="Helvetica,sans-Serif" font-size="10.00">rawspeed::DngOpcodes</text>
<text text-anchor="middle" x="308" y="-229.5" font-family="Helvetica,sans-Serif" font-size="10.00">::FixBadPixelsList::FixBadPixelsList</text>
</a>
</g>
</g>
<!-- Node10&#45;&gt;Node11 -->
<g id="edge10" class="edge">
<title>Node10&#45;&gt;Node11</title>
<path fill="none" stroke="midnightblue" d="M437.9,-217.16C425.68,-219.09 413.29,-221.05 401.26,-222.94"/>
<polygon fill="midnightblue" stroke="midnightblue" points="438.79,-220.57 448.12,-215.55 437.7,-213.65 438.79,-220.57"/>
</g>
<!-- Node13 -->
<g id="node13" class="node">
<title>Node13</title>
<g id="a_node13"><a xlink:href="../../d0/d58/classrawspeed_1_1_dng_opcodes_1_1_delta_row_or_col_base.html#aee44344d07cc5c0dd84dd96d8c2db5e3" target="_top" xlink:title=" ">
<polygon fill="none" stroke="black" points="242.5,-82 242.5,-123 373.5,-123 373.5,-82 242.5,-82"/>
<text text-anchor="start" x="250.5" y="-111" font-family="Helvetica,sans-Serif" font-size="10.00">rawspeed::DngOpcodes</text>
<text text-anchor="start" x="250.5" y="-100" font-family="Helvetica,sans-Serif" font-size="10.00">::DeltaRowOrColBase::</text>
<text text-anchor="middle" x="308" y="-89" font-family="Helvetica,sans-Serif" font-size="10.00">DeltaRowOrColBase</text>
</a>
</g>
</g>
<!-- Node12&#45;&gt;Node13 -->
<g id="edge12" class="edge">
<title>Node12&#45;&gt;Node13</title>
<path fill="none" stroke="midnightblue" d="M461.51,-134.37C432.72,-128.35 400.81,-121.68 373.65,-116.01"/>
<polygon fill="midnightblue" stroke="midnightblue" points="461.04,-137.85 471.55,-136.47 462.48,-130.99 461.04,-137.85"/>
</g>
<!-- Node14 -->
<g id="node14" class="node">
<title>Node14</title>
<g id="a_node14"><a xlink:href="../../de/d8e/classrawspeed_1_1_dng_opcodes_1_1_lookup_opcode.html#a90e7b20b578b60967bd9e9b85e323a17" target="_top" xlink:title=" ">
<polygon fill="none" stroke="black" points="221.5,-142.5 221.5,-172.5 394.5,-172.5 394.5,-142.5 221.5,-142.5"/>
<text text-anchor="start" x="229.5" y="-160.5" font-family="Helvetica,sans-Serif" font-size="10.00">rawspeed::DngOpcodes</text>
<text text-anchor="middle" x="308" y="-149.5" font-family="Helvetica,sans-Serif" font-size="10.00">::LookupOpcode::LookupOpcode</text>
</a>
</g>
</g>
<!-- Node12&#45;&gt;Node14 -->
<g id="edge13" class="edge">
<title>Node12&#45;&gt;Node14</title>
<path fill="none" stroke="midnightblue" d="M459.13,-153.66C438.14,-154.2 415.62,-154.77 394.57,-155.31"/>
<polygon fill="midnightblue" stroke="midnightblue" points="459.4,-157.15 469.3,-153.4 459.22,-150.16 459.4,-157.15"/>
</g>
<!-- Node14&#45;&gt;Node14 -->
<g id="edge14" class="edge">
<title>Node14&#45;&gt;Node14</title>
<path fill="none" stroke="midnightblue" d="M346.74,-182.96C341.93,-187.68 329.02,-191 308,-191 273.51,-191 260.85,-182.06 270.01,-172.66"/>
<polygon fill="midnightblue" stroke="midnightblue" points="350.2,-182.38 345.99,-172.66 343.22,-182.89 350.2,-182.38"/>
</g>
<!-- Node15 -->
<g id="node15" class="node">
<title>Node15</title>
<g id="a_node15"><a xlink:href="../../d8/d70/classrawspeed_1_1_dng_opcodes_1_1_polynomial_map.html#a5ba7f4d079c409526da52143518d6c6f" target="_top" xlink:title=" ">
<polygon fill="none" stroke="black" points="0,-166.5 0,-196.5 179,-196.5 179,-166.5 0,-166.5"/>
<text text-anchor="start" x="8" y="-184.5" font-family="Helvetica,sans-Serif" font-size="10.00">rawspeed::DngOpcodes</text>
<text text-anchor="middle" x="89.5" y="-173.5" font-family="Helvetica,sans-Serif" font-size="10.00">::PolynomialMap::PolynomialMap</text>
</a>
</g>
</g>
<!-- Node14&#45;&gt;Node15 -->
<g id="edge15" class="edge">
<title>Node14&#45;&gt;Node15</title>
<path fill="none" stroke="midnightblue" d="M211.31,-168.11C200.68,-169.29 189.89,-170.48 179.35,-171.65"/>
<polygon fill="midnightblue" stroke="midnightblue" points="211.88,-171.57 221.43,-166.99 211.11,-164.61 211.88,-171.57"/>
</g>
<!-- Node16 -->
<g id="node16" class="node">
<title>Node16</title>
<g id="a_node16"><a xlink:href="../../dc/d9c/classrawspeed_1_1_dng_opcodes_1_1_table_map.html#a0f4b8c3112f447ae3a1e487b42e11d3d" target="_top" xlink:title=" ">
<polygon fill="none" stroke="black" points="24,-117.5 24,-147.5 155,-147.5 155,-117.5 24,-117.5"/>
<text text-anchor="start" x="32" y="-135.5" font-family="Helvetica,sans-Serif" font-size="10.00">rawspeed::DngOpcodes</text>
<text text-anchor="middle" x="89.5" y="-124.5" font-family="Helvetica,sans-Serif" font-size="10.00">::TableMap::TableMap</text>
</a>
</g>
</g>
<!-- Node14&#45;&gt;Node16 -->
<g id="edge16" class="edge">
<title>Node14&#45;&gt;Node16</title>
<path fill="none" stroke="midnightblue" d="M211.25,-146.44C192.25,-144.25 172.73,-142 155.08,-139.96"/>
<polygon fill="midnightblue" stroke="midnightblue" points="211.1,-149.95 221.43,-147.62 211.9,-143 211.1,-149.95"/>
</g>
<!-- Node18&#45;&gt;Node9 -->
<g id="edge20" class="edge">
<title>Node18&#45;&gt;Node9</title>
<path fill="none" stroke="midnightblue" d="M882.71,-214.83C878.06,-213.07 873.44,-211.27 869,-209.5 843.85,-199.44 815.81,-187.15 794.68,-177.66"/>
<polygon fill="midnightblue" stroke="midnightblue" points="881.65,-218.17 892.25,-218.4 884.11,-211.62 881.65,-218.17"/>
</g>
<!-- Node18&#45;&gt;Node11 -->
<g id="edge19" class="edge">
<title>Node18&#45;&gt;Node11</title>
<path fill="none" stroke="midnightblue" d="M858.74,-233.99C743.42,-234.72 525.01,-236.12 401.02,-236.91"/>
<polygon fill="midnightblue" stroke="midnightblue" points="858.92,-237.49 868.9,-233.92 858.87,-230.49 858.92,-237.49"/>
</g>
<!-- Node20 -->
<g id="node20" class="node">
<title>Node20</title>
<g id="a_node20"><a xlink:href="../../d6/d8f/classrawspeed_1_1i_rectangle2_d.html#ab02a67e40869f2f9e5e751561f165686" target="_top" xlink:title=" ">
<polygon fill="none" stroke="black" points="869,-22.5 869,-52.5 1003,-52.5 1003,-22.5 869,-22.5"/>
<text text-anchor="start" x="877" y="-40.5" font-family="Helvetica,sans-Serif" font-size="10.00">rawspeed::iRectangle2D</text>
<text text-anchor="middle" x="936" y="-29.5" font-family="Helvetica,sans-Serif" font-size="10.00">::offset</text>
</a>
</g>
</g>
<!-- Node19&#45;&gt;Node20 -->
<g id="edge22" class="edge">
<title>Node19&#45;&gt;Node20</title>
<path fill="none" stroke="midnightblue" d="M1040.34,-52.88C1028.1,-51.06 1015.28,-49.15 1003,-47.32"/>
<polygon fill="midnightblue" stroke="midnightblue" points="1040.05,-56.37 1050.46,-54.38 1041.08,-49.45 1040.05,-56.37"/>
</g>
</g>
</svg>
        <g id="navigator" transform="translate(0 0)" fill="#404254">
                <rect fill="#f2f5e9" fill-opacity="0.5" stroke="#606060" stroke-width=".5" x="0" y="0" width="60" height="60"/>
                <use id="zoomplus" xlink:href="#zoomPlus" x="17" y="9" onmousedown="handleZoom(evt,'in')"/>
                <use id="zoomminus" xlink:href="#zoomMin" x="42" y="9" onmousedown="handleZoom(evt,'out')"/>
                <use id="reset" xlink:href="#resetDef" x="30" y="36" onmousedown="handleReset()"/>
                <g id="arrowUp" xlink:href="#dirArrow" transform="translate(30 24)" onmousedown="handlePan(0,-1)">
                  <use xlink:href="#rim" fill="#404040">
                        <set attributeName="fill" to="#808080" begin="arrowUp.mouseover" end="arrowUp.mouseout"/>
                  </use>
                  <path fill="none" stroke="white" stroke-width="1.5" d="M0,-3.0v7 M-2.5,-0.5L0,-3.0L2.5,-0.5"/>
                </g>
                <g id="arrowRight" xlink:href="#dirArrow" transform="rotate(90) translate(36 -43)" onmousedown="handlePan(1,0)">
                  <use xlink:href="#rim" fill="#404040">
                        <set attributeName="fill" to="#808080" begin="arrowRight.mouseover" end="arrowRight.mouseout"/>
                  </use>
                  <path fill="none" stroke="white" stroke-width="1.5" d="M0,-3.0v7 M-2.5,-0.5L0,-3.0L2.5,-0.5"/>
                </g>
                <g id="arrowDown" xlink:href="#dirArrow" transform="rotate(180) translate(-30 -48)" onmousedown="handlePan(0,1)">
                  <use xlink:href="#rim" fill="#404040">
                        <set attributeName="fill" to="#808080" begin="arrowDown.mouseover" end="arrowDown.mouseout"/>
                  </use>
                  <path fill="none" stroke="white" stroke-width="1.5" d="M0,-3.0v7 M-2.5,-0.5L0,-3.0L2.5,-0.5"/>
                </g>
                <g id="arrowLeft" xlink:href="#dirArrow" transform="rotate(270) translate(-36 17)" onmousedown="handlePan(-1,0)">
                  <use xlink:href="#rim" fill="#404040">
                        <set attributeName="fill" to="#808080" begin="arrowLeft.mouseover" end="arrowLeft.mouseout"/>
                  </use>
                  <path fill="none" stroke="white" stroke-width="1.5" d="M0,-3.0v7 M-2.5,-0.5L0,-3.0L2.5,-0.5"/>
                </g>
        </g>
        <svg viewBox="0 0 15 15" width="100%" height="30px" preserveAspectRatio="xMaxYMin meet">
         <g id="arrow_out" transform="scale(0.3 0.3)">
          <a xlink:href="classrawspeed_1_1i_point2_d_aed6c2f5995cd12a0bb27e6d7e2d88fdb_icgraph_org.svg" target="_base">
           <rect id="button" ry="5" rx="5" y="6" x="6" height="38" width="38"
                fill="#f2f5e9" fill-opacity="0.5" stroke="#606060" stroke-width="1.0"/>
           <path id="arrow"
             d="M 11.500037,31.436501 C 11.940474,20.09759 22.043105,11.32322 32.158766,21.979434 L 37.068811,17.246167 C 37.068811,17.246167 37.088388,32 37.088388,32 L 22.160133,31.978069 C 22.160133,31.978069 26.997745,27.140456 26.997745,27.140456 C 18.528582,18.264221 13.291696,25.230495 11.500037,31.436501 z"
             style="fill:#404040;"/>
          </a>
         </g>
        </svg>
</svg>
