<?xml version="1.0" encoding="UTF-8" standalone="no"?>
<!DOCTYPE svg PUBLIC "-//W3C//DTD SVG 1.1//EN"
 "http://www.w3.org/Graphics/SVG/1.1/DTD/svg11.dtd">
<!-- Generated by graphviz version 2.43.0 (0)
 -->
<!-- Title: librawspeed/decompressors/UncompressedDecompressor.h Pages: 1 -->
<svg width="2054pt" height="375pt"
 viewBox="0.00 0.00 2054.00 375.00" xmlns="http://www.w3.org/2000/svg" xmlns:xlink="http://www.w3.org/1999/xlink">
<g id="graph0" class="graph" transform="scale(1 1) rotate(0) translate(4 371)">
<title>librawspeed/decompressors/UncompressedDecompressor.h</title>
<!-- Node1 -->
<g id="node1" class="node">
<title>Node1</title>
<g id="a_node1"><a xlink:title=" ">
<polygon fill="#bfbfbf" stroke="black" points="1156.5,-336.5 1156.5,-366.5 1327.5,-366.5 1327.5,-336.5 1156.5,-336.5"/>
<text text-anchor="start" x="1164.5" y="-354.5" font-family="Helvetica,sans-Serif" font-size="10.00">librawspeed/decompressors</text>
<text text-anchor="middle" x="1242" y="-343.5" font-family="Helvetica,sans-Serif" font-size="10.00">/UncompressedDecompressor.h</text>
</a>
</g>
</g>
<!-- Node2 -->
<g id="node2" class="node">
<title>Node2</title>
<g id="a_node2"><a xlink:href="../../d9/df5/src_2librawspeed_2common_2_common_8h.html" target="_top" xlink:title=" ">
<polygon fill="none" stroke="black" points="1166,-56.5 1166,-75.5 1282,-75.5 1282,-56.5 1166,-56.5"/>
<text text-anchor="middle" x="1224" y="-63.5" font-family="Helvetica,sans-Serif" font-size="10.00">common/Common.h</text>
</a>
</g>
</g>
<!-- Node1&#45;&gt;Node2 -->
<g id="edge1" class="edge">
<title>Node1&#45;&gt;Node2</title>
<path fill="none" stroke="midnightblue" d="M1176.5,-336.4C1157.28,-328.89 1138.39,-317.44 1127,-300 1078.24,-225.33 1168.32,-122.12 1207.3,-82.95"/>
<polygon fill="midnightblue" stroke="midnightblue" points="1210.1,-85.1 1214.77,-75.59 1205.19,-80.11 1210.1,-85.1"/>
</g>
<!-- Node6 -->
<g id="node6" class="node">
<title>Node6</title>
<g id="a_node6"><a xlink:title=" ">
<polygon fill="none" stroke="#bfbfbf" points="969,-0.5 969,-19.5 1019,-19.5 1019,-0.5 969,-0.5"/>
<text text-anchor="middle" x="994" y="-7.5" font-family="Helvetica,sans-Serif" font-size="10.00">cstdint</text>
</a>
</g>
</g>
<!-- Node1&#45;&gt;Node6 -->
<g id="edge86" class="edge">
<title>Node1&#45;&gt;Node6</title>
<path fill="none" stroke="midnightblue" d="M1156.47,-349.67C1074.13,-343.81 962,-320.19 962,-235 962,-235 962,-235 962,-177 962,-122.37 978.92,-59.42 988.15,-29.13"/>
<polygon fill="midnightblue" stroke="midnightblue" points="991.51,-30.12 991.16,-19.53 984.83,-28.03 991.51,-30.12"/>
</g>
<!-- Node12 -->
<g id="node12" class="node">
<title>Node12</title>
<g id="a_node12"><a xlink:href="../../d6/da1/_raw_image_8h.html" target="_top" xlink:title=" ">
<polygon fill="none" stroke="black" points="707.5,-168.5 707.5,-187.5 830.5,-187.5 830.5,-168.5 707.5,-168.5"/>
<text text-anchor="middle" x="769" y="-175.5" font-family="Helvetica,sans-Serif" font-size="10.00">common/RawImage.h</text>
</a>
</g>
</g>
<!-- Node1&#45;&gt;Node12 -->
<g id="edge11" class="edge">
<title>Node1&#45;&gt;Node12</title>
<path fill="none" stroke="midnightblue" d="M1156.4,-345.39C1096.31,-339.52 1015.03,-326.95 948,-300 882.47,-273.65 816.5,-220.6 786.19,-194.38"/>
<polygon fill="midnightblue" stroke="midnightblue" points="788.44,-191.71 778.61,-187.75 783.83,-196.97 788.44,-191.71"/>
</g>
<!-- Node26 -->
<g id="node26" class="node">
<title>Node26</title>
<g id="a_node26"><a xlink:href="../../db/d31/_abstract_decompressor_8h.html" target="_top" xlink:title=" ">
<polygon fill="none" stroke="black" points="1135.5,-280.5 1135.5,-299.5 1348.5,-299.5 1348.5,-280.5 1135.5,-280.5"/>
<text text-anchor="middle" x="1242" y="-287.5" font-family="Helvetica,sans-Serif" font-size="10.00">decompressors/AbstractDecompressor.h</text>
</a>
</g>
</g>
<!-- Node1&#45;&gt;Node26 -->
<g id="edge49" class="edge">
<title>Node1&#45;&gt;Node26</title>
<path fill="none" stroke="midnightblue" d="M1242,-336.4C1242,-328.47 1242,-318.46 1242,-309.86"/>
<polygon fill="midnightblue" stroke="midnightblue" points="1245.5,-309.66 1242,-299.66 1238.5,-309.66 1245.5,-309.66"/>
</g>
<!-- Node27 -->
<g id="node27" class="node">
<title>Node27</title>
<g id="a_node27"><a xlink:href="../../d7/de7/_byte_stream_8h.html" target="_top" xlink:title=" ">
<polygon fill="none" stroke="black" points="1382.5,-280.5 1382.5,-299.5 1477.5,-299.5 1477.5,-280.5 1382.5,-280.5"/>
<text text-anchor="middle" x="1430" y="-287.5" font-family="Helvetica,sans-Serif" font-size="10.00">io/ByteStream.h</text>
</a>
</g>
</g>
<!-- Node1&#45;&gt;Node27 -->
<g id="edge50" class="edge">
<title>Node1&#45;&gt;Node27</title>
<path fill="none" stroke="midnightblue" d="M1286.55,-336.4C1319.04,-326.12 1362.54,-312.35 1393.09,-302.68"/>
<polygon fill="midnightblue" stroke="midnightblue" points="1394.44,-305.93 1402.92,-299.57 1392.33,-299.25 1394.44,-305.93"/>
</g>
<!-- Node32 -->
<g id="node32" class="node">
<title>Node32</title>
<g id="a_node32"><a xlink:href="../../d5/d0b/_endianness_8h.html" target="_top" xlink:title=" ">
<polygon fill="none" stroke="black" points="1896.5,-56.5 1896.5,-75.5 1989.5,-75.5 1989.5,-56.5 1896.5,-56.5"/>
<text text-anchor="middle" x="1943" y="-63.5" font-family="Helvetica,sans-Serif" font-size="10.00">io/Endianness.h</text>
</a>
</g>
</g>
<!-- Node1&#45;&gt;Node32 -->
<g id="edge85" class="edge">
<title>Node1&#45;&gt;Node32</title>
<path fill="none" stroke="midnightblue" d="M1327.66,-347.06C1534.83,-337.6 2046,-306.96 2046,-235 2046,-235 2046,-235 2046,-177 2046,-132.43 2000.38,-98.46 1969.86,-80.73"/>
<polygon fill="midnightblue" stroke="midnightblue" points="1971.38,-77.57 1960.94,-75.75 1967.97,-83.68 1971.38,-77.57"/>
</g>
<!-- Node38 -->
<g id="node38" class="node">
<title>Node38</title>
<g id="a_node38"><a xlink:title=" ">
<polygon fill="none" stroke="#bfbfbf" points="1934.5,-168.5 1934.5,-187.5 1979.5,-187.5 1979.5,-168.5 1934.5,-168.5"/>
<text text-anchor="middle" x="1957" y="-175.5" font-family="Helvetica,sans-Serif" font-size="10.00">utility</text>
</a>
</g>
</g>
<!-- Node1&#45;&gt;Node38 -->
<g id="edge87" class="edge">
<title>Node1&#45;&gt;Node38</title>
<path fill="none" stroke="midnightblue" d="M1327.79,-346.2C1488.08,-336.7 1825.4,-309.36 1920,-244 1935.99,-232.95 1945.93,-212.61 1951.43,-197.61"/>
<polygon fill="midnightblue" stroke="midnightblue" points="1954.84,-198.44 1954.67,-187.84 1948.2,-196.23 1954.84,-198.44"/>
</g>
<!-- Node3 -->
<g id="node3" class="node">
<title>Node3</title>
<g id="a_node3"><a xlink:title=" ">
<polygon fill="none" stroke="#bfbfbf" points="1037,-0.5 1037,-19.5 1101,-19.5 1101,-0.5 1037,-0.5"/>
<text text-anchor="middle" x="1069" y="-7.5" font-family="Helvetica,sans-Serif" font-size="10.00">algorithm</text>
</a>
</g>
</g>
<!-- Node2&#45;&gt;Node3 -->
<g id="edge2" class="edge">
<title>Node2&#45;&gt;Node3</title>
<path fill="none" stroke="midnightblue" d="M1199.44,-56.44C1173.48,-47.4 1132.33,-33.06 1103.2,-22.92"/>
<polygon fill="midnightblue" stroke="midnightblue" points="1104.04,-19.5 1093.45,-19.52 1101.74,-26.11 1104.04,-19.5"/>
</g>
<!-- Node4 -->
<g id="node4" class="node">
<title>Node4</title>
<g id="a_node4"><a xlink:title=" ">
<polygon fill="none" stroke="#bfbfbf" points="1430,-0.5 1430,-19.5 1482,-19.5 1482,-0.5 1430,-0.5"/>
<text text-anchor="middle" x="1456" y="-7.5" font-family="Helvetica,sans-Serif" font-size="10.00">cassert</text>
</a>
</g>
</g>
<!-- Node2&#45;&gt;Node4 -->
<g id="edge3" class="edge">
<title>Node2&#45;&gt;Node4</title>
<path fill="none" stroke="midnightblue" d="M1260.76,-56.44C1304.41,-46.28 1376.73,-29.45 1420.03,-19.37"/>
<polygon fill="midnightblue" stroke="midnightblue" points="1420.9,-22.76 1429.85,-17.09 1419.32,-15.94 1420.9,-22.76"/>
</g>
<!-- Node5 -->
<g id="node5" class="node">
<title>Node5</title>
<g id="a_node5"><a xlink:title=" ">
<polygon fill="none" stroke="#bfbfbf" points="1222,-0.5 1222,-19.5 1272,-19.5 1272,-0.5 1222,-0.5"/>
<text text-anchor="middle" x="1247" y="-7.5" font-family="Helvetica,sans-Serif" font-size="10.00">climits</text>
</a>
</g>
</g>
<!-- Node2&#45;&gt;Node5 -->
<g id="edge4" class="edge">
<title>Node2&#45;&gt;Node5</title>
<path fill="none" stroke="midnightblue" d="M1227.8,-56.08C1230.91,-48.77 1235.42,-38.18 1239.29,-29.1"/>
<polygon fill="midnightblue" stroke="midnightblue" points="1242.57,-30.32 1243.27,-19.75 1236.13,-27.58 1242.57,-30.32"/>
</g>
<!-- Node2&#45;&gt;Node6 -->
<g id="edge5" class="edge">
<title>Node2&#45;&gt;Node6</title>
<path fill="none" stroke="midnightblue" d="M1185.23,-56.5C1147.72,-48.18 1089,-34.93 1029.22,-20.24"/>
<polygon fill="midnightblue" stroke="midnightblue" points="1029.77,-16.78 1019.23,-17.78 1028.1,-23.57 1029.77,-16.78"/>
</g>
<!-- Node7 -->
<g id="node7" class="node">
<title>Node7</title>
<g id="a_node7"><a xlink:title=" ">
<polygon fill="none" stroke="#bfbfbf" points="1918,-0.5 1918,-19.5 1968,-19.5 1968,-0.5 1918,-0.5"/>
<text text-anchor="middle" x="1943" y="-7.5" font-family="Helvetica,sans-Serif" font-size="10.00">cstring</text>
</a>
</g>
</g>
<!-- Node2&#45;&gt;Node7 -->
<g id="edge6" class="edge">
<title>Node2&#45;&gt;Node7</title>
<path fill="none" stroke="midnightblue" d="M1282.23,-60.63C1425.69,-49.85 1792.81,-22.28 1907.93,-13.63"/>
<polygon fill="midnightblue" stroke="midnightblue" points="1908.25,-17.12 1917.96,-12.88 1907.72,-10.14 1908.25,-17.12"/>
</g>
<!-- Node8 -->
<g id="node8" class="node">
<title>Node8</title>
<g id="a_node8"><a xlink:title=" ">
<polygon fill="none" stroke="#bfbfbf" points="1120.5,-0.5 1120.5,-19.5 1203.5,-19.5 1203.5,-0.5 1120.5,-0.5"/>
<text text-anchor="middle" x="1162" y="-7.5" font-family="Helvetica,sans-Serif" font-size="10.00">initializer_list</text>
</a>
</g>
</g>
<!-- Node2&#45;&gt;Node8 -->
<g id="edge7" class="edge">
<title>Node2&#45;&gt;Node8</title>
<path fill="none" stroke="midnightblue" d="M1214.04,-56.32C1204.87,-48.34 1191.06,-36.31 1179.97,-26.65"/>
<polygon fill="midnightblue" stroke="midnightblue" points="1181.98,-23.76 1172.14,-19.83 1177.38,-29.04 1181.98,-23.76"/>
</g>
<!-- Node9 -->
<g id="node9" class="node">
<title>Node9</title>
<g id="a_node9"><a xlink:title=" ">
<polygon fill="none" stroke="#bfbfbf" points="582,-0.5 582,-19.5 626,-19.5 626,-0.5 582,-0.5"/>
<text text-anchor="middle" x="604" y="-7.5" font-family="Helvetica,sans-Serif" font-size="10.00">string</text>
</a>
</g>
</g>
<!-- Node2&#45;&gt;Node9 -->
<g id="edge8" class="edge">
<title>Node2&#45;&gt;Node9</title>
<path fill="none" stroke="midnightblue" d="M1165.95,-59.94C1038.01,-48.8 735.25,-22.43 636.07,-13.79"/>
<polygon fill="midnightblue" stroke="midnightblue" points="636.32,-10.3 626.06,-12.92 635.72,-17.28 636.32,-10.3"/>
</g>
<!-- Node10 -->
<g id="node10" class="node">
<title>Node10</title>
<g id="a_node10"><a xlink:title=" ">
<polygon fill="none" stroke="#bfbfbf" points="845.5,-0.5 845.5,-19.5 914.5,-19.5 914.5,-0.5 845.5,-0.5"/>
<text text-anchor="middle" x="880" y="-7.5" font-family="Helvetica,sans-Serif" font-size="10.00">type_traits</text>
</a>
</g>
</g>
<!-- Node2&#45;&gt;Node10 -->
<g id="edge9" class="edge">
<title>Node2&#45;&gt;Node10</title>
<path fill="none" stroke="midnightblue" d="M1169.49,-56.44C1101.84,-45.82 987.72,-27.91 924.87,-18.04"/>
<polygon fill="midnightblue" stroke="midnightblue" points="925.29,-14.57 914.87,-16.47 924.21,-21.48 925.29,-14.57"/>
</g>
<!-- Node11 -->
<g id="node11" class="node">
<title>Node11</title>
<g id="a_node11"><a xlink:title=" ">
<polygon fill="none" stroke="#bfbfbf" points="362.5,-0.5 362.5,-19.5 409.5,-19.5 409.5,-0.5 362.5,-0.5"/>
<text text-anchor="middle" x="386" y="-7.5" font-family="Helvetica,sans-Serif" font-size="10.00">vector</text>
</a>
</g>
</g>
<!-- Node2&#45;&gt;Node11 -->
<g id="edge10" class="edge">
<title>Node2&#45;&gt;Node11</title>
<path fill="none" stroke="midnightblue" d="M1165.74,-61.25C1003.1,-50.77 547.73,-21.42 419.81,-13.18"/>
<polygon fill="midnightblue" stroke="midnightblue" points="420.01,-9.68 409.81,-12.53 419.56,-16.67 420.01,-9.68"/>
</g>
<!-- Node12&#45;&gt;Node2 -->
<g id="edge18" class="edge">
<title>Node12&#45;&gt;Node2</title>
<path fill="none" stroke="midnightblue" d="M826.34,-168.44C876.25,-160.52 950.37,-147.63 1014,-132 1077,-116.52 1148.92,-92.94 1190.15,-78.84"/>
<polygon fill="midnightblue" stroke="midnightblue" points="1191.38,-82.12 1199.69,-75.56 1189.1,-75.5 1191.38,-82.12"/>
</g>
<!-- Node12&#45;&gt;Node4 -->
<g id="edge43" class="edge">
<title>Node12&#45;&gt;Node4</title>
<path fill="none" stroke="midnightblue" d="M830.84,-169.8C929.75,-157.22 1128.93,-127.57 1291,-76 1339.79,-60.48 1394.82,-37.69 1427.39,-23.63"/>
<polygon fill="midnightblue" stroke="midnightblue" points="1428.97,-26.76 1436.75,-19.57 1426.18,-20.34 1428.97,-26.76"/>
</g>
<!-- Node12&#45;&gt;Node6 -->
<g id="edge45" class="edge">
<title>Node12&#45;&gt;Node6</title>
<path fill="none" stroke="midnightblue" d="M783.32,-168.37C804,-155.92 843.42,-132.18 877,-112 903.66,-95.98 913.13,-95.93 937,-76 954.2,-61.64 970.73,-41.92 981.51,-27.98"/>
<polygon fill="midnightblue" stroke="midnightblue" points="984.48,-29.85 987.72,-19.77 978.9,-25.63 984.48,-29.85"/>
</g>
<!-- Node12&#45;&gt;Node9 -->
<g id="edge47" class="edge">
<title>Node12&#45;&gt;Node9</title>
<path fill="none" stroke="midnightblue" d="M707.44,-174.87C643.16,-171.11 540.17,-160.72 456,-132 408.16,-115.68 382.47,-119.67 357,-76 352.52,-68.32 351.31,-62.83 357,-56 384,-23.64 511.16,-14.49 571.75,-11.95"/>
<polygon fill="midnightblue" stroke="midnightblue" points="572.05,-15.44 581.9,-11.56 571.78,-8.45 572.05,-15.44"/>
</g>
<!-- Node12&#45;&gt;Node11 -->
<g id="edge48" class="edge">
<title>Node12&#45;&gt;Node11</title>
<path fill="none" stroke="midnightblue" d="M707.33,-177.68C545.75,-178.83 119.6,-177.46 77,-132 -5.87,-43.57 256.11,-18.77 352.14,-12.73"/>
<polygon fill="midnightblue" stroke="midnightblue" points="352.44,-16.22 362.22,-12.13 352.02,-9.23 352.44,-16.22"/>
</g>
<!-- Node13 -->
<g id="node13" class="node">
<title>Node13</title>
<g id="a_node13"><a xlink:title=" ">
<polygon fill="none" stroke="#bfbfbf" points="1291,-0.5 1291,-19.5 1393,-19.5 1393,-0.5 1291,-0.5"/>
<text text-anchor="middle" x="1342" y="-7.5" font-family="Helvetica,sans-Serif" font-size="10.00">rawspeedconfig.h</text>
</a>
</g>
</g>
<!-- Node12&#45;&gt;Node13 -->
<g id="edge12" class="edge">
<title>Node12&#45;&gt;Node13</title>
<path fill="none" stroke="midnightblue" d="M805.37,-168.5C840.55,-160.05 895.26,-146.31 942,-132 1038.91,-102.33 1059.86,-84.9 1157,-56 1202.18,-42.56 1254.42,-30.13 1291.85,-21.76"/>
<polygon fill="midnightblue" stroke="midnightblue" points="1292.99,-25.09 1301.99,-19.5 1291.47,-18.25 1292.99,-25.09"/>
</g>
<!-- Node14 -->
<g id="node14" class="node">
<title>Node14</title>
<g id="a_node14"><a xlink:href="../../db/d8a/_thread_safety_analysis_8h.html" target="_top" xlink:title=" ">
<polygon fill="none" stroke="black" points="0,-0.5 0,-19.5 132,-19.5 132,-0.5 0,-0.5"/>
<text text-anchor="middle" x="66" y="-7.5" font-family="Helvetica,sans-Serif" font-size="10.00">ThreadSafetyAnalysis.h</text>
</a>
</g>
</g>
<!-- Node12&#45;&gt;Node14 -->
<g id="edge13" class="edge">
<title>Node12&#45;&gt;Node14</title>
<path fill="none" stroke="midnightblue" d="M707.49,-175.35C539.34,-170.55 82.98,-155.42 61,-132 35.08,-104.38 48.12,-55.7 58.12,-29.29"/>
<polygon fill="midnightblue" stroke="midnightblue" points="61.47,-30.33 61.97,-19.75 54.98,-27.71 61.47,-30.33"/>
</g>
<!-- Node15 -->
<g id="node15" class="node">
<title>Node15</title>
<g id="a_node15"><a xlink:href="../../dd/d9c/_array2_d_ref_8h.html" target="_top" xlink:title=" ">
<polygon fill="none" stroke="black" points="518,-56.5 518,-75.5 644,-75.5 644,-56.5 518,-56.5"/>
<text text-anchor="middle" x="581" y="-63.5" font-family="Helvetica,sans-Serif" font-size="10.00">common/Array2DRef.h</text>
</a>
</g>
</g>
<!-- Node12&#45;&gt;Node15 -->
<g id="edge14" class="edge">
<title>Node12&#45;&gt;Node15</title>
<path fill="none" stroke="midnightblue" d="M707.21,-176.05C633.42,-173.46 516.46,-164.23 489,-132 469.37,-108.97 507.08,-90.03 539.98,-78.66"/>
<polygon fill="midnightblue" stroke="midnightblue" points="541.13,-81.96 549.53,-75.51 538.93,-75.32 541.13,-81.96"/>
</g>
<!-- Node16 -->
<g id="node16" class="node">
<title>Node16</title>
<g id="a_node16"><a xlink:href="../../d7/d4f/_error_log_8h.html" target="_top" xlink:title=" ">
<polygon fill="none" stroke="black" points="86,-112.5 86,-131.5 198,-131.5 198,-112.5 86,-112.5"/>
<text text-anchor="middle" x="142" y="-119.5" font-family="Helvetica,sans-Serif" font-size="10.00">common/ErrorLog.h</text>
</a>
</g>
</g>
<!-- Node12&#45;&gt;Node16 -->
<g id="edge19" class="edge">
<title>Node12&#45;&gt;Node16</title>
<path fill="none" stroke="midnightblue" d="M707.13,-172.21C606.88,-164.37 402.74,-148.04 230,-132 223.12,-131.36 215.93,-130.67 208.77,-129.96"/>
<polygon fill="midnightblue" stroke="midnightblue" points="208.62,-126.43 198.32,-128.92 207.92,-133.39 208.62,-126.43"/>
</g>
<!-- Node17 -->
<g id="node17" class="node">
<title>Node17</title>
<g id="a_node17"><a xlink:href="../../da/d78/_mutex_8h.html" target="_top" xlink:title=" ">
<polygon fill="none" stroke="black" points="170.5,-56.5 170.5,-75.5 271.5,-75.5 271.5,-56.5 170.5,-56.5"/>
<text text-anchor="middle" x="221" y="-63.5" font-family="Helvetica,sans-Serif" font-size="10.00">common/Mutex.h</text>
</a>
</g>
</g>
<!-- Node12&#45;&gt;Node17 -->
<g id="edge26" class="edge">
<title>Node12&#45;&gt;Node17</title>
<path fill="none" stroke="midnightblue" d="M707.25,-176.41C594.28,-174.5 359.18,-166.37 286,-132 263.3,-121.34 243.97,-99.27 232.43,-83.82"/>
<polygon fill="midnightblue" stroke="midnightblue" points="235.24,-81.72 226.57,-75.62 229.54,-85.79 235.24,-81.72"/>
</g>
<!-- Node18 -->
<g id="node18" class="node">
<title>Node18</title>
<g id="a_node18"><a xlink:href="../../d1/d18/_point_8h.html" target="_top" xlink:title=" ">
<polygon fill="none" stroke="black" points="832,-56.5 832,-75.5 928,-75.5 928,-56.5 832,-56.5"/>
<text text-anchor="middle" x="880" y="-63.5" font-family="Helvetica,sans-Serif" font-size="10.00">common/Point.h</text>
</a>
</g>
</g>
<!-- Node12&#45;&gt;Node18 -->
<g id="edge27" class="edge">
<title>Node12&#45;&gt;Node18</title>
<path fill="none" stroke="midnightblue" d="M777.71,-168.37C796.35,-149.89 840.35,-106.29 864.11,-82.74"/>
<polygon fill="midnightblue" stroke="midnightblue" points="866.69,-85.12 871.33,-75.59 861.76,-80.14 866.69,-85.12"/>
</g>
<!-- Node19 -->
<g id="node19" class="node">
<title>Node19</title>
<g id="a_node19"><a xlink:href="../../d2/d9b/_table_look_up_8h.html" target="_top" xlink:title=" ">
<polygon fill="none" stroke="black" points="366,-56.5 366,-75.5 500,-75.5 500,-56.5 366,-56.5"/>
<text text-anchor="middle" x="433" y="-63.5" font-family="Helvetica,sans-Serif" font-size="10.00">common/TableLookUp.h</text>
</a>
</g>
</g>
<!-- Node12&#45;&gt;Node19 -->
<g id="edge31" class="edge">
<title>Node12&#45;&gt;Node19</title>
<path fill="none" stroke="midnightblue" d="M707.46,-172.96C634.21,-167.21 517.13,-154.74 480,-132 462.05,-121.01 448.92,-100.34 441.17,-85.25"/>
<polygon fill="midnightblue" stroke="midnightblue" points="444.15,-83.39 436.67,-75.89 437.84,-86.42 444.15,-83.39"/>
</g>
<!-- Node20 -->
<g id="node20" class="node">
<title>Node20</title>
<g id="a_node20"><a xlink:href="../../db/dca/_black_area_8h.html" target="_top" xlink:title=" ">
<polygon fill="none" stroke="black" points="498.5,-112.5 498.5,-131.5 623.5,-131.5 623.5,-112.5 498.5,-112.5"/>
<text text-anchor="middle" x="561" y="-119.5" font-family="Helvetica,sans-Serif" font-size="10.00">metadata/BlackArea.h</text>
</a>
</g>
</g>
<!-- Node12&#45;&gt;Node20 -->
<g id="edge34" class="edge">
<title>Node12&#45;&gt;Node20</title>
<path fill="none" stroke="midnightblue" d="M736.04,-168.44C700.21,-159.14 642.84,-144.25 603.61,-134.06"/>
<polygon fill="midnightblue" stroke="midnightblue" points="604.36,-130.64 593.8,-131.52 602.6,-137.42 604.36,-130.64"/>
</g>
<!-- Node21 -->
<g id="node21" class="node">
<title>Node21</title>
<g id="a_node21"><a xlink:href="../../dd/d27/_color_filter_array_8h.html" target="_top" xlink:title=" ">
<polygon fill="none" stroke="black" points="642,-112.5 642,-131.5 792,-131.5 792,-112.5 642,-112.5"/>
<text text-anchor="middle" x="717" y="-119.5" font-family="Helvetica,sans-Serif" font-size="10.00">metadata/ColorFilterArray.h</text>
</a>
</g>
</g>
<!-- Node12&#45;&gt;Node21 -->
<g id="edge36" class="edge">
<title>Node12&#45;&gt;Node21</title>
<path fill="none" stroke="midnightblue" d="M760.41,-168.08C752.84,-160.22 741.62,-148.57 732.49,-139.08"/>
<polygon fill="midnightblue" stroke="midnightblue" points="734.88,-136.53 725.43,-131.75 729.84,-141.38 734.88,-136.53"/>
</g>
<!-- Node23 -->
<g id="node23" class="node">
<title>Node23</title>
<g id="a_node23"><a xlink:title=" ">
<polygon fill="none" stroke="#bfbfbf" points="1502,-56.5 1502,-75.5 1544,-75.5 1544,-56.5 1502,-56.5"/>
<text text-anchor="middle" x="1523" y="-63.5" font-family="Helvetica,sans-Serif" font-size="10.00">array</text>
</a>
</g>
</g>
<!-- Node12&#45;&gt;Node23 -->
<g id="edge42" class="edge">
<title>Node12&#45;&gt;Node23</title>
<path fill="none" stroke="midnightblue" d="M830.83,-172.52C915.4,-165.96 1071.73,-152.27 1204,-132 1310.5,-115.68 1435.28,-87.62 1492.06,-74.36"/>
<polygon fill="midnightblue" stroke="midnightblue" points="1492.91,-77.75 1501.85,-72.06 1491.31,-70.94 1492.91,-77.75"/>
</g>
<!-- Node24 -->
<g id="node24" class="node">
<title>Node24</title>
<g id="a_node24"><a xlink:title=" ">
<polygon fill="none" stroke="#bfbfbf" points="886.5,-112.5 886.5,-131.5 933.5,-131.5 933.5,-112.5 886.5,-112.5"/>
<text text-anchor="middle" x="910" y="-119.5" font-family="Helvetica,sans-Serif" font-size="10.00">cmath</text>
</a>
</g>
</g>
<!-- Node12&#45;&gt;Node24 -->
<g id="edge44" class="edge">
<title>Node12&#45;&gt;Node24</title>
<path fill="none" stroke="midnightblue" d="M791.34,-168.44C814.75,-159.48 851.74,-145.31 878.19,-135.18"/>
<polygon fill="midnightblue" stroke="midnightblue" points="879.68,-138.36 887.76,-131.52 877.17,-131.82 879.68,-138.36"/>
</g>
<!-- Node25 -->
<g id="node25" class="node">
<title>Node25</title>
<g id="a_node25"><a xlink:title=" ">
<polygon fill="none" stroke="#bfbfbf" points="1370,-112.5 1370,-131.5 1428,-131.5 1428,-112.5 1370,-112.5"/>
<text text-anchor="middle" x="1399" y="-119.5" font-family="Helvetica,sans-Serif" font-size="10.00">memory</text>
</a>
</g>
</g>
<!-- Node12&#45;&gt;Node25 -->
<g id="edge46" class="edge">
<title>Node12&#45;&gt;Node25</title>
<path fill="none" stroke="midnightblue" d="M830.55,-171.72C959.25,-160.69 1253.63,-135.46 1359.86,-126.35"/>
<polygon fill="midnightblue" stroke="midnightblue" points="1360.17,-129.84 1369.84,-125.5 1359.57,-122.87 1360.17,-129.84"/>
</g>
<!-- Node15&#45;&gt;Node4 -->
<g id="edge15" class="edge">
<title>Node15&#45;&gt;Node4</title>
<path fill="none" stroke="midnightblue" d="M644.1,-61.94C823.37,-53.21 1327.55,-28.22 1402,-20 1407.87,-19.35 1414.07,-18.49 1420.1,-17.55"/>
<polygon fill="midnightblue" stroke="midnightblue" points="1420.69,-21 1429.99,-15.93 1419.55,-14.09 1420.69,-21"/>
</g>
<!-- Node15&#45;&gt;Node10 -->
<g id="edge16" class="edge">
<title>Node15&#45;&gt;Node10</title>
<path fill="none" stroke="midnightblue" d="M628.38,-56.44C685.27,-46.17 779.96,-29.07 835.53,-19.03"/>
<polygon fill="midnightblue" stroke="midnightblue" points="836.21,-22.47 845.43,-17.24 834.97,-15.58 836.21,-22.47"/>
</g>
<!-- Node15&#45;&gt;Node11 -->
<g id="edge17" class="edge">
<title>Node15&#45;&gt;Node11</title>
<path fill="none" stroke="midnightblue" d="M550.1,-56.44C514.47,-46.58 456.1,-30.41 419.43,-20.26"/>
<polygon fill="midnightblue" stroke="midnightblue" points="420.27,-16.86 409.7,-17.56 418.4,-23.6 420.27,-16.86"/>
</g>
<!-- Node16&#45;&gt;Node9 -->
<g id="edge24" class="edge">
<title>Node16&#45;&gt;Node9</title>
<path fill="none" stroke="midnightblue" d="M141.71,-112.21C141.78,-97.96 144.19,-69.98 161,-56 192.47,-29.82 475.13,-16.16 571.77,-12.22"/>
<polygon fill="midnightblue" stroke="midnightblue" points="571.98,-15.71 581.83,-11.82 571.7,-8.72 571.98,-15.71"/>
</g>
<!-- Node16&#45;&gt;Node11 -->
<g id="edge25" class="edge">
<title>Node16&#45;&gt;Node11</title>
<path fill="none" stroke="midnightblue" d="M136.06,-112.33C127.54,-98.72 114.33,-72.26 128,-56 156.21,-22.44 288.32,-13.91 351.79,-11.74"/>
<polygon fill="midnightblue" stroke="midnightblue" points="352.2,-15.23 362.08,-11.42 351.98,-8.23 352.2,-15.23"/>
</g>
<!-- Node16&#45;&gt;Node14 -->
<g id="edge20" class="edge">
<title>Node16&#45;&gt;Node14</title>
<path fill="none" stroke="midnightblue" d="M128.8,-112.46C117.16,-104.33 100.47,-91.12 90,-76 80.17,-61.8 73.81,-43.07 70.13,-29.37"/>
<polygon fill="midnightblue" stroke="midnightblue" points="73.52,-28.51 67.73,-19.64 66.73,-30.19 73.52,-28.51"/>
</g>
<!-- Node16&#45;&gt;Node17 -->
<g id="edge21" class="edge">
<title>Node16&#45;&gt;Node17</title>
<path fill="none" stroke="midnightblue" d="M154.69,-112.32C166.9,-103.98 185.58,-91.21 200,-81.35"/>
<polygon fill="midnightblue" stroke="midnightblue" points="202.06,-84.19 208.34,-75.65 198.11,-78.41 202.06,-84.19"/>
</g>
<!-- Node17&#45;&gt;Node13 -->
<g id="edge22" class="edge">
<title>Node17&#45;&gt;Node13</title>
<path fill="none" stroke="midnightblue" d="M271.68,-61.32C297.25,-59.54 328.76,-57.48 357,-56 764.11,-34.6 870.09,-57.67 1280.73,-19.9"/>
<polygon fill="midnightblue" stroke="midnightblue" points="1281.16,-23.37 1290.79,-18.96 1280.51,-16.4 1281.16,-23.37"/>
</g>
<!-- Node17&#45;&gt;Node14 -->
<g id="edge23" class="edge">
<title>Node17&#45;&gt;Node14</title>
<path fill="none" stroke="midnightblue" d="M196.44,-56.44C170.48,-47.4 129.33,-33.06 100.2,-22.92"/>
<polygon fill="midnightblue" stroke="midnightblue" points="101.04,-19.5 90.45,-19.52 98.74,-26.11 101.04,-19.5"/>
</g>
<!-- Node18&#45;&gt;Node3 -->
<g id="edge28" class="edge">
<title>Node18&#45;&gt;Node3</title>
<path fill="none" stroke="midnightblue" d="M909.95,-56.44C942.16,-47.24 993.53,-32.56 1029.14,-22.39"/>
<polygon fill="midnightblue" stroke="midnightblue" points="1030.54,-25.63 1039.19,-19.52 1028.62,-18.9 1030.54,-25.63"/>
</g>
<!-- Node18&#45;&gt;Node6 -->
<g id="edge29" class="edge">
<title>Node18&#45;&gt;Node6</title>
<path fill="none" stroke="midnightblue" d="M898.06,-56.44C916.57,-47.68 945.58,-33.94 966.86,-23.86"/>
<polygon fill="midnightblue" stroke="midnightblue" points="968.48,-26.96 976.02,-19.52 965.49,-20.63 968.48,-26.96"/>
</g>
<!-- Node18&#45;&gt;Node10 -->
<g id="edge30" class="edge">
<title>Node18&#45;&gt;Node10</title>
<path fill="none" stroke="midnightblue" d="M880,-56.08C880,-49.01 880,-38.86 880,-29.99"/>
<polygon fill="midnightblue" stroke="midnightblue" points="883.5,-29.75 880,-19.75 876.5,-29.75 883.5,-29.75"/>
</g>
<!-- Node19&#45;&gt;Node6 -->
<g id="edge32" class="edge">
<title>Node19&#45;&gt;Node6</title>
<path fill="none" stroke="midnightblue" d="M500.12,-56.94C503.12,-56.61 506.09,-56.3 509,-56 692.73,-37.14 739.35,-39.62 923,-20 934.63,-18.76 947.32,-17.21 958.7,-15.75"/>
<polygon fill="midnightblue" stroke="midnightblue" points="959.26,-19.21 968.73,-14.45 958.36,-12.27 959.26,-19.21"/>
</g>
<!-- Node19&#45;&gt;Node11 -->
<g id="edge33" class="edge">
<title>Node19&#45;&gt;Node11</title>
<path fill="none" stroke="midnightblue" d="M425.24,-56.08C418.46,-48.3 408.46,-36.8 400.24,-27.37"/>
<polygon fill="midnightblue" stroke="midnightblue" points="402.82,-25 393.62,-19.75 397.54,-29.59 402.82,-25"/>
</g>
<!-- Node20&#45;&gt;Node6 -->
<g id="edge35" class="edge">
<title>Node20&#45;&gt;Node6</title>
<path fill="none" stroke="midnightblue" d="M581.27,-112.45C614.37,-98.78 682.32,-71.92 742,-56 818.01,-35.72 909.39,-21.97 958.54,-15.42"/>
<polygon fill="midnightblue" stroke="midnightblue" points="959.2,-18.86 968.66,-14.09 958.29,-11.92 959.2,-18.86"/>
</g>
<!-- Node21&#45;&gt;Node6 -->
<g id="edge38" class="edge">
<title>Node21&#45;&gt;Node6</title>
<path fill="none" stroke="midnightblue" d="M721.12,-112.21C728.3,-97.95 744.5,-69.96 767,-56 783.1,-46.01 898.77,-26.3 958.5,-16.63"/>
<polygon fill="midnightblue" stroke="midnightblue" points="959.3,-20.04 968.62,-15 958.19,-13.13 959.3,-20.04"/>
</g>
<!-- Node21&#45;&gt;Node9 -->
<g id="edge40" class="edge">
<title>Node21&#45;&gt;Node9</title>
<path fill="none" stroke="midnightblue" d="M708.85,-112.45C696.82,-99.89 673.5,-75.8 653,-56 642.72,-46.07 630.93,-35.23 621.49,-26.67"/>
<polygon fill="midnightblue" stroke="midnightblue" points="623.67,-23.92 613.9,-19.82 618.98,-29.12 623.67,-23.92"/>
</g>
<!-- Node21&#45;&gt;Node11 -->
<g id="edge41" class="edge">
<title>Node21&#45;&gt;Node11</title>
<path fill="none" stroke="midnightblue" d="M641.89,-112.86C537.76,-101.4 361.69,-81.31 357,-76 344.56,-61.91 357.15,-41.61 369.41,-27.46"/>
<polygon fill="midnightblue" stroke="midnightblue" points="372.16,-29.64 376.4,-19.93 367.03,-24.87 372.16,-29.64"/>
</g>
<!-- Node21&#45;&gt;Node18 -->
<g id="edge37" class="edge">
<title>Node21&#45;&gt;Node18</title>
<path fill="none" stroke="midnightblue" d="M742.83,-112.44C770.25,-103.36 813.78,-88.94 844.43,-78.78"/>
<polygon fill="midnightblue" stroke="midnightblue" points="845.9,-81.98 854.29,-75.52 843.7,-75.34 845.9,-81.98"/>
</g>
<!-- Node22 -->
<g id="node22" class="node">
<title>Node22</title>
<g id="a_node22"><a xlink:title=" ">
<polygon fill="none" stroke="#bfbfbf" points="776,-56.5 776,-75.5 814,-75.5 814,-56.5 776,-56.5"/>
<text text-anchor="middle" x="795" y="-63.5" font-family="Helvetica,sans-Serif" font-size="10.00">map</text>
</a>
</g>
</g>
<!-- Node21&#45;&gt;Node22 -->
<g id="edge39" class="edge">
<title>Node21&#45;&gt;Node22</title>
<path fill="none" stroke="midnightblue" d="M729.53,-112.32C741.59,-103.98 760.03,-91.21 774.27,-81.35"/>
<polygon fill="midnightblue" stroke="midnightblue" points="776.27,-84.22 782.5,-75.65 772.28,-78.47 776.27,-84.22"/>
</g>
<!-- Node27&#45;&gt;Node2 -->
<g id="edge53" class="edge">
<title>Node27&#45;&gt;Node2</title>
<path fill="none" stroke="midnightblue" d="M1382.07,-281.42C1331.14,-270.53 1253.09,-245.07 1217,-188 1197.02,-156.41 1208.14,-110.4 1216.82,-85.2"/>
<polygon fill="midnightblue" stroke="midnightblue" points="1220.12,-86.36 1220.29,-75.77 1213.55,-83.94 1220.12,-86.36"/>
</g>
<!-- Node27&#45;&gt;Node4 -->
<g id="edge81" class="edge">
<title>Node27&#45;&gt;Node4</title>
<path fill="none" stroke="midnightblue" d="M1477.8,-280.88C1606.35,-257.16 1942.41,-181.58 1831,-56 1808.73,-30.9 1582.35,-17.17 1492.48,-12.67"/>
<polygon fill="midnightblue" stroke="midnightblue" points="1492.38,-9.17 1482.22,-12.17 1492.04,-16.16 1492.38,-9.17"/>
</g>
<!-- Node27&#45;&gt;Node6 -->
<g id="edge82" class="edge">
<title>Node27&#45;&gt;Node6</title>
<path fill="none" stroke="midnightblue" d="M1383.46,-280.47C1336.82,-271.42 1268.65,-256.72 1245,-244 1137.45,-186.16 1040.91,-71.15 1006.94,-27.94"/>
<polygon fill="midnightblue" stroke="midnightblue" points="1009.56,-25.6 1000.66,-19.85 1004.03,-29.9 1009.56,-25.6"/>
</g>
<!-- Node27&#45;&gt;Node7 -->
<g id="edge83" class="edge">
<title>Node27&#45;&gt;Node7</title>
<path fill="none" stroke="midnightblue" d="M1477.81,-287.53C1600.29,-282.71 1920.53,-263.03 1989,-188 2028.66,-144.54 2024.43,-109.06 1999,-56 1992.75,-42.95 1980.66,-32.49 1969.32,-24.95"/>
<polygon fill="midnightblue" stroke="midnightblue" points="1970.85,-21.79 1960.5,-19.54 1967.19,-27.75 1970.85,-21.79"/>
</g>
<!-- Node28 -->
<g id="node28" class="node">
<title>Node28</title>
<g id="a_node28"><a xlink:href="../../d2/d4f/_address_sanitizer_8h.html" target="_top" xlink:title=" ">
<polygon fill="none" stroke="black" points="1392.5,-168.5 1392.5,-187.5 1499.5,-187.5 1499.5,-168.5 1392.5,-168.5"/>
<text text-anchor="middle" x="1446" y="-175.5" font-family="Helvetica,sans-Serif" font-size="10.00">AddressSanitizer.h</text>
</a>
</g>
</g>
<!-- Node27&#45;&gt;Node28 -->
<g id="edge51" class="edge">
<title>Node27&#45;&gt;Node28</title>
<path fill="none" stroke="midnightblue" d="M1431.26,-280.37C1433.84,-262.62 1439.79,-221.67 1443.29,-197.6"/>
<polygon fill="midnightblue" stroke="midnightblue" points="1446.77,-197.99 1444.75,-187.59 1439.85,-196.98 1446.77,-197.99"/>
</g>
<!-- Node30 -->
<g id="node30" class="node">
<title>Node30</title>
<g id="a_node30"><a xlink:href="../../d3/de6/_memory_8h.html" target="_top" xlink:title=" ">
<polygon fill="none" stroke="black" points="1226,-168.5 1226,-187.5 1336,-187.5 1336,-168.5 1226,-168.5"/>
<text text-anchor="middle" x="1281" y="-175.5" font-family="Helvetica,sans-Serif" font-size="10.00">common/Memory.h</text>
</a>
</g>
</g>
<!-- Node27&#45;&gt;Node30 -->
<g id="edge54" class="edge">
<title>Node27&#45;&gt;Node30</title>
<path fill="none" stroke="midnightblue" d="M1416.91,-280.24C1403.68,-271.31 1382.72,-256.97 1365,-244 1342.2,-227.3 1316.59,-207.3 1299.7,-193.93"/>
<polygon fill="midnightblue" stroke="midnightblue" points="1301.74,-191.08 1291.73,-187.6 1297.39,-196.56 1301.74,-191.08"/>
</g>
<!-- Node31 -->
<g id="node31" class="node">
<title>Node31</title>
<g id="a_node31"><a xlink:href="../../d7/d1b/_buffer_8h.html" target="_top" xlink:title=" ">
<polygon fill="none" stroke="black" points="1514,-224.5 1514,-243.5 1580,-243.5 1580,-224.5 1514,-224.5"/>
<text text-anchor="middle" x="1547" y="-231.5" font-family="Helvetica,sans-Serif" font-size="10.00">io/Buffer.h</text>
</a>
</g>
</g>
<!-- Node27&#45;&gt;Node31 -->
<g id="edge59" class="edge">
<title>Node27&#45;&gt;Node31</title>
<path fill="none" stroke="midnightblue" d="M1448.54,-280.44C1467.62,-271.64 1497.57,-257.81 1519.44,-247.72"/>
<polygon fill="midnightblue" stroke="midnightblue" points="1520.93,-250.88 1528.55,-243.52 1518,-244.53 1520.93,-250.88"/>
</g>
<!-- Node33 -->
<g id="node33" class="node">
<title>Node33</title>
<g id="a_node33"><a xlink:href="../../d0/dd8/_i_o_exception_8h.html" target="_top" xlink:title=" ">
<polygon fill="none" stroke="black" points="1651,-168.5 1651,-187.5 1747,-187.5 1747,-168.5 1651,-168.5"/>
<text text-anchor="middle" x="1699" y="-175.5" font-family="Helvetica,sans-Serif" font-size="10.00">io/IOException.h</text>
</a>
</g>
</g>
<!-- Node27&#45;&gt;Node33 -->
<g id="edge80" class="edge">
<title>Node27&#45;&gt;Node33</title>
<path fill="none" stroke="midnightblue" d="M1471.18,-280.43C1503.88,-272.9 1550.37,-260.55 1589,-244 1621.83,-229.94 1656.87,-207.85 1678.36,-193.4"/>
<polygon fill="midnightblue" stroke="midnightblue" points="1680.4,-196.24 1686.69,-187.72 1676.46,-190.46 1680.4,-196.24"/>
</g>
<!-- Node39 -->
<g id="node39" class="node">
<title>Node39</title>
<g id="a_node39"><a xlink:title=" ">
<polygon fill="none" stroke="#bfbfbf" points="1374,-224.5 1374,-243.5 1418,-243.5 1418,-224.5 1374,-224.5"/>
<text text-anchor="middle" x="1396" y="-231.5" font-family="Helvetica,sans-Serif" font-size="10.00">limits</text>
</a>
</g>
</g>
<!-- Node27&#45;&gt;Node39 -->
<g id="edge84" class="edge">
<title>Node27&#45;&gt;Node39</title>
<path fill="none" stroke="midnightblue" d="M1424.39,-280.08C1419.63,-272.53 1412.68,-261.49 1406.85,-252.23"/>
<polygon fill="midnightblue" stroke="midnightblue" points="1409.8,-250.35 1401.51,-243.75 1403.88,-254.08 1409.8,-250.35"/>
</g>
<!-- Node29 -->
<g id="node29" class="node">
<title>Node29</title>
<g id="a_node29"><a xlink:title=" ">
<polygon fill="none" stroke="#bfbfbf" points="1446.5,-112.5 1446.5,-131.5 1499.5,-131.5 1499.5,-112.5 1446.5,-112.5"/>
<text text-anchor="middle" x="1473" y="-119.5" font-family="Helvetica,sans-Serif" font-size="10.00">cstddef</text>
</a>
</g>
</g>
<!-- Node28&#45;&gt;Node29 -->
<g id="edge52" class="edge">
<title>Node28&#45;&gt;Node29</title>
<path fill="none" stroke="midnightblue" d="M1450.46,-168.08C1454.15,-160.69 1459.52,-149.95 1464.09,-140.81"/>
<polygon fill="midnightblue" stroke="midnightblue" points="1467.28,-142.26 1468.62,-131.75 1461.02,-139.13 1467.28,-142.26"/>
</g>
<!-- Node30&#45;&gt;Node2 -->
<g id="edge56" class="edge">
<title>Node30&#45;&gt;Node2</title>
<path fill="none" stroke="midnightblue" d="M1276.53,-168.37C1267.2,-150.38 1245.53,-108.55 1233.13,-84.63"/>
<polygon fill="midnightblue" stroke="midnightblue" points="1236.16,-82.86 1228.45,-75.59 1229.95,-86.08 1236.16,-82.86"/>
</g>
<!-- Node30&#45;&gt;Node6 -->
<g id="edge58" class="edge">
<title>Node30&#45;&gt;Node6</title>
<path fill="none" stroke="midnightblue" d="M1268.37,-168.21C1238.25,-147.42 1159.53,-94.12 1090,-56 1068.18,-44.04 1042.64,-32.16 1023.39,-23.62"/>
<polygon fill="midnightblue" stroke="midnightblue" points="1024.79,-20.41 1014.22,-19.59 1021.97,-26.82 1024.79,-20.41"/>
</g>
<!-- Node30&#45;&gt;Node13 -->
<g id="edge55" class="edge">
<title>Node30&#45;&gt;Node13</title>
<path fill="none" stroke="midnightblue" d="M1284.28,-168.08C1293.92,-141.83 1322.32,-64.55 1335.34,-29.12"/>
<polygon fill="midnightblue" stroke="midnightblue" points="1338.69,-30.16 1338.85,-19.57 1332.12,-27.75 1338.69,-30.16"/>
</g>
<!-- Node30&#45;&gt;Node29 -->
<g id="edge57" class="edge">
<title>Node30&#45;&gt;Node29</title>
<path fill="none" stroke="midnightblue" d="M1311.42,-168.44C1345.44,-158.87 1400.51,-143.39 1436.74,-133.2"/>
<polygon fill="midnightblue" stroke="midnightblue" points="1437.75,-136.55 1446.43,-130.47 1435.86,-129.81 1437.75,-136.55"/>
</g>
<!-- Node31&#45;&gt;Node2 -->
<g id="edge61" class="edge">
<title>Node31&#45;&gt;Node2</title>
<path fill="none" stroke="midnightblue" d="M1547.15,-224.35C1547.02,-201.92 1543.35,-141.62 1509,-112 1477.39,-84.74 1366.14,-73.9 1292.35,-69.66"/>
<polygon fill="midnightblue" stroke="midnightblue" points="1292.38,-66.15 1282.2,-69.1 1291.99,-73.14 1292.38,-66.15"/>
</g>
<!-- Node31&#45;&gt;Node4 -->
<g id="edge76" class="edge">
<title>Node31&#45;&gt;Node4</title>
<path fill="none" stroke="midnightblue" d="M1556.02,-224.34C1564.07,-215.93 1575.3,-202.36 1580,-188 1590.51,-155.9 1598.77,-140.08 1580,-112 1556.75,-77.21 1524.38,-103.68 1493,-76 1478.58,-63.28 1468.46,-43.53 1462.5,-29.14"/>
<polygon fill="midnightblue" stroke="midnightblue" points="1465.75,-27.85 1458.88,-19.78 1459.22,-30.37 1465.75,-27.85"/>
</g>
<!-- Node31&#45;&gt;Node6 -->
<g id="edge77" class="edge">
<title>Node31&#45;&gt;Node6</title>
<path fill="none" stroke="midnightblue" d="M1549.09,-224.23C1553.92,-201.52 1563.05,-140.59 1530,-112 1446.5,-39.75 1155.14,-42.06 1029.04,-19.89"/>
<polygon fill="midnightblue" stroke="midnightblue" points="1029.65,-16.44 1019.17,-18.03 1028.35,-23.32 1029.65,-16.44"/>
</g>
<!-- Node31&#45;&gt;Node25 -->
<g id="edge78" class="edge">
<title>Node31&#45;&gt;Node25</title>
<path fill="none" stroke="midnightblue" d="M1513.78,-228.58C1470.82,-222.12 1399.65,-208.56 1384,-188 1373.51,-174.22 1380.39,-154.37 1387.93,-140.24"/>
<polygon fill="midnightblue" stroke="midnightblue" points="1391,-141.91 1393.04,-131.51 1384.97,-138.36 1391,-141.91"/>
</g>
<!-- Node31&#45;&gt;Node28 -->
<g id="edge60" class="edge">
<title>Node31&#45;&gt;Node28</title>
<path fill="none" stroke="midnightblue" d="M1530.77,-224.32C1514.65,-215.7 1489.7,-202.36 1471.04,-192.39"/>
<polygon fill="midnightblue" stroke="midnightblue" points="1472.66,-189.28 1462.19,-187.65 1469.36,-195.46 1472.66,-189.28"/>
</g>
<!-- Node31&#45;&gt;Node30 -->
<g id="edge62" class="edge">
<title>Node31&#45;&gt;Node30</title>
<path fill="none" stroke="midnightblue" d="M1513.85,-226.27C1468.45,-217.05 1386.47,-200.41 1332.89,-189.53"/>
<polygon fill="midnightblue" stroke="midnightblue" points="1333.4,-186.07 1322.9,-187.51 1332.01,-192.93 1333.4,-186.07"/>
</g>
<!-- Node31&#45;&gt;Node32 -->
<g id="edge63" class="edge">
<title>Node31&#45;&gt;Node32</title>
<path fill="none" stroke="midnightblue" d="M1580.33,-229.59C1622.53,-224.43 1696.86,-212.53 1756,-188 1823.26,-160.1 1892.74,-107.78 1924.79,-82.06"/>
<polygon fill="midnightblue" stroke="midnightblue" points="1927.25,-84.57 1932.81,-75.55 1922.84,-79.14 1927.25,-84.57"/>
</g>
<!-- Node31&#45;&gt;Node33 -->
<g id="edge67" class="edge">
<title>Node31&#45;&gt;Node33</title>
<path fill="none" stroke="midnightblue" d="M1571.08,-224.44C1596.54,-215.4 1636.89,-201.06 1665.46,-190.92"/>
<polygon fill="midnightblue" stroke="midnightblue" points="1666.78,-194.16 1675.03,-187.52 1664.43,-187.57 1666.78,-194.16"/>
</g>
<!-- Node31&#45;&gt;Node38 -->
<g id="edge79" class="edge">
<title>Node31&#45;&gt;Node38</title>
<path fill="none" stroke="midnightblue" d="M1580.2,-228.63C1657.22,-218.48 1847.29,-193.45 1924.06,-183.34"/>
<polygon fill="midnightblue" stroke="midnightblue" points="1924.65,-186.79 1934.11,-182.01 1923.74,-179.85 1924.65,-186.79"/>
</g>
<!-- Node32&#45;&gt;Node4 -->
<g id="edge64" class="edge">
<title>Node32&#45;&gt;Node4</title>
<path fill="none" stroke="midnightblue" d="M1896.4,-57.92C1891.54,-57.25 1886.67,-56.59 1882,-56 1738.19,-37.8 1566.41,-21.23 1492.63,-14.36"/>
<polygon fill="midnightblue" stroke="midnightblue" points="1492.75,-10.85 1482.47,-13.41 1492.1,-17.82 1492.75,-10.85"/>
</g>
<!-- Node32&#45;&gt;Node6 -->
<g id="edge65" class="edge">
<title>Node32&#45;&gt;Node6</title>
<path fill="none" stroke="midnightblue" d="M1896.28,-61.56C1871.04,-59.77 1839.32,-57.62 1811,-56 1466.51,-36.34 1374.09,-72.18 1029.14,-19.82"/>
<polygon fill="midnightblue" stroke="midnightblue" points="1029.54,-16.34 1019.12,-18.29 1028.48,-23.26 1029.54,-16.34"/>
</g>
<!-- Node32&#45;&gt;Node7 -->
<g id="edge66" class="edge">
<title>Node32&#45;&gt;Node7</title>
<path fill="none" stroke="midnightblue" d="M1943,-56.08C1943,-49.01 1943,-38.86 1943,-29.99"/>
<polygon fill="midnightblue" stroke="midnightblue" points="1946.5,-29.75 1943,-19.75 1939.5,-29.75 1946.5,-29.75"/>
</g>
<!-- Node33&#45;&gt;Node13 -->
<g id="edge68" class="edge">
<title>Node33&#45;&gt;Node13</title>
<path fill="none" stroke="midnightblue" d="M1747.17,-170.33C1770.58,-164.39 1796.68,-153.18 1811,-132 1829.92,-104.02 1833.76,-80.96 1811,-56 1781.68,-23.85 1464.29,-24.46 1421,-20 1415.28,-19.41 1409.33,-18.77 1403.38,-18.12"/>
<polygon fill="midnightblue" stroke="midnightblue" points="1403.73,-14.64 1393.4,-17.02 1402.96,-21.6 1403.73,-14.64"/>
</g>
<!-- Node34 -->
<g id="node34" class="node">
<title>Node34</title>
<g id="a_node34"><a xlink:href="../../d7/d05/_rawspeed_exception_8h.html" target="_top" xlink:title=" ">
<polygon fill="none" stroke="black" points="1632,-112.5 1632,-131.5 1802,-131.5 1802,-112.5 1632,-112.5"/>
<text text-anchor="middle" x="1717" y="-119.5" font-family="Helvetica,sans-Serif" font-size="10.00">common/RawspeedException.h</text>
</a>
</g>
</g>
<!-- Node33&#45;&gt;Node34 -->
<g id="edge69" class="edge">
<title>Node33&#45;&gt;Node34</title>
<path fill="none" stroke="midnightblue" d="M1701.97,-168.08C1704.38,-160.85 1707.86,-150.41 1710.87,-141.4"/>
<polygon fill="midnightblue" stroke="midnightblue" points="1714.24,-142.34 1714.08,-131.75 1707.6,-140.13 1714.24,-142.34"/>
</g>
<!-- Node34&#45;&gt;Node2 -->
<g id="edge71" class="edge">
<title>Node34&#45;&gt;Node2</title>
<path fill="none" stroke="midnightblue" d="M1639.15,-112.47C1543.66,-102.01 1383.29,-84.45 1292.36,-74.49"/>
<polygon fill="midnightblue" stroke="midnightblue" points="1292.48,-70.98 1282.16,-73.37 1291.72,-77.94 1292.48,-70.98"/>
</g>
<!-- Node34&#45;&gt;Node13 -->
<g id="edge70" class="edge">
<title>Node34&#45;&gt;Node13</title>
<path fill="none" stroke="midnightblue" d="M1690.28,-112.49C1664.7,-104.08 1625.21,-90.42 1592,-76 1574.13,-68.24 1571.35,-62.53 1553,-56 1504,-38.56 1446.07,-26.8 1403.32,-19.69"/>
<polygon fill="midnightblue" stroke="midnightblue" points="1403.78,-16.21 1393.34,-18.07 1402.65,-23.12 1403.78,-16.21"/>
</g>
<!-- Node34&#45;&gt;Node23 -->
<g id="edge72" class="edge">
<title>Node34&#45;&gt;Node23</title>
<path fill="none" stroke="midnightblue" d="M1686.26,-112.44C1650.09,-102.37 1590.36,-85.75 1554.05,-75.64"/>
<polygon fill="midnightblue" stroke="midnightblue" points="1554.6,-72.16 1544.03,-72.85 1552.72,-78.91 1554.6,-72.16"/>
</g>
<!-- Node35 -->
<g id="node35" class="node">
<title>Node35</title>
<g id="a_node35"><a xlink:title=" ">
<polygon fill="none" stroke="#bfbfbf" points="1600.5,-56.5 1600.5,-75.5 1653.5,-75.5 1653.5,-56.5 1600.5,-56.5"/>
<text text-anchor="middle" x="1627" y="-63.5" font-family="Helvetica,sans-Serif" font-size="10.00">cstdarg</text>
</a>
</g>
</g>
<!-- Node34&#45;&gt;Node35 -->
<g id="edge73" class="edge">
<title>Node34&#45;&gt;Node35</title>
<path fill="none" stroke="midnightblue" d="M1702.54,-112.32C1688.5,-103.9 1666.95,-90.97 1650.46,-81.07"/>
<polygon fill="midnightblue" stroke="midnightblue" points="1651.8,-77.8 1641.42,-75.65 1648.2,-83.8 1651.8,-77.8"/>
</g>
<!-- Node36 -->
<g id="node36" class="node">
<title>Node36</title>
<g id="a_node36"><a xlink:title=" ">
<polygon fill="none" stroke="#bfbfbf" points="1672,-56.5 1672,-75.5 1718,-75.5 1718,-56.5 1672,-56.5"/>
<text text-anchor="middle" x="1695" y="-63.5" font-family="Helvetica,sans-Serif" font-size="10.00">cstdio</text>
</a>
</g>
</g>
<!-- Node34&#45;&gt;Node36 -->
<g id="edge74" class="edge">
<title>Node34&#45;&gt;Node36</title>
<path fill="none" stroke="midnightblue" d="M1713.37,-112.08C1710.39,-104.77 1706.07,-94.18 1702.38,-85.1"/>
<polygon fill="midnightblue" stroke="midnightblue" points="1705.58,-83.69 1698.57,-75.75 1699.1,-86.33 1705.58,-83.69"/>
</g>
<!-- Node37 -->
<g id="node37" class="node">
<title>Node37</title>
<g id="a_node37"><a xlink:title=" ">
<polygon fill="none" stroke="#bfbfbf" points="1736.5,-56.5 1736.5,-75.5 1801.5,-75.5 1801.5,-56.5 1736.5,-56.5"/>
<text text-anchor="middle" x="1769" y="-63.5" font-family="Helvetica,sans-Serif" font-size="10.00">stdexcept</text>
</a>
</g>
</g>
<!-- Node34&#45;&gt;Node37 -->
<g id="edge75" class="edge">
<title>Node34&#45;&gt;Node37</title>
<path fill="none" stroke="midnightblue" d="M1725.59,-112.08C1733.16,-104.22 1744.38,-92.57 1753.51,-83.08"/>
<polygon fill="midnightblue" stroke="midnightblue" points="1756.16,-85.38 1760.57,-75.75 1751.12,-80.53 1756.16,-85.38"/>
</g>
</g>
</svg>
