<?xml version="1.0" encoding="UTF-8" standalone="no"?>
<!DOCTYPE svg PUBLIC "-//W3C//DTD SVG 1.1//EN"
 "http://www.w3.org/Graphics/SVG/1.1/DTD/svg11.dtd">
<!-- Generated by graphviz version 2.43.0 (0)
 -->
<!-- Title: librawspeed/interpolators/Cr2sRawInterpolator.h Pages: 1 -->
<svg width="503pt" height="117pt"
 viewBox="0.00 0.00 503.00 117.00" xmlns="http://www.w3.org/2000/svg" xmlns:xlink="http://www.w3.org/1999/xlink">
<g id="graph0" class="graph" transform="scale(1 1) rotate(0) translate(4 113)">
<title>librawspeed/interpolators/Cr2sRawInterpolator.h</title>
<!-- Node1 -->
<g id="node1" class="node">
<title>Node1</title>
<g id="a_node1"><a xlink:title=" ">
<polygon fill="#bfbfbf" stroke="black" points="204,-78.5 204,-108.5 345,-108.5 345,-78.5 204,-78.5"/>
<text text-anchor="start" x="212" y="-96.5" font-family="Helvetica,sans-Serif" font-size="10.00">librawspeed/interpolators</text>
<text text-anchor="middle" x="274.5" y="-85.5" font-family="Helvetica,sans-Serif" font-size="10.00">/Cr2sRawInterpolator.h</text>
</a>
</g>
</g>
<!-- Node2 -->
<g id="node2" class="node">
<title>Node2</title>
<g id="a_node2"><a xlink:href="../../dc/d1a/_cr2s_raw_interpolator_benchmark_8cpp.html" target="_top" xlink:title=" ">
<polygon fill="none" stroke="black" points="0,-0.5 0,-41.5 195,-41.5 195,-0.5 0,-0.5"/>
<text text-anchor="start" x="8" y="-29.5" font-family="Helvetica,sans-Serif" font-size="10.00">/build/rawspeed/bench</text>
<text text-anchor="start" x="8" y="-18.5" font-family="Helvetica,sans-Serif" font-size="10.00">/librawspeed/interpolators</text>
<text text-anchor="middle" x="97.5" y="-7.5" font-family="Helvetica,sans-Serif" font-size="10.00">/Cr2sRawInterpolatorBenchmark.cpp</text>
</a>
</g>
</g>
<!-- Node1&#45;&gt;Node2 -->
<g id="edge1" class="edge">
<title>Node1&#45;&gt;Node2</title>
<path fill="none" stroke="midnightblue" d="M229.73,-74.67C204.37,-64.57 172.61,-51.92 146.57,-41.55"/>
<polygon fill="midnightblue" stroke="midnightblue" points="228.52,-77.95 239.11,-78.4 231.11,-71.45 228.52,-77.95"/>
</g>
<!-- Node3 -->
<g id="node3" class="node">
<title>Node3</title>
<g id="a_node3"><a xlink:href="../../d4/db4/_cr2_decoder_8cpp.html" target="_top" xlink:title=" ">
<polygon fill="none" stroke="black" points="213,-6 213,-36 336,-36 336,-6 213,-6"/>
<text text-anchor="start" x="221" y="-24" font-family="Helvetica,sans-Serif" font-size="10.00">librawspeed/decoders</text>
<text text-anchor="middle" x="274.5" y="-13" font-family="Helvetica,sans-Serif" font-size="10.00">/Cr2Decoder.cpp</text>
</a>
</g>
</g>
<!-- Node1&#45;&gt;Node3 -->
<g id="edge2" class="edge">
<title>Node1&#45;&gt;Node3</title>
<path fill="none" stroke="midnightblue" d="M274.5,-68.23C274.5,-57.57 274.5,-45.41 274.5,-36.25"/>
<polygon fill="midnightblue" stroke="midnightblue" points="271,-68.23 274.5,-78.23 278,-68.23 271,-68.23"/>
</g>
<!-- Node4 -->
<g id="node4" class="node">
<title>Node4</title>
<g id="a_node4"><a xlink:href="../../da/d7b/_cr2s_raw_interpolator_8cpp.html" target="_top" xlink:title=" ">
<polygon fill="none" stroke="black" points="354,-6 354,-36 495,-36 495,-6 354,-6"/>
<text text-anchor="start" x="362" y="-24" font-family="Helvetica,sans-Serif" font-size="10.00">librawspeed/interpolators</text>
<text text-anchor="middle" x="424.5" y="-13" font-family="Helvetica,sans-Serif" font-size="10.00">/Cr2sRawInterpolator.cpp</text>
</a>
</g>
</g>
<!-- Node1&#45;&gt;Node4 -->
<g id="edge3" class="edge">
<title>Node1&#45;&gt;Node4</title>
<path fill="none" stroke="midnightblue" d="M313.8,-74.03C339.06,-62.16 371.37,-46.97 394.56,-36.07"/>
<polygon fill="midnightblue" stroke="midnightblue" points="312.06,-70.98 304.49,-78.4 315.03,-77.32 312.06,-70.98"/>
</g>
</g>
</svg>
