<?xml version="1.0" encoding="UTF-8" standalone="no"?>
<!DOCTYPE svg PUBLIC "-//W3C//DTD SVG 1.1//EN"
 "http://www.w3.org/Graphics/SVG/1.1/DTD/svg11.dtd">
<!-- Generated by graphviz version 2.43.0 (0)
 -->
<!-- Title: rawspeed::HuffmanTableLUT Pages: 1 -->
<svg width="1287pt" height="467pt"
 viewBox="0.00 0.00 1287.00 467.00" xmlns="http://www.w3.org/2000/svg" xmlns:xlink="http://www.w3.org/1999/xlink">
<g id="graph0" class="graph" transform="scale(1 1) rotate(0) translate(4 463)">
<title>rawspeed::HuffmanTableLUT</title>
<!-- Node1 -->
<g id="node1" class="node">
<title>Node1</title>
<g id="a_node1"><a xlink:title=" ">
<polygon fill="#bfbfbf" stroke="black" points="1124,-59.5 1124,-78.5 1279,-78.5 1279,-59.5 1124,-59.5"/>
<text text-anchor="middle" x="1201.5" y="-66.5" font-family="Helvetica,sans-Serif" font-size="10.00">rawspeed::HuffmanTableLUT</text>
</a>
</g>
</g>
<!-- Node2 -->
<g id="node2" class="node">
<title>Node2</title>
<g id="a_node2"><a xlink:href="../../d4/d72/classrawspeed_1_1_huffman_table_lookup.html" target="_top" xlink:title=" ">
<polygon fill="none" stroke="black" points="850,-265.5 850,-284.5 1023,-284.5 1023,-265.5 850,-265.5"/>
<text text-anchor="middle" x="936.5" y="-272.5" font-family="Helvetica,sans-Serif" font-size="10.00">rawspeed::HuffmanTableLookup</text>
</a>
</g>
</g>
<!-- Node2&#45;&gt;Node1 -->
<g id="edge1" class="edge">
<title>Node2&#45;&gt;Node1</title>
<path fill="none" stroke="midnightblue" d="M958,-258.95C1010.1,-218.13 1146.47,-111.32 1188.19,-78.64"/>
<polygon fill="midnightblue" stroke="midnightblue" points="955.55,-256.42 949.83,-265.34 959.86,-261.93 955.55,-256.42"/>
</g>
<!-- Node3 -->
<g id="node3" class="node">
<title>Node3</title>
<g id="a_node3"><a xlink:href="../../d8/d1c/classrawspeed_1_1_abstract_huffman_table.html" target="_top" xlink:title=" ">
<polygon fill="none" stroke="black" points="588,-203 588,-233 740,-233 740,-203 588,-203"/>
<text text-anchor="start" x="596" y="-221" font-family="Helvetica,sans-Serif" font-size="10.00">rawspeed::AbstractHuffman</text>
<text text-anchor="middle" x="664" y="-210" font-family="Helvetica,sans-Serif" font-size="10.00">Table</text>
</a>
</g>
</g>
<!-- Node3&#45;&gt;Node2 -->
<g id="edge2" class="edge">
<title>Node3&#45;&gt;Node2</title>
<path fill="none" stroke="midnightblue" d="M746.3,-235.13C793.38,-245.05 850.88,-257.17 890.05,-265.42"/>
<polygon fill="midnightblue" stroke="midnightblue" points="746.93,-231.69 736.42,-233.05 745.49,-238.54 746.93,-231.69"/>
</g>
<!-- Node4 -->
<g id="node4" class="node">
<title>Node4</title>
<g id="a_node4"><a xlink:title=" ">
<polygon fill="none" stroke="#bfbfbf" points="375.5,-133.5 375.5,-152.5 421.5,-152.5 421.5,-133.5 375.5,-133.5"/>
<text text-anchor="middle" x="398.5" y="-140.5" font-family="Helvetica,sans-Serif" font-size="10.00">return</text>
</a>
</g>
</g>
<!-- Node4&#45;&gt;Node3 -->
<g id="edge3" class="edge">
<title>Node4&#45;&gt;Node3</title>
<path fill="none" stroke="#9a32cd" stroke-dasharray="5,2" d="M431.74,-146.96C466.45,-151.74 523,-161.06 570,-176 592.29,-183.08 616.32,-194.03 634.37,-202.97"/>
<polygon fill="#9a32cd" stroke="#9a32cd" points="432.08,-143.47 421.71,-145.62 431.16,-150.41 432.08,-143.47"/>
<text text-anchor="middle" x="526" y="-179" font-family="Helvetica,sans-Serif" font-size="10.00"> ret</text>
</g>
<!-- Node5 -->
<g id="node5" class="node">
<title>Node5</title>
<g id="a_node5"><a xlink:title=" ">
<polygon fill="none" stroke="#bfbfbf" points="336,-297.5 336,-316.5 461,-316.5 461,-297.5 336,-297.5"/>
<text text-anchor="middle" x="398.5" y="-304.5" font-family="Helvetica,sans-Serif" font-size="10.00">std::vector&lt; uint8_t &gt;</text>
</a>
</g>
</g>
<!-- Node5&#45;&gt;Node3 -->
<g id="edge4" class="edge">
<title>Node5&#45;&gt;Node3</title>
<path fill="none" stroke="#9a32cd" stroke-dasharray="5,2" d="M469.02,-295.49C500.44,-289.18 537.68,-280.13 570,-268 594.71,-258.72 621.05,-244.06 639.36,-233.01"/>
<polygon fill="#9a32cd" stroke="#9a32cd" points="468.18,-292.09 459.04,-297.44 469.52,-298.96 468.18,-292.09"/>
<text text-anchor="middle" x="526" y="-295" font-family="Helvetica,sans-Serif" font-size="10.00"> codeValues</text>
</g>
<!-- Node6 -->
<g id="node6" class="node">
<title>Node6</title>
<g id="a_node6"><a xlink:title=" ">
<polygon fill="none" stroke="#bfbfbf" points="137.5,-333.5 137.5,-352.5 187.5,-352.5 187.5,-333.5 137.5,-333.5"/>
<text text-anchor="middle" x="162.5" y="-340.5" font-family="Helvetica,sans-Serif" font-size="10.00">uint8_t</text>
</a>
</g>
</g>
<!-- Node6&#45;&gt;Node5 -->
<g id="edge5" class="edge">
<title>Node6&#45;&gt;Node5</title>
<path fill="none" stroke="#9a32cd" stroke-dasharray="5,2" d="M197.85,-338.25C228.58,-333.94 274.84,-327.32 315,-321 323.9,-319.6 333.32,-318.06 342.5,-316.52"/>
<polygon fill="#9a32cd" stroke="#9a32cd" points="197.09,-334.82 187.67,-339.67 198.05,-341.76 197.09,-334.82"/>
<text text-anchor="middle" x="272" y="-336" font-family="Helvetica,sans-Serif" font-size="10.00"> elements</text>
</g>
<!-- Node7 -->
<g id="node7" class="node">
<title>Node7</title>
<g id="a_node7"><a xlink:title="STL class.">
<polygon fill="none" stroke="#bfbfbf" points="114,-265.5 114,-284.5 211,-284.5 211,-265.5 114,-265.5"/>
<text text-anchor="middle" x="162.5" y="-272.5" font-family="Helvetica,sans-Serif" font-size="10.00">std::vector&lt; T &gt;</text>
</a>
</g>
</g>
<!-- Node7&#45;&gt;Node5 -->
<g id="edge6" class="edge">
<title>Node7&#45;&gt;Node5</title>
<path fill="none" stroke="orange" stroke-dasharray="5,2" d="M221.59,-267.67C250.29,-265.97 285.1,-266.84 315,-276 324.19,-278.82 324.29,-283.93 333,-288 340.93,-291.71 349.75,-294.87 358.26,-297.5"/>
<polygon fill="orange" stroke="orange" points="221.03,-264.2 211.31,-268.4 221.53,-271.18 221.03,-264.2"/>
<text text-anchor="middle" x="272" y="-279" font-family="Helvetica,sans-Serif" font-size="10.00"> &lt; uint8_t &gt;</text>
</g>
<!-- Node11 -->
<g id="node11" class="node">
<title>Node11</title>
<g id="a_node11"><a xlink:title=" ">
<polygon fill="none" stroke="#bfbfbf" points="336.5,-248 336.5,-278 460.5,-278 460.5,-248 336.5,-248"/>
<text text-anchor="start" x="344.5" y="-266" font-family="Helvetica,sans-Serif" font-size="10.00">std::vector&lt; unsigned</text>
<text text-anchor="middle" x="398.5" y="-255" font-family="Helvetica,sans-Serif" font-size="10.00"> int &gt;</text>
</a>
</g>
</g>
<!-- Node7&#45;&gt;Node11 -->
<g id="edge12" class="edge">
<title>Node7&#45;&gt;Node11</title>
<path fill="none" stroke="orange" stroke-dasharray="5,2" d="M186.39,-260.14C198.53,-253.15 213.99,-245.57 229,-242 268.87,-232.52 315.12,-239.53 349.07,-247.91"/>
<polygon fill="orange" stroke="orange" points="184.58,-257.14 177.82,-265.3 188.2,-263.14 184.58,-257.14"/>
<text text-anchor="middle" x="272" y="-245" font-family="Helvetica,sans-Serif" font-size="10.00"> &lt; unsigned int &gt;</text>
</g>
<!-- Node13 -->
<g id="node13" class="node">
<title>Node13</title>
<g id="a_node13"><a xlink:title=" ">
<polygon fill="none" stroke="#bfbfbf" points="333,-335.5 333,-354.5 464,-354.5 464,-335.5 333,-335.5"/>
<text text-anchor="middle" x="398.5" y="-342.5" font-family="Helvetica,sans-Serif" font-size="10.00">std::vector&lt; uint16_t &gt;</text>
</a>
</g>
</g>
<!-- Node7&#45;&gt;Node13 -->
<g id="edge16" class="edge">
<title>Node7&#45;&gt;Node13</title>
<path fill="none" stroke="orange" stroke-dasharray="5,2" d="M221.65,-286.03C260.73,-293.73 306.6,-303.41 315,-308 324.93,-313.42 323.27,-320.22 333,-326 339.42,-329.82 346.67,-332.91 353.92,-335.41"/>
<polygon fill="orange" stroke="orange" points="221.85,-282.51 211.36,-284.02 220.51,-289.38 221.85,-282.51"/>
<text text-anchor="middle" x="272" y="-311" font-family="Helvetica,sans-Serif" font-size="10.00"> &lt; uint16_t &gt;</text>
</g>
<!-- Node15 -->
<g id="node15" class="node">
<title>Node15</title>
<g id="a_node15"><a xlink:title=" ">
<polygon fill="none" stroke="#bfbfbf" points="333,-373.5 333,-392.5 464,-392.5 464,-373.5 333,-373.5"/>
<text text-anchor="middle" x="398.5" y="-380.5" font-family="Helvetica,sans-Serif" font-size="10.00">std::vector&lt; uint32_t &gt;</text>
</a>
</g>
</g>
<!-- Node7&#45;&gt;Node15 -->
<g id="edge19" class="edge">
<title>Node7&#45;&gt;Node15</title>
<path fill="none" stroke="orange" stroke-dasharray="5,2" d="M180.88,-291.86C190.12,-301.09 201.5,-312.88 211,-324 219.66,-334.14 217.75,-340.85 229,-348 246.21,-358.94 292.97,-368.16 332.88,-374.39"/>
<polygon fill="orange" stroke="orange" points="183.29,-289.32 173.71,-284.79 178.37,-294.3 183.29,-289.32"/>
<text text-anchor="middle" x="272" y="-373" font-family="Helvetica,sans-Serif" font-size="10.00"> &lt; uint32_t &gt;</text>
</g>
<!-- Node17 -->
<g id="node17" class="node">
<title>Node17</title>
<g id="a_node17"><a xlink:title=" ">
<polygon fill="none" stroke="#bfbfbf" points="336,-48.5 336,-67.5 461,-67.5 461,-48.5 336,-48.5"/>
<text text-anchor="middle" x="398.5" y="-55.5" font-family="Helvetica,sans-Serif" font-size="10.00">std::vector&lt; int32_t &gt;</text>
</a>
</g>
</g>
<!-- Node7&#45;&gt;Node17 -->
<g id="edge22" class="edge">
<title>Node7&#45;&gt;Node17</title>
<path fill="none" stroke="orange" stroke-dasharray="5,2" d="M181.62,-258.47C194.32,-247.36 212,-232.83 229,-222 264.87,-199.14 289.29,-213.89 315,-180 341.77,-144.72 304.54,-115.92 333,-82 338.3,-75.68 345.43,-71.03 353.01,-67.6"/>
<polygon fill="orange" stroke="orange" points="179.2,-255.94 174.05,-265.2 183.85,-261.17 179.2,-255.94"/>
<text text-anchor="middle" x="272" y="-225" font-family="Helvetica,sans-Serif" font-size="10.00"> &lt; int32_t &gt;</text>
</g>
<!-- Node8 -->
<g id="node8" class="node">
<title>Node8</title>
<g id="a_node8"><a xlink:title=" ">
<polygon fill="none" stroke="#bfbfbf" points="0,-265.5 0,-284.5 29,-284.5 29,-265.5 0,-265.5"/>
<text text-anchor="middle" x="14.5" y="-272.5" font-family="Helvetica,sans-Serif" font-size="10.00">T</text>
</a>
</g>
</g>
<!-- Node8&#45;&gt;Node7 -->
<g id="edge7" class="edge">
<title>Node8&#45;&gt;Node7</title>
<path fill="none" stroke="#9a32cd" stroke-dasharray="5,2" d="M39.39,-275C59.54,-275 89.02,-275 113.96,-275"/>
<polygon fill="#9a32cd" stroke="#9a32cd" points="39.24,-271.5 29.24,-275 39.24,-278.5 39.24,-271.5"/>
<text text-anchor="middle" x="71.5" y="-278" font-family="Helvetica,sans-Serif" font-size="10.00"> elements</text>
</g>
<!-- Node9 -->
<g id="node9" class="node">
<title>Node9</title>
<g id="a_node9"><a xlink:title=" ">
<polygon fill="none" stroke="#bfbfbf" points="148,-121.5 148,-140.5 177,-140.5 177,-121.5 148,-121.5"/>
<text text-anchor="middle" x="162.5" y="-128.5" font-family="Helvetica,sans-Serif" font-size="10.00">int</text>
</a>
</g>
</g>
<!-- Node9&#45;&gt;Node3 -->
<g id="edge8" class="edge">
<title>Node9&#45;&gt;Node3</title>
<path fill="none" stroke="#9a32cd" stroke-dasharray="5,2" d="M187.11,-125.91C238.07,-115.73 362.06,-95.28 464,-113 513.31,-121.57 525.71,-127.7 570,-151 598,-165.73 627.1,-188.01 645.12,-202.78"/>
<polygon fill="#9a32cd" stroke="#9a32cd" points="186.19,-122.53 177.1,-127.97 187.6,-129.38 186.19,-122.53"/>
<text text-anchor="middle" x="398.5" y="-116" font-family="Helvetica,sans-Serif" font-size="10.00"> len</text>
</g>
<!-- Node9&#45;&gt;Node11 -->
<g id="edge11" class="edge">
<title>Node9&#45;&gt;Node11</title>
<path fill="none" stroke="#9a32cd" stroke-dasharray="5,2" d="M187.63,-129.97C220.93,-129.93 280.73,-135.05 315,-169 337.52,-191.3 311.91,-214.34 333,-238 336.44,-241.85 340.54,-245.12 344.99,-247.88"/>
<polygon fill="#9a32cd" stroke="#9a32cd" points="187.37,-126.48 177.43,-130.15 187.49,-133.48 187.37,-126.48"/>
<text text-anchor="middle" x="272" y="-172" font-family="Helvetica,sans-Serif" font-size="10.00"> elements</text>
</g>
<!-- Node10 -->
<g id="node10" class="node">
<title>Node10</title>
<g id="a_node10"><a xlink:title=" ">
<polygon fill="none" stroke="#bfbfbf" points="379.5,-209.5 379.5,-228.5 417.5,-228.5 417.5,-209.5 379.5,-209.5"/>
<text text-anchor="middle" x="398.5" y="-216.5" font-family="Helvetica,sans-Serif" font-size="10.00">bool</text>
</a>
</g>
</g>
<!-- Node10&#45;&gt;Node3 -->
<g id="edge9" class="edge">
<title>Node10&#45;&gt;Node3</title>
<path fill="none" stroke="#9a32cd" stroke-dasharray="5,2" d="M427.9,-218.89C465.84,-218.75 534.45,-218.49 587.8,-218.29"/>
<polygon fill="#9a32cd" stroke="#9a32cd" points="427.6,-215.39 417.61,-218.93 427.62,-222.39 427.6,-215.39"/>
<text text-anchor="middle" x="526" y="-232" font-family="Helvetica,sans-Serif" font-size="10.00"> fullDecode</text>
<text text-anchor="middle" x="526" y="-221" font-family="Helvetica,sans-Serif" font-size="10.00">fixDNGBug16</text>
</g>
<!-- Node11&#45;&gt;Node3 -->
<g id="edge10" class="edge">
<title>Node11&#45;&gt;Node3</title>
<path fill="none" stroke="#9a32cd" stroke-dasharray="5,2" d="M470.7,-255.65C501.38,-252.01 537.58,-247.08 570,-241 581.93,-238.76 594.62,-235.93 606.67,-233.03"/>
<polygon fill="#9a32cd" stroke="#9a32cd" points="470.05,-252.2 460.53,-256.84 470.86,-259.16 470.05,-252.2"/>
<text text-anchor="middle" x="526" y="-256" font-family="Helvetica,sans-Serif" font-size="10.00"> nCodesPerLength</text>
</g>
<!-- Node12 -->
<g id="node12" class="node">
<title>Node12</title>
<g id="a_node12"><a xlink:title=" ">
<polygon fill="none" stroke="#bfbfbf" points="379.5,-171.5 379.5,-190.5 417.5,-190.5 417.5,-171.5 379.5,-171.5"/>
<text text-anchor="middle" x="398.5" y="-178.5" font-family="Helvetica,sans-Serif" font-size="10.00">auto</text>
</a>
</g>
</g>
<!-- Node12&#45;&gt;Node3 -->
<g id="edge13" class="edge">
<title>Node12&#45;&gt;Node3</title>
<path fill="none" stroke="#9a32cd" stroke-dasharray="5,2" d="M427.78,-184.37C461.64,-188.47 520.03,-195.75 570,-203 575.83,-203.85 581.85,-204.75 587.91,-205.68"/>
<polygon fill="#9a32cd" stroke="#9a32cd" points="428.04,-180.88 417.69,-183.16 427.2,-187.83 428.04,-180.88"/>
<text text-anchor="middle" x="526" y="-206" font-family="Helvetica,sans-Serif" font-size="10.00"> ret</text>
</g>
<!-- Node13&#45;&gt;Node2 -->
<g id="edge14" class="edge">
<title>Node13&#45;&gt;Node2</title>
<path fill="none" stroke="#9a32cd" stroke-dasharray="5,2" d="M474.14,-335.25C576.86,-321.84 760.62,-297.84 862.48,-284.54"/>
<polygon fill="#9a32cd" stroke="#9a32cd" points="473.62,-331.79 464.15,-336.56 474.52,-338.73 473.62,-331.79"/>
<text text-anchor="middle" x="664" y="-323" font-family="Helvetica,sans-Serif" font-size="10.00"> codeOffsetOL</text>
</g>
<!-- Node14 -->
<g id="node14" class="node">
<title>Node14</title>
<g id="a_node14"><a xlink:href="../../d5/df4/classuint16__t.html" target="_top" xlink:title=" ">
<polygon fill="none" stroke="black" points="134.5,-401.5 134.5,-420.5 190.5,-420.5 190.5,-401.5 134.5,-401.5"/>
<text text-anchor="middle" x="162.5" y="-408.5" font-family="Helvetica,sans-Serif" font-size="10.00">uint16_t</text>
</a>
</g>
</g>
<!-- Node14&#45;&gt;Node13 -->
<g id="edge15" class="edge">
<title>Node14&#45;&gt;Node13</title>
<path fill="none" stroke="#9a32cd" stroke-dasharray="5,2" d="M200.91,-413.43C233.35,-413.8 280.4,-410 315,-389 326.7,-381.9 321.83,-371.92 333,-364 338.43,-360.15 344.64,-357.08 351.01,-354.62"/>
<polygon fill="#9a32cd" stroke="#9a32cd" points="200.6,-409.92 190.51,-413.17 200.42,-416.92 200.6,-409.92"/>
<text text-anchor="middle" x="272" y="-415" font-family="Helvetica,sans-Serif" font-size="10.00"> elements</text>
</g>
<!-- Node15&#45;&gt;Node2 -->
<g id="edge17" class="edge">
<title>Node15&#45;&gt;Node2</title>
<path fill="none" stroke="#9a32cd" stroke-dasharray="5,2" d="M474.01,-375.87C543.39,-368.43 649.44,-355.04 740,-335 781.73,-325.77 791.14,-319.53 832,-307 856.45,-299.5 884.14,-290.94 904.71,-284.56"/>
<polygon fill="#9a32cd" stroke="#9a32cd" points="473.62,-372.39 464.04,-376.92 474.36,-379.35 473.62,-372.39"/>
<text text-anchor="middle" x="664" y="-364" font-family="Helvetica,sans-Serif" font-size="10.00"> maxCodeOL</text>
</g>
<!-- Node16 -->
<g id="node16" class="node">
<title>Node16</title>
<g id="a_node16"><a xlink:href="../../d3/d87/classuint32__t.html" target="_top" xlink:title=" ">
<polygon fill="none" stroke="black" points="134.5,-439.5 134.5,-458.5 190.5,-458.5 190.5,-439.5 134.5,-439.5"/>
<text text-anchor="middle" x="162.5" y="-446.5" font-family="Helvetica,sans-Serif" font-size="10.00">uint32_t</text>
</a>
</g>
</g>
<!-- Node16&#45;&gt;Node15 -->
<g id="edge18" class="edge">
<title>Node16&#45;&gt;Node15</title>
<path fill="none" stroke="#9a32cd" stroke-dasharray="5,2" d="M200.69,-447.18C231.87,-444.82 277.22,-439.4 315,-427 340.45,-418.65 367.36,-402.78 383.28,-392.56"/>
<polygon fill="#9a32cd" stroke="#9a32cd" points="200.42,-443.69 190.69,-447.87 200.9,-450.68 200.42,-443.69"/>
<text text-anchor="middle" x="272" y="-447" font-family="Helvetica,sans-Serif" font-size="10.00"> elements</text>
</g>
<!-- Node17&#45;&gt;Node1 -->
<g id="edge20" class="edge">
<title>Node17&#45;&gt;Node1</title>
<path fill="none" stroke="#9a32cd" stroke-dasharray="5,2" d="M471.07,-58.98C621.43,-61.05 969.01,-65.82 1123.77,-67.95"/>
<polygon fill="#9a32cd" stroke="#9a32cd" points="471.07,-55.48 461.02,-58.84 470.97,-62.48 471.07,-55.48"/>
<text text-anchor="middle" x="795" y="-67" font-family="Helvetica,sans-Serif" font-size="10.00"> decodeLookup</text>
</g>
<!-- Node18 -->
<g id="node18" class="node">
<title>Node18</title>
<g id="a_node18"><a xlink:href="../../de/d73/classint32__t.html" target="_top" xlink:title=" ">
<polygon fill="none" stroke="black" points="137.5,-48.5 137.5,-67.5 187.5,-67.5 187.5,-48.5 137.5,-48.5"/>
<text text-anchor="middle" x="162.5" y="-55.5" font-family="Helvetica,sans-Serif" font-size="10.00">int32_t</text>
</a>
</g>
</g>
<!-- Node18&#45;&gt;Node17 -->
<g id="edge21" class="edge">
<title>Node18&#45;&gt;Node17</title>
<path fill="none" stroke="#9a32cd" stroke-dasharray="5,2" d="M197.71,-58C233.9,-58 291.76,-58 335.92,-58"/>
<polygon fill="#9a32cd" stroke="#9a32cd" points="197.66,-54.5 187.66,-58 197.66,-61.5 197.66,-54.5"/>
<text text-anchor="middle" x="272" y="-61" font-family="Helvetica,sans-Serif" font-size="10.00"> elements</text>
</g>
<!-- Node19 -->
<g id="node19" class="node">
<title>Node19</title>
<g id="a_node19"><a xlink:title=" ">
<polygon fill="none" stroke="#bfbfbf" points="865.5,-0.5 865.5,-19.5 1007.5,-19.5 1007.5,-0.5 865.5,-0.5"/>
<text text-anchor="middle" x="936.5" y="-7.5" font-family="Helvetica,sans-Serif" font-size="10.00">static constexpr unsigned</text>
</a>
</g>
</g>
<!-- Node19&#45;&gt;Node1 -->
<g id="edge23" class="edge">
<title>Node19&#45;&gt;Node1</title>
<path fill="none" stroke="#9a32cd" stroke-dasharray="5,2" d="M1017.83,-1.71C1046.17,-1.07 1077.94,-2.99 1106,-11 1139.5,-20.57 1172.87,-45.6 1189.55,-59.45"/>
<polygon fill="#9a32cd" stroke="#9a32cd" points="1017.44,1.78 1007.56,-2.05 1017.67,-5.21 1017.44,1.78"/>
<text text-anchor="middle" x="1073.5" y="-47" font-family="Helvetica,sans-Serif" font-size="10.00"> FlagMask</text>
<text text-anchor="middle" x="1073.5" y="-36" font-family="Helvetica,sans-Serif" font-size="10.00">LookupDepth</text>
<text text-anchor="middle" x="1073.5" y="-25" font-family="Helvetica,sans-Serif" font-size="10.00">LenMask</text>
<text text-anchor="middle" x="1073.5" y="-14" font-family="Helvetica,sans-Serif" font-size="10.00">PayloadShift</text>
</g>
</g>
</svg>
