<?xml version="1.0" encoding="UTF-8" standalone="no"?>
<!DOCTYPE svg PUBLIC "-//W3C//DTD SVG 1.1//EN"
 "http://www.w3.org/Graphics/SVG/1.1/DTD/svg11.dtd">
<!-- Generated by graphviz version 2.43.0 (0)
 -->
<!-- Title: rawspeed::HuffmanTableLUT Pages: 1 -->
<!--zoomable 424 -->
<svg id="main" version="1.1" xmlns="http://www.w3.org/2000/svg" xmlns:xlink="http://www.w3.org/1999/xlink" xml:space="preserve" onload="init(evt)">
<style type="text/css"><![CDATA[
.edge:hover path { stroke: red; }
.edge:hover polygon { stroke: red; fill: red; }
]]></style>
<script type="text/javascript"><![CDATA[
var edges = document.getElementsByTagName('g');
if (edges && edges.length) {
  for (var i=0;i<edges.length;i++) {
    if (edges[i].id.substr(0,4)=='edge') {
      edges[i].setAttribute('class','edge');
    }
  }
}
]]></script>
        <defs>
                <circle id="rim" cx="0" cy="0" r="7"/>
                <circle id="rim2" cx="0" cy="0" r="3.5"/>
                <g id="zoomPlus">
                        <use xlink:href="#rim" fill="#404040">
                                <set attributeName="fill" to="#808080" begin="zoomplus.mouseover" end="zoomplus.mouseout"/>
                        </use>
                        <path d="M-4,0h8M0,-4v8" fill="none" stroke="white" stroke-width="1.5" pointer-events="none"/>
                </g>
                <g id="zoomMin">
                        <use xlink:href="#rim" fill="#404040">
                                <set attributeName="fill" to="#808080" begin="zoomminus.mouseover" end="zoomminus.mouseout"/>
                        </use>
                        <path d="M-4,0h8" fill="none" stroke="white" stroke-width="1.5" pointer-events="none"/>
                </g>
                <g id="dirArrow">
                        <path fill="none" stroke="white" stroke-width="1.5" d="M0,-3.0v7 M-2.5,-0.5L0,-3.0L2.5,-0.5"/>
                </g>
               <g id="resetDef">
                       <use xlink:href="#rim2" fill="#404040">
                               <set attributeName="fill" to="#808080" begin="reset.mouseover" end="reset.mouseout"/>
                       </use>
               </g>
        </defs>

<script type="text/javascript">
var viewWidth = 1223;
var viewHeight = 424;
var sectionId = 'dynsection-1';
</script>
<script xlink:href="../../svgpan.js"/>
<svg id="graph" class="graph">
<g id="viewport">
<title>rawspeed::HuffmanTableLUT</title>
<!-- Node1 -->
<g id="node1" class="node">
<title>Node1</title>
<g id="a_node1"><a xlink:title=" ">
<polygon fill="#bfbfbf" stroke="black" points="1060,-259.5 1060,-278.5 1215,-278.5 1215,-259.5 1060,-259.5"/>
<text text-anchor="middle" x="1137.5" y="-266.5" font-family="Helvetica,sans-Serif" font-size="10.00">rawspeed::HuffmanTableLUT</text>
</a>
</g>
</g>
<!-- Node2 -->
<g id="node2" class="node">
<title>Node2</title>
<g id="a_node2"><a xlink:href="../../d4/d72/classrawspeed_1_1_huffman_table_lookup.html" target="_top" xlink:title=" ">
<polygon fill="none" stroke="black" points="850,-259.5 850,-278.5 1023,-278.5 1023,-259.5 850,-259.5"/>
<text text-anchor="middle" x="936.5" y="-266.5" font-family="Helvetica,sans-Serif" font-size="10.00">rawspeed::HuffmanTableLookup</text>
</a>
</g>
</g>
<!-- Node2&#45;&gt;Node1 -->
<g id="edge1" class="edge">
<title>Node2&#45;&gt;Node1</title>
<path fill="none" stroke="midnightblue" d="M1033.12,-269C1042.07,-269 1051.07,-269 1059.81,-269"/>
<polygon fill="midnightblue" stroke="midnightblue" points="1033.05,-265.5 1023.05,-269 1033.05,-272.5 1033.05,-265.5"/>
</g>
<!-- Node3 -->
<g id="node3" class="node">
<title>Node3</title>
<g id="a_node3"><a xlink:href="../../d8/d1c/classrawspeed_1_1_abstract_huffman_table.html" target="_top" xlink:title=" ">
<polygon fill="none" stroke="black" points="588,-152 588,-182 740,-182 740,-152 588,-152"/>
<text text-anchor="start" x="596" y="-170" font-family="Helvetica,sans-Serif" font-size="10.00">rawspeed::AbstractHuffman</text>
<text text-anchor="middle" x="664" y="-159" font-family="Helvetica,sans-Serif" font-size="10.00">Table</text>
</a>
</g>
</g>
<!-- Node3&#45;&gt;Node2 -->
<g id="edge2" class="edge">
<title>Node3&#45;&gt;Node2</title>
<path fill="none" stroke="midnightblue" d="M714.56,-185.69C772.28,-207.45 865.42,-242.57 910.05,-259.4"/>
<polygon fill="midnightblue" stroke="midnightblue" points="715.51,-182.3 704.91,-182.05 713.04,-188.85 715.51,-182.3"/>
</g>
<!-- Node4 -->
<g id="node4" class="node">
<title>Node4</title>
<g id="a_node4"><a xlink:title=" ">
<polygon fill="none" stroke="#bfbfbf" points="375.5,-192.5 375.5,-211.5 421.5,-211.5 421.5,-192.5 375.5,-192.5"/>
<text text-anchor="middle" x="398.5" y="-199.5" font-family="Helvetica,sans-Serif" font-size="10.00">return</text>
</a>
</g>
</g>
<!-- Node4&#45;&gt;Node3 -->
<g id="edge3" class="edge">
<title>Node4&#45;&gt;Node3</title>
<path fill="none" stroke="#9a32cd" stroke-dasharray="5,2" d="M431.93,-197.92C466.24,-193.58 521.96,-186.46 570,-180 575.82,-179.22 581.84,-178.4 587.89,-177.57"/>
<polygon fill="#9a32cd" stroke="#9a32cd" points="431.06,-194.5 421.58,-199.23 431.94,-201.45 431.06,-194.5"/>
<text text-anchor="middle" x="526" y="-194" font-family="Helvetica,sans-Serif" font-size="10.00"> ret</text>
</g>
<!-- Node5 -->
<g id="node5" class="node">
<title>Node5</title>
<g id="a_node5"><a xlink:title=" ">
<polygon fill="none" stroke="#bfbfbf" points="336,-154.5 336,-173.5 461,-173.5 461,-154.5 336,-154.5"/>
<text text-anchor="middle" x="398.5" y="-161.5" font-family="Helvetica,sans-Serif" font-size="10.00">std::vector&lt; uint8_t &gt;</text>
</a>
</g>
</g>
<!-- Node5&#45;&gt;Node3 -->
<g id="edge4" class="edge">
<title>Node5&#45;&gt;Node3</title>
<path fill="none" stroke="#9a32cd" stroke-dasharray="5,2" d="M471.74,-164.82C507.84,-165.23 551.5,-165.73 587.99,-166.15"/>
<polygon fill="#9a32cd" stroke="#9a32cd" points="471.32,-161.32 461.28,-164.7 471.24,-168.32 471.32,-161.32"/>
<text text-anchor="middle" x="526" y="-168" font-family="Helvetica,sans-Serif" font-size="10.00"> codeValues</text>
</g>
<!-- Node6 -->
<g id="node6" class="node">
<title>Node6</title>
<g id="a_node6"><a xlink:title=" ">
<polygon fill="none" stroke="#bfbfbf" points="137.5,-154.5 137.5,-173.5 187.5,-173.5 187.5,-154.5 137.5,-154.5"/>
<text text-anchor="middle" x="162.5" y="-161.5" font-family="Helvetica,sans-Serif" font-size="10.00">uint8_t</text>
</a>
</g>
</g>
<!-- Node6&#45;&gt;Node5 -->
<g id="edge5" class="edge">
<title>Node6&#45;&gt;Node5</title>
<path fill="none" stroke="#9a32cd" stroke-dasharray="5,2" d="M197.71,-164C233.9,-164 291.76,-164 335.92,-164"/>
<polygon fill="#9a32cd" stroke="#9a32cd" points="197.66,-160.5 187.66,-164 197.66,-167.5 197.66,-160.5"/>
<text text-anchor="middle" x="272" y="-167" font-family="Helvetica,sans-Serif" font-size="10.00"> elements</text>
</g>
<!-- Node7 -->
<g id="node7" class="node">
<title>Node7</title>
<g id="a_node7"><a xlink:title="STL class.">
<polygon fill="none" stroke="#bfbfbf" points="114,-256.5 114,-275.5 211,-275.5 211,-256.5 114,-256.5"/>
<text text-anchor="middle" x="162.5" y="-263.5" font-family="Helvetica,sans-Serif" font-size="10.00">std::vector&lt; T &gt;</text>
</a>
</g>
</g>
<!-- Node7&#45;&gt;Node5 -->
<g id="edge6" class="edge">
<title>Node7&#45;&gt;Node5</title>
<path fill="none" stroke="orange" stroke-dasharray="5,2" d="M206.22,-253.47C244.68,-241.61 297.73,-223.64 315,-210 326.32,-201.06 321.39,-191.55 333,-183 338.26,-179.12 344.31,-176.03 350.55,-173.57"/>
<polygon fill="orange" stroke="orange" points="204.84,-250.23 196.29,-256.49 206.88,-256.92 204.84,-250.23"/>
<text text-anchor="middle" x="272" y="-247" font-family="Helvetica,sans-Serif" font-size="10.00"> &lt; uint8_t &gt;</text>
</g>
<!-- Node11 -->
<g id="node11" class="node">
<title>Node11</title>
<g id="a_node11"><a xlink:title=" ">
<polygon fill="none" stroke="#bfbfbf" points="336.5,-29 336.5,-59 460.5,-59 460.5,-29 336.5,-29"/>
<text text-anchor="start" x="344.5" y="-47" font-family="Helvetica,sans-Serif" font-size="10.00">std::vector&lt; unsigned</text>
<text text-anchor="middle" x="398.5" y="-36" font-family="Helvetica,sans-Serif" font-size="10.00"> int &gt;</text>
</a>
</g>
</g>
<!-- Node7&#45;&gt;Node11 -->
<g id="edge12" class="edge">
<title>Node7&#45;&gt;Node11</title>
<path fill="none" stroke="orange" stroke-dasharray="5,2" d="M175.97,-247.89C187.81,-232.08 207.02,-209.74 229,-197 263.04,-177.26 288.21,-204.82 315,-176 347.84,-140.68 302.53,-106.38 333,-69 336.19,-65.09 340.06,-61.79 344.32,-59.01"/>
<polygon fill="orange" stroke="orange" points="172.9,-246.16 169.89,-256.31 178.58,-250.25 172.9,-246.16"/>
<text text-anchor="middle" x="272" y="-200" font-family="Helvetica,sans-Serif" font-size="10.00"> &lt; unsigned int &gt;</text>
</g>
<!-- Node14 -->
<g id="node14" class="node">
<title>Node14</title>
<g id="a_node14"><a xlink:title=" ">
<polygon fill="none" stroke="#bfbfbf" points="333,-306.5 333,-325.5 464,-325.5 464,-306.5 333,-306.5"/>
<text text-anchor="middle" x="398.5" y="-313.5" font-family="Helvetica,sans-Serif" font-size="10.00">std::vector&lt; uint16_t &gt;</text>
</a>
</g>
</g>
<!-- Node7&#45;&gt;Node14 -->
<g id="edge16" class="edge">
<title>Node7&#45;&gt;Node14</title>
<path fill="none" stroke="orange" stroke-dasharray="5,2" d="M217.88,-277.62C258.83,-286.37 314.29,-298.22 352.7,-306.43"/>
<polygon fill="orange" stroke="orange" points="218.58,-274.19 208.06,-275.52 217.11,-281.03 218.58,-274.19"/>
<text text-anchor="middle" x="272" y="-299" font-family="Helvetica,sans-Serif" font-size="10.00"> &lt; uint16_t &gt;</text>
</g>
<!-- Node16 -->
<g id="node16" class="node">
<title>Node16</title>
<g id="a_node16"><a xlink:title=" ">
<polygon fill="none" stroke="#bfbfbf" points="333,-268.5 333,-287.5 464,-287.5 464,-268.5 333,-268.5"/>
<text text-anchor="middle" x="398.5" y="-275.5" font-family="Helvetica,sans-Serif" font-size="10.00">std::vector&lt; uint32_t &gt;</text>
</a>
</g>
</g>
<!-- Node7&#45;&gt;Node16 -->
<g id="edge19" class="edge">
<title>Node7&#45;&gt;Node16</title>
<path fill="none" stroke="orange" stroke-dasharray="5,2" d="M221.43,-264.68C249.69,-264.46 284.15,-264.85 315,-267 320.77,-267.4 326.74,-267.95 332.73,-268.58"/>
<polygon fill="orange" stroke="orange" points="221.29,-261.18 211.32,-264.78 221.36,-268.18 221.29,-261.18"/>
<text text-anchor="middle" x="272" y="-270" font-family="Helvetica,sans-Serif" font-size="10.00"> &lt; uint32_t &gt;</text>
</g>
<!-- Node18 -->
<g id="node18" class="node">
<title>Node18</title>
<g id="a_node18"><a xlink:title=" ">
<polygon fill="none" stroke="#bfbfbf" points="336,-345.5 336,-364.5 461,-364.5 461,-345.5 336,-345.5"/>
<text text-anchor="middle" x="398.5" y="-352.5" font-family="Helvetica,sans-Serif" font-size="10.00">std::vector&lt; int32_t &gt;</text>
</a>
</g>
</g>
<!-- Node7&#45;&gt;Node18 -->
<g id="edge22" class="edge">
<title>Node7&#45;&gt;Node18</title>
<path fill="none" stroke="orange" stroke-dasharray="5,2" d="M182.69,-281.87C195.2,-291.52 212.26,-303.4 229,-311 264.92,-327.31 276.83,-323.03 315,-333 330.35,-337.01 347.28,-341.51 361.79,-345.39"/>
<polygon fill="orange" stroke="orange" points="184.83,-279.1 174.82,-275.63 180.48,-284.59 184.83,-279.1"/>
<text text-anchor="middle" x="272" y="-336" font-family="Helvetica,sans-Serif" font-size="10.00"> &lt; int32_t &gt;</text>
</g>
<!-- Node8 -->
<g id="node8" class="node">
<title>Node8</title>
<g id="a_node8"><a xlink:title=" ">
<polygon fill="none" stroke="#bfbfbf" points="0,-256.5 0,-275.5 29,-275.5 29,-256.5 0,-256.5"/>
<text text-anchor="middle" x="14.5" y="-263.5" font-family="Helvetica,sans-Serif" font-size="10.00">T</text>
</a>
</g>
</g>
<!-- Node8&#45;&gt;Node7 -->
<g id="edge7" class="edge">
<title>Node8&#45;&gt;Node7</title>
<path fill="none" stroke="#9a32cd" stroke-dasharray="5,2" d="M39.39,-266C59.54,-266 89.02,-266 113.96,-266"/>
<polygon fill="#9a32cd" stroke="#9a32cd" points="39.24,-262.5 29.24,-266 39.24,-269.5 39.24,-262.5"/>
<text text-anchor="middle" x="71.5" y="-269" font-family="Helvetica,sans-Serif" font-size="10.00"> elements</text>
</g>
<!-- Node9 -->
<g id="node9" class="node">
<title>Node9</title>
<g id="a_node9"><a xlink:title=" ">
<polygon fill="none" stroke="#bfbfbf" points="384,-116.5 384,-135.5 413,-135.5 413,-116.5 384,-116.5"/>
<text text-anchor="middle" x="398.5" y="-123.5" font-family="Helvetica,sans-Serif" font-size="10.00">int</text>
</a>
</g>
</g>
<!-- Node9&#45;&gt;Node3 -->
<g id="edge8" class="edge">
<title>Node9&#45;&gt;Node3</title>
<path fill="none" stroke="#9a32cd" stroke-dasharray="5,2" d="M423.29,-128.77C456.3,-132.72 517.83,-140.44 570,-149 575.84,-149.96 581.88,-151 587.94,-152.09"/>
<polygon fill="#9a32cd" stroke="#9a32cd" points="423.58,-125.28 413.24,-127.58 422.76,-132.24 423.58,-125.28"/>
<text text-anchor="middle" x="526" y="-152" font-family="Helvetica,sans-Serif" font-size="10.00"> len</text>
</g>
<!-- Node10 -->
<g id="node10" class="node">
<title>Node10</title>
<g id="a_node10"><a xlink:title=" ">
<polygon fill="none" stroke="#bfbfbf" points="379.5,-78.5 379.5,-97.5 417.5,-97.5 417.5,-78.5 379.5,-78.5"/>
<text text-anchor="middle" x="398.5" y="-85.5" font-family="Helvetica,sans-Serif" font-size="10.00">bool</text>
</a>
</g>
</g>
<!-- Node10&#45;&gt;Node3 -->
<g id="edge9" class="edge">
<title>Node10&#45;&gt;Node3</title>
<path fill="none" stroke="#9a32cd" stroke-dasharray="5,2" d="M428.04,-88.06C462.6,-88.95 522.12,-93.11 570,-110 597.68,-119.76 625.94,-138.6 643.92,-151.94"/>
<polygon fill="#9a32cd" stroke="#9a32cd" points="427.81,-84.56 417.74,-87.88 427.68,-91.56 427.81,-84.56"/>
<text text-anchor="middle" x="526" y="-124" font-family="Helvetica,sans-Serif" font-size="10.00"> fullDecode</text>
<text text-anchor="middle" x="526" y="-113" font-family="Helvetica,sans-Serif" font-size="10.00">fixDNGBug16</text>
</g>
<!-- Node11&#45;&gt;Node3 -->
<g id="edge10" class="edge">
<title>Node11&#45;&gt;Node3</title>
<path fill="none" stroke="#9a32cd" stroke-dasharray="5,2" d="M470.8,-48.58C502.57,-52.89 539.6,-61.17 570,-77 605.27,-95.37 636.23,-131.36 651.97,-151.83"/>
<polygon fill="#9a32cd" stroke="#9a32cd" points="471.04,-45.08 460.68,-47.31 470.17,-52.03 471.04,-45.08"/>
<text text-anchor="middle" x="526" y="-80" font-family="Helvetica,sans-Serif" font-size="10.00"> nCodesPerLength</text>
</g>
<!-- Node12 -->
<g id="node12" class="node">
<title>Node12</title>
<g id="a_node12"><a xlink:title=" ">
<polygon fill="none" stroke="#bfbfbf" points="132,-7.5 132,-26.5 193,-26.5 193,-7.5 132,-7.5"/>
<text text-anchor="middle" x="162.5" y="-14.5" font-family="Helvetica,sans-Serif" font-size="10.00">unsigned</text>
</a>
</g>
</g>
<!-- Node12&#45;&gt;Node1 -->
<g id="edge23" class="edge">
<title>Node12&#45;&gt;Node1</title>
<path fill="none" stroke="#9a32cd" stroke-dasharray="5,2" d="M202.96,-12.38C249.42,-7.35 328.96,0 397.5,0 397.5,0 397.5,0 937.5,0 1069.37,0 1123.84,-211.51 1134.49,-259.43"/>
<polygon fill="#9a32cd" stroke="#9a32cd" points="202.56,-8.9 193,-13.48 203.32,-15.86 202.56,-8.9"/>
<text text-anchor="middle" x="664" y="-36" font-family="Helvetica,sans-Serif" font-size="10.00"> FlagMask</text>
<text text-anchor="middle" x="664" y="-25" font-family="Helvetica,sans-Serif" font-size="10.00">LookupDepth</text>
<text text-anchor="middle" x="664" y="-14" font-family="Helvetica,sans-Serif" font-size="10.00">LenMask</text>
<text text-anchor="middle" x="664" y="-3" font-family="Helvetica,sans-Serif" font-size="10.00">PayloadShift</text>
</g>
<!-- Node12&#45;&gt;Node11 -->
<g id="edge11" class="edge">
<title>Node12&#45;&gt;Node11</title>
<path fill="none" stroke="#9a32cd" stroke-dasharray="5,2" d="M203.37,-21.6C239.79,-25.8 294.19,-32.08 336.15,-36.92"/>
<polygon fill="#9a32cd" stroke="#9a32cd" points="203.47,-18.09 193.14,-20.42 202.67,-25.04 203.47,-18.09"/>
<text text-anchor="middle" x="272" y="-37" font-family="Helvetica,sans-Serif" font-size="10.00"> elements</text>
</g>
<!-- Node13 -->
<g id="node13" class="node">
<title>Node13</title>
<g id="a_node13"><a xlink:title=" ">
<polygon fill="none" stroke="#bfbfbf" points="379.5,-230.5 379.5,-249.5 417.5,-249.5 417.5,-230.5 379.5,-230.5"/>
<text text-anchor="middle" x="398.5" y="-237.5" font-family="Helvetica,sans-Serif" font-size="10.00">auto</text>
</a>
</g>
</g>
<!-- Node13&#45;&gt;Node3 -->
<g id="edge13" class="edge">
<title>Node13&#45;&gt;Node3</title>
<path fill="none" stroke="#9a32cd" stroke-dasharray="5,2" d="M427.9,-236.12C462.1,-231.04 521.04,-220.98 570,-206 590.93,-199.6 613.59,-190.15 631.31,-182.15"/>
<polygon fill="#9a32cd" stroke="#9a32cd" points="427.11,-232.7 417.71,-237.59 428.11,-239.62 427.11,-232.7"/>
<text text-anchor="middle" x="526" y="-229" font-family="Helvetica,sans-Serif" font-size="10.00"> ret</text>
</g>
<!-- Node14&#45;&gt;Node2 -->
<g id="edge14" class="edge">
<title>Node14&#45;&gt;Node2</title>
<path fill="none" stroke="#9a32cd" stroke-dasharray="5,2" d="M474.36,-312.5C560.73,-308.02 706.93,-299.13 832,-285 847.45,-283.26 864.12,-280.89 879.48,-278.52"/>
<polygon fill="#9a32cd" stroke="#9a32cd" points="473.94,-309.01 464.13,-313.02 474.3,-316 473.94,-309.01"/>
<text text-anchor="middle" x="664" y="-308" font-family="Helvetica,sans-Serif" font-size="10.00"> codeOffsetOL</text>
</g>
<!-- Node15 -->
<g id="node15" class="node">
<title>Node15</title>
<g id="a_node15"><a xlink:href="../../d5/df4/classuint16__t.html" target="_top" xlink:title=" ">
<polygon fill="none" stroke="black" points="134.5,-358.5 134.5,-377.5 190.5,-377.5 190.5,-358.5 134.5,-358.5"/>
<text text-anchor="middle" x="162.5" y="-365.5" font-family="Helvetica,sans-Serif" font-size="10.00">uint16_t</text>
</a>
</g>
</g>
<!-- Node15&#45;&gt;Node14 -->
<g id="edge15" class="edge">
<title>Node15&#45;&gt;Node14</title>
<path fill="none" stroke="#9a32cd" stroke-dasharray="5,2" d="M200.74,-366.35C231.96,-364.09 277.33,-358.72 315,-346 323.67,-343.07 324.58,-339.6 333,-336 342.27,-332.04 352.59,-328.48 362.21,-325.5"/>
<polygon fill="#9a32cd" stroke="#9a32cd" points="200.48,-362.86 190.73,-367 200.94,-369.84 200.48,-362.86"/>
<text text-anchor="middle" x="272" y="-366" font-family="Helvetica,sans-Serif" font-size="10.00"> elements</text>
</g>
<!-- Node16&#45;&gt;Node2 -->
<g id="edge17" class="edge">
<title>Node16&#45;&gt;Node2</title>
<path fill="none" stroke="#9a32cd" stroke-dasharray="5,2" d="M474.34,-276.74C572.97,-275.09 746.07,-272.18 849.83,-270.44"/>
<polygon fill="#9a32cd" stroke="#9a32cd" points="474.09,-273.25 464.15,-276.91 474.21,-280.25 474.09,-273.25"/>
<text text-anchor="middle" x="664" y="-277" font-family="Helvetica,sans-Serif" font-size="10.00"> maxCodeOL</text>
</g>
<!-- Node17 -->
<g id="node17" class="node">
<title>Node17</title>
<g id="a_node17"><a xlink:href="../../d3/d87/classuint32__t.html" target="_top" xlink:title=" ">
<polygon fill="none" stroke="black" points="134.5,-116.5 134.5,-135.5 190.5,-135.5 190.5,-116.5 134.5,-116.5"/>
<text text-anchor="middle" x="162.5" y="-123.5" font-family="Helvetica,sans-Serif" font-size="10.00">uint32_t</text>
</a>
</g>
</g>
<!-- Node17&#45;&gt;Node16 -->
<g id="edge18" class="edge">
<title>Node17&#45;&gt;Node16</title>
<path fill="none" stroke="#9a32cd" stroke-dasharray="5,2" d="M200.76,-120.47C235.18,-117.64 285.34,-119.68 315,-149 350.23,-183.83 300.21,-221.86 333,-259 336.4,-262.85 340.54,-265.94 345.06,-268.41"/>
<polygon fill="#9a32cd" stroke="#9a32cd" points="200.23,-117.01 190.63,-121.48 200.93,-123.97 200.23,-117.01"/>
<text text-anchor="middle" x="272" y="-152" font-family="Helvetica,sans-Serif" font-size="10.00"> elements</text>
</g>
<!-- Node18&#45;&gt;Node1 -->
<g id="edge20" class="edge">
<title>Node18&#45;&gt;Node1</title>
<path fill="none" stroke="#9a32cd" stroke-dasharray="5,2" d="M471.36,-348.79C587.58,-338.42 823.89,-315.9 1023,-288 1042.69,-285.24 1064.22,-281.76 1083.18,-278.53"/>
<polygon fill="#9a32cd" stroke="#9a32cd" points="470.82,-345.33 461.17,-349.7 471.44,-352.3 470.82,-345.33"/>
<text text-anchor="middle" x="795" y="-323" font-family="Helvetica,sans-Serif" font-size="10.00"> decodeLookup</text>
</g>
<!-- Node19 -->
<g id="node19" class="node">
<title>Node19</title>
<g id="a_node19"><a xlink:href="../../de/d73/classint32__t.html" target="_top" xlink:title=" ">
<polygon fill="none" stroke="black" points="137.5,-396.5 137.5,-415.5 187.5,-415.5 187.5,-396.5 137.5,-396.5"/>
<text text-anchor="middle" x="162.5" y="-403.5" font-family="Helvetica,sans-Serif" font-size="10.00">int32_t</text>
</a>
</g>
</g>
<!-- Node19&#45;&gt;Node18 -->
<g id="edge21" class="edge">
<title>Node19&#45;&gt;Node18</title>
<path fill="none" stroke="#9a32cd" stroke-dasharray="5,2" d="M197.88,-402.53C228.81,-399 275.35,-392.66 315,-383 334.84,-378.17 356.7,-370.65 372.93,-364.61"/>
<polygon fill="#9a32cd" stroke="#9a32cd" points="197.19,-399.09 187.63,-403.67 197.96,-406.05 197.19,-399.09"/>
<text text-anchor="middle" x="272" y="-401" font-family="Helvetica,sans-Serif" font-size="10.00"> elements</text>
</g>
</g>
</svg>
        <g id="navigator" transform="translate(0 0)" fill="#404254">
                <rect fill="#f2f5e9" fill-opacity="0.5" stroke="#606060" stroke-width=".5" x="0" y="0" width="60" height="60"/>
                <use id="zoomplus" xlink:href="#zoomPlus" x="17" y="9" onmousedown="handleZoom(evt,'in')"/>
                <use id="zoomminus" xlink:href="#zoomMin" x="42" y="9" onmousedown="handleZoom(evt,'out')"/>
                <use id="reset" xlink:href="#resetDef" x="30" y="36" onmousedown="handleReset()"/>
                <g id="arrowUp" xlink:href="#dirArrow" transform="translate(30 24)" onmousedown="handlePan(0,-1)">
                  <use xlink:href="#rim" fill="#404040">
                        <set attributeName="fill" to="#808080" begin="arrowUp.mouseover" end="arrowUp.mouseout"/>
                  </use>
                  <path fill="none" stroke="white" stroke-width="1.5" d="M0,-3.0v7 M-2.5,-0.5L0,-3.0L2.5,-0.5"/>
                </g>
                <g id="arrowRight" xlink:href="#dirArrow" transform="rotate(90) translate(36 -43)" onmousedown="handlePan(1,0)">
                  <use xlink:href="#rim" fill="#404040">
                        <set attributeName="fill" to="#808080" begin="arrowRight.mouseover" end="arrowRight.mouseout"/>
                  </use>
                  <path fill="none" stroke="white" stroke-width="1.5" d="M0,-3.0v7 M-2.5,-0.5L0,-3.0L2.5,-0.5"/>
                </g>
                <g id="arrowDown" xlink:href="#dirArrow" transform="rotate(180) translate(-30 -48)" onmousedown="handlePan(0,1)">
                  <use xlink:href="#rim" fill="#404040">
                        <set attributeName="fill" to="#808080" begin="arrowDown.mouseover" end="arrowDown.mouseout"/>
                  </use>
                  <path fill="none" stroke="white" stroke-width="1.5" d="M0,-3.0v7 M-2.5,-0.5L0,-3.0L2.5,-0.5"/>
                </g>
                <g id="arrowLeft" xlink:href="#dirArrow" transform="rotate(270) translate(-36 17)" onmousedown="handlePan(-1,0)">
                  <use xlink:href="#rim" fill="#404040">
                        <set attributeName="fill" to="#808080" begin="arrowLeft.mouseover" end="arrowLeft.mouseout"/>
                  </use>
                  <path fill="none" stroke="white" stroke-width="1.5" d="M0,-3.0v7 M-2.5,-0.5L0,-3.0L2.5,-0.5"/>
                </g>
        </g>
        <svg viewBox="0 0 15 15" width="100%" height="30px" preserveAspectRatio="xMaxYMin meet">
         <g id="arrow_out" transform="scale(0.3 0.3)">
          <a xlink:href="classrawspeed_1_1_huffman_table_l_u_t__coll__graph_org.svg" target="_base">
           <rect id="button" ry="5" rx="5" y="6" x="6" height="38" width="38"
                fill="#f2f5e9" fill-opacity="0.5" stroke="#606060" stroke-width="1.0"/>
           <path id="arrow"
             d="M 11.500037,31.436501 C 11.940474,20.09759 22.043105,11.32322 32.158766,21.979434 L 37.068811,17.246167 C 37.068811,17.246167 37.088388,32 37.088388,32 L 22.160133,31.978069 C 22.160133,31.978069 26.997745,27.140456 26.997745,27.140456 C 18.528582,18.264221 13.291696,25.230495 11.500037,31.436501 z"
             style="fill:#404040;"/>
          </a>
         </g>
        </svg>
</svg>
