<?xml version="1.0" encoding="UTF-8" standalone="no"?>
<!DOCTYPE svg PUBLIC "-//W3C//DTD SVG 1.1//EN"
 "http://www.w3.org/Graphics/SVG/1.1/DTD/svg11.dtd">
<!-- Generated by graphviz version 2.43.0 (0)
 -->
<!-- Title: librawspeed/common/Optional.h Pages: 1 -->
<svg width="524pt" height="184pt"
 viewBox="0.00 0.00 523.50 184.00" xmlns="http://www.w3.org/2000/svg" xmlns:xlink="http://www.w3.org/1999/xlink">
<g id="graph0" class="graph" transform="scale(1 1) rotate(0) translate(4 180)">
<title>librawspeed/common/Optional.h</title>
<!-- Node1 -->
<g id="node1" class="node">
<title>Node1</title>
<g id="a_node1"><a xlink:title=" ">
<polygon fill="#bfbfbf" stroke="black" points="287,-145.5 287,-175.5 409,-175.5 409,-145.5 287,-145.5"/>
<text text-anchor="start" x="295" y="-163.5" font-family="Helvetica,sans-Serif" font-size="10.00">librawspeed/common</text>
<text text-anchor="middle" x="348" y="-152.5" font-family="Helvetica,sans-Serif" font-size="10.00">/Optional.h</text>
</a>
</g>
</g>
<!-- Node2 -->
<g id="node2" class="node">
<title>Node2</title>
<g id="a_node2"><a xlink:href="../../d1/d9c/_v_c5_decompressor_8h.html" target="_top" xlink:title=" ">
<polygon fill="none" stroke="black" points="219.5,-78.5 219.5,-108.5 372.5,-108.5 372.5,-78.5 219.5,-78.5"/>
<text text-anchor="start" x="227.5" y="-96.5" font-family="Helvetica,sans-Serif" font-size="10.00">librawspeed/decompressors</text>
<text text-anchor="middle" x="296" y="-85.5" font-family="Helvetica,sans-Serif" font-size="10.00">/VC5Decompressor.h</text>
</a>
</g>
</g>
<!-- Node1&#45;&gt;Node2 -->
<g id="edge1" class="edge">
<title>Node1&#45;&gt;Node2</title>
<path fill="none" stroke="midnightblue" d="M330.36,-137.45C322.72,-127.9 314,-117 307.26,-108.58"/>
<polygon fill="midnightblue" stroke="midnightblue" points="327.74,-139.77 336.72,-145.4 333.2,-135.4 327.74,-139.77"/>
</g>
<!-- Node5 -->
<g id="node5" class="node">
<title>Node5</title>
<g id="a_node5"><a xlink:href="../../d4/dce/src_2librawspeed_2decompressors_2_v_c5_decompressor_8cpp.html" target="_top" xlink:title=" ">
<polygon fill="none" stroke="black" points="362.5,-6 362.5,-36 515.5,-36 515.5,-6 362.5,-6"/>
<text text-anchor="start" x="370.5" y="-24" font-family="Helvetica,sans-Serif" font-size="10.00">librawspeed/decompressors</text>
<text text-anchor="middle" x="439" y="-13" font-family="Helvetica,sans-Serif" font-size="10.00">/VC5Decompressor.cpp</text>
</a>
</g>
</g>
<!-- Node1&#45;&gt;Node5 -->
<g id="edge5" class="edge">
<title>Node1&#45;&gt;Node5</title>
<path fill="none" stroke="midnightblue" d="M363.31,-136.89C369.18,-128.19 375.92,-118.15 382,-109 398.98,-83.43 418.55,-53.45 429.77,-36.2"/>
<polygon fill="midnightblue" stroke="midnightblue" points="360.27,-135.14 357.57,-145.38 366.07,-139.06 360.27,-135.14"/>
</g>
<!-- Node3 -->
<g id="node3" class="node">
<title>Node3</title>
<g id="a_node3"><a xlink:href="../../d7/dda/fuzz_2librawspeed_2decompressors_2_v_c5_decompressor_8cpp.html" target="_top" xlink:title=" ">
<polygon fill="none" stroke="black" points="0,-0.5 0,-41.5 156,-41.5 156,-0.5 0,-0.5"/>
<text text-anchor="start" x="8" y="-29.5" font-family="Helvetica,sans-Serif" font-size="10.00">/build/rawspeed/fuzz</text>
<text text-anchor="start" x="8" y="-18.5" font-family="Helvetica,sans-Serif" font-size="10.00">/librawspeed/decompressors</text>
<text text-anchor="middle" x="78" y="-7.5" font-family="Helvetica,sans-Serif" font-size="10.00">/VC5Decompressor.cpp</text>
</a>
</g>
</g>
<!-- Node2&#45;&gt;Node3 -->
<g id="edge2" class="edge">
<title>Node2&#45;&gt;Node3</title>
<path fill="none" stroke="midnightblue" d="M242.76,-75.28C211.27,-65.1 171.28,-52.17 138.58,-41.59"/>
<polygon fill="midnightblue" stroke="midnightblue" points="242.08,-78.74 252.67,-78.49 244.23,-72.08 242.08,-78.74"/>
</g>
<!-- Node4 -->
<g id="node4" class="node">
<title>Node4</title>
<g id="a_node4"><a xlink:href="../../d4/dd6/_abstract_dng_decompressor_8cpp.html" target="_top" xlink:title=" ">
<polygon fill="none" stroke="black" points="174,-6 174,-36 344,-36 344,-6 174,-6"/>
<text text-anchor="start" x="182" y="-24" font-family="Helvetica,sans-Serif" font-size="10.00">librawspeed/decompressors</text>
<text text-anchor="middle" x="259" y="-13" font-family="Helvetica,sans-Serif" font-size="10.00">/AbstractDngDecompressor.cpp</text>
</a>
</g>
</g>
<!-- Node2&#45;&gt;Node4 -->
<g id="edge3" class="edge">
<title>Node2&#45;&gt;Node4</title>
<path fill="none" stroke="midnightblue" d="M283.79,-69.23C278.07,-58.33 271.44,-45.7 266.48,-36.25"/>
<polygon fill="midnightblue" stroke="midnightblue" points="280.77,-71.01 288.51,-78.23 286.96,-67.75 280.77,-71.01"/>
</g>
<!-- Node2&#45;&gt;Node5 -->
<g id="edge4" class="edge">
<title>Node2&#45;&gt;Node5</title>
<path fill="none" stroke="midnightblue" d="M333.78,-73.87C357.82,-62.02 388.45,-46.92 410.46,-36.07"/>
<polygon fill="midnightblue" stroke="midnightblue" points="332.02,-70.84 324.59,-78.4 335.11,-77.12 332.02,-70.84"/>
</g>
</g>
</svg>
