<?xml version="1.0" encoding="UTF-8" standalone="no"?>
<!DOCTYPE svg PUBLIC "-//W3C//DTD SVG 1.1//EN"
 "http://www.w3.org/Graphics/SVG/1.1/DTD/svg11.dtd">
<!-- Generated by graphviz version 2.43.0 (0)
 -->
<!-- Title: librawspeed/parsers/FiffParserException.h Pages: 1 -->
<svg width="431pt" height="117pt"
 viewBox="0.00 0.00 431.00 117.00" xmlns="http://www.w3.org/2000/svg" xmlns:xlink="http://www.w3.org/1999/xlink">
<g id="graph0" class="graph" transform="scale(1 1) rotate(0) translate(4 113)">
<title>librawspeed/parsers/FiffParserException.h</title>
<!-- Node1 -->
<g id="node1" class="node">
<title>Node1</title>
<g id="a_node1"><a xlink:title=" ">
<polygon fill="#bfbfbf" stroke="black" points="130,-78.5 130,-108.5 251,-108.5 251,-78.5 130,-78.5"/>
<text text-anchor="start" x="138" y="-96.5" font-family="Helvetica,sans-Serif" font-size="10.00">librawspeed/parsers</text>
<text text-anchor="middle" x="190.5" y="-85.5" font-family="Helvetica,sans-Serif" font-size="10.00">/FiffParserException.h</text>
</a>
</g>
</g>
<!-- Node2 -->
<g id="node2" class="node">
<title>Node2</title>
<g id="a_node2"><a xlink:href="../../d2/d87/_fiff_parser_8cpp.html" target="_top" xlink:title=" ">
<polygon fill="none" stroke="black" points="0,-6 0,-36 115,-36 115,-6 0,-6"/>
<text text-anchor="start" x="8" y="-24" font-family="Helvetica,sans-Serif" font-size="10.00">librawspeed/parsers</text>
<text text-anchor="middle" x="57.5" y="-13" font-family="Helvetica,sans-Serif" font-size="10.00">/FiffParser.cpp</text>
</a>
</g>
</g>
<!-- Node1&#45;&gt;Node2 -->
<g id="edge1" class="edge">
<title>Node1&#45;&gt;Node2</title>
<path fill="none" stroke="midnightblue" d="M155.06,-73.72C132.75,-61.89 104.42,-46.87 84.05,-36.07"/>
<polygon fill="midnightblue" stroke="midnightblue" points="153.43,-76.81 163.91,-78.4 156.71,-70.63 153.43,-76.81"/>
</g>
<!-- Node3 -->
<g id="node3" class="node">
<title>Node3</title>
<g id="a_node3"><a xlink:href="../../dc/d4a/_raw_parser_8cpp.html" target="_top" xlink:title=" ">
<polygon fill="none" stroke="black" points="133,-6 133,-36 248,-36 248,-6 133,-6"/>
<text text-anchor="start" x="141" y="-24" font-family="Helvetica,sans-Serif" font-size="10.00">librawspeed/parsers</text>
<text text-anchor="middle" x="190.5" y="-13" font-family="Helvetica,sans-Serif" font-size="10.00">/RawParser.cpp</text>
</a>
</g>
</g>
<!-- Node1&#45;&gt;Node3 -->
<g id="edge2" class="edge">
<title>Node1&#45;&gt;Node3</title>
<path fill="none" stroke="midnightblue" d="M190.5,-68.23C190.5,-57.57 190.5,-45.41 190.5,-36.25"/>
<polygon fill="midnightblue" stroke="midnightblue" points="187,-68.23 190.5,-78.23 194,-68.23 187,-68.23"/>
</g>
<!-- Node4 -->
<g id="node4" class="node">
<title>Node4</title>
<g id="a_node4"><a xlink:href="../../db/d1b/_exceptions_test_8cpp.html" target="_top" xlink:title=" ">
<polygon fill="none" stroke="black" points="266,-0.5 266,-41.5 423,-41.5 423,-0.5 266,-0.5"/>
<text text-anchor="start" x="274" y="-29.5" font-family="Helvetica,sans-Serif" font-size="10.00">/build/rawspeed/test</text>
<text text-anchor="start" x="274" y="-18.5" font-family="Helvetica,sans-Serif" font-size="10.00">/librawspeed/test/Exceptions</text>
<text text-anchor="middle" x="344.5" y="-7.5" font-family="Helvetica,sans-Serif" font-size="10.00">Test.cpp</text>
</a>
</g>
</g>
<!-- Node1&#45;&gt;Node4 -->
<g id="edge3" class="edge">
<title>Node1&#45;&gt;Node4</title>
<path fill="none" stroke="midnightblue" d="M230.63,-74.13C252.49,-64.12 279.55,-51.73 301.8,-41.55"/>
<polygon fill="midnightblue" stroke="midnightblue" points="228.93,-71.06 221.29,-78.4 231.84,-77.42 228.93,-71.06"/>
</g>
</g>
</svg>
