<?xml version="1.0" encoding="UTF-8" standalone="no"?>
<!DOCTYPE svg PUBLIC "-//W3C//DTD SVG 1.1//EN"
 "http://www.w3.org/Graphics/SVG/1.1/DTD/svg11.dtd">
<!-- Generated by graphviz version 2.43.0 (0)
 -->
<!-- Title: rawspeed::CiffIFD Pages: 1 -->
<svg width="2232pt" height="372pt"
 viewBox="0.00 0.00 2232.00 372.00" xmlns="http://www.w3.org/2000/svg" xmlns:xlink="http://www.w3.org/1999/xlink">
<g id="graph0" class="graph" transform="scale(1 1) rotate(0) translate(4 368)">
<title>rawspeed::CiffIFD</title>
<!-- Node1 -->
<g id="node1" class="node">
<title>Node1</title>
<g id="a_node1"><a xlink:title=" ">
<polygon fill="#bfbfbf" stroke="black" points="1527,-214.5 1527,-233.5 1629,-233.5 1629,-214.5 1527,-214.5"/>
<text text-anchor="middle" x="1578" y="-221.5" font-family="Helvetica,sans-Serif" font-size="10.00">rawspeed::CiffIFD</text>
</a>
</g>
</g>
<!-- Node1&#45;&gt;Node1 -->
<g id="edge18" class="edge">
<title>Node1&#45;&gt;Node1</title>
<path fill="none" stroke="#9a32cd" stroke-dasharray="5,2" d="M1554.93,-243.03C1556.19,-248.13 1563.88,-252 1578,-252 1600.04,-252 1606.41,-242.57 1597.11,-233.76"/>
<polygon fill="#9a32cd" stroke="#9a32cd" points="1558.19,-244.33 1558.89,-233.76 1551.75,-241.58 1558.19,-244.33"/>
<text text-anchor="middle" x="1578" y="-255" font-family="Helvetica,sans-Serif" font-size="10.00"> parent</text>
</g>
<!-- Node2 -->
<g id="node2" class="node">
<title>Node2</title>
<g id="a_node2"><a xlink:title=" ">
<polygon fill="none" stroke="#bfbfbf" points="1822,-176 1822,-206 1947,-206 1947,-176 1822,-176"/>
<text text-anchor="start" x="1830" y="-194" font-family="Helvetica,sans-Serif" font-size="10.00">std::vector&lt; const</text>
<text text-anchor="middle" x="1884.5" y="-183" font-family="Helvetica,sans-Serif" font-size="10.00"> rawspeed::CiffIFD * &gt;</text>
</a>
</g>
</g>
<!-- Node1&#45;&gt;Node2 -->
<g id="edge2" class="edge">
<title>Node1&#45;&gt;Node2</title>
<path fill="none" stroke="#9a32cd" stroke-dasharray="5,2" d="M1639.2,-218.82C1682.79,-214.92 1743.1,-209.18 1796,-203 1804.38,-202.02 1813.19,-200.91 1821.87,-199.77"/>
<polygon fill="#9a32cd" stroke="#9a32cd" points="1638.7,-215.35 1629.05,-219.73 1639.32,-222.33 1638.7,-215.35"/>
<text text-anchor="middle" x="1721.5" y="-220" font-family="Helvetica,sans-Serif" font-size="10.00"> elements</text>
</g>
<!-- Node18 -->
<g id="node18" class="node">
<title>Node18</title>
<g id="a_node18"><a xlink:title=" ">
<polygon fill="none" stroke="#bfbfbf" points="1821,-23 1821,-53 1948,-53 1948,-23 1821,-23"/>
<text text-anchor="start" x="1829" y="-41" font-family="Helvetica,sans-Serif" font-size="10.00">std::unique_ptr&lt; const</text>
<text text-anchor="middle" x="1884.5" y="-30" font-family="Helvetica,sans-Serif" font-size="10.00"> rawspeed::CiffIFD &gt;</text>
</a>
</g>
</g>
<!-- Node1&#45;&gt;Node18 -->
<g id="edge21" class="edge">
<title>Node1&#45;&gt;Node18</title>
<path fill="none" stroke="#9a32cd" stroke-dasharray="5,2" d="M1587.05,-205.07C1597.64,-182.29 1618.32,-144.35 1647,-122 1698.21,-82.09 1769.92,-60.18 1820.93,-48.84"/>
<polygon fill="#9a32cd" stroke="#9a32cd" points="1583.78,-203.79 1582.9,-214.35 1590.18,-206.65 1583.78,-203.79"/>
<text text-anchor="middle" x="1721.5" y="-125" font-family="Helvetica,sans-Serif" font-size="10.00"> ptr</text>
</g>
<!-- Node2&#45;&gt;Node1 -->
<g id="edge1" class="edge">
<title>Node2&#45;&gt;Node1</title>
<path fill="none" stroke="#9a32cd" stroke-dasharray="5,2" d="M1811.76,-183.32C1764.4,-180.19 1701.29,-179.74 1647,-192 1627.78,-196.34 1607.58,-206.69 1594.24,-214.46"/>
<polygon fill="#9a32cd" stroke="#9a32cd" points="1811.7,-186.82 1821.92,-184.04 1812.2,-179.84 1811.7,-186.82"/>
<text text-anchor="middle" x="1721.5" y="-195" font-family="Helvetica,sans-Serif" font-size="10.00"> const</text>
</g>
<!-- Node3 -->
<g id="node3" class="node">
<title>Node3</title>
<g id="a_node3"><a xlink:title="STL class.">
<polygon fill="none" stroke="#bfbfbf" points="1529.5,-80.5 1529.5,-99.5 1626.5,-99.5 1626.5,-80.5 1529.5,-80.5"/>
<text text-anchor="middle" x="1578" y="-87.5" font-family="Helvetica,sans-Serif" font-size="10.00">std::vector&lt; T &gt;</text>
</a>
</g>
</g>
<!-- Node3&#45;&gt;Node2 -->
<g id="edge3" class="edge">
<title>Node3&#45;&gt;Node2</title>
<path fill="none" stroke="orange" stroke-dasharray="5,2" d="M1598.92,-106.07C1611.9,-115.8 1629.61,-127.69 1647,-135 1709.44,-161.26 1730.2,-150.92 1796,-167 1807.17,-169.73 1819.09,-172.85 1830.41,-175.93"/>
<polygon fill="orange" stroke="orange" points="1600.8,-103.11 1590.74,-99.77 1596.52,-108.65 1600.8,-103.11"/>
<text text-anchor="middle" x="1721.5" y="-170" font-family="Helvetica,sans-Serif" font-size="10.00"> &lt; const rawspeed::CiffIFD * &gt;</text>
</g>
<!-- Node17 -->
<g id="node17" class="node">
<title>Node17</title>
<g id="a_node17"><a xlink:title=" ">
<polygon fill="none" stroke="#bfbfbf" points="2040,-75 2040,-105 2224,-105 2224,-75 2040,-75"/>
<text text-anchor="start" x="2048" y="-93" font-family="Helvetica,sans-Serif" font-size="10.00">std::vector&lt; std::unique</text>
<text text-anchor="middle" x="2132" y="-82" font-family="Helvetica,sans-Serif" font-size="10.00">_ptr&lt; const rawspeed::CiffIFD &gt; &gt;</text>
</a>
</g>
</g>
<!-- Node3&#45;&gt;Node17 -->
<g id="edge24" class="edge">
<title>Node3&#45;&gt;Node17</title>
<path fill="none" stroke="orange" stroke-dasharray="5,2" d="M1636.63,-90C1732.5,-90 1925.52,-90 2039.96,-90"/>
<polygon fill="orange" stroke="orange" points="1636.54,-86.5 1626.54,-90 1636.54,-93.5 1636.54,-86.5"/>
<text text-anchor="start" x="1814" y="-104" font-family="Helvetica,sans-Serif" font-size="10.00"> &lt; std::unique_ptr&lt;</text>
<text text-anchor="middle" x="1884.5" y="-93" font-family="Helvetica,sans-Serif" font-size="10.00"> const rawspeed::CiffIFD &gt; &gt;</text>
</g>
<!-- Node4 -->
<g id="node4" class="node">
<title>Node4</title>
<g id="a_node4"><a xlink:title=" ">
<polygon fill="none" stroke="#bfbfbf" points="557.5,-29.5 557.5,-48.5 586.5,-48.5 586.5,-29.5 557.5,-29.5"/>
<text text-anchor="middle" x="572" y="-36.5" font-family="Helvetica,sans-Serif" font-size="10.00">T</text>
</a>
</g>
</g>
<!-- Node4&#45;&gt;Node3 -->
<g id="edge4" class="edge">
<title>Node4&#45;&gt;Node3</title>
<path fill="none" stroke="#9a32cd" stroke-dasharray="5,2" d="M596.43,-31.6C634.37,-20.29 711.79,0 779,0 779,0 779,0 1196.5,0 1334.98,0 1494.38,-57.15 1553.42,-80.37"/>
<polygon fill="#9a32cd" stroke="#9a32cd" points="595.36,-28.26 586.82,-34.53 597.4,-34.96 595.36,-28.26"/>
<text text-anchor="middle" x="1089.5" y="-3" font-family="Helvetica,sans-Serif" font-size="10.00"> elements</text>
</g>
<!-- Node19 -->
<g id="node19" class="node">
<title>Node19</title>
<g id="a_node19"><a xlink:title="STL class.">
<polygon fill="none" stroke="#bfbfbf" points="721,-36.5 721,-55.5 839,-55.5 839,-36.5 721,-36.5"/>
<text text-anchor="middle" x="780" y="-43.5" font-family="Helvetica,sans-Serif" font-size="10.00">std::unique_ptr&lt; T &gt;</text>
</a>
</g>
</g>
<!-- Node4&#45;&gt;Node19 -->
<g id="edge23" class="edge">
<title>Node4&#45;&gt;Node19</title>
<path fill="none" stroke="#9a32cd" stroke-dasharray="5,2" d="M596.73,-38.68C622.81,-38.44 665.91,-38.4 703,-40 708.82,-40.25 714.88,-40.59 720.93,-40.99"/>
<polygon fill="#9a32cd" stroke="#9a32cd" points="596.63,-35.18 586.67,-38.79 596.71,-42.18 596.63,-35.18"/>
<text text-anchor="middle" x="678.5" y="-43" font-family="Helvetica,sans-Serif" font-size="10.00"> ptr</text>
</g>
<!-- Node22 -->
<g id="node22" class="node">
<title>Node22</title>
<g id="a_node22"><a xlink:title="STL class.">
<polygon fill="none" stroke="#bfbfbf" points="729.5,-82.5 729.5,-101.5 830.5,-101.5 830.5,-82.5 729.5,-82.5"/>
<text text-anchor="middle" x="780" y="-89.5" font-family="Helvetica,sans-Serif" font-size="10.00">std::map&lt; K, T &gt;</text>
</a>
</g>
</g>
<!-- Node4&#45;&gt;Node22 -->
<g id="edge32" class="edge">
<title>Node4&#45;&gt;Node22</title>
<path fill="none" stroke="#9a32cd" stroke-dasharray="5,2" d="M596.44,-45.03C631.97,-54.17 699.76,-71.61 741.99,-82.48"/>
<polygon fill="#9a32cd" stroke="#9a32cd" points="597.07,-41.58 586.52,-42.48 595.33,-48.36 597.07,-41.58"/>
<text text-anchor="middle" x="678.5" y="-75" font-family="Helvetica,sans-Serif" font-size="10.00"> elements</text>
</g>
<!-- Node5 -->
<g id="node5" class="node">
<title>Node5</title>
<g id="a_node5"><a xlink:href="../../d4/d5a/classrawspeed_1_1_ciff_entry.html" target="_top" xlink:title=" ">
<polygon fill="none" stroke="black" points="724,-258.5 724,-277.5 836,-277.5 836,-258.5 724,-258.5"/>
<text text-anchor="middle" x="780" y="-265.5" font-family="Helvetica,sans-Serif" font-size="10.00">rawspeed::CiffEntry</text>
</a>
</g>
</g>
<!-- Node5&#45;&gt;Node1 -->
<g id="edge5" class="edge">
<title>Node5&#45;&gt;Node1</title>
<path fill="none" stroke="#9a32cd" stroke-dasharray="5,2" d="M846.09,-273.71C974.38,-283.35 1268.38,-297.51 1509,-250 1525.86,-246.67 1544,-239.54 1557.3,-233.59"/>
<polygon fill="#9a32cd" stroke="#9a32cd" points="846.27,-270.21 836.03,-272.93 845.73,-277.19 846.27,-270.21"/>
<text text-anchor="middle" x="1195.5" y="-285" font-family="Helvetica,sans-Serif" font-size="10.00"> const</text>
</g>
<!-- Node21 -->
<g id="node21" class="node">
<title>Node21</title>
<g id="a_node21"><a xlink:title=" ">
<polygon fill="none" stroke="#bfbfbf" points="1026,-144 1026,-174 1153,-174 1153,-144 1026,-144"/>
<text text-anchor="start" x="1034" y="-162" font-family="Helvetica,sans-Serif" font-size="10.00">std::unique_ptr&lt; const</text>
<text text-anchor="middle" x="1089.5" y="-151" font-family="Helvetica,sans-Serif" font-size="10.00"> rawspeed::CiffEntry &gt;</text>
</a>
</g>
</g>
<!-- Node5&#45;&gt;Node21 -->
<g id="edge27" class="edge">
<title>Node5&#45;&gt;Node21</title>
<path fill="none" stroke="#9a32cd" stroke-dasharray="5,2" d="M789.47,-248.98C801,-225.66 824.05,-187.13 857,-170 909.12,-142.91 977.09,-143.14 1025.88,-148.34"/>
<polygon fill="#9a32cd" stroke="#9a32cd" points="786.21,-247.68 785.11,-258.22 792.54,-250.67 786.21,-247.68"/>
<text text-anchor="middle" x="932.5" y="-173" font-family="Helvetica,sans-Serif" font-size="10.00"> ptr</text>
</g>
<!-- Node6 -->
<g id="node6" class="node">
<title>Node6</title>
<g id="a_node6"><a xlink:href="../../d3/d87/classuint32__t.html" target="_top" xlink:title=" ">
<polygon fill="none" stroke="black" points="0,-317.5 0,-336.5 56,-336.5 56,-317.5 0,-317.5"/>
<text text-anchor="middle" x="28" y="-324.5" font-family="Helvetica,sans-Serif" font-size="10.00">uint32_t</text>
</a>
</g>
</g>
<!-- Node6&#45;&gt;Node5 -->
<g id="edge6" class="edge">
<title>Node6&#45;&gt;Node5</title>
<path fill="none" stroke="#9a32cd" stroke-dasharray="5,2" d="M66.08,-336.81C97.2,-344.18 142.93,-353 183.5,-353 183.5,-353 183.5,-353 573,-353 651.15,-353 734.23,-300.08 765.8,-277.75"/>
<polygon fill="#9a32cd" stroke="#9a32cd" points="66.66,-333.35 56.12,-334.38 65.01,-340.15 66.66,-333.35"/>
<text text-anchor="middle" x="390" y="-356" font-family="Helvetica,sans-Serif" font-size="10.00"> count</text>
</g>
<!-- Node9 -->
<g id="node9" class="node">
<title>Node9</title>
<g id="a_node9"><a xlink:href="../../d3/dca/classrawspeed_1_1_buffer.html" target="_top" xlink:title=" ">
<polygon fill="none" stroke="black" points="135,-259.5 135,-278.5 234,-278.5 234,-259.5 135,-259.5"/>
<text text-anchor="middle" x="184.5" y="-266.5" font-family="Helvetica,sans-Serif" font-size="10.00">rawspeed::Buffer</text>
</a>
</g>
</g>
<!-- Node6&#45;&gt;Node9 -->
<g id="edge10" class="edge">
<title>Node6&#45;&gt;Node9</title>
<path fill="none" stroke="#9a32cd" stroke-dasharray="5,2" d="M64.11,-313.82C92.68,-303.09 132.33,-288.21 157.95,-278.59"/>
<polygon fill="#9a32cd" stroke="#9a32cd" points="62.64,-310.63 54.51,-317.42 65.1,-317.18 62.64,-310.63"/>
<text text-anchor="middle" x="95.5" y="-312" font-family="Helvetica,sans-Serif" font-size="10.00"> size</text>
</g>
<!-- Node7 -->
<g id="node7" class="node">
<title>Node7</title>
<g id="a_node7"><a xlink:href="../../dd/da0/classrawspeed_1_1_byte_stream.html" target="_top" xlink:title=" ">
<polygon fill="none" stroke="black" points="508,-297.5 508,-316.5 636,-316.5 636,-297.5 508,-297.5"/>
<text text-anchor="middle" x="572" y="-304.5" font-family="Helvetica,sans-Serif" font-size="10.00">rawspeed::ByteStream</text>
</a>
</g>
</g>
<!-- Node7&#45;&gt;Node5 -->
<g id="edge7" class="edge">
<title>Node7&#45;&gt;Node5</title>
<path fill="none" stroke="#9a32cd" stroke-dasharray="5,2" d="M635.48,-295.63C656.9,-291.68 681.01,-287.2 703,-283 712.12,-281.26 721.84,-279.37 731.18,-277.53"/>
<polygon fill="#9a32cd" stroke="#9a32cd" points="634.73,-292.21 625.53,-297.45 636,-299.09 634.73,-292.21"/>
<text text-anchor="middle" x="678.5" y="-294" font-family="Helvetica,sans-Serif" font-size="10.00"> data</text>
</g>
<!-- Node8 -->
<g id="node8" class="node">
<title>Node8</title>
<g id="a_node8"><a xlink:href="../../d1/dd4/classrawspeed_1_1_data_buffer.html" target="_top" xlink:title=" ">
<polygon fill="none" stroke="black" points="329,-259.5 329,-278.5 451,-278.5 451,-259.5 329,-259.5"/>
<text text-anchor="middle" x="390" y="-266.5" font-family="Helvetica,sans-Serif" font-size="10.00">rawspeed::DataBuffer</text>
</a>
</g>
</g>
<!-- Node8&#45;&gt;Node7 -->
<g id="edge8" class="edge">
<title>Node8&#45;&gt;Node7</title>
<path fill="none" stroke="midnightblue" d="M446.33,-280.68C471.86,-286.07 501.78,-292.39 525.91,-297.48"/>
<polygon fill="midnightblue" stroke="midnightblue" points="446.93,-277.23 436.42,-278.59 445.48,-284.08 446.93,-277.23"/>
</g>
<!-- Node9&#45;&gt;Node8 -->
<g id="edge9" class="edge">
<title>Node9&#45;&gt;Node8</title>
<path fill="none" stroke="midnightblue" d="M244.5,-269C270.93,-269 302.06,-269 328.65,-269"/>
<polygon fill="midnightblue" stroke="midnightblue" points="244.24,-265.5 234.24,-269 244.24,-272.5 244.24,-265.5"/>
</g>
<!-- Node10 -->
<g id="node10" class="node">
<title>Node10</title>
<g id="a_node10"><a xlink:title=" ">
<polygon fill="none" stroke="#bfbfbf" points="9,-230.5 9,-249.5 47,-249.5 47,-230.5 9,-230.5"/>
<text text-anchor="middle" x="28" y="-237.5" font-family="Helvetica,sans-Serif" font-size="10.00">bool</text>
</a>
</g>
</g>
<!-- Node10&#45;&gt;Node9 -->
<g id="edge11" class="edge">
<title>Node10&#45;&gt;Node9</title>
<path fill="none" stroke="#9a32cd" stroke-dasharray="5,2" d="M56.9,-245.24C78.6,-249.31 109.23,-255.06 134.93,-259.88"/>
<polygon fill="#9a32cd" stroke="#9a32cd" points="57.5,-241.79 47.03,-243.38 56.21,-248.67 57.5,-241.79"/>
<text text-anchor="middle" x="95.5" y="-259" font-family="Helvetica,sans-Serif" font-size="10.00"> isOwner</text>
</g>
<!-- Node11 -->
<g id="node11" class="node">
<title>Node11</title>
<g id="a_node11"><a xlink:title=" ">
<polygon fill="none" stroke="#bfbfbf" points="3,-268.5 3,-287.5 53,-287.5 53,-268.5 3,-268.5"/>
<text text-anchor="middle" x="28" y="-275.5" font-family="Helvetica,sans-Serif" font-size="10.00">uint8_t</text>
</a>
</g>
</g>
<!-- Node11&#45;&gt;Node9 -->
<g id="edge12" class="edge">
<title>Node11&#45;&gt;Node9</title>
<path fill="none" stroke="#9a32cd" stroke-dasharray="5,2" d="M63.23,-276.01C84.31,-274.78 111.65,-273.19 134.93,-271.83"/>
<polygon fill="#9a32cd" stroke="#9a32cd" points="62.92,-272.52 53.14,-276.59 63.33,-279.51 62.92,-272.52"/>
<text text-anchor="middle" x="95.5" y="-278" font-family="Helvetica,sans-Serif" font-size="10.00"> data</text>
</g>
<!-- Node12 -->
<g id="node12" class="node">
<title>Node12</title>
<g id="a_node12"><a xlink:title=" ">
<polygon fill="none" stroke="#bfbfbf" points="148.5,-297.5 148.5,-316.5 220.5,-316.5 220.5,-297.5 148.5,-297.5"/>
<text text-anchor="middle" x="184.5" y="-304.5" font-family="Helvetica,sans-Serif" font-size="10.00">Endianness</text>
</a>
</g>
</g>
<!-- Node12&#45;&gt;Node8 -->
<g id="edge13" class="edge">
<title>Node12&#45;&gt;Node8</title>
<path fill="none" stroke="#9a32cd" stroke-dasharray="5,2" d="M230.85,-298.53C262.58,-292.61 305.02,-284.68 337.94,-278.53"/>
<polygon fill="#9a32cd" stroke="#9a32cd" points="230.13,-295.1 220.95,-300.38 231.42,-301.99 230.13,-295.1"/>
<text text-anchor="middle" x="281.5" y="-296" font-family="Helvetica,sans-Serif" font-size="10.00"> endianness</text>
</g>
<!-- Node13 -->
<g id="node13" class="node">
<title>Node13</title>
<g id="a_node13"><a xlink:title=" ">
<polygon fill="none" stroke="#bfbfbf" points="358.5,-297.5 358.5,-316.5 421.5,-316.5 421.5,-297.5 358.5,-297.5"/>
<text text-anchor="middle" x="390" y="-304.5" font-family="Helvetica,sans-Serif" font-size="10.00">size_type</text>
</a>
</g>
</g>
<!-- Node13&#45;&gt;Node7 -->
<g id="edge14" class="edge">
<title>Node13&#45;&gt;Node7</title>
<path fill="none" stroke="#9a32cd" stroke-dasharray="5,2" d="M431.72,-307C454.17,-307 482.53,-307 507.79,-307"/>
<polygon fill="#9a32cd" stroke="#9a32cd" points="431.53,-303.5 421.53,-307 431.53,-310.5 431.53,-303.5"/>
<text text-anchor="middle" x="479.5" y="-310" font-family="Helvetica,sans-Serif" font-size="10.00"> pos</text>
</g>
<!-- Node14 -->
<g id="node14" class="node">
<title>Node14</title>
<g id="a_node14"><a xlink:title=" ">
<polygon fill="none" stroke="#bfbfbf" points="547,-209.5 547,-228.5 597,-228.5 597,-209.5 547,-209.5"/>
<text text-anchor="middle" x="572" y="-216.5" font-family="Helvetica,sans-Serif" font-size="10.00">CiffTag</text>
</a>
</g>
</g>
<!-- Node14&#45;&gt;Node5 -->
<g id="edge15" class="edge">
<title>Node14&#45;&gt;Node5</title>
<path fill="none" stroke="#9a32cd" stroke-dasharray="5,2" d="M607.11,-227.11C643.32,-235.73 700.52,-249.33 738.88,-258.46"/>
<polygon fill="#9a32cd" stroke="#9a32cd" points="607.57,-223.63 597.03,-224.72 605.95,-230.44 607.57,-223.63"/>
<text text-anchor="middle" x="678.5" y="-252" font-family="Helvetica,sans-Serif" font-size="10.00"> tag</text>
</g>
<!-- Node20 -->
<g id="node20" class="node">
<title>Node20</title>
<g id="a_node20"><a xlink:title=" ">
<polygon fill="none" stroke="#bfbfbf" points="1240,-151.5 1240,-192.5 1377,-192.5 1377,-151.5 1240,-151.5"/>
<text text-anchor="start" x="1248" y="-180.5" font-family="Helvetica,sans-Serif" font-size="10.00">std::map&lt; CiffTag,</text>
<text text-anchor="start" x="1248" y="-169.5" font-family="Helvetica,sans-Serif" font-size="10.00"> std::unique_ptr&lt; const</text>
<text text-anchor="middle" x="1308.5" y="-158.5" font-family="Helvetica,sans-Serif" font-size="10.00"> rawspeed::CiffEntry &gt; &gt;</text>
</a>
</g>
</g>
<!-- Node14&#45;&gt;Node20 -->
<g id="edge29" class="edge">
<title>Node14&#45;&gt;Node20</title>
<path fill="none" stroke="#9a32cd" stroke-dasharray="5,2" d="M607.17,-217.73C703.61,-213.99 986.07,-202.04 1220,-182 1226.4,-181.45 1233.05,-180.81 1239.71,-180.13"/>
<polygon fill="#9a32cd" stroke="#9a32cd" points="606.98,-214.23 597.12,-218.11 607.25,-221.23 606.98,-214.23"/>
<text text-anchor="middle" x="932.5" y="-209" font-family="Helvetica,sans-Serif" font-size="10.00"> keys</text>
</g>
<!-- Node15 -->
<g id="node15" class="node">
<title>Node15</title>
<g id="a_node15"><a xlink:title=" ">
<polygon fill="none" stroke="#bfbfbf" points="532.5,-259.5 532.5,-278.5 611.5,-278.5 611.5,-259.5 532.5,-259.5"/>
<text text-anchor="middle" x="572" y="-266.5" font-family="Helvetica,sans-Serif" font-size="10.00">CiffDataType</text>
</a>
</g>
</g>
<!-- Node15&#45;&gt;Node5 -->
<g id="edge16" class="edge">
<title>Node15&#45;&gt;Node5</title>
<path fill="none" stroke="#9a32cd" stroke-dasharray="5,2" d="M621.76,-268.76C652.37,-268.61 691.93,-268.42 723.71,-268.27"/>
<polygon fill="#9a32cd" stroke="#9a32cd" points="621.73,-265.26 611.75,-268.81 621.76,-272.26 621.73,-265.26"/>
<text text-anchor="middle" x="678.5" y="-271" font-family="Helvetica,sans-Serif" font-size="10.00"> type</text>
</g>
<!-- Node16 -->
<g id="node16" class="node">
<title>Node16</title>
<g id="a_node16"><a xlink:title=" ">
<polygon fill="none" stroke="#bfbfbf" points="1294,-214.5 1294,-233.5 1323,-233.5 1323,-214.5 1294,-214.5"/>
<text text-anchor="middle" x="1308.5" y="-221.5" font-family="Helvetica,sans-Serif" font-size="10.00">int</text>
</a>
</g>
</g>
<!-- Node16&#45;&gt;Node1 -->
<g id="edge17" class="edge">
<title>Node16&#45;&gt;Node1</title>
<path fill="none" stroke="#9a32cd" stroke-dasharray="5,2" d="M1333.27,-224C1376.57,-224 1469.18,-224 1526.95,-224"/>
<polygon fill="#9a32cd" stroke="#9a32cd" points="1333.13,-220.5 1323.13,-224 1333.13,-227.5 1333.13,-220.5"/>
<text text-anchor="middle" x="1453" y="-238" font-family="Helvetica,sans-Serif" font-size="10.00"> subIFDCountRecursive</text>
<text text-anchor="middle" x="1453" y="-227" font-family="Helvetica,sans-Serif" font-size="10.00">subIFDCount</text>
</g>
<!-- Node17&#45;&gt;Node1 -->
<g id="edge19" class="edge">
<title>Node17&#45;&gt;Node1</title>
<path fill="none" stroke="#9a32cd" stroke-dasharray="5,2" d="M2108.29,-112.11C2076.79,-141.27 2016.71,-191.63 1955,-215 1844.78,-256.74 1703.06,-244.1 1629.06,-233.01"/>
<polygon fill="#9a32cd" stroke="#9a32cd" points="2110.78,-114.58 2115.67,-105.18 2105.98,-109.48 2110.78,-114.58"/>
<text text-anchor="middle" x="1884.5" y="-245" font-family="Helvetica,sans-Serif" font-size="10.00"> mSubIFD</text>
</g>
<!-- Node18&#45;&gt;Node17 -->
<g id="edge20" class="edge">
<title>Node18&#45;&gt;Node17</title>
<path fill="none" stroke="#9a32cd" stroke-dasharray="5,2" d="M1958.08,-51.93C1978.76,-56.02 2001.29,-60.58 2022,-65 2036.53,-68.1 2052.1,-71.58 2066.81,-74.94"/>
<polygon fill="#9a32cd" stroke="#9a32cd" points="1958.59,-48.47 1948.1,-49.97 1957.23,-55.33 1958.59,-48.47"/>
<text text-anchor="middle" x="1997.5" y="-68" font-family="Helvetica,sans-Serif" font-size="10.00"> elements</text>
</g>
<!-- Node19&#45;&gt;Node18 -->
<g id="edge22" class="edge">
<title>Node19&#45;&gt;Node18</title>
<path fill="none" stroke="orange" stroke-dasharray="5,2" d="M849.16,-45.51C1048.47,-44.06 1628.32,-39.85 1820.67,-38.46"/>
<polygon fill="orange" stroke="orange" points="849.08,-42.01 839.11,-45.58 849.13,-49.01 849.08,-42.01"/>
<text text-anchor="middle" x="1308.5" y="-46" font-family="Helvetica,sans-Serif" font-size="10.00"> &lt; const rawspeed::CiffIFD &gt;</text>
</g>
<!-- Node19&#45;&gt;Node21 -->
<g id="edge28" class="edge">
<title>Node19&#45;&gt;Node21</title>
<path fill="none" stroke="orange" stroke-dasharray="5,2" d="M816.69,-59.11C874.19,-80.25 987.01,-121.7 1047.64,-143.99"/>
<polygon fill="orange" stroke="orange" points="817.55,-55.7 806.95,-55.54 815.13,-62.27 817.55,-55.7"/>
<text text-anchor="middle" x="932.5" y="-132" font-family="Helvetica,sans-Serif" font-size="10.00"> &lt; const rawspeed::CiffEntry &gt;</text>
</g>
<!-- Node20&#45;&gt;Node1 -->
<g id="edge25" class="edge">
<title>Node20&#45;&gt;Node1</title>
<path fill="none" stroke="#9a32cd" stroke-dasharray="5,2" d="M1387.22,-185.79C1424.17,-192.5 1468.92,-200.87 1509,-209 1517.41,-210.71 1526.39,-212.62 1534.97,-214.5"/>
<polygon fill="#9a32cd" stroke="#9a32cd" points="1387.48,-182.28 1377.02,-183.94 1386.24,-189.16 1387.48,-182.28"/>
<text text-anchor="middle" x="1453" y="-212" font-family="Helvetica,sans-Serif" font-size="10.00"> mEntry</text>
</g>
<!-- Node21&#45;&gt;Node20 -->
<g id="edge26" class="edge">
<title>Node21&#45;&gt;Node20</title>
<path fill="none" stroke="#9a32cd" stroke-dasharray="5,2" d="M1163.32,-163.36C1188.08,-164.85 1215.62,-166.5 1239.95,-167.95"/>
<polygon fill="#9a32cd" stroke="#9a32cd" points="1163.46,-159.86 1153.27,-162.76 1163.04,-166.85 1163.46,-159.86"/>
<text text-anchor="middle" x="1195.5" y="-170" font-family="Helvetica,sans-Serif" font-size="10.00"> elements</text>
</g>
<!-- Node22&#45;&gt;Node20 -->
<g id="edge30" class="edge">
<title>Node22&#45;&gt;Node20</title>
<path fill="none" stroke="orange" stroke-dasharray="5,2" d="M840.64,-86.12C914.89,-80.46 1045.1,-76.02 1153,-101 1196.71,-111.12 1242.98,-134.25 1273.37,-151.38"/>
<polygon fill="orange" stroke="orange" points="840.23,-82.64 830.54,-86.92 840.78,-89.62 840.23,-82.64"/>
<text text-anchor="start" x="1033" y="-126" font-family="Helvetica,sans-Serif" font-size="10.00"> &lt; CiffTag, std::unique</text>
<text text-anchor="start" x="1033" y="-115" font-family="Helvetica,sans-Serif" font-size="10.00">_ptr&lt; const rawspeed::</text>
<text text-anchor="middle" x="1089.5" y="-104" font-family="Helvetica,sans-Serif" font-size="10.00">CiffEntry &gt; &gt;</text>
</g>
<!-- Node23 -->
<g id="node23" class="node">
<title>Node23</title>
<g id="a_node23"><a xlink:title=" ">
<polygon fill="none" stroke="#bfbfbf" points="557.5,-97.5 557.5,-116.5 586.5,-116.5 586.5,-97.5 557.5,-97.5"/>
<text text-anchor="middle" x="572" y="-104.5" font-family="Helvetica,sans-Serif" font-size="10.00">K</text>
</a>
</g>
</g>
<!-- Node23&#45;&gt;Node22 -->
<g id="edge31" class="edge">
<title>Node23&#45;&gt;Node22</title>
<path fill="none" stroke="#9a32cd" stroke-dasharray="5,2" d="M596.75,-105.27C628.96,-102.93 687.29,-98.68 729.3,-95.62"/>
<polygon fill="#9a32cd" stroke="#9a32cd" points="596.24,-101.8 586.52,-106.02 596.74,-108.78 596.24,-101.8"/>
<text text-anchor="middle" x="678.5" y="-104" font-family="Helvetica,sans-Serif" font-size="10.00"> keys</text>
</g>
</g>
</svg>
