<?xml version="1.0" encoding="UTF-8" standalone="no"?>
<!DOCTYPE svg PUBLIC "-//W3C//DTD SVG 1.1//EN"
 "http://www.w3.org/Graphics/SVG/1.1/DTD/svg11.dtd">
<!-- Generated by graphviz version 2.43.0 (0)
 -->
<!-- Title: /build/rawspeed/bench/librawspeed/bench/Common.h Pages: 1 -->
<svg width="619pt" height="117pt"
 viewBox="0.00 0.00 619.00 117.00" xmlns="http://www.w3.org/2000/svg" xmlns:xlink="http://www.w3.org/1999/xlink">
<g id="graph0" class="graph" transform="scale(1 1) rotate(0) translate(4 113)">
<title>/build/rawspeed/bench/librawspeed/bench/Common.h</title>
<!-- Node1 -->
<g id="node1" class="node">
<title>Node1</title>
<g id="a_node1"><a xlink:title=" ">
<polygon fill="#bfbfbf" stroke="black" points="214,-78.5 214,-108.5 381,-108.5 381,-78.5 214,-78.5"/>
<text text-anchor="start" x="222" y="-96.5" font-family="Helvetica,sans-Serif" font-size="10.00">/build/rawspeed/bench</text>
<text text-anchor="middle" x="297.5" y="-85.5" font-family="Helvetica,sans-Serif" font-size="10.00">/librawspeed/bench/Common.h</text>
</a>
</g>
</g>
<!-- Node2 -->
<g id="node2" class="node">
<title>Node2</title>
<g id="a_node2"><a xlink:href="../../dd/d1a/bench_2librawspeed_2bench_2_common_8cpp.html" target="_top" xlink:title=" ">
<polygon fill="none" stroke="black" points="0,-6 0,-36 179,-36 179,-6 0,-6"/>
<text text-anchor="start" x="8" y="-24" font-family="Helvetica,sans-Serif" font-size="10.00">/build/rawspeed/bench</text>
<text text-anchor="middle" x="89.5" y="-13" font-family="Helvetica,sans-Serif" font-size="10.00">/librawspeed/bench/Common.cpp</text>
</a>
</g>
</g>
<!-- Node1&#45;&gt;Node2 -->
<g id="edge1" class="edge">
<title>Node1&#45;&gt;Node2</title>
<path fill="none" stroke="midnightblue" d="M246.22,-75.12C210.75,-63.1 164.16,-47.31 131.02,-36.07"/>
<polygon fill="midnightblue" stroke="midnightblue" points="245.31,-78.51 255.91,-78.4 247.56,-71.88 245.31,-78.51"/>
</g>
<!-- Node3 -->
<g id="node3" class="node">
<title>Node3</title>
<g id="a_node3"><a xlink:href="../../d2/d95/_deflate_decompressor_benchmark_8cpp.html" target="_top" xlink:title=" ">
<polygon fill="none" stroke="black" points="197,-0.5 197,-41.5 398,-41.5 398,-0.5 197,-0.5"/>
<text text-anchor="start" x="205" y="-29.5" font-family="Helvetica,sans-Serif" font-size="10.00">/build/rawspeed/bench</text>
<text text-anchor="start" x="205" y="-18.5" font-family="Helvetica,sans-Serif" font-size="10.00">/librawspeed/decompressors</text>
<text text-anchor="middle" x="297.5" y="-7.5" font-family="Helvetica,sans-Serif" font-size="10.00">/DeflateDecompressorBenchmark.cpp</text>
</a>
</g>
</g>
<!-- Node1&#45;&gt;Node3 -->
<g id="edge2" class="edge">
<title>Node1&#45;&gt;Node3</title>
<path fill="none" stroke="midnightblue" d="M297.5,-67.98C297.5,-59.35 297.5,-49.76 297.5,-41.59"/>
<polygon fill="midnightblue" stroke="midnightblue" points="294,-68.23 297.5,-78.23 301,-68.23 294,-68.23"/>
</g>
<!-- Node4 -->
<g id="node4" class="node">
<title>Node4</title>
<g id="a_node4"><a xlink:href="../../dc/d1a/_cr2s_raw_interpolator_benchmark_8cpp.html" target="_top" xlink:title=" ">
<polygon fill="none" stroke="black" points="416,-0.5 416,-41.5 611,-41.5 611,-0.5 416,-0.5"/>
<text text-anchor="start" x="424" y="-29.5" font-family="Helvetica,sans-Serif" font-size="10.00">/build/rawspeed/bench</text>
<text text-anchor="start" x="424" y="-18.5" font-family="Helvetica,sans-Serif" font-size="10.00">/librawspeed/interpolators</text>
<text text-anchor="middle" x="513.5" y="-7.5" font-family="Helvetica,sans-Serif" font-size="10.00">/Cr2sRawInterpolatorBenchmark.cpp</text>
</a>
</g>
</g>
<!-- Node1&#45;&gt;Node4 -->
<g id="edge3" class="edge">
<title>Node1&#45;&gt;Node4</title>
<path fill="none" stroke="midnightblue" d="M350.25,-75.28C381.45,-65.1 421.08,-52.17 453.47,-41.59"/>
<polygon fill="midnightblue" stroke="midnightblue" points="348.85,-72.06 340.43,-78.49 351.03,-78.71 348.85,-72.06"/>
</g>
</g>
</svg>
