<?xml version="1.0" encoding="UTF-8" standalone="no"?>
<!DOCTYPE svg PUBLIC "-//W3C//DTD SVG 1.1//EN"
 "http://www.w3.org/Graphics/SVG/1.1/DTD/svg11.dtd">
<!-- Generated by graphviz version 2.43.0 (0)
 -->
<!-- Title: librawspeed/io/BitPumpMSB16.h Pages: 1 -->
<svg width="612pt" height="106pt"
 viewBox="0.00 0.00 612.00 106.00" xmlns="http://www.w3.org/2000/svg" xmlns:xlink="http://www.w3.org/1999/xlink">
<g id="graph0" class="graph" transform="scale(1 1) rotate(0) translate(4 102)">
<title>librawspeed/io/BitPumpMSB16.h</title>
<!-- Node1 -->
<g id="node1" class="node">
<title>Node1</title>
<g id="a_node1"><a xlink:title=" ">
<polygon fill="#bfbfbf" stroke="black" points="240,-78.5 240,-97.5 414,-97.5 414,-78.5 240,-78.5"/>
<text text-anchor="middle" x="327" y="-85.5" font-family="Helvetica,sans-Serif" font-size="10.00">librawspeed/io/BitPumpMSB16.h</text>
</a>
</g>
</g>
<!-- Node2 -->
<g id="node2" class="node">
<title>Node2</title>
<g id="a_node2"><a xlink:href="../../db/df9/_bit_stream_benchmark_8cpp.html" target="_top" xlink:title=" ">
<polygon fill="none" stroke="black" points="0,-6 0,-36 218,-36 218,-6 0,-6"/>
<text text-anchor="start" x="8" y="-24" font-family="Helvetica,sans-Serif" font-size="10.00">/build/rawspeed/bench</text>
<text text-anchor="middle" x="109" y="-13" font-family="Helvetica,sans-Serif" font-size="10.00">/librawspeed/io/BitStreamBenchmark.cpp</text>
</a>
</g>
</g>
<!-- Node1&#45;&gt;Node2 -->
<g id="edge1" class="edge">
<title>Node1&#45;&gt;Node2</title>
<path fill="none" stroke="midnightblue" d="M288.15,-75.42C251.19,-64.4 195.51,-47.79 156.05,-36.03"/>
<polygon fill="midnightblue" stroke="midnightblue" points="287.47,-78.87 298.05,-78.37 289.47,-72.16 287.47,-78.87"/>
</g>
<!-- Node3 -->
<g id="node3" class="node">
<title>Node3</title>
<g id="a_node3"><a xlink:href="../../d2/d78/_uncompressed_decompressor_8cpp.html" target="_top" xlink:title=" ">
<polygon fill="none" stroke="black" points="236,-6 236,-36 418,-36 418,-6 236,-6"/>
<text text-anchor="start" x="244" y="-24" font-family="Helvetica,sans-Serif" font-size="10.00">librawspeed/decompressors</text>
<text text-anchor="middle" x="327" y="-13" font-family="Helvetica,sans-Serif" font-size="10.00">/UncompressedDecompressor.cpp</text>
</a>
</g>
</g>
<!-- Node1&#45;&gt;Node3 -->
<g id="edge2" class="edge">
<title>Node1&#45;&gt;Node3</title>
<path fill="none" stroke="midnightblue" d="M327,-67.91C327,-57.72 327,-45.4 327,-36.09"/>
<polygon fill="midnightblue" stroke="midnightblue" points="323.5,-68.23 327,-78.23 330.5,-68.23 323.5,-68.23"/>
</g>
<!-- Node4 -->
<g id="node4" class="node">
<title>Node4</title>
<g id="a_node4"><a xlink:href="../../dd/dd5/_bit_pump_m_s_b16_test_8cpp.html" target="_top" xlink:title=" ">
<polygon fill="none" stroke="black" points="436,-0.5 436,-41.5 604,-41.5 604,-0.5 436,-0.5"/>
<text text-anchor="start" x="444" y="-29.5" font-family="Helvetica,sans-Serif" font-size="10.00">/build/rawspeed/test</text>
<text text-anchor="start" x="444" y="-18.5" font-family="Helvetica,sans-Serif" font-size="10.00">/librawspeed/io/BitPumpMSB16</text>
<text text-anchor="middle" x="520" y="-7.5" font-family="Helvetica,sans-Serif" font-size="10.00">Test.cpp</text>
</a>
</g>
</g>
<!-- Node1&#45;&gt;Node4 -->
<g id="edge3" class="edge">
<title>Node1&#45;&gt;Node4</title>
<path fill="none" stroke="midnightblue" d="M362.3,-75.11C390.06,-65.76 429.32,-52.54 461.73,-41.63"/>
<polygon fill="midnightblue" stroke="midnightblue" points="360.99,-71.86 352.63,-78.37 363.22,-78.49 360.99,-71.86"/>
</g>
</g>
</svg>
