<?xml version="1.0" encoding="UTF-8" standalone="no"?>
<!DOCTYPE svg PUBLIC "-//W3C//DTD SVG 1.1//EN"
 "http://www.w3.org/Graphics/SVG/1.1/DTD/svg11.dtd">
<!-- Generated by graphviz version 2.43.0 (0)
 -->
<!-- Title: rawspeed::Cr2sRawInterpolator::YCbCr::process Pages: 1 -->
<svg width="384pt" height="88pt"
 viewBox="0.00 0.00 384.00 88.00" xmlns="http://www.w3.org/2000/svg" xmlns:xlink="http://www.w3.org/1999/xlink">
<g id="graph0" class="graph" transform="scale(1 1) rotate(0) translate(4 84)">
<title>rawspeed::Cr2sRawInterpolator::YCbCr::process</title>
<!-- Node1 -->
<g id="node1" class="node">
<title>Node1</title>
<g id="a_node1"><a xlink:title=" ">
<polygon fill="#bfbfbf" stroke="black" points="0,-24.5 0,-54.5 170,-54.5 170,-24.5 0,-24.5"/>
<text text-anchor="start" x="8" y="-42.5" font-family="Helvetica,sans-Serif" font-size="10.00">rawspeed::Cr2sRawInterpolator</text>
<text text-anchor="middle" x="85" y="-31.5" font-family="Helvetica,sans-Serif" font-size="10.00">::YCbCr::process</text>
</a>
</g>
</g>
<!-- Node2 -->
<g id="node2" class="node">
<title>Node2</title>
<g id="a_node2"><a xlink:href="../../d3/d3d/structrawspeed_1_1_cr2s_raw_interpolator_1_1_y_cb_cr.html#a6624241b144c810c724823e29ed2dc08" target="_top" xlink:title=" ">
<polygon fill="none" stroke="black" points="206,-49.5 206,-79.5 376,-79.5 376,-49.5 206,-49.5"/>
<text text-anchor="start" x="214" y="-67.5" font-family="Helvetica,sans-Serif" font-size="10.00">rawspeed::Cr2sRawInterpolator</text>
<text text-anchor="middle" x="291" y="-56.5" font-family="Helvetica,sans-Serif" font-size="10.00">::YCbCr::applyHue</text>
</a>
</g>
</g>
<!-- Node1&#45;&gt;Node2 -->
<g id="edge1" class="edge">
<title>Node1&#45;&gt;Node2</title>
<path fill="none" stroke="midnightblue" d="M170.15,-49.81C178.59,-50.85 187.2,-51.9 195.74,-52.95"/>
<polygon fill="midnightblue" stroke="midnightblue" points="195.36,-56.43 205.71,-54.17 196.21,-49.48 195.36,-56.43"/>
</g>
<!-- Node3 -->
<g id="node3" class="node">
<title>Node3</title>
<g id="a_node3"><a xlink:href="../../d3/d3d/structrawspeed_1_1_cr2s_raw_interpolator_1_1_y_cb_cr.html#ab95892ce23975303e9dcc9169572dff5" target="_top" xlink:title=" ">
<polygon fill="none" stroke="black" points="206,-0.5 206,-30.5 376,-30.5 376,-0.5 206,-0.5"/>
<text text-anchor="start" x="214" y="-18.5" font-family="Helvetica,sans-Serif" font-size="10.00">rawspeed::Cr2sRawInterpolator</text>
<text text-anchor="middle" x="291" y="-7.5" font-family="Helvetica,sans-Serif" font-size="10.00">::YCbCr::signExtend</text>
</a>
</g>
</g>
<!-- Node1&#45;&gt;Node3 -->
<g id="edge2" class="edge">
<title>Node1&#45;&gt;Node3</title>
<path fill="none" stroke="midnightblue" d="M170.15,-29.6C178.59,-28.61 187.2,-27.59 195.74,-26.59"/>
<polygon fill="midnightblue" stroke="midnightblue" points="196.19,-30.06 205.71,-25.42 195.37,-23.11 196.19,-30.06"/>
</g>
</g>
</svg>
