<?xml version="1.0" encoding="UTF-8" standalone="no"?>
<!DOCTYPE svg PUBLIC "-//W3C//DTD SVG 1.1//EN"
 "http://www.w3.org/Graphics/SVG/1.1/DTD/svg11.dtd">
<!-- Generated by graphviz version 2.43.0 (0)
 -->
<!-- Title: rawspeed::ieee_754_2008::BinaryN&lt; StorageWidth_, FractionWidth_, ExponentWidth_ &gt; Pages: 1 -->
<svg width="577pt" height="170pt"
 viewBox="0.00 0.00 577.00 170.00" xmlns="http://www.w3.org/2000/svg" xmlns:xlink="http://www.w3.org/1999/xlink">
<g id="graph0" class="graph" transform="scale(1 1) rotate(0) translate(4 166)">
<title>rawspeed::ieee_754_2008::BinaryN&lt; StorageWidth_, FractionWidth_, ExponentWidth_ &gt;</title>
<!-- Node1 -->
<g id="node1" class="node">
<title>Node1</title>
<g id="a_node1"><a xlink:title=" ">
<polygon fill="#bfbfbf" stroke="black" points="0,-60.5 0,-101.5 197,-101.5 197,-60.5 0,-60.5"/>
<text text-anchor="start" x="8" y="-89.5" font-family="Helvetica,sans-Serif" font-size="10.00">rawspeed::ieee_754</text>
<text text-anchor="start" x="8" y="-78.5" font-family="Helvetica,sans-Serif" font-size="10.00">_2008::BinaryN&lt; StorageWidth</text>
<text text-anchor="middle" x="98.5" y="-67.5" font-family="Helvetica,sans-Serif" font-size="10.00">_, FractionWidth_, ExponentWidth_ &gt;</text>
</a>
</g>
</g>
<!-- Node2 -->
<g id="node2" class="node">
<title>Node2</title>
<g id="a_node2"><a xlink:href="../../d1/d79/structrawspeed_1_1ieee__754__2008_1_1_binary_n.html" target="_top" xlink:title=" ">
<polygon fill="none" stroke="black" points="301,-120.5 301,-161.5 418,-161.5 418,-120.5 301,-120.5"/>
<text text-anchor="start" x="309" y="-149.5" font-family="Helvetica,sans-Serif" font-size="10.00">rawspeed::ieee_754</text>
<text text-anchor="start" x="309" y="-138.5" font-family="Helvetica,sans-Serif" font-size="10.00">_2008::BinaryN&lt; 32,</text>
<text text-anchor="middle" x="359.5" y="-127.5" font-family="Helvetica,sans-Serif" font-size="10.00"> 23, 8 &gt;</text>
</a>
</g>
</g>
<!-- Node1&#45;&gt;Node2 -->
<g id="edge1" class="edge">
<title>Node1&#45;&gt;Node2</title>
<path fill="none" stroke="orange" stroke-dasharray="5,2" d="M198.41,-103.91C232.97,-111.92 270.62,-120.64 300.72,-127.62"/>
<polygon fill="orange" stroke="orange" points="198.8,-100.41 188.27,-101.56 197.22,-107.23 198.8,-100.41"/>
<text text-anchor="middle" x="249" y="-126" font-family="Helvetica,sans-Serif" font-size="10.00"> &lt; 32, 23, 8 &gt;</text>
</g>
<!-- Node4 -->
<g id="node4" class="node">
<title>Node4</title>
<g id="a_node4"><a xlink:href="../../d1/d79/structrawspeed_1_1ieee__754__2008_1_1_binary_n.html" target="_top" xlink:title=" ">
<polygon fill="none" stroke="black" points="301,-60.5 301,-101.5 418,-101.5 418,-60.5 301,-60.5"/>
<text text-anchor="start" x="309" y="-89.5" font-family="Helvetica,sans-Serif" font-size="10.00">rawspeed::ieee_754</text>
<text text-anchor="start" x="309" y="-78.5" font-family="Helvetica,sans-Serif" font-size="10.00">_2008::BinaryN&lt; 24,</text>
<text text-anchor="middle" x="359.5" y="-67.5" font-family="Helvetica,sans-Serif" font-size="10.00"> 16, 7 &gt;</text>
</a>
</g>
</g>
<!-- Node1&#45;&gt;Node4 -->
<g id="edge3" class="edge">
<title>Node1&#45;&gt;Node4</title>
<path fill="none" stroke="orange" stroke-dasharray="5,2" d="M207.38,-81C239.44,-81 273.32,-81 300.86,-81"/>
<polygon fill="orange" stroke="orange" points="207.05,-77.5 197.05,-81 207.05,-84.5 207.05,-77.5"/>
<text text-anchor="middle" x="249" y="-84" font-family="Helvetica,sans-Serif" font-size="10.00"> &lt; 24, 16, 7 &gt;</text>
</g>
<!-- Node6 -->
<g id="node6" class="node">
<title>Node6</title>
<g id="a_node6"><a xlink:href="../../d1/d79/structrawspeed_1_1ieee__754__2008_1_1_binary_n.html" target="_top" xlink:title=" ">
<polygon fill="none" stroke="black" points="301,-0.5 301,-41.5 418,-41.5 418,-0.5 301,-0.5"/>
<text text-anchor="start" x="309" y="-29.5" font-family="Helvetica,sans-Serif" font-size="10.00">rawspeed::ieee_754</text>
<text text-anchor="start" x="309" y="-18.5" font-family="Helvetica,sans-Serif" font-size="10.00">_2008::BinaryN&lt; 16,</text>
<text text-anchor="middle" x="359.5" y="-7.5" font-family="Helvetica,sans-Serif" font-size="10.00"> 10, 5 &gt;</text>
</a>
</g>
</g>
<!-- Node1&#45;&gt;Node6 -->
<g id="edge5" class="edge">
<title>Node1&#45;&gt;Node6</title>
<path fill="none" stroke="orange" stroke-dasharray="5,2" d="M198.41,-58.09C232.97,-50.08 270.62,-41.36 300.72,-34.38"/>
<polygon fill="orange" stroke="orange" points="197.22,-54.77 188.27,-60.44 198.8,-61.59 197.22,-54.77"/>
<text text-anchor="middle" x="249" y="-55" font-family="Helvetica,sans-Serif" font-size="10.00"> &lt; 16, 10, 5 &gt;</text>
</g>
<!-- Node3 -->
<g id="node3" class="node">
<title>Node3</title>
<g id="a_node3"><a xlink:href="../../d9/d7b/structrawspeed_1_1ieee__754__2008_1_1_binary32.html" target="_top" xlink:title=" ">
<polygon fill="none" stroke="black" points="455,-126 455,-156 569,-156 569,-126 455,-126"/>
<text text-anchor="start" x="463" y="-144" font-family="Helvetica,sans-Serif" font-size="10.00">rawspeed::ieee_754</text>
<text text-anchor="middle" x="512" y="-133" font-family="Helvetica,sans-Serif" font-size="10.00">_2008::Binary32</text>
</a>
</g>
</g>
<!-- Node2&#45;&gt;Node3 -->
<g id="edge2" class="edge">
<title>Node2&#45;&gt;Node3</title>
<path fill="none" stroke="midnightblue" d="M428.45,-141C437.2,-141 446.1,-141 454.64,-141"/>
<polygon fill="midnightblue" stroke="midnightblue" points="428.26,-137.5 418.26,-141 428.26,-144.5 428.26,-137.5"/>
</g>
<!-- Node5 -->
<g id="node5" class="node">
<title>Node5</title>
<g id="a_node5"><a xlink:href="../../dd/d57/structrawspeed_1_1ieee__754__2008_1_1_binary24.html" target="_top" xlink:title=" ">
<polygon fill="none" stroke="black" points="455,-66 455,-96 569,-96 569,-66 455,-66"/>
<text text-anchor="start" x="463" y="-84" font-family="Helvetica,sans-Serif" font-size="10.00">rawspeed::ieee_754</text>
<text text-anchor="middle" x="512" y="-73" font-family="Helvetica,sans-Serif" font-size="10.00">_2008::Binary24</text>
</a>
</g>
</g>
<!-- Node4&#45;&gt;Node5 -->
<g id="edge4" class="edge">
<title>Node4&#45;&gt;Node5</title>
<path fill="none" stroke="midnightblue" d="M428.45,-81C437.2,-81 446.1,-81 454.64,-81"/>
<polygon fill="midnightblue" stroke="midnightblue" points="428.26,-77.5 418.26,-81 428.26,-84.5 428.26,-77.5"/>
</g>
<!-- Node7 -->
<g id="node7" class="node">
<title>Node7</title>
<g id="a_node7"><a xlink:href="../../d9/da2/structrawspeed_1_1ieee__754__2008_1_1_binary16.html" target="_top" xlink:title=" ">
<polygon fill="none" stroke="black" points="455,-6 455,-36 569,-36 569,-6 455,-6"/>
<text text-anchor="start" x="463" y="-24" font-family="Helvetica,sans-Serif" font-size="10.00">rawspeed::ieee_754</text>
<text text-anchor="middle" x="512" y="-13" font-family="Helvetica,sans-Serif" font-size="10.00">_2008::Binary16</text>
</a>
</g>
</g>
<!-- Node6&#45;&gt;Node7 -->
<g id="edge6" class="edge">
<title>Node6&#45;&gt;Node7</title>
<path fill="none" stroke="midnightblue" d="M428.45,-21C437.2,-21 446.1,-21 454.64,-21"/>
<polygon fill="midnightblue" stroke="midnightblue" points="428.26,-17.5 418.26,-21 428.26,-24.5 428.26,-17.5"/>
</g>
</g>
</svg>
