<?xml version="1.0" encoding="UTF-8" standalone="no"?>
<!DOCTYPE svg PUBLIC "-//W3C//DTD SVG 1.1//EN"
 "http://www.w3.org/Graphics/SVG/1.1/DTD/svg11.dtd">
<!-- Generated by graphviz version 2.43.0 (0)
 -->
<!-- Title: librawspeed/io/FileReader.cpp Pages: 1 -->
<!--zoomable 364 -->
<svg id="main" version="1.1" xmlns="http://www.w3.org/2000/svg" xmlns:xlink="http://www.w3.org/1999/xlink" xml:space="preserve" onload="init(evt)">
<style type="text/css"><![CDATA[
.edge:hover path { stroke: red; }
.edge:hover polygon { stroke: red; fill: red; }
]]></style>
<script type="text/javascript"><![CDATA[
var edges = document.getElementsByTagName('g');
if (edges && edges.length) {
  for (var i=0;i<edges.length;i++) {
    if (edges[i].id.substr(0,4)=='edge') {
      edges[i].setAttribute('class','edge');
    }
  }
}
]]></script>
        <defs>
                <circle id="rim" cx="0" cy="0" r="7"/>
                <circle id="rim2" cx="0" cy="0" r="3.5"/>
                <g id="zoomPlus">
                        <use xlink:href="#rim" fill="#404040">
                                <set attributeName="fill" to="#808080" begin="zoomplus.mouseover" end="zoomplus.mouseout"/>
                        </use>
                        <path d="M-4,0h8M0,-4v8" fill="none" stroke="white" stroke-width="1.5" pointer-events="none"/>
                </g>
                <g id="zoomMin">
                        <use xlink:href="#rim" fill="#404040">
                                <set attributeName="fill" to="#808080" begin="zoomminus.mouseover" end="zoomminus.mouseout"/>
                        </use>
                        <path d="M-4,0h8" fill="none" stroke="white" stroke-width="1.5" pointer-events="none"/>
                </g>
                <g id="dirArrow">
                        <path fill="none" stroke="white" stroke-width="1.5" d="M0,-3.0v7 M-2.5,-0.5L0,-3.0L2.5,-0.5"/>
                </g>
               <g id="resetDef">
                       <use xlink:href="#rim2" fill="#404040">
                               <set attributeName="fill" to="#808080" begin="reset.mouseover" end="reset.mouseout"/>
                       </use>
               </g>
        </defs>

<script type="text/javascript">
var viewWidth = 1198;
var viewHeight = 364;
var sectionId = 'dynsection-0';
</script>
<script xlink:href="../../svgpan.js"/>
<svg id="graph" class="graph">
<g id="viewport">
<title>librawspeed/io/FileReader.cpp</title>
<!-- Node1 -->
<g id="node1" class="node">
<title>Node1</title>
<g id="a_node1"><a xlink:title=" ">
<polygon fill="#bfbfbf" stroke="black" points="699.5,-336.5 699.5,-355.5 860.5,-355.5 860.5,-336.5 699.5,-336.5"/>
<text text-anchor="middle" x="780" y="-343.5" font-family="Helvetica,sans-Serif" font-size="10.00">librawspeed/io/FileReader.cpp</text>
</a>
</g>
</g>
<!-- Node2 -->
<g id="node2" class="node">
<title>Node2</title>
<g id="a_node2"><a xlink:href="../../da/d52/_file_reader_8h.html" target="_top" xlink:title=" ">
<polygon fill="none" stroke="black" points="400.5,-280.5 400.5,-299.5 487.5,-299.5 487.5,-280.5 400.5,-280.5"/>
<text text-anchor="middle" x="444" y="-287.5" font-family="Helvetica,sans-Serif" font-size="10.00">io/FileReader.h</text>
</a>
</g>
</g>
<!-- Node1&#45;&gt;Node2 -->
<g id="edge1" class="edge">
<title>Node1&#45;&gt;Node2</title>
<path fill="none" stroke="midnightblue" d="M726.76,-336.44C664.09,-326.37 560.62,-309.74 497.74,-299.64"/>
<polygon fill="midnightblue" stroke="midnightblue" points="498.06,-296.14 487.63,-298.01 496.95,-303.05 498.06,-296.14"/>
</g>
<!-- Node3 -->
<g id="node3" class="node">
<title>Node3</title>
<g id="a_node3"><a xlink:title=" ">
<polygon fill="none" stroke="#bfbfbf" points="160,-168.5 160,-187.5 218,-187.5 218,-168.5 160,-168.5"/>
<text text-anchor="middle" x="189" y="-175.5" font-family="Helvetica,sans-Serif" font-size="10.00">memory</text>
</a>
</g>
</g>
<!-- Node1&#45;&gt;Node3 -->
<g id="edge47" class="edge">
<title>Node1&#45;&gt;Node3</title>
<path fill="none" stroke="midnightblue" d="M699.48,-344.76C619.45,-342.43 494.08,-333.1 391,-300 317.04,-276.25 241.58,-221.09 207.6,-194.24"/>
<polygon fill="midnightblue" stroke="midnightblue" points="209.51,-191.28 199.51,-187.76 205.13,-196.74 209.51,-191.28"/>
</g>
<!-- Node4 -->
<g id="node4" class="node">
<title>Node4</title>
<g id="a_node4"><a xlink:href="../../d7/d1b/_buffer_8h.html" target="_top" xlink:title=" ">
<polygon fill="none" stroke="black" points="414,-224.5 414,-243.5 480,-243.5 480,-224.5 414,-224.5"/>
<text text-anchor="middle" x="447" y="-231.5" font-family="Helvetica,sans-Serif" font-size="10.00">io/Buffer.h</text>
</a>
</g>
</g>
<!-- Node1&#45;&gt;Node4 -->
<g id="edge3" class="edge">
<title>Node1&#45;&gt;Node4</title>
<path fill="none" stroke="midnightblue" d="M754.15,-336.46C695.13,-316.97 550.41,-269.16 482.84,-246.84"/>
<polygon fill="midnightblue" stroke="midnightblue" points="483.66,-243.42 473.07,-243.61 481.46,-250.07 483.66,-243.42"/>
</g>
<!-- Node24 -->
<g id="node24" class="node">
<title>Node24</title>
<g id="a_node24"><a xlink:title=" ">
<polygon fill="none" stroke="#bfbfbf" points="736,-56.5 736,-75.5 782,-75.5 782,-56.5 736,-56.5"/>
<text text-anchor="middle" x="759" y="-63.5" font-family="Helvetica,sans-Serif" font-size="10.00">cstdio</text>
</a>
</g>
</g>
<!-- Node1&#45;&gt;Node24 -->
<g id="edge44" class="edge">
<title>Node1&#45;&gt;Node24</title>
<path fill="none" stroke="midnightblue" d="M774.84,-336.49C764.93,-319.6 743.57,-280.33 736,-244 724.07,-186.74 742.23,-117.7 752.6,-85.37"/>
<polygon fill="midnightblue" stroke="midnightblue" points="756.03,-86.14 755.88,-75.55 749.39,-83.93 756.03,-86.14"/>
</g>
<!-- Node26 -->
<g id="node26" class="node">
<title>Node26</title>
<g id="a_node26"><a xlink:title=" ">
<polygon fill="none" stroke="#bfbfbf" points="646.5,-168.5 646.5,-187.5 691.5,-187.5 691.5,-168.5 646.5,-168.5"/>
<text text-anchor="middle" x="669" y="-175.5" font-family="Helvetica,sans-Serif" font-size="10.00">utility</text>
</a>
</g>
</g>
<!-- Node1&#45;&gt;Node26 -->
<g id="edge48" class="edge">
<title>Node1&#45;&gt;Node26</title>
<path fill="none" stroke="midnightblue" d="M755.07,-336.48C737.76,-329.33 715.46,-317.46 702,-300 678.48,-269.5 671.71,-223.37 669.77,-197.78"/>
<polygon fill="midnightblue" stroke="midnightblue" points="673.25,-197.37 669.17,-187.6 666.26,-197.78 673.25,-197.37"/>
</g>
<!-- Node27 -->
<g id="node27" class="node">
<title>Node27</title>
<g id="a_node27"><a xlink:href="../../db/dfb/_file_i_o_exception_8h.html" target="_top" xlink:title=" ">
<polygon fill="none" stroke="black" points="744.5,-224.5 744.5,-243.5 857.5,-243.5 857.5,-224.5 744.5,-224.5"/>
<text text-anchor="middle" x="801" y="-231.5" font-family="Helvetica,sans-Serif" font-size="10.00">io/FileIOException.h</text>
</a>
</g>
</g>
<!-- Node1&#45;&gt;Node27 -->
<g id="edge38" class="edge">
<title>Node1&#45;&gt;Node27</title>
<path fill="none" stroke="midnightblue" d="M777.29,-336.41C773.73,-323.81 768.55,-299.66 774,-280 776.79,-269.92 782.51,-259.83 787.97,-251.77"/>
<polygon fill="midnightblue" stroke="midnightblue" points="790.82,-253.79 793.85,-243.64 785.15,-249.69 790.82,-253.79"/>
</g>
<!-- Node29 -->
<g id="node29" class="node">
<title>Node29</title>
<g id="a_node29"><a xlink:title=" ">
<polygon fill="none" stroke="#bfbfbf" points="782.5,-280.5 782.5,-299.5 829.5,-299.5 829.5,-280.5 782.5,-280.5"/>
<text text-anchor="middle" x="806" y="-287.5" font-family="Helvetica,sans-Serif" font-size="10.00">fcntl.h</text>
</a>
</g>
</g>
<!-- Node1&#45;&gt;Node29 -->
<g id="edge45" class="edge">
<title>Node1&#45;&gt;Node29</title>
<path fill="none" stroke="midnightblue" d="M784.29,-336.08C787.85,-328.69 793.02,-317.95 797.42,-308.81"/>
<polygon fill="midnightblue" stroke="midnightblue" points="800.6,-310.28 801.79,-299.75 794.29,-307.24 800.6,-310.28"/>
</g>
<!-- Node30 -->
<g id="node30" class="node">
<title>Node30</title>
<g id="a_node30"><a xlink:title=" ">
<polygon fill="none" stroke="#bfbfbf" points="848,-280.5 848,-299.5 892,-299.5 892,-280.5 848,-280.5"/>
<text text-anchor="middle" x="870" y="-287.5" font-family="Helvetica,sans-Serif" font-size="10.00">limits</text>
</a>
</g>
</g>
<!-- Node1&#45;&gt;Node30 -->
<g id="edge46" class="edge">
<title>Node1&#45;&gt;Node30</title>
<path fill="none" stroke="midnightblue" d="M794.46,-336.32C808.5,-327.9 830.05,-314.97 846.54,-305.07"/>
<polygon fill="midnightblue" stroke="midnightblue" points="848.8,-307.8 855.58,-299.65 845.2,-301.8 848.8,-307.8"/>
</g>
<!-- Node31 -->
<g id="node31" class="node">
<title>Node31</title>
<g id="a_node31"><a xlink:href="../../d7/d92/_file_i_o_8h.html" target="_top" xlink:title=" ">
<polygon fill="none" stroke="black" points="965,-280.5 965,-299.5 1029,-299.5 1029,-280.5 965,-280.5"/>
<text text-anchor="middle" x="997" y="-287.5" font-family="Helvetica,sans-Serif" font-size="10.00">io/FileIO.h</text>
</a>
</g>
</g>
<!-- Node1&#45;&gt;Node31 -->
<g id="edge49" class="edge">
<title>Node1&#45;&gt;Node31</title>
<path fill="none" stroke="midnightblue" d="M814.38,-336.44C852.5,-326.96 914,-311.65 954.96,-301.46"/>
<polygon fill="midnightblue" stroke="midnightblue" points="956.04,-304.8 964.9,-298.99 954.35,-298.01 956.04,-304.8"/>
</g>
<!-- Node32 -->
<g id="node32" class="node">
<title>Node32</title>
<g id="a_node32"><a xlink:title=" ">
<polygon fill="none" stroke="#bfbfbf" points="876,-224.5 876,-243.5 946,-243.5 946,-224.5 876,-224.5"/>
<text text-anchor="middle" x="911" y="-231.5" font-family="Helvetica,sans-Serif" font-size="10.00">Windows.h</text>
</a>
</g>
</g>
<!-- Node1&#45;&gt;Node32 -->
<g id="edge56" class="edge">
<title>Node1&#45;&gt;Node32</title>
<path fill="none" stroke="midnightblue" d="M837.98,-336.43C860.9,-330.11 885.43,-319.11 901,-300 911.47,-287.15 913.28,-267.97 912.89,-253.77"/>
<polygon fill="midnightblue" stroke="midnightblue" points="916.37,-253.42 912.22,-243.67 909.39,-253.88 916.37,-253.42"/>
</g>
<!-- Node34 -->
<g id="node34" class="node">
<title>Node34</title>
<g id="a_node34"><a xlink:title=" ">
<polygon fill="none" stroke="#bfbfbf" points="1086.5,-224.5 1086.5,-243.5 1121.5,-243.5 1121.5,-224.5 1086.5,-224.5"/>
<text text-anchor="middle" x="1104" y="-231.5" font-family="Helvetica,sans-Serif" font-size="10.00">io.h</text>
</a>
</g>
</g>
<!-- Node1&#45;&gt;Node34 -->
<g id="edge57" class="edge">
<title>Node1&#45;&gt;Node34</title>
<path fill="none" stroke="midnightblue" d="M860.68,-343.26C913.64,-339.22 983.02,-328.29 1038,-300 1060.23,-288.56 1079.81,-267.04 1091.75,-251.9"/>
<polygon fill="midnightblue" stroke="midnightblue" points="1094.6,-253.93 1097.86,-243.85 1089.03,-249.7 1094.6,-253.93"/>
</g>
<!-- Node35 -->
<g id="node35" class="node">
<title>Node35</title>
<g id="a_node35"><a xlink:title=" ">
<polygon fill="none" stroke="#bfbfbf" points="1140,-224.5 1140,-243.5 1190,-243.5 1190,-224.5 1140,-224.5"/>
<text text-anchor="middle" x="1165" y="-231.5" font-family="Helvetica,sans-Serif" font-size="10.00">tchar.h</text>
</a>
</g>
</g>
<!-- Node1&#45;&gt;Node35 -->
<g id="edge58" class="edge">
<title>Node1&#45;&gt;Node35</title>
<path fill="none" stroke="midnightblue" d="M860.64,-341.26C919.02,-336.43 998.94,-325.35 1065,-300 1096.35,-287.97 1128.11,-265.1 1147.18,-249.95"/>
<polygon fill="midnightblue" stroke="midnightblue" points="1149.44,-252.62 1155,-243.6 1145.03,-247.18 1149.44,-252.62"/>
</g>
<!-- Node2&#45;&gt;Node3 -->
<g id="edge2" class="edge">
<title>Node2&#45;&gt;Node3</title>
<path fill="none" stroke="midnightblue" d="M423.99,-280.37C379.21,-261.05 270.74,-214.26 218.32,-191.65"/>
<polygon fill="midnightblue" stroke="midnightblue" points="219.48,-188.34 208.92,-187.59 216.71,-194.77 219.48,-188.34"/>
</g>
<!-- Node4&#45;&gt;Node3 -->
<g id="edge36" class="edge">
<title>Node4&#45;&gt;Node3</title>
<path fill="none" stroke="midnightblue" d="M413.8,-226.05C366.18,-216.08 278.66,-197.77 228.01,-187.17"/>
<polygon fill="midnightblue" stroke="midnightblue" points="228.6,-183.71 218.1,-185.09 227.17,-190.56 228.6,-183.71"/>
</g>
<!-- Node5 -->
<g id="node5" class="node">
<title>Node5</title>
<g id="a_node5"><a xlink:href="../../d2/d4f/_address_sanitizer_8h.html" target="_top" xlink:title=" ">
<polygon fill="none" stroke="black" points="126.5,-112.5 126.5,-131.5 233.5,-131.5 233.5,-112.5 126.5,-112.5"/>
<text text-anchor="middle" x="180" y="-119.5" font-family="Helvetica,sans-Serif" font-size="10.00">AddressSanitizer.h</text>
</a>
</g>
</g>
<!-- Node4&#45;&gt;Node5 -->
<g id="edge4" class="edge">
<title>Node4&#45;&gt;Node5</title>
<path fill="none" stroke="midnightblue" d="M413.77,-228.38C377.22,-222.44 317.39,-210.15 270,-188 242.34,-175.07 214.46,-153.26 197.21,-138.51"/>
<polygon fill="midnightblue" stroke="midnightblue" points="199.05,-135.47 189.22,-131.52 194.45,-140.74 199.05,-135.47"/>
</g>
<!-- Node7 -->
<g id="node7" class="node">
<title>Node7</title>
<g id="a_node7"><a xlink:href="../../d9/df5/src_2librawspeed_2common_2_common_8h.html" target="_top" xlink:title=" ">
<polygon fill="none" stroke="black" points="241,-56.5 241,-75.5 357,-75.5 357,-56.5 241,-56.5"/>
<text text-anchor="middle" x="299" y="-63.5" font-family="Helvetica,sans-Serif" font-size="10.00">common/Common.h</text>
</a>
</g>
</g>
<!-- Node4&#45;&gt;Node7 -->
<g id="edge6" class="edge">
<title>Node4&#45;&gt;Node7</title>
<path fill="none" stroke="midnightblue" d="M416.01,-224.41C376.5,-211.6 309.85,-183.32 281,-132 272.69,-117.22 279.55,-98.35 287.07,-84.76"/>
<polygon fill="midnightblue" stroke="midnightblue" points="290.23,-86.29 292.45,-75.93 284.26,-82.64 290.23,-86.29"/>
</g>
<!-- Node9 -->
<g id="node9" class="node">
<title>Node9</title>
<g id="a_node9"><a xlink:title=" ">
<polygon fill="none" stroke="#bfbfbf" points="538,-0.5 538,-19.5 590,-19.5 590,-0.5 538,-0.5"/>
<text text-anchor="middle" x="564" y="-7.5" font-family="Helvetica,sans-Serif" font-size="10.00">cassert</text>
</a>
</g>
</g>
<!-- Node4&#45;&gt;Node9 -->
<g id="edge34" class="edge">
<title>Node4&#45;&gt;Node9</title>
<path fill="none" stroke="midnightblue" d="M454.98,-224.25C475.09,-201.63 528.06,-138.64 553,-76 558.89,-61.2 561.63,-43.27 562.9,-30"/>
<polygon fill="midnightblue" stroke="midnightblue" points="566.41,-29.96 563.68,-19.72 559.43,-29.43 566.41,-29.96"/>
</g>
<!-- Node11 -->
<g id="node11" class="node">
<title>Node11</title>
<g id="a_node11"><a xlink:title=" ">
<polygon fill="none" stroke="#bfbfbf" points="402,-0.5 402,-19.5 452,-19.5 452,-0.5 402,-0.5"/>
<text text-anchor="middle" x="427" y="-7.5" font-family="Helvetica,sans-Serif" font-size="10.00">cstdint</text>
</a>
</g>
</g>
<!-- Node4&#45;&gt;Node11 -->
<g id="edge35" class="edge">
<title>Node4&#45;&gt;Node11</title>
<path fill="none" stroke="midnightblue" d="M446.22,-224.3C443.27,-191.63 432.84,-75.87 428.71,-29.96"/>
<polygon fill="midnightblue" stroke="midnightblue" points="432.18,-29.53 427.8,-19.88 425.21,-30.16 432.18,-29.53"/>
</g>
<!-- Node17 -->
<g id="node17" class="node">
<title>Node17</title>
<g id="a_node17"><a xlink:href="../../d3/de6/_memory_8h.html" target="_top" xlink:title=" ">
<polygon fill="none" stroke="black" points="290,-112.5 290,-131.5 400,-131.5 400,-112.5 290,-112.5"/>
<text text-anchor="middle" x="345" y="-119.5" font-family="Helvetica,sans-Serif" font-size="10.00">common/Memory.h</text>
</a>
</g>
</g>
<!-- Node4&#45;&gt;Node17 -->
<g id="edge16" class="edge">
<title>Node4&#45;&gt;Node17</title>
<path fill="none" stroke="midnightblue" d="M439,-224.37C421.94,-205.97 381.79,-162.67 359.88,-139.05"/>
<polygon fill="midnightblue" stroke="midnightblue" points="362.33,-136.54 352.97,-131.59 357.2,-141.3 362.33,-136.54"/>
</g>
<!-- Node19 -->
<g id="node19" class="node">
<title>Node19</title>
<g id="a_node19"><a xlink:href="../../d5/d0b/_endianness_8h.html" target="_top" xlink:title=" ">
<polygon fill="none" stroke="black" points="451.5,-56.5 451.5,-75.5 544.5,-75.5 544.5,-56.5 451.5,-56.5"/>
<text text-anchor="middle" x="498" y="-63.5" font-family="Helvetica,sans-Serif" font-size="10.00">io/Endianness.h</text>
</a>
</g>
</g>
<!-- Node4&#45;&gt;Node19 -->
<g id="edge21" class="edge">
<title>Node4&#45;&gt;Node19</title>
<path fill="none" stroke="midnightblue" d="M449.74,-224.08C457.77,-197.95 481.34,-121.21 492.29,-85.58"/>
<polygon fill="midnightblue" stroke="midnightblue" points="495.78,-86.16 495.37,-75.57 489.09,-84.1 495.78,-86.16"/>
</g>
<!-- Node20 -->
<g id="node20" class="node">
<title>Node20</title>
<g id="a_node20"><a xlink:href="../../d0/dd8/_i_o_exception_8h.html" target="_top" xlink:title=" ">
<polygon fill="none" stroke="black" points="532,-168.5 532,-187.5 628,-187.5 628,-168.5 532,-168.5"/>
<text text-anchor="middle" x="580" y="-175.5" font-family="Helvetica,sans-Serif" font-size="10.00">io/IOException.h</text>
</a>
</g>
</g>
<!-- Node4&#45;&gt;Node20 -->
<g id="edge25" class="edge">
<title>Node4&#45;&gt;Node20</title>
<path fill="none" stroke="midnightblue" d="M468.07,-224.44C490.06,-215.52 524.73,-201.44 549.66,-191.32"/>
<polygon fill="midnightblue" stroke="midnightblue" points="551.08,-194.52 559.02,-187.52 548.44,-188.04 551.08,-194.52"/>
</g>
<!-- Node4&#45;&gt;Node26 -->
<g id="edge37" class="edge">
<title>Node4&#45;&gt;Node26</title>
<path fill="none" stroke="midnightblue" d="M480.05,-225.61C516.11,-217.45 575.75,-203.68 636.54,-188.03"/>
<polygon fill="midnightblue" stroke="midnightblue" points="637.5,-191.4 646.31,-185.51 635.75,-184.63 637.5,-191.4"/>
</g>
<!-- Node6 -->
<g id="node6" class="node">
<title>Node6</title>
<g id="a_node6"><a xlink:title=" ">
<polygon fill="none" stroke="#bfbfbf" points="159.5,-56.5 159.5,-75.5 212.5,-75.5 212.5,-56.5 159.5,-56.5"/>
<text text-anchor="middle" x="186" y="-63.5" font-family="Helvetica,sans-Serif" font-size="10.00">cstddef</text>
</a>
</g>
</g>
<!-- Node5&#45;&gt;Node6 -->
<g id="edge5" class="edge">
<title>Node5&#45;&gt;Node6</title>
<path fill="none" stroke="midnightblue" d="M180.99,-112.08C181.79,-104.93 182.93,-94.64 183.92,-85.69"/>
<polygon fill="midnightblue" stroke="midnightblue" points="187.4,-86.08 185.03,-75.75 180.44,-85.3 187.4,-86.08"/>
</g>
<!-- Node8 -->
<g id="node8" class="node">
<title>Node8</title>
<g id="a_node8"><a xlink:title=" ">
<polygon fill="none" stroke="#bfbfbf" points="150,-0.5 150,-19.5 214,-19.5 214,-0.5 150,-0.5"/>
<text text-anchor="middle" x="182" y="-7.5" font-family="Helvetica,sans-Serif" font-size="10.00">algorithm</text>
</a>
</g>
</g>
<!-- Node7&#45;&gt;Node8 -->
<g id="edge7" class="edge">
<title>Node7&#45;&gt;Node8</title>
<path fill="none" stroke="midnightblue" d="M280.46,-56.44C261.38,-47.64 231.43,-33.81 209.56,-23.72"/>
<polygon fill="midnightblue" stroke="midnightblue" points="211,-20.53 200.45,-19.52 208.07,-26.88 211,-20.53"/>
</g>
<!-- Node7&#45;&gt;Node9 -->
<g id="edge8" class="edge">
<title>Node7&#45;&gt;Node9</title>
<path fill="none" stroke="midnightblue" d="M347.19,-56.42C391.66,-48.31 459.74,-35.42 527.65,-20.21"/>
<polygon fill="midnightblue" stroke="midnightblue" points="528.68,-23.56 537.67,-17.95 527.14,-16.74 528.68,-23.56"/>
</g>
<!-- Node10 -->
<g id="node10" class="node">
<title>Node10</title>
<g id="a_node10"><a xlink:title=" ">
<polygon fill="none" stroke="#bfbfbf" points="232,-0.5 232,-19.5 282,-19.5 282,-0.5 232,-0.5"/>
<text text-anchor="middle" x="257" y="-7.5" font-family="Helvetica,sans-Serif" font-size="10.00">climits</text>
</a>
</g>
</g>
<!-- Node7&#45;&gt;Node10 -->
<g id="edge9" class="edge">
<title>Node7&#45;&gt;Node10</title>
<path fill="none" stroke="midnightblue" d="M292.06,-56.08C286.07,-48.38 277.25,-37.03 269.95,-27.65"/>
<polygon fill="midnightblue" stroke="midnightblue" points="272.71,-25.5 263.81,-19.75 267.18,-29.79 272.71,-25.5"/>
</g>
<!-- Node7&#45;&gt;Node11 -->
<g id="edge10" class="edge">
<title>Node7&#45;&gt;Node11</title>
<path fill="none" stroke="midnightblue" d="M319.28,-56.44C340.35,-47.56 373.52,-33.56 397.49,-23.45"/>
<polygon fill="midnightblue" stroke="midnightblue" points="398.96,-26.63 406.81,-19.52 396.24,-20.18 398.96,-26.63"/>
</g>
<!-- Node12 -->
<g id="node12" class="node">
<title>Node12</title>
<g id="a_node12"><a xlink:title=" ">
<polygon fill="none" stroke="#bfbfbf" points="470,-0.5 470,-19.5 520,-19.5 520,-0.5 470,-0.5"/>
<text text-anchor="middle" x="495" y="-7.5" font-family="Helvetica,sans-Serif" font-size="10.00">cstring</text>
</a>
</g>
</g>
<!-- Node7&#45;&gt;Node12 -->
<g id="edge11" class="edge">
<title>Node7&#45;&gt;Node12</title>
<path fill="none" stroke="midnightblue" d="M330.06,-56.44C365.48,-46.68 423.25,-30.77 460.17,-20.6"/>
<polygon fill="midnightblue" stroke="midnightblue" points="461.29,-23.92 470,-17.89 459.43,-17.17 461.29,-23.92"/>
</g>
<!-- Node13 -->
<g id="node13" class="node">
<title>Node13</title>
<g id="a_node13"><a xlink:title=" ">
<polygon fill="none" stroke="#bfbfbf" points="300.5,-0.5 300.5,-19.5 383.5,-19.5 383.5,-0.5 300.5,-0.5"/>
<text text-anchor="middle" x="342" y="-7.5" font-family="Helvetica,sans-Serif" font-size="10.00">initializer_list</text>
</a>
</g>
</g>
<!-- Node7&#45;&gt;Node13 -->
<g id="edge12" class="edge">
<title>Node7&#45;&gt;Node13</title>
<path fill="none" stroke="midnightblue" d="M306.1,-56.08C312.24,-48.38 321.27,-37.03 328.74,-27.65"/>
<polygon fill="midnightblue" stroke="midnightblue" points="331.54,-29.75 335.03,-19.75 326.06,-25.39 331.54,-29.75"/>
</g>
<!-- Node14 -->
<g id="node14" class="node">
<title>Node14</title>
<g id="a_node14"><a xlink:title=" ">
<polygon fill="none" stroke="#bfbfbf" points="0,-0.5 0,-19.5 44,-19.5 44,-0.5 0,-0.5"/>
<text text-anchor="middle" x="22" y="-7.5" font-family="Helvetica,sans-Serif" font-size="10.00">string</text>
</a>
</g>
</g>
<!-- Node7&#45;&gt;Node14 -->
<g id="edge13" class="edge">
<title>Node7&#45;&gt;Node14</title>
<path fill="none" stroke="midnightblue" d="M243.46,-56.5C195.64,-48.8 124.6,-36.48 54.21,-20.1"/>
<polygon fill="midnightblue" stroke="midnightblue" points="54.82,-16.65 44.28,-17.76 53.21,-23.46 54.82,-16.65"/>
</g>
<!-- Node15 -->
<g id="node15" class="node">
<title>Node15</title>
<g id="a_node15"><a xlink:title=" ">
<polygon fill="none" stroke="#bfbfbf" points="62.5,-0.5 62.5,-19.5 131.5,-19.5 131.5,-0.5 62.5,-0.5"/>
<text text-anchor="middle" x="97" y="-7.5" font-family="Helvetica,sans-Serif" font-size="10.00">type_traits</text>
</a>
</g>
</g>
<!-- Node7&#45;&gt;Node15 -->
<g id="edge14" class="edge">
<title>Node7&#45;&gt;Node15</title>
<path fill="none" stroke="midnightblue" d="M266.99,-56.44C232.27,-47.16 176.71,-32.31 138.62,-22.13"/>
<polygon fill="midnightblue" stroke="midnightblue" points="139.42,-18.72 128.86,-19.52 137.61,-25.48 139.42,-18.72"/>
</g>
<!-- Node16 -->
<g id="node16" class="node">
<title>Node16</title>
<g id="a_node16"><a xlink:title=" ">
<polygon fill="none" stroke="#bfbfbf" points="812.5,-0.5 812.5,-19.5 859.5,-19.5 859.5,-0.5 812.5,-0.5"/>
<text text-anchor="middle" x="836" y="-7.5" font-family="Helvetica,sans-Serif" font-size="10.00">vector</text>
</a>
</g>
</g>
<!-- Node7&#45;&gt;Node16 -->
<g id="edge15" class="edge">
<title>Node7&#45;&gt;Node16</title>
<path fill="none" stroke="midnightblue" d="M357.23,-59.14C469.56,-47.85 712.92,-23.38 802.24,-14.39"/>
<polygon fill="midnightblue" stroke="midnightblue" points="802.75,-17.86 812.35,-13.38 802.05,-10.9 802.75,-17.86"/>
</g>
<!-- Node17&#45;&gt;Node6 -->
<g id="edge19" class="edge">
<title>Node17&#45;&gt;Node6</title>
<path fill="none" stroke="midnightblue" d="M319.81,-112.44C293.06,-103.36 250.6,-88.94 220.69,-78.78"/>
<polygon fill="midnightblue" stroke="midnightblue" points="221.67,-75.42 211.08,-75.52 219.42,-82.05 221.67,-75.42"/>
</g>
<!-- Node17&#45;&gt;Node7 -->
<g id="edge18" class="edge">
<title>Node17&#45;&gt;Node7</title>
<path fill="none" stroke="midnightblue" d="M337.4,-112.08C330.77,-104.3 320.98,-92.8 312.94,-83.37"/>
<polygon fill="midnightblue" stroke="midnightblue" points="315.6,-81.09 306.45,-75.75 310.27,-85.63 315.6,-81.09"/>
</g>
<!-- Node17&#45;&gt;Node11 -->
<g id="edge20" class="edge">
<title>Node17&#45;&gt;Node11</title>
<path fill="none" stroke="midnightblue" d="M351.43,-112.37C365.03,-94.14 396.86,-51.43 414.57,-27.68"/>
<polygon fill="midnightblue" stroke="midnightblue" points="417.42,-29.7 420.6,-19.59 411.81,-25.52 417.42,-29.7"/>
</g>
<!-- Node18 -->
<g id="node18" class="node">
<title>Node18</title>
<g id="a_node18"><a xlink:title=" ">
<polygon fill="none" stroke="#bfbfbf" points="616,-56.5 616,-75.5 718,-75.5 718,-56.5 616,-56.5"/>
<text text-anchor="middle" x="667" y="-63.5" font-family="Helvetica,sans-Serif" font-size="10.00">rawspeedconfig.h</text>
</a>
</g>
</g>
<!-- Node17&#45;&gt;Node18 -->
<g id="edge17" class="edge">
<title>Node17&#45;&gt;Node18</title>
<path fill="none" stroke="midnightblue" d="M396.02,-112.44C453.02,-102.89 545.24,-87.42 606,-77.23"/>
<polygon fill="midnightblue" stroke="midnightblue" points="606.93,-80.62 616.22,-75.52 605.78,-73.72 606.93,-80.62"/>
</g>
<!-- Node19&#45;&gt;Node9 -->
<g id="edge22" class="edge">
<title>Node19&#45;&gt;Node9</title>
<path fill="none" stroke="midnightblue" d="M508.6,-56.32C518.46,-48.26 533.35,-36.08 545.22,-26.37"/>
<polygon fill="midnightblue" stroke="midnightblue" points="547.68,-28.88 553.2,-19.83 543.25,-23.46 547.68,-28.88"/>
</g>
<!-- Node19&#45;&gt;Node11 -->
<g id="edge23" class="edge">
<title>Node19&#45;&gt;Node11</title>
<path fill="none" stroke="midnightblue" d="M486.59,-56.32C475.89,-48.18 459.66,-35.84 446.84,-26.09"/>
<polygon fill="midnightblue" stroke="midnightblue" points="448.69,-23.1 438.61,-19.83 444.46,-28.67 448.69,-23.1"/>
</g>
<!-- Node19&#45;&gt;Node12 -->
<g id="edge24" class="edge">
<title>Node19&#45;&gt;Node12</title>
<path fill="none" stroke="midnightblue" d="M497.5,-56.08C497.11,-49.01 496.55,-38.86 496.05,-29.99"/>
<polygon fill="midnightblue" stroke="midnightblue" points="499.54,-29.54 495.49,-19.75 492.55,-29.93 499.54,-29.54"/>
</g>
<!-- Node20&#45;&gt;Node18 -->
<g id="edge26" class="edge">
<title>Node20&#45;&gt;Node18</title>
<path fill="none" stroke="midnightblue" d="M586.83,-168.37C601.25,-150.14 635.03,-107.43 653.81,-83.68"/>
<polygon fill="midnightblue" stroke="midnightblue" points="656.75,-85.61 660.2,-75.59 651.26,-81.26 656.75,-85.61"/>
</g>
<!-- Node21 -->
<g id="node21" class="node">
<title>Node21</title>
<g id="a_node21"><a xlink:href="../../d7/d05/_rawspeed_exception_8h.html" target="_top" xlink:title=" ">
<polygon fill="none" stroke="black" points="786,-112.5 786,-131.5 956,-131.5 956,-112.5 786,-112.5"/>
<text text-anchor="middle" x="871" y="-119.5" font-family="Helvetica,sans-Serif" font-size="10.00">common/RawspeedException.h</text>
</a>
</g>
</g>
<!-- Node20&#45;&gt;Node21 -->
<g id="edge27" class="edge">
<title>Node20&#45;&gt;Node21</title>
<path fill="none" stroke="midnightblue" d="M626.11,-168.44C677.41,-158.92 760.27,-143.55 815.19,-133.36"/>
<polygon fill="midnightblue" stroke="midnightblue" points="815.91,-136.78 825.11,-131.52 814.64,-129.9 815.91,-136.78"/>
</g>
<!-- Node21&#45;&gt;Node7 -->
<g id="edge29" class="edge">
<title>Node21&#45;&gt;Node7</title>
<path fill="none" stroke="midnightblue" d="M785.98,-112.97C671.99,-102.21 471.84,-83.32 367.17,-73.44"/>
<polygon fill="midnightblue" stroke="midnightblue" points="367.32,-69.93 357.03,-72.48 366.66,-76.9 367.32,-69.93"/>
</g>
<!-- Node21&#45;&gt;Node18 -->
<g id="edge28" class="edge">
<title>Node21&#45;&gt;Node18</title>
<path fill="none" stroke="midnightblue" d="M838.68,-112.44C803.61,-103.16 747.5,-88.31 709.04,-78.13"/>
<polygon fill="midnightblue" stroke="midnightblue" points="709.74,-74.69 699.17,-75.52 707.94,-81.46 709.74,-74.69"/>
</g>
<!-- Node22 -->
<g id="node22" class="node">
<title>Node22</title>
<g id="a_node22"><a xlink:title=" ">
<polygon fill="none" stroke="#bfbfbf" points="800,-56.5 800,-75.5 842,-75.5 842,-56.5 800,-56.5"/>
<text text-anchor="middle" x="821" y="-63.5" font-family="Helvetica,sans-Serif" font-size="10.00">array</text>
</a>
</g>
</g>
<!-- Node21&#45;&gt;Node22 -->
<g id="edge30" class="edge">
<title>Node21&#45;&gt;Node22</title>
<path fill="none" stroke="midnightblue" d="M862.74,-112.08C855.54,-104.3 844.89,-92.8 836.15,-83.37"/>
<polygon fill="midnightblue" stroke="midnightblue" points="838.47,-80.71 829.1,-75.75 833.33,-85.47 838.47,-80.71"/>
</g>
<!-- Node23 -->
<g id="node23" class="node">
<title>Node23</title>
<g id="a_node23"><a xlink:title=" ">
<polygon fill="none" stroke="#bfbfbf" points="860.5,-56.5 860.5,-75.5 913.5,-75.5 913.5,-56.5 860.5,-56.5"/>
<text text-anchor="middle" x="887" y="-63.5" font-family="Helvetica,sans-Serif" font-size="10.00">cstdarg</text>
</a>
</g>
</g>
<!-- Node21&#45;&gt;Node23 -->
<g id="edge31" class="edge">
<title>Node21&#45;&gt;Node23</title>
<path fill="none" stroke="midnightblue" d="M873.64,-112.08C875.79,-104.85 878.88,-94.41 881.55,-85.4"/>
<polygon fill="midnightblue" stroke="midnightblue" points="884.92,-86.33 884.41,-75.75 878.21,-84.34 884.92,-86.33"/>
</g>
<!-- Node21&#45;&gt;Node24 -->
<g id="edge32" class="edge">
<title>Node21&#45;&gt;Node24</title>
<path fill="none" stroke="midnightblue" d="M853.01,-112.32C834.96,-103.62 806.95,-90.12 786.2,-80.11"/>
<polygon fill="midnightblue" stroke="midnightblue" points="787.48,-76.84 776.95,-75.65 784.44,-83.15 787.48,-76.84"/>
</g>
<!-- Node25 -->
<g id="node25" class="node">
<title>Node25</title>
<g id="a_node25"><a xlink:title=" ">
<polygon fill="none" stroke="#bfbfbf" points="931.5,-56.5 931.5,-75.5 996.5,-75.5 996.5,-56.5 931.5,-56.5"/>
<text text-anchor="middle" x="964" y="-63.5" font-family="Helvetica,sans-Serif" font-size="10.00">stdexcept</text>
</a>
</g>
</g>
<!-- Node21&#45;&gt;Node25 -->
<g id="edge33" class="edge">
<title>Node21&#45;&gt;Node25</title>
<path fill="none" stroke="midnightblue" d="M885.94,-112.32C900.59,-103.82 923.13,-90.73 940.24,-80.8"/>
<polygon fill="midnightblue" stroke="midnightblue" points="942.2,-83.7 949.1,-75.65 938.69,-77.65 942.2,-83.7"/>
</g>
<!-- Node27&#45;&gt;Node18 -->
<g id="edge39" class="edge">
<title>Node27&#45;&gt;Node18</title>
<path fill="none" stroke="midnightblue" d="M793.8,-224.08C772.34,-197.49 708.6,-118.54 680.53,-83.76"/>
<polygon fill="midnightblue" stroke="midnightblue" points="682.92,-81.15 673.92,-75.57 677.47,-85.55 682.92,-81.15"/>
</g>
<!-- Node27&#45;&gt;Node21 -->
<g id="edge40" class="edge">
<title>Node27&#45;&gt;Node21</title>
<path fill="none" stroke="midnightblue" d="M846.21,-224.41C895.62,-214.57 968.88,-198.46 977,-188 996.67,-162.67 957.83,-144.85 921.75,-134.36"/>
<polygon fill="midnightblue" stroke="midnightblue" points="922.27,-130.87 911.7,-131.59 920.41,-137.62 922.27,-130.87"/>
</g>
<!-- Node28 -->
<g id="node28" class="node">
<title>Node28</title>
<g id="a_node28"><a xlink:href="../../d0/daf/_raw_decoder_exception_8h.html" target="_top" xlink:title=" ">
<polygon fill="none" stroke="black" points="786,-168.5 786,-187.5 968,-187.5 968,-168.5 786,-168.5"/>
<text text-anchor="middle" x="877" y="-175.5" font-family="Helvetica,sans-Serif" font-size="10.00">decoders/RawDecoderException.h</text>
</a>
</g>
</g>
<!-- Node27&#45;&gt;Node28 -->
<g id="edge41" class="edge">
<title>Node27&#45;&gt;Node28</title>
<path fill="none" stroke="midnightblue" d="M813.21,-224.32C824.78,-216.11 842.38,-203.6 856.16,-193.81"/>
<polygon fill="midnightblue" stroke="midnightblue" points="858.44,-196.48 864.57,-187.83 854.39,-190.77 858.44,-196.48"/>
</g>
<!-- Node28&#45;&gt;Node18 -->
<g id="edge42" class="edge">
<title>Node28&#45;&gt;Node18</title>
<path fill="none" stroke="midnightblue" d="M856,-168.35C835.54,-159.74 803.7,-145.84 777,-132 745.81,-115.83 711.11,-94.79 689.18,-81.09"/>
<polygon fill="midnightblue" stroke="midnightblue" points="690.94,-78.07 680.61,-75.71 687.22,-83.99 690.94,-78.07"/>
</g>
<!-- Node28&#45;&gt;Node21 -->
<g id="edge43" class="edge">
<title>Node28&#45;&gt;Node21</title>
<path fill="none" stroke="midnightblue" d="M876.01,-168.08C875.21,-160.93 874.07,-150.64 873.08,-141.69"/>
<polygon fill="midnightblue" stroke="midnightblue" points="876.56,-141.3 871.97,-131.75 869.6,-142.08 876.56,-141.3"/>
</g>
<!-- Node31&#45;&gt;Node16 -->
<g id="edge55" class="edge">
<title>Node31&#45;&gt;Node16</title>
<path fill="none" stroke="midnightblue" d="M1007.44,-280.4C1016.96,-272.03 1030.75,-258.49 1039,-244 1053.89,-217.85 1058,-209.1 1058,-179 1058,-179 1058,-179 1058,-121 1058,-38.05 932.03,-17.65 869.87,-12.64"/>
<polygon fill="midnightblue" stroke="midnightblue" points="869.98,-9.14 859.76,-11.91 869.48,-16.12 869.98,-9.14"/>
</g>
<!-- Node31&#45;&gt;Node27 -->
<g id="edge50" class="edge">
<title>Node31&#45;&gt;Node27</title>
<path fill="none" stroke="midnightblue" d="M965.94,-280.44C932.4,-271.2 878.8,-256.44 841.86,-246.26"/>
<polygon fill="midnightblue" stroke="midnightblue" points="842.48,-242.8 831.91,-243.52 840.62,-249.55 842.48,-242.8"/>
</g>
<!-- Node31&#45;&gt;Node32 -->
<g id="edge51" class="edge">
<title>Node31&#45;&gt;Node32</title>
<path fill="none" stroke="midnightblue" d="M983.18,-280.32C969.77,-271.9 949.18,-258.97 933.41,-249.07"/>
<polygon fill="midnightblue" stroke="midnightblue" points="935.11,-246.01 924.78,-243.65 931.39,-251.94 935.11,-246.01"/>
</g>
<!-- Node33 -->
<g id="node33" class="node">
<title>Node33</title>
<g id="a_node33"><a xlink:title=" ">
<polygon fill="none" stroke="#bfbfbf" points="964.5,-224.5 964.5,-243.5 1029.5,-243.5 1029.5,-224.5 964.5,-224.5"/>
<text text-anchor="middle" x="997" y="-231.5" font-family="Helvetica,sans-Serif" font-size="10.00">functional</text>
</a>
</g>
</g>
<!-- Node31&#45;&gt;Node33 -->
<g id="edge52" class="edge">
<title>Node31&#45;&gt;Node33</title>
<path fill="none" stroke="midnightblue" d="M997,-280.08C997,-273.01 997,-262.86 997,-253.99"/>
<polygon fill="midnightblue" stroke="midnightblue" points="1000.5,-253.75 997,-243.75 993.5,-253.75 1000.5,-253.75"/>
</g>
<!-- Node31&#45;&gt;Node34 -->
<g id="edge53" class="edge">
<title>Node31&#45;&gt;Node34</title>
<path fill="none" stroke="midnightblue" d="M1014.19,-280.32C1031.35,-271.66 1057.95,-258.24 1077.75,-248.25"/>
<polygon fill="midnightblue" stroke="midnightblue" points="1079.5,-251.28 1086.85,-243.65 1076.35,-245.04 1079.5,-251.28"/>
</g>
<!-- Node31&#45;&gt;Node35 -->
<g id="edge54" class="edge">
<title>Node31&#45;&gt;Node35</title>
<path fill="none" stroke="midnightblue" d="M1023.62,-280.44C1052.42,-271.19 1098.47,-256.39 1130.14,-246.21"/>
<polygon fill="midnightblue" stroke="midnightblue" points="1131.43,-249.47 1139.88,-243.08 1129.29,-242.8 1131.43,-249.47"/>
</g>
</g>
</svg>
        <g id="navigator" transform="translate(0 0)" fill="#404254">
                <rect fill="#f2f5e9" fill-opacity="0.5" stroke="#606060" stroke-width=".5" x="0" y="0" width="60" height="60"/>
                <use id="zoomplus" xlink:href="#zoomPlus" x="17" y="9" onmousedown="handleZoom(evt,'in')"/>
                <use id="zoomminus" xlink:href="#zoomMin" x="42" y="9" onmousedown="handleZoom(evt,'out')"/>
                <use id="reset" xlink:href="#resetDef" x="30" y="36" onmousedown="handleReset()"/>
                <g id="arrowUp" xlink:href="#dirArrow" transform="translate(30 24)" onmousedown="handlePan(0,-1)">
                  <use xlink:href="#rim" fill="#404040">
                        <set attributeName="fill" to="#808080" begin="arrowUp.mouseover" end="arrowUp.mouseout"/>
                  </use>
                  <path fill="none" stroke="white" stroke-width="1.5" d="M0,-3.0v7 M-2.5,-0.5L0,-3.0L2.5,-0.5"/>
                </g>
                <g id="arrowRight" xlink:href="#dirArrow" transform="rotate(90) translate(36 -43)" onmousedown="handlePan(1,0)">
                  <use xlink:href="#rim" fill="#404040">
                        <set attributeName="fill" to="#808080" begin="arrowRight.mouseover" end="arrowRight.mouseout"/>
                  </use>
                  <path fill="none" stroke="white" stroke-width="1.5" d="M0,-3.0v7 M-2.5,-0.5L0,-3.0L2.5,-0.5"/>
                </g>
                <g id="arrowDown" xlink:href="#dirArrow" transform="rotate(180) translate(-30 -48)" onmousedown="handlePan(0,1)">
                  <use xlink:href="#rim" fill="#404040">
                        <set attributeName="fill" to="#808080" begin="arrowDown.mouseover" end="arrowDown.mouseout"/>
                  </use>
                  <path fill="none" stroke="white" stroke-width="1.5" d="M0,-3.0v7 M-2.5,-0.5L0,-3.0L2.5,-0.5"/>
                </g>
                <g id="arrowLeft" xlink:href="#dirArrow" transform="rotate(270) translate(-36 17)" onmousedown="handlePan(-1,0)">
                  <use xlink:href="#rim" fill="#404040">
                        <set attributeName="fill" to="#808080" begin="arrowLeft.mouseover" end="arrowLeft.mouseout"/>
                  </use>
                  <path fill="none" stroke="white" stroke-width="1.5" d="M0,-3.0v7 M-2.5,-0.5L0,-3.0L2.5,-0.5"/>
                </g>
        </g>
        <svg viewBox="0 0 15 15" width="100%" height="30px" preserveAspectRatio="xMaxYMin meet">
         <g id="arrow_out" transform="scale(0.3 0.3)">
          <a xlink:href="_file_reader_8cpp__incl_org.svg" target="_base">
           <rect id="button" ry="5" rx="5" y="6" x="6" height="38" width="38"
                fill="#f2f5e9" fill-opacity="0.5" stroke="#606060" stroke-width="1.0"/>
           <path id="arrow"
             d="M 11.500037,31.436501 C 11.940474,20.09759 22.043105,11.32322 32.158766,21.979434 L 37.068811,17.246167 C 37.068811,17.246167 37.088388,32 37.088388,32 L 22.160133,31.978069 C 22.160133,31.978069 26.997745,27.140456 26.997745,27.140456 C 18.528582,18.264221 13.291696,25.230495 11.500037,31.436501 z"
             style="fill:#404040;"/>
          </a>
         </g>
        </svg>
</svg>
