<?xml version="1.0" encoding="UTF-8" standalone="no"?>
<!DOCTYPE svg PUBLIC "-//W3C//DTD SVG 1.1//EN"
 "http://www.w3.org/Graphics/SVG/1.1/DTD/svg11.dtd">
<!-- Generated by graphviz version 2.43.0 (0)
 -->
<!-- Title: rawspeed::anonymous_namespace{VC5Decompressor.cpp}::ConvolutionParams Pages: 1 -->
<svg width="968pt" height="250pt"
 viewBox="0.00 0.00 968.00 249.67" xmlns="http://www.w3.org/2000/svg" xmlns:xlink="http://www.w3.org/1999/xlink">
<g id="graph0" class="graph" transform="scale(1 1) rotate(0) translate(4 245.67)">
<title>rawspeed::anonymous_namespace{VC5Decompressor.cpp}::ConvolutionParams</title>
<!-- Node1 -->
<g id="node1" class="node">
<title>Node1</title>
<g id="a_node1"><a xlink:title=" ">
<polygon fill="#bfbfbf" stroke="black" points="760,-87.17 760,-128.17 960,-128.17 960,-87.17 760,-87.17"/>
<text text-anchor="start" x="768" y="-116.17" font-family="Helvetica,sans-Serif" font-size="10.00">rawspeed::anonymous</text>
<text text-anchor="start" x="768" y="-105.17" font-family="Helvetica,sans-Serif" font-size="10.00">_namespace{VC5Decompressor.cpp}</text>
<text text-anchor="middle" x="860" y="-94.17" font-family="Helvetica,sans-Serif" font-size="10.00">::ConvolutionParams</text>
</a>
</g>
</g>
<!-- Node2 -->
<g id="node2" class="node">
<title>Node2</title>
<g id="a_node2"><a xlink:href="../../d0/de8/structrawspeed_1_1anonymous__namespace_02_v_c5_decompressor_8cpp_03_1_1_convolution_params_1_1_last.html" target="_top" xlink:title=" ">
<polygon fill="none" stroke="black" points="488,-147.17 488,-188.17 688,-188.17 688,-147.17 488,-147.17"/>
<text text-anchor="start" x="496" y="-176.17" font-family="Helvetica,sans-Serif" font-size="10.00">rawspeed::anonymous</text>
<text text-anchor="start" x="496" y="-165.17" font-family="Helvetica,sans-Serif" font-size="10.00">_namespace{VC5Decompressor.cpp}</text>
<text text-anchor="middle" x="588" y="-154.17" font-family="Helvetica,sans-Serif" font-size="10.00">::ConvolutionParams::Last</text>
</a>
</g>
</g>
<!-- Node2&#45;&gt;Node1 -->
<g id="edge1" class="edge">
<title>Node2&#45;&gt;Node1</title>
<path fill="none" stroke="#9a32cd" stroke-dasharray="5,2" d="M691.63,-144.87C716.27,-139.39 742.44,-133.58 766.58,-128.21"/>
<polygon fill="#9a32cd" stroke="#9a32cd" points="690.54,-141.52 681.54,-147.11 692.06,-148.36 690.54,-141.52"/>
<text text-anchor="middle" x="724" y="-144.67" font-family="Helvetica,sans-Serif" font-size="10.00"> Last</text>
</g>
<!-- Node3 -->
<g id="node3" class="node">
<title>Node3</title>
<g id="a_node3"><a xlink:title=" ">
<polygon fill="none" stroke="#bfbfbf" points="293,-106.17 293,-125.17 403,-125.17 403,-106.17 293,-106.17"/>
<text text-anchor="middle" x="348" y="-113.17" font-family="Helvetica,sans-Serif" font-size="10.00">std::array&lt; int, 4 &gt;</text>
</a>
</g>
</g>
<!-- Node3&#45;&gt;Node2 -->
<g id="edge2" class="edge">
<title>Node3&#45;&gt;Node2</title>
<path fill="none" stroke="#9a32cd" stroke-dasharray="5,2" d="M385.34,-128.34C396.67,-132.01 409.27,-135.79 421,-138.67 442.45,-143.95 465.69,-148.63 487.79,-152.62"/>
<polygon fill="#9a32cd" stroke="#9a32cd" points="386.36,-124.99 375.76,-125.18 384.16,-131.64 386.36,-124.99"/>
<text text-anchor="middle" x="445.5" y="-162.67" font-family="Helvetica,sans-Serif" font-size="10.00"> mul_odd</text>
<text text-anchor="middle" x="445.5" y="-151.67" font-family="Helvetica,sans-Serif" font-size="10.00">mul_even</text>
</g>
<!-- Node7 -->
<g id="node7" class="node">
<title>Node7</title>
<g id="a_node7"><a xlink:href="../../db/daa/structrawspeed_1_1anonymous__namespace_02_v_c5_decompressor_8cpp_03_1_1_convolution_params_1_1_first.html" target="_top" xlink:title=" ">
<polygon fill="none" stroke="black" points="488,-27.17 488,-68.17 688,-68.17 688,-27.17 488,-27.17"/>
<text text-anchor="start" x="496" y="-56.17" font-family="Helvetica,sans-Serif" font-size="10.00">rawspeed::anonymous</text>
<text text-anchor="start" x="496" y="-45.17" font-family="Helvetica,sans-Serif" font-size="10.00">_namespace{VC5Decompressor.cpp}</text>
<text text-anchor="middle" x="588" y="-34.17" font-family="Helvetica,sans-Serif" font-size="10.00">::ConvolutionParams::First</text>
</a>
</g>
</g>
<!-- Node3&#45;&gt;Node7 -->
<g id="edge8" class="edge">
<title>Node3&#45;&gt;Node7</title>
<path fill="none" stroke="#9a32cd" stroke-dasharray="5,2" d="M378.71,-101.96C391.53,-96.39 406.82,-90.22 421,-85.67 442.4,-78.82 465.72,-72.69 487.94,-67.45"/>
<polygon fill="#9a32cd" stroke="#9a32cd" points="377.17,-98.81 369.45,-106.06 380.01,-105.21 377.17,-98.81"/>
<text text-anchor="middle" x="445.5" y="-99.67" font-family="Helvetica,sans-Serif" font-size="10.00"> mul_odd</text>
<text text-anchor="middle" x="445.5" y="-88.67" font-family="Helvetica,sans-Serif" font-size="10.00">mul_even</text>
</g>
<!-- Node8 -->
<g id="node8" class="node">
<title>Node8</title>
<g id="a_node8"><a xlink:href="../../d2/dac/structrawspeed_1_1anonymous__namespace_02_v_c5_decompressor_8cpp_03_1_1_convolution_params_1_1_middle.html" target="_top" xlink:title=" ">
<polygon fill="none" stroke="black" points="488,-87.17 488,-128.17 688,-128.17 688,-87.17 488,-87.17"/>
<text text-anchor="start" x="496" y="-116.17" font-family="Helvetica,sans-Serif" font-size="10.00">rawspeed::anonymous</text>
<text text-anchor="start" x="496" y="-105.17" font-family="Helvetica,sans-Serif" font-size="10.00">_namespace{VC5Decompressor.cpp}</text>
<text text-anchor="middle" x="588" y="-94.17" font-family="Helvetica,sans-Serif" font-size="10.00">::ConvolutionParams::Middle</text>
</a>
</g>
</g>
<!-- Node3&#45;&gt;Node8 -->
<g id="edge11" class="edge">
<title>Node3&#45;&gt;Node8</title>
<path fill="none" stroke="#9a32cd" stroke-dasharray="5,2" d="M413.28,-113.51C436.22,-112.74 462.62,-111.85 487.81,-111.01"/>
<polygon fill="#9a32cd" stroke="#9a32cd" points="412.88,-110.02 403.01,-113.86 413.12,-117.02 412.88,-110.02"/>
<text text-anchor="middle" x="445.5" y="-127.67" font-family="Helvetica,sans-Serif" font-size="10.00"> mul_odd</text>
<text text-anchor="middle" x="445.5" y="-116.67" font-family="Helvetica,sans-Serif" font-size="10.00">mul_even</text>
</g>
<!-- Node4 -->
<g id="node4" class="node">
<title>Node4</title>
<g id="a_node4"><a xlink:title=" ">
<polygon fill="none" stroke="#bfbfbf" points="145.5,-56.17 145.5,-75.17 174.5,-75.17 174.5,-56.17 145.5,-56.17"/>
<text text-anchor="middle" x="160" y="-63.17" font-family="Helvetica,sans-Serif" font-size="10.00">int</text>
</a>
</g>
</g>
<!-- Node4&#45;&gt;Node2 -->
<g id="edge6" class="edge">
<title>Node4&#45;&gt;Node2</title>
<path fill="none" stroke="#9a32cd" stroke-dasharray="5,2" d="M180.38,-81.73C192.39,-91.1 208.44,-102.62 224,-110.67 255.21,-126.82 407.72,-172.65 421,-174.67 442.53,-177.96 465.8,-178.7 487.91,-178.11"/>
<polygon fill="#9a32cd" stroke="#9a32cd" points="182.42,-78.88 172.42,-75.37 178.05,-84.35 182.42,-78.88"/>
<text text-anchor="middle" x="348" y="-173.67" font-family="Helvetica,sans-Serif" font-size="10.00"> coord_shift</text>
</g>
<!-- Node4&#45;&gt;Node3 -->
<g id="edge3" class="edge">
<title>Node4&#45;&gt;Node3</title>
<path fill="none" stroke="#9a32cd" stroke-dasharray="5,2" d="M184.48,-71.99C216.48,-80.59 274.05,-96.06 311.38,-106.1"/>
<polygon fill="#9a32cd" stroke="#9a32cd" points="185.24,-68.57 174.68,-69.35 183.43,-75.33 185.24,-68.57"/>
<text text-anchor="middle" x="249.5" y="-98.67" font-family="Helvetica,sans-Serif" font-size="10.00"> elements</text>
</g>
<!-- Node4&#45;&gt;Node7 -->
<g id="edge9" class="edge">
<title>Node4&#45;&gt;Node7</title>
<path fill="none" stroke="#9a32cd" stroke-dasharray="5,2" d="M181.16,-49.81C193.07,-41.08 208.75,-30.64 224,-23.67 252.93,-10.46 261.48,-8.93 293,-4.67 341.45,1.87 354.43,0.93 403,-4.67 440.8,-9.03 482.13,-18.27 516.02,-27.07"/>
<polygon fill="#9a32cd" stroke="#9a32cd" points="178.74,-47.26 172.86,-56.07 182.95,-52.84 178.74,-47.26"/>
<text text-anchor="middle" x="348" y="-7.67" font-family="Helvetica,sans-Serif" font-size="10.00"> coord_shift</text>
</g>
<!-- Node4&#45;&gt;Node8 -->
<g id="edge12" class="edge">
<title>Node4&#45;&gt;Node8</title>
<path fill="none" stroke="#9a32cd" stroke-dasharray="5,2" d="M184.74,-62.77C237.03,-57.07 365.78,-46.85 470,-69.67 478.55,-71.55 479.8,-74.62 488,-77.67 496.75,-80.93 506.03,-84.1 515.27,-87.09"/>
<polygon fill="#9a32cd" stroke="#9a32cd" points="184.32,-59.3 174.78,-63.91 185.11,-66.25 184.32,-59.3"/>
<text text-anchor="middle" x="348" y="-62.67" font-family="Helvetica,sans-Serif" font-size="10.00"> coord_shift</text>
</g>
<!-- Node5 -->
<g id="node5" class="node">
<title>Node5</title>
<g id="a_node5"><a xlink:title="STL class.">
<polygon fill="none" stroke="#bfbfbf" points="114,-221.17 114,-240.17 206,-240.17 206,-221.17 114,-221.17"/>
<text text-anchor="middle" x="160" y="-228.17" font-family="Helvetica,sans-Serif" font-size="10.00">std::array&lt; T &gt;</text>
</a>
</g>
</g>
<!-- Node5&#45;&gt;Node3 -->
<g id="edge4" class="edge">
<title>Node5&#45;&gt;Node3</title>
<path fill="none" stroke="orange" stroke-dasharray="5,2" d="M185.11,-215.76C223.85,-191.81 298.89,-145.42 331.38,-125.33"/>
<polygon fill="orange" stroke="orange" points="183.2,-212.83 176.54,-221.07 186.88,-218.79 183.2,-212.83"/>
<text text-anchor="middle" x="249.5" y="-193.67" font-family="Helvetica,sans-Serif" font-size="10.00"> &lt; int, 4 &gt;</text>
</g>
<!-- Node6 -->
<g id="node6" class="node">
<title>Node6</title>
<g id="a_node6"><a xlink:title=" ">
<polygon fill="none" stroke="#bfbfbf" points="0,-221.17 0,-240.17 29,-240.17 29,-221.17 0,-221.17"/>
<text text-anchor="middle" x="14.5" y="-228.17" font-family="Helvetica,sans-Serif" font-size="10.00">T</text>
</a>
</g>
</g>
<!-- Node6&#45;&gt;Node5 -->
<g id="edge5" class="edge">
<title>Node6&#45;&gt;Node5</title>
<path fill="none" stroke="#9a32cd" stroke-dasharray="5,2" d="M39.18,-230.67C59.42,-230.67 89.11,-230.67 113.88,-230.67"/>
<polygon fill="#9a32cd" stroke="#9a32cd" points="39,-227.17 29,-230.67 39,-234.17 39,-227.17"/>
<text text-anchor="middle" x="71.5" y="-233.67" font-family="Helvetica,sans-Serif" font-size="10.00"> elements</text>
</g>
<!-- Node7&#45;&gt;Node1 -->
<g id="edge7" class="edge">
<title>Node7&#45;&gt;Node1</title>
<path fill="none" stroke="#9a32cd" stroke-dasharray="5,2" d="M691.63,-70.48C716.27,-75.96 742.44,-81.77 766.58,-87.14"/>
<polygon fill="#9a32cd" stroke="#9a32cd" points="692.06,-66.99 681.54,-68.24 690.54,-73.82 692.06,-66.99"/>
<text text-anchor="middle" x="724" y="-84.67" font-family="Helvetica,sans-Serif" font-size="10.00"> First</text>
</g>
<!-- Node8&#45;&gt;Node1 -->
<g id="edge10" class="edge">
<title>Node8&#45;&gt;Node1</title>
<path fill="none" stroke="#9a32cd" stroke-dasharray="5,2" d="M698.21,-107.67C718.49,-107.67 739.58,-107.67 759.56,-107.67"/>
<polygon fill="#9a32cd" stroke="#9a32cd" points="698,-104.17 688,-107.67 698,-111.17 698,-104.17"/>
<text text-anchor="middle" x="724" y="-110.67" font-family="Helvetica,sans-Serif" font-size="10.00"> Middle</text>
</g>
</g>
</svg>
