<?xml version="1.0" encoding="UTF-8" standalone="no"?>
<!DOCTYPE svg PUBLIC "-//W3C//DTD SVG 1.1//EN"
 "http://www.w3.org/Graphics/SVG/1.1/DTD/svg11.dtd">
<!-- Generated by graphviz version 2.43.0 (0)
 -->
<!-- Title: librawspeed/RawSpeed&#45;API.h Pages: 1 -->
<svg width="584pt" height="106pt"
 viewBox="0.00 0.00 584.00 106.00" xmlns="http://www.w3.org/2000/svg" xmlns:xlink="http://www.w3.org/1999/xlink">
<g id="graph0" class="graph" transform="scale(1 1) rotate(0) translate(4 102)">
<title>librawspeed/RawSpeed&#45;API.h</title>
<!-- Node1 -->
<g id="node1" class="node">
<title>Node1</title>
<g id="a_node1"><a xlink:title=" ">
<polygon fill="#bfbfbf" stroke="black" points="209.5,-67.5 209.5,-97.5 339.5,-97.5 339.5,-67.5 209.5,-67.5"/>
<text text-anchor="start" x="217.5" y="-85.5" font-family="Helvetica,sans-Serif" font-size="10.00">librawspeed/RawSpeed</text>
<text text-anchor="middle" x="274.5" y="-74.5" font-family="Helvetica,sans-Serif" font-size="10.00">&#45;API.h</text>
</a>
</g>
</g>
<!-- Node2 -->
<g id="node2" class="node">
<title>Node2</title>
<g id="a_node2"><a xlink:href="../../d9/db6/fuzz_2rawspeed_2main_8cpp.html" target="_top" xlink:title=" ">
<polygon fill="none" stroke="black" points="0,-0.5 0,-30.5 117,-30.5 117,-0.5 0,-0.5"/>
<text text-anchor="start" x="8" y="-18.5" font-family="Helvetica,sans-Serif" font-size="10.00">/build/rawspeed/fuzz</text>
<text text-anchor="middle" x="58.5" y="-7.5" font-family="Helvetica,sans-Serif" font-size="10.00">/rawspeed/main.cpp</text>
</a>
</g>
</g>
<!-- Node1&#45;&gt;Node2 -->
<g id="edge1" class="edge">
<title>Node1&#45;&gt;Node2</title>
<path fill="none" stroke="midnightblue" d="M218.27,-64.58C183.19,-54.02 138.56,-40.59 105.39,-30.61"/>
<polygon fill="midnightblue" stroke="midnightblue" points="217.31,-67.95 227.9,-67.48 219.33,-61.24 217.31,-67.95"/>
</g>
<!-- Node3 -->
<g id="node3" class="node">
<title>Node3</title>
<g id="a_node3"><a xlink:href="../../d6/d0e/rawspeed-identify_8cpp.html" target="_top" xlink:title=" ">
<polygon fill="none" stroke="black" points="135,-0.5 135,-30.5 262,-30.5 262,-0.5 135,-0.5"/>
<text text-anchor="start" x="143" y="-18.5" font-family="Helvetica,sans-Serif" font-size="10.00">utilities/identify</text>
<text text-anchor="middle" x="198.5" y="-7.5" font-family="Helvetica,sans-Serif" font-size="10.00">/rawspeed&#45;identify.cpp</text>
</a>
</g>
</g>
<!-- Node1&#45;&gt;Node3 -->
<g id="edge2" class="edge">
<title>Node1&#45;&gt;Node3</title>
<path fill="none" stroke="midnightblue" d="M250.39,-60.88C238.84,-51.01 225.31,-39.43 214.96,-30.58"/>
<polygon fill="midnightblue" stroke="midnightblue" points="248.13,-63.56 258.01,-67.4 252.68,-58.24 248.13,-63.56"/>
</g>
<!-- Node4 -->
<g id="node4" class="node">
<title>Node4</title>
<g id="a_node4"><a xlink:href="../../d0/dc4/src_2utilities_2rsbench_2main_8cpp.html" target="_top" xlink:title=" ">
<polygon fill="none" stroke="black" points="280,-6 280,-25 423,-25 423,-6 280,-6"/>
<text text-anchor="middle" x="351.5" y="-13" font-family="Helvetica,sans-Serif" font-size="10.00">utilities/rsbench/main.cpp</text>
</a>
</g>
</g>
<!-- Node1&#45;&gt;Node4 -->
<g id="edge3" class="edge">
<title>Node1&#45;&gt;Node4</title>
<path fill="none" stroke="midnightblue" d="M299.17,-60.67C313.39,-48.67 330.51,-34.22 341.2,-25.19"/>
<polygon fill="midnightblue" stroke="midnightblue" points="296.59,-58.27 291.21,-67.4 301.11,-63.62 296.59,-58.27"/>
</g>
<!-- Node5 -->
<g id="node5" class="node">
<title>Node5</title>
<g id="a_node5"><a xlink:href="../../d9/d41/rstest_8cpp.html" target="_top" xlink:title=" ">
<polygon fill="none" stroke="black" points="441,-6 441,-25 576,-25 576,-6 441,-6"/>
<text text-anchor="middle" x="508.5" y="-13" font-family="Helvetica,sans-Serif" font-size="10.00">utilities/rstest/rstest.cpp</text>
</a>
</g>
</g>
<!-- Node1&#45;&gt;Node5 -->
<g id="edge4" class="edge">
<title>Node1&#45;&gt;Node5</title>
<path fill="none" stroke="midnightblue" d="M334.8,-64.75C380.56,-52.04 441.59,-35.09 477.8,-25.03"/>
<polygon fill="midnightblue" stroke="midnightblue" points="333.68,-61.43 324.99,-67.48 335.56,-68.17 333.68,-61.43"/>
</g>
</g>
</svg>
