<?xml version="1.0" encoding="UTF-8" standalone="no"?>
<!DOCTYPE svg PUBLIC "-//W3C//DTD SVG 1.1//EN"
 "http://www.w3.org/Graphics/SVG/1.1/DTD/svg11.dtd">
<!-- Generated by graphviz version 2.43.0 (0)
 -->
<!-- Title: librawspeed/decoders/RawDecoderException.h Pages: 1 -->
<svg width="663pt" height="207pt"
 viewBox="0.00 0.00 662.50 207.00" xmlns="http://www.w3.org/2000/svg" xmlns:xlink="http://www.w3.org/1999/xlink">
<g id="graph0" class="graph" transform="scale(1 1) rotate(0) translate(4 203)">
<title>librawspeed/decoders/RawDecoderException.h</title>
<!-- Node1 -->
<g id="node1" class="node">
<title>Node1</title>
<g id="a_node1"><a xlink:title=" ">
<polygon fill="#bfbfbf" stroke="black" points="229,-168.5 229,-198.5 367,-198.5 367,-168.5 229,-168.5"/>
<text text-anchor="start" x="237" y="-186.5" font-family="Helvetica,sans-Serif" font-size="10.00">librawspeed/decoders</text>
<text text-anchor="middle" x="298" y="-175.5" font-family="Helvetica,sans-Serif" font-size="10.00">/RawDecoderException.h</text>
</a>
</g>
</g>
<!-- Node2 -->
<g id="node2" class="node">
<title>Node2</title>
<g id="a_node2"><a xlink:title=" ">
<polygon fill="none" stroke="#bfbfbf" points="135,-56.5 135,-75.5 237,-75.5 237,-56.5 135,-56.5"/>
<text text-anchor="middle" x="186" y="-63.5" font-family="Helvetica,sans-Serif" font-size="10.00">rawspeedconfig.h</text>
</a>
</g>
</g>
<!-- Node1&#45;&gt;Node2 -->
<g id="edge1" class="edge">
<title>Node1&#45;&gt;Node2</title>
<path fill="none" stroke="midnightblue" d="M284.27,-168.34C263.35,-146.77 223.64,-105.81 201.64,-83.13"/>
<polygon fill="midnightblue" stroke="midnightblue" points="203.88,-80.41 194.41,-75.67 198.86,-85.29 203.88,-80.41"/>
</g>
<!-- Node3 -->
<g id="node3" class="node">
<title>Node3</title>
<g id="a_node3"><a xlink:href="../../d7/d05/_rawspeed_exception_8h.html" target="_top" xlink:title=" ">
<polygon fill="none" stroke="black" points="325,-112.5 325,-131.5 495,-131.5 495,-112.5 325,-112.5"/>
<text text-anchor="middle" x="410" y="-119.5" font-family="Helvetica,sans-Serif" font-size="10.00">common/RawspeedException.h</text>
</a>
</g>
</g>
<!-- Node1&#45;&gt;Node3 -->
<g id="edge2" class="edge">
<title>Node1&#45;&gt;Node3</title>
<path fill="none" stroke="midnightblue" d="M324.54,-168.4C342.66,-158.77 366.54,-146.09 384.44,-136.58"/>
<polygon fill="midnightblue" stroke="midnightblue" points="386.51,-139.44 393.7,-131.66 383.23,-133.26 386.51,-139.44"/>
</g>
<!-- Node3&#45;&gt;Node2 -->
<g id="edge3" class="edge">
<title>Node3&#45;&gt;Node2</title>
<path fill="none" stroke="midnightblue" d="M374.51,-112.44C335.68,-103.08 273.34,-88.06 231.08,-77.87"/>
<polygon fill="midnightblue" stroke="midnightblue" points="231.87,-74.46 221.33,-75.52 230.23,-81.26 231.87,-74.46"/>
</g>
<!-- Node4 -->
<g id="node4" class="node">
<title>Node4</title>
<g id="a_node4"><a xlink:href="../../d9/df5/src_2librawspeed_2common_2_common_8h.html" target="_top" xlink:title=" ">
<polygon fill="none" stroke="black" points="255,-56.5 255,-75.5 371,-75.5 371,-56.5 255,-56.5"/>
<text text-anchor="middle" x="313" y="-63.5" font-family="Helvetica,sans-Serif" font-size="10.00">common/Common.h</text>
</a>
</g>
</g>
<!-- Node3&#45;&gt;Node4 -->
<g id="edge4" class="edge">
<title>Node3&#45;&gt;Node4</title>
<path fill="none" stroke="midnightblue" d="M394.42,-112.32C379,-103.74 355.19,-90.49 337.29,-80.52"/>
<polygon fill="midnightblue" stroke="midnightblue" points="338.99,-77.46 328.55,-75.65 335.58,-83.58 338.99,-77.46"/>
</g>
<!-- Node14 -->
<g id="node14" class="node">
<title>Node14</title>
<g id="a_node14"><a xlink:title=" ">
<polygon fill="none" stroke="#bfbfbf" points="389,-56.5 389,-75.5 431,-75.5 431,-56.5 389,-56.5"/>
<text text-anchor="middle" x="410" y="-63.5" font-family="Helvetica,sans-Serif" font-size="10.00">array</text>
</a>
</g>
</g>
<!-- Node3&#45;&gt;Node14 -->
<g id="edge14" class="edge">
<title>Node3&#45;&gt;Node14</title>
<path fill="none" stroke="midnightblue" d="M410,-112.08C410,-105.01 410,-94.86 410,-85.99"/>
<polygon fill="midnightblue" stroke="midnightblue" points="413.5,-85.75 410,-75.75 406.5,-85.75 413.5,-85.75"/>
</g>
<!-- Node15 -->
<g id="node15" class="node">
<title>Node15</title>
<g id="a_node15"><a xlink:title=" ">
<polygon fill="none" stroke="#bfbfbf" points="449.5,-56.5 449.5,-75.5 502.5,-75.5 502.5,-56.5 449.5,-56.5"/>
<text text-anchor="middle" x="476" y="-63.5" font-family="Helvetica,sans-Serif" font-size="10.00">cstdarg</text>
</a>
</g>
</g>
<!-- Node3&#45;&gt;Node15 -->
<g id="edge15" class="edge">
<title>Node3&#45;&gt;Node15</title>
<path fill="none" stroke="midnightblue" d="M420.6,-112.32C430.46,-104.26 445.35,-92.08 457.22,-82.37"/>
<polygon fill="midnightblue" stroke="midnightblue" points="459.68,-84.88 465.2,-75.83 455.25,-79.46 459.68,-84.88"/>
</g>
<!-- Node16 -->
<g id="node16" class="node">
<title>Node16</title>
<g id="a_node16"><a xlink:title=" ">
<polygon fill="none" stroke="#bfbfbf" points="521,-56.5 521,-75.5 567,-75.5 567,-56.5 521,-56.5"/>
<text text-anchor="middle" x="544" y="-63.5" font-family="Helvetica,sans-Serif" font-size="10.00">cstdio</text>
</a>
</g>
</g>
<!-- Node3&#45;&gt;Node16 -->
<g id="edge16" class="edge">
<title>Node3&#45;&gt;Node16</title>
<path fill="none" stroke="midnightblue" d="M431.23,-112.44C453.38,-103.52 488.32,-89.44 513.44,-79.32"/>
<polygon fill="midnightblue" stroke="midnightblue" points="514.9,-82.5 522.87,-75.52 512.28,-76.01 514.9,-82.5"/>
</g>
<!-- Node17 -->
<g id="node17" class="node">
<title>Node17</title>
<g id="a_node17"><a xlink:title=" ">
<polygon fill="none" stroke="#bfbfbf" points="585.5,-56.5 585.5,-75.5 650.5,-75.5 650.5,-56.5 585.5,-56.5"/>
<text text-anchor="middle" x="618" y="-63.5" font-family="Helvetica,sans-Serif" font-size="10.00">stdexcept</text>
</a>
</g>
</g>
<!-- Node3&#45;&gt;Node17 -->
<g id="edge17" class="edge">
<title>Node3&#45;&gt;Node17</title>
<path fill="none" stroke="midnightblue" d="M442.96,-112.44C478.79,-103.14 536.16,-88.25 575.39,-78.06"/>
<polygon fill="midnightblue" stroke="midnightblue" points="576.4,-81.42 585.2,-75.52 574.64,-74.64 576.4,-81.42"/>
</g>
<!-- Node5 -->
<g id="node5" class="node">
<title>Node5</title>
<g id="a_node5"><a xlink:title=" ">
<polygon fill="none" stroke="#bfbfbf" points="0,-0.5 0,-19.5 64,-19.5 64,-0.5 0,-0.5"/>
<text text-anchor="middle" x="32" y="-7.5" font-family="Helvetica,sans-Serif" font-size="10.00">algorithm</text>
</a>
</g>
</g>
<!-- Node4&#45;&gt;Node5 -->
<g id="edge5" class="edge">
<title>Node4&#45;&gt;Node5</title>
<path fill="none" stroke="midnightblue" d="M265.1,-56.47C218.78,-48.11 146.34,-34.79 74.36,-20.23"/>
<polygon fill="midnightblue" stroke="midnightblue" points="74.71,-16.73 64.21,-18.17 73.31,-23.59 74.71,-16.73"/>
</g>
<!-- Node6 -->
<g id="node6" class="node">
<title>Node6</title>
<g id="a_node6"><a xlink:title=" ">
<polygon fill="none" stroke="#bfbfbf" points="82,-0.5 82,-19.5 134,-19.5 134,-0.5 82,-0.5"/>
<text text-anchor="middle" x="108" y="-7.5" font-family="Helvetica,sans-Serif" font-size="10.00">cassert</text>
</a>
</g>
</g>
<!-- Node4&#45;&gt;Node6 -->
<g id="edge6" class="edge">
<title>Node4&#45;&gt;Node6</title>
<path fill="none" stroke="midnightblue" d="M280.52,-56.44C243.31,-46.64 182.53,-30.63 143.93,-20.47"/>
<polygon fill="midnightblue" stroke="midnightblue" points="144.71,-17.05 134.15,-17.89 142.93,-23.82 144.71,-17.05"/>
</g>
<!-- Node7 -->
<g id="node7" class="node">
<title>Node7</title>
<g id="a_node7"><a xlink:title=" ">
<polygon fill="none" stroke="#bfbfbf" points="152,-0.5 152,-19.5 202,-19.5 202,-0.5 152,-0.5"/>
<text text-anchor="middle" x="177" y="-7.5" font-family="Helvetica,sans-Serif" font-size="10.00">climits</text>
</a>
</g>
</g>
<!-- Node4&#45;&gt;Node7 -->
<g id="edge7" class="edge">
<title>Node4&#45;&gt;Node7</title>
<path fill="none" stroke="midnightblue" d="M291.45,-56.44C268.97,-47.52 233.51,-33.44 208.02,-23.32"/>
<polygon fill="midnightblue" stroke="midnightblue" points="209.03,-19.95 198.45,-19.52 206.45,-26.46 209.03,-19.95"/>
</g>
<!-- Node8 -->
<g id="node8" class="node">
<title>Node8</title>
<g id="a_node8"><a xlink:title=" ">
<polygon fill="none" stroke="#bfbfbf" points="220,-0.5 220,-19.5 270,-19.5 270,-0.5 220,-0.5"/>
<text text-anchor="middle" x="245" y="-7.5" font-family="Helvetica,sans-Serif" font-size="10.00">cstdint</text>
</a>
</g>
</g>
<!-- Node4&#45;&gt;Node8 -->
<g id="edge8" class="edge">
<title>Node4&#45;&gt;Node8</title>
<path fill="none" stroke="midnightblue" d="M302.07,-56.32C291.83,-48.18 276.28,-35.84 264,-26.09"/>
<polygon fill="midnightblue" stroke="midnightblue" points="266.13,-23.31 256.12,-19.83 261.78,-28.79 266.13,-23.31"/>
</g>
<!-- Node9 -->
<g id="node9" class="node">
<title>Node9</title>
<g id="a_node9"><a xlink:title=" ">
<polygon fill="none" stroke="#bfbfbf" points="288,-0.5 288,-19.5 338,-19.5 338,-0.5 288,-0.5"/>
<text text-anchor="middle" x="313" y="-7.5" font-family="Helvetica,sans-Serif" font-size="10.00">cstring</text>
</a>
</g>
</g>
<!-- Node4&#45;&gt;Node9 -->
<g id="edge9" class="edge">
<title>Node4&#45;&gt;Node9</title>
<path fill="none" stroke="midnightblue" d="M313,-56.08C313,-49.01 313,-38.86 313,-29.99"/>
<polygon fill="midnightblue" stroke="midnightblue" points="316.5,-29.75 313,-19.75 309.5,-29.75 316.5,-29.75"/>
</g>
<!-- Node10 -->
<g id="node10" class="node">
<title>Node10</title>
<g id="a_node10"><a xlink:title=" ">
<polygon fill="none" stroke="#bfbfbf" points="356.5,-0.5 356.5,-19.5 439.5,-19.5 439.5,-0.5 356.5,-0.5"/>
<text text-anchor="middle" x="398" y="-7.5" font-family="Helvetica,sans-Serif" font-size="10.00">initializer_list</text>
</a>
</g>
</g>
<!-- Node4&#45;&gt;Node10 -->
<g id="edge10" class="edge">
<title>Node4&#45;&gt;Node10</title>
<path fill="none" stroke="midnightblue" d="M326.66,-56.32C339.92,-47.9 360.27,-34.97 375.85,-25.07"/>
<polygon fill="midnightblue" stroke="midnightblue" points="377.81,-27.97 384.38,-19.65 374.06,-22.06 377.81,-27.97"/>
</g>
<!-- Node11 -->
<g id="node11" class="node">
<title>Node11</title>
<g id="a_node11"><a xlink:title=" ">
<polygon fill="none" stroke="#bfbfbf" points="458,-0.5 458,-19.5 502,-19.5 502,-0.5 458,-0.5"/>
<text text-anchor="middle" x="480" y="-7.5" font-family="Helvetica,sans-Serif" font-size="10.00">string</text>
</a>
</g>
</g>
<!-- Node4&#45;&gt;Node11 -->
<g id="edge11" class="edge">
<title>Node4&#45;&gt;Node11</title>
<path fill="none" stroke="midnightblue" d="M339.46,-56.44C369.01,-46.89 416.8,-31.44 448.31,-21.25"/>
<polygon fill="midnightblue" stroke="midnightblue" points="449.49,-24.54 457.93,-18.14 447.34,-17.88 449.49,-24.54"/>
</g>
<!-- Node12 -->
<g id="node12" class="node">
<title>Node12</title>
<g id="a_node12"><a xlink:title=" ">
<polygon fill="none" stroke="#bfbfbf" points="520.5,-0.5 520.5,-19.5 589.5,-19.5 589.5,-0.5 520.5,-0.5"/>
<text text-anchor="middle" x="555" y="-7.5" font-family="Helvetica,sans-Serif" font-size="10.00">type_traits</text>
</a>
</g>
</g>
<!-- Node4&#45;&gt;Node12 -->
<g id="edge12" class="edge">
<title>Node4&#45;&gt;Node12</title>
<path fill="none" stroke="midnightblue" d="M351.35,-56.44C394.59,-46.79 464.81,-31.12 510.45,-20.94"/>
<polygon fill="midnightblue" stroke="midnightblue" points="511.36,-24.32 520.36,-18.73 509.84,-17.49 511.36,-24.32"/>
</g>
<!-- Node13 -->
<g id="node13" class="node">
<title>Node13</title>
<g id="a_node13"><a xlink:title=" ">
<polygon fill="none" stroke="#bfbfbf" points="607.5,-0.5 607.5,-19.5 654.5,-19.5 654.5,-0.5 607.5,-0.5"/>
<text text-anchor="middle" x="631" y="-7.5" font-family="Helvetica,sans-Serif" font-size="10.00">vector</text>
</a>
</g>
</g>
<!-- Node4&#45;&gt;Node13 -->
<g id="edge13" class="edge">
<title>Node4&#45;&gt;Node13</title>
<path fill="none" stroke="midnightblue" d="M371.22,-56.67C437.57,-47.04 542.96,-31.3 597.44,-20.1"/>
<polygon fill="midnightblue" stroke="midnightblue" points="598.26,-23.51 607.31,-18 596.8,-16.66 598.26,-23.51"/>
</g>
</g>
</svg>
