<?xml version="1.0" encoding="UTF-8" standalone="no"?>
<!DOCTYPE svg PUBLIC "-//W3C//DTD SVG 1.1//EN"
 "http://www.w3.org/Graphics/SVG/1.1/DTD/svg11.dtd">
<!-- Generated by graphviz version 2.43.0 (0)
 -->
<!-- Title: librawspeed/decompressors/AbstractLJpegDecompressor.h Pages: 1 -->
<svg width="1517pt" height="195pt"
 viewBox="0.00 0.00 1516.50 195.00" xmlns="http://www.w3.org/2000/svg" xmlns:xlink="http://www.w3.org/1999/xlink">
<g id="graph0" class="graph" transform="scale(1 1) rotate(0) translate(4 191)">
<title>librawspeed/decompressors/AbstractLJpegDecompressor.h</title>
<!-- Node1 -->
<g id="node1" class="node">
<title>Node1</title>
<g id="a_node1"><a xlink:title=" ">
<polygon fill="#bfbfbf" stroke="black" points="693.5,-156.5 693.5,-186.5 858.5,-186.5 858.5,-156.5 693.5,-156.5"/>
<text text-anchor="start" x="701.5" y="-174.5" font-family="Helvetica,sans-Serif" font-size="10.00">librawspeed/decompressors</text>
<text text-anchor="middle" x="776" y="-163.5" font-family="Helvetica,sans-Serif" font-size="10.00">/AbstractLJpegDecompressor.h</text>
</a>
</g>
</g>
<!-- Node2 -->
<g id="node2" class="node">
<title>Node2</title>
<g id="a_node2"><a xlink:href="../../dc/d52/_cr2_decompressor_8h.html" target="_top" xlink:title=" ">
<polygon fill="none" stroke="black" points="270.5,-84 270.5,-114 423.5,-114 423.5,-84 270.5,-84"/>
<text text-anchor="start" x="278.5" y="-102" font-family="Helvetica,sans-Serif" font-size="10.00">librawspeed/decompressors</text>
<text text-anchor="middle" x="347" y="-91" font-family="Helvetica,sans-Serif" font-size="10.00">/Cr2Decompressor.h</text>
</a>
</g>
</g>
<!-- Node1&#45;&gt;Node2 -->
<g id="edge1" class="edge">
<title>Node1&#45;&gt;Node2</title>
<path fill="none" stroke="midnightblue" d="M683.04,-155.22C605.49,-142.48 496.32,-124.54 423.7,-112.6"/>
<polygon fill="midnightblue" stroke="midnightblue" points="682.85,-158.74 693.28,-156.91 683.98,-151.83 682.85,-158.74"/>
</g>
<!-- Node6 -->
<g id="node6" class="node">
<title>Node6</title>
<g id="a_node6"><a xlink:href="../../d2/dc6/_dummy_l_jpeg_decompressor_8cpp.html" target="_top" xlink:title=" ">
<polygon fill="none" stroke="black" points="506.5,-78.5 506.5,-119.5 681.5,-119.5 681.5,-78.5 506.5,-78.5"/>
<text text-anchor="start" x="514.5" y="-107.5" font-family="Helvetica,sans-Serif" font-size="10.00">/build/rawspeed/fuzz</text>
<text text-anchor="start" x="514.5" y="-96.5" font-family="Helvetica,sans-Serif" font-size="10.00">/librawspeed/decompressors</text>
<text text-anchor="middle" x="594" y="-85.5" font-family="Helvetica,sans-Serif" font-size="10.00">/DummyLJpegDecompressor.cpp</text>
</a>
</g>
</g>
<!-- Node1&#45;&gt;Node6 -->
<g id="edge5" class="edge">
<title>Node1&#45;&gt;Node6</title>
<path fill="none" stroke="midnightblue" d="M729.96,-152.67C703.89,-142.57 671.23,-129.92 644.46,-119.55"/>
<polygon fill="midnightblue" stroke="midnightblue" points="729.02,-156.05 739.61,-156.4 731.55,-149.53 729.02,-156.05"/>
</g>
<!-- Node7 -->
<g id="node7" class="node">
<title>Node7</title>
<g id="a_node7"><a xlink:href="../../d7/dc7/_hasselblad_decompressor_8h.html" target="_top" xlink:title=" ">
<polygon fill="none" stroke="black" points="699.5,-84 699.5,-114 852.5,-114 852.5,-84 699.5,-84"/>
<text text-anchor="start" x="707.5" y="-102" font-family="Helvetica,sans-Serif" font-size="10.00">librawspeed/decompressors</text>
<text text-anchor="middle" x="776" y="-91" font-family="Helvetica,sans-Serif" font-size="10.00">/HasselbladDecompressor.h</text>
</a>
</g>
</g>
<!-- Node1&#45;&gt;Node7 -->
<g id="edge6" class="edge">
<title>Node1&#45;&gt;Node7</title>
<path fill="none" stroke="midnightblue" d="M776,-146.23C776,-135.57 776,-123.41 776,-114.25"/>
<polygon fill="midnightblue" stroke="midnightblue" points="772.5,-146.23 776,-156.23 779.5,-146.23 772.5,-146.23"/>
</g>
<!-- Node11 -->
<g id="node11" class="node">
<title>Node11</title>
<g id="a_node11"><a xlink:href="../../d8/d3d/_l_jpeg_decompressor_8h.html" target="_top" xlink:title=" ">
<polygon fill="none" stroke="black" points="994.5,-84 994.5,-114 1147.5,-114 1147.5,-84 994.5,-84"/>
<text text-anchor="start" x="1002.5" y="-102" font-family="Helvetica,sans-Serif" font-size="10.00">librawspeed/decompressors</text>
<text text-anchor="middle" x="1071" y="-91" font-family="Helvetica,sans-Serif" font-size="10.00">/LJpegDecompressor.h</text>
</a>
</g>
</g>
<!-- Node1&#45;&gt;Node11 -->
<g id="edge10" class="edge">
<title>Node1&#45;&gt;Node11</title>
<path fill="none" stroke="midnightblue" d="M844.55,-154.12C895.36,-141.97 963.9,-125.59 1012.22,-114.05"/>
<polygon fill="midnightblue" stroke="midnightblue" points="843.55,-150.76 834.64,-156.49 845.17,-157.57 843.55,-150.76"/>
</g>
<!-- Node15 -->
<g id="node15" class="node">
<title>Node15</title>
<g id="a_node15"><a xlink:href="../../d7/d5e/_abstract_l_jpeg_decompressor_8cpp.html" target="_top" xlink:title=" ">
<polygon fill="none" stroke="black" points="1166,-84 1166,-114 1342,-114 1342,-84 1166,-84"/>
<text text-anchor="start" x="1174" y="-102" font-family="Helvetica,sans-Serif" font-size="10.00">librawspeed/decompressors</text>
<text text-anchor="middle" x="1254" y="-91" font-family="Helvetica,sans-Serif" font-size="10.00">/AbstractLJpegDecompressor.cpp</text>
</a>
</g>
</g>
<!-- Node1&#45;&gt;Node15 -->
<g id="edge14" class="edge">
<title>Node1&#45;&gt;Node15</title>
<path fill="none" stroke="midnightblue" d="M868.95,-160.06C946.26,-150.93 1059.09,-136.56 1157,-120 1167.43,-118.24 1178.44,-116.17 1189.16,-114.04"/>
<polygon fill="midnightblue" stroke="midnightblue" points="868.28,-156.62 858.75,-161.26 869.09,-163.57 868.28,-156.62"/>
</g>
<!-- Node3 -->
<g id="node3" class="node">
<title>Node3</title>
<g id="a_node3"><a xlink:href="../../dc/dfc/fuzz_2librawspeed_2decompressors_2_cr2_decompressor_8cpp.html" target="_top" xlink:title=" ">
<polygon fill="none" stroke="black" points="0,-0.5 0,-41.5 156,-41.5 156,-0.5 0,-0.5"/>
<text text-anchor="start" x="8" y="-29.5" font-family="Helvetica,sans-Serif" font-size="10.00">/build/rawspeed/fuzz</text>
<text text-anchor="start" x="8" y="-18.5" font-family="Helvetica,sans-Serif" font-size="10.00">/librawspeed/decompressors</text>
<text text-anchor="middle" x="78" y="-7.5" font-family="Helvetica,sans-Serif" font-size="10.00">/Cr2Decompressor.cpp</text>
</a>
</g>
</g>
<!-- Node2&#45;&gt;Node3 -->
<g id="edge2" class="edge">
<title>Node2&#45;&gt;Node3</title>
<path fill="none" stroke="midnightblue" d="M287.65,-81.23C246.16,-69.51 190.62,-53.82 147.13,-41.53"/>
<polygon fill="midnightblue" stroke="midnightblue" points="286.77,-84.62 297.35,-83.97 288.68,-77.88 286.77,-84.62"/>
</g>
<!-- Node4 -->
<g id="node4" class="node">
<title>Node4</title>
<g id="a_node4"><a xlink:href="../../d4/db4/_cr2_decoder_8cpp.html" target="_top" xlink:title=" ">
<polygon fill="none" stroke="black" points="174.5,-6 174.5,-36 297.5,-36 297.5,-6 174.5,-6"/>
<text text-anchor="start" x="182.5" y="-24" font-family="Helvetica,sans-Serif" font-size="10.00">librawspeed/decoders</text>
<text text-anchor="middle" x="236" y="-13" font-family="Helvetica,sans-Serif" font-size="10.00">/Cr2Decoder.cpp</text>
</a>
</g>
</g>
<!-- Node2&#45;&gt;Node4 -->
<g id="edge3" class="edge">
<title>Node2&#45;&gt;Node4</title>
<path fill="none" stroke="midnightblue" d="M317.95,-78.11C298.64,-64.89 273.76,-47.86 256.51,-36.04"/>
<polygon fill="midnightblue" stroke="midnightblue" points="316.15,-81.12 326.38,-83.88 320.11,-75.35 316.15,-81.12"/>
</g>
<!-- Node5 -->
<g id="node5" class="node">
<title>Node5</title>
<g id="a_node5"><a xlink:href="../../d4/d3f/src_2librawspeed_2decompressors_2_cr2_decompressor_8cpp.html" target="_top" xlink:title=" ">
<polygon fill="none" stroke="black" points="315.5,-6 315.5,-36 468.5,-36 468.5,-6 315.5,-6"/>
<text text-anchor="start" x="323.5" y="-24" font-family="Helvetica,sans-Serif" font-size="10.00">librawspeed/decompressors</text>
<text text-anchor="middle" x="392" y="-13" font-family="Helvetica,sans-Serif" font-size="10.00">/Cr2Decompressor.cpp</text>
</a>
</g>
</g>
<!-- Node2&#45;&gt;Node5 -->
<g id="edge4" class="edge">
<title>Node2&#45;&gt;Node5</title>
<path fill="none" stroke="midnightblue" d="M360.57,-75.07C368.06,-62.44 377.11,-47.15 383.57,-36.23"/>
<polygon fill="midnightblue" stroke="midnightblue" points="357.55,-73.32 355.46,-83.7 363.57,-76.88 357.55,-73.32"/>
</g>
<!-- Node8 -->
<g id="node8" class="node">
<title>Node8</title>
<g id="a_node8"><a xlink:href="../../dc/dcd/fuzz_2librawspeed_2decompressors_2_hasselblad_decompressor_8cpp.html" target="_top" xlink:title=" ">
<polygon fill="none" stroke="black" points="487,-0.5 487,-41.5 651,-41.5 651,-0.5 487,-0.5"/>
<text text-anchor="start" x="495" y="-29.5" font-family="Helvetica,sans-Serif" font-size="10.00">/build/rawspeed/fuzz</text>
<text text-anchor="start" x="495" y="-18.5" font-family="Helvetica,sans-Serif" font-size="10.00">/librawspeed/decompressors</text>
<text text-anchor="middle" x="569" y="-7.5" font-family="Helvetica,sans-Serif" font-size="10.00">/HasselbladDecompressor.cpp</text>
</a>
</g>
</g>
<!-- Node7&#45;&gt;Node8 -->
<g id="edge7" class="edge">
<title>Node7&#45;&gt;Node8</title>
<path fill="none" stroke="midnightblue" d="M728.08,-80.41C696.5,-68.81 655.11,-53.61 622.46,-41.63"/>
<polygon fill="midnightblue" stroke="midnightblue" points="726.96,-83.72 737.55,-83.88 729.37,-77.15 726.96,-83.72"/>
</g>
<!-- Node9 -->
<g id="node9" class="node">
<title>Node9</title>
<g id="a_node9"><a xlink:href="../../d3/dc1/_threefr_decoder_8cpp.html" target="_top" xlink:title=" ">
<polygon fill="none" stroke="black" points="669.5,-6 669.5,-36 792.5,-36 792.5,-6 669.5,-6"/>
<text text-anchor="start" x="677.5" y="-24" font-family="Helvetica,sans-Serif" font-size="10.00">librawspeed/decoders</text>
<text text-anchor="middle" x="731" y="-13" font-family="Helvetica,sans-Serif" font-size="10.00">/ThreefrDecoder.cpp</text>
</a>
</g>
</g>
<!-- Node7&#45;&gt;Node9 -->
<g id="edge8" class="edge">
<title>Node7&#45;&gt;Node9</title>
<path fill="none" stroke="midnightblue" d="M762.43,-75.07C754.94,-62.44 745.89,-47.15 739.43,-36.23"/>
<polygon fill="midnightblue" stroke="midnightblue" points="759.43,-76.88 767.54,-83.7 765.45,-73.32 759.43,-76.88"/>
</g>
<!-- Node10 -->
<g id="node10" class="node">
<title>Node10</title>
<g id="a_node10"><a xlink:href="../../d5/d47/src_2librawspeed_2decompressors_2_hasselblad_decompressor_8cpp.html" target="_top" xlink:title=" ">
<polygon fill="none" stroke="black" points="811,-6 811,-36 975,-36 975,-6 811,-6"/>
<text text-anchor="start" x="819" y="-24" font-family="Helvetica,sans-Serif" font-size="10.00">librawspeed/decompressors</text>
<text text-anchor="middle" x="893" y="-13" font-family="Helvetica,sans-Serif" font-size="10.00">/HasselbladDecompressor.cpp</text>
</a>
</g>
</g>
<!-- Node7&#45;&gt;Node10 -->
<g id="edge9" class="edge">
<title>Node7&#45;&gt;Node10</title>
<path fill="none" stroke="midnightblue" d="M806.34,-78.29C826.73,-65.05 853.11,-47.91 871.38,-36.04"/>
<polygon fill="midnightblue" stroke="midnightblue" points="804.21,-75.5 797.73,-83.88 808.03,-81.37 804.21,-75.5"/>
</g>
<!-- Node12 -->
<g id="node12" class="node">
<title>Node12</title>
<g id="a_node12"><a xlink:href="../../db/d3f/fuzz_2librawspeed_2decompressors_2_l_jpeg_decompressor_8cpp.html" target="_top" xlink:title=" ">
<polygon fill="none" stroke="black" points="993,-0.5 993,-41.5 1149,-41.5 1149,-0.5 993,-0.5"/>
<text text-anchor="start" x="1001" y="-29.5" font-family="Helvetica,sans-Serif" font-size="10.00">/build/rawspeed/fuzz</text>
<text text-anchor="start" x="1001" y="-18.5" font-family="Helvetica,sans-Serif" font-size="10.00">/librawspeed/decompressors</text>
<text text-anchor="middle" x="1071" y="-7.5" font-family="Helvetica,sans-Serif" font-size="10.00">/LJpegDecompressor.cpp</text>
</a>
</g>
</g>
<!-- Node11&#45;&gt;Node12 -->
<g id="edge11" class="edge">
<title>Node11&#45;&gt;Node12</title>
<path fill="none" stroke="midnightblue" d="M1071,-73.66C1071,-63.33 1071,-51.44 1071,-41.68"/>
<polygon fill="midnightblue" stroke="midnightblue" points="1067.5,-73.7 1071,-83.7 1074.5,-73.71 1067.5,-73.7"/>
</g>
<!-- Node13 -->
<g id="node13" class="node">
<title>Node13</title>
<g id="a_node13"><a xlink:href="../../d4/dd6/_abstract_dng_decompressor_8cpp.html" target="_top" xlink:title=" ">
<polygon fill="none" stroke="black" points="1167,-6 1167,-36 1337,-36 1337,-6 1167,-6"/>
<text text-anchor="start" x="1175" y="-24" font-family="Helvetica,sans-Serif" font-size="10.00">librawspeed/decompressors</text>
<text text-anchor="middle" x="1252" y="-13" font-family="Helvetica,sans-Serif" font-size="10.00">/AbstractDngDecompressor.cpp</text>
</a>
</g>
</g>
<!-- Node11&#45;&gt;Node13 -->
<g id="edge12" class="edge">
<title>Node11&#45;&gt;Node13</title>
<path fill="none" stroke="midnightblue" d="M1114.17,-79.87C1146.17,-66.44 1189.15,-48.39 1218.56,-36.04"/>
<polygon fill="midnightblue" stroke="midnightblue" points="1112.49,-76.78 1104.62,-83.88 1115.2,-83.24 1112.49,-76.78"/>
</g>
<!-- Node14 -->
<g id="node14" class="node">
<title>Node14</title>
<g id="a_node14"><a xlink:href="../../da/db1/src_2librawspeed_2decompressors_2_l_jpeg_decompressor_8cpp.html" target="_top" xlink:title=" ">
<polygon fill="none" stroke="black" points="1355.5,-6 1355.5,-36 1508.5,-36 1508.5,-6 1355.5,-6"/>
<text text-anchor="start" x="1363.5" y="-24" font-family="Helvetica,sans-Serif" font-size="10.00">librawspeed/decompressors</text>
<text text-anchor="middle" x="1432" y="-13" font-family="Helvetica,sans-Serif" font-size="10.00">/LJpegDecompressor.cpp</text>
</a>
</g>
</g>
<!-- Node11&#45;&gt;Node14 -->
<g id="edge13" class="edge">
<title>Node11&#45;&gt;Node14</title>
<path fill="none" stroke="midnightblue" d="M1140.3,-81.63C1145.94,-80.37 1151.56,-79.15 1157,-78 1240.66,-60.31 1262.34,-59.69 1346,-42 1354.7,-40.16 1363.87,-38.13 1372.85,-36.08"/>
<polygon fill="midnightblue" stroke="midnightblue" points="1139.13,-78.3 1130.15,-83.92 1140.67,-85.13 1139.13,-78.3"/>
</g>
</g>
</svg>
