<?xml version="1.0" encoding="UTF-8" standalone="no"?>
<!DOCTYPE svg PUBLIC "-//W3C//DTD SVG 1.1//EN"
 "http://www.w3.org/Graphics/SVG/1.1/DTD/svg11.dtd">
<!-- Generated by graphviz version 2.43.0 (0)
 -->
<!-- Title: LLVMFuzzerTestOneInput Pages: 1 -->
<!--zoomable 558 -->
<svg id="main" version="1.1" xmlns="http://www.w3.org/2000/svg" xmlns:xlink="http://www.w3.org/1999/xlink" xml:space="preserve" onload="init(evt)">
<style type="text/css"><![CDATA[
.edge:hover path { stroke: red; }
.edge:hover polygon { stroke: red; fill: red; }
]]></style>
<script type="text/javascript"><![CDATA[
var edges = document.getElementsByTagName('g');
if (edges && edges.length) {
  for (var i=0;i<edges.length;i++) {
    if (edges[i].id.substr(0,4)=='edge') {
      edges[i].setAttribute('class','edge');
    }
  }
}
]]></script>
        <defs>
                <circle id="rim" cx="0" cy="0" r="7"/>
                <circle id="rim2" cx="0" cy="0" r="3.5"/>
                <g id="zoomPlus">
                        <use xlink:href="#rim" fill="#404040">
                                <set attributeName="fill" to="#808080" begin="zoomplus.mouseover" end="zoomplus.mouseout"/>
                        </use>
                        <path d="M-4,0h8M0,-4v8" fill="none" stroke="white" stroke-width="1.5" pointer-events="none"/>
                </g>
                <g id="zoomMin">
                        <use xlink:href="#rim" fill="#404040">
                                <set attributeName="fill" to="#808080" begin="zoomminus.mouseover" end="zoomminus.mouseout"/>
                        </use>
                        <path d="M-4,0h8" fill="none" stroke="white" stroke-width="1.5" pointer-events="none"/>
                </g>
                <g id="dirArrow">
                        <path fill="none" stroke="white" stroke-width="1.5" d="M0,-3.0v7 M-2.5,-0.5L0,-3.0L2.5,-0.5"/>
                </g>
               <g id="resetDef">
                       <use xlink:href="#rim2" fill="#404040">
                               <set attributeName="fill" to="#808080" begin="reset.mouseover" end="reset.mouseout"/>
                       </use>
               </g>
        </defs>

<script type="text/javascript">
var viewWidth = 1012;
var viewHeight = 558;
var sectionId = 'dynsection-1';
</script>
<script xlink:href="../../svgpan.js"/>
<svg id="graph" class="graph">
<g id="viewport">
<title>LLVMFuzzerTestOneInput</title>
<!-- Node1 -->
<g id="node1" class="node">
<title>Node1</title>
<g id="a_node1"><a xlink:title=" ">
<polygon fill="#bfbfbf" stroke="black" points="0,-275 0,-294 136,-294 136,-275 0,-275"/>
<text text-anchor="middle" x="68" y="-282" font-family="Helvetica,sans-Serif" font-size="10.00">LLVMFuzzerTestOneInput</text>
</a>
</g>
</g>
<!-- Node2 -->
<g id="node2" class="node">
<title>Node2</title>
<g id="a_node2"><a xlink:href="../../dd/da0/classrawspeed_1_1_byte_stream.html#a804858089e7e6c442815d46128cca1ed" target="_top" xlink:title=" ">
<polygon fill="none" stroke="black" points="876,-512.5 876,-542.5 1004,-542.5 1004,-512.5 876,-512.5"/>
<text text-anchor="start" x="884" y="-530.5" font-family="Helvetica,sans-Serif" font-size="10.00">rawspeed::ByteStream</text>
<text text-anchor="middle" x="940" y="-519.5" font-family="Helvetica,sans-Serif" font-size="10.00">::ByteStream</text>
</a>
</g>
</g>
<!-- Node1&#45;&gt;Node2 -->
<g id="edge1" class="edge">
<title>Node1&#45;&gt;Node2</title>
<path fill="none" stroke="midnightblue" d="M71.55,-294.35C80.08,-325.36 110.64,-421.82 172,-471.5 267.92,-549.16 315.09,-549.5 438.5,-549.5 438.5,-549.5 438.5,-549.5 613,-549.5 699.96,-549.5 799.67,-541.61 865.68,-535.28"/>
<polygon fill="midnightblue" stroke="midnightblue" points="866.37,-538.73 875.98,-534.28 865.69,-531.76 866.37,-538.73"/>
</g>
<!-- Node3 -->
<g id="node3" class="node">
<title>Node3</title>
<g id="a_node3"><a xlink:href="../../dc/d44/classrawspeed_1_1_raw_image_data.html#a9c4e731cd919ff9b06fe440284b2e8c8" target="_top" xlink:title=" ">
<polygon fill="none" stroke="black" points="179,-163.5 179,-193.5 324,-193.5 324,-163.5 179,-163.5"/>
<text text-anchor="start" x="187" y="-181.5" font-family="Helvetica,sans-Serif" font-size="10.00">rawspeed::RawImageData</text>
<text text-anchor="middle" x="251.5" y="-170.5" font-family="Helvetica,sans-Serif" font-size="10.00">::checkMemIsInitialized</text>
</a>
</g>
</g>
<!-- Node1&#45;&gt;Node3 -->
<g id="edge2" class="edge">
<title>Node1&#45;&gt;Node3</title>
<path fill="none" stroke="midnightblue" d="M80.05,-274.76C98.2,-259.13 135.93,-228.22 172,-208.5 179.36,-204.48 187.38,-200.75 195.38,-197.38"/>
<polygon fill="midnightblue" stroke="midnightblue" points="196.77,-200.59 204.73,-193.6 194.15,-194.1 196.77,-200.59"/>
</g>
<!-- Node4 -->
<g id="node4" class="node">
<title>Node4</title>
<g id="a_node4"><a xlink:href="../../dc/d44/classrawspeed_1_1_raw_image_data.html#af7cbbd3ab6bb415e7e1b1f58a285084f" target="_top" xlink:title=" ">
<polygon fill="none" stroke="black" points="179,-82.5 179,-112.5 324,-112.5 324,-82.5 179,-82.5"/>
<text text-anchor="start" x="187" y="-100.5" font-family="Helvetica,sans-Serif" font-size="10.00">rawspeed::RawImageData</text>
<text text-anchor="middle" x="251.5" y="-89.5" font-family="Helvetica,sans-Serif" font-size="10.00">::createData</text>
</a>
</g>
</g>
<!-- Node1&#45;&gt;Node4 -->
<g id="edge3" class="edge">
<title>Node1&#45;&gt;Node4</title>
<path fill="none" stroke="midnightblue" d="M75.21,-274.96C90.16,-252.42 130.02,-194.76 172,-154.5 185.92,-141.15 203.1,-128.34 217.83,-118.25"/>
<polygon fill="midnightblue" stroke="midnightblue" points="219.83,-121.13 226.18,-112.65 215.93,-115.32 219.83,-121.13"/>
</g>
<!-- Node7 -->
<g id="node7" class="node">
<title>Node7</title>
<g id="a_node7"><a xlink:href="../../d9/d5a/fuzz_2librawspeed_2fuzz_2_common_8cpp.html#a9b5193764409a69db1176954187dad97" target="_top" xlink:title=" ">
<polygon fill="none" stroke="black" points="201,-251 201,-270 302,-270 302,-251 201,-251"/>
<text text-anchor="middle" x="251.5" y="-258" font-family="Helvetica,sans-Serif" font-size="10.00">CreateRawImage</text>
</a>
</g>
</g>
<!-- Node1&#45;&gt;Node7 -->
<g id="edge6" class="edge">
<title>Node1&#45;&gt;Node7</title>
<path fill="none" stroke="midnightblue" d="M136.07,-275.63C153.96,-273.27 173.18,-270.72 190.66,-268.41"/>
<polygon fill="midnightblue" stroke="midnightblue" points="191.27,-271.86 200.73,-267.08 190.36,-264.92 191.27,-271.86"/>
</g>
<!-- Node10 -->
<g id="node10" class="node">
<title>Node10</title>
<g id="a_node10"><a xlink:href="../../dd/da0/classrawspeed_1_1_byte_stream.html#ac598b7b6f0f8fd5476adb7c1363b1518" target="_top" xlink:title=" ">
<polygon fill="none" stroke="black" points="375.5,-98.5 375.5,-128.5 503.5,-128.5 503.5,-98.5 375.5,-98.5"/>
<text text-anchor="start" x="383.5" y="-116.5" font-family="Helvetica,sans-Serif" font-size="10.00">rawspeed::ByteStream</text>
<text text-anchor="middle" x="439.5" y="-105.5" font-family="Helvetica,sans-Serif" font-size="10.00">::getU32</text>
</a>
</g>
</g>
<!-- Node1&#45;&gt;Node10 -->
<g id="edge27" class="edge">
<title>Node1&#45;&gt;Node10</title>
<path fill="none" stroke="midnightblue" d="M89.15,-274.95C109.66,-265.5 142.52,-251.11 172,-241.5 241.08,-218.99 273.15,-247.46 331,-203.5 357.29,-183.52 341.76,-159.79 367,-138.5 368.98,-136.83 371.08,-135.27 373.26,-133.81"/>
<polygon fill="midnightblue" stroke="midnightblue" points="375.19,-136.74 382.07,-128.68 371.67,-130.69 375.19,-136.74"/>
</g>
<!-- Node12 -->
<g id="node12" class="node">
<title>Node12</title>
<g id="a_node12"><a xlink:href="../../dd/d12/classrawspeed_1_1_raw_image.html#a2907002b5c707eca6939061f8b0d5e5d" target="_top" xlink:title=" ">
<polygon fill="none" stroke="black" points="378.5,-294.5 378.5,-324.5 500.5,-324.5 500.5,-294.5 378.5,-294.5"/>
<text text-anchor="start" x="386.5" y="-312.5" font-family="Helvetica,sans-Serif" font-size="10.00">rawspeed::RawImage</text>
<text text-anchor="middle" x="439.5" y="-301.5" font-family="Helvetica,sans-Serif" font-size="10.00">::operator&#45;&gt;</text>
</a>
</g>
</g>
<!-- Node1&#45;&gt;Node12 -->
<g id="edge28" class="edge">
<title>Node1&#45;&gt;Node12</title>
<path fill="none" stroke="midnightblue" d="M136.34,-289.06C202.08,-293.5 301.67,-300.24 368.35,-304.75"/>
<polygon fill="midnightblue" stroke="midnightblue" points="368.13,-308.25 378.35,-305.43 368.61,-301.26 368.13,-308.25"/>
</g>
<!-- Node14 -->
<g id="node14" class="node">
<title>Node14</title>
<g id="a_node14"><a xlink:href="../../de/d70/classrawspeed_1_1_crw_decompressor.html#a16b8f8f8ff89abbb8a29c335e82625a8" target="_top" xlink:title=" ">
<polygon fill="none" stroke="black" points="172,-386.5 172,-416.5 331,-416.5 331,-386.5 172,-386.5"/>
<text text-anchor="start" x="180" y="-404.5" font-family="Helvetica,sans-Serif" font-size="10.00">rawspeed::CrwDecompressor</text>
<text text-anchor="middle" x="251.5" y="-393.5" font-family="Helvetica,sans-Serif" font-size="10.00">::CrwDecompressor</text>
</a>
</g>
</g>
<!-- Node1&#45;&gt;Node14 -->
<g id="edge13" class="edge">
<title>Node1&#45;&gt;Node14</title>
<path fill="none" stroke="midnightblue" d="M79.84,-294.23C98,-310.22 136.11,-342.47 172,-364.5 182.33,-370.84 193.93,-376.85 204.97,-382.11"/>
<polygon fill="midnightblue" stroke="midnightblue" points="203.53,-385.3 214.07,-386.35 206.48,-378.96 203.53,-385.3"/>
</g>
<!-- Node15 -->
<g id="node15" class="node">
<title>Node15</title>
<g id="a_node15"><a xlink:href="../../dd/da0/classrawspeed_1_1_byte_stream.html#ab4972769baa5c0ed59ec0608ed2b307d" target="_top" xlink:title=" ">
<polygon fill="none" stroke="black" points="375.5,-343.5 375.5,-373.5 503.5,-373.5 503.5,-343.5 375.5,-343.5"/>
<text text-anchor="start" x="383.5" y="-361.5" font-family="Helvetica,sans-Serif" font-size="10.00">rawspeed::ByteStream</text>
<text text-anchor="middle" x="439.5" y="-350.5" font-family="Helvetica,sans-Serif" font-size="10.00">::getRemainSize</text>
</a>
</g>
</g>
<!-- Node1&#45;&gt;Node15 -->
<g id="edge25" class="edge">
<title>Node1&#45;&gt;Node15</title>
<path fill="none" stroke="midnightblue" d="M104.13,-294.01C123.98,-299.22 149.29,-305.59 172,-310.5 236.97,-324.53 311.47,-337.71 365.15,-346.69"/>
<polygon fill="midnightblue" stroke="midnightblue" points="364.82,-350.18 375.26,-348.37 365.97,-343.28 364.82,-350.18"/>
</g>
<!-- Node17 -->
<g id="node17" class="node">
<title>Node17</title>
<g id="a_node17"><a xlink:href="../../dd/da0/classrawspeed_1_1_byte_stream.html#a7a5f5eaad404d367efb8a64fa82d20ae" target="_top" xlink:title=" ">
<polygon fill="none" stroke="black" points="375.5,-490.5 375.5,-520.5 503.5,-520.5 503.5,-490.5 375.5,-490.5"/>
<text text-anchor="start" x="383.5" y="-508.5" font-family="Helvetica,sans-Serif" font-size="10.00">rawspeed::ByteStream</text>
<text text-anchor="middle" x="439.5" y="-497.5" font-family="Helvetica,sans-Serif" font-size="10.00">::getStream</text>
</a>
</g>
</g>
<!-- Node1&#45;&gt;Node17 -->
<g id="edge26" class="edge">
<title>Node1&#45;&gt;Node17</title>
<path fill="none" stroke="midnightblue" d="M73.22,-294.11C84.95,-319.72 120.53,-390.09 172,-426.5 229.6,-467.25 308.35,-487.22 365.29,-496.86"/>
<polygon fill="midnightblue" stroke="midnightblue" points="364.87,-500.34 375.3,-498.49 365.99,-493.43 364.87,-500.34"/>
</g>
<!-- Node22 -->
<g id="node22" class="node">
<title>Node22</title>
<g id="a_node22"><a xlink:href="../../de/d70/classrawspeed_1_1_crw_decompressor.html#a0265066b6ff9087a06a764d6a440457e" target="_top" xlink:title=" ">
<polygon fill="none" stroke="black" points="172,-33.5 172,-63.5 331,-63.5 331,-33.5 172,-33.5"/>
<text text-anchor="start" x="180" y="-51.5" font-family="Helvetica,sans-Serif" font-size="10.00">rawspeed::CrwDecompressor</text>
<text text-anchor="middle" x="251.5" y="-40.5" font-family="Helvetica,sans-Serif" font-size="10.00">::decompress</text>
</a>
</g>
</g>
<!-- Node1&#45;&gt;Node22 -->
<g id="edge24" class="edge">
<title>Node1&#45;&gt;Node22</title>
<path fill="none" stroke="midnightblue" d="M70.88,-274.87C77.85,-241.7 105.37,-131.06 172,-73.5 173.94,-71.82 176,-70.26 178.14,-68.8"/>
<polygon fill="midnightblue" stroke="midnightblue" points="179.97,-71.78 186.79,-63.67 176.4,-65.76 179.97,-71.78"/>
</g>
<!-- Node5 -->
<g id="node5" class="node">
<title>Node5</title>
<g id="a_node5"><a xlink:href="../../dc/d44/classrawspeed_1_1_raw_image_data.html#a724d8812aca44f04e6aeb965daeab36d" target="_top" xlink:title=" ">
<polygon fill="none" stroke="black" points="367,-49.5 367,-79.5 512,-79.5 512,-49.5 367,-49.5"/>
<text text-anchor="start" x="375" y="-67.5" font-family="Helvetica,sans-Serif" font-size="10.00">rawspeed::RawImageData</text>
<text text-anchor="middle" x="439.5" y="-56.5" font-family="Helvetica,sans-Serif" font-size="10.00">::getData</text>
</a>
</g>
</g>
<!-- Node4&#45;&gt;Node5 -->
<g id="edge4" class="edge">
<title>Node4&#45;&gt;Node5</title>
<path fill="none" stroke="midnightblue" d="M324.15,-84.79C334.88,-82.88 346.02,-80.91 356.94,-78.97"/>
<polygon fill="midnightblue" stroke="midnightblue" points="357.66,-82.4 366.89,-77.2 356.43,-75.51 357.66,-82.4"/>
</g>
<!-- Node6 -->
<g id="node6" class="node">
<title>Node6</title>
<g id="a_node6"><a xlink:href="../../dc/d44/classrawspeed_1_1_raw_image_data.html#a383099b27aea42a05858e18b6cf69c96" target="_top" xlink:title=" ">
<polygon fill="none" stroke="black" points="367,-0.5 367,-30.5 512,-30.5 512,-0.5 367,-0.5"/>
<text text-anchor="start" x="375" y="-18.5" font-family="Helvetica,sans-Serif" font-size="10.00">rawspeed::RawImageData</text>
<text text-anchor="middle" x="439.5" y="-7.5" font-family="Helvetica,sans-Serif" font-size="10.00">::poisonPadding</text>
</a>
</g>
</g>
<!-- Node4&#45;&gt;Node6 -->
<g id="edge5" class="edge">
<title>Node4&#45;&gt;Node6</title>
<path fill="none" stroke="midnightblue" d="M311.99,-82.44C318.59,-79.86 325.06,-76.89 331,-73.5 349.84,-62.73 348.37,-51.64 367,-40.5 370.55,-38.37 374.32,-36.39 378.18,-34.55"/>
<polygon fill="midnightblue" stroke="midnightblue" points="379.6,-37.75 387.34,-30.51 376.78,-31.35 379.6,-37.75"/>
</g>
<!-- Node8 -->
<g id="node8" class="node">
<title>Node8</title>
<g id="a_node8"><a xlink:href="../../dd/d12/classrawspeed_1_1_raw_image.html#a4a7b73d675f5ac9c8730a9b7f60c3d82" target="_top" xlink:title=" ">
<polygon fill="none" stroke="black" points="378.5,-245.5 378.5,-275.5 500.5,-275.5 500.5,-245.5 378.5,-245.5"/>
<text text-anchor="start" x="386.5" y="-263.5" font-family="Helvetica,sans-Serif" font-size="10.00">rawspeed::RawImage</text>
<text text-anchor="middle" x="439.5" y="-252.5" font-family="Helvetica,sans-Serif" font-size="10.00">::create</text>
</a>
</g>
</g>
<!-- Node7&#45;&gt;Node8 -->
<g id="edge7" class="edge">
<title>Node7&#45;&gt;Node8</title>
<path fill="none" stroke="midnightblue" d="M302.34,-260.5C322.5,-260.5 346.14,-260.5 368.01,-260.5"/>
<polygon fill="midnightblue" stroke="midnightblue" points="368.24,-264 378.24,-260.5 368.24,-257 368.24,-264"/>
</g>
<!-- Node7&#45;&gt;Node10 -->
<g id="edge9" class="edge">
<title>Node7&#45;&gt;Node10</title>
<path fill="none" stroke="midnightblue" d="M302.28,-252.77C312.75,-249.22 323.03,-244.04 331,-236.5 364.71,-204.61 333.93,-171.05 367,-138.5 368.48,-137.05 370.04,-135.68 371.68,-134.39"/>
<polygon fill="midnightblue" stroke="midnightblue" points="374.01,-137.04 380.39,-128.58 370.13,-131.21 374.01,-137.04"/>
</g>
<!-- Node11 -->
<g id="node11" class="node">
<title>Node11</title>
<g id="a_node11"><a xlink:href="../../d8/d75/classrawspeed_1_1i_point2_d.html#ab980cc8ab2f3502a5a2c230530ba2a64" target="_top" xlink:title=" ">
<polygon fill="none" stroke="black" points="384,-147.5 384,-177.5 495,-177.5 495,-147.5 384,-147.5"/>
<text text-anchor="start" x="392" y="-165.5" font-family="Helvetica,sans-Serif" font-size="10.00">rawspeed::iPoint2D</text>
<text text-anchor="middle" x="439.5" y="-154.5" font-family="Helvetica,sans-Serif" font-size="10.00">::iPoint2D</text>
</a>
</g>
</g>
<!-- Node7&#45;&gt;Node11 -->
<g id="edge10" class="edge">
<title>Node7&#45;&gt;Node11</title>
<path fill="none" stroke="midnightblue" d="M301.25,-250.88C311.66,-247.43 322.17,-242.77 331,-236.5 353.04,-220.87 345.27,-203.57 367,-187.5 369.51,-185.64 372.17,-183.92 374.93,-182.31"/>
<polygon fill="midnightblue" stroke="midnightblue" points="376.76,-185.3 384.02,-177.59 373.53,-179.09 376.76,-185.3"/>
</g>
<!-- Node7&#45;&gt;Node12 -->
<g id="edge11" class="edge">
<title>Node7&#45;&gt;Node12</title>
<path fill="none" stroke="midnightblue" d="M288.8,-270.06C312.35,-276.27 343.74,-284.54 371.7,-291.9"/>
<polygon fill="midnightblue" stroke="midnightblue" points="370.86,-295.3 381.42,-294.46 372.64,-288.53 370.86,-295.3"/>
</g>
<!-- Node13 -->
<g id="node13" class="node">
<title>Node13</title>
<g id="a_node13"><a xlink:href="../../dc/d44/classrawspeed_1_1_raw_image_data.html#a180f90ba4cf9e6e6ff1c307f6106f4ed" target="_top" xlink:title=" ">
<polygon fill="none" stroke="black" points="367,-196.5 367,-226.5 512,-226.5 512,-196.5 367,-196.5"/>
<text text-anchor="start" x="375" y="-214.5" font-family="Helvetica,sans-Serif" font-size="10.00">rawspeed::RawImageData</text>
<text text-anchor="middle" x="439.5" y="-203.5" font-family="Helvetica,sans-Serif" font-size="10.00">::setCpp</text>
</a>
</g>
</g>
<!-- Node7&#45;&gt;Node13 -->
<g id="edge12" class="edge">
<title>Node7&#45;&gt;Node13</title>
<path fill="none" stroke="midnightblue" d="M288.8,-250.94C312.35,-244.73 343.74,-236.46 371.7,-229.1"/>
<polygon fill="midnightblue" stroke="midnightblue" points="372.64,-232.47 381.42,-226.54 370.86,-225.7 372.64,-232.47"/>
</g>
<!-- Node9 -->
<g id="node9" class="node">
<title>Node9</title>
<g id="a_node9"><a xlink:href="../../de/dc3/namespacerawspeed.html#a8a98a18f46994d6cae15ce24462fb7d4" target="_top" xlink:title=" ">
<polygon fill="none" stroke="black" points="556,-251 556,-270 668,-270 668,-251 556,-251"/>
<text text-anchor="middle" x="612" y="-258" font-family="Helvetica,sans-Serif" font-size="10.00">rawspeed::writeLog</text>
</a>
</g>
</g>
<!-- Node8&#45;&gt;Node9 -->
<g id="edge8" class="edge">
<title>Node8&#45;&gt;Node9</title>
<path fill="none" stroke="midnightblue" d="M500.61,-260.5C515.26,-260.5 530.99,-260.5 545.86,-260.5"/>
<polygon fill="midnightblue" stroke="midnightblue" points="545.99,-264 555.99,-260.5 545.99,-257 545.99,-264"/>
</g>
<!-- Node14&#45;&gt;Node12 -->
<g id="edge20" class="edge">
<title>Node14&#45;&gt;Node12</title>
<path fill="none" stroke="midnightblue" d="M275.47,-386.27C298.09,-371.71 333.97,-349.77 367,-334.5 371.66,-332.35 376.55,-330.27 381.51,-328.3"/>
<polygon fill="midnightblue" stroke="midnightblue" points="382.98,-331.48 391.06,-324.64 380.47,-324.95 382.98,-331.48"/>
</g>
<!-- Node14&#45;&gt;Node15 -->
<g id="edge14" class="edge">
<title>Node14&#45;&gt;Node15</title>
<path fill="none" stroke="midnightblue" d="M317.55,-386.46C333.08,-382.87 349.76,-379.02 365.61,-375.35"/>
<polygon fill="midnightblue" stroke="midnightblue" points="366.41,-378.76 375.36,-373.1 364.83,-371.94 366.41,-378.76"/>
</g>
<!-- Node14&#45;&gt;Node17 -->
<g id="edge16" class="edge">
<title>Node14&#45;&gt;Node17</title>
<path fill="none" stroke="midnightblue" d="M270.5,-416.55C292.23,-434.1 330.4,-463.06 367,-481.5 370.58,-483.3 374.33,-485.02 378.15,-486.64"/>
<polygon fill="midnightblue" stroke="midnightblue" points="377.17,-490.02 387.76,-490.49 379.77,-483.52 377.17,-490.02"/>
</g>
<!-- Node20 -->
<g id="node20" class="node">
<title>Node20</title>
<g id="a_node20"><a xlink:href="../../dd/d12/classrawspeed_1_1_raw_image.html#a4a01d153bb4518ddfaac18a5d0694154" target="_top" xlink:title=" ">
<polygon fill="none" stroke="black" points="378.5,-441.5 378.5,-471.5 500.5,-471.5 500.5,-441.5 378.5,-441.5"/>
<text text-anchor="start" x="386.5" y="-459.5" font-family="Helvetica,sans-Serif" font-size="10.00">rawspeed::RawImage</text>
<text text-anchor="middle" x="439.5" y="-448.5" font-family="Helvetica,sans-Serif" font-size="10.00">::RawImage</text>
</a>
</g>
</g>
<!-- Node14&#45;&gt;Node20 -->
<g id="edge21" class="edge">
<title>Node14&#45;&gt;Node20</title>
<path fill="none" stroke="midnightblue" d="M303.33,-416.53C326.39,-423.35 353.85,-431.47 377.97,-438.6"/>
<polygon fill="midnightblue" stroke="midnightblue" points="377.15,-442.01 387.74,-441.49 379.14,-435.3 377.15,-442.01"/>
</g>
<!-- Node21 -->
<g id="node21" class="node">
<title>Node21</title>
<g id="a_node21"><a xlink:href="../../dd/da0/classrawspeed_1_1_byte_stream.html#ab77bbfb370f041df54b9b67e0d8ff711" target="_top" xlink:title=" ">
<polygon fill="none" stroke="black" points="375.5,-392.5 375.5,-422.5 503.5,-422.5 503.5,-392.5 375.5,-392.5"/>
<text text-anchor="start" x="383.5" y="-410.5" font-family="Helvetica,sans-Serif" font-size="10.00">rawspeed::ByteStream</text>
<text text-anchor="middle" x="439.5" y="-399.5" font-family="Helvetica,sans-Serif" font-size="10.00">::skipBytes</text>
</a>
</g>
</g>
<!-- Node14&#45;&gt;Node21 -->
<g id="edge22" class="edge">
<title>Node14&#45;&gt;Node21</title>
<path fill="none" stroke="midnightblue" d="M331.11,-404.04C342.42,-404.4 354.02,-404.77 365.22,-405.14"/>
<polygon fill="midnightblue" stroke="midnightblue" points="365.27,-408.64 375.38,-405.46 365.5,-401.64 365.27,-408.64"/>
</g>
<!-- Node16 -->
<g id="node16" class="node">
<title>Node16</title>
<g id="a_node16"><a xlink:href="../../dd/da0/classrawspeed_1_1_byte_stream.html#a33bbb3baf3bb9730f9da8765175ec4ce" target="_top" xlink:title=" ">
<polygon fill="none" stroke="black" points="548,-367.5 548,-397.5 676,-397.5 676,-367.5 548,-367.5"/>
<text text-anchor="start" x="556" y="-385.5" font-family="Helvetica,sans-Serif" font-size="10.00">rawspeed::ByteStream</text>
<text text-anchor="middle" x="612" y="-374.5" font-family="Helvetica,sans-Serif" font-size="10.00">::check</text>
</a>
</g>
</g>
<!-- Node15&#45;&gt;Node16 -->
<g id="edge15" class="edge">
<title>Node15&#45;&gt;Node16</title>
<path fill="none" stroke="midnightblue" d="M503.5,-367.37C514.73,-368.95 526.51,-370.61 537.98,-372.22"/>
<polygon fill="midnightblue" stroke="midnightblue" points="537.58,-375.7 547.97,-373.63 538.56,-368.77 537.58,-375.7"/>
</g>
<!-- Node18 -->
<g id="node18" class="node">
<title>Node18</title>
<g id="a_node18"><a xlink:href="../../dd/da0/classrawspeed_1_1_byte_stream.html#a81cc27671b93889f9c8adb62ece8340e" target="_top" xlink:title=" ">
<polygon fill="none" stroke="black" points="548,-490.5 548,-520.5 676,-520.5 676,-490.5 548,-490.5"/>
<text text-anchor="start" x="556" y="-508.5" font-family="Helvetica,sans-Serif" font-size="10.00">rawspeed::ByteStream</text>
<text text-anchor="middle" x="612" y="-497.5" font-family="Helvetica,sans-Serif" font-size="10.00">::peekStream</text>
</a>
</g>
</g>
<!-- Node17&#45;&gt;Node18 -->
<g id="edge17" class="edge">
<title>Node17&#45;&gt;Node18</title>
<path fill="none" stroke="midnightblue" d="M503.5,-505.5C514.62,-505.5 526.27,-505.5 537.64,-505.5"/>
<polygon fill="midnightblue" stroke="midnightblue" points="537.97,-509 547.97,-505.5 537.97,-502 537.97,-509"/>
</g>
<!-- Node19 -->
<g id="node19" class="node">
<title>Node19</title>
<g id="a_node19"><a xlink:href="../../dd/da0/classrawspeed_1_1_byte_stream.html#a5eb5f775dd7efaa22b490007fe835a32" target="_top" xlink:title=" ">
<polygon fill="none" stroke="black" points="712,-490.5 712,-520.5 840,-520.5 840,-490.5 712,-490.5"/>
<text text-anchor="start" x="720" y="-508.5" font-family="Helvetica,sans-Serif" font-size="10.00">rawspeed::ByteStream</text>
<text text-anchor="middle" x="776" y="-497.5" font-family="Helvetica,sans-Serif" font-size="10.00">::getSubStream</text>
</a>
</g>
</g>
<!-- Node18&#45;&gt;Node19 -->
<g id="edge18" class="edge">
<title>Node18&#45;&gt;Node19</title>
<path fill="none" stroke="midnightblue" d="M676.1,-505.5C684.43,-505.5 693.04,-505.5 701.53,-505.5"/>
<polygon fill="midnightblue" stroke="midnightblue" points="701.81,-509 711.81,-505.5 701.81,-502 701.81,-509"/>
</g>
<!-- Node19&#45;&gt;Node2 -->
<g id="edge19" class="edge">
<title>Node19&#45;&gt;Node2</title>
<path fill="none" stroke="midnightblue" d="M840.1,-514.07C848.53,-515.21 857.23,-516.4 865.81,-517.56"/>
<polygon fill="midnightblue" stroke="midnightblue" points="865.43,-521.04 875.81,-518.92 866.37,-514.1 865.43,-521.04"/>
</g>
<!-- Node21&#45;&gt;Node16 -->
<g id="edge23" class="edge">
<title>Node21&#45;&gt;Node16</title>
<path fill="none" stroke="midnightblue" d="M503.5,-398.26C514.73,-396.62 526.51,-394.89 537.98,-393.21"/>
<polygon fill="midnightblue" stroke="midnightblue" points="538.58,-396.66 547.97,-391.74 537.57,-389.73 538.58,-396.66"/>
</g>
</g>
</svg>
        <g id="navigator" transform="translate(0 0)" fill="#404254">
                <rect fill="#f2f5e9" fill-opacity="0.5" stroke="#606060" stroke-width=".5" x="0" y="0" width="60" height="60"/>
                <use id="zoomplus" xlink:href="#zoomPlus" x="17" y="9" onmousedown="handleZoom(evt,'in')"/>
                <use id="zoomminus" xlink:href="#zoomMin" x="42" y="9" onmousedown="handleZoom(evt,'out')"/>
                <use id="reset" xlink:href="#resetDef" x="30" y="36" onmousedown="handleReset()"/>
                <g id="arrowUp" xlink:href="#dirArrow" transform="translate(30 24)" onmousedown="handlePan(0,-1)">
                  <use xlink:href="#rim" fill="#404040">
                        <set attributeName="fill" to="#808080" begin="arrowUp.mouseover" end="arrowUp.mouseout"/>
                  </use>
                  <path fill="none" stroke="white" stroke-width="1.5" d="M0,-3.0v7 M-2.5,-0.5L0,-3.0L2.5,-0.5"/>
                </g>
                <g id="arrowRight" xlink:href="#dirArrow" transform="rotate(90) translate(36 -43)" onmousedown="handlePan(1,0)">
                  <use xlink:href="#rim" fill="#404040">
                        <set attributeName="fill" to="#808080" begin="arrowRight.mouseover" end="arrowRight.mouseout"/>
                  </use>
                  <path fill="none" stroke="white" stroke-width="1.5" d="M0,-3.0v7 M-2.5,-0.5L0,-3.0L2.5,-0.5"/>
                </g>
                <g id="arrowDown" xlink:href="#dirArrow" transform="rotate(180) translate(-30 -48)" onmousedown="handlePan(0,1)">
                  <use xlink:href="#rim" fill="#404040">
                        <set attributeName="fill" to="#808080" begin="arrowDown.mouseover" end="arrowDown.mouseout"/>
                  </use>
                  <path fill="none" stroke="white" stroke-width="1.5" d="M0,-3.0v7 M-2.5,-0.5L0,-3.0L2.5,-0.5"/>
                </g>
                <g id="arrowLeft" xlink:href="#dirArrow" transform="rotate(270) translate(-36 17)" onmousedown="handlePan(-1,0)">
                  <use xlink:href="#rim" fill="#404040">
                        <set attributeName="fill" to="#808080" begin="arrowLeft.mouseover" end="arrowLeft.mouseout"/>
                  </use>
                  <path fill="none" stroke="white" stroke-width="1.5" d="M0,-3.0v7 M-2.5,-0.5L0,-3.0L2.5,-0.5"/>
                </g>
        </g>
        <svg viewBox="0 0 15 15" width="100%" height="30px" preserveAspectRatio="xMaxYMin meet">
         <g id="arrow_out" transform="scale(0.3 0.3)">
          <a xlink:href="fuzz_2librawspeed_2decompressors_2_crw_decompressor_8cpp_a1c473c9665269a78ef9001573a6995df_cgraph_org.svg" target="_base">
           <rect id="button" ry="5" rx="5" y="6" x="6" height="38" width="38"
                fill="#f2f5e9" fill-opacity="0.5" stroke="#606060" stroke-width="1.0"/>
           <path id="arrow"
             d="M 11.500037,31.436501 C 11.940474,20.09759 22.043105,11.32322 32.158766,21.979434 L 37.068811,17.246167 C 37.068811,17.246167 37.088388,32 37.088388,32 L 22.160133,31.978069 C 22.160133,31.978069 26.997745,27.140456 26.997745,27.140456 C 18.528582,18.264221 13.291696,25.230495 11.500037,31.436501 z"
             style="fill:#404040;"/>
          </a>
         </g>
        </svg>
</svg>
