<?xml version="1.0" encoding="UTF-8" standalone="no"?>
<!DOCTYPE svg PUBLIC "-//W3C//DTD SVG 1.1//EN"
 "http://www.w3.org/Graphics/SVG/1.1/DTD/svg11.dtd">
<!-- Generated by graphviz version 2.43.0 (0)
 -->
<!-- Title: rawspeed::Camera Pages: 1 -->
<svg width="1217pt" height="935pt"
 viewBox="0.00 0.00 1217.00 934.89" xmlns="http://www.w3.org/2000/svg" xmlns:xlink="http://www.w3.org/1999/xlink">
<g id="graph0" class="graph" transform="scale(1 1) rotate(0) translate(4 930.89)">
<title>rawspeed::Camera</title>
<!-- Node1 -->
<g id="node1" class="node">
<title>Node1</title>
<g id="a_node1"><a xlink:title=" ">
<polygon fill="#bfbfbf" stroke="black" points="1101,-416.39 1101,-435.39 1209,-435.39 1209,-416.39 1101,-416.39"/>
<text text-anchor="middle" x="1155" y="-423.39" font-family="Helvetica,sans-Serif" font-size="10.00">rawspeed::Camera</text>
</a>
</g>
</g>
<!-- Node2 -->
<g id="node2" class="node">
<title>Node2</title>
<g id="a_node2"><a xlink:title=" ">
<polygon fill="none" stroke="#bfbfbf" points="870.5,-634.89 870.5,-664.89 997.5,-664.89 997.5,-634.89 870.5,-634.89"/>
<text text-anchor="start" x="878.5" y="-652.89" font-family="Helvetica,sans-Serif" font-size="10.00">std::vector&lt; rawspeed</text>
<text text-anchor="middle" x="934" y="-641.89" font-family="Helvetica,sans-Serif" font-size="10.00">::BlackArea &gt;</text>
</a>
</g>
</g>
<!-- Node2&#45;&gt;Node1 -->
<g id="edge1" class="edge">
<title>Node2&#45;&gt;Node1</title>
<path fill="none" stroke="#9a32cd" stroke-dasharray="5,2" d="M1007.32,-636.32C1033.8,-628.29 1062.3,-615.66 1083,-595.89 1131.8,-549.27 1148.39,-464.01 1152.71,-435.48"/>
<polygon fill="#9a32cd" stroke="#9a32cd" points="1006.33,-632.96 997.68,-639.07 1008.26,-639.69 1006.33,-632.96"/>
<text text-anchor="middle" x="1054" y="-630.89" font-family="Helvetica,sans-Serif" font-size="10.00"> blackAreas</text>
</g>
<!-- Node3 -->
<g id="node3" class="node">
<title>Node3</title>
<g id="a_node3"><a xlink:href="../../d8/d30/classrawspeed_1_1_black_area.html" target="_top" xlink:title=" ">
<polygon fill="none" stroke="black" points="602.5,-640.39 602.5,-659.39 721.5,-659.39 721.5,-640.39 602.5,-640.39"/>
<text text-anchor="middle" x="662" y="-647.39" font-family="Helvetica,sans-Serif" font-size="10.00">rawspeed::BlackArea</text>
</a>
</g>
</g>
<!-- Node3&#45;&gt;Node2 -->
<g id="edge2" class="edge">
<title>Node3&#45;&gt;Node2</title>
<path fill="none" stroke="#9a32cd" stroke-dasharray="5,2" d="M731.61,-649.89C774.3,-649.89 828.77,-649.89 870.3,-649.89"/>
<polygon fill="#9a32cd" stroke="#9a32cd" points="731.59,-646.39 721.59,-649.89 731.59,-653.39 731.59,-646.39"/>
<text text-anchor="middle" x="801.5" y="-652.89" font-family="Helvetica,sans-Serif" font-size="10.00"> elements</text>
</g>
<!-- Node4 -->
<g id="node4" class="node">
<title>Node4</title>
<g id="a_node4"><a xlink:href="../../d3/d87/classuint32__t.html" target="_top" xlink:title=" ">
<polygon fill="none" stroke="black" points="327,-654.39 327,-673.39 383,-673.39 383,-654.39 327,-654.39"/>
<text text-anchor="middle" x="355" y="-661.39" font-family="Helvetica,sans-Serif" font-size="10.00">uint32_t</text>
</a>
</g>
</g>
<!-- Node4&#45;&gt;Node3 -->
<g id="edge3" class="edge">
<title>Node4&#45;&gt;Node3</title>
<path fill="none" stroke="#9a32cd" stroke-dasharray="5,2" d="M393.2,-662.18C445.35,-659.79 540.69,-655.41 602.42,-652.58"/>
<polygon fill="#9a32cd" stroke="#9a32cd" points="392.9,-658.69 383.07,-662.65 393.22,-665.69 392.9,-658.69"/>
<text text-anchor="middle" x="494.5" y="-673.89" font-family="Helvetica,sans-Serif" font-size="10.00"> offset</text>
<text text-anchor="middle" x="494.5" y="-662.89" font-family="Helvetica,sans-Serif" font-size="10.00">size</text>
</g>
<!-- Node8 -->
<g id="node8" class="node">
<title>Node8</title>
<g id="a_node8"><a xlink:href="../../d2/d4f/classrawspeed_1_1_color_filter_array.html" target="_top" xlink:title=" ">
<polygon fill="none" stroke="black" points="861,-416.39 861,-435.39 1007,-435.39 1007,-416.39 861,-416.39"/>
<text text-anchor="middle" x="934" y="-423.39" font-family="Helvetica,sans-Serif" font-size="10.00">rawspeed::ColorFilterArray</text>
</a>
</g>
</g>
<!-- Node4&#45;&gt;Node8 -->
<g id="edge15" class="edge">
<title>Node4&#45;&gt;Node8</title>
<path fill="none" stroke="#9a32cd" stroke-dasharray="5,2" d="M393.29,-658.5C449.02,-650.26 549.11,-634.66 564,-626.89 574.03,-621.66 573.01,-615.76 582,-608.89 638.77,-565.46 795.59,-477.7 861,-448.89 872.77,-443.71 886.08,-439.12 898.02,-435.43"/>
<polygon fill="#9a32cd" stroke="#9a32cd" points="392.49,-655.08 383.1,-660 393.5,-662.01 392.49,-655.08"/>
<text text-anchor="middle" x="662" y="-622.89" font-family="Helvetica,sans-Serif" font-size="10.00"> x</text>
<text text-anchor="middle" x="662" y="-611.89" font-family="Helvetica,sans-Serif" font-size="10.00">y</text>
</g>
<!-- Node5 -->
<g id="node5" class="node">
<title>Node5</title>
<g id="a_node5"><a xlink:title=" ">
<polygon fill="none" stroke="#bfbfbf" points="336,-598.39 336,-617.39 374,-617.39 374,-598.39 336,-598.39"/>
<text text-anchor="middle" x="355" y="-605.39" font-family="Helvetica,sans-Serif" font-size="10.00">bool</text>
</a>
</g>
</g>
<!-- Node5&#45;&gt;Node1 -->
<g id="edge31" class="edge">
<title>Node5&#45;&gt;Node1</title>
<path fill="none" stroke="#9a32cd" stroke-dasharray="5,2" d="M384.46,-606.92C448.79,-604.3 610.12,-595.31 742,-567.89 897.65,-535.53 935.17,-518.36 1083,-459.89 1101.43,-452.6 1121.76,-442.66 1135.92,-435.41"/>
<polygon fill="#9a32cd" stroke="#9a32cd" points="384.15,-603.43 374.29,-607.31 384.42,-610.42 384.15,-603.43"/>
<text text-anchor="middle" x="801.5" y="-566.89" font-family="Helvetica,sans-Serif" font-size="10.00"> supported</text>
</g>
<!-- Node5&#45;&gt;Node3 -->
<g id="edge4" class="edge">
<title>Node5&#45;&gt;Node3</title>
<path fill="none" stroke="#9a32cd" stroke-dasharray="5,2" d="M384.13,-611.76C433.51,-618.56 536.74,-632.78 602.26,-641.8"/>
<polygon fill="#9a32cd" stroke="#9a32cd" points="384.55,-608.29 374.17,-610.39 383.59,-615.22 384.55,-608.29"/>
<text text-anchor="middle" x="494.5" y="-638.89" font-family="Helvetica,sans-Serif" font-size="10.00"> isVertical</text>
</g>
<!-- Node6 -->
<g id="node6" class="node">
<title>Node6</title>
<g id="a_node6"><a xlink:title="STL class.">
<polygon fill="none" stroke="#bfbfbf" points="117.5,-611.39 117.5,-630.39 214.5,-630.39 214.5,-611.39 117.5,-611.39"/>
<text text-anchor="middle" x="166" y="-618.39" font-family="Helvetica,sans-Serif" font-size="10.00">std::vector&lt; T &gt;</text>
</a>
</g>
</g>
<!-- Node6&#45;&gt;Node2 -->
<g id="edge5" class="edge">
<title>Node6&#45;&gt;Node2</title>
<path fill="none" stroke="orange" stroke-dasharray="5,2" d="M191.49,-635.74C217.92,-650.87 261.78,-673.41 303,-682.89 506.33,-729.68 755.91,-688.56 870.31,-664.45"/>
<polygon fill="orange" stroke="orange" points="192.98,-632.56 182.58,-630.54 189.45,-638.6 192.98,-632.56"/>
<text text-anchor="middle" x="494.5" y="-706.89" font-family="Helvetica,sans-Serif" font-size="10.00"> &lt; rawspeed::BlackArea &gt;</text>
</g>
<!-- Node17 -->
<g id="node17" class="node">
<title>Node17</title>
<g id="a_node17"><a xlink:title=" ">
<polygon fill="none" stroke="#bfbfbf" points="595,-433.39 595,-452.39 729,-452.39 729,-433.39 595,-433.39"/>
<text text-anchor="middle" x="662" y="-440.39" font-family="Helvetica,sans-Serif" font-size="10.00">std::vector&lt; CFAColor &gt;</text>
</a>
</g>
</g>
<!-- Node6&#45;&gt;Node17 -->
<g id="edge20" class="edge">
<title>Node6&#45;&gt;Node17</title>
<path fill="none" stroke="orange" stroke-dasharray="5,2" d="M185.46,-604.45C210.22,-583.48 256.49,-548.01 303,-531.89 413.03,-493.75 469.69,-577.2 564,-508.89 580.45,-496.98 566.87,-480.44 582,-466.89 589.05,-460.58 597.71,-455.93 606.69,-452.5"/>
<polygon fill="orange" stroke="orange" points="182.91,-602.03 177.63,-611.21 187.49,-607.32 182.91,-602.03"/>
<text text-anchor="middle" x="355" y="-534.89" font-family="Helvetica,sans-Serif" font-size="10.00"> &lt; CFAColor &gt;</text>
</g>
<!-- Node24 -->
<g id="node24" class="node">
<title>Node24</title>
<g id="a_node24"><a xlink:title=" ">
<polygon fill="none" stroke="#bfbfbf" points="870.5,-741.89 870.5,-771.89 997.5,-771.89 997.5,-741.89 870.5,-741.89"/>
<text text-anchor="start" x="878.5" y="-759.89" font-family="Helvetica,sans-Serif" font-size="10.00">std::vector&lt; rawspeed</text>
<text text-anchor="middle" x="934" y="-748.89" font-family="Helvetica,sans-Serif" font-size="10.00">::CameraSensorInfo &gt;</text>
</a>
</g>
</g>
<!-- Node6&#45;&gt;Node24 -->
<g id="edge43" class="edge">
<title>Node6&#45;&gt;Node24</title>
<path fill="none" stroke="orange" stroke-dasharray="5,2" d="M182.35,-637.72C195.47,-651.26 215.44,-669.92 236,-681.89 263.21,-697.73 272.29,-697.94 303,-704.89 506.92,-751.02 756.21,-757.29 870.42,-757.48"/>
<polygon fill="orange" stroke="orange" points="184.88,-635.3 175.46,-630.44 179.79,-640.11 184.88,-635.3"/>
<text text-anchor="start" x="425" y="-756.89" font-family="Helvetica,sans-Serif" font-size="10.00"> &lt; rawspeed::CameraSensor</text>
<text text-anchor="middle" x="494.5" y="-745.89" font-family="Helvetica,sans-Serif" font-size="10.00">Info &gt;</text>
</g>
<!-- Node26 -->
<g id="node26" class="node">
<title>Node26</title>
<g id="a_node26"><a xlink:title=" ">
<polygon fill="none" stroke="#bfbfbf" points="303,-868.39 303,-887.39 407,-887.39 407,-868.39 303,-868.39"/>
<text text-anchor="middle" x="355" y="-875.39" font-family="Helvetica,sans-Serif" font-size="10.00">std::vector&lt; int &gt;</text>
</a>
</g>
</g>
<!-- Node6&#45;&gt;Node26 -->
<g id="edge42" class="edge">
<title>Node6&#45;&gt;Node26</title>
<path fill="none" stroke="orange" stroke-dasharray="5,2" d="M173.09,-640.25C187.99,-684.52 230.44,-793.93 303,-853.89 310.17,-859.81 319.04,-864.64 327.36,-868.38"/>
<polygon fill="orange" stroke="orange" points="176.33,-638.89 169.9,-630.47 169.68,-641.06 176.33,-638.89"/>
<text text-anchor="middle" x="260.5" y="-836.89" font-family="Helvetica,sans-Serif" font-size="10.00"> &lt; int &gt;</text>
</g>
<!-- Node27 -->
<g id="node27" class="node">
<title>Node27</title>
<g id="a_node27"><a xlink:title=" ">
<polygon fill="none" stroke="#bfbfbf" points="592,-225.39 592,-244.39 732,-244.39 732,-225.39 592,-225.39"/>
<text text-anchor="middle" x="662" y="-232.39" font-family="Helvetica,sans-Serif" font-size="10.00">std::vector&lt; std::string &gt;</text>
</a>
</g>
</g>
<!-- Node6&#45;&gt;Node27 -->
<g id="edge46" class="edge">
<title>Node6&#45;&gt;Node27</title>
<path fill="none" stroke="orange" stroke-dasharray="5,2" d="M169.86,-601.24C179,-544.98 212.41,-381.27 303,-285.89 383.64,-201 536.79,-212.73 614,-225.36"/>
<polygon fill="orange" stroke="orange" points="166.38,-600.86 168.3,-611.27 173.29,-601.93 166.38,-600.86"/>
<text text-anchor="middle" x="355" y="-288.89" font-family="Helvetica,sans-Serif" font-size="10.00"> &lt; std::string &gt;</text>
</g>
<!-- Node7 -->
<g id="node7" class="node">
<title>Node7</title>
<g id="a_node7"><a xlink:title=" ">
<polygon fill="none" stroke="#bfbfbf" points="0,-169.39 0,-188.39 29,-188.39 29,-169.39 0,-169.39"/>
<text text-anchor="middle" x="14.5" y="-176.39" font-family="Helvetica,sans-Serif" font-size="10.00">T</text>
</a>
</g>
</g>
<!-- Node7&#45;&gt;Node6 -->
<g id="edge6" class="edge">
<title>Node7&#45;&gt;Node6</title>
<path fill="none" stroke="#9a32cd" stroke-dasharray="5,2" d="M22.08,-198.34C48.06,-275.16 143.05,-556.01 161.78,-611.37"/>
<polygon fill="#9a32cd" stroke="#9a32cd" points="25.28,-196.88 18.76,-188.53 18.65,-199.13 25.28,-196.88"/>
<text text-anchor="middle" x="71.5" y="-416.89" font-family="Helvetica,sans-Serif" font-size="10.00"> elements</text>
</g>
<!-- Node13 -->
<g id="node13" class="node">
<title>Node13</title>
<g id="a_node13"><a xlink:title="STL class.">
<polygon fill="none" stroke="#bfbfbf" points="304.5,-169.39 304.5,-188.39 405.5,-188.39 405.5,-169.39 304.5,-169.39"/>
<text text-anchor="middle" x="355" y="-176.39" font-family="Helvetica,sans-Serif" font-size="10.00">std::map&lt; K, T &gt;</text>
</a>
</g>
</g>
<!-- Node7&#45;&gt;Node13 -->
<g id="edge14" class="edge">
<title>Node7&#45;&gt;Node13</title>
<path fill="none" stroke="#9a32cd" stroke-dasharray="5,2" d="M39.22,-176.73C59.16,-175.03 88.41,-172.8 114,-171.89 179.82,-169.55 255.81,-172.77 304.35,-175.57"/>
<polygon fill="#9a32cd" stroke="#9a32cd" points="38.84,-173.25 29.19,-177.61 39.45,-180.22 38.84,-173.25"/>
<text text-anchor="middle" x="166" y="-174.89" font-family="Helvetica,sans-Serif" font-size="10.00"> elements</text>
</g>
<!-- Node8&#45;&gt;Node1 -->
<g id="edge7" class="edge">
<title>Node8&#45;&gt;Node1</title>
<path fill="none" stroke="#9a32cd" stroke-dasharray="5,2" d="M1017.18,-425.89C1045.12,-425.89 1075.61,-425.89 1100.69,-425.89"/>
<polygon fill="#9a32cd" stroke="#9a32cd" points="1017.01,-422.39 1007.01,-425.89 1017.01,-429.39 1017.01,-422.39"/>
<text text-anchor="middle" x="1054" y="-428.89" font-family="Helvetica,sans-Serif" font-size="10.00"> cfa</text>
</g>
<!-- Node9 -->
<g id="node9" class="node">
<title>Node9</title>
<g id="a_node9"><a xlink:title=" ">
<polygon fill="none" stroke="#bfbfbf" points="603.5,-272.89 603.5,-302.89 720.5,-302.89 720.5,-272.89 603.5,-272.89"/>
<text text-anchor="start" x="611.5" y="-290.89" font-family="Helvetica,sans-Serif" font-size="10.00">std::map&lt; CFAColor,</text>
<text text-anchor="middle" x="662" y="-279.89" font-family="Helvetica,sans-Serif" font-size="10.00"> std::string &gt;</text>
</a>
</g>
</g>
<!-- Node9&#45;&gt;Node8 -->
<g id="edge8" class="edge">
<title>Node9&#45;&gt;Node8</title>
<path fill="none" stroke="#9a32cd" stroke-dasharray="5,2" d="M707.46,-307.11C718.77,-312.14 730.88,-317.62 742,-322.89 787.45,-344.42 798.77,-349.97 843,-373.89 869.19,-388.05 899.01,-405.56 916.9,-416.22"/>
<polygon fill="#9a32cd" stroke="#9a32cd" points="708.74,-303.85 698.17,-303.02 705.91,-310.26 708.74,-303.85"/>
<text text-anchor="middle" x="801.5" y="-376.89" font-family="Helvetica,sans-Serif" font-size="10.00"> color2String</text>
</g>
<!-- Node10 -->
<g id="node10" class="node">
<title>Node10</title>
<g id="a_node10"><a xlink:title=" ">
<polygon fill="none" stroke="#bfbfbf" points="325,-402.39 325,-421.39 385,-421.39 385,-402.39 325,-402.39"/>
<text text-anchor="middle" x="355" y="-409.39" font-family="Helvetica,sans-Serif" font-size="10.00">CFAColor</text>
</a>
</g>
</g>
<!-- Node10&#45;&gt;Node9 -->
<g id="edge9" class="edge">
<title>Node10&#45;&gt;Node9</title>
<path fill="none" stroke="#9a32cd" stroke-dasharray="5,2" d="M395.19,-406.67C451.85,-398.82 551.29,-383.71 564,-372.89 581.98,-357.58 565.91,-340.18 582,-322.89 589.87,-314.44 600.15,-307.9 610.69,-302.9"/>
<polygon fill="#9a32cd" stroke="#9a32cd" points="394.57,-403.23 385.14,-408.06 395.52,-410.16 394.57,-403.23"/>
<text text-anchor="middle" x="494.5" y="-404.89" font-family="Helvetica,sans-Serif" font-size="10.00"> keys</text>
</g>
<!-- Node10&#45;&gt;Node17 -->
<g id="edge19" class="edge">
<title>Node10&#45;&gt;Node17</title>
<path fill="none" stroke="#9a32cd" stroke-dasharray="5,2" d="M395.38,-414.75C437.25,-417.91 505.38,-423.43 564,-429.89 573.96,-430.99 584.49,-432.27 594.78,-433.59"/>
<polygon fill="#9a32cd" stroke="#9a32cd" points="395.56,-411.25 385.32,-413.99 395.03,-418.23 395.56,-411.25"/>
<text text-anchor="middle" x="494.5" y="-432.89" font-family="Helvetica,sans-Serif" font-size="10.00"> elements</text>
</g>
<!-- Node18 -->
<g id="node18" class="node">
<title>Node18</title>
<g id="a_node18"><a xlink:title=" ">
<polygon fill="none" stroke="#bfbfbf" points="586,-476.39 586,-495.39 738,-495.39 738,-476.39 586,-476.39"/>
<text text-anchor="middle" x="662" y="-483.39" font-family="Helvetica,sans-Serif" font-size="10.00">std::map&lt; char, CFAColor &gt;</text>
</a>
</g>
</g>
<!-- Node10&#45;&gt;Node18 -->
<g id="edge22" class="edge">
<title>Node10&#45;&gt;Node18</title>
<path fill="none" stroke="#9a32cd" stroke-dasharray="5,2" d="M369.6,-429.91C382.13,-444.97 402.2,-465.43 425,-474.89 475.77,-495.95 538.05,-497.98 585.88,-495.13"/>
<polygon fill="#9a32cd" stroke="#9a32cd" points="372.1,-427.44 363.13,-421.8 366.63,-431.8 372.1,-427.44"/>
<text text-anchor="middle" x="494.5" y="-499.89" font-family="Helvetica,sans-Serif" font-size="10.00"> elements</text>
</g>
<!-- Node23 -->
<g id="node23" class="node">
<title>Node23</title>
<g id="a_node23"><a xlink:title=" ">
<polygon fill="none" stroke="#bfbfbf" points="601,-175.89 601,-205.89 723,-205.89 723,-175.89 601,-175.89"/>
<text text-anchor="start" x="609" y="-193.89" font-family="Helvetica,sans-Serif" font-size="10.00">std::map&lt; std::string,</text>
<text text-anchor="middle" x="662" y="-182.89" font-family="Helvetica,sans-Serif" font-size="10.00"> CFAColor &gt;</text>
</a>
</g>
</g>
<!-- Node10&#45;&gt;Node23 -->
<g id="edge34" class="edge">
<title>Node10&#45;&gt;Node23</title>
<path fill="none" stroke="#9a32cd" stroke-dasharray="5,2" d="M373.06,-395.16C386.16,-383.33 405.3,-368.17 425,-359.89 482.6,-335.68 519.92,-383.17 564,-338.89 602.98,-299.73 546.2,-257.98 582,-215.89 587.13,-209.86 593.7,-205.27 600.85,-201.78"/>
<polygon fill="#9a32cd" stroke="#9a32cd" points="370.65,-392.62 365.73,-402 375.43,-397.73 370.65,-392.62"/>
<text text-anchor="middle" x="494.5" y="-362.89" font-family="Helvetica,sans-Serif" font-size="10.00"> elements</text>
</g>
<!-- Node11 -->
<g id="node11" class="node">
<title>Node11</title>
<g id="a_node11"><a xlink:title="STL class.">
<polygon fill="none" stroke="#bfbfbf" points="322.5,-66.39 322.5,-85.39 387.5,-85.39 387.5,-66.39 322.5,-66.39"/>
<text text-anchor="middle" x="355" y="-73.39" font-family="Helvetica,sans-Serif" font-size="10.00">std::string</text>
</a>
</g>
</g>
<!-- Node11&#45;&gt;Node1 -->
<g id="edge32" class="edge">
<title>Node11&#45;&gt;Node1</title>
<path fill="none" stroke="#9a32cd" stroke-dasharray="5,2" d="M369.02,-57.83C381.41,-42.32 401.61,-21.07 425,-11.89 482.51,10.67 502.51,-5.89 564,-11.89 802.49,-35.17 922.55,20.08 1083,-157.89 1153.91,-236.54 1155.38,-377.93 1154.39,-416.15"/>
<polygon fill="#9a32cd" stroke="#9a32cd" points="365.95,-56.08 362.66,-66.16 371.51,-60.33 365.95,-56.08"/>
<text text-anchor="middle" x="801.5" y="-94.89" font-family="Helvetica,sans-Serif" font-size="10.00"> mode</text>
<text text-anchor="middle" x="801.5" y="-83.89" font-family="Helvetica,sans-Serif" font-size="10.00">model</text>
<text text-anchor="middle" x="801.5" y="-72.89" font-family="Helvetica,sans-Serif" font-size="10.00">canonical_alias</text>
<text text-anchor="middle" x="801.5" y="-61.89" font-family="Helvetica,sans-Serif" font-size="10.00">canonical_model</text>
<text text-anchor="middle" x="801.5" y="-50.89" font-family="Helvetica,sans-Serif" font-size="10.00">canonical_make</text>
<text text-anchor="middle" x="801.5" y="-39.89" font-family="Helvetica,sans-Serif" font-size="10.00">canonical_id</text>
<text text-anchor="middle" x="801.5" y="-28.89" font-family="Helvetica,sans-Serif" font-size="10.00">make</text>
</g>
<!-- Node11&#45;&gt;Node9 -->
<g id="edge10" class="edge">
<title>Node11&#45;&gt;Node9</title>
<path fill="none" stroke="#9a32cd" stroke-dasharray="5,2" d="M368.2,-94.18C379.08,-110.9 395.09,-136.51 407,-159.89 416.4,-178.35 409.71,-188.91 425,-202.89 472.83,-246.61 503.2,-224.47 564,-246.89 575.92,-251.29 603.49,-263 626.21,-272.78"/>
<polygon fill="#9a32cd" stroke="#9a32cd" points="370.87,-91.88 362.45,-85.45 365.03,-95.73 370.87,-91.88"/>
<text text-anchor="middle" x="494.5" y="-249.89" font-family="Helvetica,sans-Serif" font-size="10.00"> elements</text>
</g>
<!-- Node21 -->
<g id="node21" class="node">
<title>Node21</title>
<g id="a_node21"><a xlink:title=" ">
<polygon fill="none" stroke="#bfbfbf" points="601,-126.89 601,-156.89 723,-156.89 723,-126.89 601,-126.89"/>
<text text-anchor="start" x="609" y="-144.89" font-family="Helvetica,sans-Serif" font-size="10.00">std::map&lt; std::string,</text>
<text text-anchor="middle" x="662" y="-133.89" font-family="Helvetica,sans-Serif" font-size="10.00"> std::string &gt;</text>
</a>
</g>
</g>
<!-- Node11&#45;&gt;Node21 -->
<g id="edge27" class="edge">
<title>Node11&#45;&gt;Node21</title>
<path fill="none" stroke="#9a32cd" stroke-dasharray="5,2" d="M374.52,-59.92C387.65,-49.7 406.2,-37.37 425,-31.89 484.31,-14.59 507.69,-6.47 564,-31.89 607.4,-51.48 639.15,-101.15 653.12,-126.49"/>
<polygon fill="#9a32cd" stroke="#9a32cd" points="372.3,-57.22 366.73,-66.24 376.7,-62.66 372.3,-57.22"/>
<text text-anchor="middle" x="494.5" y="-45.89" font-family="Helvetica,sans-Serif" font-size="10.00"> keys</text>
<text text-anchor="middle" x="494.5" y="-34.89" font-family="Helvetica,sans-Serif" font-size="10.00">elements</text>
</g>
<!-- Node11&#45;&gt;Node23 -->
<g id="edge35" class="edge">
<title>Node11&#45;&gt;Node23</title>
<path fill="none" stroke="#9a32cd" stroke-dasharray="5,2" d="M397.68,-70.14C451.04,-63.75 539.55,-56.79 564,-76.89 595.18,-102.52 555.03,-135.87 582,-165.89 587.19,-171.67 593.71,-176.12 600.76,-179.55"/>
<polygon fill="#9a32cd" stroke="#9a32cd" points="397,-66.69 387.5,-71.4 397.86,-73.64 397,-66.69"/>
<text text-anchor="middle" x="494.5" y="-79.89" font-family="Helvetica,sans-Serif" font-size="10.00"> keys</text>
</g>
<!-- Node11&#45;&gt;Node27 -->
<g id="edge45" class="edge">
<title>Node11&#45;&gt;Node27</title>
<path fill="none" stroke="#9a32cd" stroke-dasharray="5,2" d="M397.77,-83.87C455.11,-95.18 552.45,-115.86 564,-127.89 591.34,-156.38 554.7,-186.36 582,-214.89 586.11,-219.18 591,-222.61 596.29,-225.33"/>
<polygon fill="#9a32cd" stroke="#9a32cd" points="398.39,-80.42 387.91,-81.93 397.05,-87.29 398.39,-80.42"/>
<text text-anchor="middle" x="494.5" y="-130.89" font-family="Helvetica,sans-Serif" font-size="10.00"> elements</text>
</g>
<!-- Node12 -->
<g id="node12" class="node">
<title>Node12</title>
<g id="a_node12"><a xlink:title="STL class.">
<polygon fill="none" stroke="#bfbfbf" points="114,-60.89 114,-90.89 218,-90.89 218,-60.89 114,-60.89"/>
<text text-anchor="start" x="122" y="-78.89" font-family="Helvetica,sans-Serif" font-size="10.00">std::basic_string&lt;</text>
<text text-anchor="middle" x="166" y="-67.89" font-family="Helvetica,sans-Serif" font-size="10.00"> char &gt;</text>
</a>
</g>
</g>
<!-- Node12&#45;&gt;Node11 -->
<g id="edge11" class="edge">
<title>Node12&#45;&gt;Node11</title>
<path fill="none" stroke="midnightblue" d="M228.5,-75.89C259.88,-75.89 296.72,-75.89 322.33,-75.89"/>
<polygon fill="midnightblue" stroke="midnightblue" points="228.1,-72.39 218.1,-75.89 228.1,-79.39 228.1,-72.39"/>
</g>
<!-- Node13&#45;&gt;Node9 -->
<g id="edge12" class="edge">
<title>Node13&#45;&gt;Node9</title>
<path fill="none" stroke="orange" stroke-dasharray="5,2" d="M395.7,-193.37C399.89,-196.06 403.79,-199.22 407,-202.89 424.49,-222.89 404.54,-242.95 425,-259.89 451.3,-281.66 542.23,-286.99 603.23,-288.03"/>
<polygon fill="orange" stroke="orange" points="397.25,-190.22 386.8,-188.45 393.87,-196.35 397.25,-190.22"/>
<text text-anchor="middle" x="494.5" y="-289.89" font-family="Helvetica,sans-Serif" font-size="10.00"> &lt; CFAColor, std::string &gt;</text>
</g>
<!-- Node13&#45;&gt;Node18 -->
<g id="edge24" class="edge">
<title>Node13&#45;&gt;Node18</title>
<path fill="none" stroke="orange" stroke-dasharray="5,2" d="M398,-193.73C401.47,-196.33 404.56,-199.35 407,-202.89 437.09,-246.57 388.92,-402.02 425,-440.89 446.25,-463.79 533.36,-455.8 564,-461.89 584.59,-465.98 607.38,-471.57 625.7,-476.32"/>
<polygon fill="orange" stroke="orange" points="399.75,-190.7 389.4,-188.45 396.09,-196.67 399.75,-190.7"/>
<text text-anchor="middle" x="494.5" y="-464.89" font-family="Helvetica,sans-Serif" font-size="10.00"> &lt; char, CFAColor &gt;</text>
</g>
<!-- Node13&#45;&gt;Node21 -->
<g id="edge28" class="edge">
<title>Node13&#45;&gt;Node21</title>
<path fill="none" stroke="orange" stroke-dasharray="5,2" d="M388.98,-165.94C400.24,-162.05 413.01,-158.2 425,-155.89 484.04,-144.5 552.8,-141.57 600.81,-141.13"/>
<polygon fill="orange" stroke="orange" points="387.76,-162.66 379.54,-169.33 390.13,-169.25 387.76,-162.66"/>
<text text-anchor="start" x="452" y="-169.89" font-family="Helvetica,sans-Serif" font-size="10.00"> &lt; std::string, std</text>
<text text-anchor="middle" x="494.5" y="-158.89" font-family="Helvetica,sans-Serif" font-size="10.00">::string &gt;</text>
</g>
<!-- Node13&#45;&gt;Node23 -->
<g id="edge36" class="edge">
<title>Node13&#45;&gt;Node23</title>
<path fill="none" stroke="orange" stroke-dasharray="5,2" d="M415.7,-181.24C469.18,-183.34 547.23,-186.41 600.85,-188.52"/>
<polygon fill="orange" stroke="orange" points="415.81,-177.74 405.68,-180.85 415.54,-184.74 415.81,-177.74"/>
<text text-anchor="middle" x="494.5" y="-190.89" font-family="Helvetica,sans-Serif" font-size="10.00"> &lt; std::string, CFAColor &gt;</text>
</g>
<!-- Node14 -->
<g id="node14" class="node">
<title>Node14</title>
<g id="a_node14"><a xlink:title=" ">
<polygon fill="none" stroke="#bfbfbf" points="151.5,-192.39 151.5,-211.39 180.5,-211.39 180.5,-192.39 151.5,-192.39"/>
<text text-anchor="middle" x="166" y="-199.39" font-family="Helvetica,sans-Serif" font-size="10.00">K</text>
</a>
</g>
</g>
<!-- Node14&#45;&gt;Node13 -->
<g id="edge13" class="edge">
<title>Node14&#45;&gt;Node13</title>
<path fill="none" stroke="#9a32cd" stroke-dasharray="5,2" d="M190.95,-198.94C219.38,-195.45 267.52,-189.53 304.15,-185.02"/>
<polygon fill="#9a32cd" stroke="#9a32cd" points="190.25,-195.5 180.75,-200.2 191.1,-202.45 190.25,-195.5"/>
<text text-anchor="middle" x="260.5" y="-196.89" font-family="Helvetica,sans-Serif" font-size="10.00"> keys</text>
</g>
<!-- Node15 -->
<g id="node15" class="node">
<title>Node15</title>
<g id="a_node15"><a xlink:href="../../d8/d75/classrawspeed_1_1i_point2_d.html" target="_top" xlink:title=" ">
<polygon fill="none" stroke="black" points="606.5,-332.39 606.5,-351.39 717.5,-351.39 717.5,-332.39 606.5,-332.39"/>
<text text-anchor="middle" x="662" y="-339.39" font-family="Helvetica,sans-Serif" font-size="10.00">rawspeed::iPoint2D</text>
</a>
</g>
</g>
<!-- Node15&#45;&gt;Node1 -->
<g id="edge29" class="edge">
<title>Node15&#45;&gt;Node1</title>
<path fill="none" stroke="#9a32cd" stroke-dasharray="5,2" d="M728.23,-345.43C762.48,-347.67 805.1,-351.08 843,-355.89 916.43,-365.22 934.82,-368.48 1007,-384.89 1047.56,-394.11 1093.66,-407.44 1123.25,-416.37"/>
<polygon fill="#9a32cd" stroke="#9a32cd" points="728.09,-341.91 717.89,-344.77 727.65,-348.9 728.09,-341.91"/>
<text text-anchor="middle" x="934" y="-398.89" font-family="Helvetica,sans-Serif" font-size="10.00"> cropSize</text>
<text text-anchor="middle" x="934" y="-387.89" font-family="Helvetica,sans-Serif" font-size="10.00">cropPos</text>
</g>
<!-- Node15&#45;&gt;Node8 -->
<g id="edge16" class="edge">
<title>Node15&#45;&gt;Node8</title>
<path fill="none" stroke="#9a32cd" stroke-dasharray="5,2" d="M689.77,-356.19C708.91,-365.94 735.49,-378.55 760,-386.89 798.18,-399.89 842.59,-409.79 876.85,-416.37"/>
<polygon fill="#9a32cd" stroke="#9a32cd" points="691.25,-353.02 680.76,-351.53 688.04,-359.24 691.25,-353.02"/>
<text text-anchor="middle" x="801.5" y="-411.89" font-family="Helvetica,sans-Serif" font-size="10.00"> size</text>
</g>
<!-- Node16 -->
<g id="node16" class="node">
<title>Node16</title>
<g id="a_node16"><a xlink:href="../../de/d73/classint32__t.html" target="_top" xlink:title=" ">
<polygon fill="none" stroke="black" points="330,-306.39 330,-325.39 380,-325.39 380,-306.39 330,-306.39"/>
<text text-anchor="middle" x="355" y="-313.39" font-family="Helvetica,sans-Serif" font-size="10.00">int32_t</text>
</a>
</g>
</g>
<!-- Node16&#45;&gt;Node15 -->
<g id="edge17" class="edge">
<title>Node16&#45;&gt;Node15</title>
<path fill="none" stroke="#9a32cd" stroke-dasharray="5,2" d="M390.24,-313.48C431.6,-311.16 503.22,-309.03 564,-316.89 587.11,-319.88 612.6,-326.59 631.65,-332.3"/>
<polygon fill="#9a32cd" stroke="#9a32cd" points="389.92,-309.99 380.15,-314.08 390.34,-316.98 389.92,-309.99"/>
<text text-anchor="middle" x="494.5" y="-330.89" font-family="Helvetica,sans-Serif" font-size="10.00"> x</text>
<text text-anchor="middle" x="494.5" y="-319.89" font-family="Helvetica,sans-Serif" font-size="10.00">y</text>
</g>
<!-- Node17&#45;&gt;Node8 -->
<g id="edge18" class="edge">
<title>Node17&#45;&gt;Node8</title>
<path fill="none" stroke="#9a32cd" stroke-dasharray="5,2" d="M739.1,-438.1C777.31,-435.69 823.37,-432.79 861,-430.42"/>
<polygon fill="#9a32cd" stroke="#9a32cd" points="738.81,-434.61 729.05,-438.73 739.25,-441.6 738.81,-434.61"/>
<text text-anchor="middle" x="801.5" y="-439.89" font-family="Helvetica,sans-Serif" font-size="10.00"> cfa</text>
</g>
<!-- Node18&#45;&gt;Node1 -->
<g id="edge21" class="edge">
<title>Node18&#45;&gt;Node1</title>
<path fill="none" stroke="#9a32cd" stroke-dasharray="5,2" d="M748.16,-479.32C833.25,-472.15 967.64,-459.21 1083,-440.89 1092.58,-439.37 1102.82,-437.41 1112.46,-435.4"/>
<polygon fill="#9a32cd" stroke="#9a32cd" points="747.71,-475.84 738.03,-480.16 748.29,-482.82 747.71,-475.84"/>
<text text-anchor="middle" x="934" y="-471.89" font-family="Helvetica,sans-Serif" font-size="10.00"> char2enum</text>
</g>
<!-- Node19 -->
<g id="node19" class="node">
<title>Node19</title>
<g id="a_node19"><a xlink:title=" ">
<polygon fill="none" stroke="#bfbfbf" points="336,-552.39 336,-571.39 374,-571.39 374,-552.39 336,-552.39"/>
<text text-anchor="middle" x="355" y="-559.39" font-family="Helvetica,sans-Serif" font-size="10.00">char</text>
</a>
</g>
</g>
<!-- Node19&#45;&gt;Node18 -->
<g id="edge23" class="edge">
<title>Node19&#45;&gt;Node18</title>
<path fill="none" stroke="#9a32cd" stroke-dasharray="5,2" d="M384.29,-559.31C437.56,-554.26 548.78,-542.82 564,-533.89 575.5,-527.14 571.08,-517.54 582,-509.89 591.04,-503.56 601.79,-498.86 612.4,-495.39"/>
<polygon fill="#9a32cd" stroke="#9a32cd" points="383.79,-555.84 374.16,-560.25 384.44,-562.81 383.79,-555.84"/>
<text text-anchor="middle" x="494.5" y="-557.89" font-family="Helvetica,sans-Serif" font-size="10.00"> keys</text>
</g>
<!-- Node20 -->
<g id="node20" class="node">
<title>Node20</title>
<g id="a_node20"><a xlink:href="../../d7/dcd/classrawspeed_1_1_hints.html" target="_top" xlink:title=" ">
<polygon fill="none" stroke="black" points="886.5,-146.39 886.5,-165.39 981.5,-165.39 981.5,-146.39 886.5,-146.39"/>
<text text-anchor="middle" x="934" y="-153.39" font-family="Helvetica,sans-Serif" font-size="10.00">rawspeed::Hints</text>
</a>
</g>
</g>
<!-- Node20&#45;&gt;Node1 -->
<g id="edge25" class="edge">
<title>Node20&#45;&gt;Node1</title>
<path fill="none" stroke="#9a32cd" stroke-dasharray="5,2" d="M991.8,-155.71C1022.38,-158.57 1058.7,-167.15 1083,-189.89 1151.11,-253.62 1154.71,-379.95 1154.27,-416.05"/>
<polygon fill="#9a32cd" stroke="#9a32cd" points="991.91,-152.21 981.68,-154.95 991.39,-159.19 991.91,-152.21"/>
<text text-anchor="middle" x="1054" y="-192.89" font-family="Helvetica,sans-Serif" font-size="10.00"> hints</text>
</g>
<!-- Node21&#45;&gt;Node20 -->
<g id="edge26" class="edge">
<title>Node21&#45;&gt;Node20</title>
<path fill="none" stroke="#9a32cd" stroke-dasharray="5,2" d="M733.32,-145.54C781.54,-148.04 844.19,-151.29 886.34,-153.47"/>
<polygon fill="#9a32cd" stroke="#9a32cd" points="733.43,-142.04 723.26,-145.01 733.06,-149.03 733.43,-142.04"/>
<text text-anchor="middle" x="801.5" y="-154.89" font-family="Helvetica,sans-Serif" font-size="10.00"> data</text>
</g>
<!-- Node22 -->
<g id="node22" class="node">
<title>Node22</title>
<g id="a_node22"><a xlink:title=" ">
<polygon fill="none" stroke="#bfbfbf" points="151.5,-868.39 151.5,-887.39 180.5,-887.39 180.5,-868.39 151.5,-868.39"/>
<text text-anchor="middle" x="166" y="-875.39" font-family="Helvetica,sans-Serif" font-size="10.00">int</text>
</a>
</g>
</g>
<!-- Node22&#45;&gt;Node1 -->
<g id="edge30" class="edge">
<title>Node22&#45;&gt;Node1</title>
<path fill="none" stroke="#9a32cd" stroke-dasharray="5,2" d="M190.69,-885.89C225.88,-897.03 294.25,-915.89 354,-915.89 354,-915.89 354,-915.89 935,-915.89 1153.51,-915.89 1155.46,-504.74 1154.25,-435.68"/>
<polygon fill="#9a32cd" stroke="#9a32cd" points="191.47,-882.46 180.88,-882.7 189.31,-889.12 191.47,-882.46"/>
<text text-anchor="middle" x="662" y="-918.89" font-family="Helvetica,sans-Serif" font-size="10.00"> decoderVersion</text>
</g>
<!-- Node25 -->
<g id="node25" class="node">
<title>Node25</title>
<g id="a_node25"><a xlink:href="../../da/d42/classrawspeed_1_1_camera_sensor_info.html" target="_top" xlink:title=" ">
<polygon fill="none" stroke="black" points="582,-796.39 582,-815.39 742,-815.39 742,-796.39 582,-796.39"/>
<text text-anchor="middle" x="662" y="-803.39" font-family="Helvetica,sans-Serif" font-size="10.00">rawspeed::CameraSensorInfo</text>
</a>
</g>
</g>
<!-- Node22&#45;&gt;Node25 -->
<g id="edge39" class="edge">
<title>Node22&#45;&gt;Node25</title>
<path fill="none" stroke="#9a32cd" stroke-dasharray="5,2" d="M189.33,-864.05C215.47,-848.7 260.57,-824.8 303,-814.89 396.99,-792.94 508.65,-794.3 581.97,-798.77"/>
<polygon fill="#9a32cd" stroke="#9a32cd" points="187.39,-861.13 180.61,-869.27 190.98,-867.14 187.39,-861.13"/>
<text text-anchor="middle" x="355" y="-850.89" font-family="Helvetica,sans-Serif" font-size="10.00"> mMaxIso</text>
<text text-anchor="middle" x="355" y="-839.89" font-family="Helvetica,sans-Serif" font-size="10.00">mBlackLevel</text>
<text text-anchor="middle" x="355" y="-828.89" font-family="Helvetica,sans-Serif" font-size="10.00">mMinIso</text>
<text text-anchor="middle" x="355" y="-817.89" font-family="Helvetica,sans-Serif" font-size="10.00">mWhiteLevel</text>
</g>
<!-- Node22&#45;&gt;Node26 -->
<g id="edge41" class="edge">
<title>Node22&#45;&gt;Node26</title>
<path fill="none" stroke="#9a32cd" stroke-dasharray="5,2" d="M190.84,-877.89C218.93,-877.89 266.4,-877.89 302.92,-877.89"/>
<polygon fill="#9a32cd" stroke="#9a32cd" points="190.75,-874.39 180.75,-877.89 190.75,-881.39 190.75,-874.39"/>
<text text-anchor="middle" x="260.5" y="-880.89" font-family="Helvetica,sans-Serif" font-size="10.00"> elements</text>
</g>
<!-- Node23&#45;&gt;Node1 -->
<g id="edge33" class="edge">
<title>Node23&#45;&gt;Node1</title>
<path fill="none" stroke="#9a32cd" stroke-dasharray="5,2" d="M733.6,-195.41C805.94,-202.5 919.85,-220.64 1007,-266.89 1077.07,-304.08 1131.5,-387.98 1148.47,-416.33"/>
<polygon fill="#9a32cd" stroke="#9a32cd" points="733.52,-191.89 723.23,-194.44 732.86,-198.86 733.52,-191.89"/>
<text text-anchor="middle" x="934" y="-269.89" font-family="Helvetica,sans-Serif" font-size="10.00"> str2enum</text>
</g>
<!-- Node24&#45;&gt;Node1 -->
<g id="edge37" class="edge">
<title>Node24&#45;&gt;Node1</title>
<path fill="none" stroke="#9a32cd" stroke-dasharray="5,2" d="M972.72,-736.63C1006.17,-716.85 1054.08,-683.8 1083,-642.89 1132.19,-573.3 1148.84,-467.54 1152.91,-435.45"/>
<polygon fill="#9a32cd" stroke="#9a32cd" points="970.6,-733.81 963.7,-741.85 974.11,-739.87 970.6,-733.81"/>
<text text-anchor="middle" x="1054" y="-702.89" font-family="Helvetica,sans-Serif" font-size="10.00"> sensorInfo</text>
</g>
<!-- Node25&#45;&gt;Node24 -->
<g id="edge38" class="edge">
<title>Node25&#45;&gt;Node24</title>
<path fill="none" stroke="#9a32cd" stroke-dasharray="5,2" d="M725.28,-794.59C768.81,-786.69 826.72,-776.18 870.33,-768.26"/>
<polygon fill="#9a32cd" stroke="#9a32cd" points="724.59,-791.16 715.38,-796.38 725.84,-798.04 724.59,-791.16"/>
<text text-anchor="middle" x="801.5" y="-789.89" font-family="Helvetica,sans-Serif" font-size="10.00"> elements</text>
</g>
<!-- Node26&#45;&gt;Node25 -->
<g id="edge40" class="edge">
<title>Node26&#45;&gt;Node25</title>
<path fill="none" stroke="#9a32cd" stroke-dasharray="5,2" d="M406.49,-865.97C466.4,-851.83 565.1,-828.53 620.33,-815.49"/>
<polygon fill="#9a32cd" stroke="#9a32cd" points="405.43,-862.63 396.5,-868.33 407.04,-869.44 405.43,-862.63"/>
<text text-anchor="middle" x="494.5" y="-862.89" font-family="Helvetica,sans-Serif" font-size="10.00"> mBlackLevelSeparate</text>
</g>
<!-- Node27&#45;&gt;Node1 -->
<g id="edge44" class="edge">
<title>Node27&#45;&gt;Node1</title>
<path fill="none" stroke="#9a32cd" stroke-dasharray="5,2" d="M722.96,-246.5C793.07,-261.31 911.65,-290.22 1007,-332.89 1060.48,-356.82 1117.32,-397.89 1141.72,-416.38"/>
<polygon fill="#9a32cd" stroke="#9a32cd" points="723.48,-243.04 712.98,-244.42 722.05,-249.89 723.48,-243.04"/>
<text text-anchor="middle" x="934" y="-346.89" font-family="Helvetica,sans-Serif" font-size="10.00"> aliases</text>
<text text-anchor="middle" x="934" y="-335.89" font-family="Helvetica,sans-Serif" font-size="10.00">canonical_aliases</text>
</g>
</g>
</svg>
