<?xml version="1.0" encoding="UTF-8" standalone="no"?>
<!DOCTYPE svg PUBLIC "-//W3C//DTD SVG 1.1//EN"
 "http://www.w3.org/Graphics/SVG/1.1/DTD/svg11.dtd">
<!-- Generated by graphviz version 2.43.0 (0)
 -->
<!-- Title: rawspeed::RawspeedException::log Pages: 1 -->
<svg width="797pt" height="88pt"
 viewBox="0.00 0.00 797.00 88.00" xmlns="http://www.w3.org/2000/svg" xmlns:xlink="http://www.w3.org/1999/xlink">
<g id="graph0" class="graph" transform="scale(1 1) rotate(0) translate(4 84)">
<title>rawspeed::RawspeedException::log</title>
<!-- Node1 -->
<g id="node1" class="node">
<title>Node1</title>
<g id="a_node1"><a xlink:title=" ">
<polygon fill="#bfbfbf" stroke="black" points="600,-30 600,-49 789,-49 789,-30 600,-30"/>
<text text-anchor="middle" x="694.5" y="-37" font-family="Helvetica,sans-Serif" font-size="10.00">rawspeed::RawspeedException::log</text>
</a>
</g>
</g>
<!-- Node2 -->
<g id="node2" class="node">
<title>Node2</title>
<g id="a_node2"><a xlink:href="../../d4/df4/classrawspeed_1_1_rawspeed_exception.html#acabfc6a3c61af0c1c122a5ea6ab3d38a" target="_top" xlink:title=" ">
<polygon fill="none" stroke="black" points="396,-24.5 396,-54.5 564,-54.5 564,-24.5 396,-24.5"/>
<text text-anchor="start" x="404" y="-42.5" font-family="Helvetica,sans-Serif" font-size="10.00">rawspeed::RawspeedException</text>
<text text-anchor="middle" x="480" y="-31.5" font-family="Helvetica,sans-Serif" font-size="10.00">::RawspeedException</text>
</a>
</g>
</g>
<!-- Node1&#45;&gt;Node2 -->
<g id="edge1" class="edge">
<title>Node1&#45;&gt;Node2</title>
<path fill="none" stroke="midnightblue" d="M589.89,-39.5C581.28,-39.5 572.64,-39.5 564.2,-39.5"/>
<polygon fill="midnightblue" stroke="midnightblue" points="589.99,-43 599.99,-39.5 589.99,-36 589.99,-43"/>
</g>
<!-- Node3 -->
<g id="node3" class="node">
<title>Node3</title>
<g id="a_node3"><a xlink:href="../../d1/d6a/classrawspeed_1_1_i_o_exception.html#a8d129d184a8c15fd46a6d3d502105305" target="_top" xlink:title=" ">
<polygon fill="none" stroke="black" points="206.5,-49.5 206.5,-79.5 334.5,-79.5 334.5,-49.5 206.5,-49.5"/>
<text text-anchor="start" x="214.5" y="-67.5" font-family="Helvetica,sans-Serif" font-size="10.00">rawspeed::IOException</text>
<text text-anchor="middle" x="270.5" y="-56.5" font-family="Helvetica,sans-Serif" font-size="10.00">::IOException</text>
</a>
</g>
</g>
<!-- Node2&#45;&gt;Node3 -->
<g id="edge2" class="edge">
<title>Node2&#45;&gt;Node3</title>
<path fill="none" stroke="midnightblue" d="M385.68,-50.74C368.39,-52.83 350.71,-54.96 334.59,-56.9"/>
<polygon fill="midnightblue" stroke="midnightblue" points="386.29,-54.2 395.8,-49.52 385.45,-47.25 386.29,-54.2"/>
</g>
<!-- Node4 -->
<g id="node4" class="node">
<title>Node4</title>
<g id="a_node4"><a xlink:href="../../db/d52/classrawspeed_1_1_raw_decoder_exception.html#afcf5fe847bcd4b0a8013461890be221d" target="_top" xlink:title=" ">
<polygon fill="none" stroke="black" points="181,-0.5 181,-30.5 360,-30.5 360,-0.5 181,-0.5"/>
<text text-anchor="start" x="189" y="-18.5" font-family="Helvetica,sans-Serif" font-size="10.00">rawspeed::RawDecoderException</text>
<text text-anchor="middle" x="270.5" y="-7.5" font-family="Helvetica,sans-Serif" font-size="10.00">::RawDecoderException</text>
</a>
</g>
</g>
<!-- Node2&#45;&gt;Node4 -->
<g id="edge3" class="edge">
<title>Node2&#45;&gt;Node4</title>
<path fill="none" stroke="midnightblue" d="M385.83,-28.72C377.29,-27.74 368.66,-26.74 360.16,-25.75"/>
<polygon fill="midnightblue" stroke="midnightblue" points="385.46,-32.2 395.8,-29.88 386.27,-25.25 385.46,-32.2"/>
</g>
<!-- Node5 -->
<g id="node5" class="node">
<title>Node5</title>
<g id="a_node5"><a xlink:href="../../dd/dd4/classrawspeed_1_1_file_i_o_exception.html#aaa7ed863b01eac8f3b6bc52600abf603" target="_top" xlink:title=" ">
<polygon fill="none" stroke="black" points="0,-0.5 0,-30.5 145,-30.5 145,-0.5 0,-0.5"/>
<text text-anchor="start" x="8" y="-18.5" font-family="Helvetica,sans-Serif" font-size="10.00">rawspeed::FileIOException</text>
<text text-anchor="middle" x="72.5" y="-7.5" font-family="Helvetica,sans-Serif" font-size="10.00">::FileIOException</text>
</a>
</g>
</g>
<!-- Node4&#45;&gt;Node5 -->
<g id="edge4" class="edge">
<title>Node4&#45;&gt;Node5</title>
<path fill="none" stroke="midnightblue" d="M170.83,-15.5C162.19,-15.5 153.56,-15.5 145.2,-15.5"/>
<polygon fill="midnightblue" stroke="midnightblue" points="170.96,-19 180.96,-15.5 170.96,-12 170.96,-19"/>
</g>
</g>
</svg>
