<?xml version="1.0" encoding="UTF-8" standalone="no"?>
<!DOCTYPE svg PUBLIC "-//W3C//DTD SVG 1.1//EN"
 "http://www.w3.org/Graphics/SVG/1.1/DTD/svg11.dtd">
<!-- Generated by graphviz version 2.43.0 (0)
 -->
<!-- Title: librawspeed/common/Spline.h Pages: 1 -->
<svg width="346pt" height="106pt"
 viewBox="0.00 0.00 346.00 106.00" xmlns="http://www.w3.org/2000/svg" xmlns:xlink="http://www.w3.org/1999/xlink">
<g id="graph0" class="graph" transform="scale(1 1) rotate(0) translate(4 102)">
<title>librawspeed/common/Spline.h</title>
<!-- Node1 -->
<g id="node1" class="node">
<title>Node1</title>
<g id="a_node1"><a xlink:title=" ">
<polygon fill="#bfbfbf" stroke="black" points="89.5,-67.5 89.5,-97.5 211.5,-97.5 211.5,-67.5 89.5,-67.5"/>
<text text-anchor="start" x="97.5" y="-85.5" font-family="Helvetica,sans-Serif" font-size="10.00">librawspeed/common</text>
<text text-anchor="middle" x="150.5" y="-74.5" font-family="Helvetica,sans-Serif" font-size="10.00">/Spline.h</text>
</a>
</g>
</g>
<!-- Node2 -->
<g id="node2" class="node">
<title>Node2</title>
<g id="a_node2"><a xlink:href="../../dc/d32/_iiq_decoder_8cpp.html" target="_top" xlink:title=" ">
<polygon fill="none" stroke="black" points="0,-0.5 0,-30.5 123,-30.5 123,-0.5 0,-0.5"/>
<text text-anchor="start" x="8" y="-18.5" font-family="Helvetica,sans-Serif" font-size="10.00">librawspeed/decoders</text>
<text text-anchor="middle" x="61.5" y="-7.5" font-family="Helvetica,sans-Serif" font-size="10.00">/IiqDecoder.cpp</text>
</a>
</g>
</g>
<!-- Node1&#45;&gt;Node2 -->
<g id="edge1" class="edge">
<title>Node1&#45;&gt;Node2</title>
<path fill="none" stroke="midnightblue" d="M123.05,-61.45C109.36,-51.45 93.13,-39.6 80.77,-30.58"/>
<polygon fill="midnightblue" stroke="midnightblue" points="121.05,-64.32 131.19,-67.4 125.18,-58.67 121.05,-64.32"/>
</g>
<!-- Node3 -->
<g id="node3" class="node">
<title>Node3</title>
<g id="a_node3"><a xlink:href="../../d2/dd6/_spline_test_8cpp.html" target="_top" xlink:title=" ">
<polygon fill="none" stroke="black" points="141,-0.5 141,-30.5 338,-30.5 338,-0.5 141,-0.5"/>
<text text-anchor="start" x="149" y="-18.5" font-family="Helvetica,sans-Serif" font-size="10.00">/build/rawspeed/test</text>
<text text-anchor="middle" x="239.5" y="-7.5" font-family="Helvetica,sans-Serif" font-size="10.00">/librawspeed/common/SplineTest.cpp</text>
</a>
</g>
</g>
<!-- Node1&#45;&gt;Node3 -->
<g id="edge2" class="edge">
<title>Node1&#45;&gt;Node3</title>
<path fill="none" stroke="midnightblue" d="M177.95,-61.45C191.64,-51.45 207.87,-39.6 220.23,-30.58"/>
<polygon fill="midnightblue" stroke="midnightblue" points="175.82,-58.67 169.81,-67.4 179.95,-64.32 175.82,-58.67"/>
</g>
</g>
</svg>
