<?xml version="1.0" encoding="UTF-8" standalone="no"?>
<!DOCTYPE svg PUBLIC "-//W3C//DTD SVG 1.1//EN"
 "http://www.w3.org/Graphics/SVG/1.1/DTD/svg11.dtd">
<!-- Generated by graphviz version 2.43.0 (0)
 -->
<!-- Title: rawspeed::PanasonicDecompressorV5::PanasonicDecompressorV5 Pages: 1 -->
<!--zoomable 258 -->
<svg id="main" version="1.1" xmlns="http://www.w3.org/2000/svg" xmlns:xlink="http://www.w3.org/1999/xlink" xml:space="preserve" onload="init(evt)">
<style type="text/css"><![CDATA[
.edge:hover path { stroke: red; }
.edge:hover polygon { stroke: red; fill: red; }
]]></style>
<script type="text/javascript"><![CDATA[
var edges = document.getElementsByTagName('g');
if (edges && edges.length) {
  for (var i=0;i<edges.length;i++) {
    if (edges[i].id.substr(0,4)=='edge') {
      edges[i].setAttribute('class','edge');
    }
  }
}
]]></script>
        <defs>
                <circle id="rim" cx="0" cy="0" r="7"/>
                <circle id="rim2" cx="0" cy="0" r="3.5"/>
                <g id="zoomPlus">
                        <use xlink:href="#rim" fill="#404040">
                                <set attributeName="fill" to="#808080" begin="zoomplus.mouseover" end="zoomplus.mouseout"/>
                        </use>
                        <path d="M-4,0h8M0,-4v8" fill="none" stroke="white" stroke-width="1.5" pointer-events="none"/>
                </g>
                <g id="zoomMin">
                        <use xlink:href="#rim" fill="#404040">
                                <set attributeName="fill" to="#808080" begin="zoomminus.mouseover" end="zoomminus.mouseout"/>
                        </use>
                        <path d="M-4,0h8" fill="none" stroke="white" stroke-width="1.5" pointer-events="none"/>
                </g>
                <g id="dirArrow">
                        <path fill="none" stroke="white" stroke-width="1.5" d="M0,-3.0v7 M-2.5,-0.5L0,-3.0L2.5,-0.5"/>
                </g>
               <g id="resetDef">
                       <use xlink:href="#rim2" fill="#404040">
                               <set attributeName="fill" to="#808080" begin="reset.mouseover" end="reset.mouseout"/>
                       </use>
               </g>
        </defs>

<script type="text/javascript">
var viewWidth = 750;
var viewHeight = 258;
var sectionId = 'dynsection-2';
</script>
<script xlink:href="../../svgpan.js"/>
<svg id="graph" class="graph">
<g id="viewport">
<title>rawspeed::PanasonicDecompressorV5::PanasonicDecompressorV5</title>
<!-- Node1 -->
<g id="node1" class="node">
<title>Node1</title>
<g id="a_node1"><a xlink:title=" ">
<polygon fill="#bfbfbf" stroke="black" points="0,-115.5 0,-145.5 189,-145.5 189,-115.5 0,-115.5"/>
<text text-anchor="start" x="8" y="-133.5" font-family="Helvetica,sans-Serif" font-size="10.00">rawspeed::PanasonicDecompressor</text>
<text text-anchor="middle" x="94.5" y="-122.5" font-family="Helvetica,sans-Serif" font-size="10.00">V5::PanasonicDecompressorV5</text>
</a>
</g>
</g>
<!-- Node2 -->
<g id="node2" class="node">
<title>Node2</title>
<g id="a_node2"><a xlink:href="../../d8/d75/classrawspeed_1_1i_point2_d.html#abb9155da47f90ec694b75ad521bb7978" target="_top" xlink:title=" ">
<polygon fill="none" stroke="black" points="458.5,-219.5 458.5,-249.5 569.5,-249.5 569.5,-219.5 458.5,-219.5"/>
<text text-anchor="start" x="466.5" y="-237.5" font-family="Helvetica,sans-Serif" font-size="10.00">rawspeed::iPoint2D</text>
<text text-anchor="middle" x="514" y="-226.5" font-family="Helvetica,sans-Serif" font-size="10.00">::__attribute__</text>
</a>
</g>
</g>
<!-- Node1&#45;&gt;Node2 -->
<g id="edge1" class="edge">
<title>Node1&#45;&gt;Node2</title>
<path fill="none" stroke="midnightblue" d="M118.76,-145.73C143.88,-161.4 185.61,-185.2 225,-197.5 299.33,-220.71 388.82,-229.38 448.11,-232.61"/>
<polygon fill="midnightblue" stroke="midnightblue" points="448.29,-236.12 458.46,-233.13 448.65,-229.13 448.29,-236.12"/>
</g>
<!-- Node3 -->
<g id="node3" class="node">
<title>Node3</title>
<g id="a_node3"><a xlink:href="../../db/db3/classrawspeed_1_1_panasonic_decompressor_v5.html#ae8f02fe90c398ebf2665d534037a6b32" target="_top" xlink:title=" ">
<polygon fill="none" stroke="black" points="225,-137.5 225,-167.5 414,-167.5 414,-137.5 225,-137.5"/>
<text text-anchor="start" x="233" y="-155.5" font-family="Helvetica,sans-Serif" font-size="10.00">rawspeed::PanasonicDecompressor</text>
<text text-anchor="middle" x="319.5" y="-144.5" font-family="Helvetica,sans-Serif" font-size="10.00">V5::chopInputIntoBlocks</text>
</a>
</g>
</g>
<!-- Node1&#45;&gt;Node3 -->
<g id="edge2" class="edge">
<title>Node1&#45;&gt;Node3</title>
<path fill="none" stroke="midnightblue" d="M189.1,-139.73C197.58,-140.57 206.21,-141.42 214.77,-142.27"/>
<polygon fill="midnightblue" stroke="midnightblue" points="214.48,-145.76 224.78,-143.25 215.17,-138.79 214.48,-145.76"/>
</g>
<!-- Node4 -->
<g id="node4" class="node">
<title>Node4</title>
<g id="a_node4"><a xlink:href="../../dd/da0/classrawspeed_1_1_byte_stream.html#ab4972769baa5c0ed59ec0608ed2b307d" target="_top" xlink:title=" ">
<polygon fill="none" stroke="black" points="450,-170.5 450,-200.5 578,-200.5 578,-170.5 450,-170.5"/>
<text text-anchor="start" x="458" y="-188.5" font-family="Helvetica,sans-Serif" font-size="10.00">rawspeed::ByteStream</text>
<text text-anchor="middle" x="514" y="-177.5" font-family="Helvetica,sans-Serif" font-size="10.00">::getRemainSize</text>
</a>
</g>
</g>
<!-- Node1&#45;&gt;Node4 -->
<g id="edge8" class="edge">
<title>Node1&#45;&gt;Node4</title>
<path fill="none" stroke="midnightblue" d="M127.95,-145.58C153.65,-156.7 190.81,-171 225,-177.5 296.97,-191.19 380.85,-191.83 439.46,-189.88"/>
<polygon fill="midnightblue" stroke="midnightblue" points="439.87,-193.37 449.74,-189.5 439.62,-186.37 439.87,-193.37"/>
</g>
<!-- Node7 -->
<g id="node7" class="node">
<title>Node7</title>
<g id="a_node7"><a xlink:href="../../dd/d12/classrawspeed_1_1_raw_image.html#a2907002b5c707eca6939061f8b0d5e5d" target="_top" xlink:title=" ">
<polygon fill="none" stroke="black" points="453,-121.5 453,-151.5 575,-151.5 575,-121.5 453,-121.5"/>
<text text-anchor="start" x="461" y="-139.5" font-family="Helvetica,sans-Serif" font-size="10.00">rawspeed::RawImage</text>
<text text-anchor="middle" x="514" y="-128.5" font-family="Helvetica,sans-Serif" font-size="10.00">::operator&#45;&gt;</text>
</a>
</g>
</g>
<!-- Node1&#45;&gt;Node7 -->
<g id="edge12" class="edge">
<title>Node1&#45;&gt;Node7</title>
<path fill="none" stroke="midnightblue" d="M189.26,-127.62C252.73,-126.23 338.44,-125.45 414,-128.5 423.33,-128.88 433.15,-129.45 442.83,-130.13"/>
<polygon fill="midnightblue" stroke="midnightblue" points="442.61,-133.62 452.84,-130.86 443.12,-126.64 442.61,-133.62"/>
</g>
<!-- Node8 -->
<g id="node8" class="node">
<title>Node8</title>
<g id="a_node8"><a xlink:href="../../d8/d75/classrawspeed_1_1i_point2_d.html#a3380c669e36808d7f01bc4d833be3844" target="_top" xlink:title=" ">
<polygon fill="none" stroke="black" points="264,-49.5 264,-79.5 375,-79.5 375,-49.5 264,-49.5"/>
<text text-anchor="start" x="272" y="-67.5" font-family="Helvetica,sans-Serif" font-size="10.00">rawspeed::iPoint2D</text>
<text text-anchor="middle" x="319.5" y="-56.5" font-family="Helvetica,sans-Serif" font-size="10.00">::hasPositiveArea</text>
</a>
</g>
</g>
<!-- Node1&#45;&gt;Node8 -->
<g id="edge9" class="edge">
<title>Node1&#45;&gt;Node8</title>
<path fill="none" stroke="midnightblue" d="M146.38,-115.44C179.52,-105.63 222.91,-92.79 257.84,-82.45"/>
<polygon fill="midnightblue" stroke="midnightblue" points="258.86,-85.8 267.45,-79.61 256.87,-79.09 258.86,-85.8"/>
</g>
<!-- Node10 -->
<g id="node10" class="node">
<title>Node10</title>
<g id="a_node10"><a xlink:href="../../dd/d12/classrawspeed_1_1_raw_image.html#a4a01d153bb4518ddfaac18a5d0694154" target="_top" xlink:title=" ">
<polygon fill="none" stroke="black" points="258.5,-0.5 258.5,-30.5 380.5,-30.5 380.5,-0.5 258.5,-0.5"/>
<text text-anchor="start" x="266.5" y="-18.5" font-family="Helvetica,sans-Serif" font-size="10.00">rawspeed::RawImage</text>
<text text-anchor="middle" x="319.5" y="-7.5" font-family="Helvetica,sans-Serif" font-size="10.00">::RawImage</text>
</a>
</g>
</g>
<!-- Node1&#45;&gt;Node10 -->
<g id="edge13" class="edge">
<title>Node1&#45;&gt;Node10</title>
<path fill="none" stroke="midnightblue" d="M113.14,-115.23C136.98,-95.32 181.53,-60.66 225,-40.5 232.37,-37.08 240.29,-34.06 248.29,-31.42"/>
<polygon fill="midnightblue" stroke="midnightblue" points="249.55,-34.69 258.06,-28.37 247.47,-28.01 249.55,-34.69"/>
</g>
<!-- Node3&#45;&gt;Node2 -->
<g id="edge3" class="edge">
<title>Node3&#45;&gt;Node2</title>
<path fill="none" stroke="midnightblue" d="M352.74,-167.56C378.81,-179.58 416.54,-196.65 450,-210.5 454.19,-212.23 458.55,-213.99 462.94,-215.73"/>
<polygon fill="midnightblue" stroke="midnightblue" points="461.95,-219.1 472.53,-219.48 464.49,-212.58 461.95,-219.1"/>
</g>
<!-- Node3&#45;&gt;Node4 -->
<g id="edge4" class="edge">
<title>Node3&#45;&gt;Node4</title>
<path fill="none" stroke="midnightblue" d="M408.02,-167.5C418.71,-169.34 429.54,-171.19 439.98,-172.98"/>
<polygon fill="midnightblue" stroke="midnightblue" points="439.41,-176.44 449.86,-174.68 440.6,-169.54 439.41,-176.44"/>
</g>
<!-- Node6 -->
<g id="node6" class="node">
<title>Node6</title>
<g id="a_node6"><a xlink:href="../../d8/d75/classrawspeed_1_1i_point2_d.html#ab980cc8ab2f3502a5a2c230530ba2a64" target="_top" xlink:title=" ">
<polygon fill="none" stroke="black" points="458.5,-72.5 458.5,-102.5 569.5,-102.5 569.5,-72.5 458.5,-72.5"/>
<text text-anchor="start" x="466.5" y="-90.5" font-family="Helvetica,sans-Serif" font-size="10.00">rawspeed::iPoint2D</text>
<text text-anchor="middle" x="514" y="-79.5" font-family="Helvetica,sans-Serif" font-size="10.00">::iPoint2D</text>
</a>
</g>
</g>
<!-- Node3&#45;&gt;Node6 -->
<g id="edge6" class="edge">
<title>Node3&#45;&gt;Node6</title>
<path fill="none" stroke="midnightblue" d="M365.15,-137.42C392.99,-128.02 429.01,-115.86 458.52,-105.89"/>
<polygon fill="midnightblue" stroke="midnightblue" points="459.91,-109.12 468.26,-102.61 457.67,-102.49 459.91,-109.12"/>
</g>
<!-- Node3&#45;&gt;Node7 -->
<g id="edge7" class="edge">
<title>Node3&#45;&gt;Node7</title>
<path fill="none" stroke="midnightblue" d="M414.21,-144.71C423.9,-143.91 433.63,-143.1 442.99,-142.32"/>
<polygon fill="midnightblue" stroke="midnightblue" points="443.32,-145.8 453,-141.49 442.74,-138.83 443.32,-145.8"/>
</g>
<!-- Node5 -->
<g id="node5" class="node">
<title>Node5</title>
<g id="a_node5"><a xlink:href="../../dd/da0/classrawspeed_1_1_byte_stream.html#a33bbb3baf3bb9730f9da8765175ec4ce" target="_top" xlink:title=" ">
<polygon fill="none" stroke="black" points="614,-170.5 614,-200.5 742,-200.5 742,-170.5 614,-170.5"/>
<text text-anchor="start" x="622" y="-188.5" font-family="Helvetica,sans-Serif" font-size="10.00">rawspeed::ByteStream</text>
<text text-anchor="middle" x="678" y="-177.5" font-family="Helvetica,sans-Serif" font-size="10.00">::check</text>
</a>
</g>
</g>
<!-- Node4&#45;&gt;Node5 -->
<g id="edge5" class="edge">
<title>Node4&#45;&gt;Node5</title>
<path fill="none" stroke="midnightblue" d="M578.1,-185.5C586.43,-185.5 595.04,-185.5 603.53,-185.5"/>
<polygon fill="midnightblue" stroke="midnightblue" points="603.81,-189 613.81,-185.5 603.81,-182 603.81,-189"/>
</g>
<!-- Node8&#45;&gt;Node6 -->
<g id="edge10" class="edge">
<title>Node8&#45;&gt;Node6</title>
<path fill="none" stroke="midnightblue" d="M375.15,-71.03C397.91,-73.75 424.51,-76.93 448.24,-79.76"/>
<polygon fill="midnightblue" stroke="midnightblue" points="447.87,-83.24 458.22,-80.95 448.7,-76.29 447.87,-83.24"/>
</g>
<!-- Node9 -->
<g id="node9" class="node">
<title>Node9</title>
<g id="a_node9"><a xlink:href="../../d8/d75/classrawspeed_1_1i_point2_d.html#ac35b470bfed78a4394e8ac52a85b8fd1" target="_top" xlink:title=" ">
<polygon fill="none" stroke="black" points="458.5,-23.5 458.5,-53.5 569.5,-53.5 569.5,-23.5 458.5,-23.5"/>
<text text-anchor="start" x="466.5" y="-41.5" font-family="Helvetica,sans-Serif" font-size="10.00">rawspeed::iPoint2D</text>
<text text-anchor="middle" x="514" y="-30.5" font-family="Helvetica,sans-Serif" font-size="10.00">::operator&gt;</text>
</a>
</g>
</g>
<!-- Node8&#45;&gt;Node9 -->
<g id="edge11" class="edge">
<title>Node8&#45;&gt;Node9</title>
<path fill="none" stroke="midnightblue" d="M375.15,-57.12C397.91,-54.05 424.51,-50.45 448.24,-47.25"/>
<polygon fill="midnightblue" stroke="midnightblue" points="448.77,-50.71 458.22,-45.9 447.84,-43.77 448.77,-50.71"/>
</g>
</g>
</svg>
        <g id="navigator" transform="translate(0 0)" fill="#404254">
                <rect fill="#f2f5e9" fill-opacity="0.5" stroke="#606060" stroke-width=".5" x="0" y="0" width="60" height="60"/>
                <use id="zoomplus" xlink:href="#zoomPlus" x="17" y="9" onmousedown="handleZoom(evt,'in')"/>
                <use id="zoomminus" xlink:href="#zoomMin" x="42" y="9" onmousedown="handleZoom(evt,'out')"/>
                <use id="reset" xlink:href="#resetDef" x="30" y="36" onmousedown="handleReset()"/>
                <g id="arrowUp" xlink:href="#dirArrow" transform="translate(30 24)" onmousedown="handlePan(0,-1)">
                  <use xlink:href="#rim" fill="#404040">
                        <set attributeName="fill" to="#808080" begin="arrowUp.mouseover" end="arrowUp.mouseout"/>
                  </use>
                  <path fill="none" stroke="white" stroke-width="1.5" d="M0,-3.0v7 M-2.5,-0.5L0,-3.0L2.5,-0.5"/>
                </g>
                <g id="arrowRight" xlink:href="#dirArrow" transform="rotate(90) translate(36 -43)" onmousedown="handlePan(1,0)">
                  <use xlink:href="#rim" fill="#404040">
                        <set attributeName="fill" to="#808080" begin="arrowRight.mouseover" end="arrowRight.mouseout"/>
                  </use>
                  <path fill="none" stroke="white" stroke-width="1.5" d="M0,-3.0v7 M-2.5,-0.5L0,-3.0L2.5,-0.5"/>
                </g>
                <g id="arrowDown" xlink:href="#dirArrow" transform="rotate(180) translate(-30 -48)" onmousedown="handlePan(0,1)">
                  <use xlink:href="#rim" fill="#404040">
                        <set attributeName="fill" to="#808080" begin="arrowDown.mouseover" end="arrowDown.mouseout"/>
                  </use>
                  <path fill="none" stroke="white" stroke-width="1.5" d="M0,-3.0v7 M-2.5,-0.5L0,-3.0L2.5,-0.5"/>
                </g>
                <g id="arrowLeft" xlink:href="#dirArrow" transform="rotate(270) translate(-36 17)" onmousedown="handlePan(-1,0)">
                  <use xlink:href="#rim" fill="#404040">
                        <set attributeName="fill" to="#808080" begin="arrowLeft.mouseover" end="arrowLeft.mouseout"/>
                  </use>
                  <path fill="none" stroke="white" stroke-width="1.5" d="M0,-3.0v7 M-2.5,-0.5L0,-3.0L2.5,-0.5"/>
                </g>
        </g>
        <svg viewBox="0 0 15 15" width="100%" height="30px" preserveAspectRatio="xMaxYMin meet">
         <g id="arrow_out" transform="scale(0.3 0.3)">
          <a xlink:href="classrawspeed_1_1_panasonic_decompressor_v5_a35f58e93a7d9019a89a5e97e8b55d8ad_cgraph_org.svg" target="_base">
           <rect id="button" ry="5" rx="5" y="6" x="6" height="38" width="38"
                fill="#f2f5e9" fill-opacity="0.5" stroke="#606060" stroke-width="1.0"/>
           <path id="arrow"
             d="M 11.500037,31.436501 C 11.940474,20.09759 22.043105,11.32322 32.158766,21.979434 L 37.068811,17.246167 C 37.068811,17.246167 37.088388,32 37.088388,32 L 22.160133,31.978069 C 22.160133,31.978069 26.997745,27.140456 26.997745,27.140456 C 18.528582,18.264221 13.291696,25.230495 11.500037,31.436501 z"
             style="fill:#404040;"/>
          </a>
         </g>
        </svg>
</svg>
