<?xml version="1.0" encoding="UTF-8" standalone="no"?>
<!DOCTYPE svg PUBLIC "-//W3C//DTD SVG 1.1//EN"
 "http://www.w3.org/Graphics/SVG/1.1/DTD/svg11.dtd">
<!-- Generated by graphviz version 2.43.0 (0)
 -->
<!-- Title: rawspeed::PanasonicDecompressorV5::chopInputIntoBlocks Pages: 1 -->
<svg width="525pt" height="186pt"
 viewBox="0.00 0.00 525.00 186.00" xmlns="http://www.w3.org/2000/svg" xmlns:xlink="http://www.w3.org/1999/xlink">
<g id="graph0" class="graph" transform="scale(1 1) rotate(0) translate(4 182)">
<title>rawspeed::PanasonicDecompressorV5::chopInputIntoBlocks</title>
<!-- Node1 -->
<g id="node1" class="node">
<title>Node1</title>
<g id="a_node1"><a xlink:title=" ">
<polygon fill="#bfbfbf" stroke="black" points="0,-73.5 0,-103.5 189,-103.5 189,-73.5 0,-73.5"/>
<text text-anchor="start" x="8" y="-91.5" font-family="Helvetica,sans-Serif" font-size="10.00">rawspeed::PanasonicDecompressor</text>
<text text-anchor="middle" x="94.5" y="-80.5" font-family="Helvetica,sans-Serif" font-size="10.00">V5::chopInputIntoBlocks</text>
</a>
</g>
</g>
<!-- Node2 -->
<g id="node2" class="node">
<title>Node2</title>
<g id="a_node2"><a xlink:href="../../d8/d75/classrawspeed_1_1i_point2_d.html#abb9155da47f90ec694b75ad521bb7978" target="_top" xlink:title=" ">
<polygon fill="none" stroke="black" points="233.5,-147.5 233.5,-177.5 344.5,-177.5 344.5,-147.5 233.5,-147.5"/>
<text text-anchor="start" x="241.5" y="-165.5" font-family="Helvetica,sans-Serif" font-size="10.00">rawspeed::iPoint2D</text>
<text text-anchor="middle" x="289" y="-154.5" font-family="Helvetica,sans-Serif" font-size="10.00">::__attribute__</text>
</a>
</g>
</g>
<!-- Node1&#45;&gt;Node2 -->
<g id="edge1" class="edge">
<title>Node1&#45;&gt;Node2</title>
<path fill="none" stroke="midnightblue" d="M134.3,-103.53C160.02,-113.48 194.51,-126.81 225,-138.5 229.48,-140.22 234.13,-142 238.8,-143.78"/>
<polygon fill="midnightblue" stroke="midnightblue" points="237.74,-147.12 248.33,-147.42 240.24,-140.58 237.74,-147.12"/>
</g>
<!-- Node3 -->
<g id="node3" class="node">
<title>Node3</title>
<g id="a_node3"><a xlink:href="../../dd/da0/classrawspeed_1_1_byte_stream.html#ab4972769baa5c0ed59ec0608ed2b307d" target="_top" xlink:title=" ">
<polygon fill="none" stroke="black" points="225,-98.5 225,-128.5 353,-128.5 353,-98.5 225,-98.5"/>
<text text-anchor="start" x="233" y="-116.5" font-family="Helvetica,sans-Serif" font-size="10.00">rawspeed::ByteStream</text>
<text text-anchor="middle" x="289" y="-105.5" font-family="Helvetica,sans-Serif" font-size="10.00">::getRemainSize</text>
</a>
</g>
</g>
<!-- Node1&#45;&gt;Node3 -->
<g id="edge2" class="edge">
<title>Node1&#45;&gt;Node3</title>
<path fill="none" stroke="midnightblue" d="M189.21,-100.67C197.78,-101.78 206.37,-102.9 214.72,-103.98"/>
<polygon fill="midnightblue" stroke="midnightblue" points="214.39,-107.47 224.76,-105.29 215.29,-100.53 214.39,-107.47"/>
</g>
<!-- Node5 -->
<g id="node5" class="node">
<title>Node5</title>
<g id="a_node5"><a xlink:href="../../d8/d75/classrawspeed_1_1i_point2_d.html#ab980cc8ab2f3502a5a2c230530ba2a64" target="_top" xlink:title=" ">
<polygon fill="none" stroke="black" points="233.5,-49.5 233.5,-79.5 344.5,-79.5 344.5,-49.5 233.5,-49.5"/>
<text text-anchor="start" x="241.5" y="-67.5" font-family="Helvetica,sans-Serif" font-size="10.00">rawspeed::iPoint2D</text>
<text text-anchor="middle" x="289" y="-56.5" font-family="Helvetica,sans-Serif" font-size="10.00">::iPoint2D</text>
</a>
</g>
</g>
<!-- Node1&#45;&gt;Node5 -->
<g id="edge4" class="edge">
<title>Node1&#45;&gt;Node5</title>
<path fill="none" stroke="midnightblue" d="M189.21,-76.82C200.66,-75.39 212.16,-73.96 223.05,-72.6"/>
<polygon fill="midnightblue" stroke="midnightblue" points="223.8,-76.03 233.29,-71.32 222.94,-69.08 223.8,-76.03"/>
</g>
<!-- Node6 -->
<g id="node6" class="node">
<title>Node6</title>
<g id="a_node6"><a xlink:href="../../dd/d12/classrawspeed_1_1_raw_image.html#a2907002b5c707eca6939061f8b0d5e5d" target="_top" xlink:title=" ">
<polygon fill="none" stroke="black" points="228,-0.5 228,-30.5 350,-30.5 350,-0.5 228,-0.5"/>
<text text-anchor="start" x="236" y="-18.5" font-family="Helvetica,sans-Serif" font-size="10.00">rawspeed::RawImage</text>
<text text-anchor="middle" x="289" y="-7.5" font-family="Helvetica,sans-Serif" font-size="10.00">::operator&#45;&gt;</text>
</a>
</g>
</g>
<!-- Node1&#45;&gt;Node6 -->
<g id="edge5" class="edge">
<title>Node1&#45;&gt;Node6</title>
<path fill="none" stroke="midnightblue" d="M135.39,-73.37C165.33,-62.02 206.5,-46.41 238.54,-34.26"/>
<polygon fill="midnightblue" stroke="midnightblue" points="240.06,-37.42 248.16,-30.61 237.57,-30.88 240.06,-37.42"/>
</g>
<!-- Node4 -->
<g id="node4" class="node">
<title>Node4</title>
<g id="a_node4"><a xlink:href="../../dd/da0/classrawspeed_1_1_byte_stream.html#a33bbb3baf3bb9730f9da8765175ec4ce" target="_top" xlink:title=" ">
<polygon fill="none" stroke="black" points="389,-98.5 389,-128.5 517,-128.5 517,-98.5 389,-98.5"/>
<text text-anchor="start" x="397" y="-116.5" font-family="Helvetica,sans-Serif" font-size="10.00">rawspeed::ByteStream</text>
<text text-anchor="middle" x="453" y="-105.5" font-family="Helvetica,sans-Serif" font-size="10.00">::check</text>
</a>
</g>
</g>
<!-- Node3&#45;&gt;Node4 -->
<g id="edge3" class="edge">
<title>Node3&#45;&gt;Node4</title>
<path fill="none" stroke="midnightblue" d="M353.1,-113.5C361.43,-113.5 370.04,-113.5 378.53,-113.5"/>
<polygon fill="midnightblue" stroke="midnightblue" points="378.81,-117 388.81,-113.5 378.81,-110 378.81,-117"/>
</g>
</g>
</svg>
