<?xml version="1.0" encoding="UTF-8" standalone="no"?>
<!DOCTYPE svg PUBLIC "-//W3C//DTD SVG 1.1//EN"
 "http://www.w3.org/Graphics/SVG/1.1/DTD/svg11.dtd">
<!-- Generated by graphviz version 2.43.0 (0)
 -->
<!-- Title: CreateCFA Pages: 1 -->
<svg width="421pt" height="235pt"
 viewBox="0.00 0.00 421.00 235.00" xmlns="http://www.w3.org/2000/svg" xmlns:xlink="http://www.w3.org/1999/xlink">
<g id="graph0" class="graph" transform="scale(1 1) rotate(0) translate(4 231)">
<title>CreateCFA</title>
<!-- Node1 -->
<g id="node1" class="node">
<title>Node1</title>
<g id="a_node1"><a xlink:title=" ">
<polygon fill="#bfbfbf" stroke="black" points="0,-104 0,-123 67,-123 67,-104 0,-104"/>
<text text-anchor="middle" x="33.5" y="-111" font-family="Helvetica,sans-Serif" font-size="10.00">CreateCFA</text>
</a>
</g>
</g>
<!-- Node2 -->
<g id="node2" class="node">
<title>Node2</title>
<g id="a_node2"><a xlink:href="../../dd/da0/classrawspeed_1_1_byte_stream.html#abe7af4e883e030909a304162f9bc72ad" target="_top" xlink:title=" ">
<polygon fill="none" stroke="black" points="112,-196.5 112,-226.5 240,-226.5 240,-196.5 112,-196.5"/>
<text text-anchor="start" x="120" y="-214.5" font-family="Helvetica,sans-Serif" font-size="10.00">rawspeed::ByteStream</text>
<text text-anchor="middle" x="176" y="-203.5" font-family="Helvetica,sans-Serif" font-size="10.00">::check</text>
</a>
</g>
</g>
<!-- Node1&#45;&gt;Node2 -->
<g id="edge1" class="edge">
<title>Node1&#45;&gt;Node2</title>
<path fill="none" stroke="midnightblue" d="M40.93,-123.11C51.87,-138.78 75.64,-169.85 103,-187.5 105.44,-189.07 107.99,-190.55 110.62,-191.95"/>
<polygon fill="midnightblue" stroke="midnightblue" points="109.26,-195.18 119.8,-196.34 112.29,-188.86 109.26,-195.18"/>
</g>
<!-- Node4 -->
<g id="node4" class="node">
<title>Node4</title>
<g id="a_node4"><a xlink:href="../../dd/da0/classrawspeed_1_1_byte_stream.html#ac598b7b6f0f8fd5476adb7c1363b1518" target="_top" xlink:title=" ">
<polygon fill="none" stroke="black" points="112,-147.5 112,-177.5 240,-177.5 240,-147.5 112,-147.5"/>
<text text-anchor="start" x="120" y="-165.5" font-family="Helvetica,sans-Serif" font-size="10.00">rawspeed::ByteStream</text>
<text text-anchor="middle" x="176" y="-154.5" font-family="Helvetica,sans-Serif" font-size="10.00">::getU32</text>
</a>
</g>
</g>
<!-- Node1&#45;&gt;Node4 -->
<g id="edge3" class="edge">
<title>Node1&#45;&gt;Node4</title>
<path fill="none" stroke="midnightblue" d="M60.14,-123.05C72.98,-127.78 88.78,-133.54 103,-138.5 108.42,-140.39 114.08,-142.33 119.74,-144.26"/>
<polygon fill="midnightblue" stroke="midnightblue" points="118.63,-147.58 129.23,-147.46 120.87,-140.94 118.63,-147.58"/>
</g>
<!-- Node5 -->
<g id="node5" class="node">
<title>Node5</title>
<g id="a_node5"><a xlink:href="../../d8/d75/classrawspeed_1_1i_point2_d.html#ab980cc8ab2f3502a5a2c230530ba2a64" target="_top" xlink:title=" ">
<polygon fill="none" stroke="black" points="120.5,-98.5 120.5,-128.5 231.5,-128.5 231.5,-98.5 120.5,-98.5"/>
<text text-anchor="start" x="128.5" y="-116.5" font-family="Helvetica,sans-Serif" font-size="10.00">rawspeed::iPoint2D</text>
<text text-anchor="middle" x="176" y="-105.5" font-family="Helvetica,sans-Serif" font-size="10.00">::iPoint2D</text>
</a>
</g>
</g>
<!-- Node1&#45;&gt;Node5 -->
<g id="edge4" class="edge">
<title>Node1&#45;&gt;Node5</title>
<path fill="none" stroke="midnightblue" d="M67.09,-113.5C79.93,-113.5 95.16,-113.5 110.07,-113.5"/>
<polygon fill="midnightblue" stroke="midnightblue" points="110.3,-117 120.3,-113.5 110.3,-110 110.3,-117"/>
</g>
<!-- Node6 -->
<g id="node6" class="node">
<title>Node6</title>
<g id="a_node6"><a xlink:href="../../d2/d4f/classrawspeed_1_1_color_filter_array.html#a40d0ed6c5afeeb01c05abbb9d32fc547" target="_top" xlink:title=" ">
<polygon fill="none" stroke="black" points="103,-49.5 103,-79.5 249,-79.5 249,-49.5 103,-49.5"/>
<text text-anchor="start" x="111" y="-67.5" font-family="Helvetica,sans-Serif" font-size="10.00">rawspeed::ColorFilterArray</text>
<text text-anchor="middle" x="176" y="-56.5" font-family="Helvetica,sans-Serif" font-size="10.00">::setColorAt</text>
</a>
</g>
</g>
<!-- Node1&#45;&gt;Node6 -->
<g id="edge5" class="edge">
<title>Node1&#45;&gt;Node6</title>
<path fill="none" stroke="midnightblue" d="M61.83,-103.91C74.37,-99.51 89.44,-94.23 103,-89.5 109.07,-87.38 115.42,-85.17 121.74,-82.97"/>
<polygon fill="midnightblue" stroke="midnightblue" points="123.29,-86.14 131.59,-79.55 120.99,-79.53 123.29,-86.14"/>
</g>
<!-- Node7 -->
<g id="node7" class="node">
<title>Node7</title>
<g id="a_node7"><a xlink:href="../../d2/d4f/classrawspeed_1_1_color_filter_array.html#abb8f591fc7f2cd1a7fc8ae1aad3f5643" target="_top" xlink:title=" ">
<polygon fill="none" stroke="black" points="103,-0.5 103,-30.5 249,-30.5 249,-0.5 103,-0.5"/>
<text text-anchor="start" x="111" y="-18.5" font-family="Helvetica,sans-Serif" font-size="10.00">rawspeed::ColorFilterArray</text>
<text text-anchor="middle" x="176" y="-7.5" font-family="Helvetica,sans-Serif" font-size="10.00">::setSize</text>
</a>
</g>
</g>
<!-- Node1&#45;&gt;Node7 -->
<g id="edge6" class="edge">
<title>Node1&#45;&gt;Node7</title>
<path fill="none" stroke="midnightblue" d="M41.34,-103.56C52.52,-88 76.18,-57.91 103,-40.5 106.13,-38.47 109.43,-36.59 112.85,-34.84"/>
<polygon fill="midnightblue" stroke="midnightblue" points="114.5,-37.93 122.08,-30.53 111.54,-31.59 114.5,-37.93"/>
</g>
<!-- Node3 -->
<g id="node3" class="node">
<title>Node3</title>
<g id="a_node3"><a xlink:href="../../dd/da0/classrawspeed_1_1_byte_stream.html#a33bbb3baf3bb9730f9da8765175ec4ce" target="_top" xlink:title=" ">
<polygon fill="none" stroke="black" points="285,-196.5 285,-226.5 413,-226.5 413,-196.5 285,-196.5"/>
<text text-anchor="start" x="293" y="-214.5" font-family="Helvetica,sans-Serif" font-size="10.00">rawspeed::ByteStream</text>
<text text-anchor="middle" x="349" y="-203.5" font-family="Helvetica,sans-Serif" font-size="10.00">::check</text>
</a>
</g>
</g>
<!-- Node2&#45;&gt;Node3 -->
<g id="edge2" class="edge">
<title>Node2&#45;&gt;Node3</title>
<path fill="none" stroke="midnightblue" d="M240.19,-211.5C251.45,-211.5 263.26,-211.5 274.77,-211.5"/>
<polygon fill="midnightblue" stroke="midnightblue" points="274.79,-215 284.79,-211.5 274.79,-208 274.79,-215"/>
</g>
<!-- Node8 -->
<g id="node8" class="node">
<title>Node8</title>
<g id="a_node8"><a xlink:href="../../d8/d75/classrawspeed_1_1i_point2_d.html#abb9155da47f90ec694b75ad521bb7978" target="_top" xlink:title=" ">
<polygon fill="none" stroke="black" points="293.5,-0.5 293.5,-30.5 404.5,-30.5 404.5,-0.5 293.5,-0.5"/>
<text text-anchor="start" x="301.5" y="-18.5" font-family="Helvetica,sans-Serif" font-size="10.00">rawspeed::iPoint2D</text>
<text text-anchor="middle" x="349" y="-7.5" font-family="Helvetica,sans-Serif" font-size="10.00">::__attribute__</text>
</a>
</g>
</g>
<!-- Node7&#45;&gt;Node8 -->
<g id="edge7" class="edge">
<title>Node7&#45;&gt;Node8</title>
<path fill="none" stroke="midnightblue" d="M249.02,-15.5C260.41,-15.5 272.13,-15.5 283.34,-15.5"/>
<polygon fill="midnightblue" stroke="midnightblue" points="283.47,-19 293.47,-15.5 283.47,-12 283.47,-19"/>
</g>
</g>
</svg>
