<?xml version="1.0" encoding="UTF-8" standalone="no"?>
<!DOCTYPE svg PUBLIC "-//W3C//DTD SVG 1.1//EN"
 "http://www.w3.org/Graphics/SVG/1.1/DTD/svg11.dtd">
<!-- Generated by graphviz version 2.43.0 (0)
 -->
<!-- Title: librawspeed/io/BitPumpMSB32.h Pages: 1 -->
<svg width="1156pt" height="420pt"
 viewBox="0.00 0.00 1155.73 420.00" xmlns="http://www.w3.org/2000/svg" xmlns:xlink="http://www.w3.org/1999/xlink">
<g id="graph0" class="graph" transform="scale(1 1) rotate(0) translate(4 416)">
<title>librawspeed/io/BitPumpMSB32.h</title>
<!-- Node1 -->
<g id="node1" class="node">
<title>Node1</title>
<g id="a_node1"><a xlink:title=" ">
<polygon fill="#bfbfbf" stroke="black" points="589,-392.5 589,-411.5 763,-411.5 763,-392.5 589,-392.5"/>
<text text-anchor="middle" x="676" y="-399.5" font-family="Helvetica,sans-Serif" font-size="10.00">librawspeed/io/BitPumpMSB32.h</text>
</a>
</g>
</g>
<!-- Node2 -->
<g id="node2" class="node">
<title>Node2</title>
<g id="a_node2"><a xlink:href="../../d7/dc3/_bit_stream_8h.html" target="_top" xlink:title=" ">
<polygon fill="none" stroke="black" points="792,-336.5 792,-355.5 878,-355.5 878,-336.5 792,-336.5"/>
<text text-anchor="middle" x="835" y="-343.5" font-family="Helvetica,sans-Serif" font-size="10.00">io/BitStream.h</text>
</a>
</g>
</g>
<!-- Node1&#45;&gt;Node2 -->
<g id="edge1" class="edge">
<title>Node1&#45;&gt;Node2</title>
<path fill="none" stroke="midnightblue" d="M701.19,-392.44C727.94,-383.36 770.4,-368.94 800.31,-358.78"/>
<polygon fill="midnightblue" stroke="midnightblue" points="801.58,-362.05 809.92,-355.52 799.33,-355.42 801.58,-362.05"/>
</g>
<!-- Node7 -->
<g id="node7" class="node">
<title>Node7</title>
<g id="a_node7"><a xlink:title=" ">
<polygon fill="none" stroke="#bfbfbf" points="89,-0.5 89,-19.5 139,-19.5 139,-0.5 89,-0.5"/>
<text text-anchor="middle" x="114" y="-7.5" font-family="Helvetica,sans-Serif" font-size="10.00">cstdint</text>
</a>
</g>
</g>
<!-- Node1&#45;&gt;Node7 -->
<g id="edge57" class="edge">
<title>Node1&#45;&gt;Node7</title>
<path fill="none" stroke="midnightblue" d="M588.66,-395.75C405.92,-383.6 0,-349.97 0,-291 0,-291 0,-291 0,-121 0,-74.11 50.55,-40.89 84.33,-23.93"/>
<polygon fill="midnightblue" stroke="midnightblue" points="85.87,-27.07 93.36,-19.58 82.83,-20.77 85.87,-27.07"/>
</g>
<!-- Node13 -->
<g id="node13" class="node">
<title>Node13</title>
<g id="a_node13"><a xlink:href="../../d7/d1b/_buffer_8h.html" target="_top" xlink:title=" ">
<polygon fill="none" stroke="black" points="397,-224.5 397,-243.5 463,-243.5 463,-224.5 397,-224.5"/>
<text text-anchor="middle" x="430" y="-231.5" font-family="Helvetica,sans-Serif" font-size="10.00">io/Buffer.h</text>
</a>
</g>
</g>
<!-- Node1&#45;&gt;Node13 -->
<g id="edge55" class="edge">
<title>Node1&#45;&gt;Node13</title>
<path fill="none" stroke="midnightblue" d="M663.12,-392.31C623.1,-365.3 500.64,-282.67 451.11,-249.25"/>
<polygon fill="midnightblue" stroke="midnightblue" points="453,-246.3 442.75,-243.61 449.08,-252.1 453,-246.3"/>
</g>
<!-- Node18 -->
<g id="node18" class="node">
<title>Node18</title>
<g id="a_node18"><a xlink:href="../../d5/d0b/_endianness_8h.html" target="_top" xlink:title=" ">
<polygon fill="none" stroke="black" points="922.5,-112.5 922.5,-131.5 1015.5,-131.5 1015.5,-112.5 922.5,-112.5"/>
<text text-anchor="middle" x="969" y="-119.5" font-family="Helvetica,sans-Serif" font-size="10.00">io/Endianness.h</text>
</a>
</g>
</g>
<!-- Node1&#45;&gt;Node18 -->
<g id="edge56" class="edge">
<title>Node1&#45;&gt;Node18</title>
<path fill="none" stroke="midnightblue" d="M753.48,-392.47C805.17,-385.32 867.17,-373.44 887,-356 952.18,-298.69 965.55,-186.37 968.29,-141.84"/>
<polygon fill="midnightblue" stroke="midnightblue" points="971.79,-141.99 968.79,-131.83 964.8,-141.64 971.79,-141.99"/>
</g>
<!-- Node3 -->
<g id="node3" class="node">
<title>Node3</title>
<g id="a_node3"><a xlink:href="../../d9/df5/src_2librawspeed_2common_2_common_8h.html" target="_top" xlink:title=" ">
<polygon fill="none" stroke="black" points="373,-56.5 373,-75.5 489,-75.5 489,-56.5 373,-56.5"/>
<text text-anchor="middle" x="431" y="-63.5" font-family="Helvetica,sans-Serif" font-size="10.00">common/Common.h</text>
</a>
</g>
</g>
<!-- Node2&#45;&gt;Node3 -->
<g id="edge2" class="edge">
<title>Node2&#45;&gt;Node3</title>
<path fill="none" stroke="midnightblue" d="M834.92,-336.14C834.17,-307.4 827.8,-215.88 778,-168 735.09,-126.75 706.19,-148.5 649,-132 585.63,-113.71 512.18,-91.63 468.75,-78.48"/>
<polygon fill="midnightblue" stroke="midnightblue" points="469.76,-75.12 459.17,-75.57 467.73,-81.82 469.76,-75.12"/>
</g>
<!-- Node4 -->
<g id="node4" class="node">
<title>Node4</title>
<g id="a_node4"><a xlink:title=" ">
<polygon fill="none" stroke="#bfbfbf" points="969,-0.5 969,-19.5 1033,-19.5 1033,-0.5 969,-0.5"/>
<text text-anchor="middle" x="1001" y="-7.5" font-family="Helvetica,sans-Serif" font-size="10.00">algorithm</text>
</a>
</g>
</g>
<!-- Node2&#45;&gt;Node4 -->
<g id="edge50" class="edge">
<title>Node2&#45;&gt;Node4</title>
<path fill="none" stroke="midnightblue" d="M878.29,-337.59C958.01,-322.71 1120,-286.18 1120,-235 1120,-235 1120,-235 1120,-177 1120,-110.6 1056.32,-52.52 1022.13,-26.11"/>
<polygon fill="midnightblue" stroke="midnightblue" points="1023.83,-23.02 1013.74,-19.81 1019.63,-28.61 1023.83,-23.02"/>
</g>
<!-- Node5 -->
<g id="node5" class="node">
<title>Node5</title>
<g id="a_node5"><a xlink:title=" ">
<polygon fill="none" stroke="#bfbfbf" points="830,-0.5 830,-19.5 882,-19.5 882,-0.5 830,-0.5"/>
<text text-anchor="middle" x="856" y="-7.5" font-family="Helvetica,sans-Serif" font-size="10.00">cassert</text>
</a>
</g>
</g>
<!-- Node2&#45;&gt;Node5 -->
<g id="edge52" class="edge">
<title>Node2&#45;&gt;Node5</title>
<path fill="none" stroke="midnightblue" d="M847.94,-336.38C885.05,-310.72 991.35,-230.47 1025,-132 1046.7,-68.51 947.73,-33.42 891.93,-18.96"/>
<polygon fill="midnightblue" stroke="midnightblue" points="892.6,-15.52 882.05,-16.5 890.91,-22.32 892.6,-15.52"/>
</g>
<!-- Node2&#45;&gt;Node7 -->
<g id="edge53" class="edge">
<title>Node2&#45;&gt;Node7</title>
<path fill="none" stroke="midnightblue" d="M791.87,-343.63C625.94,-337.81 38,-311.78 38,-235 38,-235 38,-235 38,-121 38,-81.28 71.96,-45.5 94.48,-26.15"/>
<polygon fill="midnightblue" stroke="midnightblue" points="96.98,-28.63 102.46,-19.57 92.52,-23.24 96.98,-28.63"/>
</g>
<!-- Node8 -->
<g id="node8" class="node">
<title>Node8</title>
<g id="a_node8"><a xlink:title=" ">
<polygon fill="none" stroke="#bfbfbf" points="1081,-0.5 1081,-19.5 1131,-19.5 1131,-0.5 1081,-0.5"/>
<text text-anchor="middle" x="1106" y="-7.5" font-family="Helvetica,sans-Serif" font-size="10.00">cstring</text>
</a>
</g>
</g>
<!-- Node2&#45;&gt;Node8 -->
<g id="edge54" class="edge">
<title>Node2&#45;&gt;Node8</title>
<path fill="none" stroke="midnightblue" d="M878.32,-343.28C926.75,-339.88 1006.45,-329.81 1068,-300 1102.32,-283.38 1116.8,-278.52 1133,-244 1167.62,-170.23 1131.62,-69.41 1114.25,-28.91"/>
<polygon fill="midnightblue" stroke="midnightblue" points="1117.35,-27.29 1110.1,-19.57 1110.96,-30.13 1117.35,-27.29"/>
</g>
<!-- Node2&#45;&gt;Node13 -->
<g id="edge12" class="edge">
<title>Node2&#45;&gt;Node13</title>
<path fill="none" stroke="midnightblue" d="M791.97,-338.94C744.82,-331.79 667.21,-318.47 602,-300 550.28,-285.35 492.19,-261.85 458.48,-247.48"/>
<polygon fill="midnightblue" stroke="midnightblue" points="459.81,-244.24 449.24,-243.51 457.05,-250.68 459.81,-244.24"/>
</g>
<!-- Node2&#45;&gt;Node18 -->
<g id="edge48" class="edge">
<title>Node2&#45;&gt;Node18</title>
<path fill="none" stroke="midnightblue" d="M839.4,-336.29C852.7,-310.13 894.15,-230.27 935,-168 941.31,-158.38 948.99,-148.11 955.45,-139.82"/>
<polygon fill="midnightblue" stroke="midnightblue" points="958.41,-141.73 961.87,-131.71 952.92,-137.38 958.41,-141.73"/>
</g>
<!-- Node19 -->
<g id="node19" class="node">
<title>Node19</title>
<g id="a_node19"><a xlink:href="../../d0/dd8/_i_o_exception_8h.html" target="_top" xlink:title=" ">
<polygon fill="none" stroke="black" points="673,-168.5 673,-187.5 769,-187.5 769,-168.5 673,-168.5"/>
<text text-anchor="middle" x="721" y="-175.5" font-family="Helvetica,sans-Serif" font-size="10.00">io/IOException.h</text>
</a>
</g>
</g>
<!-- Node2&#45;&gt;Node19 -->
<g id="edge49" class="edge">
<title>Node2&#45;&gt;Node19</title>
<path fill="none" stroke="midnightblue" d="M828.87,-336.08C810.69,-309.61 756.85,-231.21 732.82,-196.21"/>
<polygon fill="midnightblue" stroke="midnightblue" points="735.43,-193.83 726.88,-187.57 729.66,-197.79 735.43,-193.83"/>
</g>
<!-- Node21 -->
<g id="node21" class="node">
<title>Node21</title>
<g id="a_node21"><a xlink:title=" ">
<polygon fill="none" stroke="#bfbfbf" points="884,-56.5 884,-75.5 926,-75.5 926,-56.5 884,-56.5"/>
<text text-anchor="middle" x="905" y="-63.5" font-family="Helvetica,sans-Serif" font-size="10.00">array</text>
</a>
</g>
</g>
<!-- Node2&#45;&gt;Node21 -->
<g id="edge51" class="edge">
<title>Node2&#45;&gt;Node21</title>
<path fill="none" stroke="midnightblue" d="M846.67,-336.43C856.8,-328.29 870.93,-315.06 878,-300 912.42,-226.71 909.66,-126.7 906.71,-85.7"/>
<polygon fill="midnightblue" stroke="midnightblue" points="910.19,-85.25 905.89,-75.57 903.21,-85.82 910.19,-85.25"/>
</g>
<!-- Node27 -->
<g id="node27" class="node">
<title>Node27</title>
<g id="a_node27"><a xlink:href="../../d7/de7/_byte_stream_8h.html" target="_top" xlink:title=" ">
<polygon fill="none" stroke="black" points="610.5,-280.5 610.5,-299.5 705.5,-299.5 705.5,-280.5 610.5,-280.5"/>
<text text-anchor="middle" x="658" y="-287.5" font-family="Helvetica,sans-Serif" font-size="10.00">io/ByteStream.h</text>
</a>
</g>
</g>
<!-- Node2&#45;&gt;Node27 -->
<g id="edge38" class="edge">
<title>Node2&#45;&gt;Node27</title>
<path fill="none" stroke="midnightblue" d="M806.95,-336.44C776.92,-327.28 729.09,-312.69 695.76,-302.52"/>
<polygon fill="midnightblue" stroke="midnightblue" points="696.5,-299.09 685.91,-299.52 694.46,-305.78 696.5,-299.09"/>
</g>
<!-- Node3&#45;&gt;Node4 -->
<g id="edge3" class="edge">
<title>Node3&#45;&gt;Node4</title>
<path fill="none" stroke="midnightblue" d="M489.09,-57.04C492.1,-56.67 495.08,-56.33 498,-56 586.98,-46.05 854.13,-23.33 958.53,-14.55"/>
<polygon fill="midnightblue" stroke="midnightblue" points="959.03,-18.03 968.7,-13.7 958.44,-11.05 959.03,-18.03"/>
</g>
<!-- Node3&#45;&gt;Node5 -->
<g id="edge4" class="edge">
<title>Node3&#45;&gt;Node5</title>
<path fill="none" stroke="midnightblue" d="M489.1,-57.16C492.11,-56.77 495.09,-56.38 498,-56 615.69,-40.7 755.25,-23.4 819.86,-15.44"/>
<polygon fill="midnightblue" stroke="midnightblue" points="820.44,-18.89 829.94,-14.2 819.58,-11.95 820.44,-18.89"/>
</g>
<!-- Node6 -->
<g id="node6" class="node">
<title>Node6</title>
<g id="a_node6"><a xlink:title=" ">
<polygon fill="none" stroke="#bfbfbf" points="239,-0.5 239,-19.5 289,-19.5 289,-0.5 239,-0.5"/>
<text text-anchor="middle" x="264" y="-7.5" font-family="Helvetica,sans-Serif" font-size="10.00">climits</text>
</a>
</g>
</g>
<!-- Node3&#45;&gt;Node6 -->
<g id="edge5" class="edge">
<title>Node3&#45;&gt;Node6</title>
<path fill="none" stroke="midnightblue" d="M404.54,-56.44C375.99,-47.21 330.4,-32.47 298.93,-22.29"/>
<polygon fill="midnightblue" stroke="midnightblue" points="299.84,-18.91 289.24,-19.16 297.68,-25.57 299.84,-18.91"/>
</g>
<!-- Node3&#45;&gt;Node7 -->
<g id="edge6" class="edge">
<title>Node3&#45;&gt;Node7</title>
<path fill="none" stroke="midnightblue" d="M380.77,-56.44C316.15,-45.44 205.54,-26.59 149.21,-17"/>
<polygon fill="midnightblue" stroke="midnightblue" points="149.46,-13.49 139.02,-15.26 148.29,-20.39 149.46,-13.49"/>
</g>
<!-- Node3&#45;&gt;Node8 -->
<g id="edge7" class="edge">
<title>Node3&#45;&gt;Node8</title>
<path fill="none" stroke="midnightblue" d="M489.08,-56.95C492.09,-56.61 495.08,-56.29 498,-56 739.1,-31.86 800.97,-44.89 1042,-20 1051.33,-19.04 1061.38,-17.74 1070.7,-16.44"/>
<polygon fill="midnightblue" stroke="midnightblue" points="1071.43,-19.87 1080.82,-14.98 1070.43,-12.94 1071.43,-19.87"/>
</g>
<!-- Node9 -->
<g id="node9" class="node">
<title>Node9</title>
<g id="a_node9"><a xlink:title=" ">
<polygon fill="none" stroke="#bfbfbf" points="307.5,-0.5 307.5,-19.5 390.5,-19.5 390.5,-0.5 307.5,-0.5"/>
<text text-anchor="middle" x="349" y="-7.5" font-family="Helvetica,sans-Serif" font-size="10.00">initializer_list</text>
</a>
</g>
</g>
<!-- Node3&#45;&gt;Node9 -->
<g id="edge8" class="edge">
<title>Node3&#45;&gt;Node9</title>
<path fill="none" stroke="midnightblue" d="M417.83,-56.32C405.15,-47.98 385.77,-35.21 370.79,-25.35"/>
<polygon fill="midnightblue" stroke="midnightblue" points="372.42,-22.23 362.14,-19.65 368.57,-28.08 372.42,-22.23"/>
</g>
<!-- Node10 -->
<g id="node10" class="node">
<title>Node10</title>
<g id="a_node10"><a xlink:title=" ">
<polygon fill="none" stroke="#bfbfbf" points="409,-0.5 409,-19.5 453,-19.5 453,-0.5 409,-0.5"/>
<text text-anchor="middle" x="431" y="-7.5" font-family="Helvetica,sans-Serif" font-size="10.00">string</text>
</a>
</g>
</g>
<!-- Node3&#45;&gt;Node10 -->
<g id="edge9" class="edge">
<title>Node3&#45;&gt;Node10</title>
<path fill="none" stroke="midnightblue" d="M431,-56.08C431,-49.01 431,-38.86 431,-29.99"/>
<polygon fill="midnightblue" stroke="midnightblue" points="434.5,-29.75 431,-19.75 427.5,-29.75 434.5,-29.75"/>
</g>
<!-- Node11 -->
<g id="node11" class="node">
<title>Node11</title>
<g id="a_node11"><a xlink:title=" ">
<polygon fill="none" stroke="#bfbfbf" points="471.5,-0.5 471.5,-19.5 540.5,-19.5 540.5,-0.5 471.5,-0.5"/>
<text text-anchor="middle" x="506" y="-7.5" font-family="Helvetica,sans-Serif" font-size="10.00">type_traits</text>
</a>
</g>
</g>
<!-- Node3&#45;&gt;Node11 -->
<g id="edge10" class="edge">
<title>Node3&#45;&gt;Node11</title>
<path fill="none" stroke="midnightblue" d="M443.05,-56.32C454.46,-48.11 471.83,-35.6 485.43,-25.81"/>
<polygon fill="midnightblue" stroke="midnightblue" points="487.66,-28.52 493.73,-19.83 483.57,-22.84 487.66,-28.52"/>
</g>
<!-- Node12 -->
<g id="node12" class="node">
<title>Node12</title>
<g id="a_node12"><a xlink:title=" ">
<polygon fill="none" stroke="#bfbfbf" points="558.5,-0.5 558.5,-19.5 605.5,-19.5 605.5,-0.5 558.5,-0.5"/>
<text text-anchor="middle" x="582" y="-7.5" font-family="Helvetica,sans-Serif" font-size="10.00">vector</text>
</a>
</g>
</g>
<!-- Node3&#45;&gt;Node12 -->
<g id="edge11" class="edge">
<title>Node3&#45;&gt;Node12</title>
<path fill="none" stroke="midnightblue" d="M454.93,-56.44C480.22,-47.4 520.3,-33.06 548.68,-22.92"/>
<polygon fill="midnightblue" stroke="midnightblue" points="549.95,-26.18 558.19,-19.52 547.59,-19.59 549.95,-26.18"/>
</g>
<!-- Node13&#45;&gt;Node3 -->
<g id="edge15" class="edge">
<title>Node13&#45;&gt;Node3</title>
<path fill="none" stroke="midnightblue" d="M399.75,-224.49C381.87,-217.73 360.7,-206.29 350,-188 332.95,-158.84 332.87,-141.11 350,-112 358.92,-96.84 374.99,-86.43 390.48,-79.46"/>
<polygon fill="midnightblue" stroke="midnightblue" points="392.06,-82.6 399.98,-75.56 389.4,-76.12 392.06,-82.6"/>
</g>
<!-- Node13&#45;&gt;Node5 -->
<g id="edge34" class="edge">
<title>Node13&#45;&gt;Node5</title>
<path fill="none" stroke="midnightblue" d="M396.86,-226.36C375.77,-220.24 350.05,-208.82 337,-188 305.19,-137.27 314.79,-90.13 364,-56 401.26,-30.16 712.65,-16.3 819.88,-12.27"/>
<polygon fill="midnightblue" stroke="midnightblue" points="820.04,-15.76 829.9,-11.9 819.78,-8.77 820.04,-15.76"/>
</g>
<!-- Node13&#45;&gt;Node7 -->
<g id="edge35" class="edge">
<title>Node13&#45;&gt;Node7</title>
<path fill="none" stroke="midnightblue" d="M396.93,-232.86C327.25,-231.83 168.75,-225.34 133,-188 91.73,-144.89 101.91,-66.11 109.4,-30"/>
<polygon fill="midnightblue" stroke="midnightblue" points="112.9,-30.4 111.67,-19.87 106.07,-28.86 112.9,-30.4"/>
</g>
<!-- Node14 -->
<g id="node14" class="node">
<title>Node14</title>
<g id="a_node14"><a xlink:href="../../d2/d4f/_address_sanitizer_8h.html" target="_top" xlink:title=" ">
<polygon fill="none" stroke="black" points="358.5,-168.5 358.5,-187.5 465.5,-187.5 465.5,-168.5 358.5,-168.5"/>
<text text-anchor="middle" x="412" y="-175.5" font-family="Helvetica,sans-Serif" font-size="10.00">AddressSanitizer.h</text>
</a>
</g>
</g>
<!-- Node13&#45;&gt;Node14 -->
<g id="edge13" class="edge">
<title>Node13&#45;&gt;Node14</title>
<path fill="none" stroke="midnightblue" d="M427.03,-224.08C424.62,-216.85 421.14,-206.41 418.13,-197.4"/>
<polygon fill="midnightblue" stroke="midnightblue" points="421.4,-196.13 414.92,-187.75 414.76,-198.34 421.4,-196.13"/>
</g>
<!-- Node16 -->
<g id="node16" class="node">
<title>Node16</title>
<g id="a_node16"><a xlink:href="../../d3/de6/_memory_8h.html" target="_top" xlink:title=" ">
<polygon fill="none" stroke="black" points="484,-168.5 484,-187.5 594,-187.5 594,-168.5 484,-168.5"/>
<text text-anchor="middle" x="539" y="-175.5" font-family="Helvetica,sans-Serif" font-size="10.00">common/Memory.h</text>
</a>
</g>
</g>
<!-- Node13&#45;&gt;Node16 -->
<g id="edge16" class="edge">
<title>Node13&#45;&gt;Node16</title>
<path fill="none" stroke="midnightblue" d="M447.51,-224.32C465.07,-215.62 492.33,-202.12 512.53,-192.11"/>
<polygon fill="midnightblue" stroke="midnightblue" points="514.12,-195.23 521.53,-187.65 511.02,-188.96 514.12,-195.23"/>
</g>
<!-- Node13&#45;&gt;Node18 -->
<g id="edge21" class="edge">
<title>Node13&#45;&gt;Node18</title>
<path fill="none" stroke="midnightblue" d="M463.01,-230.93C525.28,-226.55 664.07,-214.47 778,-188 836.16,-174.49 901.56,-150.15 938.76,-135.39"/>
<polygon fill="midnightblue" stroke="midnightblue" points="940.5,-138.47 948.48,-131.5 937.9,-131.97 940.5,-138.47"/>
</g>
<!-- Node13&#45;&gt;Node19 -->
<g id="edge25" class="edge">
<title>Node13&#45;&gt;Node19</title>
<path fill="none" stroke="midnightblue" d="M463.1,-226.86C512.24,-217.74 605.14,-200.5 664.99,-189.39"/>
<polygon fill="midnightblue" stroke="midnightblue" points="665.84,-192.8 675.03,-187.53 664.56,-185.91 665.84,-192.8"/>
</g>
<!-- Node25 -->
<g id="node25" class="node">
<title>Node25</title>
<g id="a_node25"><a xlink:title=" ">
<polygon fill="none" stroke="#bfbfbf" points="142,-168.5 142,-187.5 200,-187.5 200,-168.5 142,-168.5"/>
<text text-anchor="middle" x="171" y="-175.5" font-family="Helvetica,sans-Serif" font-size="10.00">memory</text>
</a>
</g>
</g>
<!-- Node13&#45;&gt;Node25 -->
<g id="edge36" class="edge">
<title>Node13&#45;&gt;Node25</title>
<path fill="none" stroke="midnightblue" d="M396.98,-226.62C355.66,-218.55 282.49,-204.03 210.21,-188.21"/>
<polygon fill="midnightblue" stroke="midnightblue" points="210.54,-184.7 200.02,-185.97 209.04,-191.54 210.54,-184.7"/>
</g>
<!-- Node26 -->
<g id="node26" class="node">
<title>Node26</title>
<g id="a_node26"><a xlink:title=" ">
<polygon fill="none" stroke="#bfbfbf" points="218.5,-168.5 218.5,-187.5 263.5,-187.5 263.5,-168.5 218.5,-168.5"/>
<text text-anchor="middle" x="241" y="-175.5" font-family="Helvetica,sans-Serif" font-size="10.00">utility</text>
</a>
</g>
</g>
<!-- Node13&#45;&gt;Node26 -->
<g id="edge37" class="edge">
<title>Node13&#45;&gt;Node26</title>
<path fill="none" stroke="midnightblue" d="M400.05,-224.44C365.57,-214.59 309.12,-198.46 273.57,-188.3"/>
<polygon fill="midnightblue" stroke="midnightblue" points="274.27,-184.86 263.69,-185.48 272.34,-191.6 274.27,-184.86"/>
</g>
<!-- Node15 -->
<g id="node15" class="node">
<title>Node15</title>
<g id="a_node15"><a xlink:title=" ">
<polygon fill="none" stroke="#bfbfbf" points="358.5,-112.5 358.5,-131.5 411.5,-131.5 411.5,-112.5 358.5,-112.5"/>
<text text-anchor="middle" x="385" y="-119.5" font-family="Helvetica,sans-Serif" font-size="10.00">cstddef</text>
</a>
</g>
</g>
<!-- Node14&#45;&gt;Node15 -->
<g id="edge14" class="edge">
<title>Node14&#45;&gt;Node15</title>
<path fill="none" stroke="midnightblue" d="M407.54,-168.08C403.85,-160.69 398.48,-149.95 393.91,-140.81"/>
<polygon fill="midnightblue" stroke="midnightblue" points="396.98,-139.13 389.38,-131.75 390.72,-142.26 396.98,-139.13"/>
</g>
<!-- Node16&#45;&gt;Node3 -->
<g id="edge18" class="edge">
<title>Node16&#45;&gt;Node3</title>
<path fill="none" stroke="midnightblue" d="M530.53,-168.37C512.39,-149.89 469.58,-106.29 446.46,-82.74"/>
<polygon fill="midnightblue" stroke="midnightblue" points="448.94,-80.28 439.44,-75.59 443.94,-85.18 448.94,-80.28"/>
</g>
<!-- Node16&#45;&gt;Node7 -->
<g id="edge20" class="edge">
<title>Node16&#45;&gt;Node7</title>
<path fill="none" stroke="midnightblue" d="M525.26,-168.33C503.68,-154.96 460.24,-129.09 421,-112 325.4,-70.37 206.81,-35.96 148.99,-20.22"/>
<polygon fill="midnightblue" stroke="midnightblue" points="149.82,-16.82 139.25,-17.59 148,-23.58 149.82,-16.82"/>
</g>
<!-- Node16&#45;&gt;Node15 -->
<g id="edge19" class="edge">
<title>Node16&#45;&gt;Node15</title>
<path fill="none" stroke="midnightblue" d="M514.6,-168.44C488.8,-159.4 447.92,-145.06 418.98,-134.92"/>
<polygon fill="midnightblue" stroke="midnightblue" points="419.88,-131.52 409.29,-131.52 417.57,-138.13 419.88,-131.52"/>
</g>
<!-- Node17 -->
<g id="node17" class="node">
<title>Node17</title>
<g id="a_node17"><a xlink:title=" ">
<polygon fill="none" stroke="#bfbfbf" points="507,-56.5 507,-75.5 609,-75.5 609,-56.5 507,-56.5"/>
<text text-anchor="middle" x="558" y="-63.5" font-family="Helvetica,sans-Serif" font-size="10.00">rawspeedconfig.h</text>
</a>
</g>
</g>
<!-- Node16&#45;&gt;Node17 -->
<g id="edge17" class="edge">
<title>Node16&#45;&gt;Node17</title>
<path fill="none" stroke="midnightblue" d="M540.49,-168.37C543.56,-150.62 550.63,-109.67 554.79,-85.6"/>
<polygon fill="midnightblue" stroke="midnightblue" points="558.26,-86.04 556.52,-75.59 551.36,-84.85 558.26,-86.04"/>
</g>
<!-- Node18&#45;&gt;Node5 -->
<g id="edge22" class="edge">
<title>Node18&#45;&gt;Node5</title>
<path fill="none" stroke="midnightblue" d="M971.71,-112.09C975.23,-98.64 979.63,-72.93 968,-56 951.1,-31.41 918.35,-20.25 892.62,-15.19"/>
<polygon fill="midnightblue" stroke="midnightblue" points="892.89,-11.69 882.44,-13.43 891.69,-18.58 892.89,-11.69"/>
</g>
<!-- Node18&#45;&gt;Node7 -->
<g id="edge23" class="edge">
<title>Node18&#45;&gt;Node7</title>
<path fill="none" stroke="midnightblue" d="M967.34,-112.41C964.05,-97.92 955.16,-68.92 935,-56 868.96,-13.68 308.27,-25.03 230,-20 202.91,-18.26 172.28,-15.86 149.31,-13.98"/>
<polygon fill="midnightblue" stroke="midnightblue" points="149.58,-10.49 139.33,-13.16 149.01,-17.47 149.58,-10.49"/>
</g>
<!-- Node18&#45;&gt;Node8 -->
<g id="edge24" class="edge">
<title>Node18&#45;&gt;Node8</title>
<path fill="none" stroke="midnightblue" d="M979.75,-112.37C1002.96,-93.73 1058.01,-49.53 1087.15,-26.13"/>
<polygon fill="midnightblue" stroke="midnightblue" points="1089.69,-28.58 1095.3,-19.59 1085.31,-23.12 1089.69,-28.58"/>
</g>
<!-- Node19&#45;&gt;Node17 -->
<g id="edge26" class="edge">
<title>Node19&#45;&gt;Node17</title>
<path fill="none" stroke="midnightblue" d="M706.76,-168.46C692.12,-159.59 668.73,-145.19 649,-132 624.04,-115.31 596.01,-95.05 577.75,-81.64"/>
<polygon fill="midnightblue" stroke="midnightblue" points="579.74,-78.76 569.62,-75.65 575.59,-84.4 579.74,-78.76"/>
</g>
<!-- Node20 -->
<g id="node20" class="node">
<title>Node20</title>
<g id="a_node20"><a xlink:href="../../d7/d05/_rawspeed_exception_8h.html" target="_top" xlink:title=" ">
<polygon fill="none" stroke="black" points="658,-112.5 658,-131.5 828,-131.5 828,-112.5 658,-112.5"/>
<text text-anchor="middle" x="743" y="-119.5" font-family="Helvetica,sans-Serif" font-size="10.00">common/RawspeedException.h</text>
</a>
</g>
</g>
<!-- Node19&#45;&gt;Node20 -->
<g id="edge27" class="edge">
<title>Node19&#45;&gt;Node20</title>
<path fill="none" stroke="midnightblue" d="M724.63,-168.08C727.61,-160.77 731.93,-150.18 735.62,-141.1"/>
<polygon fill="midnightblue" stroke="midnightblue" points="738.9,-142.33 739.43,-131.75 732.42,-139.69 738.9,-142.33"/>
</g>
<!-- Node20&#45;&gt;Node3 -->
<g id="edge29" class="edge">
<title>Node20&#45;&gt;Node3</title>
<path fill="none" stroke="midnightblue" d="M693.56,-112.44C638.34,-102.89 548.98,-87.42 490.11,-77.23"/>
<polygon fill="midnightblue" stroke="midnightblue" points="490.66,-73.77 480.21,-75.52 489.46,-80.67 490.66,-73.77"/>
</g>
<!-- Node20&#45;&gt;Node17 -->
<g id="edge28" class="edge">
<title>Node20&#45;&gt;Node17</title>
<path fill="none" stroke="midnightblue" d="M713.69,-112.44C682.16,-103.24 631.87,-88.56 597.01,-78.39"/>
<polygon fill="midnightblue" stroke="midnightblue" points="597.76,-74.96 587.18,-75.52 595.8,-81.68 597.76,-74.96"/>
</g>
<!-- Node20&#45;&gt;Node21 -->
<g id="edge30" class="edge">
<title>Node20&#45;&gt;Node21</title>
<path fill="none" stroke="midnightblue" d="M768.67,-112.44C797.21,-102.93 843.29,-87.57 873.86,-77.38"/>
<polygon fill="midnightblue" stroke="midnightblue" points="875.21,-80.62 883.59,-74.14 873,-73.98 875.21,-80.62"/>
</g>
<!-- Node22 -->
<g id="node22" class="node">
<title>Node22</title>
<g id="a_node22"><a xlink:title=" ">
<polygon fill="none" stroke="#bfbfbf" points="710.5,-56.5 710.5,-75.5 763.5,-75.5 763.5,-56.5 710.5,-56.5"/>
<text text-anchor="middle" x="737" y="-63.5" font-family="Helvetica,sans-Serif" font-size="10.00">cstdarg</text>
</a>
</g>
</g>
<!-- Node20&#45;&gt;Node22 -->
<g id="edge31" class="edge">
<title>Node20&#45;&gt;Node22</title>
<path fill="none" stroke="midnightblue" d="M742.01,-112.08C741.21,-104.93 740.07,-94.64 739.08,-85.69"/>
<polygon fill="midnightblue" stroke="midnightblue" points="742.56,-85.3 737.97,-75.75 735.6,-86.08 742.56,-85.3"/>
</g>
<!-- Node23 -->
<g id="node23" class="node">
<title>Node23</title>
<g id="a_node23"><a xlink:title=" ">
<polygon fill="none" stroke="#bfbfbf" points="782,-56.5 782,-75.5 828,-75.5 828,-56.5 782,-56.5"/>
<text text-anchor="middle" x="805" y="-63.5" font-family="Helvetica,sans-Serif" font-size="10.00">cstdio</text>
</a>
</g>
</g>
<!-- Node20&#45;&gt;Node23 -->
<g id="edge32" class="edge">
<title>Node20&#45;&gt;Node23</title>
<path fill="none" stroke="midnightblue" d="M752.96,-112.32C762.13,-104.34 775.94,-92.31 787.03,-82.65"/>
<polygon fill="midnightblue" stroke="midnightblue" points="789.62,-85.04 794.86,-75.83 785.02,-79.76 789.62,-85.04"/>
</g>
<!-- Node24 -->
<g id="node24" class="node">
<title>Node24</title>
<g id="a_node24"><a xlink:title=" ">
<polygon fill="none" stroke="#bfbfbf" points="627.5,-56.5 627.5,-75.5 692.5,-75.5 692.5,-56.5 627.5,-56.5"/>
<text text-anchor="middle" x="660" y="-63.5" font-family="Helvetica,sans-Serif" font-size="10.00">stdexcept</text>
</a>
</g>
</g>
<!-- Node20&#45;&gt;Node24 -->
<g id="edge33" class="edge">
<title>Node20&#45;&gt;Node24</title>
<path fill="none" stroke="midnightblue" d="M729.66,-112.32C716.84,-103.98 697.22,-91.21 682.06,-81.35"/>
<polygon fill="midnightblue" stroke="midnightblue" points="683.59,-78.17 673.3,-75.65 679.78,-84.04 683.59,-78.17"/>
</g>
<!-- Node27&#45;&gt;Node3 -->
<g id="edge40" class="edge">
<title>Node27&#45;&gt;Node3</title>
<path fill="none" stroke="midnightblue" d="M640.5,-280.46C627.21,-272.92 609.92,-260.53 602,-244 587.4,-213.54 619.78,-197.32 603,-168 575.45,-119.87 515.05,-92.43 473.69,-78.63"/>
<polygon fill="midnightblue" stroke="midnightblue" points="474.72,-75.29 464.13,-75.57 472.59,-81.95 474.72,-75.29"/>
</g>
<!-- Node27&#45;&gt;Node5 -->
<g id="edge44" class="edge">
<title>Node27&#45;&gt;Node5</title>
<path fill="none" stroke="midnightblue" d="M674.16,-280.41C710.49,-260.12 798.46,-205.37 837,-132 854.24,-99.17 856.81,-54.92 856.7,-30.04"/>
<polygon fill="midnightblue" stroke="midnightblue" points="860.19,-29.73 856.49,-19.8 853.19,-29.87 860.19,-29.73"/>
</g>
<!-- Node27&#45;&gt;Node7 -->
<g id="edge45" class="edge">
<title>Node27&#45;&gt;Node7</title>
<path fill="none" stroke="midnightblue" d="M610.37,-285.03C471.37,-272.8 76,-233.24 76,-179 76,-179 76,-179 76,-121 76,-86.81 92.6,-49.76 103.86,-28.57"/>
<polygon fill="midnightblue" stroke="midnightblue" points="106.95,-30.22 108.72,-19.77 100.82,-26.83 106.95,-30.22"/>
</g>
<!-- Node27&#45;&gt;Node8 -->
<g id="edge46" class="edge">
<title>Node27&#45;&gt;Node8</title>
<path fill="none" stroke="midnightblue" d="M695.87,-280.47C766.96,-262.91 922.46,-217.07 1025,-132 1060.05,-102.92 1085.89,-54.83 1098.12,-28.9"/>
<polygon fill="midnightblue" stroke="midnightblue" points="1101.42,-30.1 1102.39,-19.55 1095.05,-27.2 1101.42,-30.1"/>
</g>
<!-- Node27&#45;&gt;Node13 -->
<g id="edge42" class="edge">
<title>Node27&#45;&gt;Node13</title>
<path fill="none" stroke="midnightblue" d="M621.87,-280.44C581.54,-270.89 516.28,-255.43 473.26,-245.24"/>
<polygon fill="midnightblue" stroke="midnightblue" points="473.9,-241.8 463.36,-242.9 472.29,-248.61 473.9,-241.8"/>
</g>
<!-- Node27&#45;&gt;Node14 -->
<g id="edge39" class="edge">
<title>Node27&#45;&gt;Node14</title>
<path fill="none" stroke="midnightblue" d="M638.7,-280.37C595.58,-261.09 491.29,-214.45 440.6,-191.79"/>
<polygon fill="midnightblue" stroke="midnightblue" points="441.77,-188.48 431.21,-187.59 438.91,-194.87 441.77,-188.48"/>
</g>
<!-- Node27&#45;&gt;Node16 -->
<g id="edge41" class="edge">
<title>Node27&#45;&gt;Node16</title>
<path fill="none" stroke="midnightblue" d="M662.19,-280.08C667.82,-266.61 675.86,-240.87 664,-224 650.13,-204.27 626.74,-193.15 603.92,-186.9"/>
<polygon fill="midnightblue" stroke="midnightblue" points="604.75,-183.5 594.2,-184.5 603.07,-190.29 604.75,-183.5"/>
</g>
<!-- Node27&#45;&gt;Node19 -->
<g id="edge43" class="edge">
<title>Node27&#45;&gt;Node19</title>
<path fill="none" stroke="midnightblue" d="M667.12,-280.45C675.78,-271.91 688.69,-258.06 697,-244 705.61,-229.44 712,-211.26 716.02,-197.83"/>
<polygon fill="midnightblue" stroke="midnightblue" points="719.48,-198.43 718.82,-187.86 712.75,-196.53 719.48,-198.43"/>
</g>
<!-- Node28 -->
<g id="node28" class="node">
<title>Node28</title>
<g id="a_node28"><a xlink:title=" ">
<polygon fill="none" stroke="#bfbfbf" points="611,-224.5 611,-243.5 655,-243.5 655,-224.5 611,-224.5"/>
<text text-anchor="middle" x="633" y="-231.5" font-family="Helvetica,sans-Serif" font-size="10.00">limits</text>
</a>
</g>
</g>
<!-- Node27&#45;&gt;Node28 -->
<g id="edge47" class="edge">
<title>Node27&#45;&gt;Node28</title>
<path fill="none" stroke="midnightblue" d="M653.87,-280.08C650.49,-272.77 645.58,-262.18 641.38,-253.1"/>
<polygon fill="midnightblue" stroke="midnightblue" points="644.43,-251.36 637.05,-243.75 638.08,-254.3 644.43,-251.36"/>
</g>
</g>
</svg>
