<?xml version="1.0" encoding="UTF-8" standalone="no"?>
<!DOCTYPE svg PUBLIC "-//W3C//DTD SVG 1.1//EN"
 "http://www.w3.org/Graphics/SVG/1.1/DTD/svg11.dtd">
<!-- Generated by graphviz version 2.43.0 (0)
 -->
<!-- Title: rawspeed::DngSliceElement Pages: 1 -->
<!--zoomable 397 -->
<svg id="main" version="1.1" xmlns="http://www.w3.org/2000/svg" xmlns:xlink="http://www.w3.org/1999/xlink" xml:space="preserve" onload="init(evt)">
<style type="text/css"><![CDATA[
.edge:hover path { stroke: red; }
.edge:hover polygon { stroke: red; fill: red; }
]]></style>
<script type="text/javascript"><![CDATA[
var edges = document.getElementsByTagName('g');
if (edges && edges.length) {
  for (var i=0;i<edges.length;i++) {
    if (edges[i].id.substr(0,4)=='edge') {
      edges[i].setAttribute('class','edge');
    }
  }
}
]]></script>
        <defs>
                <circle id="rim" cx="0" cy="0" r="7"/>
                <circle id="rim2" cx="0" cy="0" r="3.5"/>
                <g id="zoomPlus">
                        <use xlink:href="#rim" fill="#404040">
                                <set attributeName="fill" to="#808080" begin="zoomplus.mouseover" end="zoomplus.mouseout"/>
                        </use>
                        <path d="M-4,0h8M0,-4v8" fill="none" stroke="white" stroke-width="1.5" pointer-events="none"/>
                </g>
                <g id="zoomMin">
                        <use xlink:href="#rim" fill="#404040">
                                <set attributeName="fill" to="#808080" begin="zoomminus.mouseover" end="zoomminus.mouseout"/>
                        </use>
                        <path d="M-4,0h8" fill="none" stroke="white" stroke-width="1.5" pointer-events="none"/>
                </g>
                <g id="dirArrow">
                        <path fill="none" stroke="white" stroke-width="1.5" d="M0,-3.0v7 M-2.5,-0.5L0,-3.0L2.5,-0.5"/>
                </g>
               <g id="resetDef">
                       <use xlink:href="#rim2" fill="#404040">
                               <set attributeName="fill" to="#808080" begin="reset.mouseover" end="reset.mouseout"/>
                       </use>
               </g>
        </defs>

<script type="text/javascript">
var viewWidth = 574;
var viewHeight = 397;
var sectionId = 'dynsection-0';
</script>
<script xlink:href="../../svgpan.js"/>
<svg id="graph" class="graph">
<g id="viewport">
<title>rawspeed::DngSliceElement</title>
<!-- Node1 -->
<g id="node1" class="node">
<title>Node1</title>
<g id="a_node1"><a xlink:title=" ">
<polygon fill="#bfbfbf" stroke="black" points="74,-0.5 74,-19.5 227,-19.5 227,-0.5 74,-0.5"/>
<text text-anchor="middle" x="150.5" y="-7.5" font-family="Helvetica,sans-Serif" font-size="10.00">rawspeed::DngSliceElement</text>
</a>
</g>
</g>
<!-- Node2 -->
<g id="node2" class="node">
<title>Node2</title>
<g id="a_node2"><a xlink:title=" ">
<polygon fill="none" stroke="#bfbfbf" points="0,-107 0,-126 67,-126 67,-107 0,-107"/>
<text text-anchor="middle" x="33.5" y="-114" font-family="Helvetica,sans-Serif" font-size="10.00">const bool</text>
</a>
</g>
</g>
<!-- Node2&#45;&gt;Node1 -->
<g id="edge1" class="edge">
<title>Node2&#45;&gt;Node1</title>
<path fill="none" stroke="#9a32cd" stroke-dasharray="5,2" d="M27.87,-96.97C23.87,-79.78 21.28,-54.43 34.5,-38 41.18,-29.7 61.26,-23.71 82.88,-19.51"/>
<polygon fill="#9a32cd" stroke="#9a32cd" points="24.57,-98.17 30.54,-106.92 31.33,-96.36 24.57,-98.17"/>
<text text-anchor="middle" x="64" y="-52" font-family="Helvetica,sans-Serif" font-size="10.00"> lastColumn</text>
<text text-anchor="middle" x="64" y="-41" font-family="Helvetica,sans-Serif" font-size="10.00">lastRow</text>
</g>
<!-- Node3 -->
<g id="node3" class="node">
<title>Node3</title>
<g id="a_node3"><a xlink:title=" ">
<polygon fill="none" stroke="#bfbfbf" points="74.5,-202.5 74.5,-221.5 164.5,-221.5 164.5,-202.5 74.5,-202.5"/>
<text text-anchor="middle" x="119.5" y="-209.5" font-family="Helvetica,sans-Serif" font-size="10.00">const unsigned</text>
</a>
</g>
</g>
<!-- Node3&#45;&gt;Node1 -->
<g id="edge2" class="edge">
<title>Node3&#45;&gt;Node1</title>
<path fill="none" stroke="#9a32cd" stroke-dasharray="5,2" d="M116.15,-192.49C112.1,-166.5 106.95,-117.92 116.5,-78 121.9,-55.42 136.23,-31.85 144.46,-19.58"/>
<polygon fill="#9a32cd" stroke="#9a32cd" points="112.71,-193.16 117.82,-202.44 119.62,-192 112.71,-193.16"/>
<text text-anchor="middle" x="135" y="-147" font-family="Helvetica,sans-Serif" font-size="10.00"> width</text>
<text text-anchor="middle" x="135" y="-136" font-family="Helvetica,sans-Serif" font-size="10.00">row</text>
<text text-anchor="middle" x="135" y="-125" font-family="Helvetica,sans-Serif" font-size="10.00">column</text>
<text text-anchor="middle" x="135" y="-114" font-family="Helvetica,sans-Serif" font-size="10.00">height</text>
<text text-anchor="middle" x="135" y="-103" font-family="Helvetica,sans-Serif" font-size="10.00">n</text>
<text text-anchor="middle" x="135" y="-92" font-family="Helvetica,sans-Serif" font-size="10.00">offX</text>
<text text-anchor="middle" x="135" y="-81" font-family="Helvetica,sans-Serif" font-size="10.00">offY</text>
</g>
<!-- Node4 -->
<g id="node4" class="node">
<title>Node4</title>
<g id="a_node4"><a xlink:href="../../dd/db7/structrawspeed_1_1_dng_tiling_description.html" target="_top" xlink:title=" ">
<polygon fill="none" stroke="black" points="162.5,-107 162.5,-126 334.5,-126 334.5,-107 162.5,-107"/>
<text text-anchor="middle" x="248.5" y="-114" font-family="Helvetica,sans-Serif" font-size="10.00">rawspeed::DngTilingDescription</text>
</a>
</g>
</g>
<!-- Node3&#45;&gt;Node4 -->
<g id="edge4" class="edge">
<title>Node3&#45;&gt;Node4</title>
<path fill="none" stroke="#9a32cd" stroke-dasharray="5,2" d="M127.27,-192.93C130.87,-186.08 135.65,-178.59 141.5,-173 164.96,-150.6 199.24,-134.98 222.63,-126.14"/>
<polygon fill="#9a32cd" stroke="#9a32cd" points="123.99,-191.68 122.87,-202.21 130.32,-194.67 123.99,-191.68"/>
<text text-anchor="middle" x="166" y="-176" font-family="Helvetica,sans-Serif" font-size="10.00"> numTiles</text>
</g>
<!-- Node4&#45;&gt;Node1 -->
<g id="edge3" class="edge">
<title>Node4&#45;&gt;Node1</title>
<path fill="none" stroke="#9a32cd" stroke-dasharray="5,2" d="M233.56,-99.57C212.58,-77.2 175.09,-37.22 158.63,-19.67"/>
<polygon fill="#9a32cd" stroke="#9a32cd" points="231.09,-102.05 240.48,-106.95 236.19,-97.26 231.09,-102.05"/>
<text text-anchor="middle" x="204.5" y="-46.5" font-family="Helvetica,sans-Serif" font-size="10.00"> dsc</text>
</g>
<!-- Node5 -->
<g id="node5" class="node">
<title>Node5</title>
<g id="a_node5"><a xlink:href="../../d3/d87/classuint32__t.html" target="_top" xlink:title=" ">
<polygon fill="none" stroke="black" points="224.5,-369.5 224.5,-388.5 280.5,-388.5 280.5,-369.5 224.5,-369.5"/>
<text text-anchor="middle" x="252.5" y="-376.5" font-family="Helvetica,sans-Serif" font-size="10.00">uint32_t</text>
</a>
</g>
</g>
<!-- Node5&#45;&gt;Node4 -->
<g id="edge5" class="edge">
<title>Node5&#45;&gt;Node4</title>
<path fill="none" stroke="#9a32cd" stroke-dasharray="5,2" d="M245.9,-359.46C235.31,-327.42 216.48,-259.57 224.5,-202 228.45,-173.6 239.54,-141.34 245.16,-126.21"/>
<polygon fill="#9a32cd" stroke="#9a32cd" points="242.69,-360.9 249.24,-369.23 249.32,-358.63 242.69,-360.9"/>
<text text-anchor="middle" x="242" y="-276" font-family="Helvetica,sans-Serif" font-size="10.00"> tileW</text>
<text text-anchor="middle" x="242" y="-265" font-family="Helvetica,sans-Serif" font-size="10.00">tileH</text>
<text text-anchor="middle" x="242" y="-254" font-family="Helvetica,sans-Serif" font-size="10.00">tilesX</text>
<text text-anchor="middle" x="242" y="-243" font-family="Helvetica,sans-Serif" font-size="10.00">tilesY</text>
</g>
<!-- Node10 -->
<g id="node10" class="node">
<title>Node10</title>
<g id="a_node10"><a xlink:href="../../d3/dca/classrawspeed_1_1_buffer.html" target="_top" xlink:title=" ">
<polygon fill="none" stroke="black" points="316,-302.5 316,-321.5 415,-321.5 415,-302.5 316,-302.5"/>
<text text-anchor="middle" x="365.5" y="-309.5" font-family="Helvetica,sans-Serif" font-size="10.00">rawspeed::Buffer</text>
</a>
</g>
</g>
<!-- Node5&#45;&gt;Node10 -->
<g id="edge11" class="edge">
<title>Node5&#45;&gt;Node10</title>
<path fill="none" stroke="#9a32cd" stroke-dasharray="5,2" d="M270.05,-362.98C279.31,-355.49 291.1,-346.64 302.5,-340 314.94,-332.75 329.7,-326.33 341.8,-321.56"/>
<polygon fill="#9a32cd" stroke="#9a32cd" points="267.8,-360.29 262.33,-369.37 272.26,-365.69 267.8,-360.29"/>
<text text-anchor="middle" x="314" y="-343" font-family="Helvetica,sans-Serif" font-size="10.00"> size</text>
</g>
<!-- Node6 -->
<g id="node6" class="node">
<title>Node6</title>
<g id="a_node6"><a xlink:href="../../d8/d75/classrawspeed_1_1i_point2_d.html" target="_top" xlink:title=" ">
<polygon fill="none" stroke="black" points="233,-202.5 233,-221.5 344,-221.5 344,-202.5 233,-202.5"/>
<text text-anchor="middle" x="288.5" y="-209.5" font-family="Helvetica,sans-Serif" font-size="10.00">rawspeed::iPoint2D</text>
</a>
</g>
</g>
<!-- Node6&#45;&gt;Node4 -->
<g id="edge6" class="edge">
<title>Node6&#45;&gt;Node4</title>
<path fill="none" stroke="#9a32cd" stroke-dasharray="5,2" d="M280.83,-193.08C272.24,-172.99 258.67,-141.26 252.18,-126.11"/>
<polygon fill="#9a32cd" stroke="#9a32cd" points="277.66,-194.55 284.81,-202.37 284.09,-191.8 277.66,-194.55"/>
<text text-anchor="middle" x="287.5" y="-176" font-family="Helvetica,sans-Serif" font-size="10.00"> dim</text>
</g>
<!-- Node7 -->
<g id="node7" class="node">
<title>Node7</title>
<g id="a_node7"><a xlink:href="../../de/d73/classint32__t.html" target="_top" xlink:title=" ">
<polygon fill="none" stroke="black" points="247.5,-302.5 247.5,-321.5 297.5,-321.5 297.5,-302.5 247.5,-302.5"/>
<text text-anchor="middle" x="272.5" y="-309.5" font-family="Helvetica,sans-Serif" font-size="10.00">int32_t</text>
</a>
</g>
</g>
<!-- Node7&#45;&gt;Node6 -->
<g id="edge7" class="edge">
<title>Node7&#45;&gt;Node6</title>
<path fill="none" stroke="#9a32cd" stroke-dasharray="5,2" d="M275.57,-292.22C279.04,-270.95 284.55,-237.22 287.11,-221.54"/>
<polygon fill="#9a32cd" stroke="#9a32cd" points="272.08,-291.87 273.92,-302.3 278.99,-293 272.08,-291.87"/>
<text text-anchor="middle" x="288.5" y="-265" font-family="Helvetica,sans-Serif" font-size="10.00"> x</text>
<text text-anchor="middle" x="288.5" y="-254" font-family="Helvetica,sans-Serif" font-size="10.00">y</text>
</g>
<!-- Node8 -->
<g id="node8" class="node">
<title>Node8</title>
<g id="a_node8"><a xlink:href="../../dd/da0/classrawspeed_1_1_byte_stream.html" target="_top" xlink:title=" ">
<polygon fill="none" stroke="black" points="359.5,-107 359.5,-126 487.5,-126 487.5,-107 359.5,-107"/>
<text text-anchor="middle" x="423.5" y="-114" font-family="Helvetica,sans-Serif" font-size="10.00">rawspeed::ByteStream</text>
</a>
</g>
</g>
<!-- Node8&#45;&gt;Node1 -->
<g id="edge8" class="edge">
<title>Node8&#45;&gt;Node1</title>
<path fill="none" stroke="#9a32cd" stroke-dasharray="5,2" d="M397.57,-102.51C382.06,-94.95 361.86,-85.46 343.5,-78 285.51,-54.42 215.74,-31.5 178,-19.55"/>
<polygon fill="#9a32cd" stroke="#9a32cd" points="396.04,-105.66 406.56,-106.93 399.13,-99.38 396.04,-105.66"/>
<text text-anchor="middle" x="303" y="-46.5" font-family="Helvetica,sans-Serif" font-size="10.00"> bs</text>
</g>
<!-- Node9 -->
<g id="node9" class="node">
<title>Node9</title>
<g id="a_node9"><a xlink:href="../../d1/dd4/classrawspeed_1_1_data_buffer.html" target="_top" xlink:title=" ">
<polygon fill="none" stroke="black" points="362.5,-202.5 362.5,-221.5 484.5,-221.5 484.5,-202.5 362.5,-202.5"/>
<text text-anchor="middle" x="423.5" y="-209.5" font-family="Helvetica,sans-Serif" font-size="10.00">rawspeed::DataBuffer</text>
</a>
</g>
</g>
<!-- Node9&#45;&gt;Node8 -->
<g id="edge9" class="edge">
<title>Node9&#45;&gt;Node8</title>
<path fill="none" stroke="midnightblue" d="M423.5,-192.24C423.5,-172.12 423.5,-141.05 423.5,-126.11"/>
<polygon fill="midnightblue" stroke="midnightblue" points="420,-192.37 423.5,-202.37 427,-192.37 420,-192.37"/>
</g>
<!-- Node10&#45;&gt;Node9 -->
<g id="edge10" class="edge">
<title>Node10&#45;&gt;Node9</title>
<path fill="none" stroke="midnightblue" d="M375.76,-293.67C388.28,-272.52 408.95,-237.58 418.45,-221.54"/>
<polygon fill="midnightblue" stroke="midnightblue" points="372.73,-291.91 370.65,-302.3 378.75,-295.48 372.73,-291.91"/>
</g>
<!-- Node11 -->
<g id="node11" class="node">
<title>Node11</title>
<g id="a_node11"><a xlink:title=" ">
<polygon fill="none" stroke="#bfbfbf" points="313.5,-369.5 313.5,-388.5 351.5,-388.5 351.5,-369.5 313.5,-369.5"/>
<text text-anchor="middle" x="332.5" y="-376.5" font-family="Helvetica,sans-Serif" font-size="10.00">bool</text>
</a>
</g>
</g>
<!-- Node11&#45;&gt;Node10 -->
<g id="edge12" class="edge">
<title>Node11&#45;&gt;Node10</title>
<path fill="none" stroke="#9a32cd" stroke-dasharray="5,2" d="M329.97,-359.01C329.9,-352.69 330.71,-345.8 333.5,-340 337.15,-332.4 344.07,-326.14 350.53,-321.57"/>
<polygon fill="#9a32cd" stroke="#9a32cd" points="326.51,-359.69 330.8,-369.38 333.49,-359.14 326.51,-359.69"/>
<text text-anchor="middle" x="355" y="-343" font-family="Helvetica,sans-Serif" font-size="10.00"> isOwner</text>
</g>
<!-- Node12 -->
<g id="node12" class="node">
<title>Node12</title>
<g id="a_node12"><a xlink:title=" ">
<polygon fill="none" stroke="#bfbfbf" points="373.5,-369.5 373.5,-388.5 423.5,-388.5 423.5,-369.5 373.5,-369.5"/>
<text text-anchor="middle" x="398.5" y="-376.5" font-family="Helvetica,sans-Serif" font-size="10.00">uint8_t</text>
</a>
</g>
</g>
<!-- Node12&#45;&gt;Node10 -->
<g id="edge13" class="edge">
<title>Node12&#45;&gt;Node10</title>
<path fill="none" stroke="#9a32cd" stroke-dasharray="5,2" d="M389.44,-360.16C383.08,-347.63 374.85,-331.41 369.88,-321.63"/>
<polygon fill="#9a32cd" stroke="#9a32cd" points="386.4,-361.9 394.05,-369.23 392.64,-358.73 386.4,-361.9"/>
<text text-anchor="middle" x="396" y="-343" font-family="Helvetica,sans-Serif" font-size="10.00"> data</text>
</g>
<!-- Node13 -->
<g id="node13" class="node">
<title>Node13</title>
<g id="a_node13"><a xlink:title=" ">
<polygon fill="none" stroke="#bfbfbf" points="433.5,-302.5 433.5,-321.5 505.5,-321.5 505.5,-302.5 433.5,-302.5"/>
<text text-anchor="middle" x="469.5" y="-309.5" font-family="Helvetica,sans-Serif" font-size="10.00">Endianness</text>
</a>
</g>
</g>
<!-- Node13&#45;&gt;Node9 -->
<g id="edge14" class="edge">
<title>Node13&#45;&gt;Node9</title>
<path fill="none" stroke="#9a32cd" stroke-dasharray="5,2" d="M461.1,-293.1C451.14,-271.89 434.97,-237.44 427.51,-221.54"/>
<polygon fill="#9a32cd" stroke="#9a32cd" points="458,-294.74 465.42,-302.3 464.34,-291.76 458,-294.74"/>
<text text-anchor="middle" x="485" y="-259.5" font-family="Helvetica,sans-Serif" font-size="10.00"> endianness</text>
</g>
<!-- Node14 -->
<g id="node14" class="node">
<title>Node14</title>
<g id="a_node14"><a xlink:title=" ">
<polygon fill="none" stroke="#bfbfbf" points="503,-202.5 503,-221.5 566,-221.5 566,-202.5 503,-202.5"/>
<text text-anchor="middle" x="534.5" y="-209.5" font-family="Helvetica,sans-Serif" font-size="10.00">size_type</text>
</a>
</g>
</g>
<!-- Node14&#45;&gt;Node8 -->
<g id="edge15" class="edge">
<title>Node14&#45;&gt;Node8</title>
<path fill="none" stroke="#9a32cd" stroke-dasharray="5,2" d="M516.42,-195.77C492.88,-175.94 452.53,-141.96 433.72,-126.11"/>
<polygon fill="#9a32cd" stroke="#9a32cd" points="514.35,-198.61 524.26,-202.37 518.86,-193.25 514.35,-198.61"/>
<text text-anchor="middle" x="512" y="-176" font-family="Helvetica,sans-Serif" font-size="10.00"> pos</text>
</g>
</g>
</svg>
        <g id="navigator" transform="translate(0 0)" fill="#404254">
                <rect fill="#f2f5e9" fill-opacity="0.5" stroke="#606060" stroke-width=".5" x="0" y="0" width="60" height="60"/>
                <use id="zoomplus" xlink:href="#zoomPlus" x="17" y="9" onmousedown="handleZoom(evt,'in')"/>
                <use id="zoomminus" xlink:href="#zoomMin" x="42" y="9" onmousedown="handleZoom(evt,'out')"/>
                <use id="reset" xlink:href="#resetDef" x="30" y="36" onmousedown="handleReset()"/>
                <g id="arrowUp" xlink:href="#dirArrow" transform="translate(30 24)" onmousedown="handlePan(0,-1)">
                  <use xlink:href="#rim" fill="#404040">
                        <set attributeName="fill" to="#808080" begin="arrowUp.mouseover" end="arrowUp.mouseout"/>
                  </use>
                  <path fill="none" stroke="white" stroke-width="1.5" d="M0,-3.0v7 M-2.5,-0.5L0,-3.0L2.5,-0.5"/>
                </g>
                <g id="arrowRight" xlink:href="#dirArrow" transform="rotate(90) translate(36 -43)" onmousedown="handlePan(1,0)">
                  <use xlink:href="#rim" fill="#404040">
                        <set attributeName="fill" to="#808080" begin="arrowRight.mouseover" end="arrowRight.mouseout"/>
                  </use>
                  <path fill="none" stroke="white" stroke-width="1.5" d="M0,-3.0v7 M-2.5,-0.5L0,-3.0L2.5,-0.5"/>
                </g>
                <g id="arrowDown" xlink:href="#dirArrow" transform="rotate(180) translate(-30 -48)" onmousedown="handlePan(0,1)">
                  <use xlink:href="#rim" fill="#404040">
                        <set attributeName="fill" to="#808080" begin="arrowDown.mouseover" end="arrowDown.mouseout"/>
                  </use>
                  <path fill="none" stroke="white" stroke-width="1.5" d="M0,-3.0v7 M-2.5,-0.5L0,-3.0L2.5,-0.5"/>
                </g>
                <g id="arrowLeft" xlink:href="#dirArrow" transform="rotate(270) translate(-36 17)" onmousedown="handlePan(-1,0)">
                  <use xlink:href="#rim" fill="#404040">
                        <set attributeName="fill" to="#808080" begin="arrowLeft.mouseover" end="arrowLeft.mouseout"/>
                  </use>
                  <path fill="none" stroke="white" stroke-width="1.5" d="M0,-3.0v7 M-2.5,-0.5L0,-3.0L2.5,-0.5"/>
                </g>
        </g>
        <svg viewBox="0 0 15 15" width="100%" height="30px" preserveAspectRatio="xMaxYMin meet">
         <g id="arrow_out" transform="scale(0.3 0.3)">
          <a xlink:href="structrawspeed_1_1_dng_slice_element__coll__graph_org.svg" target="_base">
           <rect id="button" ry="5" rx="5" y="6" x="6" height="38" width="38"
                fill="#f2f5e9" fill-opacity="0.5" stroke="#606060" stroke-width="1.0"/>
           <path id="arrow"
             d="M 11.500037,31.436501 C 11.940474,20.09759 22.043105,11.32322 32.158766,21.979434 L 37.068811,17.246167 C 37.068811,17.246167 37.088388,32 37.088388,32 L 22.160133,31.978069 C 22.160133,31.978069 26.997745,27.140456 26.997745,27.140456 C 18.528582,18.264221 13.291696,25.230495 11.500037,31.436501 z"
             style="fill:#404040;"/>
          </a>
         </g>
        </svg>
</svg>
