<?xml version="1.0" encoding="UTF-8" standalone="no"?>
<!DOCTYPE svg PUBLIC "-//W3C//DTD SVG 1.1//EN"
 "http://www.w3.org/Graphics/SVG/1.1/DTD/svg11.dtd">
<!-- Generated by graphviz version 2.43.0 (0)
 -->
<!-- Title: rawspeed::DngSliceElement Pages: 1 -->
<!--zoomable 395 -->
<svg id="main" version="1.1" xmlns="http://www.w3.org/2000/svg" xmlns:xlink="http://www.w3.org/1999/xlink" xml:space="preserve" onload="init(evt)">
<style type="text/css"><![CDATA[
.edge:hover path { stroke: red; }
.edge:hover polygon { stroke: red; fill: red; }
]]></style>
<script type="text/javascript"><![CDATA[
var edges = document.getElementsByTagName('g');
if (edges && edges.length) {
  for (var i=0;i<edges.length;i++) {
    if (edges[i].id.substr(0,4)=='edge') {
      edges[i].setAttribute('class','edge');
    }
  }
}
]]></script>
        <defs>
                <circle id="rim" cx="0" cy="0" r="7"/>
                <circle id="rim2" cx="0" cy="0" r="3.5"/>
                <g id="zoomPlus">
                        <use xlink:href="#rim" fill="#404040">
                                <set attributeName="fill" to="#808080" begin="zoomplus.mouseover" end="zoomplus.mouseout"/>
                        </use>
                        <path d="M-4,0h8M0,-4v8" fill="none" stroke="white" stroke-width="1.5" pointer-events="none"/>
                </g>
                <g id="zoomMin">
                        <use xlink:href="#rim" fill="#404040">
                                <set attributeName="fill" to="#808080" begin="zoomminus.mouseover" end="zoomminus.mouseout"/>
                        </use>
                        <path d="M-4,0h8" fill="none" stroke="white" stroke-width="1.5" pointer-events="none"/>
                </g>
                <g id="dirArrow">
                        <path fill="none" stroke="white" stroke-width="1.5" d="M0,-3.0v7 M-2.5,-0.5L0,-3.0L2.5,-0.5"/>
                </g>
               <g id="resetDef">
                       <use xlink:href="#rim2" fill="#404040">
                               <set attributeName="fill" to="#808080" begin="reset.mouseover" end="reset.mouseout"/>
                       </use>
               </g>
        </defs>

<script type="text/javascript">
var viewWidth = 573;
var viewHeight = 395;
var sectionId = 'dynsection-0';
</script>
<script xlink:href="../../svgpan.js"/>
<svg id="graph" class="graph">
<g id="viewport">
<title>rawspeed::DngSliceElement</title>
<!-- Node1 -->
<g id="node1" class="node">
<title>Node1</title>
<g id="a_node1"><a xlink:title=" ">
<polygon fill="#bfbfbf" stroke="black" points="100,-0.5 100,-19.5 253,-19.5 253,-0.5 100,-0.5"/>
<text text-anchor="middle" x="176.5" y="-7.5" font-family="Helvetica,sans-Serif" font-size="10.00">rawspeed::DngSliceElement</text>
</a>
</g>
</g>
<!-- Node2 -->
<g id="node2" class="node">
<title>Node2</title>
<g id="a_node2"><a xlink:title=" ">
<polygon fill="none" stroke="#bfbfbf" points="0,-133.5 0,-152.5 67,-152.5 67,-133.5 0,-133.5"/>
<text text-anchor="middle" x="33.5" y="-140.5" font-family="Helvetica,sans-Serif" font-size="10.00">const bool</text>
</a>
</g>
</g>
<!-- Node2&#45;&gt;Node1 -->
<g id="edge1" class="edge">
<title>Node2&#45;&gt;Node1</title>
<path fill="none" stroke="#9a32cd" stroke-dasharray="5,2" d="M36.14,-123.22C40.44,-99.85 51.15,-60.28 76.5,-38 86.22,-29.45 98.39,-23.57 110.85,-19.54"/>
<polygon fill="#9a32cd" stroke="#9a32cd" points="32.66,-122.82 34.52,-133.25 39.57,-123.94 32.66,-122.82"/>
<text text-anchor="middle" x="106" y="-79.5" font-family="Helvetica,sans-Serif" font-size="10.00"> lastColumn</text>
<text text-anchor="middle" x="106" y="-68.5" font-family="Helvetica,sans-Serif" font-size="10.00">lastRow</text>
</g>
<!-- Node3 -->
<g id="node3" class="node">
<title>Node3</title>
<g id="a_node3"><a xlink:title=" ">
<polygon fill="none" stroke="#bfbfbf" points="85.5,-133.5 85.5,-152.5 175.5,-152.5 175.5,-133.5 85.5,-133.5"/>
<text text-anchor="middle" x="130.5" y="-140.5" font-family="Helvetica,sans-Serif" font-size="10.00">const unsigned</text>
</a>
</g>
</g>
<!-- Node3&#45;&gt;Node1 -->
<g id="edge2" class="edge">
<title>Node3&#45;&gt;Node1</title>
<path fill="none" stroke="#9a32cd" stroke-dasharray="5,2" d="M135.94,-123.44C142.23,-102.48 153.17,-67.46 164.5,-38 166.86,-31.87 169.86,-25.12 172.27,-19.9"/>
<polygon fill="#9a32cd" stroke="#9a32cd" points="132.51,-122.68 133.03,-133.27 139.23,-124.67 132.51,-122.68"/>
<text text-anchor="middle" x="183" y="-107" font-family="Helvetica,sans-Serif" font-size="10.00"> width</text>
<text text-anchor="middle" x="183" y="-96" font-family="Helvetica,sans-Serif" font-size="10.00">row</text>
<text text-anchor="middle" x="183" y="-85" font-family="Helvetica,sans-Serif" font-size="10.00">column</text>
<text text-anchor="middle" x="183" y="-74" font-family="Helvetica,sans-Serif" font-size="10.00">height</text>
<text text-anchor="middle" x="183" y="-63" font-family="Helvetica,sans-Serif" font-size="10.00">n</text>
<text text-anchor="middle" x="183" y="-52" font-family="Helvetica,sans-Serif" font-size="10.00">offX</text>
<text text-anchor="middle" x="183" y="-41" font-family="Helvetica,sans-Serif" font-size="10.00">offY</text>
</g>
<!-- Node4 -->
<g id="node4" class="node">
<title>Node4</title>
<g id="a_node4"><a xlink:href="../../dd/db7/structrawspeed_1_1_dng_tiling_description.html" target="_top" xlink:title=" ">
<polygon fill="none" stroke="black" points="339.5,-133.5 339.5,-152.5 511.5,-152.5 511.5,-133.5 339.5,-133.5"/>
<text text-anchor="middle" x="425.5" y="-140.5" font-family="Helvetica,sans-Serif" font-size="10.00">rawspeed::DngTilingDescription</text>
</a>
</g>
</g>
<!-- Node4&#45;&gt;Node1 -->
<g id="edge3" class="edge">
<title>Node4&#45;&gt;Node1</title>
<path fill="none" stroke="#9a32cd" stroke-dasharray="5,2" d="M406.18,-127.12C376.78,-105.07 318.41,-63.57 263.5,-38 247.01,-30.32 227.78,-24.09 211.6,-19.56"/>
<polygon fill="#9a32cd" stroke="#9a32cd" points="404.25,-130.05 414.33,-133.3 408.48,-124.47 404.25,-130.05"/>
<text text-anchor="middle" x="397.5" y="-74" font-family="Helvetica,sans-Serif" font-size="10.00"> dsc</text>
</g>
<!-- Node5 -->
<g id="node5" class="node">
<title>Node5</title>
<g id="a_node5"><a xlink:href="../../d3/d87/classuint32__t.html" target="_top" xlink:title=" ">
<polygon fill="none" stroke="black" points="348.5,-367.5 348.5,-386.5 404.5,-386.5 404.5,-367.5 348.5,-367.5"/>
<text text-anchor="middle" x="376.5" y="-374.5" font-family="Helvetica,sans-Serif" font-size="10.00">uint32_t</text>
</a>
</g>
</g>
<!-- Node5&#45;&gt;Node4 -->
<g id="edge4" class="edge">
<title>Node5&#45;&gt;Node4</title>
<path fill="none" stroke="#9a32cd" stroke-dasharray="5,2" d="M380.42,-357.44C390.39,-310.24 416.43,-186.96 423.63,-152.86"/>
<polygon fill="#9a32cd" stroke="#9a32cd" points="376.94,-356.96 378.3,-367.47 383.79,-358.41 376.94,-356.96"/>
<text text-anchor="middle" x="420" y="-274" font-family="Helvetica,sans-Serif" font-size="10.00"> tileW</text>
<text text-anchor="middle" x="420" y="-263" font-family="Helvetica,sans-Serif" font-size="10.00">tileH</text>
<text text-anchor="middle" x="420" y="-252" font-family="Helvetica,sans-Serif" font-size="10.00">tilesX</text>
<text text-anchor="middle" x="420" y="-241" font-family="Helvetica,sans-Serif" font-size="10.00">tilesY</text>
</g>
<!-- Node11 -->
<g id="node11" class="node">
<title>Node11</title>
<g id="a_node11"><a xlink:href="../../d3/dca/classrawspeed_1_1_buffer.html" target="_top" xlink:title=" ">
<polygon fill="none" stroke="black" points="240,-300.5 240,-319.5 339,-319.5 339,-300.5 240,-300.5"/>
<text text-anchor="middle" x="289.5" y="-307.5" font-family="Helvetica,sans-Serif" font-size="10.00">rawspeed::Buffer</text>
</a>
</g>
</g>
<!-- Node5&#45;&gt;Node11 -->
<g id="edge11" class="edge">
<title>Node5&#45;&gt;Node11</title>
<path fill="none" stroke="#9a32cd" stroke-dasharray="5,2" d="M356.51,-361.07C339.34,-348.24 315.18,-330.19 301.05,-319.63"/>
<polygon fill="#9a32cd" stroke="#9a32cd" points="354.66,-364.05 364.77,-367.23 358.85,-358.44 354.66,-364.05"/>
<text text-anchor="middle" x="350" y="-341" font-family="Helvetica,sans-Serif" font-size="10.00"> size</text>
</g>
<!-- Node6 -->
<g id="node6" class="node">
<title>Node6</title>
<g id="a_node6"><a xlink:href="../../d8/d75/classrawspeed_1_1i_point2_d.html" target="_top" xlink:title=" ">
<polygon fill="none" stroke="black" points="454,-200.5 454,-219.5 565,-219.5 565,-200.5 454,-200.5"/>
<text text-anchor="middle" x="509.5" y="-207.5" font-family="Helvetica,sans-Serif" font-size="10.00">rawspeed::iPoint2D</text>
</a>
</g>
</g>
<!-- Node6&#45;&gt;Node4 -->
<g id="edge5" class="edge">
<title>Node6&#45;&gt;Node4</title>
<path fill="none" stroke="#9a32cd" stroke-dasharray="5,2" d="M490.2,-194.07C473.62,-181.24 450.29,-163.19 436.65,-152.63"/>
<polygon fill="#9a32cd" stroke="#9a32cd" points="488.12,-196.88 498.17,-200.23 492.4,-191.35 488.12,-196.88"/>
<text text-anchor="middle" x="483.5" y="-174" font-family="Helvetica,sans-Serif" font-size="10.00"> dim</text>
</g>
<!-- Node7 -->
<g id="node7" class="node">
<title>Node7</title>
<g id="a_node7"><a xlink:href="../../de/d73/classint32__t.html" target="_top" xlink:title=" ">
<polygon fill="none" stroke="black" points="484.5,-300.5 484.5,-319.5 534.5,-319.5 534.5,-300.5 484.5,-300.5"/>
<text text-anchor="middle" x="509.5" y="-307.5" font-family="Helvetica,sans-Serif" font-size="10.00">int32_t</text>
</a>
</g>
</g>
<!-- Node7&#45;&gt;Node6 -->
<g id="edge6" class="edge">
<title>Node7&#45;&gt;Node6</title>
<path fill="none" stroke="#9a32cd" stroke-dasharray="5,2" d="M509.5,-290.22C509.5,-268.95 509.5,-235.22 509.5,-219.54"/>
<polygon fill="#9a32cd" stroke="#9a32cd" points="506,-290.3 509.5,-300.3 513,-290.3 506,-290.3"/>
<text text-anchor="middle" x="514.5" y="-263" font-family="Helvetica,sans-Serif" font-size="10.00"> x</text>
<text text-anchor="middle" x="514.5" y="-252" font-family="Helvetica,sans-Serif" font-size="10.00">y</text>
</g>
<!-- Node8 -->
<g id="node8" class="node">
<title>Node8</title>
<g id="a_node8"><a xlink:title=" ">
<polygon fill="none" stroke="#bfbfbf" points="331,-200.5 331,-219.5 392,-219.5 392,-200.5 331,-200.5"/>
<text text-anchor="middle" x="361.5" y="-207.5" font-family="Helvetica,sans-Serif" font-size="10.00">unsigned</text>
</a>
</g>
</g>
<!-- Node8&#45;&gt;Node4 -->
<g id="edge7" class="edge">
<title>Node8&#45;&gt;Node4</title>
<path fill="none" stroke="#9a32cd" stroke-dasharray="5,2" d="M358.04,-190.19C357.81,-183.62 358.75,-176.53 362.5,-171 368.31,-162.43 377.45,-156.57 386.98,-152.56"/>
<polygon fill="#9a32cd" stroke="#9a32cd" points="354.59,-190.84 359.25,-200.35 361.55,-190.01 354.59,-190.84"/>
<text text-anchor="middle" x="387" y="-174" font-family="Helvetica,sans-Serif" font-size="10.00"> numTiles</text>
</g>
<!-- Node9 -->
<g id="node9" class="node">
<title>Node9</title>
<g id="a_node9"><a xlink:href="../../dd/da0/classrawspeed_1_1_byte_stream.html" target="_top" xlink:title=" ">
<polygon fill="none" stroke="black" points="193.5,-133.5 193.5,-152.5 321.5,-152.5 321.5,-133.5 193.5,-133.5"/>
<text text-anchor="middle" x="257.5" y="-140.5" font-family="Helvetica,sans-Serif" font-size="10.00">rawspeed::ByteStream</text>
</a>
</g>
</g>
<!-- Node9&#45;&gt;Node1 -->
<g id="edge8" class="edge">
<title>Node9&#45;&gt;Node1</title>
<path fill="none" stroke="#9a32cd" stroke-dasharray="5,2" d="M249.68,-124.34C239.85,-102.99 221.79,-66.39 201.5,-38 196.75,-31.35 190.5,-24.6 185.43,-19.51"/>
<polygon fill="#9a32cd" stroke="#9a32cd" points="246.51,-125.82 253.81,-133.49 252.88,-122.94 246.51,-125.82"/>
<text text-anchor="middle" x="252" y="-74" font-family="Helvetica,sans-Serif" font-size="10.00"> bs</text>
</g>
<!-- Node10 -->
<g id="node10" class="node">
<title>Node10</title>
<g id="a_node10"><a xlink:href="../../d1/dd4/classrawspeed_1_1_data_buffer.html" target="_top" xlink:title=" ">
<polygon fill="none" stroke="black" points="109.5,-200.5 109.5,-219.5 231.5,-219.5 231.5,-200.5 109.5,-200.5"/>
<text text-anchor="middle" x="170.5" y="-207.5" font-family="Helvetica,sans-Serif" font-size="10.00">rawspeed::DataBuffer</text>
</a>
</g>
</g>
<!-- Node10&#45;&gt;Node9 -->
<g id="edge9" class="edge">
<title>Node10&#45;&gt;Node9</title>
<path fill="none" stroke="midnightblue" d="M190.49,-194.07C207.66,-181.24 231.82,-163.19 245.95,-152.63"/>
<polygon fill="midnightblue" stroke="midnightblue" points="188.15,-191.44 182.23,-200.23 192.34,-197.05 188.15,-191.44"/>
</g>
<!-- Node11&#45;&gt;Node10 -->
<g id="edge10" class="edge">
<title>Node11&#45;&gt;Node10</title>
<path fill="none" stroke="midnightblue" d="M279.38,-291.69C269.41,-275.91 252.9,-252.87 233.5,-238 223.11,-230.04 210.02,-223.93 198.46,-219.56"/>
<polygon fill="midnightblue" stroke="midnightblue" points="276.51,-293.71 284.7,-300.43 282.49,-290.07 276.51,-293.71"/>
</g>
<!-- Node12 -->
<g id="node12" class="node">
<title>Node12</title>
<g id="a_node12"><a xlink:title=" ">
<polygon fill="none" stroke="#bfbfbf" points="212.5,-367.5 212.5,-386.5 250.5,-386.5 250.5,-367.5 212.5,-367.5"/>
<text text-anchor="middle" x="231.5" y="-374.5" font-family="Helvetica,sans-Serif" font-size="10.00">bool</text>
</a>
</g>
</g>
<!-- Node12&#45;&gt;Node11 -->
<g id="edge12" class="edge">
<title>Node12&#45;&gt;Node11</title>
<path fill="none" stroke="#9a32cd" stroke-dasharray="5,2" d="M236.12,-357.66C238.45,-350.97 241.8,-343.66 246.5,-338 252.92,-330.27 262.15,-324.07 270.41,-319.57"/>
<polygon fill="#9a32cd" stroke="#9a32cd" points="232.74,-356.77 233.26,-367.35 239.45,-358.75 232.74,-356.77"/>
<text text-anchor="middle" x="268" y="-341" font-family="Helvetica,sans-Serif" font-size="10.00"> isOwner</text>
</g>
<!-- Node13 -->
<g id="node13" class="node">
<title>Node13</title>
<g id="a_node13"><a xlink:title=" ">
<polygon fill="none" stroke="#bfbfbf" points="272.5,-367.5 272.5,-386.5 322.5,-386.5 322.5,-367.5 272.5,-367.5"/>
<text text-anchor="middle" x="297.5" y="-374.5" font-family="Helvetica,sans-Serif" font-size="10.00">uint8_t</text>
</a>
</g>
</g>
<!-- Node13&#45;&gt;Node11 -->
<g id="edge13" class="edge">
<title>Node13&#45;&gt;Node11</title>
<path fill="none" stroke="#9a32cd" stroke-dasharray="5,2" d="M295.17,-357.04C293.64,-344.67 291.73,-329.12 290.56,-319.63"/>
<polygon fill="#9a32cd" stroke="#9a32cd" points="291.73,-357.74 296.42,-367.23 298.67,-356.88 291.73,-357.74"/>
<text text-anchor="middle" x="307" y="-341" font-family="Helvetica,sans-Serif" font-size="10.00"> data</text>
</g>
<!-- Node14 -->
<g id="node14" class="node">
<title>Node14</title>
<g id="a_node14"><a xlink:title=" ">
<polygon fill="none" stroke="#bfbfbf" points="134.5,-300.5 134.5,-319.5 206.5,-319.5 206.5,-300.5 134.5,-300.5"/>
<text text-anchor="middle" x="170.5" y="-307.5" font-family="Helvetica,sans-Serif" font-size="10.00">Endianness</text>
</a>
</g>
</g>
<!-- Node14&#45;&gt;Node10 -->
<g id="edge14" class="edge">
<title>Node14&#45;&gt;Node10</title>
<path fill="none" stroke="#9a32cd" stroke-dasharray="5,2" d="M170.5,-290.22C170.5,-268.95 170.5,-235.22 170.5,-219.54"/>
<polygon fill="#9a32cd" stroke="#9a32cd" points="167,-290.3 170.5,-300.3 174,-290.3 167,-290.3"/>
<text text-anchor="middle" x="200" y="-257.5" font-family="Helvetica,sans-Serif" font-size="10.00"> endianness</text>
</g>
<!-- Node15 -->
<g id="node15" class="node">
<title>Node15</title>
<g id="a_node15"><a xlink:title=" ">
<polygon fill="none" stroke="#bfbfbf" points="250,-200.5 250,-219.5 313,-219.5 313,-200.5 250,-200.5"/>
<text text-anchor="middle" x="281.5" y="-207.5" font-family="Helvetica,sans-Serif" font-size="10.00">size_type</text>
</a>
</g>
</g>
<!-- Node15&#45;&gt;Node9 -->
<g id="edge15" class="edge">
<title>Node15&#45;&gt;Node9</title>
<path fill="none" stroke="#9a32cd" stroke-dasharray="5,2" d="M274.78,-190.79C270.17,-178.31 264.26,-162.31 260.69,-152.63"/>
<polygon fill="#9a32cd" stroke="#9a32cd" points="271.52,-192.07 278.26,-200.23 278.08,-189.64 271.52,-192.07"/>
<text text-anchor="middle" x="282" y="-174" font-family="Helvetica,sans-Serif" font-size="10.00"> pos</text>
</g>
</g>
</svg>
        <g id="navigator" transform="translate(0 0)" fill="#404254">
                <rect fill="#f2f5e9" fill-opacity="0.5" stroke="#606060" stroke-width=".5" x="0" y="0" width="60" height="60"/>
                <use id="zoomplus" xlink:href="#zoomPlus" x="17" y="9" onmousedown="handleZoom(evt,'in')"/>
                <use id="zoomminus" xlink:href="#zoomMin" x="42" y="9" onmousedown="handleZoom(evt,'out')"/>
                <use id="reset" xlink:href="#resetDef" x="30" y="36" onmousedown="handleReset()"/>
                <g id="arrowUp" xlink:href="#dirArrow" transform="translate(30 24)" onmousedown="handlePan(0,-1)">
                  <use xlink:href="#rim" fill="#404040">
                        <set attributeName="fill" to="#808080" begin="arrowUp.mouseover" end="arrowUp.mouseout"/>
                  </use>
                  <path fill="none" stroke="white" stroke-width="1.5" d="M0,-3.0v7 M-2.5,-0.5L0,-3.0L2.5,-0.5"/>
                </g>
                <g id="arrowRight" xlink:href="#dirArrow" transform="rotate(90) translate(36 -43)" onmousedown="handlePan(1,0)">
                  <use xlink:href="#rim" fill="#404040">
                        <set attributeName="fill" to="#808080" begin="arrowRight.mouseover" end="arrowRight.mouseout"/>
                  </use>
                  <path fill="none" stroke="white" stroke-width="1.5" d="M0,-3.0v7 M-2.5,-0.5L0,-3.0L2.5,-0.5"/>
                </g>
                <g id="arrowDown" xlink:href="#dirArrow" transform="rotate(180) translate(-30 -48)" onmousedown="handlePan(0,1)">
                  <use xlink:href="#rim" fill="#404040">
                        <set attributeName="fill" to="#808080" begin="arrowDown.mouseover" end="arrowDown.mouseout"/>
                  </use>
                  <path fill="none" stroke="white" stroke-width="1.5" d="M0,-3.0v7 M-2.5,-0.5L0,-3.0L2.5,-0.5"/>
                </g>
                <g id="arrowLeft" xlink:href="#dirArrow" transform="rotate(270) translate(-36 17)" onmousedown="handlePan(-1,0)">
                  <use xlink:href="#rim" fill="#404040">
                        <set attributeName="fill" to="#808080" begin="arrowLeft.mouseover" end="arrowLeft.mouseout"/>
                  </use>
                  <path fill="none" stroke="white" stroke-width="1.5" d="M0,-3.0v7 M-2.5,-0.5L0,-3.0L2.5,-0.5"/>
                </g>
        </g>
        <svg viewBox="0 0 15 15" width="100%" height="30px" preserveAspectRatio="xMaxYMin meet">
         <g id="arrow_out" transform="scale(0.3 0.3)">
          <a xlink:href="structrawspeed_1_1_dng_slice_element__coll__graph_org.svg" target="_base">
           <rect id="button" ry="5" rx="5" y="6" x="6" height="38" width="38"
                fill="#f2f5e9" fill-opacity="0.5" stroke="#606060" stroke-width="1.0"/>
           <path id="arrow"
             d="M 11.500037,31.436501 C 11.940474,20.09759 22.043105,11.32322 32.158766,21.979434 L 37.068811,17.246167 C 37.068811,17.246167 37.088388,32 37.088388,32 L 22.160133,31.978069 C 22.160133,31.978069 26.997745,27.140456 26.997745,27.140456 C 18.528582,18.264221 13.291696,25.230495 11.500037,31.436501 z"
             style="fill:#404040;"/>
          </a>
         </g>
        </svg>
</svg>
