<?xml version="1.0" encoding="UTF-8" standalone="no"?>
<!DOCTYPE svg PUBLIC "-//W3C//DTD SVG 1.1//EN"
 "http://www.w3.org/Graphics/SVG/1.1/DTD/svg11.dtd">
<!-- Generated by graphviz version 2.43.0 (0)
 -->
<!-- Title: LLVMFuzzerTestOneInput Pages: 1 -->
<svg width="748pt" height="400pt"
 viewBox="0.00 0.00 748.00 400.00" xmlns="http://www.w3.org/2000/svg" xmlns:xlink="http://www.w3.org/1999/xlink">
<g id="graph0" class="graph" transform="scale(1 1) rotate(0) translate(4 396)">
<title>LLVMFuzzerTestOneInput</title>
<!-- Node1 -->
<g id="node1" class="node">
<title>Node1</title>
<g id="a_node1"><a xlink:title=" ">
<polygon fill="#bfbfbf" stroke="black" points="0,-180 0,-199 136,-199 136,-180 0,-180"/>
<text text-anchor="middle" x="68" y="-187" font-family="Helvetica,sans-Serif" font-size="10.00">LLVMFuzzerTestOneInput</text>
</a>
</g>
</g>
<!-- Node2 -->
<g id="node2" class="node">
<title>Node2</title>
<g id="a_node2"><a xlink:href="../../dd/da0/classrawspeed_1_1_byte_stream.html#a804858089e7e6c442815d46128cca1ed" target="_top" xlink:title=" ">
<polygon fill="none" stroke="black" points="191.5,-352.5 191.5,-382.5 319.5,-382.5 319.5,-352.5 191.5,-352.5"/>
<text text-anchor="start" x="199.5" y="-370.5" font-family="Helvetica,sans-Serif" font-size="10.00">rawspeed::ByteStream</text>
<text text-anchor="middle" x="255.5" y="-359.5" font-family="Helvetica,sans-Serif" font-size="10.00">::ByteStream</text>
</a>
</g>
</g>
<!-- Node1&#45;&gt;Node2 -->
<g id="edge1" class="edge">
<title>Node1&#45;&gt;Node2</title>
<path fill="none" stroke="midnightblue" d="M72.66,-199.15C83.44,-226.27 117.77,-303.78 172,-343.5 175.22,-345.86 178.68,-347.99 182.28,-349.91"/>
<polygon fill="midnightblue" stroke="midnightblue" points="180.94,-353.15 191.48,-354.27 183.94,-346.83 180.94,-353.15"/>
</g>
<!-- Node3 -->
<g id="node3" class="node">
<title>Node3</title>
<g id="a_node3"><a xlink:href="../../dc/d44/classrawspeed_1_1_raw_image_data.html#af7cbbd3ab6bb415e7e1b1f58a285084f" target="_top" xlink:title=" ">
<polygon fill="none" stroke="black" points="183,-303.5 183,-333.5 328,-333.5 328,-303.5 183,-303.5"/>
<text text-anchor="start" x="191" y="-321.5" font-family="Helvetica,sans-Serif" font-size="10.00">rawspeed::RawImageData</text>
<text text-anchor="middle" x="255.5" y="-310.5" font-family="Helvetica,sans-Serif" font-size="10.00">::createData</text>
</a>
</g>
</g>
<!-- Node1&#45;&gt;Node3 -->
<g id="edge2" class="edge">
<title>Node1&#45;&gt;Node3</title>
<path fill="none" stroke="midnightblue" d="M80,-199.19C98.37,-215.18 136.79,-247.67 172,-271.5 186.11,-281.05 202.27,-290.55 216.53,-298.49"/>
<polygon fill="midnightblue" stroke="midnightblue" points="215.14,-301.71 225.59,-303.46 218.51,-295.58 215.14,-301.71"/>
</g>
<!-- Node6 -->
<g id="node6" class="node">
<title>Node6</title>
<g id="a_node6"><a xlink:href="../../d9/d5a/fuzz_2librawspeed_2fuzz_2_common_8cpp.html#a9b5193764409a69db1176954187dad97" target="_top" xlink:title=" ">
<polygon fill="none" stroke="black" points="205,-180 205,-199 306,-199 306,-180 205,-180"/>
<text text-anchor="middle" x="255.5" y="-187" font-family="Helvetica,sans-Serif" font-size="10.00">CreateRawImage</text>
</a>
</g>
</g>
<!-- Node1&#45;&gt;Node6 -->
<g id="edge5" class="edge">
<title>Node1&#45;&gt;Node6</title>
<path fill="none" stroke="midnightblue" d="M136.23,-189.5C155.39,-189.5 176.13,-189.5 194.8,-189.5"/>
<polygon fill="midnightblue" stroke="midnightblue" points="194.94,-193 204.94,-189.5 194.94,-186 194.94,-193"/>
</g>
<!-- Node9 -->
<g id="node9" class="node">
<title>Node9</title>
<g id="a_node9"><a xlink:href="../../dd/da0/classrawspeed_1_1_byte_stream.html#ac598b7b6f0f8fd5476adb7c1363b1518" target="_top" xlink:title=" ">
<polygon fill="none" stroke="black" points="414.5,-263.5 414.5,-293.5 542.5,-293.5 542.5,-263.5 414.5,-263.5"/>
<text text-anchor="start" x="422.5" y="-281.5" font-family="Helvetica,sans-Serif" font-size="10.00">rawspeed::ByteStream</text>
<text text-anchor="middle" x="478.5" y="-270.5" font-family="Helvetica,sans-Serif" font-size="10.00">::getU32</text>
</a>
</g>
</g>
<!-- Node1&#45;&gt;Node9 -->
<g id="edge13" class="edge">
<title>Node1&#45;&gt;Node9</title>
<path fill="none" stroke="midnightblue" d="M112.72,-199.02C182.51,-214.23 319.85,-244.15 404.66,-262.63"/>
<polygon fill="midnightblue" stroke="midnightblue" points="403.96,-266.06 414.48,-264.77 405.45,-259.22 403.96,-266.06"/>
</g>
<!-- Node11 -->
<g id="node11" class="node">
<title>Node11</title>
<g id="a_node11"><a xlink:href="../../dd/d12/classrawspeed_1_1_raw_image.html#a2907002b5c707eca6939061f8b0d5e5d" target="_top" xlink:title=" ">
<polygon fill="none" stroke="black" points="417.5,-67.5 417.5,-97.5 539.5,-97.5 539.5,-67.5 417.5,-67.5"/>
<text text-anchor="start" x="425.5" y="-85.5" font-family="Helvetica,sans-Serif" font-size="10.00">rawspeed::RawImage</text>
<text text-anchor="middle" x="478.5" y="-74.5" font-family="Helvetica,sans-Serif" font-size="10.00">::operator&#45;&gt;</text>
</a>
</g>
</g>
<!-- Node1&#45;&gt;Node11 -->
<g id="edge18" class="edge">
<title>Node1&#45;&gt;Node11</title>
<path fill="none" stroke="midnightblue" d="M119.52,-179.96C192.02,-166.1 319.07,-141.1 339,-132.5 356.88,-124.78 357.24,-115.5 375,-107.5 385.27,-102.88 396.52,-99.03 407.69,-95.86"/>
<polygon fill="midnightblue" stroke="midnightblue" points="408.7,-99.21 417.45,-93.24 406.88,-92.45 408.7,-99.21"/>
</g>
<!-- Node13 -->
<g id="node13" class="node">
<title>Node13</title>
<g id="a_node13"><a xlink:href="../../d7/d6d/classrawspeed_1_1_l_jpeg_decompressor.html#a55590edc9e7dda1a2a89177cdb7df0a9" target="_top" xlink:title=" ">
<polygon fill="none" stroke="black" points="172,-92.5 172,-122.5 339,-122.5 339,-92.5 172,-92.5"/>
<text text-anchor="start" x="180" y="-110.5" font-family="Helvetica,sans-Serif" font-size="10.00">rawspeed::LJpegDecompressor</text>
<text text-anchor="middle" x="255.5" y="-99.5" font-family="Helvetica,sans-Serif" font-size="10.00">::decode</text>
</a>
</g>
</g>
<!-- Node1&#45;&gt;Node13 -->
<g id="edge12" class="edge">
<title>Node1&#45;&gt;Node13</title>
<path fill="none" stroke="midnightblue" d="M86.56,-179.83C106.82,-168.86 141.3,-150.78 172,-137.5 181.13,-133.55 190.96,-129.67 200.55,-126.07"/>
<polygon fill="midnightblue" stroke="midnightblue" points="201.85,-129.32 210.02,-122.58 199.43,-122.76 201.85,-129.32"/>
</g>
<!-- Node14 -->
<g id="node14" class="node">
<title>Node14</title>
<g id="a_node14"><a xlink:href="../../d7/d6d/classrawspeed_1_1_l_jpeg_decompressor.html#a2b7b34c1a02ebea91be198950d140764" target="_top" xlink:title=" ">
<polygon fill="none" stroke="black" points="172,-26.5 172,-56.5 339,-56.5 339,-26.5 172,-26.5"/>
<text text-anchor="start" x="180" y="-44.5" font-family="Helvetica,sans-Serif" font-size="10.00">rawspeed::LJpegDecompressor</text>
<text text-anchor="middle" x="255.5" y="-33.5" font-family="Helvetica,sans-Serif" font-size="10.00">::LJpegDecompressor</text>
</a>
</g>
</g>
<!-- Node1&#45;&gt;Node14 -->
<g id="edge14" class="edge">
<title>Node1&#45;&gt;Node14</title>
<path fill="none" stroke="midnightblue" d="M76.41,-179.98C92.25,-160.1 131.31,-113.5 172,-83.5 183.45,-75.06 196.85,-67.43 209.47,-61.07"/>
<polygon fill="midnightblue" stroke="midnightblue" points="211.04,-64.2 218.49,-56.66 207.97,-57.91 211.04,-64.2"/>
</g>
<!-- Node4 -->
<g id="node4" class="node">
<title>Node4</title>
<g id="a_node4"><a xlink:href="../../dc/d44/classrawspeed_1_1_raw_image_data.html#a724d8812aca44f04e6aeb965daeab36d" target="_top" xlink:title=" ">
<polygon fill="none" stroke="black" points="406,-361.5 406,-391.5 551,-391.5 551,-361.5 406,-361.5"/>
<text text-anchor="start" x="414" y="-379.5" font-family="Helvetica,sans-Serif" font-size="10.00">rawspeed::RawImageData</text>
<text text-anchor="middle" x="478.5" y="-368.5" font-family="Helvetica,sans-Serif" font-size="10.00">::getData</text>
</a>
</g>
</g>
<!-- Node3&#45;&gt;Node4 -->
<g id="edge3" class="edge">
<title>Node3&#45;&gt;Node4</title>
<path fill="none" stroke="midnightblue" d="M306.8,-333.53C327.82,-339.65 352.53,-346.65 375,-352.5 383.48,-354.71 392.38,-356.93 401.25,-359.09"/>
<polygon fill="midnightblue" stroke="midnightblue" points="400.67,-362.55 411.22,-361.49 402.31,-355.74 400.67,-362.55"/>
</g>
<!-- Node5 -->
<g id="node5" class="node">
<title>Node5</title>
<g id="a_node5"><a xlink:href="../../dc/d44/classrawspeed_1_1_raw_image_data.html#a383099b27aea42a05858e18b6cf69c96" target="_top" xlink:title=" ">
<polygon fill="none" stroke="black" points="406,-312.5 406,-342.5 551,-342.5 551,-312.5 406,-312.5"/>
<text text-anchor="start" x="414" y="-330.5" font-family="Helvetica,sans-Serif" font-size="10.00">rawspeed::RawImageData</text>
<text text-anchor="middle" x="478.5" y="-319.5" font-family="Helvetica,sans-Serif" font-size="10.00">::poisonPadding</text>
</a>
</g>
</g>
<!-- Node3&#45;&gt;Node5 -->
<g id="edge4" class="edge">
<title>Node3&#45;&gt;Node5</title>
<path fill="none" stroke="midnightblue" d="M328.25,-321.42C349.78,-322.3 373.56,-323.27 395.69,-324.17"/>
<polygon fill="midnightblue" stroke="midnightblue" points="395.6,-327.67 405.73,-324.58 395.88,-320.67 395.6,-327.67"/>
</g>
<!-- Node7 -->
<g id="node7" class="node">
<title>Node7</title>
<g id="a_node7"><a xlink:href="../../dd/d12/classrawspeed_1_1_raw_image.html#a4a7b73d675f5ac9c8730a9b7f60c3d82" target="_top" xlink:title=" ">
<polygon fill="none" stroke="black" points="417.5,-214.5 417.5,-244.5 539.5,-244.5 539.5,-214.5 417.5,-214.5"/>
<text text-anchor="start" x="425.5" y="-232.5" font-family="Helvetica,sans-Serif" font-size="10.00">rawspeed::RawImage</text>
<text text-anchor="middle" x="478.5" y="-221.5" font-family="Helvetica,sans-Serif" font-size="10.00">::create</text>
</a>
</g>
</g>
<!-- Node6&#45;&gt;Node7 -->
<g id="edge6" class="edge">
<title>Node6&#45;&gt;Node7</title>
<path fill="none" stroke="midnightblue" d="M306.1,-198.48C335.97,-203.88 374.47,-210.85 407.42,-216.82"/>
<polygon fill="midnightblue" stroke="midnightblue" points="406.99,-220.29 417.45,-218.63 408.23,-213.41 406.99,-220.29"/>
</g>
<!-- Node6&#45;&gt;Node9 -->
<g id="edge8" class="edge">
<title>Node6&#45;&gt;Node9</title>
<path fill="none" stroke="midnightblue" d="M270.84,-199.06C292.52,-213.1 335.34,-239.31 375,-254.5 384.34,-258.08 394.38,-261.23 404.38,-263.96"/>
<polygon fill="midnightblue" stroke="midnightblue" points="403.79,-267.42 414.35,-266.56 405.56,-260.65 403.79,-267.42"/>
</g>
<!-- Node10 -->
<g id="node10" class="node">
<title>Node10</title>
<g id="a_node10"><a xlink:href="../../d8/d75/classrawspeed_1_1i_point2_d.html#ab980cc8ab2f3502a5a2c230530ba2a64" target="_top" xlink:title=" ">
<polygon fill="none" stroke="black" points="423,-165.5 423,-195.5 534,-195.5 534,-165.5 423,-165.5"/>
<text text-anchor="start" x="431" y="-183.5" font-family="Helvetica,sans-Serif" font-size="10.00">rawspeed::iPoint2D</text>
<text text-anchor="middle" x="478.5" y="-172.5" font-family="Helvetica,sans-Serif" font-size="10.00">::iPoint2D</text>
</a>
</g>
</g>
<!-- Node6&#45;&gt;Node10 -->
<g id="edge9" class="edge">
<title>Node6&#45;&gt;Node10</title>
<path fill="none" stroke="midnightblue" d="M306.1,-187.48C337.47,-186.2 378.36,-184.54 412.34,-183.15"/>
<polygon fill="midnightblue" stroke="midnightblue" points="412.79,-186.64 422.64,-182.73 412.51,-179.64 412.79,-186.64"/>
</g>
<!-- Node6&#45;&gt;Node11 -->
<g id="edge10" class="edge">
<title>Node6&#45;&gt;Node11</title>
<path fill="none" stroke="midnightblue" d="M306.39,-181.3C317.87,-177.76 329.49,-172.71 339,-165.5 363.17,-147.16 350.44,-125.31 375,-107.5 384.67,-100.49 396.07,-95.42 407.69,-91.77"/>
<polygon fill="midnightblue" stroke="midnightblue" points="408.79,-95.1 417.47,-89.03 406.89,-88.36 408.79,-95.1"/>
</g>
<!-- Node12 -->
<g id="node12" class="node">
<title>Node12</title>
<g id="a_node12"><a xlink:href="../../dc/d44/classrawspeed_1_1_raw_image_data.html#a180f90ba4cf9e6e6ff1c307f6106f4ed" target="_top" xlink:title=" ">
<polygon fill="none" stroke="black" points="406,-116.5 406,-146.5 551,-146.5 551,-116.5 406,-116.5"/>
<text text-anchor="start" x="414" y="-134.5" font-family="Helvetica,sans-Serif" font-size="10.00">rawspeed::RawImageData</text>
<text text-anchor="middle" x="478.5" y="-123.5" font-family="Helvetica,sans-Serif" font-size="10.00">::setCpp</text>
</a>
</g>
</g>
<!-- Node6&#45;&gt;Node12 -->
<g id="edge11" class="edge">
<title>Node6&#45;&gt;Node12</title>
<path fill="none" stroke="midnightblue" d="M289.62,-179.97C313.34,-173.21 346.07,-164.05 375,-156.5 384.57,-154 394.66,-151.44 404.63,-148.96"/>
<polygon fill="midnightblue" stroke="midnightblue" points="405.67,-152.31 414.54,-146.52 403.99,-145.52 405.67,-152.31"/>
</g>
<!-- Node8 -->
<g id="node8" class="node">
<title>Node8</title>
<g id="a_node8"><a xlink:href="../../de/dc3/namespacerawspeed.html#a8a98a18f46994d6cae15ce24462fb7d4" target="_top" xlink:title=" ">
<polygon fill="none" stroke="black" points="623,-220 623,-239 735,-239 735,-220 623,-220"/>
<text text-anchor="middle" x="679" y="-227" font-family="Helvetica,sans-Serif" font-size="10.00">rawspeed::writeLog</text>
</a>
</g>
</g>
<!-- Node7&#45;&gt;Node8 -->
<g id="edge7" class="edge">
<title>Node7&#45;&gt;Node8</title>
<path fill="none" stroke="midnightblue" d="M539.6,-229.5C562.66,-229.5 589.08,-229.5 612.61,-229.5"/>
<polygon fill="midnightblue" stroke="midnightblue" points="612.85,-233 622.85,-229.5 612.85,-226 612.85,-233"/>
</g>
<!-- Node15 -->
<g id="node15" class="node">
<title>Node15</title>
<g id="a_node15"><a xlink:href="../../d4/d03/classrawspeed_1_1_abstract_l_jpeg_decompressor.html#af76f70a59a14657a13c9c495ee0d7e62" target="_top" xlink:title=" ">
<polygon fill="none" stroke="black" points="375,-0.5 375,-30.5 582,-30.5 582,-0.5 375,-0.5"/>
<text text-anchor="start" x="383" y="-18.5" font-family="Helvetica,sans-Serif" font-size="10.00">rawspeed::AbstractLJpegDecompressor</text>
<text text-anchor="middle" x="478.5" y="-7.5" font-family="Helvetica,sans-Serif" font-size="10.00">::AbstractLJpegDecompressor</text>
</a>
</g>
</g>
<!-- Node14&#45;&gt;Node15 -->
<g id="edge15" class="edge">
<title>Node14&#45;&gt;Node15</title>
<path fill="none" stroke="midnightblue" d="M339.11,-31.78C347.48,-30.8 356.08,-29.78 364.7,-28.77"/>
<polygon fill="midnightblue" stroke="midnightblue" points="365.29,-32.23 374.81,-27.58 364.47,-25.27 365.29,-32.23"/>
</g>
<!-- Node15&#45;&gt;Node15 -->
<g id="edge16" class="edge">
<title>Node15&#45;&gt;Node15</title>
<path fill="none" stroke="midnightblue" d="M443.65,-30.66C435.24,-40.06 446.86,-49 478.5,-49 497.78,-49 509.63,-45.68 514.04,-40.96"/>
<polygon fill="midnightblue" stroke="midnightblue" points="517.51,-40.41 513.35,-30.66 510.52,-40.87 517.51,-40.41"/>
</g>
<!-- Node16 -->
<g id="node16" class="node">
<title>Node16</title>
<g id="a_node16"><a xlink:href="../../dd/d12/classrawspeed_1_1_raw_image.html#a4a01d153bb4518ddfaac18a5d0694154" target="_top" xlink:title=" ">
<polygon fill="none" stroke="black" points="618,-0.5 618,-30.5 740,-30.5 740,-0.5 618,-0.5"/>
<text text-anchor="start" x="626" y="-18.5" font-family="Helvetica,sans-Serif" font-size="10.00">rawspeed::RawImage</text>
<text text-anchor="middle" x="679" y="-7.5" font-family="Helvetica,sans-Serif" font-size="10.00">::RawImage</text>
</a>
</g>
</g>
<!-- Node15&#45;&gt;Node16 -->
<g id="edge17" class="edge">
<title>Node15&#45;&gt;Node16</title>
<path fill="none" stroke="midnightblue" d="M582.24,-15.5C590.91,-15.5 599.55,-15.5 607.89,-15.5"/>
<polygon fill="midnightblue" stroke="midnightblue" points="607.9,-19 617.9,-15.5 607.9,-12 607.9,-19"/>
</g>
</g>
</svg>
