<?xml version="1.0" encoding="UTF-8" standalone="no"?>
<!DOCTYPE svg PUBLIC "-//W3C//DTD SVG 1.1//EN"
 "http://www.w3.org/Graphics/SVG/1.1/DTD/svg11.dtd">
<!-- Generated by graphviz version 2.43.0 (0)
 -->
<!-- Title: rawspeed::anonymous_namespace{PanasonicDecompressorV6.cpp}::pana_cs6_page_decoder Pages: 1 -->
<svg width="235pt" height="262pt"
 viewBox="0.00 0.00 234.50 262.00" xmlns="http://www.w3.org/2000/svg" xmlns:xlink="http://www.w3.org/1999/xlink">
<g id="graph0" class="graph" transform="scale(1 1) rotate(0) translate(4 258)">
<title>rawspeed::anonymous_namespace{PanasonicDecompressorV6.cpp}::pana_cs6_page_decoder</title>
<!-- Node1 -->
<g id="node1" class="node">
<title>Node1</title>
<g id="a_node1"><a xlink:title=" ">
<polygon fill="#bfbfbf" stroke="black" points="23.5,-0.5 23.5,-41.5 226.5,-41.5 226.5,-0.5 23.5,-0.5"/>
<text text-anchor="start" x="31.5" y="-29.5" font-family="Helvetica,sans-Serif" font-size="10.00">rawspeed::anonymous</text>
<text text-anchor="start" x="31.5" y="-18.5" font-family="Helvetica,sans-Serif" font-size="10.00">_namespace{PanasonicDecompressor</text>
<text text-anchor="middle" x="125" y="-7.5" font-family="Helvetica,sans-Serif" font-size="10.00">V6.cpp}::pana_cs6_page_decoder</text>
</a>
</g>
</g>
<!-- Node2 -->
<g id="node2" class="node">
<title>Node2</title>
<g id="a_node2"><a xlink:title=" ">
<polygon fill="none" stroke="#bfbfbf" points="11.5,-89.5 11.5,-119.5 116.5,-119.5 116.5,-89.5 11.5,-89.5"/>
<text text-anchor="start" x="19.5" y="-107.5" font-family="Helvetica,sans-Serif" font-size="10.00">std::array&lt; uint16</text>
<text text-anchor="middle" x="64" y="-96.5" font-family="Helvetica,sans-Serif" font-size="10.00">_t, 14 &gt;</text>
</a>
</g>
</g>
<!-- Node2&#45;&gt;Node1 -->
<g id="edge1" class="edge">
<title>Node2&#45;&gt;Node1</title>
<path fill="none" stroke="#9a32cd" stroke-dasharray="5,2" d="M72.78,-80C75.83,-73.24 79.61,-66.06 84,-60 88.67,-53.56 94.56,-47.34 100.4,-41.87"/>
<polygon fill="#9a32cd" stroke="#9a32cd" points="69.47,-78.85 68.84,-89.42 75.93,-81.54 69.47,-78.85"/>
<text text-anchor="middle" x="112" y="-63" font-family="Helvetica,sans-Serif" font-size="10.00"> pixelbuffer</text>
</g>
<!-- Node3 -->
<g id="node3" class="node">
<title>Node3</title>
<g id="a_node3"><a xlink:href="../../d5/df4/classuint16__t.html" target="_top" xlink:title=" ">
<polygon fill="none" stroke="black" points="0,-167.5 0,-186.5 56,-186.5 56,-167.5 0,-167.5"/>
<text text-anchor="middle" x="28" y="-174.5" font-family="Helvetica,sans-Serif" font-size="10.00">uint16_t</text>
</a>
</g>
</g>
<!-- Node3&#45;&gt;Node2 -->
<g id="edge2" class="edge">
<title>Node3&#45;&gt;Node2</title>
<path fill="none" stroke="#9a32cd" stroke-dasharray="5,2" d="M31.89,-157.43C33.6,-151.07 35.94,-144.04 39,-138 42.28,-131.52 46.92,-125.05 51.3,-119.6"/>
<polygon fill="#9a32cd" stroke="#9a32cd" points="28.47,-156.67 29.57,-167.2 35.28,-158.28 28.47,-156.67"/>
<text text-anchor="middle" x="63.5" y="-141" font-family="Helvetica,sans-Serif" font-size="10.00"> elements</text>
</g>
<!-- Node4 -->
<g id="node4" class="node">
<title>Node4</title>
<g id="a_node4"><a xlink:title="STL class.">
<polygon fill="none" stroke="#bfbfbf" points="74,-167.5 74,-186.5 166,-186.5 166,-167.5 74,-167.5"/>
<text text-anchor="middle" x="120" y="-174.5" font-family="Helvetica,sans-Serif" font-size="10.00">std::array&lt; T &gt;</text>
</a>
</g>
</g>
<!-- Node4&#45;&gt;Node2 -->
<g id="edge3" class="edge">
<title>Node4&#45;&gt;Node2</title>
<path fill="none" stroke="orange" stroke-dasharray="5,2" d="M106.81,-159.39C97.19,-147.28 84.3,-131.05 75.18,-119.58"/>
<polygon fill="orange" stroke="orange" points="104.17,-161.7 113.13,-167.36 109.65,-157.35 104.17,-161.7"/>
<text text-anchor="middle" x="140" y="-141" font-family="Helvetica,sans-Serif" font-size="10.00"> &lt; uint16_t, 14 &gt;</text>
</g>
<!-- Node5 -->
<g id="node5" class="node">
<title>Node5</title>
<g id="a_node5"><a xlink:title=" ">
<polygon fill="none" stroke="#bfbfbf" points="105.5,-234.5 105.5,-253.5 134.5,-253.5 134.5,-234.5 105.5,-234.5"/>
<text text-anchor="middle" x="120" y="-241.5" font-family="Helvetica,sans-Serif" font-size="10.00">T</text>
</a>
</g>
</g>
<!-- Node5&#45;&gt;Node4 -->
<g id="edge4" class="edge">
<title>Node5&#45;&gt;Node4</title>
<path fill="none" stroke="#9a32cd" stroke-dasharray="5,2" d="M120,-224.04C120,-211.67 120,-196.12 120,-186.63"/>
<polygon fill="#9a32cd" stroke="#9a32cd" points="116.5,-224.23 120,-234.23 123.5,-224.23 116.5,-224.23"/>
<text text-anchor="middle" x="144.5" y="-208" font-family="Helvetica,sans-Serif" font-size="10.00"> elements</text>
</g>
<!-- Node6 -->
<g id="node6" class="node">
<title>Node6</title>
<g id="a_node6"><a xlink:title=" ">
<polygon fill="none" stroke="#bfbfbf" points="134.5,-95 134.5,-114 195.5,-114 195.5,-95 134.5,-95"/>
<text text-anchor="middle" x="165" y="-102" font-family="Helvetica,sans-Serif" font-size="10.00">unsigned</text>
</a>
</g>
</g>
<!-- Node6&#45;&gt;Node1 -->
<g id="edge5" class="edge">
<title>Node6&#45;&gt;Node1</title>
<path fill="none" stroke="#9a32cd" stroke-dasharray="5,2" d="M156.18,-85.53C149.82,-72.58 141.25,-55.1 134.7,-41.76"/>
<polygon fill="#9a32cd" stroke="#9a32cd" points="153.17,-87.34 160.72,-94.78 159.46,-84.26 153.17,-87.34"/>
<text text-anchor="middle" x="168" y="-63" font-family="Helvetica,sans-Serif" font-size="10.00"> current</text>
</g>
</g>
</svg>
