<?xml version="1.0" encoding="UTF-8" standalone="no"?>
<!DOCTYPE svg PUBLIC "-//W3C//DTD SVG 1.1//EN"
 "http://www.w3.org/Graphics/SVG/1.1/DTD/svg11.dtd">
<!-- Generated by graphviz version 2.43.0 (0)
 -->
<!-- Title: rawspeed::anonymous_namespace{PanasonicDecompressorV6.cpp}::pana_cs6_page_decoder Pages: 1 -->
<svg width="294pt" height="262pt"
 viewBox="0.00 0.00 293.50 262.00" xmlns="http://www.w3.org/2000/svg" xmlns:xlink="http://www.w3.org/1999/xlink">
<g id="graph0" class="graph" transform="scale(1 1) rotate(0) translate(4 258)">
<title>rawspeed::anonymous_namespace{PanasonicDecompressorV6.cpp}::pana_cs6_page_decoder</title>
<!-- Node1 -->
<g id="node1" class="node">
<title>Node1</title>
<g id="a_node1"><a xlink:title=" ">
<polygon fill="#bfbfbf" stroke="black" points="0,-0.5 0,-41.5 203,-41.5 203,-0.5 0,-0.5"/>
<text text-anchor="start" x="8" y="-29.5" font-family="Helvetica,sans-Serif" font-size="10.00">rawspeed::anonymous</text>
<text text-anchor="start" x="8" y="-18.5" font-family="Helvetica,sans-Serif" font-size="10.00">_namespace{PanasonicDecompressor</text>
<text text-anchor="middle" x="101.5" y="-7.5" font-family="Helvetica,sans-Serif" font-size="10.00">V6.cpp}::pana_cs6_page_decoder</text>
</a>
</g>
</g>
<!-- Node2 -->
<g id="node2" class="node">
<title>Node2</title>
<g id="a_node2"><a xlink:title=" ">
<polygon fill="none" stroke="#bfbfbf" points="16,-95 16,-114 101,-114 101,-95 16,-95"/>
<text text-anchor="middle" x="58.5" y="-102" font-family="Helvetica,sans-Serif" font-size="10.00">unsigned char</text>
</a>
</g>
</g>
<!-- Node2&#45;&gt;Node1 -->
<g id="edge1" class="edge">
<title>Node2&#45;&gt;Node1</title>
<path fill="none" stroke="#9a32cd" stroke-dasharray="5,2" d="M67.78,-85.91C74.63,-72.92 83.96,-55.24 91.07,-41.76"/>
<polygon fill="#9a32cd" stroke="#9a32cd" points="64.67,-84.3 63.1,-94.78 70.86,-87.57 64.67,-84.3"/>
<text text-anchor="middle" x="100.5" y="-63" font-family="Helvetica,sans-Serif" font-size="10.00"> current</text>
</g>
<!-- Node3 -->
<g id="node3" class="node">
<title>Node3</title>
<g id="a_node3"><a xlink:title=" ">
<polygon fill="none" stroke="#bfbfbf" points="119,-89.5 119,-119.5 224,-119.5 224,-89.5 119,-89.5"/>
<text text-anchor="start" x="127" y="-107.5" font-family="Helvetica,sans-Serif" font-size="10.00">std::array&lt; uint16</text>
<text text-anchor="middle" x="171.5" y="-96.5" font-family="Helvetica,sans-Serif" font-size="10.00">_t, 14 &gt;</text>
</a>
</g>
</g>
<!-- Node3&#45;&gt;Node1 -->
<g id="edge2" class="edge">
<title>Node3&#45;&gt;Node1</title>
<path fill="none" stroke="#9a32cd" stroke-dasharray="5,2" d="M152.69,-81.6C141.97,-69.11 128.64,-53.6 118.27,-41.53"/>
<polygon fill="#9a32cd" stroke="#9a32cd" points="150.14,-84 159.31,-89.3 155.45,-79.44 150.14,-84"/>
<text text-anchor="middle" x="170.5" y="-63" font-family="Helvetica,sans-Serif" font-size="10.00"> pixelbuffer</text>
</g>
<!-- Node4 -->
<g id="node4" class="node">
<title>Node4</title>
<g id="a_node4"><a xlink:href="../../d5/df4/classuint16__t.html" target="_top" xlink:title=" ">
<polygon fill="none" stroke="black" points="102.5,-167.5 102.5,-186.5 158.5,-186.5 158.5,-167.5 102.5,-167.5"/>
<text text-anchor="middle" x="130.5" y="-174.5" font-family="Helvetica,sans-Serif" font-size="10.00">uint16_t</text>
</a>
</g>
</g>
<!-- Node4&#45;&gt;Node3 -->
<g id="edge3" class="edge">
<title>Node4&#45;&gt;Node3</title>
<path fill="none" stroke="#9a32cd" stroke-dasharray="5,2" d="M134.02,-157.52C135.71,-151.08 138.13,-143.98 141.5,-138 145.27,-131.31 150.68,-124.89 155.86,-119.55"/>
<polygon fill="#9a32cd" stroke="#9a32cd" points="130.58,-156.88 131.81,-167.41 137.41,-158.41 130.58,-156.88"/>
<text text-anchor="middle" x="166" y="-141" font-family="Helvetica,sans-Serif" font-size="10.00"> elements</text>
</g>
<!-- Node5 -->
<g id="node5" class="node">
<title>Node5</title>
<g id="a_node5"><a xlink:title="STL class.">
<polygon fill="none" stroke="#bfbfbf" points="176.5,-167.5 176.5,-186.5 268.5,-186.5 268.5,-167.5 176.5,-167.5"/>
<text text-anchor="middle" x="222.5" y="-174.5" font-family="Helvetica,sans-Serif" font-size="10.00">std::array&lt; T &gt;</text>
</a>
</g>
</g>
<!-- Node5&#45;&gt;Node3 -->
<g id="edge4" class="edge">
<title>Node5&#45;&gt;Node3</title>
<path fill="none" stroke="orange" stroke-dasharray="5,2" d="M210.23,-159.04C201.5,-146.97 189.9,-130.94 181.68,-119.58"/>
<polygon fill="orange" stroke="orange" points="207.55,-161.3 216.25,-167.36 213.22,-157.2 207.55,-161.3"/>
<text text-anchor="middle" x="243.5" y="-141" font-family="Helvetica,sans-Serif" font-size="10.00"> &lt; uint16_t, 14 &gt;</text>
</g>
<!-- Node6 -->
<g id="node6" class="node">
<title>Node6</title>
<g id="a_node6"><a xlink:title=" ">
<polygon fill="none" stroke="#bfbfbf" points="208,-234.5 208,-253.5 237,-253.5 237,-234.5 208,-234.5"/>
<text text-anchor="middle" x="222.5" y="-241.5" font-family="Helvetica,sans-Serif" font-size="10.00">T</text>
</a>
</g>
</g>
<!-- Node6&#45;&gt;Node5 -->
<g id="edge5" class="edge">
<title>Node6&#45;&gt;Node5</title>
<path fill="none" stroke="#9a32cd" stroke-dasharray="5,2" d="M222.5,-224.04C222.5,-211.67 222.5,-196.12 222.5,-186.63"/>
<polygon fill="#9a32cd" stroke="#9a32cd" points="219,-224.23 222.5,-234.23 226,-224.23 219,-224.23"/>
<text text-anchor="middle" x="247" y="-208" font-family="Helvetica,sans-Serif" font-size="10.00"> elements</text>
</g>
</g>
</svg>
