<?xml version="1.0" encoding="UTF-8" standalone="no"?>
<!DOCTYPE svg PUBLIC "-//W3C//DTD SVG 1.1//EN"
 "http://www.w3.org/Graphics/SVG/1.1/DTD/svg11.dtd">
<!-- Generated by graphviz version 2.43.0 (0)
 -->
<!-- Title: rawspeed::PanasonicDecompressorV4::ProxyStream Pages: 1 -->
<svg width="500pt" height="307pt"
 viewBox="0.00 0.00 499.50 307.00" xmlns="http://www.w3.org/2000/svg" xmlns:xlink="http://www.w3.org/1999/xlink">
<g id="graph0" class="graph" transform="scale(1 1) rotate(0) translate(4 303)">
<title>rawspeed::PanasonicDecompressorV4::ProxyStream</title>
<!-- Node1 -->
<g id="node1" class="node">
<title>Node1</title>
<g id="a_node1"><a xlink:title=" ">
<polygon fill="#bfbfbf" stroke="black" points="276,-0.5 276,-30.5 465,-30.5 465,-0.5 276,-0.5"/>
<text text-anchor="start" x="284" y="-18.5" font-family="Helvetica,sans-Serif" font-size="10.00">rawspeed::PanasonicDecompressor</text>
<text text-anchor="middle" x="370.5" y="-7.5" font-family="Helvetica,sans-Serif" font-size="10.00">V4::ProxyStream</text>
</a>
</g>
</g>
<!-- Node2 -->
<g id="node2" class="node">
<title>Node2</title>
<g id="a_node2"><a xlink:title=" ">
<polygon fill="none" stroke="#bfbfbf" points="63,-78.5 63,-97.5 188,-97.5 188,-78.5 63,-78.5"/>
<text text-anchor="middle" x="125.5" y="-85.5" font-family="Helvetica,sans-Serif" font-size="10.00">std::vector&lt; uint8_t &gt;</text>
</a>
</g>
</g>
<!-- Node2&#45;&gt;Node1 -->
<g id="edge1" class="edge">
<title>Node2&#45;&gt;Node1</title>
<path fill="none" stroke="#9a32cd" stroke-dasharray="5,2" d="M164.8,-75.69C207.5,-63.4 275.77,-43.76 321.83,-30.51"/>
<polygon fill="#9a32cd" stroke="#9a32cd" points="163.69,-72.37 155.05,-78.5 165.63,-79.09 163.69,-72.37"/>
<text text-anchor="middle" x="265" y="-52" font-family="Helvetica,sans-Serif" font-size="10.00"> buf</text>
</g>
<!-- Node3 -->
<g id="node3" class="node">
<title>Node3</title>
<g id="a_node3"><a xlink:title=" ">
<polygon fill="none" stroke="#bfbfbf" points="111.5,-279.5 111.5,-298.5 161.5,-298.5 161.5,-279.5 111.5,-279.5"/>
<text text-anchor="middle" x="136.5" y="-286.5" font-family="Helvetica,sans-Serif" font-size="10.00">uint8_t</text>
</a>
</g>
</g>
<!-- Node3&#45;&gt;Node2 -->
<g id="edge2" class="edge">
<title>Node3&#45;&gt;Node2</title>
<path fill="none" stroke="#9a32cd" stroke-dasharray="5,2" d="M135.47,-269.3C133.16,-227.51 127.65,-127.83 125.98,-97.74"/>
<polygon fill="#9a32cd" stroke="#9a32cd" points="131.98,-269.66 136.03,-279.45 138.97,-269.27 131.98,-269.66"/>
<text text-anchor="middle" x="156" y="-186" font-family="Helvetica,sans-Serif" font-size="10.00"> elements</text>
</g>
<!-- Node9 -->
<g id="node9" class="node">
<title>Node9</title>
<g id="a_node9"><a xlink:href="../../d3/dca/classrawspeed_1_1_buffer.html" target="_top" xlink:title=" ">
<polygon fill="none" stroke="black" points="159,-212.5 159,-231.5 258,-231.5 258,-212.5 159,-212.5"/>
<text text-anchor="middle" x="208.5" y="-219.5" font-family="Helvetica,sans-Serif" font-size="10.00">rawspeed::Buffer</text>
</a>
</g>
</g>
<!-- Node3&#45;&gt;Node9 -->
<g id="edge11" class="edge">
<title>Node3&#45;&gt;Node9</title>
<path fill="none" stroke="#9a32cd" stroke-dasharray="5,2" d="M153.83,-272.36C167.98,-259.58 187.46,-241.99 198.94,-231.63"/>
<polygon fill="#9a32cd" stroke="#9a32cd" points="151.29,-269.93 146.21,-279.23 155.98,-275.13 151.29,-269.93"/>
<text text-anchor="middle" x="190" y="-253" font-family="Helvetica,sans-Serif" font-size="10.00"> data</text>
</g>
<!-- Node4 -->
<g id="node4" class="node">
<title>Node4</title>
<g id="a_node4"><a xlink:title="STL class.">
<polygon fill="none" stroke="#bfbfbf" points="0,-145.5 0,-164.5 97,-164.5 97,-145.5 0,-145.5"/>
<text text-anchor="middle" x="48.5" y="-152.5" font-family="Helvetica,sans-Serif" font-size="10.00">std::vector&lt; T &gt;</text>
</a>
</g>
</g>
<!-- Node4&#45;&gt;Node2 -->
<g id="edge3" class="edge">
<title>Node4&#45;&gt;Node2</title>
<path fill="none" stroke="orange" stroke-dasharray="5,2" d="M46.02,-134.97C46.13,-128.39 47.45,-121.33 51.5,-116 58.04,-107.4 67.59,-101.53 77.67,-97.54"/>
<polygon fill="orange" stroke="orange" points="42.54,-135.47 46.7,-145.22 49.53,-135.01 42.54,-135.47"/>
<text text-anchor="middle" x="81.5" y="-119" font-family="Helvetica,sans-Serif" font-size="10.00"> &lt; uint8_t &gt;</text>
</g>
<!-- Node5 -->
<g id="node5" class="node">
<title>Node5</title>
<g id="a_node5"><a xlink:title=" ">
<polygon fill="none" stroke="#bfbfbf" points="34,-212.5 34,-231.5 63,-231.5 63,-212.5 34,-212.5"/>
<text text-anchor="middle" x="48.5" y="-219.5" font-family="Helvetica,sans-Serif" font-size="10.00">T</text>
</a>
</g>
</g>
<!-- Node5&#45;&gt;Node4 -->
<g id="edge4" class="edge">
<title>Node5&#45;&gt;Node4</title>
<path fill="none" stroke="#9a32cd" stroke-dasharray="5,2" d="M48.5,-202.04C48.5,-189.67 48.5,-174.12 48.5,-164.63"/>
<polygon fill="#9a32cd" stroke="#9a32cd" points="45,-202.23 48.5,-212.23 52,-202.23 45,-202.23"/>
<text text-anchor="middle" x="73" y="-186" font-family="Helvetica,sans-Serif" font-size="10.00"> elements</text>
</g>
<!-- Node6 -->
<g id="node6" class="node">
<title>Node6</title>
<g id="a_node6"><a xlink:href="../../d3/d87/classuint32__t.html" target="_top" xlink:title=" ">
<polygon fill="none" stroke="black" points="325.5,-279.5 325.5,-298.5 381.5,-298.5 381.5,-279.5 325.5,-279.5"/>
<text text-anchor="middle" x="353.5" y="-286.5" font-family="Helvetica,sans-Serif" font-size="10.00">uint32_t</text>
</a>
</g>
</g>
<!-- Node6&#45;&gt;Node1 -->
<g id="edge5" class="edge">
<title>Node6&#45;&gt;Node1</title>
<path fill="none" stroke="#9a32cd" stroke-dasharray="5,2" d="M370.38,-271.84C381.3,-259.6 393.5,-241.73 393.5,-223 393.5,-223 393.5,-223 393.5,-87 393.5,-66.66 384.74,-44.57 378.03,-30.64"/>
<polygon fill="#9a32cd" stroke="#9a32cd" points="367.57,-269.72 363.18,-279.36 372.62,-274.56 367.57,-269.72"/>
<text text-anchor="middle" x="442.5" y="-152.5" font-family="Helvetica,sans-Serif" font-size="10.00"> section_split_offset</text>
</g>
<!-- Node6&#45;&gt;Node9 -->
<g id="edge9" class="edge">
<title>Node6&#45;&gt;Node9</title>
<path fill="none" stroke="#9a32cd" stroke-dasharray="5,2" d="M324.75,-275.11C296.03,-262.24 252.68,-242.81 227.83,-231.67"/>
<polygon fill="#9a32cd" stroke="#9a32cd" points="323.69,-278.47 334.25,-279.37 326.55,-272.08 323.69,-278.47"/>
<text text-anchor="middle" x="302" y="-253" font-family="Helvetica,sans-Serif" font-size="10.00"> size</text>
</g>
<!-- Node7 -->
<g id="node7" class="node">
<title>Node7</title>
<g id="a_node7"><a xlink:href="../../dd/da0/classrawspeed_1_1_byte_stream.html" target="_top" xlink:title=" ">
<polygon fill="none" stroke="black" points="237.5,-78.5 237.5,-97.5 365.5,-97.5 365.5,-78.5 237.5,-78.5"/>
<text text-anchor="middle" x="301.5" y="-85.5" font-family="Helvetica,sans-Serif" font-size="10.00">rawspeed::ByteStream</text>
</a>
</g>
</g>
<!-- Node7&#45;&gt;Node1 -->
<g id="edge6" class="edge">
<title>Node7&#45;&gt;Node1</title>
<path fill="none" stroke="#9a32cd" stroke-dasharray="5,2" d="M317.07,-71.09C328.99,-58.91 345.27,-42.27 356.72,-30.58"/>
<polygon fill="#9a32cd" stroke="#9a32cd" points="314.45,-68.76 309.96,-78.36 319.46,-73.66 314.45,-68.76"/>
<text text-anchor="middle" x="352.5" y="-52" font-family="Helvetica,sans-Serif" font-size="10.00"> block</text>
</g>
<!-- Node8 -->
<g id="node8" class="node">
<title>Node8</title>
<g id="a_node8"><a xlink:href="../../d1/dd4/classrawspeed_1_1_data_buffer.html" target="_top" xlink:title=" ">
<polygon fill="none" stroke="black" points="153.5,-145.5 153.5,-164.5 275.5,-164.5 275.5,-145.5 153.5,-145.5"/>
<text text-anchor="middle" x="214.5" y="-152.5" font-family="Helvetica,sans-Serif" font-size="10.00">rawspeed::DataBuffer</text>
</a>
</g>
</g>
<!-- Node8&#45;&gt;Node7 -->
<g id="edge7" class="edge">
<title>Node8&#45;&gt;Node7</title>
<path fill="none" stroke="midnightblue" d="M234.49,-139.07C251.66,-126.24 275.82,-108.19 289.95,-97.63"/>
<polygon fill="midnightblue" stroke="midnightblue" points="232.15,-136.44 226.23,-145.23 236.34,-142.05 232.15,-136.44"/>
</g>
<!-- Node9&#45;&gt;Node8 -->
<g id="edge8" class="edge">
<title>Node9&#45;&gt;Node8</title>
<path fill="none" stroke="midnightblue" d="M210.25,-202.04C211.39,-189.67 212.83,-174.12 213.7,-164.63"/>
<polygon fill="midnightblue" stroke="midnightblue" points="206.74,-201.95 209.31,-212.23 213.71,-202.6 206.74,-201.95"/>
</g>
<!-- Node10 -->
<g id="node10" class="node">
<title>Node10</title>
<g id="a_node10"><a xlink:title=" ">
<polygon fill="none" stroke="#bfbfbf" points="189.5,-279.5 189.5,-298.5 227.5,-298.5 227.5,-279.5 189.5,-279.5"/>
<text text-anchor="middle" x="208.5" y="-286.5" font-family="Helvetica,sans-Serif" font-size="10.00">bool</text>
</a>
</g>
</g>
<!-- Node10&#45;&gt;Node9 -->
<g id="edge10" class="edge">
<title>Node10&#45;&gt;Node9</title>
<path fill="none" stroke="#9a32cd" stroke-dasharray="5,2" d="M208.5,-269.04C208.5,-256.67 208.5,-241.12 208.5,-231.63"/>
<polygon fill="#9a32cd" stroke="#9a32cd" points="205,-269.23 208.5,-279.23 212,-269.23 205,-269.23"/>
<text text-anchor="middle" x="230" y="-253" font-family="Helvetica,sans-Serif" font-size="10.00"> isOwner</text>
</g>
<!-- Node11 -->
<g id="node11" class="node">
<title>Node11</title>
<g id="a_node11"><a xlink:title=" ">
<polygon fill="none" stroke="#bfbfbf" points="276.5,-212.5 276.5,-231.5 348.5,-231.5 348.5,-212.5 276.5,-212.5"/>
<text text-anchor="middle" x="312.5" y="-219.5" font-family="Helvetica,sans-Serif" font-size="10.00">Endianness</text>
</a>
</g>
</g>
<!-- Node11&#45;&gt;Node8 -->
<g id="edge12" class="edge">
<title>Node11&#45;&gt;Node8</title>
<path fill="none" stroke="#9a32cd" stroke-dasharray="5,2" d="M290.78,-206.59C271.39,-193.74 243.64,-175.33 227.51,-164.63"/>
<polygon fill="#9a32cd" stroke="#9a32cd" points="289.02,-209.62 299.28,-212.23 292.88,-203.79 289.02,-209.62"/>
<text text-anchor="middle" x="299" y="-186" font-family="Helvetica,sans-Serif" font-size="10.00"> endianness</text>
</g>
<!-- Node12 -->
<g id="node12" class="node">
<title>Node12</title>
<g id="a_node12"><a xlink:title=" ">
<polygon fill="none" stroke="#bfbfbf" points="294,-145.5 294,-164.5 357,-164.5 357,-145.5 294,-145.5"/>
<text text-anchor="middle" x="325.5" y="-152.5" font-family="Helvetica,sans-Serif" font-size="10.00">size_type</text>
</a>
</g>
</g>
<!-- Node12&#45;&gt;Node7 -->
<g id="edge13" class="edge">
<title>Node12&#45;&gt;Node7</title>
<path fill="none" stroke="#9a32cd" stroke-dasharray="5,2" d="M318.78,-135.79C314.17,-123.31 308.26,-107.31 304.69,-97.63"/>
<polygon fill="#9a32cd" stroke="#9a32cd" points="315.52,-137.07 322.26,-145.23 322.08,-134.64 315.52,-137.07"/>
<text text-anchor="middle" x="326" y="-119" font-family="Helvetica,sans-Serif" font-size="10.00"> pos</text>
</g>
<!-- Node13 -->
<g id="node13" class="node">
<title>Node13</title>
<g id="a_node13"><a xlink:title=" ">
<polygon fill="none" stroke="#bfbfbf" points="422,-78.5 422,-97.5 451,-97.5 451,-78.5 422,-78.5"/>
<text text-anchor="middle" x="436.5" y="-85.5" font-family="Helvetica,sans-Serif" font-size="10.00">int</text>
</a>
</g>
</g>
<!-- Node13&#45;&gt;Node1 -->
<g id="edge14" class="edge">
<title>Node13&#45;&gt;Node1</title>
<path fill="none" stroke="#9a32cd" stroke-dasharray="5,2" d="M424.66,-70.01C419.65,-63.23 413.57,-55.51 407.5,-49 401.55,-42.62 394.47,-36.17 388.1,-30.71"/>
<polygon fill="#9a32cd" stroke="#9a32cd" points="422.05,-72.38 430.73,-78.47 427.74,-68.3 422.05,-72.38"/>
<text text-anchor="middle" x="430.5" y="-52" font-family="Helvetica,sans-Serif" font-size="10.00"> vbits</text>
</g>
</g>
</svg>
