<?xml version="1.0" encoding="UTF-8" standalone="no"?>
<!DOCTYPE svg PUBLIC "-//W3C//DTD SVG 1.1//EN"
 "http://www.w3.org/Graphics/SVG/1.1/DTD/svg11.dtd">
<!-- Generated by graphviz version 2.43.0 (0)
 -->
<!-- Title: LLVMFuzzerTestOneInput Pages: 1 -->
<!--zoomable 411 -->
<svg id="main" version="1.1" xmlns="http://www.w3.org/2000/svg" xmlns:xlink="http://www.w3.org/1999/xlink" xml:space="preserve" onload="init(evt)">
<style type="text/css"><![CDATA[
.edge:hover path { stroke: red; }
.edge:hover polygon { stroke: red; fill: red; }
]]></style>
<script type="text/javascript"><![CDATA[
var edges = document.getElementsByTagName('g');
if (edges && edges.length) {
  for (var i=0;i<edges.length;i++) {
    if (edges[i].id.substr(0,4)=='edge') {
      edges[i].setAttribute('class','edge');
    }
  }
}
]]></script>
        <defs>
                <circle id="rim" cx="0" cy="0" r="7"/>
                <circle id="rim2" cx="0" cy="0" r="3.5"/>
                <g id="zoomPlus">
                        <use xlink:href="#rim" fill="#404040">
                                <set attributeName="fill" to="#808080" begin="zoomplus.mouseover" end="zoomplus.mouseout"/>
                        </use>
                        <path d="M-4,0h8M0,-4v8" fill="none" stroke="white" stroke-width="1.5" pointer-events="none"/>
                </g>
                <g id="zoomMin">
                        <use xlink:href="#rim" fill="#404040">
                                <set attributeName="fill" to="#808080" begin="zoomminus.mouseover" end="zoomminus.mouseout"/>
                        </use>
                        <path d="M-4,0h8" fill="none" stroke="white" stroke-width="1.5" pointer-events="none"/>
                </g>
                <g id="dirArrow">
                        <path fill="none" stroke="white" stroke-width="1.5" d="M0,-3.0v7 M-2.5,-0.5L0,-3.0L2.5,-0.5"/>
                </g>
               <g id="resetDef">
                       <use xlink:href="#rim2" fill="#404040">
                               <set attributeName="fill" to="#808080" begin="reset.mouseover" end="reset.mouseout"/>
                       </use>
               </g>
        </defs>

<script type="text/javascript">
var viewWidth = 742;
var viewHeight = 411;
var sectionId = 'dynsection-1';
</script>
<script xlink:href="../../svgpan.js"/>
<svg id="graph" class="graph">
<g id="viewport">
<title>LLVMFuzzerTestOneInput</title>
<!-- Node1 -->
<g id="node1" class="node">
<title>Node1</title>
<g id="a_node1"><a xlink:title=" ">
<polygon fill="#bfbfbf" stroke="black" points="0,-236 0,-255 136,-255 136,-236 0,-236"/>
<text text-anchor="middle" x="68" y="-243" font-family="Helvetica,sans-Serif" font-size="10.00">LLVMFuzzerTestOneInput</text>
</a>
</g>
</g>
<!-- Node2 -->
<g id="node2" class="node">
<title>Node2</title>
<g id="a_node2"><a xlink:href="../../dd/da0/classrawspeed_1_1_byte_stream.html#a804858089e7e6c442815d46128cca1ed" target="_top" xlink:title=" ">
<polygon fill="none" stroke="black" points="202.5,-372.5 202.5,-402.5 330.5,-402.5 330.5,-372.5 202.5,-372.5"/>
<text text-anchor="start" x="210.5" y="-390.5" font-family="Helvetica,sans-Serif" font-size="10.00">rawspeed::ByteStream</text>
<text text-anchor="middle" x="266.5" y="-379.5" font-family="Helvetica,sans-Serif" font-size="10.00">::ByteStream</text>
</a>
</g>
</g>
<!-- Node1&#45;&gt;Node2 -->
<g id="edge1" class="edge">
<title>Node1&#45;&gt;Node2</title>
<path fill="none" stroke="midnightblue" d="M74.57,-255.19C88.14,-277.87 125.24,-334.69 172,-363.5 178.28,-367.37 185.16,-370.62 192.25,-373.34"/>
<polygon fill="midnightblue" stroke="midnightblue" points="191.42,-376.76 202.02,-376.74 193.73,-370.15 191.42,-376.76"/>
</g>
<!-- Node3 -->
<g id="node3" class="node">
<title>Node3</title>
<g id="a_node3"><a xlink:href="../../dc/d44/classrawspeed_1_1_raw_image_data.html#a9c4e731cd919ff9b06fe440284b2e8c8" target="_top" xlink:title=" ">
<polygon fill="none" stroke="black" points="194,-323.5 194,-353.5 339,-353.5 339,-323.5 194,-323.5"/>
<text text-anchor="start" x="202" y="-341.5" font-family="Helvetica,sans-Serif" font-size="10.00">rawspeed::RawImageData</text>
<text text-anchor="middle" x="266.5" y="-330.5" font-family="Helvetica,sans-Serif" font-size="10.00">::checkMemIsInitialized</text>
</a>
</g>
</g>
<!-- Node1&#45;&gt;Node3 -->
<g id="edge2" class="edge">
<title>Node1&#45;&gt;Node3</title>
<path fill="none" stroke="midnightblue" d="M80.58,-255.21C98.86,-270.07 136.05,-298.41 172,-314.5 176.45,-316.49 181.1,-318.34 185.84,-320.05"/>
<polygon fill="midnightblue" stroke="midnightblue" points="185.07,-323.49 195.67,-323.38 187.32,-316.86 185.07,-323.49"/>
</g>
<!-- Node4 -->
<g id="node4" class="node">
<title>Node4</title>
<g id="a_node4"><a xlink:href="../../dc/d44/classrawspeed_1_1_raw_image_data.html#af7cbbd3ab6bb415e7e1b1f58a285084f" target="_top" xlink:title=" ">
<polygon fill="none" stroke="black" points="194,-274.5 194,-304.5 339,-304.5 339,-274.5 194,-274.5"/>
<text text-anchor="start" x="202" y="-292.5" font-family="Helvetica,sans-Serif" font-size="10.00">rawspeed::RawImageData</text>
<text text-anchor="middle" x="266.5" y="-281.5" font-family="Helvetica,sans-Serif" font-size="10.00">::createData</text>
</a>
</g>
</g>
<!-- Node1&#45;&gt;Node4 -->
<g id="edge3" class="edge">
<title>Node1&#45;&gt;Node4</title>
<path fill="none" stroke="midnightblue" d="M111.64,-255.05C134.06,-260.07 162.24,-266.38 188.34,-272.22"/>
<polygon fill="midnightblue" stroke="midnightblue" points="187.7,-275.66 198.22,-274.43 189.23,-268.83 187.7,-275.66"/>
</g>
<!-- Node7 -->
<g id="node7" class="node">
<title>Node7</title>
<g id="a_node7"><a xlink:href="../../d9/d5a/fuzz_2librawspeed_2fuzz_2_common_8cpp.html#a9b5193764409a69db1176954187dad97" target="_top" xlink:title=" ">
<polygon fill="none" stroke="black" points="216,-168 216,-187 317,-187 317,-168 216,-168"/>
<text text-anchor="middle" x="266.5" y="-175" font-family="Helvetica,sans-Serif" font-size="10.00">CreateRawImage</text>
</a>
</g>
</g>
<!-- Node1&#45;&gt;Node7 -->
<g id="edge6" class="edge">
<title>Node1&#45;&gt;Node7</title>
<path fill="none" stroke="midnightblue" d="M96.74,-235.9C131.12,-224 189.84,-203.68 228.15,-190.42"/>
<polygon fill="midnightblue" stroke="midnightblue" points="229.6,-193.63 237.9,-187.05 227.31,-187.01 229.6,-193.63"/>
</g>
<!-- Node10 -->
<g id="node10" class="node">
<title>Node10</title>
<g id="a_node10"><a xlink:href="../../dd/da0/classrawspeed_1_1_byte_stream.html#ac598b7b6f0f8fd5476adb7c1363b1518" target="_top" xlink:title=" ">
<polygon fill="none" stroke="black" points="427.5,-245.5 427.5,-275.5 555.5,-275.5 555.5,-245.5 427.5,-245.5"/>
<text text-anchor="start" x="435.5" y="-263.5" font-family="Helvetica,sans-Serif" font-size="10.00">rawspeed::ByteStream</text>
<text text-anchor="middle" x="491.5" y="-252.5" font-family="Helvetica,sans-Serif" font-size="10.00">::getU32</text>
</a>
</g>
</g>
<!-- Node1&#45;&gt;Node10 -->
<g id="edge15" class="edge">
<title>Node1&#45;&gt;Node10</title>
<path fill="none" stroke="midnightblue" d="M136.25,-247.89C212.88,-250.62 337.71,-255.06 416.89,-257.88"/>
<polygon fill="midnightblue" stroke="midnightblue" points="417.16,-261.39 427.27,-258.25 417.41,-254.4 417.16,-261.39"/>
</g>
<!-- Node12 -->
<g id="node12" class="node">
<title>Node12</title>
<g id="a_node12"><a xlink:href="../../dd/d12/classrawspeed_1_1_raw_image.html#a2907002b5c707eca6939061f8b0d5e5d" target="_top" xlink:title=" ">
<polygon fill="none" stroke="black" points="430.5,-49.5 430.5,-79.5 552.5,-79.5 552.5,-49.5 430.5,-49.5"/>
<text text-anchor="start" x="438.5" y="-67.5" font-family="Helvetica,sans-Serif" font-size="10.00">rawspeed::RawImage</text>
<text text-anchor="middle" x="491.5" y="-56.5" font-family="Helvetica,sans-Serif" font-size="10.00">::operator&#45;&gt;</text>
</a>
</g>
</g>
<!-- Node1&#45;&gt;Node12 -->
<g id="edge16" class="edge">
<title>Node1&#45;&gt;Node12</title>
<path fill="none" stroke="midnightblue" d="M77.7,-235.94C94.34,-218.2 132.55,-180.03 172,-158.5 251.55,-115.1 353.48,-89.56 420.32,-76.3"/>
<polygon fill="midnightblue" stroke="midnightblue" points="421.18,-79.7 430.33,-74.36 419.85,-72.83 421.18,-79.7"/>
</g>
<!-- Node14 -->
<g id="node14" class="node">
<title>Node14</title>
<g id="a_node14"><a xlink:href="../../d2/dde/classrawspeed_1_1_phase_one_decompressor.html#a5411d58fa1d2cea449ee7874f6c6c306" target="_top" xlink:title=" ">
<polygon fill="none" stroke="black" points="172,-32.5 172,-62.5 361,-62.5 361,-32.5 172,-32.5"/>
<text text-anchor="start" x="180" y="-50.5" font-family="Helvetica,sans-Serif" font-size="10.00">rawspeed::PhaseOneDecompressor</text>
<text text-anchor="middle" x="266.5" y="-39.5" font-family="Helvetica,sans-Serif" font-size="10.00">::decompress</text>
</a>
</g>
</g>
<!-- Node1&#45;&gt;Node14 -->
<g id="edge13" class="edge">
<title>Node1&#45;&gt;Node14</title>
<path fill="none" stroke="midnightblue" d="M74.78,-235.72C89.09,-212.06 128.17,-150.66 172,-109.5 189.08,-93.46 210.76,-78.8 228.94,-67.77"/>
<polygon fill="midnightblue" stroke="midnightblue" points="230.74,-70.77 237.55,-62.65 227.16,-64.75 230.74,-70.77"/>
</g>
<!-- Node5 -->
<g id="node5" class="node">
<title>Node5</title>
<g id="a_node5"><a xlink:href="../../dc/d44/classrawspeed_1_1_raw_image_data.html#a724d8812aca44f04e6aeb965daeab36d" target="_top" xlink:title=" ">
<polygon fill="none" stroke="black" points="419,-343.5 419,-373.5 564,-373.5 564,-343.5 419,-343.5"/>
<text text-anchor="start" x="427" y="-361.5" font-family="Helvetica,sans-Serif" font-size="10.00">rawspeed::RawImageData</text>
<text text-anchor="middle" x="491.5" y="-350.5" font-family="Helvetica,sans-Serif" font-size="10.00">::getData</text>
</a>
</g>
</g>
<!-- Node4&#45;&gt;Node5 -->
<g id="edge4" class="edge">
<title>Node4&#45;&gt;Node5</title>
<path fill="none" stroke="midnightblue" d="M332.06,-304.53C341.89,-307.45 351.81,-310.78 361,-314.5 377.97,-321.36 380,-327.72 397,-334.5 402.34,-336.63 407.92,-338.61 413.59,-340.46"/>
<polygon fill="midnightblue" stroke="midnightblue" points="412.59,-343.82 423.18,-343.44 414.67,-337.13 412.59,-343.82"/>
</g>
<!-- Node6 -->
<g id="node6" class="node">
<title>Node6</title>
<g id="a_node6"><a xlink:href="../../dc/d44/classrawspeed_1_1_raw_image_data.html#a383099b27aea42a05858e18b6cf69c96" target="_top" xlink:title=" ">
<polygon fill="none" stroke="black" points="419,-294.5 419,-324.5 564,-324.5 564,-294.5 419,-294.5"/>
<text text-anchor="start" x="427" y="-312.5" font-family="Helvetica,sans-Serif" font-size="10.00">rawspeed::RawImageData</text>
<text text-anchor="middle" x="491.5" y="-301.5" font-family="Helvetica,sans-Serif" font-size="10.00">::poisonPadding</text>
</a>
</g>
</g>
<!-- Node4&#45;&gt;Node6 -->
<g id="edge5" class="edge">
<title>Node4&#45;&gt;Node6</title>
<path fill="none" stroke="midnightblue" d="M339.29,-295.94C361.47,-297.93 386.06,-300.13 408.86,-302.18"/>
<polygon fill="midnightblue" stroke="midnightblue" points="408.58,-305.67 418.85,-303.07 409.2,-298.69 408.58,-305.67"/>
</g>
<!-- Node8 -->
<g id="node8" class="node">
<title>Node8</title>
<g id="a_node8"><a xlink:href="../../dd/d12/classrawspeed_1_1_raw_image.html#a4a7b73d675f5ac9c8730a9b7f60c3d82" target="_top" xlink:title=" ">
<polygon fill="none" stroke="black" points="430.5,-196.5 430.5,-226.5 552.5,-226.5 552.5,-196.5 430.5,-196.5"/>
<text text-anchor="start" x="438.5" y="-214.5" font-family="Helvetica,sans-Serif" font-size="10.00">rawspeed::RawImage</text>
<text text-anchor="middle" x="491.5" y="-203.5" font-family="Helvetica,sans-Serif" font-size="10.00">::create</text>
</a>
</g>
</g>
<!-- Node7&#45;&gt;Node8 -->
<g id="edge7" class="edge">
<title>Node7&#45;&gt;Node8</title>
<path fill="none" stroke="midnightblue" d="M317.27,-185.09C347.51,-189.7 386.61,-195.66 420,-200.75"/>
<polygon fill="midnightblue" stroke="midnightblue" points="419.76,-204.25 430.17,-202.3 420.81,-197.33 419.76,-204.25"/>
</g>
<!-- Node7&#45;&gt;Node10 -->
<g id="edge9" class="edge">
<title>Node7&#45;&gt;Node10</title>
<path fill="none" stroke="midnightblue" d="M285.95,-187.16C310.69,-199.82 356.23,-222.11 397,-236.5 403.68,-238.86 410.71,-241.09 417.78,-243.18"/>
<polygon fill="midnightblue" stroke="midnightblue" points="416.85,-246.55 427.43,-245.93 418.77,-239.82 416.85,-246.55"/>
</g>
<!-- Node11 -->
<g id="node11" class="node">
<title>Node11</title>
<g id="a_node11"><a xlink:href="../../d8/d75/classrawspeed_1_1i_point2_d.html#ab980cc8ab2f3502a5a2c230530ba2a64" target="_top" xlink:title=" ">
<polygon fill="none" stroke="black" points="436,-147.5 436,-177.5 547,-177.5 547,-147.5 436,-147.5"/>
<text text-anchor="start" x="444" y="-165.5" font-family="Helvetica,sans-Serif" font-size="10.00">rawspeed::iPoint2D</text>
<text text-anchor="middle" x="491.5" y="-154.5" font-family="Helvetica,sans-Serif" font-size="10.00">::iPoint2D</text>
</a>
</g>
</g>
<!-- Node7&#45;&gt;Node11 -->
<g id="edge10" class="edge">
<title>Node7&#45;&gt;Node11</title>
<path fill="none" stroke="midnightblue" d="M317.27,-174.15C349.28,-172 391.21,-169.18 425.79,-166.85"/>
<polygon fill="midnightblue" stroke="midnightblue" points="426.06,-170.34 435.8,-166.18 425.59,-163.36 426.06,-170.34"/>
</g>
<!-- Node7&#45;&gt;Node12 -->
<g id="edge11" class="edge">
<title>Node7&#45;&gt;Node12</title>
<path fill="none" stroke="midnightblue" d="M300.92,-167.97C319.85,-161.46 343.23,-151.46 361,-137.5 381.97,-121.03 374.91,-104.43 397,-89.5 404.18,-84.65 412.27,-80.73 420.6,-77.58"/>
<polygon fill="midnightblue" stroke="midnightblue" points="421.75,-80.89 430.07,-74.33 419.48,-74.26 421.75,-80.89"/>
</g>
<!-- Node13 -->
<g id="node13" class="node">
<title>Node13</title>
<g id="a_node13"><a xlink:href="../../dc/d44/classrawspeed_1_1_raw_image_data.html#a180f90ba4cf9e6e6ff1c307f6106f4ed" target="_top" xlink:title=" ">
<polygon fill="none" stroke="black" points="419,-98.5 419,-128.5 564,-128.5 564,-98.5 419,-98.5"/>
<text text-anchor="start" x="427" y="-116.5" font-family="Helvetica,sans-Serif" font-size="10.00">rawspeed::RawImageData</text>
<text text-anchor="middle" x="491.5" y="-105.5" font-family="Helvetica,sans-Serif" font-size="10.00">::setCpp</text>
</a>
</g>
</g>
<!-- Node7&#45;&gt;Node13 -->
<g id="edge12" class="edge">
<title>Node7&#45;&gt;Node13</title>
<path fill="none" stroke="midnightblue" d="M298.3,-167.93C324.48,-159.86 363.12,-148.13 397,-138.5 405.46,-136.1 414.36,-133.63 423.18,-131.23"/>
<polygon fill="midnightblue" stroke="midnightblue" points="424.33,-134.55 433.06,-128.55 422.5,-127.79 424.33,-134.55"/>
</g>
<!-- Node9 -->
<g id="node9" class="node">
<title>Node9</title>
<g id="a_node9"><a xlink:href="../../de/dc3/namespacerawspeed.html#a8a98a18f46994d6cae15ce24462fb7d4" target="_top" xlink:title=" ">
<polygon fill="none" stroke="black" points="622,-202 622,-221 734,-221 734,-202 622,-202"/>
<text text-anchor="middle" x="678" y="-209" font-family="Helvetica,sans-Serif" font-size="10.00">rawspeed::writeLog</text>
</a>
</g>
</g>
<!-- Node8&#45;&gt;Node9 -->
<g id="edge8" class="edge">
<title>Node8&#45;&gt;Node9</title>
<path fill="none" stroke="midnightblue" d="M552.66,-211.5C571.55,-211.5 592.5,-211.5 611.74,-211.5"/>
<polygon fill="midnightblue" stroke="midnightblue" points="611.92,-215 621.92,-211.5 611.92,-208 611.92,-215"/>
</g>
<!-- Node15 -->
<g id="node15" class="node">
<title>Node15</title>
<g id="a_node15"><a xlink:href="../../d2/dde/classrawspeed_1_1_phase_one_decompressor.html#a9ff64c2118eb28fbf87aca65aa181840" target="_top" xlink:title=" ">
<polygon fill="none" stroke="black" points="397,-0.5 397,-30.5 586,-30.5 586,-0.5 397,-0.5"/>
<text text-anchor="start" x="405" y="-18.5" font-family="Helvetica,sans-Serif" font-size="10.00">rawspeed::PhaseOneDecompressor</text>
<text text-anchor="middle" x="491.5" y="-7.5" font-family="Helvetica,sans-Serif" font-size="10.00">::decompressThread</text>
</a>
</g>
</g>
<!-- Node14&#45;&gt;Node15 -->
<g id="edge14" class="edge">
<title>Node14&#45;&gt;Node15</title>
<path fill="none" stroke="midnightblue" d="M361.1,-34.07C369.58,-32.85 378.21,-31.61 386.77,-30.39"/>
<polygon fill="midnightblue" stroke="midnightblue" points="387.38,-33.83 396.78,-28.95 386.38,-26.9 387.38,-33.83"/>
</g>
</g>
</svg>
        <g id="navigator" transform="translate(0 0)" fill="#404254">
                <rect fill="#f2f5e9" fill-opacity="0.5" stroke="#606060" stroke-width=".5" x="0" y="0" width="60" height="60"/>
                <use id="zoomplus" xlink:href="#zoomPlus" x="17" y="9" onmousedown="handleZoom(evt,'in')"/>
                <use id="zoomminus" xlink:href="#zoomMin" x="42" y="9" onmousedown="handleZoom(evt,'out')"/>
                <use id="reset" xlink:href="#resetDef" x="30" y="36" onmousedown="handleReset()"/>
                <g id="arrowUp" xlink:href="#dirArrow" transform="translate(30 24)" onmousedown="handlePan(0,-1)">
                  <use xlink:href="#rim" fill="#404040">
                        <set attributeName="fill" to="#808080" begin="arrowUp.mouseover" end="arrowUp.mouseout"/>
                  </use>
                  <path fill="none" stroke="white" stroke-width="1.5" d="M0,-3.0v7 M-2.5,-0.5L0,-3.0L2.5,-0.5"/>
                </g>
                <g id="arrowRight" xlink:href="#dirArrow" transform="rotate(90) translate(36 -43)" onmousedown="handlePan(1,0)">
                  <use xlink:href="#rim" fill="#404040">
                        <set attributeName="fill" to="#808080" begin="arrowRight.mouseover" end="arrowRight.mouseout"/>
                  </use>
                  <path fill="none" stroke="white" stroke-width="1.5" d="M0,-3.0v7 M-2.5,-0.5L0,-3.0L2.5,-0.5"/>
                </g>
                <g id="arrowDown" xlink:href="#dirArrow" transform="rotate(180) translate(-30 -48)" onmousedown="handlePan(0,1)">
                  <use xlink:href="#rim" fill="#404040">
                        <set attributeName="fill" to="#808080" begin="arrowDown.mouseover" end="arrowDown.mouseout"/>
                  </use>
                  <path fill="none" stroke="white" stroke-width="1.5" d="M0,-3.0v7 M-2.5,-0.5L0,-3.0L2.5,-0.5"/>
                </g>
                <g id="arrowLeft" xlink:href="#dirArrow" transform="rotate(270) translate(-36 17)" onmousedown="handlePan(-1,0)">
                  <use xlink:href="#rim" fill="#404040">
                        <set attributeName="fill" to="#808080" begin="arrowLeft.mouseover" end="arrowLeft.mouseout"/>
                  </use>
                  <path fill="none" stroke="white" stroke-width="1.5" d="M0,-3.0v7 M-2.5,-0.5L0,-3.0L2.5,-0.5"/>
                </g>
        </g>
        <svg viewBox="0 0 15 15" width="100%" height="30px" preserveAspectRatio="xMaxYMin meet">
         <g id="arrow_out" transform="scale(0.3 0.3)">
          <a xlink:href="fuzz_2librawspeed_2decompressors_2_phase_one_decompressor_8cpp_a1c473c9665269a78ef9001573a6995df_cgraph_org.svg" target="_base">
           <rect id="button" ry="5" rx="5" y="6" x="6" height="38" width="38"
                fill="#f2f5e9" fill-opacity="0.5" stroke="#606060" stroke-width="1.0"/>
           <path id="arrow"
             d="M 11.500037,31.436501 C 11.940474,20.09759 22.043105,11.32322 32.158766,21.979434 L 37.068811,17.246167 C 37.068811,17.246167 37.088388,32 37.088388,32 L 22.160133,31.978069 C 22.160133,31.978069 26.997745,27.140456 26.997745,27.140456 C 18.528582,18.264221 13.291696,25.230495 11.500037,31.436501 z"
             style="fill:#404040;"/>
          </a>
         </g>
        </svg>
</svg>
