<?xml version="1.0" encoding="UTF-8" standalone="no"?>
<!DOCTYPE svg PUBLIC "-//W3C//DTD SVG 1.1//EN"
 "http://www.w3.org/Graphics/SVG/1.1/DTD/svg11.dtd">
<!-- Generated by graphviz version 2.43.0 (0)
 -->
<!-- Title: rawspeed::LJpegDecompressor::decodeScan Pages: 1 -->
<svg width="356pt" height="88pt"
 viewBox="0.00 0.00 356.00 88.00" xmlns="http://www.w3.org/2000/svg" xmlns:xlink="http://www.w3.org/1999/xlink">
<g id="graph0" class="graph" transform="scale(1 1) rotate(0) translate(4 84)">
<title>rawspeed::LJpegDecompressor::decodeScan</title>
<!-- Node1 -->
<g id="node1" class="node">
<title>Node1</title>
<g id="a_node1"><a xlink:title=" ">
<polygon fill="#bfbfbf" stroke="black" points="0,-24.5 0,-54.5 167,-54.5 167,-24.5 0,-24.5"/>
<text text-anchor="start" x="8" y="-42.5" font-family="Helvetica,sans-Serif" font-size="10.00">rawspeed::LJpegDecompressor</text>
<text text-anchor="middle" x="83.5" y="-31.5" font-family="Helvetica,sans-Serif" font-size="10.00">::decodeScan</text>
</a>
</g>
</g>
<!-- Node2 -->
<g id="node2" class="node">
<title>Node2</title>
<g id="a_node2"><a xlink:href="../../dc/d44/classrawspeed_1_1_raw_image_data.html#a1d9a712a918374327fe3fe791318912f" target="_top" xlink:title=" ">
<polygon fill="none" stroke="black" points="203,-49.5 203,-79.5 348,-79.5 348,-49.5 203,-49.5"/>
<text text-anchor="start" x="211" y="-67.5" font-family="Helvetica,sans-Serif" font-size="10.00">rawspeed::RawImageData</text>
<text text-anchor="middle" x="275.5" y="-56.5" font-family="Helvetica,sans-Serif" font-size="10.00">::getCpp</text>
</a>
</g>
</g>
<!-- Node1&#45;&gt;Node2 -->
<g id="edge1" class="edge">
<title>Node1&#45;&gt;Node2</title>
<path fill="none" stroke="midnightblue" d="M167.01,-50.36C175.57,-51.48 184.28,-52.63 192.83,-53.75"/>
<polygon fill="midnightblue" stroke="midnightblue" points="192.42,-57.23 202.79,-55.06 193.34,-50.29 192.42,-57.23"/>
</g>
<!-- Node3 -->
<g id="node3" class="node">
<title>Node3</title>
<g id="a_node3"><a xlink:href="../../dd/d12/classrawspeed_1_1_raw_image.html#a2907002b5c707eca6939061f8b0d5e5d" target="_top" xlink:title=" ">
<polygon fill="none" stroke="black" points="214.5,-0.5 214.5,-30.5 336.5,-30.5 336.5,-0.5 214.5,-0.5"/>
<text text-anchor="start" x="222.5" y="-18.5" font-family="Helvetica,sans-Serif" font-size="10.00">rawspeed::RawImage</text>
<text text-anchor="middle" x="275.5" y="-7.5" font-family="Helvetica,sans-Serif" font-size="10.00">::operator&#45;&gt;</text>
</a>
</g>
</g>
<!-- Node1&#45;&gt;Node3 -->
<g id="edge2" class="edge">
<title>Node1&#45;&gt;Node3</title>
<path fill="none" stroke="midnightblue" d="M167.01,-29.08C179.45,-27.51 192.18,-25.9 204.33,-24.36"/>
<polygon fill="midnightblue" stroke="midnightblue" points="204.89,-27.82 214.38,-23.09 204.02,-20.88 204.89,-27.82"/>
</g>
</g>
</svg>
