<?xml version="1.0" encoding="UTF-8" standalone="no"?>
<!DOCTYPE svg PUBLIC "-//W3C//DTD SVG 1.1//EN"
 "http://www.w3.org/Graphics/SVG/1.1/DTD/svg11.dtd">
<!-- Generated by graphviz version 2.43.0 (0)
 -->
<!-- Title: rawspeed::ieee_754_2008::Binary16 Pages: 1 -->
<!--zoomable 188 -->
<svg id="main" version="1.1" xmlns="http://www.w3.org/2000/svg" xmlns:xlink="http://www.w3.org/1999/xlink" xml:space="preserve" onload="init(evt)">
<style type="text/css"><![CDATA[
.edge:hover path { stroke: red; }
.edge:hover polygon { stroke: red; fill: red; }
]]></style>
<script type="text/javascript"><![CDATA[
var edges = document.getElementsByTagName('g');
if (edges && edges.length) {
  for (var i=0;i<edges.length;i++) {
    if (edges[i].id.substr(0,4)=='edge') {
      edges[i].setAttribute('class','edge');
    }
  }
}
]]></script>
        <defs>
                <circle id="rim" cx="0" cy="0" r="7"/>
                <circle id="rim2" cx="0" cy="0" r="3.5"/>
                <g id="zoomPlus">
                        <use xlink:href="#rim" fill="#404040">
                                <set attributeName="fill" to="#808080" begin="zoomplus.mouseover" end="zoomplus.mouseout"/>
                        </use>
                        <path d="M-4,0h8M0,-4v8" fill="none" stroke="white" stroke-width="1.5" pointer-events="none"/>
                </g>
                <g id="zoomMin">
                        <use xlink:href="#rim" fill="#404040">
                                <set attributeName="fill" to="#808080" begin="zoomminus.mouseover" end="zoomminus.mouseout"/>
                        </use>
                        <path d="M-4,0h8" fill="none" stroke="white" stroke-width="1.5" pointer-events="none"/>
                </g>
                <g id="dirArrow">
                        <path fill="none" stroke="white" stroke-width="1.5" d="M0,-3.0v7 M-2.5,-0.5L0,-3.0L2.5,-0.5"/>
                </g>
               <g id="resetDef">
                       <use xlink:href="#rim2" fill="#404040">
                               <set attributeName="fill" to="#808080" begin="reset.mouseover" end="reset.mouseout"/>
                       </use>
               </g>
        </defs>

<script type="text/javascript">
var viewWidth = 744;
var viewHeight = 188;
var sectionId = 'dynsection-1';
</script>
<script xlink:href="../../svgpan.js"/>
<svg id="graph" class="graph">
<g id="viewport">
<title>rawspeed::ieee_754_2008::Binary16</title>
<!-- Node1 -->
<g id="node1" class="node">
<title>Node1</title>
<g id="a_node1"><a xlink:title=" ">
<polygon fill="#bfbfbf" stroke="black" points="622,-107.9 622,-137.9 736,-137.9 736,-107.9 622,-107.9"/>
<text text-anchor="start" x="630" y="-125.9" font-family="Helvetica,sans-Serif" font-size="10.00">rawspeed::ieee_754</text>
<text text-anchor="middle" x="679" y="-114.9" font-family="Helvetica,sans-Serif" font-size="10.00">_2008::Binary16</text>
</a>
</g>
</g>
<!-- Node2 -->
<g id="node2" class="node">
<title>Node2</title>
<g id="a_node2"><a xlink:href="../../d1/d79/structrawspeed_1_1ieee__754__2008_1_1_binary_n.html" target="_top" xlink:title=" ">
<polygon fill="none" stroke="black" points="468,-102.4 468,-143.4 585,-143.4 585,-102.4 468,-102.4"/>
<text text-anchor="start" x="476" y="-131.4" font-family="Helvetica,sans-Serif" font-size="10.00">rawspeed::ieee_754</text>
<text text-anchor="start" x="476" y="-120.4" font-family="Helvetica,sans-Serif" font-size="10.00">_2008::BinaryN&lt; 16,</text>
<text text-anchor="middle" x="526.5" y="-109.4" font-family="Helvetica,sans-Serif" font-size="10.00"> 10, 5 &gt;</text>
</a>
</g>
</g>
<!-- Node2&#45;&gt;Node1 -->
<g id="edge1" class="edge">
<title>Node2&#45;&gt;Node1</title>
<path fill="none" stroke="midnightblue" d="M595.45,-122.9C604.2,-122.9 613.1,-122.9 621.64,-122.9"/>
<polygon fill="midnightblue" stroke="midnightblue" points="595.26,-119.4 585.26,-122.9 595.26,-126.4 595.26,-119.4"/>
</g>
<!-- Node3 -->
<g id="node3" class="node">
<title>Node3</title>
<g id="a_node3"><a xlink:href="../../de/d73/classint32__t.html" target="_top" xlink:title=" ">
<polygon fill="none" stroke="black" points="3,-160.4 3,-179.4 53,-179.4 53,-160.4 3,-160.4"/>
<text text-anchor="middle" x="28" y="-167.4" font-family="Helvetica,sans-Serif" font-size="10.00">int32_t</text>
</a>
</g>
</g>
<!-- Node3&#45;&gt;Node2 -->
<g id="edge2" class="edge">
<title>Node3&#45;&gt;Node2</title>
<path fill="none" stroke="#9a32cd" stroke-dasharray="5,2" d="M63.41,-169C87.4,-168.31 120.16,-167.25 149,-165.9 244.63,-161.42 268.92,-164.03 364,-152.9 402.54,-148.39 411.86,-145.01 450,-137.9 455.78,-136.82 461.8,-135.67 467.82,-134.51"/>
<polygon fill="#9a32cd" stroke="#9a32cd" points="63.27,-165.5 53.37,-169.28 63.46,-172.5 63.27,-165.5"/>
<text text-anchor="middle" x="265.5" y="-167.9" font-family="Helvetica,sans-Serif" font-size="10.00"> Bias</text>
</g>
<!-- Node5 -->
<g id="node5" class="node">
<title>Node5</title>
<g id="a_node5"><a xlink:href="../../d1/d79/structrawspeed_1_1ieee__754__2008_1_1_binary_n.html" target="_top" xlink:title=" ">
<polygon fill="none" stroke="black" points="167,-102.4 167,-143.4 364,-143.4 364,-102.4 167,-102.4"/>
<text text-anchor="start" x="175" y="-131.4" font-family="Helvetica,sans-Serif" font-size="10.00">rawspeed::ieee_754</text>
<text text-anchor="start" x="175" y="-120.4" font-family="Helvetica,sans-Serif" font-size="10.00">_2008::BinaryN&lt; StorageWidth</text>
<text text-anchor="middle" x="265.5" y="-109.4" font-family="Helvetica,sans-Serif" font-size="10.00">_, FractionWidth_, ExponentWidth_ &gt;</text>
</a>
</g>
</g>
<!-- Node3&#45;&gt;Node5 -->
<g id="edge5" class="edge">
<title>Node3&#45;&gt;Node5</title>
<path fill="none" stroke="#9a32cd" stroke-dasharray="5,2" d="M62.82,-158C66.57,-156.87 70.35,-155.81 74,-154.9 103.94,-147.44 136.96,-141.21 166.99,-136.29"/>
<polygon fill="#9a32cd" stroke="#9a32cd" points="61.55,-154.73 53.09,-161.11 63.68,-161.4 61.55,-154.73"/>
<text text-anchor="middle" x="111.5" y="-157.9" font-family="Helvetica,sans-Serif" font-size="10.00"> Bias</text>
</g>
<!-- Node4 -->
<g id="node4" class="node">
<title>Node4</title>
<g id="a_node4"><a xlink:href="../../d3/d87/classuint32__t.html" target="_top" xlink:title=" ">
<polygon fill="none" stroke="black" points="0,-21.4 0,-40.4 56,-40.4 56,-21.4 0,-21.4"/>
<text text-anchor="middle" x="28" y="-28.4" font-family="Helvetica,sans-Serif" font-size="10.00">uint32_t</text>
</a>
</g>
</g>
<!-- Node4&#45;&gt;Node2 -->
<g id="edge3" class="edge">
<title>Node4&#45;&gt;Node2</title>
<path fill="none" stroke="#9a32cd" stroke-dasharray="5,2" d="M66.09,-21.4C128.94,-7 259.71,15.51 364,-15.9 420.04,-32.78 474.51,-76.14 503.65,-102.19"/>
<polygon fill="#9a32cd" stroke="#9a32cd" points="65.17,-18.02 56.24,-23.71 66.77,-24.83 65.17,-18.02"/>
<text text-anchor="middle" x="265.5" y="-84.9" font-family="Helvetica,sans-Serif" font-size="10.00"> SignBitPos</text>
<text text-anchor="middle" x="265.5" y="-73.9" font-family="Helvetica,sans-Serif" font-size="10.00">StorageWidth</text>
<text text-anchor="middle" x="265.5" y="-62.9" font-family="Helvetica,sans-Serif" font-size="10.00">ExponentMax</text>
<text text-anchor="middle" x="265.5" y="-51.9" font-family="Helvetica,sans-Serif" font-size="10.00">FractionWidth</text>
<text text-anchor="middle" x="265.5" y="-40.9" font-family="Helvetica,sans-Serif" font-size="10.00">ExponentPos</text>
<text text-anchor="middle" x="265.5" y="-29.9" font-family="Helvetica,sans-Serif" font-size="10.00">Precision</text>
<text text-anchor="middle" x="265.5" y="-18.9" font-family="Helvetica,sans-Serif" font-size="10.00">ExponentWidth</text>
</g>
<!-- Node4&#45;&gt;Node5 -->
<g id="edge6" class="edge">
<title>Node4&#45;&gt;Node5</title>
<path fill="none" stroke="#9a32cd" stroke-dasharray="5,2" d="M66.28,-31.78C91.7,-34.06 124.97,-40.53 149,-57.9 161.6,-67.01 154.98,-78.03 167,-87.9 173.81,-93.49 181.59,-98.23 189.71,-102.23"/>
<polygon fill="#9a32cd" stroke="#9a32cd" points="66.5,-28.28 56.27,-31.05 65.99,-35.26 66.5,-28.28"/>
<text text-anchor="middle" x="111.5" y="-126.9" font-family="Helvetica,sans-Serif" font-size="10.00"> SignBitPos</text>
<text text-anchor="middle" x="111.5" y="-115.9" font-family="Helvetica,sans-Serif" font-size="10.00">StorageWidth</text>
<text text-anchor="middle" x="111.5" y="-104.9" font-family="Helvetica,sans-Serif" font-size="10.00">ExponentMax</text>
<text text-anchor="middle" x="111.5" y="-93.9" font-family="Helvetica,sans-Serif" font-size="10.00">FractionWidth</text>
<text text-anchor="middle" x="111.5" y="-82.9" font-family="Helvetica,sans-Serif" font-size="10.00">ExponentPos</text>
<text text-anchor="middle" x="111.5" y="-71.9" font-family="Helvetica,sans-Serif" font-size="10.00">Precision</text>
<text text-anchor="middle" x="111.5" y="-60.9" font-family="Helvetica,sans-Serif" font-size="10.00">ExponentWidth</text>
</g>
<!-- Node5&#45;&gt;Node2 -->
<g id="edge4" class="edge">
<title>Node5&#45;&gt;Node2</title>
<path fill="none" stroke="orange" stroke-dasharray="5,2" d="M374.38,-122.9C406.44,-122.9 440.32,-122.9 467.86,-122.9"/>
<polygon fill="orange" stroke="orange" points="374.05,-119.4 364.05,-122.9 374.05,-126.4 374.05,-119.4"/>
<text text-anchor="middle" x="416" y="-125.9" font-family="Helvetica,sans-Serif" font-size="10.00"> &lt; 16, 10, 5 &gt;</text>
</g>
</g>
</svg>
        <g id="navigator" transform="translate(0 0)" fill="#404254">
                <rect fill="#f2f5e9" fill-opacity="0.5" stroke="#606060" stroke-width=".5" x="0" y="0" width="60" height="60"/>
                <use id="zoomplus" xlink:href="#zoomPlus" x="17" y="9" onmousedown="handleZoom(evt,'in')"/>
                <use id="zoomminus" xlink:href="#zoomMin" x="42" y="9" onmousedown="handleZoom(evt,'out')"/>
                <use id="reset" xlink:href="#resetDef" x="30" y="36" onmousedown="handleReset()"/>
                <g id="arrowUp" xlink:href="#dirArrow" transform="translate(30 24)" onmousedown="handlePan(0,-1)">
                  <use xlink:href="#rim" fill="#404040">
                        <set attributeName="fill" to="#808080" begin="arrowUp.mouseover" end="arrowUp.mouseout"/>
                  </use>
                  <path fill="none" stroke="white" stroke-width="1.5" d="M0,-3.0v7 M-2.5,-0.5L0,-3.0L2.5,-0.5"/>
                </g>
                <g id="arrowRight" xlink:href="#dirArrow" transform="rotate(90) translate(36 -43)" onmousedown="handlePan(1,0)">
                  <use xlink:href="#rim" fill="#404040">
                        <set attributeName="fill" to="#808080" begin="arrowRight.mouseover" end="arrowRight.mouseout"/>
                  </use>
                  <path fill="none" stroke="white" stroke-width="1.5" d="M0,-3.0v7 M-2.5,-0.5L0,-3.0L2.5,-0.5"/>
                </g>
                <g id="arrowDown" xlink:href="#dirArrow" transform="rotate(180) translate(-30 -48)" onmousedown="handlePan(0,1)">
                  <use xlink:href="#rim" fill="#404040">
                        <set attributeName="fill" to="#808080" begin="arrowDown.mouseover" end="arrowDown.mouseout"/>
                  </use>
                  <path fill="none" stroke="white" stroke-width="1.5" d="M0,-3.0v7 M-2.5,-0.5L0,-3.0L2.5,-0.5"/>
                </g>
                <g id="arrowLeft" xlink:href="#dirArrow" transform="rotate(270) translate(-36 17)" onmousedown="handlePan(-1,0)">
                  <use xlink:href="#rim" fill="#404040">
                        <set attributeName="fill" to="#808080" begin="arrowLeft.mouseover" end="arrowLeft.mouseout"/>
                  </use>
                  <path fill="none" stroke="white" stroke-width="1.5" d="M0,-3.0v7 M-2.5,-0.5L0,-3.0L2.5,-0.5"/>
                </g>
        </g>
        <svg viewBox="0 0 15 15" width="100%" height="30px" preserveAspectRatio="xMaxYMin meet">
         <g id="arrow_out" transform="scale(0.3 0.3)">
          <a xlink:href="structrawspeed_1_1ieee__754__2008_1_1_binary16__coll__graph_org.svg" target="_base">
           <rect id="button" ry="5" rx="5" y="6" x="6" height="38" width="38"
                fill="#f2f5e9" fill-opacity="0.5" stroke="#606060" stroke-width="1.0"/>
           <path id="arrow"
             d="M 11.500037,31.436501 C 11.940474,20.09759 22.043105,11.32322 32.158766,21.979434 L 37.068811,17.246167 C 37.068811,17.246167 37.088388,32 37.088388,32 L 22.160133,31.978069 C 22.160133,31.978069 26.997745,27.140456 26.997745,27.140456 C 18.528582,18.264221 13.291696,25.230495 11.500037,31.436501 z"
             style="fill:#404040;"/>
          </a>
         </g>
        </svg>
</svg>
