<?xml version="1.0" encoding="UTF-8" standalone="no"?>
<!DOCTYPE svg PUBLIC "-//W3C//DTD SVG 1.1//EN"
 "http://www.w3.org/Graphics/SVG/1.1/DTD/svg11.dtd">
<!-- Generated by graphviz version 2.43.0 (0)
 -->
<!-- Title: librawspeed/metadata/ColorFilterArray.cpp Pages: 1 -->
<!--zoomable 263 -->
<svg id="main" version="1.1" xmlns="http://www.w3.org/2000/svg" xmlns:xlink="http://www.w3.org/1999/xlink" xml:space="preserve" onload="init(evt)">
<style type="text/css"><![CDATA[
.edge:hover path { stroke: red; }
.edge:hover polygon { stroke: red; fill: red; }
]]></style>
<script type="text/javascript"><![CDATA[
var edges = document.getElementsByTagName('g');
if (edges && edges.length) {
  for (var i=0;i<edges.length;i++) {
    if (edges[i].id.substr(0,4)=='edge') {
      edges[i].setAttribute('class','edge');
    }
  }
}
]]></script>
        <defs>
                <circle id="rim" cx="0" cy="0" r="7"/>
                <circle id="rim2" cx="0" cy="0" r="3.5"/>
                <g id="zoomPlus">
                        <use xlink:href="#rim" fill="#404040">
                                <set attributeName="fill" to="#808080" begin="zoomplus.mouseover" end="zoomplus.mouseout"/>
                        </use>
                        <path d="M-4,0h8M0,-4v8" fill="none" stroke="white" stroke-width="1.5" pointer-events="none"/>
                </g>
                <g id="zoomMin">
                        <use xlink:href="#rim" fill="#404040">
                                <set attributeName="fill" to="#808080" begin="zoomminus.mouseover" end="zoomminus.mouseout"/>
                        </use>
                        <path d="M-4,0h8" fill="none" stroke="white" stroke-width="1.5" pointer-events="none"/>
                </g>
                <g id="dirArrow">
                        <path fill="none" stroke="white" stroke-width="1.5" d="M0,-3.0v7 M-2.5,-0.5L0,-3.0L2.5,-0.5"/>
                </g>
               <g id="resetDef">
                       <use xlink:href="#rim2" fill="#404040">
                               <set attributeName="fill" to="#808080" begin="reset.mouseover" end="reset.mouseout"/>
                       </use>
               </g>
        </defs>

<script type="text/javascript">
var viewWidth = 1011;
var viewHeight = 263;
var sectionId = 'dynsection-0';
</script>
<script xlink:href="../../svgpan.js"/>
<svg id="graph" class="graph">
<g id="viewport">
<title>librawspeed/metadata/ColorFilterArray.cpp</title>
<!-- Node1 -->
<g id="node1" class="node">
<title>Node1</title>
<g id="a_node1"><a xlink:title=" ">
<polygon fill="#bfbfbf" stroke="black" points="449,-224.5 449,-254.5 575,-254.5 575,-224.5 449,-224.5"/>
<text text-anchor="start" x="457" y="-242.5" font-family="Helvetica,sans-Serif" font-size="10.00">librawspeed/metadata</text>
<text text-anchor="middle" x="512" y="-231.5" font-family="Helvetica,sans-Serif" font-size="10.00">/ColorFilterArray.cpp</text>
</a>
</g>
</g>
<!-- Node2 -->
<g id="node2" class="node">
<title>Node2</title>
<g id="a_node2"><a xlink:href="../../dd/d27/_color_filter_array_8h.html" target="_top" xlink:title=" ">
<polygon fill="none" stroke="black" points="201,-112.5 201,-131.5 351,-131.5 351,-112.5 201,-112.5"/>
<text text-anchor="middle" x="276" y="-119.5" font-family="Helvetica,sans-Serif" font-size="10.00">metadata/ColorFilterArray.h</text>
</a>
</g>
</g>
<!-- Node1&#45;&gt;Node2 -->
<g id="edge1" class="edge">
<title>Node1&#45;&gt;Node2</title>
<path fill="none" stroke="midnightblue" d="M470.84,-224.45C445.11,-215.17 411.56,-202.13 383,-188 351.95,-172.63 318.08,-151.2 296.94,-137.21"/>
<polygon fill="midnightblue" stroke="midnightblue" points="298.7,-134.18 288.44,-131.54 294.81,-140 298.7,-134.18"/>
</g>
<!-- Node3 -->
<g id="node3" class="node">
<title>Node3</title>
<g id="a_node3"><a xlink:href="../../d1/d18/_point_8h.html" target="_top" xlink:title=" ">
<polygon fill="none" stroke="black" points="97,-56.5 97,-75.5 193,-75.5 193,-56.5 97,-56.5"/>
<text text-anchor="middle" x="145" y="-63.5" font-family="Helvetica,sans-Serif" font-size="10.00">common/Point.h</text>
</a>
</g>
</g>
<!-- Node1&#45;&gt;Node3 -->
<g id="edge20" class="edge">
<title>Node1&#45;&gt;Node3</title>
<path fill="none" stroke="midnightblue" d="M448.91,-229.91C379.95,-217.89 269.03,-190.55 192,-132 175.43,-119.4 162.18,-99.35 154.03,-84.85"/>
<polygon fill="midnightblue" stroke="midnightblue" points="157.02,-83.02 149.22,-75.85 150.85,-86.32 157.02,-83.02"/>
</g>
<!-- Node4 -->
<g id="node4" class="node">
<title>Node4</title>
<g id="a_node4"><a xlink:title=" ">
<polygon fill="none" stroke="#bfbfbf" points="0,-0.5 0,-19.5 64,-19.5 64,-0.5 0,-0.5"/>
<text text-anchor="middle" x="32" y="-7.5" font-family="Helvetica,sans-Serif" font-size="10.00">algorithm</text>
</a>
</g>
</g>
<!-- Node1&#45;&gt;Node4 -->
<g id="edge30" class="edge">
<title>Node1&#45;&gt;Node4</title>
<path fill="none" stroke="midnightblue" d="M448.75,-233.68C394.32,-227.83 314.6,-215.13 250,-188 169.3,-154.1 153.09,-134.52 88,-76 71.46,-61.13 55.17,-41.5 44.46,-27.71"/>
<polygon fill="midnightblue" stroke="midnightblue" points="47.13,-25.44 38.28,-19.61 41.56,-29.69 47.13,-25.44"/>
</g>
<!-- Node7 -->
<g id="node7" class="node">
<title>Node7</title>
<g id="a_node7"><a xlink:title=" ">
<polygon fill="none" stroke="#bfbfbf" points="497,-56.5 497,-75.5 535,-75.5 535,-56.5 497,-56.5"/>
<text text-anchor="middle" x="516" y="-63.5" font-family="Helvetica,sans-Serif" font-size="10.00">map</text>
</a>
</g>
</g>
<!-- Node1&#45;&gt;Node7 -->
<g id="edge34" class="edge">
<title>Node1&#45;&gt;Node7</title>
<path fill="none" stroke="midnightblue" d="M512.33,-224.47C513.04,-193.7 514.76,-120.33 515.56,-85.7"/>
<polygon fill="midnightblue" stroke="midnightblue" points="519.07,-85.64 515.8,-75.56 512.07,-85.48 519.07,-85.64"/>
</g>
<!-- Node8 -->
<g id="node8" class="node">
<title>Node8</title>
<g id="a_node8"><a xlink:title=" ">
<polygon fill="none" stroke="#bfbfbf" points="611,-0.5 611,-19.5 655,-19.5 655,-0.5 611,-0.5"/>
<text text-anchor="middle" x="633" y="-7.5" font-family="Helvetica,sans-Serif" font-size="10.00">string</text>
</a>
</g>
</g>
<!-- Node1&#45;&gt;Node8 -->
<g id="edge36" class="edge">
<title>Node1&#45;&gt;Node8</title>
<path fill="none" stroke="midnightblue" d="M503.88,-224.01C486.42,-190.73 449.9,-107.71 488,-56 489.73,-53.65 558.67,-32.95 600.86,-20.46"/>
<polygon fill="midnightblue" stroke="midnightblue" points="602.1,-23.74 610.7,-17.55 600.11,-17.03 602.1,-23.74"/>
</g>
<!-- Node10 -->
<g id="node10" class="node">
<title>Node10</title>
<g id="a_node10"><a xlink:href="../../d9/df5/src_2librawspeed_2common_2_common_8h.html" target="_top" xlink:title=" ">
<polygon fill="none" stroke="black" points="287,-56.5 287,-75.5 403,-75.5 403,-56.5 287,-56.5"/>
<text text-anchor="middle" x="345" y="-63.5" font-family="Helvetica,sans-Serif" font-size="10.00">common/Common.h</text>
</a>
</g>
</g>
<!-- Node1&#45;&gt;Node10 -->
<g id="edge10" class="edge">
<title>Node1&#45;&gt;Node10</title>
<path fill="none" stroke="midnightblue" d="M495.11,-224.37C483.53,-214.49 467.98,-200.82 455,-188 418.65,-152.12 379.07,-106.91 358.74,-83.21"/>
<polygon fill="midnightblue" stroke="midnightblue" points="361.32,-80.84 352.17,-75.5 356,-85.38 361.32,-80.84"/>
</g>
<!-- Node15 -->
<g id="node15" class="node">
<title>Node15</title>
<g id="a_node15"><a xlink:href="../../d0/daf/_raw_decoder_exception_8h.html" target="_top" xlink:title=" ">
<polygon fill="none" stroke="black" points="540,-168.5 540,-187.5 722,-187.5 722,-168.5 540,-168.5"/>
<text text-anchor="middle" x="631" y="-175.5" font-family="Helvetica,sans-Serif" font-size="10.00">decoders/RawDecoderException.h</text>
</a>
</g>
</g>
<!-- Node1&#45;&gt;Node15 -->
<g id="edge21" class="edge">
<title>Node1&#45;&gt;Node15</title>
<path fill="none" stroke="midnightblue" d="M540.2,-224.4C559.72,-214.64 585.53,-201.74 604.63,-192.18"/>
<polygon fill="midnightblue" stroke="midnightblue" points="606.31,-195.26 613.68,-187.66 603.17,-189 606.31,-195.26"/>
</g>
<!-- Node19 -->
<g id="node19" class="node">
<title>Node19</title>
<g id="a_node19"><a xlink:title=" ">
<polygon fill="none" stroke="#bfbfbf" points="797.5,-56.5 797.5,-75.5 850.5,-75.5 850.5,-56.5 797.5,-56.5"/>
<text text-anchor="middle" x="824" y="-63.5" font-family="Helvetica,sans-Serif" font-size="10.00">cstdarg</text>
</a>
</g>
</g>
<!-- Node1&#45;&gt;Node19 -->
<g id="edge32" class="edge">
<title>Node1&#45;&gt;Node19</title>
<path fill="none" stroke="midnightblue" d="M575.19,-233.16C620.79,-227.18 682.59,-214.55 731,-188 773.64,-164.62 802.94,-112.56 816.12,-84.97"/>
<polygon fill="midnightblue" stroke="midnightblue" points="819.38,-86.25 820.37,-75.7 813.02,-83.33 819.38,-86.25"/>
</g>
<!-- Node21 -->
<g id="node21" class="node">
<title>Node21</title>
<g id="a_node21"><a xlink:title=" ">
<polygon fill="none" stroke="#bfbfbf" points="868.5,-56.5 868.5,-75.5 933.5,-75.5 933.5,-56.5 868.5,-56.5"/>
<text text-anchor="middle" x="901" y="-63.5" font-family="Helvetica,sans-Serif" font-size="10.00">stdexcept</text>
</a>
</g>
</g>
<!-- Node1&#45;&gt;Node21 -->
<g id="edge35" class="edge">
<title>Node1&#45;&gt;Node21</title>
<path fill="none" stroke="midnightblue" d="M575.16,-234.21C626.56,-228.72 699.87,-216.25 758,-188 812.37,-161.58 863.18,-109.73 886.93,-83.31"/>
<polygon fill="midnightblue" stroke="midnightblue" points="889.66,-85.5 893.66,-75.69 884.42,-80.87 889.66,-85.5"/>
</g>
<!-- Node22 -->
<g id="node22" class="node">
<title>Node22</title>
<g id="a_node22"><a xlink:title=" ">
<polygon fill="none" stroke="#bfbfbf" points="873,-168.5 873,-187.5 935,-187.5 935,-168.5 873,-168.5"/>
<text text-anchor="middle" x="904" y="-175.5" font-family="Helvetica,sans-Serif" font-size="10.00">cinttypes</text>
</a>
</g>
</g>
<!-- Node1&#45;&gt;Node22 -->
<g id="edge31" class="edge">
<title>Node1&#45;&gt;Node22</title>
<path fill="none" stroke="midnightblue" d="M575.16,-230.33C644.83,-221.08 760.17,-205.06 859,-188 860.1,-187.81 861.21,-187.61 862.34,-187.41"/>
<polygon fill="midnightblue" stroke="midnightblue" points="863.38,-190.78 872.57,-185.51 862.1,-183.9 863.38,-190.78"/>
</g>
<!-- Node23 -->
<g id="node23" class="node">
<title>Node23</title>
<g id="a_node23"><a xlink:title=" ">
<polygon fill="none" stroke="#bfbfbf" points="953.5,-168.5 953.5,-187.5 1002.5,-187.5 1002.5,-168.5 953.5,-168.5"/>
<text text-anchor="middle" x="978" y="-175.5" font-family="Helvetica,sans-Serif" font-size="10.00">cstdlib</text>
</a>
</g>
</g>
<!-- Node1&#45;&gt;Node23 -->
<g id="edge33" class="edge">
<title>Node1&#45;&gt;Node23</title>
<path fill="none" stroke="midnightblue" d="M575.02,-233.96C657.47,-227.4 806.49,-213.38 942.99,-187.93"/>
<polygon fill="midnightblue" stroke="midnightblue" points="944.04,-191.29 953.21,-186 942.73,-184.42 944.04,-191.29"/>
</g>
<!-- Node2&#45;&gt;Node3 -->
<g id="edge2" class="edge">
<title>Node2&#45;&gt;Node3</title>
<path fill="none" stroke="midnightblue" d="M255.24,-112.44C233.68,-103.56 199.74,-89.56 175.21,-79.45"/>
<polygon fill="midnightblue" stroke="midnightblue" points="176.24,-76.09 165.66,-75.52 173.57,-82.56 176.24,-76.09"/>
</g>
<!-- Node5 -->
<g id="node5" class="node">
<title>Node5</title>
<g id="a_node5"><a xlink:title=" ">
<polygon fill="none" stroke="#bfbfbf" points="170,-0.5 170,-19.5 220,-19.5 220,-0.5 170,-0.5"/>
<text text-anchor="middle" x="195" y="-7.5" font-family="Helvetica,sans-Serif" font-size="10.00">cstdint</text>
</a>
</g>
</g>
<!-- Node2&#45;&gt;Node5 -->
<g id="edge6" class="edge">
<title>Node2&#45;&gt;Node5</title>
<path fill="none" stroke="midnightblue" d="M269.64,-112.37C256.22,-94.14 224.77,-51.43 207.28,-27.68"/>
<polygon fill="midnightblue" stroke="midnightblue" points="210.07,-25.57 201.33,-19.59 204.44,-29.72 210.07,-25.57"/>
</g>
<!-- Node2&#45;&gt;Node7 -->
<g id="edge7" class="edge">
<title>Node2&#45;&gt;Node7</title>
<path fill="none" stroke="midnightblue" d="M314.03,-112.44C362.02,-101.65 443.51,-83.31 486.85,-73.56"/>
<polygon fill="midnightblue" stroke="midnightblue" points="487.77,-76.94 496.76,-71.33 486.23,-70.11 487.77,-76.94"/>
</g>
<!-- Node2&#45;&gt;Node8 -->
<g id="edge8" class="edge">
<title>Node2&#45;&gt;Node8</title>
<path fill="none" stroke="midnightblue" d="M305,-112.47C332.77,-104.06 375.7,-90.39 412,-76 431.59,-68.23 435.11,-62.98 455,-56 515.49,-34.76 535.18,-37.09 600.68,-20.23"/>
<polygon fill="midnightblue" stroke="midnightblue" points="601.9,-23.53 610.68,-17.6 600.12,-16.76 601.9,-23.53"/>
</g>
<!-- Node9 -->
<g id="node9" class="node">
<title>Node9</title>
<g id="a_node9"><a xlink:title=" ">
<polygon fill="none" stroke="#bfbfbf" points="238.5,-0.5 238.5,-19.5 285.5,-19.5 285.5,-0.5 238.5,-0.5"/>
<text text-anchor="middle" x="262" y="-7.5" font-family="Helvetica,sans-Serif" font-size="10.00">vector</text>
</a>
</g>
</g>
<!-- Node2&#45;&gt;Node9 -->
<g id="edge9" class="edge">
<title>Node2&#45;&gt;Node9</title>
<path fill="none" stroke="midnightblue" d="M274.9,-112.37C272.64,-94.62 267.43,-53.67 264.37,-29.6"/>
<polygon fill="midnightblue" stroke="midnightblue" points="267.83,-29.07 263.09,-19.59 260.88,-29.95 267.83,-29.07"/>
</g>
<!-- Node3&#45;&gt;Node4 -->
<g id="edge3" class="edge">
<title>Node3&#45;&gt;Node4</title>
<path fill="none" stroke="midnightblue" d="M127.09,-56.44C108.75,-47.68 79.99,-33.94 58.91,-23.86"/>
<polygon fill="midnightblue" stroke="midnightblue" points="60.35,-20.67 49.82,-19.52 57.33,-26.99 60.35,-20.67"/>
</g>
<!-- Node3&#45;&gt;Node5 -->
<g id="edge4" class="edge">
<title>Node3&#45;&gt;Node5</title>
<path fill="none" stroke="midnightblue" d="M153.26,-56.08C160.46,-48.3 171.11,-36.8 179.85,-27.37"/>
<polygon fill="midnightblue" stroke="midnightblue" points="182.67,-29.47 186.9,-19.75 177.53,-24.71 182.67,-29.47"/>
</g>
<!-- Node6 -->
<g id="node6" class="node">
<title>Node6</title>
<g id="a_node6"><a xlink:title=" ">
<polygon fill="none" stroke="#bfbfbf" points="82.5,-0.5 82.5,-19.5 151.5,-19.5 151.5,-0.5 82.5,-0.5"/>
<text text-anchor="middle" x="117" y="-7.5" font-family="Helvetica,sans-Serif" font-size="10.00">type_traits</text>
</a>
</g>
</g>
<!-- Node3&#45;&gt;Node6 -->
<g id="edge5" class="edge">
<title>Node3&#45;&gt;Node6</title>
<path fill="none" stroke="midnightblue" d="M140.38,-56.08C136.54,-48.69 130.98,-37.95 126.24,-28.81"/>
<polygon fill="midnightblue" stroke="midnightblue" points="129.25,-27.02 121.54,-19.75 123.03,-30.24 129.25,-27.02"/>
</g>
<!-- Node10&#45;&gt;Node4 -->
<g id="edge11" class="edge">
<title>Node10&#45;&gt;Node4</title>
<path fill="none" stroke="midnightblue" d="M288.06,-56.46C235.18,-48.34 154.02,-35.36 74.4,-20.19"/>
<polygon fill="midnightblue" stroke="midnightblue" points="74.68,-16.68 64.2,-18.23 73.36,-23.56 74.68,-16.68"/>
</g>
<!-- Node10&#45;&gt;Node5 -->
<g id="edge14" class="edge">
<title>Node10&#45;&gt;Node5</title>
<path fill="none" stroke="midnightblue" d="M321.23,-56.44C296.11,-47.4 256.29,-33.06 228.1,-22.92"/>
<polygon fill="midnightblue" stroke="midnightblue" points="229.25,-19.61 218.66,-19.52 226.88,-26.2 229.25,-19.61"/>
</g>
<!-- Node10&#45;&gt;Node6 -->
<g id="edge18" class="edge">
<title>Node10&#45;&gt;Node6</title>
<path fill="none" stroke="midnightblue" d="M308.87,-56.44C269,-47 204.78,-31.79 161.75,-21.6"/>
<polygon fill="midnightblue" stroke="midnightblue" points="162.37,-18.15 151.84,-19.25 160.76,-24.96 162.37,-18.15"/>
</g>
<!-- Node10&#45;&gt;Node8 -->
<g id="edge17" class="edge">
<title>Node10&#45;&gt;Node8</title>
<path fill="none" stroke="midnightblue" d="M403.03,-56.69C453.11,-49.1 527.54,-36.82 600.86,-20.07"/>
<polygon fill="midnightblue" stroke="midnightblue" points="601.77,-23.45 610.73,-17.78 600.19,-16.63 601.77,-23.45"/>
</g>
<!-- Node10&#45;&gt;Node9 -->
<g id="edge19" class="edge">
<title>Node10&#45;&gt;Node9</title>
<path fill="none" stroke="midnightblue" d="M331.66,-56.32C318.84,-47.98 299.22,-35.21 284.06,-25.35"/>
<polygon fill="midnightblue" stroke="midnightblue" points="285.59,-22.17 275.3,-19.65 281.78,-28.04 285.59,-22.17"/>
</g>
<!-- Node11 -->
<g id="node11" class="node">
<title>Node11</title>
<g id="a_node11"><a xlink:title=" ">
<polygon fill="none" stroke="#bfbfbf" points="405,-0.5 405,-19.5 457,-19.5 457,-0.5 405,-0.5"/>
<text text-anchor="middle" x="431" y="-7.5" font-family="Helvetica,sans-Serif" font-size="10.00">cassert</text>
</a>
</g>
</g>
<!-- Node10&#45;&gt;Node11 -->
<g id="edge12" class="edge">
<title>Node10&#45;&gt;Node11</title>
<path fill="none" stroke="midnightblue" d="M358.82,-56.32C372.23,-47.9 392.82,-34.97 408.59,-25.07"/>
<polygon fill="midnightblue" stroke="midnightblue" points="410.61,-27.94 417.22,-19.65 406.89,-22.01 410.61,-27.94"/>
</g>
<!-- Node12 -->
<g id="node12" class="node">
<title>Node12</title>
<g id="a_node12"><a xlink:title=" ">
<polygon fill="none" stroke="#bfbfbf" points="475,-0.5 475,-19.5 525,-19.5 525,-0.5 475,-0.5"/>
<text text-anchor="middle" x="500" y="-7.5" font-family="Helvetica,sans-Serif" font-size="10.00">climits</text>
</a>
</g>
</g>
<!-- Node10&#45;&gt;Node12 -->
<g id="edge13" class="edge">
<title>Node10&#45;&gt;Node12</title>
<path fill="none" stroke="midnightblue" d="M369.56,-56.44C395.52,-47.4 436.67,-33.06 465.8,-22.92"/>
<polygon fill="midnightblue" stroke="midnightblue" points="467.26,-26.11 475.55,-19.52 464.96,-19.5 467.26,-26.11"/>
</g>
<!-- Node13 -->
<g id="node13" class="node">
<title>Node13</title>
<g id="a_node13"><a xlink:title=" ">
<polygon fill="none" stroke="#bfbfbf" points="543,-0.5 543,-19.5 593,-19.5 593,-0.5 543,-0.5"/>
<text text-anchor="middle" x="568" y="-7.5" font-family="Helvetica,sans-Serif" font-size="10.00">cstring</text>
</a>
</g>
</g>
<!-- Node10&#45;&gt;Node13 -->
<g id="edge15" class="edge">
<title>Node10&#45;&gt;Node13</title>
<path fill="none" stroke="midnightblue" d="M382.01,-56.48C418.15,-48.09 474.95,-34.74 533.05,-20.19"/>
<polygon fill="midnightblue" stroke="midnightblue" points="533.92,-23.59 542.77,-17.75 532.22,-16.8 533.92,-23.59"/>
</g>
<!-- Node14 -->
<g id="node14" class="node">
<title>Node14</title>
<g id="a_node14"><a xlink:title=" ">
<polygon fill="none" stroke="#bfbfbf" points="303.5,-0.5 303.5,-19.5 386.5,-19.5 386.5,-0.5 303.5,-0.5"/>
<text text-anchor="middle" x="345" y="-7.5" font-family="Helvetica,sans-Serif" font-size="10.00">initializer_list</text>
</a>
</g>
</g>
<!-- Node10&#45;&gt;Node14 -->
<g id="edge16" class="edge">
<title>Node10&#45;&gt;Node14</title>
<path fill="none" stroke="midnightblue" d="M345,-56.08C345,-49.01 345,-38.86 345,-29.99"/>
<polygon fill="midnightblue" stroke="midnightblue" points="348.5,-29.75 345,-19.75 341.5,-29.75 348.5,-29.75"/>
</g>
<!-- Node16 -->
<g id="node16" class="node">
<title>Node16</title>
<g id="a_node16"><a xlink:title=" ">
<polygon fill="none" stroke="#bfbfbf" points="553,-56.5 553,-75.5 655,-75.5 655,-56.5 553,-56.5"/>
<text text-anchor="middle" x="604" y="-63.5" font-family="Helvetica,sans-Serif" font-size="10.00">rawspeedconfig.h</text>
</a>
</g>
</g>
<!-- Node15&#45;&gt;Node16 -->
<g id="edge22" class="edge">
<title>Node15&#45;&gt;Node16</title>
<path fill="none" stroke="midnightblue" d="M622.52,-168.23C614.95,-159.75 604.4,-146.13 600,-132 595.28,-116.82 596.95,-98.7 599.42,-85.46"/>
<polygon fill="midnightblue" stroke="midnightblue" points="602.85,-86.16 601.55,-75.65 596.01,-84.67 602.85,-86.16"/>
</g>
<!-- Node17 -->
<g id="node17" class="node">
<title>Node17</title>
<g id="a_node17"><a xlink:href="../../d7/d05/_rawspeed_exception_8h.html" target="_top" xlink:title=" ">
<polygon fill="none" stroke="black" points="609,-112.5 609,-131.5 779,-131.5 779,-112.5 609,-112.5"/>
<text text-anchor="middle" x="694" y="-119.5" font-family="Helvetica,sans-Serif" font-size="10.00">common/RawspeedException.h</text>
</a>
</g>
</g>
<!-- Node15&#45;&gt;Node17 -->
<g id="edge23" class="edge">
<title>Node15&#45;&gt;Node17</title>
<path fill="none" stroke="midnightblue" d="M641.12,-168.32C650.53,-160.26 664.74,-148.08 676.07,-138.37"/>
<polygon fill="midnightblue" stroke="midnightblue" points="678.38,-141 683.69,-131.83 673.82,-135.68 678.38,-141"/>
</g>
<!-- Node17&#45;&gt;Node10 -->
<g id="edge25" class="edge">
<title>Node17&#45;&gt;Node10</title>
<path fill="none" stroke="midnightblue" d="M638.7,-112.44C576.67,-102.85 476.14,-87.29 410.3,-77.1"/>
<polygon fill="midnightblue" stroke="midnightblue" points="410.46,-73.59 400.04,-75.52 409.39,-80.5 410.46,-73.59"/>
</g>
<!-- Node17&#45;&gt;Node16 -->
<g id="edge24" class="edge">
<title>Node17&#45;&gt;Node16</title>
<path fill="none" stroke="midnightblue" d="M679.54,-112.32C665.5,-103.9 643.95,-90.97 627.46,-81.07"/>
<polygon fill="midnightblue" stroke="midnightblue" points="628.8,-77.8 618.42,-75.65 625.2,-83.8 628.8,-77.8"/>
</g>
<!-- Node18 -->
<g id="node18" class="node">
<title>Node18</title>
<g id="a_node18"><a xlink:title=" ">
<polygon fill="none" stroke="#bfbfbf" points="673,-56.5 673,-75.5 715,-75.5 715,-56.5 673,-56.5"/>
<text text-anchor="middle" x="694" y="-63.5" font-family="Helvetica,sans-Serif" font-size="10.00">array</text>
</a>
</g>
</g>
<!-- Node17&#45;&gt;Node18 -->
<g id="edge26" class="edge">
<title>Node17&#45;&gt;Node18</title>
<path fill="none" stroke="midnightblue" d="M694,-112.08C694,-105.01 694,-94.86 694,-85.99"/>
<polygon fill="midnightblue" stroke="midnightblue" points="697.5,-85.75 694,-75.75 690.5,-85.75 697.5,-85.75"/>
</g>
<!-- Node17&#45;&gt;Node19 -->
<g id="edge27" class="edge">
<title>Node17&#45;&gt;Node19</title>
<path fill="none" stroke="midnightblue" d="M714.6,-112.44C735.99,-103.56 769.68,-89.56 794.02,-79.45"/>
<polygon fill="midnightblue" stroke="midnightblue" points="795.61,-82.58 803.5,-75.52 792.92,-76.12 795.61,-82.58"/>
</g>
<!-- Node20 -->
<g id="node20" class="node">
<title>Node20</title>
<g id="a_node20"><a xlink:title=" ">
<polygon fill="none" stroke="#bfbfbf" points="733,-56.5 733,-75.5 779,-75.5 779,-56.5 733,-56.5"/>
<text text-anchor="middle" x="756" y="-63.5" font-family="Helvetica,sans-Serif" font-size="10.00">cstdio</text>
</a>
</g>
</g>
<!-- Node17&#45;&gt;Node20 -->
<g id="edge28" class="edge">
<title>Node17&#45;&gt;Node20</title>
<path fill="none" stroke="midnightblue" d="M703.96,-112.32C713.13,-104.34 726.94,-92.31 738.03,-82.65"/>
<polygon fill="midnightblue" stroke="midnightblue" points="740.62,-85.04 745.86,-75.83 736.02,-79.76 740.62,-85.04"/>
</g>
<!-- Node17&#45;&gt;Node21 -->
<g id="edge29" class="edge">
<title>Node17&#45;&gt;Node21</title>
<path fill="none" stroke="midnightblue" d="M726.8,-112.44C762.38,-103.16 819.31,-88.31 858.35,-78.13"/>
<polygon fill="midnightblue" stroke="midnightblue" points="859.56,-81.43 868.35,-75.52 857.79,-74.65 859.56,-81.43"/>
</g>
</g>
</svg>
        <g id="navigator" transform="translate(0 0)" fill="#404254">
                <rect fill="#f2f5e9" fill-opacity="0.5" stroke="#606060" stroke-width=".5" x="0" y="0" width="60" height="60"/>
                <use id="zoomplus" xlink:href="#zoomPlus" x="17" y="9" onmousedown="handleZoom(evt,'in')"/>
                <use id="zoomminus" xlink:href="#zoomMin" x="42" y="9" onmousedown="handleZoom(evt,'out')"/>
                <use id="reset" xlink:href="#resetDef" x="30" y="36" onmousedown="handleReset()"/>
                <g id="arrowUp" xlink:href="#dirArrow" transform="translate(30 24)" onmousedown="handlePan(0,-1)">
                  <use xlink:href="#rim" fill="#404040">
                        <set attributeName="fill" to="#808080" begin="arrowUp.mouseover" end="arrowUp.mouseout"/>
                  </use>
                  <path fill="none" stroke="white" stroke-width="1.5" d="M0,-3.0v7 M-2.5,-0.5L0,-3.0L2.5,-0.5"/>
                </g>
                <g id="arrowRight" xlink:href="#dirArrow" transform="rotate(90) translate(36 -43)" onmousedown="handlePan(1,0)">
                  <use xlink:href="#rim" fill="#404040">
                        <set attributeName="fill" to="#808080" begin="arrowRight.mouseover" end="arrowRight.mouseout"/>
                  </use>
                  <path fill="none" stroke="white" stroke-width="1.5" d="M0,-3.0v7 M-2.5,-0.5L0,-3.0L2.5,-0.5"/>
                </g>
                <g id="arrowDown" xlink:href="#dirArrow" transform="rotate(180) translate(-30 -48)" onmousedown="handlePan(0,1)">
                  <use xlink:href="#rim" fill="#404040">
                        <set attributeName="fill" to="#808080" begin="arrowDown.mouseover" end="arrowDown.mouseout"/>
                  </use>
                  <path fill="none" stroke="white" stroke-width="1.5" d="M0,-3.0v7 M-2.5,-0.5L0,-3.0L2.5,-0.5"/>
                </g>
                <g id="arrowLeft" xlink:href="#dirArrow" transform="rotate(270) translate(-36 17)" onmousedown="handlePan(-1,0)">
                  <use xlink:href="#rim" fill="#404040">
                        <set attributeName="fill" to="#808080" begin="arrowLeft.mouseover" end="arrowLeft.mouseout"/>
                  </use>
                  <path fill="none" stroke="white" stroke-width="1.5" d="M0,-3.0v7 M-2.5,-0.5L0,-3.0L2.5,-0.5"/>
                </g>
        </g>
        <svg viewBox="0 0 15 15" width="100%" height="30px" preserveAspectRatio="xMaxYMin meet">
         <g id="arrow_out" transform="scale(0.3 0.3)">
          <a xlink:href="_color_filter_array_8cpp__incl_org.svg" target="_base">
           <rect id="button" ry="5" rx="5" y="6" x="6" height="38" width="38"
                fill="#f2f5e9" fill-opacity="0.5" stroke="#606060" stroke-width="1.0"/>
           <path id="arrow"
             d="M 11.500037,31.436501 C 11.940474,20.09759 22.043105,11.32322 32.158766,21.979434 L 37.068811,17.246167 C 37.068811,17.246167 37.088388,32 37.088388,32 L 22.160133,31.978069 C 22.160133,31.978069 26.997745,27.140456 26.997745,27.140456 C 18.528582,18.264221 13.291696,25.230495 11.500037,31.436501 z"
             style="fill:#404040;"/>
          </a>
         </g>
        </svg>
</svg>
