<?xml version="1.0" encoding="UTF-8" standalone="no"?>
<!DOCTYPE svg PUBLIC "-//W3C//DTD SVG 1.1//EN"
 "http://www.w3.org/Graphics/SVG/1.1/DTD/svg11.dtd">
<!-- Generated by graphviz version 2.43.0 (0)
 -->
<!-- Title: /build/rawspeed/bench/librawspeed/metadata/CameraMetaDataBenchmark.cpp Pages: 1 -->
<svg width="982pt" height="330pt"
 viewBox="0.00 0.00 982.19 330.00" xmlns="http://www.w3.org/2000/svg" xmlns:xlink="http://www.w3.org/1999/xlink">
<g id="graph0" class="graph" transform="scale(1 1) rotate(0) translate(4 326)">
<title>/build/rawspeed/bench/librawspeed/metadata/CameraMetaDataBenchmark.cpp</title>
<!-- Node1 -->
<g id="node1" class="node">
<title>Node1</title>
<g id="a_node1"><a xlink:title=" ">
<polygon fill="#bfbfbf" stroke="black" points="635.19,-280.5 635.19,-321.5 816.19,-321.5 816.19,-280.5 635.19,-280.5"/>
<text text-anchor="start" x="643.19" y="-309.5" font-family="Helvetica,sans-Serif" font-size="10.00">/build/rawspeed/bench</text>
<text text-anchor="start" x="643.19" y="-298.5" font-family="Helvetica,sans-Serif" font-size="10.00">/librawspeed/metadata</text>
<text text-anchor="middle" x="725.69" y="-287.5" font-family="Helvetica,sans-Serif" font-size="10.00">/CameraMetaDataBenchmark.cpp</text>
</a>
</g>
</g>
<!-- Node2 -->
<g id="node2" class="node">
<title>Node2</title>
<g id="a_node2"><a xlink:title=" ">
<polygon fill="none" stroke="#bfbfbf" points="20.69,-112.5 20.69,-131.5 122.69,-131.5 122.69,-112.5 20.69,-112.5"/>
<text text-anchor="middle" x="71.69" y="-119.5" font-family="Helvetica,sans-Serif" font-size="10.00">rawspeedconfig.h</text>
</a>
</g>
</g>
<!-- Node1&#45;&gt;Node2 -->
<g id="edge1" class="edge">
<title>Node1&#45;&gt;Node2</title>
<path fill="none" stroke="midnightblue" d="M650.15,-280.46C565.27,-258.41 423.42,-221.28 301.69,-188 234.71,-169.69 157.02,-147.54 111.24,-134.4"/>
<polygon fill="midnightblue" stroke="midnightblue" points="112,-130.98 101.42,-131.58 110.07,-137.7 112,-130.98"/>
</g>
<!-- Node3 -->
<g id="node3" class="node">
<title>Node3</title>
<g id="a_node3"><a xlink:href="../../da/d1d/_camera_meta_data_8h.html" target="_top" xlink:title=" ">
<polygon fill="none" stroke="black" points="561.19,-224.5 561.19,-243.5 722.19,-243.5 722.19,-224.5 561.19,-224.5"/>
<text text-anchor="middle" x="641.69" y="-231.5" font-family="Helvetica,sans-Serif" font-size="10.00">metadata/CameraMetaData.h</text>
</a>
</g>
</g>
<!-- Node1&#45;&gt;Node3 -->
<g id="edge2" class="edge">
<title>Node1&#45;&gt;Node3</title>
<path fill="none" stroke="midnightblue" d="M700.49,-280.5C687.86,-270.72 672.8,-259.07 661.09,-250.01"/>
<polygon fill="midnightblue" stroke="midnightblue" points="662.93,-247 652.88,-243.65 658.64,-252.54 662.93,-247"/>
</g>
<!-- Node19 -->
<g id="node19" class="node">
<title>Node19</title>
<g id="a_node19"><a xlink:title=" ">
<polygon fill="none" stroke="#bfbfbf" points="740.69,-224.5 740.69,-243.5 878.69,-243.5 878.69,-224.5 740.69,-224.5"/>
<text text-anchor="middle" x="809.69" y="-231.5" font-family="Helvetica,sans-Serif" font-size="10.00">benchmark/benchmark.h</text>
</a>
</g>
</g>
<!-- Node1&#45;&gt;Node19 -->
<g id="edge31" class="edge">
<title>Node1&#45;&gt;Node19</title>
<path fill="none" stroke="midnightblue" d="M750.9,-280.5C763.53,-270.72 778.59,-259.07 790.3,-250.01"/>
<polygon fill="midnightblue" stroke="midnightblue" points="792.75,-252.54 798.51,-243.65 788.46,-247 792.75,-252.54"/>
</g>
<!-- Node20 -->
<g id="node20" class="node">
<title>Node20</title>
<g id="a_node20"><a xlink:title=" ">
<polygon fill="none" stroke="#bfbfbf" points="897.19,-224.5 897.19,-243.5 974.19,-243.5 974.19,-224.5 897.19,-224.5"/>
<text text-anchor="middle" x="935.69" y="-231.5" font-family="Helvetica,sans-Serif" font-size="10.00">pugixml.hpp</text>
</a>
</g>
</g>
<!-- Node1&#45;&gt;Node20 -->
<g id="edge32" class="edge">
<title>Node1&#45;&gt;Node20</title>
<path fill="none" stroke="midnightblue" d="M788.7,-280.5C824.41,-269.44 867.88,-255.99 898.25,-246.59"/>
<polygon fill="midnightblue" stroke="midnightblue" points="899.5,-249.87 908.02,-243.57 897.43,-243.18 899.5,-249.87"/>
</g>
<!-- Node3&#45;&gt;Node2 -->
<g id="edge3" class="edge">
<title>Node3&#45;&gt;Node2</title>
<path fill="none" stroke="midnightblue" d="M597.44,-224.46C494.33,-204.56 238.35,-155.16 126.01,-133.48"/>
<polygon fill="midnightblue" stroke="midnightblue" points="126.4,-129.99 115.92,-131.53 125.07,-136.87 126.4,-129.99"/>
</g>
<!-- Node4 -->
<g id="node4" class="node">
<title>Node4</title>
<g id="a_node4"><a xlink:href="../../d5/d91/_camera_8h.html" target="_top" xlink:title=" ">
<polygon fill="none" stroke="black" points="442.69,-168.5 442.69,-187.5 556.69,-187.5 556.69,-168.5 442.69,-168.5"/>
<text text-anchor="middle" x="499.69" y="-175.5" font-family="Helvetica,sans-Serif" font-size="10.00">metadata/Camera.h</text>
</a>
</g>
</g>
<!-- Node3&#45;&gt;Node4 -->
<g id="edge4" class="edge">
<title>Node3&#45;&gt;Node4</title>
<path fill="none" stroke="midnightblue" d="M619.19,-224.44C595.62,-215.48 558.37,-201.31 531.73,-191.18"/>
<polygon fill="midnightblue" stroke="midnightblue" points="532.68,-187.8 522.09,-187.52 530.19,-194.34 532.68,-187.8"/>
</g>
<!-- Node7 -->
<g id="node7" class="node">
<title>Node7</title>
<g id="a_node7"><a xlink:title=" ">
<polygon fill="none" stroke="#bfbfbf" points="216.69,-0.5 216.69,-19.5 266.69,-19.5 266.69,-0.5 216.69,-0.5"/>
<text text-anchor="middle" x="241.69" y="-7.5" font-family="Helvetica,sans-Serif" font-size="10.00">cstdint</text>
</a>
</g>
</g>
<!-- Node3&#45;&gt;Node7 -->
<g id="edge26" class="edge">
<title>Node3&#45;&gt;Node7</title>
<path fill="none" stroke="midnightblue" d="M561.07,-232.68C407.04,-230.16 80.14,-214.92 11.69,-132 -45.98,-62.13 128.34,-27.42 206.19,-15.7"/>
<polygon fill="midnightblue" stroke="midnightblue" points="207.11,-19.11 216.5,-14.2 206.1,-12.18 207.11,-19.11"/>
</g>
<!-- Node13 -->
<g id="node13" class="node">
<title>Node13</title>
<g id="a_node13"><a xlink:title=" ">
<polygon fill="none" stroke="#bfbfbf" points="762.69,-56.5 762.69,-75.5 800.69,-75.5 800.69,-56.5 762.69,-56.5"/>
<text text-anchor="middle" x="781.69" y="-63.5" font-family="Helvetica,sans-Serif" font-size="10.00">map</text>
</a>
</g>
</g>
<!-- Node3&#45;&gt;Node13 -->
<g id="edge27" class="edge">
<title>Node3&#45;&gt;Node13</title>
<path fill="none" stroke="midnightblue" d="M656.02,-224.42C692.05,-202.7 784.12,-146.24 791.69,-132 799.47,-117.38 795.23,-98.47 790.09,-84.81"/>
<polygon fill="midnightblue" stroke="midnightblue" points="793.29,-83.4 786.17,-75.56 786.84,-86.13 793.29,-83.4"/>
</g>
<!-- Node14 -->
<g id="node14" class="node">
<title>Node14</title>
<g id="a_node14"><a xlink:title=" ">
<polygon fill="none" stroke="#bfbfbf" points="818.69,-56.5 818.69,-75.5 862.69,-75.5 862.69,-56.5 818.69,-56.5"/>
<text text-anchor="middle" x="840.69" y="-63.5" font-family="Helvetica,sans-Serif" font-size="10.00">string</text>
</a>
</g>
</g>
<!-- Node3&#45;&gt;Node14 -->
<g id="edge29" class="edge">
<title>Node3&#45;&gt;Node14</title>
<path fill="none" stroke="midnightblue" d="M714.2,-224.47C782.68,-215.67 876.54,-201.38 887.69,-188 914.14,-156.27 878.63,-107.95 856.32,-83.06"/>
<polygon fill="midnightblue" stroke="midnightblue" points="858.74,-80.52 849.37,-75.58 853.61,-85.29 858.74,-80.52"/>
</g>
<!-- Node17 -->
<g id="node17" class="node">
<title>Node17</title>
<g id="a_node17"><a xlink:title=" ">
<polygon fill="none" stroke="#bfbfbf" points="760.69,-168.5 760.69,-187.5 818.69,-187.5 818.69,-168.5 760.69,-168.5"/>
<text text-anchor="middle" x="789.69" y="-175.5" font-family="Helvetica,sans-Serif" font-size="10.00">memory</text>
</a>
</g>
</g>
<!-- Node3&#45;&gt;Node17 -->
<g id="edge28" class="edge">
<title>Node3&#45;&gt;Node17</title>
<path fill="none" stroke="midnightblue" d="M665.15,-224.44C689.83,-215.44 728.88,-201.19 756.67,-191.05"/>
<polygon fill="midnightblue" stroke="midnightblue" points="758.16,-194.23 766.35,-187.52 755.76,-187.66 758.16,-194.23"/>
</g>
<!-- Node18 -->
<g id="node18" class="node">
<title>Node18</title>
<g id="a_node18"><a xlink:title=" ">
<polygon fill="none" stroke="#bfbfbf" points="837.19,-168.5 837.19,-187.5 878.19,-187.5 878.19,-168.5 837.19,-168.5"/>
<text text-anchor="middle" x="857.69" y="-175.5" font-family="Helvetica,sans-Serif" font-size="10.00">tuple</text>
</a>
</g>
</g>
<!-- Node3&#45;&gt;Node18 -->
<g id="edge30" class="edge">
<title>Node3&#45;&gt;Node18</title>
<path fill="none" stroke="midnightblue" d="M679.61,-224.46C715.24,-216.29 770.27,-203.32 827.19,-188.02"/>
<polygon fill="midnightblue" stroke="midnightblue" points="828.34,-191.34 837.08,-185.34 826.51,-184.58 828.34,-191.34"/>
</g>
<!-- Node4&#45;&gt;Node2 -->
<g id="edge5" class="edge">
<title>Node4&#45;&gt;Node2</title>
<path fill="none" stroke="midnightblue" d="M442.45,-170.16C370.89,-161.55 244.68,-146.17 136.69,-132 135.42,-131.83 134.14,-131.66 132.84,-131.49"/>
<polygon fill="midnightblue" stroke="midnightblue" points="133.16,-128 122.78,-130.14 132.23,-134.94 133.16,-128"/>
</g>
<!-- Node5 -->
<g id="node5" class="node">
<title>Node5</title>
<g id="a_node5"><a xlink:href="../../d1/d18/_point_8h.html" target="_top" xlink:title=" ">
<polygon fill="none" stroke="black" points="457.69,-56.5 457.69,-75.5 553.69,-75.5 553.69,-56.5 457.69,-56.5"/>
<text text-anchor="middle" x="505.69" y="-63.5" font-family="Helvetica,sans-Serif" font-size="10.00">common/Point.h</text>
</a>
</g>
</g>
<!-- Node4&#45;&gt;Node5 -->
<g id="edge6" class="edge">
<title>Node4&#45;&gt;Node5</title>
<path fill="none" stroke="midnightblue" d="M490.45,-168.43C478.48,-156.24 460,-133.03 467.69,-112 471.75,-100.91 479.88,-90.67 487.59,-82.76"/>
<polygon fill="midnightblue" stroke="midnightblue" points="490.17,-85.14 494.98,-75.7 485.33,-80.07 490.17,-85.14"/>
</g>
<!-- Node4&#45;&gt;Node7 -->
<g id="edge20" class="edge">
<title>Node4&#45;&gt;Node7</title>
<path fill="none" stroke="midnightblue" d="M442.55,-171.21C361.08,-162.54 219.17,-145.73 199.69,-132 170.01,-111.08 152.09,-87.76 169.69,-56 177.84,-41.3 193.02,-30.77 207.34,-23.61"/>
<polygon fill="midnightblue" stroke="midnightblue" points="208.92,-26.73 216.55,-19.38 206,-20.37 208.92,-26.73"/>
</g>
<!-- Node9 -->
<g id="node9" class="node">
<title>Node9</title>
<g id="a_node9"><a xlink:href="../../db/dca/_black_area_8h.html" target="_top" xlink:title=" ">
<polygon fill="none" stroke="black" points="179.19,-56.5 179.19,-75.5 304.19,-75.5 304.19,-56.5 179.19,-56.5"/>
<text text-anchor="middle" x="241.69" y="-63.5" font-family="Helvetica,sans-Serif" font-size="10.00">metadata/BlackArea.h</text>
</a>
</g>
</g>
<!-- Node4&#45;&gt;Node9 -->
<g id="edge10" class="edge">
<title>Node4&#45;&gt;Node9</title>
<path fill="none" stroke="midnightblue" d="M442.52,-176.65C366.25,-174.82 237.33,-166.55 207.69,-132 194.96,-117.16 209.74,-96.73 223.6,-82.76"/>
<polygon fill="midnightblue" stroke="midnightblue" points="226.17,-85.16 231.03,-75.74 221.36,-80.07 226.17,-85.16"/>
</g>
<!-- Node10 -->
<g id="node10" class="node">
<title>Node10</title>
<g id="a_node10"><a xlink:href="../../d3/d36/_camera_sensor_info_8h.html" target="_top" xlink:title=" ">
<polygon fill="none" stroke="black" points="216.69,-112.5 216.69,-131.5 382.69,-131.5 382.69,-112.5 216.69,-112.5"/>
<text text-anchor="middle" x="299.69" y="-119.5" font-family="Helvetica,sans-Serif" font-size="10.00">metadata/CameraSensorInfo.h</text>
</a>
</g>
</g>
<!-- Node4&#45;&gt;Node10 -->
<g id="edge12" class="edge">
<title>Node4&#45;&gt;Node10</title>
<path fill="none" stroke="midnightblue" d="M468,-168.44C433.63,-159.16 378.62,-144.31 340.91,-134.13"/>
<polygon fill="midnightblue" stroke="midnightblue" points="341.8,-130.74 331.24,-131.52 339.98,-137.5 341.8,-130.74"/>
</g>
<!-- Node11 -->
<g id="node11" class="node">
<title>Node11</title>
<g id="a_node11"><a xlink:title=" ">
<polygon fill="none" stroke="#bfbfbf" points="354.19,-56.5 354.19,-75.5 401.19,-75.5 401.19,-56.5 354.19,-56.5"/>
<text text-anchor="middle" x="377.69" y="-63.5" font-family="Helvetica,sans-Serif" font-size="10.00">vector</text>
</a>
</g>
</g>
<!-- Node4&#45;&gt;Node11 -->
<g id="edge25" class="edge">
<title>Node4&#45;&gt;Node11</title>
<path fill="none" stroke="midnightblue" d="M490.12,-168.37C469.54,-149.81 420.85,-105.91 394.82,-82.44"/>
<polygon fill="midnightblue" stroke="midnightblue" points="396.99,-79.69 387.22,-75.59 392.31,-84.89 396.99,-79.69"/>
</g>
<!-- Node12 -->
<g id="node12" class="node">
<title>Node12</title>
<g id="a_node12"><a xlink:href="../../dd/d27/_color_filter_array_8h.html" target="_top" xlink:title=" ">
<polygon fill="none" stroke="black" points="476.69,-112.5 476.69,-131.5 626.69,-131.5 626.69,-112.5 476.69,-112.5"/>
<text text-anchor="middle" x="551.69" y="-119.5" font-family="Helvetica,sans-Serif" font-size="10.00">metadata/ColorFilterArray.h</text>
</a>
</g>
</g>
<!-- Node4&#45;&gt;Node12 -->
<g id="edge14" class="edge">
<title>Node4&#45;&gt;Node12</title>
<path fill="none" stroke="midnightblue" d="M508.28,-168.08C515.85,-160.22 527.07,-148.57 536.21,-139.08"/>
<polygon fill="midnightblue" stroke="midnightblue" points="538.85,-141.38 543.27,-131.75 533.81,-136.53 538.85,-141.38"/>
</g>
<!-- Node4&#45;&gt;Node13 -->
<g id="edge21" class="edge">
<title>Node4&#45;&gt;Node13</title>
<path fill="none" stroke="midnightblue" d="M556.77,-175.43C628.17,-172.19 744.6,-162.29 773.69,-132 785.25,-119.97 786.19,-100.37 784.88,-85.83"/>
<polygon fill="midnightblue" stroke="midnightblue" points="788.3,-84.95 783.51,-75.5 781.36,-85.87 788.3,-84.95"/>
</g>
<!-- Node4&#45;&gt;Node14 -->
<g id="edge23" class="edge">
<title>Node4&#45;&gt;Node14</title>
<path fill="none" stroke="midnightblue" d="M556.7,-173.3C630.17,-167.67 753.06,-155.1 791.69,-132 810.2,-120.93 824.05,-99.97 832.23,-84.84"/>
<polygon fill="midnightblue" stroke="midnightblue" points="835.36,-86.4 836.77,-75.9 829.12,-83.23 835.36,-86.4"/>
</g>
<!-- Node15 -->
<g id="node15" class="node">
<title>Node15</title>
<g id="a_node15"><a xlink:title=" ">
<polygon fill="none" stroke="#bfbfbf" points="644.69,-112.5 644.69,-131.5 700.69,-131.5 700.69,-112.5 644.69,-112.5"/>
<text text-anchor="middle" x="672.69" y="-119.5" font-family="Helvetica,sans-Serif" font-size="10.00">sstream</text>
</a>
</g>
</g>
<!-- Node4&#45;&gt;Node15 -->
<g id="edge22" class="edge">
<title>Node4&#45;&gt;Node15</title>
<path fill="none" stroke="midnightblue" d="M527.11,-168.44C556.46,-159.28 603.21,-144.69 635.79,-134.52"/>
<polygon fill="midnightblue" stroke="midnightblue" points="636.91,-137.84 645.41,-131.52 634.82,-131.16 636.91,-137.84"/>
</g>
<!-- Node16 -->
<g id="node16" class="node">
<title>Node16</title>
<g id="a_node16"><a xlink:title=" ">
<polygon fill="none" stroke="#bfbfbf" points="719.19,-112.5 719.19,-131.5 764.19,-131.5 764.19,-112.5 719.19,-112.5"/>
<text text-anchor="middle" x="741.69" y="-119.5" font-family="Helvetica,sans-Serif" font-size="10.00">utility</text>
</a>
</g>
</g>
<!-- Node4&#45;&gt;Node16 -->
<g id="edge24" class="edge">
<title>Node4&#45;&gt;Node16</title>
<path fill="none" stroke="midnightblue" d="M543.32,-168.49C583.84,-160.39 646.06,-147.49 709.28,-131.98"/>
<polygon fill="midnightblue" stroke="midnightblue" points="710.15,-135.37 719.02,-129.57 708.47,-128.57 710.15,-135.37"/>
</g>
<!-- Node6 -->
<g id="node6" class="node">
<title>Node6</title>
<g id="a_node6"><a xlink:title=" ">
<polygon fill="none" stroke="#bfbfbf" points="515.69,-0.5 515.69,-19.5 579.69,-19.5 579.69,-0.5 515.69,-0.5"/>
<text text-anchor="middle" x="547.69" y="-7.5" font-family="Helvetica,sans-Serif" font-size="10.00">algorithm</text>
</a>
</g>
</g>
<!-- Node5&#45;&gt;Node6 -->
<g id="edge7" class="edge">
<title>Node5&#45;&gt;Node6</title>
<path fill="none" stroke="midnightblue" d="M512.63,-56.08C518.62,-48.38 527.45,-37.03 534.74,-27.65"/>
<polygon fill="midnightblue" stroke="midnightblue" points="537.51,-29.79 540.89,-19.75 531.99,-25.5 537.51,-29.79"/>
</g>
<!-- Node5&#45;&gt;Node7 -->
<g id="edge8" class="edge">
<title>Node5&#45;&gt;Node7</title>
<path fill="none" stroke="midnightblue" d="M463.86,-56.44C412.26,-45.89 325.42,-28.13 277.01,-18.22"/>
<polygon fill="midnightblue" stroke="midnightblue" points="277.5,-14.75 267.01,-16.18 276.1,-21.61 277.5,-14.75"/>
</g>
<!-- Node8 -->
<g id="node8" class="node">
<title>Node8</title>
<g id="a_node8"><a xlink:title=" ">
<polygon fill="none" stroke="#bfbfbf" points="428.19,-0.5 428.19,-19.5 497.19,-19.5 497.19,-0.5 428.19,-0.5"/>
<text text-anchor="middle" x="462.69" y="-7.5" font-family="Helvetica,sans-Serif" font-size="10.00">type_traits</text>
</a>
</g>
</g>
<!-- Node5&#45;&gt;Node8 -->
<g id="edge9" class="edge">
<title>Node5&#45;&gt;Node8</title>
<path fill="none" stroke="midnightblue" d="M498.59,-56.08C492.46,-48.38 483.42,-37.03 475.96,-27.65"/>
<polygon fill="midnightblue" stroke="midnightblue" points="478.63,-25.39 469.66,-19.75 473.15,-29.75 478.63,-25.39"/>
</g>
<!-- Node9&#45;&gt;Node7 -->
<g id="edge11" class="edge">
<title>Node9&#45;&gt;Node7</title>
<path fill="none" stroke="midnightblue" d="M241.69,-56.08C241.69,-49.01 241.69,-38.86 241.69,-29.99"/>
<polygon fill="midnightblue" stroke="midnightblue" points="245.19,-29.75 241.69,-19.75 238.19,-29.75 245.19,-29.75"/>
</g>
<!-- Node10&#45;&gt;Node11 -->
<g id="edge13" class="edge">
<title>Node10&#45;&gt;Node11</title>
<path fill="none" stroke="midnightblue" d="M312.23,-112.32C324.28,-103.98 342.72,-91.21 356.96,-81.35"/>
<polygon fill="midnightblue" stroke="midnightblue" points="358.96,-84.22 365.19,-75.65 354.98,-78.47 358.96,-84.22"/>
</g>
<!-- Node12&#45;&gt;Node5 -->
<g id="edge15" class="edge">
<title>Node12&#45;&gt;Node5</title>
<path fill="none" stroke="midnightblue" d="M544.1,-112.08C537.47,-104.3 527.67,-92.8 519.64,-83.37"/>
<polygon fill="midnightblue" stroke="midnightblue" points="522.3,-81.09 513.15,-75.75 516.97,-85.63 522.3,-81.09"/>
</g>
<!-- Node12&#45;&gt;Node7 -->
<g id="edge16" class="edge">
<title>Node12&#45;&gt;Node7</title>
<path fill="none" stroke="midnightblue" d="M531.01,-112.41C510.09,-103.61 476.91,-89.38 448.69,-76 431.09,-67.65 427.87,-63 409.69,-56 365.01,-38.78 311.21,-25.63 276.74,-18.11"/>
<polygon fill="midnightblue" stroke="midnightblue" points="277.21,-14.63 266.7,-15.96 275.75,-21.47 277.21,-14.63"/>
</g>
<!-- Node12&#45;&gt;Node11 -->
<g id="edge19" class="edge">
<title>Node12&#45;&gt;Node11</title>
<path fill="none" stroke="midnightblue" d="M524.12,-112.44C493.38,-102.9 443.67,-87.48 410.84,-77.29"/>
<polygon fill="midnightblue" stroke="midnightblue" points="411.82,-73.93 401.23,-74.3 409.74,-80.61 411.82,-73.93"/>
</g>
<!-- Node12&#45;&gt;Node13 -->
<g id="edge17" class="edge">
<title>Node12&#45;&gt;Node13</title>
<path fill="none" stroke="midnightblue" d="M588.14,-112.44C633.8,-101.72 711.1,-83.57 752.86,-73.77"/>
<polygon fill="midnightblue" stroke="midnightblue" points="753.74,-77.16 762.67,-71.47 752.14,-70.34 753.74,-77.16"/>
</g>
<!-- Node12&#45;&gt;Node14 -->
<g id="edge18" class="edge">
<title>Node12&#45;&gt;Node14</title>
<path fill="none" stroke="midnightblue" d="M611.5,-112.48C661.78,-104.88 735.68,-92.7 808.61,-76.05"/>
<polygon fill="midnightblue" stroke="midnightblue" points="809.47,-79.45 818.42,-73.78 807.89,-72.63 809.47,-79.45"/>
</g>
</g>
</svg>
