<?xml version="1.0" encoding="UTF-8" standalone="no"?>
<!DOCTYPE svg PUBLIC "-//W3C//DTD SVG 1.1//EN"
 "http://www.w3.org/Graphics/SVG/1.1/DTD/svg11.dtd">
<!-- Generated by graphviz version 2.43.0 (0)
 -->
<!-- Title: /build/rawspeed/bench/librawspeed/bench/Common.cpp Pages: 1 -->
<svg width="664pt" height="207pt"
 viewBox="0.00 0.00 664.00 207.00" xmlns="http://www.w3.org/2000/svg" xmlns:xlink="http://www.w3.org/1999/xlink">
<g id="graph0" class="graph" transform="scale(1 1) rotate(0) translate(4 203)">
<title>/build/rawspeed/bench/librawspeed/bench/Common.cpp</title>
<!-- Node1 -->
<g id="node1" class="node">
<title>Node1</title>
<g id="a_node1"><a xlink:title=" ">
<polygon fill="#bfbfbf" stroke="black" points="174.5,-168.5 174.5,-198.5 353.5,-198.5 353.5,-168.5 174.5,-168.5"/>
<text text-anchor="start" x="182.5" y="-186.5" font-family="Helvetica,sans-Serif" font-size="10.00">/build/rawspeed/bench</text>
<text text-anchor="middle" x="264" y="-175.5" font-family="Helvetica,sans-Serif" font-size="10.00">/librawspeed/bench/Common.cpp</text>
</a>
</g>
</g>
<!-- Node2 -->
<g id="node2" class="node">
<title>Node2</title>
<g id="a_node2"><a xlink:href="../../dc/d32/bench_2librawspeed_2bench_2_common_8h.html" target="_top" xlink:title=" ">
<polygon fill="none" stroke="black" points="134,-112.5 134,-131.5 236,-131.5 236,-112.5 134,-112.5"/>
<text text-anchor="middle" x="185" y="-119.5" font-family="Helvetica,sans-Serif" font-size="10.00">bench/Common.h</text>
</a>
</g>
</g>
<!-- Node1&#45;&gt;Node2 -->
<g id="edge1" class="edge">
<title>Node1&#45;&gt;Node2</title>
<path fill="none" stroke="midnightblue" d="M245.28,-168.4C233.09,-159.22 217.21,-147.26 204.81,-137.92"/>
<polygon fill="midnightblue" stroke="midnightblue" points="206.59,-134.88 196.5,-131.66 202.38,-140.47 206.59,-134.88"/>
</g>
<!-- Node3 -->
<g id="node3" class="node">
<title>Node3</title>
<g id="a_node3"><a xlink:href="../../d1/d18/_point_8h.html" target="_top" xlink:title=" ">
<polygon fill="none" stroke="black" points="58,-56.5 58,-75.5 154,-75.5 154,-56.5 58,-56.5"/>
<text text-anchor="middle" x="106" y="-63.5" font-family="Helvetica,sans-Serif" font-size="10.00">common/Point.h</text>
</a>
</g>
</g>
<!-- Node1&#45;&gt;Node3 -->
<g id="edge17" class="edge">
<title>Node1&#45;&gt;Node3</title>
<path fill="none" stroke="midnightblue" d="M186.93,-168.45C164.39,-160.97 141.42,-149.51 125,-132 113.32,-119.55 108.78,-100.31 107.03,-85.99"/>
<polygon fill="midnightblue" stroke="midnightblue" points="110.5,-85.45 106.15,-75.79 103.53,-86.05 110.5,-85.45"/>
</g>
<!-- Node8 -->
<g id="node8" class="node">
<title>Node8</title>
<g id="a_node8"><a xlink:href="../../d9/df5/src_2librawspeed_2common_2_common_8h.html" target="_top" xlink:title=" ">
<polygon fill="none" stroke="black" points="292,-56.5 292,-75.5 408,-75.5 408,-56.5 292,-56.5"/>
<text text-anchor="middle" x="350" y="-63.5" font-family="Helvetica,sans-Serif" font-size="10.00">common/Common.h</text>
</a>
</g>
</g>
<!-- Node1&#45;&gt;Node8 -->
<g id="edge7" class="edge">
<title>Node1&#45;&gt;Node8</title>
<path fill="none" stroke="midnightblue" d="M274.55,-168.34C290.46,-146.96 320.57,-106.53 337.54,-83.73"/>
<polygon fill="midnightblue" stroke="midnightblue" points="340.38,-85.78 343.54,-75.67 334.77,-81.6 340.38,-85.78"/>
</g>
<!-- Node9 -->
<g id="node9" class="node">
<title>Node9</title>
<g id="a_node9"><a xlink:title=" ">
<polygon fill="none" stroke="#bfbfbf" points="238,-0.5 238,-19.5 290,-19.5 290,-0.5 238,-0.5"/>
<text text-anchor="middle" x="264" y="-7.5" font-family="Helvetica,sans-Serif" font-size="10.00">cassert</text>
</a>
</g>
</g>
<!-- Node1&#45;&gt;Node9 -->
<g id="edge18" class="edge">
<title>Node1&#45;&gt;Node9</title>
<path fill="none" stroke="midnightblue" d="M264,-168.47C264,-137.7 264,-64.33 264,-29.7"/>
<polygon fill="midnightblue" stroke="midnightblue" points="267.5,-29.56 264,-19.56 260.5,-29.56 267.5,-29.56"/>
</g>
<!-- Node15 -->
<g id="node15" class="node">
<title>Node15</title>
<g id="a_node15"><a xlink:title=" ">
<polygon fill="none" stroke="#bfbfbf" points="330.5,-112.5 330.5,-131.5 377.5,-131.5 377.5,-112.5 330.5,-112.5"/>
<text text-anchor="middle" x="354" y="-119.5" font-family="Helvetica,sans-Serif" font-size="10.00">cmath</text>
</a>
</g>
</g>
<!-- Node1&#45;&gt;Node15 -->
<g id="edge19" class="edge">
<title>Node1&#45;&gt;Node15</title>
<path fill="none" stroke="midnightblue" d="M285.33,-168.4C299.49,-159.04 318.01,-146.79 332.25,-137.38"/>
<polygon fill="midnightblue" stroke="midnightblue" points="334.49,-140.09 340.9,-131.66 330.63,-134.25 334.49,-140.09"/>
</g>
<!-- Node2&#45;&gt;Node3 -->
<g id="edge2" class="edge">
<title>Node2&#45;&gt;Node3</title>
<path fill="none" stroke="midnightblue" d="M172.31,-112.32C160.1,-103.98 141.42,-91.21 127,-81.35"/>
<polygon fill="midnightblue" stroke="midnightblue" points="128.89,-78.41 118.66,-75.65 124.94,-84.19 128.89,-78.41"/>
</g>
<!-- Node7 -->
<g id="node7" class="node">
<title>Node7</title>
<g id="a_node7"><a xlink:title=" ">
<polygon fill="none" stroke="#bfbfbf" points="172.5,-56.5 172.5,-75.5 225.5,-75.5 225.5,-56.5 172.5,-56.5"/>
<text text-anchor="middle" x="199" y="-63.5" font-family="Helvetica,sans-Serif" font-size="10.00">cstddef</text>
</a>
</g>
</g>
<!-- Node2&#45;&gt;Node7 -->
<g id="edge6" class="edge">
<title>Node2&#45;&gt;Node7</title>
<path fill="none" stroke="midnightblue" d="M187.31,-112.08C189.17,-104.93 191.84,-94.64 194.15,-85.69"/>
<polygon fill="midnightblue" stroke="midnightblue" points="197.61,-86.31 196.73,-75.75 190.83,-84.55 197.61,-86.31"/>
</g>
<!-- Node4 -->
<g id="node4" class="node">
<title>Node4</title>
<g id="a_node4"><a xlink:title=" ">
<polygon fill="none" stroke="#bfbfbf" points="0,-0.5 0,-19.5 64,-19.5 64,-0.5 0,-0.5"/>
<text text-anchor="middle" x="32" y="-7.5" font-family="Helvetica,sans-Serif" font-size="10.00">algorithm</text>
</a>
</g>
</g>
<!-- Node3&#45;&gt;Node4 -->
<g id="edge3" class="edge">
<title>Node3&#45;&gt;Node4</title>
<path fill="none" stroke="midnightblue" d="M94.11,-56.32C82.85,-48.11 65.71,-35.6 52.29,-25.81"/>
<polygon fill="midnightblue" stroke="midnightblue" points="54.25,-22.9 44.11,-19.83 50.12,-28.56 54.25,-22.9"/>
</g>
<!-- Node5 -->
<g id="node5" class="node">
<title>Node5</title>
<g id="a_node5"><a xlink:title=" ">
<polygon fill="none" stroke="#bfbfbf" points="82,-0.5 82,-19.5 132,-19.5 132,-0.5 82,-0.5"/>
<text text-anchor="middle" x="107" y="-7.5" font-family="Helvetica,sans-Serif" font-size="10.00">cstdint</text>
</a>
</g>
</g>
<!-- Node3&#45;&gt;Node5 -->
<g id="edge4" class="edge">
<title>Node3&#45;&gt;Node5</title>
<path fill="none" stroke="midnightblue" d="M106.17,-56.08C106.3,-49.01 106.48,-38.86 106.65,-29.99"/>
<polygon fill="midnightblue" stroke="midnightblue" points="110.15,-29.81 106.84,-19.75 103.15,-29.68 110.15,-29.81"/>
</g>
<!-- Node6 -->
<g id="node6" class="node">
<title>Node6</title>
<g id="a_node6"><a xlink:title=" ">
<polygon fill="none" stroke="#bfbfbf" points="150.5,-0.5 150.5,-19.5 219.5,-19.5 219.5,-0.5 150.5,-0.5"/>
<text text-anchor="middle" x="185" y="-7.5" font-family="Helvetica,sans-Serif" font-size="10.00">type_traits</text>
</a>
</g>
</g>
<!-- Node3&#45;&gt;Node6 -->
<g id="edge5" class="edge">
<title>Node3&#45;&gt;Node6</title>
<path fill="none" stroke="midnightblue" d="M118.69,-56.32C130.9,-47.98 149.58,-35.21 164,-25.35"/>
<polygon fill="midnightblue" stroke="midnightblue" points="166.06,-28.19 172.34,-19.65 162.11,-22.41 166.06,-28.19"/>
</g>
<!-- Node8&#45;&gt;Node4 -->
<g id="edge8" class="edge">
<title>Node8&#45;&gt;Node4</title>
<path fill="none" stroke="midnightblue" d="M291.74,-56.49C237.77,-48.39 155.03,-35.42 74.06,-20.12"/>
<polygon fill="midnightblue" stroke="midnightblue" points="74.67,-16.67 64.19,-18.24 73.36,-23.55 74.67,-16.67"/>
</g>
<!-- Node8&#45;&gt;Node5 -->
<g id="edge11" class="edge">
<title>Node8&#45;&gt;Node5</title>
<path fill="none" stroke="midnightblue" d="M307.44,-56.44C267.26,-48.23 205.1,-35.18 142.3,-20.23"/>
<polygon fill="midnightblue" stroke="midnightblue" points="142.76,-16.74 132.22,-17.82 141.13,-23.55 142.76,-16.74"/>
</g>
<!-- Node8&#45;&gt;Node6 -->
<g id="edge15" class="edge">
<title>Node8&#45;&gt;Node6</title>
<path fill="none" stroke="midnightblue" d="M323.86,-56.44C295.98,-47.32 251.65,-32.81 220.6,-22.65"/>
<polygon fill="midnightblue" stroke="midnightblue" points="221.62,-19.3 211.02,-19.52 219.44,-25.95 221.62,-19.3"/>
</g>
<!-- Node8&#45;&gt;Node9 -->
<g id="edge9" class="edge">
<title>Node8&#45;&gt;Node9</title>
<path fill="none" stroke="midnightblue" d="M336.18,-56.32C322.77,-47.9 302.18,-34.97 286.41,-25.07"/>
<polygon fill="midnightblue" stroke="midnightblue" points="288.11,-22.01 277.78,-19.65 284.39,-27.94 288.11,-22.01"/>
</g>
<!-- Node10 -->
<g id="node10" class="node">
<title>Node10</title>
<g id="a_node10"><a xlink:title=" ">
<polygon fill="none" stroke="#bfbfbf" points="538,-0.5 538,-19.5 588,-19.5 588,-0.5 538,-0.5"/>
<text text-anchor="middle" x="563" y="-7.5" font-family="Helvetica,sans-Serif" font-size="10.00">climits</text>
</a>
</g>
</g>
<!-- Node8&#45;&gt;Node10 -->
<g id="edge10" class="edge">
<title>Node8&#45;&gt;Node10</title>
<path fill="none" stroke="midnightblue" d="M384.68,-56.42C418.72,-47.96 472.38,-34.56 527.77,-20.3"/>
<polygon fill="midnightblue" stroke="midnightblue" points="528.95,-23.61 537.76,-17.72 527.2,-16.83 528.95,-23.61"/>
</g>
<!-- Node11 -->
<g id="node11" class="node">
<title>Node11</title>
<g id="a_node11"><a xlink:title=" ">
<polygon fill="none" stroke="#bfbfbf" points="606,-0.5 606,-19.5 656,-19.5 656,-0.5 606,-0.5"/>
<text text-anchor="middle" x="631" y="-7.5" font-family="Helvetica,sans-Serif" font-size="10.00">cstring</text>
</a>
</g>
</g>
<!-- Node8&#45;&gt;Node11 -->
<g id="edge12" class="edge">
<title>Node8&#45;&gt;Node11</title>
<path fill="none" stroke="midnightblue" d="M403.73,-56.46C451.67,-48.56 523.99,-35.95 595.69,-20.16"/>
<polygon fill="midnightblue" stroke="midnightblue" points="596.8,-23.49 605.8,-17.91 595.28,-16.66 596.8,-23.49"/>
</g>
<!-- Node12 -->
<g id="node12" class="node">
<title>Node12</title>
<g id="a_node12"><a xlink:title=" ">
<polygon fill="none" stroke="#bfbfbf" points="308.5,-0.5 308.5,-19.5 391.5,-19.5 391.5,-0.5 308.5,-0.5"/>
<text text-anchor="middle" x="350" y="-7.5" font-family="Helvetica,sans-Serif" font-size="10.00">initializer_list</text>
</a>
</g>
</g>
<!-- Node8&#45;&gt;Node12 -->
<g id="edge13" class="edge">
<title>Node8&#45;&gt;Node12</title>
<path fill="none" stroke="midnightblue" d="M350,-56.08C350,-49.01 350,-38.86 350,-29.99"/>
<polygon fill="midnightblue" stroke="midnightblue" points="353.5,-29.75 350,-19.75 346.5,-29.75 353.5,-29.75"/>
</g>
<!-- Node13 -->
<g id="node13" class="node">
<title>Node13</title>
<g id="a_node13"><a xlink:title=" ">
<polygon fill="none" stroke="#bfbfbf" points="410,-0.5 410,-19.5 454,-19.5 454,-0.5 410,-0.5"/>
<text text-anchor="middle" x="432" y="-7.5" font-family="Helvetica,sans-Serif" font-size="10.00">string</text>
</a>
</g>
</g>
<!-- Node8&#45;&gt;Node13 -->
<g id="edge14" class="edge">
<title>Node8&#45;&gt;Node13</title>
<path fill="none" stroke="midnightblue" d="M363.17,-56.32C375.85,-47.98 395.23,-35.21 410.21,-25.35"/>
<polygon fill="midnightblue" stroke="midnightblue" points="412.43,-28.08 418.86,-19.65 408.58,-22.23 412.43,-28.08"/>
</g>
<!-- Node14 -->
<g id="node14" class="node">
<title>Node14</title>
<g id="a_node14"><a xlink:title=" ">
<polygon fill="none" stroke="#bfbfbf" points="472.5,-0.5 472.5,-19.5 519.5,-19.5 519.5,-0.5 472.5,-0.5"/>
<text text-anchor="middle" x="496" y="-7.5" font-family="Helvetica,sans-Serif" font-size="10.00">vector</text>
</a>
</g>
</g>
<!-- Node8&#45;&gt;Node14 -->
<g id="edge16" class="edge">
<title>Node8&#45;&gt;Node14</title>
<path fill="none" stroke="midnightblue" d="M373.13,-56.44C397.48,-47.44 436.01,-33.19 463.42,-23.05"/>
<polygon fill="midnightblue" stroke="midnightblue" points="464.81,-26.27 472.97,-19.52 462.38,-19.7 464.81,-26.27"/>
</g>
</g>
</svg>
