<?xml version="1.0" encoding="UTF-8" standalone="no"?>
<!DOCTYPE svg PUBLIC "-//W3C//DTD SVG 1.1//EN"
 "http://www.w3.org/Graphics/SVG/1.1/DTD/svg11.dtd">
<!-- Generated by graphviz version 2.43.0 (0)
 -->
<!-- Title: rawspeed::SamsungV2Decompressor Pages: 1 -->
<svg width="2148pt" height="861pt"
 viewBox="0.00 0.00 2148.00 861.00" xmlns="http://www.w3.org/2000/svg" xmlns:xlink="http://www.w3.org/1999/xlink">
<g id="graph0" class="graph" transform="scale(1 1) rotate(0) translate(4 857)">
<title>rawspeed::SamsungV2Decompressor</title>
<!-- Node1 -->
<g id="node1" class="node">
<title>Node1</title>
<g id="a_node1"><a xlink:title=" ">
<polygon fill="#bfbfbf" stroke="black" points="1942,-521.5 1942,-540.5 2140,-540.5 2140,-521.5 1942,-521.5"/>
<text text-anchor="middle" x="2041" y="-528.5" font-family="Helvetica,sans-Serif" font-size="10.00">rawspeed::SamsungV2Decompressor</text>
</a>
</g>
</g>
<!-- Node2 -->
<g id="node2" class="node">
<title>Node2</title>
<g id="a_node2"><a xlink:href="../../d5/d18/classrawspeed_1_1_abstract_samsung_decompressor.html" target="_top" xlink:title=" ">
<polygon fill="none" stroke="black" points="1750,-516 1750,-546 1905,-546 1905,-516 1750,-516"/>
<text text-anchor="start" x="1758" y="-534" font-family="Helvetica,sans-Serif" font-size="10.00">rawspeed::AbstractSamsung</text>
<text text-anchor="middle" x="1827.5" y="-523" font-family="Helvetica,sans-Serif" font-size="10.00">Decompressor</text>
</a>
</g>
</g>
<!-- Node2&#45;&gt;Node1 -->
<g id="edge1" class="edge">
<title>Node2&#45;&gt;Node1</title>
<path fill="none" stroke="midnightblue" d="M1915.34,-531C1924.1,-531 1933.04,-531 1941.91,-531"/>
<polygon fill="midnightblue" stroke="midnightblue" points="1915.16,-527.5 1905.16,-531 1915.16,-534.5 1915.16,-527.5"/>
</g>
<!-- Node3 -->
<g id="node3" class="node">
<title>Node3</title>
<g id="a_node3"><a xlink:href="../../d9/d57/classrawspeed_1_1_abstract_decompressor.html" target="_top" xlink:title=" ">
<polygon fill="none" stroke="black" points="1499,-502.5 1499,-521.5 1680,-521.5 1680,-502.5 1499,-502.5"/>
<text text-anchor="middle" x="1589.5" y="-509.5" font-family="Helvetica,sans-Serif" font-size="10.00">rawspeed::AbstractDecompressor</text>
</a>
</g>
</g>
<!-- Node3&#45;&gt;Node2 -->
<g id="edge2" class="edge">
<title>Node3&#45;&gt;Node2</title>
<path fill="none" stroke="midnightblue" d="M1690.09,-520.02C1710.04,-521.62 1730.7,-523.29 1749.72,-524.82"/>
<polygon fill="midnightblue" stroke="midnightblue" points="1690.31,-516.52 1680.06,-519.21 1689.74,-523.5 1690.31,-516.52"/>
</g>
<!-- Node4 -->
<g id="node4" class="node">
<title>Node4</title>
<g id="a_node4"><a xlink:href="../../dd/d12/classrawspeed_1_1_raw_image.html" target="_top" xlink:title=" ">
<polygon fill="none" stroke="black" points="1528.5,-540.5 1528.5,-559.5 1650.5,-559.5 1650.5,-540.5 1528.5,-540.5"/>
<text text-anchor="middle" x="1589.5" y="-547.5" font-family="Helvetica,sans-Serif" font-size="10.00">rawspeed::RawImage</text>
</a>
</g>
</g>
<!-- Node4&#45;&gt;Node2 -->
<g id="edge3" class="edge">
<title>Node4&#45;&gt;Node2</title>
<path fill="none" stroke="#9a32cd" stroke-dasharray="5,2" d="M1660.79,-544.34C1688.86,-542.08 1721.25,-539.47 1749.91,-537.17"/>
<polygon fill="#9a32cd" stroke="#9a32cd" points="1660.35,-540.87 1650.66,-545.16 1660.91,-547.84 1660.35,-540.87"/>
<text text-anchor="middle" x="1715" y="-544" font-family="Helvetica,sans-Serif" font-size="10.00"> mRaw</text>
</g>
<!-- Node5 -->
<g id="node5" class="node">
<title>Node5</title>
<g id="a_node5"><a xlink:href="../../dc/d44/classrawspeed_1_1_raw_image_data.html" target="_top" xlink:title=" ">
<polygon fill="none" stroke="black" points="1303,-540.5 1303,-559.5 1448,-559.5 1448,-540.5 1303,-540.5"/>
<text text-anchor="middle" x="1375.5" y="-547.5" font-family="Helvetica,sans-Serif" font-size="10.00">rawspeed::RawImageData</text>
</a>
</g>
</g>
<!-- Node5&#45;&gt;Node4 -->
<g id="edge4" class="edge">
<title>Node5&#45;&gt;Node4</title>
<path fill="none" stroke="#9a32cd" stroke-dasharray="5,2" d="M1458.49,-550C1481.79,-550 1506.72,-550 1528.45,-550"/>
<polygon fill="#9a32cd" stroke="#9a32cd" points="1458.27,-546.5 1448.27,-550 1458.27,-553.5 1458.27,-546.5"/>
<text text-anchor="middle" x="1473.5" y="-553" font-family="Helvetica,sans-Serif" font-size="10.00"> p_</text>
</g>
<!-- Node6 -->
<g id="node6" class="node">
<title>Node6</title>
<g id="a_node6"><a xlink:href="../../d6/d92/classrawspeed_1_1_error_log.html" target="_top" xlink:title=" ">
<polygon fill="none" stroke="black" points="1062,-718.5 1062,-737.5 1172,-737.5 1172,-718.5 1062,-718.5"/>
<text text-anchor="middle" x="1117" y="-725.5" font-family="Helvetica,sans-Serif" font-size="10.00">rawspeed::ErrorLog</text>
</a>
</g>
</g>
<!-- Node6&#45;&gt;Node5 -->
<g id="edge5" class="edge">
<title>Node6&#45;&gt;Node5</title>
<path fill="none" stroke="midnightblue" d="M1182.35,-725.86C1215.52,-722.01 1255.16,-712.87 1285,-692 1334.43,-657.43 1362.44,-585.92 1371.35,-559.82"/>
<polygon fill="midnightblue" stroke="midnightblue" points="1181.87,-722.39 1172.28,-726.89 1182.59,-729.35 1181.87,-722.39"/>
</g>
<!-- Node7 -->
<g id="node7" class="node">
<title>Node7</title>
<g id="a_node7"><a xlink:title=" ">
<polygon fill="none" stroke="#bfbfbf" points="812.5,-715.5 812.5,-734.5 859.5,-734.5 859.5,-715.5 812.5,-715.5"/>
<text text-anchor="middle" x="836" y="-722.5" font-family="Helvetica,sans-Serif" font-size="10.00">Mutex</text>
</a>
</g>
</g>
<!-- Node7&#45;&gt;Node5 -->
<g id="edge53" class="edge">
<title>Node7&#45;&gt;Node5</title>
<path fill="none" stroke="#9a32cd" stroke-dasharray="5,2" d="M869.35,-718.63C909.87,-710.75 981.43,-697.13 1043,-687 1150.23,-669.36 1189.48,-703.83 1285,-652 1326.21,-629.64 1357.43,-580.41 1369.29,-559.59"/>
<polygon fill="#9a32cd" stroke="#9a32cd" points="868.65,-715.2 859.51,-720.55 869.99,-722.07 868.65,-715.2"/>
<text text-anchor="middle" x="1117" y="-701" font-family="Helvetica,sans-Serif" font-size="10.00"> mymutex</text>
<text text-anchor="middle" x="1117" y="-690" font-family="Helvetica,sans-Serif" font-size="10.00">mBadPixelMutex</text>
</g>
<!-- Node7&#45;&gt;Node6 -->
<g id="edge6" class="edge">
<title>Node7&#45;&gt;Node6</title>
<path fill="none" stroke="#9a32cd" stroke-dasharray="5,2" d="M870.12,-725.36C917.44,-725.86 1004.93,-726.81 1061.78,-727.42"/>
<polygon fill="#9a32cd" stroke="#9a32cd" points="869.87,-721.85 859.83,-725.25 869.79,-728.85 869.87,-721.85"/>
<text text-anchor="middle" x="976.5" y="-729" font-family="Helvetica,sans-Serif" font-size="10.00"> mutex</text>
</g>
<!-- Node8 -->
<g id="node8" class="node">
<title>Node8</title>
<g id="a_node8"><a xlink:title=" ">
<polygon fill="none" stroke="#bfbfbf" points="1043,-486 1043,-516 1191,-516 1191,-486 1043,-486"/>
<text text-anchor="start" x="1051" y="-504" font-family="Helvetica,sans-Serif" font-size="10.00">std::unique_ptr&lt; rawspeed</text>
<text text-anchor="middle" x="1117" y="-493" font-family="Helvetica,sans-Serif" font-size="10.00">::TableLookUp &gt;</text>
</a>
</g>
</g>
<!-- Node8&#45;&gt;Node5 -->
<g id="edge7" class="edge">
<title>Node8&#45;&gt;Node5</title>
<path fill="none" stroke="#9a32cd" stroke-dasharray="5,2" d="M1201.07,-516.87C1241.74,-524.64 1289.37,-533.74 1324.42,-540.43"/>
<polygon fill="#9a32cd" stroke="#9a32cd" points="1201.64,-513.41 1191.16,-514.98 1200.32,-520.29 1201.64,-513.41"/>
<text text-anchor="middle" x="1247" y="-535" font-family="Helvetica,sans-Serif" font-size="10.00"> table</text>
</g>
<!-- Node9 -->
<g id="node9" class="node">
<title>Node9</title>
<g id="a_node9"><a xlink:href="../../db/d1a/classrawspeed_1_1_table_look_up.html" target="_top" xlink:title=" ">
<polygon fill="none" stroke="black" points="770,-518.5 770,-537.5 902,-537.5 902,-518.5 770,-518.5"/>
<text text-anchor="middle" x="836" y="-525.5" font-family="Helvetica,sans-Serif" font-size="10.00">rawspeed::TableLookUp</text>
</a>
</g>
</g>
<!-- Node9&#45;&gt;Node8 -->
<g id="edge8" class="edge">
<title>Node9&#45;&gt;Node8</title>
<path fill="none" stroke="#9a32cd" stroke-dasharray="5,2" d="M912.17,-520.73C952.78,-516.8 1002.69,-511.97 1042.97,-508.07"/>
<polygon fill="#9a32cd" stroke="#9a32cd" points="911.68,-517.26 902.06,-521.7 912.35,-524.22 911.68,-517.26"/>
<text text-anchor="middle" x="976.5" y="-521" font-family="Helvetica,sans-Serif" font-size="10.00"> ptr</text>
</g>
<!-- Node10 -->
<g id="node10" class="node">
<title>Node10</title>
<g id="a_node10"><a xlink:title=" ">
<polygon fill="none" stroke="#bfbfbf" points="451.5,-523.5 451.5,-542.5 582.5,-542.5 582.5,-523.5 451.5,-523.5"/>
<text text-anchor="middle" x="517" y="-530.5" font-family="Helvetica,sans-Serif" font-size="10.00">std::vector&lt; uint16_t &gt;</text>
</a>
</g>
</g>
<!-- Node10&#45;&gt;Node9 -->
<g id="edge9" class="edge">
<title>Node10&#45;&gt;Node9</title>
<path fill="none" stroke="#9a32cd" stroke-dasharray="5,2" d="M592.69,-531.82C646.45,-530.97 718.27,-529.84 769.74,-529.03"/>
<polygon fill="#9a32cd" stroke="#9a32cd" points="592.48,-528.32 582.53,-531.98 592.59,-535.32 592.48,-528.32"/>
<text text-anchor="middle" x="673" y="-534" font-family="Helvetica,sans-Serif" font-size="10.00"> tables</text>
</g>
<!-- Node11 -->
<g id="node11" class="node">
<title>Node11</title>
<g id="a_node11"><a xlink:href="../../d5/df4/classuint16__t.html" target="_top" xlink:title=" ">
<polygon fill="none" stroke="black" points="211.5,-501.5 211.5,-520.5 267.5,-520.5 267.5,-501.5 211.5,-501.5"/>
<text text-anchor="middle" x="239.5" y="-508.5" font-family="Helvetica,sans-Serif" font-size="10.00">uint16_t</text>
</a>
</g>
</g>
<!-- Node11&#45;&gt;Node10 -->
<g id="edge10" class="edge">
<title>Node11&#45;&gt;Node10</title>
<path fill="none" stroke="#9a32cd" stroke-dasharray="5,2" d="M278.07,-512.73C316.71,-514.66 378.63,-518.15 432,-523 438.29,-523.57 444.84,-524.23 451.38,-524.94"/>
<polygon fill="#9a32cd" stroke="#9a32cd" points="277.97,-509.22 267.81,-512.23 277.63,-516.22 277.97,-509.22"/>
<text text-anchor="middle" x="370" y="-526" font-family="Helvetica,sans-Serif" font-size="10.00"> elements</text>
</g>
<!-- Node12 -->
<g id="node12" class="node">
<title>Node12</title>
<g id="a_node12"><a xlink:title="STL class.">
<polygon fill="none" stroke="#bfbfbf" points="191,-539.5 191,-558.5 288,-558.5 288,-539.5 191,-539.5"/>
<text text-anchor="middle" x="239.5" y="-546.5" font-family="Helvetica,sans-Serif" font-size="10.00">std::vector&lt; T &gt;</text>
</a>
</g>
</g>
<!-- Node12&#45;&gt;Node10 -->
<g id="edge11" class="edge">
<title>Node12&#45;&gt;Node10</title>
<path fill="none" stroke="orange" stroke-dasharray="5,2" d="M298.3,-545.64C343.04,-543.04 405,-539.45 451.38,-536.75"/>
<polygon fill="orange" stroke="orange" points="297.95,-542.16 288.17,-546.23 298.36,-549.15 297.95,-542.16"/>
<text text-anchor="middle" x="370" y="-547" font-family="Helvetica,sans-Serif" font-size="10.00"> &lt; uint16_t &gt;</text>
</g>
<!-- Node17 -->
<g id="node17" class="node">
<title>Node17</title>
<g id="a_node17"><a xlink:title=" ">
<polygon fill="none" stroke="#bfbfbf" points="1053.5,-535 1053.5,-565 1180.5,-565 1180.5,-535 1053.5,-535"/>
<text text-anchor="start" x="1061.5" y="-553" font-family="Helvetica,sans-Serif" font-size="10.00">std::vector&lt; rawspeed</text>
<text text-anchor="middle" x="1117" y="-542" font-family="Helvetica,sans-Serif" font-size="10.00">::BlackArea &gt;</text>
</a>
</g>
</g>
<!-- Node12&#45;&gt;Node17 -->
<g id="edge21" class="edge">
<title>Node12&#45;&gt;Node17</title>
<path fill="none" stroke="orange" stroke-dasharray="5,2" d="M298.09,-556.29C301.44,-556.57 304.76,-556.81 308,-557 363.02,-560.25 376.89,-557.28 432,-557 660.9,-555.83 932.87,-552.45 1053.29,-550.86"/>
<polygon fill="orange" stroke="orange" points="298.29,-552.79 288.01,-555.34 297.64,-559.76 298.29,-552.79"/>
<text text-anchor="middle" x="673" y="-558" font-family="Helvetica,sans-Serif" font-size="10.00"> &lt; rawspeed::BlackArea &gt;</text>
</g>
<!-- Node34 -->
<g id="node34" class="node">
<title>Node34</title>
<g id="a_node34"><a xlink:title=" ">
<polygon fill="none" stroke="#bfbfbf" points="450,-61.5 450,-80.5 584,-80.5 584,-61.5 450,-61.5"/>
<text text-anchor="middle" x="517" y="-68.5" font-family="Helvetica,sans-Serif" font-size="10.00">std::vector&lt; CFAColor &gt;</text>
</a>
</g>
</g>
<!-- Node12&#45;&gt;Node34 -->
<g id="edge45" class="edge">
<title>Node12&#45;&gt;Node34</title>
<path fill="none" stroke="orange" stroke-dasharray="5,2" d="M287.36,-533.04C288.3,-532.09 289.19,-531.07 290,-530 316.02,-495.67 292.87,-377.33 308,-337 341.09,-248.76 389.72,-249.22 432,-165 443.92,-141.26 433.24,-128.61 450,-108 460.11,-95.57 475.58,-86.58 488.99,-80.58"/>
<polygon fill="orange" stroke="orange" points="285,-530.44 279.19,-539.3 289.26,-536 285,-530.44"/>
<text text-anchor="middle" x="370" y="-340" font-family="Helvetica,sans-Serif" font-size="10.00"> &lt; CFAColor &gt;</text>
</g>
<!-- Node13 -->
<g id="node13" class="node">
<title>Node13</title>
<g id="a_node13"><a xlink:title=" ">
<polygon fill="none" stroke="#bfbfbf" points="37.5,-495.5 37.5,-514.5 66.5,-514.5 66.5,-495.5 37.5,-495.5"/>
<text text-anchor="middle" x="52" y="-502.5" font-family="Helvetica,sans-Serif" font-size="10.00">T</text>
</a>
</g>
</g>
<!-- Node13&#45;&gt;Node12 -->
<g id="edge12" class="edge">
<title>Node13&#45;&gt;Node12</title>
<path fill="none" stroke="#9a32cd" stroke-dasharray="5,2" d="M76.4,-510.55C106.95,-517.8 160.9,-530.59 198.12,-539.42"/>
<polygon fill="#9a32cd" stroke="#9a32cd" points="77.18,-507.14 66.64,-508.24 75.56,-513.95 77.18,-507.14"/>
<text text-anchor="middle" x="146.5" y="-535" font-family="Helvetica,sans-Serif" font-size="10.00"> elements</text>
</g>
<!-- Node16 -->
<g id="node16" class="node">
<title>Node16</title>
<g id="a_node16"><a xlink:title="STL class.">
<polygon fill="none" stroke="#bfbfbf" points="311,-592.5 311,-611.5 429,-611.5 429,-592.5 311,-592.5"/>
<text text-anchor="middle" x="370" y="-599.5" font-family="Helvetica,sans-Serif" font-size="10.00">std::unique_ptr&lt; T &gt;</text>
</a>
</g>
</g>
<!-- Node13&#45;&gt;Node16 -->
<g id="edge16" class="edge">
<title>Node13&#45;&gt;Node16</title>
<path fill="none" stroke="#9a32cd" stroke-dasharray="5,2" d="M74.87,-520.21C88.08,-528.9 105.5,-539.53 122,-547 183.23,-574.73 259.5,-588.96 310.96,-595.92"/>
<polygon fill="#9a32cd" stroke="#9a32cd" points="76.72,-517.23 66.46,-514.56 72.81,-523.04 76.72,-517.23"/>
<text text-anchor="middle" x="146.5" y="-567" font-family="Helvetica,sans-Serif" font-size="10.00"> ptr</text>
</g>
<!-- Node28 -->
<g id="node28" class="node">
<title>Node28</title>
<g id="a_node28"><a xlink:title="STL class.">
<polygon fill="none" stroke="#bfbfbf" points="193.5,-463.5 193.5,-482.5 285.5,-482.5 285.5,-463.5 193.5,-463.5"/>
<text text-anchor="middle" x="239.5" y="-470.5" font-family="Helvetica,sans-Serif" font-size="10.00">std::array&lt; T &gt;</text>
</a>
</g>
</g>
<!-- Node13&#45;&gt;Node28 -->
<g id="edge33" class="edge">
<title>Node13&#45;&gt;Node28</title>
<path fill="none" stroke="#9a32cd" stroke-dasharray="5,2" d="M76.78,-500.9C106.13,-495.83 156.67,-487.12 193.46,-480.77"/>
<polygon fill="#9a32cd" stroke="#9a32cd" points="75.9,-497.5 66.64,-502.65 77.09,-504.4 75.9,-497.5"/>
<text text-anchor="middle" x="146.5" y="-495" font-family="Helvetica,sans-Serif" font-size="10.00"> elements</text>
</g>
<!-- Node32 -->
<g id="node32" class="node">
<title>Node32</title>
<g id="a_node32"><a xlink:title="STL class.">
<polygon fill="none" stroke="#bfbfbf" points="189,-0.5 189,-19.5 290,-19.5 290,-0.5 189,-0.5"/>
<text text-anchor="middle" x="239.5" y="-7.5" font-family="Helvetica,sans-Serif" font-size="10.00">std::map&lt; K, T &gt;</text>
</a>
</g>
</g>
<!-- Node13&#45;&gt;Node32 -->
<g id="edge40" class="edge">
<title>Node13&#45;&gt;Node32</title>
<path fill="none" stroke="#9a32cd" stroke-dasharray="5,2" d="M53.32,-485.4C55.44,-415.77 71.37,-176.83 189,-35 194.47,-28.4 202.12,-23.37 209.77,-19.62"/>
<polygon fill="#9a32cd" stroke="#9a32cd" points="49.82,-485.33 53.08,-495.42 56.82,-485.5 49.82,-485.33"/>
<text text-anchor="middle" x="146.5" y="-139" font-family="Helvetica,sans-Serif" font-size="10.00"> elements</text>
</g>
<!-- Node14 -->
<g id="node14" class="node">
<title>Node14</title>
<g id="a_node14"><a xlink:title=" ">
<polygon fill="none" stroke="#bfbfbf" points="502.5,-409.5 502.5,-428.5 531.5,-428.5 531.5,-409.5 502.5,-409.5"/>
<text text-anchor="middle" x="517" y="-416.5" font-family="Helvetica,sans-Serif" font-size="10.00">int</text>
</a>
</g>
</g>
<!-- Node14&#45;&gt;Node1 -->
<g id="edge57" class="edge">
<title>Node14&#45;&gt;Node1</title>
<path fill="none" stroke="#9a32cd" stroke-dasharray="5,2" d="M537.92,-403.27C554.22,-391.2 578.38,-375.11 602,-366 607.08,-364.04 1369.05,-231 1374.5,-231 1374.5,-231 1374.5,-231 1828.5,-231 1974.11,-231 2028.29,-470.01 2038.24,-521.36"/>
<polygon fill="#9a32cd" stroke="#9a32cd" points="535.57,-400.66 529.72,-409.49 539.8,-406.23 535.57,-400.66"/>
<text text-anchor="middle" x="1375.5" y="-257" font-family="Helvetica,sans-Serif" font-size="10.00"> row</text>
<text text-anchor="middle" x="1375.5" y="-246" font-family="Helvetica,sans-Serif" font-size="10.00">col</text>
</g>
<!-- Node14&#45;&gt;Node5 -->
<g id="edge52" class="edge">
<title>Node14&#45;&gt;Node5</title>
<path fill="none" stroke="#9a32cd" stroke-dasharray="5,2" d="M541.66,-422.99C558.45,-425.67 581.55,-429.06 602,-431 863.4,-455.8 937.73,-407.72 1191,-477 1252.51,-493.83 1321.51,-524.74 1354.64,-540.38"/>
<polygon fill="#9a32cd" stroke="#9a32cd" points="542.06,-419.51 531.63,-421.35 540.93,-426.42 542.06,-419.51"/>
<text text-anchor="middle" x="976.5" y="-490" font-family="Helvetica,sans-Serif" font-size="10.00"> blackLevel</text>
<text text-anchor="middle" x="976.5" y="-479" font-family="Helvetica,sans-Serif" font-size="10.00">pitch</text>
<text text-anchor="middle" x="976.5" y="-468" font-family="Helvetica,sans-Serif" font-size="10.00">whitePoint</text>
<text text-anchor="middle" x="976.5" y="-457" font-family="Helvetica,sans-Serif" font-size="10.00">bpp</text>
<text text-anchor="middle" x="976.5" y="-446" font-family="Helvetica,sans-Serif" font-size="10.00">cpp</text>
</g>
<!-- Node14&#45;&gt;Node9 -->
<g id="edge13" class="edge">
<title>Node14&#45;&gt;Node9</title>
<path fill="none" stroke="#9a32cd" stroke-dasharray="5,2" d="M541.25,-430.11C557.95,-437.87 581.11,-448.2 602,-456 670.82,-481.69 753.38,-505.63 799.44,-518.39"/>
<polygon fill="#9a32cd" stroke="#9a32cd" points="542.31,-426.74 531.77,-425.65 539.33,-433.07 542.31,-426.74"/>
<text text-anchor="middle" x="673" y="-504" font-family="Helvetica,sans-Serif" font-size="10.00"> ntables</text>
</g>
<!-- Node20 -->
<g id="node20" class="node">
<title>Node20</title>
<g id="a_node20"><a xlink:href="../../dc/d97/classrawspeed_1_1_image_meta_data.html" target="_top" xlink:title=" ">
<polygon fill="none" stroke="black" points="762,-282.5 762,-301.5 910,-301.5 910,-282.5 762,-282.5"/>
<text text-anchor="middle" x="836" y="-289.5" font-family="Helvetica,sans-Serif" font-size="10.00">rawspeed::ImageMetaData</text>
</a>
</g>
</g>
<!-- Node14&#45;&gt;Node20 -->
<g id="edge27" class="edge">
<title>Node14&#45;&gt;Node20</title>
<path fill="none" stroke="#9a32cd" stroke-dasharray="5,2" d="M540.68,-406.88C554.73,-398.4 572.28,-385.95 584,-371 597.04,-354.38 585.38,-340.05 602,-327 605.27,-324.43 698.56,-310.98 766.08,-301.53"/>
<polygon fill="#9a32cd" stroke="#9a32cd" points="538.54,-404.07 531.62,-412.09 542.03,-410.13 538.54,-404.07"/>
<text text-anchor="middle" x="673" y="-330" font-family="Helvetica,sans-Serif" font-size="10.00"> isoSpeed</text>
</g>
<!-- Node36 -->
<g id="node36" class="node">
<title>Node36</title>
<g id="a_node36"><a xlink:title=" ">
<polygon fill="none" stroke="#bfbfbf" points="781,-397.5 781,-416.5 891,-416.5 891,-397.5 781,-397.5"/>
<text text-anchor="middle" x="836" y="-404.5" font-family="Helvetica,sans-Serif" font-size="10.00">std::array&lt; int, 4 &gt;</text>
</a>
</g>
</g>
<!-- Node14&#45;&gt;Node36 -->
<g id="edge48" class="edge">
<title>Node14&#45;&gt;Node36</title>
<path fill="none" stroke="#9a32cd" stroke-dasharray="5,2" d="M541.84,-418.1C592.25,-416.19 710.76,-411.7 780.69,-409.06"/>
<polygon fill="#9a32cd" stroke="#9a32cd" points="541.48,-414.61 531.62,-418.48 541.75,-421.6 541.48,-414.61"/>
<text text-anchor="middle" x="673" y="-419" font-family="Helvetica,sans-Serif" font-size="10.00"> elements</text>
</g>
<!-- Node15 -->
<g id="node15" class="node">
<title>Node15</title>
<g id="a_node15"><a xlink:title=" ">
<polygon fill="none" stroke="#bfbfbf" points="498,-768.5 498,-787.5 536,-787.5 536,-768.5 498,-768.5"/>
<text text-anchor="middle" x="517" y="-775.5" font-family="Helvetica,sans-Serif" font-size="10.00">bool</text>
</a>
</g>
</g>
<!-- Node15&#45;&gt;Node5 -->
<g id="edge55" class="edge">
<title>Node15&#45;&gt;Node5</title>
<path fill="none" stroke="#9a32cd" stroke-dasharray="5,2" d="M546.22,-783.05C562.47,-785.7 583.32,-788.67 602,-790 664.95,-794.47 680.89,-790.35 744,-790 864.3,-789.33 1190.8,-844.83 1285,-770 1355.06,-714.34 1370.65,-594.97 1373.78,-559.89"/>
<polygon fill="#9a32cd" stroke="#9a32cd" points="546.72,-779.58 536.27,-781.37 545.55,-786.49 546.72,-779.58"/>
<text text-anchor="middle" x="976.5" y="-821" font-family="Helvetica,sans-Serif" font-size="10.00"> isCFA</text>
<text text-anchor="middle" x="976.5" y="-810" font-family="Helvetica,sans-Serif" font-size="10.00">mDitherScale</text>
</g>
<!-- Node15&#45;&gt;Node9 -->
<g id="edge14" class="edge">
<title>Node15&#45;&gt;Node9</title>
<path fill="none" stroke="#9a32cd" stroke-dasharray="5,2" d="M537.47,-761.78C553.85,-748.78 578.32,-730.82 602,-719 661.36,-689.38 695.54,-718.31 744,-673 759.73,-658.29 751.57,-646.85 762,-628 781.67,-592.46 812.09,-554.89 826.66,-537.66"/>
<polygon fill="#9a32cd" stroke="#9a32cd" points="534.83,-759.41 529.26,-768.42 539.24,-764.85 534.83,-759.41"/>
<text text-anchor="middle" x="673" y="-722" font-family="Helvetica,sans-Serif" font-size="10.00"> dither</text>
</g>
<!-- Node18 -->
<g id="node18" class="node">
<title>Node18</title>
<g id="a_node18"><a xlink:href="../../d8/d30/classrawspeed_1_1_black_area.html" target="_top" xlink:title=" ">
<polygon fill="none" stroke="black" points="776.5,-637.5 776.5,-656.5 895.5,-656.5 895.5,-637.5 776.5,-637.5"/>
<text text-anchor="middle" x="836" y="-644.5" font-family="Helvetica,sans-Serif" font-size="10.00">rawspeed::BlackArea</text>
</a>
</g>
</g>
<!-- Node15&#45;&gt;Node18 -->
<g id="edge20" class="edge">
<title>Node15&#45;&gt;Node18</title>
<path fill="none" stroke="#9a32cd" stroke-dasharray="5,2" d="M546.27,-779.3C591.87,-780.01 682.74,-775.54 744,-734 756.24,-725.7 752.12,-717.01 762,-706 779.85,-686.11 804.79,-667.49 820.41,-656.68"/>
<polygon fill="#9a32cd" stroke="#9a32cd" points="546.3,-775.8 536.21,-779.05 546.12,-782.8 546.3,-775.8"/>
<text text-anchor="middle" x="673" y="-780" font-family="Helvetica,sans-Serif" font-size="10.00"> isVertical</text>
</g>
<!-- Node16&#45;&gt;Node8 -->
<g id="edge15" class="edge">
<title>Node16&#45;&gt;Node8</title>
<path fill="none" stroke="orange" stroke-dasharray="5,2" d="M439.28,-602C514.25,-601.33 638.07,-598.2 744,-586 870.26,-571.46 902.81,-567.96 1025,-533 1033.25,-530.64 1034.94,-528.95 1043,-526 1052.06,-522.69 1061.8,-519.26 1071.11,-516.05"/>
<polygon fill="orange" stroke="orange" points="439,-598.51 429.03,-602.08 439.06,-605.51 439,-598.51"/>
<text text-anchor="middle" x="673" y="-600" font-family="Helvetica,sans-Serif" font-size="10.00"> &lt; rawspeed::TableLookUp &gt;</text>
</g>
<!-- Node17&#45;&gt;Node5 -->
<g id="edge17" class="edge">
<title>Node17&#45;&gt;Node5</title>
<path fill="none" stroke="#9a32cd" stroke-dasharray="5,2" d="M1190.93,-550C1226.02,-550 1267.96,-550 1302.88,-550"/>
<polygon fill="#9a32cd" stroke="#9a32cd" points="1190.75,-546.5 1180.75,-550 1190.75,-553.5 1190.75,-546.5"/>
<text text-anchor="middle" x="1247" y="-553" font-family="Helvetica,sans-Serif" font-size="10.00"> blackAreas</text>
</g>
<!-- Node18&#45;&gt;Node17 -->
<g id="edge18" class="edge">
<title>Node18&#45;&gt;Node17</title>
<path fill="none" stroke="#9a32cd" stroke-dasharray="5,2" d="M884.89,-634.14C893.5,-631.03 902.2,-627.32 910,-623 919.11,-617.95 918.69,-612.66 928,-608 967.63,-588.18 982.67,-598.09 1025,-585 1043.43,-579.3 1063.5,-571.73 1080.08,-565.1"/>
<polygon fill="#9a32cd" stroke="#9a32cd" points="883.62,-630.87 875.28,-637.4 885.87,-637.5 883.62,-630.87"/>
<text text-anchor="middle" x="976.5" y="-611" font-family="Helvetica,sans-Serif" font-size="10.00"> elements</text>
</g>
<!-- Node19 -->
<g id="node19" class="node">
<title>Node19</title>
<g id="a_node19"><a xlink:href="../../d3/d87/classuint32__t.html" target="_top" xlink:title=" ">
<polygon fill="none" stroke="black" points="489,-637.5 489,-656.5 545,-656.5 545,-637.5 489,-637.5"/>
<text text-anchor="middle" x="517" y="-644.5" font-family="Helvetica,sans-Serif" font-size="10.00">uint32_t</text>
</a>
</g>
</g>
<!-- Node19&#45;&gt;Node1 -->
<g id="edge56" class="edge">
<title>Node19&#45;&gt;Node1</title>
<path fill="none" stroke="#9a32cd" stroke-dasharray="5,2" d="M530.51,-664.7C545.28,-684.17 571.7,-714.84 602,-731 658.76,-761.28 682.12,-741.43 744,-759 849.14,-788.86 866.2,-842 975.5,-842 975.5,-842 975.5,-842 1828.5,-842 1978.03,-842 2029.28,-593.14 2038.43,-540.65"/>
<polygon fill="#9a32cd" stroke="#9a32cd" points="533.32,-662.61 524.57,-656.63 527.68,-666.76 533.32,-662.61"/>
<text text-anchor="middle" x="1375.5" y="-845" font-family="Helvetica,sans-Serif" font-size="10.00"> len</text>
</g>
<!-- Node19&#45;&gt;Node5 -->
<g id="edge50" class="edge">
<title>Node19&#45;&gt;Node5</title>
<path fill="none" stroke="#9a32cd" stroke-dasharray="5,2" d="M554.14,-659.71C568.8,-664.23 586.01,-668.76 602,-671 664.5,-679.75 680.9,-671.95 744,-671 817.8,-669.89 837.73,-681 910,-666 941.15,-659.53 1012.45,-621.9 1043,-613 1093.55,-598.27 1236.55,-573.17 1317.24,-559.52"/>
<polygon fill="#9a32cd" stroke="#9a32cd" points="555.04,-656.32 544.45,-656.61 552.91,-662.99 555.04,-656.32"/>
<text text-anchor="middle" x="976.5" y="-674" font-family="Helvetica,sans-Serif" font-size="10.00"> padding</text>
<text text-anchor="middle" x="976.5" y="-663" font-family="Helvetica,sans-Serif" font-size="10.00">mBadPixelMapPitch</text>
</g>
<!-- Node19&#45;&gt;Node18 -->
<g id="edge19" class="edge">
<title>Node19&#45;&gt;Node18</title>
<path fill="none" stroke="#9a32cd" stroke-dasharray="5,2" d="M555.27,-647C609.77,-647 711.74,-647 776.35,-647"/>
<polygon fill="#9a32cd" stroke="#9a32cd" points="555.03,-643.5 545.03,-647 555.03,-650.5 555.03,-643.5"/>
<text text-anchor="middle" x="673" y="-661" font-family="Helvetica,sans-Serif" font-size="10.00"> offset</text>
<text text-anchor="middle" x="673" y="-650" font-family="Helvetica,sans-Serif" font-size="10.00">size</text>
</g>
<!-- Node19&#45;&gt;Node20 -->
<g id="edge26" class="edge">
<title>Node19&#45;&gt;Node20</title>
<path fill="none" stroke="#9a32cd" stroke-dasharray="5,2" d="M534.14,-629.57C549.75,-611.6 572.66,-582.03 584,-552 596.33,-519.35 580.57,-423.54 602,-396 643.46,-342.71 682.71,-370.33 744,-342 771.16,-329.45 801.36,-312.15 819.24,-301.54"/>
<polygon fill="#9a32cd" stroke="#9a32cd" points="531.19,-627.62 527.15,-637.41 536.41,-632.28 531.19,-627.62"/>
<text text-anchor="middle" x="673" y="-399" font-family="Helvetica,sans-Serif" font-size="10.00"> fujiRotationPos</text>
</g>
<!-- Node29 -->
<g id="node29" class="node">
<title>Node29</title>
<g id="a_node29"><a xlink:href="../../d2/d4f/classrawspeed_1_1_color_filter_array.html" target="_top" xlink:title=" ">
<polygon fill="none" stroke="black" points="763,-85.5 763,-104.5 909,-104.5 909,-85.5 763,-85.5"/>
<text text-anchor="middle" x="836" y="-92.5" font-family="Helvetica,sans-Serif" font-size="10.00">rawspeed::ColorFilterArray</text>
</a>
</g>
</g>
<!-- Node19&#45;&gt;Node29 -->
<g id="edge41" class="edge">
<title>Node19&#45;&gt;Node29</title>
<path fill="none" stroke="#9a32cd" stroke-dasharray="5,2" d="M534.52,-629.71C550.43,-611.84 573.56,-582.36 584,-552 595.8,-517.69 580.77,-255.42 602,-226 641.7,-170.99 685.55,-204.44 744,-170 776.45,-150.88 809.27,-120.5 825.16,-104.92"/>
<polygon fill="#9a32cd" stroke="#9a32cd" points="531.56,-627.76 527.38,-637.5 536.72,-632.49 531.56,-627.76"/>
<text text-anchor="middle" x="673" y="-240" font-family="Helvetica,sans-Serif" font-size="10.00"> x</text>
<text text-anchor="middle" x="673" y="-229" font-family="Helvetica,sans-Serif" font-size="10.00">y</text>
</g>
<!-- Node20&#45;&gt;Node5 -->
<g id="edge22" class="edge">
<title>Node20&#45;&gt;Node5</title>
<path fill="none" stroke="#9a32cd" stroke-dasharray="5,2" d="M920.39,-302.68C1034.05,-318.7 1229.82,-351.94 1285,-397 1334.58,-437.49 1362.68,-513.19 1371.47,-540.15"/>
<polygon fill="#9a32cd" stroke="#9a32cd" points="920.71,-299.19 910.33,-301.28 919.75,-306.12 920.71,-299.19"/>
<text text-anchor="middle" x="1117" y="-359" font-family="Helvetica,sans-Serif" font-size="10.00"> metadata</text>
</g>
<!-- Node21 -->
<g id="node21" class="node">
<title>Node21</title>
<g id="a_node21"><a xlink:href="../../df/de6/classdouble.html" target="_top" xlink:title=" ">
<polygon fill="none" stroke="black" points="492,-275.5 492,-294.5 542,-294.5 542,-275.5 492,-275.5"/>
<text text-anchor="middle" x="517" y="-282.5" font-family="Helvetica,sans-Serif" font-size="10.00">double</text>
</a>
</g>
</g>
<!-- Node21&#45;&gt;Node20 -->
<g id="edge23" class="edge">
<title>Node21&#45;&gt;Node20</title>
<path fill="none" stroke="#9a32cd" stroke-dasharray="5,2" d="M551.63,-272.05C566.78,-266.89 585.04,-261.57 602,-259 664.4,-249.56 681.84,-248.08 744,-259 769.32,-263.45 796.88,-274.37 814.96,-282.43"/>
<polygon fill="#9a32cd" stroke="#9a32cd" points="550.44,-268.77 542.17,-275.4 552.77,-275.37 550.44,-268.77"/>
<text text-anchor="middle" x="673" y="-262" font-family="Helvetica,sans-Serif" font-size="10.00"> pixelAspectRatio</text>
</g>
<!-- Node22 -->
<g id="node22" class="node">
<title>Node22</title>
<g id="a_node22"><a xlink:href="../../d8/d75/classrawspeed_1_1i_point2_d.html" target="_top" xlink:title=" ">
<polygon fill="none" stroke="black" points="461.5,-117.5 461.5,-136.5 572.5,-136.5 572.5,-117.5 461.5,-117.5"/>
<text text-anchor="middle" x="517" y="-124.5" font-family="Helvetica,sans-Serif" font-size="10.00">rawspeed::iPoint2D</text>
</a>
</g>
</g>
<!-- Node22&#45;&gt;Node5 -->
<g id="edge51" class="edge">
<title>Node22&#45;&gt;Node5</title>
<path fill="none" stroke="#9a32cd" stroke-dasharray="5,2" d="M582.6,-123.27C628.21,-122.09 690.49,-123.43 744,-135 871.26,-162.52 1191.61,-269.27 1285,-360 1340.71,-414.12 1365.67,-509.71 1372.49,-540.3"/>
<polygon fill="#9a32cd" stroke="#9a32cd" points="582.44,-119.77 572.55,-123.58 582.65,-126.77 582.44,-119.77"/>
<text text-anchor="middle" x="976.5" y="-247" font-family="Helvetica,sans-Serif" font-size="10.00"> dim</text>
<text text-anchor="middle" x="976.5" y="-236" font-family="Helvetica,sans-Serif" font-size="10.00">uncropped_dim</text>
<text text-anchor="middle" x="976.5" y="-225" font-family="Helvetica,sans-Serif" font-size="10.00">mOffset</text>
</g>
<!-- Node22&#45;&gt;Node20 -->
<g id="edge24" class="edge">
<title>Node22&#45;&gt;Node20</title>
<path fill="none" stroke="#9a32cd" stroke-dasharray="5,2" d="M582.84,-131.55C645.14,-136.47 731.61,-144.97 744,-155 763.01,-170.39 749.82,-185.79 762,-207 779.63,-237.7 809.09,-267.71 824.65,-282.49"/>
<polygon fill="#9a32cd" stroke="#9a32cd" points="582.92,-128.04 572.68,-130.76 582.38,-135.02 582.92,-128.04"/>
<text text-anchor="middle" x="673" y="-158" font-family="Helvetica,sans-Serif" font-size="10.00"> subsampling</text>
</g>
<!-- Node22&#45;&gt;Node29 -->
<g id="edge42" class="edge">
<title>Node22&#45;&gt;Node29</title>
<path fill="none" stroke="#9a32cd" stroke-dasharray="5,2" d="M547.07,-113.41C562.93,-106.74 583.13,-99.41 602,-96 655.24,-86.37 716.45,-86.53 762.77,-88.88"/>
<polygon fill="#9a32cd" stroke="#9a32cd" points="545.59,-110.24 537.81,-117.44 548.38,-116.66 545.59,-110.24"/>
<text text-anchor="middle" x="673" y="-99" font-family="Helvetica,sans-Serif" font-size="10.00"> size</text>
</g>
<!-- Node23 -->
<g id="node23" class="node">
<title>Node23</title>
<g id="a_node23"><a xlink:href="../../de/d73/classint32__t.html" target="_top" xlink:title=" ">
<polygon fill="none" stroke="black" points="214.5,-133.5 214.5,-152.5 264.5,-152.5 264.5,-133.5 214.5,-133.5"/>
<text text-anchor="middle" x="239.5" y="-140.5" font-family="Helvetica,sans-Serif" font-size="10.00">int32_t</text>
</a>
</g>
</g>
<!-- Node23&#45;&gt;Node22 -->
<g id="edge25" class="edge">
<title>Node23&#45;&gt;Node22</title>
<path fill="none" stroke="#9a32cd" stroke-dasharray="5,2" d="M275.19,-140.99C322.07,-138.26 406.12,-133.38 461.48,-130.17"/>
<polygon fill="#9a32cd" stroke="#9a32cd" points="274.73,-137.51 264.95,-141.58 275.13,-144.49 274.73,-137.51"/>
<text text-anchor="middle" x="370" y="-153" font-family="Helvetica,sans-Serif" font-size="10.00"> x</text>
<text text-anchor="middle" x="370" y="-142" font-family="Helvetica,sans-Serif" font-size="10.00">y</text>
</g>
<!-- Node24 -->
<g id="node24" class="node">
<title>Node24</title>
<g id="a_node24"><a xlink:title="STL class.">
<polygon fill="none" stroke="#bfbfbf" points="207,-95.5 207,-114.5 272,-114.5 272,-95.5 207,-95.5"/>
<text text-anchor="middle" x="239.5" y="-102.5" font-family="Helvetica,sans-Serif" font-size="10.00">std::string</text>
</a>
</g>
</g>
<!-- Node24&#45;&gt;Node20 -->
<g id="edge28" class="edge">
<title>Node24&#45;&gt;Node20</title>
<path fill="none" stroke="#9a32cd" stroke-dasharray="5,2" d="M281.38,-117.52C284.5,-119.39 287.42,-121.54 290,-124 304.4,-137.74 291.71,-153.57 308,-165 387.49,-220.77 656.33,-152.25 744,-194 765.28,-204.13 810.03,-259.82 827.65,-282.44"/>
<polygon fill="#9a32cd" stroke="#9a32cd" points="282.76,-114.29 272.25,-112.92 279.61,-120.54 282.76,-114.29"/>
<text text-anchor="middle" x="517" y="-257" font-family="Helvetica,sans-Serif" font-size="10.00"> mode</text>
<text text-anchor="middle" x="517" y="-246" font-family="Helvetica,sans-Serif" font-size="10.00">model</text>
<text text-anchor="middle" x="517" y="-235" font-family="Helvetica,sans-Serif" font-size="10.00">canonical_alias</text>
<text text-anchor="middle" x="517" y="-224" font-family="Helvetica,sans-Serif" font-size="10.00">canonical_model</text>
<text text-anchor="middle" x="517" y="-213" font-family="Helvetica,sans-Serif" font-size="10.00">canonical_make</text>
<text text-anchor="middle" x="517" y="-202" font-family="Helvetica,sans-Serif" font-size="10.00">canonical_id</text>
<text text-anchor="middle" x="517" y="-191" font-family="Helvetica,sans-Serif" font-size="10.00">make</text>
</g>
<!-- Node30 -->
<g id="node30" class="node">
<title>Node30</title>
<g id="a_node30"><a xlink:title=" ">
<polygon fill="none" stroke="#bfbfbf" points="458.5,-12 458.5,-42 575.5,-42 575.5,-12 458.5,-12"/>
<text text-anchor="start" x="466.5" y="-30" font-family="Helvetica,sans-Serif" font-size="10.00">std::map&lt; CFAColor,</text>
<text text-anchor="middle" x="517" y="-19" font-family="Helvetica,sans-Serif" font-size="10.00"> std::string &gt;</text>
</a>
</g>
</g>
<!-- Node24&#45;&gt;Node30 -->
<g id="edge37" class="edge">
<title>Node24&#45;&gt;Node30</title>
<path fill="none" stroke="#9a32cd" stroke-dasharray="5,2" d="M282.09,-109.61C323.39,-112.07 386.88,-109.92 432,-81 444.77,-72.81 438.29,-61.64 450,-52 454.64,-48.18 459.91,-44.91 465.42,-42.12"/>
<polygon fill="#9a32cd" stroke="#9a32cd" points="282.32,-106.12 272.1,-108.9 281.82,-113.1 282.32,-106.12"/>
<text text-anchor="middle" x="370" y="-114" font-family="Helvetica,sans-Serif" font-size="10.00"> elements</text>
</g>
<!-- Node25 -->
<g id="node25" class="node">
<title>Node25</title>
<g id="a_node25"><a xlink:title="STL class.">
<polygon fill="none" stroke="#bfbfbf" points="0,-90 0,-120 104,-120 104,-90 0,-90"/>
<text text-anchor="start" x="8" y="-108" font-family="Helvetica,sans-Serif" font-size="10.00">std::basic_string&lt;</text>
<text text-anchor="middle" x="52" y="-97" font-family="Helvetica,sans-Serif" font-size="10.00"> char &gt;</text>
</a>
</g>
</g>
<!-- Node25&#45;&gt;Node24 -->
<g id="edge29" class="edge">
<title>Node25&#45;&gt;Node24</title>
<path fill="none" stroke="midnightblue" d="M114.46,-105C145.44,-105 181.69,-105 206.98,-105"/>
<polygon fill="midnightblue" stroke="midnightblue" points="114.18,-101.5 104.18,-105 114.18,-108.5 114.18,-101.5"/>
</g>
<!-- Node26 -->
<g id="node26" class="node">
<title>Node26</title>
<g id="a_node26"><a xlink:title=" ">
<polygon fill="none" stroke="#bfbfbf" points="457.5,-342.5 457.5,-361.5 576.5,-361.5 576.5,-342.5 457.5,-342.5"/>
<text text-anchor="middle" x="517" y="-349.5" font-family="Helvetica,sans-Serif" font-size="10.00">std::array&lt; float, 4 &gt;</text>
</a>
</g>
</g>
<!-- Node26&#45;&gt;Node20 -->
<g id="edge30" class="edge">
<title>Node26&#45;&gt;Node20</title>
<path fill="none" stroke="#9a32cd" stroke-dasharray="5,2" d="M539.55,-336.38C563.24,-319.29 598.43,-294.14 602,-293 658.27,-275.08 726.15,-277.27 774.08,-282.47"/>
<polygon fill="#9a32cd" stroke="#9a32cd" points="537.48,-333.56 531.43,-342.25 541.58,-339.23 537.48,-333.56"/>
<text text-anchor="middle" x="673" y="-296" font-family="Helvetica,sans-Serif" font-size="10.00"> wbCoeffs</text>
</g>
<!-- Node27 -->
<g id="node27" class="node">
<title>Node27</title>
<g id="a_node27"><a xlink:href="../../d4/dc3/classfloat.html" target="_top" xlink:title=" ">
<polygon fill="none" stroke="black" points="220.5,-342.5 220.5,-361.5 258.5,-361.5 258.5,-342.5 220.5,-342.5"/>
<text text-anchor="middle" x="239.5" y="-349.5" font-family="Helvetica,sans-Serif" font-size="10.00">float</text>
</a>
</g>
</g>
<!-- Node27&#45;&gt;Node26 -->
<g id="edge31" class="edge">
<title>Node27&#45;&gt;Node26</title>
<path fill="none" stroke="#9a32cd" stroke-dasharray="5,2" d="M268.59,-352C312.72,-352 399.26,-352 457.37,-352"/>
<polygon fill="#9a32cd" stroke="#9a32cd" points="268.58,-348.5 258.58,-352 268.58,-355.5 268.58,-348.5"/>
<text text-anchor="middle" x="370" y="-355" font-family="Helvetica,sans-Serif" font-size="10.00"> elements</text>
</g>
<!-- Node28&#45;&gt;Node26 -->
<g id="edge32" class="edge">
<title>Node28&#45;&gt;Node26</title>
<path fill="none" stroke="orange" stroke-dasharray="5,2" d="M272.08,-459.13C328.6,-434.31 445.67,-382.89 494.2,-361.58"/>
<polygon fill="orange" stroke="orange" points="270.33,-456.08 262.58,-463.3 273.14,-462.49 270.33,-456.08"/>
<text text-anchor="middle" x="370" y="-443" font-family="Helvetica,sans-Serif" font-size="10.00"> &lt; float, 4 &gt;</text>
</g>
<!-- Node28&#45;&gt;Node36 -->
<g id="edge49" class="edge">
<title>Node28&#45;&gt;Node36</title>
<path fill="none" stroke="orange" stroke-dasharray="5,2" d="M296.08,-477.33C418.38,-486.51 703.19,-505.82 744,-490 782.68,-475.01 815,-435.07 828.38,-416.61"/>
<polygon fill="orange" stroke="orange" points="296.05,-473.82 285.81,-476.55 295.52,-480.8 296.05,-473.82"/>
<text text-anchor="middle" x="517" y="-497" font-family="Helvetica,sans-Serif" font-size="10.00"> &lt; int, 4 &gt;</text>
</g>
<!-- Node29&#45;&gt;Node5 -->
<g id="edge34" class="edge">
<title>Node29&#45;&gt;Node5</title>
<path fill="none" stroke="#9a32cd" stroke-dasharray="5,2" d="M919.41,-105.53C1019.5,-122.61 1187.06,-165.68 1285,-270 1362.2,-352.22 1372.81,-501.15 1374.27,-540.34"/>
<polygon fill="#9a32cd" stroke="#9a32cd" points="919.78,-102.04 909.34,-103.86 918.63,-108.95 919.78,-102.04"/>
<text text-anchor="middle" x="1117" y="-199" font-family="Helvetica,sans-Serif" font-size="10.00"> cfa</text>
</g>
<!-- Node30&#45;&gt;Node29 -->
<g id="edge35" class="edge">
<title>Node30&#45;&gt;Node29</title>
<path fill="none" stroke="#9a32cd" stroke-dasharray="5,2" d="M586.04,-23.49C631.68,-23.07 692.61,-26.28 744,-42 774.77,-51.41 806.24,-72.93 822.91,-85.46"/>
<polygon fill="#9a32cd" stroke="#9a32cd" points="585.91,-19.99 575.96,-23.65 586.01,-26.99 585.91,-19.99"/>
<text text-anchor="middle" x="673" y="-45" font-family="Helvetica,sans-Serif" font-size="10.00"> color2String</text>
</g>
<!-- Node31 -->
<g id="node31" class="node">
<title>Node31</title>
<g id="a_node31"><a xlink:title=" ">
<polygon fill="none" stroke="#bfbfbf" points="209.5,-44.5 209.5,-63.5 269.5,-63.5 269.5,-44.5 209.5,-44.5"/>
<text text-anchor="middle" x="239.5" y="-51.5" font-family="Helvetica,sans-Serif" font-size="10.00">CFAColor</text>
</a>
</g>
</g>
<!-- Node31&#45;&gt;Node30 -->
<g id="edge36" class="edge">
<title>Node31&#45;&gt;Node30</title>
<path fill="none" stroke="#9a32cd" stroke-dasharray="5,2" d="M279.8,-47.73C289.03,-46.39 298.85,-45.05 308,-44 358.57,-38.19 416.29,-33.64 458.07,-30.71"/>
<polygon fill="#9a32cd" stroke="#9a32cd" points="279.05,-44.31 269.68,-49.25 280.09,-51.23 279.05,-44.31"/>
<text text-anchor="middle" x="370" y="-47" font-family="Helvetica,sans-Serif" font-size="10.00"> keys</text>
</g>
<!-- Node31&#45;&gt;Node34 -->
<g id="edge44" class="edge">
<title>Node31&#45;&gt;Node34</title>
<path fill="none" stroke="#9a32cd" stroke-dasharray="5,2" d="M279.8,-56.43C324.09,-59.16 396.83,-63.65 449.9,-66.92"/>
<polygon fill="#9a32cd" stroke="#9a32cd" points="279.92,-52.93 269.72,-55.8 279.49,-59.91 279.92,-52.93"/>
<text text-anchor="middle" x="370" y="-69" font-family="Helvetica,sans-Serif" font-size="10.00"> elements</text>
</g>
<!-- Node32&#45;&gt;Node30 -->
<g id="edge38" class="edge">
<title>Node32&#45;&gt;Node30</title>
<path fill="none" stroke="orange" stroke-dasharray="5,2" d="M300.31,-4.4C302.91,-4.25 305.48,-4.11 308,-4 363.06,-1.56 377.38,3.34 432,-4 444.44,-5.67 457.64,-8.68 469.8,-11.98"/>
<polygon fill="orange" stroke="orange" points="299.97,-0.92 290.23,-5.08 300.44,-7.9 299.97,-0.92"/>
<text text-anchor="middle" x="370" y="-7" font-family="Helvetica,sans-Serif" font-size="10.00"> &lt; CFAColor, std::string &gt;</text>
</g>
<!-- Node33 -->
<g id="node33" class="node">
<title>Node33</title>
<g id="a_node33"><a xlink:title=" ">
<polygon fill="none" stroke="#bfbfbf" points="37.5,-0.5 37.5,-19.5 66.5,-19.5 66.5,-0.5 37.5,-0.5"/>
<text text-anchor="middle" x="52" y="-7.5" font-family="Helvetica,sans-Serif" font-size="10.00">K</text>
</a>
</g>
</g>
<!-- Node33&#45;&gt;Node32 -->
<g id="edge39" class="edge">
<title>Node33&#45;&gt;Node32</title>
<path fill="none" stroke="#9a32cd" stroke-dasharray="5,2" d="M76.72,-10C104.81,-10 152.35,-10 188.64,-10"/>
<polygon fill="#9a32cd" stroke="#9a32cd" points="76.64,-6.5 66.64,-10 76.64,-13.5 76.64,-6.5"/>
<text text-anchor="middle" x="146.5" y="-13" font-family="Helvetica,sans-Serif" font-size="10.00"> keys</text>
</g>
<!-- Node34&#45;&gt;Node29 -->
<g id="edge43" class="edge">
<title>Node34&#45;&gt;Node29</title>
<path fill="none" stroke="#9a32cd" stroke-dasharray="5,2" d="M590.04,-60.37C634.69,-55.69 693.05,-53.05 744,-62 769.32,-66.45 796.88,-77.37 814.96,-85.43"/>
<polygon fill="#9a32cd" stroke="#9a32cd" points="589.42,-56.92 579.86,-61.49 590.19,-63.87 589.42,-56.92"/>
<text text-anchor="middle" x="673" y="-65" font-family="Helvetica,sans-Serif" font-size="10.00"> cfa</text>
</g>
<!-- Node35 -->
<g id="node35" class="node">
<title>Node35</title>
<g id="a_node35"><a xlink:title=" ">
<polygon fill="none" stroke="#bfbfbf" points="1071.5,-756.5 1071.5,-775.5 1162.5,-775.5 1162.5,-756.5 1071.5,-756.5"/>
<text text-anchor="middle" x="1117" y="-763.5" font-family="Helvetica,sans-Serif" font-size="10.00">RawImageType</text>
</a>
</g>
</g>
<!-- Node35&#45;&gt;Node5 -->
<g id="edge46" class="edge">
<title>Node35&#45;&gt;Node5</title>
<path fill="none" stroke="#9a32cd" stroke-dasharray="5,2" d="M1172.72,-762.17C1208.08,-757.19 1253.26,-745.82 1285,-720 1339.59,-675.59 1364.99,-588.9 1372.24,-559.79"/>
<polygon fill="#9a32cd" stroke="#9a32cd" points="1172.03,-758.73 1162.55,-763.47 1172.91,-765.68 1172.03,-758.73"/>
<text text-anchor="middle" x="1247" y="-758" font-family="Helvetica,sans-Serif" font-size="10.00"> dataType</text>
</g>
<!-- Node36&#45;&gt;Node5 -->
<g id="edge47" class="edge">
<title>Node36&#45;&gt;Node5</title>
<path fill="none" stroke="#9a32cd" stroke-dasharray="5,2" d="M889.09,-395.57C977.22,-379.17 1158.46,-358.34 1285,-431 1330.51,-457.13 1360.12,-516.65 1370.43,-540.17"/>
<polygon fill="#9a32cd" stroke="#9a32cd" points="888.24,-392.17 879.07,-397.49 889.55,-399.05 888.24,-392.17"/>
<text text-anchor="middle" x="1117" y="-397" font-family="Helvetica,sans-Serif" font-size="10.00"> blackLevelSeparate</text>
</g>
<!-- Node37 -->
<g id="node37" class="node">
<title>Node37</title>
<g id="a_node37"><a xlink:title=" ">
<polygon fill="none" stroke="#bfbfbf" points="1092,-622.5 1092,-641.5 1142,-641.5 1142,-622.5 1092,-622.5"/>
<text text-anchor="middle" x="1117" y="-629.5" font-family="Helvetica,sans-Serif" font-size="10.00">uint8_t</text>
</a>
</g>
</g>
<!-- Node37&#45;&gt;Node5 -->
<g id="edge54" class="edge">
<title>Node37&#45;&gt;Node5</title>
<path fill="none" stroke="#9a32cd" stroke-dasharray="5,2" d="M1152.07,-631.36C1186.58,-629.75 1241.01,-624.5 1285,-608 1315.86,-596.42 1347.07,-572.91 1363.23,-559.65"/>
<polygon fill="#9a32cd" stroke="#9a32cd" points="1151.88,-627.87 1142.03,-631.76 1152.16,-634.86 1151.88,-627.87"/>
<text text-anchor="middle" x="1247" y="-640" font-family="Helvetica,sans-Serif" font-size="10.00"> mBadPixelMap</text>
<text text-anchor="middle" x="1247" y="-629" font-family="Helvetica,sans-Serif" font-size="10.00">data</text>
</g>
</g>
</svg>
