<?xml version="1.0" encoding="UTF-8" standalone="no"?>
<!DOCTYPE svg PUBLIC "-//W3C//DTD SVG 1.1//EN"
 "http://www.w3.org/Graphics/SVG/1.1/DTD/svg11.dtd">
<!-- Generated by graphviz version 2.43.0 (0)
 -->
<!-- Title: librawspeed/decoders/IiqDecoder.h Pages: 1 -->
<svg width="552pt" height="117pt"
 viewBox="0.00 0.00 552.00 117.00" xmlns="http://www.w3.org/2000/svg" xmlns:xlink="http://www.w3.org/1999/xlink">
<g id="graph0" class="graph" transform="scale(1 1) rotate(0) translate(4 113)">
<title>librawspeed/decoders/IiqDecoder.h</title>
<!-- Node1 -->
<g id="node1" class="node">
<title>Node1</title>
<g id="a_node1"><a xlink:title=" ">
<polygon fill="#bfbfbf" stroke="black" points="217,-78.5 217,-108.5 340,-108.5 340,-78.5 217,-78.5"/>
<text text-anchor="start" x="225" y="-96.5" font-family="Helvetica,sans-Serif" font-size="10.00">librawspeed/decoders</text>
<text text-anchor="middle" x="278.5" y="-85.5" font-family="Helvetica,sans-Serif" font-size="10.00">/IiqDecoder.h</text>
</a>
</g>
</g>
<!-- Node2 -->
<g id="node2" class="node">
<title>Node2</title>
<g id="a_node2"><a xlink:href="../../d6/da1/fuzz_2librawspeed_2decoders_2_tiff_decoders_2main_8cpp.html" target="_top" xlink:title=" ">
<polygon fill="none" stroke="black" points="0,-0.5 0,-41.5 129,-41.5 129,-0.5 0,-0.5"/>
<text text-anchor="start" x="8" y="-29.5" font-family="Helvetica,sans-Serif" font-size="10.00">/build/rawspeed/fuzz</text>
<text text-anchor="start" x="8" y="-18.5" font-family="Helvetica,sans-Serif" font-size="10.00">/librawspeed/decoders</text>
<text text-anchor="middle" x="64.5" y="-7.5" font-family="Helvetica,sans-Serif" font-size="10.00">/TiffDecoders/main.cpp</text>
</a>
</g>
</g>
<!-- Node1&#45;&gt;Node2 -->
<g id="edge1" class="edge">
<title>Node1&#45;&gt;Node2</title>
<path fill="none" stroke="midnightblue" d="M226.24,-75.28C195.33,-65.1 156.07,-52.17 123.97,-41.59"/>
<polygon fill="midnightblue" stroke="midnightblue" points="225.37,-78.68 235.96,-78.49 227.56,-72.03 225.37,-78.68"/>
</g>
<!-- Node3 -->
<g id="node3" class="node">
<title>Node3</title>
<g id="a_node3"><a xlink:href="../../dc/d32/_iiq_decoder_8cpp.html" target="_top" xlink:title=" ">
<polygon fill="none" stroke="black" points="147,-6 147,-36 270,-36 270,-6 147,-6"/>
<text text-anchor="start" x="155" y="-24" font-family="Helvetica,sans-Serif" font-size="10.00">librawspeed/decoders</text>
<text text-anchor="middle" x="208.5" y="-13" font-family="Helvetica,sans-Serif" font-size="10.00">/IiqDecoder.cpp</text>
</a>
</g>
</g>
<!-- Node1&#45;&gt;Node3 -->
<g id="edge2" class="edge">
<title>Node1&#45;&gt;Node3</title>
<path fill="none" stroke="midnightblue" d="M257.02,-70.86C245.85,-59.61 232.51,-46.18 222.64,-36.25"/>
<polygon fill="midnightblue" stroke="midnightblue" points="254.8,-73.6 264.33,-78.23 259.77,-68.67 254.8,-73.6"/>
</g>
<!-- Node4 -->
<g id="node4" class="node">
<title>Node4</title>
<g id="a_node4"><a xlink:href="../../d1/db1/_mos_decoder_8cpp.html" target="_top" xlink:title=" ">
<polygon fill="none" stroke="black" points="288,-6 288,-36 411,-36 411,-6 288,-6"/>
<text text-anchor="start" x="296" y="-24" font-family="Helvetica,sans-Serif" font-size="10.00">librawspeed/decoders</text>
<text text-anchor="middle" x="349.5" y="-13" font-family="Helvetica,sans-Serif" font-size="10.00">/MosDecoder.cpp</text>
</a>
</g>
</g>
<!-- Node1&#45;&gt;Node4 -->
<g id="edge3" class="edge">
<title>Node1&#45;&gt;Node4</title>
<path fill="none" stroke="midnightblue" d="M300.29,-70.86C311.62,-59.61 325.15,-46.18 335.15,-36.25"/>
<polygon fill="midnightblue" stroke="midnightblue" points="297.5,-68.7 292.87,-78.23 302.43,-73.67 297.5,-68.7"/>
</g>
<!-- Node5 -->
<g id="node5" class="node">
<title>Node5</title>
<g id="a_node5"><a xlink:href="../../d2/d36/_tiff_parser_8cpp.html" target="_top" xlink:title=" ">
<polygon fill="none" stroke="black" points="429,-6 429,-36 544,-36 544,-6 429,-6"/>
<text text-anchor="start" x="437" y="-24" font-family="Helvetica,sans-Serif" font-size="10.00">librawspeed/parsers</text>
<text text-anchor="middle" x="486.5" y="-13" font-family="Helvetica,sans-Serif" font-size="10.00">/TiffParser.cpp</text>
</a>
</g>
</g>
<!-- Node1&#45;&gt;Node5 -->
<g id="edge4" class="edge">
<title>Node1&#45;&gt;Node5</title>
<path fill="none" stroke="midnightblue" d="M329.78,-75.12C365.25,-63.1 411.84,-47.31 444.98,-36.07"/>
<polygon fill="midnightblue" stroke="midnightblue" points="328.44,-71.88 320.09,-78.4 330.69,-78.51 328.44,-71.88"/>
</g>
</g>
</svg>
