<?xml version="1.0" encoding="UTF-8" standalone="no"?>
<!DOCTYPE svg PUBLIC "-//W3C//DTD SVG 1.1//EN"
 "http://www.w3.org/Graphics/SVG/1.1/DTD/svg11.dtd">
<!-- Generated by graphviz version 2.43.0 (0)
 -->
<!-- Title: librawspeed/interpolators/Cr2sRawInterpolator.cpp Pages: 1 -->
<svg width="1878pt" height="263pt"
 viewBox="0.00 0.00 1877.58 263.00" xmlns="http://www.w3.org/2000/svg" xmlns:xlink="http://www.w3.org/1999/xlink">
<g id="graph0" class="graph" transform="scale(1 1) rotate(0) translate(4 259)">
<title>librawspeed/interpolators/Cr2sRawInterpolator.cpp</title>
<!-- Node1 -->
<g id="node1" class="node">
<title>Node1</title>
<g id="a_node1"><a xlink:title=" ">
<polygon fill="#bfbfbf" stroke="black" points="868.5,-224.5 868.5,-254.5 1009.5,-254.5 1009.5,-224.5 868.5,-224.5"/>
<text text-anchor="start" x="876.5" y="-242.5" font-family="Helvetica,sans-Serif" font-size="10.00">librawspeed/interpolators</text>
<text text-anchor="middle" x="939" y="-231.5" font-family="Helvetica,sans-Serif" font-size="10.00">/Cr2sRawInterpolator.cpp</text>
</a>
</g>
</g>
<!-- Node2 -->
<g id="node2" class="node">
<title>Node2</title>
<g id="a_node2"><a xlink:title=" ">
<polygon fill="none" stroke="#bfbfbf" points="253,-0.5 253,-19.5 355,-19.5 355,-0.5 253,-0.5"/>
<text text-anchor="middle" x="304" y="-7.5" font-family="Helvetica,sans-Serif" font-size="10.00">rawspeedconfig.h</text>
</a>
</g>
</g>
<!-- Node1&#45;&gt;Node2 -->
<g id="edge1" class="edge">
<title>Node1&#45;&gt;Node2</title>
<path fill="none" stroke="midnightblue" d="M868.27,-234.44C772.9,-226.38 600.28,-202.47 472,-132 413.51,-99.87 351.49,-50.69 321.83,-26.1"/>
<polygon fill="midnightblue" stroke="midnightblue" points="323.94,-23.31 314.02,-19.58 319.45,-28.68 323.94,-23.31"/>
</g>
<!-- Node3 -->
<g id="node3" class="node">
<title>Node3</title>
<g id="a_node3"><a xlink:href="../../d8/df5/_cr2s_raw_interpolator_8h.html" target="_top" xlink:title=" ">
<polygon fill="none" stroke="black" points="1648,-112.5 1648,-131.5 1838,-131.5 1838,-112.5 1648,-112.5"/>
<text text-anchor="middle" x="1743" y="-119.5" font-family="Helvetica,sans-Serif" font-size="10.00">interpolators/Cr2sRawInterpolator.h</text>
</a>
</g>
</g>
<!-- Node1&#45;&gt;Node3 -->
<g id="edge2" class="edge">
<title>Node1&#45;&gt;Node3</title>
<path fill="none" stroke="midnightblue" d="M1009.64,-228.35C1162.38,-206.41 1521.76,-154.78 1673.48,-132.99"/>
<polygon fill="midnightblue" stroke="midnightblue" points="1674.2,-136.42 1683.6,-131.53 1673.21,-129.49 1674.2,-136.42"/>
</g>
<!-- Node4 -->
<g id="node4" class="node">
<title>Node4</title>
<g id="a_node4"><a xlink:href="../../dd/d9c/_array2_d_ref_8h.html" target="_top" xlink:title=" ">
<polygon fill="none" stroke="black" points="1043,-56.5 1043,-75.5 1169,-75.5 1169,-56.5 1043,-56.5"/>
<text text-anchor="middle" x="1106" y="-63.5" font-family="Helvetica,sans-Serif" font-size="10.00">common/Array2DRef.h</text>
</a>
</g>
</g>
<!-- Node1&#45;&gt;Node4 -->
<g id="edge9" class="edge">
<title>Node1&#45;&gt;Node4</title>
<path fill="none" stroke="midnightblue" d="M946.05,-224.45C959.18,-199.36 989.48,-146.29 1027,-112 1041.47,-98.77 1060.5,-87.79 1076.26,-79.98"/>
<polygon fill="midnightblue" stroke="midnightblue" points="1078.05,-83 1085.57,-75.54 1075.04,-76.68 1078.05,-83"/>
</g>
<!-- Node5 -->
<g id="node5" class="node">
<title>Node5</title>
<g id="a_node5"><a xlink:title=" ">
<polygon fill="none" stroke="#bfbfbf" points="523,-0.5 523,-19.5 575,-19.5 575,-0.5 523,-0.5"/>
<text text-anchor="middle" x="549" y="-7.5" font-family="Helvetica,sans-Serif" font-size="10.00">cassert</text>
</a>
</g>
</g>
<!-- Node1&#45;&gt;Node5 -->
<g id="edge66" class="edge">
<title>Node1&#45;&gt;Node5</title>
<path fill="none" stroke="midnightblue" d="M868.12,-226.63C740.7,-203.66 481.47,-148.89 431,-76 425.94,-68.69 425.96,-63.32 431,-56 435.95,-48.82 480.29,-33.19 513.17,-22.39"/>
<polygon fill="midnightblue" stroke="midnightblue" points="514.53,-25.62 522.95,-19.2 512.36,-18.97 514.53,-25.62"/>
</g>
<!-- Node8 -->
<g id="node8" class="node">
<title>Node8</title>
<g id="a_node8"><a xlink:title=" ">
<polygon fill="none" stroke="#bfbfbf" points="1618,-56.5 1618,-75.5 1660,-75.5 1660,-56.5 1618,-56.5"/>
<text text-anchor="middle" x="1639" y="-63.5" font-family="Helvetica,sans-Serif" font-size="10.00">array</text>
</a>
</g>
</g>
<!-- Node1&#45;&gt;Node8 -->
<g id="edge65" class="edge">
<title>Node1&#45;&gt;Node8</title>
<path fill="none" stroke="midnightblue" d="M1009.59,-235.52C1213.35,-226.19 1791.48,-194.41 1847,-132 1897.6,-75.12 1740.13,-67.5 1670.43,-66.84"/>
<polygon fill="midnightblue" stroke="midnightblue" points="1670.06,-63.34 1660.05,-66.79 1670.03,-70.34 1670.06,-63.34"/>
</g>
<!-- Node9 -->
<g id="node9" class="node">
<title>Node9</title>
<g id="a_node9"><a xlink:title=" ">
<polygon fill="none" stroke="#bfbfbf" points="1446,-0.5 1446,-19.5 1496,-19.5 1496,-0.5 1446,-0.5"/>
<text text-anchor="middle" x="1471" y="-7.5" font-family="Helvetica,sans-Serif" font-size="10.00">cstdint</text>
</a>
</g>
</g>
<!-- Node1&#45;&gt;Node9 -->
<g id="edge67" class="edge">
<title>Node1&#45;&gt;Node9</title>
<path fill="none" stroke="midnightblue" d="M1009.58,-236.22C1172.47,-230.56 1570.71,-214.41 1702,-188 1777.1,-172.89 1820.5,-194.35 1865,-132 1909.01,-70.34 1610.71,-27.91 1506.22,-15.07"/>
<polygon fill="midnightblue" stroke="midnightblue" points="1506.51,-11.58 1496.16,-13.86 1505.67,-18.53 1506.51,-11.58"/>
</g>
<!-- Node10 -->
<g id="node10" class="node">
<title>Node10</title>
<g id="a_node10"><a xlink:href="../../d9/df5/src_2librawspeed_2common_2_common_8h.html" target="_top" xlink:title=" ">
<polygon fill="none" stroke="black" points="643,-56.5 643,-75.5 759,-75.5 759,-56.5 643,-56.5"/>
<text text-anchor="middle" x="701" y="-63.5" font-family="Helvetica,sans-Serif" font-size="10.00">common/Common.h</text>
</a>
</g>
</g>
<!-- Node1&#45;&gt;Node10 -->
<g id="edge10" class="edge">
<title>Node1&#45;&gt;Node10</title>
<path fill="none" stroke="midnightblue" d="M868.24,-228.2C811.76,-215.86 736.15,-189.13 699,-132 690.16,-118.41 691.87,-99.61 695.07,-85.72"/>
<polygon fill="midnightblue" stroke="midnightblue" points="698.51,-86.41 697.79,-75.84 691.76,-84.55 698.51,-86.41"/>
</g>
<!-- Node16 -->
<g id="node16" class="node">
<title>Node16</title>
<g id="a_node16"><a xlink:href="../../d1/d18/_point_8h.html" target="_top" xlink:title=" ">
<polygon fill="none" stroke="black" points="891,-56.5 891,-75.5 987,-75.5 987,-56.5 891,-56.5"/>
<text text-anchor="middle" x="939" y="-63.5" font-family="Helvetica,sans-Serif" font-size="10.00">common/Point.h</text>
</a>
</g>
</g>
<!-- Node1&#45;&gt;Node16 -->
<g id="edge20" class="edge">
<title>Node1&#45;&gt;Node16</title>
<path fill="none" stroke="midnightblue" d="M939,-224.47C939,-193.7 939,-120.33 939,-85.7"/>
<polygon fill="midnightblue" stroke="midnightblue" points="942.5,-85.56 939,-75.56 935.5,-85.56 942.5,-85.56"/>
</g>
<!-- Node17 -->
<g id="node17" class="node">
<title>Node17</title>
<g id="a_node17"><a xlink:href="../../d6/da1/_raw_image_8h.html" target="_top" xlink:title=" ">
<polygon fill="none" stroke="black" points="1005.5,-168.5 1005.5,-187.5 1128.5,-187.5 1128.5,-168.5 1005.5,-168.5"/>
<text text-anchor="middle" x="1067" y="-175.5" font-family="Helvetica,sans-Serif" font-size="10.00">common/RawImage.h</text>
</a>
</g>
</g>
<!-- Node1&#45;&gt;Node17 -->
<g id="edge24" class="edge">
<title>Node1&#45;&gt;Node17</title>
<path fill="none" stroke="midnightblue" d="M969.33,-224.4C990.52,-214.55 1018.59,-201.5 1039.2,-191.92"/>
<polygon fill="midnightblue" stroke="midnightblue" points="1040.78,-195.05 1048.37,-187.66 1037.83,-188.7 1040.78,-195.05"/>
</g>
<!-- Node27 -->
<g id="node27" class="node">
<title>Node27</title>
<g id="a_node27"><a xlink:href="../../d0/daf/_raw_decoder_exception_8h.html" target="_top" xlink:title=" ">
<polygon fill="none" stroke="black" points="95,-168.5 95,-187.5 277,-187.5 277,-168.5 95,-168.5"/>
<text text-anchor="middle" x="186" y="-175.5" font-family="Helvetica,sans-Serif" font-size="10.00">decoders/RawDecoderException.h</text>
</a>
</g>
</g>
<!-- Node1&#45;&gt;Node27 -->
<g id="edge56" class="edge">
<title>Node1&#45;&gt;Node27</title>
<path fill="none" stroke="midnightblue" d="M868.03,-233.15C748.8,-224.12 500.75,-205.16 291,-188 289.72,-187.9 288.43,-187.79 287.13,-187.68"/>
<polygon fill="midnightblue" stroke="midnightblue" points="287.31,-184.19 277.06,-186.85 286.73,-191.16 287.31,-184.19"/>
</g>
<!-- Node3&#45;&gt;Node4 -->
<g id="edge3" class="edge">
<title>Node3&#45;&gt;Node4</title>
<path fill="none" stroke="midnightblue" d="M1647.98,-112.94C1520.05,-102.1 1295.14,-83.03 1179.39,-73.22"/>
<polygon fill="midnightblue" stroke="midnightblue" points="1179.48,-69.72 1169.22,-72.36 1178.89,-76.69 1179.48,-69.72"/>
</g>
<!-- Node3&#45;&gt;Node8 -->
<g id="edge7" class="edge">
<title>Node3&#45;&gt;Node8</title>
<path fill="none" stroke="midnightblue" d="M1726.29,-112.32C1709.69,-103.7 1684,-90.36 1664.78,-80.39"/>
<polygon fill="midnightblue" stroke="midnightblue" points="1666.16,-77.16 1655.67,-75.65 1662.93,-83.37 1666.16,-77.16"/>
</g>
<!-- Node3&#45;&gt;Node9 -->
<g id="edge8" class="edge">
<title>Node3&#45;&gt;Node9</title>
<path fill="none" stroke="midnightblue" d="M1735.78,-112.32C1723.55,-98.22 1697.33,-70.46 1669,-56 1616.15,-29.01 1547.18,-18.06 1506.15,-13.72"/>
<polygon fill="midnightblue" stroke="midnightblue" points="1506.4,-10.23 1496.1,-12.73 1505.71,-17.2 1506.4,-10.23"/>
</g>
<!-- Node4&#45;&gt;Node5 -->
<g id="edge4" class="edge">
<title>Node4&#45;&gt;Node5</title>
<path fill="none" stroke="midnightblue" d="M1042.95,-59.85C918.14,-49.6 646.89,-27.16 585.3,-19.65"/>
<polygon fill="midnightblue" stroke="midnightblue" points="585.66,-16.17 575.27,-18.25 584.69,-23.1 585.66,-16.17"/>
</g>
<!-- Node6 -->
<g id="node6" class="node">
<title>Node6</title>
<g id="a_node6"><a xlink:title=" ">
<polygon fill="none" stroke="#bfbfbf" points="975.5,-0.5 975.5,-19.5 1044.5,-19.5 1044.5,-0.5 975.5,-0.5"/>
<text text-anchor="middle" x="1010" y="-7.5" font-family="Helvetica,sans-Serif" font-size="10.00">type_traits</text>
</a>
</g>
</g>
<!-- Node4&#45;&gt;Node6 -->
<g id="edge5" class="edge">
<title>Node4&#45;&gt;Node6</title>
<path fill="none" stroke="midnightblue" d="M1090.58,-56.32C1075.46,-47.82 1052.18,-34.73 1034.53,-24.8"/>
<polygon fill="midnightblue" stroke="midnightblue" points="1035.82,-21.51 1025.39,-19.65 1032.39,-27.61 1035.82,-21.51"/>
</g>
<!-- Node7 -->
<g id="node7" class="node">
<title>Node7</title>
<g id="a_node7"><a xlink:title=" ">
<polygon fill="none" stroke="#bfbfbf" points="1128.5,-0.5 1128.5,-19.5 1175.5,-19.5 1175.5,-0.5 1128.5,-0.5"/>
<text text-anchor="middle" x="1152" y="-7.5" font-family="Helvetica,sans-Serif" font-size="10.00">vector</text>
</a>
</g>
</g>
<!-- Node4&#45;&gt;Node7 -->
<g id="edge6" class="edge">
<title>Node4&#45;&gt;Node7</title>
<path fill="none" stroke="midnightblue" d="M1113.6,-56.08C1120.23,-48.3 1130.02,-36.8 1138.06,-27.37"/>
<polygon fill="midnightblue" stroke="midnightblue" points="1140.73,-29.63 1144.55,-19.75 1135.4,-25.09 1140.73,-29.63"/>
</g>
<!-- Node10&#45;&gt;Node5 -->
<g id="edge12" class="edge">
<title>Node10&#45;&gt;Node5</title>
<path fill="none" stroke="midnightblue" d="M676.92,-56.44C651.46,-47.4 611.11,-33.06 582.54,-22.92"/>
<polygon fill="midnightblue" stroke="midnightblue" points="583.57,-19.57 572.97,-19.52 581.22,-26.16 583.57,-19.57"/>
</g>
<!-- Node10&#45;&gt;Node6 -->
<g id="edge18" class="edge">
<title>Node10&#45;&gt;Node6</title>
<path fill="none" stroke="midnightblue" d="M754.39,-56.47C805.78,-48.15 885.93,-34.84 965.26,-20.08"/>
<polygon fill="midnightblue" stroke="midnightblue" points="966.25,-23.46 975.43,-18.18 964.96,-16.58 966.25,-23.46"/>
</g>
<!-- Node10&#45;&gt;Node7 -->
<g id="edge19" class="edge">
<title>Node10&#45;&gt;Node7</title>
<path fill="none" stroke="midnightblue" d="M759.04,-58.05C854.47,-46.62 1041.57,-24.22 1118.13,-15.06"/>
<polygon fill="midnightblue" stroke="midnightblue" points="1118.66,-18.52 1128.17,-13.85 1117.83,-11.57 1118.66,-18.52"/>
</g>
<!-- Node10&#45;&gt;Node9 -->
<g id="edge14" class="edge">
<title>Node10&#45;&gt;Node9</title>
<path fill="none" stroke="midnightblue" d="M759.19,-60.92C910.7,-50.29 1314.07,-22.01 1435.76,-13.47"/>
<polygon fill="midnightblue" stroke="midnightblue" points="1436.26,-16.94 1445.99,-12.75 1435.77,-9.96 1436.26,-16.94"/>
</g>
<!-- Node11 -->
<g id="node11" class="node">
<title>Node11</title>
<g id="a_node11"><a xlink:title=" ">
<polygon fill="none" stroke="#bfbfbf" points="831,-0.5 831,-19.5 895,-19.5 895,-0.5 831,-0.5"/>
<text text-anchor="middle" x="863" y="-7.5" font-family="Helvetica,sans-Serif" font-size="10.00">algorithm</text>
</a>
</g>
</g>
<!-- Node10&#45;&gt;Node11 -->
<g id="edge11" class="edge">
<title>Node10&#45;&gt;Node11</title>
<path fill="none" stroke="midnightblue" d="M726.67,-56.44C753.92,-47.36 797.18,-32.94 827.65,-22.78"/>
<polygon fill="midnightblue" stroke="midnightblue" points="829.07,-26 837.45,-19.52 826.86,-19.36 829.07,-26"/>
</g>
<!-- Node12 -->
<g id="node12" class="node">
<title>Node12</title>
<g id="a_node12"><a xlink:title=" ">
<polygon fill="none" stroke="#bfbfbf" points="763,-0.5 763,-19.5 813,-19.5 813,-0.5 763,-0.5"/>
<text text-anchor="middle" x="788" y="-7.5" font-family="Helvetica,sans-Serif" font-size="10.00">climits</text>
</a>
</g>
</g>
<!-- Node10&#45;&gt;Node12 -->
<g id="edge13" class="edge">
<title>Node10&#45;&gt;Node12</title>
<path fill="none" stroke="midnightblue" d="M714.98,-56.32C728.55,-47.9 749.38,-34.97 765.32,-25.07"/>
<polygon fill="midnightblue" stroke="midnightblue" points="767.41,-27.9 774.06,-19.65 763.71,-21.95 767.41,-27.9"/>
</g>
<!-- Node13 -->
<g id="node13" class="node">
<title>Node13</title>
<g id="a_node13"><a xlink:title=" ">
<polygon fill="none" stroke="#bfbfbf" points="593,-0.5 593,-19.5 643,-19.5 643,-0.5 593,-0.5"/>
<text text-anchor="middle" x="618" y="-7.5" font-family="Helvetica,sans-Serif" font-size="10.00">cstring</text>
</a>
</g>
</g>
<!-- Node10&#45;&gt;Node13 -->
<g id="edge15" class="edge">
<title>Node10&#45;&gt;Node13</title>
<path fill="none" stroke="midnightblue" d="M687.66,-56.32C674.84,-47.98 655.22,-35.21 640.06,-25.35"/>
<polygon fill="midnightblue" stroke="midnightblue" points="641.59,-22.17 631.3,-19.65 637.78,-28.04 641.59,-22.17"/>
</g>
<!-- Node14 -->
<g id="node14" class="node">
<title>Node14</title>
<g id="a_node14"><a xlink:title=" ">
<polygon fill="none" stroke="#bfbfbf" points="661.5,-0.5 661.5,-19.5 744.5,-19.5 744.5,-0.5 661.5,-0.5"/>
<text text-anchor="middle" x="703" y="-7.5" font-family="Helvetica,sans-Serif" font-size="10.00">initializer_list</text>
</a>
</g>
</g>
<!-- Node10&#45;&gt;Node14 -->
<g id="edge16" class="edge">
<title>Node10&#45;&gt;Node14</title>
<path fill="none" stroke="midnightblue" d="M701.33,-56.08C701.59,-49.01 701.97,-38.86 702.3,-29.99"/>
<polygon fill="midnightblue" stroke="midnightblue" points="705.8,-29.87 702.68,-19.75 698.81,-29.61 705.8,-29.87"/>
</g>
<!-- Node15 -->
<g id="node15" class="node">
<title>Node15</title>
<g id="a_node15"><a xlink:title=" ">
<polygon fill="none" stroke="#bfbfbf" points="913,-0.5 913,-19.5 957,-19.5 957,-0.5 913,-0.5"/>
<text text-anchor="middle" x="935" y="-7.5" font-family="Helvetica,sans-Serif" font-size="10.00">string</text>
</a>
</g>
</g>
<!-- Node10&#45;&gt;Node15 -->
<g id="edge17" class="edge">
<title>Node10&#45;&gt;Node15</title>
<path fill="none" stroke="midnightblue" d="M743.18,-56.48C782.27,-48.39 842.26,-35.52 902.95,-20.15"/>
<polygon fill="midnightblue" stroke="midnightblue" points="903.87,-23.53 912.7,-17.66 902.14,-16.74 903.87,-23.53"/>
</g>
<!-- Node16&#45;&gt;Node6 -->
<g id="edge23" class="edge">
<title>Node16&#45;&gt;Node6</title>
<path fill="none" stroke="midnightblue" d="M950.41,-56.32C961.11,-48.18 977.34,-35.84 990.16,-26.09"/>
<polygon fill="midnightblue" stroke="midnightblue" points="992.54,-28.67 998.39,-19.83 988.31,-23.1 992.54,-28.67"/>
</g>
<!-- Node16&#45;&gt;Node9 -->
<g id="edge22" class="edge">
<title>Node16&#45;&gt;Node9</title>
<path fill="none" stroke="midnightblue" d="M987.15,-60.11C1092.93,-49.38 1343.51,-23.94 1435.95,-14.56"/>
<polygon fill="midnightblue" stroke="midnightblue" points="1436.32,-18.04 1445.92,-13.55 1435.62,-11.07 1436.32,-18.04"/>
</g>
<!-- Node16&#45;&gt;Node11 -->
<g id="edge21" class="edge">
<title>Node16&#45;&gt;Node11</title>
<path fill="none" stroke="midnightblue" d="M926.79,-56.32C915.22,-48.11 897.62,-35.6 883.84,-25.81"/>
<polygon fill="midnightblue" stroke="midnightblue" points="885.61,-22.77 875.43,-19.83 881.56,-28.48 885.61,-22.77"/>
</g>
<!-- Node17&#45;&gt;Node2 -->
<g id="edge25" class="edge">
<title>Node17&#45;&gt;Node2</title>
<path fill="none" stroke="midnightblue" d="M1005.47,-176.64C873.24,-175.17 566.11,-167.88 469,-132 406.22,-108.8 346.48,-54.21 319.31,-27"/>
<polygon fill="midnightblue" stroke="midnightblue" points="321.74,-24.49 312.24,-19.8 316.75,-29.39 321.74,-24.49"/>
</g>
<!-- Node17&#45;&gt;Node4 -->
<g id="edge27" class="edge">
<title>Node17&#45;&gt;Node4</title>
<path fill="none" stroke="midnightblue" d="M1057.08,-168.48C1043.76,-155.97 1022.96,-131.92 1034,-112 1042.09,-97.41 1057.1,-86.92 1071.34,-79.76"/>
<polygon fill="midnightblue" stroke="midnightblue" points="1072.89,-82.9 1080.5,-75.53 1069.95,-76.55 1072.89,-82.9"/>
</g>
<!-- Node17&#45;&gt;Node5 -->
<g id="edge50" class="edge">
<title>Node17&#45;&gt;Node5</title>
<path fill="none" stroke="midnightblue" d="M1005.43,-175.34C883.96,-171.49 617.74,-160.06 531,-132 485.09,-117.15 461.74,-118 438,-76 433.63,-68.26 433.03,-63.37 438,-56 446.81,-42.93 484.12,-29.55 513.08,-20.82"/>
<polygon fill="midnightblue" stroke="midnightblue" points="514.31,-24.11 522.92,-17.93 512.34,-17.39 514.31,-24.11"/>
</g>
<!-- Node17&#45;&gt;Node7 -->
<g id="edge55" class="edge">
<title>Node17&#45;&gt;Node7</title>
<path fill="none" stroke="midnightblue" d="M1103.97,-168.46C1131.94,-161.11 1170.75,-149 1202,-132 1219.5,-122.48 1263.37,-93.95 1272,-76 1289.98,-38.6 1227.18,-21.95 1185.72,-15.16"/>
<polygon fill="midnightblue" stroke="midnightblue" points="1186.12,-11.68 1175.7,-13.64 1185.07,-18.6 1186.12,-11.68"/>
</g>
<!-- Node17&#45;&gt;Node8 -->
<g id="edge49" class="edge">
<title>Node17&#45;&gt;Node8</title>
<path fill="none" stroke="midnightblue" d="M1128.81,-174.97C1260.89,-170.19 1561.86,-156.7 1601,-132 1617.72,-121.45 1627.95,-100.67 1633.52,-85.43"/>
<polygon fill="midnightblue" stroke="midnightblue" points="1636.97,-86.14 1636.78,-75.55 1630.33,-83.95 1636.97,-86.14"/>
</g>
<!-- Node17&#45;&gt;Node9 -->
<g id="edge52" class="edge">
<title>Node17&#45;&gt;Node9</title>
<path fill="none" stroke="midnightblue" d="M1121.67,-168.45C1163.7,-161.06 1222.88,-148.9 1273,-132 1292.97,-125.27 1295.96,-118.52 1316,-112 1395.25,-86.24 1447.04,-140.33 1500,-76 1511.95,-61.49 1499.45,-41.27 1487.35,-27.25"/>
<polygon fill="midnightblue" stroke="midnightblue" points="1489.81,-24.76 1480.45,-19.8 1484.68,-29.52 1489.81,-24.76"/>
</g>
<!-- Node17&#45;&gt;Node10 -->
<g id="edge28" class="edge">
<title>Node17&#45;&gt;Node10</title>
<path fill="none" stroke="midnightblue" d="M1005.14,-177.5C915.31,-176.87 755.02,-170.22 714,-132 701.52,-120.37 699.13,-100.42 699.34,-85.68"/>
<polygon fill="midnightblue" stroke="midnightblue" points="702.83,-85.82 699.87,-75.65 695.84,-85.45 702.83,-85.82"/>
</g>
<!-- Node17&#45;&gt;Node15 -->
<g id="edge54" class="edge">
<title>Node17&#45;&gt;Node15</title>
<path fill="none" stroke="midnightblue" d="M1028.75,-168.47C984.49,-156.32 913.65,-129.34 882,-76 870.71,-56.97 891.49,-37.64 910.25,-25.06"/>
<polygon fill="midnightblue" stroke="midnightblue" points="912.28,-27.91 918.88,-19.62 908.55,-21.99 912.28,-27.91"/>
</g>
<!-- Node17&#45;&gt;Node16 -->
<g id="edge37" class="edge">
<title>Node17&#45;&gt;Node16</title>
<path fill="none" stroke="midnightblue" d="M1056.96,-168.37C1035.27,-149.73 983.84,-105.53 956.61,-82.13"/>
<polygon fill="midnightblue" stroke="midnightblue" points="958.86,-79.45 949,-75.59 954.3,-84.76 958.86,-79.45"/>
</g>
<!-- Node18 -->
<g id="node18" class="node">
<title>Node18</title>
<g id="a_node18"><a xlink:href="../../db/d8a/_thread_safety_analysis_8h.html" target="_top" xlink:title=" ">
<polygon fill="none" stroke="black" points="373,-0.5 373,-19.5 505,-19.5 505,-0.5 373,-0.5"/>
<text text-anchor="middle" x="439" y="-7.5" font-family="Helvetica,sans-Serif" font-size="10.00">ThreadSafetyAnalysis.h</text>
</a>
</g>
</g>
<!-- Node17&#45;&gt;Node18 -->
<g id="edge26" class="edge">
<title>Node17&#45;&gt;Node18</title>
<path fill="none" stroke="midnightblue" d="M1005.38,-176.11C931.14,-173.54 803.38,-164.29 699,-132 647.35,-116.02 638.32,-102.16 591,-76 575.66,-67.52 572.8,-63.59 557,-56 530.2,-43.12 498.68,-31.26 474.96,-22.95"/>
<polygon fill="midnightblue" stroke="midnightblue" points="475.9,-19.57 465.31,-19.61 473.61,-26.19 475.9,-19.57"/>
</g>
<!-- Node19 -->
<g id="node19" class="node">
<title>Node19</title>
<g id="a_node19"><a xlink:href="../../d7/d4f/_error_log_8h.html" target="_top" xlink:title=" ">
<polygon fill="none" stroke="black" points="723,-112.5 723,-131.5 835,-131.5 835,-112.5 723,-112.5"/>
<text text-anchor="middle" x="779" y="-119.5" font-family="Helvetica,sans-Serif" font-size="10.00">common/ErrorLog.h</text>
</a>
</g>
</g>
<!-- Node17&#45;&gt;Node19 -->
<g id="edge29" class="edge">
<title>Node17&#45;&gt;Node19</title>
<path fill="none" stroke="midnightblue" d="M1021.37,-168.44C970.7,-158.94 888.93,-143.61 834.57,-133.42"/>
<polygon fill="midnightblue" stroke="midnightblue" points="834.89,-129.92 824.42,-131.52 833.6,-136.8 834.89,-129.92"/>
</g>
<!-- Node20 -->
<g id="node20" class="node">
<title>Node20</title>
<g id="a_node20"><a xlink:href="../../da/d78/_mutex_8h.html" target="_top" xlink:title=" ">
<polygon fill="none" stroke="black" points="447.5,-56.5 447.5,-75.5 548.5,-75.5 548.5,-56.5 447.5,-56.5"/>
<text text-anchor="middle" x="498" y="-63.5" font-family="Helvetica,sans-Serif" font-size="10.00">common/Mutex.h</text>
</a>
</g>
</g>
<!-- Node17&#45;&gt;Node20 -->
<g id="edge36" class="edge">
<title>Node17&#45;&gt;Node20</title>
<path fill="none" stroke="midnightblue" d="M1005.31,-176.7C888.54,-175.28 640,-167.99 563,-132 540.28,-121.38 520.96,-99.3 509.43,-83.84"/>
<polygon fill="midnightblue" stroke="midnightblue" points="512.23,-81.74 503.57,-75.63 506.53,-85.81 512.23,-81.74"/>
</g>
<!-- Node21 -->
<g id="node21" class="node">
<title>Node21</title>
<g id="a_node21"><a xlink:href="../../d2/d9b/_table_look_up_8h.html" target="_top" xlink:title=" ">
<polygon fill="none" stroke="black" points="1357,-56.5 1357,-75.5 1491,-75.5 1491,-56.5 1357,-56.5"/>
<text text-anchor="middle" x="1424" y="-63.5" font-family="Helvetica,sans-Serif" font-size="10.00">common/TableLookUp.h</text>
</a>
</g>
</g>
<!-- Node17&#45;&gt;Node21 -->
<g id="edge38" class="edge">
<title>Node17&#45;&gt;Node21</title>
<path fill="none" stroke="midnightblue" d="M1104.46,-168.48C1138.79,-160.32 1190.84,-147.04 1235,-132 1256.88,-124.55 1261.3,-119.97 1283,-112 1317.2,-99.44 1356.77,-86.99 1385.27,-78.38"/>
<polygon fill="midnightblue" stroke="midnightblue" points="1386.29,-81.73 1394.86,-75.5 1384.27,-75.03 1386.29,-81.73"/>
</g>
<!-- Node22 -->
<g id="node22" class="node">
<title>Node22</title>
<g id="a_node22"><a xlink:href="../../db/dca/_black_area_8h.html" target="_top" xlink:title=" ">
<polygon fill="none" stroke="black" points="1325.5,-112.5 1325.5,-131.5 1450.5,-131.5 1450.5,-112.5 1325.5,-112.5"/>
<text text-anchor="middle" x="1388" y="-119.5" font-family="Helvetica,sans-Serif" font-size="10.00">metadata/BlackArea.h</text>
</a>
</g>
</g>
<!-- Node17&#45;&gt;Node22 -->
<g id="edge41" class="edge">
<title>Node17&#45;&gt;Node22</title>
<path fill="none" stroke="midnightblue" d="M1117.86,-168.44C1174.68,-158.89 1266.62,-143.42 1327.19,-133.23"/>
<polygon fill="midnightblue" stroke="midnightblue" points="1328.09,-136.63 1337.37,-131.52 1326.93,-129.72 1328.09,-136.63"/>
</g>
<!-- Node23 -->
<g id="node23" class="node">
<title>Node23</title>
<g id="a_node23"><a xlink:href="../../dd/d27/_color_filter_array_8h.html" target="_top" xlink:title=" ">
<polygon fill="none" stroke="black" points="1043,-112.5 1043,-131.5 1193,-131.5 1193,-112.5 1043,-112.5"/>
<text text-anchor="middle" x="1118" y="-119.5" font-family="Helvetica,sans-Serif" font-size="10.00">metadata/ColorFilterArray.h</text>
</a>
</g>
</g>
<!-- Node17&#45;&gt;Node23 -->
<g id="edge43" class="edge">
<title>Node17&#45;&gt;Node23</title>
<path fill="none" stroke="midnightblue" d="M1075.42,-168.08C1082.85,-160.22 1093.85,-148.57 1102.81,-139.08"/>
<polygon fill="midnightblue" stroke="midnightblue" points="1105.41,-141.42 1109.74,-131.75 1100.32,-136.62 1105.41,-141.42"/>
</g>
<!-- Node25 -->
<g id="node25" class="node">
<title>Node25</title>
<g id="a_node25"><a xlink:title=" ">
<polygon fill="none" stroke="#bfbfbf" points="1468.5,-112.5 1468.5,-131.5 1515.5,-131.5 1515.5,-112.5 1468.5,-112.5"/>
<text text-anchor="middle" x="1492" y="-119.5" font-family="Helvetica,sans-Serif" font-size="10.00">cmath</text>
</a>
</g>
</g>
<!-- Node17&#45;&gt;Node25 -->
<g id="edge51" class="edge">
<title>Node17&#45;&gt;Node25</title>
<path fill="none" stroke="midnightblue" d="M1128.55,-172.84C1204.07,-167.09 1336.11,-154.95 1458.4,-131.83"/>
<polygon fill="midnightblue" stroke="midnightblue" points="1459.15,-135.25 1468.31,-129.92 1457.83,-128.37 1459.15,-135.25"/>
</g>
<!-- Node26 -->
<g id="node26" class="node">
<title>Node26</title>
<g id="a_node26"><a xlink:title=" ">
<polygon fill="none" stroke="#bfbfbf" points="1534,-112.5 1534,-131.5 1592,-131.5 1592,-112.5 1534,-112.5"/>
<text text-anchor="middle" x="1563" y="-119.5" font-family="Helvetica,sans-Serif" font-size="10.00">memory</text>
</a>
</g>
</g>
<!-- Node17&#45;&gt;Node26 -->
<g id="edge53" class="edge">
<title>Node17&#45;&gt;Node26</title>
<path fill="none" stroke="midnightblue" d="M1128.83,-173.57C1215.17,-168.21 1376.86,-156.02 1523.54,-132.04"/>
<polygon fill="midnightblue" stroke="midnightblue" points="1524.33,-135.46 1533.62,-130.37 1523.18,-128.55 1524.33,-135.46"/>
</g>
<!-- Node19&#45;&gt;Node7 -->
<g id="edge35" class="edge">
<title>Node19&#45;&gt;Node7</title>
<path fill="none" stroke="midnightblue" d="M789.36,-112.45C807.12,-98.27 845.05,-70.08 882,-56 924.71,-39.72 1055.7,-22.5 1118.17,-14.94"/>
<polygon fill="midnightblue" stroke="midnightblue" points="1118.78,-18.39 1128.29,-13.73 1117.95,-11.44 1118.78,-18.39"/>
</g>
<!-- Node19&#45;&gt;Node15 -->
<g id="edge34" class="edge">
<title>Node19&#45;&gt;Node15</title>
<path fill="none" stroke="midnightblue" d="M781.08,-112.13C784.77,-98.27 793.77,-71.45 811,-56 818.14,-49.6 869,-32.32 903.33,-21.13"/>
<polygon fill="midnightblue" stroke="midnightblue" points="904.52,-24.42 912.95,-18.01 902.36,-17.76 904.52,-24.42"/>
</g>
<!-- Node19&#45;&gt;Node18 -->
<g id="edge30" class="edge">
<title>Node19&#45;&gt;Node18</title>
<path fill="none" stroke="midnightblue" d="M747.19,-112.46C717.52,-104.18 672.24,-90.75 634,-76 614.34,-68.41 610.71,-63.46 591,-56 555.27,-42.49 513.6,-30.4 482.93,-22.16"/>
<polygon fill="midnightblue" stroke="midnightblue" points="483.54,-18.7 472.98,-19.52 481.75,-25.47 483.54,-18.7"/>
</g>
<!-- Node19&#45;&gt;Node20 -->
<g id="edge31" class="edge">
<title>Node19&#45;&gt;Node20</title>
<path fill="none" stroke="midnightblue" d="M734.47,-112.44C685.04,-102.94 605.25,-87.61 552.22,-77.42"/>
<polygon fill="midnightblue" stroke="midnightblue" points="552.8,-73.97 542.32,-75.52 551.48,-80.84 552.8,-73.97"/>
</g>
<!-- Node20&#45;&gt;Node2 -->
<g id="edge32" class="edge">
<title>Node20&#45;&gt;Node2</title>
<path fill="none" stroke="midnightblue" d="M467.26,-56.44C434.06,-47.2 381.01,-32.44 344.44,-22.26"/>
<polygon fill="midnightblue" stroke="midnightblue" points="345.17,-18.83 334.6,-19.52 343.29,-25.57 345.17,-18.83"/>
</g>
<!-- Node20&#45;&gt;Node18 -->
<g id="edge33" class="edge">
<title>Node20&#45;&gt;Node18</title>
<path fill="none" stroke="midnightblue" d="M488.52,-56.32C479.8,-48.34 466.66,-36.31 456.1,-26.65"/>
<polygon fill="midnightblue" stroke="midnightblue" points="458.39,-24 448.65,-19.83 453.67,-29.17 458.39,-24"/>
</g>
<!-- Node21&#45;&gt;Node7 -->
<g id="edge40" class="edge">
<title>Node21&#45;&gt;Node7</title>
<path fill="none" stroke="midnightblue" d="M1380.9,-56.44C1326.64,-45.67 1234.58,-27.39 1185.37,-17.62"/>
<polygon fill="midnightblue" stroke="midnightblue" points="1186.04,-14.19 1175.55,-15.67 1184.67,-21.06 1186.04,-14.19"/>
</g>
<!-- Node21&#45;&gt;Node9 -->
<g id="edge39" class="edge">
<title>Node21&#45;&gt;Node9</title>
<path fill="none" stroke="midnightblue" d="M1431.76,-56.08C1438.54,-48.3 1448.54,-36.8 1456.76,-27.37"/>
<polygon fill="midnightblue" stroke="midnightblue" points="1459.46,-29.59 1463.38,-19.75 1454.18,-25 1459.46,-29.59"/>
</g>
<!-- Node22&#45;&gt;Node9 -->
<g id="edge42" class="edge">
<title>Node22&#45;&gt;Node9</title>
<path fill="none" stroke="midnightblue" d="M1435.96,-112.43C1473.51,-104.63 1521.27,-91.92 1533,-76 1547.31,-56.58 1521.69,-36.89 1499.17,-24.36"/>
<polygon fill="midnightblue" stroke="midnightblue" points="1500.63,-21.17 1490.15,-19.6 1497.36,-27.36 1500.63,-21.17"/>
</g>
<!-- Node23&#45;&gt;Node7 -->
<g id="edge48" class="edge">
<title>Node23&#45;&gt;Node7</title>
<path fill="none" stroke="midnightblue" d="M1137.3,-112.48C1151.43,-105.08 1169.56,-92.89 1178,-76 1186.03,-59.95 1176.14,-40.79 1166.34,-27.45"/>
<polygon fill="midnightblue" stroke="midnightblue" points="1169.07,-25.25 1160.1,-19.61 1163.59,-29.61 1169.07,-25.25"/>
</g>
<!-- Node23&#45;&gt;Node9 -->
<g id="edge45" class="edge">
<title>Node23&#45;&gt;Node9</title>
<path fill="none" stroke="midnightblue" d="M1148.18,-112.48C1179.29,-103.63 1229.16,-89.25 1272,-76 1329.81,-58.12 1396.61,-36 1436.24,-22.72"/>
<polygon fill="midnightblue" stroke="midnightblue" points="1437.58,-25.96 1445.95,-19.46 1435.36,-19.33 1437.58,-25.96"/>
</g>
<!-- Node23&#45;&gt;Node15 -->
<g id="edge47" class="edge">
<title>Node23&#45;&gt;Node15</title>
<path fill="none" stroke="midnightblue" d="M1101.02,-112.47C1083.88,-103.72 1056.75,-89.53 1034,-76 1006.26,-59.51 975.32,-38.8 955.53,-25.25"/>
<polygon fill="midnightblue" stroke="midnightblue" points="957.5,-22.36 947.28,-19.57 953.53,-28.12 957.5,-22.36"/>
</g>
<!-- Node23&#45;&gt;Node16 -->
<g id="edge44" class="edge">
<title>Node23&#45;&gt;Node16</title>
<path fill="none" stroke="midnightblue" d="M1089.64,-112.44C1059.26,-103.28 1010.89,-88.69 977.18,-78.52"/>
<polygon fill="midnightblue" stroke="midnightblue" points="977.82,-75.05 967.23,-75.52 975.79,-81.76 977.82,-75.05"/>
</g>
<!-- Node24 -->
<g id="node24" class="node">
<title>Node24</title>
<g id="a_node24"><a xlink:title=" ">
<polygon fill="none" stroke="#bfbfbf" points="1225,-56.5 1225,-75.5 1263,-75.5 1263,-56.5 1225,-56.5"/>
<text text-anchor="middle" x="1244" y="-63.5" font-family="Helvetica,sans-Serif" font-size="10.00">map</text>
</a>
</g>
</g>
<!-- Node23&#45;&gt;Node24 -->
<g id="edge46" class="edge">
<title>Node23&#45;&gt;Node24</title>
<path fill="none" stroke="midnightblue" d="M1137.97,-112.44C1158.85,-103.49 1191.83,-89.36 1215.46,-79.23"/>
<polygon fill="midnightblue" stroke="midnightblue" points="1217.14,-82.32 1224.95,-75.16 1214.38,-75.89 1217.14,-82.32"/>
</g>
<!-- Node27&#45;&gt;Node2 -->
<g id="edge57" class="edge">
<title>Node27&#45;&gt;Node2</title>
<path fill="none" stroke="midnightblue" d="M202.03,-168.49C215.71,-160.55 235.16,-147.61 248,-132 274,-100.38 290.8,-54.71 298.7,-29.49"/>
<polygon fill="midnightblue" stroke="midnightblue" points="302.11,-30.33 301.63,-19.74 295.4,-28.32 302.11,-30.33"/>
</g>
<!-- Node28 -->
<g id="node28" class="node">
<title>Node28</title>
<g id="a_node28"><a xlink:href="../../d7/d05/_rawspeed_exception_8h.html" target="_top" xlink:title=" ">
<polygon fill="none" stroke="black" points="69,-112.5 69,-131.5 239,-131.5 239,-112.5 69,-112.5"/>
<text text-anchor="middle" x="154" y="-119.5" font-family="Helvetica,sans-Serif" font-size="10.00">common/RawspeedException.h</text>
</a>
</g>
</g>
<!-- Node27&#45;&gt;Node28 -->
<g id="edge58" class="edge">
<title>Node27&#45;&gt;Node28</title>
<path fill="none" stroke="midnightblue" d="M180.72,-168.08C176.29,-160.61 169.84,-149.72 164.38,-140.52"/>
<polygon fill="midnightblue" stroke="midnightblue" points="167.29,-138.57 159.19,-131.75 161.27,-142.14 167.29,-138.57"/>
</g>
<!-- Node28&#45;&gt;Node2 -->
<g id="edge59" class="edge">
<title>Node28&#45;&gt;Node2</title>
<path fill="none" stroke="midnightblue" d="M165.77,-112.37C191.4,-93.57 252.5,-48.77 284.18,-25.53"/>
<polygon fill="midnightblue" stroke="midnightblue" points="286.29,-28.33 292.28,-19.59 282.15,-22.68 286.29,-28.33"/>
</g>
<!-- Node28&#45;&gt;Node8 -->
<g id="edge61" class="edge">
<title>Node28&#45;&gt;Node8</title>
<path fill="none" stroke="midnightblue" d="M239.08,-119.08C451.74,-114.07 1023.6,-99.38 1500,-76 1537.05,-74.18 1579.61,-71.31 1607.77,-69.3"/>
<polygon fill="midnightblue" stroke="midnightblue" points="1608.09,-72.79 1617.82,-68.58 1607.59,-65.81 1608.09,-72.79"/>
</g>
<!-- Node28&#45;&gt;Node10 -->
<g id="edge60" class="edge">
<title>Node28&#45;&gt;Node10</title>
<path fill="none" stroke="midnightblue" d="M239.17,-112.59C347.74,-101.87 533.3,-83.56 632.95,-73.72"/>
<polygon fill="midnightblue" stroke="midnightblue" points="633.3,-77.2 642.91,-72.73 632.61,-70.23 633.3,-77.2"/>
</g>
<!-- Node29 -->
<g id="node29" class="node">
<title>Node29</title>
<g id="a_node29"><a xlink:title=" ">
<polygon fill="none" stroke="#bfbfbf" points="147.5,-56.5 147.5,-75.5 200.5,-75.5 200.5,-56.5 147.5,-56.5"/>
<text text-anchor="middle" x="174" y="-63.5" font-family="Helvetica,sans-Serif" font-size="10.00">cstdarg</text>
</a>
</g>
</g>
<!-- Node28&#45;&gt;Node29 -->
<g id="edge62" class="edge">
<title>Node28&#45;&gt;Node29</title>
<path fill="none" stroke="midnightblue" d="M157.3,-112.08C159.98,-104.85 163.85,-94.41 167.19,-85.4"/>
<polygon fill="midnightblue" stroke="midnightblue" points="170.57,-86.34 170.76,-75.75 164,-83.91 170.57,-86.34"/>
</g>
<!-- Node30 -->
<g id="node30" class="node">
<title>Node30</title>
<g id="a_node30"><a xlink:title=" ">
<polygon fill="none" stroke="#bfbfbf" points="0,-56.5 0,-75.5 46,-75.5 46,-56.5 0,-56.5"/>
<text text-anchor="middle" x="23" y="-63.5" font-family="Helvetica,sans-Serif" font-size="10.00">cstdio</text>
</a>
</g>
</g>
<!-- Node28&#45;&gt;Node30 -->
<g id="edge63" class="edge">
<title>Node28&#45;&gt;Node30</title>
<path fill="none" stroke="midnightblue" d="M133.24,-112.44C111.68,-103.56 77.74,-89.56 53.21,-79.45"/>
<polygon fill="midnightblue" stroke="midnightblue" points="54.24,-76.09 43.66,-75.52 51.57,-82.56 54.24,-76.09"/>
</g>
<!-- Node31 -->
<g id="node31" class="node">
<title>Node31</title>
<g id="a_node31"><a xlink:title=" ">
<polygon fill="none" stroke="#bfbfbf" points="64.5,-56.5 64.5,-75.5 129.5,-75.5 129.5,-56.5 64.5,-56.5"/>
<text text-anchor="middle" x="97" y="-63.5" font-family="Helvetica,sans-Serif" font-size="10.00">stdexcept</text>
</a>
</g>
</g>
<!-- Node28&#45;&gt;Node31 -->
<g id="edge64" class="edge">
<title>Node28&#45;&gt;Node31</title>
<path fill="none" stroke="midnightblue" d="M144.84,-112.32C136.5,-104.42 123.97,-92.55 113.82,-82.94"/>
<polygon fill="midnightblue" stroke="midnightblue" points="115.99,-80.17 106.32,-75.83 111.18,-85.25 115.99,-80.17"/>
</g>
</g>
</svg>
