<?xml version="1.0" encoding="UTF-8" standalone="no"?>
<!DOCTYPE svg PUBLIC "-//W3C//DTD SVG 1.1//EN"
 "http://www.w3.org/Graphics/SVG/1.1/DTD/svg11.dtd">
<!-- Generated by graphviz version 2.43.0 (0)
 -->
<!-- Title: rawspeed::RawParser Pages: 1 -->
<svg width="390pt" height="84pt"
 viewBox="0.00 0.00 390.00 84.00" xmlns="http://www.w3.org/2000/svg" xmlns:xlink="http://www.w3.org/1999/xlink">
<g id="graph0" class="graph" transform="scale(1 1) rotate(0) translate(4 80)">
<title>rawspeed::RawParser</title>
<!-- Node1 -->
<g id="node1" class="node">
<title>Node1</title>
<g id="a_node1"><a xlink:title=" ">
<polygon fill="#bfbfbf" stroke="black" points="130.5,-56.5 130.5,-75.5 251.5,-75.5 251.5,-56.5 130.5,-56.5"/>
<text text-anchor="middle" x="191" y="-63.5" font-family="Helvetica,sans-Serif" font-size="10.00">rawspeed::RawParser</text>
</a>
</g>
</g>
<!-- Node2 -->
<g id="node2" class="node">
<title>Node2</title>
<g id="a_node2"><a xlink:href="../../d5/d30/classrawspeed_1_1_ciff_parser.html" target="_top" xlink:title=" ">
<polygon fill="none" stroke="black" points="0,-0.5 0,-19.5 116,-19.5 116,-0.5 0,-0.5"/>
<text text-anchor="middle" x="58" y="-7.5" font-family="Helvetica,sans-Serif" font-size="10.00">rawspeed::CiffParser</text>
</a>
</g>
</g>
<!-- Node1&#45;&gt;Node2 -->
<g id="edge1" class="edge">
<title>Node1&#45;&gt;Node2</title>
<path fill="none" stroke="midnightblue" d="M160.55,-52.64C135.59,-42.5 100.92,-28.43 78.98,-19.52"/>
<polygon fill="midnightblue" stroke="midnightblue" points="159.34,-55.92 169.93,-56.44 161.98,-49.44 159.34,-55.92"/>
</g>
<!-- Node3 -->
<g id="node3" class="node">
<title>Node3</title>
<g id="a_node3"><a xlink:href="../../d2/d1c/classrawspeed_1_1_fiff_parser.html" target="_top" xlink:title=" ">
<polygon fill="none" stroke="black" points="134,-0.5 134,-19.5 248,-19.5 248,-0.5 134,-0.5"/>
<text text-anchor="middle" x="191" y="-7.5" font-family="Helvetica,sans-Serif" font-size="10.00">rawspeed::FiffParser</text>
</a>
</g>
</g>
<!-- Node1&#45;&gt;Node3 -->
<g id="edge2" class="edge">
<title>Node1&#45;&gt;Node3</title>
<path fill="none" stroke="midnightblue" d="M191,-45.8C191,-36.91 191,-26.78 191,-19.75"/>
<polygon fill="midnightblue" stroke="midnightblue" points="187.5,-46.08 191,-56.08 194.5,-46.08 187.5,-46.08"/>
</g>
<!-- Node4 -->
<g id="node4" class="node">
<title>Node4</title>
<g id="a_node4"><a xlink:href="../../d6/d19/classrawspeed_1_1_tiff_parser.html" target="_top" xlink:title=" ">
<polygon fill="none" stroke="black" points="266,-0.5 266,-19.5 382,-19.5 382,-0.5 266,-0.5"/>
<text text-anchor="middle" x="324" y="-7.5" font-family="Helvetica,sans-Serif" font-size="10.00">rawspeed::TiffParser</text>
</a>
</g>
</g>
<!-- Node1&#45;&gt;Node4 -->
<g id="edge3" class="edge">
<title>Node1&#45;&gt;Node4</title>
<path fill="none" stroke="midnightblue" d="M221.45,-52.64C246.41,-42.5 281.08,-28.43 303.02,-19.52"/>
<polygon fill="midnightblue" stroke="midnightblue" points="220.02,-49.44 212.07,-56.44 222.66,-55.92 220.02,-49.44"/>
</g>
</g>
</svg>
