<?xml version="1.0" encoding="UTF-8" standalone="no"?>
<!DOCTYPE svg PUBLIC "-//W3C//DTD SVG 1.1//EN"
 "http://www.w3.org/Graphics/SVG/1.1/DTD/svg11.dtd">
<!-- Generated by graphviz version 2.43.0 (0)
 -->
<!-- Title: rawspeed::ChecksumFileEntry Pages: 1 -->
<svg width="171pt" height="174pt"
 viewBox="0.00 0.00 171.00 174.00" xmlns="http://www.w3.org/2000/svg" xmlns:xlink="http://www.w3.org/1999/xlink">
<g id="graph0" class="graph" transform="scale(1 1) rotate(0) translate(4 170)">
<title>rawspeed::ChecksumFileEntry</title>
<!-- Node1 -->
<g id="node1" class="node">
<title>Node1</title>
<g id="a_node1"><a xlink:title=" ">
<polygon fill="#bfbfbf" stroke="black" points="0,-0.5 0,-19.5 163,-19.5 163,-0.5 0,-0.5"/>
<text text-anchor="middle" x="81.5" y="-7.5" font-family="Helvetica,sans-Serif" font-size="10.00">rawspeed::ChecksumFileEntry</text>
</a>
</g>
</g>
<!-- Node2 -->
<g id="node2" class="node">
<title>Node2</title>
<g id="a_node2"><a xlink:title="STL class.">
<polygon fill="none" stroke="#bfbfbf" points="49,-78.5 49,-97.5 114,-97.5 114,-78.5 49,-78.5"/>
<text text-anchor="middle" x="81.5" y="-85.5" font-family="Helvetica,sans-Serif" font-size="10.00">std::string</text>
</a>
</g>
</g>
<!-- Node2&#45;&gt;Node1 -->
<g id="edge1" class="edge">
<title>Node2&#45;&gt;Node1</title>
<path fill="none" stroke="#9a32cd" stroke-dasharray="5,2" d="M81.5,-68.22C81.5,-52.7 81.5,-31.36 81.5,-19.62"/>
<polygon fill="#9a32cd" stroke="#9a32cd" points="78,-68.28 81.5,-78.28 85,-68.28 78,-68.28"/>
<text text-anchor="middle" x="113.5" y="-52" font-family="Helvetica,sans-Serif" font-size="10.00"> RelFileName</text>
<text text-anchor="middle" x="113.5" y="-41" font-family="Helvetica,sans-Serif" font-size="10.00">FullFileName</text>
</g>
<!-- Node3 -->
<g id="node3" class="node">
<title>Node3</title>
<g id="a_node3"><a xlink:title="STL class.">
<polygon fill="none" stroke="#bfbfbf" points="29.5,-135.5 29.5,-165.5 133.5,-165.5 133.5,-135.5 29.5,-135.5"/>
<text text-anchor="start" x="37.5" y="-153.5" font-family="Helvetica,sans-Serif" font-size="10.00">std::basic_string&lt;</text>
<text text-anchor="middle" x="81.5" y="-142.5" font-family="Helvetica,sans-Serif" font-size="10.00"> char &gt;</text>
</a>
</g>
</g>
<!-- Node3&#45;&gt;Node2 -->
<g id="edge2" class="edge">
<title>Node3&#45;&gt;Node2</title>
<path fill="none" stroke="midnightblue" d="M81.5,-125.35C81.5,-115.51 81.5,-104.78 81.5,-97.54"/>
<polygon fill="midnightblue" stroke="midnightblue" points="78,-125.47 81.5,-135.47 85,-125.47 78,-125.47"/>
</g>
</g>
</svg>
