<?xml version="1.0" encoding="UTF-8" standalone="no"?>
<!DOCTYPE svg PUBLIC "-//W3C//DTD SVG 1.1//EN"
 "http://www.w3.org/Graphics/SVG/1.1/DTD/svg11.dtd">
<!-- Generated by graphviz version 2.43.0 (0)
 -->
<!-- Title: rawspeed_test::generateCodeSymbolsTest Pages: 1 -->
<svg width="1058pt" height="301pt"
 viewBox="0.00 0.00 1058.00 300.53" xmlns="http://www.w3.org/2000/svg" xmlns:xlink="http://www.w3.org/1999/xlink">
<g id="graph0" class="graph" transform="scale(1 1) rotate(0) translate(4 296.53)">
<title>rawspeed_test::generateCodeSymbolsTest</title>
<!-- Node1 -->
<g id="node1" class="node">
<title>Node1</title>
<g id="a_node1"><a xlink:title=" ">
<polygon fill="#bfbfbf" stroke="black" points="888,-182.53 888,-212.53 1050,-212.53 1050,-182.53 888,-182.53"/>
<text text-anchor="start" x="896" y="-200.53" font-family="Helvetica,sans-Serif" font-size="10.00">rawspeed_test::generateCode</text>
<text text-anchor="middle" x="969" y="-189.53" font-family="Helvetica,sans-Serif" font-size="10.00">SymbolsTest</text>
</a>
</g>
</g>
<!-- Node2 -->
<g id="node2" class="node">
<title>Node2</title>
<g id="a_node2"><a xlink:href="../../d8/d1c/classrawspeed_1_1_abstract_huffman_table.html" target="_top" xlink:title=" ">
<polygon fill="none" stroke="black" points="677.5,-107.53 677.5,-137.53 829.5,-137.53 829.5,-107.53 677.5,-107.53"/>
<text text-anchor="start" x="685.5" y="-125.53" font-family="Helvetica,sans-Serif" font-size="10.00">rawspeed::AbstractHuffman</text>
<text text-anchor="middle" x="753.5" y="-114.53" font-family="Helvetica,sans-Serif" font-size="10.00">Table</text>
</a>
</g>
</g>
<!-- Node2&#45;&gt;Node1 -->
<g id="edge1" class="edge">
<title>Node2&#45;&gt;Node1</title>
<path fill="none" stroke="darkgreen" d="M828.08,-140.37C835.87,-142.62 843.63,-145.02 851,-147.53 880.48,-157.59 912.98,-171.74 936.23,-182.42"/>
<polygon fill="darkgreen" stroke="darkgreen" points="828.81,-136.93 818.23,-137.6 826.91,-143.67 828.81,-136.93"/>
</g>
<!-- Node3 -->
<g id="node3" class="node">
<title>Node3</title>
<g id="a_node3"><a xlink:title=" ">
<polygon fill="none" stroke="#bfbfbf" points="428,-156.03 428,-175.03 474,-175.03 474,-156.03 428,-156.03"/>
<text text-anchor="middle" x="451" y="-163.03" font-family="Helvetica,sans-Serif" font-size="10.00">return</text>
</a>
</g>
</g>
<!-- Node3&#45;&gt;Node2 -->
<g id="edge2" class="edge">
<title>Node3&#45;&gt;Node2</title>
<path fill="none" stroke="#9a32cd" stroke-dasharray="5,2" d="M484.3,-161.73C521.43,-157.26 584.2,-149.47 638,-141.53 650.76,-139.65 664.29,-137.53 677.42,-135.39"/>
<polygon fill="#9a32cd" stroke="#9a32cd" points="483.6,-158.28 474.08,-162.95 484.43,-165.24 483.6,-158.28"/>
<text text-anchor="middle" x="594" y="-155.53" font-family="Helvetica,sans-Serif" font-size="10.00"> ret</text>
</g>
<!-- Node4 -->
<g id="node4" class="node">
<title>Node4</title>
<g id="a_node4"><a xlink:title=" ">
<polygon fill="none" stroke="#bfbfbf" points="388.5,-194.03 388.5,-213.03 513.5,-213.03 513.5,-194.03 388.5,-194.03"/>
<text text-anchor="middle" x="451" y="-201.03" font-family="Helvetica,sans-Serif" font-size="10.00">std::vector&lt; uint8_t &gt;</text>
</a>
</g>
</g>
<!-- Node4&#45;&gt;Node1 -->
<g id="edge14" class="edge">
<title>Node4&#45;&gt;Node1</title>
<path fill="none" stroke="#9a32cd" stroke-dasharray="5,2" d="M523.91,-208.44C532.7,-208.89 541.55,-209.28 550,-209.53 667.56,-213.13 803.72,-207.37 887.86,-202.65"/>
<polygon fill="#9a32cd" stroke="#9a32cd" points="523.84,-204.93 513.66,-207.89 523.46,-211.92 523.84,-204.93"/>
<text text-anchor="middle" x="753.5" y="-212.53" font-family="Helvetica,sans-Serif" font-size="10.00"> ncpl</text>
</g>
<!-- Node4&#45;&gt;Node2 -->
<g id="edge3" class="edge">
<title>Node4&#45;&gt;Node2</title>
<path fill="none" stroke="#9a32cd" stroke-dasharray="5,2" d="M523.62,-200.41C559.83,-196.25 603.32,-187.14 638,-167.53 648.41,-161.65 645.78,-153.74 656,-147.53 662.66,-143.49 669.95,-140.1 677.46,-137.25"/>
<polygon fill="#9a32cd" stroke="#9a32cd" points="523.19,-196.94 513.61,-201.46 523.92,-203.9 523.19,-196.94"/>
<text text-anchor="middle" x="594" y="-198.53" font-family="Helvetica,sans-Serif" font-size="10.00"> codeValues</text>
</g>
<!-- Node5 -->
<g id="node5" class="node">
<title>Node5</title>
<g id="a_node5"><a xlink:title=" ">
<polygon fill="none" stroke="#bfbfbf" points="137.5,-126.03 137.5,-145.03 187.5,-145.03 187.5,-126.03 137.5,-126.03"/>
<text text-anchor="middle" x="162.5" y="-133.03" font-family="Helvetica,sans-Serif" font-size="10.00">uint8_t</text>
</a>
</g>
</g>
<!-- Node5&#45;&gt;Node4 -->
<g id="edge4" class="edge">
<title>Node5&#45;&gt;Node4</title>
<path fill="none" stroke="#9a32cd" stroke-dasharray="5,2" d="M197.51,-125.04C238.14,-114.73 306.33,-104.71 352,-136.53 370.69,-149.56 352.91,-169.47 370,-184.53 375.35,-189.25 381.67,-192.86 388.36,-195.6"/>
<polygon fill="#9a32cd" stroke="#9a32cd" points="196.56,-121.67 187.81,-127.65 198.37,-128.44 196.56,-121.67"/>
<text text-anchor="middle" x="290.5" y="-139.53" font-family="Helvetica,sans-Serif" font-size="10.00"> elements</text>
</g>
<!-- Node6 -->
<g id="node6" class="node">
<title>Node6</title>
<g id="a_node6"><a xlink:title="STL class.">
<polygon fill="none" stroke="#bfbfbf" points="114,-194.03 114,-213.03 211,-213.03 211,-194.03 114,-194.03"/>
<text text-anchor="middle" x="162.5" y="-201.03" font-family="Helvetica,sans-Serif" font-size="10.00">std::vector&lt; T &gt;</text>
</a>
</g>
</g>
<!-- Node6&#45;&gt;Node4 -->
<g id="edge5" class="edge">
<title>Node6&#45;&gt;Node4</title>
<path fill="none" stroke="orange" stroke-dasharray="5,2" d="M221.16,-203.53C269.69,-203.53 338.91,-203.53 388.5,-203.53"/>
<polygon fill="orange" stroke="orange" points="221.13,-200.03 211.13,-203.53 221.13,-207.03 221.13,-200.03"/>
<text text-anchor="middle" x="290.5" y="-206.53" font-family="Helvetica,sans-Serif" font-size="10.00"> &lt; uint8_t &gt;</text>
</g>
<!-- Node10 -->
<g id="node10" class="node">
<title>Node10</title>
<g id="a_node10"><a xlink:title=" ">
<polygon fill="none" stroke="#bfbfbf" points="389,-68.53 389,-98.53 513,-98.53 513,-68.53 389,-68.53"/>
<text text-anchor="start" x="397" y="-86.53" font-family="Helvetica,sans-Serif" font-size="10.00">std::vector&lt; unsigned</text>
<text text-anchor="middle" x="451" y="-75.53" font-family="Helvetica,sans-Serif" font-size="10.00"> int &gt;</text>
</a>
</g>
</g>
<!-- Node6&#45;&gt;Node10 -->
<g id="edge11" class="edge">
<title>Node6&#45;&gt;Node10</title>
<path fill="none" stroke="orange" stroke-dasharray="5,2" d="M211.45,-191.49C263.65,-178.03 341.18,-156.9 352,-147.53 366.43,-135.04 355.66,-121.13 370,-108.53 375.58,-103.64 382.11,-99.7 388.99,-96.53"/>
<polygon fill="orange" stroke="orange" points="210.52,-188.11 201.7,-193.99 212.26,-194.89 210.52,-188.11"/>
<text text-anchor="middle" x="290.5" y="-189.53" font-family="Helvetica,sans-Serif" font-size="10.00"> &lt; unsigned int &gt;</text>
</g>
<!-- Node13 -->
<g id="node13" class="node">
<title>Node13</title>
<g id="a_node13"><a xlink:title=" ">
<polygon fill="none" stroke="#bfbfbf" points="370,-255.53 370,-285.53 532,-285.53 532,-255.53 370,-255.53"/>
<text text-anchor="start" x="378" y="-273.53" font-family="Helvetica,sans-Serif" font-size="10.00">std::vector&lt; AbstractHuffman</text>
<text text-anchor="middle" x="451" y="-262.53" font-family="Helvetica,sans-Serif" font-size="10.00">Table::CodeSymbol &gt;</text>
</a>
</g>
</g>
<!-- Node6&#45;&gt;Node13 -->
<g id="edge17" class="edge">
<title>Node6&#45;&gt;Node13</title>
<path fill="none" stroke="orange" stroke-dasharray="5,2" d="M214.06,-215.36C261.85,-226.53 333.76,-243.35 385.62,-255.48"/>
<polygon fill="orange" stroke="orange" points="214.78,-211.93 204.24,-213.06 213.18,-218.75 214.78,-211.93"/>
<text text-anchor="start" x="229" y="-260.53" font-family="Helvetica,sans-Serif" font-size="10.00"> &lt; AbstractHuffmanTable</text>
<text text-anchor="middle" x="290.5" y="-249.53" font-family="Helvetica,sans-Serif" font-size="10.00">::CodeSymbol &gt;</text>
</g>
<!-- Node7 -->
<g id="node7" class="node">
<title>Node7</title>
<g id="a_node7"><a xlink:title=" ">
<polygon fill="none" stroke="#bfbfbf" points="0,-194.03 0,-213.03 29,-213.03 29,-194.03 0,-194.03"/>
<text text-anchor="middle" x="14.5" y="-201.03" font-family="Helvetica,sans-Serif" font-size="10.00">T</text>
</a>
</g>
</g>
<!-- Node7&#45;&gt;Node6 -->
<g id="edge6" class="edge">
<title>Node7&#45;&gt;Node6</title>
<path fill="none" stroke="#9a32cd" stroke-dasharray="5,2" d="M39.39,-203.53C59.54,-203.53 89.02,-203.53 113.96,-203.53"/>
<polygon fill="#9a32cd" stroke="#9a32cd" points="39.24,-200.03 29.24,-203.53 39.24,-207.03 39.24,-200.03"/>
<text text-anchor="middle" x="71.5" y="-206.53" font-family="Helvetica,sans-Serif" font-size="10.00"> elements</text>
</g>
<!-- Node8 -->
<g id="node8" class="node">
<title>Node8</title>
<g id="a_node8"><a xlink:title=" ">
<polygon fill="none" stroke="#bfbfbf" points="148,-20.03 148,-39.03 177,-39.03 177,-20.03 148,-20.03"/>
<text text-anchor="middle" x="162.5" y="-27.03" font-family="Helvetica,sans-Serif" font-size="10.00">int</text>
</a>
</g>
</g>
<!-- Node8&#45;&gt;Node2 -->
<g id="edge7" class="edge">
<title>Node8&#45;&gt;Node2</title>
<path fill="none" stroke="#9a32cd" stroke-dasharray="5,2" d="M187.13,-24.53C245.94,-12.89 403.41,13.37 532,-9.53 613.1,-23.98 696.25,-80.05 733.01,-107.38"/>
<polygon fill="#9a32cd" stroke="#9a32cd" points="186.12,-21.17 177.02,-26.59 187.52,-28.03 186.12,-21.17"/>
<text text-anchor="middle" x="451" y="-12.53" font-family="Helvetica,sans-Serif" font-size="10.00"> len</text>
</g>
<!-- Node8&#45;&gt;Node10 -->
<g id="edge10" class="edge">
<title>Node8&#45;&gt;Node10</title>
<path fill="none" stroke="#9a32cd" stroke-dasharray="5,2" d="M187.32,-34.02C231.16,-42.29 325.9,-60.14 388.8,-72"/>
<polygon fill="#9a32cd" stroke="#9a32cd" points="187.79,-30.55 177.32,-32.14 186.5,-37.43 187.79,-30.55"/>
<text text-anchor="middle" x="290.5" y="-67.53" font-family="Helvetica,sans-Serif" font-size="10.00"> elements</text>
</g>
<!-- Node9 -->
<g id="node9" class="node">
<title>Node9</title>
<g id="a_node9"><a xlink:title=" ">
<polygon fill="none" stroke="#bfbfbf" points="432,-30.03 432,-49.03 470,-49.03 470,-30.03 432,-30.03"/>
<text text-anchor="middle" x="451" y="-37.03" font-family="Helvetica,sans-Serif" font-size="10.00">bool</text>
</a>
</g>
</g>
<!-- Node9&#45;&gt;Node2 -->
<g id="edge8" class="edge">
<title>Node9&#45;&gt;Node2</title>
<path fill="none" stroke="#9a32cd" stroke-dasharray="5,2" d="M480.05,-42.16C516.9,-46.11 583.35,-54.95 638,-71.53 668.4,-80.76 701.37,-96.05 724.09,-107.49"/>
<polygon fill="#9a32cd" stroke="#9a32cd" points="480.34,-38.68 470.04,-41.13 479.63,-45.64 480.34,-38.68"/>
<text text-anchor="middle" x="594" y="-85.53" font-family="Helvetica,sans-Serif" font-size="10.00"> fullDecode</text>
<text text-anchor="middle" x="594" y="-74.53" font-family="Helvetica,sans-Serif" font-size="10.00">fixDNGBug16</text>
</g>
<!-- Node10&#45;&gt;Node2 -->
<g id="edge9" class="edge">
<title>Node10&#45;&gt;Node2</title>
<path fill="none" stroke="#9a32cd" stroke-dasharray="5,2" d="M523.15,-92.77C569.57,-98.79 630.08,-106.65 677.29,-112.77"/>
<polygon fill="#9a32cd" stroke="#9a32cd" points="523.54,-89.29 513.17,-91.47 522.64,-96.23 523.54,-89.29"/>
<text text-anchor="middle" x="594" y="-109.53" font-family="Helvetica,sans-Serif" font-size="10.00"> nCodesPerLength</text>
</g>
<!-- Node11 -->
<g id="node11" class="node">
<title>Node11</title>
<g id="a_node11"><a xlink:title=" ">
<polygon fill="none" stroke="#bfbfbf" points="432,-118.03 432,-137.03 470,-137.03 470,-118.03 432,-118.03"/>
<text text-anchor="middle" x="451" y="-125.03" font-family="Helvetica,sans-Serif" font-size="10.00">auto</text>
</a>
</g>
</g>
<!-- Node11&#45;&gt;Node2 -->
<g id="edge12" class="edge">
<title>Node11&#45;&gt;Node2</title>
<path fill="none" stroke="#9a32cd" stroke-dasharray="5,2" d="M480.5,-127.06C525.28,-126.32 613.61,-124.85 677.49,-123.78"/>
<polygon fill="#9a32cd" stroke="#9a32cd" points="480.29,-123.56 470.35,-127.23 480.4,-130.56 480.29,-123.56"/>
<text text-anchor="middle" x="594" y="-129.53" font-family="Helvetica,sans-Serif" font-size="10.00"> ret</text>
</g>
<!-- Node12 -->
<g id="node12" class="node">
<title>Node12</title>
<g id="a_node12"><a xlink:title=" ">
<polygon fill="none" stroke="#bfbfbf" points="656,-156.53 656,-186.53 851,-186.53 851,-156.53 656,-156.53"/>
<text text-anchor="start" x="664" y="-174.53" font-family="Helvetica,sans-Serif" font-size="10.00">testing::TestWithParam</text>
<text text-anchor="middle" x="753.5" y="-163.53" font-family="Helvetica,sans-Serif" font-size="10.00">&lt; generateCodeSymbolsDataType &gt;</text>
</a>
</g>
</g>
<!-- Node12&#45;&gt;Node1 -->
<g id="edge13" class="edge">
<title>Node12&#45;&gt;Node1</title>
<path fill="none" stroke="midnightblue" d="M861.33,-184.54C870.26,-185.63 879.19,-186.72 887.87,-187.78"/>
<polygon fill="midnightblue" stroke="midnightblue" points="861.61,-181.05 851.26,-183.32 860.76,-188 861.61,-181.05"/>
</g>
<!-- Node13&#45;&gt;Node1 -->
<g id="edge15" class="edge">
<title>Node13&#45;&gt;Node1</title>
<path fill="none" stroke="#9a32cd" stroke-dasharray="5,2" d="M542.42,-263.02C623.56,-255.59 745.73,-242.69 851,-224.53 869.9,-221.27 890.33,-216.87 908.74,-212.57"/>
<polygon fill="#9a32cd" stroke="#9a32cd" points="541.89,-259.56 532.24,-263.95 542.52,-266.53 541.89,-259.56"/>
<text text-anchor="middle" x="753.5" y="-253.53" font-family="Helvetica,sans-Serif" font-size="10.00"> expectedSymbols</text>
</g>
<!-- Node14 -->
<g id="node14" class="node">
<title>Node14</title>
<g id="a_node14"><a xlink:title=" ">
<polygon fill="none" stroke="#bfbfbf" points="123.5,-273.03 123.5,-292.03 201.5,-292.03 201.5,-273.03 123.5,-273.03"/>
<text text-anchor="middle" x="162.5" y="-280.03" font-family="Helvetica,sans-Serif" font-size="10.00">CodeSymbol</text>
</a>
</g>
</g>
<!-- Node14&#45;&gt;Node13 -->
<g id="edge16" class="edge">
<title>Node14&#45;&gt;Node13</title>
<path fill="none" stroke="#9a32cd" stroke-dasharray="5,2" d="M211.77,-280.51C254.89,-278.71 318.92,-276.02 369.74,-273.9"/>
<polygon fill="#9a32cd" stroke="#9a32cd" points="211.39,-277.03 201.54,-280.94 211.68,-284.02 211.39,-277.03"/>
<text text-anchor="middle" x="290.5" y="-282.53" font-family="Helvetica,sans-Serif" font-size="10.00"> elements</text>
</g>
</g>
</svg>
