<?xml version="1.0" encoding="UTF-8" standalone="no"?>
<!DOCTYPE svg PUBLIC "-//W3C//DTD SVG 1.1//EN"
 "http://www.w3.org/Graphics/SVG/1.1/DTD/svg11.dtd">
<!-- Generated by graphviz version 2.43.0 (0)
 -->
<!-- Title: rawspeed::operator&amp; Pages: 1 -->
<svg width="667pt" height="71pt"
 viewBox="0.00 0.00 667.00 70.50" xmlns="http://www.w3.org/2000/svg" xmlns:xlink="http://www.w3.org/1999/xlink">
<g id="graph0" class="graph" transform="scale(1 1) rotate(0) translate(4 66.5)">
<title>rawspeed::operator&amp;</title>
<!-- Node1 -->
<g id="node1" class="node">
<title>Node1</title>
<g id="a_node1"><a xlink:title=" ">
<polygon fill="#bfbfbf" stroke="black" points="540,-19.5 540,-38.5 659,-38.5 659,-19.5 540,-19.5"/>
<text text-anchor="middle" x="599.5" y="-26.5" font-family="Helvetica,sans-Serif" font-size="10.00">rawspeed::operator&amp;</text>
</a>
</g>
</g>
<!-- Node1&#45;&gt;Node1 -->
<g id="edge7" class="edge">
<title>Node1&#45;&gt;Node1</title>
<path fill="none" stroke="midnightblue" d="M627.5,-47.65C626.33,-52.94 617,-57 599.5,-57 572.84,-57 565.13,-47.57 576.38,-38.76"/>
<polygon fill="midnightblue" stroke="midnightblue" points="630.5,-45.84 622.62,-38.76 624.36,-49.21 630.5,-45.84"/>
</g>
<!-- Node2 -->
<g id="node2" class="node">
<title>Node2</title>
<g id="a_node2"><a xlink:href="../../de/dc3/namespacerawspeed.html#a92d56953e78eab28b3a63fd05c60e03f" target="_top" xlink:title=" ">
<polygon fill="none" stroke="black" points="409,-38.5 409,-57.5 487,-57.5 487,-38.5 409,-38.5"/>
<text text-anchor="middle" x="448" y="-45.5" font-family="Helvetica,sans-Serif" font-size="10.00">rawspeed::is</text>
</a>
</g>
</g>
<!-- Node1&#45;&gt;Node2 -->
<g id="edge1" class="edge">
<title>Node1&#45;&gt;Node2</title>
<path fill="none" stroke="midnightblue" d="M529.8,-37.73C515.18,-39.59 500.25,-41.49 487.26,-43.14"/>
<polygon fill="midnightblue" stroke="midnightblue" points="530.36,-41.19 539.84,-36.45 529.48,-34.24 530.36,-41.19"/>
</g>
<!-- Node5 -->
<g id="node5" class="node">
<title>Node5</title>
<g id="a_node5"><a xlink:href="../../de/dc3/namespacerawspeed.html#a0e57e0bd6090152cb8bf4026310a9f1b" target="_top" xlink:title=" ">
<polygon fill="none" stroke="black" points="392,-0.5 392,-19.5 504,-19.5 504,-0.5 392,-0.5"/>
<text text-anchor="middle" x="448" y="-7.5" font-family="Helvetica,sans-Serif" font-size="10.00">rawspeed::matches</text>
</a>
</g>
</g>
<!-- Node1&#45;&gt;Node5 -->
<g id="edge5" class="edge">
<title>Node1&#45;&gt;Node5</title>
<path fill="none" stroke="midnightblue" d="M529.8,-20.27C521.18,-19.17 512.45,-18.06 504.07,-17"/>
<polygon fill="midnightblue" stroke="midnightblue" points="529.48,-23.76 539.84,-21.55 530.36,-16.81 529.48,-23.76"/>
</g>
<!-- Node3 -->
<g id="node3" class="node">
<title>Node3</title>
<g id="a_node3"><a xlink:href="../../df/d0d/classrawspeed_1_1_v_c5_decompressor.html#a91a111ee1893918e91971f62de1add07" target="_top" xlink:title=" ">
<polygon fill="none" stroke="black" points="196,-14 196,-44 356,-44 356,-14 196,-14"/>
<text text-anchor="start" x="204" y="-32" font-family="Helvetica,sans-Serif" font-size="10.00">rawspeed::VC5Decompressor</text>
<text text-anchor="middle" x="276" y="-21" font-family="Helvetica,sans-Serif" font-size="10.00">::parseVC5</text>
</a>
</g>
</g>
<!-- Node2&#45;&gt;Node3 -->
<g id="edge2" class="edge">
<title>Node2&#45;&gt;Node3</title>
<path fill="none" stroke="midnightblue" d="M398.56,-42.59C385.29,-41.1 370.56,-39.46 356.06,-37.84"/>
<polygon fill="midnightblue" stroke="midnightblue" points="398.52,-46.1 408.85,-43.74 399.3,-39.15 398.52,-46.1"/>
</g>
<!-- Node4 -->
<g id="node4" class="node">
<title>Node4</title>
<g id="a_node4"><a xlink:href="../../df/d0d/classrawspeed_1_1_v_c5_decompressor.html#ae7a64bf4883caa4f86d4f166e0de999d" target="_top" xlink:title=" ">
<polygon fill="none" stroke="black" points="0,-14 0,-44 160,-44 160,-14 0,-14"/>
<text text-anchor="start" x="8" y="-32" font-family="Helvetica,sans-Serif" font-size="10.00">rawspeed::VC5Decompressor</text>
<text text-anchor="middle" x="80" y="-21" font-family="Helvetica,sans-Serif" font-size="10.00">::VC5Decompressor</text>
</a>
</g>
</g>
<!-- Node3&#45;&gt;Node4 -->
<g id="edge3" class="edge">
<title>Node3&#45;&gt;Node4</title>
<path fill="none" stroke="midnightblue" d="M185.56,-29C177.12,-29 168.59,-29 160.25,-29"/>
<polygon fill="midnightblue" stroke="midnightblue" points="185.81,-32.5 195.81,-29 185.81,-25.5 185.81,-32.5"/>
</g>
<!-- Node4&#45;&gt;Node4 -->
<g id="edge4" class="edge">
<title>Node4&#45;&gt;Node4</title>
<path fill="none" stroke="midnightblue" d="M114.83,-54.46C110.5,-59.18 98.9,-62.5 80,-62.5 48.99,-62.5 37.61,-53.56 45.84,-44.16"/>
<polygon fill="midnightblue" stroke="midnightblue" points="118.3,-53.91 114.16,-44.16 111.31,-54.37 118.3,-53.91"/>
</g>
<!-- Node5&#45;&gt;Node3 -->
<g id="edge6" class="edge">
<title>Node5&#45;&gt;Node3</title>
<path fill="none" stroke="midnightblue" d="M381.79,-17.29C373.45,-18.22 364.84,-19.18 356.31,-20.14"/>
<polygon fill="midnightblue" stroke="midnightblue" points="382.26,-20.76 391.81,-16.17 381.48,-13.8 382.26,-20.76"/>
</g>
</g>
</svg>
