<?xml version="1.0" encoding="UTF-8" standalone="no"?>
<!DOCTYPE svg PUBLIC "-//W3C//DTD SVG 1.1//EN"
 "http://www.w3.org/Graphics/SVG/1.1/DTD/svg11.dtd">
<!-- Generated by graphviz version 2.43.0 (0)
 -->
<!-- Title: rawspeed::operator&#45; Pages: 1 -->
<svg width="514pt" height="57pt"
 viewBox="0.00 0.00 514.00 57.00" xmlns="http://www.w3.org/2000/svg" xmlns:xlink="http://www.w3.org/1999/xlink">
<g id="graph0" class="graph" transform="scale(1 1) rotate(0) translate(4 53)">
<title>rawspeed::operator&#45;</title>
<!-- Node1 -->
<g id="node1" class="node">
<title>Node1</title>
<g id="a_node1"><a xlink:title=" ">
<polygon fill="#bfbfbf" stroke="black" points="392,-6 392,-25 506,-25 506,-6 392,-6"/>
<text text-anchor="middle" x="449" y="-13" font-family="Helvetica,sans-Serif" font-size="10.00">rawspeed::operator&#45;</text>
</a>
</g>
</g>
<!-- Node1&#45;&gt;Node1 -->
<g id="edge1" class="edge">
<title>Node1&#45;&gt;Node1</title>
<path fill="none" stroke="midnightblue" d="M481.19,-33.77C480.27,-39.24 469.54,-43.5 449,-43.5 418.43,-43.5 409.59,-34.07 422.49,-25.26"/>
<polygon fill="midnightblue" stroke="midnightblue" points="483.97,-31.64 475.51,-25.26 478.14,-35.52 483.97,-31.64"/>
</g>
<!-- Node2 -->
<g id="node2" class="node">
<title>Node2</title>
<g id="a_node2"><a xlink:href="../../df/d0d/classrawspeed_1_1_v_c5_decompressor.html#a91a111ee1893918e91971f62de1add07" target="_top" xlink:title=" ">
<polygon fill="none" stroke="black" points="196,-0.5 196,-30.5 356,-30.5 356,-0.5 196,-0.5"/>
<text text-anchor="start" x="204" y="-18.5" font-family="Helvetica,sans-Serif" font-size="10.00">rawspeed::VC5Decompressor</text>
<text text-anchor="middle" x="276" y="-7.5" font-family="Helvetica,sans-Serif" font-size="10.00">::parseVC5</text>
</a>
</g>
</g>
<!-- Node1&#45;&gt;Node2 -->
<g id="edge2" class="edge">
<title>Node1&#45;&gt;Node2</title>
<path fill="none" stroke="midnightblue" d="M381.49,-15.5C373.14,-15.5 364.53,-15.5 356,-15.5"/>
<polygon fill="midnightblue" stroke="midnightblue" points="381.53,-19 391.53,-15.5 381.53,-12 381.53,-19"/>
</g>
<!-- Node3 -->
<g id="node3" class="node">
<title>Node3</title>
<g id="a_node3"><a xlink:href="../../df/d0d/classrawspeed_1_1_v_c5_decompressor.html#ae7a64bf4883caa4f86d4f166e0de999d" target="_top" xlink:title=" ">
<polygon fill="none" stroke="black" points="0,-0.5 0,-30.5 160,-30.5 160,-0.5 0,-0.5"/>
<text text-anchor="start" x="8" y="-18.5" font-family="Helvetica,sans-Serif" font-size="10.00">rawspeed::VC5Decompressor</text>
<text text-anchor="middle" x="80" y="-7.5" font-family="Helvetica,sans-Serif" font-size="10.00">::VC5Decompressor</text>
</a>
</g>
</g>
<!-- Node2&#45;&gt;Node3 -->
<g id="edge3" class="edge">
<title>Node2&#45;&gt;Node3</title>
<path fill="none" stroke="midnightblue" d="M185.56,-15.5C177.12,-15.5 168.59,-15.5 160.25,-15.5"/>
<polygon fill="midnightblue" stroke="midnightblue" points="185.81,-19 195.81,-15.5 185.81,-12 185.81,-19"/>
</g>
<!-- Node3&#45;&gt;Node3 -->
<g id="edge4" class="edge">
<title>Node3&#45;&gt;Node3</title>
<path fill="none" stroke="midnightblue" d="M114.83,-40.96C110.5,-45.68 98.9,-49 80,-49 48.99,-49 37.61,-40.06 45.84,-30.66"/>
<polygon fill="midnightblue" stroke="midnightblue" points="118.3,-40.41 114.16,-30.66 111.31,-40.87 118.3,-40.41"/>
</g>
</g>
</svg>
