<?xml version="1.0" encoding="UTF-8" standalone="no"?>
<!DOCTYPE svg PUBLIC "-//W3C//DTD SVG 1.1//EN"
 "http://www.w3.org/Graphics/SVG/1.1/DTD/svg11.dtd">
<!-- Generated by graphviz version 2.43.0 (0)
 -->
<!-- Title: rawspeed::writeLog Pages: 1 -->
<!--zoomable 323 -->
<svg id="main" version="1.1" xmlns="http://www.w3.org/2000/svg" xmlns:xlink="http://www.w3.org/1999/xlink" xml:space="preserve" onload="init(evt)">
<style type="text/css"><![CDATA[
.edge:hover path { stroke: red; }
.edge:hover polygon { stroke: red; fill: red; }
]]></style>
<script type="text/javascript"><![CDATA[
var edges = document.getElementsByTagName('g');
if (edges && edges.length) {
  for (var i=0;i<edges.length;i++) {
    if (edges[i].id.substr(0,4)=='edge') {
      edges[i].setAttribute('class','edge');
    }
  }
}
]]></script>
        <defs>
                <circle id="rim" cx="0" cy="0" r="7"/>
                <circle id="rim2" cx="0" cy="0" r="3.5"/>
                <g id="zoomPlus">
                        <use xlink:href="#rim" fill="#404040">
                                <set attributeName="fill" to="#808080" begin="zoomplus.mouseover" end="zoomplus.mouseout"/>
                        </use>
                        <path d="M-4,0h8M0,-4v8" fill="none" stroke="white" stroke-width="1.5" pointer-events="none"/>
                </g>
                <g id="zoomMin">
                        <use xlink:href="#rim" fill="#404040">
                                <set attributeName="fill" to="#808080" begin="zoomminus.mouseover" end="zoomminus.mouseout"/>
                        </use>
                        <path d="M-4,0h8" fill="none" stroke="white" stroke-width="1.5" pointer-events="none"/>
                </g>
                <g id="dirArrow">
                        <path fill="none" stroke="white" stroke-width="1.5" d="M0,-3.0v7 M-2.5,-0.5L0,-3.0L2.5,-0.5"/>
                </g>
               <g id="resetDef">
                       <use xlink:href="#rim2" fill="#404040">
                               <set attributeName="fill" to="#808080" begin="reset.mouseover" end="reset.mouseout"/>
                       </use>
               </g>
        </defs>

<script type="text/javascript">
var viewWidth = 945;
var viewHeight = 323;
var sectionId = 'dynsection-27';
</script>
<script xlink:href="../../svgpan.js"/>
<svg id="graph" class="graph">
<g id="viewport">
<title>rawspeed::writeLog</title>
<!-- Node1 -->
<g id="node1" class="node">
<title>Node1</title>
<g id="a_node1"><a xlink:title=" ">
<polygon fill="#bfbfbf" stroke="black" points="825,-153 825,-172 937,-172 937,-153 825,-153"/>
<text text-anchor="middle" x="881" y="-160" font-family="Helvetica,sans-Serif" font-size="10.00">rawspeed::writeLog</text>
</a>
</g>
</g>
<!-- Node2 -->
<g id="node2" class="node">
<title>Node2</title>
<g id="a_node2"><a xlink:href="../../dd/d12/classrawspeed_1_1_raw_image.html#a4a7b73d675f5ac9c8730a9b7f60c3d82" target="_top" xlink:title=" ">
<polygon fill="none" stroke="black" points="633.5,-284.5 633.5,-314.5 755.5,-314.5 755.5,-284.5 633.5,-284.5"/>
<text text-anchor="start" x="641.5" y="-302.5" font-family="Helvetica,sans-Serif" font-size="10.00">rawspeed::RawImage</text>
<text text-anchor="middle" x="694.5" y="-291.5" font-family="Helvetica,sans-Serif" font-size="10.00">::create</text>
</a>
</g>
</g>
<!-- Node1&#45;&gt;Node2 -->
<g id="edge1" class="edge">
<title>Node1&#45;&gt;Node2</title>
<path fill="none" stroke="midnightblue" d="M870.17,-181.06C855.78,-206.36 826.58,-251.3 789,-275.5 779,-281.94 767.35,-286.66 755.74,-290.11"/>
<polygon fill="midnightblue" stroke="midnightblue" points="873.34,-182.56 875.1,-172.11 867.21,-179.18 873.34,-182.56"/>
</g>
<!-- Node5 -->
<g id="node5" class="node">
<title>Node5</title>
<g id="a_node5"><a xlink:href="../../d2/d4f/classrawspeed_1_1_color_filter_array.html#af927e9c1e246ca68a6add8bc1374f127" target="_top" xlink:title=" ">
<polygon fill="none" stroke="black" points="621.5,-235.5 621.5,-265.5 767.5,-265.5 767.5,-235.5 621.5,-235.5"/>
<text text-anchor="start" x="629.5" y="-253.5" font-family="Helvetica,sans-Serif" font-size="10.00">rawspeed::ColorFilterArray</text>
<text text-anchor="middle" x="694.5" y="-242.5" font-family="Helvetica,sans-Serif" font-size="10.00">::getDcrawFilter</text>
</a>
</g>
</g>
<!-- Node1&#45;&gt;Node5 -->
<g id="edge4" class="edge">
<title>Node1&#45;&gt;Node5</title>
<path fill="none" stroke="midnightblue" d="M861.2,-178.43C843.58,-192.62 815.98,-213.02 789,-225.5 780.77,-229.31 771.84,-232.63 762.89,-235.49"/>
<polygon fill="midnightblue" stroke="midnightblue" points="863.49,-181.07 869,-172.02 859.05,-175.66 863.49,-181.07"/>
</g>
<!-- Node6 -->
<g id="node6" class="node">
<title>Node6</title>
<g id="a_node6"><a xlink:href="../../d4/df4/classrawspeed_1_1_rawspeed_exception.html#a686c2ce19bc180a5ea58009048a20db8" target="_top" xlink:title=" ">
<polygon fill="none" stroke="black" points="600,-197 600,-216 789,-216 789,-197 600,-197"/>
<text text-anchor="middle" x="694.5" y="-204" font-family="Helvetica,sans-Serif" font-size="10.00">rawspeed::RawspeedException::log</text>
</a>
</g>
</g>
<!-- Node1&#45;&gt;Node6 -->
<g id="edge5" class="edge">
<title>Node1&#45;&gt;Node6</title>
<path fill="none" stroke="midnightblue" d="M835.61,-174.65C820.82,-178.58 804.24,-182.86 789,-186.5 773.82,-190.12 757.18,-193.78 742.21,-196.96"/>
<polygon fill="midnightblue" stroke="midnightblue" points="836.77,-177.97 845.53,-172 834.96,-171.21 836.77,-177.97"/>
</g>
<!-- Node11 -->
<g id="node11" class="node">
<title>Node11</title>
<g id="a_node11"><a xlink:href="../../df/d02/classrawspeed_1_1_nikon_decompressor.html#aadcbaa5c0d35f98f7b7290fa751aba0d" target="_top" xlink:title=" ">
<polygon fill="none" stroke="black" points="610,-147.5 610,-177.5 779,-177.5 779,-147.5 610,-147.5"/>
<text text-anchor="start" x="618" y="-165.5" font-family="Helvetica,sans-Serif" font-size="10.00">rawspeed::NikonDecompressor</text>
<text text-anchor="middle" x="694.5" y="-154.5" font-family="Helvetica,sans-Serif" font-size="10.00">::NikonDecompressor</text>
</a>
</g>
</g>
<!-- Node1&#45;&gt;Node11 -->
<g id="edge10" class="edge">
<title>Node1&#45;&gt;Node11</title>
<path fill="none" stroke="midnightblue" d="M814.36,-162.5C802.95,-162.5 790.95,-162.5 779.14,-162.5"/>
<polygon fill="midnightblue" stroke="midnightblue" points="814.64,-166 824.64,-162.5 814.64,-159 814.64,-166"/>
</g>
<!-- Node12 -->
<g id="node12" class="node">
<title>Node12</title>
<g id="a_node12"><a xlink:href="../../d5/d79/classrawspeed_1_1_raw_image_data_float.html#addf10542e8296fe492675d24c2207c95" target="_top" xlink:title=" ">
<polygon fill="none" stroke="black" points="610,-98.5 610,-128.5 779,-128.5 779,-98.5 610,-98.5"/>
<text text-anchor="start" x="618" y="-116.5" font-family="Helvetica,sans-Serif" font-size="10.00">rawspeed::RawImageDataFloat</text>
<text text-anchor="middle" x="694.5" y="-105.5" font-family="Helvetica,sans-Serif" font-size="10.00">::scaleBlackWhite</text>
</a>
</g>
</g>
<!-- Node1&#45;&gt;Node12 -->
<g id="edge11" class="edge">
<title>Node1&#45;&gt;Node12</title>
<path fill="none" stroke="midnightblue" d="M835.92,-150.23C821.04,-146.13 804.31,-141.57 789,-137.5 777.99,-134.57 766.23,-131.51 754.89,-128.59"/>
<polygon fill="midnightblue" stroke="midnightblue" points="835.33,-153.7 845.9,-152.99 837.19,-146.95 835.33,-153.7"/>
</g>
<!-- Node13 -->
<g id="node13" class="node">
<title>Node13</title>
<g id="a_node13"><a xlink:href="../../d2/d4f/classrawspeed_1_1_color_filter_array.html#af64f04323fc2bb6ffa38136f49b7e576" target="_top" xlink:title=" ">
<polygon fill="none" stroke="black" points="621.5,-49.5 621.5,-79.5 767.5,-79.5 767.5,-49.5 621.5,-49.5"/>
<text text-anchor="start" x="629.5" y="-67.5" font-family="Helvetica,sans-Serif" font-size="10.00">rawspeed::ColorFilterArray</text>
<text text-anchor="middle" x="694.5" y="-56.5" font-family="Helvetica,sans-Serif" font-size="10.00">::shiftDown</text>
</a>
</g>
</g>
<!-- Node1&#45;&gt;Node13 -->
<g id="edge12" class="edge">
<title>Node1&#45;&gt;Node13</title>
<path fill="none" stroke="midnightblue" d="M863.43,-145.22C846.31,-128.36 818.06,-103.15 789,-88.5 782.27,-85.1 775.01,-82.16 767.62,-79.62"/>
<polygon fill="midnightblue" stroke="midnightblue" points="861.37,-148.12 870.9,-152.75 866.34,-143.19 861.37,-148.12"/>
</g>
<!-- Node14 -->
<g id="node14" class="node">
<title>Node14</title>
<g id="a_node14"><a xlink:href="../../d2/d4f/classrawspeed_1_1_color_filter_array.html#a6d3f46bdc361d2fa95a2fe58aaca07ad" target="_top" xlink:title=" ">
<polygon fill="none" stroke="black" points="621.5,-0.5 621.5,-30.5 767.5,-30.5 767.5,-0.5 621.5,-0.5"/>
<text text-anchor="start" x="629.5" y="-18.5" font-family="Helvetica,sans-Serif" font-size="10.00">rawspeed::ColorFilterArray</text>
<text text-anchor="middle" x="694.5" y="-7.5" font-family="Helvetica,sans-Serif" font-size="10.00">::shiftLeft</text>
</a>
</g>
</g>
<!-- Node1&#45;&gt;Node14 -->
<g id="edge13" class="edge">
<title>Node1&#45;&gt;Node14</title>
<path fill="none" stroke="midnightblue" d="M871.19,-143.48C857.54,-116.17 828.66,-66.2 789,-39.5 782.47,-35.1 775.18,-31.51 767.64,-28.57"/>
<polygon fill="midnightblue" stroke="midnightblue" points="868.16,-145.26 875.67,-152.74 874.47,-142.21 868.16,-145.26"/>
</g>
<!-- Node3 -->
<g id="node3" class="node">
<title>Node3</title>
<g id="a_node3"><a xlink:href="../../d9/d5a/fuzz_2librawspeed_2fuzz_2_common_8cpp.html#a9b5193764409a69db1176954187dad97" target="_top" xlink:title=" ">
<polygon fill="none" stroke="black" points="429.5,-290 429.5,-309 530.5,-309 530.5,-290 429.5,-290"/>
<text text-anchor="middle" x="480" y="-297" font-family="Helvetica,sans-Serif" font-size="10.00">CreateRawImage</text>
</a>
</g>
</g>
<!-- Node2&#45;&gt;Node3 -->
<g id="edge2" class="edge">
<title>Node2&#45;&gt;Node3</title>
<path fill="none" stroke="midnightblue" d="M623.34,-299.5C592.96,-299.5 558.11,-299.5 530.5,-299.5"/>
<polygon fill="midnightblue" stroke="midnightblue" points="623.46,-303 633.46,-299.5 623.46,-296 623.46,-303"/>
</g>
<!-- Node4 -->
<g id="node4" class="node">
<title>Node4</title>
<g id="a_node4"><a xlink:href="../../dc/dfc/fuzz_2librawspeed_2decompressors_2_cr2_decompressor_8cpp.html#a1c473c9665269a78ef9001573a6995df" target="_top" xlink:title=" ">
<polygon fill="none" stroke="black" points="202.5,-290 202.5,-309 338.5,-309 338.5,-290 202.5,-290"/>
<text text-anchor="middle" x="270.5" y="-297" font-family="Helvetica,sans-Serif" font-size="10.00">LLVMFuzzerTestOneInput</text>
</a>
</g>
</g>
<!-- Node3&#45;&gt;Node4 -->
<g id="edge3" class="edge">
<title>Node3&#45;&gt;Node4</title>
<path fill="none" stroke="midnightblue" d="M419.17,-299.5C394.05,-299.5 364.72,-299.5 338.84,-299.5"/>
<polygon fill="midnightblue" stroke="midnightblue" points="419.3,-303 429.3,-299.5 419.3,-296 419.3,-303"/>
</g>
<!-- Node7 -->
<g id="node7" class="node">
<title>Node7</title>
<g id="a_node7"><a xlink:href="../../d4/df4/classrawspeed_1_1_rawspeed_exception.html#acabfc6a3c61af0c1c122a5ea6ab3d38a" target="_top" xlink:title=" ">
<polygon fill="none" stroke="black" points="396,-191.5 396,-221.5 564,-221.5 564,-191.5 396,-191.5"/>
<text text-anchor="start" x="404" y="-209.5" font-family="Helvetica,sans-Serif" font-size="10.00">rawspeed::RawspeedException</text>
<text text-anchor="middle" x="480" y="-198.5" font-family="Helvetica,sans-Serif" font-size="10.00">::RawspeedException</text>
</a>
</g>
</g>
<!-- Node6&#45;&gt;Node7 -->
<g id="edge6" class="edge">
<title>Node6&#45;&gt;Node7</title>
<path fill="none" stroke="midnightblue" d="M589.89,-206.5C581.28,-206.5 572.64,-206.5 564.2,-206.5"/>
<polygon fill="midnightblue" stroke="midnightblue" points="589.99,-210 599.99,-206.5 589.99,-203 589.99,-210"/>
</g>
<!-- Node8 -->
<g id="node8" class="node">
<title>Node8</title>
<g id="a_node8"><a xlink:href="../../d1/d6a/classrawspeed_1_1_i_o_exception.html#a8d129d184a8c15fd46a6d3d502105305" target="_top" xlink:title=" ">
<polygon fill="none" stroke="black" points="206.5,-216.5 206.5,-246.5 334.5,-246.5 334.5,-216.5 206.5,-216.5"/>
<text text-anchor="start" x="214.5" y="-234.5" font-family="Helvetica,sans-Serif" font-size="10.00">rawspeed::IOException</text>
<text text-anchor="middle" x="270.5" y="-223.5" font-family="Helvetica,sans-Serif" font-size="10.00">::IOException</text>
</a>
</g>
</g>
<!-- Node7&#45;&gt;Node8 -->
<g id="edge7" class="edge">
<title>Node7&#45;&gt;Node8</title>
<path fill="none" stroke="midnightblue" d="M385.68,-217.74C368.39,-219.83 350.71,-221.96 334.59,-223.9"/>
<polygon fill="midnightblue" stroke="midnightblue" points="386.29,-221.2 395.8,-216.52 385.45,-214.25 386.29,-221.2"/>
</g>
<!-- Node9 -->
<g id="node9" class="node">
<title>Node9</title>
<g id="a_node9"><a xlink:href="../../db/d52/classrawspeed_1_1_raw_decoder_exception.html#afcf5fe847bcd4b0a8013461890be221d" target="_top" xlink:title=" ">
<polygon fill="none" stroke="black" points="181,-167.5 181,-197.5 360,-197.5 360,-167.5 181,-167.5"/>
<text text-anchor="start" x="189" y="-185.5" font-family="Helvetica,sans-Serif" font-size="10.00">rawspeed::RawDecoderException</text>
<text text-anchor="middle" x="270.5" y="-174.5" font-family="Helvetica,sans-Serif" font-size="10.00">::RawDecoderException</text>
</a>
</g>
</g>
<!-- Node7&#45;&gt;Node9 -->
<g id="edge8" class="edge">
<title>Node7&#45;&gt;Node9</title>
<path fill="none" stroke="midnightblue" d="M385.83,-195.72C377.29,-194.74 368.66,-193.74 360.16,-192.75"/>
<polygon fill="midnightblue" stroke="midnightblue" points="385.46,-199.2 395.8,-196.88 386.27,-192.25 385.46,-199.2"/>
</g>
<!-- Node10 -->
<g id="node10" class="node">
<title>Node10</title>
<g id="a_node10"><a xlink:href="../../dd/dd4/classrawspeed_1_1_file_i_o_exception.html#aaa7ed863b01eac8f3b6bc52600abf603" target="_top" xlink:title=" ">
<polygon fill="none" stroke="black" points="0,-167.5 0,-197.5 145,-197.5 145,-167.5 0,-167.5"/>
<text text-anchor="start" x="8" y="-185.5" font-family="Helvetica,sans-Serif" font-size="10.00">rawspeed::FileIOException</text>
<text text-anchor="middle" x="72.5" y="-174.5" font-family="Helvetica,sans-Serif" font-size="10.00">::FileIOException</text>
</a>
</g>
</g>
<!-- Node9&#45;&gt;Node10 -->
<g id="edge9" class="edge">
<title>Node9&#45;&gt;Node10</title>
<path fill="none" stroke="midnightblue" d="M170.83,-182.5C162.19,-182.5 153.56,-182.5 145.2,-182.5"/>
<polygon fill="midnightblue" stroke="midnightblue" points="170.96,-186 180.96,-182.5 170.96,-179 170.96,-186"/>
</g>
</g>
</svg>
        <g id="navigator" transform="translate(0 0)" fill="#404254">
                <rect fill="#f2f5e9" fill-opacity="0.5" stroke="#606060" stroke-width=".5" x="0" y="0" width="60" height="60"/>
                <use id="zoomplus" xlink:href="#zoomPlus" x="17" y="9" onmousedown="handleZoom(evt,'in')"/>
                <use id="zoomminus" xlink:href="#zoomMin" x="42" y="9" onmousedown="handleZoom(evt,'out')"/>
                <use id="reset" xlink:href="#resetDef" x="30" y="36" onmousedown="handleReset()"/>
                <g id="arrowUp" xlink:href="#dirArrow" transform="translate(30 24)" onmousedown="handlePan(0,-1)">
                  <use xlink:href="#rim" fill="#404040">
                        <set attributeName="fill" to="#808080" begin="arrowUp.mouseover" end="arrowUp.mouseout"/>
                  </use>
                  <path fill="none" stroke="white" stroke-width="1.5" d="M0,-3.0v7 M-2.5,-0.5L0,-3.0L2.5,-0.5"/>
                </g>
                <g id="arrowRight" xlink:href="#dirArrow" transform="rotate(90) translate(36 -43)" onmousedown="handlePan(1,0)">
                  <use xlink:href="#rim" fill="#404040">
                        <set attributeName="fill" to="#808080" begin="arrowRight.mouseover" end="arrowRight.mouseout"/>
                  </use>
                  <path fill="none" stroke="white" stroke-width="1.5" d="M0,-3.0v7 M-2.5,-0.5L0,-3.0L2.5,-0.5"/>
                </g>
                <g id="arrowDown" xlink:href="#dirArrow" transform="rotate(180) translate(-30 -48)" onmousedown="handlePan(0,1)">
                  <use xlink:href="#rim" fill="#404040">
                        <set attributeName="fill" to="#808080" begin="arrowDown.mouseover" end="arrowDown.mouseout"/>
                  </use>
                  <path fill="none" stroke="white" stroke-width="1.5" d="M0,-3.0v7 M-2.5,-0.5L0,-3.0L2.5,-0.5"/>
                </g>
                <g id="arrowLeft" xlink:href="#dirArrow" transform="rotate(270) translate(-36 17)" onmousedown="handlePan(-1,0)">
                  <use xlink:href="#rim" fill="#404040">
                        <set attributeName="fill" to="#808080" begin="arrowLeft.mouseover" end="arrowLeft.mouseout"/>
                  </use>
                  <path fill="none" stroke="white" stroke-width="1.5" d="M0,-3.0v7 M-2.5,-0.5L0,-3.0L2.5,-0.5"/>
                </g>
        </g>
        <svg viewBox="0 0 15 15" width="100%" height="30px" preserveAspectRatio="xMaxYMin meet">
         <g id="arrow_out" transform="scale(0.3 0.3)">
          <a xlink:href="namespacerawspeed_a8a98a18f46994d6cae15ce24462fb7d4_icgraph_org.svg" target="_base">
           <rect id="button" ry="5" rx="5" y="6" x="6" height="38" width="38"
                fill="#f2f5e9" fill-opacity="0.5" stroke="#606060" stroke-width="1.0"/>
           <path id="arrow"
             d="M 11.500037,31.436501 C 11.940474,20.09759 22.043105,11.32322 32.158766,21.979434 L 37.068811,17.246167 C 37.068811,17.246167 37.088388,32 37.088388,32 L 22.160133,31.978069 C 22.160133,31.978069 26.997745,27.140456 26.997745,27.140456 C 18.528582,18.264221 13.291696,25.230495 11.500037,31.436501 z"
             style="fill:#404040;"/>
          </a>
         </g>
        </svg>
</svg>
