<?xml version="1.0" encoding="UTF-8" standalone="no"?>
<!DOCTYPE svg PUBLIC "-//W3C//DTD SVG 1.1//EN"
 "http://www.w3.org/Graphics/SVG/1.1/DTD/svg11.dtd">
<!-- Generated by graphviz version 2.43.0 (0)
 -->
<!-- Title: rawspeed::copyPixels Pages: 1 -->
<svg width="379pt" height="88pt"
 viewBox="0.00 0.00 379.00 88.00" xmlns="http://www.w3.org/2000/svg" xmlns:xlink="http://www.w3.org/1999/xlink">
<g id="graph0" class="graph" transform="scale(1 1) rotate(0) translate(4 84)">
<title>rawspeed::copyPixels</title>
<!-- Node1 -->
<g id="node1" class="node">
<title>Node1</title>
<g id="a_node1"><a xlink:title=" ">
<polygon fill="#bfbfbf" stroke="black" points="249,-30 249,-49 371,-49 371,-30 249,-30"/>
<text text-anchor="middle" x="310" y="-37" font-family="Helvetica,sans-Serif" font-size="10.00">rawspeed::copyPixels</text>
</a>
</g>
</g>
<!-- Node2 -->
<g id="node2" class="node">
<title>Node2</title>
<g id="a_node2"><a xlink:href="../../dc/d44/classrawspeed_1_1_raw_image_data.html#a5a1884d989dce1f16ac3ac579fe5c286" target="_top" xlink:title=" ">
<polygon fill="none" stroke="black" points="34,-49.5 34,-79.5 179,-79.5 179,-49.5 34,-49.5"/>
<text text-anchor="start" x="42" y="-67.5" font-family="Helvetica,sans-Serif" font-size="10.00">rawspeed::RawImageData</text>
<text text-anchor="middle" x="106.5" y="-56.5" font-family="Helvetica,sans-Serif" font-size="10.00">::blitFrom</text>
</a>
</g>
</g>
<!-- Node1&#45;&gt;Node2 -->
<g id="edge1" class="edge">
<title>Node1&#45;&gt;Node2</title>
<path fill="none" stroke="midnightblue" d="M238.87,-48.2C219.53,-50.6 198.52,-53.21 179.09,-55.62"/>
<polygon fill="midnightblue" stroke="midnightblue" points="239.32,-51.67 248.82,-46.97 238.46,-44.72 239.32,-51.67"/>
</g>
<!-- Node3 -->
<g id="node3" class="node">
<title>Node3</title>
<g id="a_node3"><a xlink:href="../../d5/d8a/classrawspeed_1_1_uncompressed_decompressor.html#a9cad2df2885aaa5f6b1fdf8d662e3b5d" target="_top" xlink:title=" ">
<polygon fill="none" stroke="black" points="0,-0.5 0,-30.5 213,-30.5 213,-0.5 0,-0.5"/>
<text text-anchor="start" x="8" y="-18.5" font-family="Helvetica,sans-Serif" font-size="10.00">rawspeed::UncompressedDecompressor</text>
<text text-anchor="middle" x="106.5" y="-7.5" font-family="Helvetica,sans-Serif" font-size="10.00">::readUncompressedRaw</text>
</a>
</g>
</g>
<!-- Node1&#45;&gt;Node3 -->
<g id="edge2" class="edge">
<title>Node1&#45;&gt;Node3</title>
<path fill="none" stroke="midnightblue" d="M238.88,-31.15C230.59,-30.16 221.99,-29.14 213.35,-28.11"/>
<polygon fill="midnightblue" stroke="midnightblue" points="238.47,-34.62 248.82,-32.33 239.3,-27.67 238.47,-34.62"/>
</g>
</g>
</svg>
