<?xml version="1.0" encoding="UTF-8" standalone="no"?>
<!DOCTYPE svg PUBLIC "-//W3C//DTD SVG 1.1//EN"
 "http://www.w3.org/Graphics/SVG/1.1/DTD/svg11.dtd">
<!-- Generated by graphviz version 2.43.0 (0)
 -->
<!-- Title: rawspeed::RawImageWorker::performTask Pages: 1 -->
<svg width="526pt" height="137pt"
 viewBox="0.00 0.00 526.00 137.00" xmlns="http://www.w3.org/2000/svg" xmlns:xlink="http://www.w3.org/1999/xlink">
<g id="graph0" class="graph" transform="scale(1 1) rotate(0) translate(4 133)">
<title>rawspeed::RawImageWorker::performTask</title>
<!-- Node1 -->
<g id="node1" class="node">
<title>Node1</title>
<g id="a_node1"><a xlink:title=" ">
<polygon fill="#bfbfbf" stroke="black" points="0,-49.5 0,-79.5 156,-79.5 156,-49.5 0,-49.5"/>
<text text-anchor="start" x="8" y="-67.5" font-family="Helvetica,sans-Serif" font-size="10.00">rawspeed::RawImageWorker</text>
<text text-anchor="middle" x="78" y="-56.5" font-family="Helvetica,sans-Serif" font-size="10.00">::performTask</text>
</a>
</g>
</g>
<!-- Node2 -->
<g id="node2" class="node">
<title>Node2</title>
<g id="a_node2"><a xlink:href="../../dc/d44/classrawspeed_1_1_raw_image_data.html#a86b7e5d2d10712f205ba46b0548c7cd3" target="_top" xlink:title=" ">
<polygon fill="none" stroke="black" points="192,-98.5 192,-128.5 337,-128.5 337,-98.5 192,-98.5"/>
<text text-anchor="start" x="200" y="-116.5" font-family="Helvetica,sans-Serif" font-size="10.00">rawspeed::RawImageData</text>
<text text-anchor="middle" x="264.5" y="-105.5" font-family="Helvetica,sans-Serif" font-size="10.00">::doLookup</text>
</a>
</g>
</g>
<!-- Node1&#45;&gt;Node2 -->
<g id="edge1" class="edge">
<title>Node1&#45;&gt;Node2</title>
<path fill="none" stroke="midnightblue" d="M135.61,-79.53C155.09,-84.71 177.08,-90.55 197.26,-95.91"/>
<polygon fill="midnightblue" stroke="midnightblue" points="196.43,-99.31 207,-98.49 198.23,-92.54 196.43,-99.31"/>
</g>
<!-- Node3 -->
<g id="node3" class="node">
<title>Node3</title>
<g id="a_node3"><a xlink:href="../../dc/d44/classrawspeed_1_1_raw_image_data.html#a8bc02218a4b31cfb2bc9d70b6e704bf3" target="_top" xlink:title=" ">
<polygon fill="none" stroke="black" points="192,-49.5 192,-79.5 337,-79.5 337,-49.5 192,-49.5"/>
<text text-anchor="start" x="200" y="-67.5" font-family="Helvetica,sans-Serif" font-size="10.00">rawspeed::RawImageData</text>
<text text-anchor="middle" x="264.5" y="-56.5" font-family="Helvetica,sans-Serif" font-size="10.00">::fixBadPixelsThread</text>
</a>
</g>
</g>
<!-- Node1&#45;&gt;Node3 -->
<g id="edge2" class="edge">
<title>Node1&#45;&gt;Node3</title>
<path fill="none" stroke="midnightblue" d="M156.18,-64.5C164.6,-64.5 173.2,-64.5 181.67,-64.5"/>
<polygon fill="midnightblue" stroke="midnightblue" points="181.94,-68 191.94,-64.5 181.94,-61 181.94,-68"/>
</g>
<!-- Node5 -->
<g id="node5" class="node">
<title>Node5</title>
<g id="a_node5"><a xlink:href="../../dc/d44/classrawspeed_1_1_raw_image_data.html#a75573466263ea30067f2375662a02035" target="_top" xlink:title=" ">
<polygon fill="none" stroke="black" points="192,-0.5 192,-30.5 337,-30.5 337,-0.5 192,-0.5"/>
<text text-anchor="start" x="200" y="-18.5" font-family="Helvetica,sans-Serif" font-size="10.00">rawspeed::RawImageData</text>
<text text-anchor="middle" x="264.5" y="-7.5" font-family="Helvetica,sans-Serif" font-size="10.00">::scaleValues</text>
</a>
</g>
</g>
<!-- Node1&#45;&gt;Node5 -->
<g id="edge4" class="edge">
<title>Node1&#45;&gt;Node5</title>
<path fill="none" stroke="midnightblue" d="M135.61,-49.47C155.09,-44.29 177.08,-38.45 197.26,-33.09"/>
<polygon fill="midnightblue" stroke="midnightblue" points="198.23,-36.46 207,-30.51 196.43,-29.69 198.23,-36.46"/>
</g>
<!-- Node4 -->
<g id="node4" class="node">
<title>Node4</title>
<g id="a_node4"><a xlink:href="../../dc/d44/classrawspeed_1_1_raw_image_data.html#a5eb2d634f9a8b184dba201589fb15361" target="_top" xlink:title=" ">
<polygon fill="none" stroke="black" points="373,-49.5 373,-79.5 518,-79.5 518,-49.5 373,-49.5"/>
<text text-anchor="start" x="381" y="-67.5" font-family="Helvetica,sans-Serif" font-size="10.00">rawspeed::RawImageData</text>
<text text-anchor="middle" x="445.5" y="-56.5" font-family="Helvetica,sans-Serif" font-size="10.00">::fixBadPixel</text>
</a>
</g>
</g>
<!-- Node3&#45;&gt;Node4 -->
<g id="edge3" class="edge">
<title>Node3&#45;&gt;Node4</title>
<path fill="none" stroke="midnightblue" d="M337.02,-64.5C345.49,-64.5 354.18,-64.5 362.78,-64.5"/>
<polygon fill="midnightblue" stroke="midnightblue" points="362.8,-68 372.8,-64.5 362.8,-61 362.8,-68"/>
</g>
</g>
</svg>
