<?xml version="1.0" encoding="UTF-8" standalone="no"?>
<!DOCTYPE svg PUBLIC "-//W3C//DTD SVG 1.1//EN"
 "http://www.w3.org/Graphics/SVG/1.1/DTD/svg11.dtd">
<!-- Generated by graphviz version 2.43.0 (0)
 -->
<!-- Title: rawspeed::RawImageWorker::RawImageWorker Pages: 1 -->
<svg width="718pt" height="137pt"
 viewBox="0.00 0.00 718.00 137.00" xmlns="http://www.w3.org/2000/svg" xmlns:xlink="http://www.w3.org/1999/xlink">
<g id="graph0" class="graph" transform="scale(1 1) rotate(0) translate(4 133)">
<title>rawspeed::RawImageWorker::RawImageWorker</title>
<!-- Node1 -->
<g id="node1" class="node">
<title>Node1</title>
<g id="a_node1"><a xlink:title=" ">
<polygon fill="#bfbfbf" stroke="black" points="0,-49.5 0,-79.5 156,-79.5 156,-49.5 0,-49.5"/>
<text text-anchor="start" x="8" y="-67.5" font-family="Helvetica,sans-Serif" font-size="10.00">rawspeed::RawImageWorker</text>
<text text-anchor="middle" x="78" y="-56.5" font-family="Helvetica,sans-Serif" font-size="10.00">::RawImageWorker</text>
</a>
</g>
</g>
<!-- Node2 -->
<g id="node2" class="node">
<title>Node2</title>
<g id="a_node2"><a xlink:href="../../da/df3/classrawspeed_1_1_raw_image_worker.html#a3a90b4f33ae2f01a6dafac5e532efc37" target="_top" xlink:title=" ">
<polygon fill="none" stroke="black" points="192,-49.5 192,-79.5 348,-79.5 348,-49.5 192,-49.5"/>
<text text-anchor="start" x="200" y="-67.5" font-family="Helvetica,sans-Serif" font-size="10.00">rawspeed::RawImageWorker</text>
<text text-anchor="middle" x="270" y="-56.5" font-family="Helvetica,sans-Serif" font-size="10.00">::performTask</text>
</a>
</g>
</g>
<!-- Node1&#45;&gt;Node2 -->
<g id="edge1" class="edge">
<title>Node1&#45;&gt;Node2</title>
<path fill="none" stroke="midnightblue" d="M156.01,-64.5C164.51,-64.5 173.21,-64.5 181.83,-64.5"/>
<polygon fill="midnightblue" stroke="midnightblue" points="181.88,-68 191.88,-64.5 181.88,-61 181.88,-68"/>
</g>
<!-- Node3 -->
<g id="node3" class="node">
<title>Node3</title>
<g id="a_node3"><a xlink:href="../../dc/d44/classrawspeed_1_1_raw_image_data.html#a86b7e5d2d10712f205ba46b0548c7cd3" target="_top" xlink:title=" ">
<polygon fill="none" stroke="black" points="384,-98.5 384,-128.5 529,-128.5 529,-98.5 384,-98.5"/>
<text text-anchor="start" x="392" y="-116.5" font-family="Helvetica,sans-Serif" font-size="10.00">rawspeed::RawImageData</text>
<text text-anchor="middle" x="456.5" y="-105.5" font-family="Helvetica,sans-Serif" font-size="10.00">::doLookup</text>
</a>
</g>
</g>
<!-- Node2&#45;&gt;Node3 -->
<g id="edge2" class="edge">
<title>Node2&#45;&gt;Node3</title>
<path fill="none" stroke="midnightblue" d="M327.61,-79.53C347.09,-84.71 369.08,-90.55 389.26,-95.91"/>
<polygon fill="midnightblue" stroke="midnightblue" points="388.43,-99.31 399,-98.49 390.23,-92.54 388.43,-99.31"/>
</g>
<!-- Node4 -->
<g id="node4" class="node">
<title>Node4</title>
<g id="a_node4"><a xlink:href="../../dc/d44/classrawspeed_1_1_raw_image_data.html#a8bc02218a4b31cfb2bc9d70b6e704bf3" target="_top" xlink:title=" ">
<polygon fill="none" stroke="black" points="384,-49.5 384,-79.5 529,-79.5 529,-49.5 384,-49.5"/>
<text text-anchor="start" x="392" y="-67.5" font-family="Helvetica,sans-Serif" font-size="10.00">rawspeed::RawImageData</text>
<text text-anchor="middle" x="456.5" y="-56.5" font-family="Helvetica,sans-Serif" font-size="10.00">::fixBadPixelsThread</text>
</a>
</g>
</g>
<!-- Node2&#45;&gt;Node4 -->
<g id="edge3" class="edge">
<title>Node2&#45;&gt;Node4</title>
<path fill="none" stroke="midnightblue" d="M348.18,-64.5C356.6,-64.5 365.2,-64.5 373.67,-64.5"/>
<polygon fill="midnightblue" stroke="midnightblue" points="373.94,-68 383.94,-64.5 373.94,-61 373.94,-68"/>
</g>
<!-- Node6 -->
<g id="node6" class="node">
<title>Node6</title>
<g id="a_node6"><a xlink:href="../../dc/d44/classrawspeed_1_1_raw_image_data.html#a75573466263ea30067f2375662a02035" target="_top" xlink:title=" ">
<polygon fill="none" stroke="black" points="384,-0.5 384,-30.5 529,-30.5 529,-0.5 384,-0.5"/>
<text text-anchor="start" x="392" y="-18.5" font-family="Helvetica,sans-Serif" font-size="10.00">rawspeed::RawImageData</text>
<text text-anchor="middle" x="456.5" y="-7.5" font-family="Helvetica,sans-Serif" font-size="10.00">::scaleValues</text>
</a>
</g>
</g>
<!-- Node2&#45;&gt;Node6 -->
<g id="edge5" class="edge">
<title>Node2&#45;&gt;Node6</title>
<path fill="none" stroke="midnightblue" d="M327.61,-49.47C347.09,-44.29 369.08,-38.45 389.26,-33.09"/>
<polygon fill="midnightblue" stroke="midnightblue" points="390.23,-36.46 399,-30.51 388.43,-29.69 390.23,-36.46"/>
</g>
<!-- Node5 -->
<g id="node5" class="node">
<title>Node5</title>
<g id="a_node5"><a xlink:href="../../dc/d44/classrawspeed_1_1_raw_image_data.html#a5eb2d634f9a8b184dba201589fb15361" target="_top" xlink:title=" ">
<polygon fill="none" stroke="black" points="565,-49.5 565,-79.5 710,-79.5 710,-49.5 565,-49.5"/>
<text text-anchor="start" x="573" y="-67.5" font-family="Helvetica,sans-Serif" font-size="10.00">rawspeed::RawImageData</text>
<text text-anchor="middle" x="637.5" y="-56.5" font-family="Helvetica,sans-Serif" font-size="10.00">::fixBadPixel</text>
</a>
</g>
</g>
<!-- Node4&#45;&gt;Node5 -->
<g id="edge4" class="edge">
<title>Node4&#45;&gt;Node5</title>
<path fill="none" stroke="midnightblue" d="M529.02,-64.5C537.49,-64.5 546.18,-64.5 554.78,-64.5"/>
<polygon fill="midnightblue" stroke="midnightblue" points="554.8,-68 564.8,-64.5 554.8,-61 554.8,-68"/>
</g>
</g>
</svg>
