<?xml version="1.0" encoding="UTF-8" standalone="no"?>
<!DOCTYPE svg PUBLIC "-//W3C//DTD SVG 1.1//EN"
 "http://www.w3.org/Graphics/SVG/1.1/DTD/svg11.dtd">
<!-- Generated by graphviz version 2.43.0 (0)
 -->
<!-- Title: rawspeed::VC5Decompressor::Channel Pages: 1 -->
<!--zoomable 288 -->
<svg id="main" version="1.1" xmlns="http://www.w3.org/2000/svg" xmlns:xlink="http://www.w3.org/1999/xlink" xml:space="preserve" onload="init(evt)">
<style type="text/css"><![CDATA[
.edge:hover path { stroke: red; }
.edge:hover polygon { stroke: red; fill: red; }
]]></style>
<script type="text/javascript"><![CDATA[
var edges = document.getElementsByTagName('g');
if (edges && edges.length) {
  for (var i=0;i<edges.length;i++) {
    if (edges[i].id.substr(0,4)=='edge') {
      edges[i].setAttribute('class','edge');
    }
  }
}
]]></script>
        <defs>
                <circle id="rim" cx="0" cy="0" r="7"/>
                <circle id="rim2" cx="0" cy="0" r="3.5"/>
                <g id="zoomPlus">
                        <use xlink:href="#rim" fill="#404040">
                                <set attributeName="fill" to="#808080" begin="zoomplus.mouseover" end="zoomplus.mouseout"/>
                        </use>
                        <path d="M-4,0h8M0,-4v8" fill="none" stroke="white" stroke-width="1.5" pointer-events="none"/>
                </g>
                <g id="zoomMin">
                        <use xlink:href="#rim" fill="#404040">
                                <set attributeName="fill" to="#808080" begin="zoomminus.mouseover" end="zoomminus.mouseout"/>
                        </use>
                        <path d="M-4,0h8" fill="none" stroke="white" stroke-width="1.5" pointer-events="none"/>
                </g>
                <g id="dirArrow">
                        <path fill="none" stroke="white" stroke-width="1.5" d="M0,-3.0v7 M-2.5,-0.5L0,-3.0L2.5,-0.5"/>
                </g>
               <g id="resetDef">
                       <use xlink:href="#rim2" fill="#404040">
                               <set attributeName="fill" to="#808080" begin="reset.mouseover" end="reset.mouseout"/>
                       </use>
               </g>
        </defs>

<script type="text/javascript">
var viewWidth = 2431;
var viewHeight = 288;
var sectionId = 'dynsection-0';
</script>
<script xlink:href="../../svgpan.js"/>
<svg id="graph" class="graph">
<g id="viewport">
<title>rawspeed::VC5Decompressor::Channel</title>
<!-- Node1 -->
<g id="node1" class="node">
<title>Node1</title>
<g id="a_node1"><a xlink:title=" ">
<polygon fill="#bfbfbf" stroke="black" points="2263,-28.5 2263,-58.5 2423,-58.5 2423,-28.5 2263,-28.5"/>
<text text-anchor="start" x="2271" y="-46.5" font-family="Helvetica,sans-Serif" font-size="10.00">rawspeed::VC5Decompressor</text>
<text text-anchor="middle" x="2343" y="-35.5" font-family="Helvetica,sans-Serif" font-size="10.00">::Channel</text>
</a>
</g>
</g>
<!-- Node2 -->
<g id="node2" class="node">
<title>Node2</title>
<g id="a_node2"><a xlink:title=" ">
<polygon fill="none" stroke="#bfbfbf" points="2018,-135 2018,-176 2179,-176 2179,-135 2018,-135"/>
<text text-anchor="start" x="2026" y="-164" font-family="Helvetica,sans-Serif" font-size="10.00">std::array&lt; rawspeed</text>
<text text-anchor="start" x="2026" y="-153" font-family="Helvetica,sans-Serif" font-size="10.00">::VC5Decompressor::Wavelet,</text>
<text text-anchor="middle" x="2098.5" y="-142" font-family="Helvetica,sans-Serif" font-size="10.00"> numWaveletLevels &gt;</text>
</a>
</g>
</g>
<!-- Node2&#45;&gt;Node1 -->
<g id="edge1" class="edge">
<title>Node2&#45;&gt;Node1</title>
<path fill="none" stroke="#9a32cd" stroke-dasharray="5,2" d="M2153.25,-130.67C2201.08,-108.59 2269.46,-77 2309.44,-58.54"/>
<polygon fill="#9a32cd" stroke="#9a32cd" points="2151.59,-127.59 2143.98,-134.96 2154.52,-133.94 2151.59,-127.59"/>
<text text-anchor="middle" x="2221" y="-112.5" font-family="Helvetica,sans-Serif" font-size="10.00"> wavelets</text>
</g>
<!-- Node3 -->
<g id="node3" class="node">
<title>Node3</title>
<g id="a_node3"><a xlink:href="../../d3/d36/classrawspeed_1_1_v_c5_decompressor_1_1_wavelet.html" target="_top" xlink:title=" ">
<polygon fill="none" stroke="black" points="1773,-140.5 1773,-170.5 1933,-170.5 1933,-140.5 1773,-140.5"/>
<text text-anchor="start" x="1781" y="-158.5" font-family="Helvetica,sans-Serif" font-size="10.00">rawspeed::VC5Decompressor</text>
<text text-anchor="middle" x="1853" y="-147.5" font-family="Helvetica,sans-Serif" font-size="10.00">::Wavelet</text>
</a>
</g>
</g>
<!-- Node3&#45;&gt;Node2 -->
<g id="edge2" class="edge">
<title>Node3&#45;&gt;Node2</title>
<path fill="none" stroke="#9a32cd" stroke-dasharray="5,2" d="M1943.35,-155.5C1967.66,-155.5 1993.84,-155.5 2017.59,-155.5"/>
<polygon fill="#9a32cd" stroke="#9a32cd" points="1943.06,-152 1933.06,-155.5 1943.06,-159 1943.06,-152"/>
<text text-anchor="middle" x="1975.5" y="-158.5" font-family="Helvetica,sans-Serif" font-size="10.00"> elements</text>
</g>
<!-- Node4 -->
<g id="node4" class="node">
<title>Node4</title>
<g id="a_node4"><a xlink:href="../../d5/df4/classuint16__t.html" target="_top" xlink:title=" ">
<polygon fill="none" stroke="black" points="1444,-180 1444,-199 1500,-199 1500,-180 1444,-180"/>
<text text-anchor="middle" x="1472" y="-187" font-family="Helvetica,sans-Serif" font-size="10.00">uint16_t</text>
</a>
</g>
</g>
<!-- Node4&#45;&gt;Node3 -->
<g id="edge3" class="edge">
<title>Node4&#45;&gt;Node3</title>
<path fill="none" stroke="#9a32cd" stroke-dasharray="5,2" d="M1510.4,-187.12C1564.44,-183.56 1667.51,-176.32 1755,-167.5 1760.82,-166.91 1766.84,-166.27 1772.89,-165.59"/>
<polygon fill="#9a32cd" stroke="#9a32cd" points="1510.01,-183.64 1500.26,-187.78 1510.47,-190.63 1510.01,-183.64"/>
<text text-anchor="middle" x="1676" y="-183.5" font-family="Helvetica,sans-Serif" font-size="10.00"> numBands</text>
</g>
<!-- Node5 -->
<g id="node5" class="node">
<title>Node5</title>
<g id="a_node5"><a xlink:href="../../d3/d87/classuint32__t.html" target="_top" xlink:title=" ">
<polygon fill="none" stroke="black" points="1444,-142 1444,-161 1500,-161 1500,-142 1444,-142"/>
<text text-anchor="middle" x="1472" y="-149" font-family="Helvetica,sans-Serif" font-size="10.00">uint32_t</text>
</a>
</g>
</g>
<!-- Node5&#45;&gt;Node3 -->
<g id="edge4" class="edge">
<title>Node5&#45;&gt;Node3</title>
<path fill="none" stroke="#9a32cd" stroke-dasharray="5,2" d="M1510.51,-151.9C1571.2,-152.54 1692.21,-153.81 1772.65,-154.66"/>
<polygon fill="#9a32cd" stroke="#9a32cd" points="1510.29,-148.39 1500.26,-151.79 1510.22,-155.39 1510.29,-148.39"/>
<text text-anchor="middle" x="1676" y="-156.5" font-family="Helvetica,sans-Serif" font-size="10.00"> mDecodedBandMask</text>
</g>
<!-- Node6 -->
<g id="node6" class="node">
<title>Node6</title>
<g id="a_node6"><a xlink:title=" ">
<polygon fill="none" stroke="#bfbfbf" points="1365,-82 1365,-123 1579,-123 1579,-82 1365,-82"/>
<text text-anchor="start" x="1373" y="-111" font-family="Helvetica,sans-Serif" font-size="10.00">std::array&lt; std::unique</text>
<text text-anchor="start" x="1373" y="-100" font-family="Helvetica,sans-Serif" font-size="10.00">_ptr&lt; rawspeed::VC5Decompressor</text>
<text text-anchor="middle" x="1472" y="-89" font-family="Helvetica,sans-Serif" font-size="10.00">::Wavelet::AbstractBand &gt;, numBands &gt;</text>
</a>
</g>
</g>
<!-- Node6&#45;&gt;Node3 -->
<g id="edge5" class="edge">
<title>Node6&#45;&gt;Node3</title>
<path fill="none" stroke="#9a32cd" stroke-dasharray="5,2" d="M1589.39,-115.36C1640.32,-121.39 1700.72,-129.1 1755,-137.5 1760.92,-138.42 1767.04,-139.42 1773.19,-140.47"/>
<polygon fill="#9a32cd" stroke="#9a32cd" points="1589.67,-111.86 1579.33,-114.17 1588.86,-118.82 1589.67,-111.86"/>
<text text-anchor="middle" x="1676" y="-140.5" font-family="Helvetica,sans-Serif" font-size="10.00"> bands</text>
</g>
<!-- Node7 -->
<g id="node7" class="node">
<title>Node7</title>
<g id="a_node7"><a xlink:title=" ">
<polygon fill="none" stroke="#bfbfbf" points="1017.5,-84 1017.5,-125 1175.5,-125 1175.5,-84 1017.5,-84"/>
<text text-anchor="start" x="1025.5" y="-113" font-family="Helvetica,sans-Serif" font-size="10.00">std::unique_ptr&lt; rawspeed</text>
<text text-anchor="start" x="1025.5" y="-102" font-family="Helvetica,sans-Serif" font-size="10.00">::VC5Decompressor::Wavelet</text>
<text text-anchor="middle" x="1096.5" y="-91" font-family="Helvetica,sans-Serif" font-size="10.00">::AbstractBand &gt;</text>
</a>
</g>
</g>
<!-- Node7&#45;&gt;Node6 -->
<g id="edge6" class="edge">
<title>Node7&#45;&gt;Node6</title>
<path fill="none" stroke="#9a32cd" stroke-dasharray="5,2" d="M1185.97,-104.03C1239.57,-103.74 1308.29,-103.37 1364.82,-103.07"/>
<polygon fill="#9a32cd" stroke="#9a32cd" points="1185.78,-100.53 1175.8,-104.08 1185.82,-107.53 1185.78,-100.53"/>
<text text-anchor="middle" x="1273.5" y="-106.5" font-family="Helvetica,sans-Serif" font-size="10.00"> elements</text>
</g>
<!-- Node8 -->
<g id="node8" class="node">
<title>Node8</title>
<g id="a_node8"><a xlink:href="../../dd/d5b/structrawspeed_1_1_v_c5_decompressor_1_1_wavelet_1_1_abstract_band.html" target="_top" xlink:title=" ">
<polygon fill="none" stroke="black" points="761,-78.5 761,-108.5 921,-108.5 921,-78.5 761,-78.5"/>
<text text-anchor="start" x="769" y="-96.5" font-family="Helvetica,sans-Serif" font-size="10.00">rawspeed::VC5Decompressor</text>
<text text-anchor="middle" x="841" y="-85.5" font-family="Helvetica,sans-Serif" font-size="10.00">::Wavelet::AbstractBand</text>
</a>
</g>
</g>
<!-- Node8&#45;&gt;Node7 -->
<g id="edge7" class="edge">
<title>Node8&#45;&gt;Node7</title>
<path fill="none" stroke="#9a32cd" stroke-dasharray="5,2" d="M931.37,-97.38C959.42,-98.6 990.16,-99.93 1017.37,-101.11"/>
<polygon fill="#9a32cd" stroke="#9a32cd" points="931.31,-93.87 921.17,-96.94 931.01,-100.87 931.31,-93.87"/>
<text text-anchor="middle" x="966" y="-102.5" font-family="Helvetica,sans-Serif" font-size="10.00"> ptr</text>
</g>
<!-- Node16 -->
<g id="node16" class="node">
<title>Node16</title>
<g id="a_node16"><a xlink:href="../../d6/d53/structrawspeed_1_1_v_c5_decompressor_1_1_wavelet_1_1_reconstructable_band.html" target="_top" xlink:title=" ">
<polygon fill="none" stroke="black" points="1011,-0.5 1011,-30.5 1182,-30.5 1182,-0.5 1011,-0.5"/>
<text text-anchor="start" x="1019" y="-18.5" font-family="Helvetica,sans-Serif" font-size="10.00">rawspeed::VC5Decompressor</text>
<text text-anchor="middle" x="1096.5" y="-7.5" font-family="Helvetica,sans-Serif" font-size="10.00">::Wavelet::ReconstructableBand</text>
</a>
</g>
</g>
<!-- Node8&#45;&gt;Node16 -->
<g id="edge21" class="edge">
<title>Node8&#45;&gt;Node16</title>
<path fill="none" stroke="midnightblue" d="M905.02,-75.7C932.16,-67.89 964.21,-58.47 993,-49.5 1012.15,-43.53 1033.2,-36.62 1051.22,-30.58"/>
<polygon fill="midnightblue" stroke="midnightblue" points="903.9,-72.38 895.25,-78.5 905.83,-79.1 903.9,-72.38"/>
</g>
<!-- Node9 -->
<g id="node9" class="node">
<title>Node9</title>
<g id="a_node9"><a xlink:title=" ">
<polygon fill="none" stroke="#bfbfbf" points="387,-73 387,-114 567,-114 567,-73 387,-73"/>
<text text-anchor="start" x="395" y="-102" font-family="Helvetica,sans-Serif" font-size="10.00">std::vector&lt; int16</text>
<text text-anchor="start" x="395" y="-91" font-family="Helvetica,sans-Serif" font-size="10.00">_t, rawspeed::DefaultInitAllocator</text>
<text text-anchor="middle" x="477" y="-80" font-family="Helvetica,sans-Serif" font-size="10.00">Adaptor&lt; int16_t &gt; &gt;</text>
</a>
</g>
</g>
<!-- Node9&#45;&gt;Node8 -->
<g id="edge8" class="edge">
<title>Node9&#45;&gt;Node8</title>
<path fill="none" stroke="#9a32cd" stroke-dasharray="5,2" d="M577.27,-93.5C635.06,-93.5 706.93,-93.5 760.88,-93.5"/>
<polygon fill="#9a32cd" stroke="#9a32cd" points="577.02,-90 567.02,-93.5 577.02,-97 577.02,-90"/>
<text text-anchor="middle" x="664" y="-96.5" font-family="Helvetica,sans-Serif" font-size="10.00"> data</text>
</g>
<!-- Node9&#45;&gt;Node16 -->
<g id="edge22" class="edge">
<title>Node9&#45;&gt;Node16</title>
<path fill="none" stroke="#9a32cd" stroke-dasharray="5,2" d="M537.25,-69.31C593.68,-47.68 681.54,-17.57 761,-5.5 831.3,5.18 849.92,-3.46 921,-5.5 950.27,-6.34 982.27,-7.97 1010.78,-9.67"/>
<polygon fill="#9a32cd" stroke="#9a32cd" points="535.85,-66.1 527.79,-72.98 538.37,-72.63 535.85,-66.1"/>
<text text-anchor="middle" x="841" y="-19.5" font-family="Helvetica,sans-Serif" font-size="10.00"> highpass_storage</text>
<text text-anchor="middle" x="841" y="-8.5" font-family="Helvetica,sans-Serif" font-size="10.00">lowpass_storage</text>
</g>
<!-- Node10 -->
<g id="node10" class="node">
<title>Node10</title>
<g id="a_node10"><a xlink:href="../../d2/d54/classint16__t.html" target="_top" xlink:title=" ">
<polygon fill="none" stroke="black" points="137.5,-153 137.5,-172 187.5,-172 187.5,-153 137.5,-153"/>
<text text-anchor="middle" x="162.5" y="-160" font-family="Helvetica,sans-Serif" font-size="10.00">int16_t</text>
</a>
</g>
</g>
<!-- Node10&#45;&gt;Node3 -->
<g id="edge17" class="edge">
<title>Node10&#45;&gt;Node3</title>
<path fill="none" stroke="#9a32cd" stroke-dasharray="5,2" d="M197.62,-164.02C287.1,-168.02 535.9,-179.24 743,-189.5 1114.2,-207.89 1207.77,-226.2 1579,-208.5 1657.35,-204.76 1678.67,-213.57 1755,-195.5 1778.4,-189.96 1803.46,-179.5 1822.24,-170.66"/>
<polygon fill="#9a32cd" stroke="#9a32cd" points="197.66,-160.52 187.51,-163.57 197.35,-167.51 197.66,-160.52"/>
<text text-anchor="middle" x="966" y="-206.5" font-family="Helvetica,sans-Serif" font-size="10.00"> prescale</text>
</g>
<!-- Node10&#45;&gt;Node9 -->
<g id="edge9" class="edge">
<title>Node10&#45;&gt;Node9</title>
<path fill="none" stroke="#9a32cd" stroke-dasharray="5,2" d="M197.79,-156.09C207.84,-154.25 218.86,-152.26 229,-150.5 291.13,-139.71 307.68,-142.2 369,-127.5 384.64,-123.75 401.31,-118.89 416.72,-114.02"/>
<polygon fill="#9a32cd" stroke="#9a32cd" points="196.94,-152.69 187.74,-157.95 198.21,-159.58 196.94,-152.69"/>
<text text-anchor="middle" x="299" y="-153.5" font-family="Helvetica,sans-Serif" font-size="10.00"> elements</text>
</g>
<!-- Node11 -->
<g id="node11" class="node">
<title>Node11</title>
<g id="a_node11"><a xlink:title="STL class.">
<polygon fill="none" stroke="#bfbfbf" points="114,-106 114,-125 211,-125 211,-106 114,-106"/>
<text text-anchor="middle" x="162.5" y="-113" font-family="Helvetica,sans-Serif" font-size="10.00">std::vector&lt; T &gt;</text>
</a>
</g>
</g>
<!-- Node11&#45;&gt;Node9 -->
<g id="edge10" class="edge">
<title>Node11&#45;&gt;Node9</title>
<path fill="none" stroke="orange" stroke-dasharray="5,2" d="M197.02,-102.58C207.14,-99.28 218.38,-96.18 229,-94.5 280.88,-86.28 339.67,-85.7 386.87,-87.32"/>
<polygon fill="orange" stroke="orange" points="195.65,-99.35 187.33,-105.92 197.93,-105.97 195.65,-99.35"/>
<text text-anchor="start" x="229" y="-119.5" font-family="Helvetica,sans-Serif" font-size="10.00"> &lt; int16_t, rawspeed</text>
<text text-anchor="start" x="229" y="-108.5" font-family="Helvetica,sans-Serif" font-size="10.00">::DefaultInitAllocatorAdaptor</text>
<text text-anchor="middle" x="299" y="-97.5" font-family="Helvetica,sans-Serif" font-size="10.00">&lt; int16_t &gt; &gt;</text>
</g>
<!-- Node12 -->
<g id="node12" class="node">
<title>Node12</title>
<g id="a_node12"><a xlink:title=" ">
<polygon fill="none" stroke="#bfbfbf" points="0,-204 0,-223 29,-223 29,-204 0,-204"/>
<text text-anchor="middle" x="14.5" y="-211" font-family="Helvetica,sans-Serif" font-size="10.00">T</text>
</a>
</g>
</g>
<!-- Node12&#45;&gt;Node11 -->
<g id="edge11" class="edge">
<title>Node12&#45;&gt;Node11</title>
<path fill="none" stroke="#9a32cd" stroke-dasharray="5,2" d="M30.1,-196.32C35.15,-190.91 41.04,-185.15 47,-180.5 77.1,-157.02 116.65,-136.51 140.52,-125.09"/>
<polygon fill="#9a32cd" stroke="#9a32cd" points="27.46,-194.03 23.4,-203.81 32.68,-198.69 27.46,-194.03"/>
<text text-anchor="middle" x="71.5" y="-183.5" font-family="Helvetica,sans-Serif" font-size="10.00"> elements</text>
</g>
<!-- Node13 -->
<g id="node13" class="node">
<title>Node13</title>
<g id="a_node13"><a xlink:title="STL class.">
<polygon fill="none" stroke="#bfbfbf" points="240,-204 240,-223 358,-223 358,-204 240,-204"/>
<text text-anchor="middle" x="299" y="-211" font-family="Helvetica,sans-Serif" font-size="10.00">std::unique_ptr&lt; T &gt;</text>
</a>
</g>
</g>
<!-- Node12&#45;&gt;Node13 -->
<g id="edge13" class="edge">
<title>Node12&#45;&gt;Node13</title>
<path fill="none" stroke="#9a32cd" stroke-dasharray="5,2" d="M39.38,-213.5C83.27,-213.5 177.94,-213.5 239.75,-213.5"/>
<polygon fill="#9a32cd" stroke="#9a32cd" points="39.13,-210 29.13,-213.5 39.13,-217 39.13,-210"/>
<text text-anchor="middle" x="71.5" y="-216.5" font-family="Helvetica,sans-Serif" font-size="10.00"> ptr</text>
</g>
<!-- Node14 -->
<g id="node14" class="node">
<title>Node14</title>
<g id="a_node14"><a xlink:title="STL class.">
<polygon fill="none" stroke="#bfbfbf" points="1050.5,-256 1050.5,-275 1142.5,-275 1142.5,-256 1050.5,-256"/>
<text text-anchor="middle" x="1096.5" y="-263" font-family="Helvetica,sans-Serif" font-size="10.00">std::array&lt; T &gt;</text>
</a>
</g>
</g>
<!-- Node12&#45;&gt;Node14 -->
<g id="edge15" class="edge">
<title>Node12&#45;&gt;Node14</title>
<path fill="none" stroke="#9a32cd" stroke-dasharray="5,2" d="M37.95,-226.93C65.89,-242.34 115.53,-265.5 161.5,-265.5 161.5,-265.5 161.5,-265.5 842,-265.5 914.84,-265.5 999.45,-265.5 1050.17,-265.5"/>
<polygon fill="#9a32cd" stroke="#9a32cd" points="39.44,-223.75 29.02,-221.85 35.98,-229.84 39.44,-223.75"/>
<text text-anchor="middle" x="477" y="-268.5" font-family="Helvetica,sans-Serif" font-size="10.00"> elements</text>
</g>
<!-- Node13&#45;&gt;Node7 -->
<g id="edge12" class="edge">
<title>Node13&#45;&gt;Node7</title>
<path fill="none" stroke="orange" stroke-dasharray="5,2" d="M368.35,-208.68C422.37,-204.55 499.65,-197.93 567,-189.5 727.68,-169.38 914.48,-137.27 1017.39,-118.81"/>
<polygon fill="orange" stroke="orange" points="367.91,-205.2 358.2,-209.45 368.43,-212.18 367.91,-205.2"/>
<text text-anchor="start" x="585" y="-200.5" font-family="Helvetica,sans-Serif" font-size="10.00"> &lt; rawspeed::VC5Decompressor</text>
<text text-anchor="middle" x="664" y="-189.5" font-family="Helvetica,sans-Serif" font-size="10.00">::Wavelet::AbstractBand &gt;</text>
</g>
<!-- Node14&#45;&gt;Node2 -->
<g id="edge18" class="edge">
<title>Node14&#45;&gt;Node2</title>
<path fill="none" stroke="orange" stroke-dasharray="5,2" d="M1153.02,-267.37C1266.66,-270.35 1533.75,-272.96 1755,-241.5 1853.48,-227.5 1964.71,-196.7 2032.97,-176.02"/>
<polygon fill="orange" stroke="orange" points="1152.92,-263.87 1142.83,-267.09 1152.73,-270.87 1152.92,-263.87"/>
<text text-anchor="start" x="1597" y="-271.5" font-family="Helvetica,sans-Serif" font-size="10.00"> &lt; rawspeed::VC5Decompressor</text>
<text text-anchor="middle" x="1676" y="-260.5" font-family="Helvetica,sans-Serif" font-size="10.00">::Wavelet, numWaveletLevels &gt;</text>
</g>
<!-- Node14&#45;&gt;Node6 -->
<g id="edge14" class="edge">
<title>Node14&#45;&gt;Node6</title>
<path fill="none" stroke="orange" stroke-dasharray="5,2" d="M1122.32,-250.64C1142.87,-238.53 1172.98,-221.25 1200,-207.5 1271.79,-170.96 1289.36,-160.21 1365,-132.5 1374.07,-129.18 1383.68,-126 1393.28,-123.03"/>
<polygon fill="orange" stroke="orange" points="1120.41,-247.7 1113.59,-255.81 1123.98,-253.72 1120.41,-247.7"/>
<text text-anchor="start" x="1200" y="-243.5" font-family="Helvetica,sans-Serif" font-size="10.00"> &lt; std::unique_ptr&lt;</text>
<text text-anchor="start" x="1200" y="-232.5" font-family="Helvetica,sans-Serif" font-size="10.00"> rawspeed::VC5Decompressor</text>
<text text-anchor="start" x="1200" y="-221.5" font-family="Helvetica,sans-Serif" font-size="10.00">::Wavelet::AbstractBand</text>
<text text-anchor="middle" x="1273.5" y="-210.5" font-family="Helvetica,sans-Serif" font-size="10.00"> &gt;, numBands &gt;</text>
</g>
<!-- Node15 -->
<g id="node15" class="node">
<title>Node15</title>
<g id="a_node15"><a xlink:title=" ">
<polygon fill="none" stroke="#bfbfbf" points="1457.5,-39 1457.5,-58 1486.5,-58 1486.5,-39 1457.5,-39"/>
<text text-anchor="middle" x="1472" y="-46" font-family="Helvetica,sans-Serif" font-size="10.00">int</text>
</a>
</g>
</g>
<!-- Node15&#45;&gt;Node1 -->
<g id="edge19" class="edge">
<title>Node15&#45;&gt;Node1</title>
<path fill="none" stroke="#9a32cd" stroke-dasharray="5,2" d="M1496.76,-48.36C1607.38,-47.73 2074.47,-45.04 2262.8,-43.96"/>
<polygon fill="#9a32cd" stroke="#9a32cd" points="1496.63,-44.86 1486.65,-48.42 1496.67,-51.86 1496.63,-44.86"/>
<text text-anchor="middle" x="1975.5" y="-60.5" font-family="Helvetica,sans-Serif" font-size="10.00"> width</text>
<text text-anchor="middle" x="1975.5" y="-49.5" font-family="Helvetica,sans-Serif" font-size="10.00">height</text>
</g>
<!-- Node15&#45;&gt;Node3 -->
<g id="edge16" class="edge">
<title>Node15&#45;&gt;Node3</title>
<path fill="none" stroke="#9a32cd" stroke-dasharray="5,2" d="M1496.82,-48.56C1546.53,-49.43 1664.23,-55.39 1755,-90.5 1785.63,-102.35 1816.34,-125.23 1834.76,-140.44"/>
<polygon fill="#9a32cd" stroke="#9a32cd" points="1496.79,-45.06 1486.75,-48.44 1496.71,-52.06 1496.79,-45.06"/>
<text text-anchor="middle" x="1676" y="-104.5" font-family="Helvetica,sans-Serif" font-size="10.00"> width</text>
<text text-anchor="middle" x="1676" y="-93.5" font-family="Helvetica,sans-Serif" font-size="10.00">height</text>
</g>
<!-- Node16&#45;&gt;Node1 -->
<g id="edge20" class="edge">
<title>Node16&#45;&gt;Node1</title>
<path fill="none" stroke="#9a32cd" stroke-dasharray="5,2" d="M1192.46,-11.16C1267.93,-8.08 1376.2,-4.5 1471,-4.5 1471,-4.5 1471,-4.5 2099.5,-4.5 2162.4,-4.5 2233.32,-17.45 2282.14,-28.42"/>
<polygon fill="#9a32cd" stroke="#9a32cd" points="1191.88,-7.68 1182.03,-11.59 1192.17,-14.68 1191.88,-7.68"/>
<text text-anchor="middle" x="1853" y="-7.5" font-family="Helvetica,sans-Serif" font-size="10.00"> band</text>
</g>
<!-- Node17 -->
<g id="node17" class="node">
<title>Node17</title>
<g id="a_node17"><a xlink:title=" ">
<polygon fill="none" stroke="#bfbfbf" points="822,-37 822,-56 860,-56 860,-37 822,-37"/>
<text text-anchor="middle" x="841" y="-44" font-family="Helvetica,sans-Serif" font-size="10.00">bool</text>
</a>
</g>
</g>
<!-- Node17&#45;&gt;Node16 -->
<g id="edge23" class="edge">
<title>Node17&#45;&gt;Node16</title>
<path fill="none" stroke="#9a32cd" stroke-dasharray="5,2" d="M870.3,-43.04C904.05,-38.91 962.04,-31.82 1010.71,-25.87"/>
<polygon fill="#9a32cd" stroke="#9a32cd" points="869.73,-39.58 860.23,-44.27 870.58,-46.53 869.73,-39.58"/>
<text text-anchor="middle" x="966" y="-37.5" font-family="Helvetica,sans-Serif" font-size="10.00"> clampUint</text>
</g>
</g>
</svg>
        <g id="navigator" transform="translate(0 0)" fill="#404254">
                <rect fill="#f2f5e9" fill-opacity="0.5" stroke="#606060" stroke-width=".5" x="0" y="0" width="60" height="60"/>
                <use id="zoomplus" xlink:href="#zoomPlus" x="17" y="9" onmousedown="handleZoom(evt,'in')"/>
                <use id="zoomminus" xlink:href="#zoomMin" x="42" y="9" onmousedown="handleZoom(evt,'out')"/>
                <use id="reset" xlink:href="#resetDef" x="30" y="36" onmousedown="handleReset()"/>
                <g id="arrowUp" xlink:href="#dirArrow" transform="translate(30 24)" onmousedown="handlePan(0,-1)">
                  <use xlink:href="#rim" fill="#404040">
                        <set attributeName="fill" to="#808080" begin="arrowUp.mouseover" end="arrowUp.mouseout"/>
                  </use>
                  <path fill="none" stroke="white" stroke-width="1.5" d="M0,-3.0v7 M-2.5,-0.5L0,-3.0L2.5,-0.5"/>
                </g>
                <g id="arrowRight" xlink:href="#dirArrow" transform="rotate(90) translate(36 -43)" onmousedown="handlePan(1,0)">
                  <use xlink:href="#rim" fill="#404040">
                        <set attributeName="fill" to="#808080" begin="arrowRight.mouseover" end="arrowRight.mouseout"/>
                  </use>
                  <path fill="none" stroke="white" stroke-width="1.5" d="M0,-3.0v7 M-2.5,-0.5L0,-3.0L2.5,-0.5"/>
                </g>
                <g id="arrowDown" xlink:href="#dirArrow" transform="rotate(180) translate(-30 -48)" onmousedown="handlePan(0,1)">
                  <use xlink:href="#rim" fill="#404040">
                        <set attributeName="fill" to="#808080" begin="arrowDown.mouseover" end="arrowDown.mouseout"/>
                  </use>
                  <path fill="none" stroke="white" stroke-width="1.5" d="M0,-3.0v7 M-2.5,-0.5L0,-3.0L2.5,-0.5"/>
                </g>
                <g id="arrowLeft" xlink:href="#dirArrow" transform="rotate(270) translate(-36 17)" onmousedown="handlePan(-1,0)">
                  <use xlink:href="#rim" fill="#404040">
                        <set attributeName="fill" to="#808080" begin="arrowLeft.mouseover" end="arrowLeft.mouseout"/>
                  </use>
                  <path fill="none" stroke="white" stroke-width="1.5" d="M0,-3.0v7 M-2.5,-0.5L0,-3.0L2.5,-0.5"/>
                </g>
        </g>
        <svg viewBox="0 0 15 15" width="100%" height="30px" preserveAspectRatio="xMaxYMin meet">
         <g id="arrow_out" transform="scale(0.3 0.3)">
          <a xlink:href="structrawspeed_1_1_v_c5_decompressor_1_1_channel__coll__graph_org.svg" target="_base">
           <rect id="button" ry="5" rx="5" y="6" x="6" height="38" width="38"
                fill="#f2f5e9" fill-opacity="0.5" stroke="#606060" stroke-width="1.0"/>
           <path id="arrow"
             d="M 11.500037,31.436501 C 11.940474,20.09759 22.043105,11.32322 32.158766,21.979434 L 37.068811,17.246167 C 37.068811,17.246167 37.088388,32 37.088388,32 L 22.160133,31.978069 C 22.160133,31.978069 26.997745,27.140456 26.997745,27.140456 C 18.528582,18.264221 13.291696,25.230495 11.500037,31.436501 z"
             style="fill:#404040;"/>
          </a>
         </g>
        </svg>
</svg>
