<?xml version="1.0" encoding="UTF-8" standalone="no"?>
<!DOCTYPE svg PUBLIC "-//W3C//DTD SVG 1.1//EN"
 "http://www.w3.org/Graphics/SVG/1.1/DTD/svg11.dtd">
<!-- Generated by graphviz version 2.43.0 (0)
 -->
<!-- Title: librawspeed/tiff/CiffTag.h Pages: 1 -->
<!--zoomable 285 -->
<svg id="main" version="1.1" xmlns="http://www.w3.org/2000/svg" xmlns:xlink="http://www.w3.org/1999/xlink" xml:space="preserve" onload="init(evt)">
<style type="text/css"><![CDATA[
.edge:hover path { stroke: red; }
.edge:hover polygon { stroke: red; fill: red; }
]]></style>
<script type="text/javascript"><![CDATA[
var edges = document.getElementsByTagName('g');
if (edges && edges.length) {
  for (var i=0;i<edges.length;i++) {
    if (edges[i].id.substr(0,4)=='edge') {
      edges[i].setAttribute('class','edge');
    }
  }
}
]]></script>
        <defs>
                <circle id="rim" cx="0" cy="0" r="7"/>
                <circle id="rim2" cx="0" cy="0" r="3.5"/>
                <g id="zoomPlus">
                        <use xlink:href="#rim" fill="#404040">
                                <set attributeName="fill" to="#808080" begin="zoomplus.mouseover" end="zoomplus.mouseout"/>
                        </use>
                        <path d="M-4,0h8M0,-4v8" fill="none" stroke="white" stroke-width="1.5" pointer-events="none"/>
                </g>
                <g id="zoomMin">
                        <use xlink:href="#rim" fill="#404040">
                                <set attributeName="fill" to="#808080" begin="zoomminus.mouseover" end="zoomminus.mouseout"/>
                        </use>
                        <path d="M-4,0h8" fill="none" stroke="white" stroke-width="1.5" pointer-events="none"/>
                </g>
                <g id="dirArrow">
                        <path fill="none" stroke="white" stroke-width="1.5" d="M0,-3.0v7 M-2.5,-0.5L0,-3.0L2.5,-0.5"/>
                </g>
               <g id="resetDef">
                       <use xlink:href="#rim2" fill="#404040">
                               <set attributeName="fill" to="#808080" begin="reset.mouseover" end="reset.mouseout"/>
                       </use>
               </g>
        </defs>

<script type="text/javascript">
var viewWidth = 625;
var viewHeight = 285;
var sectionId = 'dynsection-1';
</script>
<script xlink:href="../../svgpan.js"/>
<svg id="graph" class="graph">
<g id="viewport">
<title>librawspeed/tiff/CiffTag.h</title>
<!-- Node1 -->
<g id="node1" class="node">
<title>Node1</title>
<g id="a_node1"><a xlink:title=" ">
<polygon fill="#bfbfbf" stroke="black" points="194,-257.5 194,-276.5 331,-276.5 331,-257.5 194,-257.5"/>
<text text-anchor="middle" x="262.5" y="-264.5" font-family="Helvetica,sans-Serif" font-size="10.00">librawspeed/tiff/CiffTag.h</text>
</a>
</g>
</g>
<!-- Node2 -->
<g id="node2" class="node">
<title>Node2</title>
<g id="a_node2"><a xlink:href="../../d0/dc9/_crw_decoder_8cpp.html" target="_top" xlink:title=" ">
<polygon fill="none" stroke="black" points="0,-6 0,-36 123,-36 123,-6 0,-6"/>
<text text-anchor="start" x="8" y="-24" font-family="Helvetica,sans-Serif" font-size="10.00">librawspeed/decoders</text>
<text text-anchor="middle" x="61.5" y="-13" font-family="Helvetica,sans-Serif" font-size="10.00">/CrwDecoder.cpp</text>
</a>
</g>
</g>
<!-- Node1&#45;&gt;Node2 -->
<g id="edge1" class="edge">
<title>Node1&#45;&gt;Node2</title>
<path fill="none" stroke="midnightblue" d="M196.93,-255.19C146.04,-242.92 79.01,-217.33 47.5,-165 22.67,-123.76 43.23,-63.42 54.86,-36.23"/>
<polygon fill="midnightblue" stroke="midnightblue" points="196.35,-258.65 206.88,-257.47 197.91,-251.82 196.35,-258.65"/>
</g>
<!-- Node3 -->
<g id="node3" class="node">
<title>Node3</title>
<g id="a_node3"><a xlink:href="../../d3/dc6/_ciff_entry_8h.html" target="_top" xlink:title=" ">
<polygon fill="none" stroke="black" points="140,-201.5 140,-220.5 285,-220.5 285,-201.5 140,-201.5"/>
<text text-anchor="middle" x="212.5" y="-208.5" font-family="Helvetica,sans-Serif" font-size="10.00">librawspeed/tiff/CiffEntry.h</text>
</a>
</g>
</g>
<!-- Node1&#45;&gt;Node3 -->
<g id="edge2" class="edge">
<title>Node1&#45;&gt;Node3</title>
<path fill="none" stroke="midnightblue" d="M247.42,-249.72C238.61,-240.2 227.83,-228.56 220.6,-220.75"/>
<polygon fill="midnightblue" stroke="midnightblue" points="244.88,-252.12 254.24,-257.08 250.02,-247.37 244.88,-252.12"/>
</g>
<!-- Node4 -->
<g id="node4" class="node">
<title>Node4</title>
<g id="a_node4"><a xlink:href="../../d8/dd4/_ciff_i_f_d_8h.html" target="_top" xlink:title=" ">
<polygon fill="none" stroke="black" points="245,-145.5 245,-164.5 382,-164.5 382,-145.5 245,-145.5"/>
<text text-anchor="middle" x="313.5" y="-152.5" font-family="Helvetica,sans-Serif" font-size="10.00">librawspeed/tiff/CiffIFD.h</text>
</a>
</g>
</g>
<!-- Node1&#45;&gt;Node4 -->
<g id="edge17" class="edge">
<title>Node1&#45;&gt;Node4</title>
<path fill="none" stroke="midnightblue" d="M276.39,-249.33C282.62,-241.19 289.65,-231.01 294.5,-221 303.73,-201.96 309.37,-177.56 311.91,-164.75"/>
<polygon fill="midnightblue" stroke="midnightblue" points="273.57,-247.25 270.07,-257.26 279.04,-251.62 273.57,-247.25"/>
</g>
<!-- Node7 -->
<g id="node7" class="node">
<title>Node7</title>
<g id="a_node7"><a xlink:href="../../d9/dec/_ciff_parser_8cpp.html" target="_top" xlink:title=" ">
<polygon fill="none" stroke="black" points="502,-6 502,-36 617,-36 617,-6 502,-6"/>
<text text-anchor="start" x="510" y="-24" font-family="Helvetica,sans-Serif" font-size="10.00">librawspeed/parsers</text>
<text text-anchor="middle" x="559.5" y="-13" font-family="Helvetica,sans-Serif" font-size="10.00">/CiffParser.cpp</text>
</a>
</g>
</g>
<!-- Node1&#45;&gt;Node7 -->
<g id="edge18" class="edge">
<title>Node1&#45;&gt;Node7</title>
<path fill="none" stroke="midnightblue" d="M329.85,-255.45C407.02,-239.25 529.28,-199.94 579.5,-109 592.46,-85.53 578.77,-54.05 568.53,-36.1"/>
<polygon fill="midnightblue" stroke="midnightblue" points="328.85,-252.08 319.74,-257.5 330.24,-258.94 328.85,-252.08"/>
</g>
<!-- Node3&#45;&gt;Node2 -->
<g id="edge3" class="edge">
<title>Node3&#45;&gt;Node2</title>
<path fill="none" stroke="midnightblue" d="M129.94,-204.46C103.87,-198.33 77.66,-186.68 61.5,-165 32.71,-126.39 47.56,-64.17 56.43,-36.31"/>
<polygon fill="midnightblue" stroke="midnightblue" points="129.4,-207.92 139.91,-206.55 130.84,-201.07 129.4,-207.92"/>
</g>
<!-- Node3&#45;&gt;Node4 -->
<g id="edge4" class="edge">
<title>Node3&#45;&gt;Node4</title>
<path fill="none" stroke="midnightblue" d="M237.58,-196.59C256.26,-186.61 281.2,-173.27 297.31,-164.65"/>
<polygon fill="midnightblue" stroke="midnightblue" points="235.9,-193.52 228.73,-201.32 239.2,-199.7 235.9,-193.52"/>
</g>
<!-- Node3&#45;&gt;Node7 -->
<g id="edge15" class="edge">
<title>Node3&#45;&gt;Node7</title>
<path fill="none" stroke="midnightblue" d="M283.3,-199.85C375.53,-184.98 528.89,-154.07 561.5,-109 577,-87.58 570.37,-54.79 564.63,-36.18"/>
<polygon fill="midnightblue" stroke="midnightblue" points="282.53,-196.43 273.2,-201.45 283.62,-203.34 282.53,-196.43"/>
</g>
<!-- Node11 -->
<g id="node11" class="node">
<title>Node11</title>
<g id="a_node11"><a xlink:href="../../d2/dbc/_ciff_entry_8cpp.html" target="_top" xlink:title=" ">
<polygon fill="none" stroke="black" points="70.5,-145.5 70.5,-164.5 226.5,-164.5 226.5,-145.5 70.5,-145.5"/>
<text text-anchor="middle" x="148.5" y="-152.5" font-family="Helvetica,sans-Serif" font-size="10.00">librawspeed/tiff/CiffEntry.cpp</text>
</a>
</g>
</g>
<!-- Node3&#45;&gt;Node11 -->
<g id="edge16" class="edge">
<title>Node3&#45;&gt;Node11</title>
<path fill="none" stroke="midnightblue" d="M194.51,-194.82C183.04,-185.15 168.59,-172.95 158.97,-164.83"/>
<polygon fill="midnightblue" stroke="midnightblue" points="192.32,-197.55 202.22,-201.32 196.83,-192.2 192.32,-197.55"/>
</g>
<!-- Node4&#45;&gt;Node2 -->
<g id="edge9" class="edge">
<title>Node4&#45;&gt;Node2</title>
<path fill="none" stroke="midnightblue" d="M250.75,-143.8C191.92,-133.77 111.28,-118.59 99.5,-109 76.75,-90.48 67.26,-55.65 63.6,-36.15"/>
<polygon fill="midnightblue" stroke="midnightblue" points="250.28,-147.27 260.73,-145.49 251.45,-140.37 250.28,-147.27"/>
</g>
<!-- Node5 -->
<g id="node5" class="node">
<title>Node5</title>
<g id="a_node5"><a xlink:href="../../dd/d2d/_ciff_parser_8h.html" target="_top" xlink:title=" ">
<polygon fill="none" stroke="black" points="250,-78.5 250,-108.5 365,-108.5 365,-78.5 250,-78.5"/>
<text text-anchor="start" x="258" y="-96.5" font-family="Helvetica,sans-Serif" font-size="10.00">librawspeed/parsers</text>
<text text-anchor="middle" x="307.5" y="-85.5" font-family="Helvetica,sans-Serif" font-size="10.00">/CiffParser.h</text>
</a>
</g>
</g>
<!-- Node4&#45;&gt;Node5 -->
<g id="edge5" class="edge">
<title>Node4&#45;&gt;Node5</title>
<path fill="none" stroke="midnightblue" d="M311.61,-135.23C310.74,-126.59 309.72,-116.5 308.91,-108.52"/>
<polygon fill="midnightblue" stroke="midnightblue" points="308.15,-135.88 312.64,-145.48 315.12,-135.17 308.15,-135.88"/>
</g>
<!-- Node4&#45;&gt;Node7 -->
<g id="edge13" class="edge">
<title>Node4&#45;&gt;Node7</title>
<path fill="none" stroke="midnightblue" d="M392.19,-147.53C449.15,-141.21 519.63,-129.47 540.5,-109 560.04,-89.84 561.64,-55.58 560.77,-36.27"/>
<polygon fill="midnightblue" stroke="midnightblue" points="391.66,-144.06 382.09,-148.61 392.41,-151.02 391.66,-144.06"/>
</g>
<!-- Node9 -->
<g id="node9" class="node">
<title>Node9</title>
<g id="a_node9"><a xlink:href="../../da/d51/_crw_decoder_8h.html" target="_top" xlink:title=" ">
<polygon fill="none" stroke="black" points="109,-78.5 109,-108.5 232,-108.5 232,-78.5 109,-78.5"/>
<text text-anchor="start" x="117" y="-96.5" font-family="Helvetica,sans-Serif" font-size="10.00">librawspeed/decoders</text>
<text text-anchor="middle" x="170.5" y="-85.5" font-family="Helvetica,sans-Serif" font-size="10.00">/CrwDecoder.h</text>
</a>
</g>
</g>
<!-- Node4&#45;&gt;Node9 -->
<g id="edge10" class="edge">
<title>Node4&#45;&gt;Node9</title>
<path fill="none" stroke="midnightblue" d="M283.67,-141.59C260.49,-131.94 228.32,-118.56 204.2,-108.52"/>
<polygon fill="midnightblue" stroke="midnightblue" points="282.43,-144.86 293.01,-145.48 285.12,-138.4 282.43,-144.86"/>
</g>
<!-- Node10 -->
<g id="node10" class="node">
<title>Node10</title>
<g id="a_node10"><a xlink:href="../../dc/d18/_ciff_i_f_d_8cpp.html" target="_top" xlink:title=" ">
<polygon fill="none" stroke="black" points="383.5,-84 383.5,-103 531.5,-103 531.5,-84 383.5,-84"/>
<text text-anchor="middle" x="457.5" y="-91" font-family="Helvetica,sans-Serif" font-size="10.00">librawspeed/tiff/CiffIFD.cpp</text>
</a>
</g>
</g>
<!-- Node4&#45;&gt;Node10 -->
<g id="edge14" class="edge">
<title>Node4&#45;&gt;Node10</title>
<path fill="none" stroke="midnightblue" d="M343.43,-141.63C371.41,-130.07 412.44,-113.12 436.91,-103.01"/>
<polygon fill="midnightblue" stroke="midnightblue" points="342.04,-138.42 334.13,-145.48 344.71,-144.89 342.04,-138.42"/>
</g>
<!-- Node6 -->
<g id="node6" class="node">
<title>Node6</title>
<g id="a_node6"><a xlink:href="../../d1/d26/fuzz_2librawspeed_2parsers_2main_8cpp.html" target="_top" xlink:title=" ">
<polygon fill="none" stroke="black" points="187.5,-0.5 187.5,-41.5 305.5,-41.5 305.5,-0.5 187.5,-0.5"/>
<text text-anchor="start" x="195.5" y="-29.5" font-family="Helvetica,sans-Serif" font-size="10.00">/build/rawspeed/fuzz</text>
<text text-anchor="start" x="195.5" y="-18.5" font-family="Helvetica,sans-Serif" font-size="10.00">/librawspeed/parsers</text>
<text text-anchor="middle" x="246.5" y="-7.5" font-family="Helvetica,sans-Serif" font-size="10.00">/main.cpp</text>
</a>
</g>
</g>
<!-- Node5&#45;&gt;Node6 -->
<g id="edge6" class="edge">
<title>Node5&#45;&gt;Node6</title>
<path fill="none" stroke="midnightblue" d="M288.5,-70.54C280.49,-61.28 271.23,-50.58 263.45,-41.59"/>
<polygon fill="midnightblue" stroke="midnightblue" points="285.97,-72.96 295.16,-78.23 291.26,-68.38 285.97,-72.96"/>
</g>
<!-- Node5&#45;&gt;Node7 -->
<g id="edge7" class="edge">
<title>Node5&#45;&gt;Node7</title>
<path fill="none" stroke="midnightblue" d="M367.4,-75.74C410.59,-63.66 468.23,-47.53 509.08,-36.11"/>
<polygon fill="midnightblue" stroke="midnightblue" points="366.28,-72.42 357.59,-78.49 368.16,-79.16 366.28,-72.42"/>
</g>
<!-- Node8 -->
<g id="node8" class="node">
<title>Node8</title>
<g id="a_node8"><a xlink:href="../../dc/d4a/_raw_parser_8cpp.html" target="_top" xlink:title=" ">
<polygon fill="none" stroke="black" points="324,-6 324,-36 439,-36 439,-6 324,-6"/>
<text text-anchor="start" x="332" y="-24" font-family="Helvetica,sans-Serif" font-size="10.00">librawspeed/parsers</text>
<text text-anchor="middle" x="381.5" y="-13" font-family="Helvetica,sans-Serif" font-size="10.00">/RawParser.cpp</text>
</a>
</g>
</g>
<!-- Node5&#45;&gt;Node8 -->
<g id="edge8" class="edge">
<title>Node5&#45;&gt;Node8</title>
<path fill="none" stroke="midnightblue" d="M329.87,-71.19C341.75,-59.87 356.02,-46.27 366.55,-36.25"/>
<polygon fill="midnightblue" stroke="midnightblue" points="327.3,-68.8 322.48,-78.23 332.13,-73.87 327.3,-68.8"/>
</g>
<!-- Node9&#45;&gt;Node2 -->
<g id="edge11" class="edge">
<title>Node9&#45;&gt;Node2</title>
<path fill="none" stroke="midnightblue" d="M140.23,-72.92C122.14,-61.22 99.59,-46.63 83.26,-36.07"/>
<polygon fill="midnightblue" stroke="midnightblue" points="138.41,-75.91 148.7,-78.4 142.21,-70.03 138.41,-75.91"/>
</g>
<!-- Node9&#45;&gt;Node7 -->
<g id="edge12" class="edge">
<title>Node9&#45;&gt;Node7</title>
<path fill="none" stroke="midnightblue" d="M241.88,-77.96C334.88,-60.48 359.6,-57.74 448.5,-42 465.85,-38.93 484.72,-35.54 501.9,-32.45"/>
<polygon fill="midnightblue" stroke="midnightblue" points="241.23,-74.52 232.05,-79.81 242.53,-81.4 241.23,-74.52"/>
</g>
</g>
</svg>
        <g id="navigator" transform="translate(0 0)" fill="#404254">
                <rect fill="#f2f5e9" fill-opacity="0.5" stroke="#606060" stroke-width=".5" x="0" y="0" width="60" height="60"/>
                <use id="zoomplus" xlink:href="#zoomPlus" x="17" y="9" onmousedown="handleZoom(evt,'in')"/>
                <use id="zoomminus" xlink:href="#zoomMin" x="42" y="9" onmousedown="handleZoom(evt,'out')"/>
                <use id="reset" xlink:href="#resetDef" x="30" y="36" onmousedown="handleReset()"/>
                <g id="arrowUp" xlink:href="#dirArrow" transform="translate(30 24)" onmousedown="handlePan(0,-1)">
                  <use xlink:href="#rim" fill="#404040">
                        <set attributeName="fill" to="#808080" begin="arrowUp.mouseover" end="arrowUp.mouseout"/>
                  </use>
                  <path fill="none" stroke="white" stroke-width="1.5" d="M0,-3.0v7 M-2.5,-0.5L0,-3.0L2.5,-0.5"/>
                </g>
                <g id="arrowRight" xlink:href="#dirArrow" transform="rotate(90) translate(36 -43)" onmousedown="handlePan(1,0)">
                  <use xlink:href="#rim" fill="#404040">
                        <set attributeName="fill" to="#808080" begin="arrowRight.mouseover" end="arrowRight.mouseout"/>
                  </use>
                  <path fill="none" stroke="white" stroke-width="1.5" d="M0,-3.0v7 M-2.5,-0.5L0,-3.0L2.5,-0.5"/>
                </g>
                <g id="arrowDown" xlink:href="#dirArrow" transform="rotate(180) translate(-30 -48)" onmousedown="handlePan(0,1)">
                  <use xlink:href="#rim" fill="#404040">
                        <set attributeName="fill" to="#808080" begin="arrowDown.mouseover" end="arrowDown.mouseout"/>
                  </use>
                  <path fill="none" stroke="white" stroke-width="1.5" d="M0,-3.0v7 M-2.5,-0.5L0,-3.0L2.5,-0.5"/>
                </g>
                <g id="arrowLeft" xlink:href="#dirArrow" transform="rotate(270) translate(-36 17)" onmousedown="handlePan(-1,0)">
                  <use xlink:href="#rim" fill="#404040">
                        <set attributeName="fill" to="#808080" begin="arrowLeft.mouseover" end="arrowLeft.mouseout"/>
                  </use>
                  <path fill="none" stroke="white" stroke-width="1.5" d="M0,-3.0v7 M-2.5,-0.5L0,-3.0L2.5,-0.5"/>
                </g>
        </g>
        <svg viewBox="0 0 15 15" width="100%" height="30px" preserveAspectRatio="xMaxYMin meet">
         <g id="arrow_out" transform="scale(0.3 0.3)">
          <a xlink:href="_ciff_tag_8h__dep__incl_org.svg" target="_base">
           <rect id="button" ry="5" rx="5" y="6" x="6" height="38" width="38"
                fill="#f2f5e9" fill-opacity="0.5" stroke="#606060" stroke-width="1.0"/>
           <path id="arrow"
             d="M 11.500037,31.436501 C 11.940474,20.09759 22.043105,11.32322 32.158766,21.979434 L 37.068811,17.246167 C 37.068811,17.246167 37.088388,32 37.088388,32 L 22.160133,31.978069 C 22.160133,31.978069 26.997745,27.140456 26.997745,27.140456 C 18.528582,18.264221 13.291696,25.230495 11.500037,31.436501 z"
             style="fill:#404040;"/>
          </a>
         </g>
        </svg>
</svg>
