<?xml version="1.0" encoding="UTF-8" standalone="no"?>
<!DOCTYPE svg PUBLIC "-//W3C//DTD SVG 1.1//EN"
 "http://www.w3.org/Graphics/SVG/1.1/DTD/svg11.dtd">
<!-- Generated by graphviz version 2.43.0 (0)
 -->
<!-- Title: librawspeed/io/BitPumpJPEG.h Pages: 1 -->
<!--zoomable 184 -->
<svg id="main" version="1.1" xmlns="http://www.w3.org/2000/svg" xmlns:xlink="http://www.w3.org/1999/xlink" xml:space="preserve" onload="init(evt)">
<style type="text/css"><![CDATA[
.edge:hover path { stroke: red; }
.edge:hover polygon { stroke: red; fill: red; }
]]></style>
<script type="text/javascript"><![CDATA[
var edges = document.getElementsByTagName('g');
if (edges && edges.length) {
  for (var i=0;i<edges.length;i++) {
    if (edges[i].id.substr(0,4)=='edge') {
      edges[i].setAttribute('class','edge');
    }
  }
}
]]></script>
        <defs>
                <circle id="rim" cx="0" cy="0" r="7"/>
                <circle id="rim2" cx="0" cy="0" r="3.5"/>
                <g id="zoomPlus">
                        <use xlink:href="#rim" fill="#404040">
                                <set attributeName="fill" to="#808080" begin="zoomplus.mouseover" end="zoomplus.mouseout"/>
                        </use>
                        <path d="M-4,0h8M0,-4v8" fill="none" stroke="white" stroke-width="1.5" pointer-events="none"/>
                </g>
                <g id="zoomMin">
                        <use xlink:href="#rim" fill="#404040">
                                <set attributeName="fill" to="#808080" begin="zoomminus.mouseover" end="zoomminus.mouseout"/>
                        </use>
                        <path d="M-4,0h8" fill="none" stroke="white" stroke-width="1.5" pointer-events="none"/>
                </g>
                <g id="dirArrow">
                        <path fill="none" stroke="white" stroke-width="1.5" d="M0,-3.0v7 M-2.5,-0.5L0,-3.0L2.5,-0.5"/>
                </g>
               <g id="resetDef">
                       <use xlink:href="#rim2" fill="#404040">
                               <set attributeName="fill" to="#808080" begin="reset.mouseover" end="reset.mouseout"/>
                       </use>
               </g>
        </defs>

<script type="text/javascript">
var viewWidth = 1342;
var viewHeight = 184;
var sectionId = 'dynsection-1';
</script>
<script xlink:href="../../svgpan.js"/>
<svg id="graph" class="graph">
<g id="viewport">
<title>librawspeed/io/BitPumpJPEG.h</title>
<!-- Node1 -->
<g id="node1" class="node">
<title>Node1</title>
<g id="a_node1"><a xlink:title=" ">
<polygon fill="#bfbfbf" stroke="black" points="529,-156.5 529,-175.5 693,-175.5 693,-156.5 529,-156.5"/>
<text text-anchor="middle" x="611" y="-163.5" font-family="Helvetica,sans-Serif" font-size="10.00">librawspeed/io/BitPumpJPEG.h</text>
</a>
</g>
</g>
<!-- Node2 -->
<g id="node2" class="node">
<title>Node2</title>
<g id="a_node2"><a xlink:href="../../db/df9/_bit_stream_benchmark_8cpp.html" target="_top" xlink:title=" ">
<polygon fill="none" stroke="black" points="0,-84 0,-114 218,-114 218,-84 0,-84"/>
<text text-anchor="start" x="8" y="-102" font-family="Helvetica,sans-Serif" font-size="10.00">/build/rawspeed/bench</text>
<text text-anchor="middle" x="109" y="-91" font-family="Helvetica,sans-Serif" font-size="10.00">/librawspeed/io/BitStreamBenchmark.cpp</text>
</a>
</g>
</g>
<!-- Node1&#45;&gt;Node2 -->
<g id="edge1" class="edge">
<title>Node1&#45;&gt;Node2</title>
<path fill="none" stroke="midnightblue" d="M518.55,-155.51C440.66,-147.19 326.36,-134.23 227,-120 214.45,-118.2 201.19,-116.13 188.25,-114.01"/>
<polygon fill="midnightblue" stroke="midnightblue" points="518.5,-159.02 528.82,-156.6 519.24,-152.06 518.5,-159.02"/>
</g>
<!-- Node3 -->
<g id="node3" class="node">
<title>Node3</title>
<g id="a_node3"><a xlink:href="../../d4/d9e/_crw_decompressor_8h.html" target="_top" xlink:title=" ">
<polygon fill="none" stroke="black" points="236.5,-84 236.5,-114 389.5,-114 389.5,-84 236.5,-84"/>
<text text-anchor="start" x="244.5" y="-102" font-family="Helvetica,sans-Serif" font-size="10.00">librawspeed/decompressors</text>
<text text-anchor="middle" x="313" y="-91" font-family="Helvetica,sans-Serif" font-size="10.00">/CrwDecompressor.h</text>
</a>
</g>
</g>
<!-- Node1&#45;&gt;Node3 -->
<g id="edge2" class="edge">
<title>Node1&#45;&gt;Node3</title>
<path fill="none" stroke="midnightblue" d="M561.74,-154.32C519.8,-145.23 457.94,-131.79 404,-120 395.15,-118.07 385.82,-116.02 376.64,-114.01"/>
<polygon fill="midnightblue" stroke="midnightblue" points="561.18,-157.78 571.7,-156.48 562.67,-150.94 561.18,-157.78"/>
</g>
<!-- Node6 -->
<g id="node6" class="node">
<title>Node6</title>
<g id="a_node6"><a xlink:href="../../d0/d91/src_2librawspeed_2decompressors_2_crw_decompressor_8cpp.html" target="_top" xlink:title=" ">
<polygon fill="none" stroke="black" points="366.5,-6 366.5,-36 519.5,-36 519.5,-6 366.5,-6"/>
<text text-anchor="start" x="374.5" y="-24" font-family="Helvetica,sans-Serif" font-size="10.00">librawspeed/decompressors</text>
<text text-anchor="middle" x="443" y="-13" font-family="Helvetica,sans-Serif" font-size="10.00">/CrwDecompressor.cpp</text>
</a>
</g>
</g>
<!-- Node1&#45;&gt;Node6 -->
<g id="edge9" class="edge">
<title>Node1&#45;&gt;Node6</title>
<path fill="none" stroke="midnightblue" d="M535.31,-154.73C494.27,-147.44 449.44,-136.07 437,-120 418.11,-95.6 428.93,-56.72 436.89,-36.02"/>
<polygon fill="midnightblue" stroke="midnightblue" points="534.91,-158.21 545.36,-156.45 536.1,-151.31 534.91,-158.21"/>
</g>
<!-- Node7 -->
<g id="node7" class="node">
<title>Node7</title>
<g id="a_node7"><a xlink:href="../../d7/d34/_dual_8cpp.html" target="_top" xlink:title=" ">
<polygon fill="none" stroke="black" points="446,-78.5 446,-119.5 602,-119.5 602,-78.5 446,-78.5"/>
<text text-anchor="start" x="454" y="-107.5" font-family="Helvetica,sans-Serif" font-size="10.00">/build/rawspeed/fuzz</text>
<text text-anchor="start" x="454" y="-96.5" font-family="Helvetica,sans-Serif" font-size="10.00">/librawspeed/decompressors</text>
<text text-anchor="middle" x="524" y="-85.5" font-family="Helvetica,sans-Serif" font-size="10.00">/HuffmanTable/Dual.cpp</text>
</a>
</g>
</g>
<!-- Node1&#45;&gt;Node7 -->
<g id="edge6" class="edge">
<title>Node1&#45;&gt;Node7</title>
<path fill="none" stroke="midnightblue" d="M591.13,-150.16C578.98,-141.08 563.31,-129.37 550.16,-119.54"/>
<polygon fill="midnightblue" stroke="midnightblue" points="589.16,-153.05 599.27,-156.23 593.35,-147.44 589.16,-153.05"/>
</g>
<!-- Node8 -->
<g id="node8" class="node">
<title>Node8</title>
<g id="a_node8"><a xlink:href="../../d0/d53/_solo_8cpp.html" target="_top" xlink:title=" ">
<polygon fill="none" stroke="black" points="620,-78.5 620,-119.5 776,-119.5 776,-78.5 620,-78.5"/>
<text text-anchor="start" x="628" y="-107.5" font-family="Helvetica,sans-Serif" font-size="10.00">/build/rawspeed/fuzz</text>
<text text-anchor="start" x="628" y="-96.5" font-family="Helvetica,sans-Serif" font-size="10.00">/librawspeed/decompressors</text>
<text text-anchor="middle" x="698" y="-85.5" font-family="Helvetica,sans-Serif" font-size="10.00">/HuffmanTable/Solo.cpp</text>
</a>
</g>
</g>
<!-- Node1&#45;&gt;Node8 -->
<g id="edge7" class="edge">
<title>Node1&#45;&gt;Node8</title>
<path fill="none" stroke="midnightblue" d="M630.87,-150.16C643.02,-141.08 658.69,-129.37 671.84,-119.54"/>
<polygon fill="midnightblue" stroke="midnightblue" points="628.65,-147.44 622.73,-156.23 632.84,-153.05 628.65,-147.44"/>
</g>
<!-- Node9 -->
<g id="node9" class="node">
<title>Node9</title>
<g id="a_node9"><a xlink:href="../../d4/d3f/src_2librawspeed_2decompressors_2_cr2_decompressor_8cpp.html" target="_top" xlink:title=" ">
<polygon fill="none" stroke="black" points="794.5,-84 794.5,-114 947.5,-114 947.5,-84 794.5,-84"/>
<text text-anchor="start" x="802.5" y="-102" font-family="Helvetica,sans-Serif" font-size="10.00">librawspeed/decompressors</text>
<text text-anchor="middle" x="871" y="-91" font-family="Helvetica,sans-Serif" font-size="10.00">/Cr2Decompressor.cpp</text>
</a>
</g>
</g>
<!-- Node1&#45;&gt;Node9 -->
<g id="edge8" class="edge">
<title>Node1&#45;&gt;Node9</title>
<path fill="none" stroke="midnightblue" d="M655.09,-153.98C699.1,-142.97 766.9,-126.02 814.76,-114.06"/>
<polygon fill="midnightblue" stroke="midnightblue" points="654.11,-150.61 645.26,-156.44 655.81,-157.41 654.11,-150.61"/>
</g>
<!-- Node10 -->
<g id="node10" class="node">
<title>Node10</title>
<g id="a_node10"><a xlink:href="../../da/db1/src_2librawspeed_2decompressors_2_l_jpeg_decompressor_8cpp.html" target="_top" xlink:title=" ">
<polygon fill="none" stroke="black" points="965.5,-84 965.5,-114 1118.5,-114 1118.5,-84 965.5,-84"/>
<text text-anchor="start" x="973.5" y="-102" font-family="Helvetica,sans-Serif" font-size="10.00">librawspeed/decompressors</text>
<text text-anchor="middle" x="1042" y="-91" font-family="Helvetica,sans-Serif" font-size="10.00">/LJpegDecompressor.cpp</text>
</a>
</g>
</g>
<!-- Node1&#45;&gt;Node10 -->
<g id="edge10" class="edge">
<title>Node1&#45;&gt;Node10</title>
<path fill="none" stroke="midnightblue" d="M703.26,-155.58C773.2,-147.82 871.51,-135.57 957,-120 966.4,-118.29 976.32,-116.21 985.93,-114.04"/>
<polygon fill="midnightblue" stroke="midnightblue" points="702.71,-152.12 693.16,-156.7 703.48,-159.08 702.71,-152.12"/>
</g>
<!-- Node11 -->
<g id="node11" class="node">
<title>Node11</title>
<g id="a_node11"><a xlink:href="../../d1/d34/_bit_pump_j_p_e_g_test_8cpp.html" target="_top" xlink:title=" ">
<polygon fill="none" stroke="black" points="1136.5,-84 1136.5,-114 1333.5,-114 1333.5,-84 1136.5,-84"/>
<text text-anchor="start" x="1144.5" y="-102" font-family="Helvetica,sans-Serif" font-size="10.00">/build/rawspeed/test</text>
<text text-anchor="middle" x="1235" y="-91" font-family="Helvetica,sans-Serif" font-size="10.00">/librawspeed/io/BitPumpJPEGTest.cpp</text>
</a>
</g>
</g>
<!-- Node1&#45;&gt;Node11 -->
<g id="edge11" class="edge">
<title>Node1&#45;&gt;Node11</title>
<path fill="none" stroke="midnightblue" d="M703.33,-159.7C806.99,-153.12 980.06,-140.22 1128,-120 1140.17,-118.34 1153.06,-116.23 1165.52,-114.01"/>
<polygon fill="midnightblue" stroke="midnightblue" points="702.97,-156.22 693.21,-160.34 703.41,-163.2 702.97,-156.22"/>
</g>
<!-- Node4 -->
<g id="node4" class="node">
<title>Node4</title>
<g id="a_node4"><a xlink:href="../../de/da7/fuzz_2librawspeed_2decompressors_2_crw_decompressor_8cpp.html" target="_top" xlink:title=" ">
<polygon fill="none" stroke="black" points="51,-0.5 51,-41.5 207,-41.5 207,-0.5 51,-0.5"/>
<text text-anchor="start" x="59" y="-29.5" font-family="Helvetica,sans-Serif" font-size="10.00">/build/rawspeed/fuzz</text>
<text text-anchor="start" x="59" y="-18.5" font-family="Helvetica,sans-Serif" font-size="10.00">/librawspeed/decompressors</text>
<text text-anchor="middle" x="129" y="-7.5" font-family="Helvetica,sans-Serif" font-size="10.00">/CrwDecompressor.cpp</text>
</a>
</g>
</g>
<!-- Node3&#45;&gt;Node4 -->
<g id="edge3" class="edge">
<title>Node3&#45;&gt;Node4</title>
<path fill="none" stroke="midnightblue" d="M269.32,-79.96C241.39,-68.42 205.17,-53.46 176.52,-41.63"/>
<polygon fill="midnightblue" stroke="midnightblue" points="268.24,-83.3 278.82,-83.88 270.92,-76.83 268.24,-83.3"/>
</g>
<!-- Node5 -->
<g id="node5" class="node">
<title>Node5</title>
<g id="a_node5"><a xlink:href="../../d0/dc9/_crw_decoder_8cpp.html" target="_top" xlink:title=" ">
<polygon fill="none" stroke="black" points="225.5,-6 225.5,-36 348.5,-36 348.5,-6 225.5,-6"/>
<text text-anchor="start" x="233.5" y="-24" font-family="Helvetica,sans-Serif" font-size="10.00">librawspeed/decoders</text>
<text text-anchor="middle" x="287" y="-13" font-family="Helvetica,sans-Serif" font-size="10.00">/CrwDecoder.cpp</text>
</a>
</g>
</g>
<!-- Node3&#45;&gt;Node5 -->
<g id="edge4" class="edge">
<title>Node3&#45;&gt;Node5</title>
<path fill="none" stroke="midnightblue" d="M304.78,-73.96C300.53,-61.55 295.49,-46.83 291.87,-36.23"/>
<polygon fill="midnightblue" stroke="midnightblue" points="301.56,-75.38 308.11,-83.7 308.18,-73.11 301.56,-75.38"/>
</g>
<!-- Node3&#45;&gt;Node6 -->
<g id="edge5" class="edge">
<title>Node3&#45;&gt;Node6</title>
<path fill="none" stroke="midnightblue" d="M345.81,-78.82C368.58,-65.51 398.41,-48.07 418.98,-36.04"/>
<polygon fill="midnightblue" stroke="midnightblue" points="344.01,-75.81 337.15,-83.88 347.55,-81.86 344.01,-75.81"/>
</g>
</g>
</svg>
        <g id="navigator" transform="translate(0 0)" fill="#404254">
                <rect fill="#f2f5e9" fill-opacity="0.5" stroke="#606060" stroke-width=".5" x="0" y="0" width="60" height="60"/>
                <use id="zoomplus" xlink:href="#zoomPlus" x="17" y="9" onmousedown="handleZoom(evt,'in')"/>
                <use id="zoomminus" xlink:href="#zoomMin" x="42" y="9" onmousedown="handleZoom(evt,'out')"/>
                <use id="reset" xlink:href="#resetDef" x="30" y="36" onmousedown="handleReset()"/>
                <g id="arrowUp" xlink:href="#dirArrow" transform="translate(30 24)" onmousedown="handlePan(0,-1)">
                  <use xlink:href="#rim" fill="#404040">
                        <set attributeName="fill" to="#808080" begin="arrowUp.mouseover" end="arrowUp.mouseout"/>
                  </use>
                  <path fill="none" stroke="white" stroke-width="1.5" d="M0,-3.0v7 M-2.5,-0.5L0,-3.0L2.5,-0.5"/>
                </g>
                <g id="arrowRight" xlink:href="#dirArrow" transform="rotate(90) translate(36 -43)" onmousedown="handlePan(1,0)">
                  <use xlink:href="#rim" fill="#404040">
                        <set attributeName="fill" to="#808080" begin="arrowRight.mouseover" end="arrowRight.mouseout"/>
                  </use>
                  <path fill="none" stroke="white" stroke-width="1.5" d="M0,-3.0v7 M-2.5,-0.5L0,-3.0L2.5,-0.5"/>
                </g>
                <g id="arrowDown" xlink:href="#dirArrow" transform="rotate(180) translate(-30 -48)" onmousedown="handlePan(0,1)">
                  <use xlink:href="#rim" fill="#404040">
                        <set attributeName="fill" to="#808080" begin="arrowDown.mouseover" end="arrowDown.mouseout"/>
                  </use>
                  <path fill="none" stroke="white" stroke-width="1.5" d="M0,-3.0v7 M-2.5,-0.5L0,-3.0L2.5,-0.5"/>
                </g>
                <g id="arrowLeft" xlink:href="#dirArrow" transform="rotate(270) translate(-36 17)" onmousedown="handlePan(-1,0)">
                  <use xlink:href="#rim" fill="#404040">
                        <set attributeName="fill" to="#808080" begin="arrowLeft.mouseover" end="arrowLeft.mouseout"/>
                  </use>
                  <path fill="none" stroke="white" stroke-width="1.5" d="M0,-3.0v7 M-2.5,-0.5L0,-3.0L2.5,-0.5"/>
                </g>
        </g>
        <svg viewBox="0 0 15 15" width="100%" height="30px" preserveAspectRatio="xMaxYMin meet">
         <g id="arrow_out" transform="scale(0.3 0.3)">
          <a xlink:href="_bit_pump_j_p_e_g_8h__dep__incl_org.svg" target="_base">
           <rect id="button" ry="5" rx="5" y="6" x="6" height="38" width="38"
                fill="#f2f5e9" fill-opacity="0.5" stroke="#606060" stroke-width="1.0"/>
           <path id="arrow"
             d="M 11.500037,31.436501 C 11.940474,20.09759 22.043105,11.32322 32.158766,21.979434 L 37.068811,17.246167 C 37.068811,17.246167 37.088388,32 37.088388,32 L 22.160133,31.978069 C 22.160133,31.978069 26.997745,27.140456 26.997745,27.140456 C 18.528582,18.264221 13.291696,25.230495 11.500037,31.436501 z"
             style="fill:#404040;"/>
          </a>
         </g>
        </svg>
</svg>
