<?xml version="1.0" encoding="UTF-8" standalone="no"?>
<!DOCTYPE svg PUBLIC "-//W3C//DTD SVG 1.1//EN"
 "http://www.w3.org/Graphics/SVG/1.1/DTD/svg11.dtd">
<!-- Generated by graphviz version 2.43.0 (0)
 -->
<!-- Title: rawspeed::DngOpcodes::DeltaRowOrColBase::DeltaRowOrColBase Pages: 1 -->
<svg width="1172pt" height="488pt"
 viewBox="0.00 0.00 1172.00 488.23" xmlns="http://www.w3.org/2000/svg" xmlns:xlink="http://www.w3.org/1999/xlink">
<g id="graph0" class="graph" transform="scale(1 1) rotate(0) translate(4 484.23)">
<title>rawspeed::DngOpcodes::DeltaRowOrColBase::DeltaRowOrColBase</title>
<!-- Node1 -->
<g id="node1" class="node">
<title>Node1</title>
<g id="a_node1"><a xlink:title=" ">
<polygon fill="#bfbfbf" stroke="black" points="0,-351.23 0,-392.23 131,-392.23 131,-351.23 0,-351.23"/>
<text text-anchor="start" x="8" y="-380.23" font-family="Helvetica,sans-Serif" font-size="10.00">rawspeed::DngOpcodes</text>
<text text-anchor="start" x="8" y="-369.23" font-family="Helvetica,sans-Serif" font-size="10.00">::DeltaRowOrColBase::</text>
<text text-anchor="middle" x="65.5" y="-358.23" font-family="Helvetica,sans-Serif" font-size="10.00">DeltaRowOrColBase</text>
</a>
</g>
</g>
<!-- Node2 -->
<g id="node2" class="node">
<title>Node2</title>
<g id="a_node2"><a xlink:href="../../d5/dcb/classrawspeed_1_1_dng_opcodes_1_1_pixel_opcode.html#a2d4cef258692d4e1609527e09b51c8f1" target="_top" xlink:title=" ">
<polygon fill="none" stroke="black" points="167,-356.73 167,-386.73 317,-386.73 317,-356.73 167,-356.73"/>
<text text-anchor="start" x="175" y="-374.73" font-family="Helvetica,sans-Serif" font-size="10.00">rawspeed::DngOpcodes</text>
<text text-anchor="middle" x="242" y="-363.73" font-family="Helvetica,sans-Serif" font-size="10.00">::PixelOpcode::PixelOpcode</text>
</a>
</g>
</g>
<!-- Node1&#45;&gt;Node2 -->
<g id="edge1" class="edge">
<title>Node1&#45;&gt;Node2</title>
<path fill="none" stroke="midnightblue" d="M131.48,-371.73C139.68,-371.73 148.15,-371.73 156.6,-371.73"/>
<polygon fill="midnightblue" stroke="midnightblue" points="156.86,-375.23 166.86,-371.73 156.86,-368.23 156.86,-375.23"/>
</g>
<!-- Node3 -->
<g id="node3" class="node">
<title>Node3</title>
<g id="a_node3"><a xlink:href="../../df/dc9/classrawspeed_1_1_dng_opcodes_1_1_r_o_i_opcode.html#a2ca1b972bdced92fb2d26f50fe498c9f" target="_top" xlink:title=" ">
<polygon fill="none" stroke="black" points="353,-449.73 353,-479.73 499,-479.73 499,-449.73 353,-449.73"/>
<text text-anchor="start" x="361" y="-467.73" font-family="Helvetica,sans-Serif" font-size="10.00">rawspeed::DngOpcodes</text>
<text text-anchor="middle" x="426" y="-456.73" font-family="Helvetica,sans-Serif" font-size="10.00">::ROIOpcode::__attribute__</text>
</a>
</g>
</g>
<!-- Node2&#45;&gt;Node3 -->
<g id="edge2" class="edge">
<title>Node2&#45;&gt;Node3</title>
<path fill="none" stroke="midnightblue" d="M263.64,-386.78C285.13,-401.94 320.18,-425.23 353,-440.73 357,-442.61 361.18,-444.42 365.43,-446.13"/>
<polygon fill="midnightblue" stroke="midnightblue" points="364.23,-449.41 374.82,-449.72 366.73,-442.87 364.23,-449.41"/>
</g>
<!-- Node4 -->
<g id="node4" class="node">
<title>Node4</title>
<g id="a_node4"><a xlink:href="../../dc/d44/classrawspeed_1_1_raw_image_data.html#a1d9a712a918374327fe3fe791318912f" target="_top" xlink:title=" ">
<polygon fill="none" stroke="black" points="353.5,-400.73 353.5,-430.73 498.5,-430.73 498.5,-400.73 353.5,-400.73"/>
<text text-anchor="start" x="361.5" y="-418.73" font-family="Helvetica,sans-Serif" font-size="10.00">rawspeed::RawImageData</text>
<text text-anchor="middle" x="426" y="-407.73" font-family="Helvetica,sans-Serif" font-size="10.00">::getCpp</text>
</a>
</g>
</g>
<!-- Node2&#45;&gt;Node4 -->
<g id="edge3" class="edge">
<title>Node2&#45;&gt;Node4</title>
<path fill="none" stroke="midnightblue" d="M305.13,-386.75C320.56,-390.48 337.23,-394.51 353.09,-398.34"/>
<polygon fill="midnightblue" stroke="midnightblue" points="352.3,-401.75 362.85,-400.7 353.95,-394.95 352.3,-401.75"/>
</g>
<!-- Node5 -->
<g id="node5" class="node">
<title>Node5</title>
<g id="a_node5"><a xlink:href="../../dd/da0/classrawspeed_1_1_byte_stream.html#ac598b7b6f0f8fd5476adb7c1363b1518" target="_top" xlink:title=" ">
<polygon fill="none" stroke="black" points="542,-367.73 542,-397.73 670,-397.73 670,-367.73 542,-367.73"/>
<text text-anchor="start" x="550" y="-385.73" font-family="Helvetica,sans-Serif" font-size="10.00">rawspeed::ByteStream</text>
<text text-anchor="middle" x="606" y="-374.73" font-family="Helvetica,sans-Serif" font-size="10.00">::getU32</text>
</a>
</g>
</g>
<!-- Node2&#45;&gt;Node5 -->
<g id="edge4" class="edge">
<title>Node2&#45;&gt;Node5</title>
<path fill="none" stroke="midnightblue" d="M317.13,-373.98C379.83,-375.88 469.19,-378.6 531.67,-380.5"/>
<polygon fill="midnightblue" stroke="midnightblue" points="531.74,-384 541.84,-380.81 531.95,-377 531.74,-384"/>
</g>
<!-- Node6 -->
<g id="node6" class="node">
<title>Node6</title>
<g id="a_node6"><a xlink:href="../../dd/d12/classrawspeed_1_1_raw_image.html#a2907002b5c707eca6939061f8b0d5e5d" target="_top" xlink:title=" ">
<polygon fill="none" stroke="black" points="545,-318.73 545,-348.73 667,-348.73 667,-318.73 545,-318.73"/>
<text text-anchor="start" x="553" y="-336.73" font-family="Helvetica,sans-Serif" font-size="10.00">rawspeed::RawImage</text>
<text text-anchor="middle" x="606" y="-325.73" font-family="Helvetica,sans-Serif" font-size="10.00">::operator&#45;&gt;</text>
</a>
</g>
</g>
<!-- Node2&#45;&gt;Node6 -->
<g id="edge5" class="edge">
<title>Node2&#45;&gt;Node6</title>
<path fill="none" stroke="midnightblue" d="M317.13,-363.94C380.81,-357.26 471.99,-347.69 534.57,-341.12"/>
<polygon fill="midnightblue" stroke="midnightblue" points="535.17,-344.58 544.75,-340.05 534.44,-337.61 535.17,-344.58"/>
</g>
<!-- Node7 -->
<g id="node7" class="node">
<title>Node7</title>
<g id="a_node7"><a xlink:href="../../df/dc9/classrawspeed_1_1_dng_opcodes_1_1_r_o_i_opcode.html#a18543c8017b64d69566acc55164af4cc" target="_top" xlink:title=" ">
<polygon fill="none" stroke="black" points="357.5,-206.73 357.5,-236.73 494.5,-236.73 494.5,-206.73 357.5,-206.73"/>
<text text-anchor="start" x="365.5" y="-224.73" font-family="Helvetica,sans-Serif" font-size="10.00">rawspeed::DngOpcodes</text>
<text text-anchor="middle" x="426" y="-213.73" font-family="Helvetica,sans-Serif" font-size="10.00">::ROIOpcode::ROIOpcode</text>
</a>
</g>
</g>
<!-- Node2&#45;&gt;Node7 -->
<g id="edge6" class="edge">
<title>Node2&#45;&gt;Node7</title>
<path fill="none" stroke="midnightblue" d="M261.45,-356.52C293.97,-329.72 361.55,-274.02 398.85,-243.28"/>
<polygon fill="midnightblue" stroke="midnightblue" points="401.28,-245.81 406.77,-236.75 396.83,-240.41 401.28,-245.81"/>
</g>
<!-- Node7&#45;&gt;Node5 -->
<g id="edge7" class="edge">
<title>Node7&#45;&gt;Node5</title>
<path fill="none" stroke="midnightblue" d="M434.98,-236.83C450.53,-264.85 487.56,-325.09 535,-358.73 537.11,-360.22 539.32,-361.63 541.6,-362.96"/>
<polygon fill="midnightblue" stroke="midnightblue" points="540.21,-366.18 550.7,-367.67 543.43,-359.96 540.21,-366.18"/>
</g>
<!-- Node7&#45;&gt;Node6 -->
<g id="edge21" class="edge">
<title>Node7&#45;&gt;Node6</title>
<path fill="none" stroke="midnightblue" d="M444.03,-236.77C464.56,-254.39 500.62,-283.71 535,-303.73 541.52,-307.52 548.61,-311.12 555.7,-314.41"/>
<polygon fill="midnightblue" stroke="midnightblue" points="554.74,-317.82 565.3,-318.71 557.6,-311.43 554.74,-317.82"/>
</g>
<!-- Node8 -->
<g id="node8" class="node">
<title>Node8</title>
<g id="a_node8"><a xlink:href="../../d8/d75/classrawspeed_1_1i_point2_d.html#ab980cc8ab2f3502a5a2c230530ba2a64" target="_top" xlink:title=" ">
<polygon fill="none" stroke="black" points="1053,-176.73 1053,-206.73 1164,-206.73 1164,-176.73 1053,-176.73"/>
<text text-anchor="start" x="1061" y="-194.73" font-family="Helvetica,sans-Serif" font-size="10.00">rawspeed::iPoint2D</text>
<text text-anchor="middle" x="1108.5" y="-183.73" font-family="Helvetica,sans-Serif" font-size="10.00">::iPoint2D</text>
</a>
</g>
</g>
<!-- Node7&#45;&gt;Node8 -->
<g id="edge8" class="edge">
<title>Node7&#45;&gt;Node8</title>
<path fill="none" stroke="midnightblue" d="M430.29,-206.72C439.37,-169.48 468.6,-73.06 535,-34.73 724.85,74.86 994.42,-106.03 1080.19,-170.36"/>
<polygon fill="midnightblue" stroke="midnightblue" points="1078.29,-173.31 1088.37,-176.56 1082.52,-167.73 1078.29,-173.31"/>
</g>
<!-- Node9 -->
<g id="node9" class="node">
<title>Node9</title>
<g id="a_node9"><a xlink:href="../../d6/d8f/classrawspeed_1_1i_rectangle2_d.html#a7ec79d6a8dc1f04262729c2d4fd528d3" target="_top" xlink:title=" ">
<polygon fill="none" stroke="black" points="883,-269.73 883,-299.73 1017,-299.73 1017,-269.73 883,-269.73"/>
<text text-anchor="start" x="891" y="-287.73" font-family="Helvetica,sans-Serif" font-size="10.00">rawspeed::iRectangle2D</text>
<text text-anchor="middle" x="950" y="-276.73" font-family="Helvetica,sans-Serif" font-size="10.00">::iRectangle2D</text>
</a>
</g>
</g>
<!-- Node7&#45;&gt;Node9 -->
<g id="edge9" class="edge">
<title>Node7&#45;&gt;Node9</title>
<path fill="none" stroke="midnightblue" d="M452.6,-236.82C473.87,-248.49 505.33,-263.78 535,-270.73 650.28,-297.7 788.51,-295.77 872.49,-290.96"/>
<polygon fill="midnightblue" stroke="midnightblue" points="872.94,-294.44 882.71,-290.34 872.52,-287.45 872.94,-294.44"/>
</g>
<!-- Node10 -->
<g id="node10" class="node">
<title>Node10</title>
<g id="a_node10"><a xlink:href="../../d6/d8f/classrawspeed_1_1i_rectangle2_d.html#a8e5d729239ce4ebabfc221d463a3c79e" target="_top" xlink:title=" ">
<polygon fill="none" stroke="black" points="539,-132.73 539,-162.73 673,-162.73 673,-132.73 539,-132.73"/>
<text text-anchor="start" x="547" y="-150.73" font-family="Helvetica,sans-Serif" font-size="10.00">rawspeed::iRectangle2D</text>
<text text-anchor="middle" x="606" y="-139.73" font-family="Helvetica,sans-Serif" font-size="10.00">::isPointInsideInclusive</text>
</a>
</g>
</g>
<!-- Node7&#45;&gt;Node10 -->
<g id="edge11" class="edge">
<title>Node7&#45;&gt;Node10</title>
<path fill="none" stroke="midnightblue" d="M458.36,-206.66C479.76,-196.6 508.85,-183.31 535,-172.73 540.36,-170.56 546,-168.38 551.64,-166.26"/>
<polygon fill="midnightblue" stroke="midnightblue" points="552.93,-169.52 561.1,-162.77 550.51,-162.95 552.93,-169.52"/>
</g>
<!-- Node14 -->
<g id="node14" class="node">
<title>Node14</title>
<g id="a_node14"><a xlink:href="../../d8/d75/classrawspeed_1_1i_point2_d.html#a16873af73bf76858d0f31c2b7802c310" target="_top" xlink:title=" ">
<polygon fill="none" stroke="black" points="724.5,-88.73 724.5,-118.73 835.5,-118.73 835.5,-88.73 724.5,-88.73"/>
<text text-anchor="start" x="732.5" y="-106.73" font-family="Helvetica,sans-Serif" font-size="10.00">rawspeed::iPoint2D</text>
<text text-anchor="middle" x="780" y="-95.73" font-family="Helvetica,sans-Serif" font-size="10.00">::operator&gt;=</text>
</a>
</g>
</g>
<!-- Node7&#45;&gt;Node14 -->
<g id="edge22" class="edge">
<title>Node7&#45;&gt;Node14</title>
<path fill="none" stroke="midnightblue" d="M437.92,-206.69C455.46,-183.89 492.31,-141.27 535,-122.73 591.88,-98.02 663.21,-95.31 714.02,-97.54"/>
<polygon fill="midnightblue" stroke="midnightblue" points="714.05,-101.05 724.22,-98.07 714.42,-94.06 714.05,-101.05"/>
</g>
<!-- Node15 -->
<g id="node15" class="node">
<title>Node15</title>
<g id="a_node15"><a xlink:href="../../d6/d8f/classrawspeed_1_1i_rectangle2_d.html#a5fa041d0ecfb6fe7538f73c735cdb42c" target="_top" xlink:title=" ">
<polygon fill="none" stroke="black" points="539,-181.73 539,-211.73 673,-211.73 673,-181.73 539,-181.73"/>
<text text-anchor="start" x="547" y="-199.73" font-family="Helvetica,sans-Serif" font-size="10.00">rawspeed::iRectangle2D</text>
<text text-anchor="middle" x="606" y="-188.73" font-family="Helvetica,sans-Serif" font-size="10.00">::isThisInside</text>
</a>
</g>
</g>
<!-- Node7&#45;&gt;Node15 -->
<g id="edge17" class="edge">
<title>Node7&#45;&gt;Node15</title>
<path fill="none" stroke="midnightblue" d="M494.55,-212.24C505.81,-210.66 517.55,-209.01 529,-207.4"/>
<polygon fill="midnightblue" stroke="midnightblue" points="529.55,-210.86 538.97,-206 528.58,-203.92 529.55,-210.86"/>
</g>
<!-- Node16 -->
<g id="node16" class="node">
<title>Node16</title>
<g id="a_node16"><a xlink:href="../../d6/d8f/classrawspeed_1_1i_rectangle2_d.html#a85b5a792f7646c485c87068744ec99a8" target="_top" xlink:title=" ">
<polygon fill="none" stroke="black" points="535,-230.73 535,-260.73 677,-260.73 677,-230.73 535,-230.73"/>
<text text-anchor="start" x="543" y="-248.73" font-family="Helvetica,sans-Serif" font-size="10.00">rawspeed::iRectangle2D</text>
<text text-anchor="middle" x="606" y="-237.73" font-family="Helvetica,sans-Serif" font-size="10.00">::setBottomRightAbsolute</text>
</a>
</g>
</g>
<!-- Node7&#45;&gt;Node16 -->
<g id="edge23" class="edge">
<title>Node7&#45;&gt;Node16</title>
<path fill="none" stroke="midnightblue" d="M494.55,-230.83C504.43,-232.17 514.69,-233.55 524.8,-234.91"/>
<polygon fill="midnightblue" stroke="midnightblue" points="524.46,-238.4 534.83,-236.27 525.39,-231.46 524.46,-238.4"/>
</g>
<!-- Node18 -->
<g id="node18" class="node">
<title>Node18</title>
<g id="a_node18"><a xlink:href="../../d6/d8f/classrawspeed_1_1i_rectangle2_d.html#a20ef43ce186cdd3bd63929eeb6c727d9" target="_top" xlink:title=" ">
<polygon fill="none" stroke="black" points="539,-44.73 539,-74.73 673,-74.73 673,-44.73 539,-44.73"/>
<text text-anchor="start" x="547" y="-62.73" font-family="Helvetica,sans-Serif" font-size="10.00">rawspeed::iRectangle2D</text>
<text text-anchor="middle" x="606" y="-51.73" font-family="Helvetica,sans-Serif" font-size="10.00">::setTopLeft</text>
</a>
</g>
</g>
<!-- Node7&#45;&gt;Node18 -->
<g id="edge26" class="edge">
<title>Node7&#45;&gt;Node18</title>
<path fill="none" stroke="midnightblue" d="M435.87,-206.67C452.33,-179.88 490.04,-123.55 535,-89.73 540.13,-85.87 545.83,-82.39 551.71,-79.29"/>
<polygon fill="midnightblue" stroke="midnightblue" points="553.58,-82.28 561.02,-74.74 550.5,-75.99 553.58,-82.28"/>
</g>
<!-- Node9&#45;&gt;Node8 -->
<g id="edge10" class="edge">
<title>Node9&#45;&gt;Node8</title>
<path fill="none" stroke="midnightblue" d="M981.91,-269.62C993.1,-263.94 1005.75,-257.27 1017,-250.73 1037.43,-238.84 1059.68,-224.36 1077.01,-212.72"/>
<polygon fill="midnightblue" stroke="midnightblue" points="1079.26,-215.42 1085.58,-206.92 1075.34,-209.62 1079.26,-215.42"/>
</g>
<!-- Node11 -->
<g id="node11" class="node">
<title>Node11</title>
<g id="a_node11"><a xlink:href="../../d6/d8f/classrawspeed_1_1i_rectangle2_d.html#ad6ae3f2ed094abc10d38b954af7e5b99" target="_top" xlink:title=" ">
<polygon fill="none" stroke="black" points="713,-137.73 713,-167.73 847,-167.73 847,-137.73 713,-137.73"/>
<text text-anchor="start" x="721" y="-155.73" font-family="Helvetica,sans-Serif" font-size="10.00">rawspeed::iRectangle2D</text>
<text text-anchor="middle" x="780" y="-144.73" font-family="Helvetica,sans-Serif" font-size="10.00">::getBottomRight</text>
</a>
</g>
</g>
<!-- Node10&#45;&gt;Node11 -->
<g id="edge12" class="edge">
<title>Node10&#45;&gt;Node11</title>
<path fill="none" stroke="midnightblue" d="M673.01,-149.64C682.71,-149.93 692.77,-150.22 702.66,-150.51"/>
<polygon fill="midnightblue" stroke="midnightblue" points="702.79,-154.01 712.88,-150.8 702.99,-147.01 702.79,-154.01"/>
</g>
<!-- Node13 -->
<g id="node13" class="node">
<title>Node13</title>
<g id="a_node13"><a xlink:href="../../d8/d75/classrawspeed_1_1i_point2_d.html#a368d3167882bee5c5d42813d99a17c56" target="_top" xlink:title=" ">
<polygon fill="none" stroke="black" points="724.5,-186.73 724.5,-216.73 835.5,-216.73 835.5,-186.73 724.5,-186.73"/>
<text text-anchor="start" x="732.5" y="-204.73" font-family="Helvetica,sans-Serif" font-size="10.00">rawspeed::iPoint2D</text>
<text text-anchor="middle" x="780" y="-193.73" font-family="Helvetica,sans-Serif" font-size="10.00">::operator&lt;=</text>
</a>
</g>
</g>
<!-- Node10&#45;&gt;Node13 -->
<g id="edge15" class="edge">
<title>Node10&#45;&gt;Node13</title>
<path fill="none" stroke="midnightblue" d="M654.91,-162.77C675.51,-169.24 699.77,-176.85 721.35,-183.62"/>
<polygon fill="midnightblue" stroke="midnightblue" points="720.46,-187.01 731.05,-186.67 722.55,-180.34 720.46,-187.01"/>
</g>
<!-- Node10&#45;&gt;Node14 -->
<g id="edge16" class="edge">
<title>Node10&#45;&gt;Node14</title>
<path fill="none" stroke="midnightblue" d="M665.71,-132.71C681.43,-128.69 698.5,-124.32 714.51,-120.22"/>
<polygon fill="midnightblue" stroke="midnightblue" points="715.5,-123.58 724.32,-117.71 713.76,-116.8 715.5,-123.58"/>
</g>
<!-- Node12 -->
<g id="node12" class="node">
<title>Node12</title>
<g id="a_node12"><a xlink:href="../../d8/d75/classrawspeed_1_1i_point2_d.html#aed6c2f5995cd12a0bb27e6d7e2d88fdb" target="_top" xlink:title=" ">
<polygon fill="none" stroke="black" points="894.5,-142.73 894.5,-172.73 1005.5,-172.73 1005.5,-142.73 894.5,-142.73"/>
<text text-anchor="start" x="902.5" y="-160.73" font-family="Helvetica,sans-Serif" font-size="10.00">rawspeed::iPoint2D</text>
<text text-anchor="middle" x="950" y="-149.73" font-family="Helvetica,sans-Serif" font-size="10.00">::operator+</text>
</a>
</g>
</g>
<!-- Node11&#45;&gt;Node12 -->
<g id="edge13" class="edge">
<title>Node11&#45;&gt;Node12</title>
<path fill="none" stroke="midnightblue" d="M847.4,-154.7C859.58,-155.06 872.28,-155.44 884.4,-155.8"/>
<polygon fill="midnightblue" stroke="midnightblue" points="884.33,-159.3 894.43,-156.1 884.54,-152.31 884.33,-159.3"/>
</g>
<!-- Node12&#45;&gt;Node8 -->
<g id="edge14" class="edge">
<title>Node12&#45;&gt;Node8</title>
<path fill="none" stroke="midnightblue" d="M1005.74,-169.62C1017.77,-172.23 1030.62,-175.02 1043,-177.71"/>
<polygon fill="midnightblue" stroke="midnightblue" points="1042.28,-181.14 1052.79,-179.84 1043.77,-174.3 1042.28,-181.14"/>
</g>
<!-- Node15&#45;&gt;Node11 -->
<g id="edge18" class="edge">
<title>Node15&#45;&gt;Node11</title>
<path fill="none" stroke="midnightblue" d="M665.71,-181.71C680.02,-178.05 695.46,-174.1 710.19,-170.33"/>
<polygon fill="midnightblue" stroke="midnightblue" points="711.44,-173.62 720.26,-167.75 709.71,-166.84 711.44,-173.62"/>
</g>
<!-- Node15&#45;&gt;Node13 -->
<g id="edge19" class="edge">
<title>Node15&#45;&gt;Node13</title>
<path fill="none" stroke="midnightblue" d="M673.01,-198.64C686.52,-199.04 700.73,-199.45 714.2,-199.84"/>
<polygon fill="midnightblue" stroke="midnightblue" points="714.24,-203.34 724.33,-200.14 714.44,-196.35 714.24,-203.34"/>
</g>
<!-- Node15&#45;&gt;Node14 -->
<g id="edge20" class="edge">
<title>Node15&#45;&gt;Node14</title>
<path fill="none" stroke="midnightblue" d="M661.28,-181.64C666.81,-179.08 672.17,-176.13 677,-172.73 697.95,-157.99 692.19,-142.66 713,-127.73 715.08,-126.23 717.26,-124.82 719.52,-123.49"/>
<polygon fill="midnightblue" stroke="midnightblue" points="721.29,-126.51 728.51,-118.75 718.03,-120.32 721.29,-126.51"/>
</g>
<!-- Node17 -->
<g id="node17" class="node">
<title>Node17</title>
<g id="a_node17"><a xlink:href="../../d8/d75/classrawspeed_1_1i_point2_d.html#a3c2f09435c8e2610e80b6e5f7f9c0705" target="_top" xlink:title=" ">
<polygon fill="none" stroke="black" points="894.5,-210.73 894.5,-240.73 1005.5,-240.73 1005.5,-210.73 894.5,-210.73"/>
<text text-anchor="start" x="902.5" y="-228.73" font-family="Helvetica,sans-Serif" font-size="10.00">rawspeed::iPoint2D</text>
<text text-anchor="middle" x="950" y="-217.73" font-family="Helvetica,sans-Serif" font-size="10.00">::operator&#45;</text>
</a>
</g>
</g>
<!-- Node16&#45;&gt;Node17 -->
<g id="edge24" class="edge">
<title>Node16&#45;&gt;Node17</title>
<path fill="none" stroke="midnightblue" d="M677.03,-241.63C737.69,-238.08 824.74,-232.99 883.9,-229.53"/>
<polygon fill="midnightblue" stroke="midnightblue" points="884.47,-233.01 894.25,-228.93 884.06,-226.02 884.47,-233.01"/>
</g>
<!-- Node17&#45;&gt;Node8 -->
<g id="edge25" class="edge">
<title>Node17&#45;&gt;Node8</title>
<path fill="none" stroke="midnightblue" d="M1005.74,-213.83C1017.77,-211.22 1030.62,-208.43 1043,-205.74"/>
<polygon fill="midnightblue" stroke="midnightblue" points="1043.77,-209.15 1052.79,-203.61 1042.28,-202.31 1043.77,-209.15"/>
</g>
</g>
</svg>
