<?xml version="1.0" encoding="UTF-8" standalone="no"?>
<!DOCTYPE svg PUBLIC "-//W3C//DTD SVG 1.1//EN"
 "http://www.w3.org/Graphics/SVG/1.1/DTD/svg11.dtd">
<!-- Generated by graphviz version 2.43.0 (0)
 -->
<!-- Title: rawspeed::DngOpcodes::PixelOpcode Pages: 1 -->
<svg width="292pt" height="384pt"
 viewBox="0.00 0.00 291.50 384.00" xmlns="http://www.w3.org/2000/svg" xmlns:xlink="http://www.w3.org/1999/xlink">
<g id="graph0" class="graph" transform="scale(1 1) rotate(0) translate(4 380)">
<title>rawspeed::DngOpcodes::PixelOpcode</title>
<!-- Node1 -->
<g id="node1" class="node">
<title>Node1</title>
<g id="a_node1"><a xlink:title=" ">
<polygon fill="#bfbfbf" stroke="black" points="72,-0.5 72,-30.5 203,-30.5 203,-0.5 72,-0.5"/>
<text text-anchor="start" x="80" y="-18.5" font-family="Helvetica,sans-Serif" font-size="10.00">rawspeed::DngOpcodes</text>
<text text-anchor="middle" x="137.5" y="-7.5" font-family="Helvetica,sans-Serif" font-size="10.00">::PixelOpcode</text>
</a>
</g>
</g>
<!-- Node2 -->
<g id="node2" class="node">
<title>Node2</title>
<g id="a_node2"><a xlink:href="../../df/dc9/classrawspeed_1_1_dng_opcodes_1_1_r_o_i_opcode.html" target="_top" xlink:title=" ">
<polygon fill="none" stroke="black" points="16,-111.5 16,-141.5 147,-141.5 147,-111.5 16,-111.5"/>
<text text-anchor="start" x="24" y="-129.5" font-family="Helvetica,sans-Serif" font-size="10.00">rawspeed::DngOpcodes</text>
<text text-anchor="middle" x="81.5" y="-118.5" font-family="Helvetica,sans-Serif" font-size="10.00">::ROIOpcode</text>
</a>
</g>
</g>
<!-- Node2&#45;&gt;Node1 -->
<g id="edge1" class="edge">
<title>Node2&#45;&gt;Node1</title>
<path fill="none" stroke="midnightblue" d="M93.54,-102.07C104.68,-80.39 120.87,-48.87 130.18,-30.75"/>
<polygon fill="midnightblue" stroke="midnightblue" points="90.28,-100.76 88.82,-111.25 96.5,-103.95 90.28,-100.76"/>
</g>
<!-- Node3 -->
<g id="node3" class="node">
<title>Node3</title>
<g id="a_node3"><a xlink:href="../../dd/d5f/classrawspeed_1_1_dng_opcodes_1_1_dng_opcode.html" target="_top" xlink:title=" ">
<polygon fill="none" stroke="black" points="0,-189.5 0,-219.5 131,-219.5 131,-189.5 0,-189.5"/>
<text text-anchor="start" x="8" y="-207.5" font-family="Helvetica,sans-Serif" font-size="10.00">rawspeed::DngOpcodes</text>
<text text-anchor="middle" x="65.5" y="-196.5" font-family="Helvetica,sans-Serif" font-size="10.00">::DngOpcode</text>
</a>
</g>
</g>
<!-- Node3&#45;&gt;Node2 -->
<g id="edge2" class="edge">
<title>Node3&#45;&gt;Node2</title>
<path fill="none" stroke="midnightblue" d="M70.64,-179.09C73.24,-166.76 76.3,-152.22 78.5,-141.73"/>
<polygon fill="midnightblue" stroke="midnightblue" points="67.14,-178.7 68.51,-189.2 73.99,-180.14 67.14,-178.7"/>
</g>
<!-- Node4 -->
<g id="node4" class="node">
<title>Node4</title>
<g id="a_node4"><a xlink:href="../../d6/d8f/classrawspeed_1_1i_rectangle2_d.html" target="_top" xlink:title=" ">
<polygon fill="none" stroke="black" points="149.5,-195 149.5,-214 283.5,-214 283.5,-195 149.5,-195"/>
<text text-anchor="middle" x="216.5" y="-202" font-family="Helvetica,sans-Serif" font-size="10.00">rawspeed::iRectangle2D</text>
</a>
</g>
</g>
<!-- Node4&#45;&gt;Node2 -->
<g id="edge3" class="edge">
<title>Node4&#45;&gt;Node2</title>
<path fill="none" stroke="#9a32cd" stroke-dasharray="5,2" d="M192.38,-189.92C168.17,-176.29 131.04,-155.39 106.51,-141.58"/>
<polygon fill="#9a32cd" stroke="#9a32cd" points="190.85,-193.07 201.28,-194.93 194.28,-186.97 190.85,-193.07"/>
<text text-anchor="middle" x="165.5" y="-163" font-family="Helvetica,sans-Serif" font-size="10.00"> roi</text>
</g>
<!-- Node5 -->
<g id="node5" class="node">
<title>Node5</title>
<g id="a_node5"><a xlink:href="../../d8/d75/classrawspeed_1_1i_point2_d.html" target="_top" xlink:title=" ">
<polygon fill="none" stroke="black" points="161,-278.5 161,-297.5 272,-297.5 272,-278.5 161,-278.5"/>
<text text-anchor="middle" x="216.5" y="-285.5" font-family="Helvetica,sans-Serif" font-size="10.00">rawspeed::iPoint2D</text>
</a>
</g>
</g>
<!-- Node5&#45;&gt;Node4 -->
<g id="edge4" class="edge">
<title>Node5&#45;&gt;Node4</title>
<path fill="none" stroke="#9a32cd" stroke-dasharray="5,2" d="M216.5,-267.88C216.5,-250.9 216.5,-226.87 216.5,-214.16"/>
<polygon fill="#9a32cd" stroke="#9a32cd" points="213,-268.28 216.5,-278.28 220,-268.28 213,-268.28"/>
<text text-anchor="middle" x="227.5" y="-252" font-family="Helvetica,sans-Serif" font-size="10.00"> dim</text>
<text text-anchor="middle" x="227.5" y="-241" font-family="Helvetica,sans-Serif" font-size="10.00">pos</text>
</g>
<!-- Node6 -->
<g id="node6" class="node">
<title>Node6</title>
<g id="a_node6"><a xlink:href="../../de/d73/classint32__t.html" target="_top" xlink:title=" ">
<polygon fill="none" stroke="black" points="191.5,-356.5 191.5,-375.5 241.5,-375.5 241.5,-356.5 191.5,-356.5"/>
<text text-anchor="middle" x="216.5" y="-363.5" font-family="Helvetica,sans-Serif" font-size="10.00">int32_t</text>
</a>
</g>
</g>
<!-- Node6&#45;&gt;Node5 -->
<g id="edge5" class="edge">
<title>Node6&#45;&gt;Node5</title>
<path fill="none" stroke="#9a32cd" stroke-dasharray="5,2" d="M216.5,-346.22C216.5,-330.7 216.5,-309.36 216.5,-297.62"/>
<polygon fill="#9a32cd" stroke="#9a32cd" points="213,-346.28 216.5,-356.28 220,-346.28 213,-346.28"/>
<text text-anchor="middle" x="221.5" y="-330" font-family="Helvetica,sans-Serif" font-size="10.00"> x</text>
<text text-anchor="middle" x="221.5" y="-319" font-family="Helvetica,sans-Serif" font-size="10.00">y</text>
</g>
<!-- Node7 -->
<g id="node7" class="node">
<title>Node7</title>
<g id="a_node7"><a xlink:href="../../d3/d87/classuint32__t.html" target="_top" xlink:title=" ">
<polygon fill="none" stroke="black" points="165.5,-117 165.5,-136 221.5,-136 221.5,-117 165.5,-117"/>
<text text-anchor="middle" x="193.5" y="-124" font-family="Helvetica,sans-Serif" font-size="10.00">uint32_t</text>
</a>
</g>
</g>
<!-- Node7&#45;&gt;Node1 -->
<g id="edge6" class="edge">
<title>Node7&#45;&gt;Node1</title>
<path fill="none" stroke="#9a32cd" stroke-dasharray="5,2" d="M184.49,-107.96C173.46,-86.5 155,-50.57 144.81,-30.74"/>
<polygon fill="#9a32cd" stroke="#9a32cd" points="181.42,-109.65 189.11,-116.95 187.65,-106.45 181.42,-109.65"/>
<text text-anchor="middle" x="199" y="-85" font-family="Helvetica,sans-Serif" font-size="10.00"> firstPlane</text>
<text text-anchor="middle" x="199" y="-74" font-family="Helvetica,sans-Serif" font-size="10.00">rowPitch</text>
<text text-anchor="middle" x="199" y="-63" font-family="Helvetica,sans-Serif" font-size="10.00">planes</text>
<text text-anchor="middle" x="199" y="-52" font-family="Helvetica,sans-Serif" font-size="10.00">colPitch</text>
</g>
</g>
</svg>
