<?xml version="1.0" encoding="UTF-8" standalone="no"?>
<!DOCTYPE svg PUBLIC "-//W3C//DTD SVG 1.1//EN"
 "http://www.w3.org/Graphics/SVG/1.1/DTD/svg11.dtd">
<!-- Generated by graphviz version 2.43.0 (0)
 -->
<!-- Title: rawspeed::ColorFilterArray::getDcrawFilter Pages: 1 -->
<svg width="518pt" height="116pt"
 viewBox="0.00 0.00 518.00 115.50" xmlns="http://www.w3.org/2000/svg" xmlns:xlink="http://www.w3.org/1999/xlink">
<g id="graph0" class="graph" transform="scale(1 1) rotate(0) translate(4 111.5)">
<title>rawspeed::ColorFilterArray::getDcrawFilter</title>
<!-- Node1 -->
<g id="node1" class="node">
<title>Node1</title>
<g id="a_node1"><a xlink:title=" ">
<polygon fill="#bfbfbf" stroke="black" points="0,-33 0,-63 146,-63 146,-33 0,-33"/>
<text text-anchor="start" x="8" y="-51" font-family="Helvetica,sans-Serif" font-size="10.00">rawspeed::ColorFilterArray</text>
<text text-anchor="middle" x="73" y="-40" font-family="Helvetica,sans-Serif" font-size="10.00">::getDcrawFilter</text>
</a>
</g>
</g>
<!-- Node2 -->
<g id="node2" class="node">
<title>Node2</title>
<g id="a_node2"><a xlink:href="../../d2/d4f/classrawspeed_1_1_color_filter_array.html#a09748fac8f6bb036f1720d6bd77f379d" target="_top" xlink:title=" ">
<polygon fill="none" stroke="black" points="182,-77 182,-107 328,-107 328,-77 182,-77"/>
<text text-anchor="start" x="190" y="-95" font-family="Helvetica,sans-Serif" font-size="10.00">rawspeed::ColorFilterArray</text>
<text text-anchor="middle" x="255" y="-84" font-family="Helvetica,sans-Serif" font-size="10.00">::getColorAt</text>
</a>
</g>
</g>
<!-- Node1&#45;&gt;Node2 -->
<g id="edge1" class="edge">
<title>Node1&#45;&gt;Node2</title>
<path fill="none" stroke="midnightblue" d="M135.44,-63.02C150.56,-66.72 166.89,-70.71 182.44,-74.51"/>
<polygon fill="midnightblue" stroke="midnightblue" points="181.98,-78 192.53,-76.97 183.65,-71.2 181.98,-78"/>
</g>
<!-- Node3 -->
<g id="node3" class="node">
<title>Node3</title>
<g id="a_node3"><a xlink:href="../../de/dc3/namespacerawspeed.html#ab43ecbe3ac5c4ab903c8e4394e3cc29f" target="_top" xlink:title=" ">
<polygon fill="none" stroke="black" points="187,-38.5 187,-57.5 323,-57.5 323,-38.5 187,-38.5"/>
<text text-anchor="middle" x="255" y="-45.5" font-family="Helvetica,sans-Serif" font-size="10.00">rawspeed::toDcrawColor</text>
</a>
</g>
</g>
<!-- Node1&#45;&gt;Node3 -->
<g id="edge2" class="edge">
<title>Node1&#45;&gt;Node3</title>
<path fill="none" stroke="midnightblue" d="M146.18,-48C156.23,-48 166.58,-48 176.72,-48"/>
<polygon fill="midnightblue" stroke="midnightblue" points="176.77,-51.5 186.77,-48 176.77,-44.5 176.77,-51.5"/>
</g>
<!-- Node5 -->
<g id="node5" class="node">
<title>Node5</title>
<g id="a_node5"><a xlink:href="../../de/dc3/namespacerawspeed.html#a8a98a18f46994d6cae15ce24462fb7d4" target="_top" xlink:title=" ">
<polygon fill="none" stroke="black" points="199,-0.5 199,-19.5 311,-19.5 311,-0.5 199,-0.5"/>
<text text-anchor="middle" x="255" y="-7.5" font-family="Helvetica,sans-Serif" font-size="10.00">rawspeed::writeLog</text>
</a>
</g>
</g>
<!-- Node1&#45;&gt;Node5 -->
<g id="edge4" class="edge">
<title>Node1&#45;&gt;Node5</title>
<path fill="none" stroke="midnightblue" d="M145.14,-32.98C162.96,-29.22 181.82,-25.24 198.74,-21.67"/>
<polygon fill="midnightblue" stroke="midnightblue" points="199.93,-24.99 209,-19.5 198.49,-18.14 199.93,-24.99"/>
</g>
<!-- Node4 -->
<g id="node4" class="node">
<title>Node4</title>
<g id="a_node4"><a xlink:href="../../d2/d4f/classrawspeed_1_1_color_filter_array.html#a82ea21938640c55b903995f377f6445f" target="_top" xlink:title=" ">
<polygon fill="none" stroke="black" points="364,-33 364,-63 510,-63 510,-33 364,-33"/>
<text text-anchor="start" x="372" y="-51" font-family="Helvetica,sans-Serif" font-size="10.00">rawspeed::ColorFilterArray</text>
<text text-anchor="middle" x="437" y="-40" font-family="Helvetica,sans-Serif" font-size="10.00">::colorToString</text>
</a>
</g>
</g>
<!-- Node3&#45;&gt;Node4 -->
<g id="edge3" class="edge">
<title>Node3&#45;&gt;Node4</title>
<path fill="none" stroke="midnightblue" d="M323.03,-48C333,-48 343.37,-48 353.61,-48"/>
<polygon fill="midnightblue" stroke="midnightblue" points="353.79,-51.5 363.79,-48 353.79,-44.5 353.79,-51.5"/>
</g>
</g>
</svg>
