<?xml version="1.0" encoding="UTF-8" standalone="no"?>
<!DOCTYPE svg PUBLIC "-//W3C//DTD SVG 1.1//EN"
 "http://www.w3.org/Graphics/SVG/1.1/DTD/svg11.dtd">
<!-- Generated by graphviz version 2.43.0 (0)
 -->
<!-- Title: rawspeed::ColorFilterArray::setCFA Pages: 1 -->
<svg width="483pt" height="110pt"
 viewBox="0.00 0.00 483.00 110.00" xmlns="http://www.w3.org/2000/svg" xmlns:xlink="http://www.w3.org/1999/xlink">
<g id="graph0" class="graph" transform="scale(1 1) rotate(0) translate(4 106)">
<title>rawspeed::ColorFilterArray::setCFA</title>
<!-- Node1 -->
<g id="node1" class="node">
<title>Node1</title>
<g id="a_node1"><a xlink:title=" ">
<polygon fill="#bfbfbf" stroke="black" points="0,-49.5 0,-79.5 146,-79.5 146,-49.5 0,-49.5"/>
<text text-anchor="start" x="8" y="-67.5" font-family="Helvetica,sans-Serif" font-size="10.00">rawspeed::ColorFilterArray</text>
<text text-anchor="middle" x="73" y="-56.5" font-family="Helvetica,sans-Serif" font-size="10.00">::setCFA</text>
</a>
</g>
</g>
<!-- Node2 -->
<g id="node2" class="node">
<title>Node2</title>
<g id="a_node2"><a xlink:href="../../d8/d75/classrawspeed_1_1i_point2_d.html#abb9155da47f90ec694b75ad521bb7978" target="_top" xlink:title=" ">
<polygon fill="none" stroke="black" points="364,-71.5 364,-101.5 475,-101.5 475,-71.5 364,-71.5"/>
<text text-anchor="start" x="372" y="-89.5" font-family="Helvetica,sans-Serif" font-size="10.00">rawspeed::iPoint2D</text>
<text text-anchor="middle" x="419.5" y="-78.5" font-family="Helvetica,sans-Serif" font-size="10.00">::__attribute__</text>
</a>
</g>
</g>
<!-- Node1&#45;&gt;Node2 -->
<g id="edge1" class="edge">
<title>Node1&#45;&gt;Node2</title>
<path fill="none" stroke="midnightblue" d="M127.97,-79.53C145.1,-83.61 164.22,-87.47 182,-89.5 246.47,-96.86 263.12,-90.58 328,-89.5 336.36,-89.36 345.15,-89.15 353.84,-88.9"/>
<polygon fill="midnightblue" stroke="midnightblue" points="354.06,-92.4 363.95,-88.6 353.85,-85.4 354.06,-92.4"/>
</g>
<!-- Node3 -->
<g id="node3" class="node">
<title>Node3</title>
<g id="a_node3"><a xlink:href="../../d8/d75/classrawspeed_1_1i_point2_d.html#ac05ebb92f68b03eb352f57ce504721a6" target="_top" xlink:title=" ">
<polygon fill="none" stroke="black" points="199.5,-0.5 199.5,-30.5 310.5,-30.5 310.5,-0.5 199.5,-0.5"/>
<text text-anchor="start" x="207.5" y="-18.5" font-family="Helvetica,sans-Serif" font-size="10.00">rawspeed::iPoint2D</text>
<text text-anchor="middle" x="255" y="-7.5" font-family="Helvetica,sans-Serif" font-size="10.00">::operator!=</text>
</a>
</g>
</g>
<!-- Node1&#45;&gt;Node3 -->
<g id="edge2" class="edge">
<title>Node1&#45;&gt;Node3</title>
<path fill="none" stroke="midnightblue" d="M129.47,-49.4C148.47,-44.23 169.89,-38.4 189.54,-33.05"/>
<polygon fill="midnightblue" stroke="midnightblue" points="190.6,-36.39 199.33,-30.38 188.76,-29.63 190.6,-36.39"/>
</g>
<!-- Node5 -->
<g id="node5" class="node">
<title>Node5</title>
<g id="a_node5"><a xlink:href="../../d2/d4f/classrawspeed_1_1_color_filter_array.html#abb8f591fc7f2cd1a7fc8ae1aad3f5643" target="_top" xlink:title=" ">
<polygon fill="none" stroke="black" points="182,-49.5 182,-79.5 328,-79.5 328,-49.5 182,-49.5"/>
<text text-anchor="start" x="190" y="-67.5" font-family="Helvetica,sans-Serif" font-size="10.00">rawspeed::ColorFilterArray</text>
<text text-anchor="middle" x="255" y="-56.5" font-family="Helvetica,sans-Serif" font-size="10.00">::setSize</text>
</a>
</g>
</g>
<!-- Node1&#45;&gt;Node5 -->
<g id="edge4" class="edge">
<title>Node1&#45;&gt;Node5</title>
<path fill="none" stroke="midnightblue" d="M146.18,-64.5C154.52,-64.5 163.08,-64.5 171.54,-64.5"/>
<polygon fill="midnightblue" stroke="midnightblue" points="171.81,-68 181.81,-64.5 171.81,-61 171.81,-68"/>
</g>
<!-- Node4 -->
<g id="node4" class="node">
<title>Node4</title>
<g id="a_node4"><a xlink:href="../../d8/d75/classrawspeed_1_1i_point2_d.html#a7287c51b801647db27312c6cee8488a3" target="_top" xlink:title=" ">
<polygon fill="none" stroke="black" points="364,-0.5 364,-30.5 475,-30.5 475,-0.5 364,-0.5"/>
<text text-anchor="start" x="372" y="-18.5" font-family="Helvetica,sans-Serif" font-size="10.00">rawspeed::iPoint2D</text>
<text text-anchor="middle" x="419.5" y="-7.5" font-family="Helvetica,sans-Serif" font-size="10.00">::operator==</text>
</a>
</g>
</g>
<!-- Node3&#45;&gt;Node4 -->
<g id="edge3" class="edge">
<title>Node3&#45;&gt;Node4</title>
<path fill="none" stroke="midnightblue" d="M310.56,-15.5C324.36,-15.5 339.32,-15.5 353.57,-15.5"/>
<polygon fill="midnightblue" stroke="midnightblue" points="353.81,-19 363.81,-15.5 353.81,-12 353.81,-19"/>
</g>
<!-- Node5&#45;&gt;Node2 -->
<g id="edge5" class="edge">
<title>Node5&#45;&gt;Node2</title>
<path fill="none" stroke="midnightblue" d="M328.22,-74.28C336.66,-75.42 345.23,-76.58 353.56,-77.71"/>
<polygon fill="midnightblue" stroke="midnightblue" points="353.19,-81.19 363.57,-79.06 354.13,-74.25 353.19,-81.19"/>
</g>
</g>
</svg>
