<?xml version="1.0" encoding="UTF-8" standalone="no"?>
<!DOCTYPE svg PUBLIC "-//W3C//DTD SVG 1.1//EN"
 "http://www.w3.org/Graphics/SVG/1.1/DTD/svg11.dtd">
<!-- Generated by graphviz version 2.43.0 (0)
 -->
<!-- Title: rawspeed::ColorFilterArray::colorToString Pages: 1 -->
<svg width="518pt" height="83pt"
 viewBox="0.00 0.00 518.00 83.00" xmlns="http://www.w3.org/2000/svg" xmlns:xlink="http://www.w3.org/1999/xlink">
<g id="graph0" class="graph" transform="scale(1 1) rotate(0) translate(4 79)">
<title>rawspeed::ColorFilterArray::colorToString</title>
<!-- Node1 -->
<g id="node1" class="node">
<title>Node1</title>
<g id="a_node1"><a xlink:title=" ">
<polygon fill="#bfbfbf" stroke="black" points="364,-22.5 364,-52.5 510,-52.5 510,-22.5 364,-22.5"/>
<text text-anchor="start" x="372" y="-40.5" font-family="Helvetica,sans-Serif" font-size="10.00">rawspeed::ColorFilterArray</text>
<text text-anchor="middle" x="437" y="-29.5" font-family="Helvetica,sans-Serif" font-size="10.00">::colorToString</text>
</a>
</g>
</g>
<!-- Node2 -->
<g id="node2" class="node">
<title>Node2</title>
<g id="a_node2"><a xlink:href="../../d2/d4f/classrawspeed_1_1_color_filter_array.html#a6e479c4110bf7ba281fb5c03601c70cf" target="_top" xlink:title=" ">
<polygon fill="none" stroke="black" points="182,-44.5 182,-74.5 328,-74.5 328,-44.5 182,-44.5"/>
<text text-anchor="start" x="190" y="-62.5" font-family="Helvetica,sans-Serif" font-size="10.00">rawspeed::ColorFilterArray</text>
<text text-anchor="middle" x="255" y="-51.5" font-family="Helvetica,sans-Serif" font-size="10.00">::asString</text>
</a>
</g>
</g>
<!-- Node1&#45;&gt;Node2 -->
<g id="edge1" class="edge">
<title>Node1&#45;&gt;Node2</title>
<path fill="none" stroke="midnightblue" d="M353.84,-47.54C345.28,-48.59 336.63,-49.65 328.19,-50.68"/>
<polygon fill="midnightblue" stroke="midnightblue" points="354.32,-51.01 363.82,-46.32 353.47,-44.06 354.32,-51.01"/>
</g>
<!-- Node3 -->
<g id="node3" class="node">
<title>Node3</title>
<g id="a_node3"><a xlink:href="../../de/dc3/namespacerawspeed.html#ab43ecbe3ac5c4ab903c8e4394e3cc29f" target="_top" xlink:title=" ">
<polygon fill="none" stroke="black" points="187,-6 187,-25 323,-25 323,-6 187,-6"/>
<text text-anchor="middle" x="255" y="-13" font-family="Helvetica,sans-Serif" font-size="10.00">rawspeed::toDcrawColor</text>
</a>
</g>
</g>
<!-- Node1&#45;&gt;Node3 -->
<g id="edge2" class="edge">
<title>Node1&#45;&gt;Node3</title>
<path fill="none" stroke="midnightblue" d="M353.69,-27.44C343.49,-26.19 333.16,-24.93 323.23,-23.72"/>
<polygon fill="midnightblue" stroke="midnightblue" points="353.47,-30.94 363.82,-28.68 354.32,-23.99 353.47,-30.94"/>
</g>
<!-- Node4 -->
<g id="node4" class="node">
<title>Node4</title>
<g id="a_node4"><a xlink:href="../../d2/d4f/classrawspeed_1_1_color_filter_array.html#af927e9c1e246ca68a6add8bc1374f127" target="_top" xlink:title=" ">
<polygon fill="none" stroke="black" points="0,-0.5 0,-30.5 146,-30.5 146,-0.5 0,-0.5"/>
<text text-anchor="start" x="8" y="-18.5" font-family="Helvetica,sans-Serif" font-size="10.00">rawspeed::ColorFilterArray</text>
<text text-anchor="middle" x="73" y="-7.5" font-family="Helvetica,sans-Serif" font-size="10.00">::getDcrawFilter</text>
</a>
</g>
</g>
<!-- Node3&#45;&gt;Node4 -->
<g id="edge3" class="edge">
<title>Node3&#45;&gt;Node4</title>
<path fill="none" stroke="midnightblue" d="M176.89,-15.5C166.71,-15.5 156.31,-15.5 146.21,-15.5"/>
<polygon fill="midnightblue" stroke="midnightblue" points="176.97,-19 186.97,-15.5 176.97,-12 176.97,-19"/>
</g>
</g>
</svg>
