<?xml version="1.0" encoding="UTF-8" standalone="no"?>
<!DOCTYPE svg PUBLIC "-//W3C//DTD SVG 1.1//EN"
 "http://www.w3.org/Graphics/SVG/1.1/DTD/svg11.dtd">
<!-- Generated by graphviz version 2.43.0 (0)
 -->
<!-- Title: rawspeed::ColorFilterArray::setSize Pages: 1 -->
<svg width="490pt" height="127pt"
 viewBox="0.00 0.00 490.00 127.00" xmlns="http://www.w3.org/2000/svg" xmlns:xlink="http://www.w3.org/1999/xlink">
<g id="graph0" class="graph" transform="scale(1 1) rotate(0) translate(4 123)">
<title>rawspeed::ColorFilterArray::setSize</title>
<!-- Node1 -->
<g id="node1" class="node">
<title>Node1</title>
<g id="a_node1"><a xlink:title=" ">
<polygon fill="#bfbfbf" stroke="black" points="336,-44.5 336,-74.5 482,-74.5 482,-44.5 336,-44.5"/>
<text text-anchor="start" x="344" y="-62.5" font-family="Helvetica,sans-Serif" font-size="10.00">rawspeed::ColorFilterArray</text>
<text text-anchor="middle" x="409" y="-51.5" font-family="Helvetica,sans-Serif" font-size="10.00">::setSize</text>
</a>
</g>
</g>
<!-- Node2 -->
<g id="node2" class="node">
<title>Node2</title>
<g id="a_node2"><a xlink:href="../../d2/d4f/classrawspeed_1_1_color_filter_array.html#a81194abc379c7d2cf3388888edfc669f" target="_top" xlink:title=" ">
<polygon fill="none" stroke="black" points="154,-88.5 154,-118.5 300,-118.5 300,-88.5 154,-88.5"/>
<text text-anchor="start" x="162" y="-106.5" font-family="Helvetica,sans-Serif" font-size="10.00">rawspeed::ColorFilterArray</text>
<text text-anchor="middle" x="227" y="-95.5" font-family="Helvetica,sans-Serif" font-size="10.00">::ColorFilterArray</text>
</a>
</g>
</g>
<!-- Node1&#45;&gt;Node2 -->
<g id="edge1" class="edge">
<title>Node1&#45;&gt;Node2</title>
<path fill="none" stroke="midnightblue" d="M336.47,-76.99C320.92,-80.79 304.59,-84.78 289.47,-88.47"/>
<polygon fill="midnightblue" stroke="midnightblue" points="337.67,-80.29 346.56,-74.52 336.01,-73.49 337.67,-80.29"/>
</g>
<!-- Node4 -->
<g id="node4" class="node">
<title>Node4</title>
<g id="a_node4"><a xlink:href="../../d9/d5a/fuzz_2librawspeed_2fuzz_2_common_8cpp.html#ab8aaf7a475ff8c07866240375fde0922" target="_top" xlink:title=" ">
<polygon fill="none" stroke="black" points="193.5,-50 193.5,-69 260.5,-69 260.5,-50 193.5,-50"/>
<text text-anchor="middle" x="227" y="-57" font-family="Helvetica,sans-Serif" font-size="10.00">CreateCFA</text>
</a>
</g>
</g>
<!-- Node1&#45;&gt;Node4 -->
<g id="edge3" class="edge">
<title>Node1&#45;&gt;Node4</title>
<path fill="none" stroke="midnightblue" d="M325.68,-59.5C302.68,-59.5 279.02,-59.5 260.74,-59.5"/>
<polygon fill="midnightblue" stroke="midnightblue" points="325.82,-63 335.82,-59.5 325.82,-56 325.82,-63"/>
</g>
<!-- Node5 -->
<g id="node5" class="node">
<title>Node5</title>
<g id="a_node5"><a xlink:href="../../d2/d4f/classrawspeed_1_1_color_filter_array.html#a466ccf6caeb51e137e338f6953989eea" target="_top" xlink:title=" ">
<polygon fill="none" stroke="black" points="154,-0.5 154,-30.5 300,-30.5 300,-0.5 154,-0.5"/>
<text text-anchor="start" x="162" y="-18.5" font-family="Helvetica,sans-Serif" font-size="10.00">rawspeed::ColorFilterArray</text>
<text text-anchor="middle" x="227" y="-7.5" font-family="Helvetica,sans-Serif" font-size="10.00">::setCFA</text>
</a>
</g>
</g>
<!-- Node1&#45;&gt;Node5 -->
<g id="edge4" class="edge">
<title>Node1&#45;&gt;Node5</title>
<path fill="none" stroke="midnightblue" d="M336.47,-42.01C320.92,-38.21 304.59,-34.22 289.47,-30.53"/>
<polygon fill="midnightblue" stroke="midnightblue" points="336.01,-45.51 346.56,-44.48 337.67,-38.71 336.01,-45.51"/>
</g>
<!-- Node3 -->
<g id="node3" class="node">
<title>Node3</title>
<g id="a_node3"><a xlink:href="../../dd/d38/namespacerawspeed__test.html#a985f7409a39cac1958c97fa675441d65" target="_top" xlink:title=" ">
<polygon fill="none" stroke="black" points="0,-94 0,-113 118,-113 118,-94 0,-94"/>
<text text-anchor="middle" x="59" y="-101" font-family="Helvetica,sans-Serif" font-size="10.00">rawspeed_test::TEST</text>
</a>
</g>
</g>
<!-- Node2&#45;&gt;Node3 -->
<g id="edge2" class="edge">
<title>Node2&#45;&gt;Node3</title>
<path fill="none" stroke="midnightblue" d="M143.6,-103.5C135,-103.5 126.38,-103.5 118.13,-103.5"/>
<polygon fill="midnightblue" stroke="midnightblue" points="143.67,-107 153.67,-103.5 143.67,-100 143.67,-107"/>
</g>
</g>
</svg>
