<?xml version="1.0" encoding="UTF-8" standalone="no"?>
<!DOCTYPE svg PUBLIC "-//W3C//DTD SVG 1.1//EN"
 "http://www.w3.org/Graphics/SVG/1.1/DTD/svg11.dtd">
<!-- Generated by graphviz version 2.43.0 (0)
 -->
<!-- Title: librawspeed/metadata/Camera.h Pages: 1 -->
<svg width="828pt" height="207pt"
 viewBox="0.00 0.00 827.50 207.00" xmlns="http://www.w3.org/2000/svg" xmlns:xlink="http://www.w3.org/1999/xlink">
<g id="graph0" class="graph" transform="scale(1 1) rotate(0) translate(4 203)">
<title>librawspeed/metadata/Camera.h</title>
<!-- Node1 -->
<g id="node1" class="node">
<title>Node1</title>
<g id="a_node1"><a xlink:title=" ">
<polygon fill="#bfbfbf" stroke="black" points="430,-168.5 430,-198.5 556,-198.5 556,-168.5 430,-168.5"/>
<text text-anchor="start" x="438" y="-186.5" font-family="Helvetica,sans-Serif" font-size="10.00">librawspeed/metadata</text>
<text text-anchor="middle" x="493" y="-175.5" font-family="Helvetica,sans-Serif" font-size="10.00">/Camera.h</text>
</a>
</g>
</g>
<!-- Node2 -->
<g id="node2" class="node">
<title>Node2</title>
<g id="a_node2"><a xlink:title=" ">
<polygon fill="none" stroke="#bfbfbf" points="0,-112.5 0,-131.5 102,-131.5 102,-112.5 0,-112.5"/>
<text text-anchor="middle" x="51" y="-119.5" font-family="Helvetica,sans-Serif" font-size="10.00">rawspeedconfig.h</text>
</a>
</g>
</g>
<!-- Node1&#45;&gt;Node2 -->
<g id="edge1" class="edge">
<title>Node1&#45;&gt;Node2</title>
<path fill="none" stroke="midnightblue" d="M429.95,-174.14C355.08,-164.19 226.42,-147.04 116,-132 114.73,-131.83 113.45,-131.65 112.15,-131.48"/>
<polygon fill="midnightblue" stroke="midnightblue" points="112.47,-127.99 102.09,-130.1 111.52,-134.92 112.47,-127.99"/>
</g>
<!-- Node3 -->
<g id="node3" class="node">
<title>Node3</title>
<g id="a_node3"><a xlink:href="../../d1/d18/_point_8h.html" target="_top" xlink:title=" ">
<polygon fill="none" stroke="black" points="449,-56.5 449,-75.5 545,-75.5 545,-56.5 449,-56.5"/>
<text text-anchor="middle" x="497" y="-63.5" font-family="Helvetica,sans-Serif" font-size="10.00">common/Point.h</text>
</a>
</g>
</g>
<!-- Node1&#45;&gt;Node3 -->
<g id="edge2" class="edge">
<title>Node1&#45;&gt;Node3</title>
<path fill="none" stroke="midnightblue" d="M533.49,-168.5C550.06,-160.54 567.53,-148.74 577,-132 590.2,-108.66 560.54,-90.38 533.68,-79.22"/>
<polygon fill="midnightblue" stroke="midnightblue" points="534.95,-75.96 524.36,-75.58 532.4,-82.48 534.95,-75.96"/>
</g>
<!-- Node5 -->
<g id="node5" class="node">
<title>Node5</title>
<g id="a_node5"><a xlink:title=" ">
<polygon fill="none" stroke="#bfbfbf" points="272,-0.5 272,-19.5 322,-19.5 322,-0.5 272,-0.5"/>
<text text-anchor="middle" x="297" y="-7.5" font-family="Helvetica,sans-Serif" font-size="10.00">cstdint</text>
</a>
</g>
</g>
<!-- Node1&#45;&gt;Node5 -->
<g id="edge16" class="edge">
<title>Node1&#45;&gt;Node5</title>
<path fill="none" stroke="midnightblue" d="M429.98,-181.33C349.66,-178.36 217.52,-167.98 187,-132 152.85,-91.75 226.34,-46.14 269.12,-24.18"/>
<polygon fill="midnightblue" stroke="midnightblue" points="270.86,-27.23 278.24,-19.62 267.73,-20.97 270.86,-27.23"/>
</g>
<!-- Node7 -->
<g id="node7" class="node">
<title>Node7</title>
<g id="a_node7"><a xlink:href="../../db/dca/_black_area_8h.html" target="_top" xlink:title=" ">
<polygon fill="none" stroke="black" points="14.5,-56.5 14.5,-75.5 139.5,-75.5 139.5,-56.5 14.5,-56.5"/>
<text text-anchor="middle" x="77" y="-63.5" font-family="Helvetica,sans-Serif" font-size="10.00">metadata/BlackArea.h</text>
</a>
</g>
</g>
<!-- Node1&#45;&gt;Node7 -->
<g id="edge6" class="edge">
<title>Node1&#45;&gt;Node7</title>
<path fill="none" stroke="midnightblue" d="M429.82,-183.24C359.48,-181.81 243.87,-172.62 154,-132 128.98,-120.69 105.7,-98.82 91.43,-83.59"/>
<polygon fill="midnightblue" stroke="midnightblue" points="93.78,-80.97 84.47,-75.92 88.6,-85.68 93.78,-80.97"/>
</g>
<!-- Node8 -->
<g id="node8" class="node">
<title>Node8</title>
<g id="a_node8"><a xlink:href="../../d3/d36/_camera_sensor_info_8h.html" target="_top" xlink:title=" ">
<polygon fill="none" stroke="black" points="196,-112.5 196,-131.5 362,-131.5 362,-112.5 196,-112.5"/>
<text text-anchor="middle" x="279" y="-119.5" font-family="Helvetica,sans-Serif" font-size="10.00">metadata/CameraSensorInfo.h</text>
</a>
</g>
</g>
<!-- Node1&#45;&gt;Node8 -->
<g id="edge8" class="edge">
<title>Node1&#45;&gt;Node8</title>
<path fill="none" stroke="midnightblue" d="M442.56,-168.47C404.99,-158.03 354.38,-143.96 319.45,-134.25"/>
<polygon fill="midnightblue" stroke="midnightblue" points="320.17,-130.81 309.59,-131.51 318.29,-137.56 320.17,-130.81"/>
</g>
<!-- Node9 -->
<g id="node9" class="node">
<title>Node9</title>
<g id="a_node9"><a xlink:title=" ">
<polygon fill="none" stroke="#bfbfbf" points="345.5,-56.5 345.5,-75.5 392.5,-75.5 392.5,-56.5 345.5,-56.5"/>
<text text-anchor="middle" x="369" y="-63.5" font-family="Helvetica,sans-Serif" font-size="10.00">vector</text>
</a>
</g>
</g>
<!-- Node1&#45;&gt;Node9 -->
<g id="edge21" class="edge">
<title>Node1&#45;&gt;Node9</title>
<path fill="none" stroke="midnightblue" d="M461.8,-168.33C444.83,-159.55 424.24,-147.08 409,-132 395.21,-118.35 384.1,-99.04 377.13,-85.02"/>
<polygon fill="midnightblue" stroke="midnightblue" points="380.25,-83.43 372.8,-75.9 373.93,-86.44 380.25,-83.43"/>
</g>
<!-- Node10 -->
<g id="node10" class="node">
<title>Node10</title>
<g id="a_node10"><a xlink:href="../../dd/d27/_color_filter_array_8h.html" target="_top" xlink:title=" ">
<polygon fill="none" stroke="black" points="418,-112.5 418,-131.5 568,-131.5 568,-112.5 418,-112.5"/>
<text text-anchor="middle" x="493" y="-119.5" font-family="Helvetica,sans-Serif" font-size="10.00">metadata/ColorFilterArray.h</text>
</a>
</g>
</g>
<!-- Node1&#45;&gt;Node10 -->
<g id="edge10" class="edge">
<title>Node1&#45;&gt;Node10</title>
<path fill="none" stroke="midnightblue" d="M493,-168.4C493,-160.47 493,-150.46 493,-141.86"/>
<polygon fill="midnightblue" stroke="midnightblue" points="496.5,-141.66 493,-131.66 489.5,-141.66 496.5,-141.66"/>
</g>
<!-- Node11 -->
<g id="node11" class="node">
<title>Node11</title>
<g id="a_node11"><a xlink:title=" ">
<polygon fill="none" stroke="#bfbfbf" points="580,-56.5 580,-75.5 618,-75.5 618,-56.5 580,-56.5"/>
<text text-anchor="middle" x="599" y="-63.5" font-family="Helvetica,sans-Serif" font-size="10.00">map</text>
</a>
</g>
</g>
<!-- Node1&#45;&gt;Node11 -->
<g id="edge17" class="edge">
<title>Node1&#45;&gt;Node11</title>
<path fill="none" stroke="midnightblue" d="M543.56,-168.47C562.08,-160.74 581.35,-149.12 593,-132 602.07,-118.68 602.91,-100.1 601.87,-86.22"/>
<polygon fill="midnightblue" stroke="midnightblue" points="605.3,-85.42 600.69,-75.88 598.35,-86.21 605.3,-85.42"/>
</g>
<!-- Node12 -->
<g id="node12" class="node">
<title>Node12</title>
<g id="a_node12"><a xlink:title=" ">
<polygon fill="none" stroke="#bfbfbf" points="645,-56.5 645,-75.5 689,-75.5 689,-56.5 645,-56.5"/>
<text text-anchor="middle" x="667" y="-63.5" font-family="Helvetica,sans-Serif" font-size="10.00">string</text>
</a>
</g>
</g>
<!-- Node1&#45;&gt;Node12 -->
<g id="edge19" class="edge">
<title>Node1&#45;&gt;Node12</title>
<path fill="none" stroke="midnightblue" d="M538.69,-168.47C561.69,-160.08 589.25,-147.93 611,-132 629.14,-118.72 645.36,-98.5 655.61,-84.15"/>
<polygon fill="midnightblue" stroke="midnightblue" points="658.65,-85.91 661.45,-75.69 652.89,-81.93 658.65,-85.91"/>
</g>
<!-- Node13 -->
<g id="node13" class="node">
<title>Node13</title>
<g id="a_node13"><a xlink:title=" ">
<polygon fill="none" stroke="#bfbfbf" points="700,-112.5 700,-131.5 756,-131.5 756,-112.5 700,-112.5"/>
<text text-anchor="middle" x="728" y="-119.5" font-family="Helvetica,sans-Serif" font-size="10.00">sstream</text>
</a>
</g>
</g>
<!-- Node1&#45;&gt;Node13 -->
<g id="edge18" class="edge">
<title>Node1&#45;&gt;Node13</title>
<path fill="none" stroke="midnightblue" d="M548.39,-168.47C591.99,-157.44 651.6,-142.34 689.95,-132.63"/>
<polygon fill="midnightblue" stroke="midnightblue" points="690.87,-136.01 699.7,-130.17 689.15,-129.23 690.87,-136.01"/>
</g>
<!-- Node14 -->
<g id="node14" class="node">
<title>Node14</title>
<g id="a_node14"><a xlink:title=" ">
<polygon fill="none" stroke="#bfbfbf" points="774.5,-112.5 774.5,-131.5 819.5,-131.5 819.5,-112.5 774.5,-112.5"/>
<text text-anchor="middle" x="797" y="-119.5" font-family="Helvetica,sans-Serif" font-size="10.00">utility</text>
</a>
</g>
</g>
<!-- Node1&#45;&gt;Node14 -->
<g id="edge20" class="edge">
<title>Node1&#45;&gt;Node14</title>
<path fill="none" stroke="midnightblue" d="M556.27,-172.42C609.34,-163.59 687.3,-149.73 764.45,-131.95"/>
<polygon fill="midnightblue" stroke="midnightblue" points="765.39,-135.32 774.34,-129.65 763.81,-128.51 765.39,-135.32"/>
</g>
<!-- Node4 -->
<g id="node4" class="node">
<title>Node4</title>
<g id="a_node4"><a xlink:title=" ">
<polygon fill="none" stroke="#bfbfbf" points="422,-0.5 422,-19.5 486,-19.5 486,-0.5 422,-0.5"/>
<text text-anchor="middle" x="454" y="-7.5" font-family="Helvetica,sans-Serif" font-size="10.00">algorithm</text>
</a>
</g>
</g>
<!-- Node3&#45;&gt;Node4 -->
<g id="edge3" class="edge">
<title>Node3&#45;&gt;Node4</title>
<path fill="none" stroke="midnightblue" d="M489.9,-56.08C483.76,-48.38 474.73,-37.03 467.26,-27.65"/>
<polygon fill="midnightblue" stroke="midnightblue" points="469.94,-25.39 460.97,-19.75 464.46,-29.75 469.94,-25.39"/>
</g>
<!-- Node3&#45;&gt;Node5 -->
<g id="edge4" class="edge">
<title>Node3&#45;&gt;Node5</title>
<path fill="none" stroke="midnightblue" d="M465.31,-56.44C429.06,-46.66 369.89,-30.68 332.22,-20.51"/>
<polygon fill="midnightblue" stroke="midnightblue" points="332.78,-17.03 322.21,-17.81 330.95,-23.79 332.78,-17.03"/>
</g>
<!-- Node6 -->
<g id="node6" class="node">
<title>Node6</title>
<g id="a_node6"><a xlink:title=" ">
<polygon fill="none" stroke="#bfbfbf" points="504.5,-0.5 504.5,-19.5 573.5,-19.5 573.5,-0.5 504.5,-0.5"/>
<text text-anchor="middle" x="539" y="-7.5" font-family="Helvetica,sans-Serif" font-size="10.00">type_traits</text>
</a>
</g>
</g>
<!-- Node3&#45;&gt;Node6 -->
<g id="edge5" class="edge">
<title>Node3&#45;&gt;Node6</title>
<path fill="none" stroke="midnightblue" d="M503.94,-56.08C509.93,-48.38 518.75,-37.03 526.05,-27.65"/>
<polygon fill="midnightblue" stroke="midnightblue" points="528.82,-29.79 532.19,-19.75 523.29,-25.5 528.82,-29.79"/>
</g>
<!-- Node7&#45;&gt;Node5 -->
<g id="edge7" class="edge">
<title>Node7&#45;&gt;Node5</title>
<path fill="none" stroke="midnightblue" d="M111.86,-56.44C152.96,-46.35 220.88,-29.68 262.03,-19.58"/>
<polygon fill="midnightblue" stroke="midnightblue" points="263.01,-22.95 271.88,-17.16 261.34,-16.15 263.01,-22.95"/>
</g>
<!-- Node8&#45;&gt;Node9 -->
<g id="edge9" class="edge">
<title>Node8&#45;&gt;Node9</title>
<path fill="none" stroke="midnightblue" d="M293.46,-112.32C307.5,-103.9 329.05,-90.97 345.54,-81.07"/>
<polygon fill="midnightblue" stroke="midnightblue" points="347.8,-83.8 354.58,-75.65 344.2,-77.8 347.8,-83.8"/>
</g>
<!-- Node10&#45;&gt;Node3 -->
<g id="edge11" class="edge">
<title>Node10&#45;&gt;Node3</title>
<path fill="none" stroke="midnightblue" d="M493.66,-112.08C494.18,-105.01 494.94,-94.86 495.59,-85.99"/>
<polygon fill="midnightblue" stroke="midnightblue" points="499.1,-85.98 496.35,-75.75 492.12,-85.47 499.1,-85.98"/>
</g>
<!-- Node10&#45;&gt;Node5 -->
<g id="edge12" class="edge">
<title>Node10&#45;&gt;Node5</title>
<path fill="none" stroke="midnightblue" d="M482.44,-112.43C465.81,-99.21 432.2,-73.53 401,-56 378.05,-43.11 350.68,-31.4 329.78,-23.16"/>
<polygon fill="midnightblue" stroke="midnightblue" points="330.96,-19.87 320.38,-19.51 328.43,-26.39 330.96,-19.87"/>
</g>
<!-- Node10&#45;&gt;Node9 -->
<g id="edge15" class="edge">
<title>Node10&#45;&gt;Node9</title>
<path fill="none" stroke="midnightblue" d="M473.35,-112.44C453.04,-103.6 421.1,-89.69 397.9,-79.59"/>
<polygon fill="midnightblue" stroke="midnightblue" points="399.12,-76.3 388.56,-75.52 396.33,-82.72 399.12,-76.3"/>
</g>
<!-- Node10&#45;&gt;Node11 -->
<g id="edge13" class="edge">
<title>Node10&#45;&gt;Node11</title>
<path fill="none" stroke="midnightblue" d="M510.03,-112.32C527.03,-103.66 553.38,-90.24 572.99,-80.25"/>
<polygon fill="midnightblue" stroke="midnightblue" points="574.69,-83.31 582.01,-75.65 571.51,-77.08 574.69,-83.31"/>
</g>
<!-- Node10&#45;&gt;Node12 -->
<g id="edge14" class="edge">
<title>Node10&#45;&gt;Node12</title>
<path fill="none" stroke="midnightblue" d="M520.57,-112.44C551.75,-102.77 602.43,-87.04 635.24,-76.86"/>
<polygon fill="midnightblue" stroke="midnightblue" points="636.29,-80.2 644.8,-73.89 634.22,-73.51 636.29,-80.2"/>
</g>
</g>
</svg>
