<?xml version="1.0" encoding="UTF-8" standalone="no"?>
<!DOCTYPE svg PUBLIC "-//W3C//DTD SVG 1.1//EN"
 "http://www.w3.org/Graphics/SVG/1.1/DTD/svg11.dtd">
<!-- Generated by graphviz version 2.43.0 (0)
 -->
<!-- Title: rawspeed::DngOpcodes::ROIOpcode::ROIOpcode Pages: 1 -->
<svg width="833pt" height="191pt"
 viewBox="0.00 0.00 833.00 191.00" xmlns="http://www.w3.org/2000/svg" xmlns:xlink="http://www.w3.org/1999/xlink">
<g id="graph0" class="graph" transform="scale(1 1) rotate(0) translate(4 187)">
<title>rawspeed::DngOpcodes::ROIOpcode::ROIOpcode</title>
<!-- Node1 -->
<g id="node1" class="node">
<title>Node1</title>
<g id="a_node1"><a xlink:title=" ">
<polygon fill="#bfbfbf" stroke="black" points="688,-97.5 688,-127.5 825,-127.5 825,-97.5 688,-97.5"/>
<text text-anchor="start" x="696" y="-115.5" font-family="Helvetica,sans-Serif" font-size="10.00">rawspeed::DngOpcodes</text>
<text text-anchor="middle" x="756.5" y="-104.5" font-family="Helvetica,sans-Serif" font-size="10.00">::ROIOpcode::ROIOpcode</text>
</a>
</g>
</g>
<!-- Node2 -->
<g id="node2" class="node">
<title>Node2</title>
<g id="a_node2"><a xlink:href="../../d5/d66/classrawspeed_1_1_dng_opcodes_1_1_dummy_r_o_i_opcode.html#a41065e2a0a4c5a97fa22a998d446e92f" target="_top" xlink:title=" ">
<polygon fill="none" stroke="black" points="437,-149.5 437,-179.5 652,-179.5 652,-149.5 437,-149.5"/>
<text text-anchor="start" x="445" y="-167.5" font-family="Helvetica,sans-Serif" font-size="10.00">rawspeed::DngOpcodes</text>
<text text-anchor="middle" x="544.5" y="-156.5" font-family="Helvetica,sans-Serif" font-size="10.00">::DummyROIOpcode::DummyROIOpcode</text>
</a>
</g>
</g>
<!-- Node1&#45;&gt;Node2 -->
<g id="edge1" class="edge">
<title>Node1&#45;&gt;Node2</title>
<path fill="none" stroke="midnightblue" d="M684.77,-130.01C659.25,-136.33 630.69,-143.41 606.1,-149.49"/>
<polygon fill="midnightblue" stroke="midnightblue" points="685.89,-133.34 694.76,-127.54 684.21,-126.55 685.89,-133.34"/>
</g>
<!-- Node4 -->
<g id="node4" class="node">
<title>Node4</title>
<g id="a_node4"><a xlink:href="../../d5/dcb/classrawspeed_1_1_dng_opcodes_1_1_pixel_opcode.html#a2d4cef258692d4e1609527e09b51c8f1" target="_top" xlink:title=" ">
<polygon fill="none" stroke="black" points="469.5,-97.5 469.5,-127.5 619.5,-127.5 619.5,-97.5 469.5,-97.5"/>
<text text-anchor="start" x="477.5" y="-115.5" font-family="Helvetica,sans-Serif" font-size="10.00">rawspeed::DngOpcodes</text>
<text text-anchor="middle" x="544.5" y="-104.5" font-family="Helvetica,sans-Serif" font-size="10.00">::PixelOpcode::PixelOpcode</text>
</a>
</g>
</g>
<!-- Node1&#45;&gt;Node4 -->
<g id="edge3" class="edge">
<title>Node1&#45;&gt;Node4</title>
<path fill="none" stroke="midnightblue" d="M677.77,-112.5C658.72,-112.5 638.38,-112.5 619.52,-112.5"/>
<polygon fill="midnightblue" stroke="midnightblue" points="677.9,-116 687.9,-112.5 677.9,-109 677.9,-116"/>
</g>
<!-- Node9 -->
<g id="node9" class="node">
<title>Node9</title>
<g id="a_node9"><a xlink:href="../../da/ddd/classrawspeed_1_1_dng_opcodes_1_1_trim_bounds.html#a2e5018f45c2e01536269db5799d35c8f" target="_top" xlink:title=" ">
<polygon fill="none" stroke="black" points="473,-48.5 473,-78.5 616,-78.5 616,-48.5 473,-48.5"/>
<text text-anchor="start" x="481" y="-66.5" font-family="Helvetica,sans-Serif" font-size="10.00">rawspeed::DngOpcodes</text>
<text text-anchor="middle" x="544.5" y="-55.5" font-family="Helvetica,sans-Serif" font-size="10.00">::TrimBounds::TrimBounds</text>
</a>
</g>
</g>
<!-- Node1&#45;&gt;Node9 -->
<g id="edge9" class="edge">
<title>Node1&#45;&gt;Node9</title>
<path fill="none" stroke="midnightblue" d="M681.22,-95.17C657.91,-89.73 632.38,-83.77 609.81,-78.51"/>
<polygon fill="midnightblue" stroke="midnightblue" points="680.53,-98.6 691.07,-97.47 682.12,-91.78 680.53,-98.6"/>
</g>
<!-- Node3 -->
<g id="node3" class="node">
<title>Node3</title>
<g id="a_node3"><a xlink:href="../../d9/d5b/classrawspeed_1_1_dng_opcodes_1_1_fix_bad_pixels_list.html#ab7bf4c8e7f4039739d0a1f520c841672" target="_top" xlink:title=" ">
<polygon fill="none" stroke="black" points="215,-152.5 215,-182.5 401,-182.5 401,-152.5 215,-152.5"/>
<text text-anchor="start" x="223" y="-170.5" font-family="Helvetica,sans-Serif" font-size="10.00">rawspeed::DngOpcodes</text>
<text text-anchor="middle" x="308" y="-159.5" font-family="Helvetica,sans-Serif" font-size="10.00">::FixBadPixelsList::FixBadPixelsList</text>
</a>
</g>
</g>
<!-- Node2&#45;&gt;Node3 -->
<g id="edge2" class="edge">
<title>Node2&#45;&gt;Node3</title>
<path fill="none" stroke="midnightblue" d="M426.76,-165.99C418.11,-166.1 409.47,-166.21 401.01,-166.32"/>
<polygon fill="midnightblue" stroke="midnightblue" points="426.93,-169.49 436.89,-165.86 426.84,-162.49 426.93,-169.49"/>
</g>
<!-- Node5 -->
<g id="node5" class="node">
<title>Node5</title>
<g id="a_node5"><a xlink:href="../../d0/d58/classrawspeed_1_1_dng_opcodes_1_1_delta_row_or_col_base.html#aee44344d07cc5c0dd84dd96d8c2db5e3" target="_top" xlink:title=" ">
<polygon fill="none" stroke="black" points="242.5,-92 242.5,-133 373.5,-133 373.5,-92 242.5,-92"/>
<text text-anchor="start" x="250.5" y="-121" font-family="Helvetica,sans-Serif" font-size="10.00">rawspeed::DngOpcodes</text>
<text text-anchor="start" x="250.5" y="-110" font-family="Helvetica,sans-Serif" font-size="10.00">::DeltaRowOrColBase::</text>
<text text-anchor="middle" x="308" y="-99" font-family="Helvetica,sans-Serif" font-size="10.00">DeltaRowOrColBase</text>
</a>
</g>
</g>
<!-- Node4&#45;&gt;Node5 -->
<g id="edge4" class="edge">
<title>Node4&#45;&gt;Node5</title>
<path fill="none" stroke="midnightblue" d="M459.07,-112.5C430.92,-112.5 400.02,-112.5 373.62,-112.5"/>
<polygon fill="midnightblue" stroke="midnightblue" points="459.3,-116 469.3,-112.5 459.3,-109 459.3,-116"/>
</g>
<!-- Node6 -->
<g id="node6" class="node">
<title>Node6</title>
<g id="a_node6"><a xlink:href="../../de/d8e/classrawspeed_1_1_dng_opcodes_1_1_lookup_opcode.html#a90e7b20b578b60967bd9e9b85e323a17" target="_top" xlink:title=" ">
<polygon fill="none" stroke="black" points="221.5,-24.5 221.5,-54.5 394.5,-54.5 394.5,-24.5 221.5,-24.5"/>
<text text-anchor="start" x="229.5" y="-42.5" font-family="Helvetica,sans-Serif" font-size="10.00">rawspeed::DngOpcodes</text>
<text text-anchor="middle" x="308" y="-31.5" font-family="Helvetica,sans-Serif" font-size="10.00">::LookupOpcode::LookupOpcode</text>
</a>
</g>
</g>
<!-- Node4&#45;&gt;Node6 -->
<g id="edge5" class="edge">
<title>Node4&#45;&gt;Node6</title>
<path fill="none" stroke="midnightblue" d="M460.6,-95.05C452.58,-92.99 444.61,-90.8 437,-88.5 405,-78.82 369.57,-65.01 344.11,-54.51"/>
<polygon fill="midnightblue" stroke="midnightblue" points="459.83,-98.46 470.38,-97.49 461.52,-91.67 459.83,-98.46"/>
</g>
<!-- Node6&#45;&gt;Node6 -->
<g id="edge6" class="edge">
<title>Node6&#45;&gt;Node6</title>
<path fill="none" stroke="midnightblue" d="M346.74,-64.96C341.93,-69.68 329.02,-73 308,-73 273.51,-73 260.85,-64.06 270.01,-54.66"/>
<polygon fill="midnightblue" stroke="midnightblue" points="350.2,-64.38 345.99,-54.66 343.22,-64.89 350.2,-64.38"/>
</g>
<!-- Node7 -->
<g id="node7" class="node">
<title>Node7</title>
<g id="a_node7"><a xlink:href="../../d8/d70/classrawspeed_1_1_dng_opcodes_1_1_polynomial_map.html#a5ba7f4d079c409526da52143518d6c6f" target="_top" xlink:title=" ">
<polygon fill="none" stroke="black" points="0,-49.5 0,-79.5 179,-79.5 179,-49.5 0,-49.5"/>
<text text-anchor="start" x="8" y="-67.5" font-family="Helvetica,sans-Serif" font-size="10.00">rawspeed::DngOpcodes</text>
<text text-anchor="middle" x="89.5" y="-56.5" font-family="Helvetica,sans-Serif" font-size="10.00">::PolynomialMap::PolynomialMap</text>
</a>
</g>
</g>
<!-- Node6&#45;&gt;Node7 -->
<g id="edge7" class="edge">
<title>Node6&#45;&gt;Node7</title>
<path fill="none" stroke="midnightblue" d="M211.31,-50.55C200.68,-51.78 189.89,-53.02 179.35,-54.24"/>
<polygon fill="midnightblue" stroke="midnightblue" points="211.9,-54 221.43,-49.38 211.1,-47.05 211.9,-54"/>
</g>
<!-- Node8 -->
<g id="node8" class="node">
<title>Node8</title>
<g id="a_node8"><a xlink:href="../../dc/d9c/classrawspeed_1_1_dng_opcodes_1_1_table_map.html#a0f4b8c3112f447ae3a1e487b42e11d3d" target="_top" xlink:title=" ">
<polygon fill="none" stroke="black" points="24,-0.5 24,-30.5 155,-30.5 155,-0.5 24,-0.5"/>
<text text-anchor="start" x="32" y="-18.5" font-family="Helvetica,sans-Serif" font-size="10.00">rawspeed::DngOpcodes</text>
<text text-anchor="middle" x="89.5" y="-7.5" font-family="Helvetica,sans-Serif" font-size="10.00">::TableMap::TableMap</text>
</a>
</g>
</g>
<!-- Node6&#45;&gt;Node8 -->
<g id="edge8" class="edge">
<title>Node6&#45;&gt;Node8</title>
<path fill="none" stroke="midnightblue" d="M211.25,-28.89C192.25,-26.78 172.73,-24.62 155.08,-22.66"/>
<polygon fill="midnightblue" stroke="midnightblue" points="211.11,-32.39 221.43,-30.01 211.88,-25.43 211.11,-32.39"/>
</g>
</g>
</svg>
