<?xml version="1.0" encoding="UTF-8" standalone="no"?>
<!DOCTYPE svg PUBLIC "-//W3C//DTD SVG 1.1//EN"
 "http://www.w3.org/Graphics/SVG/1.1/DTD/svg11.dtd">
<!-- Generated by graphviz version 2.43.0 (0)
 -->
<!-- Title: rawspeed::DngOpcodes::ROIOpcode::__attribute__ Pages: 1 -->
<svg width="812pt" height="295pt"
 viewBox="0.00 0.00 812.00 295.00" xmlns="http://www.w3.org/2000/svg" xmlns:xlink="http://www.w3.org/1999/xlink">
<g id="graph0" class="graph" transform="scale(1 1) rotate(0) translate(4 291)">
<title>rawspeed::DngOpcodes::ROIOpcode::__attribute__</title>
<!-- Node1 -->
<g id="node1" class="node">
<title>Node1</title>
<g id="a_node1"><a xlink:title=" ">
<polygon fill="#bfbfbf" stroke="black" points="658,-158.5 658,-188.5 804,-188.5 804,-158.5 658,-158.5"/>
<text text-anchor="start" x="666" y="-176.5" font-family="Helvetica,sans-Serif" font-size="10.00">rawspeed::DngOpcodes</text>
<text text-anchor="middle" x="731" y="-165.5" font-family="Helvetica,sans-Serif" font-size="10.00">::ROIOpcode::__attribute__</text>
</a>
</g>
</g>
<!-- Node2 -->
<g id="node2" class="node">
<title>Node2</title>
<g id="a_node2"><a xlink:href="../../d5/d66/classrawspeed_1_1_dng_opcodes_1_1_dummy_r_o_i_opcode.html#a2374e93a6b5743cadd9e0e90eec5674d" target="_top" xlink:title=" ">
<polygon fill="none" stroke="black" points="437,-256.5 437,-286.5 622,-286.5 622,-256.5 437,-256.5"/>
<text text-anchor="start" x="445" y="-274.5" font-family="Helvetica,sans-Serif" font-size="10.00">rawspeed::DngOpcodes</text>
<text text-anchor="middle" x="529.5" y="-263.5" font-family="Helvetica,sans-Serif" font-size="10.00">::DummyROIOpcode::__attribute__</text>
</a>
</g>
</g>
<!-- Node1&#45;&gt;Node2 -->
<g id="edge1" class="edge">
<title>Node1&#45;&gt;Node2</title>
<path fill="none" stroke="midnightblue" d="M703.99,-195.14C683.02,-211.61 652.16,-233.72 622,-247.5 614.68,-250.84 606.81,-253.79 598.87,-256.36"/>
<polygon fill="midnightblue" stroke="midnightblue" points="706.43,-197.67 712.06,-188.69 702.07,-192.2 706.43,-197.67"/>
</g>
<!-- Node4 -->
<g id="node4" class="node">
<title>Node4</title>
<g id="a_node4"><a xlink:href="../../da/ddd/classrawspeed_1_1_dng_opcodes_1_1_trim_bounds.html#a841b5175fe941a000a5334e58e9b6fc0" target="_top" xlink:title=" ">
<polygon fill="none" stroke="black" points="464,-207.5 464,-237.5 595,-237.5 595,-207.5 464,-207.5"/>
<text text-anchor="start" x="472" y="-225.5" font-family="Helvetica,sans-Serif" font-size="10.00">rawspeed::DngOpcodes</text>
<text text-anchor="middle" x="529.5" y="-214.5" font-family="Helvetica,sans-Serif" font-size="10.00">::TrimBounds::apply</text>
</a>
</g>
</g>
<!-- Node1&#45;&gt;Node4 -->
<g id="edge3" class="edge">
<title>Node1&#45;&gt;Node4</title>
<path fill="none" stroke="midnightblue" d="M658.84,-190.98C636.86,-196.38 612.84,-202.28 591.6,-207.49"/>
<polygon fill="midnightblue" stroke="midnightblue" points="659.91,-194.32 668.79,-188.53 658.24,-187.52 659.91,-194.32"/>
</g>
<!-- Node5 -->
<g id="node5" class="node">
<title>Node5</title>
<g id="a_node5"><a xlink:href="../../d5/dcb/classrawspeed_1_1_dng_opcodes_1_1_pixel_opcode.html#ab4d79e52d19f3a299e8d7dd9a6595fed" target="_top" xlink:title=" ">
<polygon fill="none" stroke="black" points="464,-158.5 464,-188.5 595,-188.5 595,-158.5 464,-158.5"/>
<text text-anchor="start" x="472" y="-176.5" font-family="Helvetica,sans-Serif" font-size="10.00">rawspeed::DngOpcodes</text>
<text text-anchor="middle" x="529.5" y="-165.5" font-family="Helvetica,sans-Serif" font-size="10.00">::PixelOpcode::applyOP</text>
</a>
</g>
</g>
<!-- Node1&#45;&gt;Node5 -->
<g id="edge4" class="edge">
<title>Node1&#45;&gt;Node5</title>
<path fill="none" stroke="midnightblue" d="M647.75,-173.5C630.2,-173.5 611.91,-173.5 595.13,-173.5"/>
<polygon fill="midnightblue" stroke="midnightblue" points="647.98,-177 657.98,-173.5 647.98,-170 647.98,-177"/>
</g>
<!-- Node6 -->
<g id="node6" class="node">
<title>Node6</title>
<g id="a_node6"><a xlink:href="../../d0/d95/classrawspeed_1_1_dng_opcodes_1_1_delta_row_or_col.html#a4415369d6ea863b8799b655f9a3641bf" target="_top" xlink:title=" ">
<polygon fill="none" stroke="black" points="441.5,-109.5 441.5,-139.5 617.5,-139.5 617.5,-109.5 441.5,-109.5"/>
<text text-anchor="start" x="449.5" y="-127.5" font-family="Helvetica,sans-Serif" font-size="10.00">rawspeed::DngOpcodes</text>
<text text-anchor="middle" x="529.5" y="-116.5" font-family="Helvetica,sans-Serif" font-size="10.00">::DeltaRowOrCol::DeltaRowOrCol</text>
</a>
</g>
</g>
<!-- Node1&#45;&gt;Node6 -->
<g id="edge5" class="edge">
<title>Node1&#45;&gt;Node6</title>
<path fill="none" stroke="midnightblue" d="M658.84,-156.02C636.86,-150.62 612.84,-144.72 591.6,-139.51"/>
<polygon fill="midnightblue" stroke="midnightblue" points="658.24,-159.48 668.79,-158.47 659.91,-152.68 658.24,-159.48"/>
</g>
<!-- Node7 -->
<g id="node7" class="node">
<title>Node7</title>
<g id="a_node7"><a xlink:href="../../d5/dcb/classrawspeed_1_1_dng_opcodes_1_1_pixel_opcode.html#a2d4cef258692d4e1609527e09b51c8f1" target="_top" xlink:title=" ">
<polygon fill="none" stroke="black" points="454.5,-60.5 454.5,-90.5 604.5,-90.5 604.5,-60.5 454.5,-60.5"/>
<text text-anchor="start" x="462.5" y="-78.5" font-family="Helvetica,sans-Serif" font-size="10.00">rawspeed::DngOpcodes</text>
<text text-anchor="middle" x="529.5" y="-67.5" font-family="Helvetica,sans-Serif" font-size="10.00">::PixelOpcode::PixelOpcode</text>
</a>
</g>
</g>
<!-- Node1&#45;&gt;Node7 -->
<g id="edge6" class="edge">
<title>Node1&#45;&gt;Node7</title>
<path fill="none" stroke="midnightblue" d="M703.99,-151.86C683.02,-135.39 652.16,-113.28 622,-99.5 614.68,-96.16 606.81,-93.21 598.87,-90.64"/>
<polygon fill="midnightblue" stroke="midnightblue" points="702.07,-154.8 712.06,-158.31 706.43,-149.33 702.07,-154.8"/>
</g>
<!-- Node3 -->
<g id="node3" class="node">
<title>Node3</title>
<g id="a_node3"><a xlink:href="../../d9/d5b/classrawspeed_1_1_dng_opcodes_1_1_fix_bad_pixels_list.html#ab7bf4c8e7f4039739d0a1f520c841672" target="_top" xlink:title=" ">
<polygon fill="none" stroke="black" points="215,-256.5 215,-286.5 401,-286.5 401,-256.5 215,-256.5"/>
<text text-anchor="start" x="223" y="-274.5" font-family="Helvetica,sans-Serif" font-size="10.00">rawspeed::DngOpcodes</text>
<text text-anchor="middle" x="308" y="-263.5" font-family="Helvetica,sans-Serif" font-size="10.00">::FixBadPixelsList::FixBadPixelsList</text>
</a>
</g>
</g>
<!-- Node2&#45;&gt;Node3 -->
<g id="edge2" class="edge">
<title>Node2&#45;&gt;Node3</title>
<path fill="none" stroke="midnightblue" d="M426.44,-271.5C418,-271.5 409.51,-271.5 401.15,-271.5"/>
<polygon fill="midnightblue" stroke="midnightblue" points="426.68,-275 436.68,-271.5 426.68,-268 426.68,-275"/>
</g>
<!-- Node8 -->
<g id="node8" class="node">
<title>Node8</title>
<g id="a_node8"><a xlink:href="../../d0/d58/classrawspeed_1_1_dng_opcodes_1_1_delta_row_or_col_base.html#aee44344d07cc5c0dd84dd96d8c2db5e3" target="_top" xlink:title=" ">
<polygon fill="none" stroke="black" points="242.5,-92 242.5,-133 373.5,-133 373.5,-92 242.5,-92"/>
<text text-anchor="start" x="250.5" y="-121" font-family="Helvetica,sans-Serif" font-size="10.00">rawspeed::DngOpcodes</text>
<text text-anchor="start" x="250.5" y="-110" font-family="Helvetica,sans-Serif" font-size="10.00">::DeltaRowOrColBase::</text>
<text text-anchor="middle" x="308" y="-99" font-family="Helvetica,sans-Serif" font-size="10.00">DeltaRowOrColBase</text>
</a>
</g>
</g>
<!-- Node7&#45;&gt;Node8 -->
<g id="edge7" class="edge">
<title>Node7&#45;&gt;Node8</title>
<path fill="none" stroke="midnightblue" d="M444.52,-89.66C420.96,-93.63 395.73,-97.88 373.5,-101.63"/>
<polygon fill="midnightblue" stroke="midnightblue" points="445.21,-93.09 454.49,-87.97 444.05,-86.19 445.21,-93.09"/>
</g>
<!-- Node9 -->
<g id="node9" class="node">
<title>Node9</title>
<g id="a_node9"><a xlink:href="../../de/d8e/classrawspeed_1_1_dng_opcodes_1_1_lookup_opcode.html#a90e7b20b578b60967bd9e9b85e323a17" target="_top" xlink:title=" ">
<polygon fill="none" stroke="black" points="221.5,-24.5 221.5,-54.5 394.5,-54.5 394.5,-24.5 221.5,-24.5"/>
<text text-anchor="start" x="229.5" y="-42.5" font-family="Helvetica,sans-Serif" font-size="10.00">rawspeed::DngOpcodes</text>
<text text-anchor="middle" x="308" y="-31.5" font-family="Helvetica,sans-Serif" font-size="10.00">::LookupOpcode::LookupOpcode</text>
</a>
</g>
</g>
<!-- Node7&#45;&gt;Node9 -->
<g id="edge8" class="edge">
<title>Node7&#45;&gt;Node9</title>
<path fill="none" stroke="midnightblue" d="M444.48,-61.72C428.21,-59.05 411.14,-56.25 394.81,-53.57"/>
<polygon fill="midnightblue" stroke="midnightblue" points="444.06,-65.2 454.49,-63.36 445.19,-58.29 444.06,-65.2"/>
</g>
<!-- Node9&#45;&gt;Node9 -->
<g id="edge9" class="edge">
<title>Node9&#45;&gt;Node9</title>
<path fill="none" stroke="midnightblue" d="M346.74,-64.96C341.93,-69.68 329.02,-73 308,-73 273.51,-73 260.85,-64.06 270.01,-54.66"/>
<polygon fill="midnightblue" stroke="midnightblue" points="350.2,-64.38 345.99,-54.66 343.22,-64.89 350.2,-64.38"/>
</g>
<!-- Node10 -->
<g id="node10" class="node">
<title>Node10</title>
<g id="a_node10"><a xlink:href="../../d8/d70/classrawspeed_1_1_dng_opcodes_1_1_polynomial_map.html#a5ba7f4d079c409526da52143518d6c6f" target="_top" xlink:title=" ">
<polygon fill="none" stroke="black" points="0,-49.5 0,-79.5 179,-79.5 179,-49.5 0,-49.5"/>
<text text-anchor="start" x="8" y="-67.5" font-family="Helvetica,sans-Serif" font-size="10.00">rawspeed::DngOpcodes</text>
<text text-anchor="middle" x="89.5" y="-56.5" font-family="Helvetica,sans-Serif" font-size="10.00">::PolynomialMap::PolynomialMap</text>
</a>
</g>
</g>
<!-- Node9&#45;&gt;Node10 -->
<g id="edge10" class="edge">
<title>Node9&#45;&gt;Node10</title>
<path fill="none" stroke="midnightblue" d="M211.31,-50.55C200.68,-51.78 189.89,-53.02 179.35,-54.24"/>
<polygon fill="midnightblue" stroke="midnightblue" points="211.9,-54 221.43,-49.38 211.1,-47.05 211.9,-54"/>
</g>
<!-- Node11 -->
<g id="node11" class="node">
<title>Node11</title>
<g id="a_node11"><a xlink:href="../../dc/d9c/classrawspeed_1_1_dng_opcodes_1_1_table_map.html#a0f4b8c3112f447ae3a1e487b42e11d3d" target="_top" xlink:title=" ">
<polygon fill="none" stroke="black" points="24,-0.5 24,-30.5 155,-30.5 155,-0.5 24,-0.5"/>
<text text-anchor="start" x="32" y="-18.5" font-family="Helvetica,sans-Serif" font-size="10.00">rawspeed::DngOpcodes</text>
<text text-anchor="middle" x="89.5" y="-7.5" font-family="Helvetica,sans-Serif" font-size="10.00">::TableMap::TableMap</text>
</a>
</g>
</g>
<!-- Node9&#45;&gt;Node11 -->
<g id="edge11" class="edge">
<title>Node9&#45;&gt;Node11</title>
<path fill="none" stroke="midnightblue" d="M211.25,-28.89C192.25,-26.78 172.73,-24.62 155.08,-22.66"/>
<polygon fill="midnightblue" stroke="midnightblue" points="211.11,-32.39 221.43,-30.01 211.88,-25.43 211.11,-32.39"/>
</g>
</g>
</svg>
