<?xml version="1.0" encoding="UTF-8" standalone="no"?>
<!DOCTYPE svg PUBLIC "-//W3C//DTD SVG 1.1//EN"
 "http://www.w3.org/Graphics/SVG/1.1/DTD/svg11.dtd">
<!-- Generated by graphviz version 2.43.0 (0)
 -->
<!-- Title: rawspeed::DngOpcodes::ROIOpcode::ROIOpcode Pages: 1 -->
<svg width="810pt" height="406pt"
 viewBox="0.00 0.00 810.00 406.00" xmlns="http://www.w3.org/2000/svg" xmlns:xlink="http://www.w3.org/1999/xlink">
<g id="graph0" class="graph" transform="scale(1 1) rotate(0) translate(4 402)">
<title>rawspeed::DngOpcodes::ROIOpcode::ROIOpcode</title>
<!-- Node1 -->
<g id="node1" class="node">
<title>Node1</title>
<g id="a_node1"><a xlink:title=" ">
<polygon fill="#bfbfbf" stroke="black" points="0,-186.5 0,-216.5 137,-216.5 137,-186.5 0,-186.5"/>
<text text-anchor="start" x="8" y="-204.5" font-family="Helvetica,sans-Serif" font-size="10.00">rawspeed::DngOpcodes</text>
<text text-anchor="middle" x="68.5" y="-193.5" font-family="Helvetica,sans-Serif" font-size="10.00">::ROIOpcode::ROIOpcode</text>
</a>
</g>
</g>
<!-- Node2 -->
<g id="node2" class="node">
<title>Node2</title>
<g id="a_node2"><a xlink:href="../../dd/da0/classrawspeed_1_1_byte_stream.html#ac598b7b6f0f8fd5476adb7c1363b1518" target="_top" xlink:title=" ">
<polygon fill="none" stroke="black" points="180,-367.5 180,-397.5 308,-397.5 308,-367.5 180,-367.5"/>
<text text-anchor="start" x="188" y="-385.5" font-family="Helvetica,sans-Serif" font-size="10.00">rawspeed::ByteStream</text>
<text text-anchor="middle" x="244" y="-374.5" font-family="Helvetica,sans-Serif" font-size="10.00">::getU32</text>
</a>
</g>
</g>
<!-- Node1&#45;&gt;Node2 -->
<g id="edge1" class="edge">
<title>Node1&#45;&gt;Node2</title>
<path fill="none" stroke="midnightblue" d="M76.39,-216.9C90.48,-246.83 125.34,-313.38 173,-352.5 177.65,-356.32 182.85,-359.72 188.27,-362.75"/>
<polygon fill="midnightblue" stroke="midnightblue" points="187.04,-366.04 197.53,-367.48 190.22,-359.81 187.04,-366.04"/>
</g>
<!-- Node3 -->
<g id="node3" class="node">
<title>Node3</title>
<g id="a_node3"><a xlink:href="../../d8/d75/classrawspeed_1_1i_point2_d.html#ab980cc8ab2f3502a5a2c230530ba2a64" target="_top" xlink:title=" ">
<polygon fill="none" stroke="black" points="691,-254.5 691,-284.5 802,-284.5 802,-254.5 691,-254.5"/>
<text text-anchor="start" x="699" y="-272.5" font-family="Helvetica,sans-Serif" font-size="10.00">rawspeed::iPoint2D</text>
<text text-anchor="middle" x="746.5" y="-261.5" font-family="Helvetica,sans-Serif" font-size="10.00">::iPoint2D</text>
</a>
</g>
</g>
<!-- Node1&#45;&gt;Node3 -->
<g id="edge2" class="edge">
<title>Node1&#45;&gt;Node3</title>
<path fill="none" stroke="midnightblue" d="M79.79,-216.71C96.37,-239.8 131.37,-283.06 173,-302.5 367.21,-393.22 447.59,-373.64 655,-319.5 677.19,-313.71 699.76,-301.25 716.82,-290.22"/>
<polygon fill="midnightblue" stroke="midnightblue" points="718.83,-293.08 725.2,-284.62 714.94,-287.26 718.83,-293.08"/>
</g>
<!-- Node4 -->
<g id="node4" class="node">
<title>Node4</title>
<g id="a_node4"><a xlink:href="../../d6/d8f/classrawspeed_1_1i_rectangle2_d.html#a7ec79d6a8dc1f04262729c2d4fd528d3" target="_top" xlink:title=" ">
<polygon fill="none" stroke="black" points="521,-279.5 521,-309.5 655,-309.5 655,-279.5 521,-279.5"/>
<text text-anchor="start" x="529" y="-297.5" font-family="Helvetica,sans-Serif" font-size="10.00">rawspeed::iRectangle2D</text>
<text text-anchor="middle" x="588" y="-286.5" font-family="Helvetica,sans-Serif" font-size="10.00">::iRectangle2D</text>
</a>
</g>
</g>
<!-- Node1&#45;&gt;Node4 -->
<g id="edge3" class="edge">
<title>Node1&#45;&gt;Node4</title>
<path fill="none" stroke="midnightblue" d="M84.68,-216.78C103.52,-234.61 137.51,-263.22 173,-275.5 285.54,-314.46 425.62,-310.98 510.59,-303.66"/>
<polygon fill="midnightblue" stroke="midnightblue" points="511.02,-307.13 520.67,-302.75 510.39,-300.16 511.02,-307.13"/>
</g>
<!-- Node5 -->
<g id="node5" class="node">
<title>Node5</title>
<g id="a_node5"><a xlink:href="../../d6/d8f/classrawspeed_1_1i_rectangle2_d.html#a8e5d729239ce4ebabfc221d463a3c79e" target="_top" xlink:title=" ">
<polygon fill="none" stroke="black" points="177,-137.5 177,-167.5 311,-167.5 311,-137.5 177,-137.5"/>
<text text-anchor="start" x="185" y="-155.5" font-family="Helvetica,sans-Serif" font-size="10.00">rawspeed::iRectangle2D</text>
<text text-anchor="middle" x="244" y="-144.5" font-family="Helvetica,sans-Serif" font-size="10.00">::isPointInsideInclusive</text>
</a>
</g>
</g>
<!-- Node1&#45;&gt;Node5 -->
<g id="edge5" class="edge">
<title>Node1&#45;&gt;Node5</title>
<path fill="none" stroke="midnightblue" d="M122.97,-186.4C141.03,-181.3 161.36,-175.56 180.08,-170.27"/>
<polygon fill="midnightblue" stroke="midnightblue" points="181.03,-173.64 189.71,-167.55 179.13,-166.9 181.03,-173.64"/>
</g>
<!-- Node9 -->
<g id="node9" class="node">
<title>Node9</title>
<g id="a_node9"><a xlink:href="../../d8/d75/classrawspeed_1_1i_point2_d.html#a16873af73bf76858d0f31c2b7802c310" target="_top" xlink:title=" ">
<polygon fill="none" stroke="black" points="362.5,-90.5 362.5,-120.5 473.5,-120.5 473.5,-90.5 362.5,-90.5"/>
<text text-anchor="start" x="370.5" y="-108.5" font-family="Helvetica,sans-Serif" font-size="10.00">rawspeed::iPoint2D</text>
<text text-anchor="middle" x="418" y="-97.5" font-family="Helvetica,sans-Serif" font-size="10.00">::operator&gt;=</text>
</a>
</g>
</g>
<!-- Node1&#45;&gt;Node9 -->
<g id="edge16" class="edge">
<title>Node1&#45;&gt;Node9</title>
<path fill="none" stroke="midnightblue" d="M84.77,-186.48C103.7,-168.91 137.79,-140.56 173,-127.5 231.01,-105.97 301.89,-101.81 352.27,-102.22"/>
<polygon fill="midnightblue" stroke="midnightblue" points="352.33,-105.73 362.38,-102.37 352.43,-98.73 352.33,-105.73"/>
</g>
<!-- Node10 -->
<g id="node10" class="node">
<title>Node10</title>
<g id="a_node10"><a xlink:href="../../d6/d8f/classrawspeed_1_1i_rectangle2_d.html#a5fa041d0ecfb6fe7538f73c735cdb42c" target="_top" xlink:title=" ">
<polygon fill="none" stroke="black" points="177,-186.5 177,-216.5 311,-216.5 311,-186.5 177,-186.5"/>
<text text-anchor="start" x="185" y="-204.5" font-family="Helvetica,sans-Serif" font-size="10.00">rawspeed::iRectangle2D</text>
<text text-anchor="middle" x="244" y="-193.5" font-family="Helvetica,sans-Serif" font-size="10.00">::isThisInside</text>
</a>
</g>
</g>
<!-- Node1&#45;&gt;Node10 -->
<g id="edge11" class="edge">
<title>Node1&#45;&gt;Node10</title>
<path fill="none" stroke="midnightblue" d="M137.08,-201.5C146.75,-201.5 156.76,-201.5 166.59,-201.5"/>
<polygon fill="midnightblue" stroke="midnightblue" points="166.75,-205 176.75,-201.5 166.75,-198 166.75,-205"/>
</g>
<!-- Node11 -->
<g id="node11" class="node">
<title>Node11</title>
<g id="a_node11"><a xlink:href="../../dd/d12/classrawspeed_1_1_raw_image.html#a2907002b5c707eca6939061f8b0d5e5d" target="_top" xlink:title=" ">
<polygon fill="none" stroke="black" points="183,-49.5 183,-79.5 305,-79.5 305,-49.5 183,-49.5"/>
<text text-anchor="start" x="191" y="-67.5" font-family="Helvetica,sans-Serif" font-size="10.00">rawspeed::RawImage</text>
<text text-anchor="middle" x="244" y="-56.5" font-family="Helvetica,sans-Serif" font-size="10.00">::operator&#45;&gt;</text>
</a>
</g>
</g>
<!-- Node1&#45;&gt;Node11 -->
<g id="edge15" class="edge">
<title>Node1&#45;&gt;Node11</title>
<path fill="none" stroke="midnightblue" d="M81.03,-186.17C98.69,-163.54 134.48,-121.05 173,-94.5 178.63,-90.62 184.85,-87.08 191.18,-83.91"/>
<polygon fill="midnightblue" stroke="midnightblue" points="192.93,-86.95 200.48,-79.52 189.95,-80.62 192.93,-86.95"/>
</g>
<!-- Node12 -->
<g id="node12" class="node">
<title>Node12</title>
<g id="a_node12"><a xlink:href="../../d6/d8f/classrawspeed_1_1i_rectangle2_d.html#a85b5a792f7646c485c87068744ec99a8" target="_top" xlink:title=" ">
<polygon fill="none" stroke="black" points="173,-235.5 173,-265.5 315,-265.5 315,-235.5 173,-235.5"/>
<text text-anchor="start" x="181" y="-253.5" font-family="Helvetica,sans-Serif" font-size="10.00">rawspeed::iRectangle2D</text>
<text text-anchor="middle" x="244" y="-242.5" font-family="Helvetica,sans-Serif" font-size="10.00">::setBottomRightAbsolute</text>
</a>
</g>
</g>
<!-- Node1&#45;&gt;Node12 -->
<g id="edge17" class="edge">
<title>Node1&#45;&gt;Node12</title>
<path fill="none" stroke="midnightblue" d="M122.97,-216.6C141.03,-221.7 161.36,-227.44 180.08,-232.73"/>
<polygon fill="midnightblue" stroke="midnightblue" points="179.13,-236.1 189.71,-235.45 181.03,-229.36 179.13,-236.1"/>
</g>
<!-- Node14 -->
<g id="node14" class="node">
<title>Node14</title>
<g id="a_node14"><a xlink:href="../../d6/d8f/classrawspeed_1_1i_rectangle2_d.html#a20ef43ce186cdd3bd63929eeb6c727d9" target="_top" xlink:title=" ">
<polygon fill="none" stroke="black" points="177,-0.5 177,-30.5 311,-30.5 311,-0.5 177,-0.5"/>
<text text-anchor="start" x="185" y="-18.5" font-family="Helvetica,sans-Serif" font-size="10.00">rawspeed::iRectangle2D</text>
<text text-anchor="middle" x="244" y="-7.5" font-family="Helvetica,sans-Serif" font-size="10.00">::setTopLeft</text>
</a>
</g>
</g>
<!-- Node1&#45;&gt;Node14 -->
<g id="edge20" class="edge">
<title>Node1&#45;&gt;Node14</title>
<path fill="none" stroke="midnightblue" d="M75.22,-186.13C87.89,-154.16 121.31,-80.14 173,-39.5 174.76,-38.11 176.61,-36.8 178.53,-35.57"/>
<polygon fill="midnightblue" stroke="midnightblue" points="180.31,-38.58 187.28,-30.6 176.86,-32.49 180.31,-38.58"/>
</g>
<!-- Node4&#45;&gt;Node3 -->
<g id="edge4" class="edge">
<title>Node4&#45;&gt;Node3</title>
<path fill="none" stroke="midnightblue" d="M655.37,-283.9C663.78,-282.55 672.38,-281.18 680.76,-279.84"/>
<polygon fill="midnightblue" stroke="midnightblue" points="681.53,-283.26 690.86,-278.23 680.43,-276.35 681.53,-283.26"/>
</g>
<!-- Node6 -->
<g id="node6" class="node">
<title>Node6</title>
<g id="a_node6"><a xlink:href="../../d6/d8f/classrawspeed_1_1i_rectangle2_d.html#ad6ae3f2ed094abc10d38b954af7e5b99" target="_top" xlink:title=" ">
<polygon fill="none" stroke="black" points="351,-188.5 351,-218.5 485,-218.5 485,-188.5 351,-188.5"/>
<text text-anchor="start" x="359" y="-206.5" font-family="Helvetica,sans-Serif" font-size="10.00">rawspeed::iRectangle2D</text>
<text text-anchor="middle" x="418" y="-195.5" font-family="Helvetica,sans-Serif" font-size="10.00">::getBottomRight</text>
</a>
</g>
</g>
<!-- Node5&#45;&gt;Node6 -->
<g id="edge6" class="edge">
<title>Node5&#45;&gt;Node6</title>
<path fill="none" stroke="midnightblue" d="M295.68,-167.53C314.84,-173.21 336.83,-179.73 356.78,-185.64"/>
<polygon fill="midnightblue" stroke="midnightblue" points="355.81,-189.01 366.39,-188.49 357.8,-182.3 355.81,-189.01"/>
</g>
<!-- Node8 -->
<g id="node8" class="node">
<title>Node8</title>
<g id="a_node8"><a xlink:href="../../d8/d75/classrawspeed_1_1i_point2_d.html#a368d3167882bee5c5d42813d99a17c56" target="_top" xlink:title=" ">
<polygon fill="none" stroke="black" points="362.5,-139.5 362.5,-169.5 473.5,-169.5 473.5,-139.5 362.5,-139.5"/>
<text text-anchor="start" x="370.5" y="-157.5" font-family="Helvetica,sans-Serif" font-size="10.00">rawspeed::iPoint2D</text>
<text text-anchor="middle" x="418" y="-146.5" font-family="Helvetica,sans-Serif" font-size="10.00">::operator&lt;=</text>
</a>
</g>
</g>
<!-- Node5&#45;&gt;Node8 -->
<g id="edge9" class="edge">
<title>Node5&#45;&gt;Node8</title>
<path fill="none" stroke="midnightblue" d="M311.01,-153.27C324.52,-153.42 338.73,-153.59 352.2,-153.75"/>
<polygon fill="midnightblue" stroke="midnightblue" points="352.29,-157.25 362.33,-153.86 352.38,-150.25 352.29,-157.25"/>
</g>
<!-- Node5&#45;&gt;Node9 -->
<g id="edge10" class="edge">
<title>Node5&#45;&gt;Node9</title>
<path fill="none" stroke="midnightblue" d="M299.89,-137.5C316.58,-132.94 335.07,-127.89 352.33,-123.17"/>
<polygon fill="midnightblue" stroke="midnightblue" points="353.61,-126.45 362.33,-120.44 351.76,-119.7 353.61,-126.45"/>
</g>
<!-- Node7 -->
<g id="node7" class="node">
<title>Node7</title>
<g id="a_node7"><a xlink:href="../../d8/d75/classrawspeed_1_1i_point2_d.html#aed6c2f5995cd12a0bb27e6d7e2d88fdb" target="_top" xlink:title=" ">
<polygon fill="none" stroke="black" points="532.5,-181.5 532.5,-211.5 643.5,-211.5 643.5,-181.5 532.5,-181.5"/>
<text text-anchor="start" x="540.5" y="-199.5" font-family="Helvetica,sans-Serif" font-size="10.00">rawspeed::iPoint2D</text>
<text text-anchor="middle" x="588" y="-188.5" font-family="Helvetica,sans-Serif" font-size="10.00">::operator+</text>
</a>
</g>
</g>
<!-- Node6&#45;&gt;Node7 -->
<g id="edge7" class="edge">
<title>Node6&#45;&gt;Node7</title>
<path fill="none" stroke="midnightblue" d="M485.4,-200.73C497.58,-200.23 510.28,-199.7 522.4,-199.19"/>
<polygon fill="midnightblue" stroke="midnightblue" points="522.59,-202.69 532.43,-198.77 522.3,-195.69 522.59,-202.69"/>
</g>
<!-- Node7&#45;&gt;Node3 -->
<g id="edge8" class="edge">
<title>Node7&#45;&gt;Node3</title>
<path fill="none" stroke="midnightblue" d="M631.22,-211.59C639.19,-214.69 647.41,-218.07 655,-221.5 673.59,-229.91 693.7,-240.43 710.23,-249.47"/>
<polygon fill="midnightblue" stroke="midnightblue" points="708.57,-252.55 719.01,-254.32 711.95,-246.42 708.57,-252.55"/>
</g>
<!-- Node10&#45;&gt;Node6 -->
<g id="edge12" class="edge">
<title>Node10&#45;&gt;Node6</title>
<path fill="none" stroke="midnightblue" d="M311.01,-202.27C320.71,-202.38 330.77,-202.5 340.66,-202.61"/>
<polygon fill="midnightblue" stroke="midnightblue" points="340.84,-206.11 350.88,-202.73 340.93,-199.12 340.84,-206.11"/>
</g>
<!-- Node10&#45;&gt;Node8 -->
<g id="edge13" class="edge">
<title>Node10&#45;&gt;Node8</title>
<path fill="none" stroke="midnightblue" d="M299.89,-186.5C316.58,-181.94 335.07,-176.89 352.33,-172.17"/>
<polygon fill="midnightblue" stroke="midnightblue" points="353.61,-175.45 362.33,-169.44 351.76,-168.7 353.61,-175.45"/>
</g>
<!-- Node10&#45;&gt;Node9 -->
<g id="edge14" class="edge">
<title>Node10&#45;&gt;Node9</title>
<path fill="none" stroke="midnightblue" d="M297.91,-186.37C303.94,-183.57 309.79,-180.3 315,-176.5 336.26,-161 329.78,-145.06 351,-129.5 352.88,-128.12 354.84,-126.82 356.87,-125.58"/>
<polygon fill="midnightblue" stroke="midnightblue" points="358.96,-128.43 366.1,-120.59 355.63,-122.27 358.96,-128.43"/>
</g>
<!-- Node13 -->
<g id="node13" class="node">
<title>Node13</title>
<g id="a_node13"><a xlink:href="../../d8/d75/classrawspeed_1_1i_point2_d.html#a3c2f09435c8e2610e80b6e5f7f9c0705" target="_top" xlink:title=" ">
<polygon fill="none" stroke="black" points="532.5,-230.5 532.5,-260.5 643.5,-260.5 643.5,-230.5 532.5,-230.5"/>
<text text-anchor="start" x="540.5" y="-248.5" font-family="Helvetica,sans-Serif" font-size="10.00">rawspeed::iPoint2D</text>
<text text-anchor="middle" x="588" y="-237.5" font-family="Helvetica,sans-Serif" font-size="10.00">::operator&#45;</text>
</a>
</g>
</g>
<!-- Node12&#45;&gt;Node13 -->
<g id="edge18" class="edge">
<title>Node12&#45;&gt;Node13</title>
<path fill="none" stroke="midnightblue" d="M315.03,-249.48C375.69,-248.59 462.74,-247.32 521.9,-246.45"/>
<polygon fill="midnightblue" stroke="midnightblue" points="522.3,-249.95 532.25,-246.3 522.2,-242.95 522.3,-249.95"/>
</g>
<!-- Node13&#45;&gt;Node3 -->
<g id="edge19" class="edge">
<title>Node13&#45;&gt;Node3</title>
<path fill="none" stroke="midnightblue" d="M643.74,-253.89C655.65,-255.72 668.36,-257.67 680.63,-259.55"/>
<polygon fill="midnightblue" stroke="midnightblue" points="680.38,-263.05 690.79,-261.11 681.44,-256.14 680.38,-263.05"/>
</g>
</g>
</svg>
