<?xml version="1.0" encoding="UTF-8" standalone="no"?>
<!DOCTYPE svg PUBLIC "-//W3C//DTD SVG 1.1//EN"
 "http://www.w3.org/Graphics/SVG/1.1/DTD/svg11.dtd">
<!-- Generated by graphviz version 2.43.0 (0)
 -->
<!-- Title: rawspeed::FujiDecompressor::fuji_compressed_block Pages: 1 -->
<svg width="1659pt" height="475pt"
 viewBox="0.00 0.00 1659.00 475.00" xmlns="http://www.w3.org/2000/svg" xmlns:xlink="http://www.w3.org/1999/xlink">
<g id="graph0" class="graph" transform="scale(1 1) rotate(0) translate(4 471)">
<title>rawspeed::FujiDecompressor::fuji_compressed_block</title>
<!-- Node1 -->
<g id="node1" class="node">
<title>Node1</title>
<g id="a_node1"><a xlink:title=" ">
<polygon fill="#bfbfbf" stroke="black" points="1494,-333 1494,-363 1651,-363 1651,-333 1494,-333"/>
<text text-anchor="start" x="1502" y="-351" font-family="Helvetica,sans-Serif" font-size="10.00">rawspeed::FujiDecompressor</text>
<text text-anchor="middle" x="1572.5" y="-340" font-family="Helvetica,sans-Serif" font-size="10.00">::fuji_compressed_block</text>
</a>
</g>
</g>
<!-- Node2 -->
<g id="node2" class="node">
<title>Node2</title>
<g id="a_node2"><a xlink:title=" ">
<polygon fill="none" stroke="#bfbfbf" points="713,-374.5 713,-393.5 844,-393.5 844,-374.5 713,-374.5"/>
<text text-anchor="middle" x="778.5" y="-381.5" font-family="Helvetica,sans-Serif" font-size="10.00">std::vector&lt; uint16_t &gt;</text>
</a>
</g>
</g>
<!-- Node2&#45;&gt;Node1 -->
<g id="edge1" class="edge">
<title>Node2&#45;&gt;Node1</title>
<path fill="none" stroke="#9a32cd" stroke-dasharray="5,2" d="M854.41,-381.66C982.04,-377.49 1249.84,-367.99 1476,-355 1481.81,-354.67 1487.81,-354.29 1493.85,-353.9"/>
<polygon fill="#9a32cd" stroke="#9a32cd" points="854.23,-378.16 844.35,-381.98 854.46,-385.16 854.23,-378.16"/>
<text text-anchor="middle" x="1174" y="-376" font-family="Helvetica,sans-Serif" font-size="10.00"> linealloc</text>
</g>
<!-- Node3 -->
<g id="node3" class="node">
<title>Node3</title>
<g id="a_node3"><a xlink:href="../../d5/df4/classuint16__t.html" target="_top" xlink:title=" ">
<polygon fill="none" stroke="black" points="398,-435.5 398,-454.5 454,-454.5 454,-435.5 398,-435.5"/>
<text text-anchor="middle" x="426" y="-442.5" font-family="Helvetica,sans-Serif" font-size="10.00">uint16_t</text>
</a>
</g>
</g>
<!-- Node3&#45;&gt;Node2 -->
<g id="edge2" class="edge">
<title>Node3&#45;&gt;Node2</title>
<path fill="none" stroke="#9a32cd" stroke-dasharray="5,2" d="M464.42,-441.63C513.15,-436.77 600.74,-426.4 674,-409 682.2,-407.05 683.87,-405.25 692,-403 704.31,-399.59 717.75,-396.37 730.25,-393.59"/>
<polygon fill="#9a32cd" stroke="#9a32cd" points="463.96,-438.16 454.34,-442.61 464.64,-445.12 463.96,-438.16"/>
<text text-anchor="middle" x="607.5" y="-435" font-family="Helvetica,sans-Serif" font-size="10.00"> elements</text>
</g>
<!-- Node6 -->
<g id="node6" class="node">
<title>Node6</title>
<g id="a_node6"><a xlink:title=" ">
<polygon fill="none" stroke="#bfbfbf" points="726,-413 726,-443 831,-443 831,-413 726,-413"/>
<text text-anchor="start" x="734" y="-431" font-family="Helvetica,sans-Serif" font-size="10.00">std::array&lt; uint16</text>
<text text-anchor="middle" x="778.5" y="-420" font-family="Helvetica,sans-Serif" font-size="10.00">_t *, ltotal &gt;</text>
</a>
</g>
</g>
<!-- Node3&#45;&gt;Node6 -->
<g id="edge6" class="edge">
<title>Node3&#45;&gt;Node6</title>
<path fill="none" stroke="#9a32cd" stroke-dasharray="5,2" d="M464.16,-448.98C512.61,-453.46 599.92,-459.13 674,-451 691.02,-449.13 709.33,-445.59 725.75,-441.83"/>
<polygon fill="#9a32cd" stroke="#9a32cd" points="464.44,-445.49 454.15,-448.02 463.77,-452.46 464.44,-445.49"/>
<text text-anchor="middle" x="607.5" y="-459" font-family="Helvetica,sans-Serif" font-size="10.00"> elements</text>
</g>
<!-- Node4 -->
<g id="node4" class="node">
<title>Node4</title>
<g id="a_node4"><a xlink:title="STL class.">
<polygon fill="none" stroke="#bfbfbf" points="377.5,-388.5 377.5,-407.5 474.5,-407.5 474.5,-388.5 377.5,-388.5"/>
<text text-anchor="middle" x="426" y="-395.5" font-family="Helvetica,sans-Serif" font-size="10.00">std::vector&lt; T &gt;</text>
</a>
</g>
</g>
<!-- Node4&#45;&gt;Node2 -->
<g id="edge3" class="edge">
<title>Node4&#45;&gt;Node2</title>
<path fill="none" stroke="orange" stroke-dasharray="5,2" d="M484.76,-395.69C547.56,-393.18 647.67,-389.19 713,-386.58"/>
<polygon fill="orange" stroke="orange" points="484.49,-392.2 474.63,-396.1 484.77,-399.2 484.49,-392.2"/>
<text text-anchor="middle" x="607.5" y="-397" font-family="Helvetica,sans-Serif" font-size="10.00"> &lt; uint16_t &gt;</text>
</g>
<!-- Node5 -->
<g id="node5" class="node">
<title>Node5</title>
<g id="a_node5"><a xlink:title=" ">
<polygon fill="none" stroke="#bfbfbf" points="170,-354.5 170,-373.5 199,-373.5 199,-354.5 170,-354.5"/>
<text text-anchor="middle" x="184.5" y="-361.5" font-family="Helvetica,sans-Serif" font-size="10.00">T</text>
</a>
</g>
</g>
<!-- Node5&#45;&gt;Node4 -->
<g id="edge4" class="edge">
<title>Node5&#45;&gt;Node4</title>
<path fill="none" stroke="#9a32cd" stroke-dasharray="5,2" d="M209.4,-367.39C248.36,-372.92 326.31,-383.99 377.03,-391.19"/>
<polygon fill="#9a32cd" stroke="#9a32cd" points="209.46,-363.87 199.06,-365.93 208.47,-370.8 209.46,-363.87"/>
<text text-anchor="middle" x="281.5" y="-384" font-family="Helvetica,sans-Serif" font-size="10.00"> elements</text>
</g>
<!-- Node7 -->
<g id="node7" class="node">
<title>Node7</title>
<g id="a_node7"><a xlink:title="STL class.">
<polygon fill="none" stroke="#bfbfbf" points="380,-331.5 380,-350.5 472,-350.5 472,-331.5 380,-331.5"/>
<text text-anchor="middle" x="426" y="-338.5" font-family="Helvetica,sans-Serif" font-size="10.00">std::array&lt; T &gt;</text>
</a>
</g>
</g>
<!-- Node5&#45;&gt;Node7 -->
<g id="edge8" class="edge">
<title>Node5&#45;&gt;Node7</title>
<path fill="none" stroke="#9a32cd" stroke-dasharray="5,2" d="M209.09,-361.73C248.7,-357.93 329.21,-350.2 379.95,-345.33"/>
<polygon fill="#9a32cd" stroke="#9a32cd" points="208.68,-358.26 199.06,-362.7 209.35,-365.23 208.68,-358.26"/>
<text text-anchor="middle" x="281.5" y="-361" font-family="Helvetica,sans-Serif" font-size="10.00"> elements</text>
</g>
<!-- Node6&#45;&gt;Node1 -->
<g id="edge5" class="edge">
<title>Node6&#45;&gt;Node1</title>
<path fill="none" stroke="#9a32cd" stroke-dasharray="5,2" d="M841.23,-423.9C956.48,-416.06 1212.17,-397.77 1427,-376 1448.83,-373.79 1454.39,-373.8 1476,-370 1487.23,-368.03 1499.12,-365.58 1510.56,-363.04"/>
<polygon fill="#9a32cd" stroke="#9a32cd" points="840.93,-420.42 831.19,-424.58 841.4,-427.4 840.93,-420.42"/>
<text text-anchor="middle" x="1174" y="-408" font-family="Helvetica,sans-Serif" font-size="10.00"> linebuf</text>
</g>
<!-- Node7&#45;&gt;Node6 -->
<g id="edge7" class="edge">
<title>Node7&#45;&gt;Node6</title>
<path fill="none" stroke="orange" stroke-dasharray="5,2" d="M482.13,-345.86C549.98,-352.23 658.21,-363.79 674,-374 686.74,-382.24 679.92,-393.82 692,-403 701.85,-410.49 713.89,-415.74 725.8,-419.41"/>
<polygon fill="orange" stroke="orange" points="482.3,-342.36 472.02,-344.92 481.65,-349.33 482.3,-342.36"/>
<text text-anchor="middle" x="607.5" y="-377" font-family="Helvetica,sans-Serif" font-size="10.00"> &lt; uint16_t *, ltotal &gt;</text>
</g>
<!-- Node8 -->
<g id="node8" class="node">
<title>Node8</title>
<g id="a_node8"><a xlink:title=" ">
<polygon fill="none" stroke="#bfbfbf" points="694.5,-294.5 694.5,-335.5 862.5,-335.5 862.5,-294.5 694.5,-294.5"/>
<text text-anchor="start" x="702.5" y="-323.5" font-family="Helvetica,sans-Serif" font-size="10.00">std::array&lt; std::array</text>
<text text-anchor="start" x="702.5" y="-312.5" font-family="Helvetica,sans-Serif" font-size="10.00">&lt; rawspeed::FujiDecompressor</text>
<text text-anchor="middle" x="778.5" y="-301.5" font-family="Helvetica,sans-Serif" font-size="10.00">::int_pair, 41 &gt;, 3 &gt;</text>
</a>
</g>
</g>
<!-- Node7&#45;&gt;Node8 -->
<g id="edge11" class="edge">
<title>Node7&#45;&gt;Node8</title>
<path fill="none" stroke="orange" stroke-dasharray="5,2" d="M471.26,-329.01C492.22,-323.92 517.72,-318.57 541,-316 591.71,-310.4 648.9,-310 694.35,-311.07"/>
<polygon fill="orange" stroke="orange" points="470.22,-325.66 461.36,-331.47 471.91,-332.45 470.22,-325.66"/>
<text text-anchor="start" x="547.5" y="-341" font-family="Helvetica,sans-Serif" font-size="10.00"> &lt; std::array&lt; rawspeed</text>
<text text-anchor="start" x="547.5" y="-330" font-family="Helvetica,sans-Serif" font-size="10.00">::FujiDecompressor::int</text>
<text text-anchor="middle" x="607.5" y="-319" font-family="Helvetica,sans-Serif" font-size="10.00">_pair, 41 &gt;, 3 &gt;</text>
</g>
<!-- Node19 -->
<g id="node19" class="node">
<title>Node19</title>
<g id="a_node19"><a xlink:title=" ">
<polygon fill="none" stroke="#bfbfbf" points="717.5,-187.5 717.5,-228.5 839.5,-228.5 839.5,-187.5 717.5,-187.5"/>
<text text-anchor="start" x="725.5" y="-216.5" font-family="Helvetica,sans-Serif" font-size="10.00">std::array&lt; uint8_t,</text>
<text text-anchor="start" x="725.5" y="-205.5" font-family="Helvetica,sans-Serif" font-size="10.00"> BitStreamCacheBase</text>
<text text-anchor="middle" x="778.5" y="-194.5" font-family="Helvetica,sans-Serif" font-size="10.00">::MaxProcessBytes &gt;</text>
</a>
</g>
</g>
<!-- Node7&#45;&gt;Node19 -->
<g id="edge23" class="edge">
<title>Node7&#45;&gt;Node19</title>
<path fill="none" stroke="orange" stroke-dasharray="5,2" d="M482.01,-329.1C496.76,-323.74 511.73,-316.03 523,-305 538.4,-289.93 524.57,-273.93 541,-260 567.21,-237.77 656.41,-222.73 717.45,-214.75"/>
<polygon fill="orange" stroke="orange" points="480.77,-325.82 472.38,-332.3 482.97,-332.47 480.77,-325.82"/>
<text text-anchor="start" x="541" y="-274" font-family="Helvetica,sans-Serif" font-size="10.00"> &lt; uint8_t, BitStreamCache</text>
<text text-anchor="middle" x="607.5" y="-263" font-family="Helvetica,sans-Serif" font-size="10.00">Base::MaxProcessBytes &gt;</text>
</g>
<!-- Node8&#45;&gt;Node1 -->
<g id="edge9" class="edge">
<title>Node8&#45;&gt;Node1</title>
<path fill="none" stroke="#9a32cd" stroke-dasharray="5,2" d="M873,-317C967.59,-319.21 1117.99,-323.24 1248,-329 1332.03,-332.72 1428.24,-338.58 1493.75,-342.8"/>
<polygon fill="#9a32cd" stroke="#9a32cd" points="872.97,-313.5 862.89,-316.77 872.8,-320.5 872.97,-313.5"/>
<text text-anchor="middle" x="1174" y="-343" font-family="Helvetica,sans-Serif" font-size="10.00"> grad_even</text>
<text text-anchor="middle" x="1174" y="-332" font-family="Helvetica,sans-Serif" font-size="10.00">grad_odd</text>
</g>
<!-- Node9 -->
<g id="node9" class="node">
<title>Node9</title>
<g id="a_node9"><a xlink:title=" ">
<polygon fill="none" stroke="#bfbfbf" points="329,-266 329,-296 523,-296 523,-266 329,-266"/>
<text text-anchor="start" x="337" y="-284" font-family="Helvetica,sans-Serif" font-size="10.00">array&lt; rawspeed::FujiDecompressor</text>
<text text-anchor="middle" x="426" y="-273" font-family="Helvetica,sans-Serif" font-size="10.00">::int_pair, 41 &gt;</text>
</a>
</g>
</g>
<!-- Node9&#45;&gt;Node8 -->
<g id="edge10" class="edge">
<title>Node9&#45;&gt;Node8</title>
<path fill="none" stroke="#9a32cd" stroke-dasharray="5,2" d="M533.21,-284.63C576.93,-286.86 628.01,-290.4 674,-296 680.62,-296.81 687.46,-297.77 694.31,-298.83"/>
<polygon fill="#9a32cd" stroke="#9a32cd" points="533.3,-281.13 523.14,-284.14 532.95,-288.12 533.3,-281.13"/>
<text text-anchor="middle" x="607.5" y="-299" font-family="Helvetica,sans-Serif" font-size="10.00"> elements</text>
</g>
<!-- Node10 -->
<g id="node10" class="node">
<title>Node10</title>
<g id="a_node10"><a xlink:href="../../d3/ded/classrawspeed_1_1_bit_stream.html" target="_top" xlink:title=" ">
<polygon fill="none" stroke="black" points="1266,-150.5 1266,-191.5 1427,-191.5 1427,-150.5 1266,-150.5"/>
<text text-anchor="start" x="1274" y="-179.5" font-family="Helvetica,sans-Serif" font-size="10.00">rawspeed::BitStream</text>
<text text-anchor="start" x="1274" y="-168.5" font-family="Helvetica,sans-Serif" font-size="10.00">&lt; MSBBitPumpTag, BitStream</text>
<text text-anchor="middle" x="1346.5" y="-157.5" font-family="Helvetica,sans-Serif" font-size="10.00">CacheRightInLeftOut &gt;</text>
</a>
</g>
</g>
<!-- Node10&#45;&gt;Node1 -->
<g id="edge12" class="edge">
<title>Node10&#45;&gt;Node1</title>
<path fill="none" stroke="#9a32cd" stroke-dasharray="5,2" d="M1381.52,-197.88C1429.24,-235.59 1514.43,-302.9 1552.37,-332.88"/>
<polygon fill="#9a32cd" stroke="#9a32cd" points="1383.65,-195.1 1373.63,-191.65 1379.31,-200.6 1383.65,-195.1"/>
<text text-anchor="middle" x="1460.5" y="-274" font-family="Helvetica,sans-Serif" font-size="10.00"> pump</text>
</g>
<!-- Node11 -->
<g id="node11" class="node">
<title>Node11</title>
<g id="a_node11"><a xlink:href="../../dd/da0/classrawspeed_1_1_byte_stream.html" target="_top" xlink:title=" ">
<polygon fill="none" stroke="black" points="714.5,-138.5 714.5,-157.5 842.5,-157.5 842.5,-138.5 714.5,-138.5"/>
<text text-anchor="middle" x="778.5" y="-145.5" font-family="Helvetica,sans-Serif" font-size="10.00">rawspeed::ByteStream</text>
</a>
</g>
</g>
<!-- Node11&#45;&gt;Node10 -->
<g id="edge13" class="edge">
<title>Node11&#45;&gt;Node10</title>
<path fill="none" stroke="midnightblue" d="M852.65,-145.97C945.01,-144.19 1108.67,-143.67 1248,-157 1253.79,-157.55 1259.76,-158.21 1265.76,-158.92"/>
<polygon fill="midnightblue" stroke="midnightblue" points="852.5,-142.47 842.57,-146.17 852.64,-149.47 852.5,-142.47"/>
</g>
<!-- Node25 -->
<g id="node25" class="node">
<title>Node25</title>
<g id="a_node25"><a xlink:href="../../d3/ded/classrawspeed_1_1_bit_stream.html" target="_top" xlink:title=" ">
<polygon fill="none" stroke="black" points="948,-207 948,-237 1067,-237 1067,-207 948,-207"/>
<text text-anchor="start" x="956" y="-225" font-family="Helvetica,sans-Serif" font-size="10.00">rawspeed::BitStream</text>
<text text-anchor="middle" x="1007.5" y="-214" font-family="Helvetica,sans-Serif" font-size="10.00">&lt; Tag, Cache &gt;</text>
</a>
</g>
</g>
<!-- Node11&#45;&gt;Node25 -->
<g id="edge30" class="edge">
<title>Node11&#45;&gt;Node25</title>
<path fill="none" stroke="midnightblue" d="M818.46,-160.7C857.73,-173.5 918.34,-193.26 960.08,-206.87"/>
<polygon fill="midnightblue" stroke="midnightblue" points="819.3,-157.29 808.71,-157.52 817.13,-163.95 819.3,-157.29"/>
</g>
<!-- Node12 -->
<g id="node12" class="node">
<title>Node12</title>
<g id="a_node12"><a xlink:href="../../d1/dd4/classrawspeed_1_1_data_buffer.html" target="_top" xlink:title=" ">
<polygon fill="none" stroke="black" points="365,-117.5 365,-136.5 487,-136.5 487,-117.5 365,-117.5"/>
<text text-anchor="middle" x="426" y="-124.5" font-family="Helvetica,sans-Serif" font-size="10.00">rawspeed::DataBuffer</text>
</a>
</g>
</g>
<!-- Node12&#45;&gt;Node11 -->
<g id="edge14" class="edge">
<title>Node12&#45;&gt;Node11</title>
<path fill="none" stroke="midnightblue" d="M497.58,-131.23C561.05,-135.03 653.45,-140.57 714.49,-144.22"/>
<polygon fill="midnightblue" stroke="midnightblue" points="497.44,-127.71 487.25,-130.61 497.03,-134.7 497.44,-127.71"/>
</g>
<!-- Node13 -->
<g id="node13" class="node">
<title>Node13</title>
<g id="a_node13"><a xlink:href="../../d3/dca/classrawspeed_1_1_buffer.html" target="_top" xlink:title=" ">
<polygon fill="none" stroke="black" points="135,-117.5 135,-136.5 234,-136.5 234,-117.5 135,-117.5"/>
<text text-anchor="middle" x="184.5" y="-124.5" font-family="Helvetica,sans-Serif" font-size="10.00">rawspeed::Buffer</text>
</a>
</g>
</g>
<!-- Node13&#45;&gt;Node12 -->
<g id="edge15" class="edge">
<title>Node13&#45;&gt;Node12</title>
<path fill="none" stroke="midnightblue" d="M244.3,-127C280.93,-127 327.95,-127 364.84,-127"/>
<polygon fill="midnightblue" stroke="midnightblue" points="244.26,-123.5 234.26,-127 244.26,-130.5 244.26,-123.5"/>
</g>
<!-- Node14 -->
<g id="node14" class="node">
<title>Node14</title>
<g id="a_node14"><a xlink:href="../../d3/d87/classuint32__t.html" target="_top" xlink:title=" ">
<polygon fill="none" stroke="black" points="0,-122.5 0,-141.5 56,-141.5 56,-122.5 0,-122.5"/>
<text text-anchor="middle" x="28" y="-129.5" font-family="Helvetica,sans-Serif" font-size="10.00">uint32_t</text>
</a>
</g>
</g>
<!-- Node14&#45;&gt;Node13 -->
<g id="edge16" class="edge">
<title>Node14&#45;&gt;Node13</title>
<path fill="none" stroke="#9a32cd" stroke-dasharray="5,2" d="M66.51,-130.79C87.1,-130.12 112.87,-129.29 134.97,-128.57"/>
<polygon fill="#9a32cd" stroke="#9a32cd" points="66.15,-127.3 56.27,-131.12 66.37,-134.29 66.15,-127.3"/>
<text text-anchor="middle" x="95.5" y="-134" font-family="Helvetica,sans-Serif" font-size="10.00"> size</text>
</g>
<!-- Node15 -->
<g id="node15" class="node">
<title>Node15</title>
<g id="a_node15"><a xlink:title=" ">
<polygon fill="none" stroke="#bfbfbf" points="9,-84.5 9,-103.5 47,-103.5 47,-84.5 9,-84.5"/>
<text text-anchor="middle" x="28" y="-91.5" font-family="Helvetica,sans-Serif" font-size="10.00">bool</text>
</a>
</g>
</g>
<!-- Node15&#45;&gt;Node13 -->
<g id="edge17" class="edge">
<title>Node15&#45;&gt;Node13</title>
<path fill="none" stroke="#9a32cd" stroke-dasharray="5,2" d="M57.06,-99.99C79.88,-104.87 112.5,-111.83 138.89,-117.47"/>
<polygon fill="#9a32cd" stroke="#9a32cd" points="57.54,-96.52 47.03,-97.85 56.07,-103.36 57.54,-96.52"/>
<text text-anchor="middle" x="95.5" y="-116" font-family="Helvetica,sans-Serif" font-size="10.00"> isOwner</text>
</g>
<!-- Node16 -->
<g id="node16" class="node">
<title>Node16</title>
<g id="a_node16"><a xlink:title=" ">
<polygon fill="none" stroke="#bfbfbf" points="3,-171.5 3,-190.5 53,-190.5 53,-171.5 3,-171.5"/>
<text text-anchor="middle" x="28" y="-178.5" font-family="Helvetica,sans-Serif" font-size="10.00">uint8_t</text>
</a>
</g>
</g>
<!-- Node16&#45;&gt;Node13 -->
<g id="edge18" class="edge">
<title>Node16&#45;&gt;Node13</title>
<path fill="none" stroke="#9a32cd" stroke-dasharray="5,2" d="M62.9,-169.15C90.9,-159.37 130.12,-145.66 156.15,-136.56"/>
<polygon fill="#9a32cd" stroke="#9a32cd" points="61.43,-165.96 53.14,-172.56 63.74,-172.57 61.43,-165.96"/>
<text text-anchor="middle" x="95.5" y="-169" font-family="Helvetica,sans-Serif" font-size="10.00"> data</text>
</g>
<!-- Node16&#45;&gt;Node19 -->
<g id="edge22" class="edge">
<title>Node16&#45;&gt;Node19</title>
<path fill="none" stroke="#9a32cd" stroke-dasharray="5,2" d="M63.24,-182.24C180.61,-186.47 567.59,-200.43 717.47,-205.83"/>
<polygon fill="#9a32cd" stroke="#9a32cd" points="63.18,-178.73 53.06,-181.87 62.92,-185.73 63.18,-178.73"/>
<text text-anchor="middle" x="281.5" y="-195" font-family="Helvetica,sans-Serif" font-size="10.00"> elements</text>
</g>
<!-- Node17 -->
<g id="node17" class="node">
<title>Node17</title>
<g id="a_node17"><a xlink:title=" ">
<polygon fill="none" stroke="#bfbfbf" points="148.5,-155.5 148.5,-174.5 220.5,-174.5 220.5,-155.5 148.5,-155.5"/>
<text text-anchor="middle" x="184.5" y="-162.5" font-family="Helvetica,sans-Serif" font-size="10.00">Endianness</text>
</a>
</g>
</g>
<!-- Node17&#45;&gt;Node12 -->
<g id="edge19" class="edge">
<title>Node17&#45;&gt;Node12</title>
<path fill="none" stroke="#9a32cd" stroke-dasharray="5,2" d="M230.82,-157.81C268.74,-151.79 323.17,-143.16 364.75,-136.56"/>
<polygon fill="#9a32cd" stroke="#9a32cd" points="229.91,-154.41 220.58,-159.43 231.01,-161.32 229.91,-154.41"/>
<text text-anchor="middle" x="281.5" y="-157" font-family="Helvetica,sans-Serif" font-size="10.00"> endianness</text>
</g>
<!-- Node18 -->
<g id="node18" class="node">
<title>Node18</title>
<g id="a_node18"><a xlink:title=" ">
<polygon fill="none" stroke="#bfbfbf" points="394.5,-155.5 394.5,-174.5 457.5,-174.5 457.5,-155.5 394.5,-155.5"/>
<text text-anchor="middle" x="426" y="-162.5" font-family="Helvetica,sans-Serif" font-size="10.00">size_type</text>
</a>
</g>
</g>
<!-- Node18&#45;&gt;Node11 -->
<g id="edge20" class="edge">
<title>Node18&#45;&gt;Node11</title>
<path fill="none" stroke="#9a32cd" stroke-dasharray="5,2" d="M468.14,-163C528.87,-160.06 643.03,-154.52 714.4,-151.06"/>
<polygon fill="#9a32cd" stroke="#9a32cd" points="467.62,-159.53 457.8,-163.51 467.96,-166.52 467.62,-159.53"/>
<text text-anchor="middle" x="607.5" y="-163" font-family="Helvetica,sans-Serif" font-size="10.00"> pos</text>
</g>
<!-- Node19&#45;&gt;Node10 -->
<g id="edge21" class="edge">
<title>Node19&#45;&gt;Node10</title>
<path fill="none" stroke="#9a32cd" stroke-dasharray="5,2" d="M849.99,-196.3C876,-192.4 905.78,-188.44 933,-186 1048.45,-175.66 1182.69,-172.4 1265.88,-171.4"/>
<polygon fill="#9a32cd" stroke="#9a32cd" points="849.2,-192.88 839.84,-197.84 850.25,-199.8 849.2,-192.88"/>
<text text-anchor="middle" x="1007.5" y="-189" font-family="Helvetica,sans-Serif" font-size="10.00"> tmp</text>
</g>
<!-- Node19&#45;&gt;Node25 -->
<g id="edge31" class="edge">
<title>Node19&#45;&gt;Node25</title>
<path fill="none" stroke="#9a32cd" stroke-dasharray="5,2" d="M849.76,-212.33C881.26,-214.28 917.97,-216.54 947.95,-218.39"/>
<polygon fill="#9a32cd" stroke="#9a32cd" points="849.93,-208.84 839.74,-211.71 849.5,-215.82 849.93,-208.84"/>
<text text-anchor="middle" x="899" y="-220" font-family="Helvetica,sans-Serif" font-size="10.00"> tmp</text>
</g>
<!-- Node20 -->
<g id="node20" class="node">
<title>Node20</title>
<g id="a_node20"><a xlink:href="../../d0/d45/structrawspeed_1_1_bit_stream_cache_right_in_left_out.html" target="_top" xlink:title=" ">
<polygon fill="none" stroke="black" points="933,-58 933,-88 1082,-88 1082,-58 933,-58"/>
<text text-anchor="start" x="941" y="-76" font-family="Helvetica,sans-Serif" font-size="10.00">rawspeed::BitStreamCache</text>
<text text-anchor="middle" x="1007.5" y="-65" font-family="Helvetica,sans-Serif" font-size="10.00">RightInLeftOut</text>
</a>
</g>
</g>
<!-- Node20&#45;&gt;Node10 -->
<g id="edge24" class="edge">
<title>Node20&#45;&gt;Node10</title>
<path fill="none" stroke="#9a32cd" stroke-dasharray="5,2" d="M1092.26,-72C1139.42,-73.98 1198.59,-80.79 1248,-100 1277.27,-111.38 1305.72,-133.8 1324.25,-150.42"/>
<polygon fill="#9a32cd" stroke="#9a32cd" points="1092.19,-68.5 1082.08,-71.64 1091.95,-75.49 1092.19,-68.5"/>
<text text-anchor="middle" x="1174" y="-103" font-family="Helvetica,sans-Serif" font-size="10.00"> cache</text>
</g>
<!-- Node21 -->
<g id="node21" class="node">
<title>Node21</title>
<g id="a_node21"><a xlink:href="../../d0/d4e/structrawspeed_1_1_bit_stream_cache_base.html" target="_top" xlink:title=" ">
<polygon fill="none" stroke="black" points="692,-42.5 692,-61.5 865,-61.5 865,-42.5 692,-42.5"/>
<text text-anchor="middle" x="778.5" y="-49.5" font-family="Helvetica,sans-Serif" font-size="10.00">rawspeed::BitStreamCacheBase</text>
</a>
</g>
</g>
<!-- Node21&#45;&gt;Node20 -->
<g id="edge25" class="edge">
<title>Node21&#45;&gt;Node20</title>
<path fill="none" stroke="midnightblue" d="M875.3,-60.86C894.54,-62.64 914.47,-64.49 932.81,-66.18"/>
<polygon fill="midnightblue" stroke="midnightblue" points="875.6,-57.38 865.32,-59.94 874.95,-64.35 875.6,-57.38"/>
</g>
<!-- Node22 -->
<g id="node22" class="node">
<title>Node22</title>
<g id="a_node22"><a xlink:href="../../d6/d30/classuint64__t.html" target="_top" xlink:title=" ">
<polygon fill="none" stroke="black" points="398,-38.5 398,-57.5 454,-57.5 454,-38.5 398,-38.5"/>
<text text-anchor="middle" x="426" y="-45.5" font-family="Helvetica,sans-Serif" font-size="10.00">uint64_t</text>
</a>
</g>
</g>
<!-- Node22&#45;&gt;Node21 -->
<g id="edge26" class="edge">
<title>Node22&#45;&gt;Node21</title>
<path fill="none" stroke="#9a32cd" stroke-dasharray="5,2" d="M464.32,-48.43C518.13,-49.04 619.02,-50.19 691.77,-51.02"/>
<polygon fill="#9a32cd" stroke="#9a32cd" points="464.25,-44.92 454.21,-48.31 464.17,-51.92 464.25,-44.92"/>
<text text-anchor="middle" x="607.5" y="-54" font-family="Helvetica,sans-Serif" font-size="10.00"> cache</text>
</g>
<!-- Node23 -->
<g id="node23" class="node">
<title>Node23</title>
<g id="a_node23"><a xlink:title=" ">
<polygon fill="none" stroke="#bfbfbf" points="411.5,-0.5 411.5,-19.5 440.5,-19.5 440.5,-0.5 411.5,-0.5"/>
<text text-anchor="middle" x="426" y="-7.5" font-family="Helvetica,sans-Serif" font-size="10.00">int</text>
</a>
</g>
</g>
<!-- Node23&#45;&gt;Node21 -->
<g id="edge27" class="edge">
<title>Node23&#45;&gt;Node21</title>
<path fill="none" stroke="#9a32cd" stroke-dasharray="5,2" d="M450.7,-11.91C494.77,-15.56 592.27,-24.16 674,-35 690.16,-37.14 707.67,-39.86 723.61,-42.5"/>
<polygon fill="#9a32cd" stroke="#9a32cd" points="450.94,-8.42 440.69,-11.09 450.37,-15.39 450.94,-8.42"/>
<text text-anchor="middle" x="607.5" y="-38" font-family="Helvetica,sans-Serif" font-size="10.00"> fillLevel</text>
</g>
<!-- Node24 -->
<g id="node24" class="node">
<title>Node24</title>
<g id="a_node24"><a xlink:title=" ">
<polygon fill="none" stroke="#bfbfbf" points="355,-76.5 355,-95.5 497,-95.5 497,-76.5 355,-76.5"/>
<text text-anchor="middle" x="426" y="-83.5" font-family="Helvetica,sans-Serif" font-size="10.00">static constexpr unsigned</text>
</a>
</g>
</g>
<!-- Node24&#45;&gt;Node21 -->
<g id="edge28" class="edge">
<title>Node24&#45;&gt;Node21</title>
<path fill="none" stroke="#9a32cd" stroke-dasharray="5,2" d="M507.16,-78.22C562.29,-72.88 635.43,-65.78 691.73,-60.32"/>
<polygon fill="#9a32cd" stroke="#9a32cd" points="506.7,-74.75 497.09,-79.2 507.38,-81.72 506.7,-74.75"/>
<text text-anchor="middle" x="607.5" y="-100" font-family="Helvetica,sans-Serif" font-size="10.00"> Size</text>
<text text-anchor="middle" x="607.5" y="-89" font-family="Helvetica,sans-Serif" font-size="10.00">MaxProcessBytes</text>
<text text-anchor="middle" x="607.5" y="-78" font-family="Helvetica,sans-Serif" font-size="10.00">MaxGetBits</text>
</g>
<!-- Node25&#45;&gt;Node10 -->
<g id="edge29" class="edge">
<title>Node25&#45;&gt;Node10</title>
<path fill="none" stroke="orange" stroke-dasharray="5,2" d="M1077.14,-211.61C1131.78,-203.34 1208.33,-191.76 1265.7,-183.08"/>
<polygon fill="orange" stroke="orange" points="1076.56,-208.16 1067.2,-213.12 1077.61,-215.08 1076.56,-208.16"/>
<text text-anchor="start" x="1100" y="-221" font-family="Helvetica,sans-Serif" font-size="10.00"> &lt; MSBBitPumpTag, BitStream</text>
<text text-anchor="middle" x="1174" y="-210" font-family="Helvetica,sans-Serif" font-size="10.00">CacheRightInLeftOut &gt;</text>
</g>
<!-- Node26 -->
<g id="node26" class="node">
<title>Node26</title>
<g id="a_node26"><a xlink:title=" ">
<polygon fill="none" stroke="#bfbfbf" points="755,-253.5 755,-272.5 802,-272.5 802,-253.5 755,-253.5"/>
<text text-anchor="middle" x="778.5" y="-260.5" font-family="Helvetica,sans-Serif" font-size="10.00">Cache</text>
</a>
</g>
</g>
<!-- Node26&#45;&gt;Node25 -->
<g id="edge32" class="edge">
<title>Node26&#45;&gt;Node25</title>
<path fill="none" stroke="#9a32cd" stroke-dasharray="5,2" d="M812.33,-257.07C847.66,-250.69 904.59,-240.41 947.69,-232.62"/>
<polygon fill="#9a32cd" stroke="#9a32cd" points="811.31,-253.7 802.1,-258.92 812.56,-260.59 811.31,-253.7"/>
<text text-anchor="middle" x="899" y="-247" font-family="Helvetica,sans-Serif" font-size="10.00"> cache</text>
</g>
</g>
</svg>
