<?xml version="1.0" encoding="UTF-8" standalone="no"?>
<!DOCTYPE svg PUBLIC "-//W3C//DTD SVG 1.1//EN"
 "http://www.w3.org/Graphics/SVG/1.1/DTD/svg11.dtd">
<!-- Generated by graphviz version 2.43.0 (0)
 -->
<!-- Title: rawspeed::HuffmanTableLookup Pages: 1 -->
<!--zoomable 332 -->
<svg id="main" version="1.1" xmlns="http://www.w3.org/2000/svg" xmlns:xlink="http://www.w3.org/1999/xlink" xml:space="preserve" onload="init(evt)">
<style type="text/css"><![CDATA[
.edge:hover path { stroke: red; }
.edge:hover polygon { stroke: red; fill: red; }
]]></style>
<script type="text/javascript"><![CDATA[
var edges = document.getElementsByTagName('g');
if (edges && edges.length) {
  for (var i=0;i<edges.length;i++) {
    if (edges[i].id.substr(0,4)=='edge') {
      edges[i].setAttribute('class','edge');
    }
  }
}
]]></script>
        <defs>
                <circle id="rim" cx="0" cy="0" r="7"/>
                <circle id="rim2" cx="0" cy="0" r="3.5"/>
                <g id="zoomPlus">
                        <use xlink:href="#rim" fill="#404040">
                                <set attributeName="fill" to="#808080" begin="zoomplus.mouseover" end="zoomplus.mouseout"/>
                        </use>
                        <path d="M-4,0h8M0,-4v8" fill="none" stroke="white" stroke-width="1.5" pointer-events="none"/>
                </g>
                <g id="zoomMin">
                        <use xlink:href="#rim" fill="#404040">
                                <set attributeName="fill" to="#808080" begin="zoomminus.mouseover" end="zoomminus.mouseout"/>
                        </use>
                        <path d="M-4,0h8" fill="none" stroke="white" stroke-width="1.5" pointer-events="none"/>
                </g>
                <g id="dirArrow">
                        <path fill="none" stroke="white" stroke-width="1.5" d="M0,-3.0v7 M-2.5,-0.5L0,-3.0L2.5,-0.5"/>
                </g>
               <g id="resetDef">
                       <use xlink:href="#rim2" fill="#404040">
                               <set attributeName="fill" to="#808080" begin="reset.mouseover" end="reset.mouseout"/>
                       </use>
               </g>
        </defs>

<script type="text/javascript">
var viewWidth = 958;
var viewHeight = 332;
var sectionId = 'dynsection-1';
</script>
<script xlink:href="../../svgpan.js"/>
<svg id="graph" class="graph">
<g id="viewport">
<title>rawspeed::HuffmanTableLookup</title>
<!-- Node1 -->
<g id="node1" class="node">
<title>Node1</title>
<g id="a_node1"><a xlink:title=" ">
<polygon fill="#bfbfbf" stroke="black" points="777,-67.5 777,-86.5 950,-86.5 950,-67.5 777,-67.5"/>
<text text-anchor="middle" x="863.5" y="-74.5" font-family="Helvetica,sans-Serif" font-size="10.00">rawspeed::HuffmanTableLookup</text>
</a>
</g>
</g>
<!-- Node2 -->
<g id="node2" class="node">
<title>Node2</title>
<g id="a_node2"><a xlink:href="../../d8/d1c/classrawspeed_1_1_abstract_huffman_table.html" target="_top" xlink:title=" ">
<polygon fill="none" stroke="black" points="588,-169 588,-199 740,-199 740,-169 588,-169"/>
<text text-anchor="start" x="596" y="-187" font-family="Helvetica,sans-Serif" font-size="10.00">rawspeed::AbstractHuffman</text>
<text text-anchor="middle" x="664" y="-176" font-family="Helvetica,sans-Serif" font-size="10.00">Table</text>
</a>
</g>
</g>
<!-- Node2&#45;&gt;Node1 -->
<g id="edge1" class="edge">
<title>Node2&#45;&gt;Node1</title>
<path fill="none" stroke="midnightblue" d="M701.8,-164.06C744.35,-141.01 812.63,-104.02 844.73,-86.63"/>
<polygon fill="midnightblue" stroke="midnightblue" points="700,-161.06 692.88,-168.9 703.34,-167.21 700,-161.06"/>
</g>
<!-- Node3 -->
<g id="node3" class="node">
<title>Node3</title>
<g id="a_node3"><a xlink:title=" ">
<polygon fill="none" stroke="#bfbfbf" points="375.5,-304.5 375.5,-323.5 421.5,-323.5 421.5,-304.5 375.5,-304.5"/>
<text text-anchor="middle" x="398.5" y="-311.5" font-family="Helvetica,sans-Serif" font-size="10.00">return</text>
</a>
</g>
</g>
<!-- Node3&#45;&gt;Node2 -->
<g id="edge2" class="edge">
<title>Node3&#45;&gt;Node2</title>
<path fill="none" stroke="#9a32cd" stroke-dasharray="5,2" d="M432.1,-310.7C467.78,-306.01 525.8,-295.12 570,-271 603.96,-252.47 634.95,-218.62 651.16,-199.05"/>
<polygon fill="#9a32cd" stroke="#9a32cd" points="431.28,-307.28 421.78,-311.97 432.13,-314.23 431.28,-307.28"/>
<text text-anchor="middle" x="526" y="-304" font-family="Helvetica,sans-Serif" font-size="10.00"> ret</text>
</g>
<!-- Node4 -->
<g id="node4" class="node">
<title>Node4</title>
<g id="a_node4"><a xlink:title=" ">
<polygon fill="none" stroke="#bfbfbf" points="336,-140.5 336,-159.5 461,-159.5 461,-140.5 336,-140.5"/>
<text text-anchor="middle" x="398.5" y="-147.5" font-family="Helvetica,sans-Serif" font-size="10.00">std::vector&lt; uint8_t &gt;</text>
</a>
</g>
</g>
<!-- Node4&#45;&gt;Node2 -->
<g id="edge3" class="edge">
<title>Node4&#45;&gt;Node2</title>
<path fill="none" stroke="#9a32cd" stroke-dasharray="5,2" d="M471.29,-156.53C501.78,-159.58 537.68,-163.52 570,-168 575.84,-168.81 581.88,-169.71 587.94,-170.65"/>
<polygon fill="#9a32cd" stroke="#9a32cd" points="471.47,-153.03 461.17,-155.53 470.78,-160 471.47,-153.03"/>
<text text-anchor="middle" x="526" y="-171" font-family="Helvetica,sans-Serif" font-size="10.00"> codeValues</text>
</g>
<!-- Node5 -->
<g id="node5" class="node">
<title>Node5</title>
<g id="a_node5"><a xlink:title=" ">
<polygon fill="none" stroke="#bfbfbf" points="137.5,-208.5 137.5,-227.5 187.5,-227.5 187.5,-208.5 137.5,-208.5"/>
<text text-anchor="middle" x="162.5" y="-215.5" font-family="Helvetica,sans-Serif" font-size="10.00">uint8_t</text>
</a>
</g>
</g>
<!-- Node5&#45;&gt;Node4 -->
<g id="edge4" class="edge">
<title>Node5&#45;&gt;Node4</title>
<path fill="none" stroke="#9a32cd" stroke-dasharray="5,2" d="M197.98,-220.67C230.59,-221.52 279.67,-218.32 315,-196 327.19,-188.3 321.39,-177.55 333,-169 338.26,-165.12 344.31,-162.03 350.55,-159.57"/>
<polygon fill="#9a32cd" stroke="#9a32cd" points="197.73,-217.16 187.59,-220.25 197.44,-224.15 197.73,-217.16"/>
<text text-anchor="middle" x="272" y="-223" font-family="Helvetica,sans-Serif" font-size="10.00"> elements</text>
</g>
<!-- Node6 -->
<g id="node6" class="node">
<title>Node6</title>
<g id="a_node6"><a xlink:title="STL class.">
<polygon fill="none" stroke="#bfbfbf" points="114,-123.5 114,-142.5 211,-142.5 211,-123.5 114,-123.5"/>
<text text-anchor="middle" x="162.5" y="-130.5" font-family="Helvetica,sans-Serif" font-size="10.00">std::vector&lt; T &gt;</text>
</a>
</g>
</g>
<!-- Node6&#45;&gt;Node4 -->
<g id="edge5" class="edge">
<title>Node6&#45;&gt;Node4</title>
<path fill="none" stroke="orange" stroke-dasharray="5,2" d="M221.14,-137.19C255.91,-139.71 300.2,-142.93 335.7,-145.51"/>
<polygon fill="orange" stroke="orange" points="221.36,-133.69 211.14,-136.46 220.86,-140.68 221.36,-133.69"/>
<text text-anchor="middle" x="272" y="-146" font-family="Helvetica,sans-Serif" font-size="10.00"> &lt; uint8_t &gt;</text>
</g>
<!-- Node10 -->
<g id="node10" class="node">
<title>Node10</title>
<g id="a_node10"><a xlink:title=" ">
<polygon fill="none" stroke="#bfbfbf" points="336.5,-255 336.5,-285 460.5,-285 460.5,-255 336.5,-255"/>
<text text-anchor="start" x="344.5" y="-273" font-family="Helvetica,sans-Serif" font-size="10.00">std::vector&lt; unsigned</text>
<text text-anchor="middle" x="398.5" y="-262" font-family="Helvetica,sans-Serif" font-size="10.00"> int &gt;</text>
</a>
</g>
</g>
<!-- Node6&#45;&gt;Node10 -->
<g id="edge11" class="edge">
<title>Node6&#45;&gt;Node10</title>
<path fill="none" stroke="orange" stroke-dasharray="5,2" d="M196.73,-146.29C207.01,-150.23 218.42,-154.45 229,-158 266.74,-170.66 286.86,-154.85 315,-183 335.29,-203.29 313.61,-223.85 333,-245 336.57,-248.9 340.82,-252.19 345.41,-254.98"/>
<polygon fill="orange" stroke="orange" points="197.87,-142.98 187.29,-142.62 195.34,-149.5 197.87,-142.98"/>
<text text-anchor="middle" x="272" y="-186" font-family="Helvetica,sans-Serif" font-size="10.00"> &lt; unsigned int &gt;</text>
</g>
<!-- Node13 -->
<g id="node13" class="node">
<title>Node13</title>
<g id="a_node13"><a xlink:title=" ">
<polygon fill="none" stroke="#bfbfbf" points="333,-20.5 333,-39.5 464,-39.5 464,-20.5 333,-20.5"/>
<text text-anchor="middle" x="398.5" y="-27.5" font-family="Helvetica,sans-Serif" font-size="10.00">std::vector&lt; uint16_t &gt;</text>
</a>
</g>
</g>
<!-- Node6&#45;&gt;Node13 -->
<g id="edge15" class="edge">
<title>Node6&#45;&gt;Node13</title>
<path fill="none" stroke="orange" stroke-dasharray="5,2" d="M180.65,-116.42C193.13,-105.19 210.96,-90.85 229,-82 264.42,-64.63 277.3,-71.64 315,-60 334.8,-53.88 356.85,-45.8 373.17,-39.56"/>
<polygon fill="orange" stroke="orange" points="178.22,-113.89 173.26,-123.25 182.98,-119.03 178.22,-113.89"/>
<text text-anchor="middle" x="272" y="-85" font-family="Helvetica,sans-Serif" font-size="10.00"> &lt; uint16_t &gt;</text>
</g>
<!-- Node15 -->
<g id="node15" class="node">
<title>Node15</title>
<g id="a_node15"><a xlink:title=" ">
<polygon fill="none" stroke="#bfbfbf" points="333,-64.5 333,-83.5 464,-83.5 464,-64.5 333,-64.5"/>
<text text-anchor="middle" x="398.5" y="-71.5" font-family="Helvetica,sans-Serif" font-size="10.00">std::vector&lt; uint32_t &gt;</text>
</a>
</g>
</g>
<!-- Node6&#45;&gt;Node15 -->
<g id="edge18" class="edge">
<title>Node6&#45;&gt;Node15</title>
<path fill="none" stroke="orange" stroke-dasharray="5,2" d="M211.22,-120.97C255.09,-109.91 319.28,-93.72 359.7,-83.53"/>
<polygon fill="orange" stroke="orange" points="210.2,-117.62 201.36,-123.46 211.91,-124.4 210.2,-117.62"/>
<text text-anchor="middle" x="272" y="-118" font-family="Helvetica,sans-Serif" font-size="10.00"> &lt; uint32_t &gt;</text>
</g>
<!-- Node7 -->
<g id="node7" class="node">
<title>Node7</title>
<g id="a_node7"><a xlink:title=" ">
<polygon fill="none" stroke="#bfbfbf" points="0,-123.5 0,-142.5 29,-142.5 29,-123.5 0,-123.5"/>
<text text-anchor="middle" x="14.5" y="-130.5" font-family="Helvetica,sans-Serif" font-size="10.00">T</text>
</a>
</g>
</g>
<!-- Node7&#45;&gt;Node6 -->
<g id="edge6" class="edge">
<title>Node7&#45;&gt;Node6</title>
<path fill="none" stroke="#9a32cd" stroke-dasharray="5,2" d="M39.39,-133C59.54,-133 89.02,-133 113.96,-133"/>
<polygon fill="#9a32cd" stroke="#9a32cd" points="39.24,-129.5 29.24,-133 39.24,-136.5 39.24,-129.5"/>
<text text-anchor="middle" x="71.5" y="-136" font-family="Helvetica,sans-Serif" font-size="10.00"> elements</text>
</g>
<!-- Node8 -->
<g id="node8" class="node">
<title>Node8</title>
<g id="a_node8"><a xlink:title=" ">
<polygon fill="none" stroke="#bfbfbf" points="384,-216.5 384,-235.5 413,-235.5 413,-216.5 384,-216.5"/>
<text text-anchor="middle" x="398.5" y="-223.5" font-family="Helvetica,sans-Serif" font-size="10.00">int</text>
</a>
</g>
</g>
<!-- Node8&#45;&gt;Node2 -->
<g id="edge7" class="edge">
<title>Node8&#45;&gt;Node2</title>
<path fill="none" stroke="#9a32cd" stroke-dasharray="5,2" d="M423.37,-224.34C456.47,-221.8 518.11,-216.27 570,-207 582.12,-204.84 595,-202 607.19,-199.06"/>
<polygon fill="#9a32cd" stroke="#9a32cd" points="423,-220.85 413.29,-225.08 423.52,-227.83 423,-220.85"/>
<text text-anchor="middle" x="526" y="-221" font-family="Helvetica,sans-Serif" font-size="10.00"> len</text>
</g>
<!-- Node9 -->
<g id="node9" class="node">
<title>Node9</title>
<g id="a_node9"><a xlink:title=" ">
<polygon fill="none" stroke="#bfbfbf" points="379.5,-178.5 379.5,-197.5 417.5,-197.5 417.5,-178.5 379.5,-178.5"/>
<text text-anchor="middle" x="398.5" y="-185.5" font-family="Helvetica,sans-Serif" font-size="10.00">bool</text>
</a>
</g>
</g>
<!-- Node9&#45;&gt;Node2 -->
<g id="edge8" class="edge">
<title>Node9&#45;&gt;Node2</title>
<path fill="none" stroke="#9a32cd" stroke-dasharray="5,2" d="M427.77,-186.76C443.7,-186.11 463.95,-185.38 482,-185 516.72,-184.27 555.19,-183.99 587.7,-183.9"/>
<polygon fill="#9a32cd" stroke="#9a32cd" points="427.37,-183.27 417.52,-187.18 427.66,-190.26 427.37,-183.27"/>
<text text-anchor="middle" x="526" y="-199" font-family="Helvetica,sans-Serif" font-size="10.00"> fullDecode</text>
<text text-anchor="middle" x="526" y="-188" font-family="Helvetica,sans-Serif" font-size="10.00">fixDNGBug16</text>
</g>
<!-- Node10&#45;&gt;Node2 -->
<g id="edge9" class="edge">
<title>Node10&#45;&gt;Node2</title>
<path fill="none" stroke="#9a32cd" stroke-dasharray="5,2" d="M470.49,-259.05C501.58,-253.13 538.16,-244.6 570,-233 594.35,-224.13 620.3,-210.02 638.58,-199.22"/>
<polygon fill="#9a32cd" stroke="#9a32cd" points="469.79,-255.62 460.6,-260.89 471.07,-262.5 469.79,-255.62"/>
<text text-anchor="middle" x="526" y="-259" font-family="Helvetica,sans-Serif" font-size="10.00"> nCodesPerLength</text>
</g>
<!-- Node11 -->
<g id="node11" class="node">
<title>Node11</title>
<g id="a_node11"><a xlink:title=" ">
<polygon fill="none" stroke="#bfbfbf" points="132,-260.5 132,-279.5 193,-279.5 193,-260.5 132,-260.5"/>
<text text-anchor="middle" x="162.5" y="-267.5" font-family="Helvetica,sans-Serif" font-size="10.00">unsigned</text>
</a>
</g>
</g>
<!-- Node11&#45;&gt;Node10 -->
<g id="edge10" class="edge">
<title>Node11&#45;&gt;Node10</title>
<path fill="none" stroke="#9a32cd" stroke-dasharray="5,2" d="M203.37,-270C239.79,-270 294.19,-270 336.15,-270"/>
<polygon fill="#9a32cd" stroke="#9a32cd" points="203.14,-266.5 193.14,-270 203.14,-273.5 203.14,-266.5"/>
<text text-anchor="middle" x="272" y="-273" font-family="Helvetica,sans-Serif" font-size="10.00"> elements</text>
</g>
<!-- Node12 -->
<g id="node12" class="node">
<title>Node12</title>
<g id="a_node12"><a xlink:title=" ">
<polygon fill="none" stroke="#bfbfbf" points="379.5,-102.5 379.5,-121.5 417.5,-121.5 417.5,-102.5 379.5,-102.5"/>
<text text-anchor="middle" x="398.5" y="-109.5" font-family="Helvetica,sans-Serif" font-size="10.00">auto</text>
</a>
</g>
</g>
<!-- Node12&#45;&gt;Node2 -->
<g id="edge12" class="edge">
<title>Node12&#45;&gt;Node2</title>
<path fill="none" stroke="#9a32cd" stroke-dasharray="5,2" d="M427.96,-115.09C462.21,-119.29 521.2,-128.04 570,-143 591.93,-149.72 615.57,-160.19 633.53,-168.87"/>
<polygon fill="#9a32cd" stroke="#9a32cd" points="428.09,-111.59 417.75,-113.89 427.27,-118.54 428.09,-111.59"/>
<text text-anchor="middle" x="526" y="-146" font-family="Helvetica,sans-Serif" font-size="10.00"> ret</text>
</g>
<!-- Node13&#45;&gt;Node1 -->
<g id="edge13" class="edge">
<title>Node13&#45;&gt;Node1</title>
<path fill="none" stroke="#9a32cd" stroke-dasharray="5,2" d="M474.56,-35.99C543.61,-41.69 648.81,-50.9 740,-61 757.27,-62.91 775.87,-65.22 793.24,-67.47"/>
<polygon fill="#9a32cd" stroke="#9a32cd" points="474.47,-32.47 464.22,-35.13 473.9,-39.44 474.47,-32.47"/>
<text text-anchor="middle" x="664" y="-64" font-family="Helvetica,sans-Serif" font-size="10.00"> codeOffsetOL</text>
</g>
<!-- Node14 -->
<g id="node14" class="node">
<title>Node14</title>
<g id="a_node14"><a xlink:href="../../d5/df4/classuint16__t.html" target="_top" xlink:title=" ">
<polygon fill="none" stroke="black" points="134.5,-0.5 134.5,-19.5 190.5,-19.5 190.5,-0.5 134.5,-0.5"/>
<text text-anchor="middle" x="162.5" y="-7.5" font-family="Helvetica,sans-Serif" font-size="10.00">uint16_t</text>
</a>
</g>
</g>
<!-- Node14&#45;&gt;Node13 -->
<g id="edge14" class="edge">
<title>Node14&#45;&gt;Node13</title>
<path fill="none" stroke="#9a32cd" stroke-dasharray="5,2" d="M200.93,-9.71C231.66,-9.84 276.26,-10.86 315,-15 327.01,-16.28 339.91,-18.31 351.85,-20.47"/>
<polygon fill="#9a32cd" stroke="#9a32cd" points="200.68,-6.21 190.68,-9.7 200.67,-13.21 200.68,-6.21"/>
<text text-anchor="middle" x="272" y="-18" font-family="Helvetica,sans-Serif" font-size="10.00"> elements</text>
</g>
<!-- Node15&#45;&gt;Node1 -->
<g id="edge16" class="edge">
<title>Node15&#45;&gt;Node1</title>
<path fill="none" stroke="#9a32cd" stroke-dasharray="5,2" d="M474.45,-74.49C557.16,-75.02 690.05,-75.88 776.83,-76.44"/>
<polygon fill="#9a32cd" stroke="#9a32cd" points="474.39,-70.99 464.37,-74.42 474.34,-77.99 474.39,-70.99"/>
<text text-anchor="middle" x="664" y="-80" font-family="Helvetica,sans-Serif" font-size="10.00"> maxCodeOL</text>
</g>
<!-- Node16 -->
<g id="node16" class="node">
<title>Node16</title>
<g id="a_node16"><a xlink:href="../../d3/d87/classuint32__t.html" target="_top" xlink:title=" ">
<polygon fill="none" stroke="black" points="134.5,-38.5 134.5,-57.5 190.5,-57.5 190.5,-38.5 134.5,-38.5"/>
<text text-anchor="middle" x="162.5" y="-45.5" font-family="Helvetica,sans-Serif" font-size="10.00">uint32_t</text>
</a>
</g>
</g>
<!-- Node16&#45;&gt;Node15 -->
<g id="edge17" class="edge">
<title>Node16&#45;&gt;Node15</title>
<path fill="none" stroke="#9a32cd" stroke-dasharray="5,2" d="M200.78,-45.28C231.59,-43.75 276.38,-43.15 315,-49 334.83,-52.01 356.5,-58.71 372.66,-64.43"/>
<polygon fill="#9a32cd" stroke="#9a32cd" points="200.29,-41.81 190.5,-45.86 200.68,-48.8 200.29,-41.81"/>
<text text-anchor="middle" x="272" y="-52" font-family="Helvetica,sans-Serif" font-size="10.00"> elements</text>
</g>
</g>
</svg>
        <g id="navigator" transform="translate(0 0)" fill="#404254">
                <rect fill="#f2f5e9" fill-opacity="0.5" stroke="#606060" stroke-width=".5" x="0" y="0" width="60" height="60"/>
                <use id="zoomplus" xlink:href="#zoomPlus" x="17" y="9" onmousedown="handleZoom(evt,'in')"/>
                <use id="zoomminus" xlink:href="#zoomMin" x="42" y="9" onmousedown="handleZoom(evt,'out')"/>
                <use id="reset" xlink:href="#resetDef" x="30" y="36" onmousedown="handleReset()"/>
                <g id="arrowUp" xlink:href="#dirArrow" transform="translate(30 24)" onmousedown="handlePan(0,-1)">
                  <use xlink:href="#rim" fill="#404040">
                        <set attributeName="fill" to="#808080" begin="arrowUp.mouseover" end="arrowUp.mouseout"/>
                  </use>
                  <path fill="none" stroke="white" stroke-width="1.5" d="M0,-3.0v7 M-2.5,-0.5L0,-3.0L2.5,-0.5"/>
                </g>
                <g id="arrowRight" xlink:href="#dirArrow" transform="rotate(90) translate(36 -43)" onmousedown="handlePan(1,0)">
                  <use xlink:href="#rim" fill="#404040">
                        <set attributeName="fill" to="#808080" begin="arrowRight.mouseover" end="arrowRight.mouseout"/>
                  </use>
                  <path fill="none" stroke="white" stroke-width="1.5" d="M0,-3.0v7 M-2.5,-0.5L0,-3.0L2.5,-0.5"/>
                </g>
                <g id="arrowDown" xlink:href="#dirArrow" transform="rotate(180) translate(-30 -48)" onmousedown="handlePan(0,1)">
                  <use xlink:href="#rim" fill="#404040">
                        <set attributeName="fill" to="#808080" begin="arrowDown.mouseover" end="arrowDown.mouseout"/>
                  </use>
                  <path fill="none" stroke="white" stroke-width="1.5" d="M0,-3.0v7 M-2.5,-0.5L0,-3.0L2.5,-0.5"/>
                </g>
                <g id="arrowLeft" xlink:href="#dirArrow" transform="rotate(270) translate(-36 17)" onmousedown="handlePan(-1,0)">
                  <use xlink:href="#rim" fill="#404040">
                        <set attributeName="fill" to="#808080" begin="arrowLeft.mouseover" end="arrowLeft.mouseout"/>
                  </use>
                  <path fill="none" stroke="white" stroke-width="1.5" d="M0,-3.0v7 M-2.5,-0.5L0,-3.0L2.5,-0.5"/>
                </g>
        </g>
        <svg viewBox="0 0 15 15" width="100%" height="30px" preserveAspectRatio="xMaxYMin meet">
         <g id="arrow_out" transform="scale(0.3 0.3)">
          <a xlink:href="classrawspeed_1_1_huffman_table_lookup__coll__graph_org.svg" target="_base">
           <rect id="button" ry="5" rx="5" y="6" x="6" height="38" width="38"
                fill="#f2f5e9" fill-opacity="0.5" stroke="#606060" stroke-width="1.0"/>
           <path id="arrow"
             d="M 11.500037,31.436501 C 11.940474,20.09759 22.043105,11.32322 32.158766,21.979434 L 37.068811,17.246167 C 37.068811,17.246167 37.088388,32 37.088388,32 L 22.160133,31.978069 C 22.160133,31.978069 26.997745,27.140456 26.997745,27.140456 C 18.528582,18.264221 13.291696,25.230495 11.500037,31.436501 z"
             style="fill:#404040;"/>
          </a>
         </g>
        </svg>
</svg>
