<?xml version="1.0" encoding="UTF-8" standalone="no"?>
<!DOCTYPE svg PUBLIC "-//W3C//DTD SVG 1.1//EN"
 "http://www.w3.org/Graphics/SVG/1.1/DTD/svg11.dtd">
<!-- Generated by graphviz version 2.43.0 (0)
 -->
<!-- Title: rawspeed::HuffmanTableLookup Pages: 1 -->
<!--zoomable 347 -->
<svg id="main" version="1.1" xmlns="http://www.w3.org/2000/svg" xmlns:xlink="http://www.w3.org/1999/xlink" xml:space="preserve" onload="init(evt)">
<style type="text/css"><![CDATA[
.edge:hover path { stroke: red; }
.edge:hover polygon { stroke: red; fill: red; }
]]></style>
<script type="text/javascript"><![CDATA[
var edges = document.getElementsByTagName('g');
if (edges && edges.length) {
  for (var i=0;i<edges.length;i++) {
    if (edges[i].id.substr(0,4)=='edge') {
      edges[i].setAttribute('class','edge');
    }
  }
}
]]></script>
        <defs>
                <circle id="rim" cx="0" cy="0" r="7"/>
                <circle id="rim2" cx="0" cy="0" r="3.5"/>
                <g id="zoomPlus">
                        <use xlink:href="#rim" fill="#404040">
                                <set attributeName="fill" to="#808080" begin="zoomplus.mouseover" end="zoomplus.mouseout"/>
                        </use>
                        <path d="M-4,0h8M0,-4v8" fill="none" stroke="white" stroke-width="1.5" pointer-events="none"/>
                </g>
                <g id="zoomMin">
                        <use xlink:href="#rim" fill="#404040">
                                <set attributeName="fill" to="#808080" begin="zoomminus.mouseover" end="zoomminus.mouseout"/>
                        </use>
                        <path d="M-4,0h8" fill="none" stroke="white" stroke-width="1.5" pointer-events="none"/>
                </g>
                <g id="dirArrow">
                        <path fill="none" stroke="white" stroke-width="1.5" d="M0,-3.0v7 M-2.5,-0.5L0,-3.0L2.5,-0.5"/>
                </g>
               <g id="resetDef">
                       <use xlink:href="#rim2" fill="#404040">
                               <set attributeName="fill" to="#808080" begin="reset.mouseover" end="reset.mouseout"/>
                       </use>
               </g>
        </defs>

<script type="text/javascript">
var viewWidth = 958;
var viewHeight = 347;
var sectionId = 'dynsection-1';
</script>
<script xlink:href="../../svgpan.js"/>
<svg id="graph" class="graph">
<g id="viewport">
<title>rawspeed::HuffmanTableLookup</title>
<!-- Node1 -->
<g id="node1" class="node">
<title>Node1</title>
<g id="a_node1"><a xlink:title=" ">
<polygon fill="#bfbfbf" stroke="black" points="777,-73.5 777,-92.5 950,-92.5 950,-73.5 777,-73.5"/>
<text text-anchor="middle" x="863.5" y="-80.5" font-family="Helvetica,sans-Serif" font-size="10.00">rawspeed::HuffmanTableLookup</text>
</a>
</g>
</g>
<!-- Node2 -->
<g id="node2" class="node">
<title>Node2</title>
<g id="a_node2"><a xlink:href="../../d8/d1c/classrawspeed_1_1_abstract_huffman_table.html" target="_top" xlink:title=" ">
<polygon fill="none" stroke="black" points="588,-187 588,-217 740,-217 740,-187 588,-187"/>
<text text-anchor="start" x="596" y="-205" font-family="Helvetica,sans-Serif" font-size="10.00">rawspeed::AbstractHuffman</text>
<text text-anchor="middle" x="664" y="-194" font-family="Helvetica,sans-Serif" font-size="10.00">Table</text>
</a>
</g>
</g>
<!-- Node2&#45;&gt;Node1 -->
<g id="edge1" class="edge">
<title>Node2&#45;&gt;Node1</title>
<path fill="none" stroke="midnightblue" d="M698.72,-181.68C741.77,-155.74 814.51,-111.92 846.54,-92.62"/>
<polygon fill="midnightblue" stroke="midnightblue" points="696.77,-178.77 690.01,-186.93 700.39,-184.77 696.77,-178.77"/>
</g>
<!-- Node3 -->
<g id="node3" class="node">
<title>Node3</title>
<g id="a_node3"><a xlink:title=" ">
<polygon fill="none" stroke="#bfbfbf" points="375.5,-319.5 375.5,-338.5 421.5,-338.5 421.5,-319.5 375.5,-319.5"/>
<text text-anchor="middle" x="398.5" y="-326.5" font-family="Helvetica,sans-Serif" font-size="10.00">return</text>
</a>
</g>
</g>
<!-- Node3&#45;&gt;Node2 -->
<g id="edge2" class="edge">
<title>Node3&#45;&gt;Node2</title>
<path fill="none" stroke="#9a32cd" stroke-dasharray="5,2" d="M432.04,-330.55C467.91,-330.87 526.31,-327.22 570,-304 608.72,-283.42 639.61,-240.14 654.07,-217.13"/>
<polygon fill="#9a32cd" stroke="#9a32cd" points="431.74,-327.04 421.67,-330.34 431.6,-334.04 431.74,-327.04"/>
<text text-anchor="middle" x="526" y="-330" font-family="Helvetica,sans-Serif" font-size="10.00"> ret</text>
</g>
<!-- Node4 -->
<g id="node4" class="node">
<title>Node4</title>
<g id="a_node4"><a xlink:title=" ">
<polygon fill="none" stroke="#bfbfbf" points="336,-234.5 336,-253.5 461,-253.5 461,-234.5 336,-234.5"/>
<text text-anchor="middle" x="398.5" y="-241.5" font-family="Helvetica,sans-Serif" font-size="10.00">std::vector&lt; uint8_t &gt;</text>
</a>
</g>
</g>
<!-- Node4&#45;&gt;Node2 -->
<g id="edge3" class="edge">
<title>Node4&#45;&gt;Node2</title>
<path fill="none" stroke="#9a32cd" stroke-dasharray="5,2" d="M471.47,-238.1C501.99,-235.05 537.86,-230.74 570,-225 582.12,-222.84 595,-220 607.19,-217.06"/>
<polygon fill="#9a32cd" stroke="#9a32cd" points="470.95,-234.63 461.34,-239.08 471.63,-241.6 470.95,-234.63"/>
<text text-anchor="middle" x="526" y="-239" font-family="Helvetica,sans-Serif" font-size="10.00"> codeValues</text>
</g>
<!-- Node5 -->
<g id="node5" class="node">
<title>Node5</title>
<g id="a_node5"><a xlink:title=" ">
<polygon fill="none" stroke="#bfbfbf" points="137.5,-242.5 137.5,-261.5 187.5,-261.5 187.5,-242.5 137.5,-242.5"/>
<text text-anchor="middle" x="162.5" y="-249.5" font-family="Helvetica,sans-Serif" font-size="10.00">uint8_t</text>
</a>
</g>
</g>
<!-- Node5&#45;&gt;Node4 -->
<g id="edge4" class="edge">
<title>Node5&#45;&gt;Node4</title>
<path fill="none" stroke="#9a32cd" stroke-dasharray="5,2" d="M197.71,-250.83C233.9,-249.59 291.76,-247.62 335.92,-246.11"/>
<polygon fill="#9a32cd" stroke="#9a32cd" points="197.54,-247.33 187.66,-251.17 197.77,-254.33 197.54,-247.33"/>
<text text-anchor="middle" x="272" y="-252" font-family="Helvetica,sans-Serif" font-size="10.00"> elements</text>
</g>
<!-- Node6 -->
<g id="node6" class="node">
<title>Node6</title>
<g id="a_node6"><a xlink:title="STL class.">
<polygon fill="none" stroke="#bfbfbf" points="114,-123.5 114,-142.5 211,-142.5 211,-123.5 114,-123.5"/>
<text text-anchor="middle" x="162.5" y="-130.5" font-family="Helvetica,sans-Serif" font-size="10.00">std::vector&lt; T &gt;</text>
</a>
</g>
</g>
<!-- Node6&#45;&gt;Node4 -->
<g id="edge5" class="edge">
<title>Node6&#45;&gt;Node4</title>
<path fill="none" stroke="orange" stroke-dasharray="5,2" d="M192.32,-146.92C203.6,-152.06 216.75,-157.68 229,-162 266.31,-175.16 284.86,-159.37 315,-185 329.85,-197.63 318.31,-212.19 333,-225 337.49,-228.91 342.75,-232.02 348.29,-234.49"/>
<polygon fill="orange" stroke="orange" points="193.5,-143.61 182.95,-142.57 190.55,-149.96 193.5,-143.61"/>
<text text-anchor="middle" x="272" y="-188" font-family="Helvetica,sans-Serif" font-size="10.00"> &lt; uint8_t &gt;</text>
</g>
<!-- Node10 -->
<g id="node10" class="node">
<title>Node10</title>
<g id="a_node10"><a xlink:title=" ">
<polygon fill="none" stroke="#bfbfbf" points="336.5,-147 336.5,-177 460.5,-177 460.5,-147 336.5,-147"/>
<text text-anchor="start" x="344.5" y="-165" font-family="Helvetica,sans-Serif" font-size="10.00">std::vector&lt; unsigned</text>
<text text-anchor="middle" x="398.5" y="-154" font-family="Helvetica,sans-Serif" font-size="10.00"> int &gt;</text>
</a>
</g>
</g>
<!-- Node6&#45;&gt;Node10 -->
<g id="edge11" class="edge">
<title>Node6&#45;&gt;Node10</title>
<path fill="none" stroke="orange" stroke-dasharray="5,2" d="M221.39,-139.68C249.64,-142.99 284.11,-147.11 315,-151 321.88,-151.87 329.08,-152.8 336.24,-153.73"/>
<polygon fill="orange" stroke="orange" points="221.62,-136.18 211.28,-138.5 220.81,-143.14 221.62,-136.18"/>
<text text-anchor="middle" x="272" y="-154" font-family="Helvetica,sans-Serif" font-size="10.00"> &lt; unsigned int &gt;</text>
</g>
<!-- Node12 -->
<g id="node12" class="node">
<title>Node12</title>
<g id="a_node12"><a xlink:title=" ">
<polygon fill="none" stroke="#bfbfbf" points="333,-70.5 333,-89.5 464,-89.5 464,-70.5 333,-70.5"/>
<text text-anchor="middle" x="398.5" y="-77.5" font-family="Helvetica,sans-Serif" font-size="10.00">std::vector&lt; uint16_t &gt;</text>
</a>
</g>
</g>
<!-- Node6&#45;&gt;Node12 -->
<g id="edge15" class="edge">
<title>Node6&#45;&gt;Node12</title>
<path fill="none" stroke="orange" stroke-dasharray="5,2" d="M215.39,-121.25C257.49,-111.71 316.1,-98.44 355.34,-89.55"/>
<polygon fill="orange" stroke="orange" points="214.58,-117.84 205.6,-123.46 216.13,-124.67 214.58,-117.84"/>
<text text-anchor="middle" x="272" y="-120" font-family="Helvetica,sans-Serif" font-size="10.00"> &lt; uint16_t &gt;</text>
</g>
<!-- Node14 -->
<g id="node14" class="node">
<title>Node14</title>
<g id="a_node14"><a xlink:title=" ">
<polygon fill="none" stroke="#bfbfbf" points="333,-26.5 333,-45.5 464,-45.5 464,-26.5 333,-26.5"/>
<text text-anchor="middle" x="398.5" y="-33.5" font-family="Helvetica,sans-Serif" font-size="10.00">std::vector&lt; uint32_t &gt;</text>
</a>
</g>
</g>
<!-- Node6&#45;&gt;Node14 -->
<g id="edge18" class="edge">
<title>Node6&#45;&gt;Node14</title>
<path fill="none" stroke="orange" stroke-dasharray="5,2" d="M182.23,-116.97C194.78,-106.9 212.05,-94.3 229,-86 232.13,-84.46 316.89,-59.57 364.97,-45.5"/>
<polygon fill="orange" stroke="orange" points="179.85,-114.39 174.36,-123.45 184.3,-119.79 179.85,-114.39"/>
<text text-anchor="middle" x="272" y="-89" font-family="Helvetica,sans-Serif" font-size="10.00"> &lt; uint32_t &gt;</text>
</g>
<!-- Node7 -->
<g id="node7" class="node">
<title>Node7</title>
<g id="a_node7"><a xlink:title=" ">
<polygon fill="none" stroke="#bfbfbf" points="0,-123.5 0,-142.5 29,-142.5 29,-123.5 0,-123.5"/>
<text text-anchor="middle" x="14.5" y="-130.5" font-family="Helvetica,sans-Serif" font-size="10.00">T</text>
</a>
</g>
</g>
<!-- Node7&#45;&gt;Node6 -->
<g id="edge6" class="edge">
<title>Node7&#45;&gt;Node6</title>
<path fill="none" stroke="#9a32cd" stroke-dasharray="5,2" d="M39.39,-133C59.54,-133 89.02,-133 113.96,-133"/>
<polygon fill="#9a32cd" stroke="#9a32cd" points="39.24,-129.5 29.24,-133 39.24,-136.5 39.24,-129.5"/>
<text text-anchor="middle" x="71.5" y="-136" font-family="Helvetica,sans-Serif" font-size="10.00"> elements</text>
</g>
<!-- Node8 -->
<g id="node8" class="node">
<title>Node8</title>
<g id="a_node8"><a xlink:title=" ">
<polygon fill="none" stroke="#bfbfbf" points="148,-280.5 148,-299.5 177,-299.5 177,-280.5 148,-280.5"/>
<text text-anchor="middle" x="162.5" y="-287.5" font-family="Helvetica,sans-Serif" font-size="10.00">int</text>
</a>
</g>
</g>
<!-- Node8&#45;&gt;Node2 -->
<g id="edge7" class="edge">
<title>Node8&#45;&gt;Node2</title>
<path fill="none" stroke="#9a32cd" stroke-dasharray="5,2" d="M187.44,-291.02C251.23,-293.04 430.02,-294.12 570,-251 595.46,-243.16 622.13,-228.32 640.35,-217.02"/>
<polygon fill="#9a32cd" stroke="#9a32cd" points="187.34,-287.52 177.22,-290.66 187.09,-294.51 187.34,-287.52"/>
<text text-anchor="middle" x="398.5" y="-291" font-family="Helvetica,sans-Serif" font-size="10.00"> len</text>
</g>
<!-- Node8&#45;&gt;Node10 -->
<g id="edge10" class="edge">
<title>Node8&#45;&gt;Node10</title>
<path fill="none" stroke="#9a32cd" stroke-dasharray="5,2" d="M186.82,-284.57C195.24,-281.67 204.31,-277.35 211,-271 224.84,-257.86 215.26,-245.25 229,-232 258.82,-203.23 277.34,-213.28 315,-196 323.13,-192.27 324.82,-190.62 333,-187 340.69,-183.6 348.99,-180.19 357,-177.03"/>
<polygon fill="#9a32cd" stroke="#9a32cd" points="185.67,-281.26 177.06,-287.44 187.65,-287.97 185.67,-281.26"/>
<text text-anchor="middle" x="272" y="-235" font-family="Helvetica,sans-Serif" font-size="10.00"> elements</text>
</g>
<!-- Node9 -->
<g id="node9" class="node">
<title>Node9</title>
<g id="a_node9"><a xlink:title=" ">
<polygon fill="none" stroke="#bfbfbf" points="379.5,-196.5 379.5,-215.5 417.5,-215.5 417.5,-196.5 379.5,-196.5"/>
<text text-anchor="middle" x="398.5" y="-203.5" font-family="Helvetica,sans-Serif" font-size="10.00">bool</text>
</a>
</g>
</g>
<!-- Node9&#45;&gt;Node2 -->
<g id="edge8" class="edge">
<title>Node9&#45;&gt;Node2</title>
<path fill="none" stroke="#9a32cd" stroke-dasharray="5,2" d="M427.77,-204.76C443.7,-204.11 463.95,-203.38 482,-203 516.72,-202.27 555.19,-201.99 587.7,-201.9"/>
<polygon fill="#9a32cd" stroke="#9a32cd" points="427.37,-201.27 417.52,-205.18 427.66,-208.26 427.37,-201.27"/>
<text text-anchor="middle" x="526" y="-217" font-family="Helvetica,sans-Serif" font-size="10.00"> fullDecode</text>
<text text-anchor="middle" x="526" y="-206" font-family="Helvetica,sans-Serif" font-size="10.00">fixDNGBug16</text>
</g>
<!-- Node10&#45;&gt;Node2 -->
<g id="edge9" class="edge">
<title>Node10&#45;&gt;Node2</title>
<path fill="none" stroke="#9a32cd" stroke-dasharray="5,2" d="M470.87,-171.55C501.43,-175.77 537.5,-180.92 570,-186 575.83,-186.91 581.85,-187.88 587.91,-188.88"/>
<polygon fill="#9a32cd" stroke="#9a32cd" points="471.11,-168.05 460.73,-170.16 470.16,-174.99 471.11,-168.05"/>
<text text-anchor="middle" x="526" y="-189" font-family="Helvetica,sans-Serif" font-size="10.00"> nCodesPerLength</text>
</g>
<!-- Node11 -->
<g id="node11" class="node">
<title>Node11</title>
<g id="a_node11"><a xlink:title=" ">
<polygon fill="none" stroke="#bfbfbf" points="379.5,-108.5 379.5,-127.5 417.5,-127.5 417.5,-108.5 379.5,-108.5"/>
<text text-anchor="middle" x="398.5" y="-115.5" font-family="Helvetica,sans-Serif" font-size="10.00">auto</text>
</a>
</g>
</g>
<!-- Node11&#45;&gt;Node2 -->
<g id="edge12" class="edge">
<title>Node11&#45;&gt;Node2</title>
<path fill="none" stroke="#9a32cd" stroke-dasharray="5,2" d="M427.99,-122.78C462.28,-128.96 521.31,-140.99 570,-158 592.59,-165.9 617.02,-177.58 635.16,-186.93"/>
<polygon fill="#9a32cd" stroke="#9a32cd" points="428.23,-119.26 417.78,-120.98 427.02,-126.16 428.23,-119.26"/>
<text text-anchor="middle" x="526" y="-161" font-family="Helvetica,sans-Serif" font-size="10.00"> ret</text>
</g>
<!-- Node12&#45;&gt;Node1 -->
<g id="edge13" class="edge">
<title>Node12&#45;&gt;Node1</title>
<path fill="none" stroke="#9a32cd" stroke-dasharray="5,2" d="M474.45,-80.49C557.16,-81.02 690.05,-81.88 776.83,-82.44"/>
<polygon fill="#9a32cd" stroke="#9a32cd" points="474.39,-76.99 464.37,-80.42 474.34,-83.99 474.39,-76.99"/>
<text text-anchor="middle" x="664" y="-86" font-family="Helvetica,sans-Serif" font-size="10.00"> codeOffsetOL</text>
</g>
<!-- Node13 -->
<g id="node13" class="node">
<title>Node13</title>
<g id="a_node13"><a xlink:href="../../d5/df4/classuint16__t.html" target="_top" xlink:title=" ">
<polygon fill="none" stroke="black" points="134.5,-38.5 134.5,-57.5 190.5,-57.5 190.5,-38.5 134.5,-38.5"/>
<text text-anchor="middle" x="162.5" y="-45.5" font-family="Helvetica,sans-Serif" font-size="10.00">uint16_t</text>
</a>
</g>
</g>
<!-- Node13&#45;&gt;Node12 -->
<g id="edge14" class="edge">
<title>Node13&#45;&gt;Node12</title>
<path fill="none" stroke="#9a32cd" stroke-dasharray="5,2" d="M200.9,-44.62C231.77,-42.69 276.59,-41.89 315,-49 318.01,-49.56 349.48,-61.53 372.67,-70.43"/>
<polygon fill="#9a32cd" stroke="#9a32cd" points="200.32,-41.15 190.59,-45.34 200.81,-48.13 200.32,-41.15"/>
<text text-anchor="middle" x="272" y="-52" font-family="Helvetica,sans-Serif" font-size="10.00"> elements</text>
</g>
<!-- Node14&#45;&gt;Node1 -->
<g id="edge16" class="edge">
<title>Node14&#45;&gt;Node1</title>
<path fill="none" stroke="#9a32cd" stroke-dasharray="5,2" d="M474.56,-41.99C543.61,-47.69 648.81,-56.9 740,-67 757.27,-68.91 775.87,-71.22 793.24,-73.47"/>
<polygon fill="#9a32cd" stroke="#9a32cd" points="474.47,-38.47 464.22,-41.13 473.9,-45.44 474.47,-38.47"/>
<text text-anchor="middle" x="664" y="-70" font-family="Helvetica,sans-Serif" font-size="10.00"> maxCodeOL</text>
</g>
<!-- Node15 -->
<g id="node15" class="node">
<title>Node15</title>
<g id="a_node15"><a xlink:href="../../d3/d87/classuint32__t.html" target="_top" xlink:title=" ">
<polygon fill="none" stroke="black" points="134.5,-0.5 134.5,-19.5 190.5,-19.5 190.5,-0.5 134.5,-0.5"/>
<text text-anchor="middle" x="162.5" y="-7.5" font-family="Helvetica,sans-Serif" font-size="10.00">uint32_t</text>
</a>
</g>
</g>
<!-- Node15&#45;&gt;Node14 -->
<g id="edge17" class="edge">
<title>Node15&#45;&gt;Node14</title>
<path fill="none" stroke="#9a32cd" stroke-dasharray="5,2" d="M201.02,-8.99C231.8,-8.71 276.43,-9.52 315,-15 332.27,-17.45 351.14,-22.11 366.48,-26.41"/>
<polygon fill="#9a32cd" stroke="#9a32cd" points="200.7,-5.5 190.75,-9.14 200.79,-12.5 200.7,-5.5"/>
<text text-anchor="middle" x="272" y="-18" font-family="Helvetica,sans-Serif" font-size="10.00"> elements</text>
</g>
</g>
</svg>
        <g id="navigator" transform="translate(0 0)" fill="#404254">
                <rect fill="#f2f5e9" fill-opacity="0.5" stroke="#606060" stroke-width=".5" x="0" y="0" width="60" height="60"/>
                <use id="zoomplus" xlink:href="#zoomPlus" x="17" y="9" onmousedown="handleZoom(evt,'in')"/>
                <use id="zoomminus" xlink:href="#zoomMin" x="42" y="9" onmousedown="handleZoom(evt,'out')"/>
                <use id="reset" xlink:href="#resetDef" x="30" y="36" onmousedown="handleReset()"/>
                <g id="arrowUp" xlink:href="#dirArrow" transform="translate(30 24)" onmousedown="handlePan(0,-1)">
                  <use xlink:href="#rim" fill="#404040">
                        <set attributeName="fill" to="#808080" begin="arrowUp.mouseover" end="arrowUp.mouseout"/>
                  </use>
                  <path fill="none" stroke="white" stroke-width="1.5" d="M0,-3.0v7 M-2.5,-0.5L0,-3.0L2.5,-0.5"/>
                </g>
                <g id="arrowRight" xlink:href="#dirArrow" transform="rotate(90) translate(36 -43)" onmousedown="handlePan(1,0)">
                  <use xlink:href="#rim" fill="#404040">
                        <set attributeName="fill" to="#808080" begin="arrowRight.mouseover" end="arrowRight.mouseout"/>
                  </use>
                  <path fill="none" stroke="white" stroke-width="1.5" d="M0,-3.0v7 M-2.5,-0.5L0,-3.0L2.5,-0.5"/>
                </g>
                <g id="arrowDown" xlink:href="#dirArrow" transform="rotate(180) translate(-30 -48)" onmousedown="handlePan(0,1)">
                  <use xlink:href="#rim" fill="#404040">
                        <set attributeName="fill" to="#808080" begin="arrowDown.mouseover" end="arrowDown.mouseout"/>
                  </use>
                  <path fill="none" stroke="white" stroke-width="1.5" d="M0,-3.0v7 M-2.5,-0.5L0,-3.0L2.5,-0.5"/>
                </g>
                <g id="arrowLeft" xlink:href="#dirArrow" transform="rotate(270) translate(-36 17)" onmousedown="handlePan(-1,0)">
                  <use xlink:href="#rim" fill="#404040">
                        <set attributeName="fill" to="#808080" begin="arrowLeft.mouseover" end="arrowLeft.mouseout"/>
                  </use>
                  <path fill="none" stroke="white" stroke-width="1.5" d="M0,-3.0v7 M-2.5,-0.5L0,-3.0L2.5,-0.5"/>
                </g>
        </g>
        <svg viewBox="0 0 15 15" width="100%" height="30px" preserveAspectRatio="xMaxYMin meet">
         <g id="arrow_out" transform="scale(0.3 0.3)">
          <a xlink:href="classrawspeed_1_1_huffman_table_lookup__coll__graph_org.svg" target="_base">
           <rect id="button" ry="5" rx="5" y="6" x="6" height="38" width="38"
                fill="#f2f5e9" fill-opacity="0.5" stroke="#606060" stroke-width="1.0"/>
           <path id="arrow"
             d="M 11.500037,31.436501 C 11.940474,20.09759 22.043105,11.32322 32.158766,21.979434 L 37.068811,17.246167 C 37.068811,17.246167 37.088388,32 37.088388,32 L 22.160133,31.978069 C 22.160133,31.978069 26.997745,27.140456 26.997745,27.140456 C 18.528582,18.264221 13.291696,25.230495 11.500037,31.436501 z"
             style="fill:#404040;"/>
          </a>
         </g>
        </svg>
</svg>
