<?xml version="1.0" encoding="UTF-8" standalone="no"?>
<!DOCTYPE svg PUBLIC "-//W3C//DTD SVG 1.1//EN"
 "http://www.w3.org/Graphics/SVG/1.1/DTD/svg11.dtd">
<!-- Generated by graphviz version 2.43.0 (0)
 -->
<!-- Title: librawspeed/decompressors/HuffmanTableTree.h Pages: 1 -->
<!--zoomable 453 -->
<svg id="main" version="1.1" xmlns="http://www.w3.org/2000/svg" xmlns:xlink="http://www.w3.org/1999/xlink" xml:space="preserve" onload="init(evt)">
<style type="text/css"><![CDATA[
.edge:hover path { stroke: red; }
.edge:hover polygon { stroke: red; fill: red; }
]]></style>
<script type="text/javascript"><![CDATA[
var edges = document.getElementsByTagName('g');
if (edges && edges.length) {
  for (var i=0;i<edges.length;i++) {
    if (edges[i].id.substr(0,4)=='edge') {
      edges[i].setAttribute('class','edge');
    }
  }
}
]]></script>
        <defs>
                <circle id="rim" cx="0" cy="0" r="7"/>
                <circle id="rim2" cx="0" cy="0" r="3.5"/>
                <g id="zoomPlus">
                        <use xlink:href="#rim" fill="#404040">
                                <set attributeName="fill" to="#808080" begin="zoomplus.mouseover" end="zoomplus.mouseout"/>
                        </use>
                        <path d="M-4,0h8M0,-4v8" fill="none" stroke="white" stroke-width="1.5" pointer-events="none"/>
                </g>
                <g id="zoomMin">
                        <use xlink:href="#rim" fill="#404040">
                                <set attributeName="fill" to="#808080" begin="zoomminus.mouseover" end="zoomminus.mouseout"/>
                        </use>
                        <path d="M-4,0h8" fill="none" stroke="white" stroke-width="1.5" pointer-events="none"/>
                </g>
                <g id="dirArrow">
                        <path fill="none" stroke="white" stroke-width="1.5" d="M0,-3.0v7 M-2.5,-0.5L0,-3.0L2.5,-0.5"/>
                </g>
               <g id="resetDef">
                       <use xlink:href="#rim2" fill="#404040">
                               <set attributeName="fill" to="#808080" begin="reset.mouseover" end="reset.mouseout"/>
                       </use>
               </g>
        </defs>

<script type="text/javascript">
var viewWidth = 1880;
var viewHeight = 453;
var sectionId = 'dynsection-0';
</script>
<script xlink:href="../../svgpan.js"/>
<svg id="graph" class="graph">
<g id="viewport">
<title>librawspeed/decompressors/HuffmanTableTree.h</title>
<!-- Node1 -->
<g id="node1" class="node">
<title>Node1</title>
<g id="a_node1"><a xlink:title=" ">
<polygon fill="#bfbfbf" stroke="black" points="278.5,-414.5 278.5,-444.5 431.5,-444.5 431.5,-414.5 278.5,-414.5"/>
<text text-anchor="start" x="286.5" y="-432.5" font-family="Helvetica,sans-Serif" font-size="10.00">librawspeed/decompressors</text>
<text text-anchor="middle" x="355" y="-421.5" font-family="Helvetica,sans-Serif" font-size="10.00">/HuffmanTableTree.h</text>
</a>
</g>
</g>
<!-- Node2 -->
<g id="node2" class="node">
<title>Node2</title>
<g id="a_node2"><a xlink:href="../../d0/daf/_raw_decoder_exception_8h.html" target="_top" xlink:title=" ">
<polygon fill="none" stroke="black" points="660,-168.5 660,-187.5 842,-187.5 842,-168.5 660,-168.5"/>
<text text-anchor="middle" x="751" y="-175.5" font-family="Helvetica,sans-Serif" font-size="10.00">decoders/RawDecoderException.h</text>
</a>
</g>
</g>
<!-- Node1&#45;&gt;Node2 -->
<g id="edge1" class="edge">
<title>Node1&#45;&gt;Node2</title>
<path fill="none" stroke="midnightblue" d="M431.89,-429.04C530.01,-427.96 691.87,-419.69 732,-378 779.64,-328.51 764.97,-236.59 755.87,-197.44"/>
<polygon fill="midnightblue" stroke="midnightblue" points="759.25,-196.54 753.45,-187.67 752.45,-198.22 759.25,-196.54"/>
</g>
<!-- Node6 -->
<g id="node6" class="node">
<title>Node6</title>
<g id="a_node6"><a xlink:title=" ">
<polygon fill="none" stroke="#bfbfbf" points="413,-0.5 413,-19.5 477,-19.5 477,-0.5 413,-0.5"/>
<text text-anchor="middle" x="445" y="-7.5" font-family="Helvetica,sans-Serif" font-size="10.00">algorithm</text>
</a>
</g>
</g>
<!-- Node1&#45;&gt;Node6 -->
<g id="edge75" class="edge">
<title>Node1&#45;&gt;Node6</title>
<path fill="none" stroke="midnightblue" d="M332.97,-414.21C304.9,-394.07 260,-354.51 260,-307.5 260,-307.5 260,-307.5 260,-121 260,-55 348.06,-27.71 402.67,-17.13"/>
<polygon fill="midnightblue" stroke="midnightblue" points="403.57,-20.53 412.78,-15.29 402.31,-13.64 403.57,-20.53"/>
</g>
<!-- Node7 -->
<g id="node7" class="node">
<title>Node7</title>
<g id="a_node7"><a xlink:title=" ">
<polygon fill="none" stroke="#bfbfbf" points="861,-0.5 861,-19.5 913,-19.5 913,-0.5 861,-0.5"/>
<text text-anchor="middle" x="887" y="-7.5" font-family="Helvetica,sans-Serif" font-size="10.00">cassert</text>
</a>
</g>
</g>
<!-- Node1&#45;&gt;Node7 -->
<g id="edge76" class="edge">
<title>Node1&#45;&gt;Node7</title>
<path fill="none" stroke="midnightblue" d="M431.5,-415.6C522.78,-398.48 667.09,-365.28 699,-322 716.5,-298.26 683.18,-232.9 677,-224 662.4,-202.96 644.31,-210.46 632,-188 615.71,-158.29 612.24,-142.96 626,-112 663.3,-28.05 787.86,-13.01 850.45,-10.89"/>
<polygon fill="midnightblue" stroke="midnightblue" points="850.75,-14.38 860.66,-10.64 850.58,-7.38 850.75,-14.38"/>
</g>
<!-- Node11 -->
<g id="node11" class="node">
<title>Node11</title>
<g id="a_node11"><a xlink:title=" ">
<polygon fill="none" stroke="#bfbfbf" points="34.5,-0.5 34.5,-19.5 117.5,-19.5 117.5,-0.5 34.5,-0.5"/>
<text text-anchor="middle" x="76" y="-7.5" font-family="Helvetica,sans-Serif" font-size="10.00">initializer_list</text>
</a>
</g>
</g>
<!-- Node1&#45;&gt;Node11 -->
<g id="edge77" class="edge">
<title>Node1&#45;&gt;Node11</title>
<path fill="none" stroke="midnightblue" d="M278.35,-423.91C223.29,-418.3 148.43,-405.8 88,-378 42.47,-357.05 0,-357.61 0,-307.5 0,-307.5 0,-307.5 0,-121 0,-81.28 33.96,-45.5 56.48,-26.15"/>
<polygon fill="midnightblue" stroke="midnightblue" points="58.98,-28.63 64.46,-19.57 54.52,-23.24 58.98,-28.63"/>
</g>
<!-- Node14 -->
<g id="node14" class="node">
<title>Node14</title>
<g id="a_node14"><a xlink:title=" ">
<polygon fill="none" stroke="#bfbfbf" points="260.5,-0.5 260.5,-19.5 307.5,-19.5 307.5,-0.5 260.5,-0.5"/>
<text text-anchor="middle" x="284" y="-7.5" font-family="Helvetica,sans-Serif" font-size="10.00">vector</text>
</a>
</g>
</g>
<!-- Node1&#45;&gt;Node14 -->
<g id="edge82" class="edge">
<title>Node1&#45;&gt;Node14</title>
<path fill="none" stroke="midnightblue" d="M278.26,-414.98C184.45,-396.23 38,-358.75 38,-307.5 38,-307.5 38,-307.5 38,-238.5 38,-123.73 184.12,-50.74 251.13,-23.3"/>
<polygon fill="midnightblue" stroke="midnightblue" points="252.43,-26.54 260.41,-19.58 249.83,-20.05 252.43,-26.54"/>
</g>
<!-- Node19 -->
<g id="node19" class="node">
<title>Node19</title>
<g id="a_node19"><a xlink:href="../../dc/d41/_abstract_huffman_table_8h.html" target="_top" xlink:title=" ">
<polygon fill="none" stroke="black" points="514,-291.5 514,-321.5 690,-321.5 690,-291.5 514,-291.5"/>
<text text-anchor="start" x="522" y="-309.5" font-family="Helvetica,sans-Serif" font-size="10.00">decompressors/AbstractHuffman</text>
<text text-anchor="middle" x="602" y="-298.5" font-family="Helvetica,sans-Serif" font-size="10.00">Table.h</text>
</a>
</g>
</g>
<!-- Node1&#45;&gt;Node19 -->
<g id="edge19" class="edge">
<title>Node1&#45;&gt;Node19</title>
<path fill="none" stroke="midnightblue" d="M383.82,-414.38C428.53,-392.48 514.62,-350.3 564.25,-325.99"/>
<polygon fill="midnightblue" stroke="midnightblue" points="565.93,-329.07 573.37,-321.53 562.85,-322.78 565.93,-329.07"/>
</g>
<!-- Node26 -->
<g id="node26" class="node">
<title>Node26</title>
<g id="a_node26"><a xlink:title=" ">
<polygon fill="none" stroke="#bfbfbf" points="288,-168.5 288,-187.5 346,-187.5 346,-168.5 288,-168.5"/>
<text text-anchor="middle" x="317" y="-175.5" font-family="Helvetica,sans-Serif" font-size="10.00">memory</text>
</a>
</g>
</g>
<!-- Node1&#45;&gt;Node26 -->
<g id="edge79" class="edge">
<title>Node1&#45;&gt;Node26</title>
<path fill="none" stroke="midnightblue" d="M351.66,-414.2C344.91,-384.65 329.6,-314.61 322,-255 319.55,-235.77 318.26,-213.63 317.62,-198.23"/>
<polygon fill="midnightblue" stroke="midnightblue" points="321.1,-197.79 317.23,-187.93 314.11,-198.05 321.1,-197.79"/>
</g>
<!-- Node27 -->
<g id="node27" class="node">
<title>Node27</title>
<g id="a_node27"><a xlink:title=" ">
<polygon fill="none" stroke="#bfbfbf" points="898.5,-168.5 898.5,-187.5 943.5,-187.5 943.5,-168.5 898.5,-168.5"/>
<text text-anchor="middle" x="921" y="-175.5" font-family="Helvetica,sans-Serif" font-size="10.00">utility</text>
</a>
</g>
</g>
<!-- Node1&#45;&gt;Node27 -->
<g id="edge81" class="edge">
<title>Node1&#45;&gt;Node27</title>
<path fill="none" stroke="midnightblue" d="M431.91,-424.38C531.17,-418.11 697.7,-404.04 753,-378 825.26,-343.98 836.63,-319.3 884,-255 897.3,-236.95 907.9,-213.38 914.29,-197.31"/>
<polygon fill="midnightblue" stroke="midnightblue" points="917.72,-198.13 918.02,-187.54 911.18,-195.63 917.72,-198.13"/>
</g>
<!-- Node29 -->
<g id="node29" class="node">
<title>Node29</title>
<g id="a_node29"><a xlink:title=" ">
<polygon fill="none" stroke="#bfbfbf" points="364.5,-230 364.5,-249 417.5,-249 417.5,-230 364.5,-230"/>
<text text-anchor="middle" x="391" y="-237" font-family="Helvetica,sans-Serif" font-size="10.00">iterator</text>
</a>
</g>
</g>
<!-- Node1&#45;&gt;Node29 -->
<g id="edge78" class="edge">
<title>Node1&#45;&gt;Node29</title>
<path fill="none" stroke="midnightblue" d="M357.71,-414.37C364.11,-380.94 380.19,-296.97 387.4,-259.3"/>
<polygon fill="midnightblue" stroke="midnightblue" points="390.89,-259.69 389.33,-249.21 384.01,-258.37 390.89,-259.69"/>
</g>
<!-- Node31 -->
<g id="node31" class="node">
<title>Node31</title>
<g id="a_node31"><a xlink:href="../../d1/d4b/_binary_huffman_tree_8h.html" target="_top" xlink:title=" ">
<polygon fill="none" stroke="black" points="65.5,-224.5 65.5,-254.5 232.5,-254.5 232.5,-224.5 65.5,-224.5"/>
<text text-anchor="start" x="73.5" y="-242.5" font-family="Helvetica,sans-Serif" font-size="10.00">decompressors/BinaryHuffman</text>
<text text-anchor="middle" x="149" y="-231.5" font-family="Helvetica,sans-Serif" font-size="10.00">Tree.h</text>
</a>
</g>
</g>
<!-- Node1&#45;&gt;Node31 -->
<g id="edge50" class="edge">
<title>Node1&#45;&gt;Node31</title>
<path fill="none" stroke="midnightblue" d="M311.67,-414.46C290.37,-406.13 265.22,-394.03 246,-378 207.1,-345.56 176.39,-293.98 160.63,-264.07"/>
<polygon fill="midnightblue" stroke="midnightblue" points="163.55,-262.11 155.87,-254.82 157.33,-265.32 163.55,-262.11"/>
</g>
<!-- Node32 -->
<g id="node32" class="node">
<title>Node32</title>
<g id="a_node32"><a xlink:href="../../d7/dc3/_bit_stream_8h.html" target="_top" xlink:title=" ">
<polygon fill="none" stroke="black" points="1091,-358.5 1091,-377.5 1177,-377.5 1177,-358.5 1091,-358.5"/>
<text text-anchor="middle" x="1134" y="-365.5" font-family="Helvetica,sans-Serif" font-size="10.00">io/BitStream.h</text>
</a>
</g>
</g>
<!-- Node1&#45;&gt;Node32 -->
<g id="edge55" class="edge">
<title>Node1&#45;&gt;Node32</title>
<path fill="none" stroke="midnightblue" d="M431.83,-422.63C589.32,-410.6 945.34,-383.41 1080.55,-373.08"/>
<polygon fill="midnightblue" stroke="midnightblue" points="1080.95,-376.56 1090.66,-372.31 1080.42,-369.58 1080.95,-376.56"/>
</g>
<!-- Node35 -->
<g id="node35" class="node">
<title>Node35</title>
<g id="a_node35"><a xlink:title=" ">
<polygon fill="none" stroke="#bfbfbf" points="1195.5,-358.5 1195.5,-377.5 1236.5,-377.5 1236.5,-358.5 1195.5,-358.5"/>
<text text-anchor="middle" x="1216" y="-365.5" font-family="Helvetica,sans-Serif" font-size="10.00">tuple</text>
</a>
</g>
</g>
<!-- Node1&#45;&gt;Node35 -->
<g id="edge80" class="edge">
<title>Node1&#45;&gt;Node35</title>
<path fill="none" stroke="midnightblue" d="M431.8,-426.1C605.24,-420.32 1023.95,-404.25 1185.25,-377.6"/>
<polygon fill="midnightblue" stroke="midnightblue" points="1186.24,-380.98 1195.49,-375.83 1185.04,-374.09 1186.24,-380.98"/>
</g>
<!-- Node3 -->
<g id="node3" class="node">
<title>Node3</title>
<g id="a_node3"><a xlink:title=" ">
<polygon fill="none" stroke="#bfbfbf" points="1006,-56.5 1006,-75.5 1108,-75.5 1108,-56.5 1006,-56.5"/>
<text text-anchor="middle" x="1057" y="-63.5" font-family="Helvetica,sans-Serif" font-size="10.00">rawspeedconfig.h</text>
</a>
</g>
</g>
<!-- Node2&#45;&gt;Node3 -->
<g id="edge2" class="edge">
<title>Node2&#45;&gt;Node3</title>
<path fill="none" stroke="midnightblue" d="M821.16,-168.46C881.1,-160.33 962.07,-147.12 991,-132 1013.16,-120.42 1032.75,-98.93 1044.72,-83.84"/>
<polygon fill="midnightblue" stroke="midnightblue" points="1047.55,-85.89 1050.84,-75.81 1041.99,-81.64 1047.55,-85.89"/>
</g>
<!-- Node4 -->
<g id="node4" class="node">
<title>Node4</title>
<g id="a_node4"><a xlink:href="../../d7/d05/_rawspeed_exception_8h.html" target="_top" xlink:title=" ">
<polygon fill="none" stroke="black" points="812,-112.5 812,-131.5 982,-131.5 982,-112.5 812,-112.5"/>
<text text-anchor="middle" x="897" y="-119.5" font-family="Helvetica,sans-Serif" font-size="10.00">common/RawspeedException.h</text>
</a>
</g>
</g>
<!-- Node2&#45;&gt;Node4 -->
<g id="edge3" class="edge">
<title>Node2&#45;&gt;Node4</title>
<path fill="none" stroke="midnightblue" d="M774.13,-168.44C798.48,-159.44 837.01,-145.19 864.42,-135.05"/>
<polygon fill="midnightblue" stroke="midnightblue" points="865.81,-138.27 873.97,-131.52 863.38,-131.7 865.81,-138.27"/>
</g>
<!-- Node4&#45;&gt;Node3 -->
<g id="edge4" class="edge">
<title>Node4&#45;&gt;Node3</title>
<path fill="none" stroke="midnightblue" d="M922.35,-112.44C949.27,-103.36 992,-88.94 1022.09,-78.78"/>
<polygon fill="midnightblue" stroke="midnightblue" points="1023.41,-82.03 1031.77,-75.52 1021.17,-75.4 1023.41,-82.03"/>
</g>
<!-- Node5 -->
<g id="node5" class="node">
<title>Node5</title>
<g id="a_node5"><a xlink:href="../../d9/df5/src_2librawspeed_2common_2_common_8h.html" target="_top" xlink:title=" ">
<polygon fill="none" stroke="black" points="1218,-56.5 1218,-75.5 1334,-75.5 1334,-56.5 1218,-56.5"/>
<text text-anchor="middle" x="1276" y="-63.5" font-family="Helvetica,sans-Serif" font-size="10.00">common/Common.h</text>
</a>
</g>
</g>
<!-- Node4&#45;&gt;Node5 -->
<g id="edge5" class="edge">
<title>Node4&#45;&gt;Node5</title>
<path fill="none" stroke="midnightblue" d="M957.05,-112.44C1025.19,-102.74 1136.1,-86.93 1207.54,-76.75"/>
<polygon fill="midnightblue" stroke="midnightblue" points="1208.38,-80.17 1217.78,-75.29 1207.39,-73.24 1208.38,-80.17"/>
</g>
<!-- Node15 -->
<g id="node15" class="node">
<title>Node15</title>
<g id="a_node15"><a xlink:title=" ">
<polygon fill="none" stroke="#bfbfbf" points="727,-56.5 727,-75.5 769,-75.5 769,-56.5 727,-56.5"/>
<text text-anchor="middle" x="748" y="-63.5" font-family="Helvetica,sans-Serif" font-size="10.00">array</text>
</a>
</g>
</g>
<!-- Node4&#45;&gt;Node15 -->
<g id="edge15" class="edge">
<title>Node4&#45;&gt;Node15</title>
<path fill="none" stroke="midnightblue" d="M873.39,-112.44C847.81,-103.17 806.9,-88.35 778.81,-78.17"/>
<polygon fill="midnightblue" stroke="midnightblue" points="779.68,-74.76 769.09,-74.64 777.3,-81.34 779.68,-74.76"/>
</g>
<!-- Node16 -->
<g id="node16" class="node">
<title>Node16</title>
<g id="a_node16"><a xlink:title=" ">
<polygon fill="none" stroke="#bfbfbf" points="870.5,-56.5 870.5,-75.5 923.5,-75.5 923.5,-56.5 870.5,-56.5"/>
<text text-anchor="middle" x="897" y="-63.5" font-family="Helvetica,sans-Serif" font-size="10.00">cstdarg</text>
</a>
</g>
</g>
<!-- Node4&#45;&gt;Node16 -->
<g id="edge16" class="edge">
<title>Node4&#45;&gt;Node16</title>
<path fill="none" stroke="midnightblue" d="M897,-112.08C897,-105.01 897,-94.86 897,-85.99"/>
<polygon fill="midnightblue" stroke="midnightblue" points="900.5,-85.75 897,-75.75 893.5,-85.75 900.5,-85.75"/>
</g>
<!-- Node17 -->
<g id="node17" class="node">
<title>Node17</title>
<g id="a_node17"><a xlink:title=" ">
<polygon fill="none" stroke="#bfbfbf" points="942,-56.5 942,-75.5 988,-75.5 988,-56.5 942,-56.5"/>
<text text-anchor="middle" x="965" y="-63.5" font-family="Helvetica,sans-Serif" font-size="10.00">cstdio</text>
</a>
</g>
</g>
<!-- Node4&#45;&gt;Node17 -->
<g id="edge17" class="edge">
<title>Node4&#45;&gt;Node17</title>
<path fill="none" stroke="midnightblue" d="M907.93,-112.32C918.17,-104.18 933.72,-91.84 946,-82.09"/>
<polygon fill="midnightblue" stroke="midnightblue" points="948.22,-84.79 953.88,-75.83 943.87,-79.31 948.22,-84.79"/>
</g>
<!-- Node18 -->
<g id="node18" class="node">
<title>Node18</title>
<g id="a_node18"><a xlink:title=" ">
<polygon fill="none" stroke="#bfbfbf" points="787.5,-56.5 787.5,-75.5 852.5,-75.5 852.5,-56.5 787.5,-56.5"/>
<text text-anchor="middle" x="820" y="-63.5" font-family="Helvetica,sans-Serif" font-size="10.00">stdexcept</text>
</a>
</g>
</g>
<!-- Node4&#45;&gt;Node18 -->
<g id="edge18" class="edge">
<title>Node4&#45;&gt;Node18</title>
<path fill="none" stroke="midnightblue" d="M884.63,-112.32C872.84,-104.06 854.87,-91.45 840.86,-81.63"/>
<polygon fill="midnightblue" stroke="midnightblue" points="842.54,-78.53 832.34,-75.65 838.52,-84.26 842.54,-78.53"/>
</g>
<!-- Node5&#45;&gt;Node6 -->
<g id="edge6" class="edge">
<title>Node5&#45;&gt;Node6</title>
<path fill="none" stroke="midnightblue" d="M1217.9,-61.22C1059.94,-50.96 625.32,-22.72 487.51,-13.76"/>
<polygon fill="midnightblue" stroke="midnightblue" points="487.56,-10.26 477.35,-13.1 487.11,-17.24 487.56,-10.26"/>
</g>
<!-- Node5&#45;&gt;Node7 -->
<g id="edge7" class="edge">
<title>Node5&#45;&gt;Node7</title>
<path fill="none" stroke="midnightblue" d="M1217.76,-56.92C1136.28,-45.6 990.69,-25.39 923.19,-16.02"/>
<polygon fill="midnightblue" stroke="midnightblue" points="923.44,-12.52 913.05,-14.62 922.48,-19.46 923.44,-12.52"/>
</g>
<!-- Node8 -->
<g id="node8" class="node">
<title>Node8</title>
<g id="a_node8"><a xlink:title=" ">
<polygon fill="none" stroke="#bfbfbf" points="1186,-0.5 1186,-19.5 1236,-19.5 1236,-0.5 1186,-0.5"/>
<text text-anchor="middle" x="1211" y="-7.5" font-family="Helvetica,sans-Serif" font-size="10.00">climits</text>
</a>
</g>
</g>
<!-- Node5&#45;&gt;Node8 -->
<g id="edge8" class="edge">
<title>Node5&#45;&gt;Node8</title>
<path fill="none" stroke="midnightblue" d="M1265.56,-56.32C1255.85,-48.26 1241.18,-36.08 1229.5,-26.37"/>
<polygon fill="midnightblue" stroke="midnightblue" points="1231.56,-23.53 1221.63,-19.83 1227.09,-28.92 1231.56,-23.53"/>
</g>
<!-- Node9 -->
<g id="node9" class="node">
<title>Node9</title>
<g id="a_node9"><a xlink:title=" ">
<polygon fill="none" stroke="#bfbfbf" points="1417,-0.5 1417,-19.5 1467,-19.5 1467,-0.5 1417,-0.5"/>
<text text-anchor="middle" x="1442" y="-7.5" font-family="Helvetica,sans-Serif" font-size="10.00">cstdint</text>
</a>
</g>
</g>
<!-- Node5&#45;&gt;Node9 -->
<g id="edge9" class="edge">
<title>Node5&#45;&gt;Node9</title>
<path fill="none" stroke="midnightblue" d="M1302.3,-56.44C1330.68,-47.21 1376,-32.47 1407.28,-22.29"/>
<polygon fill="midnightblue" stroke="midnightblue" points="1408.48,-25.58 1416.91,-19.16 1406.31,-18.93 1408.48,-25.58"/>
</g>
<!-- Node10 -->
<g id="node10" class="node">
<title>Node10</title>
<g id="a_node10"><a xlink:title=" ">
<polygon fill="none" stroke="#bfbfbf" points="1650,-0.5 1650,-19.5 1700,-19.5 1700,-0.5 1650,-0.5"/>
<text text-anchor="middle" x="1675" y="-7.5" font-family="Helvetica,sans-Serif" font-size="10.00">cstring</text>
</a>
</g>
</g>
<!-- Node5&#45;&gt;Node10 -->
<g id="edge10" class="edge">
<title>Node5&#45;&gt;Node10</title>
<path fill="none" stroke="midnightblue" d="M1334.02,-57.15C1417.93,-45.79 1570.64,-25.12 1639.57,-15.8"/>
<polygon fill="midnightblue" stroke="midnightblue" points="1640.45,-19.21 1649.89,-14.4 1639.51,-12.27 1640.45,-19.21"/>
</g>
<!-- Node5&#45;&gt;Node11 -->
<g id="edge11" class="edge">
<title>Node5&#45;&gt;Node11</title>
<path fill="none" stroke="midnightblue" d="M1217.86,-61.5C1187.76,-59.74 1150.41,-57.64 1117,-56 732.24,-37.11 635.81,-37.89 251,-20 209.69,-18.08 162.91,-15.66 128.11,-13.81"/>
<polygon fill="midnightblue" stroke="midnightblue" points="127.89,-10.3 117.72,-13.26 127.52,-17.29 127.89,-10.3"/>
</g>
<!-- Node12 -->
<g id="node12" class="node">
<title>Node12</title>
<g id="a_node12"><a xlink:title=" ">
<polygon fill="none" stroke="#bfbfbf" points="1254,-0.5 1254,-19.5 1298,-19.5 1298,-0.5 1254,-0.5"/>
<text text-anchor="middle" x="1276" y="-7.5" font-family="Helvetica,sans-Serif" font-size="10.00">string</text>
</a>
</g>
</g>
<!-- Node5&#45;&gt;Node12 -->
<g id="edge12" class="edge">
<title>Node5&#45;&gt;Node12</title>
<path fill="none" stroke="midnightblue" d="M1276,-56.08C1276,-49.01 1276,-38.86 1276,-29.99"/>
<polygon fill="midnightblue" stroke="midnightblue" points="1279.5,-29.75 1276,-19.75 1272.5,-29.75 1279.5,-29.75"/>
</g>
<!-- Node13 -->
<g id="node13" class="node">
<title>Node13</title>
<g id="a_node13"><a xlink:title=" ">
<polygon fill="none" stroke="#bfbfbf" points="1316.5,-0.5 1316.5,-19.5 1385.5,-19.5 1385.5,-0.5 1316.5,-0.5"/>
<text text-anchor="middle" x="1351" y="-7.5" font-family="Helvetica,sans-Serif" font-size="10.00">type_traits</text>
</a>
</g>
</g>
<!-- Node5&#45;&gt;Node13 -->
<g id="edge13" class="edge">
<title>Node5&#45;&gt;Node13</title>
<path fill="none" stroke="midnightblue" d="M1288.05,-56.32C1299.46,-48.11 1316.83,-35.6 1330.43,-25.81"/>
<polygon fill="midnightblue" stroke="midnightblue" points="1332.66,-28.52 1338.73,-19.83 1328.57,-22.84 1332.66,-28.52"/>
</g>
<!-- Node5&#45;&gt;Node14 -->
<g id="edge14" class="edge">
<title>Node5&#45;&gt;Node14</title>
<path fill="none" stroke="midnightblue" d="M1217.86,-61.62C1187.75,-59.9 1150.41,-57.79 1117,-56 800.16,-39.03 720.67,-39.87 404,-20 374.94,-18.18 341.95,-15.67 317.93,-13.77"/>
<polygon fill="midnightblue" stroke="midnightblue" points="318.14,-10.27 307.89,-12.96 317.58,-17.25 318.14,-10.27"/>
</g>
<!-- Node19&#45;&gt;Node2 -->
<g id="edge21" class="edge">
<title>Node19&#45;&gt;Node2</title>
<path fill="none" stroke="midnightblue" d="M635.66,-291.3C654.1,-282.51 676.66,-270.05 694,-255 713.58,-238.01 730.6,-213.24 740.83,-196.64"/>
<polygon fill="midnightblue" stroke="midnightblue" points="743.9,-198.32 746.03,-187.94 737.89,-194.73 743.9,-198.32"/>
</g>
<!-- Node19&#45;&gt;Node5 -->
<g id="edge20" class="edge">
<title>Node19&#45;&gt;Node5</title>
<path fill="none" stroke="midnightblue" d="M636.93,-291.48C660.8,-281.7 693.06,-268.1 721,-255 722.2,-254.44 888.77,-168.47 890,-168 922.18,-155.68 1137.58,-101.48 1231.9,-77.96"/>
<polygon fill="midnightblue" stroke="midnightblue" points="1232.85,-81.33 1241.71,-75.51 1231.16,-74.54 1232.85,-81.33"/>
</g>
<!-- Node19&#45;&gt;Node6 -->
<g id="edge42" class="edge">
<title>Node19&#45;&gt;Node6</title>
<path fill="none" stroke="midnightblue" d="M556.59,-291.41C537.85,-283.48 517.42,-271.72 504,-255 482.14,-227.76 484,-213.93 484,-179 484,-179 484,-179 484,-121 484,-86.72 466.96,-49.7 455.41,-28.54"/>
<polygon fill="midnightblue" stroke="midnightblue" points="458.4,-26.72 450.42,-19.75 452.31,-30.17 458.4,-26.72"/>
</g>
<!-- Node19&#45;&gt;Node7 -->
<g id="edge43" class="edge">
<title>Node19&#45;&gt;Node7</title>
<path fill="none" stroke="midnightblue" d="M627,-291.39C639.72,-282.71 653.95,-270.31 661,-255 666.76,-242.48 668.51,-235.55 661,-224 639.53,-190.97 601.47,-221.03 580,-188 548.03,-138.81 541.64,-100.39 580,-56 614.58,-15.99 776.7,-10.88 850.39,-10.67"/>
<polygon fill="midnightblue" stroke="midnightblue" points="850.59,-14.17 860.59,-10.67 850.59,-7.17 850.59,-14.17"/>
</g>
<!-- Node19&#45;&gt;Node9 -->
<g id="edge45" class="edge">
<title>Node19&#45;&gt;Node9</title>
<path fill="none" stroke="midnightblue" d="M647.8,-291.43C680.27,-281.4 724.86,-267.53 764,-255 882.07,-217.22 910.62,-204.77 1029,-168 1167.88,-124.87 1211,-137.02 1343,-76 1372.81,-62.22 1403.95,-40.34 1423.17,-25.82"/>
<polygon fill="midnightblue" stroke="midnightblue" points="1425.55,-28.41 1431.35,-19.54 1421.28,-22.86 1425.55,-28.41"/>
</g>
<!-- Node19&#45;&gt;Node14 -->
<g id="edge49" class="edge">
<title>Node19&#45;&gt;Node14</title>
<path fill="none" stroke="midnightblue" d="M554.88,-291.47C531.8,-283.18 504.45,-271.1 483,-255 393.59,-187.87 320.02,-72.26 294.05,-28.48"/>
<polygon fill="midnightblue" stroke="midnightblue" points="297.07,-26.7 288.99,-19.84 291.02,-30.23 297.07,-26.7"/>
</g>
<!-- Node20 -->
<g id="node20" class="node">
<title>Node20</title>
<g id="a_node20"><a xlink:href="../../d7/d1b/_buffer_8h.html" target="_top" xlink:title=" ">
<polygon fill="none" stroke="black" points="1203,-230 1203,-249 1269,-249 1269,-230 1203,-230"/>
<text text-anchor="middle" x="1236" y="-237" font-family="Helvetica,sans-Serif" font-size="10.00">io/Buffer.h</text>
</a>
</g>
</g>
<!-- Node19&#45;&gt;Node20 -->
<g id="edge22" class="edge">
<title>Node19&#45;&gt;Node20</title>
<path fill="none" stroke="midnightblue" d="M690.15,-296.46C828.15,-282.31 1090.03,-255.47 1192.94,-244.92"/>
<polygon fill="midnightblue" stroke="midnightblue" points="1193.37,-248.39 1202.97,-243.89 1192.66,-241.43 1193.37,-248.39"/>
</g>
<!-- Node22 -->
<g id="node22" class="node">
<title>Node22</title>
<g id="a_node22"><a xlink:title=" ">
<polygon fill="none" stroke="#bfbfbf" points="1535.5,-112.5 1535.5,-131.5 1588.5,-131.5 1588.5,-112.5 1535.5,-112.5"/>
<text text-anchor="middle" x="1562" y="-119.5" font-family="Helvetica,sans-Serif" font-size="10.00">cstddef</text>
</a>
</g>
</g>
<!-- Node19&#45;&gt;Node22 -->
<g id="edge44" class="edge">
<title>Node19&#45;&gt;Node22</title>
<path fill="none" stroke="midnightblue" d="M690.17,-302.22C927.47,-292.45 1565.82,-259.69 1625,-188 1640.63,-169.06 1613.71,-149.03 1590.36,-136.29"/>
<polygon fill="midnightblue" stroke="midnightblue" points="1591.84,-133.12 1581.35,-131.62 1588.62,-139.33 1591.84,-133.12"/>
</g>
<!-- Node28 -->
<g id="node28" class="node">
<title>Node28</title>
<g id="a_node28"><a xlink:title=" ">
<polygon fill="none" stroke="#bfbfbf" points="512.5,-230 512.5,-249 577.5,-249 577.5,-230 512.5,-230"/>
<text text-anchor="middle" x="545" y="-237" font-family="Helvetica,sans-Serif" font-size="10.00">functional</text>
</a>
</g>
</g>
<!-- Node19&#45;&gt;Node28 -->
<g id="edge46" class="edge">
<title>Node19&#45;&gt;Node28</title>
<path fill="none" stroke="midnightblue" d="M589.63,-291.4C580.74,-281.26 568.74,-267.57 559.41,-256.94"/>
<polygon fill="midnightblue" stroke="midnightblue" points="561.85,-254.41 552.62,-249.19 556.59,-259.02 561.85,-254.41"/>
</g>
<!-- Node19&#45;&gt;Node29 -->
<g id="edge47" class="edge">
<title>Node19&#45;&gt;Node29</title>
<path fill="none" stroke="midnightblue" d="M552.32,-291.47C518.31,-281.69 472.26,-268.09 432,-255 429.55,-254.2 427.02,-253.36 424.49,-252.5"/>
<polygon fill="midnightblue" stroke="midnightblue" points="425.37,-249.1 414.78,-249.14 423.08,-255.72 425.37,-249.1"/>
</g>
<!-- Node30 -->
<g id="node30" class="node">
<title>Node30</title>
<g id="a_node30"><a xlink:title=" ">
<polygon fill="none" stroke="#bfbfbf" points="596,-230 596,-249 652,-249 652,-230 596,-230"/>
<text text-anchor="middle" x="624" y="-237" font-family="Helvetica,sans-Serif" font-size="10.00">numeric</text>
</a>
</g>
</g>
<!-- Node19&#45;&gt;Node30 -->
<g id="edge48" class="edge">
<title>Node19&#45;&gt;Node30</title>
<path fill="none" stroke="midnightblue" d="M606.77,-291.4C610,-281.86 614.29,-269.18 617.79,-258.86"/>
<polygon fill="midnightblue" stroke="midnightblue" points="621.17,-259.79 621.06,-249.19 614.54,-257.54 621.17,-259.79"/>
</g>
<!-- Node20&#45;&gt;Node5 -->
<g id="edge25" class="edge">
<title>Node20&#45;&gt;Node5</title>
<path fill="none" stroke="midnightblue" d="M1238.04,-229.76C1244.27,-203.04 1263.17,-122.02 1271.72,-85.36"/>
<polygon fill="midnightblue" stroke="midnightblue" points="1275.15,-86.05 1274.01,-75.52 1268.33,-84.46 1275.15,-86.05"/>
</g>
<!-- Node20&#45;&gt;Node7 -->
<g id="edge38" class="edge">
<title>Node20&#45;&gt;Node7</title>
<path fill="none" stroke="midnightblue" d="M1233.15,-229.87C1222.89,-200.19 1184.75,-101.67 1117,-56 1085.79,-34.97 979.59,-20.83 923.07,-14.61"/>
<polygon fill="midnightblue" stroke="midnightblue" points="923.44,-11.13 913.13,-13.54 922.69,-18.09 923.44,-11.13"/>
</g>
<!-- Node20&#45;&gt;Node9 -->
<g id="edge39" class="edge">
<title>Node20&#45;&gt;Node9</title>
<path fill="none" stroke="midnightblue" d="M1269.26,-234.05C1317.47,-226.89 1403.18,-211.2 1423,-188 1461.76,-142.62 1452.86,-64.99 1446.14,-29.59"/>
<polygon fill="midnightblue" stroke="midnightblue" points="1449.55,-28.76 1444.1,-19.67 1442.69,-30.17 1449.55,-28.76"/>
</g>
<!-- Node21 -->
<g id="node21" class="node">
<title>Node21</title>
<g id="a_node21"><a xlink:href="../../d2/d4f/_address_sanitizer_8h.html" target="_top" xlink:title=" ">
<polygon fill="none" stroke="black" points="1508.5,-168.5 1508.5,-187.5 1615.5,-187.5 1615.5,-168.5 1508.5,-168.5"/>
<text text-anchor="middle" x="1562" y="-175.5" font-family="Helvetica,sans-Serif" font-size="10.00">AddressSanitizer.h</text>
</a>
</g>
</g>
<!-- Node20&#45;&gt;Node21 -->
<g id="edge23" class="edge">
<title>Node20&#45;&gt;Node21</title>
<path fill="none" stroke="midnightblue" d="M1269.05,-232.47C1324.48,-222.35 1436.8,-201.85 1505.12,-189.38"/>
<polygon fill="midnightblue" stroke="midnightblue" points="1506.07,-192.77 1515.28,-187.53 1504.82,-185.88 1506.07,-192.77"/>
</g>
<!-- Node23 -->
<g id="node23" class="node">
<title>Node23</title>
<g id="a_node23"><a xlink:href="../../d3/de6/_memory_8h.html" target="_top" xlink:title=" ">
<polygon fill="none" stroke="black" points="1304,-168.5 1304,-187.5 1414,-187.5 1414,-168.5 1304,-168.5"/>
<text text-anchor="middle" x="1359" y="-175.5" font-family="Helvetica,sans-Serif" font-size="10.00">common/Memory.h</text>
</a>
</g>
</g>
<!-- Node20&#45;&gt;Node23 -->
<g id="edge26" class="edge">
<title>Node20&#45;&gt;Node23</title>
<path fill="none" stroke="midnightblue" d="M1253.62,-229.98C1274.17,-220.03 1308.36,-203.49 1332.21,-191.96"/>
<polygon fill="midnightblue" stroke="midnightblue" points="1333.93,-195.01 1341.41,-187.51 1330.88,-188.71 1333.93,-195.01"/>
</g>
<!-- Node24 -->
<g id="node24" class="node">
<title>Node24</title>
<g id="a_node24"><a xlink:href="../../d5/d0b/_endianness_8h.html" target="_top" xlink:title=" ">
<polygon fill="none" stroke="black" points="1470.5,-56.5 1470.5,-75.5 1563.5,-75.5 1563.5,-56.5 1470.5,-56.5"/>
<text text-anchor="middle" x="1517" y="-63.5" font-family="Helvetica,sans-Serif" font-size="10.00">io/Endianness.h</text>
</a>
</g>
</g>
<!-- Node20&#45;&gt;Node24 -->
<g id="edge31" class="edge">
<title>Node20&#45;&gt;Node24</title>
<path fill="none" stroke="midnightblue" d="M1269.14,-239.28C1315.71,-238.68 1400.94,-231.15 1456,-188 1489.38,-161.84 1505.99,-112.53 1512.9,-85.64"/>
<polygon fill="midnightblue" stroke="midnightblue" points="1516.38,-86.16 1515.29,-75.62 1509.57,-84.54 1516.38,-86.16"/>
</g>
<!-- Node25 -->
<g id="node25" class="node">
<title>Node25</title>
<g id="a_node25"><a xlink:href="../../d0/dd8/_i_o_exception_8h.html" target="_top" xlink:title=" ">
<polygon fill="none" stroke="black" points="1038,-168.5 1038,-187.5 1134,-187.5 1134,-168.5 1038,-168.5"/>
<text text-anchor="middle" x="1086" y="-175.5" font-family="Helvetica,sans-Serif" font-size="10.00">io/IOException.h</text>
</a>
</g>
</g>
<!-- Node20&#45;&gt;Node25 -->
<g id="edge35" class="edge">
<title>Node20&#45;&gt;Node25</title>
<path fill="none" stroke="midnightblue" d="M1214.51,-229.98C1188.89,-219.81 1145.89,-202.76 1116.76,-191.2"/>
<polygon fill="midnightblue" stroke="midnightblue" points="1118.04,-187.94 1107.45,-187.51 1115.46,-194.45 1118.04,-187.94"/>
</g>
<!-- Node20&#45;&gt;Node26 -->
<g id="edge40" class="edge">
<title>Node20&#45;&gt;Node26</title>
<path fill="none" stroke="midnightblue" d="M1202.75,-236.35C1061.34,-227.19 510.15,-191.51 356.79,-181.58"/>
<polygon fill="midnightblue" stroke="midnightblue" points="356.65,-178.06 346.45,-180.91 356.2,-185.05 356.65,-178.06"/>
</g>
<!-- Node20&#45;&gt;Node27 -->
<g id="edge41" class="edge">
<title>Node20&#45;&gt;Node27</title>
<path fill="none" stroke="midnightblue" d="M1202.88,-232.24C1142.24,-220.79 1014.03,-196.57 953.7,-185.18"/>
<polygon fill="midnightblue" stroke="midnightblue" points="954.07,-181.68 943.59,-183.27 952.77,-188.56 954.07,-181.68"/>
</g>
<!-- Node21&#45;&gt;Node22 -->
<g id="edge24" class="edge">
<title>Node21&#45;&gt;Node22</title>
<path fill="none" stroke="midnightblue" d="M1562,-168.08C1562,-161.01 1562,-150.86 1562,-141.99"/>
<polygon fill="midnightblue" stroke="midnightblue" points="1565.5,-141.75 1562,-131.75 1558.5,-141.75 1565.5,-141.75"/>
</g>
<!-- Node23&#45;&gt;Node3 -->
<g id="edge27" class="edge">
<title>Node23&#45;&gt;Node3</title>
<path fill="none" stroke="midnightblue" d="M1335.3,-168.37C1281.83,-148.89 1151.66,-101.48 1090.19,-79.09"/>
<polygon fill="midnightblue" stroke="midnightblue" points="1091.18,-75.73 1080.59,-75.59 1088.79,-82.3 1091.18,-75.73"/>
</g>
<!-- Node23&#45;&gt;Node5 -->
<g id="edge28" class="edge">
<title>Node23&#45;&gt;Node5</title>
<path fill="none" stroke="midnightblue" d="M1356.53,-168.34C1352.5,-155.22 1343.57,-129.93 1330,-112 1321.05,-100.18 1308.43,-89.44 1297.64,-81.42"/>
<polygon fill="midnightblue" stroke="midnightblue" points="1299.66,-78.56 1289.49,-75.6 1295.59,-84.26 1299.66,-78.56"/>
</g>
<!-- Node23&#45;&gt;Node9 -->
<g id="edge30" class="edge">
<title>Node23&#45;&gt;Node9</title>
<path fill="none" stroke="midnightblue" d="M1363.46,-168.08C1376.64,-141.72 1415.56,-63.88 1433.17,-28.66"/>
<polygon fill="midnightblue" stroke="midnightblue" points="1436.37,-30.08 1437.72,-19.57 1430.11,-26.95 1436.37,-30.08"/>
</g>
<!-- Node23&#45;&gt;Node22 -->
<g id="edge29" class="edge">
<title>Node23&#45;&gt;Node22</title>
<path fill="none" stroke="midnightblue" d="M1391.17,-168.44C1427.8,-158.7 1487.53,-142.81 1525.78,-132.64"/>
<polygon fill="midnightblue" stroke="midnightblue" points="1526.72,-136.01 1535.48,-130.05 1524.92,-129.24 1526.72,-136.01"/>
</g>
<!-- Node24&#45;&gt;Node7 -->
<g id="edge32" class="edge">
<title>Node24&#45;&gt;Node7</title>
<path fill="none" stroke="midnightblue" d="M1470.42,-61.01C1350.17,-50.7 1031.19,-23.36 923.28,-14.11"/>
<polygon fill="midnightblue" stroke="midnightblue" points="923.47,-10.61 913.21,-13.25 922.88,-17.59 923.47,-10.61"/>
</g>
<!-- Node24&#45;&gt;Node9 -->
<g id="edge33" class="edge">
<title>Node24&#45;&gt;Node9</title>
<path fill="none" stroke="midnightblue" d="M1504.95,-56.32C1493.54,-48.11 1476.17,-35.6 1462.57,-25.81"/>
<polygon fill="midnightblue" stroke="midnightblue" points="1464.43,-22.84 1454.27,-19.83 1460.34,-28.52 1464.43,-22.84"/>
</g>
<!-- Node24&#45;&gt;Node10 -->
<g id="edge34" class="edge">
<title>Node24&#45;&gt;Node10</title>
<path fill="none" stroke="midnightblue" d="M1542.04,-56.44C1568.62,-47.36 1610.81,-32.94 1640.52,-22.78"/>
<polygon fill="midnightblue" stroke="midnightblue" points="1641.75,-26.06 1650.08,-19.52 1639.49,-19.44 1641.75,-26.06"/>
</g>
<!-- Node25&#45;&gt;Node3 -->
<g id="edge36" class="edge">
<title>Node25&#45;&gt;Node3</title>
<path fill="none" stroke="midnightblue" d="M1083.72,-168.37C1079.02,-150.54 1068.15,-109.3 1061.82,-85.27"/>
<polygon fill="midnightblue" stroke="midnightblue" points="1065.2,-84.37 1059.27,-75.59 1058.43,-86.15 1065.2,-84.37"/>
</g>
<!-- Node25&#45;&gt;Node4 -->
<g id="edge37" class="edge">
<title>Node25&#45;&gt;Node4</title>
<path fill="none" stroke="midnightblue" d="M1056.05,-168.44C1023.84,-159.24 972.47,-144.56 936.86,-134.39"/>
<polygon fill="midnightblue" stroke="midnightblue" points="937.38,-130.9 926.81,-131.52 935.46,-137.63 937.38,-130.9"/>
</g>
<!-- Node31&#45;&gt;Node7 -->
<g id="edge51" class="edge">
<title>Node31&#45;&gt;Node7</title>
<path fill="none" stroke="midnightblue" d="M173.56,-224.28C199.43,-209.51 241.54,-186.08 279,-168 393.41,-112.77 419.43,-89.42 542,-56 651.9,-26.04 787.11,-15.8 850.69,-12.48"/>
<polygon fill="midnightblue" stroke="midnightblue" points="851.18,-15.97 860.99,-11.98 850.83,-8.97 851.18,-15.97"/>
</g>
<!-- Node31&#45;&gt;Node11 -->
<g id="edge52" class="edge">
<title>Node31&#45;&gt;Node11</title>
<path fill="none" stroke="midnightblue" d="M144.43,-224.27C131.77,-184.81 96.22,-74.02 81.99,-29.68"/>
<polygon fill="midnightblue" stroke="midnightblue" points="85.25,-28.38 78.86,-19.93 78.59,-30.52 85.25,-28.38"/>
</g>
<!-- Node31&#45;&gt;Node14 -->
<g id="edge54" class="edge">
<title>Node31&#45;&gt;Node14</title>
<path fill="none" stroke="midnightblue" d="M154.67,-224.47C164.46,-200.74 185.63,-151.41 208,-112 222.85,-85.84 227.83,-79.97 246,-56 253.41,-46.22 262.23,-35.72 269.5,-27.33"/>
<polygon fill="midnightblue" stroke="midnightblue" points="272.19,-29.57 276.15,-19.74 266.92,-24.95 272.19,-29.57"/>
</g>
<!-- Node31&#45;&gt;Node26 -->
<g id="edge53" class="edge">
<title>Node31&#45;&gt;Node26</title>
<path fill="none" stroke="midnightblue" d="M188.81,-224.4C217.5,-214.24 255.81,-200.67 283.06,-191.02"/>
<polygon fill="midnightblue" stroke="midnightblue" points="284.3,-194.3 292.55,-187.66 281.96,-187.7 284.3,-194.3"/>
</g>
<!-- Node32&#45;&gt;Node5 -->
<g id="edge56" class="edge">
<title>Node32&#45;&gt;Node5</title>
<path fill="none" stroke="midnightblue" d="M1137.4,-358.18C1146.17,-335.6 1170.53,-273.95 1194,-224 1218.22,-172.47 1250.3,-113.34 1266.2,-84.57"/>
<polygon fill="midnightblue" stroke="midnightblue" points="1269.32,-86.16 1271.11,-75.72 1263.2,-82.77 1269.32,-86.16"/>
</g>
<!-- Node32&#45;&gt;Node6 -->
<g id="edge70" class="edge">
<title>Node32&#45;&gt;Node6</title>
<path fill="none" stroke="midnightblue" d="M1090.73,-365.86C967.5,-362.3 616.37,-349.93 505,-322 434.18,-304.24 394.73,-316.26 355,-255 329.31,-215.4 405.63,-77.71 434.46,-28.58"/>
<polygon fill="midnightblue" stroke="midnightblue" points="437.6,-30.14 439.69,-19.75 431.58,-26.57 437.6,-30.14"/>
</g>
<!-- Node32&#45;&gt;Node7 -->
<g id="edge72" class="edge">
<title>Node32&#45;&gt;Node7</title>
<path fill="none" stroke="midnightblue" d="M1109.78,-358.45C1012.89,-324.17 658.06,-198.14 651,-188 618.38,-141.12 599.04,-145.68 718,-56 757.06,-26.56 813.88,-16.35 850.65,-12.83"/>
<polygon fill="midnightblue" stroke="midnightblue" points="851.24,-16.29 860.91,-11.97 850.65,-9.32 851.24,-16.29"/>
</g>
<!-- Node32&#45;&gt;Node9 -->
<g id="edge73" class="edge">
<title>Node32&#45;&gt;Node9</title>
<path fill="none" stroke="midnightblue" d="M1177.05,-359.36C1180.41,-358.86 1183.76,-358.4 1187,-358 1388.75,-332.96 1450.82,-388.31 1643,-322 1693.92,-304.43 1709.96,-296.75 1744,-255 1784.93,-204.81 1799.21,-170.77 1772,-112 1755.84,-77.09 1740.87,-72.25 1706,-56 1629.91,-20.53 1529.82,-12.71 1477.44,-11.18"/>
<polygon fill="midnightblue" stroke="midnightblue" points="1477.4,-7.68 1467.32,-10.95 1477.24,-14.68 1477.4,-7.68"/>
</g>
<!-- Node32&#45;&gt;Node10 -->
<g id="edge74" class="edge">
<title>Node32&#45;&gt;Node10</title>
<path fill="none" stroke="midnightblue" d="M1177.05,-359.33C1180.41,-358.84 1183.76,-358.39 1187,-358 1409.52,-331.21 1472.63,-376.63 1690,-322 1775.96,-300.4 1872,-329.13 1872,-240.5 1872,-240.5 1872,-240.5 1872,-121 1872,-47.8 1767.03,-22.85 1710.34,-14.72"/>
<polygon fill="midnightblue" stroke="midnightblue" points="1710.73,-11.24 1700.35,-13.39 1709.8,-18.18 1710.73,-11.24"/>
</g>
<!-- Node32&#45;&gt;Node15 -->
<g id="edge71" class="edge">
<title>Node32&#45;&gt;Node15</title>
<path fill="none" stroke="midnightblue" d="M1128.75,-358.14C1109.63,-326.71 1040.23,-219.59 953,-168 893.99,-133.1 861.38,-167.95 803,-132 783.8,-120.17 767.95,-99.35 758.27,-84.46"/>
<polygon fill="midnightblue" stroke="midnightblue" points="761.08,-82.34 752.84,-75.69 755.13,-86.03 761.08,-82.34"/>
</g>
<!-- Node32&#45;&gt;Node20 -->
<g id="edge57" class="edge">
<title>Node32&#45;&gt;Node20</title>
<path fill="none" stroke="midnightblue" d="M1146.92,-358.48C1158.84,-350.17 1176.54,-336.67 1189,-322 1205.64,-302.41 1219.58,-276.11 1227.85,-258.76"/>
<polygon fill="midnightblue" stroke="midnightblue" points="1231.23,-259.79 1232.24,-249.24 1224.87,-256.85 1231.23,-259.79"/>
</g>
<!-- Node32&#45;&gt;Node24 -->
<g id="edge68" class="edge">
<title>Node32&#45;&gt;Node24</title>
<path fill="none" stroke="midnightblue" d="M1177.06,-359.42C1180.42,-358.91 1183.76,-358.43 1187,-358 1353.86,-335.9 1402.01,-367.71 1564,-322 1639.29,-300.76 1720,-318.73 1720,-240.5 1720,-240.5 1720,-240.5 1720,-177 1720,-110.12 1633.77,-83.69 1573.71,-73.4"/>
<polygon fill="midnightblue" stroke="midnightblue" points="1574,-69.9 1563.57,-71.77 1572.89,-76.81 1574,-69.9"/>
</g>
<!-- Node32&#45;&gt;Node25 -->
<g id="edge69" class="edge">
<title>Node32&#45;&gt;Node25</title>
<path fill="none" stroke="midnightblue" d="M1131.81,-358.43C1124.5,-329.81 1100.82,-237.03 1090.68,-197.31"/>
<polygon fill="midnightblue" stroke="midnightblue" points="1094.07,-196.44 1088.2,-187.62 1087.28,-198.17 1094.07,-196.44"/>
</g>
<!-- Node33 -->
<g id="node33" class="node">
<title>Node33</title>
<g id="a_node33"><a xlink:href="../../d7/de7/_byte_stream_8h.html" target="_top" xlink:title=" ">
<polygon fill="none" stroke="black" points="1459.5,-297 1459.5,-316 1554.5,-316 1554.5,-297 1459.5,-297"/>
<text text-anchor="middle" x="1507" y="-304" font-family="Helvetica,sans-Serif" font-size="10.00">io/ByteStream.h</text>
</a>
</g>
</g>
<!-- Node32&#45;&gt;Node33 -->
<g id="edge58" class="edge">
<title>Node32&#45;&gt;Node33</title>
<path fill="none" stroke="midnightblue" d="M1177.09,-359.64C1180.44,-359.08 1183.78,-358.53 1187,-358 1278.67,-342.98 1385.25,-326.32 1449.35,-316.39"/>
<polygon fill="midnightblue" stroke="midnightblue" points="1449.92,-319.84 1459.26,-314.86 1448.85,-312.93 1449.92,-319.84"/>
</g>
<!-- Node33&#45;&gt;Node5 -->
<g id="edge60" class="edge">
<title>Node33&#45;&gt;Node5</title>
<path fill="none" stroke="midnightblue" d="M1524.29,-296.77C1554.68,-280.33 1616.74,-241.55 1641,-188 1657.02,-152.65 1631.54,-131.53 1598,-112 1556.14,-87.62 1425.64,-75.7 1344.19,-70.49"/>
<polygon fill="midnightblue" stroke="midnightblue" points="1344.22,-66.99 1334.02,-69.86 1343.78,-73.98 1344.22,-66.99"/>
</g>
<!-- Node33&#45;&gt;Node7 -->
<g id="edge64" class="edge">
<title>Node33&#45;&gt;Node7</title>
<path fill="none" stroke="midnightblue" d="M1490.24,-296.94C1471,-287.05 1438.54,-270.19 1411,-255 1358.87,-226.25 1343.53,-222.49 1295,-188 1221.79,-135.98 1223.13,-94.52 1142,-56 1069.77,-21.71 974.83,-13.35 923.59,-11.43"/>
<polygon fill="midnightblue" stroke="midnightblue" points="923.45,-7.93 913.34,-11.12 923.23,-14.92 923.45,-7.93"/>
</g>
<!-- Node33&#45;&gt;Node9 -->
<g id="edge65" class="edge">
<title>Node33&#45;&gt;Node9</title>
<path fill="none" stroke="midnightblue" d="M1554.51,-302.51C1627.27,-295.07 1758,-269.15 1758,-179 1758,-179 1758,-179 1758,-121 1758,-62.08 1559.58,-27.47 1477.2,-15.64"/>
<polygon fill="midnightblue" stroke="midnightblue" points="1477.45,-12.14 1467.06,-14.21 1476.48,-19.07 1477.45,-12.14"/>
</g>
<!-- Node33&#45;&gt;Node10 -->
<g id="edge66" class="edge">
<title>Node33&#45;&gt;Node10</title>
<path fill="none" stroke="midnightblue" d="M1554.7,-300.64C1615.42,-293.58 1715.82,-278.68 1744,-255 1793.58,-213.34 1796.18,-172.08 1772,-112 1756.87,-74.4 1720.31,-42.94 1696.65,-25.57"/>
<polygon fill="midnightblue" stroke="midnightblue" points="1698.46,-22.56 1688.28,-19.62 1694.4,-28.27 1698.46,-22.56"/>
</g>
<!-- Node33&#45;&gt;Node20 -->
<g id="edge62" class="edge">
<title>Node33&#45;&gt;Node20</title>
<path fill="none" stroke="midnightblue" d="M1464.65,-296.97C1419.43,-287.63 1345.79,-271.74 1283,-255 1279.6,-254.09 1276.07,-253.1 1272.55,-252.08"/>
<polygon fill="midnightblue" stroke="midnightblue" points="1273.32,-248.66 1262.74,-249.14 1271.32,-255.36 1273.32,-248.66"/>
</g>
<!-- Node33&#45;&gt;Node21 -->
<g id="edge59" class="edge">
<title>Node33&#45;&gt;Node21</title>
<path fill="none" stroke="midnightblue" d="M1510.78,-296.81C1519.69,-276.31 1542.15,-224.65 1554.16,-197.04"/>
<polygon fill="midnightblue" stroke="midnightblue" points="1557.42,-198.32 1558.19,-187.76 1551,-195.53 1557.42,-198.32"/>
</g>
<!-- Node33&#45;&gt;Node23 -->
<g id="edge61" class="edge">
<title>Node33&#45;&gt;Node23</title>
<path fill="none" stroke="midnightblue" d="M1496.83,-296.81C1472.11,-275.68 1408.64,-221.43 1377.2,-194.56"/>
<polygon fill="midnightblue" stroke="midnightblue" points="1379.12,-191.59 1369.24,-187.76 1374.57,-196.91 1379.12,-191.59"/>
</g>
<!-- Node33&#45;&gt;Node25 -->
<g id="edge63" class="edge">
<title>Node33&#45;&gt;Node25</title>
<path fill="none" stroke="midnightblue" d="M1459.35,-304.43C1396.4,-301.55 1283.09,-291.27 1194,-255 1158.14,-240.4 1122.59,-211.99 1102.55,-194.34"/>
<polygon fill="midnightblue" stroke="midnightblue" points="1104.73,-191.6 1094.96,-187.51 1100.05,-196.8 1104.73,-191.6"/>
</g>
<!-- Node34 -->
<g id="node34" class="node">
<title>Node34</title>
<g id="a_node34"><a xlink:title=" ">
<polygon fill="none" stroke="#bfbfbf" points="1648,-230 1648,-249 1692,-249 1692,-230 1648,-230"/>
<text text-anchor="middle" x="1670" y="-237" font-family="Helvetica,sans-Serif" font-size="10.00">limits</text>
</a>
</g>
</g>
<!-- Node33&#45;&gt;Node34 -->
<g id="edge67" class="edge">
<title>Node33&#45;&gt;Node34</title>
<path fill="none" stroke="midnightblue" d="M1528.58,-296.95C1553.86,-286.93 1596.99,-269.81 1634,-255 1635.63,-254.35 1637.31,-253.67 1639,-253"/>
<polygon fill="midnightblue" stroke="midnightblue" points="1640.71,-256.08 1648.69,-249.1 1638.1,-249.59 1640.71,-256.08"/>
</g>
</g>
</svg>
        <g id="navigator" transform="translate(0 0)" fill="#404254">
                <rect fill="#f2f5e9" fill-opacity="0.5" stroke="#606060" stroke-width=".5" x="0" y="0" width="60" height="60"/>
                <use id="zoomplus" xlink:href="#zoomPlus" x="17" y="9" onmousedown="handleZoom(evt,'in')"/>
                <use id="zoomminus" xlink:href="#zoomMin" x="42" y="9" onmousedown="handleZoom(evt,'out')"/>
                <use id="reset" xlink:href="#resetDef" x="30" y="36" onmousedown="handleReset()"/>
                <g id="arrowUp" xlink:href="#dirArrow" transform="translate(30 24)" onmousedown="handlePan(0,-1)">
                  <use xlink:href="#rim" fill="#404040">
                        <set attributeName="fill" to="#808080" begin="arrowUp.mouseover" end="arrowUp.mouseout"/>
                  </use>
                  <path fill="none" stroke="white" stroke-width="1.5" d="M0,-3.0v7 M-2.5,-0.5L0,-3.0L2.5,-0.5"/>
                </g>
                <g id="arrowRight" xlink:href="#dirArrow" transform="rotate(90) translate(36 -43)" onmousedown="handlePan(1,0)">
                  <use xlink:href="#rim" fill="#404040">
                        <set attributeName="fill" to="#808080" begin="arrowRight.mouseover" end="arrowRight.mouseout"/>
                  </use>
                  <path fill="none" stroke="white" stroke-width="1.5" d="M0,-3.0v7 M-2.5,-0.5L0,-3.0L2.5,-0.5"/>
                </g>
                <g id="arrowDown" xlink:href="#dirArrow" transform="rotate(180) translate(-30 -48)" onmousedown="handlePan(0,1)">
                  <use xlink:href="#rim" fill="#404040">
                        <set attributeName="fill" to="#808080" begin="arrowDown.mouseover" end="arrowDown.mouseout"/>
                  </use>
                  <path fill="none" stroke="white" stroke-width="1.5" d="M0,-3.0v7 M-2.5,-0.5L0,-3.0L2.5,-0.5"/>
                </g>
                <g id="arrowLeft" xlink:href="#dirArrow" transform="rotate(270) translate(-36 17)" onmousedown="handlePan(-1,0)">
                  <use xlink:href="#rim" fill="#404040">
                        <set attributeName="fill" to="#808080" begin="arrowLeft.mouseover" end="arrowLeft.mouseout"/>
                  </use>
                  <path fill="none" stroke="white" stroke-width="1.5" d="M0,-3.0v7 M-2.5,-0.5L0,-3.0L2.5,-0.5"/>
                </g>
        </g>
        <svg viewBox="0 0 15 15" width="100%" height="30px" preserveAspectRatio="xMaxYMin meet">
         <g id="arrow_out" transform="scale(0.3 0.3)">
          <a xlink:href="_huffman_table_tree_8h__incl_org.svg" target="_base">
           <rect id="button" ry="5" rx="5" y="6" x="6" height="38" width="38"
                fill="#f2f5e9" fill-opacity="0.5" stroke="#606060" stroke-width="1.0"/>
           <path id="arrow"
             d="M 11.500037,31.436501 C 11.940474,20.09759 22.043105,11.32322 32.158766,21.979434 L 37.068811,17.246167 C 37.068811,17.246167 37.088388,32 37.088388,32 L 22.160133,31.978069 C 22.160133,31.978069 26.997745,27.140456 26.997745,27.140456 C 18.528582,18.264221 13.291696,25.230495 11.500037,31.436501 z"
             style="fill:#404040;"/>
          </a>
         </g>
        </svg>
</svg>
