<?xml version="1.0" encoding="UTF-8" standalone="no"?>
<!DOCTYPE svg PUBLIC "-//W3C//DTD SVG 1.1//EN"
 "http://www.w3.org/Graphics/SVG/1.1/DTD/svg11.dtd">
<!-- Generated by graphviz version 2.43.0 (0)
 -->
<!-- Title: librawspeed/decompressors/KodakDecompressor.h Pages: 1 -->
<svg width="2099pt" height="375pt"
 viewBox="0.00 0.00 2099.00 375.00" xmlns="http://www.w3.org/2000/svg" xmlns:xlink="http://www.w3.org/1999/xlink">
<g id="graph0" class="graph" transform="scale(1 1) rotate(0) translate(4 371)">
<title>librawspeed/decompressors/KodakDecompressor.h</title>
<!-- Node1 -->
<g id="node1" class="node">
<title>Node1</title>
<g id="a_node1"><a xlink:title=" ">
<polygon fill="#bfbfbf" stroke="black" points="1075.5,-336.5 1075.5,-366.5 1228.5,-366.5 1228.5,-336.5 1075.5,-336.5"/>
<text text-anchor="start" x="1083.5" y="-354.5" font-family="Helvetica,sans-Serif" font-size="10.00">librawspeed/decompressors</text>
<text text-anchor="middle" x="1152" y="-343.5" font-family="Helvetica,sans-Serif" font-size="10.00">/KodakDecompressor.h</text>
</a>
</g>
</g>
<!-- Node2 -->
<g id="node2" class="node">
<title>Node2</title>
<g id="a_node2"><a xlink:href="../../d6/da1/_raw_image_8h.html" target="_top" xlink:title=" ">
<polygon fill="none" stroke="black" points="672.5,-168.5 672.5,-187.5 795.5,-187.5 795.5,-168.5 672.5,-168.5"/>
<text text-anchor="middle" x="734" y="-175.5" font-family="Helvetica,sans-Serif" font-size="10.00">common/RawImage.h</text>
</a>
</g>
</g>
<!-- Node1&#45;&gt;Node2 -->
<g id="edge1" class="edge">
<title>Node1&#45;&gt;Node2</title>
<path fill="none" stroke="midnightblue" d="M1117.79,-336.47C1037.93,-303.7 840.21,-222.58 764.33,-191.44"/>
<polygon fill="midnightblue" stroke="midnightblue" points="765.44,-188.12 754.86,-187.56 762.79,-194.59 765.44,-188.12"/>
</g>
<!-- Node12 -->
<g id="node12" class="node">
<title>Node12</title>
<g id="a_node12"><a xlink:title=" ">
<polygon fill="none" stroke="#bfbfbf" points="1045,-0.5 1045,-19.5 1095,-19.5 1095,-0.5 1045,-0.5"/>
<text text-anchor="middle" x="1070" y="-7.5" font-family="Helvetica,sans-Serif" font-size="10.00">cstdint</text>
</a>
</g>
</g>
<!-- Node1&#45;&gt;Node12 -->
<g id="edge85" class="edge">
<title>Node1&#45;&gt;Node12</title>
<path fill="none" stroke="midnightblue" d="M1144.13,-336.41C1133,-315.13 1114,-273.21 1114,-235 1114,-235 1114,-235 1114,-177 1114,-121.53 1090.76,-59 1078.06,-28.98"/>
<polygon fill="midnightblue" stroke="midnightblue" points="1081.26,-27.56 1074.06,-19.78 1074.84,-30.35 1081.26,-27.56"/>
</g>
<!-- Node23 -->
<g id="node23" class="node">
<title>Node23</title>
<g id="a_node23"><a xlink:title=" ">
<polygon fill="none" stroke="#bfbfbf" points="1136,-56.5 1136,-75.5 1178,-75.5 1178,-56.5 1136,-56.5"/>
<text text-anchor="middle" x="1157" y="-63.5" font-family="Helvetica,sans-Serif" font-size="10.00">array</text>
</a>
</g>
</g>
<!-- Node1&#45;&gt;Node23 -->
<g id="edge84" class="edge">
<title>Node1&#45;&gt;Node23</title>
<path fill="none" stroke="midnightblue" d="M1152,-336.28C1152,-314.48 1152,-271.49 1152,-235 1152,-235 1152,-235 1152,-177 1152,-144.91 1154.15,-107.62 1155.63,-85.74"/>
<polygon fill="midnightblue" stroke="midnightblue" points="1159.14,-85.77 1156.35,-75.55 1152.15,-85.28 1159.14,-85.77"/>
</g>
<!-- Node26 -->
<g id="node26" class="node">
<title>Node26</title>
<g id="a_node26"><a xlink:href="../../db/d31/_abstract_decompressor_8h.html" target="_top" xlink:title=" ">
<polygon fill="none" stroke="black" points="1180.5,-280.5 1180.5,-299.5 1393.5,-299.5 1393.5,-280.5 1180.5,-280.5"/>
<text text-anchor="middle" x="1287" y="-287.5" font-family="Helvetica,sans-Serif" font-size="10.00">decompressors/AbstractDecompressor.h</text>
</a>
</g>
</g>
<!-- Node1&#45;&gt;Node26 -->
<g id="edge48" class="edge">
<title>Node1&#45;&gt;Node26</title>
<path fill="none" stroke="midnightblue" d="M1183.99,-336.4C1206.44,-326.51 1236.21,-313.38 1257.98,-303.79"/>
<polygon fill="midnightblue" stroke="midnightblue" points="1259.62,-306.89 1267.36,-299.66 1256.79,-300.49 1259.62,-306.89"/>
</g>
<!-- Node27 -->
<g id="node27" class="node">
<title>Node27</title>
<g id="a_node27"><a xlink:href="../../d7/de7/_byte_stream_8h.html" target="_top" xlink:title=" ">
<polygon fill="none" stroke="black" points="1511.5,-280.5 1511.5,-299.5 1606.5,-299.5 1606.5,-280.5 1511.5,-280.5"/>
<text text-anchor="middle" x="1559" y="-287.5" font-family="Helvetica,sans-Serif" font-size="10.00">io/ByteStream.h</text>
</a>
</g>
</g>
<!-- Node1&#45;&gt;Node27 -->
<g id="edge49" class="edge">
<title>Node1&#45;&gt;Node27</title>
<path fill="none" stroke="midnightblue" d="M1228.55,-339.31C1307.78,-327.73 1429.76,-309.89 1501.25,-299.44"/>
<polygon fill="midnightblue" stroke="midnightblue" points="1502.03,-302.87 1511.42,-297.96 1501.02,-295.94 1502.03,-302.87"/>
</g>
<!-- Node3 -->
<g id="node3" class="node">
<title>Node3</title>
<g id="a_node3"><a xlink:title=" ">
<polygon fill="none" stroke="#bfbfbf" points="1339,-0.5 1339,-19.5 1441,-19.5 1441,-0.5 1339,-0.5"/>
<text text-anchor="middle" x="1390" y="-7.5" font-family="Helvetica,sans-Serif" font-size="10.00">rawspeedconfig.h</text>
</a>
</g>
</g>
<!-- Node2&#45;&gt;Node3 -->
<g id="edge2" class="edge">
<title>Node2&#45;&gt;Node3</title>
<path fill="none" stroke="midnightblue" d="M795.59,-172.83C846.79,-167.73 920.74,-156.5 981,-132 1037.07,-109.21 1037.6,-77.97 1094,-56 1171.26,-25.9 1267.17,-15.84 1328.49,-12.53"/>
<polygon fill="midnightblue" stroke="midnightblue" points="1328.96,-16.01 1338.77,-12.02 1328.61,-9.02 1328.96,-16.01"/>
</g>
<!-- Node4 -->
<g id="node4" class="node">
<title>Node4</title>
<g id="a_node4"><a xlink:href="../../db/d8a/_thread_safety_analysis_8h.html" target="_top" xlink:title=" ">
<polygon fill="none" stroke="black" points="0,-0.5 0,-19.5 132,-19.5 132,-0.5 0,-0.5"/>
<text text-anchor="middle" x="66" y="-7.5" font-family="Helvetica,sans-Serif" font-size="10.00">ThreadSafetyAnalysis.h</text>
</a>
</g>
</g>
<!-- Node2&#45;&gt;Node4 -->
<g id="edge3" class="edge">
<title>Node2&#45;&gt;Node4</title>
<path fill="none" stroke="midnightblue" d="M672.47,-176.37C523.43,-174.31 152.1,-165.82 108,-132 76.04,-107.49 68.28,-57.09 66.48,-29.71"/>
<polygon fill="midnightblue" stroke="midnightblue" points="69.96,-29.35 66.01,-19.52 62.97,-29.67 69.96,-29.35"/>
</g>
<!-- Node5 -->
<g id="node5" class="node">
<title>Node5</title>
<g id="a_node5"><a xlink:href="../../dd/d9c/_array2_d_ref_8h.html" target="_top" xlink:title=" ">
<polygon fill="none" stroke="black" points="594,-56.5 594,-75.5 720,-75.5 720,-56.5 594,-56.5"/>
<text text-anchor="middle" x="657" y="-63.5" font-family="Helvetica,sans-Serif" font-size="10.00">common/Array2DRef.h</text>
</a>
</g>
</g>
<!-- Node2&#45;&gt;Node5 -->
<g id="edge4" class="edge">
<title>Node2&#45;&gt;Node5</title>
<path fill="none" stroke="midnightblue" d="M672.45,-171.95C618.49,-166.09 545.91,-154.24 528,-132 505.72,-104.33 547.59,-87.38 589.44,-77.76"/>
<polygon fill="midnightblue" stroke="midnightblue" points="590.44,-81.12 599.47,-75.59 588.96,-74.28 590.44,-81.12"/>
</g>
<!-- Node6 -->
<g id="node6" class="node">
<title>Node6</title>
<g id="a_node6"><a xlink:title=" ">
<polygon fill="none" stroke="#bfbfbf" points="1644,-0.5 1644,-19.5 1696,-19.5 1696,-0.5 1644,-0.5"/>
<text text-anchor="middle" x="1670" y="-7.5" font-family="Helvetica,sans-Serif" font-size="10.00">cassert</text>
</a>
</g>
</g>
<!-- Node2&#45;&gt;Node6 -->
<g id="edge42" class="edge">
<title>Node2&#45;&gt;Node6</title>
<path fill="none" stroke="midnightblue" d="M795.59,-174.46C853.26,-170.38 940.95,-159.74 1012,-132 1040.53,-120.86 1098.01,-65.88 1127,-56 1334.95,14.87 1402.03,-47.5 1620,-20 1624.5,-19.43 1629.21,-18.73 1633.87,-17.97"/>
<polygon fill="midnightblue" stroke="midnightblue" points="1634.61,-21.39 1643.87,-16.24 1633.42,-14.49 1634.61,-21.39"/>
</g>
<!-- Node8 -->
<g id="node8" class="node">
<title>Node8</title>
<g id="a_node8"><a xlink:title=" ">
<polygon fill="none" stroke="#bfbfbf" points="383.5,-0.5 383.5,-19.5 430.5,-19.5 430.5,-0.5 383.5,-0.5"/>
<text text-anchor="middle" x="407" y="-7.5" font-family="Helvetica,sans-Serif" font-size="10.00">vector</text>
</a>
</g>
</g>
<!-- Node2&#45;&gt;Node8 -->
<g id="edge47" class="edge">
<title>Node2&#45;&gt;Node8</title>
<path fill="none" stroke="midnightblue" d="M672.37,-177.1C524.65,-176.7 159.85,-171.67 123,-132 46.94,-50.14 283.15,-21.36 373.43,-13.5"/>
<polygon fill="midnightblue" stroke="midnightblue" points="373.77,-16.98 383.44,-12.66 373.19,-10.01 373.77,-16.98"/>
</g>
<!-- Node9 -->
<g id="node9" class="node">
<title>Node9</title>
<g id="a_node9"><a xlink:href="../../d9/df5/src_2librawspeed_2common_2_common_8h.html" target="_top" xlink:title=" ">
<polygon fill="none" stroke="black" points="1426,-56.5 1426,-75.5 1542,-75.5 1542,-56.5 1426,-56.5"/>
<text text-anchor="middle" x="1484" y="-63.5" font-family="Helvetica,sans-Serif" font-size="10.00">common/Common.h</text>
</a>
</g>
</g>
<!-- Node2&#45;&gt;Node9 -->
<g id="edge8" class="edge">
<title>Node2&#45;&gt;Node9</title>
<path fill="none" stroke="midnightblue" d="M795.59,-169.75C865.75,-161.33 983.77,-146.73 1085,-132 1205.97,-114.4 1347.04,-90.66 1424.85,-77.28"/>
<polygon fill="midnightblue" stroke="midnightblue" points="1425.68,-80.69 1434.94,-75.54 1424.49,-73.79 1425.68,-80.69"/>
</g>
<!-- Node2&#45;&gt;Node12 -->
<g id="edge44" class="edge">
<title>Node2&#45;&gt;Node12</title>
<path fill="none" stroke="midnightblue" d="M736.7,-168.29C741.56,-154.15 753.15,-126.33 773,-112 832.45,-69.09 865.47,-102.07 934,-76 951.11,-69.49 953.64,-64.21 970,-56 993.25,-44.34 1020.17,-32.3 1040.22,-23.62"/>
<polygon fill="midnightblue" stroke="midnightblue" points="1041.66,-26.81 1049.46,-19.64 1038.89,-20.38 1041.66,-26.81"/>
</g>
<!-- Node15 -->
<g id="node15" class="node">
<title>Node15</title>
<g id="a_node15"><a xlink:title=" ">
<polygon fill="none" stroke="#bfbfbf" points="481,-0.5 481,-19.5 525,-19.5 525,-0.5 481,-0.5"/>
<text text-anchor="middle" x="503" y="-7.5" font-family="Helvetica,sans-Serif" font-size="10.00">string</text>
</a>
</g>
</g>
<!-- Node2&#45;&gt;Node15 -->
<g id="edge46" class="edge">
<title>Node2&#45;&gt;Node15</title>
<path fill="none" stroke="midnightblue" d="M672.3,-171.37C622.46,-165.45 551.13,-153.83 492,-132 445.3,-114.76 419.89,-119.11 395,-76 376.05,-43.17 432.19,-25.01 470.48,-16.7"/>
<polygon fill="midnightblue" stroke="midnightblue" points="471.63,-20.03 480.73,-14.61 470.23,-13.18 471.63,-20.03"/>
</g>
<!-- Node16 -->
<g id="node16" class="node">
<title>Node16</title>
<g id="a_node16"><a xlink:href="../../d7/d4f/_error_log_8h.html" target="_top" xlink:title=" ">
<polygon fill="none" stroke="black" points="132,-112.5 132,-131.5 244,-131.5 244,-112.5 132,-112.5"/>
<text text-anchor="middle" x="188" y="-119.5" font-family="Helvetica,sans-Serif" font-size="10.00">common/ErrorLog.h</text>
</a>
</g>
</g>
<!-- Node2&#45;&gt;Node16 -->
<g id="edge18" class="edge">
<title>Node2&#45;&gt;Node16</title>
<path fill="none" stroke="midnightblue" d="M672.33,-171.18C583.73,-162.78 415.3,-146.66 272,-132 266.2,-131.41 260.19,-130.78 254.15,-130.15"/>
<polygon fill="midnightblue" stroke="midnightblue" points="254.33,-126.65 244.02,-129.08 253.6,-133.61 254.33,-126.65"/>
</g>
<!-- Node17 -->
<g id="node17" class="node">
<title>Node17</title>
<g id="a_node17"><a xlink:href="../../da/d78/_mutex_8h.html" target="_top" xlink:title=" ">
<polygon fill="none" stroke="black" points="208.5,-56.5 208.5,-75.5 309.5,-75.5 309.5,-56.5 208.5,-56.5"/>
<text text-anchor="middle" x="259" y="-63.5" font-family="Helvetica,sans-Serif" font-size="10.00">common/Mutex.h</text>
</a>
</g>
</g>
<!-- Node2&#45;&gt;Node17 -->
<g id="edge25" class="edge">
<title>Node2&#45;&gt;Node17</title>
<path fill="none" stroke="midnightblue" d="M672.27,-175.21C573.27,-171.51 384.04,-160.81 324,-132 301.39,-121.15 282.04,-99.13 270.47,-83.74"/>
<polygon fill="midnightblue" stroke="midnightblue" points="273.28,-81.64 264.6,-75.57 267.6,-85.73 273.28,-81.64"/>
</g>
<!-- Node18 -->
<g id="node18" class="node">
<title>Node18</title>
<g id="a_node18"><a xlink:href="../../d1/d18/_point_8h.html" target="_top" xlink:title=" ">
<polygon fill="none" stroke="black" points="794,-56.5 794,-75.5 890,-75.5 890,-56.5 794,-56.5"/>
<text text-anchor="middle" x="842" y="-63.5" font-family="Helvetica,sans-Serif" font-size="10.00">common/Point.h</text>
</a>
</g>
</g>
<!-- Node2&#45;&gt;Node18 -->
<g id="edge26" class="edge">
<title>Node2&#45;&gt;Node18</title>
<path fill="none" stroke="midnightblue" d="M732.1,-168.5C729.63,-155.13 726.94,-128.98 739,-112 750.5,-95.81 769.14,-85.38 787.41,-78.69"/>
<polygon fill="midnightblue" stroke="midnightblue" points="788.52,-82.01 796.9,-75.53 786.31,-75.37 788.52,-82.01"/>
</g>
<!-- Node19 -->
<g id="node19" class="node">
<title>Node19</title>
<g id="a_node19"><a xlink:href="../../d2/d9b/_table_look_up_8h.html" target="_top" xlink:title=" ">
<polygon fill="none" stroke="black" points="404,-56.5 404,-75.5 538,-75.5 538,-56.5 404,-56.5"/>
<text text-anchor="middle" x="471" y="-63.5" font-family="Helvetica,sans-Serif" font-size="10.00">common/TableLookUp.h</text>
</a>
</g>
</g>
<!-- Node2&#45;&gt;Node19 -->
<g id="edge30" class="edge">
<title>Node2&#45;&gt;Node19</title>
<path fill="none" stroke="midnightblue" d="M672.35,-176.12C626.22,-172.79 563.35,-162.35 517,-132 499.52,-120.56 486.65,-99.97 479.03,-85.03"/>
<polygon fill="midnightblue" stroke="midnightblue" points="482.08,-83.28 474.61,-75.76 475.76,-86.29 482.08,-83.28"/>
</g>
<!-- Node20 -->
<g id="node20" class="node">
<title>Node20</title>
<g id="a_node20"><a xlink:href="../../db/dca/_black_area_8h.html" target="_top" xlink:title=" ">
<polygon fill="none" stroke="black" points="781.5,-112.5 781.5,-131.5 906.5,-131.5 906.5,-112.5 781.5,-112.5"/>
<text text-anchor="middle" x="844" y="-119.5" font-family="Helvetica,sans-Serif" font-size="10.00">metadata/BlackArea.h</text>
</a>
</g>
</g>
<!-- Node2&#45;&gt;Node20 -->
<g id="edge33" class="edge">
<title>Node2&#45;&gt;Node20</title>
<path fill="none" stroke="midnightblue" d="M751.67,-168.32C769.39,-159.62 796.9,-146.12 817.29,-136.11"/>
<polygon fill="midnightblue" stroke="midnightblue" points="818.94,-139.2 826.37,-131.65 815.85,-132.92 818.94,-139.2"/>
</g>
<!-- Node21 -->
<g id="node21" class="node">
<title>Node21</title>
<g id="a_node21"><a xlink:href="../../dd/d27/_color_filter_array_8h.html" target="_top" xlink:title=" ">
<polygon fill="none" stroke="black" points="537,-112.5 537,-131.5 687,-131.5 687,-112.5 537,-112.5"/>
<text text-anchor="middle" x="612" y="-119.5" font-family="Helvetica,sans-Serif" font-size="10.00">metadata/ColorFilterArray.h</text>
</a>
</g>
</g>
<!-- Node2&#45;&gt;Node21 -->
<g id="edge35" class="edge">
<title>Node2&#45;&gt;Node21</title>
<path fill="none" stroke="midnightblue" d="M714.67,-168.44C694.68,-159.6 663.26,-145.69 640.44,-135.59"/>
<polygon fill="midnightblue" stroke="midnightblue" points="641.8,-132.36 631.24,-131.52 638.97,-138.76 641.8,-132.36"/>
</g>
<!-- Node2&#45;&gt;Node23 -->
<g id="edge41" class="edge">
<title>Node2&#45;&gt;Node23</title>
<path fill="none" stroke="midnightblue" d="M795.58,-175.75C860.99,-172.73 966.54,-162.95 1052,-132 1084.84,-120.11 1118.4,-97.03 1138.47,-81.82"/>
<polygon fill="midnightblue" stroke="midnightblue" points="1140.68,-84.53 1146.44,-75.65 1136.39,-79 1140.68,-84.53"/>
</g>
<!-- Node24 -->
<g id="node24" class="node">
<title>Node24</title>
<g id="a_node24"><a xlink:title=" ">
<polygon fill="none" stroke="#bfbfbf" points="924.5,-112.5 924.5,-131.5 971.5,-131.5 971.5,-112.5 924.5,-112.5"/>
<text text-anchor="middle" x="948" y="-119.5" font-family="Helvetica,sans-Serif" font-size="10.00">cmath</text>
</a>
</g>
</g>
<!-- Node2&#45;&gt;Node24 -->
<g id="edge43" class="edge">
<title>Node2&#45;&gt;Node24</title>
<path fill="none" stroke="midnightblue" d="M770,-168.46C804.69,-160.14 858.91,-146.95 914.28,-132.4"/>
<polygon fill="midnightblue" stroke="midnightblue" points="915.48,-135.7 924.26,-129.77 913.7,-128.94 915.48,-135.7"/>
</g>
<!-- Node25 -->
<g id="node25" class="node">
<title>Node25</title>
<g id="a_node25"><a xlink:title=" ">
<polygon fill="none" stroke="#bfbfbf" points="1256,-112.5 1256,-131.5 1314,-131.5 1314,-112.5 1256,-112.5"/>
<text text-anchor="middle" x="1285" y="-119.5" font-family="Helvetica,sans-Serif" font-size="10.00">memory</text>
</a>
</g>
</g>
<!-- Node2&#45;&gt;Node25 -->
<g id="edge45" class="edge">
<title>Node2&#45;&gt;Node25</title>
<path fill="none" stroke="midnightblue" d="M795.66,-173.89C891.53,-168.53 1081.95,-155.75 1242,-132 1243.27,-131.81 1244.57,-131.61 1245.87,-131.39"/>
<polygon fill="midnightblue" stroke="midnightblue" points="1246.72,-134.8 1255.94,-129.57 1245.48,-127.91 1246.72,-134.8"/>
</g>
<!-- Node5&#45;&gt;Node6 -->
<g id="edge5" class="edge">
<title>Node5&#45;&gt;Node6</title>
<path fill="none" stroke="midnightblue" d="M720.18,-56.8C723.16,-56.51 726.11,-56.24 729,-56 1123.98,-23.39 1226.04,-63.21 1620,-20 1624.51,-19.51 1629.23,-18.85 1633.89,-18.11"/>
<polygon fill="midnightblue" stroke="midnightblue" points="1634.62,-21.53 1643.89,-16.4 1633.44,-14.63 1634.62,-21.53"/>
</g>
<!-- Node7 -->
<g id="node7" class="node">
<title>Node7</title>
<g id="a_node7"><a xlink:title=" ">
<polygon fill="none" stroke="#bfbfbf" points="807.5,-0.5 807.5,-19.5 876.5,-19.5 876.5,-0.5 807.5,-0.5"/>
<text text-anchor="middle" x="842" y="-7.5" font-family="Helvetica,sans-Serif" font-size="10.00">type_traits</text>
</a>
</g>
</g>
<!-- Node5&#45;&gt;Node7 -->
<g id="edge6" class="edge">
<title>Node5&#45;&gt;Node7</title>
<path fill="none" stroke="midnightblue" d="M686.31,-56.44C717.84,-47.24 768.13,-32.56 802.99,-22.39"/>
<polygon fill="midnightblue" stroke="midnightblue" points="804.2,-25.68 812.82,-19.52 802.24,-18.96 804.2,-25.68"/>
</g>
<!-- Node5&#45;&gt;Node8 -->
<g id="edge7" class="edge">
<title>Node5&#45;&gt;Node8</title>
<path fill="none" stroke="midnightblue" d="M617.39,-56.44C568.59,-45.9 486.55,-28.18 440.66,-18.27"/>
<polygon fill="midnightblue" stroke="midnightblue" points="441.14,-14.79 430.63,-16.1 439.67,-21.64 441.14,-14.79"/>
</g>
<!-- Node9&#45;&gt;Node6 -->
<g id="edge10" class="edge">
<title>Node9&#45;&gt;Node6</title>
<path fill="none" stroke="midnightblue" d="M1513.47,-56.44C1546.2,-46.94 1599.02,-31.61 1634.13,-21.41"/>
<polygon fill="midnightblue" stroke="midnightblue" points="1635.34,-24.71 1643.97,-18.56 1633.39,-17.98 1635.34,-24.71"/>
</g>
<!-- Node9&#45;&gt;Node7 -->
<g id="edge16" class="edge">
<title>Node9&#45;&gt;Node7</title>
<path fill="none" stroke="midnightblue" d="M1425.89,-61.04C1323.55,-53.92 1104.53,-38 920,-20 909.2,-18.95 897.58,-17.68 886.7,-16.43"/>
<polygon fill="midnightblue" stroke="midnightblue" points="886.87,-12.93 876.53,-15.25 886.06,-19.88 886.87,-12.93"/>
</g>
<!-- Node9&#45;&gt;Node8 -->
<g id="edge17" class="edge">
<title>Node9&#45;&gt;Node8</title>
<path fill="none" stroke="midnightblue" d="M1425.7,-63.12C1239.31,-57.01 659.18,-37.08 472,-20 461.81,-19.07 450.77,-17.69 440.73,-16.28"/>
<polygon fill="midnightblue" stroke="midnightblue" points="441.11,-12.8 430.71,-14.82 440.1,-19.72 441.11,-12.8"/>
</g>
<!-- Node10 -->
<g id="node10" class="node">
<title>Node10</title>
<g id="a_node10"><a xlink:title=" ">
<polygon fill="none" stroke="#bfbfbf" points="929,-0.5 929,-19.5 993,-19.5 993,-0.5 929,-0.5"/>
<text text-anchor="middle" x="961" y="-7.5" font-family="Helvetica,sans-Serif" font-size="10.00">algorithm</text>
</a>
</g>
</g>
<!-- Node9&#45;&gt;Node10 -->
<g id="edge9" class="edge">
<title>Node9&#45;&gt;Node10</title>
<path fill="none" stroke="midnightblue" d="M1425.97,-59.53C1340.52,-51.4 1175.86,-35.41 1036,-20 1025.33,-18.82 1013.82,-17.48 1003.09,-16.2"/>
<polygon fill="midnightblue" stroke="midnightblue" points="1003.45,-12.71 993.1,-14.99 1002.61,-19.66 1003.45,-12.71"/>
</g>
<!-- Node11 -->
<g id="node11" class="node">
<title>Node11</title>
<g id="a_node11"><a xlink:title=" ">
<polygon fill="none" stroke="#bfbfbf" points="1459,-0.5 1459,-19.5 1509,-19.5 1509,-0.5 1459,-0.5"/>
<text text-anchor="middle" x="1484" y="-7.5" font-family="Helvetica,sans-Serif" font-size="10.00">climits</text>
</a>
</g>
</g>
<!-- Node9&#45;&gt;Node11 -->
<g id="edge11" class="edge">
<title>Node9&#45;&gt;Node11</title>
<path fill="none" stroke="midnightblue" d="M1484,-56.08C1484,-49.01 1484,-38.86 1484,-29.99"/>
<polygon fill="midnightblue" stroke="midnightblue" points="1487.5,-29.75 1484,-19.75 1480.5,-29.75 1487.5,-29.75"/>
</g>
<!-- Node9&#45;&gt;Node12 -->
<g id="edge12" class="edge">
<title>Node9&#45;&gt;Node12</title>
<path fill="none" stroke="midnightblue" d="M1426,-57.43C1339,-46.09 1177.31,-25 1105.71,-15.66"/>
<polygon fill="midnightblue" stroke="midnightblue" points="1105.79,-12.14 1095.42,-14.32 1104.88,-19.08 1105.79,-12.14"/>
</g>
<!-- Node13 -->
<g id="node13" class="node">
<title>Node13</title>
<g id="a_node13"><a xlink:title=" ">
<polygon fill="none" stroke="#bfbfbf" points="1734,-0.5 1734,-19.5 1784,-19.5 1784,-0.5 1734,-0.5"/>
<text text-anchor="middle" x="1759" y="-7.5" font-family="Helvetica,sans-Serif" font-size="10.00">cstring</text>
</a>
</g>
</g>
<!-- Node9&#45;&gt;Node13 -->
<g id="edge13" class="edge">
<title>Node9&#45;&gt;Node13</title>
<path fill="none" stroke="midnightblue" d="M1527.57,-56.44C1581.87,-45.78 1673.59,-27.77 1723.71,-17.93"/>
<polygon fill="midnightblue" stroke="midnightblue" points="1724.61,-21.32 1733.74,-15.96 1723.26,-14.45 1724.61,-21.32"/>
</g>
<!-- Node14 -->
<g id="node14" class="node">
<title>Node14</title>
<g id="a_node14"><a xlink:title=" ">
<polygon fill="none" stroke="#bfbfbf" points="1527.5,-0.5 1527.5,-19.5 1610.5,-19.5 1610.5,-0.5 1527.5,-0.5"/>
<text text-anchor="middle" x="1569" y="-7.5" font-family="Helvetica,sans-Serif" font-size="10.00">initializer_list</text>
</a>
</g>
</g>
<!-- Node9&#45;&gt;Node14 -->
<g id="edge14" class="edge">
<title>Node9&#45;&gt;Node14</title>
<path fill="none" stroke="midnightblue" d="M1497.66,-56.32C1510.92,-47.9 1531.27,-34.97 1546.85,-25.07"/>
<polygon fill="midnightblue" stroke="midnightblue" points="1548.81,-27.97 1555.38,-19.65 1545.06,-22.06 1548.81,-27.97"/>
</g>
<!-- Node9&#45;&gt;Node15 -->
<g id="edge15" class="edge">
<title>Node9&#45;&gt;Node15</title>
<path fill="none" stroke="midnightblue" d="M1425.93,-61.8C1242.21,-51.69 677.34,-20.6 535.55,-12.79"/>
<polygon fill="midnightblue" stroke="midnightblue" points="535.52,-9.28 525.34,-12.23 535.14,-16.27 535.52,-9.28"/>
</g>
<!-- Node16&#45;&gt;Node4 -->
<g id="edge19" class="edge">
<title>Node16&#45;&gt;Node4</title>
<path fill="none" stroke="midnightblue" d="M175.12,-112.27C162.63,-103.6 143.38,-89.66 128,-76 110.62,-60.56 92.46,-41.06 80.32,-27.47"/>
<polygon fill="midnightblue" stroke="midnightblue" points="82.84,-25.04 73.6,-19.86 77.59,-29.67 82.84,-25.04"/>
</g>
<!-- Node16&#45;&gt;Node8 -->
<g id="edge24" class="edge">
<title>Node16&#45;&gt;Node8</title>
<path fill="none" stroke="midnightblue" d="M180.43,-112.47C169.49,-99.06 151.99,-72.86 166,-56 191.98,-24.73 313.38,-15.07 373.33,-12.18"/>
<polygon fill="midnightblue" stroke="midnightblue" points="373.6,-15.67 383.43,-11.73 373.28,-8.68 373.6,-15.67"/>
</g>
<!-- Node16&#45;&gt;Node15 -->
<g id="edge23" class="edge">
<title>Node16&#45;&gt;Node15</title>
<path fill="none" stroke="midnightblue" d="M186.61,-112.42C184.88,-98.46 183.79,-70.9 199,-56 200.21,-54.81 392.37,-26.97 470.51,-15.68"/>
<polygon fill="midnightblue" stroke="midnightblue" points="471.35,-19.1 480.75,-14.21 470.35,-12.17 471.35,-19.1"/>
</g>
<!-- Node16&#45;&gt;Node17 -->
<g id="edge20" class="edge">
<title>Node16&#45;&gt;Node17</title>
<path fill="none" stroke="midnightblue" d="M199.41,-112.32C210.11,-104.18 226.34,-91.84 239.16,-82.09"/>
<polygon fill="midnightblue" stroke="midnightblue" points="241.54,-84.67 247.39,-75.83 237.31,-79.1 241.54,-84.67"/>
</g>
<!-- Node17&#45;&gt;Node3 -->
<g id="edge21" class="edge">
<title>Node17&#45;&gt;Node3</title>
<path fill="none" stroke="midnightblue" d="M309.68,-61.39C335.26,-59.64 366.77,-57.57 395,-56 748.37,-36.32 1172.71,-19.34 1328.66,-13.33"/>
<polygon fill="midnightblue" stroke="midnightblue" points="1329.12,-16.81 1338.98,-12.93 1328.85,-9.82 1329.12,-16.81"/>
</g>
<!-- Node17&#45;&gt;Node4 -->
<g id="edge22" class="edge">
<title>Node17&#45;&gt;Node4</title>
<path fill="none" stroke="midnightblue" d="M228.42,-56.44C195.39,-47.2 142.61,-32.44 106.23,-22.26"/>
<polygon fill="midnightblue" stroke="midnightblue" points="107.01,-18.84 96.44,-19.52 105.13,-25.58 107.01,-18.84"/>
</g>
<!-- Node18&#45;&gt;Node7 -->
<g id="edge29" class="edge">
<title>Node18&#45;&gt;Node7</title>
<path fill="none" stroke="midnightblue" d="M842,-56.08C842,-49.01 842,-38.86 842,-29.99"/>
<polygon fill="midnightblue" stroke="midnightblue" points="845.5,-29.75 842,-19.75 838.5,-29.75 845.5,-29.75"/>
</g>
<!-- Node18&#45;&gt;Node10 -->
<g id="edge27" class="edge">
<title>Node18&#45;&gt;Node10</title>
<path fill="none" stroke="midnightblue" d="M860.86,-56.44C880.27,-47.64 910.73,-33.81 932.96,-23.72"/>
<polygon fill="midnightblue" stroke="midnightblue" points="934.57,-26.84 942.23,-19.52 931.68,-20.46 934.57,-26.84"/>
</g>
<!-- Node18&#45;&gt;Node12 -->
<g id="edge28" class="edge">
<title>Node18&#45;&gt;Node12</title>
<path fill="none" stroke="midnightblue" d="M878.13,-56.44C921.16,-46.25 992.56,-29.34 1035.07,-19.27"/>
<polygon fill="midnightblue" stroke="midnightblue" points="1036.03,-22.64 1044.96,-16.93 1034.42,-15.83 1036.03,-22.64"/>
</g>
<!-- Node19&#45;&gt;Node8 -->
<g id="edge32" class="edge">
<title>Node19&#45;&gt;Node8</title>
<path fill="none" stroke="midnightblue" d="M460.72,-56.32C451.16,-48.26 436.72,-36.08 425.22,-26.37"/>
<polygon fill="midnightblue" stroke="midnightblue" points="427.37,-23.61 417.47,-19.83 422.86,-28.96 427.37,-23.61"/>
</g>
<!-- Node19&#45;&gt;Node12 -->
<g id="edge31" class="edge">
<title>Node19&#45;&gt;Node12</title>
<path fill="none" stroke="midnightblue" d="M538.37,-59.69C660.49,-50 913.93,-29.55 1002,-20 1012.66,-18.84 1024.22,-17.39 1034.74,-15.99"/>
<polygon fill="midnightblue" stroke="midnightblue" points="1035.41,-19.43 1044.85,-14.62 1034.47,-12.49 1035.41,-19.43"/>
</g>
<!-- Node20&#45;&gt;Node12 -->
<g id="edge34" class="edge">
<title>Node20&#45;&gt;Node12</title>
<path fill="none" stroke="midnightblue" d="M874.08,-112.43C900.12,-104.51 938.46,-91.61 970,-76 999.61,-61.34 1031.16,-39.7 1050.72,-25.48"/>
<polygon fill="midnightblue" stroke="midnightblue" points="1052.84,-28.27 1058.82,-19.52 1048.69,-22.63 1052.84,-28.27"/>
</g>
<!-- Node21&#45;&gt;Node8 -->
<g id="edge40" class="edge">
<title>Node21&#45;&gt;Node8</title>
<path fill="none" stroke="midnightblue" d="M536.91,-115.37C481.52,-109.48 412.82,-97.9 395,-76 384.27,-62.82 389.97,-43.14 396.68,-28.89"/>
<polygon fill="midnightblue" stroke="midnightblue" points="399.98,-30.13 401.52,-19.65 393.78,-26.88 399.98,-30.13"/>
</g>
<!-- Node21&#45;&gt;Node12 -->
<g id="edge37" class="edge">
<title>Node21&#45;&gt;Node12</title>
<path fill="none" stroke="midnightblue" d="M687.01,-115.03C745.68,-108.98 828.8,-97.37 899,-76 919.16,-69.86 922.48,-63.95 942,-56 973.01,-43.37 1009.04,-30.9 1034.96,-22.29"/>
<polygon fill="midnightblue" stroke="midnightblue" points="1036.31,-25.54 1044.71,-19.08 1034.12,-18.89 1036.31,-25.54"/>
</g>
<!-- Node21&#45;&gt;Node15 -->
<g id="edge39" class="edge">
<title>Node21&#45;&gt;Node15</title>
<path fill="none" stroke="midnightblue" d="M603.45,-112.37C585.14,-93.89 541.94,-50.29 518.6,-26.74"/>
<polygon fill="midnightblue" stroke="midnightblue" points="521.04,-24.23 511.51,-19.59 516.07,-29.16 521.04,-24.23"/>
</g>
<!-- Node21&#45;&gt;Node18 -->
<g id="edge36" class="edge">
<title>Node21&#45;&gt;Node18</title>
<path fill="none" stroke="midnightblue" d="M648.44,-112.44C688.4,-103.06 752.59,-87.99 795.98,-77.8"/>
<polygon fill="midnightblue" stroke="midnightblue" points="796.79,-81.21 805.73,-75.52 795.19,-74.39 796.79,-81.21"/>
</g>
<!-- Node22 -->
<g id="node22" class="node">
<title>Node22</title>
<g id="a_node22"><a xlink:title=" ">
<polygon fill="none" stroke="#bfbfbf" points="738,-56.5 738,-75.5 776,-75.5 776,-56.5 738,-56.5"/>
<text text-anchor="middle" x="757" y="-63.5" font-family="Helvetica,sans-Serif" font-size="10.00">map</text>
</a>
</g>
</g>
<!-- Node21&#45;&gt;Node22 -->
<g id="edge38" class="edge">
<title>Node21&#45;&gt;Node22</title>
<path fill="none" stroke="midnightblue" d="M634.98,-112.44C660.29,-103.01 701.05,-87.84 728.41,-77.65"/>
<polygon fill="midnightblue" stroke="midnightblue" points="729.69,-80.91 737.84,-74.14 727.24,-74.35 729.69,-80.91"/>
</g>
<!-- Node27&#45;&gt;Node6 -->
<g id="edge80" class="edge">
<title>Node27&#45;&gt;Node6</title>
<path fill="none" stroke="midnightblue" d="M1606.82,-288.44C1730.79,-285.7 2053,-269.83 2053,-179 2053,-179 2053,-179 2053,-121 2053,-90.9 2057,-75.42 2034,-56 1981.18,-11.4 1793.46,-29.58 1725,-20 1718.98,-19.16 1712.61,-18.19 1706.42,-17.2"/>
<polygon fill="midnightblue" stroke="midnightblue" points="1706.69,-13.7 1696.26,-15.55 1705.57,-20.61 1706.69,-13.7"/>
</g>
<!-- Node27&#45;&gt;Node9 -->
<g id="edge52" class="edge">
<title>Node27&#45;&gt;Node9</title>
<path fill="none" stroke="midnightblue" d="M1556.06,-280.3C1544.98,-247.49 1505.58,-130.88 1490.21,-85.38"/>
<polygon fill="midnightblue" stroke="midnightblue" points="1493.52,-84.24 1487,-75.88 1486.89,-86.48 1493.52,-84.24"/>
</g>
<!-- Node27&#45;&gt;Node12 -->
<g id="edge81" class="edge">
<title>Node27&#45;&gt;Node12</title>
<path fill="none" stroke="midnightblue" d="M1511.5,-289.37C1437.41,-287.22 1294.89,-271.64 1218,-188 1177.22,-143.63 1226.61,-101.42 1187,-56 1166.29,-32.25 1131.58,-20.97 1105.34,-15.65"/>
<polygon fill="midnightblue" stroke="midnightblue" points="1105.85,-12.19 1095.38,-13.84 1104.59,-19.08 1105.85,-12.19"/>
</g>
<!-- Node27&#45;&gt;Node13 -->
<g id="edge82" class="edge">
<title>Node27&#45;&gt;Node13</title>
<path fill="none" stroke="midnightblue" d="M1606.68,-289.2C1737.26,-288.48 2091,-277.44 2091,-179 2091,-179 2091,-179 2091,-121 2091,-87.98 2082.11,-74.86 2055,-56 2013.49,-27.11 1864.06,-16.14 1794.76,-12.54"/>
<polygon fill="midnightblue" stroke="midnightblue" points="1794.52,-9.02 1784.36,-12.02 1794.17,-16.01 1794.52,-9.02"/>
</g>
<!-- Node28 -->
<g id="node28" class="node">
<title>Node28</title>
<g id="a_node28"><a xlink:href="../../d2/d4f/_address_sanitizer_8h.html" target="_top" xlink:title=" ">
<polygon fill="none" stroke="black" points="1226.5,-168.5 1226.5,-187.5 1333.5,-187.5 1333.5,-168.5 1226.5,-168.5"/>
<text text-anchor="middle" x="1280" y="-175.5" font-family="Helvetica,sans-Serif" font-size="10.00">AddressSanitizer.h</text>
</a>
</g>
</g>
<!-- Node27&#45;&gt;Node28 -->
<g id="edge50" class="edge">
<title>Node27&#45;&gt;Node28</title>
<path fill="none" stroke="midnightblue" d="M1537.11,-280.37C1487.91,-260.97 1368.44,-213.87 1311.37,-191.37"/>
<polygon fill="midnightblue" stroke="midnightblue" points="1312.38,-188 1301.79,-187.59 1309.81,-194.52 1312.38,-188"/>
</g>
<!-- Node30 -->
<g id="node30" class="node">
<title>Node30</title>
<g id="a_node30"><a xlink:href="../../d3/de6/_memory_8h.html" target="_top" xlink:title=" ">
<polygon fill="none" stroke="black" points="1390,-168.5 1390,-187.5 1500,-187.5 1500,-168.5 1390,-168.5"/>
<text text-anchor="middle" x="1445" y="-175.5" font-family="Helvetica,sans-Serif" font-size="10.00">common/Memory.h</text>
</a>
</g>
</g>
<!-- Node27&#45;&gt;Node30 -->
<g id="edge53" class="edge">
<title>Node27&#45;&gt;Node30</title>
<path fill="none" stroke="midnightblue" d="M1550.05,-280.37C1530.91,-261.89 1485.72,-218.29 1461.32,-194.74"/>
<polygon fill="midnightblue" stroke="midnightblue" points="1463.53,-192.02 1453.9,-187.59 1458.67,-197.05 1463.53,-192.02"/>
</g>
<!-- Node31 -->
<g id="node31" class="node">
<title>Node31</title>
<g id="a_node31"><a xlink:href="../../d7/d1b/_buffer_8h.html" target="_top" xlink:title=" ">
<polygon fill="none" stroke="black" points="1556,-224.5 1556,-243.5 1622,-243.5 1622,-224.5 1556,-224.5"/>
<text text-anchor="middle" x="1589" y="-231.5" font-family="Helvetica,sans-Serif" font-size="10.00">io/Buffer.h</text>
</a>
</g>
</g>
<!-- Node27&#45;&gt;Node31 -->
<g id="edge58" class="edge">
<title>Node27&#45;&gt;Node31</title>
<path fill="none" stroke="midnightblue" d="M1563.95,-280.08C1568.1,-272.61 1574.15,-261.72 1579.27,-252.52"/>
<polygon fill="midnightblue" stroke="midnightblue" points="1582.34,-254.19 1584.14,-243.75 1576.22,-250.79 1582.34,-254.19"/>
</g>
<!-- Node33 -->
<g id="node33" class="node">
<title>Node33</title>
<g id="a_node33"><a xlink:href="../../d0/dd8/_i_o_exception_8h.html" target="_top" xlink:title=" ">
<polygon fill="none" stroke="black" points="1777,-168.5 1777,-187.5 1873,-187.5 1873,-168.5 1777,-168.5"/>
<text text-anchor="middle" x="1825" y="-175.5" font-family="Helvetica,sans-Serif" font-size="10.00">io/IOException.h</text>
</a>
</g>
</g>
<!-- Node27&#45;&gt;Node33 -->
<g id="edge79" class="edge">
<title>Node27&#45;&gt;Node33</title>
<path fill="none" stroke="midnightblue" d="M1588.16,-280.44C1615.59,-272.1 1657.6,-258.58 1693,-244 1731.28,-228.23 1774.01,-206.37 1800.2,-192.46"/>
<polygon fill="midnightblue" stroke="midnightblue" points="1801.9,-195.52 1809.06,-187.71 1798.59,-189.35 1801.9,-195.52"/>
</g>
<!-- Node39 -->
<g id="node39" class="node">
<title>Node39</title>
<g id="a_node39"><a xlink:title=" ">
<polygon fill="none" stroke="#bfbfbf" points="1640,-224.5 1640,-243.5 1684,-243.5 1684,-224.5 1640,-224.5"/>
<text text-anchor="middle" x="1662" y="-231.5" font-family="Helvetica,sans-Serif" font-size="10.00">limits</text>
</a>
</g>
</g>
<!-- Node27&#45;&gt;Node39 -->
<g id="edge83" class="edge">
<title>Node27&#45;&gt;Node39</title>
<path fill="none" stroke="midnightblue" d="M1575.55,-280.32C1591.99,-271.7 1617.43,-258.36 1636.47,-248.39"/>
<polygon fill="midnightblue" stroke="midnightblue" points="1638.26,-251.4 1645.49,-243.65 1635.01,-245.2 1638.26,-251.4"/>
</g>
<!-- Node29 -->
<g id="node29" class="node">
<title>Node29</title>
<g id="a_node29"><a xlink:title=" ">
<polygon fill="none" stroke="#bfbfbf" points="1332.5,-112.5 1332.5,-131.5 1385.5,-131.5 1385.5,-112.5 1332.5,-112.5"/>
<text text-anchor="middle" x="1359" y="-119.5" font-family="Helvetica,sans-Serif" font-size="10.00">cstddef</text>
</a>
</g>
</g>
<!-- Node28&#45;&gt;Node29 -->
<g id="edge51" class="edge">
<title>Node28&#45;&gt;Node29</title>
<path fill="none" stroke="midnightblue" d="M1292.69,-168.32C1304.9,-159.98 1323.58,-147.21 1338,-137.35"/>
<polygon fill="midnightblue" stroke="midnightblue" points="1340.06,-140.19 1346.34,-131.65 1336.11,-134.41 1340.06,-140.19"/>
</g>
<!-- Node30&#45;&gt;Node3 -->
<g id="edge54" class="edge">
<title>Node30&#45;&gt;Node3</title>
<path fill="none" stroke="midnightblue" d="M1442.98,-168.08C1440.05,-155.48 1434.29,-131.79 1428,-112 1418.62,-82.49 1405.51,-48.98 1397.4,-28.94"/>
<polygon fill="midnightblue" stroke="midnightblue" points="1400.58,-27.48 1393.56,-19.54 1394.1,-30.12 1400.58,-27.48"/>
</g>
<!-- Node30&#45;&gt;Node9 -->
<g id="edge55" class="edge">
<title>Node30&#45;&gt;Node9</title>
<path fill="none" stroke="midnightblue" d="M1449.63,-168.22C1454.22,-159.28 1461.23,-144.94 1466,-132 1471.7,-116.55 1476.57,-98.46 1479.8,-85.29"/>
<polygon fill="midnightblue" stroke="midnightblue" points="1483.21,-86.09 1482.11,-75.56 1476.4,-84.48 1483.21,-86.09"/>
</g>
<!-- Node30&#45;&gt;Node12 -->
<g id="edge57" class="edge">
<title>Node30&#45;&gt;Node12</title>
<path fill="none" stroke="midnightblue" d="M1440.69,-168.49C1433.24,-154.64 1416.67,-127.22 1395,-112 1303.14,-47.47 1168.6,-23.09 1105.34,-14.81"/>
<polygon fill="midnightblue" stroke="midnightblue" points="1105.46,-11.3 1095.1,-13.53 1104.59,-18.24 1105.46,-11.3"/>
</g>
<!-- Node30&#45;&gt;Node29 -->
<g id="edge56" class="edge">
<title>Node30&#45;&gt;Node29</title>
<path fill="none" stroke="midnightblue" d="M1431.18,-168.32C1417.77,-159.9 1397.18,-146.97 1381.41,-137.07"/>
<polygon fill="midnightblue" stroke="midnightblue" points="1383.11,-134.01 1372.78,-131.65 1379.39,-139.94 1383.11,-134.01"/>
</g>
<!-- Node31&#45;&gt;Node6 -->
<g id="edge75" class="edge">
<title>Node31&#45;&gt;Node6</title>
<path fill="none" stroke="midnightblue" d="M1615.62,-224.42C1641.74,-215.4 1678.81,-200.77 1687,-188 1719.16,-137.84 1693.16,-62.69 1678.42,-28.75"/>
<polygon fill="midnightblue" stroke="midnightblue" points="1681.59,-27.28 1674.28,-19.62 1675.22,-30.17 1681.59,-27.28"/>
</g>
<!-- Node31&#45;&gt;Node9 -->
<g id="edge60" class="edge">
<title>Node31&#45;&gt;Node9</title>
<path fill="none" stroke="midnightblue" d="M1587.31,-224.3C1582.88,-203.27 1569.35,-148.67 1542,-112 1532.77,-99.62 1519.29,-88.89 1507.65,-81.01"/>
<polygon fill="midnightblue" stroke="midnightblue" points="1509.51,-78.04 1499.21,-75.56 1505.71,-83.92 1509.51,-78.04"/>
</g>
<!-- Node31&#45;&gt;Node12 -->
<g id="edge76" class="edge">
<title>Node31&#45;&gt;Node12</title>
<path fill="none" stroke="midnightblue" d="M1590.4,-224.48C1594.65,-195.22 1604.11,-98.29 1551,-56 1516.31,-28.38 1210.67,-15.68 1105.42,-12.1"/>
<polygon fill="midnightblue" stroke="midnightblue" points="1105.42,-8.6 1095.31,-11.77 1105.19,-15.6 1105.42,-8.6"/>
</g>
<!-- Node31&#45;&gt;Node25 -->
<g id="edge77" class="edge">
<title>Node31&#45;&gt;Node25</title>
<path fill="none" stroke="midnightblue" d="M1555.75,-229.76C1513.67,-224.78 1439.6,-213.06 1381,-188 1351.42,-175.35 1321.35,-153.16 1302.94,-138.27"/>
<polygon fill="midnightblue" stroke="midnightblue" points="1304.83,-135.29 1294.89,-131.62 1300.37,-140.69 1304.83,-135.29"/>
</g>
<!-- Node31&#45;&gt;Node28 -->
<g id="edge59" class="edge">
<title>Node31&#45;&gt;Node28</title>
<path fill="none" stroke="midnightblue" d="M1555.93,-227.22C1504.13,-218.17 1403.14,-200.52 1338.76,-189.27"/>
<polygon fill="midnightblue" stroke="midnightblue" points="1339.21,-185.79 1328.75,-187.52 1338,-192.69 1339.21,-185.79"/>
</g>
<!-- Node31&#45;&gt;Node30 -->
<g id="edge61" class="edge">
<title>Node31&#45;&gt;Node30</title>
<path fill="none" stroke="midnightblue" d="M1566.18,-224.44C1542.17,-215.44 1504.17,-201.19 1477.13,-191.05"/>
<polygon fill="midnightblue" stroke="midnightblue" points="1478.3,-187.75 1467.71,-187.52 1475.84,-194.3 1478.3,-187.75"/>
</g>
<!-- Node32 -->
<g id="node32" class="node">
<title>Node32</title>
<g id="a_node32"><a xlink:href="../../d5/d0b/_endianness_8h.html" target="_top" xlink:title=" ">
<polygon fill="none" stroke="black" points="1712.5,-56.5 1712.5,-75.5 1805.5,-75.5 1805.5,-56.5 1712.5,-56.5"/>
<text text-anchor="middle" x="1759" y="-63.5" font-family="Helvetica,sans-Serif" font-size="10.00">io/Endianness.h</text>
</a>
</g>
</g>
<!-- Node31&#45;&gt;Node32 -->
<g id="edge62" class="edge">
<title>Node31&#45;&gt;Node32</title>
<path fill="none" stroke="midnightblue" d="M1622.25,-225.2C1656.31,-216.58 1706.19,-202.08 1720,-188 1747.6,-159.87 1755.67,-112.11 1758.03,-85.79"/>
<polygon fill="midnightblue" stroke="midnightblue" points="1761.53,-85.87 1758.75,-75.65 1754.55,-85.38 1761.53,-85.87"/>
</g>
<!-- Node31&#45;&gt;Node33 -->
<g id="edge66" class="edge">
<title>Node31&#45;&gt;Node33</title>
<path fill="none" stroke="midnightblue" d="M1622.06,-225.43C1662.6,-216.16 1731.59,-200.37 1777.72,-189.82"/>
<polygon fill="midnightblue" stroke="midnightblue" points="1778.52,-193.23 1787.49,-187.58 1776.96,-186.4 1778.52,-193.23"/>
</g>
<!-- Node38 -->
<g id="node38" class="node">
<title>Node38</title>
<g id="a_node38"><a xlink:title=" ">
<polygon fill="none" stroke="#bfbfbf" points="1632.5,-168.5 1632.5,-187.5 1677.5,-187.5 1677.5,-168.5 1632.5,-168.5"/>
<text text-anchor="middle" x="1655" y="-175.5" font-family="Helvetica,sans-Serif" font-size="10.00">utility</text>
</a>
</g>
</g>
<!-- Node31&#45;&gt;Node38 -->
<g id="edge78" class="edge">
<title>Node31&#45;&gt;Node38</title>
<path fill="none" stroke="midnightblue" d="M1599.6,-224.32C1609.46,-216.26 1624.35,-204.08 1636.22,-194.37"/>
<polygon fill="midnightblue" stroke="midnightblue" points="1638.68,-196.88 1644.2,-187.83 1634.25,-191.46 1638.68,-196.88"/>
</g>
<!-- Node32&#45;&gt;Node6 -->
<g id="edge63" class="edge">
<title>Node32&#45;&gt;Node6</title>
<path fill="none" stroke="midnightblue" d="M1744.7,-56.32C1730.82,-47.9 1709.51,-34.97 1693.2,-25.07"/>
<polygon fill="midnightblue" stroke="midnightblue" points="1694.63,-21.85 1684.26,-19.65 1691,-27.83 1694.63,-21.85"/>
</g>
<!-- Node32&#45;&gt;Node12 -->
<g id="edge64" class="edge">
<title>Node32&#45;&gt;Node12</title>
<path fill="none" stroke="midnightblue" d="M1712.45,-61.35C1582.88,-51.2 1220.01,-22.76 1105.26,-13.76"/>
<polygon fill="midnightblue" stroke="midnightblue" points="1105.49,-10.27 1095.25,-12.98 1104.95,-17.25 1105.49,-10.27"/>
</g>
<!-- Node32&#45;&gt;Node13 -->
<g id="edge65" class="edge">
<title>Node32&#45;&gt;Node13</title>
<path fill="none" stroke="midnightblue" d="M1759,-56.08C1759,-49.01 1759,-38.86 1759,-29.99"/>
<polygon fill="midnightblue" stroke="midnightblue" points="1762.5,-29.75 1759,-19.75 1755.5,-29.75 1762.5,-29.75"/>
</g>
<!-- Node33&#45;&gt;Node3 -->
<g id="edge67" class="edge">
<title>Node33&#45;&gt;Node3</title>
<path fill="none" stroke="midnightblue" d="M1807.55,-168.49C1772.35,-151.27 1690.33,-110.97 1622,-76 1605.01,-67.3 1601.89,-62.66 1584,-56 1540.87,-39.95 1490.14,-28.43 1451.38,-21.06"/>
<polygon fill="midnightblue" stroke="midnightblue" points="1451.76,-17.57 1441.29,-19.18 1450.48,-24.45 1451.76,-17.57"/>
</g>
<!-- Node34 -->
<g id="node34" class="node">
<title>Node34</title>
<g id="a_node34"><a xlink:href="../../d7/d05/_rawspeed_exception_8h.html" target="_top" xlink:title=" ">
<polygon fill="none" stroke="black" points="1777,-112.5 1777,-131.5 1947,-131.5 1947,-112.5 1777,-112.5"/>
<text text-anchor="middle" x="1862" y="-119.5" font-family="Helvetica,sans-Serif" font-size="10.00">common/RawspeedException.h</text>
</a>
</g>
</g>
<!-- Node33&#45;&gt;Node34 -->
<g id="edge68" class="edge">
<title>Node33&#45;&gt;Node34</title>
<path fill="none" stroke="midnightblue" d="M1831.11,-168.08C1836.28,-160.53 1843.85,-149.49 1850.19,-140.23"/>
<polygon fill="midnightblue" stroke="midnightblue" points="1853.24,-141.98 1856,-131.75 1847.46,-138.02 1853.24,-141.98"/>
</g>
<!-- Node34&#45;&gt;Node3 -->
<g id="edge69" class="edge">
<title>Node34&#45;&gt;Node3</title>
<path fill="none" stroke="midnightblue" d="M1832.99,-112.41C1788.04,-99.26 1698.74,-73.81 1622,-56 1563.73,-42.48 1496.58,-29.76 1449.56,-21.32"/>
<polygon fill="midnightblue" stroke="midnightblue" points="1450.01,-17.84 1439.55,-19.53 1448.78,-24.73 1450.01,-17.84"/>
</g>
<!-- Node34&#45;&gt;Node9 -->
<g id="edge70" class="edge">
<title>Node34&#45;&gt;Node9</title>
<path fill="none" stroke="midnightblue" d="M1802.1,-112.44C1734.15,-102.74 1623.53,-86.93 1552.28,-76.75"/>
<polygon fill="midnightblue" stroke="midnightblue" points="1552.46,-73.24 1542.06,-75.29 1551.47,-80.17 1552.46,-73.24"/>
</g>
<!-- Node34&#45;&gt;Node23 -->
<g id="edge71" class="edge">
<title>Node34&#45;&gt;Node23</title>
<path fill="none" stroke="midnightblue" d="M1776.96,-114.49C1619.91,-102.46 1291.04,-77.27 1188.33,-69.4"/>
<polygon fill="midnightblue" stroke="midnightblue" points="1188.54,-65.91 1178.3,-68.63 1188,-72.88 1188.54,-65.91"/>
</g>
<!-- Node35 -->
<g id="node35" class="node">
<title>Node35</title>
<g id="a_node35"><a xlink:title=" ">
<polygon fill="none" stroke="#bfbfbf" points="1823.5,-56.5 1823.5,-75.5 1876.5,-75.5 1876.5,-56.5 1823.5,-56.5"/>
<text text-anchor="middle" x="1850" y="-63.5" font-family="Helvetica,sans-Serif" font-size="10.00">cstdarg</text>
</a>
</g>
</g>
<!-- Node34&#45;&gt;Node35 -->
<g id="edge72" class="edge">
<title>Node34&#45;&gt;Node35</title>
<path fill="none" stroke="midnightblue" d="M1860.02,-112.08C1858.43,-104.93 1856.14,-94.64 1854.15,-85.69"/>
<polygon fill="midnightblue" stroke="midnightblue" points="1857.53,-84.75 1851.94,-75.75 1850.7,-86.27 1857.53,-84.75"/>
</g>
<!-- Node36 -->
<g id="node36" class="node">
<title>Node36</title>
<g id="a_node36"><a xlink:title=" ">
<polygon fill="none" stroke="#bfbfbf" points="1895,-56.5 1895,-75.5 1941,-75.5 1941,-56.5 1895,-56.5"/>
<text text-anchor="middle" x="1918" y="-63.5" font-family="Helvetica,sans-Serif" font-size="10.00">cstdio</text>
</a>
</g>
</g>
<!-- Node34&#45;&gt;Node36 -->
<g id="edge73" class="edge">
<title>Node34&#45;&gt;Node36</title>
<path fill="none" stroke="midnightblue" d="M1871,-112.32C1879.19,-104.42 1891.51,-92.55 1901.47,-82.94"/>
<polygon fill="midnightblue" stroke="midnightblue" points="1904.07,-85.29 1908.84,-75.83 1899.21,-80.26 1904.07,-85.29"/>
</g>
<!-- Node37 -->
<g id="node37" class="node">
<title>Node37</title>
<g id="a_node37"><a xlink:title=" ">
<polygon fill="none" stroke="#bfbfbf" points="1959.5,-56.5 1959.5,-75.5 2024.5,-75.5 2024.5,-56.5 1959.5,-56.5"/>
<text text-anchor="middle" x="1992" y="-63.5" font-family="Helvetica,sans-Serif" font-size="10.00">stdexcept</text>
</a>
</g>
</g>
<!-- Node34&#45;&gt;Node37 -->
<g id="edge74" class="edge">
<title>Node34&#45;&gt;Node37</title>
<path fill="none" stroke="midnightblue" d="M1882.6,-112.44C1903.99,-103.56 1937.68,-89.56 1962.02,-79.45"/>
<polygon fill="midnightblue" stroke="midnightblue" points="1963.61,-82.58 1971.5,-75.52 1960.92,-76.12 1963.61,-82.58"/>
</g>
</g>
</svg>
