<?xml version="1.0" encoding="UTF-8" standalone="no"?>
<!DOCTYPE svg PUBLIC "-//W3C//DTD SVG 1.1//EN"
 "http://www.w3.org/Graphics/SVG/1.1/DTD/svg11.dtd">
<!-- Generated by graphviz version 2.43.0 (0)
 -->
<!-- Title: rawspeed::ieee_754_2008::BinaryN&lt; StorageWidth_, FractionWidth_, ExponentWidth_ &gt; Pages: 1 -->
<svg width="213pt" height="183pt"
 viewBox="0.00 0.00 212.50 183.00" xmlns="http://www.w3.org/2000/svg" xmlns:xlink="http://www.w3.org/1999/xlink">
<g id="graph0" class="graph" transform="scale(1 1) rotate(0) translate(4 179)">
<title>rawspeed::ieee_754_2008::BinaryN&lt; StorageWidth_, FractionWidth_, ExponentWidth_ &gt;</title>
<!-- Node1 -->
<g id="node1" class="node">
<title>Node1</title>
<g id="a_node1"><a xlink:title=" ">
<polygon fill="#bfbfbf" stroke="black" points="0,-0.5 0,-41.5 197,-41.5 197,-0.5 0,-0.5"/>
<text text-anchor="start" x="8" y="-29.5" font-family="Helvetica,sans-Serif" font-size="10.00">rawspeed::ieee_754</text>
<text text-anchor="start" x="8" y="-18.5" font-family="Helvetica,sans-Serif" font-size="10.00">_2008::BinaryN&lt; StorageWidth</text>
<text text-anchor="middle" x="98.5" y="-7.5" font-family="Helvetica,sans-Serif" font-size="10.00">_, FractionWidth_, ExponentWidth_ &gt;</text>
</a>
</g>
</g>
<!-- Node2 -->
<g id="node2" class="node">
<title>Node2</title>
<g id="a_node2"><a xlink:href="../../de/d73/classint32__t.html" target="_top" xlink:title=" ">
<polygon fill="none" stroke="black" points="38.5,-155.5 38.5,-174.5 88.5,-174.5 88.5,-155.5 38.5,-155.5"/>
<text text-anchor="middle" x="63.5" y="-162.5" font-family="Helvetica,sans-Serif" font-size="10.00">int32_t</text>
</a>
</g>
</g>
<!-- Node2&#45;&gt;Node1 -->
<g id="edge1" class="edge">
<title>Node2&#45;&gt;Node1</title>
<path fill="none" stroke="#9a32cd" stroke-dasharray="5,2" d="M67.5,-145.28C72.03,-124.4 79.79,-89.66 87.5,-60 89.05,-54.02 90.88,-47.54 92.58,-41.67"/>
<polygon fill="#9a32cd" stroke="#9a32cd" points="64.01,-144.82 65.33,-155.33 70.86,-146.29 64.01,-144.82"/>
<text text-anchor="middle" x="100" y="-96" font-family="Helvetica,sans-Serif" font-size="10.00"> Bias</text>
</g>
<!-- Node3 -->
<g id="node3" class="node">
<title>Node3</title>
<g id="a_node3"><a xlink:href="../../d3/d87/classuint32__t.html" target="_top" xlink:title=" ">
<polygon fill="none" stroke="black" points="106.5,-155.5 106.5,-174.5 162.5,-174.5 162.5,-155.5 106.5,-155.5"/>
<text text-anchor="middle" x="134.5" y="-162.5" font-family="Helvetica,sans-Serif" font-size="10.00">uint32_t</text>
</a>
</g>
</g>
<!-- Node3&#45;&gt;Node1 -->
<g id="edge2" class="edge">
<title>Node3&#45;&gt;Node1</title>
<path fill="none" stroke="#9a32cd" stroke-dasharray="5,2" d="M131.36,-145.15C127.67,-124.16 120.96,-89.33 112.5,-60 110.75,-53.92 108.5,-47.42 106.31,-41.54"/>
<polygon fill="#9a32cd" stroke="#9a32cd" points="127.95,-146 133.09,-155.27 134.85,-144.82 127.95,-146"/>
<text text-anchor="middle" x="167" y="-129" font-family="Helvetica,sans-Serif" font-size="10.00"> SignBitPos</text>
<text text-anchor="middle" x="167" y="-118" font-family="Helvetica,sans-Serif" font-size="10.00">StorageWidth</text>
<text text-anchor="middle" x="167" y="-107" font-family="Helvetica,sans-Serif" font-size="10.00">ExponentMax</text>
<text text-anchor="middle" x="167" y="-96" font-family="Helvetica,sans-Serif" font-size="10.00">FractionWidth</text>
<text text-anchor="middle" x="167" y="-85" font-family="Helvetica,sans-Serif" font-size="10.00">ExponentPos</text>
<text text-anchor="middle" x="167" y="-74" font-family="Helvetica,sans-Serif" font-size="10.00">Precision</text>
<text text-anchor="middle" x="167" y="-63" font-family="Helvetica,sans-Serif" font-size="10.00">ExponentWidth</text>
</g>
</g>
</svg>
