<?xml version="1.0" encoding="UTF-8" standalone="no"?>
<!DOCTYPE svg PUBLIC "-//W3C//DTD SVG 1.1//EN"
 "http://www.w3.org/Graphics/SVG/1.1/DTD/svg11.dtd">
<!-- Generated by graphviz version 2.43.0 (0)
 -->
<!-- Title: rawspeed::HuffmanTableVector Pages: 1 -->
<!--zoomable 286 -->
<svg id="main" version="1.1" xmlns="http://www.w3.org/2000/svg" xmlns:xlink="http://www.w3.org/1999/xlink" xml:space="preserve" onload="init(evt)">
<style type="text/css"><![CDATA[
.edge:hover path { stroke: red; }
.edge:hover polygon { stroke: red; fill: red; }
]]></style>
<script type="text/javascript"><![CDATA[
var edges = document.getElementsByTagName('g');
if (edges && edges.length) {
  for (var i=0;i<edges.length;i++) {
    if (edges[i].id.substr(0,4)=='edge') {
      edges[i].setAttribute('class','edge');
    }
  }
}
]]></script>
        <defs>
                <circle id="rim" cx="0" cy="0" r="7"/>
                <circle id="rim2" cx="0" cy="0" r="3.5"/>
                <g id="zoomPlus">
                        <use xlink:href="#rim" fill="#404040">
                                <set attributeName="fill" to="#808080" begin="zoomplus.mouseover" end="zoomplus.mouseout"/>
                        </use>
                        <path d="M-4,0h8M0,-4v8" fill="none" stroke="white" stroke-width="1.5" pointer-events="none"/>
                </g>
                <g id="zoomMin">
                        <use xlink:href="#rim" fill="#404040">
                                <set attributeName="fill" to="#808080" begin="zoomminus.mouseover" end="zoomminus.mouseout"/>
                        </use>
                        <path d="M-4,0h8" fill="none" stroke="white" stroke-width="1.5" pointer-events="none"/>
                </g>
                <g id="dirArrow">
                        <path fill="none" stroke="white" stroke-width="1.5" d="M0,-3.0v7 M-2.5,-0.5L0,-3.0L2.5,-0.5"/>
                </g>
               <g id="resetDef">
                       <use xlink:href="#rim2" fill="#404040">
                               <set attributeName="fill" to="#808080" begin="reset.mouseover" end="reset.mouseout"/>
                       </use>
               </g>
        </defs>

<script type="text/javascript">
var viewWidth = 976;
var viewHeight = 286;
var sectionId = 'dynsection-1';
</script>
<script xlink:href="../../svgpan.js"/>
<svg id="graph" class="graph">
<g id="viewport">
<title>rawspeed::HuffmanTableVector</title>
<!-- Node1 -->
<g id="node1" class="node">
<title>Node1</title>
<g id="a_node1"><a xlink:title=" ">
<polygon fill="#bfbfbf" stroke="black" points="800,-41.5 800,-60.5 968,-60.5 968,-41.5 800,-41.5"/>
<text text-anchor="middle" x="884" y="-48.5" font-family="Helvetica,sans-Serif" font-size="10.00">rawspeed::HuffmanTableVector</text>
</a>
</g>
</g>
<!-- Node2 -->
<g id="node2" class="node">
<title>Node2</title>
<g id="a_node2"><a xlink:href="../../d8/d1c/classrawspeed_1_1_abstract_huffman_table.html" target="_top" xlink:title=" ">
<polygon fill="none" stroke="black" points="611,-137 611,-167 763,-167 763,-137 611,-137"/>
<text text-anchor="start" x="619" y="-155" font-family="Helvetica,sans-Serif" font-size="10.00">rawspeed::AbstractHuffman</text>
<text text-anchor="middle" x="687" y="-144" font-family="Helvetica,sans-Serif" font-size="10.00">Table</text>
</a>
</g>
</g>
<!-- Node2&#45;&gt;Node1 -->
<g id="edge1" class="edge">
<title>Node2&#45;&gt;Node1</title>
<path fill="none" stroke="midnightblue" d="M726.23,-132.2C767.9,-110.61 832.87,-76.96 864.48,-60.59"/>
<polygon fill="midnightblue" stroke="midnightblue" points="724.46,-129.17 717.19,-136.88 727.68,-135.39 724.46,-129.17"/>
</g>
<!-- Node3 -->
<g id="node3" class="node">
<title>Node3</title>
<g id="a_node3"><a xlink:title=" ">
<polygon fill="none" stroke="#bfbfbf" points="388,-104.5 388,-123.5 434,-123.5 434,-104.5 388,-104.5"/>
<text text-anchor="middle" x="411" y="-111.5" font-family="Helvetica,sans-Serif" font-size="10.00">return</text>
</a>
</g>
</g>
<!-- Node3&#45;&gt;Node2 -->
<g id="edge2" class="edge">
<title>Node3&#45;&gt;Node2</title>
<path fill="none" stroke="#9a32cd" stroke-dasharray="5,2" d="M444.02,-117.74C480.23,-122.05 540.92,-129.49 593,-137 598.83,-137.84 604.85,-138.74 610.91,-139.67"/>
<polygon fill="#9a32cd" stroke="#9a32cd" points="444.39,-114.26 434.04,-116.56 443.56,-121.21 444.39,-114.26"/>
<text text-anchor="middle" x="549" y="-140" font-family="Helvetica,sans-Serif" font-size="10.00"> ret</text>
</g>
<!-- Node4 -->
<g id="node4" class="node">
<title>Node4</title>
<g id="a_node4"><a xlink:title=" ">
<polygon fill="none" stroke="#bfbfbf" points="348.5,-257.5 348.5,-276.5 473.5,-276.5 473.5,-257.5 348.5,-257.5"/>
<text text-anchor="middle" x="411" y="-264.5" font-family="Helvetica,sans-Serif" font-size="10.00">std::vector&lt; uint8_t &gt;</text>
</a>
</g>
</g>
<!-- Node4&#45;&gt;Node2 -->
<g id="edge3" class="edge">
<title>Node4&#45;&gt;Node2</title>
<path fill="none" stroke="#9a32cd" stroke-dasharray="5,2" d="M483.7,-264C518.15,-260.29 559.2,-252.42 593,-236 627.05,-219.46 657.78,-186.6 673.97,-167.24"/>
<polygon fill="#9a32cd" stroke="#9a32cd" points="483.31,-260.52 473.7,-264.98 484,-267.49 483.31,-260.52"/>
<text text-anchor="middle" x="549" y="-263" font-family="Helvetica,sans-Serif" font-size="10.00"> codeValues</text>
</g>
<!-- Node5 -->
<g id="node5" class="node">
<title>Node5</title>
<g id="a_node5"><a xlink:title=" ">
<polygon fill="none" stroke="#bfbfbf" points="137.5,-257.5 137.5,-276.5 187.5,-276.5 187.5,-257.5 137.5,-257.5"/>
<text text-anchor="middle" x="162.5" y="-264.5" font-family="Helvetica,sans-Serif" font-size="10.00">uint8_t</text>
</a>
</g>
</g>
<!-- Node5&#45;&gt;Node4 -->
<g id="edge4" class="edge">
<title>Node5&#45;&gt;Node4</title>
<path fill="none" stroke="#9a32cd" stroke-dasharray="5,2" d="M197.85,-267C236.74,-267 300.86,-267 348.45,-267"/>
<polygon fill="#9a32cd" stroke="#9a32cd" points="197.58,-263.5 187.58,-267 197.58,-270.5 197.58,-263.5"/>
<text text-anchor="middle" x="273" y="-270" font-family="Helvetica,sans-Serif" font-size="10.00"> elements</text>
</g>
<!-- Node6 -->
<g id="node6" class="node">
<title>Node6</title>
<g id="a_node6"><a xlink:title="STL class.">
<polygon fill="none" stroke="#bfbfbf" points="114,-120.5 114,-139.5 211,-139.5 211,-120.5 114,-120.5"/>
<text text-anchor="middle" x="162.5" y="-127.5" font-family="Helvetica,sans-Serif" font-size="10.00">std::vector&lt; T &gt;</text>
</a>
</g>
</g>
<!-- Node6&#45;&gt;Node4 -->
<g id="edge5" class="edge">
<title>Node6&#45;&gt;Node4</title>
<path fill="none" stroke="orange" stroke-dasharray="5,2" d="M182.27,-146.3C212.43,-171.68 274.48,-220.58 335,-248 343.32,-251.77 352.51,-254.88 361.52,-257.41"/>
<polygon fill="orange" stroke="orange" points="184.18,-143.33 174.3,-139.51 179.64,-148.66 184.18,-143.33"/>
<text text-anchor="middle" x="273" y="-241" font-family="Helvetica,sans-Serif" font-size="10.00"> &lt; uint8_t &gt;</text>
</g>
<!-- Node10 -->
<g id="node10" class="node">
<title>Node10</title>
<g id="a_node10"><a xlink:title=" ">
<polygon fill="none" stroke="#bfbfbf" points="349,-50 349,-80 473,-80 473,-50 349,-50"/>
<text text-anchor="start" x="357" y="-68" font-family="Helvetica,sans-Serif" font-size="10.00">std::vector&lt; unsigned</text>
<text text-anchor="middle" x="411" y="-57" font-family="Helvetica,sans-Serif" font-size="10.00"> int &gt;</text>
</a>
</g>
</g>
<!-- Node6&#45;&gt;Node10 -->
<g id="edge11" class="edge">
<title>Node6&#45;&gt;Node10</title>
<path fill="none" stroke="orange" stroke-dasharray="5,2" d="M221.19,-128.29C250.73,-125.8 286.74,-120.22 317,-108 326.15,-104.3 326.35,-99.76 335,-95 345.08,-89.46 356.39,-84.39 367.12,-80.06"/>
<polygon fill="orange" stroke="orange" points="220.74,-124.81 211.03,-129.05 221.26,-131.79 220.74,-124.81"/>
<text text-anchor="middle" x="273" y="-130" font-family="Helvetica,sans-Serif" font-size="10.00"> &lt; unsigned int &gt;</text>
</g>
<!-- Node13 -->
<g id="node13" class="node">
<title>Node13</title>
<g id="a_node13"><a xlink:title=" ">
<polygon fill="none" stroke="#bfbfbf" points="335,-0.5 335,-19.5 487,-19.5 487,-0.5 335,-0.5"/>
<text text-anchor="middle" x="411" y="-7.5" font-family="Helvetica,sans-Serif" font-size="10.00">std::vector&lt; CodeSymbol &gt;</text>
</a>
</g>
</g>
<!-- Node6&#45;&gt;Node13 -->
<g id="edge15" class="edge">
<title>Node6&#45;&gt;Node13</title>
<path fill="none" stroke="orange" stroke-dasharray="5,2" d="M187.21,-115.42C199.36,-108.46 214.59,-100.47 229,-95 266.6,-80.74 285.21,-98.62 317,-74 330.52,-63.53 322.28,-51.43 335,-40 345.33,-30.72 358.88,-24.13 371.62,-19.54"/>
<polygon fill="orange" stroke="orange" points="185.43,-112.41 178.59,-120.49 188.98,-118.44 185.43,-112.41"/>
<text text-anchor="middle" x="273" y="-98" font-family="Helvetica,sans-Serif" font-size="10.00"> &lt; CodeSymbol &gt;</text>
</g>
<!-- Node7 -->
<g id="node7" class="node">
<title>Node7</title>
<g id="a_node7"><a xlink:title=" ">
<polygon fill="none" stroke="#bfbfbf" points="0,-120.5 0,-139.5 29,-139.5 29,-120.5 0,-120.5"/>
<text text-anchor="middle" x="14.5" y="-127.5" font-family="Helvetica,sans-Serif" font-size="10.00">T</text>
</a>
</g>
</g>
<!-- Node7&#45;&gt;Node6 -->
<g id="edge6" class="edge">
<title>Node7&#45;&gt;Node6</title>
<path fill="none" stroke="#9a32cd" stroke-dasharray="5,2" d="M39.39,-130C59.54,-130 89.02,-130 113.96,-130"/>
<polygon fill="#9a32cd" stroke="#9a32cd" points="39.24,-126.5 29.24,-130 39.24,-133.5 39.24,-126.5"/>
<text text-anchor="middle" x="71.5" y="-133" font-family="Helvetica,sans-Serif" font-size="10.00"> elements</text>
</g>
<!-- Node8 -->
<g id="node8" class="node">
<title>Node8</title>
<g id="a_node8"><a xlink:title=" ">
<polygon fill="none" stroke="#bfbfbf" points="396.5,-219.5 396.5,-238.5 425.5,-238.5 425.5,-219.5 396.5,-219.5"/>
<text text-anchor="middle" x="411" y="-226.5" font-family="Helvetica,sans-Serif" font-size="10.00">int</text>
</a>
</g>
</g>
<!-- Node8&#45;&gt;Node2 -->
<g id="edge7" class="edge">
<title>Node8&#45;&gt;Node2</title>
<path fill="none" stroke="#9a32cd" stroke-dasharray="5,2" d="M435.76,-228.06C470.94,-226.08 538.59,-220.07 593,-202 618.4,-193.56 645.08,-178.49 663.31,-167.09"/>
<polygon fill="#9a32cd" stroke="#9a32cd" points="435.35,-224.57 425.54,-228.56 435.7,-231.56 435.35,-224.57"/>
<text text-anchor="middle" x="549" y="-224" font-family="Helvetica,sans-Serif" font-size="10.00"> len</text>
</g>
<!-- Node9 -->
<g id="node9" class="node">
<title>Node9</title>
<g id="a_node9"><a xlink:title=" ">
<polygon fill="none" stroke="#bfbfbf" points="392,-180.5 392,-199.5 430,-199.5 430,-180.5 392,-180.5"/>
<text text-anchor="middle" x="411" y="-187.5" font-family="Helvetica,sans-Serif" font-size="10.00">bool</text>
</a>
</g>
</g>
<!-- Node9&#45;&gt;Node2 -->
<g id="edge8" class="edge">
<title>Node9&#45;&gt;Node2</title>
<path fill="none" stroke="#9a32cd" stroke-dasharray="5,2" d="M440.49,-186.05C480.43,-180.51 554.5,-170.24 610.87,-162.42"/>
<polygon fill="#9a32cd" stroke="#9a32cd" points="439.83,-182.61 430.4,-187.45 440.79,-189.54 439.83,-182.61"/>
<text text-anchor="middle" x="549" y="-190" font-family="Helvetica,sans-Serif" font-size="10.00"> fullDecode</text>
<text text-anchor="middle" x="549" y="-179" font-family="Helvetica,sans-Serif" font-size="10.00">fixDNGBug16</text>
</g>
<!-- Node10&#45;&gt;Node1 -->
<g id="edge16" class="edge">
<title>Node10&#45;&gt;Node1</title>
<path fill="none" stroke="#9a32cd" stroke-dasharray="5,2" d="M483.16,-62.88C568.09,-60.36 709.88,-56.15 799.8,-53.47"/>
<polygon fill="#9a32cd" stroke="#9a32cd" points="482.98,-59.39 473.09,-63.18 483.19,-66.39 482.98,-59.39"/>
<text text-anchor="middle" x="687" y="-62" font-family="Helvetica,sans-Serif" font-size="10.00"> extrCodeIdForLen</text>
</g>
<!-- Node10&#45;&gt;Node2 -->
<g id="edge9" class="edge">
<title>Node10&#45;&gt;Node2</title>
<path fill="none" stroke="#9a32cd" stroke-dasharray="5,2" d="M482.92,-79.51C516.67,-87.21 557.36,-97.64 593,-110 614.76,-117.55 638.4,-128.26 656.4,-136.98"/>
<polygon fill="#9a32cd" stroke="#9a32cd" points="483.66,-76.09 473.13,-77.31 482.12,-82.92 483.66,-76.09"/>
<text text-anchor="middle" x="549" y="-113" font-family="Helvetica,sans-Serif" font-size="10.00"> nCodesPerLength</text>
</g>
<!-- Node11 -->
<g id="node11" class="node">
<title>Node11</title>
<g id="a_node11"><a xlink:title=" ">
<polygon fill="none" stroke="#bfbfbf" points="132,-52.5 132,-71.5 193,-71.5 193,-52.5 132,-52.5"/>
<text text-anchor="middle" x="162.5" y="-59.5" font-family="Helvetica,sans-Serif" font-size="10.00">unsigned</text>
</a>
</g>
</g>
<!-- Node11&#45;&gt;Node10 -->
<g id="edge10" class="edge">
<title>Node11&#45;&gt;Node10</title>
<path fill="none" stroke="#9a32cd" stroke-dasharray="5,2" d="M203.6,-62.1C234.57,-62.21 278.5,-62.46 317,-63 327.33,-63.14 338.31,-63.34 348.97,-63.56"/>
<polygon fill="#9a32cd" stroke="#9a32cd" points="203.23,-58.6 193.21,-62.06 203.2,-65.6 203.23,-58.6"/>
<text text-anchor="middle" x="273" y="-66" font-family="Helvetica,sans-Serif" font-size="10.00"> elements</text>
</g>
<!-- Node12 -->
<g id="node12" class="node">
<title>Node12</title>
<g id="a_node12"><a xlink:title=" ">
<polygon fill="none" stroke="#bfbfbf" points="392,-142.5 392,-161.5 430,-161.5 430,-142.5 392,-142.5"/>
<text text-anchor="middle" x="411" y="-149.5" font-family="Helvetica,sans-Serif" font-size="10.00">auto</text>
</a>
</g>
</g>
<!-- Node12&#45;&gt;Node2 -->
<g id="edge12" class="edge">
<title>Node12&#45;&gt;Node2</title>
<path fill="none" stroke="#9a32cd" stroke-dasharray="5,2" d="M440.49,-152C480.43,-152 554.5,-152 610.87,-152"/>
<polygon fill="#9a32cd" stroke="#9a32cd" points="440.4,-148.5 430.4,-152 440.4,-155.5 440.4,-148.5"/>
<text text-anchor="middle" x="549" y="-155" font-family="Helvetica,sans-Serif" font-size="10.00"> ret</text>
</g>
<!-- Node13&#45;&gt;Node1 -->
<g id="edge13" class="edge">
<title>Node13&#45;&gt;Node1</title>
<path fill="none" stroke="#9a32cd" stroke-dasharray="5,2" d="M497.57,-17.17C568.65,-23.15 672.42,-31.98 763,-40 774.88,-41.05 787.42,-42.18 799.73,-43.3"/>
<polygon fill="#9a32cd" stroke="#9a32cd" points="497.59,-13.65 487.33,-16.3 497,-20.63 497.59,-13.65"/>
<text text-anchor="middle" x="687" y="-43" font-family="Helvetica,sans-Serif" font-size="10.00"> symbols</text>
</g>
<!-- Node14 -->
<g id="node14" class="node">
<title>Node14</title>
<g id="a_node14"><a xlink:title=" ">
<polygon fill="none" stroke="#bfbfbf" points="123.5,-0.5 123.5,-19.5 201.5,-19.5 201.5,-0.5 123.5,-0.5"/>
<text text-anchor="middle" x="162.5" y="-7.5" font-family="Helvetica,sans-Serif" font-size="10.00">CodeSymbol</text>
</a>
</g>
</g>
<!-- Node14&#45;&gt;Node13 -->
<g id="edge14" class="edge">
<title>Node14&#45;&gt;Node13</title>
<path fill="none" stroke="#9a32cd" stroke-dasharray="5,2" d="M212.17,-10C247.16,-10 295,-10 334.87,-10"/>
<polygon fill="#9a32cd" stroke="#9a32cd" points="211.75,-6.5 201.75,-10 211.75,-13.5 211.75,-6.5"/>
<text text-anchor="middle" x="273" y="-13" font-family="Helvetica,sans-Serif" font-size="10.00"> elements</text>
</g>
</g>
</svg>
        <g id="navigator" transform="translate(0 0)" fill="#404254">
                <rect fill="#f2f5e9" fill-opacity="0.5" stroke="#606060" stroke-width=".5" x="0" y="0" width="60" height="60"/>
                <use id="zoomplus" xlink:href="#zoomPlus" x="17" y="9" onmousedown="handleZoom(evt,'in')"/>
                <use id="zoomminus" xlink:href="#zoomMin" x="42" y="9" onmousedown="handleZoom(evt,'out')"/>
                <use id="reset" xlink:href="#resetDef" x="30" y="36" onmousedown="handleReset()"/>
                <g id="arrowUp" xlink:href="#dirArrow" transform="translate(30 24)" onmousedown="handlePan(0,-1)">
                  <use xlink:href="#rim" fill="#404040">
                        <set attributeName="fill" to="#808080" begin="arrowUp.mouseover" end="arrowUp.mouseout"/>
                  </use>
                  <path fill="none" stroke="white" stroke-width="1.5" d="M0,-3.0v7 M-2.5,-0.5L0,-3.0L2.5,-0.5"/>
                </g>
                <g id="arrowRight" xlink:href="#dirArrow" transform="rotate(90) translate(36 -43)" onmousedown="handlePan(1,0)">
                  <use xlink:href="#rim" fill="#404040">
                        <set attributeName="fill" to="#808080" begin="arrowRight.mouseover" end="arrowRight.mouseout"/>
                  </use>
                  <path fill="none" stroke="white" stroke-width="1.5" d="M0,-3.0v7 M-2.5,-0.5L0,-3.0L2.5,-0.5"/>
                </g>
                <g id="arrowDown" xlink:href="#dirArrow" transform="rotate(180) translate(-30 -48)" onmousedown="handlePan(0,1)">
                  <use xlink:href="#rim" fill="#404040">
                        <set attributeName="fill" to="#808080" begin="arrowDown.mouseover" end="arrowDown.mouseout"/>
                  </use>
                  <path fill="none" stroke="white" stroke-width="1.5" d="M0,-3.0v7 M-2.5,-0.5L0,-3.0L2.5,-0.5"/>
                </g>
                <g id="arrowLeft" xlink:href="#dirArrow" transform="rotate(270) translate(-36 17)" onmousedown="handlePan(-1,0)">
                  <use xlink:href="#rim" fill="#404040">
                        <set attributeName="fill" to="#808080" begin="arrowLeft.mouseover" end="arrowLeft.mouseout"/>
                  </use>
                  <path fill="none" stroke="white" stroke-width="1.5" d="M0,-3.0v7 M-2.5,-0.5L0,-3.0L2.5,-0.5"/>
                </g>
        </g>
        <svg viewBox="0 0 15 15" width="100%" height="30px" preserveAspectRatio="xMaxYMin meet">
         <g id="arrow_out" transform="scale(0.3 0.3)">
          <a xlink:href="classrawspeed_1_1_huffman_table_vector__coll__graph_org.svg" target="_base">
           <rect id="button" ry="5" rx="5" y="6" x="6" height="38" width="38"
                fill="#f2f5e9" fill-opacity="0.5" stroke="#606060" stroke-width="1.0"/>
           <path id="arrow"
             d="M 11.500037,31.436501 C 11.940474,20.09759 22.043105,11.32322 32.158766,21.979434 L 37.068811,17.246167 C 37.068811,17.246167 37.088388,32 37.088388,32 L 22.160133,31.978069 C 22.160133,31.978069 26.997745,27.140456 26.997745,27.140456 C 18.528582,18.264221 13.291696,25.230495 11.500037,31.436501 z"
             style="fill:#404040;"/>
          </a>
         </g>
        </svg>
</svg>
