<?xml version="1.0" encoding="UTF-8" standalone="no"?>
<!DOCTYPE svg PUBLIC "-//W3C//DTD SVG 1.1//EN"
 "http://www.w3.org/Graphics/SVG/1.1/DTD/svg11.dtd">
<!-- Generated by graphviz version 2.43.0 (0)
 -->
<!-- Title: rawspeed::HuffmanTableVector Pages: 1 -->
<!--zoomable 287 -->
<svg id="main" version="1.1" xmlns="http://www.w3.org/2000/svg" xmlns:xlink="http://www.w3.org/1999/xlink" xml:space="preserve" onload="init(evt)">
<style type="text/css"><![CDATA[
.edge:hover path { stroke: red; }
.edge:hover polygon { stroke: red; fill: red; }
]]></style>
<script type="text/javascript"><![CDATA[
var edges = document.getElementsByTagName('g');
if (edges && edges.length) {
  for (var i=0;i<edges.length;i++) {
    if (edges[i].id.substr(0,4)=='edge') {
      edges[i].setAttribute('class','edge');
    }
  }
}
]]></script>
        <defs>
                <circle id="rim" cx="0" cy="0" r="7"/>
                <circle id="rim2" cx="0" cy="0" r="3.5"/>
                <g id="zoomPlus">
                        <use xlink:href="#rim" fill="#404040">
                                <set attributeName="fill" to="#808080" begin="zoomplus.mouseover" end="zoomplus.mouseout"/>
                        </use>
                        <path d="M-4,0h8M0,-4v8" fill="none" stroke="white" stroke-width="1.5" pointer-events="none"/>
                </g>
                <g id="zoomMin">
                        <use xlink:href="#rim" fill="#404040">
                                <set attributeName="fill" to="#808080" begin="zoomminus.mouseover" end="zoomminus.mouseout"/>
                        </use>
                        <path d="M-4,0h8" fill="none" stroke="white" stroke-width="1.5" pointer-events="none"/>
                </g>
                <g id="dirArrow">
                        <path fill="none" stroke="white" stroke-width="1.5" d="M0,-3.0v7 M-2.5,-0.5L0,-3.0L2.5,-0.5"/>
                </g>
               <g id="resetDef">
                       <use xlink:href="#rim2" fill="#404040">
                               <set attributeName="fill" to="#808080" begin="reset.mouseover" end="reset.mouseout"/>
                       </use>
               </g>
        </defs>

<script type="text/javascript">
var viewWidth = 976;
var viewHeight = 287;
var sectionId = 'dynsection-1';
</script>
<script xlink:href="../../svgpan.js"/>
<svg id="graph" class="graph">
<g id="viewport">
<title>rawspeed::HuffmanTableVector</title>
<!-- Node1 -->
<g id="node1" class="node">
<title>Node1</title>
<g id="a_node1"><a xlink:title=" ">
<polygon fill="#bfbfbf" stroke="black" points="800,-114 800,-133 968,-133 968,-114 800,-114"/>
<text text-anchor="middle" x="884" y="-121" font-family="Helvetica,sans-Serif" font-size="10.00">rawspeed::HuffmanTableVector</text>
</a>
</g>
</g>
<!-- Node2 -->
<g id="node2" class="node">
<title>Node2</title>
<g id="a_node2"><a xlink:href="../../d8/d1c/classrawspeed_1_1_abstract_huffman_table.html" target="_top" xlink:title=" ">
<polygon fill="none" stroke="black" points="611,-108.5 611,-138.5 763,-138.5 763,-108.5 611,-108.5"/>
<text text-anchor="start" x="619" y="-126.5" font-family="Helvetica,sans-Serif" font-size="10.00">rawspeed::AbstractHuffman</text>
<text text-anchor="middle" x="687" y="-115.5" font-family="Helvetica,sans-Serif" font-size="10.00">Table</text>
</a>
</g>
</g>
<!-- Node2&#45;&gt;Node1 -->
<g id="edge1" class="edge">
<title>Node2&#45;&gt;Node1</title>
<path fill="none" stroke="midnightblue" d="M773.35,-123.5C782.13,-123.5 791.05,-123.5 799.82,-123.5"/>
<polygon fill="midnightblue" stroke="midnightblue" points="773.11,-120 763.11,-123.5 773.11,-127 773.11,-120"/>
</g>
<!-- Node3 -->
<g id="node3" class="node">
<title>Node3</title>
<g id="a_node3"><a xlink:title=" ">
<polygon fill="none" stroke="#bfbfbf" points="388,-173 388,-192 434,-192 434,-173 388,-173"/>
<text text-anchor="middle" x="411" y="-180" font-family="Helvetica,sans-Serif" font-size="10.00">return</text>
</a>
</g>
</g>
<!-- Node3&#45;&gt;Node2 -->
<g id="edge2" class="edge">
<title>Node3&#45;&gt;Node2</title>
<path fill="none" stroke="#9a32cd" stroke-dasharray="5,2" d="M444.21,-178.2C480.6,-173.07 541.45,-163.63 593,-151.5 608.43,-147.87 625.07,-143.13 639.94,-138.59"/>
<polygon fill="#9a32cd" stroke="#9a32cd" points="443.61,-174.75 434.19,-179.6 444.57,-181.69 443.61,-174.75"/>
<text text-anchor="middle" x="549" y="-170.5" font-family="Helvetica,sans-Serif" font-size="10.00"> ret</text>
</g>
<!-- Node4 -->
<g id="node4" class="node">
<title>Node4</title>
<g id="a_node4"><a xlink:title=" ">
<polygon fill="none" stroke="#bfbfbf" points="348.5,-135 348.5,-154 473.5,-154 473.5,-135 348.5,-135"/>
<text text-anchor="middle" x="411" y="-142" font-family="Helvetica,sans-Serif" font-size="10.00">std::vector&lt; uint8_t &gt;</text>
</a>
</g>
</g>
<!-- Node4&#45;&gt;Node2 -->
<g id="edge3" class="edge">
<title>Node4&#45;&gt;Node2</title>
<path fill="none" stroke="#9a32cd" stroke-dasharray="5,2" d="M484.08,-138.98C523.17,-135.98 571.44,-132.28 610.98,-129.25"/>
<polygon fill="#9a32cd" stroke="#9a32cd" points="483.54,-135.51 473.83,-139.76 484.07,-142.49 483.54,-135.51"/>
<text text-anchor="middle" x="549" y="-139.5" font-family="Helvetica,sans-Serif" font-size="10.00"> codeValues</text>
</g>
<!-- Node5 -->
<g id="node5" class="node">
<title>Node5</title>
<g id="a_node5"><a xlink:title=" ">
<polygon fill="none" stroke="#bfbfbf" points="137.5,-221 137.5,-240 187.5,-240 187.5,-221 137.5,-221"/>
<text text-anchor="middle" x="162.5" y="-228" font-family="Helvetica,sans-Serif" font-size="10.00">uint8_t</text>
</a>
</g>
</g>
<!-- Node5&#45;&gt;Node4 -->
<g id="edge4" class="edge">
<title>Node5&#45;&gt;Node4</title>
<path fill="none" stroke="#9a32cd" stroke-dasharray="5,2" d="M197.96,-234.78C231.83,-237.06 283.2,-235.08 317,-208.5 333.93,-195.19 318.79,-177.69 335,-163.5 339.35,-159.69 344.35,-156.63 349.66,-154.17"/>
<polygon fill="#9a32cd" stroke="#9a32cd" points="197.89,-231.26 187.63,-233.92 197.3,-238.24 197.89,-231.26"/>
<text text-anchor="middle" x="273" y="-237.5" font-family="Helvetica,sans-Serif" font-size="10.00"> elements</text>
</g>
<!-- Node6 -->
<g id="node6" class="node">
<title>Node6</title>
<g id="a_node6"><a xlink:title="STL class.">
<polygon fill="none" stroke="#bfbfbf" points="114,-153 114,-172 211,-172 211,-153 114,-153"/>
<text text-anchor="middle" x="162.5" y="-160" font-family="Helvetica,sans-Serif" font-size="10.00">std::vector&lt; T &gt;</text>
</a>
</g>
</g>
<!-- Node6&#45;&gt;Node4 -->
<g id="edge5" class="edge">
<title>Node6&#45;&gt;Node4</title>
<path fill="none" stroke="orange" stroke-dasharray="5,2" d="M221.44,-158.27C259.52,-155.49 309.29,-151.85 348.14,-149.02"/>
<polygon fill="orange" stroke="orange" points="220.75,-154.81 211.03,-159.03 221.26,-161.79 220.75,-154.81"/>
<text text-anchor="middle" x="273" y="-160.5" font-family="Helvetica,sans-Serif" font-size="10.00"> &lt; uint8_t &gt;</text>
</g>
<!-- Node10 -->
<g id="node10" class="node">
<title>Node10</title>
<g id="a_node10"><a xlink:title=" ">
<polygon fill="none" stroke="#bfbfbf" points="349,-0.5 349,-30.5 473,-30.5 473,-0.5 349,-0.5"/>
<text text-anchor="start" x="357" y="-18.5" font-family="Helvetica,sans-Serif" font-size="10.00">std::vector&lt; unsigned</text>
<text text-anchor="middle" x="411" y="-7.5" font-family="Helvetica,sans-Serif" font-size="10.00"> int &gt;</text>
</a>
</g>
</g>
<!-- Node6&#45;&gt;Node10 -->
<g id="edge11" class="edge">
<title>Node6&#45;&gt;Node10</title>
<path fill="none" stroke="orange" stroke-dasharray="5,2" d="M196.66,-148.87C230.17,-133.82 281.87,-106.95 317,-71.5 328.21,-60.18 322.64,-50.56 335,-40.5 339.79,-36.6 345.21,-33.3 350.9,-30.51"/>
<polygon fill="orange" stroke="orange" points="195.05,-145.75 187.3,-152.98 197.87,-152.16 195.05,-145.75"/>
<text text-anchor="middle" x="273" y="-134.5" font-family="Helvetica,sans-Serif" font-size="10.00"> &lt; unsigned int &gt;</text>
</g>
<!-- Node12 -->
<g id="node12" class="node">
<title>Node12</title>
<g id="a_node12"><a xlink:title=" ">
<polygon fill="none" stroke="#bfbfbf" points="335,-249 335,-268 487,-268 487,-249 335,-249"/>
<text text-anchor="middle" x="411" y="-256" font-family="Helvetica,sans-Serif" font-size="10.00">std::vector&lt; CodeSymbol &gt;</text>
</a>
</g>
</g>
<!-- Node6&#45;&gt;Node12 -->
<g id="edge15" class="edge">
<title>Node6&#45;&gt;Node12</title>
<path fill="none" stroke="orange" stroke-dasharray="5,2" d="M221.39,-172.26C261.67,-179.51 309.46,-189.19 317,-195.5 333.2,-209.06 319.05,-225.64 335,-239.5 339.46,-243.38 344.61,-246.48 350.06,-248.97"/>
<polygon fill="orange" stroke="orange" points="221.79,-168.78 211.33,-170.48 220.57,-175.67 221.79,-168.78"/>
<text text-anchor="middle" x="273" y="-198.5" font-family="Helvetica,sans-Serif" font-size="10.00"> &lt; CodeSymbol &gt;</text>
</g>
<!-- Node7 -->
<g id="node7" class="node">
<title>Node7</title>
<g id="a_node7"><a xlink:title=" ">
<polygon fill="none" stroke="#bfbfbf" points="0,-153 0,-172 29,-172 29,-153 0,-153"/>
<text text-anchor="middle" x="14.5" y="-160" font-family="Helvetica,sans-Serif" font-size="10.00">T</text>
</a>
</g>
</g>
<!-- Node7&#45;&gt;Node6 -->
<g id="edge6" class="edge">
<title>Node7&#45;&gt;Node6</title>
<path fill="none" stroke="#9a32cd" stroke-dasharray="5,2" d="M39.39,-162.5C59.54,-162.5 89.02,-162.5 113.96,-162.5"/>
<polygon fill="#9a32cd" stroke="#9a32cd" points="39.24,-159 29.24,-162.5 39.24,-166 39.24,-159"/>
<text text-anchor="middle" x="71.5" y="-165.5" font-family="Helvetica,sans-Serif" font-size="10.00"> elements</text>
</g>
<!-- Node8 -->
<g id="node8" class="node">
<title>Node8</title>
<g id="a_node8"><a xlink:title=" ">
<polygon fill="none" stroke="#bfbfbf" points="148,-62 148,-81 177,-81 177,-62 148,-62"/>
<text text-anchor="middle" x="162.5" y="-69" font-family="Helvetica,sans-Serif" font-size="10.00">int</text>
</a>
</g>
</g>
<!-- Node8&#45;&gt;Node2 -->
<g id="edge7" class="edge">
<title>Node8&#45;&gt;Node2</title>
<path fill="none" stroke="#9a32cd" stroke-dasharray="5,2" d="M187.39,-73.88C261.69,-81.27 490.91,-104.08 610.94,-116.03"/>
<polygon fill="#9a32cd" stroke="#9a32cd" points="187.5,-70.37 177.21,-72.86 186.81,-77.34 187.5,-70.37"/>
<text text-anchor="middle" x="411" y="-106.5" font-family="Helvetica,sans-Serif" font-size="10.00"> len</text>
</g>
<!-- Node8&#45;&gt;Node10 -->
<g id="edge10" class="edge">
<title>Node8&#45;&gt;Node10</title>
<path fill="none" stroke="#9a32cd" stroke-dasharray="5,2" d="M186.91,-66.18C223.75,-57.81 296.44,-41.3 348.85,-29.39"/>
<polygon fill="#9a32cd" stroke="#9a32cd" points="186.08,-62.78 177.1,-68.41 187.63,-69.61 186.08,-62.78"/>
<text text-anchor="middle" x="273" y="-59.5" font-family="Helvetica,sans-Serif" font-size="10.00"> elements</text>
</g>
<!-- Node9 -->
<g id="node9" class="node">
<title>Node9</title>
<g id="a_node9"><a xlink:title=" ">
<polygon fill="none" stroke="#bfbfbf" points="392,-211 392,-230 430,-230 430,-211 392,-211"/>
<text text-anchor="middle" x="411" y="-218" font-family="Helvetica,sans-Serif" font-size="10.00">bool</text>
</a>
</g>
</g>
<!-- Node9&#45;&gt;Node2 -->
<g id="edge8" class="edge">
<title>Node9&#45;&gt;Node2</title>
<path fill="none" stroke="#9a32cd" stroke-dasharray="5,2" d="M440.45,-217.71C476.9,-213.43 541.51,-203.43 593,-182.5 620.46,-171.34 648.76,-152.06 666.82,-138.59"/>
<polygon fill="#9a32cd" stroke="#9a32cd" points="439.65,-214.28 430.09,-218.86 440.42,-221.24 439.65,-214.28"/>
<text text-anchor="middle" x="549" y="-220.5" font-family="Helvetica,sans-Serif" font-size="10.00"> fullDecode</text>
<text text-anchor="middle" x="549" y="-209.5" font-family="Helvetica,sans-Serif" font-size="10.00">fixDNGBug16</text>
</g>
<!-- Node10&#45;&gt;Node1 -->
<g id="edge16" class="edge">
<title>Node10&#45;&gt;Node1</title>
<path fill="none" stroke="#9a32cd" stroke-dasharray="5,2" d="M483.42,-15.54C516.94,-16.65 557.29,-19.57 593,-26.5 696.19,-46.53 813.24,-93.6 860.98,-113.9"/>
<polygon fill="#9a32cd" stroke="#9a32cd" points="483.34,-12.04 473.25,-15.25 483.14,-19.03 483.34,-12.04"/>
<text text-anchor="middle" x="687" y="-77.5" font-family="Helvetica,sans-Serif" font-size="10.00"> extrCodeIdForLen</text>
</g>
<!-- Node10&#45;&gt;Node2 -->
<g id="edge9" class="edge">
<title>Node10&#45;&gt;Node2</title>
<path fill="none" stroke="#9a32cd" stroke-dasharray="5,2" d="M483.29,-20.83C517.65,-25.38 558.73,-33.83 593,-49.5 624.52,-63.92 654.72,-91.28 671.76,-108.39"/>
<polygon fill="#9a32cd" stroke="#9a32cd" points="483.68,-17.35 473.33,-19.59 482.82,-24.29 483.68,-17.35"/>
<text text-anchor="middle" x="549" y="-52.5" font-family="Helvetica,sans-Serif" font-size="10.00"> nCodesPerLength</text>
</g>
<!-- Node11 -->
<g id="node11" class="node">
<title>Node11</title>
<g id="a_node11"><a xlink:title=" ">
<polygon fill="none" stroke="#bfbfbf" points="392,-50 392,-69 430,-69 430,-50 392,-50"/>
<text text-anchor="middle" x="411" y="-57" font-family="Helvetica,sans-Serif" font-size="10.00">auto</text>
</a>
</g>
</g>
<!-- Node11&#45;&gt;Node2 -->
<g id="edge12" class="edge">
<title>Node11&#45;&gt;Node2</title>
<path fill="none" stroke="#9a32cd" stroke-dasharray="5,2" d="M440.35,-60.02C476.45,-61.32 540.43,-65.71 593,-80.5 616.29,-87.05 641.08,-98.78 659.2,-108.33"/>
<polygon fill="#9a32cd" stroke="#9a32cd" points="440.19,-56.52 430.09,-59.71 439.98,-63.51 440.19,-56.52"/>
<text text-anchor="middle" x="549" y="-83.5" font-family="Helvetica,sans-Serif" font-size="10.00"> ret</text>
</g>
<!-- Node12&#45;&gt;Node1 -->
<g id="edge13" class="edge">
<title>Node12&#45;&gt;Node1</title>
<path fill="none" stroke="#9a32cd" stroke-dasharray="5,2" d="M497.3,-250.11C527.78,-246.1 562.2,-240.4 593,-232.5 697.2,-205.77 815.59,-154.28 862.4,-133.03"/>
<polygon fill="#9a32cd" stroke="#9a32cd" points="496.61,-246.67 487.13,-251.41 497.49,-253.62 496.61,-246.67"/>
<text text-anchor="middle" x="687" y="-229.5" font-family="Helvetica,sans-Serif" font-size="10.00"> symbols</text>
</g>
<!-- Node13 -->
<g id="node13" class="node">
<title>Node13</title>
<g id="a_node13"><a xlink:title=" ">
<polygon fill="none" stroke="#bfbfbf" points="123.5,-259 123.5,-278 201.5,-278 201.5,-259 123.5,-259"/>
<text text-anchor="middle" x="162.5" y="-266" font-family="Helvetica,sans-Serif" font-size="10.00">CodeSymbol</text>
</a>
</g>
</g>
<!-- Node13&#45;&gt;Node12 -->
<g id="edge14" class="edge">
<title>Node13&#45;&gt;Node12</title>
<path fill="none" stroke="#9a32cd" stroke-dasharray="5,2" d="M212.17,-266.53C247.16,-265.11 295,-263.17 334.87,-261.55"/>
<polygon fill="#9a32cd" stroke="#9a32cd" points="211.6,-263.05 201.75,-266.95 211.88,-270.04 211.6,-263.05"/>
<text text-anchor="middle" x="273" y="-268.5" font-family="Helvetica,sans-Serif" font-size="10.00"> elements</text>
</g>
</g>
</svg>
        <g id="navigator" transform="translate(0 0)" fill="#404254">
                <rect fill="#f2f5e9" fill-opacity="0.5" stroke="#606060" stroke-width=".5" x="0" y="0" width="60" height="60"/>
                <use id="zoomplus" xlink:href="#zoomPlus" x="17" y="9" onmousedown="handleZoom(evt,'in')"/>
                <use id="zoomminus" xlink:href="#zoomMin" x="42" y="9" onmousedown="handleZoom(evt,'out')"/>
                <use id="reset" xlink:href="#resetDef" x="30" y="36" onmousedown="handleReset()"/>
                <g id="arrowUp" xlink:href="#dirArrow" transform="translate(30 24)" onmousedown="handlePan(0,-1)">
                  <use xlink:href="#rim" fill="#404040">
                        <set attributeName="fill" to="#808080" begin="arrowUp.mouseover" end="arrowUp.mouseout"/>
                  </use>
                  <path fill="none" stroke="white" stroke-width="1.5" d="M0,-3.0v7 M-2.5,-0.5L0,-3.0L2.5,-0.5"/>
                </g>
                <g id="arrowRight" xlink:href="#dirArrow" transform="rotate(90) translate(36 -43)" onmousedown="handlePan(1,0)">
                  <use xlink:href="#rim" fill="#404040">
                        <set attributeName="fill" to="#808080" begin="arrowRight.mouseover" end="arrowRight.mouseout"/>
                  </use>
                  <path fill="none" stroke="white" stroke-width="1.5" d="M0,-3.0v7 M-2.5,-0.5L0,-3.0L2.5,-0.5"/>
                </g>
                <g id="arrowDown" xlink:href="#dirArrow" transform="rotate(180) translate(-30 -48)" onmousedown="handlePan(0,1)">
                  <use xlink:href="#rim" fill="#404040">
                        <set attributeName="fill" to="#808080" begin="arrowDown.mouseover" end="arrowDown.mouseout"/>
                  </use>
                  <path fill="none" stroke="white" stroke-width="1.5" d="M0,-3.0v7 M-2.5,-0.5L0,-3.0L2.5,-0.5"/>
                </g>
                <g id="arrowLeft" xlink:href="#dirArrow" transform="rotate(270) translate(-36 17)" onmousedown="handlePan(-1,0)">
                  <use xlink:href="#rim" fill="#404040">
                        <set attributeName="fill" to="#808080" begin="arrowLeft.mouseover" end="arrowLeft.mouseout"/>
                  </use>
                  <path fill="none" stroke="white" stroke-width="1.5" d="M0,-3.0v7 M-2.5,-0.5L0,-3.0L2.5,-0.5"/>
                </g>
        </g>
        <svg viewBox="0 0 15 15" width="100%" height="30px" preserveAspectRatio="xMaxYMin meet">
         <g id="arrow_out" transform="scale(0.3 0.3)">
          <a xlink:href="classrawspeed_1_1_huffman_table_vector__coll__graph_org.svg" target="_base">
           <rect id="button" ry="5" rx="5" y="6" x="6" height="38" width="38"
                fill="#f2f5e9" fill-opacity="0.5" stroke="#606060" stroke-width="1.0"/>
           <path id="arrow"
             d="M 11.500037,31.436501 C 11.940474,20.09759 22.043105,11.32322 32.158766,21.979434 L 37.068811,17.246167 C 37.068811,17.246167 37.088388,32 37.088388,32 L 22.160133,31.978069 C 22.160133,31.978069 26.997745,27.140456 26.997745,27.140456 C 18.528582,18.264221 13.291696,25.230495 11.500037,31.436501 z"
             style="fill:#404040;"/>
          </a>
         </g>
        </svg>
</svg>
