<?xml version="1.0" encoding="UTF-8" standalone="no"?>
<!DOCTYPE svg PUBLIC "-//W3C//DTD SVG 1.1//EN"
 "http://www.w3.org/Graphics/SVG/1.1/DTD/svg11.dtd">
<!-- Generated by graphviz version 2.43.0 (0)
 -->
<!-- Title: rawspeed::AbstractHuffmanTable::__attribute__ Pages: 1 -->
<svg width="354pt" height="137pt"
 viewBox="0.00 0.00 354.00 137.00" xmlns="http://www.w3.org/2000/svg" xmlns:xlink="http://www.w3.org/1999/xlink">
<g id="graph0" class="graph" transform="scale(1 1) rotate(0) translate(4 133)">
<title>rawspeed::AbstractHuffmanTable::__attribute__</title>
<!-- Node1 -->
<g id="node1" class="node">
<title>Node1</title>
<g id="a_node1"><a xlink:title=" ">
<polygon fill="#bfbfbf" stroke="black" points="194,-49.5 194,-79.5 346,-79.5 346,-49.5 194,-49.5"/>
<text text-anchor="start" x="202" y="-67.5" font-family="Helvetica,sans-Serif" font-size="10.00">rawspeed::AbstractHuffman</text>
<text text-anchor="middle" x="270" y="-56.5" font-family="Helvetica,sans-Serif" font-size="10.00">Table::__attribute__</text>
</a>
</g>
</g>
<!-- Node2 -->
<g id="node2" class="node">
<title>Node2</title>
<g id="a_node2"><a xlink:href="../../d8/d1c/classrawspeed_1_1_abstract_huffman_table.html#af0ab9b4b817b36633d317735063ccb1d" target="_top" xlink:title=" ">
<polygon fill="none" stroke="black" points="0,-98.5 0,-128.5 158,-128.5 158,-98.5 0,-98.5"/>
<text text-anchor="start" x="8" y="-116.5" font-family="Helvetica,sans-Serif" font-size="10.00">rawspeed::AbstractHuffman</text>
<text text-anchor="middle" x="79" y="-105.5" font-family="Helvetica,sans-Serif" font-size="10.00">Table::generateCodeSymbols</text>
</a>
</g>
</g>
<!-- Node1&#45;&gt;Node2 -->
<g id="edge1" class="edge">
<title>Node1&#45;&gt;Node2</title>
<path fill="none" stroke="midnightblue" d="M201.31,-82.05C180.55,-87.43 157.92,-93.3 137.88,-98.49"/>
<polygon fill="midnightblue" stroke="midnightblue" points="202.21,-85.43 211.01,-79.53 200.45,-78.66 202.21,-85.43"/>
</g>
<!-- Node3 -->
<g id="node3" class="node">
<title>Node3</title>
<g id="a_node3"><a xlink:href="../../d8/d1c/classrawspeed_1_1_abstract_huffman_table.html#a49549a0712eb494f8f3ea035d08b36cc" target="_top" xlink:title=" ">
<polygon fill="none" stroke="black" points="3,-49.5 3,-79.5 155,-79.5 155,-49.5 3,-49.5"/>
<text text-anchor="start" x="11" y="-67.5" font-family="Helvetica,sans-Serif" font-size="10.00">rawspeed::AbstractHuffman</text>
<text text-anchor="middle" x="79" y="-56.5" font-family="Helvetica,sans-Serif" font-size="10.00">Table::setCodeValues</text>
</a>
</g>
</g>
<!-- Node1&#45;&gt;Node3 -->
<g id="edge2" class="edge">
<title>Node1&#45;&gt;Node3</title>
<path fill="none" stroke="midnightblue" d="M183.59,-64.5C174.15,-64.5 164.59,-64.5 155.29,-64.5"/>
<polygon fill="midnightblue" stroke="midnightblue" points="183.76,-68 193.76,-64.5 183.76,-61 183.76,-68"/>
</g>
<!-- Node4 -->
<g id="node4" class="node">
<title>Node4</title>
<g id="a_node4"><a xlink:href="../../d8/d1c/classrawspeed_1_1_abstract_huffman_table.html#ae7645200c762cf524e7442531a3eb904" target="_top" xlink:title=" ">
<polygon fill="none" stroke="black" points="3,-0.5 3,-30.5 155,-30.5 155,-0.5 3,-0.5"/>
<text text-anchor="start" x="11" y="-18.5" font-family="Helvetica,sans-Serif" font-size="10.00">rawspeed::AbstractHuffman</text>
<text text-anchor="middle" x="79" y="-7.5" font-family="Helvetica,sans-Serif" font-size="10.00">Table::setNCodesPerLength</text>
</a>
</g>
</g>
<!-- Node1&#45;&gt;Node4 -->
<g id="edge3" class="edge">
<title>Node1&#45;&gt;Node4</title>
<path fill="none" stroke="midnightblue" d="M201.31,-46.95C180.55,-41.57 157.92,-35.7 137.88,-30.51"/>
<polygon fill="midnightblue" stroke="midnightblue" points="200.45,-50.34 211.01,-49.47 202.21,-43.57 200.45,-50.34"/>
</g>
</g>
</svg>
