<?xml version="1.0" encoding="UTF-8" standalone="no"?>
<!DOCTYPE svg PUBLIC "-//W3C//DTD SVG 1.1//EN"
 "http://www.w3.org/Graphics/SVG/1.1/DTD/svg11.dtd">
<!-- Generated by graphviz version 2.43.0 (0)
 -->
<!-- Title: rawspeed::AbstractHuffmanTable::__attribute__ Pages: 1 -->
<svg width="394pt" height="235pt"
 viewBox="0.00 0.00 394.00 235.00" xmlns="http://www.w3.org/2000/svg" xmlns:xlink="http://www.w3.org/1999/xlink">
<g id="graph0" class="graph" transform="scale(1 1) rotate(0) translate(4 231)">
<title>rawspeed::AbstractHuffmanTable::__attribute__</title>
<!-- Node1 -->
<g id="node1" class="node">
<title>Node1</title>
<g id="a_node1"><a xlink:title=" ">
<polygon fill="#bfbfbf" stroke="black" points="234,-98.5 234,-128.5 386,-128.5 386,-98.5 234,-98.5"/>
<text text-anchor="start" x="242" y="-116.5" font-family="Helvetica,sans-Serif" font-size="10.00">rawspeed::AbstractHuffman</text>
<text text-anchor="middle" x="310" y="-105.5" font-family="Helvetica,sans-Serif" font-size="10.00">Table::__attribute__</text>
</a>
</g>
</g>
<!-- Node2 -->
<g id="node2" class="node">
<title>Node2</title>
<g id="a_node2"><a xlink:href="../../de/d70/classrawspeed_1_1_crw_decompressor.html#a57aa69c7bcb6d4147ce0c5ede21274e8" target="_top" xlink:title=" ">
<polygon fill="none" stroke="black" points="19.5,-196.5 19.5,-226.5 178.5,-226.5 178.5,-196.5 19.5,-196.5"/>
<text text-anchor="start" x="27.5" y="-214.5" font-family="Helvetica,sans-Serif" font-size="10.00">rawspeed::CrwDecompressor</text>
<text text-anchor="middle" x="99" y="-203.5" font-family="Helvetica,sans-Serif" font-size="10.00">::decodeBlock</text>
</a>
</g>
</g>
<!-- Node1&#45;&gt;Node2 -->
<g id="edge1" class="edge">
<title>Node1&#45;&gt;Node2</title>
<path fill="none" stroke="midnightblue" d="M282.52,-135.03C260.94,-151.57 229.07,-173.84 198,-187.5 190.22,-190.92 181.87,-193.9 173.45,-196.5"/>
<polygon fill="midnightblue" stroke="midnightblue" points="284.81,-137.68 290.54,-128.77 280.5,-132.16 284.81,-137.68"/>
</g>
<!-- Node3 -->
<g id="node3" class="node">
<title>Node3</title>
<g id="a_node3"><a xlink:href="../../d3/d6d/classrawspeed_1_1_hasselblad_decompressor.html#a81050a9be38443bf5a3d00bc58b72086" target="_top" xlink:title=" ">
<polygon fill="none" stroke="black" points="2,-147.5 2,-177.5 196,-177.5 196,-147.5 2,-147.5"/>
<text text-anchor="start" x="10" y="-165.5" font-family="Helvetica,sans-Serif" font-size="10.00">rawspeed::HasselbladDecompressor</text>
<text text-anchor="middle" x="99" y="-154.5" font-family="Helvetica,sans-Serif" font-size="10.00">::getBits</text>
</a>
</g>
</g>
<!-- Node1&#45;&gt;Node3 -->
<g id="edge2" class="edge">
<title>Node1&#45;&gt;Node3</title>
<path fill="none" stroke="midnightblue" d="M235.08,-130.83C211.87,-136.27 186.46,-142.23 164.01,-147.49"/>
<polygon fill="midnightblue" stroke="midnightblue" points="235.94,-134.22 244.87,-128.53 234.34,-127.41 235.94,-134.22"/>
</g>
<!-- Node4 -->
<g id="node4" class="node">
<title>Node4</title>
<g id="a_node4"><a xlink:href="../../d1/d31/classrawspeed_1_1_sony_arw1_decompressor.html#a9c753ba5a1b2b0b4f1df0cd39794afe4" target="_top" xlink:title=" ">
<polygon fill="none" stroke="black" points="4.5,-98.5 4.5,-128.5 193.5,-128.5 193.5,-98.5 4.5,-98.5"/>
<text text-anchor="start" x="12.5" y="-116.5" font-family="Helvetica,sans-Serif" font-size="10.00">rawspeed::SonyArw1Decompressor</text>
<text text-anchor="middle" x="99" y="-105.5" font-family="Helvetica,sans-Serif" font-size="10.00">::getDiff</text>
</a>
</g>
</g>
<!-- Node1&#45;&gt;Node4 -->
<g id="edge3" class="edge">
<title>Node1&#45;&gt;Node4</title>
<path fill="none" stroke="midnightblue" d="M223.68,-113.5C213.83,-113.5 203.75,-113.5 193.79,-113.5"/>
<polygon fill="midnightblue" stroke="midnightblue" points="223.84,-117 233.84,-113.5 223.84,-110 223.84,-117"/>
</g>
<!-- Node5 -->
<g id="node5" class="node">
<title>Node5</title>
<g id="a_node5"><a xlink:href="../../d8/d1c/classrawspeed_1_1_abstract_huffman_table.html#a07b9603ccf22067b1e47f8eaee60c90b" target="_top" xlink:title=" ">
<polygon fill="none" stroke="black" points="23,-49.5 23,-79.5 175,-79.5 175,-49.5 23,-49.5"/>
<text text-anchor="start" x="31" y="-67.5" font-family="Helvetica,sans-Serif" font-size="10.00">rawspeed::AbstractHuffman</text>
<text text-anchor="middle" x="99" y="-56.5" font-family="Helvetica,sans-Serif" font-size="10.00">Table::processSymbol</text>
</a>
</g>
</g>
<!-- Node1&#45;&gt;Node5 -->
<g id="edge4" class="edge">
<title>Node1&#45;&gt;Node5</title>
<path fill="none" stroke="midnightblue" d="M235.08,-96.17C211.87,-90.73 186.46,-84.77 164.01,-79.51"/>
<polygon fill="midnightblue" stroke="midnightblue" points="234.34,-99.59 244.87,-98.47 235.94,-92.78 234.34,-99.59"/>
</g>
<!-- Node6 -->
<g id="node6" class="node">
<title>Node6</title>
<g id="a_node6"><a xlink:href="../../de/d5b/classrawspeed_1_1_samsung_v1_decompressor.html#a9a8941d42943cb17b336c523d3a7d31c" target="_top" xlink:title=" ">
<polygon fill="none" stroke="black" points="0,-0.5 0,-30.5 198,-30.5 198,-0.5 0,-0.5"/>
<text text-anchor="start" x="8" y="-18.5" font-family="Helvetica,sans-Serif" font-size="10.00">rawspeed::SamsungV1Decompressor</text>
<text text-anchor="middle" x="99" y="-7.5" font-family="Helvetica,sans-Serif" font-size="10.00">::samsungDiff</text>
</a>
</g>
</g>
<!-- Node1&#45;&gt;Node6 -->
<g id="edge5" class="edge">
<title>Node1&#45;&gt;Node6</title>
<path fill="none" stroke="midnightblue" d="M282.04,-92.07C260.43,-75.83 228.74,-54.07 198,-40.5 189.41,-36.71 180.12,-33.41 170.82,-30.56"/>
<polygon fill="midnightblue" stroke="midnightblue" points="280.02,-94.93 290.09,-98.21 284.27,-89.36 280.02,-94.93"/>
</g>
</g>
</svg>
