<?xml version="1.0" encoding="UTF-8" standalone="no"?>
<!DOCTYPE svg PUBLIC "-//W3C//DTD SVG 1.1//EN"
 "http://www.w3.org/Graphics/SVG/1.1/DTD/svg11.dtd">
<!-- Generated by graphviz version 2.43.0 (0)
 -->
<!-- Title: rawspeed::TiffIFD::TiffIFD Pages: 1 -->
<svg width="640pt" height="284pt"
 viewBox="0.00 0.00 640.00 284.00" xmlns="http://www.w3.org/2000/svg" xmlns:xlink="http://www.w3.org/1999/xlink">
<g id="graph0" class="graph" transform="scale(1 1) rotate(0) translate(4 280)">
<title>rawspeed::TiffIFD::TiffIFD</title>
<!-- Node1 -->
<g id="node1" class="node">
<title>Node1</title>
<g id="a_node1"><a xlink:title=" ">
<polygon fill="#bfbfbf" stroke="black" points="0,-147.5 0,-177.5 107,-177.5 107,-147.5 0,-147.5"/>
<text text-anchor="start" x="8" y="-165.5" font-family="Helvetica,sans-Serif" font-size="10.00">rawspeed::TiffIFD::</text>
<text text-anchor="middle" x="53.5" y="-154.5" font-family="Helvetica,sans-Serif" font-size="10.00">TiffIFD</text>
</a>
</g>
</g>
<!-- Node2 -->
<g id="node2" class="node">
<title>Node2</title>
<g id="a_node2"><a xlink:href="../../dd/da0/classrawspeed_1_1_byte_stream.html#a804858089e7e6c442815d46128cca1ed" target="_top" xlink:title=" ">
<polygon fill="none" stroke="black" points="143,-245.5 143,-275.5 271,-275.5 271,-245.5 143,-245.5"/>
<text text-anchor="start" x="151" y="-263.5" font-family="Helvetica,sans-Serif" font-size="10.00">rawspeed::ByteStream</text>
<text text-anchor="middle" x="207" y="-252.5" font-family="Helvetica,sans-Serif" font-size="10.00">::ByteStream</text>
</a>
</g>
</g>
<!-- Node1&#45;&gt;Node2 -->
<g id="edge1" class="edge">
<title>Node1&#45;&gt;Node2</title>
<path fill="none" stroke="midnightblue" d="M69.29,-177.57C85.97,-193.88 114.49,-219.79 143,-236.5 145.78,-238.13 148.68,-239.68 151.66,-241.16"/>
<polygon fill="midnightblue" stroke="midnightblue" points="150.2,-244.34 160.75,-245.37 153.14,-237.99 150.2,-244.34"/>
</g>
<!-- Node3 -->
<g id="node3" class="node">
<title>Node3</title>
<g id="a_node3"><a xlink:href="../../dd/da0/classrawspeed_1_1_byte_stream.html#a36ff2619c262c246a208edd76e6372c5" target="_top" xlink:title=" ">
<polygon fill="none" stroke="black" points="143,-196.5 143,-226.5 271,-226.5 271,-196.5 143,-196.5"/>
<text text-anchor="start" x="151" y="-214.5" font-family="Helvetica,sans-Serif" font-size="10.00">rawspeed::ByteStream</text>
<text text-anchor="middle" x="207" y="-203.5" font-family="Helvetica,sans-Serif" font-size="10.00">::getU16</text>
</a>
</g>
</g>
<!-- Node1&#45;&gt;Node3 -->
<g id="edge2" class="edge">
<title>Node1&#45;&gt;Node3</title>
<path fill="none" stroke="midnightblue" d="M101.19,-177.6C116.53,-182.56 133.74,-188.13 149.71,-193.29"/>
<polygon fill="midnightblue" stroke="midnightblue" points="148.87,-196.7 159.46,-196.45 151.03,-190.04 148.87,-196.7"/>
</g>
<!-- Node4 -->
<g id="node4" class="node">
<title>Node4</title>
<g id="a_node4"><a xlink:href="../../dd/da0/classrawspeed_1_1_byte_stream.html#ac598b7b6f0f8fd5476adb7c1363b1518" target="_top" xlink:title=" ">
<polygon fill="none" stroke="black" points="143,-147.5 143,-177.5 271,-177.5 271,-147.5 143,-147.5"/>
<text text-anchor="start" x="151" y="-165.5" font-family="Helvetica,sans-Serif" font-size="10.00">rawspeed::ByteStream</text>
<text text-anchor="middle" x="207" y="-154.5" font-family="Helvetica,sans-Serif" font-size="10.00">::getU32</text>
</a>
</g>
</g>
<!-- Node1&#45;&gt;Node4 -->
<g id="edge3" class="edge">
<title>Node1&#45;&gt;Node4</title>
<path fill="none" stroke="midnightblue" d="M107.06,-162.5C115.35,-162.5 124.06,-162.5 132.72,-162.5"/>
<polygon fill="midnightblue" stroke="midnightblue" points="132.84,-166 142.84,-162.5 132.84,-159 132.84,-166"/>
</g>
<!-- Node5 -->
<g id="node5" class="node">
<title>Node5</title>
<g id="a_node5"><a xlink:href="../../dd/da0/classrawspeed_1_1_byte_stream.html#a3af0299ae09e0badd1199070717e6974" target="_top" xlink:title=" ">
<polygon fill="none" stroke="black" points="143,-98.5 143,-128.5 271,-128.5 271,-98.5 143,-98.5"/>
<text text-anchor="start" x="151" y="-116.5" font-family="Helvetica,sans-Serif" font-size="10.00">rawspeed::ByteStream</text>
<text text-anchor="middle" x="207" y="-105.5" font-family="Helvetica,sans-Serif" font-size="10.00">::setPosition</text>
</a>
</g>
</g>
<!-- Node1&#45;&gt;Node5 -->
<g id="edge4" class="edge">
<title>Node1&#45;&gt;Node5</title>
<path fill="none" stroke="midnightblue" d="M101.19,-147.4C116.53,-142.44 133.74,-136.87 149.71,-131.71"/>
<polygon fill="midnightblue" stroke="midnightblue" points="151.03,-134.96 159.46,-128.55 148.87,-128.3 151.03,-134.96"/>
</g>
<!-- Node7 -->
<g id="node7" class="node">
<title>Node7</title>
<g id="a_node7"><a xlink:href="../../db/d6a/classrawspeed_1_1_tiff_i_f_d.html#a0d95a4ced4cf7a052ab1c93a9a830089" target="_top" xlink:title=" ">
<polygon fill="none" stroke="black" points="153.5,-49.5 153.5,-79.5 260.5,-79.5 260.5,-49.5 153.5,-49.5"/>
<text text-anchor="start" x="161.5" y="-67.5" font-family="Helvetica,sans-Serif" font-size="10.00">rawspeed::TiffIFD::</text>
<text text-anchor="middle" x="207" y="-56.5" font-family="Helvetica,sans-Serif" font-size="10.00">TiffIFD</text>
</a>
</g>
</g>
<!-- Node1&#45;&gt;Node7 -->
<g id="edge6" class="edge">
<title>Node1&#45;&gt;Node7</title>
<path fill="none" stroke="midnightblue" d="M69.68,-147.43C86.47,-131.4 114.88,-106.12 143,-89.5 146.38,-87.5 149.95,-85.6 153.6,-83.81"/>
<polygon fill="midnightblue" stroke="midnightblue" points="155.17,-86.93 162.78,-79.56 152.24,-80.58 155.17,-86.93"/>
</g>
<!-- Node6 -->
<g id="node6" class="node">
<title>Node6</title>
<g id="a_node6"><a xlink:href="../../dd/da0/classrawspeed_1_1_byte_stream.html#a33bbb3baf3bb9730f9da8765175ec4ce" target="_top" xlink:title=" ">
<polygon fill="none" stroke="black" points="334,-98.5 334,-128.5 462,-128.5 462,-98.5 334,-98.5"/>
<text text-anchor="start" x="342" y="-116.5" font-family="Helvetica,sans-Serif" font-size="10.00">rawspeed::ByteStream</text>
<text text-anchor="middle" x="398" y="-105.5" font-family="Helvetica,sans-Serif" font-size="10.00">::check</text>
</a>
</g>
</g>
<!-- Node5&#45;&gt;Node6 -->
<g id="edge5" class="edge">
<title>Node5&#45;&gt;Node6</title>
<path fill="none" stroke="midnightblue" d="M271.2,-113.5C288.06,-113.5 306.43,-113.5 323.78,-113.5"/>
<polygon fill="midnightblue" stroke="midnightblue" points="323.86,-117 333.86,-113.5 323.86,-110 323.86,-117"/>
</g>
<!-- Node8 -->
<g id="node8" class="node">
<title>Node8</title>
<g id="a_node8"><a xlink:href="../../db/d6a/classrawspeed_1_1_tiff_i_f_d.html#a85b39bb3cc2d8ba722f42c5b8b7966f6" target="_top" xlink:title=" ">
<polygon fill="none" stroke="black" points="328,-49.5 328,-79.5 468,-79.5 468,-49.5 328,-49.5"/>
<text text-anchor="start" x="336" y="-67.5" font-family="Helvetica,sans-Serif" font-size="10.00">rawspeed::TiffIFD::</text>
<text text-anchor="middle" x="398" y="-56.5" font-family="Helvetica,sans-Serif" font-size="10.00">recursivelyCheckSubIFDs</text>
</a>
</g>
</g>
<!-- Node7&#45;&gt;Node8 -->
<g id="edge7" class="edge">
<title>Node7&#45;&gt;Node8</title>
<path fill="none" stroke="midnightblue" d="M260.65,-64.5C278.24,-64.5 298.25,-64.5 317.43,-64.5"/>
<polygon fill="midnightblue" stroke="midnightblue" points="317.67,-68 327.67,-64.5 317.67,-61 317.67,-68"/>
</g>
<!-- Node10 -->
<g id="node10" class="node">
<title>Node10</title>
<g id="a_node10"><a xlink:href="../../db/d6a/classrawspeed_1_1_tiff_i_f_d.html#afb4d1b8791f048aee44291d5e8307d5d" target="_top" xlink:title=" ">
<polygon fill="none" stroke="black" points="307,-0.5 307,-30.5 489,-30.5 489,-0.5 307,-0.5"/>
<text text-anchor="start" x="315" y="-18.5" font-family="Helvetica,sans-Serif" font-size="10.00">rawspeed::TiffIFD::</text>
<text text-anchor="middle" x="398" y="-7.5" font-family="Helvetica,sans-Serif" font-size="10.00">recursivelyIncrementSubIFDCount</text>
</a>
</g>
</g>
<!-- Node7&#45;&gt;Node10 -->
<g id="edge9" class="edge">
<title>Node7&#45;&gt;Node10</title>
<path fill="none" stroke="midnightblue" d="M260.65,-50.85C281.86,-45.35 306.61,-38.93 329.15,-33.09"/>
<polygon fill="midnightblue" stroke="midnightblue" points="330.19,-36.44 339,-30.54 328.44,-29.66 330.19,-36.44"/>
</g>
<!-- Node9 -->
<g id="node9" class="node">
<title>Node9</title>
<g id="a_node9"><a xlink:href="../../db/d6a/classrawspeed_1_1_tiff_i_f_d.html#ab4161b44a1a9261f5d85cfe0d804fbf5" target="_top" xlink:title=" ">
<polygon fill="none" stroke="black" points="525,-49.5 525,-79.5 632,-79.5 632,-49.5 525,-49.5"/>
<text text-anchor="start" x="533" y="-67.5" font-family="Helvetica,sans-Serif" font-size="10.00">rawspeed::TiffIFD::</text>
<text text-anchor="middle" x="578.5" y="-56.5" font-family="Helvetica,sans-Serif" font-size="10.00">checkSubIFDs</text>
</a>
</g>
</g>
<!-- Node8&#45;&gt;Node9 -->
<g id="edge8" class="edge">
<title>Node8&#45;&gt;Node9</title>
<path fill="none" stroke="midnightblue" d="M468.01,-64.5C483.32,-64.5 499.46,-64.5 514.51,-64.5"/>
<polygon fill="midnightblue" stroke="midnightblue" points="514.73,-68 524.73,-64.5 514.73,-61 514.73,-68"/>
</g>
</g>
</svg>
