<?xml version="1.0" encoding="UTF-8" standalone="no"?>
<!DOCTYPE svg PUBLIC "-//W3C//DTD SVG 1.1//EN"
 "http://www.w3.org/Graphics/SVG/1.1/DTD/svg11.dtd">
<!-- Generated by graphviz version 2.43.0 (0)
 -->
<!-- Title: rawspeed::BitStream&lt; Tag, Cache &gt; Pages: 1 -->
<svg width="237pt" height="310pt"
 viewBox="0.00 0.00 236.50 310.00" xmlns="http://www.w3.org/2000/svg" xmlns:xlink="http://www.w3.org/1999/xlink">
<g id="graph0" class="graph" transform="scale(1 1) rotate(0) translate(4 306)">
<title>rawspeed::BitStream&lt; Tag, Cache &gt;</title>
<!-- Node1 -->
<g id="node1" class="node">
<title>Node1</title>
<g id="a_node1"><a xlink:title=" ">
<polygon fill="#bfbfbf" stroke="black" points="21,-100.5 21,-130.5 140,-130.5 140,-100.5 21,-100.5"/>
<text text-anchor="start" x="29" y="-118.5" font-family="Helvetica,sans-Serif" font-size="10.00">rawspeed::BitStream</text>
<text text-anchor="middle" x="80.5" y="-107.5" font-family="Helvetica,sans-Serif" font-size="10.00">&lt; Tag, Cache &gt;</text>
</a>
</g>
</g>
<!-- Node5 -->
<g id="node5" class="node">
<title>Node5</title>
<g id="a_node5"><a xlink:href="../../d3/ded/classrawspeed_1_1_bit_stream.html" target="_top" xlink:title=" ">
<polygon fill="none" stroke="black" points="0,-0.5 0,-41.5 161,-41.5 161,-0.5 0,-0.5"/>
<text text-anchor="start" x="8" y="-29.5" font-family="Helvetica,sans-Serif" font-size="10.00">rawspeed::BitStream</text>
<text text-anchor="start" x="8" y="-18.5" font-family="Helvetica,sans-Serif" font-size="10.00">&lt; MSBBitPumpTag, BitStream</text>
<text text-anchor="middle" x="80.5" y="-7.5" font-family="Helvetica,sans-Serif" font-size="10.00">CacheRightInLeftOut &gt;</text>
</a>
</g>
</g>
<!-- Node1&#45;&gt;Node5 -->
<g id="edge4" class="edge">
<title>Node1&#45;&gt;Node5</title>
<path fill="none" stroke="orange" stroke-dasharray="5,2" d="M80.5,-90.28C80.5,-75.14 80.5,-55.88 80.5,-41.68"/>
<polygon fill="orange" stroke="orange" points="77,-90.45 80.5,-100.45 84,-90.45 77,-90.45"/>
<text text-anchor="start" x="80.5" y="-74" font-family="Helvetica,sans-Serif" font-size="10.00"> &lt; MSBBitPumpTag, BitStream</text>
<text text-anchor="middle" x="154.5" y="-63" font-family="Helvetica,sans-Serif" font-size="10.00">CacheRightInLeftOut &gt;</text>
</g>
<!-- Node2 -->
<g id="node2" class="node">
<title>Node2</title>
<g id="a_node2"><a xlink:href="../../dd/da0/classrawspeed_1_1_byte_stream.html" target="_top" xlink:title=" ">
<polygon fill="none" stroke="black" points="16.5,-168.5 16.5,-187.5 144.5,-187.5 144.5,-168.5 16.5,-168.5"/>
<text text-anchor="middle" x="80.5" y="-175.5" font-family="Helvetica,sans-Serif" font-size="10.00">rawspeed::ByteStream</text>
</a>
</g>
</g>
<!-- Node2&#45;&gt;Node1 -->
<g id="edge1" class="edge">
<title>Node2&#45;&gt;Node1</title>
<path fill="none" stroke="midnightblue" d="M80.5,-158.22C80.5,-149.36 80.5,-138.96 80.5,-130.76"/>
<polygon fill="midnightblue" stroke="midnightblue" points="77,-158.33 80.5,-168.33 84,-158.33 77,-158.33"/>
</g>
<!-- Node3 -->
<g id="node3" class="node">
<title>Node3</title>
<g id="a_node3"><a xlink:href="../../d1/dd4/classrawspeed_1_1_data_buffer.html" target="_top" xlink:title=" ">
<polygon fill="none" stroke="black" points="19.5,-225.5 19.5,-244.5 141.5,-244.5 141.5,-225.5 19.5,-225.5"/>
<text text-anchor="middle" x="80.5" y="-232.5" font-family="Helvetica,sans-Serif" font-size="10.00">rawspeed::DataBuffer</text>
</a>
</g>
</g>
<!-- Node3&#45;&gt;Node2 -->
<g id="edge2" class="edge">
<title>Node3&#45;&gt;Node2</title>
<path fill="none" stroke="midnightblue" d="M80.5,-215.12C80.5,-205.82 80.5,-195.06 80.5,-187.71"/>
<polygon fill="midnightblue" stroke="midnightblue" points="77,-215.41 80.5,-225.41 84,-215.41 77,-215.41"/>
</g>
<!-- Node4 -->
<g id="node4" class="node">
<title>Node4</title>
<g id="a_node4"><a xlink:href="../../d3/dca/classrawspeed_1_1_buffer.html" target="_top" xlink:title=" ">
<polygon fill="none" stroke="black" points="31,-282.5 31,-301.5 130,-301.5 130,-282.5 31,-282.5"/>
<text text-anchor="middle" x="80.5" y="-289.5" font-family="Helvetica,sans-Serif" font-size="10.00">rawspeed::Buffer</text>
</a>
</g>
</g>
<!-- Node4&#45;&gt;Node3 -->
<g id="edge3" class="edge">
<title>Node4&#45;&gt;Node3</title>
<path fill="none" stroke="midnightblue" d="M80.5,-272.12C80.5,-262.82 80.5,-252.06 80.5,-244.71"/>
<polygon fill="midnightblue" stroke="midnightblue" points="77,-272.41 80.5,-282.41 84,-272.41 77,-272.41"/>
</g>
</g>
</svg>
