<?xml version="1.0" encoding="UTF-8" standalone="no"?>
<!DOCTYPE svg PUBLIC "-//W3C//DTD SVG 1.1//EN"
 "http://www.w3.org/Graphics/SVG/1.1/DTD/svg11.dtd">
<!-- Generated by graphviz version 2.43.0 (0)
 -->
<!-- Title: rawspeed::TiffEntry Pages: 1 -->
<svg width="1052pt" height="473pt"
 viewBox="0.00 0.00 1052.00 473.00" xmlns="http://www.w3.org/2000/svg" xmlns:xlink="http://www.w3.org/1999/xlink">
<g id="graph0" class="graph" transform="scale(1 1) rotate(0) translate(4 469)">
<title>rawspeed::TiffEntry</title>
<!-- Node1 -->
<g id="node1" class="node">
<title>Node1</title>
<g id="a_node1"><a xlink:title=" ">
<polygon fill="#bfbfbf" stroke="black" points="933,-189.5 933,-208.5 1044,-208.5 1044,-189.5 933,-189.5"/>
<text text-anchor="middle" x="988.5" y="-196.5" font-family="Helvetica,sans-Serif" font-size="10.00">rawspeed::TiffEntry</text>
</a>
</g>
</g>
<!-- Node2 -->
<g id="node2" class="node">
<title>Node2</title>
<g id="a_node2"><a xlink:title=" ">
<polygon fill="none" stroke="#bfbfbf" points="759,-445.5 759,-464.5 837,-464.5 837,-445.5 759,-445.5"/>
<text text-anchor="middle" x="798" y="-452.5" font-family="Helvetica,sans-Serif" font-size="10.00">TiffDataType</text>
</a>
</g>
</g>
<!-- Node2&#45;&gt;Node1 -->
<g id="edge1" class="edge">
<title>Node2&#45;&gt;Node1</title>
<path fill="none" stroke="#9a32cd" stroke-dasharray="5,2" d="M847.07,-455.89C870.18,-453.85 896.74,-447.54 915,-431 983.18,-369.24 987.82,-244.43 987.69,-208.74"/>
<polygon fill="#9a32cd" stroke="#9a32cd" points="846.84,-452.4 837.08,-456.54 847.29,-459.39 846.84,-452.4"/>
<text text-anchor="middle" x="897.5" y="-452" font-family="Helvetica,sans-Serif" font-size="10.00"> type</text>
</g>
<!-- Node3 -->
<g id="node3" class="node">
<title>Node3</title>
<g id="a_node3"><a xlink:href="../../db/d6a/classrawspeed_1_1_tiff_i_f_d.html" target="_top" xlink:title=" ">
<polygon fill="none" stroke="black" points="747.5,-225.5 747.5,-244.5 848.5,-244.5 848.5,-225.5 747.5,-225.5"/>
<text text-anchor="middle" x="798" y="-232.5" font-family="Helvetica,sans-Serif" font-size="10.00">rawspeed::TiffIFD</text>
</a>
</g>
</g>
<!-- Node3&#45;&gt;Node1 -->
<g id="edge2" class="edge">
<title>Node3&#45;&gt;Node1</title>
<path fill="none" stroke="#9a32cd" stroke-dasharray="5,2" d="M858.44,-223.65C883.92,-218.78 913.34,-213.16 937.65,-208.52"/>
<polygon fill="#9a32cd" stroke="#9a32cd" points="857.69,-220.23 848.53,-225.54 859.01,-227.1 857.69,-220.23"/>
<text text-anchor="middle" x="897.5" y="-222" font-family="Helvetica,sans-Serif" font-size="10.00"> parent</text>
</g>
<!-- Node3&#45;&gt;Node3 -->
<g id="edge3" class="edge">
<title>Node3&#45;&gt;Node3</title>
<path fill="none" stroke="#9a32cd" stroke-dasharray="5,2" d="M779.85,-254.4C781.06,-259.31 787.11,-263 798,-263 815.42,-263 820.45,-253.57 813.1,-244.76"/>
<polygon fill="#9a32cd" stroke="#9a32cd" points="783.22,-255.35 782.9,-244.76 776.55,-253.24 783.22,-255.35"/>
<text text-anchor="middle" x="798" y="-266" font-family="Helvetica,sans-Serif" font-size="10.00"> parent</text>
</g>
<!-- Node4 -->
<g id="node4" class="node">
<title>Node4</title>
<g id="a_node4"><a xlink:title=" ">
<polygon fill="none" stroke="#bfbfbf" points="432,-263.5 432,-282.5 586,-282.5 586,-263.5 432,-263.5"/>
<text text-anchor="middle" x="509" y="-270.5" font-family="Helvetica,sans-Serif" font-size="10.00">std::vector&lt; TiffIFDOwner &gt;</text>
</a>
</g>
</g>
<!-- Node4&#45;&gt;Node3 -->
<g id="edge4" class="edge">
<title>Node4&#45;&gt;Node3</title>
<path fill="none" stroke="#9a32cd" stroke-dasharray="5,2" d="M596.65,-263.98C633.5,-259.86 676.91,-254.65 716,-249 726.17,-247.53 737.03,-245.78 747.38,-244.02"/>
<polygon fill="#9a32cd" stroke="#9a32cd" points="595.99,-260.53 586.44,-265.11 596.76,-267.49 595.99,-260.53"/>
<text text-anchor="middle" x="660" y="-266" font-family="Helvetica,sans-Serif" font-size="10.00"> subIFDs</text>
</g>
<!-- Node5 -->
<g id="node5" class="node">
<title>Node5</title>
<g id="a_node5"><a xlink:title="STL class.">
<polygon fill="none" stroke="#bfbfbf" points="141,-311.5 141,-330.5 259,-330.5 259,-311.5 141,-311.5"/>
<text text-anchor="middle" x="200" y="-318.5" font-family="Helvetica,sans-Serif" font-size="10.00">std::unique_ptr&lt; T &gt;</text>
</a>
</g>
</g>
<!-- Node5&#45;&gt;Node4 -->
<g id="edge5" class="edge">
<title>Node5&#45;&gt;Node4</title>
<path fill="none" stroke="#9a32cd" stroke-dasharray="5,2" d="M268.98,-310.26C271.69,-309.83 274.37,-309.41 277,-309 334.54,-299.97 400.16,-289.76 446.71,-282.52"/>
<polygon fill="#9a32cd" stroke="#9a32cd" points="268.42,-306.8 259.09,-311.82 269.51,-313.72 268.42,-306.8"/>
<text text-anchor="middle" x="345.5" y="-312" font-family="Helvetica,sans-Serif" font-size="10.00"> elements</text>
</g>
<!-- Node8 -->
<g id="node8" class="node">
<title>Node8</title>
<g id="a_node8"><a xlink:title=" ">
<polygon fill="none" stroke="#bfbfbf" points="456,-329 456,-359 562,-359 562,-329 456,-329"/>
<text text-anchor="start" x="464" y="-347" font-family="Helvetica,sans-Serif" font-size="10.00">std::map&lt; TiffTag,</text>
<text text-anchor="middle" x="509" y="-336" font-family="Helvetica,sans-Serif" font-size="10.00"> TiffEntryOwner &gt;</text>
</a>
</g>
</g>
<!-- Node5&#45;&gt;Node8 -->
<g id="edge10" class="edge">
<title>Node5&#45;&gt;Node8</title>
<path fill="none" stroke="#9a32cd" stroke-dasharray="5,2" d="M269.45,-323.81C311.25,-325.78 365.76,-328.82 414,-333 427.59,-334.18 442.24,-335.75 455.85,-337.33"/>
<polygon fill="#9a32cd" stroke="#9a32cd" points="269.53,-320.31 259.38,-323.34 269.21,-327.3 269.53,-320.31"/>
<text text-anchor="middle" x="345.5" y="-336" font-family="Helvetica,sans-Serif" font-size="10.00"> elements</text>
</g>
<!-- Node6 -->
<g id="node6" class="node">
<title>Node6</title>
<g id="a_node6"><a xlink:title=" ">
<polygon fill="none" stroke="#bfbfbf" points="13.5,-290.5 13.5,-309.5 42.5,-309.5 42.5,-290.5 13.5,-290.5"/>
<text text-anchor="middle" x="28" y="-297.5" font-family="Helvetica,sans-Serif" font-size="10.00">T</text>
</a>
</g>
</g>
<!-- Node6&#45;&gt;Node5 -->
<g id="edge6" class="edge">
<title>Node6&#45;&gt;Node5</title>
<path fill="none" stroke="#9a32cd" stroke-dasharray="5,2" d="M52.69,-302.93C75.38,-305.73 110.53,-310.07 140.69,-313.8"/>
<polygon fill="#9a32cd" stroke="#9a32cd" points="52.98,-299.44 42.62,-301.68 52.12,-306.38 52.98,-299.44"/>
<text text-anchor="middle" x="98.5" y="-314" font-family="Helvetica,sans-Serif" font-size="10.00"> ptr</text>
</g>
<!-- Node7 -->
<g id="node7" class="node">
<title>Node7</title>
<g id="a_node7"><a xlink:title="STL class.">
<polygon fill="none" stroke="#bfbfbf" points="151.5,-273.5 151.5,-292.5 248.5,-292.5 248.5,-273.5 151.5,-273.5"/>
<text text-anchor="middle" x="200" y="-280.5" font-family="Helvetica,sans-Serif" font-size="10.00">std::vector&lt; T &gt;</text>
</a>
</g>
</g>
<!-- Node6&#45;&gt;Node7 -->
<g id="edge8" class="edge">
<title>Node6&#45;&gt;Node7</title>
<path fill="none" stroke="#9a32cd" stroke-dasharray="5,2" d="M52.26,-290.07C59.13,-287.59 66.76,-285.28 74,-284 99.33,-279.53 127.99,-278.98 151.47,-279.68"/>
<polygon fill="#9a32cd" stroke="#9a32cd" points="50.92,-286.84 42.86,-293.71 53.45,-293.36 50.92,-286.84"/>
<text text-anchor="middle" x="98.5" y="-287" font-family="Helvetica,sans-Serif" font-size="10.00"> elements</text>
</g>
<!-- Node10 -->
<g id="node10" class="node">
<title>Node10</title>
<g id="a_node10"><a xlink:title="STL class.">
<polygon fill="none" stroke="#bfbfbf" points="149.5,-349.5 149.5,-368.5 250.5,-368.5 250.5,-349.5 149.5,-349.5"/>
<text text-anchor="middle" x="200" y="-356.5" font-family="Helvetica,sans-Serif" font-size="10.00">std::map&lt; K, T &gt;</text>
</a>
</g>
</g>
<!-- Node6&#45;&gt;Node10 -->
<g id="edge14" class="edge">
<title>Node6&#45;&gt;Node10</title>
<path fill="none" stroke="#9a32cd" stroke-dasharray="5,2" d="M51.58,-314.61C58.57,-318.7 66.43,-322.88 74,-326 98.59,-336.14 127.2,-343.96 150.84,-349.44"/>
<polygon fill="#9a32cd" stroke="#9a32cd" points="53.06,-311.41 42.7,-309.2 49.41,-317.39 53.06,-311.41"/>
<text text-anchor="middle" x="98.5" y="-344" font-family="Helvetica,sans-Serif" font-size="10.00"> elements</text>
</g>
<!-- Node22 -->
<g id="node22" class="node">
<title>Node22</title>
<g id="a_node22"><a xlink:title="STL class.">
<polygon fill="none" stroke="#bfbfbf" points="154,-235.5 154,-254.5 246,-254.5 246,-235.5 154,-235.5"/>
<text text-anchor="middle" x="200" y="-242.5" font-family="Helvetica,sans-Serif" font-size="10.00">std::array&lt; T &gt;</text>
</a>
</g>
</g>
<!-- Node6&#45;&gt;Node22 -->
<g id="edge30" class="edge">
<title>Node6&#45;&gt;Node22</title>
<path fill="none" stroke="#9a32cd" stroke-dasharray="5,2" d="M45.47,-283.34C53.43,-276.25 63.53,-268.59 74,-264 99.03,-253.04 129.28,-248.24 153.75,-246.21"/>
<polygon fill="#9a32cd" stroke="#9a32cd" points="42.9,-280.95 38.02,-290.35 47.7,-286.05 42.9,-280.95"/>
<text text-anchor="middle" x="98.5" y="-267" font-family="Helvetica,sans-Serif" font-size="10.00"> elements</text>
</g>
<!-- Node7&#45;&gt;Node4 -->
<g id="edge7" class="edge">
<title>Node7&#45;&gt;Node4</title>
<path fill="none" stroke="orange" stroke-dasharray="5,2" d="M241.83,-270.2C247.63,-268.22 253.49,-266.12 259,-264 267.17,-260.86 268.44,-257.82 277,-256 343.28,-241.93 422.39,-253.75 468.72,-263.47"/>
<polygon fill="orange" stroke="orange" points="240.58,-266.93 232.21,-273.42 242.8,-273.57 240.58,-266.93"/>
<text text-anchor="middle" x="345.5" y="-259" font-family="Helvetica,sans-Serif" font-size="10.00"> &lt; TiffIFDOwner &gt;</text>
</g>
<!-- Node8&#45;&gt;Node3 -->
<g id="edge9" class="edge">
<title>Node8&#45;&gt;Node3</title>
<path fill="none" stroke="#9a32cd" stroke-dasharray="5,2" d="M571.83,-327.32C613.29,-315.37 668.75,-297.92 716,-278 739.33,-268.16 764.92,-253.96 780.97,-244.61"/>
<polygon fill="#9a32cd" stroke="#9a32cd" points="570.8,-323.97 562.14,-330.08 572.72,-330.7 570.8,-323.97"/>
<text text-anchor="middle" x="660" y="-320" font-family="Helvetica,sans-Serif" font-size="10.00"> entries</text>
</g>
<!-- Node9 -->
<g id="node9" class="node">
<title>Node9</title>
<g id="a_node9"><a xlink:title=" ">
<polygon fill="none" stroke="#bfbfbf" points="175.5,-397.5 175.5,-416.5 224.5,-416.5 224.5,-397.5 175.5,-397.5"/>
<text text-anchor="middle" x="200" y="-404.5" font-family="Helvetica,sans-Serif" font-size="10.00">TiffTag</text>
</a>
</g>
</g>
<!-- Node9&#45;&gt;Node1 -->
<g id="edge26" class="edge">
<title>Node9&#45;&gt;Node1</title>
<path fill="none" stroke="#9a32cd" stroke-dasharray="5,2" d="M234.98,-408.2C277.11,-409.27 351.08,-409.76 414,-403 618.95,-380.99 677.01,-373.92 862,-283 906.47,-261.14 953.68,-225.77 975.35,-208.76"/>
<polygon fill="#9a32cd" stroke="#9a32cd" points="234.82,-404.7 224.73,-407.91 234.62,-411.69 234.82,-404.7"/>
<text text-anchor="middle" x="660" y="-380" font-family="Helvetica,sans-Serif" font-size="10.00"> tag</text>
</g>
<!-- Node9&#45;&gt;Node8 -->
<g id="edge11" class="edge">
<title>Node9&#45;&gt;Node8</title>
<path fill="none" stroke="#9a32cd" stroke-dasharray="5,2" d="M234.65,-400.14C247.84,-397.51 263.12,-394.54 277,-392 337.74,-380.91 353.66,-382.06 414,-369 427.53,-366.07 442.04,-362.45 455.51,-358.89"/>
<polygon fill="#9a32cd" stroke="#9a32cd" points="233.7,-396.76 224.59,-402.16 235.08,-403.63 233.7,-396.76"/>
<text text-anchor="middle" x="345.5" y="-395" font-family="Helvetica,sans-Serif" font-size="10.00"> keys</text>
</g>
<!-- Node10&#45;&gt;Node8 -->
<g id="edge12" class="edge">
<title>Node10&#45;&gt;Node8</title>
<path fill="none" stroke="orange" stroke-dasharray="5,2" d="M260.92,-356.07C317.61,-353.3 401.84,-349.19 455.84,-346.55"/>
<polygon fill="orange" stroke="orange" points="260.48,-352.59 250.67,-356.57 260.82,-359.58 260.48,-352.59"/>
<text text-anchor="middle" x="345.5" y="-357" font-family="Helvetica,sans-Serif" font-size="10.00"> &lt; TiffTag, TiffEntryOwner &gt;</text>
</g>
<!-- Node11 -->
<g id="node11" class="node">
<title>Node11</title>
<g id="a_node11"><a xlink:title=" ">
<polygon fill="none" stroke="#bfbfbf" points="13.5,-375.5 13.5,-394.5 42.5,-394.5 42.5,-375.5 13.5,-375.5"/>
<text text-anchor="middle" x="28" y="-382.5" font-family="Helvetica,sans-Serif" font-size="10.00">K</text>
</a>
</g>
</g>
<!-- Node11&#45;&gt;Node10 -->
<g id="edge13" class="edge">
<title>Node11&#45;&gt;Node10</title>
<path fill="none" stroke="#9a32cd" stroke-dasharray="5,2" d="M52.6,-381.39C77.45,-377.59 117.32,-371.49 149.18,-366.62"/>
<polygon fill="#9a32cd" stroke="#9a32cd" points="51.98,-377.94 42.62,-382.92 53.04,-384.86 51.98,-377.94"/>
<text text-anchor="middle" x="98.5" y="-381" font-family="Helvetica,sans-Serif" font-size="10.00"> keys</text>
</g>
<!-- Node12 -->
<g id="node12" class="node">
<title>Node12</title>
<g id="a_node12"><a xlink:href="../../d3/d87/classuint32__t.html" target="_top" xlink:title=" ">
<polygon fill="none" stroke="black" points="0,-121.5 0,-140.5 56,-140.5 56,-121.5 0,-121.5"/>
<text text-anchor="middle" x="28" y="-128.5" font-family="Helvetica,sans-Serif" font-size="10.00">uint32_t</text>
</a>
</g>
</g>
<!-- Node12&#45;&gt;Node1 -->
<g id="edge17" class="edge">
<title>Node12&#45;&gt;Node1</title>
<path fill="none" stroke="#9a32cd" stroke-dasharray="5,2" d="M66.27,-123.02C100.58,-116.38 152.98,-108 199,-108 199,-108 199,-108 799,-108 873.13,-108 948.82,-165.79 976.5,-189.26"/>
<polygon fill="#9a32cd" stroke="#9a32cd" points="65.36,-119.64 56.23,-125.02 66.72,-126.5 65.36,-119.64"/>
<text text-anchor="middle" x="509" y="-111" font-family="Helvetica,sans-Serif" font-size="10.00"> count</text>
</g>
<!-- Node12&#45;&gt;Node3 -->
<g id="edge15" class="edge">
<title>Node12&#45;&gt;Node3</title>
<path fill="none" stroke="#9a32cd" stroke-dasharray="5,2" d="M60.67,-144.31C65.11,-145.98 69.65,-147.6 74,-149 162.46,-177.43 185.51,-182.79 277,-199 447.86,-229.27 654.5,-234.39 747.47,-235.06"/>
<polygon fill="#9a32cd" stroke="#9a32cd" points="61.8,-140.99 51.21,-140.59 59.24,-147.5 61.8,-140.99"/>
<text text-anchor="middle" x="345.5" y="-220" font-family="Helvetica,sans-Serif" font-size="10.00"> nextIFD</text>
</g>
<!-- Node16 -->
<g id="node16" class="node">
<title>Node16</title>
<g id="a_node16"><a xlink:href="../../d3/dca/classrawspeed_1_1_buffer.html" target="_top" xlink:title=" ">
<polygon fill="none" stroke="black" points="150.5,-38.5 150.5,-57.5 249.5,-57.5 249.5,-38.5 150.5,-38.5"/>
<text text-anchor="middle" x="200" y="-45.5" font-family="Helvetica,sans-Serif" font-size="10.00">rawspeed::Buffer</text>
</a>
</g>
</g>
<!-- Node12&#45;&gt;Node16 -->
<g id="edge21" class="edge">
<title>Node12&#45;&gt;Node16</title>
<path fill="none" stroke="#9a32cd" stroke-dasharray="5,2" d="M41.76,-113.15C49.91,-102.95 61.31,-90.7 74,-83 97.12,-68.97 126.03,-60.41 150.22,-55.26"/>
<polygon fill="#9a32cd" stroke="#9a32cd" points="38.74,-111.33 35.48,-121.41 44.32,-115.56 38.74,-111.33"/>
<text text-anchor="middle" x="98.5" y="-86" font-family="Helvetica,sans-Serif" font-size="10.00"> size</text>
</g>
<!-- Node21 -->
<g id="node21" class="node">
<title>Node21</title>
<g id="a_node21"><a xlink:title=" ">
<polygon fill="none" stroke="#bfbfbf" points="456.5,-138 456.5,-168 561.5,-168 561.5,-138 456.5,-138"/>
<text text-anchor="start" x="464.5" y="-156" font-family="Helvetica,sans-Serif" font-size="10.00">std::array&lt; uint32</text>
<text text-anchor="middle" x="509" y="-145" font-family="Helvetica,sans-Serif" font-size="10.00">_t, 14 &gt;</text>
</a>
</g>
</g>
<!-- Node12&#45;&gt;Node21 -->
<g id="edge28" class="edge">
<title>Node12&#45;&gt;Node21</title>
<path fill="none" stroke="#9a32cd" stroke-dasharray="5,2" d="M66.33,-132.71C151.3,-136.62 359.25,-146.17 456.4,-150.63"/>
<polygon fill="#9a32cd" stroke="#9a32cd" points="66.28,-129.21 56.13,-132.25 65.95,-136.2 66.28,-129.21"/>
<text text-anchor="middle" x="200" y="-145" font-family="Helvetica,sans-Serif" font-size="10.00"> elements</text>
</g>
<!-- Node13 -->
<g id="node13" class="node">
<title>Node13</title>
<g id="a_node13"><a xlink:title=" ">
<polygon fill="none" stroke="#bfbfbf" points="494.5,-187.5 494.5,-206.5 523.5,-206.5 523.5,-187.5 494.5,-187.5"/>
<text text-anchor="middle" x="509" y="-194.5" font-family="Helvetica,sans-Serif" font-size="10.00">int</text>
</a>
</g>
</g>
<!-- Node13&#45;&gt;Node3 -->
<g id="edge16" class="edge">
<title>Node13&#45;&gt;Node3</title>
<path fill="none" stroke="#9a32cd" stroke-dasharray="5,2" d="M533.98,-194.12C572.76,-190.15 651.43,-184.97 716,-199 739.76,-204.16 765.05,-216.67 780.92,-225.48"/>
<polygon fill="#9a32cd" stroke="#9a32cd" points="533.27,-190.67 523.71,-195.24 534.03,-197.63 533.27,-190.67"/>
<text text-anchor="middle" x="660" y="-213" font-family="Helvetica,sans-Serif" font-size="10.00"> subIFDCountRecursive</text>
<text text-anchor="middle" x="660" y="-202" font-family="Helvetica,sans-Serif" font-size="10.00">subIFDCount</text>
</g>
<!-- Node14 -->
<g id="node14" class="node">
<title>Node14</title>
<g id="a_node14"><a xlink:href="../../dd/da0/classrawspeed_1_1_byte_stream.html" target="_top" xlink:title=" ">
<polygon fill="none" stroke="black" points="734,-52.5 734,-71.5 862,-71.5 862,-52.5 734,-52.5"/>
<text text-anchor="middle" x="798" y="-59.5" font-family="Helvetica,sans-Serif" font-size="10.00">rawspeed::ByteStream</text>
</a>
</g>
</g>
<!-- Node14&#45;&gt;Node1 -->
<g id="edge18" class="edge">
<title>Node14&#45;&gt;Node1</title>
<path fill="none" stroke="#9a32cd" stroke-dasharray="5,2" d="M872.12,-65.78C887.22,-69.07 902.35,-74.43 915,-83 954.71,-109.91 976.89,-166.58 984.48,-189.29"/>
<polygon fill="#9a32cd" stroke="#9a32cd" points="872.71,-62.33 862.23,-63.9 871.41,-69.21 872.71,-62.33"/>
<text text-anchor="middle" x="897.5" y="-86" font-family="Helvetica,sans-Serif" font-size="10.00"> data</text>
</g>
<!-- Node15 -->
<g id="node15" class="node">
<title>Node15</title>
<g id="a_node15"><a xlink:href="../../d1/dd4/classrawspeed_1_1_data_buffer.html" target="_top" xlink:title=" ">
<polygon fill="none" stroke="black" points="448,-14.5 448,-33.5 570,-33.5 570,-14.5 448,-14.5"/>
<text text-anchor="middle" x="509" y="-21.5" font-family="Helvetica,sans-Serif" font-size="10.00">rawspeed::DataBuffer</text>
</a>
</g>
</g>
<!-- Node15&#45;&gt;Node14 -->
<g id="edge19" class="edge">
<title>Node15&#45;&gt;Node14</title>
<path fill="none" stroke="midnightblue" d="M580.26,-33.3C627.24,-39.52 688.52,-47.64 733.93,-53.65"/>
<polygon fill="midnightblue" stroke="midnightblue" points="580.54,-29.81 570.16,-31.97 579.62,-36.75 580.54,-29.81"/>
</g>
<!-- Node16&#45;&gt;Node15 -->
<g id="edge20" class="edge">
<title>Node16&#45;&gt;Node15</title>
<path fill="none" stroke="midnightblue" d="M259.76,-43.41C313.8,-39.18 393.56,-32.95 447.99,-28.69"/>
<polygon fill="midnightblue" stroke="midnightblue" points="259.34,-39.93 249.65,-44.2 259.89,-46.91 259.34,-39.93"/>
</g>
<!-- Node17 -->
<g id="node17" class="node">
<title>Node17</title>
<g id="a_node17"><a xlink:title=" ">
<polygon fill="none" stroke="#bfbfbf" points="9,-38.5 9,-57.5 47,-57.5 47,-38.5 9,-38.5"/>
<text text-anchor="middle" x="28" y="-45.5" font-family="Helvetica,sans-Serif" font-size="10.00">bool</text>
</a>
</g>
</g>
<!-- Node17&#45;&gt;Node16 -->
<g id="edge22" class="edge">
<title>Node17&#45;&gt;Node16</title>
<path fill="none" stroke="#9a32cd" stroke-dasharray="5,2" d="M57.22,-48C82.52,-48 120.18,-48 150.33,-48"/>
<polygon fill="#9a32cd" stroke="#9a32cd" points="57.19,-44.5 47.19,-48 57.19,-51.5 57.19,-44.5"/>
<text text-anchor="middle" x="98.5" y="-51" font-family="Helvetica,sans-Serif" font-size="10.00"> isOwner</text>
</g>
<!-- Node18 -->
<g id="node18" class="node">
<title>Node18</title>
<g id="a_node18"><a xlink:title=" ">
<polygon fill="none" stroke="#bfbfbf" points="3,-0.5 3,-19.5 53,-19.5 53,-0.5 3,-0.5"/>
<text text-anchor="middle" x="28" y="-7.5" font-family="Helvetica,sans-Serif" font-size="10.00">uint8_t</text>
</a>
</g>
</g>
<!-- Node18&#45;&gt;Node16 -->
<g id="edge23" class="edge">
<title>Node18&#45;&gt;Node16</title>
<path fill="none" stroke="#9a32cd" stroke-dasharray="5,2" d="M63.43,-17.7C90.23,-23.69 127.58,-32.04 156.29,-38.45"/>
<polygon fill="#9a32cd" stroke="#9a32cd" points="63.88,-14.21 53.36,-15.44 62.35,-21.04 63.88,-14.21"/>
<text text-anchor="middle" x="98.5" y="-34" font-family="Helvetica,sans-Serif" font-size="10.00"> data</text>
</g>
<!-- Node19 -->
<g id="node19" class="node">
<title>Node19</title>
<g id="a_node19"><a xlink:title=" ">
<polygon fill="none" stroke="#bfbfbf" points="164,-0.5 164,-19.5 236,-19.5 236,-0.5 164,-0.5"/>
<text text-anchor="middle" x="200" y="-7.5" font-family="Helvetica,sans-Serif" font-size="10.00">Endianness</text>
</a>
</g>
</g>
<!-- Node19&#45;&gt;Node15 -->
<g id="edge24" class="edge">
<title>Node19&#45;&gt;Node15</title>
<path fill="none" stroke="#9a32cd" stroke-dasharray="5,2" d="M246.24,-10.94C289.38,-11.97 356.15,-13.9 414,-17 424.95,-17.59 436.6,-18.35 447.85,-19.15"/>
<polygon fill="#9a32cd" stroke="#9a32cd" points="246.15,-7.44 236.07,-10.71 245.99,-14.44 246.15,-7.44"/>
<text text-anchor="middle" x="345.5" y="-20" font-family="Helvetica,sans-Serif" font-size="10.00"> endianness</text>
</g>
<!-- Node20 -->
<g id="node20" class="node">
<title>Node20</title>
<g id="a_node20"><a xlink:title=" ">
<polygon fill="none" stroke="#bfbfbf" points="477.5,-52.5 477.5,-71.5 540.5,-71.5 540.5,-52.5 477.5,-52.5"/>
<text text-anchor="middle" x="509" y="-59.5" font-family="Helvetica,sans-Serif" font-size="10.00">size_type</text>
</a>
</g>
</g>
<!-- Node20&#45;&gt;Node14 -->
<g id="edge25" class="edge">
<title>Node20&#45;&gt;Node14</title>
<path fill="none" stroke="#9a32cd" stroke-dasharray="5,2" d="M550.97,-62C598.7,-62 678.08,-62 733.74,-62"/>
<polygon fill="#9a32cd" stroke="#9a32cd" points="550.71,-58.5 540.71,-62 550.71,-65.5 550.71,-58.5"/>
<text text-anchor="middle" x="660" y="-65" font-family="Helvetica,sans-Serif" font-size="10.00"> pos</text>
</g>
<!-- Node21&#45;&gt;Node1 -->
<g id="edge27" class="edge">
<title>Node21&#45;&gt;Node1</title>
<path fill="none" stroke="#9a32cd" stroke-dasharray="5,2" d="M571.77,-158.95C665.78,-168.01 843.3,-185.11 932.87,-193.74"/>
<polygon fill="#9a32cd" stroke="#9a32cd" points="571.84,-155.44 561.55,-157.97 571.17,-162.41 571.84,-155.44"/>
<text text-anchor="middle" x="798" y="-190" font-family="Helvetica,sans-Serif" font-size="10.00"> datashifts</text>
</g>
<!-- Node22&#45;&gt;Node21 -->
<g id="edge29" class="edge">
<title>Node22&#45;&gt;Node21</title>
<path fill="none" stroke="orange" stroke-dasharray="5,2" d="M218.4,-227.93C232.86,-214.81 254.62,-197.38 277,-188 293.2,-181.21 393.27,-167.58 456.27,-159.48"/>
<polygon fill="orange" stroke="orange" points="215.69,-225.68 210.78,-235.07 220.47,-230.79 215.69,-225.68"/>
<text text-anchor="middle" x="345.5" y="-191" font-family="Helvetica,sans-Serif" font-size="10.00"> &lt; uint32_t, 14 &gt;</text>
</g>
</g>
</svg>
