<?xml version="1.0" encoding="UTF-8" standalone="no"?>
<!DOCTYPE svg PUBLIC "-//W3C//DTD SVG 1.1//EN"
 "http://www.w3.org/Graphics/SVG/1.1/DTD/svg11.dtd">
<!-- Generated by graphviz version 2.43.0 (0)
 -->
<!-- Title: rawspeed_test::DummyHuffmanTableTest Pages: 1 -->
<svg width="531pt" height="330pt"
 viewBox="0.00 0.00 531.00 330.00" xmlns="http://www.w3.org/2000/svg" xmlns:xlink="http://www.w3.org/1999/xlink">
<g id="graph0" class="graph" transform="scale(1 1) rotate(0) translate(4 326)">
<title>rawspeed_test::DummyHuffmanTableTest</title>
<!-- Node1 -->
<g id="node1" class="node">
<title>Node1</title>
<g id="a_node1"><a xlink:title=" ">
<polygon fill="#bfbfbf" stroke="black" points="289.5,-0.5 289.5,-30.5 464.5,-30.5 464.5,-0.5 289.5,-0.5"/>
<text text-anchor="start" x="297.5" y="-18.5" font-family="Helvetica,sans-Serif" font-size="10.00">rawspeed_test::DummyHuffman</text>
<text text-anchor="middle" x="377" y="-7.5" font-family="Helvetica,sans-Serif" font-size="10.00">TableTest</text>
</a>
</g>
</g>
<!-- Node2 -->
<g id="node2" class="node">
<title>Node2</title>
<g id="a_node2"><a xlink:href="../../d8/d1c/classrawspeed_1_1_abstract_huffman_table.html" target="_top" xlink:title=" ">
<polygon fill="none" stroke="black" points="235,-68.5 235,-98.5 387,-98.5 387,-68.5 235,-68.5"/>
<text text-anchor="start" x="243" y="-86.5" font-family="Helvetica,sans-Serif" font-size="10.00">rawspeed::AbstractHuffman</text>
<text text-anchor="middle" x="311" y="-75.5" font-family="Helvetica,sans-Serif" font-size="10.00">Table</text>
</a>
</g>
</g>
<!-- Node2&#45;&gt;Node1 -->
<g id="edge1" class="edge">
<title>Node2&#45;&gt;Node1</title>
<path fill="none" stroke="midnightblue" d="M332.51,-60.99C342.41,-51.09 353.89,-39.61 362.71,-30.79"/>
<polygon fill="midnightblue" stroke="midnightblue" points="329.92,-58.63 325.32,-68.18 334.87,-63.58 329.92,-58.63"/>
</g>
<!-- Node3 -->
<g id="node3" class="node">
<title>Node3</title>
<g id="a_node3"><a xlink:title=" ">
<polygon fill="none" stroke="#bfbfbf" points="0,-163 0,-182 46,-182 46,-163 0,-163"/>
<text text-anchor="middle" x="23" y="-170" font-family="Helvetica,sans-Serif" font-size="10.00">return</text>
</a>
</g>
</g>
<!-- Node3&#45;&gt;Node2 -->
<g id="edge2" class="edge">
<title>Node3&#45;&gt;Node2</title>
<path fill="none" stroke="#9a32cd" stroke-dasharray="5,2" d="M47.49,-157.9C70.68,-145.56 106.78,-127.71 140,-117 170.34,-107.22 204.72,-99.98 234.65,-94.85"/>
<polygon fill="#9a32cd" stroke="#9a32cd" points="45.53,-154.98 38.39,-162.81 48.86,-161.14 45.53,-154.98"/>
<text text-anchor="middle" x="148.5" y="-125.5" font-family="Helvetica,sans-Serif" font-size="10.00"> ret</text>
</g>
<!-- Node4 -->
<g id="node4" class="node">
<title>Node4</title>
<g id="a_node4"><a xlink:title=" ">
<polygon fill="none" stroke="#bfbfbf" points="64.5,-163 64.5,-182 189.5,-182 189.5,-163 64.5,-163"/>
<text text-anchor="middle" x="127" y="-170" font-family="Helvetica,sans-Serif" font-size="10.00">std::vector&lt; uint8_t &gt;</text>
</a>
</g>
</g>
<!-- Node4&#45;&gt;Node2 -->
<g id="edge3" class="edge">
<title>Node4&#45;&gt;Node2</title>
<path fill="none" stroke="#9a32cd" stroke-dasharray="5,2" d="M141.85,-155.47C153.98,-143.27 172.15,-126.93 191,-117 205.7,-109.25 222.42,-103.23 238.6,-98.58"/>
<polygon fill="#9a32cd" stroke="#9a32cd" points="139.22,-153.15 134.8,-162.78 144.26,-158.01 139.22,-153.15"/>
<text text-anchor="middle" x="220.5" y="-125.5" font-family="Helvetica,sans-Serif" font-size="10.00"> codeValues</text>
</g>
<!-- Node5 -->
<g id="node5" class="node">
<title>Node5</title>
<g id="a_node5"><a xlink:title=" ">
<polygon fill="none" stroke="#bfbfbf" points="90,-235.5 90,-254.5 140,-254.5 140,-235.5 90,-235.5"/>
<text text-anchor="middle" x="115" y="-242.5" font-family="Helvetica,sans-Serif" font-size="10.00">uint8_t</text>
</a>
</g>
</g>
<!-- Node5&#45;&gt;Node4 -->
<g id="edge4" class="edge">
<title>Node5&#45;&gt;Node4</title>
<path fill="none" stroke="#9a32cd" stroke-dasharray="5,2" d="M114.38,-225.38C114.47,-219.18 114.89,-212.25 116,-206 117.48,-197.67 120.71,-188.58 123.28,-182.14"/>
<polygon fill="#9a32cd" stroke="#9a32cd" points="110.88,-225.52 114.5,-235.47 117.88,-225.43 110.88,-225.52"/>
<text text-anchor="middle" x="140.5" y="-209" font-family="Helvetica,sans-Serif" font-size="10.00"> elements</text>
</g>
<!-- Node6 -->
<g id="node6" class="node">
<title>Node6</title>
<g id="a_node6"><a xlink:title="STL class.">
<polygon fill="none" stroke="#bfbfbf" points="190.5,-235.5 190.5,-254.5 287.5,-254.5 287.5,-235.5 190.5,-235.5"/>
<text text-anchor="middle" x="239" y="-242.5" font-family="Helvetica,sans-Serif" font-size="10.00">std::vector&lt; T &gt;</text>
</a>
</g>
</g>
<!-- Node6&#45;&gt;Node4 -->
<g id="edge5" class="edge">
<title>Node6&#45;&gt;Node4</title>
<path fill="none" stroke="orange" stroke-dasharray="5,2" d="M212.3,-230.72C204.36,-226.54 195.72,-221.77 188,-217 170.07,-205.93 150.41,-191.45 138.38,-182.31"/>
<polygon fill="orange" stroke="orange" points="210.72,-233.84 221.21,-235.31 213.93,-227.62 210.72,-233.84"/>
<text text-anchor="middle" x="218" y="-209" font-family="Helvetica,sans-Serif" font-size="10.00"> &lt; uint8_t &gt;</text>
</g>
<!-- Node10 -->
<g id="node10" class="node">
<title>Node10</title>
<g id="a_node10"><a xlink:title=" ">
<polygon fill="none" stroke="#bfbfbf" points="208,-157.5 208,-187.5 332,-187.5 332,-157.5 208,-157.5"/>
<text text-anchor="start" x="216" y="-175.5" font-family="Helvetica,sans-Serif" font-size="10.00">std::vector&lt; unsigned</text>
<text text-anchor="middle" x="270" y="-164.5" font-family="Helvetica,sans-Serif" font-size="10.00"> int &gt;</text>
</a>
</g>
</g>
<!-- Node6&#45;&gt;Node10 -->
<g id="edge11" class="edge">
<title>Node6&#45;&gt;Node10</title>
<path fill="none" stroke="orange" stroke-dasharray="5,2" d="M246.93,-225.96C252.18,-214.03 258.96,-198.61 263.81,-187.58"/>
<polygon fill="orange" stroke="orange" points="243.62,-224.79 242.8,-235.36 250.03,-227.61 243.62,-224.79"/>
<text text-anchor="middle" x="299" y="-209" font-family="Helvetica,sans-Serif" font-size="10.00"> &lt; unsigned int &gt;</text>
</g>
<!-- Node7 -->
<g id="node7" class="node">
<title>Node7</title>
<g id="a_node7"><a xlink:title=" ">
<polygon fill="none" stroke="#bfbfbf" points="224.5,-302.5 224.5,-321.5 253.5,-321.5 253.5,-302.5 224.5,-302.5"/>
<text text-anchor="middle" x="239" y="-309.5" font-family="Helvetica,sans-Serif" font-size="10.00">T</text>
</a>
</g>
</g>
<!-- Node7&#45;&gt;Node6 -->
<g id="edge6" class="edge">
<title>Node7&#45;&gt;Node6</title>
<path fill="none" stroke="#9a32cd" stroke-dasharray="5,2" d="M239,-292.04C239,-279.67 239,-264.12 239,-254.63"/>
<polygon fill="#9a32cd" stroke="#9a32cd" points="235.5,-292.23 239,-302.23 242.5,-292.23 235.5,-292.23"/>
<text text-anchor="middle" x="263.5" y="-276" font-family="Helvetica,sans-Serif" font-size="10.00"> elements</text>
</g>
<!-- Node8 -->
<g id="node8" class="node">
<title>Node8</title>
<g id="a_node8"><a xlink:title=" ">
<polygon fill="none" stroke="#bfbfbf" points="400.5,-235.5 400.5,-254.5 429.5,-254.5 429.5,-235.5 400.5,-235.5"/>
<text text-anchor="middle" x="415" y="-242.5" font-family="Helvetica,sans-Serif" font-size="10.00">int</text>
</a>
</g>
</g>
<!-- Node8&#45;&gt;Node2 -->
<g id="edge7" class="edge">
<title>Node8&#45;&gt;Node2</title>
<path fill="none" stroke="#9a32cd" stroke-dasharray="5,2" d="M423.73,-225.9C435.2,-199.19 451.22,-148.94 427,-117 421.34,-109.54 405.47,-103.33 387.2,-98.4"/>
<polygon fill="#9a32cd" stroke="#9a32cd" points="420.45,-224.64 419.51,-235.19 426.83,-227.54 420.45,-224.64"/>
<text text-anchor="middle" x="448.5" y="-170" font-family="Helvetica,sans-Serif" font-size="10.00"> len</text>
</g>
<!-- Node8&#45;&gt;Node10 -->
<g id="edge10" class="edge">
<title>Node8&#45;&gt;Node10</title>
<path fill="none" stroke="#9a32cd" stroke-dasharray="5,2" d="M391.53,-230.31C378.32,-222.81 361.43,-213.53 346,-206 332.71,-199.52 317.82,-192.99 304.76,-187.51"/>
<polygon fill="#9a32cd" stroke="#9a32cd" points="390,-233.48 400.42,-235.42 393.49,-227.4 390,-233.48"/>
<text text-anchor="middle" x="392.5" y="-209" font-family="Helvetica,sans-Serif" font-size="10.00"> elements</text>
</g>
<!-- Node9 -->
<g id="node9" class="node">
<title>Node9</title>
<g id="a_node9"><a xlink:title=" ">
<polygon fill="none" stroke="#bfbfbf" points="350,-163 350,-182 388,-182 388,-163 350,-163"/>
<text text-anchor="middle" x="369" y="-170" font-family="Helvetica,sans-Serif" font-size="10.00">bool</text>
</a>
</g>
</g>
<!-- Node9&#45;&gt;Node2 -->
<g id="edge8" class="edge">
<title>Node9&#45;&gt;Node2</title>
<path fill="none" stroke="#9a32cd" stroke-dasharray="5,2" d="M363.06,-153.36C358.96,-142.29 352.83,-128.16 345,-117 340.31,-110.31 334.1,-103.89 328.27,-98.55"/>
<polygon fill="#9a32cd" stroke="#9a32cd" points="359.77,-154.55 366.37,-162.84 366.38,-152.25 359.77,-154.55"/>
<text text-anchor="middle" x="390" y="-131" font-family="Helvetica,sans-Serif" font-size="10.00"> fullDecode</text>
<text text-anchor="middle" x="390" y="-120" font-family="Helvetica,sans-Serif" font-size="10.00">fixDNGBug16</text>
</g>
<!-- Node10&#45;&gt;Node2 -->
<g id="edge9" class="edge">
<title>Node10&#45;&gt;Node2</title>
<path fill="none" stroke="#9a32cd" stroke-dasharray="5,2" d="M257.1,-147.9C253.42,-137.89 251.69,-126.4 257,-117 261.31,-109.38 268.2,-103.35 275.63,-98.66"/>
<polygon fill="#9a32cd" stroke="#9a32cd" points="253.99,-149.54 261.23,-157.28 260.4,-146.71 253.99,-149.54"/>
<text text-anchor="middle" x="301" y="-125.5" font-family="Helvetica,sans-Serif" font-size="10.00"> nCodesPerLength</text>
</g>
<!-- Node11 -->
<g id="node11" class="node">
<title>Node11</title>
<g id="a_node11"><a xlink:title=" ">
<polygon fill="none" stroke="#bfbfbf" points="485,-163 485,-182 523,-182 523,-163 485,-163"/>
<text text-anchor="middle" x="504" y="-170" font-family="Helvetica,sans-Serif" font-size="10.00">auto</text>
</a>
</g>
</g>
<!-- Node11&#45;&gt;Node2 -->
<g id="edge12" class="edge">
<title>Node11&#45;&gt;Node2</title>
<path fill="none" stroke="#9a32cd" stroke-dasharray="5,2" d="M494.97,-154.1C487.7,-141.84 476.35,-126.06 462,-117 455.17,-112.69 421.31,-105.23 387.39,-98.55"/>
<polygon fill="#9a32cd" stroke="#9a32cd" points="491.99,-155.93 499.9,-162.98 498.11,-152.54 491.99,-155.93"/>
<text text-anchor="middle" x="492.5" y="-125.5" font-family="Helvetica,sans-Serif" font-size="10.00"> ret</text>
</g>
<!-- Node12 -->
<g id="node12" class="node">
<title>Node12</title>
<g id="a_node12"><a xlink:title=" ">
<polygon fill="none" stroke="#bfbfbf" points="405,-74 405,-93 481,-93 481,-74 405,-74"/>
<text text-anchor="middle" x="443" y="-81" font-family="Helvetica,sans-Serif" font-size="10.00">testing::Test</text>
</a>
</g>
</g>
<!-- Node12&#45;&gt;Node1 -->
<g id="edge13" class="edge">
<title>Node12&#45;&gt;Node1</title>
<path fill="none" stroke="midnightblue" d="M427.12,-66.62C416.17,-55.67 401.74,-41.24 391.18,-30.68"/>
<polygon fill="midnightblue" stroke="midnightblue" points="424.83,-69.28 434.37,-73.87 429.78,-64.33 424.83,-69.28"/>
</g>
</g>
</svg>
