<?xml version="1.0" encoding="UTF-8" standalone="no"?>
<!DOCTYPE svg PUBLIC "-//W3C//DTD SVG 1.1//EN"
 "http://www.w3.org/Graphics/SVG/1.1/DTD/svg11.dtd">
<!-- Generated by graphviz version 2.43.0 (0)
 -->
<!-- Title: librawspeed/tiff/CiffEntry.h Pages: 1 -->
<!--zoomable 229 -->
<svg id="main" version="1.1" xmlns="http://www.w3.org/2000/svg" xmlns:xlink="http://www.w3.org/1999/xlink" xml:space="preserve" onload="init(evt)">
<style type="text/css"><![CDATA[
.edge:hover path { stroke: red; }
.edge:hover polygon { stroke: red; fill: red; }
]]></style>
<script type="text/javascript"><![CDATA[
var edges = document.getElementsByTagName('g');
if (edges && edges.length) {
  for (var i=0;i<edges.length;i++) {
    if (edges[i].id.substr(0,4)=='edge') {
      edges[i].setAttribute('class','edge');
    }
  }
}
]]></script>
        <defs>
                <circle id="rim" cx="0" cy="0" r="7"/>
                <circle id="rim2" cx="0" cy="0" r="3.5"/>
                <g id="zoomPlus">
                        <use xlink:href="#rim" fill="#404040">
                                <set attributeName="fill" to="#808080" begin="zoomplus.mouseover" end="zoomplus.mouseout"/>
                        </use>
                        <path d="M-4,0h8M0,-4v8" fill="none" stroke="white" stroke-width="1.5" pointer-events="none"/>
                </g>
                <g id="zoomMin">
                        <use xlink:href="#rim" fill="#404040">
                                <set attributeName="fill" to="#808080" begin="zoomminus.mouseover" end="zoomminus.mouseout"/>
                        </use>
                        <path d="M-4,0h8" fill="none" stroke="white" stroke-width="1.5" pointer-events="none"/>
                </g>
                <g id="dirArrow">
                        <path fill="none" stroke="white" stroke-width="1.5" d="M0,-3.0v7 M-2.5,-0.5L0,-3.0L2.5,-0.5"/>
                </g>
               <g id="resetDef">
                       <use xlink:href="#rim2" fill="#404040">
                               <set attributeName="fill" to="#808080" begin="reset.mouseover" end="reset.mouseout"/>
                       </use>
               </g>
        </defs>

<script type="text/javascript">
var viewWidth = 666;
var viewHeight = 229;
var sectionId = 'dynsection-1';
</script>
<script xlink:href="../../svgpan.js"/>
<svg id="graph" class="graph">
<g id="viewport">
<title>librawspeed/tiff/CiffEntry.h</title>
<!-- Node1 -->
<g id="node1" class="node">
<title>Node1</title>
<g id="a_node1"><a xlink:title=" ">
<polygon fill="#bfbfbf" stroke="black" points="322,-201.5 322,-220.5 467,-220.5 467,-201.5 322,-201.5"/>
<text text-anchor="middle" x="394.5" y="-208.5" font-family="Helvetica,sans-Serif" font-size="10.00">librawspeed/tiff/CiffEntry.h</text>
</a>
</g>
</g>
<!-- Node2 -->
<g id="node2" class="node">
<title>Node2</title>
<g id="a_node2"><a xlink:href="../../d0/dc9/_crw_decoder_8cpp.html" target="_top" xlink:title=" ">
<polygon fill="none" stroke="black" points="0,-6 0,-36 123,-36 123,-6 0,-6"/>
<text text-anchor="start" x="8" y="-24" font-family="Helvetica,sans-Serif" font-size="10.00">librawspeed/decoders</text>
<text text-anchor="middle" x="61.5" y="-13" font-family="Helvetica,sans-Serif" font-size="10.00">/CrwDecoder.cpp</text>
</a>
</g>
</g>
<!-- Node1&#45;&gt;Node2 -->
<g id="edge1" class="edge">
<title>Node1&#45;&gt;Node2</title>
<path fill="none" stroke="midnightblue" d="M328.49,-199.79C240.27,-184.6 91.42,-153.04 60.5,-109 45.31,-87.36 51.36,-54.65 56.7,-36.12"/>
<polygon fill="midnightblue" stroke="midnightblue" points="327.96,-203.25 338.4,-201.47 329.13,-196.35 327.96,-203.25"/>
</g>
<!-- Node3 -->
<g id="node3" class="node">
<title>Node3</title>
<g id="a_node3"><a xlink:href="../../d8/dd4/_ciff_i_f_d_8h.html" target="_top" xlink:title=" ">
<polygon fill="none" stroke="black" points="224,-145.5 224,-164.5 361,-164.5 361,-145.5 224,-145.5"/>
<text text-anchor="middle" x="292.5" y="-152.5" font-family="Helvetica,sans-Serif" font-size="10.00">librawspeed/tiff/CiffIFD.h</text>
</a>
</g>
</g>
<!-- Node1&#45;&gt;Node3 -->
<g id="edge2" class="edge">
<title>Node1&#45;&gt;Node3</title>
<path fill="none" stroke="midnightblue" d="M369.17,-196.59C350.31,-186.61 325.12,-173.27 308.85,-164.65"/>
<polygon fill="midnightblue" stroke="midnightblue" points="367.64,-199.74 378.11,-201.32 370.91,-193.55 367.64,-199.74"/>
</g>
<!-- Node6 -->
<g id="node6" class="node">
<title>Node6</title>
<g id="a_node6"><a xlink:href="../../d9/dec/_ciff_parser_8cpp.html" target="_top" xlink:title=" ">
<polygon fill="none" stroke="black" points="228,-6 228,-36 343,-36 343,-6 228,-6"/>
<text text-anchor="start" x="236" y="-24" font-family="Helvetica,sans-Serif" font-size="10.00">librawspeed/parsers</text>
<text text-anchor="middle" x="285.5" y="-13" font-family="Helvetica,sans-Serif" font-size="10.00">/CiffParser.cpp</text>
</a>
</g>
</g>
<!-- Node1&#45;&gt;Node6 -->
<g id="edge13" class="edge">
<title>Node1&#45;&gt;Node6</title>
<path fill="none" stroke="midnightblue" d="M406.6,-192.84C423.83,-166.08 450.8,-113.79 426.5,-78 407.86,-50.54 373.41,-36.55 343.23,-29.41"/>
<polygon fill="midnightblue" stroke="midnightblue" points="403.48,-191.21 400.81,-201.46 409.29,-195.11 403.48,-191.21"/>
</g>
<!-- Node10 -->
<g id="node10" class="node">
<title>Node10</title>
<g id="a_node10"><a xlink:href="../../d2/dbc/_ciff_entry_8cpp.html" target="_top" xlink:title=" ">
<polygon fill="none" stroke="black" points="473.5,-145.5 473.5,-164.5 629.5,-164.5 629.5,-145.5 473.5,-145.5"/>
<text text-anchor="middle" x="551.5" y="-152.5" font-family="Helvetica,sans-Serif" font-size="10.00">librawspeed/tiff/CiffEntry.cpp</text>
</a>
</g>
</g>
<!-- Node1&#45;&gt;Node10 -->
<g id="edge14" class="edge">
<title>Node1&#45;&gt;Node10</title>
<path fill="none" stroke="midnightblue" d="M428.89,-198.17C458.45,-188 500.37,-173.59 526.74,-164.52"/>
<polygon fill="midnightblue" stroke="midnightblue" points="427.7,-194.88 419.38,-201.44 429.97,-201.5 427.7,-194.88"/>
</g>
<!-- Node3&#45;&gt;Node2 -->
<g id="edge7" class="edge">
<title>Node3&#45;&gt;Node2</title>
<path fill="none" stroke="midnightblue" d="M213.74,-146.04C161.88,-139.19 100.24,-127.44 81.5,-109 61.95,-89.76 59.87,-55.53 60.45,-36.24"/>
<polygon fill="midnightblue" stroke="midnightblue" points="213.6,-149.55 223.96,-147.35 214.48,-142.61 213.6,-149.55"/>
</g>
<!-- Node4 -->
<g id="node4" class="node">
<title>Node4</title>
<g id="a_node4"><a xlink:href="../../dd/d2d/_ciff_parser_8h.html" target="_top" xlink:title=" ">
<polygon fill="none" stroke="black" points="474,-78.5 474,-108.5 589,-108.5 589,-78.5 474,-78.5"/>
<text text-anchor="start" x="482" y="-96.5" font-family="Helvetica,sans-Serif" font-size="10.00">librawspeed/parsers</text>
<text text-anchor="middle" x="531.5" y="-85.5" font-family="Helvetica,sans-Serif" font-size="10.00">/CiffParser.h</text>
</a>
</g>
</g>
<!-- Node3&#45;&gt;Node4 -->
<g id="edge3" class="edge">
<title>Node3&#45;&gt;Node4</title>
<path fill="none" stroke="midnightblue" d="M336.75,-142.98C375.79,-133.27 432.89,-119.05 475.17,-108.52"/>
<polygon fill="midnightblue" stroke="midnightblue" points="335.6,-139.66 326.74,-145.48 337.29,-146.46 335.6,-139.66"/>
</g>
<!-- Node3&#45;&gt;Node6 -->
<g id="edge11" class="edge">
<title>Node3&#45;&gt;Node6</title>
<path fill="none" stroke="midnightblue" d="M277.05,-137.55C270.6,-129.57 263.84,-119.46 260.5,-109 252.37,-83.55 266.06,-53.54 276.18,-36.24"/>
<polygon fill="midnightblue" stroke="midnightblue" points="274.56,-140.02 283.75,-145.29 279.85,-135.44 274.56,-140.02"/>
</g>
<!-- Node8 -->
<g id="node8" class="node">
<title>Node8</title>
<g id="a_node8"><a xlink:href="../../da/d51/_crw_decoder_8h.html" target="_top" xlink:title=" ">
<polygon fill="none" stroke="black" points="90,-78.5 90,-108.5 213,-108.5 213,-78.5 90,-78.5"/>
<text text-anchor="start" x="98" y="-96.5" font-family="Helvetica,sans-Serif" font-size="10.00">librawspeed/decoders</text>
<text text-anchor="middle" x="151.5" y="-85.5" font-family="Helvetica,sans-Serif" font-size="10.00">/CrwDecoder.h</text>
</a>
</g>
</g>
<!-- Node3&#45;&gt;Node8 -->
<g id="edge8" class="edge">
<title>Node3&#45;&gt;Node8</title>
<path fill="none" stroke="midnightblue" d="M262.78,-141.46C239.95,-131.82 208.4,-118.51 184.73,-108.52"/>
<polygon fill="midnightblue" stroke="midnightblue" points="261.72,-144.81 272.3,-145.48 264.45,-138.36 261.72,-144.81"/>
</g>
<!-- Node9 -->
<g id="node9" class="node">
<title>Node9</title>
<g id="a_node9"><a xlink:href="../../dc/d18/_ciff_i_f_d_8cpp.html" target="_top" xlink:title=" ">
<polygon fill="none" stroke="black" points="269.5,-84 269.5,-103 417.5,-103 417.5,-84 269.5,-84"/>
<text text-anchor="middle" x="343.5" y="-91" font-family="Helvetica,sans-Serif" font-size="10.00">librawspeed/tiff/CiffIFD.cpp</text>
</a>
</g>
</g>
<!-- Node3&#45;&gt;Node9 -->
<g id="edge12" class="edge">
<title>Node3&#45;&gt;Node9</title>
<path fill="none" stroke="midnightblue" d="M306.5,-137.67C316.11,-126.45 328.49,-112.02 336.21,-103.01"/>
<polygon fill="midnightblue" stroke="midnightblue" points="303.66,-135.6 299.81,-145.48 308.97,-140.16 303.66,-135.6"/>
</g>
<!-- Node5 -->
<g id="node5" class="node">
<title>Node5</title>
<g id="a_node5"><a xlink:href="../../d1/d26/fuzz_2librawspeed_2parsers_2main_8cpp.html" target="_top" xlink:title=" ">
<polygon fill="none" stroke="black" points="539.5,-0.5 539.5,-41.5 657.5,-41.5 657.5,-0.5 539.5,-0.5"/>
<text text-anchor="start" x="547.5" y="-29.5" font-family="Helvetica,sans-Serif" font-size="10.00">/build/rawspeed/fuzz</text>
<text text-anchor="start" x="547.5" y="-18.5" font-family="Helvetica,sans-Serif" font-size="10.00">/librawspeed/parsers</text>
<text text-anchor="middle" x="598.5" y="-7.5" font-family="Helvetica,sans-Serif" font-size="10.00">/main.cpp</text>
</a>
</g>
</g>
<!-- Node4&#45;&gt;Node5 -->
<g id="edge4" class="edge">
<title>Node4&#45;&gt;Node5</title>
<path fill="none" stroke="midnightblue" d="M552.1,-70.82C560.97,-61.49 571.25,-50.67 579.88,-41.59"/>
<polygon fill="midnightblue" stroke="midnightblue" points="549.41,-68.57 545.06,-78.23 554.48,-73.4 549.41,-68.57"/>
</g>
<!-- Node4&#45;&gt;Node6 -->
<g id="edge5" class="edge">
<title>Node4&#45;&gt;Node6</title>
<path fill="none" stroke="midnightblue" d="M472.76,-75.66C430.63,-63.59 374.51,-47.51 334.72,-36.11"/>
<polygon fill="midnightblue" stroke="midnightblue" points="472.03,-79.1 482.6,-78.49 473.96,-72.37 472.03,-79.1"/>
</g>
<!-- Node7 -->
<g id="node7" class="node">
<title>Node7</title>
<g id="a_node7"><a xlink:href="../../dc/d4a/_raw_parser_8cpp.html" target="_top" xlink:title=" ">
<polygon fill="none" stroke="black" points="406,-6 406,-36 521,-36 521,-6 406,-6"/>
<text text-anchor="start" x="414" y="-24" font-family="Helvetica,sans-Serif" font-size="10.00">librawspeed/parsers</text>
<text text-anchor="middle" x="463.5" y="-13" font-family="Helvetica,sans-Serif" font-size="10.00">/RawParser.cpp</text>
</a>
</g>
</g>
<!-- Node4&#45;&gt;Node7 -->
<g id="edge6" class="edge">
<title>Node4&#45;&gt;Node7</title>
<path fill="none" stroke="midnightblue" d="M510.63,-70.86C499.78,-59.61 486.82,-46.18 477.24,-36.25"/>
<polygon fill="midnightblue" stroke="midnightblue" points="508.28,-73.47 517.74,-78.23 513.32,-68.61 508.28,-73.47"/>
</g>
<!-- Node8&#45;&gt;Node2 -->
<g id="edge9" class="edge">
<title>Node8&#45;&gt;Node2</title>
<path fill="none" stroke="midnightblue" d="M125.06,-71.79C110.35,-60.27 92.44,-46.23 79.38,-36"/>
<polygon fill="midnightblue" stroke="midnightblue" points="123.26,-74.82 133.29,-78.23 127.57,-69.31 123.26,-74.82"/>
</g>
<!-- Node8&#45;&gt;Node6 -->
<g id="edge10" class="edge">
<title>Node8&#45;&gt;Node6</title>
<path fill="none" stroke="midnightblue" d="M187.2,-73.72C209.68,-61.89 238.22,-46.87 258.75,-36.07"/>
<polygon fill="midnightblue" stroke="midnightblue" points="185.52,-70.65 178.29,-78.4 188.77,-76.84 185.52,-70.65"/>
</g>
</g>
</svg>
        <g id="navigator" transform="translate(0 0)" fill="#404254">
                <rect fill="#f2f5e9" fill-opacity="0.5" stroke="#606060" stroke-width=".5" x="0" y="0" width="60" height="60"/>
                <use id="zoomplus" xlink:href="#zoomPlus" x="17" y="9" onmousedown="handleZoom(evt,'in')"/>
                <use id="zoomminus" xlink:href="#zoomMin" x="42" y="9" onmousedown="handleZoom(evt,'out')"/>
                <use id="reset" xlink:href="#resetDef" x="30" y="36" onmousedown="handleReset()"/>
                <g id="arrowUp" xlink:href="#dirArrow" transform="translate(30 24)" onmousedown="handlePan(0,-1)">
                  <use xlink:href="#rim" fill="#404040">
                        <set attributeName="fill" to="#808080" begin="arrowUp.mouseover" end="arrowUp.mouseout"/>
                  </use>
                  <path fill="none" stroke="white" stroke-width="1.5" d="M0,-3.0v7 M-2.5,-0.5L0,-3.0L2.5,-0.5"/>
                </g>
                <g id="arrowRight" xlink:href="#dirArrow" transform="rotate(90) translate(36 -43)" onmousedown="handlePan(1,0)">
                  <use xlink:href="#rim" fill="#404040">
                        <set attributeName="fill" to="#808080" begin="arrowRight.mouseover" end="arrowRight.mouseout"/>
                  </use>
                  <path fill="none" stroke="white" stroke-width="1.5" d="M0,-3.0v7 M-2.5,-0.5L0,-3.0L2.5,-0.5"/>
                </g>
                <g id="arrowDown" xlink:href="#dirArrow" transform="rotate(180) translate(-30 -48)" onmousedown="handlePan(0,1)">
                  <use xlink:href="#rim" fill="#404040">
                        <set attributeName="fill" to="#808080" begin="arrowDown.mouseover" end="arrowDown.mouseout"/>
                  </use>
                  <path fill="none" stroke="white" stroke-width="1.5" d="M0,-3.0v7 M-2.5,-0.5L0,-3.0L2.5,-0.5"/>
                </g>
                <g id="arrowLeft" xlink:href="#dirArrow" transform="rotate(270) translate(-36 17)" onmousedown="handlePan(-1,0)">
                  <use xlink:href="#rim" fill="#404040">
                        <set attributeName="fill" to="#808080" begin="arrowLeft.mouseover" end="arrowLeft.mouseout"/>
                  </use>
                  <path fill="none" stroke="white" stroke-width="1.5" d="M0,-3.0v7 M-2.5,-0.5L0,-3.0L2.5,-0.5"/>
                </g>
        </g>
        <svg viewBox="0 0 15 15" width="100%" height="30px" preserveAspectRatio="xMaxYMin meet">
         <g id="arrow_out" transform="scale(0.3 0.3)">
          <a xlink:href="_ciff_entry_8h__dep__incl_org.svg" target="_base">
           <rect id="button" ry="5" rx="5" y="6" x="6" height="38" width="38"
                fill="#f2f5e9" fill-opacity="0.5" stroke="#606060" stroke-width="1.0"/>
           <path id="arrow"
             d="M 11.500037,31.436501 C 11.940474,20.09759 22.043105,11.32322 32.158766,21.979434 L 37.068811,17.246167 C 37.068811,17.246167 37.088388,32 37.088388,32 L 22.160133,31.978069 C 22.160133,31.978069 26.997745,27.140456 26.997745,27.140456 C 18.528582,18.264221 13.291696,25.230495 11.500037,31.436501 z"
             style="fill:#404040;"/>
          </a>
         </g>
        </svg>
</svg>
