<?xml version="1.0" encoding="UTF-8" standalone="no"?>
<!DOCTYPE svg PUBLIC "-//W3C//DTD SVG 1.1//EN"
 "http://www.w3.org/Graphics/SVG/1.1/DTD/svg11.dtd">
<!-- Generated by graphviz version 2.43.0 (0)
 -->
<!-- Title: rawspeed::DngTilingDescription Pages: 1 -->
<svg width="273pt" height="206pt"
 viewBox="0.00 0.00 272.50 206.00" xmlns="http://www.w3.org/2000/svg" xmlns:xlink="http://www.w3.org/1999/xlink">
<g id="graph0" class="graph" transform="scale(1 1) rotate(0) translate(4 202)">
<title>rawspeed::DngTilingDescription</title>
<!-- Node1 -->
<g id="node1" class="node">
<title>Node1</title>
<g id="a_node1"><a xlink:title=" ">
<polygon fill="#bfbfbf" stroke="black" points="44,-0.5 44,-19.5 216,-19.5 216,-0.5 44,-0.5"/>
<text text-anchor="middle" x="130" y="-7.5" font-family="Helvetica,sans-Serif" font-size="10.00">rawspeed::DngTilingDescription</text>
</a>
</g>
</g>
<!-- Node2 -->
<g id="node2" class="node">
<title>Node2</title>
<g id="a_node2"><a xlink:href="../../d3/d87/classuint32__t.html" target="_top" xlink:title=" ">
<polygon fill="none" stroke="black" points="0,-100.5 0,-119.5 56,-119.5 56,-100.5 0,-100.5"/>
<text text-anchor="middle" x="28" y="-107.5" font-family="Helvetica,sans-Serif" font-size="10.00">uint32_t</text>
</a>
</g>
</g>
<!-- Node2&#45;&gt;Node1 -->
<g id="edge1" class="edge">
<title>Node2&#45;&gt;Node1</title>
<path fill="none" stroke="#9a32cd" stroke-dasharray="5,2" d="M42.9,-92.64C56.54,-77.9 77.52,-55.88 97,-38 103.98,-31.59 112.23,-24.84 118.73,-19.69"/>
<polygon fill="#9a32cd" stroke="#9a32cd" points="39.97,-90.66 35.78,-100.39 45.12,-95.39 39.97,-90.66"/>
<text text-anchor="middle" x="111.5" y="-74" font-family="Helvetica,sans-Serif" font-size="10.00"> tileW</text>
<text text-anchor="middle" x="111.5" y="-63" font-family="Helvetica,sans-Serif" font-size="10.00">tileH</text>
<text text-anchor="middle" x="111.5" y="-52" font-family="Helvetica,sans-Serif" font-size="10.00">tilesX</text>
<text text-anchor="middle" x="111.5" y="-41" font-family="Helvetica,sans-Serif" font-size="10.00">tilesY</text>
</g>
<!-- Node3 -->
<g id="node3" class="node">
<title>Node3</title>
<g id="a_node3"><a xlink:href="../../d8/d75/classrawspeed_1_1i_point2_d.html" target="_top" xlink:title=" ">
<polygon fill="none" stroke="black" points="74.5,-100.5 74.5,-119.5 185.5,-119.5 185.5,-100.5 74.5,-100.5"/>
<text text-anchor="middle" x="130" y="-107.5" font-family="Helvetica,sans-Serif" font-size="10.00">rawspeed::iPoint2D</text>
</a>
</g>
</g>
<!-- Node3&#45;&gt;Node1 -->
<g id="edge2" class="edge">
<title>Node3&#45;&gt;Node1</title>
<path fill="none" stroke="#9a32cd" stroke-dasharray="5,2" d="M130,-90.22C130,-68.95 130,-35.22 130,-19.54"/>
<polygon fill="#9a32cd" stroke="#9a32cd" points="126.5,-90.3 130,-100.3 133.5,-90.3 126.5,-90.3"/>
<text text-anchor="middle" x="141" y="-57.5" font-family="Helvetica,sans-Serif" font-size="10.00"> dim</text>
</g>
<!-- Node4 -->
<g id="node4" class="node">
<title>Node4</title>
<g id="a_node4"><a xlink:href="../../de/d73/classint32__t.html" target="_top" xlink:title=" ">
<polygon fill="none" stroke="black" points="105,-178.5 105,-197.5 155,-197.5 155,-178.5 105,-178.5"/>
<text text-anchor="middle" x="130" y="-185.5" font-family="Helvetica,sans-Serif" font-size="10.00">int32_t</text>
</a>
</g>
</g>
<!-- Node4&#45;&gt;Node3 -->
<g id="edge3" class="edge">
<title>Node4&#45;&gt;Node3</title>
<path fill="none" stroke="#9a32cd" stroke-dasharray="5,2" d="M130,-168.22C130,-152.7 130,-131.36 130,-119.62"/>
<polygon fill="#9a32cd" stroke="#9a32cd" points="126.5,-168.28 130,-178.28 133.5,-168.28 126.5,-168.28"/>
<text text-anchor="middle" x="135" y="-152" font-family="Helvetica,sans-Serif" font-size="10.00"> x</text>
<text text-anchor="middle" x="135" y="-141" font-family="Helvetica,sans-Serif" font-size="10.00">y</text>
</g>
<!-- Node5 -->
<g id="node5" class="node">
<title>Node5</title>
<g id="a_node5"><a xlink:title=" ">
<polygon fill="none" stroke="#bfbfbf" points="203.5,-100.5 203.5,-119.5 264.5,-119.5 264.5,-100.5 203.5,-100.5"/>
<text text-anchor="middle" x="234" y="-107.5" font-family="Helvetica,sans-Serif" font-size="10.00">unsigned</text>
</a>
</g>
</g>
<!-- Node5&#45;&gt;Node1 -->
<g id="edge4" class="edge">
<title>Node5&#45;&gt;Node1</title>
<path fill="none" stroke="#9a32cd" stroke-dasharray="5,2" d="M217.4,-93.35C195.18,-72.42 156.55,-36.01 139.06,-19.54"/>
<polygon fill="#9a32cd" stroke="#9a32cd" points="215.09,-95.99 224.77,-100.3 219.89,-90.9 215.09,-95.99"/>
<text text-anchor="middle" x="227.5" y="-57.5" font-family="Helvetica,sans-Serif" font-size="10.00"> numTiles</text>
</g>
</g>
</svg>
