<?xml version="1.0" encoding="UTF-8" standalone="no"?>
<!DOCTYPE svg PUBLIC "-//W3C//DTD SVG 1.1//EN"
 "http://www.w3.org/Graphics/SVG/1.1/DTD/svg11.dtd">
<!-- Generated by graphviz version 2.43.0 (0)
 -->
<!-- Title: rawspeed::DngTilingDescription Pages: 1 -->
<svg width="302pt" height="206pt"
 viewBox="0.00 0.00 301.50 206.00" xmlns="http://www.w3.org/2000/svg" xmlns:xlink="http://www.w3.org/1999/xlink">
<g id="graph0" class="graph" transform="scale(1 1) rotate(0) translate(4 202)">
<title>rawspeed::DngTilingDescription</title>
<!-- Node1 -->
<g id="node1" class="node">
<title>Node1</title>
<g id="a_node1"><a xlink:title=" ">
<polygon fill="#bfbfbf" stroke="black" points="50,-0.5 50,-19.5 222,-19.5 222,-0.5 50,-0.5"/>
<text text-anchor="middle" x="136" y="-7.5" font-family="Helvetica,sans-Serif" font-size="10.00">rawspeed::DngTilingDescription</text>
</a>
</g>
</g>
<!-- Node2 -->
<g id="node2" class="node">
<title>Node2</title>
<g id="a_node2"><a xlink:title=" ">
<polygon fill="none" stroke="#bfbfbf" points="0,-100.5 0,-119.5 90,-119.5 90,-100.5 0,-100.5"/>
<text text-anchor="middle" x="45" y="-107.5" font-family="Helvetica,sans-Serif" font-size="10.00">const unsigned</text>
</a>
</g>
</g>
<!-- Node2&#45;&gt;Node1 -->
<g id="edge1" class="edge">
<title>Node2&#45;&gt;Node1</title>
<path fill="none" stroke="#9a32cd" stroke-dasharray="5,2" d="M51.31,-90.46C57.39,-74.86 67.91,-52.79 83,-38 91.11,-30.05 102.04,-23.95 111.86,-19.57"/>
<polygon fill="#9a32cd" stroke="#9a32cd" points="47.95,-89.47 47.8,-100.06 54.52,-91.87 47.95,-89.47"/>
<text text-anchor="middle" x="107.5" y="-57.5" font-family="Helvetica,sans-Serif" font-size="10.00"> numTiles</text>
</g>
<!-- Node3 -->
<g id="node3" class="node">
<title>Node3</title>
<g id="a_node3"><a xlink:href="../../d3/d87/classuint32__t.html" target="_top" xlink:title=" ">
<polygon fill="none" stroke="black" points="108,-100.5 108,-119.5 164,-119.5 164,-100.5 108,-100.5"/>
<text text-anchor="middle" x="136" y="-107.5" font-family="Helvetica,sans-Serif" font-size="10.00">uint32_t</text>
</a>
</g>
</g>
<!-- Node3&#45;&gt;Node1 -->
<g id="edge2" class="edge">
<title>Node3&#45;&gt;Node1</title>
<path fill="none" stroke="#9a32cd" stroke-dasharray="5,2" d="M136,-90.22C136,-68.95 136,-35.22 136,-19.54"/>
<polygon fill="#9a32cd" stroke="#9a32cd" points="132.5,-90.3 136,-100.3 139.5,-90.3 132.5,-90.3"/>
<text text-anchor="middle" x="150.5" y="-74" font-family="Helvetica,sans-Serif" font-size="10.00"> tileW</text>
<text text-anchor="middle" x="150.5" y="-63" font-family="Helvetica,sans-Serif" font-size="10.00">tileH</text>
<text text-anchor="middle" x="150.5" y="-52" font-family="Helvetica,sans-Serif" font-size="10.00">tilesX</text>
<text text-anchor="middle" x="150.5" y="-41" font-family="Helvetica,sans-Serif" font-size="10.00">tilesY</text>
</g>
<!-- Node4 -->
<g id="node4" class="node">
<title>Node4</title>
<g id="a_node4"><a xlink:href="../../d8/d75/classrawspeed_1_1i_point2_d.html" target="_top" xlink:title=" ">
<polygon fill="none" stroke="black" points="182.5,-100.5 182.5,-119.5 293.5,-119.5 293.5,-100.5 182.5,-100.5"/>
<text text-anchor="middle" x="238" y="-107.5" font-family="Helvetica,sans-Serif" font-size="10.00">rawspeed::iPoint2D</text>
</a>
</g>
</g>
<!-- Node4&#45;&gt;Node1 -->
<g id="edge3" class="edge">
<title>Node4&#45;&gt;Node1</title>
<path fill="none" stroke="#9a32cd" stroke-dasharray="5,2" d="M223.1,-92.64C209.46,-77.9 188.48,-55.88 169,-38 162.02,-31.59 153.77,-24.84 147.27,-19.69"/>
<polygon fill="#9a32cd" stroke="#9a32cd" points="220.88,-95.39 230.22,-100.39 226.03,-90.66 220.88,-95.39"/>
<text text-anchor="middle" x="223" y="-57.5" font-family="Helvetica,sans-Serif" font-size="10.00"> dim</text>
</g>
<!-- Node5 -->
<g id="node5" class="node">
<title>Node5</title>
<g id="a_node5"><a xlink:href="../../de/d73/classint32__t.html" target="_top" xlink:title=" ">
<polygon fill="none" stroke="black" points="213,-178.5 213,-197.5 263,-197.5 263,-178.5 213,-178.5"/>
<text text-anchor="middle" x="238" y="-185.5" font-family="Helvetica,sans-Serif" font-size="10.00">int32_t</text>
</a>
</g>
</g>
<!-- Node5&#45;&gt;Node4 -->
<g id="edge4" class="edge">
<title>Node5&#45;&gt;Node4</title>
<path fill="none" stroke="#9a32cd" stroke-dasharray="5,2" d="M238,-168.22C238,-152.7 238,-131.36 238,-119.62"/>
<polygon fill="#9a32cd" stroke="#9a32cd" points="234.5,-168.28 238,-178.28 241.5,-168.28 234.5,-168.28"/>
<text text-anchor="middle" x="243" y="-152" font-family="Helvetica,sans-Serif" font-size="10.00"> x</text>
<text text-anchor="middle" x="243" y="-141" font-family="Helvetica,sans-Serif" font-size="10.00">y</text>
</g>
</g>
</svg>
