<?xml version="1.0" encoding="UTF-8" standalone="no"?>
<!DOCTYPE svg PUBLIC "-//W3C//DTD SVG 1.1//EN"
 "http://www.w3.org/Graphics/SVG/1.1/DTD/svg11.dtd">
<!-- Generated by graphviz version 2.43.0 (0)
 -->
<!-- Title: rawspeed::FileIOException Pages: 1 -->
<svg width="187pt" height="252pt"
 viewBox="0.00 0.00 187.00 252.00" xmlns="http://www.w3.org/2000/svg" xmlns:xlink="http://www.w3.org/1999/xlink">
<g id="graph0" class="graph" transform="scale(1 1) rotate(0) translate(4 248)">
<title>rawspeed::FileIOException</title>
<!-- Node1 -->
<g id="node1" class="node">
<title>Node1</title>
<g id="a_node1"><a xlink:title=" ">
<polygon fill="#bfbfbf" stroke="black" points="17,-0.5 17,-19.5 162,-19.5 162,-0.5 17,-0.5"/>
<text text-anchor="middle" x="89.5" y="-7.5" font-family="Helvetica,sans-Serif" font-size="10.00">rawspeed::FileIOException</text>
</a>
</g>
</g>
<!-- Node2 -->
<g id="node2" class="node">
<title>Node2</title>
<g id="a_node2"><a xlink:href="../../db/d52/classrawspeed_1_1_raw_decoder_exception.html" target="_top" xlink:title=" ">
<polygon fill="none" stroke="black" points="0,-56.5 0,-75.5 179,-75.5 179,-56.5 0,-56.5"/>
<text text-anchor="middle" x="89.5" y="-63.5" font-family="Helvetica,sans-Serif" font-size="10.00">rawspeed::RawDecoderException</text>
</a>
</g>
</g>
<!-- Node2&#45;&gt;Node1 -->
<g id="edge1" class="edge">
<title>Node2&#45;&gt;Node1</title>
<path fill="none" stroke="midnightblue" d="M89.5,-45.8C89.5,-36.91 89.5,-26.78 89.5,-19.75"/>
<polygon fill="midnightblue" stroke="midnightblue" points="86,-46.08 89.5,-56.08 93,-46.08 86,-46.08"/>
</g>
<!-- Node3 -->
<g id="node3" class="node">
<title>Node3</title>
<g id="a_node3"><a xlink:href="../../d4/df4/classrawspeed_1_1_rawspeed_exception.html" target="_top" xlink:title=" ">
<polygon fill="none" stroke="black" points="5.5,-112.5 5.5,-131.5 173.5,-131.5 173.5,-112.5 5.5,-112.5"/>
<text text-anchor="middle" x="89.5" y="-119.5" font-family="Helvetica,sans-Serif" font-size="10.00">rawspeed::RawspeedException</text>
</a>
</g>
</g>
<!-- Node3&#45;&gt;Node2 -->
<g id="edge2" class="edge">
<title>Node3&#45;&gt;Node2</title>
<path fill="none" stroke="midnightblue" d="M89.5,-101.8C89.5,-92.91 89.5,-82.78 89.5,-75.75"/>
<polygon fill="midnightblue" stroke="midnightblue" points="86,-102.08 89.5,-112.08 93,-102.08 86,-102.08"/>
</g>
<!-- Node4 -->
<g id="node4" class="node">
<title>Node4</title>
<g id="a_node4"><a xlink:title="STL class.">
<polygon fill="none" stroke="#bfbfbf" points="37.5,-168.5 37.5,-187.5 141.5,-187.5 141.5,-168.5 37.5,-168.5"/>
<text text-anchor="middle" x="89.5" y="-175.5" font-family="Helvetica,sans-Serif" font-size="10.00">std::runtime_error</text>
</a>
</g>
</g>
<!-- Node4&#45;&gt;Node3 -->
<g id="edge3" class="edge">
<title>Node4&#45;&gt;Node3</title>
<path fill="none" stroke="midnightblue" d="M89.5,-157.8C89.5,-148.91 89.5,-138.78 89.5,-131.75"/>
<polygon fill="midnightblue" stroke="midnightblue" points="86,-158.08 89.5,-168.08 93,-158.08 86,-158.08"/>
</g>
<!-- Node5 -->
<g id="node5" class="node">
<title>Node5</title>
<g id="a_node5"><a xlink:title="STL class.">
<polygon fill="none" stroke="#bfbfbf" points="46.5,-224.5 46.5,-243.5 132.5,-243.5 132.5,-224.5 46.5,-224.5"/>
<text text-anchor="middle" x="89.5" y="-231.5" font-family="Helvetica,sans-Serif" font-size="10.00">std::exception</text>
</a>
</g>
</g>
<!-- Node5&#45;&gt;Node4 -->
<g id="edge4" class="edge">
<title>Node5&#45;&gt;Node4</title>
<path fill="none" stroke="midnightblue" d="M89.5,-213.8C89.5,-204.91 89.5,-194.78 89.5,-187.75"/>
<polygon fill="midnightblue" stroke="midnightblue" points="86,-214.08 89.5,-224.08 93,-214.08 86,-214.08"/>
</g>
</g>
</svg>
