<?xml version="1.0" encoding="UTF-8" standalone="no"?>
<!DOCTYPE svg PUBLIC "-//W3C//DTD SVG 1.1//EN"
 "http://www.w3.org/Graphics/SVG/1.1/DTD/svg11.dtd">
<!-- Generated by graphviz version 2.43.0 (0)
 -->
<!-- Title: rawspeed::BitStream::skipBitsNoFill Pages: 1 -->
<svg width="359pt" height="110pt"
 viewBox="0.00 0.00 359.00 110.00" xmlns="http://www.w3.org/2000/svg" xmlns:xlink="http://www.w3.org/1999/xlink">
<g id="graph0" class="graph" transform="scale(1 1) rotate(0) translate(4 106)">
<title>rawspeed::BitStream::skipBitsNoFill</title>
<!-- Node1 -->
<g id="node1" class="node">
<title>Node1</title>
<g id="a_node1"><a xlink:title=" ">
<polygon fill="#bfbfbf" stroke="black" points="232,-36 232,-66 351,-66 351,-36 232,-36"/>
<text text-anchor="start" x="240" y="-54" font-family="Helvetica,sans-Serif" font-size="10.00">rawspeed::BitStream</text>
<text text-anchor="middle" x="291.5" y="-43" font-family="Helvetica,sans-Serif" font-size="10.00">::skipBitsNoFill</text>
</a>
</g>
</g>
<!-- Node2 -->
<g id="node2" class="node">
<title>Node2</title>
<g id="a_node2"><a xlink:href="../../d3/ded/classrawspeed_1_1_bit_stream.html#a6e309201dd9b21ef64cb9e35020d234d" target="_top" xlink:title=" ">
<polygon fill="none" stroke="black" points="0,-60.5 0,-101.5 196,-101.5 196,-60.5 0,-60.5"/>
<text text-anchor="start" x="8" y="-89.5" font-family="Helvetica,sans-Serif" font-size="10.00">rawspeed::BitStream</text>
<text text-anchor="start" x="8" y="-78.5" font-family="Helvetica,sans-Serif" font-size="10.00">&lt; MSBBitPumpTag, BitStream</text>
<text text-anchor="middle" x="98" y="-67.5" font-family="Helvetica,sans-Serif" font-size="10.00">CacheRightInLeftOut &gt;::getBitsNoFill</text>
</a>
</g>
</g>
<!-- Node1&#45;&gt;Node2 -->
<g id="edge1" class="edge">
<title>Node1&#45;&gt;Node2</title>
<path fill="none" stroke="midnightblue" d="M221.74,-61.77C213.4,-63.08 204.76,-64.43 196.11,-65.79"/>
<polygon fill="midnightblue" stroke="midnightblue" points="222.4,-65.21 231.74,-60.2 221.32,-58.29 222.4,-65.21"/>
</g>
<!-- Node3 -->
<g id="node3" class="node">
<title>Node3</title>
<g id="a_node3"><a xlink:href="../../d3/ded/classrawspeed_1_1_bit_stream.html#abea7b0978de8952784dc1835e3db36be" target="_top" xlink:title=" ">
<polygon fill="none" stroke="black" points="7,-0.5 7,-41.5 189,-41.5 189,-0.5 7,-0.5"/>
<text text-anchor="start" x="15" y="-29.5" font-family="Helvetica,sans-Serif" font-size="10.00">rawspeed::BitStream</text>
<text text-anchor="start" x="15" y="-18.5" font-family="Helvetica,sans-Serif" font-size="10.00">&lt; MSBBitPumpTag, BitStream</text>
<text text-anchor="middle" x="98" y="-7.5" font-family="Helvetica,sans-Serif" font-size="10.00">CacheRightInLeftOut &gt;::skipBytes</text>
</a>
</g>
</g>
<!-- Node1&#45;&gt;Node3 -->
<g id="edge2" class="edge">
<title>Node1&#45;&gt;Node3</title>
<path fill="none" stroke="midnightblue" d="M221.73,-40.23C211.12,-38.56 200.02,-36.83 189.02,-35.1"/>
<polygon fill="midnightblue" stroke="midnightblue" points="221.32,-43.71 231.74,-41.8 222.4,-36.79 221.32,-43.71"/>
</g>
</g>
</svg>
