<?xml version="1.0" encoding="UTF-8" standalone="no"?>
<!DOCTYPE svg PUBLIC "-//W3C//DTD SVG 1.1//EN"
 "http://www.w3.org/Graphics/SVG/1.1/DTD/svg11.dtd">
<!-- Generated by graphviz version 2.43.0 (0)
 -->
<!-- Title: rawspeed::BitStream::fill Pages: 1 -->
<svg width="345pt" height="170pt"
 viewBox="0.00 0.00 345.00 170.00" xmlns="http://www.w3.org/2000/svg" xmlns:xlink="http://www.w3.org/1999/xlink">
<g id="graph0" class="graph" transform="scale(1 1) rotate(0) translate(4 166)">
<title>rawspeed::BitStream::fill</title>
<!-- Node1 -->
<g id="node1" class="node">
<title>Node1</title>
<g id="a_node1"><a xlink:title=" ">
<polygon fill="#bfbfbf" stroke="black" points="218,-66 218,-96 337,-96 337,-66 218,-66"/>
<text text-anchor="start" x="226" y="-84" font-family="Helvetica,sans-Serif" font-size="10.00">rawspeed::BitStream</text>
<text text-anchor="middle" x="277.5" y="-73" font-family="Helvetica,sans-Serif" font-size="10.00">::fill</text>
</a>
</g>
</g>
<!-- Node2 -->
<g id="node2" class="node">
<title>Node2</title>
<g id="a_node2"><a xlink:href="../../d3/ded/classrawspeed_1_1_bit_stream.html#a09b1e4533f19914ee55640ecf7b90b67" target="_top" xlink:title=" ">
<polygon fill="none" stroke="black" points="6.5,-120.5 6.5,-161.5 175.5,-161.5 175.5,-120.5 6.5,-120.5"/>
<text text-anchor="start" x="14.5" y="-149.5" font-family="Helvetica,sans-Serif" font-size="10.00">rawspeed::BitStream</text>
<text text-anchor="start" x="14.5" y="-138.5" font-family="Helvetica,sans-Serif" font-size="10.00">&lt; MSBBitPumpTag, BitStream</text>
<text text-anchor="middle" x="91" y="-127.5" font-family="Helvetica,sans-Serif" font-size="10.00">CacheRightInLeftOut &gt;::getBits</text>
</a>
</g>
</g>
<!-- Node1&#45;&gt;Node2 -->
<g id="edge1" class="edge">
<title>Node1&#45;&gt;Node2</title>
<path fill="none" stroke="midnightblue" d="M220.41,-99.24C199.84,-105.93 176.42,-113.55 155.27,-120.42"/>
<polygon fill="midnightblue" stroke="midnightblue" points="221.52,-102.56 229.94,-96.14 219.35,-95.9 221.52,-102.56"/>
</g>
<!-- Node3 -->
<g id="node3" class="node">
<title>Node3</title>
<g id="a_node3"><a xlink:href="../../d3/ded/classrawspeed_1_1_bit_stream.html#afb595b192f7ec0b90483a97a33b87616" target="_top" xlink:title=" ">
<polygon fill="none" stroke="black" points="2.5,-60.5 2.5,-101.5 179.5,-101.5 179.5,-60.5 2.5,-60.5"/>
<text text-anchor="start" x="10.5" y="-89.5" font-family="Helvetica,sans-Serif" font-size="10.00">rawspeed::BitStream</text>
<text text-anchor="start" x="10.5" y="-78.5" font-family="Helvetica,sans-Serif" font-size="10.00">&lt; MSBBitPumpTag, BitStream</text>
<text text-anchor="middle" x="91" y="-67.5" font-family="Helvetica,sans-Serif" font-size="10.00">CacheRightInLeftOut &gt;::peekBits</text>
</a>
</g>
</g>
<!-- Node1&#45;&gt;Node3 -->
<g id="edge2" class="edge">
<title>Node1&#45;&gt;Node3</title>
<path fill="none" stroke="midnightblue" d="M207.73,-81C198.62,-81 189.17,-81 179.79,-81"/>
<polygon fill="midnightblue" stroke="midnightblue" points="207.87,-84.5 217.87,-81 207.87,-77.5 207.87,-84.5"/>
</g>
<!-- Node4 -->
<g id="node4" class="node">
<title>Node4</title>
<g id="a_node4"><a xlink:href="../../d3/ded/classrawspeed_1_1_bit_stream.html#abea7b0978de8952784dc1835e3db36be" target="_top" xlink:title=" ">
<polygon fill="none" stroke="black" points="0,-0.5 0,-41.5 182,-41.5 182,-0.5 0,-0.5"/>
<text text-anchor="start" x="8" y="-29.5" font-family="Helvetica,sans-Serif" font-size="10.00">rawspeed::BitStream</text>
<text text-anchor="start" x="8" y="-18.5" font-family="Helvetica,sans-Serif" font-size="10.00">&lt; MSBBitPumpTag, BitStream</text>
<text text-anchor="middle" x="91" y="-7.5" font-family="Helvetica,sans-Serif" font-size="10.00">CacheRightInLeftOut &gt;::skipBytes</text>
</a>
</g>
</g>
<!-- Node1&#45;&gt;Node4 -->
<g id="edge3" class="edge">
<title>Node1&#45;&gt;Node4</title>
<path fill="none" stroke="midnightblue" d="M220.41,-62.76C199.84,-56.07 176.42,-48.45 155.27,-41.58"/>
<polygon fill="midnightblue" stroke="midnightblue" points="219.35,-66.1 229.94,-65.86 221.52,-59.44 219.35,-66.1"/>
</g>
</g>
</svg>
