<?xml version="1.0" encoding="UTF-8" standalone="no"?>
<!DOCTYPE svg PUBLIC "-//W3C//DTD SVG 1.1//EN"
 "http://www.w3.org/Graphics/SVG/1.1/DTD/svg11.dtd">
<!-- Generated by graphviz version 2.43.0 (0)
 -->
<!-- Title: rawspeed::BinaryHuffmanTree&lt; T &gt; Pages: 1 -->
<svg width="349pt" height="262pt"
 viewBox="0.00 0.00 349.00 262.00" xmlns="http://www.w3.org/2000/svg" xmlns:xlink="http://www.w3.org/1999/xlink">
<g id="graph0" class="graph" transform="scale(1 1) rotate(0) translate(4 258)">
<title>rawspeed::BinaryHuffmanTree&lt; T &gt;</title>
<!-- Node1 -->
<g id="node1" class="node">
<title>Node1</title>
<g id="a_node1"><a xlink:title=" ">
<polygon fill="#bfbfbf" stroke="black" points="35,-0.5 35,-19.5 227,-19.5 227,-0.5 35,-0.5"/>
<text text-anchor="middle" x="131" y="-7.5" font-family="Helvetica,sans-Serif" font-size="10.00">rawspeed::BinaryHuffmanTree&lt; T &gt;</text>
</a>
</g>
</g>
<!-- Node2 -->
<g id="node2" class="node">
<title>Node2</title>
<g id="a_node2"><a xlink:title=" ">
<polygon fill="none" stroke="#bfbfbf" points="51.5,-67.5 51.5,-97.5 210.5,-97.5 210.5,-67.5 51.5,-67.5"/>
<text text-anchor="start" x="59.5" y="-85.5" font-family="Helvetica,sans-Serif" font-size="10.00">std::unique_ptr&lt; rawspeed</text>
<text text-anchor="middle" x="131" y="-74.5" font-family="Helvetica,sans-Serif" font-size="10.00">::BinaryHuffmanTree::Node &gt;</text>
</a>
</g>
</g>
<!-- Node2&#45;&gt;Node1 -->
<g id="edge1" class="edge">
<title>Node2&#45;&gt;Node1</title>
<path fill="none" stroke="#9a32cd" stroke-dasharray="5,2" d="M131,-57.09C131,-44.21 131,-29.2 131,-19.89"/>
<polygon fill="#9a32cd" stroke="#9a32cd" points="127.5,-57.23 131,-67.23 134.5,-57.23 127.5,-57.23"/>
<text text-anchor="middle" x="142.5" y="-41" font-family="Helvetica,sans-Serif" font-size="10.00"> root</text>
</g>
<!-- Node3 -->
<g id="node3" class="node">
<title>Node3</title>
<g id="a_node3"><a xlink:href="../../df/d9b/structrawspeed_1_1_binary_huffman_tree_1_1_node.html" target="_top" xlink:title=" ">
<polygon fill="none" stroke="black" points="0,-156.5 0,-186.5 164,-186.5 164,-156.5 0,-156.5"/>
<text text-anchor="start" x="8" y="-174.5" font-family="Helvetica,sans-Serif" font-size="10.00">rawspeed::BinaryHuffmanTree</text>
<text text-anchor="middle" x="82" y="-163.5" font-family="Helvetica,sans-Serif" font-size="10.00">&lt; T &gt;::Node</text>
</a>
</g>
</g>
<!-- Node3&#45;&gt;Node2 -->
<g id="edge2" class="edge">
<title>Node3&#45;&gt;Node2</title>
<path fill="none" stroke="#9a32cd" stroke-dasharray="5,2" d="M95.24,-146.99C104.13,-131.21 115.55,-110.94 123.06,-97.6"/>
<polygon fill="#9a32cd" stroke="#9a32cd" points="91.95,-145.7 90.09,-156.13 98.05,-149.14 91.95,-145.7"/>
<text text-anchor="middle" x="120.5" y="-124.5" font-family="Helvetica,sans-Serif" font-size="10.00"> ptr</text>
</g>
<!-- Node4 -->
<g id="node4" class="node">
<title>Node4</title>
<g id="a_node4"><a xlink:title="STL class.">
<polygon fill="none" stroke="#bfbfbf" points="182,-162 182,-181 300,-181 300,-162 182,-162"/>
<text text-anchor="middle" x="241" y="-169" font-family="Helvetica,sans-Serif" font-size="10.00">std::unique_ptr&lt; T &gt;</text>
</a>
</g>
</g>
<!-- Node4&#45;&gt;Node2 -->
<g id="edge3" class="edge">
<title>Node4&#45;&gt;Node2</title>
<path fill="none" stroke="orange" stroke-dasharray="5,2" d="M222.04,-155.5C201.46,-139.23 168.86,-113.44 148.76,-97.55"/>
<polygon fill="orange" stroke="orange" points="220.04,-158.38 230.05,-161.84 224.38,-152.89 220.04,-158.38"/>
<text text-anchor="start" x="199" y="-130" font-family="Helvetica,sans-Serif" font-size="10.00"> &lt; rawspeed::BinaryHuffman</text>
<text text-anchor="middle" x="270" y="-119" font-family="Helvetica,sans-Serif" font-size="10.00">Tree::Node &gt;</text>
</g>
<!-- Node5 -->
<g id="node5" class="node">
<title>Node5</title>
<g id="a_node5"><a xlink:title=" ">
<polygon fill="none" stroke="#bfbfbf" points="226.5,-234.5 226.5,-253.5 255.5,-253.5 255.5,-234.5 226.5,-234.5"/>
<text text-anchor="middle" x="241" y="-241.5" font-family="Helvetica,sans-Serif" font-size="10.00">T</text>
</a>
</g>
</g>
<!-- Node5&#45;&gt;Node4 -->
<g id="edge4" class="edge">
<title>Node5&#45;&gt;Node4</title>
<path fill="none" stroke="#9a32cd" stroke-dasharray="5,2" d="M241,-223.94C241,-210.03 241,-191.82 241,-181.22"/>
<polygon fill="#9a32cd" stroke="#9a32cd" points="237.5,-224.36 241,-234.36 244.5,-224.36 237.5,-224.36"/>
<text text-anchor="middle" x="249.5" y="-208" font-family="Helvetica,sans-Serif" font-size="10.00"> ptr</text>
</g>
</g>
</svg>
