<?xml version="1.0" encoding="UTF-8" standalone="no"?>
<!DOCTYPE svg PUBLIC "-//W3C//DTD SVG 1.1//EN"
 "http://www.w3.org/Graphics/SVG/1.1/DTD/svg11.dtd">
<!-- Generated by graphviz version 2.43.0 (0)
 -->
<!-- Title: rawspeed::UncompressedDecompressor::decodeRawUnpacked Pages: 1 -->
<svg width="402pt" height="137pt"
 viewBox="0.00 0.00 402.00 137.00" xmlns="http://www.w3.org/2000/svg" xmlns:xlink="http://www.w3.org/1999/xlink">
<g id="graph0" class="graph" transform="scale(1 1) rotate(0) translate(4 133)">
<title>rawspeed::UncompressedDecompressor::decodeRawUnpacked</title>
<!-- Node1 -->
<g id="node1" class="node">
<title>Node1</title>
<g id="a_node1"><a xlink:title=" ">
<polygon fill="#bfbfbf" stroke="black" points="0,-49.5 0,-79.5 213,-79.5 213,-49.5 0,-49.5"/>
<text text-anchor="start" x="8" y="-67.5" font-family="Helvetica,sans-Serif" font-size="10.00">rawspeed::UncompressedDecompressor</text>
<text text-anchor="middle" x="106.5" y="-56.5" font-family="Helvetica,sans-Serif" font-size="10.00">::decodeRawUnpacked</text>
</a>
</g>
</g>
<!-- Node2 -->
<g id="node2" class="node">
<title>Node2</title>
<g id="a_node2"><a xlink:href="../../dd/da0/classrawspeed_1_1_byte_stream.html#a680dfa5b6515626c71659fbf3dc483be" target="_top" xlink:title=" ">
<polygon fill="none" stroke="black" points="257.5,-98.5 257.5,-128.5 385.5,-128.5 385.5,-98.5 257.5,-98.5"/>
<text text-anchor="start" x="265.5" y="-116.5" font-family="Helvetica,sans-Serif" font-size="10.00">rawspeed::ByteStream</text>
<text text-anchor="middle" x="321.5" y="-105.5" font-family="Helvetica,sans-Serif" font-size="10.00">::getData</text>
</a>
</g>
</g>
<!-- Node1&#45;&gt;Node2 -->
<g id="edge1" class="edge">
<title>Node1&#45;&gt;Node2</title>
<path fill="none" stroke="midnightblue" d="M172.85,-79.53C196.5,-84.97 223.34,-91.15 247.6,-96.73"/>
<polygon fill="midnightblue" stroke="midnightblue" points="246.93,-100.17 257.46,-99 248.5,-93.34 246.93,-100.17"/>
</g>
<!-- Node3 -->
<g id="node3" class="node">
<title>Node3</title>
<g id="a_node3"><a xlink:href="../../dc/d44/classrawspeed_1_1_raw_image_data.html#a7a60dc6e5929a008e4be23ac0eec115f" target="_top" xlink:title=" ">
<polygon fill="none" stroke="black" points="249,-49.5 249,-79.5 394,-79.5 394,-49.5 249,-49.5"/>
<text text-anchor="start" x="257" y="-67.5" font-family="Helvetica,sans-Serif" font-size="10.00">rawspeed::RawImageData</text>
<text text-anchor="middle" x="321.5" y="-56.5" font-family="Helvetica,sans-Serif" font-size="10.00">::getData</text>
</a>
</g>
</g>
<!-- Node1&#45;&gt;Node3 -->
<g id="edge2" class="edge">
<title>Node1&#45;&gt;Node3</title>
<path fill="none" stroke="midnightblue" d="M213.06,-64.5C221.69,-64.5 230.33,-64.5 238.74,-64.5"/>
<polygon fill="midnightblue" stroke="midnightblue" points="238.89,-68 248.89,-64.5 238.89,-61 238.89,-68"/>
</g>
<!-- Node4 -->
<g id="node4" class="node">
<title>Node4</title>
<g id="a_node4"><a xlink:href="../../dd/d12/classrawspeed_1_1_raw_image.html#a2907002b5c707eca6939061f8b0d5e5d" target="_top" xlink:title=" ">
<polygon fill="none" stroke="black" points="260.5,-0.5 260.5,-30.5 382.5,-30.5 382.5,-0.5 260.5,-0.5"/>
<text text-anchor="start" x="268.5" y="-18.5" font-family="Helvetica,sans-Serif" font-size="10.00">rawspeed::RawImage</text>
<text text-anchor="middle" x="321.5" y="-7.5" font-family="Helvetica,sans-Serif" font-size="10.00">::operator&#45;&gt;</text>
</a>
</g>
</g>
<!-- Node1&#45;&gt;Node4 -->
<g id="edge3" class="edge">
<title>Node1&#45;&gt;Node4</title>
<path fill="none" stroke="midnightblue" d="M172.85,-49.47C197.47,-43.8 225.55,-37.34 250.57,-31.59"/>
<polygon fill="midnightblue" stroke="midnightblue" points="251.39,-34.99 260.35,-29.34 249.82,-28.17 251.39,-34.99"/>
</g>
</g>
</svg>
