<?xml version="1.0" encoding="UTF-8" standalone="no"?>
<!DOCTYPE svg PUBLIC "-//W3C//DTD SVG 1.1//EN"
 "http://www.w3.org/Graphics/SVG/1.1/DTD/svg11.dtd">
<!-- Generated by graphviz version 2.43.0 (0)
 -->
<!-- Title: rawspeed::UncompressedDecompressor::decode8BitRaw Pages: 1 -->
<svg width="402pt" height="186pt"
 viewBox="0.00 0.00 402.00 186.00" xmlns="http://www.w3.org/2000/svg" xmlns:xlink="http://www.w3.org/1999/xlink">
<g id="graph0" class="graph" transform="scale(1 1) rotate(0) translate(4 182)">
<title>rawspeed::UncompressedDecompressor::decode8BitRaw</title>
<!-- Node1 -->
<g id="node1" class="node">
<title>Node1</title>
<g id="a_node1"><a xlink:title=" ">
<polygon fill="#bfbfbf" stroke="black" points="0,-73.5 0,-103.5 213,-103.5 213,-73.5 0,-73.5"/>
<text text-anchor="start" x="8" y="-91.5" font-family="Helvetica,sans-Serif" font-size="10.00">rawspeed::UncompressedDecompressor</text>
<text text-anchor="middle" x="106.5" y="-80.5" font-family="Helvetica,sans-Serif" font-size="10.00">::decode8BitRaw</text>
</a>
</g>
</g>
<!-- Node2 -->
<g id="node2" class="node">
<title>Node2</title>
<g id="a_node2"><a xlink:href="../../dd/da0/classrawspeed_1_1_byte_stream.html#a680dfa5b6515626c71659fbf3dc483be" target="_top" xlink:title=" ">
<polygon fill="none" stroke="black" points="257.5,-147.5 257.5,-177.5 385.5,-177.5 385.5,-147.5 257.5,-147.5"/>
<text text-anchor="start" x="265.5" y="-165.5" font-family="Helvetica,sans-Serif" font-size="10.00">rawspeed::ByteStream</text>
<text text-anchor="middle" x="321.5" y="-154.5" font-family="Helvetica,sans-Serif" font-size="10.00">::getData</text>
</a>
</g>
</g>
<!-- Node1&#45;&gt;Node2 -->
<g id="edge1" class="edge">
<title>Node1&#45;&gt;Node2</title>
<path fill="none" stroke="midnightblue" d="M149.54,-103.55C177.66,-113.57 215.5,-126.96 249,-138.5 254.26,-140.31 259.75,-142.18 265.24,-144.05"/>
<polygon fill="midnightblue" stroke="midnightblue" points="264.48,-147.49 275.07,-147.37 266.72,-140.85 264.48,-147.49"/>
</g>
<!-- Node3 -->
<g id="node3" class="node">
<title>Node3</title>
<g id="a_node3"><a xlink:href="../../dc/d44/classrawspeed_1_1_raw_image_data.html#a7a60dc6e5929a008e4be23ac0eec115f" target="_top" xlink:title=" ">
<polygon fill="none" stroke="black" points="249,-98.5 249,-128.5 394,-128.5 394,-98.5 249,-98.5"/>
<text text-anchor="start" x="257" y="-116.5" font-family="Helvetica,sans-Serif" font-size="10.00">rawspeed::RawImageData</text>
<text text-anchor="middle" x="321.5" y="-105.5" font-family="Helvetica,sans-Serif" font-size="10.00">::getData</text>
</a>
</g>
</g>
<!-- Node1&#45;&gt;Node3 -->
<g id="edge2" class="edge">
<title>Node1&#45;&gt;Node3</title>
<path fill="none" stroke="midnightblue" d="M213.06,-100.89C221.69,-101.9 230.33,-102.92 238.74,-103.9"/>
<polygon fill="midnightblue" stroke="midnightblue" points="238.55,-107.41 248.89,-105.09 239.36,-100.45 238.55,-107.41"/>
</g>
<!-- Node4 -->
<g id="node4" class="node">
<title>Node4</title>
<g id="a_node4"><a xlink:href="../../dd/d12/classrawspeed_1_1_raw_image.html#a2907002b5c707eca6939061f8b0d5e5d" target="_top" xlink:title=" ">
<polygon fill="none" stroke="black" points="260.5,-49.5 260.5,-79.5 382.5,-79.5 382.5,-49.5 260.5,-49.5"/>
<text text-anchor="start" x="268.5" y="-67.5" font-family="Helvetica,sans-Serif" font-size="10.00">rawspeed::RawImage</text>
<text text-anchor="middle" x="321.5" y="-56.5" font-family="Helvetica,sans-Serif" font-size="10.00">::operator&#45;&gt;</text>
</a>
</g>
</g>
<!-- Node1&#45;&gt;Node4 -->
<g id="edge3" class="edge">
<title>Node1&#45;&gt;Node4</title>
<path fill="none" stroke="midnightblue" d="M213.06,-76.61C225.6,-75.19 238.16,-73.78 250.04,-72.44"/>
<polygon fill="midnightblue" stroke="midnightblue" points="250.75,-75.88 260.29,-71.28 249.96,-68.93 250.75,-75.88"/>
</g>
<!-- Node5 -->
<g id="node5" class="node">
<title>Node5</title>
<g id="a_node5"><a xlink:href="../../dc/d44/classrawspeed_1_1_raw_image_data.html#a40af9bf73b044ad606cc3a9bc9f16ca5" target="_top" xlink:title=" ">
<polygon fill="none" stroke="black" points="249,-0.5 249,-30.5 394,-30.5 394,-0.5 249,-0.5"/>
<text text-anchor="start" x="257" y="-18.5" font-family="Helvetica,sans-Serif" font-size="10.00">rawspeed::RawImageData</text>
<text text-anchor="middle" x="321.5" y="-7.5" font-family="Helvetica,sans-Serif" font-size="10.00">::setWithLookUp</text>
</a>
</g>
</g>
<!-- Node1&#45;&gt;Node5 -->
<g id="edge4" class="edge">
<title>Node1&#45;&gt;Node5</title>
<path fill="none" stroke="midnightblue" d="M151.38,-73.46C184.88,-61.98 231.22,-46.1 266.91,-33.87"/>
<polygon fill="midnightblue" stroke="midnightblue" points="268.36,-37.07 276.68,-30.52 266.09,-30.45 268.36,-37.07"/>
</g>
</g>
</svg>
