<?xml version="1.0" encoding="UTF-8" standalone="no"?>
<!DOCTYPE svg PUBLIC "-//W3C//DTD SVG 1.1//EN"
 "http://www.w3.org/Graphics/SVG/1.1/DTD/svg11.dtd">
<!-- Generated by graphviz version 2.43.0 (0)
 -->
<!-- Title: rawspeed::UncompressedDecompressor::readUncompressedRaw Pages: 1 -->
<svg width="421pt" height="438pt"
 viewBox="0.00 0.00 421.00 437.50" xmlns="http://www.w3.org/2000/svg" xmlns:xlink="http://www.w3.org/1999/xlink">
<g id="graph0" class="graph" transform="scale(1 1) rotate(0) translate(4 433.5)">
<title>rawspeed::UncompressedDecompressor::readUncompressedRaw</title>
<!-- Node1 -->
<g id="node1" class="node">
<title>Node1</title>
<g id="a_node1"><a xlink:title=" ">
<polygon fill="#bfbfbf" stroke="black" points="0,-210.5 0,-240.5 213,-240.5 213,-210.5 0,-210.5"/>
<text text-anchor="start" x="8" y="-228.5" font-family="Helvetica,sans-Serif" font-size="10.00">rawspeed::UncompressedDecompressor</text>
<text text-anchor="middle" x="106.5" y="-217.5" font-family="Helvetica,sans-Serif" font-size="10.00">::readUncompressedRaw</text>
</a>
</g>
</g>
<!-- Node2 -->
<g id="node2" class="node">
<title>Node2</title>
<g id="a_node2"><a xlink:href="../../de/dc3/namespacerawspeed.html#a5374c6234ea0dc53a195c03982f23d8f" target="_top" xlink:title=" ">
<polygon fill="none" stroke="black" points="270,-410 270,-429 392,-429 392,-410 270,-410"/>
<text text-anchor="middle" x="331" y="-417" font-family="Helvetica,sans-Serif" font-size="10.00">rawspeed::copyPixels</text>
</a>
</g>
</g>
<!-- Node1&#45;&gt;Node2 -->
<g id="edge1" class="edge">
<title>Node1&#45;&gt;Node2</title>
<path fill="none" stroke="midnightblue" d="M115.21,-240.74C133.44,-275.09 182.65,-358.85 249,-400.5 252.58,-402.75 256.4,-404.73 260.35,-406.47"/>
<polygon fill="midnightblue" stroke="midnightblue" points="259.2,-409.78 269.79,-410.14 261.73,-403.26 259.2,-409.78"/>
</g>
<!-- Node3 -->
<g id="node3" class="node">
<title>Node3</title>
<g id="a_node3"><a xlink:href="../../de/dc3/namespacerawspeed.html#acdae16f4cd2a39044d98e6fd4c3681b6" target="_top" xlink:title=" ">
<polygon fill="none" stroke="black" points="268,-372 268,-391 394,-391 394,-372 268,-372"/>
<text text-anchor="middle" x="331" y="-379" font-family="Helvetica,sans-Serif" font-size="10.00">rawspeed::fp16ToFloat</text>
</a>
</g>
</g>
<!-- Node1&#45;&gt;Node3 -->
<g id="edge2" class="edge">
<title>Node1&#45;&gt;Node3</title>
<path fill="none" stroke="midnightblue" d="M118.47,-240.56C140.07,-269.07 191.08,-330.87 249,-362.5 253.22,-364.8 257.7,-366.83 262.32,-368.61"/>
<polygon fill="midnightblue" stroke="midnightblue" points="261.34,-371.97 271.93,-371.93 263.62,-365.35 261.34,-371.97"/>
</g>
<!-- Node4 -->
<g id="node4" class="node">
<title>Node4</title>
<g id="a_node4"><a xlink:href="../../de/dc3/namespacerawspeed.html#a65b6686439ead0edd241c6caecbbfb90" target="_top" xlink:title=" ">
<polygon fill="none" stroke="black" points="268,-334 268,-353 394,-353 394,-334 268,-334"/>
<text text-anchor="middle" x="331" y="-341" font-family="Helvetica,sans-Serif" font-size="10.00">rawspeed::fp24ToFloat</text>
</a>
</g>
</g>
<!-- Node1&#45;&gt;Node4 -->
<g id="edge3" class="edge">
<title>Node1&#45;&gt;Node4</title>
<path fill="none" stroke="midnightblue" d="M124.48,-240.67C149.79,-262.48 199.73,-302.47 249,-324.5 254.62,-327.01 260.62,-329.22 266.72,-331.15"/>
<polygon fill="midnightblue" stroke="midnightblue" points="265.75,-334.51 276.33,-333.95 267.71,-327.79 265.75,-334.51"/>
</g>
<!-- Node5 -->
<g id="node5" class="node">
<title>Node5</title>
<g id="a_node5"><a xlink:href="../../dc/d44/classrawspeed_1_1_raw_image_data.html#acb8745201d562a751e4407d674b15d36" target="_top" xlink:title=" ">
<polygon fill="none" stroke="black" points="258.5,-284.5 258.5,-314.5 403.5,-314.5 403.5,-284.5 258.5,-284.5"/>
<text text-anchor="start" x="266.5" y="-302.5" font-family="Helvetica,sans-Serif" font-size="10.00">rawspeed::RawImageData</text>
<text text-anchor="middle" x="331" y="-291.5" font-family="Helvetica,sans-Serif" font-size="10.00">::getBpp</text>
</a>
</g>
</g>
<!-- Node1&#45;&gt;Node5 -->
<g id="edge4" class="edge">
<title>Node1&#45;&gt;Node5</title>
<path fill="none" stroke="midnightblue" d="M148.18,-240.5C176.35,-250.74 214.8,-264.4 249,-275.5 255.04,-277.46 261.36,-279.45 267.68,-281.39"/>
<polygon fill="midnightblue" stroke="midnightblue" points="267,-284.84 277.59,-284.4 269.04,-278.14 267,-284.84"/>
</g>
<!-- Node6 -->
<g id="node6" class="node">
<title>Node6</title>
<g id="a_node6"><a xlink:href="../../dc/d44/classrawspeed_1_1_raw_image_data.html#a1d9a712a918374327fe3fe791318912f" target="_top" xlink:title=" ">
<polygon fill="none" stroke="black" points="258.5,-235.5 258.5,-265.5 403.5,-265.5 403.5,-235.5 258.5,-235.5"/>
<text text-anchor="start" x="266.5" y="-253.5" font-family="Helvetica,sans-Serif" font-size="10.00">rawspeed::RawImageData</text>
<text text-anchor="middle" x="331" y="-242.5" font-family="Helvetica,sans-Serif" font-size="10.00">::getCpp</text>
</a>
</g>
</g>
<!-- Node1&#45;&gt;Node6 -->
<g id="edge5" class="edge">
<title>Node1&#45;&gt;Node6</title>
<path fill="none" stroke="midnightblue" d="M213.21,-237.38C224.89,-238.69 236.64,-240.01 247.97,-241.28"/>
<polygon fill="midnightblue" stroke="midnightblue" points="247.9,-244.8 258.23,-242.44 248.68,-237.84 247.9,-244.8"/>
</g>
<!-- Node7 -->
<g id="node7" class="node">
<title>Node7</title>
<g id="a_node7"><a xlink:href="../../dd/da0/classrawspeed_1_1_byte_stream.html#a680dfa5b6515626c71659fbf3dc483be" target="_top" xlink:title=" ">
<polygon fill="none" stroke="black" points="267,-186.5 267,-216.5 395,-216.5 395,-186.5 267,-186.5"/>
<text text-anchor="start" x="275" y="-204.5" font-family="Helvetica,sans-Serif" font-size="10.00">rawspeed::ByteStream</text>
<text text-anchor="middle" x="331" y="-193.5" font-family="Helvetica,sans-Serif" font-size="10.00">::getData</text>
</a>
</g>
</g>
<!-- Node1&#45;&gt;Node7 -->
<g id="edge6" class="edge">
<title>Node1&#45;&gt;Node7</title>
<path fill="none" stroke="midnightblue" d="M213.21,-214.1C228.01,-212.5 242.94,-210.89 256.95,-209.38"/>
<polygon fill="midnightblue" stroke="midnightblue" points="257.4,-212.85 266.97,-208.3 256.65,-205.89 257.4,-212.85"/>
</g>
<!-- Node8 -->
<g id="node8" class="node">
<title>Node8</title>
<g id="a_node8"><a xlink:href="../../dc/d44/classrawspeed_1_1_raw_image_data.html#a7a60dc6e5929a008e4be23ac0eec115f" target="_top" xlink:title=" ">
<polygon fill="none" stroke="black" points="258.5,-137.5 258.5,-167.5 403.5,-167.5 403.5,-137.5 258.5,-137.5"/>
<text text-anchor="start" x="266.5" y="-155.5" font-family="Helvetica,sans-Serif" font-size="10.00">rawspeed::RawImageData</text>
<text text-anchor="middle" x="331" y="-144.5" font-family="Helvetica,sans-Serif" font-size="10.00">::getData</text>
</a>
</g>
</g>
<!-- Node1&#45;&gt;Node8 -->
<g id="edge7" class="edge">
<title>Node1&#45;&gt;Node8</title>
<path fill="none" stroke="midnightblue" d="M150.75,-210.48C178.71,-200.86 215.93,-188.21 249,-177.5 255.93,-175.26 263.21,-172.94 270.44,-170.68"/>
<polygon fill="midnightblue" stroke="midnightblue" points="271.74,-173.94 280.24,-167.62 269.65,-167.26 271.74,-173.94"/>
</g>
<!-- Node9 -->
<g id="node9" class="node">
<title>Node9</title>
<g id="a_node9"><a xlink:href="../../dc/d44/classrawspeed_1_1_raw_image_data.html#a02c03065a316900907e95c27972c1ee4" target="_top" xlink:title=" ">
<polygon fill="none" stroke="black" points="258.5,-88.5 258.5,-118.5 403.5,-118.5 403.5,-88.5 258.5,-88.5"/>
<text text-anchor="start" x="266.5" y="-106.5" font-family="Helvetica,sans-Serif" font-size="10.00">rawspeed::RawImageData</text>
<text text-anchor="middle" x="331" y="-95.5" font-family="Helvetica,sans-Serif" font-size="10.00">::getDataType</text>
</a>
</g>
</g>
<!-- Node1&#45;&gt;Node9 -->
<g id="edge8" class="edge">
<title>Node1&#45;&gt;Node9</title>
<path fill="none" stroke="midnightblue" d="M125.61,-210.4C151.5,-189.45 201.27,-151.57 249,-128.5 253.68,-126.24 258.62,-124.12 263.64,-122.16"/>
<polygon fill="midnightblue" stroke="midnightblue" points="265.21,-125.31 273.38,-118.57 262.79,-118.74 265.21,-125.31"/>
</g>
<!-- Node10 -->
<g id="node10" class="node">
<title>Node10</title>
<g id="a_node10"><a xlink:href="../../de/dc3/namespacerawspeed.html#aacd73bf2511299d73f243fc848b77d79" target="_top" xlink:title=" ">
<polygon fill="none" stroke="black" points="249,-50 249,-69 413,-69 413,-50 249,-50"/>
<text text-anchor="middle" x="331" y="-57" font-family="Helvetica,sans-Serif" font-size="10.00">rawspeed::getHostEndianness</text>
</a>
</g>
</g>
<!-- Node1&#45;&gt;Node10 -->
<g id="edge9" class="edge">
<title>Node1&#45;&gt;Node10</title>
<path fill="none" stroke="midnightblue" d="M117.61,-210.42C138.46,-180.55 189.32,-113.79 249,-79.5 253.71,-76.79 258.78,-74.45 264,-72.42"/>
<polygon fill="midnightblue" stroke="midnightblue" points="265.22,-75.7 273.51,-69.1 262.92,-69.09 265.22,-75.7"/>
</g>
<!-- Node11 -->
<g id="node11" class="node">
<title>Node11</title>
<g id="a_node11"><a xlink:href="../../dd/d12/classrawspeed_1_1_raw_image.html#a2907002b5c707eca6939061f8b0d5e5d" target="_top" xlink:title=" ">
<polygon fill="none" stroke="black" points="270,-0.5 270,-30.5 392,-30.5 392,-0.5 270,-0.5"/>
<text text-anchor="start" x="278" y="-18.5" font-family="Helvetica,sans-Serif" font-size="10.00">rawspeed::RawImage</text>
<text text-anchor="middle" x="331" y="-7.5" font-family="Helvetica,sans-Serif" font-size="10.00">::operator&#45;&gt;</text>
</a>
</g>
</g>
<!-- Node1&#45;&gt;Node11 -->
<g id="edge10" class="edge">
<title>Node1&#45;&gt;Node11</title>
<path fill="none" stroke="midnightblue" d="M114.92,-210.25C132.87,-174.95 182.15,-87.08 249,-40.5 252.53,-38.04 256.31,-35.81 260.24,-33.8"/>
<polygon fill="midnightblue" stroke="midnightblue" points="262,-36.85 269.63,-29.49 259.08,-30.48 262,-36.85"/>
</g>
</g>
</svg>
