<?xml version="1.0" encoding="UTF-8" standalone="no"?>
<!DOCTYPE svg PUBLIC "-//W3C//DTD SVG 1.1//EN"
 "http://www.w3.org/Graphics/SVG/1.1/DTD/svg11.dtd">
<!-- Generated by graphviz version 2.43.0 (0)
 -->
<!-- Title: rawspeed::UncompressedDecompressor::decode12BitRaw Pages: 1 -->
<svg width="566pt" height="235pt"
 viewBox="0.00 0.00 566.00 235.00" xmlns="http://www.w3.org/2000/svg" xmlns:xlink="http://www.w3.org/1999/xlink">
<g id="graph0" class="graph" transform="scale(1 1) rotate(0) translate(4 231)">
<title>rawspeed::UncompressedDecompressor::decode12BitRaw</title>
<!-- Node1 -->
<g id="node1" class="node">
<title>Node1</title>
<g id="a_node1"><a xlink:title=" ">
<polygon fill="#bfbfbf" stroke="black" points="0,-98.5 0,-128.5 213,-128.5 213,-98.5 0,-98.5"/>
<text text-anchor="start" x="8" y="-116.5" font-family="Helvetica,sans-Serif" font-size="10.00">rawspeed::UncompressedDecompressor</text>
<text text-anchor="middle" x="106.5" y="-105.5" font-family="Helvetica,sans-Serif" font-size="10.00">::decode12BitRaw</text>
</a>
</g>
</g>
<!-- Node2 -->
<g id="node2" class="node">
<title>Node2</title>
<g id="a_node2"><a xlink:href="../../dc/d44/classrawspeed_1_1_raw_image_data.html#a7a60dc6e5929a008e4be23ac0eec115f" target="_top" xlink:title=" ">
<polygon fill="none" stroke="black" points="249,-196.5 249,-226.5 394,-226.5 394,-196.5 249,-196.5"/>
<text text-anchor="start" x="257" y="-214.5" font-family="Helvetica,sans-Serif" font-size="10.00">rawspeed::RawImageData</text>
<text text-anchor="middle" x="321.5" y="-203.5" font-family="Helvetica,sans-Serif" font-size="10.00">::getData</text>
</a>
</g>
</g>
<!-- Node1&#45;&gt;Node2 -->
<g id="edge1" class="edge">
<title>Node1&#45;&gt;Node2</title>
<path fill="none" stroke="midnightblue" d="M133.24,-128.54C161.15,-144.47 207.3,-169.73 249,-187.5 253.36,-189.36 257.92,-191.17 262.54,-192.92"/>
<polygon fill="midnightblue" stroke="midnightblue" points="261.44,-196.24 272.03,-196.39 263.84,-189.67 261.44,-196.24"/>
</g>
<!-- Node3 -->
<g id="node3" class="node">
<title>Node3</title>
<g id="a_node3"><a xlink:href="../../dd/da0/classrawspeed_1_1_byte_stream.html#ab4972769baa5c0ed59ec0608ed2b307d" target="_top" xlink:title=" ">
<polygon fill="none" stroke="black" points="257.5,-147.5 257.5,-177.5 385.5,-177.5 385.5,-147.5 257.5,-147.5"/>
<text text-anchor="start" x="265.5" y="-165.5" font-family="Helvetica,sans-Serif" font-size="10.00">rawspeed::ByteStream</text>
<text text-anchor="middle" x="321.5" y="-154.5" font-family="Helvetica,sans-Serif" font-size="10.00">::getRemainSize</text>
</a>
</g>
</g>
<!-- Node1&#45;&gt;Node3 -->
<g id="edge2" class="edge">
<title>Node1&#45;&gt;Node3</title>
<path fill="none" stroke="midnightblue" d="M172.85,-128.53C196.5,-133.97 223.34,-140.15 247.6,-145.73"/>
<polygon fill="midnightblue" stroke="midnightblue" points="246.93,-149.17 257.46,-148 248.5,-142.34 246.93,-149.17"/>
</g>
<!-- Node5 -->
<g id="node5" class="node">
<title>Node5</title>
<g id="a_node5"><a xlink:href="../../dd/d12/classrawspeed_1_1_raw_image.html#a2907002b5c707eca6939061f8b0d5e5d" target="_top" xlink:title=" ">
<polygon fill="none" stroke="black" points="260.5,-98.5 260.5,-128.5 382.5,-128.5 382.5,-98.5 260.5,-98.5"/>
<text text-anchor="start" x="268.5" y="-116.5" font-family="Helvetica,sans-Serif" font-size="10.00">rawspeed::RawImage</text>
<text text-anchor="middle" x="321.5" y="-105.5" font-family="Helvetica,sans-Serif" font-size="10.00">::operator&#45;&gt;</text>
</a>
</g>
</g>
<!-- Node1&#45;&gt;Node5 -->
<g id="edge4" class="edge">
<title>Node1&#45;&gt;Node5</title>
<path fill="none" stroke="midnightblue" d="M213.06,-113.5C225.6,-113.5 238.16,-113.5 250.04,-113.5"/>
<polygon fill="midnightblue" stroke="midnightblue" points="250.29,-117 260.29,-113.5 250.29,-110 250.29,-117"/>
</g>
<!-- Node6 -->
<g id="node6" class="node">
<title>Node6</title>
<g id="a_node6"><a xlink:href="../../dd/da0/classrawspeed_1_1_byte_stream.html#a2f21d48a943065ae6f3cf21ff8cb7fff" target="_top" xlink:title=" ">
<polygon fill="none" stroke="black" points="257.5,-49.5 257.5,-79.5 385.5,-79.5 385.5,-49.5 257.5,-49.5"/>
<text text-anchor="start" x="265.5" y="-67.5" font-family="Helvetica,sans-Serif" font-size="10.00">rawspeed::ByteStream</text>
<text text-anchor="middle" x="321.5" y="-56.5" font-family="Helvetica,sans-Serif" font-size="10.00">::peekData</text>
</a>
</g>
</g>
<!-- Node1&#45;&gt;Node6 -->
<g id="edge5" class="edge">
<title>Node1&#45;&gt;Node6</title>
<path fill="none" stroke="midnightblue" d="M172.85,-98.47C196.5,-93.03 223.34,-86.85 247.6,-81.27"/>
<polygon fill="midnightblue" stroke="midnightblue" points="248.5,-84.66 257.46,-79 246.93,-77.83 248.5,-84.66"/>
</g>
<!-- Node7 -->
<g id="node7" class="node">
<title>Node7</title>
<g id="a_node7"><a xlink:href="../../dd/da0/classrawspeed_1_1_byte_stream.html#ab77bbfb370f041df54b9b67e0d8ff711" target="_top" xlink:title=" ">
<polygon fill="none" stroke="black" points="257.5,-0.5 257.5,-30.5 385.5,-30.5 385.5,-0.5 257.5,-0.5"/>
<text text-anchor="start" x="265.5" y="-18.5" font-family="Helvetica,sans-Serif" font-size="10.00">rawspeed::ByteStream</text>
<text text-anchor="middle" x="321.5" y="-7.5" font-family="Helvetica,sans-Serif" font-size="10.00">::skipBytes</text>
</a>
</g>
</g>
<!-- Node1&#45;&gt;Node7 -->
<g id="edge6" class="edge">
<title>Node1&#45;&gt;Node7</title>
<path fill="none" stroke="midnightblue" d="M134.09,-98.36C162.13,-82.73 207.87,-58.2 249,-40.5 254.06,-38.32 259.37,-36.19 264.73,-34.14"/>
<polygon fill="midnightblue" stroke="midnightblue" points="266.21,-37.33 274.36,-30.56 263.77,-30.77 266.21,-37.33"/>
</g>
<!-- Node4 -->
<g id="node4" class="node">
<title>Node4</title>
<g id="a_node4"><a xlink:href="../../dd/da0/classrawspeed_1_1_byte_stream.html#a33bbb3baf3bb9730f9da8765175ec4ce" target="_top" xlink:title=" ">
<polygon fill="none" stroke="black" points="430,-73.5 430,-103.5 558,-103.5 558,-73.5 430,-73.5"/>
<text text-anchor="start" x="438" y="-91.5" font-family="Helvetica,sans-Serif" font-size="10.00">rawspeed::ByteStream</text>
<text text-anchor="middle" x="494" y="-80.5" font-family="Helvetica,sans-Serif" font-size="10.00">::check</text>
</a>
</g>
</g>
<!-- Node3&#45;&gt;Node4 -->
<g id="edge3" class="edge">
<title>Node3&#45;&gt;Node4</title>
<path fill="none" stroke="midnightblue" d="M370.54,-147.43C378.45,-144.65 386.51,-141.63 394,-138.5 415.28,-129.61 438.32,-118.09 456.81,-108.36"/>
<polygon fill="midnightblue" stroke="midnightblue" points="458.58,-111.38 465.76,-103.59 455.29,-105.2 458.58,-111.38"/>
</g>
<!-- Node7&#45;&gt;Node4 -->
<g id="edge7" class="edge">
<title>Node7&#45;&gt;Node4</title>
<path fill="none" stroke="midnightblue" d="M368.19,-30.59C376.83,-33.7 385.74,-37.07 394,-40.5 414.43,-48.99 436.63,-59.62 454.83,-68.72"/>
<polygon fill="midnightblue" stroke="midnightblue" points="453.44,-71.94 463.95,-73.32 456.59,-65.69 453.44,-71.94"/>
</g>
</g>
</svg>
