<?xml version="1.0" encoding="UTF-8" standalone="no"?>
<!DOCTYPE svg PUBLIC "-//W3C//DTD SVG 1.1//EN"
 "http://www.w3.org/Graphics/SVG/1.1/DTD/svg11.dtd">
<!-- Generated by graphviz version 2.43.0 (0)
 -->
<!-- Title: LLVMFuzzerTestOneInput Pages: 1 -->
<svg width="732pt" height="235pt"
 viewBox="0.00 0.00 732.00 235.00" xmlns="http://www.w3.org/2000/svg" xmlns:xlink="http://www.w3.org/1999/xlink">
<g id="graph0" class="graph" transform="scale(1 1) rotate(0) translate(4 231)">
<title>LLVMFuzzerTestOneInput</title>
<!-- Node1 -->
<g id="node1" class="node">
<title>Node1</title>
<g id="a_node1"><a xlink:title=" ">
<polygon fill="#bfbfbf" stroke="black" points="0,-104 0,-123 136,-123 136,-104 0,-104"/>
<text text-anchor="middle" x="68" y="-111" font-family="Helvetica,sans-Serif" font-size="10.00">LLVMFuzzerTestOneInput</text>
</a>
</g>
</g>
<!-- Node2 -->
<g id="node2" class="node">
<title>Node2</title>
<g id="a_node2"><a xlink:href="../../df/d0d/classrawspeed_1_1_v_c5_decompressor.html#ad944eeedfc9378cddb0bbe173cd66eb1" target="_top" xlink:title=" ">
<polygon fill="none" stroke="black" points="172,-98.5 172,-128.5 332,-128.5 332,-98.5 172,-98.5"/>
<text text-anchor="start" x="180" y="-116.5" font-family="Helvetica,sans-Serif" font-size="10.00">rawspeed::VC5Decompressor</text>
<text text-anchor="middle" x="252" y="-105.5" font-family="Helvetica,sans-Serif" font-size="10.00">::decode</text>
</a>
</g>
</g>
<!-- Node1&#45;&gt;Node2 -->
<g id="edge1" class="edge">
<title>Node1&#45;&gt;Node2</title>
<path fill="none" stroke="midnightblue" d="M136.25,-113.5C144.55,-113.5 153.13,-113.5 161.69,-113.5"/>
<polygon fill="midnightblue" stroke="midnightblue" points="161.71,-117 171.71,-113.5 161.71,-110 161.71,-117"/>
</g>
<!-- Node3 -->
<g id="node3" class="node">
<title>Node3</title>
<g id="a_node3"><a xlink:href="../../df/d0d/classrawspeed_1_1_v_c5_decompressor.html#a6073aa0aba15c932c12d468a36ed7451" target="_top" xlink:title=" ">
<polygon fill="none" stroke="black" points="368,-147.5 368,-177.5 528,-177.5 528,-147.5 368,-147.5"/>
<text text-anchor="start" x="376" y="-165.5" font-family="Helvetica,sans-Serif" font-size="10.00">rawspeed::VC5Decompressor</text>
<text text-anchor="middle" x="448" y="-154.5" font-family="Helvetica,sans-Serif" font-size="10.00">::decodeThread</text>
</a>
</g>
</g>
<!-- Node2&#45;&gt;Node3 -->
<g id="edge2" class="edge">
<title>Node2&#45;&gt;Node3</title>
<path fill="none" stroke="midnightblue" d="M312.52,-128.53C333.1,-133.73 356.34,-139.6 377.63,-144.98"/>
<polygon fill="midnightblue" stroke="midnightblue" points="377.04,-148.44 387.59,-147.49 378.75,-141.65 377.04,-148.44"/>
</g>
<!-- Node7 -->
<g id="node7" class="node">
<title>Node7</title>
<g id="a_node7"><a xlink:href="../../df/d0d/classrawspeed_1_1_v_c5_decompressor.html#a9ff6d9e1adcd68cceab7624ef8353ee9" target="_top" xlink:title=" ">
<polygon fill="none" stroke="black" points="368,-98.5 368,-128.5 528,-128.5 528,-98.5 368,-98.5"/>
<text text-anchor="start" x="376" y="-116.5" font-family="Helvetica,sans-Serif" font-size="10.00">rawspeed::VC5Decompressor</text>
<text text-anchor="middle" x="448" y="-105.5" font-family="Helvetica,sans-Serif" font-size="10.00">::initVC5LogTable</text>
</a>
</g>
</g>
<!-- Node2&#45;&gt;Node7 -->
<g id="edge6" class="edge">
<title>Node2&#45;&gt;Node7</title>
<path fill="none" stroke="midnightblue" d="M332.19,-113.5C340.53,-113.5 349.05,-113.5 357.5,-113.5"/>
<polygon fill="midnightblue" stroke="midnightblue" points="357.75,-117 367.75,-113.5 357.75,-110 357.75,-117"/>
</g>
<!-- Node8 -->
<g id="node8" class="node">
<title>Node8</title>
<g id="a_node8"><a xlink:href="../../df/d0d/classrawspeed_1_1_v_c5_decompressor.html#ada63a5af46ec450784ce4cbf7d70c4a2" target="_top" xlink:title=" ">
<polygon fill="none" stroke="black" points="368,-49.5 368,-79.5 528,-79.5 528,-49.5 368,-49.5"/>
<text text-anchor="start" x="376" y="-67.5" font-family="Helvetica,sans-Serif" font-size="10.00">rawspeed::VC5Decompressor</text>
<text text-anchor="middle" x="448" y="-56.5" font-family="Helvetica,sans-Serif" font-size="10.00">::prepareDecodingPlan</text>
</a>
</g>
</g>
<!-- Node2&#45;&gt;Node8 -->
<g id="edge7" class="edge">
<title>Node2&#45;&gt;Node8</title>
<path fill="none" stroke="midnightblue" d="M312.52,-98.47C333.1,-93.27 356.34,-87.4 377.63,-82.02"/>
<polygon fill="midnightblue" stroke="midnightblue" points="378.75,-85.35 387.59,-79.51 377.04,-78.56 378.75,-85.35"/>
</g>
<!-- Node4 -->
<g id="node4" class="node">
<title>Node4</title>
<g id="a_node4"><a xlink:href="../../df/d0d/classrawspeed_1_1_v_c5_decompressor.html#af7453343a0d9fdb1e0532c8183f3f8ff" target="_top" xlink:title=" ">
<polygon fill="none" stroke="black" points="564,-196.5 564,-226.5 724,-226.5 724,-196.5 564,-196.5"/>
<text text-anchor="start" x="572" y="-214.5" font-family="Helvetica,sans-Serif" font-size="10.00">rawspeed::VC5Decompressor</text>
<text text-anchor="middle" x="644" y="-203.5" font-family="Helvetica,sans-Serif" font-size="10.00">::combineFinalLowpassBands</text>
</a>
</g>
</g>
<!-- Node3&#45;&gt;Node4 -->
<g id="edge3" class="edge">
<title>Node3&#45;&gt;Node4</title>
<path fill="none" stroke="midnightblue" d="M508.52,-177.53C529.1,-182.73 552.34,-188.6 573.63,-193.98"/>
<polygon fill="midnightblue" stroke="midnightblue" points="573.04,-197.44 583.59,-196.49 574.75,-190.65 573.04,-197.44"/>
</g>
<!-- Node5 -->
<g id="node5" class="node">
<title>Node5</title>
<g id="a_node5"><a xlink:href="../../df/d0d/classrawspeed_1_1_v_c5_decompressor.html#acb8a41c369f12677ec348400b5075523" target="_top" xlink:title=" ">
<polygon fill="none" stroke="black" points="564,-147.5 564,-177.5 724,-177.5 724,-147.5 564,-147.5"/>
<text text-anchor="start" x="572" y="-165.5" font-family="Helvetica,sans-Serif" font-size="10.00">rawspeed::VC5Decompressor</text>
<text text-anchor="middle" x="644" y="-154.5" font-family="Helvetica,sans-Serif" font-size="10.00">::decodeBands</text>
</a>
</g>
</g>
<!-- Node3&#45;&gt;Node5 -->
<g id="edge4" class="edge">
<title>Node3&#45;&gt;Node5</title>
<path fill="none" stroke="midnightblue" d="M528.19,-162.5C536.53,-162.5 545.05,-162.5 553.5,-162.5"/>
<polygon fill="midnightblue" stroke="midnightblue" points="553.75,-166 563.75,-162.5 553.75,-159 553.75,-166"/>
</g>
<!-- Node6 -->
<g id="node6" class="node">
<title>Node6</title>
<g id="a_node6"><a xlink:href="../../df/d0d/classrawspeed_1_1_v_c5_decompressor.html#ab675cd0f835f876ac8e064d89f9cf806" target="_top" xlink:title=" ">
<polygon fill="none" stroke="black" points="564,-98.5 564,-128.5 724,-128.5 724,-98.5 564,-98.5"/>
<text text-anchor="start" x="572" y="-116.5" font-family="Helvetica,sans-Serif" font-size="10.00">rawspeed::VC5Decompressor</text>
<text text-anchor="middle" x="644" y="-105.5" font-family="Helvetica,sans-Serif" font-size="10.00">::reconstructLowpassBands</text>
</a>
</g>
</g>
<!-- Node3&#45;&gt;Node6 -->
<g id="edge5" class="edge">
<title>Node3&#45;&gt;Node6</title>
<path fill="none" stroke="midnightblue" d="M508.52,-147.47C529.1,-142.27 552.34,-136.4 573.63,-131.02"/>
<polygon fill="midnightblue" stroke="midnightblue" points="574.75,-134.35 583.59,-128.51 573.04,-127.56 574.75,-134.35"/>
</g>
<!-- Node9 -->
<g id="node9" class="node">
<title>Node9</title>
<g id="a_node9"><a xlink:href="../../df/d0d/classrawspeed_1_1_v_c5_decompressor.html#a7b54c6304783e2db7067cd9fd056b7d6" target="_top" xlink:title=" ">
<polygon fill="none" stroke="black" points="564,-49.5 564,-79.5 724,-79.5 724,-49.5 564,-49.5"/>
<text text-anchor="start" x="572" y="-67.5" font-family="Helvetica,sans-Serif" font-size="10.00">rawspeed::VC5Decompressor</text>
<text text-anchor="middle" x="644" y="-56.5" font-family="Helvetica,sans-Serif" font-size="10.00">::prepareBandDecodingPlan</text>
</a>
</g>
</g>
<!-- Node8&#45;&gt;Node9 -->
<g id="edge8" class="edge">
<title>Node8&#45;&gt;Node9</title>
<path fill="none" stroke="midnightblue" d="M528.19,-64.5C536.53,-64.5 545.05,-64.5 553.5,-64.5"/>
<polygon fill="midnightblue" stroke="midnightblue" points="553.75,-68 563.75,-64.5 553.75,-61 553.75,-68"/>
</g>
<!-- Node10 -->
<g id="node10" class="node">
<title>Node10</title>
<g id="a_node10"><a xlink:href="../../df/d0d/classrawspeed_1_1_v_c5_decompressor.html#aab04f55e87ad138ea764dd2d85f588ea" target="_top" xlink:title=" ">
<polygon fill="none" stroke="black" points="564,-0.5 564,-30.5 724,-30.5 724,-0.5 564,-0.5"/>
<text text-anchor="start" x="572" y="-18.5" font-family="Helvetica,sans-Serif" font-size="10.00">rawspeed::VC5Decompressor</text>
<text text-anchor="middle" x="644" y="-7.5" font-family="Helvetica,sans-Serif" font-size="10.00">::prepareBandReconstruction</text>
</a>
</g>
</g>
<!-- Node8&#45;&gt;Node10 -->
<g id="edge9" class="edge">
<title>Node8&#45;&gt;Node10</title>
<path fill="none" stroke="midnightblue" d="M508.52,-49.47C529.1,-44.27 552.34,-38.4 573.63,-33.02"/>
<polygon fill="midnightblue" stroke="midnightblue" points="574.75,-36.35 583.59,-30.51 573.04,-29.56 574.75,-36.35"/>
</g>
</g>
</svg>
