<?xml version="1.0" encoding="UTF-8" standalone="no"?>
<!DOCTYPE svg PUBLIC "-//W3C//DTD SVG 1.1//EN"
 "http://www.w3.org/Graphics/SVG/1.1/DTD/svg11.dtd">
<!-- Generated by graphviz version 2.43.0 (0)
 -->
<!-- Title: rawspeed::DngOpcodes::LookupOpcode::LookupOpcode Pages: 1 -->
<!--zoomable 488 -->
<svg id="main" version="1.1" xmlns="http://www.w3.org/2000/svg" xmlns:xlink="http://www.w3.org/1999/xlink" xml:space="preserve" onload="init(evt)">
<style type="text/css"><![CDATA[
.edge:hover path { stroke: red; }
.edge:hover polygon { stroke: red; fill: red; }
]]></style>
<script type="text/javascript"><![CDATA[
var edges = document.getElementsByTagName('g');
if (edges && edges.length) {
  for (var i=0;i<edges.length;i++) {
    if (edges[i].id.substr(0,4)=='edge') {
      edges[i].setAttribute('class','edge');
    }
  }
}
]]></script>
        <defs>
                <circle id="rim" cx="0" cy="0" r="7"/>
                <circle id="rim2" cx="0" cy="0" r="3.5"/>
                <g id="zoomPlus">
                        <use xlink:href="#rim" fill="#404040">
                                <set attributeName="fill" to="#808080" begin="zoomplus.mouseover" end="zoomplus.mouseout"/>
                        </use>
                        <path d="M-4,0h8M0,-4v8" fill="none" stroke="white" stroke-width="1.5" pointer-events="none"/>
                </g>
                <g id="zoomMin">
                        <use xlink:href="#rim" fill="#404040">
                                <set attributeName="fill" to="#808080" begin="zoomminus.mouseover" end="zoomminus.mouseout"/>
                        </use>
                        <path d="M-4,0h8" fill="none" stroke="white" stroke-width="1.5" pointer-events="none"/>
                </g>
                <g id="dirArrow">
                        <path fill="none" stroke="white" stroke-width="1.5" d="M0,-3.0v7 M-2.5,-0.5L0,-3.0L2.5,-0.5"/>
                </g>
               <g id="resetDef">
                       <use xlink:href="#rim2" fill="#404040">
                               <set attributeName="fill" to="#808080" begin="reset.mouseover" end="reset.mouseout"/>
                       </use>
               </g>
        </defs>

<script type="text/javascript">
var viewWidth = 1214;
var viewHeight = 488;
var sectionId = 'dynsection-2';
</script>
<script xlink:href="../../svgpan.js"/>
<svg id="graph" class="graph">
<g id="viewport">
<title>rawspeed::DngOpcodes::LookupOpcode::LookupOpcode</title>
<!-- Node1 -->
<g id="node1" class="node">
<title>Node1</title>
<g id="a_node1"><a xlink:title=" ">
<polygon fill="#bfbfbf" stroke="black" points="0,-356.73 0,-386.73 173,-386.73 173,-356.73 0,-356.73"/>
<text text-anchor="start" x="8" y="-374.73" font-family="Helvetica,sans-Serif" font-size="10.00">rawspeed::DngOpcodes</text>
<text text-anchor="middle" x="86.5" y="-363.73" font-family="Helvetica,sans-Serif" font-size="10.00">::LookupOpcode::LookupOpcode</text>
</a>
</g>
</g>
<!-- Node1&#45;&gt;Node1 -->
<g id="edge1" class="edge">
<title>Node1&#45;&gt;Node1</title>
<path fill="none" stroke="midnightblue" d="M52.34,-386.88C44.11,-396.28 55.49,-405.23 86.5,-405.23 105.4,-405.23 117,-401.9 121.33,-397.18"/>
<polygon fill="midnightblue" stroke="midnightblue" points="124.8,-396.64 120.66,-386.88 117.81,-397.09 124.8,-396.64"/>
</g>
<!-- Node2 -->
<g id="node2" class="node">
<title>Node2</title>
<g id="a_node2"><a xlink:href="../../d5/dcb/classrawspeed_1_1_dng_opcodes_1_1_pixel_opcode.html#a2d4cef258692d4e1609527e09b51c8f1" target="_top" xlink:title=" ">
<polygon fill="none" stroke="black" points="209,-356.73 209,-386.73 359,-386.73 359,-356.73 209,-356.73"/>
<text text-anchor="start" x="217" y="-374.73" font-family="Helvetica,sans-Serif" font-size="10.00">rawspeed::DngOpcodes</text>
<text text-anchor="middle" x="284" y="-363.73" font-family="Helvetica,sans-Serif" font-size="10.00">::PixelOpcode::PixelOpcode</text>
</a>
</g>
</g>
<!-- Node1&#45;&gt;Node2 -->
<g id="edge2" class="edge">
<title>Node1&#45;&gt;Node2</title>
<path fill="none" stroke="midnightblue" d="M173.25,-371.73C181.71,-371.73 190.29,-371.73 198.74,-371.73"/>
<polygon fill="midnightblue" stroke="midnightblue" points="198.95,-375.23 208.95,-371.73 198.95,-368.23 198.95,-375.23"/>
</g>
<!-- Node3 -->
<g id="node3" class="node">
<title>Node3</title>
<g id="a_node3"><a xlink:href="../../df/dc9/classrawspeed_1_1_dng_opcodes_1_1_r_o_i_opcode.html#a2ca1b972bdced92fb2d26f50fe498c9f" target="_top" xlink:title=" ">
<polygon fill="none" stroke="black" points="395,-449.73 395,-479.73 541,-479.73 541,-449.73 395,-449.73"/>
<text text-anchor="start" x="403" y="-467.73" font-family="Helvetica,sans-Serif" font-size="10.00">rawspeed::DngOpcodes</text>
<text text-anchor="middle" x="468" y="-456.73" font-family="Helvetica,sans-Serif" font-size="10.00">::ROIOpcode::__attribute__</text>
</a>
</g>
</g>
<!-- Node2&#45;&gt;Node3 -->
<g id="edge3" class="edge">
<title>Node2&#45;&gt;Node3</title>
<path fill="none" stroke="midnightblue" d="M305.64,-386.78C327.13,-401.94 362.18,-425.23 395,-440.73 399,-442.61 403.18,-444.42 407.43,-446.13"/>
<polygon fill="midnightblue" stroke="midnightblue" points="406.23,-449.41 416.82,-449.72 408.73,-442.87 406.23,-449.41"/>
</g>
<!-- Node4 -->
<g id="node4" class="node">
<title>Node4</title>
<g id="a_node4"><a xlink:href="../../dc/d44/classrawspeed_1_1_raw_image_data.html#a1d9a712a918374327fe3fe791318912f" target="_top" xlink:title=" ">
<polygon fill="none" stroke="black" points="395.5,-400.73 395.5,-430.73 540.5,-430.73 540.5,-400.73 395.5,-400.73"/>
<text text-anchor="start" x="403.5" y="-418.73" font-family="Helvetica,sans-Serif" font-size="10.00">rawspeed::RawImageData</text>
<text text-anchor="middle" x="468" y="-407.73" font-family="Helvetica,sans-Serif" font-size="10.00">::getCpp</text>
</a>
</g>
</g>
<!-- Node2&#45;&gt;Node4 -->
<g id="edge4" class="edge">
<title>Node2&#45;&gt;Node4</title>
<path fill="none" stroke="midnightblue" d="M347.13,-386.75C362.56,-390.48 379.23,-394.51 395.09,-398.34"/>
<polygon fill="midnightblue" stroke="midnightblue" points="394.3,-401.75 404.85,-400.7 395.95,-394.95 394.3,-401.75"/>
</g>
<!-- Node5 -->
<g id="node5" class="node">
<title>Node5</title>
<g id="a_node5"><a xlink:href="../../dd/da0/classrawspeed_1_1_byte_stream.html#ac598b7b6f0f8fd5476adb7c1363b1518" target="_top" xlink:title=" ">
<polygon fill="none" stroke="black" points="584,-367.73 584,-397.73 712,-397.73 712,-367.73 584,-367.73"/>
<text text-anchor="start" x="592" y="-385.73" font-family="Helvetica,sans-Serif" font-size="10.00">rawspeed::ByteStream</text>
<text text-anchor="middle" x="648" y="-374.73" font-family="Helvetica,sans-Serif" font-size="10.00">::getU32</text>
</a>
</g>
</g>
<!-- Node2&#45;&gt;Node5 -->
<g id="edge5" class="edge">
<title>Node2&#45;&gt;Node5</title>
<path fill="none" stroke="midnightblue" d="M359.13,-373.98C421.83,-375.88 511.19,-378.6 573.67,-380.5"/>
<polygon fill="midnightblue" stroke="midnightblue" points="573.74,-384 583.84,-380.81 573.95,-377 573.74,-384"/>
</g>
<!-- Node6 -->
<g id="node6" class="node">
<title>Node6</title>
<g id="a_node6"><a xlink:href="../../dd/d12/classrawspeed_1_1_raw_image.html#a2907002b5c707eca6939061f8b0d5e5d" target="_top" xlink:title=" ">
<polygon fill="none" stroke="black" points="587,-318.73 587,-348.73 709,-348.73 709,-318.73 587,-318.73"/>
<text text-anchor="start" x="595" y="-336.73" font-family="Helvetica,sans-Serif" font-size="10.00">rawspeed::RawImage</text>
<text text-anchor="middle" x="648" y="-325.73" font-family="Helvetica,sans-Serif" font-size="10.00">::operator&#45;&gt;</text>
</a>
</g>
</g>
<!-- Node2&#45;&gt;Node6 -->
<g id="edge6" class="edge">
<title>Node2&#45;&gt;Node6</title>
<path fill="none" stroke="midnightblue" d="M359.13,-363.94C422.81,-357.26 513.99,-347.69 576.57,-341.12"/>
<polygon fill="midnightblue" stroke="midnightblue" points="577.17,-344.58 586.75,-340.05 576.44,-337.61 577.17,-344.58"/>
</g>
<!-- Node7 -->
<g id="node7" class="node">
<title>Node7</title>
<g id="a_node7"><a xlink:href="../../df/dc9/classrawspeed_1_1_dng_opcodes_1_1_r_o_i_opcode.html#a18543c8017b64d69566acc55164af4cc" target="_top" xlink:title=" ">
<polygon fill="none" stroke="black" points="399.5,-206.73 399.5,-236.73 536.5,-236.73 536.5,-206.73 399.5,-206.73"/>
<text text-anchor="start" x="407.5" y="-224.73" font-family="Helvetica,sans-Serif" font-size="10.00">rawspeed::DngOpcodes</text>
<text text-anchor="middle" x="468" y="-213.73" font-family="Helvetica,sans-Serif" font-size="10.00">::ROIOpcode::ROIOpcode</text>
</a>
</g>
</g>
<!-- Node2&#45;&gt;Node7 -->
<g id="edge7" class="edge">
<title>Node2&#45;&gt;Node7</title>
<path fill="none" stroke="midnightblue" d="M303.45,-356.52C335.97,-329.72 403.55,-274.02 440.85,-243.28"/>
<polygon fill="midnightblue" stroke="midnightblue" points="443.28,-245.81 448.77,-236.75 438.83,-240.41 443.28,-245.81"/>
</g>
<!-- Node7&#45;&gt;Node5 -->
<g id="edge8" class="edge">
<title>Node7&#45;&gt;Node5</title>
<path fill="none" stroke="midnightblue" d="M476.98,-236.83C492.53,-264.85 529.56,-325.09 577,-358.73 579.11,-360.22 581.32,-361.63 583.6,-362.96"/>
<polygon fill="midnightblue" stroke="midnightblue" points="582.21,-366.18 592.7,-367.67 585.43,-359.96 582.21,-366.18"/>
</g>
<!-- Node7&#45;&gt;Node6 -->
<g id="edge22" class="edge">
<title>Node7&#45;&gt;Node6</title>
<path fill="none" stroke="midnightblue" d="M486.03,-236.77C506.56,-254.39 542.62,-283.71 577,-303.73 583.52,-307.52 590.61,-311.12 597.7,-314.41"/>
<polygon fill="midnightblue" stroke="midnightblue" points="596.74,-317.82 607.3,-318.71 599.6,-311.43 596.74,-317.82"/>
</g>
<!-- Node8 -->
<g id="node8" class="node">
<title>Node8</title>
<g id="a_node8"><a xlink:href="../../d8/d75/classrawspeed_1_1i_point2_d.html#ab980cc8ab2f3502a5a2c230530ba2a64" target="_top" xlink:title=" ">
<polygon fill="none" stroke="black" points="1095,-176.73 1095,-206.73 1206,-206.73 1206,-176.73 1095,-176.73"/>
<text text-anchor="start" x="1103" y="-194.73" font-family="Helvetica,sans-Serif" font-size="10.00">rawspeed::iPoint2D</text>
<text text-anchor="middle" x="1150.5" y="-183.73" font-family="Helvetica,sans-Serif" font-size="10.00">::iPoint2D</text>
</a>
</g>
</g>
<!-- Node7&#45;&gt;Node8 -->
<g id="edge9" class="edge">
<title>Node7&#45;&gt;Node8</title>
<path fill="none" stroke="midnightblue" d="M472.29,-206.72C481.37,-169.48 510.6,-73.06 577,-34.73 766.85,74.86 1036.42,-106.03 1122.19,-170.36"/>
<polygon fill="midnightblue" stroke="midnightblue" points="1120.29,-173.31 1130.37,-176.56 1124.52,-167.73 1120.29,-173.31"/>
</g>
<!-- Node9 -->
<g id="node9" class="node">
<title>Node9</title>
<g id="a_node9"><a xlink:href="../../d6/d8f/classrawspeed_1_1i_rectangle2_d.html#a7ec79d6a8dc1f04262729c2d4fd528d3" target="_top" xlink:title=" ">
<polygon fill="none" stroke="black" points="925,-269.73 925,-299.73 1059,-299.73 1059,-269.73 925,-269.73"/>
<text text-anchor="start" x="933" y="-287.73" font-family="Helvetica,sans-Serif" font-size="10.00">rawspeed::iRectangle2D</text>
<text text-anchor="middle" x="992" y="-276.73" font-family="Helvetica,sans-Serif" font-size="10.00">::iRectangle2D</text>
</a>
</g>
</g>
<!-- Node7&#45;&gt;Node9 -->
<g id="edge10" class="edge">
<title>Node7&#45;&gt;Node9</title>
<path fill="none" stroke="midnightblue" d="M494.6,-236.82C515.87,-248.49 547.33,-263.78 577,-270.73 692.28,-297.7 830.51,-295.77 914.49,-290.96"/>
<polygon fill="midnightblue" stroke="midnightblue" points="914.94,-294.44 924.71,-290.34 914.52,-287.45 914.94,-294.44"/>
</g>
<!-- Node10 -->
<g id="node10" class="node">
<title>Node10</title>
<g id="a_node10"><a xlink:href="../../d6/d8f/classrawspeed_1_1i_rectangle2_d.html#a8e5d729239ce4ebabfc221d463a3c79e" target="_top" xlink:title=" ">
<polygon fill="none" stroke="black" points="581,-132.73 581,-162.73 715,-162.73 715,-132.73 581,-132.73"/>
<text text-anchor="start" x="589" y="-150.73" font-family="Helvetica,sans-Serif" font-size="10.00">rawspeed::iRectangle2D</text>
<text text-anchor="middle" x="648" y="-139.73" font-family="Helvetica,sans-Serif" font-size="10.00">::isPointInsideInclusive</text>
</a>
</g>
</g>
<!-- Node7&#45;&gt;Node10 -->
<g id="edge12" class="edge">
<title>Node7&#45;&gt;Node10</title>
<path fill="none" stroke="midnightblue" d="M500.36,-206.66C521.76,-196.6 550.85,-183.31 577,-172.73 582.36,-170.56 588,-168.38 593.64,-166.26"/>
<polygon fill="midnightblue" stroke="midnightblue" points="594.93,-169.52 603.1,-162.77 592.51,-162.95 594.93,-169.52"/>
</g>
<!-- Node14 -->
<g id="node14" class="node">
<title>Node14</title>
<g id="a_node14"><a xlink:href="../../d8/d75/classrawspeed_1_1i_point2_d.html#a16873af73bf76858d0f31c2b7802c310" target="_top" xlink:title=" ">
<polygon fill="none" stroke="black" points="766.5,-88.73 766.5,-118.73 877.5,-118.73 877.5,-88.73 766.5,-88.73"/>
<text text-anchor="start" x="774.5" y="-106.73" font-family="Helvetica,sans-Serif" font-size="10.00">rawspeed::iPoint2D</text>
<text text-anchor="middle" x="822" y="-95.73" font-family="Helvetica,sans-Serif" font-size="10.00">::operator&gt;=</text>
</a>
</g>
</g>
<!-- Node7&#45;&gt;Node14 -->
<g id="edge23" class="edge">
<title>Node7&#45;&gt;Node14</title>
<path fill="none" stroke="midnightblue" d="M479.92,-206.69C497.46,-183.89 534.31,-141.27 577,-122.73 633.88,-98.02 705.21,-95.31 756.02,-97.54"/>
<polygon fill="midnightblue" stroke="midnightblue" points="756.05,-101.05 766.22,-98.07 756.42,-94.06 756.05,-101.05"/>
</g>
<!-- Node15 -->
<g id="node15" class="node">
<title>Node15</title>
<g id="a_node15"><a xlink:href="../../d6/d8f/classrawspeed_1_1i_rectangle2_d.html#a5fa041d0ecfb6fe7538f73c735cdb42c" target="_top" xlink:title=" ">
<polygon fill="none" stroke="black" points="581,-181.73 581,-211.73 715,-211.73 715,-181.73 581,-181.73"/>
<text text-anchor="start" x="589" y="-199.73" font-family="Helvetica,sans-Serif" font-size="10.00">rawspeed::iRectangle2D</text>
<text text-anchor="middle" x="648" y="-188.73" font-family="Helvetica,sans-Serif" font-size="10.00">::isThisInside</text>
</a>
</g>
</g>
<!-- Node7&#45;&gt;Node15 -->
<g id="edge18" class="edge">
<title>Node7&#45;&gt;Node15</title>
<path fill="none" stroke="midnightblue" d="M536.55,-212.24C547.81,-210.66 559.55,-209.01 571,-207.4"/>
<polygon fill="midnightblue" stroke="midnightblue" points="571.55,-210.86 580.97,-206 570.58,-203.92 571.55,-210.86"/>
</g>
<!-- Node16 -->
<g id="node16" class="node">
<title>Node16</title>
<g id="a_node16"><a xlink:href="../../d6/d8f/classrawspeed_1_1i_rectangle2_d.html#a85b5a792f7646c485c87068744ec99a8" target="_top" xlink:title=" ">
<polygon fill="none" stroke="black" points="577,-230.73 577,-260.73 719,-260.73 719,-230.73 577,-230.73"/>
<text text-anchor="start" x="585" y="-248.73" font-family="Helvetica,sans-Serif" font-size="10.00">rawspeed::iRectangle2D</text>
<text text-anchor="middle" x="648" y="-237.73" font-family="Helvetica,sans-Serif" font-size="10.00">::setBottomRightAbsolute</text>
</a>
</g>
</g>
<!-- Node7&#45;&gt;Node16 -->
<g id="edge24" class="edge">
<title>Node7&#45;&gt;Node16</title>
<path fill="none" stroke="midnightblue" d="M536.55,-230.83C546.43,-232.17 556.69,-233.55 566.8,-234.91"/>
<polygon fill="midnightblue" stroke="midnightblue" points="566.46,-238.4 576.83,-236.27 567.39,-231.46 566.46,-238.4"/>
</g>
<!-- Node18 -->
<g id="node18" class="node">
<title>Node18</title>
<g id="a_node18"><a xlink:href="../../d6/d8f/classrawspeed_1_1i_rectangle2_d.html#a20ef43ce186cdd3bd63929eeb6c727d9" target="_top" xlink:title=" ">
<polygon fill="none" stroke="black" points="581,-44.73 581,-74.73 715,-74.73 715,-44.73 581,-44.73"/>
<text text-anchor="start" x="589" y="-62.73" font-family="Helvetica,sans-Serif" font-size="10.00">rawspeed::iRectangle2D</text>
<text text-anchor="middle" x="648" y="-51.73" font-family="Helvetica,sans-Serif" font-size="10.00">::setTopLeft</text>
</a>
</g>
</g>
<!-- Node7&#45;&gt;Node18 -->
<g id="edge27" class="edge">
<title>Node7&#45;&gt;Node18</title>
<path fill="none" stroke="midnightblue" d="M477.87,-206.67C494.33,-179.88 532.04,-123.55 577,-89.73 582.13,-85.87 587.83,-82.39 593.71,-79.29"/>
<polygon fill="midnightblue" stroke="midnightblue" points="595.58,-82.28 603.02,-74.74 592.5,-75.99 595.58,-82.28"/>
</g>
<!-- Node9&#45;&gt;Node8 -->
<g id="edge11" class="edge">
<title>Node9&#45;&gt;Node8</title>
<path fill="none" stroke="midnightblue" d="M1023.91,-269.62C1035.1,-263.94 1047.75,-257.27 1059,-250.73 1079.43,-238.84 1101.68,-224.36 1119.01,-212.72"/>
<polygon fill="midnightblue" stroke="midnightblue" points="1121.26,-215.42 1127.58,-206.92 1117.34,-209.62 1121.26,-215.42"/>
</g>
<!-- Node11 -->
<g id="node11" class="node">
<title>Node11</title>
<g id="a_node11"><a xlink:href="../../d6/d8f/classrawspeed_1_1i_rectangle2_d.html#ad6ae3f2ed094abc10d38b954af7e5b99" target="_top" xlink:title=" ">
<polygon fill="none" stroke="black" points="755,-137.73 755,-167.73 889,-167.73 889,-137.73 755,-137.73"/>
<text text-anchor="start" x="763" y="-155.73" font-family="Helvetica,sans-Serif" font-size="10.00">rawspeed::iRectangle2D</text>
<text text-anchor="middle" x="822" y="-144.73" font-family="Helvetica,sans-Serif" font-size="10.00">::getBottomRight</text>
</a>
</g>
</g>
<!-- Node10&#45;&gt;Node11 -->
<g id="edge13" class="edge">
<title>Node10&#45;&gt;Node11</title>
<path fill="none" stroke="midnightblue" d="M715.01,-149.64C724.71,-149.93 734.77,-150.22 744.66,-150.51"/>
<polygon fill="midnightblue" stroke="midnightblue" points="744.79,-154.01 754.88,-150.8 744.99,-147.01 744.79,-154.01"/>
</g>
<!-- Node13 -->
<g id="node13" class="node">
<title>Node13</title>
<g id="a_node13"><a xlink:href="../../d8/d75/classrawspeed_1_1i_point2_d.html#a368d3167882bee5c5d42813d99a17c56" target="_top" xlink:title=" ">
<polygon fill="none" stroke="black" points="766.5,-186.73 766.5,-216.73 877.5,-216.73 877.5,-186.73 766.5,-186.73"/>
<text text-anchor="start" x="774.5" y="-204.73" font-family="Helvetica,sans-Serif" font-size="10.00">rawspeed::iPoint2D</text>
<text text-anchor="middle" x="822" y="-193.73" font-family="Helvetica,sans-Serif" font-size="10.00">::operator&lt;=</text>
</a>
</g>
</g>
<!-- Node10&#45;&gt;Node13 -->
<g id="edge16" class="edge">
<title>Node10&#45;&gt;Node13</title>
<path fill="none" stroke="midnightblue" d="M696.91,-162.77C717.51,-169.24 741.77,-176.85 763.35,-183.62"/>
<polygon fill="midnightblue" stroke="midnightblue" points="762.46,-187.01 773.05,-186.67 764.55,-180.34 762.46,-187.01"/>
</g>
<!-- Node10&#45;&gt;Node14 -->
<g id="edge17" class="edge">
<title>Node10&#45;&gt;Node14</title>
<path fill="none" stroke="midnightblue" d="M707.71,-132.71C723.43,-128.69 740.5,-124.32 756.51,-120.22"/>
<polygon fill="midnightblue" stroke="midnightblue" points="757.5,-123.58 766.32,-117.71 755.76,-116.8 757.5,-123.58"/>
</g>
<!-- Node12 -->
<g id="node12" class="node">
<title>Node12</title>
<g id="a_node12"><a xlink:href="../../d8/d75/classrawspeed_1_1i_point2_d.html#aed6c2f5995cd12a0bb27e6d7e2d88fdb" target="_top" xlink:title=" ">
<polygon fill="none" stroke="black" points="936.5,-142.73 936.5,-172.73 1047.5,-172.73 1047.5,-142.73 936.5,-142.73"/>
<text text-anchor="start" x="944.5" y="-160.73" font-family="Helvetica,sans-Serif" font-size="10.00">rawspeed::iPoint2D</text>
<text text-anchor="middle" x="992" y="-149.73" font-family="Helvetica,sans-Serif" font-size="10.00">::operator+</text>
</a>
</g>
</g>
<!-- Node11&#45;&gt;Node12 -->
<g id="edge14" class="edge">
<title>Node11&#45;&gt;Node12</title>
<path fill="none" stroke="midnightblue" d="M889.4,-154.7C901.58,-155.06 914.28,-155.44 926.4,-155.8"/>
<polygon fill="midnightblue" stroke="midnightblue" points="926.33,-159.3 936.43,-156.1 926.54,-152.31 926.33,-159.3"/>
</g>
<!-- Node12&#45;&gt;Node8 -->
<g id="edge15" class="edge">
<title>Node12&#45;&gt;Node8</title>
<path fill="none" stroke="midnightblue" d="M1047.74,-169.62C1059.77,-172.23 1072.62,-175.02 1085,-177.71"/>
<polygon fill="midnightblue" stroke="midnightblue" points="1084.28,-181.14 1094.79,-179.84 1085.77,-174.3 1084.28,-181.14"/>
</g>
<!-- Node15&#45;&gt;Node11 -->
<g id="edge19" class="edge">
<title>Node15&#45;&gt;Node11</title>
<path fill="none" stroke="midnightblue" d="M707.71,-181.71C722.02,-178.05 737.46,-174.1 752.19,-170.33"/>
<polygon fill="midnightblue" stroke="midnightblue" points="753.44,-173.62 762.26,-167.75 751.71,-166.84 753.44,-173.62"/>
</g>
<!-- Node15&#45;&gt;Node13 -->
<g id="edge20" class="edge">
<title>Node15&#45;&gt;Node13</title>
<path fill="none" stroke="midnightblue" d="M715.01,-198.64C728.52,-199.04 742.73,-199.45 756.2,-199.84"/>
<polygon fill="midnightblue" stroke="midnightblue" points="756.24,-203.34 766.33,-200.14 756.44,-196.35 756.24,-203.34"/>
</g>
<!-- Node15&#45;&gt;Node14 -->
<g id="edge21" class="edge">
<title>Node15&#45;&gt;Node14</title>
<path fill="none" stroke="midnightblue" d="M703.28,-181.64C708.81,-179.08 714.17,-176.13 719,-172.73 739.95,-157.99 734.19,-142.66 755,-127.73 757.08,-126.23 759.26,-124.82 761.52,-123.49"/>
<polygon fill="midnightblue" stroke="midnightblue" points="763.29,-126.51 770.51,-118.75 760.03,-120.32 763.29,-126.51"/>
</g>
<!-- Node17 -->
<g id="node17" class="node">
<title>Node17</title>
<g id="a_node17"><a xlink:href="../../d8/d75/classrawspeed_1_1i_point2_d.html#a3c2f09435c8e2610e80b6e5f7f9c0705" target="_top" xlink:title=" ">
<polygon fill="none" stroke="black" points="936.5,-210.73 936.5,-240.73 1047.5,-240.73 1047.5,-210.73 936.5,-210.73"/>
<text text-anchor="start" x="944.5" y="-228.73" font-family="Helvetica,sans-Serif" font-size="10.00">rawspeed::iPoint2D</text>
<text text-anchor="middle" x="992" y="-217.73" font-family="Helvetica,sans-Serif" font-size="10.00">::operator&#45;</text>
</a>
</g>
</g>
<!-- Node16&#45;&gt;Node17 -->
<g id="edge25" class="edge">
<title>Node16&#45;&gt;Node17</title>
<path fill="none" stroke="midnightblue" d="M719.03,-241.63C779.69,-238.08 866.74,-232.99 925.9,-229.53"/>
<polygon fill="midnightblue" stroke="midnightblue" points="926.47,-233.01 936.25,-228.93 926.06,-226.02 926.47,-233.01"/>
</g>
<!-- Node17&#45;&gt;Node8 -->
<g id="edge26" class="edge">
<title>Node17&#45;&gt;Node8</title>
<path fill="none" stroke="midnightblue" d="M1047.74,-213.83C1059.77,-211.22 1072.62,-208.43 1085,-205.74"/>
<polygon fill="midnightblue" stroke="midnightblue" points="1085.77,-209.15 1094.79,-203.61 1084.28,-202.31 1085.77,-209.15"/>
</g>
</g>
</svg>
        <g id="navigator" transform="translate(0 0)" fill="#404254">
                <rect fill="#f2f5e9" fill-opacity="0.5" stroke="#606060" stroke-width=".5" x="0" y="0" width="60" height="60"/>
                <use id="zoomplus" xlink:href="#zoomPlus" x="17" y="9" onmousedown="handleZoom(evt,'in')"/>
                <use id="zoomminus" xlink:href="#zoomMin" x="42" y="9" onmousedown="handleZoom(evt,'out')"/>
                <use id="reset" xlink:href="#resetDef" x="30" y="36" onmousedown="handleReset()"/>
                <g id="arrowUp" xlink:href="#dirArrow" transform="translate(30 24)" onmousedown="handlePan(0,-1)">
                  <use xlink:href="#rim" fill="#404040">
                        <set attributeName="fill" to="#808080" begin="arrowUp.mouseover" end="arrowUp.mouseout"/>
                  </use>
                  <path fill="none" stroke="white" stroke-width="1.5" d="M0,-3.0v7 M-2.5,-0.5L0,-3.0L2.5,-0.5"/>
                </g>
                <g id="arrowRight" xlink:href="#dirArrow" transform="rotate(90) translate(36 -43)" onmousedown="handlePan(1,0)">
                  <use xlink:href="#rim" fill="#404040">
                        <set attributeName="fill" to="#808080" begin="arrowRight.mouseover" end="arrowRight.mouseout"/>
                  </use>
                  <path fill="none" stroke="white" stroke-width="1.5" d="M0,-3.0v7 M-2.5,-0.5L0,-3.0L2.5,-0.5"/>
                </g>
                <g id="arrowDown" xlink:href="#dirArrow" transform="rotate(180) translate(-30 -48)" onmousedown="handlePan(0,1)">
                  <use xlink:href="#rim" fill="#404040">
                        <set attributeName="fill" to="#808080" begin="arrowDown.mouseover" end="arrowDown.mouseout"/>
                  </use>
                  <path fill="none" stroke="white" stroke-width="1.5" d="M0,-3.0v7 M-2.5,-0.5L0,-3.0L2.5,-0.5"/>
                </g>
                <g id="arrowLeft" xlink:href="#dirArrow" transform="rotate(270) translate(-36 17)" onmousedown="handlePan(-1,0)">
                  <use xlink:href="#rim" fill="#404040">
                        <set attributeName="fill" to="#808080" begin="arrowLeft.mouseover" end="arrowLeft.mouseout"/>
                  </use>
                  <path fill="none" stroke="white" stroke-width="1.5" d="M0,-3.0v7 M-2.5,-0.5L0,-3.0L2.5,-0.5"/>
                </g>
        </g>
        <svg viewBox="0 0 15 15" width="100%" height="30px" preserveAspectRatio="xMaxYMin meet">
         <g id="arrow_out" transform="scale(0.3 0.3)">
          <a xlink:href="classrawspeed_1_1_dng_opcodes_1_1_lookup_opcode_a90e7b20b578b60967bd9e9b85e323a17_cgraph_org.svg" target="_base">
           <rect id="button" ry="5" rx="5" y="6" x="6" height="38" width="38"
                fill="#f2f5e9" fill-opacity="0.5" stroke="#606060" stroke-width="1.0"/>
           <path id="arrow"
             d="M 11.500037,31.436501 C 11.940474,20.09759 22.043105,11.32322 32.158766,21.979434 L 37.068811,17.246167 C 37.068811,17.246167 37.088388,32 37.088388,32 L 22.160133,31.978069 C 22.160133,31.978069 26.997745,27.140456 26.997745,27.140456 C 18.528582,18.264221 13.291696,25.230495 11.500037,31.436501 z"
             style="fill:#404040;"/>
          </a>
         </g>
        </svg>
</svg>
