<?xml version="1.0" encoding="UTF-8" standalone="no"?>
<!DOCTYPE svg PUBLIC "-//W3C//DTD SVG 1.1//EN"
 "http://www.w3.org/Graphics/SVG/1.1/DTD/svg11.dtd">
<!-- Generated by graphviz version 2.43.0 (0)
 -->
<!-- Title: rawspeed::DngOpcodes::LookupOpcode::LookupOpcode Pages: 1 -->
<svg width="396pt" height="88pt"
 viewBox="0.00 0.00 396.00 88.00" xmlns="http://www.w3.org/2000/svg" xmlns:xlink="http://www.w3.org/1999/xlink">
<g id="graph0" class="graph" transform="scale(1 1) rotate(0) translate(4 84)">
<title>rawspeed::DngOpcodes::LookupOpcode::LookupOpcode</title>
<!-- Node1 -->
<g id="node1" class="node">
<title>Node1</title>
<g id="a_node1"><a xlink:title=" ">
<polygon fill="#bfbfbf" stroke="black" points="215,-24.5 215,-54.5 388,-54.5 388,-24.5 215,-24.5"/>
<text text-anchor="start" x="223" y="-42.5" font-family="Helvetica,sans-Serif" font-size="10.00">rawspeed::DngOpcodes</text>
<text text-anchor="middle" x="301.5" y="-31.5" font-family="Helvetica,sans-Serif" font-size="10.00">::LookupOpcode::LookupOpcode</text>
</a>
</g>
</g>
<!-- Node1&#45;&gt;Node1 -->
<g id="edge1" class="edge">
<title>Node1&#45;&gt;Node1</title>
<path fill="none" stroke="midnightblue" d="M339.17,-64.96C334.49,-69.68 321.94,-73 301.5,-73 267.96,-73 255.65,-64.06 264.55,-54.66"/>
<polygon fill="midnightblue" stroke="midnightblue" points="342.64,-64.39 338.45,-54.66 335.66,-64.88 342.64,-64.39"/>
</g>
<!-- Node2 -->
<g id="node2" class="node">
<title>Node2</title>
<g id="a_node2"><a xlink:href="../../d8/d70/classrawspeed_1_1_dng_opcodes_1_1_polynomial_map.html#a5ba7f4d079c409526da52143518d6c6f" target="_top" xlink:title=" ">
<polygon fill="none" stroke="black" points="0,-49.5 0,-79.5 179,-79.5 179,-49.5 0,-49.5"/>
<text text-anchor="start" x="8" y="-67.5" font-family="Helvetica,sans-Serif" font-size="10.00">rawspeed::DngOpcodes</text>
<text text-anchor="middle" x="89.5" y="-56.5" font-family="Helvetica,sans-Serif" font-size="10.00">::PolynomialMap::PolynomialMap</text>
</a>
</g>
</g>
<!-- Node1&#45;&gt;Node2 -->
<g id="edge2" class="edge">
<title>Node1&#45;&gt;Node2</title>
<path fill="none" stroke="midnightblue" d="M204.76,-50.9C196.19,-51.92 187.52,-52.95 179.01,-53.96"/>
<polygon fill="midnightblue" stroke="midnightblue" points="205.27,-54.36 214.78,-49.7 204.44,-47.41 205.27,-54.36"/>
</g>
<!-- Node3 -->
<g id="node3" class="node">
<title>Node3</title>
<g id="a_node3"><a xlink:href="../../dc/d9c/classrawspeed_1_1_dng_opcodes_1_1_table_map.html#a0f4b8c3112f447ae3a1e487b42e11d3d" target="_top" xlink:title=" ">
<polygon fill="none" stroke="black" points="24,-0.5 24,-30.5 155,-30.5 155,-0.5 24,-0.5"/>
<text text-anchor="start" x="32" y="-18.5" font-family="Helvetica,sans-Serif" font-size="10.00">rawspeed::DngOpcodes</text>
<text text-anchor="middle" x="89.5" y="-7.5" font-family="Helvetica,sans-Serif" font-size="10.00">::TableMap::TableMap</text>
</a>
</g>
</g>
<!-- Node1&#45;&gt;Node3 -->
<g id="edge3" class="edge">
<title>Node1&#45;&gt;Node3</title>
<path fill="none" stroke="midnightblue" d="M204.42,-28.52C187.69,-26.61 170.66,-24.66 155.03,-22.88"/>
<polygon fill="midnightblue" stroke="midnightblue" points="204.45,-32.05 214.78,-29.7 205.24,-25.09 204.45,-32.05"/>
</g>
</g>
</svg>
