<?xml version="1.0" encoding="UTF-8" standalone="no"?>
<!DOCTYPE svg PUBLIC "-//W3C//DTD SVG 1.1//EN"
 "http://www.w3.org/Graphics/SVG/1.1/DTD/svg11.dtd">
<!-- Generated by graphviz version 2.43.0 (0)
 -->
<!-- Title: rawspeed::RawParser Pages: 1 -->
<svg width="192pt" height="162pt"
 viewBox="0.00 0.00 192.00 162.00" xmlns="http://www.w3.org/2000/svg" xmlns:xlink="http://www.w3.org/1999/xlink">
<g id="graph0" class="graph" transform="scale(1 1) rotate(0) translate(4 158)">
<title>rawspeed::RawParser</title>
<!-- Node1 -->
<g id="node1" class="node">
<title>Node1</title>
<g id="a_node1"><a xlink:title=" ">
<polygon fill="#bfbfbf" stroke="black" points="32.5,-0.5 32.5,-19.5 153.5,-19.5 153.5,-0.5 32.5,-0.5"/>
<text text-anchor="middle" x="93" y="-7.5" font-family="Helvetica,sans-Serif" font-size="10.00">rawspeed::RawParser</text>
</a>
</g>
</g>
<!-- Node2 -->
<g id="node2" class="node">
<title>Node2</title>
<g id="a_node2"><a xlink:href="../../d3/dca/classrawspeed_1_1_buffer.html" target="_top" xlink:title=" ">
<polygon fill="none" stroke="black" points="43.5,-67.5 43.5,-86.5 142.5,-86.5 142.5,-67.5 43.5,-67.5"/>
<text text-anchor="middle" x="93" y="-74.5" font-family="Helvetica,sans-Serif" font-size="10.00">rawspeed::Buffer</text>
</a>
</g>
</g>
<!-- Node2&#45;&gt;Node1 -->
<g id="edge1" class="edge">
<title>Node2&#45;&gt;Node1</title>
<path fill="none" stroke="#9a32cd" stroke-dasharray="5,2" d="M93,-57.04C93,-44.67 93,-29.12 93,-19.63"/>
<polygon fill="#9a32cd" stroke="#9a32cd" points="89.5,-57.23 93,-67.23 96.5,-57.23 89.5,-57.23"/>
<text text-anchor="middle" x="112" y="-41" font-family="Helvetica,sans-Serif" font-size="10.00"> mInput</text>
</g>
<!-- Node3 -->
<g id="node3" class="node">
<title>Node3</title>
<g id="a_node3"><a xlink:href="../../d3/d87/classuint32__t.html" target="_top" xlink:title=" ">
<polygon fill="none" stroke="black" points="0,-134.5 0,-153.5 56,-153.5 56,-134.5 0,-134.5"/>
<text text-anchor="middle" x="28" y="-141.5" font-family="Helvetica,sans-Serif" font-size="10.00">uint32_t</text>
</a>
</g>
</g>
<!-- Node3&#45;&gt;Node2 -->
<g id="edge2" class="edge">
<title>Node3&#45;&gt;Node2</title>
<path fill="none" stroke="#9a32cd" stroke-dasharray="5,2" d="M44,-127C56.75,-114.25 74.11,-96.89 84.37,-86.63"/>
<polygon fill="#9a32cd" stroke="#9a32cd" points="41.36,-124.69 36.77,-134.23 46.31,-129.64 41.36,-124.69"/>
<text text-anchor="middle" x="75.5" y="-108" font-family="Helvetica,sans-Serif" font-size="10.00"> size</text>
</g>
<!-- Node4 -->
<g id="node4" class="node">
<title>Node4</title>
<g id="a_node4"><a xlink:title=" ">
<polygon fill="none" stroke="#bfbfbf" points="74,-134.5 74,-153.5 112,-153.5 112,-134.5 74,-134.5"/>
<text text-anchor="middle" x="93" y="-141.5" font-family="Helvetica,sans-Serif" font-size="10.00">bool</text>
</a>
</g>
</g>
<!-- Node4&#45;&gt;Node2 -->
<g id="edge3" class="edge">
<title>Node4&#45;&gt;Node2</title>
<path fill="none" stroke="#9a32cd" stroke-dasharray="5,2" d="M93,-124.04C93,-111.67 93,-96.12 93,-86.63"/>
<polygon fill="#9a32cd" stroke="#9a32cd" points="89.5,-124.23 93,-134.23 96.5,-124.23 89.5,-124.23"/>
<text text-anchor="middle" x="114.5" y="-108" font-family="Helvetica,sans-Serif" font-size="10.00"> isOwner</text>
</g>
<!-- Node5 -->
<g id="node5" class="node">
<title>Node5</title>
<g id="a_node5"><a xlink:title=" ">
<polygon fill="none" stroke="#bfbfbf" points="134,-134.5 134,-153.5 184,-153.5 184,-134.5 134,-134.5"/>
<text text-anchor="middle" x="159" y="-141.5" font-family="Helvetica,sans-Serif" font-size="10.00">uint8_t</text>
</a>
</g>
</g>
<!-- Node5&#45;&gt;Node2 -->
<g id="edge4" class="edge">
<title>Node5&#45;&gt;Node2</title>
<path fill="none" stroke="#9a32cd" stroke-dasharray="5,2" d="M151.02,-125.14C147.4,-118.32 142.65,-110.79 137,-105 129.74,-97.56 120.03,-91.31 111.57,-86.71"/>
<polygon fill="#9a32cd" stroke="#9a32cd" points="147.97,-126.88 155.49,-134.35 154.27,-123.83 147.97,-126.88"/>
<text text-anchor="middle" x="157.5" y="-108" font-family="Helvetica,sans-Serif" font-size="10.00"> data</text>
</g>
</g>
</svg>
