<?xml version="1.0" encoding="UTF-8" standalone="no"?>
<!DOCTYPE svg PUBLIC "-//W3C//DTD SVG 1.1//EN"
 "http://www.w3.org/Graphics/SVG/1.1/DTD/svg11.dtd">
<!-- Generated by graphviz version 2.43.0 (0)
 -->
<!-- Title: rawspeed::RawImageData::getData Pages: 1 -->
<svg width="720pt" height="253pt"
 viewBox="0.00 0.00 720.00 252.50" xmlns="http://www.w3.org/2000/svg" xmlns:xlink="http://www.w3.org/1999/xlink">
<g id="graph0" class="graph" transform="scale(1 1) rotate(0) translate(4 248.5)">
<title>rawspeed::RawImageData::getData</title>
<!-- Node1 -->
<g id="node1" class="node">
<title>Node1</title>
<g id="a_node1"><a xlink:title=" ">
<polygon fill="#bfbfbf" stroke="black" points="567,-104.5 567,-134.5 712,-134.5 712,-104.5 567,-104.5"/>
<text text-anchor="start" x="575" y="-122.5" font-family="Helvetica,sans-Serif" font-size="10.00">rawspeed::RawImageData</text>
<text text-anchor="middle" x="639.5" y="-111.5" font-family="Helvetica,sans-Serif" font-size="10.00">::getData</text>
</a>
</g>
</g>
<!-- Node2 -->
<g id="node2" class="node">
<title>Node2</title>
<g id="a_node2"><a xlink:href="../../d8/d14/classrawspeed_1_1_dng_opcodes_1_1_fix_bad_pixels_constant.html#a5df7f56a2c46e334b20a0b63949f9e24" target="_top" xlink:title=" ">
<polygon fill="none" stroke="black" points="393,-203 393,-244 524,-244 524,-203 393,-203"/>
<text text-anchor="start" x="401" y="-232" font-family="Helvetica,sans-Serif" font-size="10.00">rawspeed::DngOpcodes</text>
<text text-anchor="start" x="401" y="-221" font-family="Helvetica,sans-Serif" font-size="10.00">::FixBadPixelsConstant</text>
<text text-anchor="middle" x="458.5" y="-210" font-family="Helvetica,sans-Serif" font-size="10.00">::apply</text>
</a>
</g>
</g>
<!-- Node1&#45;&gt;Node2 -->
<g id="edge1" class="edge">
<title>Node1&#45;&gt;Node2</title>
<path fill="none" stroke="midnightblue" d="M610.89,-140.86C589.75,-156.62 559.48,-177.94 531,-193.5 524.98,-196.79 518.51,-199.96 512.03,-202.93"/>
<polygon fill="midnightblue" stroke="midnightblue" points="613.2,-143.5 619.08,-134.69 608.98,-137.91 613.2,-143.5"/>
</g>
<!-- Node3 -->
<g id="node3" class="node">
<title>Node3</title>
<g id="a_node3"><a xlink:href="../../d5/dcb/classrawspeed_1_1_dng_opcodes_1_1_pixel_opcode.html#ab4d79e52d19f3a299e8d7dd9a6595fed" target="_top" xlink:title=" ">
<polygon fill="none" stroke="black" points="393,-153.5 393,-183.5 524,-183.5 524,-153.5 393,-153.5"/>
<text text-anchor="start" x="401" y="-171.5" font-family="Helvetica,sans-Serif" font-size="10.00">rawspeed::DngOpcodes</text>
<text text-anchor="middle" x="458.5" y="-160.5" font-family="Helvetica,sans-Serif" font-size="10.00">::PixelOpcode::applyOP</text>
</a>
</g>
</g>
<!-- Node1&#45;&gt;Node3 -->
<g id="edge2" class="edge">
<title>Node1&#45;&gt;Node3</title>
<path fill="none" stroke="midnightblue" d="M573.66,-137.25C554.26,-142.56 533.19,-148.33 514.48,-153.45"/>
<polygon fill="midnightblue" stroke="midnightblue" points="574.61,-140.62 583.33,-134.6 572.76,-133.87 574.61,-140.62"/>
</g>
<!-- Node4 -->
<g id="node4" class="node">
<title>Node4</title>
<g id="a_node4"><a xlink:href="../../dc/d44/classrawspeed_1_1_raw_image_data.html#a5a1884d989dce1f16ac3ac579fe5c286" target="_top" xlink:title=" ">
<polygon fill="none" stroke="black" points="386,-104.5 386,-134.5 531,-134.5 531,-104.5 386,-104.5"/>
<text text-anchor="start" x="394" y="-122.5" font-family="Helvetica,sans-Serif" font-size="10.00">rawspeed::RawImageData</text>
<text text-anchor="middle" x="458.5" y="-111.5" font-family="Helvetica,sans-Serif" font-size="10.00">::blitFrom</text>
</a>
</g>
</g>
<!-- Node1&#45;&gt;Node4 -->
<g id="edge3" class="edge">
<title>Node1&#45;&gt;Node4</title>
<path fill="none" stroke="midnightblue" d="M556.96,-119.5C548.36,-119.5 539.67,-119.5 531.2,-119.5"/>
<polygon fill="midnightblue" stroke="midnightblue" points="556.98,-123 566.98,-119.5 556.98,-116 556.98,-123"/>
</g>
<!-- Node5 -->
<g id="node5" class="node">
<title>Node5</title>
<g id="a_node5"><a xlink:href="../../dc/d44/classrawspeed_1_1_raw_image_data.html#af7cbbd3ab6bb415e7e1b1f58a285084f" target="_top" xlink:title=" ">
<polygon fill="none" stroke="black" points="386,-55.5 386,-85.5 531,-85.5 531,-55.5 386,-55.5"/>
<text text-anchor="start" x="394" y="-73.5" font-family="Helvetica,sans-Serif" font-size="10.00">rawspeed::RawImageData</text>
<text text-anchor="middle" x="458.5" y="-62.5" font-family="Helvetica,sans-Serif" font-size="10.00">::createData</text>
</a>
</g>
</g>
<!-- Node1&#45;&gt;Node5 -->
<g id="edge4" class="edge">
<title>Node1&#45;&gt;Node5</title>
<path fill="none" stroke="midnightblue" d="M573.66,-101.75C554.26,-96.44 533.19,-90.67 514.48,-85.55"/>
<polygon fill="midnightblue" stroke="midnightblue" points="572.76,-105.13 583.33,-104.4 574.61,-98.38 572.76,-105.13"/>
</g>
<!-- Node10 -->
<g id="node10" class="node">
<title>Node10</title>
<g id="a_node10"><a xlink:href="../../dc/d44/classrawspeed_1_1_raw_image_data.html#a51031166015f5dd9cbc5dca5d2e03a5e" target="_top" xlink:title=" ">
<polygon fill="none" stroke="black" points="386,-6.5 386,-36.5 531,-36.5 531,-6.5 386,-6.5"/>
<text text-anchor="start" x="394" y="-24.5" font-family="Helvetica,sans-Serif" font-size="10.00">rawspeed::RawImageData</text>
<text text-anchor="middle" x="458.5" y="-13.5" font-family="Helvetica,sans-Serif" font-size="10.00">::expandBorder</text>
</a>
</g>
</g>
<!-- Node1&#45;&gt;Node10 -->
<g id="edge10" class="edge">
<title>Node1&#45;&gt;Node10</title>
<path fill="none" stroke="midnightblue" d="M611.5,-98.24C590.46,-82.42 560.04,-61.12 531,-46.5 523.84,-42.89 516.03,-39.58 508.28,-36.64"/>
<polygon fill="midnightblue" stroke="midnightblue" points="609.56,-101.16 619.63,-104.44 613.8,-95.6 609.56,-101.16"/>
</g>
<!-- Node6 -->
<g id="node6" class="node">
<title>Node6</title>
<g id="a_node6"><a xlink:href="../../dc/dfc/fuzz_2librawspeed_2decompressors_2_cr2_decompressor_8cpp.html#a1c473c9665269a78ef9001573a6995df" target="_top" xlink:title=" ">
<polygon fill="none" stroke="black" points="209.5,-92 209.5,-111 345.5,-111 345.5,-92 209.5,-92"/>
<text text-anchor="middle" x="277.5" y="-99" font-family="Helvetica,sans-Serif" font-size="10.00">LLVMFuzzerTestOneInput</text>
</a>
</g>
</g>
<!-- Node5&#45;&gt;Node6 -->
<g id="edge5" class="edge">
<title>Node5&#45;&gt;Node6</title>
<path fill="none" stroke="midnightblue" d="M376.04,-84.61C361.59,-87.11 346.85,-89.66 333.36,-92"/>
<polygon fill="midnightblue" stroke="midnightblue" points="376.73,-88.04 385.98,-82.89 375.53,-81.14 376.73,-88.04"/>
</g>
<!-- Node7 -->
<g id="node7" class="node">
<title>Node7</title>
<g id="a_node7"><a xlink:href="../../dc/d44/classrawspeed_1_1_raw_image_data.html#a42cde71f129a30ef28b07012b1be4af5" target="_top" xlink:title=" ">
<polygon fill="none" stroke="black" points="205,-24.5 205,-54.5 350,-54.5 350,-24.5 205,-24.5"/>
<text text-anchor="start" x="213" y="-42.5" font-family="Helvetica,sans-Serif" font-size="10.00">rawspeed::RawImageData</text>
<text text-anchor="middle" x="277.5" y="-31.5" font-family="Helvetica,sans-Serif" font-size="10.00">::RawImageData</text>
</a>
</g>
</g>
<!-- Node5&#45;&gt;Node7 -->
<g id="edge6" class="edge">
<title>Node5&#45;&gt;Node7</title>
<path fill="none" stroke="midnightblue" d="M375.96,-56.38C367.36,-54.89 358.67,-53.38 350.2,-51.92"/>
<polygon fill="midnightblue" stroke="midnightblue" points="375.53,-59.86 385.98,-58.11 376.73,-52.96 375.53,-59.86"/>
</g>
<!-- Node7&#45;&gt;Node7 -->
<g id="edge7" class="edge">
<title>Node7&#45;&gt;Node7</title>
<path fill="none" stroke="midnightblue" d="M309.48,-64.96C305.51,-69.68 294.85,-73 277.5,-73 249.02,-73 238.57,-64.06 246.13,-54.66"/>
<polygon fill="midnightblue" stroke="midnightblue" points="312.96,-64.43 308.87,-54.66 305.97,-64.85 312.96,-64.43"/>
</g>
<!-- Node8 -->
<g id="node8" class="node">
<title>Node8</title>
<g id="a_node8"><a xlink:href="../../d5/d79/classrawspeed_1_1_raw_image_data_float.html#aa5bad22a42a5585152a82ecd5cc0cc6c" target="_top" xlink:title=" ">
<polygon fill="none" stroke="black" points="0,-49.5 0,-79.5 169,-79.5 169,-49.5 0,-49.5"/>
<text text-anchor="start" x="8" y="-67.5" font-family="Helvetica,sans-Serif" font-size="10.00">rawspeed::RawImageDataFloat</text>
<text text-anchor="middle" x="84.5" y="-56.5" font-family="Helvetica,sans-Serif" font-size="10.00">::RawImageDataFloat</text>
</a>
</g>
</g>
<!-- Node7&#45;&gt;Node8 -->
<g id="edge8" class="edge">
<title>Node7&#45;&gt;Node8</title>
<path fill="none" stroke="midnightblue" d="M194.91,-50.18C186.38,-51.3 177.7,-52.43 169.14,-53.55"/>
<polygon fill="midnightblue" stroke="midnightblue" points="195.37,-53.65 204.84,-48.88 194.47,-46.71 195.37,-53.65"/>
</g>
<!-- Node9 -->
<g id="node9" class="node">
<title>Node9</title>
<g id="a_node9"><a xlink:href="../../d9/d9e/classrawspeed_1_1_raw_image_data_u16.html#a99de5dc9f5b30a245fca2614a09bb22e" target="_top" xlink:title=" ">
<polygon fill="none" stroke="black" points="2.5,-0.5 2.5,-30.5 166.5,-30.5 166.5,-0.5 2.5,-0.5"/>
<text text-anchor="start" x="10.5" y="-18.5" font-family="Helvetica,sans-Serif" font-size="10.00">rawspeed::RawImageDataU16</text>
<text text-anchor="middle" x="84.5" y="-7.5" font-family="Helvetica,sans-Serif" font-size="10.00">::RawImageDataU16</text>
</a>
</g>
</g>
<!-- Node7&#45;&gt;Node9 -->
<g id="edge9" class="edge">
<title>Node7&#45;&gt;Node9</title>
<path fill="none" stroke="midnightblue" d="M194.78,-29.23C185.42,-28.06 175.89,-26.86 166.55,-25.68"/>
<polygon fill="midnightblue" stroke="midnightblue" points="194.48,-32.72 204.84,-30.5 195.35,-25.78 194.48,-32.72"/>
</g>
</g>
</svg>
