<?xml version="1.0" encoding="UTF-8" standalone="no"?>
<!DOCTYPE svg PUBLIC "-//W3C//DTD SVG 1.1//EN"
 "http://www.w3.org/Graphics/SVG/1.1/DTD/svg11.dtd">
<!-- Generated by graphviz version 2.43.0 (0)
 -->
<!-- Title: rawspeed::RawImageData::fixBadPixels Pages: 1 -->
<svg width="1080pt" height="137pt"
 viewBox="0.00 0.00 1080.00 137.00" xmlns="http://www.w3.org/2000/svg" xmlns:xlink="http://www.w3.org/1999/xlink">
<g id="graph0" class="graph" transform="scale(1 1) rotate(0) translate(4 133)">
<title>rawspeed::RawImageData::fixBadPixels</title>
<!-- Node1 -->
<g id="node1" class="node">
<title>Node1</title>
<g id="a_node1"><a xlink:title=" ">
<polygon fill="#bfbfbf" stroke="black" points="0,-24.5 0,-54.5 145,-54.5 145,-24.5 0,-24.5"/>
<text text-anchor="start" x="8" y="-42.5" font-family="Helvetica,sans-Serif" font-size="10.00">rawspeed::RawImageData</text>
<text text-anchor="middle" x="72.5" y="-31.5" font-family="Helvetica,sans-Serif" font-size="10.00">::fixBadPixels</text>
</a>
</g>
</g>
<!-- Node2 -->
<g id="node2" class="node">
<title>Node2</title>
<g id="a_node2"><a xlink:href="../../dc/d44/classrawspeed_1_1_raw_image_data.html#aa5e6a6d9135b0f3c51c8ce0fbd44c59a" target="_top" xlink:title=" ">
<polygon fill="none" stroke="black" points="181,-49.5 181,-79.5 326,-79.5 326,-49.5 181,-49.5"/>
<text text-anchor="start" x="189" y="-67.5" font-family="Helvetica,sans-Serif" font-size="10.00">rawspeed::RawImageData</text>
<text text-anchor="middle" x="253.5" y="-56.5" font-family="Helvetica,sans-Serif" font-size="10.00">::startWorker</text>
</a>
</g>
</g>
<!-- Node1&#45;&gt;Node2 -->
<g id="edge1" class="edge">
<title>Node1&#45;&gt;Node2</title>
<path fill="none" stroke="midnightblue" d="M145.02,-49.49C153.49,-50.67 162.18,-51.89 170.78,-53.09"/>
<polygon fill="midnightblue" stroke="midnightblue" points="170.42,-56.57 180.8,-54.49 171.38,-49.64 170.42,-56.57"/>
</g>
<!-- Node10 -->
<g id="node10" class="node">
<title>Node10</title>
<g id="a_node10"><a xlink:href="../../dc/d44/classrawspeed_1_1_raw_image_data.html#a4a8f9ab3014ccc8551e7d520ba8a1f56" target="_top" xlink:title=" ">
<polygon fill="none" stroke="black" points="181,-0.5 181,-30.5 326,-30.5 326,-0.5 181,-0.5"/>
<text text-anchor="start" x="189" y="-18.5" font-family="Helvetica,sans-Serif" font-size="10.00">rawspeed::RawImageData</text>
<text text-anchor="middle" x="253.5" y="-7.5" font-family="Helvetica,sans-Serif" font-size="10.00">::transferBadPixelsToMap</text>
</a>
</g>
</g>
<!-- Node1&#45;&gt;Node10 -->
<g id="edge9" class="edge">
<title>Node1&#45;&gt;Node10</title>
<path fill="none" stroke="midnightblue" d="M145.02,-29.91C153.49,-28.78 162.18,-27.61 170.78,-26.46"/>
<polygon fill="midnightblue" stroke="midnightblue" points="171.36,-29.91 180.8,-25.11 170.43,-22.97 171.36,-29.91"/>
</g>
<!-- Node3 -->
<g id="node3" class="node">
<title>Node3</title>
<g id="a_node3"><a xlink:href="../../df/d32/fuzz_2librawspeed_2fuzz_2_raw_speed_8cpp.html#ab151e296e86a1d941792c12c28132460" target="_top" xlink:title=" ">
<polygon fill="none" stroke="black" points="400,-99 400,-118 480,-118 480,-99 400,-99"/>
<text text-anchor="middle" x="440" y="-106" font-family="Helvetica,sans-Serif" font-size="10.00">__attribute__</text>
</a>
</g>
</g>
<!-- Node2&#45;&gt;Node3 -->
<g id="edge2" class="edge">
<title>Node2&#45;&gt;Node3</title>
<path fill="none" stroke="midnightblue" d="M317.48,-79.52C341.2,-85.18 367.79,-91.52 390.05,-96.83"/>
<polygon fill="midnightblue" stroke="midnightblue" points="389.4,-100.27 399.94,-99.18 391.02,-93.46 389.4,-100.27"/>
</g>
<!-- Node4 -->
<g id="node4" class="node">
<title>Node4</title>
<g id="a_node4"><a xlink:href="../../da/df3/classrawspeed_1_1_raw_image_worker.html#aade97192f76ba19be22f0550e644ca50" target="_top" xlink:title=" ">
<polygon fill="none" stroke="black" points="362,-49.5 362,-79.5 518,-79.5 518,-49.5 362,-49.5"/>
<text text-anchor="start" x="370" y="-67.5" font-family="Helvetica,sans-Serif" font-size="10.00">rawspeed::RawImageWorker</text>
<text text-anchor="middle" x="440" y="-56.5" font-family="Helvetica,sans-Serif" font-size="10.00">::RawImageWorker</text>
</a>
</g>
</g>
<!-- Node2&#45;&gt;Node4 -->
<g id="edge3" class="edge">
<title>Node2&#45;&gt;Node4</title>
<path fill="none" stroke="midnightblue" d="M326.1,-64.5C334.54,-64.5 343.23,-64.5 351.86,-64.5"/>
<polygon fill="midnightblue" stroke="midnightblue" points="351.94,-68 361.94,-64.5 351.94,-61 351.94,-68"/>
</g>
<!-- Node5 -->
<g id="node5" class="node">
<title>Node5</title>
<g id="a_node5"><a xlink:href="../../da/df3/classrawspeed_1_1_raw_image_worker.html#a3a90b4f33ae2f01a6dafac5e532efc37" target="_top" xlink:title=" ">
<polygon fill="none" stroke="black" points="554,-49.5 554,-79.5 710,-79.5 710,-49.5 554,-49.5"/>
<text text-anchor="start" x="562" y="-67.5" font-family="Helvetica,sans-Serif" font-size="10.00">rawspeed::RawImageWorker</text>
<text text-anchor="middle" x="632" y="-56.5" font-family="Helvetica,sans-Serif" font-size="10.00">::performTask</text>
</a>
</g>
</g>
<!-- Node4&#45;&gt;Node5 -->
<g id="edge4" class="edge">
<title>Node4&#45;&gt;Node5</title>
<path fill="none" stroke="midnightblue" d="M518.01,-64.5C526.51,-64.5 535.21,-64.5 543.83,-64.5"/>
<polygon fill="midnightblue" stroke="midnightblue" points="543.88,-68 553.88,-64.5 543.88,-61 543.88,-68"/>
</g>
<!-- Node6 -->
<g id="node6" class="node">
<title>Node6</title>
<g id="a_node6"><a xlink:href="../../dc/d44/classrawspeed_1_1_raw_image_data.html#a86b7e5d2d10712f205ba46b0548c7cd3" target="_top" xlink:title=" ">
<polygon fill="none" stroke="black" points="746,-98.5 746,-128.5 891,-128.5 891,-98.5 746,-98.5"/>
<text text-anchor="start" x="754" y="-116.5" font-family="Helvetica,sans-Serif" font-size="10.00">rawspeed::RawImageData</text>
<text text-anchor="middle" x="818.5" y="-105.5" font-family="Helvetica,sans-Serif" font-size="10.00">::doLookup</text>
</a>
</g>
</g>
<!-- Node5&#45;&gt;Node6 -->
<g id="edge5" class="edge">
<title>Node5&#45;&gt;Node6</title>
<path fill="none" stroke="midnightblue" d="M689.61,-79.53C709.09,-84.71 731.08,-90.55 751.26,-95.91"/>
<polygon fill="midnightblue" stroke="midnightblue" points="750.43,-99.31 761,-98.49 752.23,-92.54 750.43,-99.31"/>
</g>
<!-- Node7 -->
<g id="node7" class="node">
<title>Node7</title>
<g id="a_node7"><a xlink:href="../../dc/d44/classrawspeed_1_1_raw_image_data.html#a8bc02218a4b31cfb2bc9d70b6e704bf3" target="_top" xlink:title=" ">
<polygon fill="none" stroke="black" points="746,-49.5 746,-79.5 891,-79.5 891,-49.5 746,-49.5"/>
<text text-anchor="start" x="754" y="-67.5" font-family="Helvetica,sans-Serif" font-size="10.00">rawspeed::RawImageData</text>
<text text-anchor="middle" x="818.5" y="-56.5" font-family="Helvetica,sans-Serif" font-size="10.00">::fixBadPixelsThread</text>
</a>
</g>
</g>
<!-- Node5&#45;&gt;Node7 -->
<g id="edge6" class="edge">
<title>Node5&#45;&gt;Node7</title>
<path fill="none" stroke="midnightblue" d="M710.18,-64.5C718.6,-64.5 727.2,-64.5 735.67,-64.5"/>
<polygon fill="midnightblue" stroke="midnightblue" points="735.94,-68 745.94,-64.5 735.94,-61 735.94,-68"/>
</g>
<!-- Node9 -->
<g id="node9" class="node">
<title>Node9</title>
<g id="a_node9"><a xlink:href="../../dc/d44/classrawspeed_1_1_raw_image_data.html#a75573466263ea30067f2375662a02035" target="_top" xlink:title=" ">
<polygon fill="none" stroke="black" points="746,-0.5 746,-30.5 891,-30.5 891,-0.5 746,-0.5"/>
<text text-anchor="start" x="754" y="-18.5" font-family="Helvetica,sans-Serif" font-size="10.00">rawspeed::RawImageData</text>
<text text-anchor="middle" x="818.5" y="-7.5" font-family="Helvetica,sans-Serif" font-size="10.00">::scaleValues</text>
</a>
</g>
</g>
<!-- Node5&#45;&gt;Node9 -->
<g id="edge8" class="edge">
<title>Node5&#45;&gt;Node9</title>
<path fill="none" stroke="midnightblue" d="M689.61,-49.47C709.09,-44.29 731.08,-38.45 751.26,-33.09"/>
<polygon fill="midnightblue" stroke="midnightblue" points="752.23,-36.46 761,-30.51 750.43,-29.69 752.23,-36.46"/>
</g>
<!-- Node8 -->
<g id="node8" class="node">
<title>Node8</title>
<g id="a_node8"><a xlink:href="../../dc/d44/classrawspeed_1_1_raw_image_data.html#a5eb2d634f9a8b184dba201589fb15361" target="_top" xlink:title=" ">
<polygon fill="none" stroke="black" points="927,-49.5 927,-79.5 1072,-79.5 1072,-49.5 927,-49.5"/>
<text text-anchor="start" x="935" y="-67.5" font-family="Helvetica,sans-Serif" font-size="10.00">rawspeed::RawImageData</text>
<text text-anchor="middle" x="999.5" y="-56.5" font-family="Helvetica,sans-Serif" font-size="10.00">::fixBadPixel</text>
</a>
</g>
</g>
<!-- Node7&#45;&gt;Node8 -->
<g id="edge7" class="edge">
<title>Node7&#45;&gt;Node8</title>
<path fill="none" stroke="midnightblue" d="M891.02,-64.5C899.49,-64.5 908.18,-64.5 916.78,-64.5"/>
<polygon fill="midnightblue" stroke="midnightblue" points="916.8,-68 926.8,-64.5 916.8,-61 916.8,-68"/>
</g>
<!-- Node11 -->
<g id="node11" class="node">
<title>Node11</title>
<g id="a_node11"><a xlink:href="../../dc/d44/classrawspeed_1_1_raw_image_data.html#ae1d9b8567cb3365a6f2f722663597dd9" target="_top" xlink:title=" ">
<polygon fill="none" stroke="black" points="367.5,-0.5 367.5,-30.5 512.5,-30.5 512.5,-0.5 367.5,-0.5"/>
<text text-anchor="start" x="375.5" y="-18.5" font-family="Helvetica,sans-Serif" font-size="10.00">rawspeed::RawImageData</text>
<text text-anchor="middle" x="440" y="-7.5" font-family="Helvetica,sans-Serif" font-size="10.00">::createBadPixelMap</text>
</a>
</g>
</g>
<!-- Node10&#45;&gt;Node11 -->
<g id="edge10" class="edge">
<title>Node10&#45;&gt;Node11</title>
<path fill="none" stroke="midnightblue" d="M326.1,-15.5C336.28,-15.5 346.81,-15.5 357.17,-15.5"/>
<polygon fill="midnightblue" stroke="midnightblue" points="357.44,-19 367.44,-15.5 357.44,-12 357.44,-19"/>
</g>
</g>
</svg>
