<?xml version="1.0" encoding="UTF-8" standalone="no"?>
<!DOCTYPE svg PUBLIC "-//W3C//DTD SVG 1.1//EN"
 "http://www.w3.org/Graphics/SVG/1.1/DTD/svg11.dtd">
<!-- Generated by graphviz version 2.43.0 (0)
 -->
<!-- Title: rawspeed::RawImageData::__attribute__ Pages: 1 -->
<svg width="375pt" height="192pt"
 viewBox="0.00 0.00 375.00 191.50" xmlns="http://www.w3.org/2000/svg" xmlns:xlink="http://www.w3.org/1999/xlink">
<g id="graph0" class="graph" transform="scale(1 1) rotate(0) translate(4 187.5)">
<title>rawspeed::RawImageData::__attribute__</title>
<!-- Node1 -->
<g id="node1" class="node">
<title>Node1</title>
<g id="a_node1"><a xlink:title=" ">
<polygon fill="#bfbfbf" stroke="black" points="222,-71 222,-101 367,-101 367,-71 222,-71"/>
<text text-anchor="start" x="230" y="-89" font-family="Helvetica,sans-Serif" font-size="10.00">rawspeed::RawImageData</text>
<text text-anchor="middle" x="294.5" y="-78" font-family="Helvetica,sans-Serif" font-size="10.00">::__attribute__</text>
</a>
</g>
</g>
<!-- Node2 -->
<g id="node2" class="node">
<title>Node2</title>
<g id="a_node2"><a xlink:href="../../d9/d5b/classrawspeed_1_1_dng_opcodes_1_1_fix_bad_pixels_list.html#ab7bf4c8e7f4039739d0a1f520c841672" target="_top" xlink:title=" ">
<polygon fill="none" stroke="black" points="0,-153 0,-183 186,-183 186,-153 0,-153"/>
<text text-anchor="start" x="8" y="-171" font-family="Helvetica,sans-Serif" font-size="10.00">rawspeed::DngOpcodes</text>
<text text-anchor="middle" x="93" y="-160" font-family="Helvetica,sans-Serif" font-size="10.00">::FixBadPixelsList::FixBadPixelsList</text>
</a>
</g>
</g>
<!-- Node1&#45;&gt;Node2 -->
<g id="edge1" class="edge">
<title>Node1&#45;&gt;Node2</title>
<path fill="none" stroke="midnightblue" d="M259.89,-106.31C239.14,-118.22 211.67,-132.85 186,-143 176.76,-146.65 166.8,-149.96 156.97,-152.9"/>
<polygon fill="midnightblue" stroke="midnightblue" points="261.74,-109.28 268.63,-101.23 258.22,-103.23 261.74,-109.28"/>
</g>
<!-- Node3 -->
<g id="node3" class="node">
<title>Node3</title>
<g id="a_node3"><a xlink:href="../../d5/ddd/namespacerawspeed_1_1rstest.html#a6d4282d819516af1dd9e84b58e1c10d8" target="_top" xlink:title=" ">
<polygon fill="none" stroke="black" points="8,-114.5 8,-133.5 178,-133.5 178,-114.5 8,-114.5"/>
<text text-anchor="middle" x="93" y="-121.5" font-family="Helvetica,sans-Serif" font-size="10.00">rawspeed::rstest::imgDataHash</text>
</a>
</g>
</g>
<!-- Node1&#45;&gt;Node3 -->
<g id="edge2" class="edge">
<title>Node1&#45;&gt;Node3</title>
<path fill="none" stroke="midnightblue" d="M211.66,-101.59C188.68,-105.97 164.39,-110.59 143.89,-114.5"/>
<polygon fill="midnightblue" stroke="midnightblue" points="212.59,-104.97 221.76,-99.67 211.28,-98.1 212.59,-104.97"/>
</g>
<!-- Node4 -->
<g id="node4" class="node">
<title>Node4</title>
<g id="a_node4"><a xlink:href="../../d6/d0e/rawspeed-identify_8cpp.html#a0ddf1224851353fc92bfbff6f499fa97" target="_top" xlink:title=" ">
<polygon fill="none" stroke="black" points="72.5,-76.5 72.5,-95.5 113.5,-95.5 113.5,-76.5 72.5,-76.5"/>
<text text-anchor="middle" x="93" y="-83.5" font-family="Helvetica,sans-Serif" font-size="10.00">main</text>
</a>
</g>
</g>
<!-- Node1&#45;&gt;Node4 -->
<g id="edge3" class="edge">
<title>Node1&#45;&gt;Node4</title>
<path fill="none" stroke="midnightblue" d="M211.73,-86C175.83,-86 136.72,-86 113.83,-86"/>
<polygon fill="midnightblue" stroke="midnightblue" points="211.76,-89.5 221.76,-86 211.76,-82.5 211.76,-89.5"/>
</g>
<!-- Node5 -->
<g id="node5" class="node">
<title>Node5</title>
<g id="a_node5"><a xlink:href="../../d5/ddd/namespacerawspeed_1_1rstest.html#a6fe3320224e0a905852d1656a8c8449e" target="_top" xlink:title=" ">
<polygon fill="none" stroke="black" points="19,-38.5 19,-57.5 167,-57.5 167,-38.5 19,-38.5"/>
<text text-anchor="middle" x="93" y="-45.5" font-family="Helvetica,sans-Serif" font-size="10.00">rawspeed::rstest::writePFM</text>
</a>
</g>
</g>
<!-- Node1&#45;&gt;Node5 -->
<g id="edge4" class="edge">
<title>Node1&#45;&gt;Node5</title>
<path fill="none" stroke="midnightblue" d="M211.66,-70.41C188.68,-66.03 164.39,-61.41 143.89,-57.5"/>
<polygon fill="midnightblue" stroke="midnightblue" points="211.28,-73.9 221.76,-72.33 212.59,-67.03 211.28,-73.9"/>
</g>
<!-- Node6 -->
<g id="node6" class="node">
<title>Node6</title>
<g id="a_node6"><a xlink:href="../../d5/ddd/namespacerawspeed_1_1rstest.html#a3384d9f6ba62697f99ffae86b714327d" target="_top" xlink:title=" ">
<polygon fill="none" stroke="black" points="18.5,-0.5 18.5,-19.5 167.5,-19.5 167.5,-0.5 18.5,-0.5"/>
<text text-anchor="middle" x="93" y="-7.5" font-family="Helvetica,sans-Serif" font-size="10.00">rawspeed::rstest::writePPM</text>
</a>
</g>
</g>
<!-- Node1&#45;&gt;Node6 -->
<g id="edge5" class="edge">
<title>Node1&#45;&gt;Node6</title>
<path fill="none" stroke="midnightblue" d="M260.93,-65.6C240.17,-53.4 212.32,-38.48 186,-29 175.41,-25.19 163.85,-22.05 152.6,-19.5"/>
<polygon fill="midnightblue" stroke="midnightblue" points="259.27,-68.68 269.65,-70.81 262.86,-62.67 259.27,-68.68"/>
</g>
</g>
</svg>
