<?xml version="1.0" encoding="UTF-8" standalone="no"?>
<!DOCTYPE svg PUBLIC "-//W3C//DTD SVG 1.1//EN"
 "http://www.w3.org/Graphics/SVG/1.1/DTD/svg11.dtd">
<!-- Generated by graphviz version 2.43.0 (0)
 -->
<!-- Title: rawspeed::RawImageData::getCpp Pages: 1 -->
<!--zoomable 400 -->
<svg id="main" version="1.1" xmlns="http://www.w3.org/2000/svg" xmlns:xlink="http://www.w3.org/1999/xlink" xml:space="preserve" onload="init(evt)">
<style type="text/css"><![CDATA[
.edge:hover path { stroke: red; }
.edge:hover polygon { stroke: red; fill: red; }
]]></style>
<script type="text/javascript"><![CDATA[
var edges = document.getElementsByTagName('g');
if (edges && edges.length) {
  for (var i=0;i<edges.length;i++) {
    if (edges[i].id.substr(0,4)=='edge') {
      edges[i].setAttribute('class','edge');
    }
  }
}
]]></script>
        <defs>
                <circle id="rim" cx="0" cy="0" r="7"/>
                <circle id="rim2" cx="0" cy="0" r="3.5"/>
                <g id="zoomPlus">
                        <use xlink:href="#rim" fill="#404040">
                                <set attributeName="fill" to="#808080" begin="zoomplus.mouseover" end="zoomplus.mouseout"/>
                        </use>
                        <path d="M-4,0h8M0,-4v8" fill="none" stroke="white" stroke-width="1.5" pointer-events="none"/>
                </g>
                <g id="zoomMin">
                        <use xlink:href="#rim" fill="#404040">
                                <set attributeName="fill" to="#808080" begin="zoomminus.mouseover" end="zoomminus.mouseout"/>
                        </use>
                        <path d="M-4,0h8" fill="none" stroke="white" stroke-width="1.5" pointer-events="none"/>
                </g>
                <g id="dirArrow">
                        <path fill="none" stroke="white" stroke-width="1.5" d="M0,-3.0v7 M-2.5,-0.5L0,-3.0L2.5,-0.5"/>
                </g>
               <g id="resetDef">
                       <use xlink:href="#rim2" fill="#404040">
                               <set attributeName="fill" to="#808080" begin="reset.mouseover" end="reset.mouseout"/>
                       </use>
               </g>
        </defs>

<script type="text/javascript">
var viewWidth = 826;
var viewHeight = 400;
var sectionId = 'dynsection-23';
</script>
<script xlink:href="../../svgpan.js"/>
<svg id="graph" class="graph">
<g id="viewport">
<title>rawspeed::RawImageData::getCpp</title>
<!-- Node1 -->
<g id="node1" class="node">
<title>Node1</title>
<g id="a_node1"><a xlink:title=" ">
<polygon fill="#bfbfbf" stroke="black" points="673,-175 673,-205 818,-205 818,-175 673,-175"/>
<text text-anchor="start" x="681" y="-193" font-family="Helvetica,sans-Serif" font-size="10.00">rawspeed::RawImageData</text>
<text text-anchor="middle" x="745.5" y="-182" font-family="Helvetica,sans-Serif" font-size="10.00">::getCpp</text>
</a>
</g>
</g>
<!-- Node2 -->
<g id="node2" class="node">
<title>Node2</title>
<g id="a_node2"><a xlink:href="../../d5/dcb/classrawspeed_1_1_dng_opcodes_1_1_pixel_opcode.html#ab4d79e52d19f3a299e8d7dd9a6595fed" target="_top" xlink:title=" ">
<polygon fill="none" stroke="black" points="465,-361 465,-391 596,-391 596,-361 465,-361"/>
<text text-anchor="start" x="473" y="-379" font-family="Helvetica,sans-Serif" font-size="10.00">rawspeed::DngOpcodes</text>
<text text-anchor="middle" x="530.5" y="-368" font-family="Helvetica,sans-Serif" font-size="10.00">::PixelOpcode::applyOP</text>
</a>
</g>
</g>
<!-- Node1&#45;&gt;Node2 -->
<g id="edge1" class="edge">
<title>Node1&#45;&gt;Node2</title>
<path fill="none" stroke="midnightblue" d="M735.17,-214.64C720.19,-250.69 687.27,-317.29 637,-352 624.94,-360.32 610.44,-365.8 596.1,-369.4"/>
<polygon fill="midnightblue" stroke="midnightblue" points="738.43,-215.91 738.92,-205.33 731.93,-213.3 738.43,-215.91"/>
</g>
<!-- Node3 -->
<g id="node3" class="node">
<title>Node3</title>
<g id="a_node3"><a xlink:href="../../d7/d6d/classrawspeed_1_1_l_jpeg_decompressor.html#a1723105b92b9fff65dae726358c12311" target="_top" xlink:title=" ">
<polygon fill="none" stroke="black" points="447,-312 447,-342 614,-342 614,-312 447,-312"/>
<text text-anchor="start" x="455" y="-330" font-family="Helvetica,sans-Serif" font-size="10.00">rawspeed::LJpegDecompressor</text>
<text text-anchor="middle" x="530.5" y="-319" font-family="Helvetica,sans-Serif" font-size="10.00">::decodeN</text>
</a>
</g>
</g>
<!-- Node1&#45;&gt;Node3 -->
<g id="edge2" class="edge">
<title>Node1&#45;&gt;Node3</title>
<path fill="none" stroke="midnightblue" d="M728.85,-213.32C710.12,-239.32 676.33,-280.63 637,-303 629.9,-307.04 622.16,-310.4 614.21,-313.19"/>
<polygon fill="midnightblue" stroke="midnightblue" points="731.71,-215.33 734.6,-205.14 725.98,-211.3 731.71,-215.33"/>
</g>
<!-- Node4 -->
<g id="node4" class="node">
<title>Node4</title>
<g id="a_node4"><a xlink:href="../../d7/d6d/classrawspeed_1_1_l_jpeg_decompressor.html#a4a7f1d4f9070e74f25732892ebd51358" target="_top" xlink:title=" ">
<polygon fill="none" stroke="black" points="447,-263 447,-293 614,-293 614,-263 447,-263"/>
<text text-anchor="start" x="455" y="-281" font-family="Helvetica,sans-Serif" font-size="10.00">rawspeed::LJpegDecompressor</text>
<text text-anchor="middle" x="530.5" y="-270" font-family="Helvetica,sans-Serif" font-size="10.00">::decodeScan</text>
</a>
</g>
</g>
<!-- Node1&#45;&gt;Node4 -->
<g id="edge3" class="edge">
<title>Node1&#45;&gt;Node4</title>
<path fill="none" stroke="midnightblue" d="M714.81,-210.66C693.89,-224.39 664.76,-241.87 637,-253 627.57,-256.78 617.42,-260.08 607.28,-262.93"/>
<polygon fill="midnightblue" stroke="midnightblue" points="716.87,-213.49 723.25,-205.04 712.98,-207.67 716.87,-213.49"/>
</g>
<!-- Node5 -->
<g id="node5" class="node">
<title>Node5</title>
<g id="a_node5"><a xlink:href="../../d6/d0e/rawspeed-identify_8cpp.html#a0ddf1224851353fc92bfbff6f499fa97" target="_top" xlink:title=" ">
<polygon fill="none" stroke="black" points="510,-224.5 510,-243.5 551,-243.5 551,-224.5 510,-224.5"/>
<text text-anchor="middle" x="530.5" y="-231.5" font-family="Helvetica,sans-Serif" font-size="10.00">main</text>
</a>
</g>
</g>
<!-- Node1&#45;&gt;Node5 -->
<g id="edge4" class="edge">
<title>Node1&#45;&gt;Node5</title>
<path fill="none" stroke="midnightblue" d="M672.52,-207.27C660.67,-209.96 648.51,-212.63 637,-215 607.11,-221.16 572.22,-227.23 551,-230.79"/>
<polygon fill="midnightblue" stroke="midnightblue" points="673.41,-210.65 682.37,-205.01 671.84,-203.83 673.41,-210.65"/>
</g>
<!-- Node6 -->
<g id="node6" class="node">
<title>Node6</title>
<g id="a_node6"><a xlink:href="../../d4/d03/classrawspeed_1_1_abstract_l_jpeg_decompressor.html#a9fa9aa3a59f7be8046177591240a0e21" target="_top" xlink:title=" ">
<polygon fill="none" stroke="black" points="427,-175 427,-205 634,-205 634,-175 427,-175"/>
<text text-anchor="start" x="435" y="-193" font-family="Helvetica,sans-Serif" font-size="10.00">rawspeed::AbstractLJpegDecompressor</text>
<text text-anchor="middle" x="530.5" y="-182" font-family="Helvetica,sans-Serif" font-size="10.00">::parseSOF</text>
</a>
</g>
</g>
<!-- Node1&#45;&gt;Node6 -->
<g id="edge5" class="edge">
<title>Node1&#45;&gt;Node6</title>
<path fill="none" stroke="midnightblue" d="M662.92,-190C653.54,-190 643.89,-190 634.28,-190"/>
<polygon fill="midnightblue" stroke="midnightblue" points="662.98,-193.5 672.98,-190 662.98,-186.5 662.98,-193.5"/>
</g>
<!-- Node7 -->
<g id="node7" class="node">
<title>Node7</title>
<g id="a_node7"><a xlink:href="../../d5/dcb/classrawspeed_1_1_dng_opcodes_1_1_pixel_opcode.html#a2d4cef258692d4e1609527e09b51c8f1" target="_top" xlink:title=" ">
<polygon fill="none" stroke="black" points="455.5,-126 455.5,-156 605.5,-156 605.5,-126 455.5,-126"/>
<text text-anchor="start" x="463.5" y="-144" font-family="Helvetica,sans-Serif" font-size="10.00">rawspeed::DngOpcodes</text>
<text text-anchor="middle" x="530.5" y="-133" font-family="Helvetica,sans-Serif" font-size="10.00">::PixelOpcode::PixelOpcode</text>
</a>
</g>
</g>
<!-- Node1&#45;&gt;Node7 -->
<g id="edge6" class="edge">
<title>Node1&#45;&gt;Node7</title>
<path fill="none" stroke="midnightblue" d="M669.16,-172.67C645.52,-167.23 619.62,-161.27 596.73,-156.01"/>
<polygon fill="midnightblue" stroke="midnightblue" points="668.62,-176.13 679.15,-174.97 670.18,-169.31 668.62,-176.13"/>
</g>
<!-- Node12 -->
<g id="node12" class="node">
<title>Node12</title>
<g id="a_node12"><a xlink:href="../../d5/d8a/classrawspeed_1_1_uncompressed_decompressor.html#a9cad2df2885aaa5f6b1fdf8d662e3b5d" target="_top" xlink:title=" ">
<polygon fill="none" stroke="black" points="424,-77 424,-107 637,-107 637,-77 424,-77"/>
<text text-anchor="start" x="432" y="-95" font-family="Helvetica,sans-Serif" font-size="10.00">rawspeed::UncompressedDecompressor</text>
<text text-anchor="middle" x="530.5" y="-84" font-family="Helvetica,sans-Serif" font-size="10.00">::readUncompressedRaw</text>
</a>
</g>
</g>
<!-- Node1&#45;&gt;Node12 -->
<g id="edge12" class="edge">
<title>Node1&#45;&gt;Node12</title>
<path fill="none" stroke="midnightblue" d="M719.12,-168.38C698.33,-151.72 667.46,-129.36 637,-116 629.17,-112.57 620.8,-109.6 612.31,-107.03"/>
<polygon fill="midnightblue" stroke="midnightblue" points="717.16,-171.29 727.12,-174.9 721.58,-165.86 717.16,-171.29"/>
</g>
<!-- Node13 -->
<g id="node13" class="node">
<title>Node13</title>
<g id="a_node13"><a xlink:href="../../d5/ddd/namespacerawspeed_1_1rstest.html#a6fe3320224e0a905852d1656a8c8449e" target="_top" xlink:title=" ">
<polygon fill="none" stroke="black" points="456.5,-38.5 456.5,-57.5 604.5,-57.5 604.5,-38.5 456.5,-38.5"/>
<text text-anchor="middle" x="530.5" y="-45.5" font-family="Helvetica,sans-Serif" font-size="10.00">rawspeed::rstest::writePFM</text>
</a>
</g>
</g>
<!-- Node1&#45;&gt;Node13 -->
<g id="edge13" class="edge">
<title>Node1&#45;&gt;Node13</title>
<path fill="none" stroke="midnightblue" d="M730.68,-166.08C712.87,-137.59 679.12,-90.86 637,-67 627.12,-61.4 615.96,-57.4 604.69,-54.54"/>
<polygon fill="midnightblue" stroke="midnightblue" points="727.91,-168.26 736.1,-174.98 733.89,-164.62 727.91,-168.26"/>
</g>
<!-- Node14 -->
<g id="node14" class="node">
<title>Node14</title>
<g id="a_node14"><a xlink:href="../../d5/ddd/namespacerawspeed_1_1rstest.html#a3384d9f6ba62697f99ffae86b714327d" target="_top" xlink:title=" ">
<polygon fill="none" stroke="black" points="456,-0.5 456,-19.5 605,-19.5 605,-0.5 456,-0.5"/>
<text text-anchor="middle" x="530.5" y="-7.5" font-family="Helvetica,sans-Serif" font-size="10.00">rawspeed::rstest::writePPM</text>
</a>
</g>
</g>
<!-- Node1&#45;&gt;Node14 -->
<g id="edge14" class="edge">
<title>Node1&#45;&gt;Node14</title>
<path fill="none" stroke="midnightblue" d="M735.32,-165.22C720.55,-129.01 687.88,-62.34 637,-29 627.43,-22.73 616.36,-18.37 605.08,-15.37"/>
<polygon fill="midnightblue" stroke="midnightblue" points="732.09,-166.55 739.02,-174.57 738.6,-163.98 732.09,-166.55"/>
</g>
<!-- Node8 -->
<g id="node8" class="node">
<title>Node8</title>
<g id="a_node8"><a xlink:href="../../d0/d58/classrawspeed_1_1_dng_opcodes_1_1_delta_row_or_col_base.html#aee44344d07cc5c0dd84dd96d8c2db5e3" target="_top" xlink:title=" ">
<polygon fill="none" stroke="black" points="236,-156.5 236,-197.5 367,-197.5 367,-156.5 236,-156.5"/>
<text text-anchor="start" x="244" y="-185.5" font-family="Helvetica,sans-Serif" font-size="10.00">rawspeed::DngOpcodes</text>
<text text-anchor="start" x="244" y="-174.5" font-family="Helvetica,sans-Serif" font-size="10.00">::DeltaRowOrColBase::</text>
<text text-anchor="middle" x="301.5" y="-163.5" font-family="Helvetica,sans-Serif" font-size="10.00">DeltaRowOrColBase</text>
</a>
</g>
</g>
<!-- Node7&#45;&gt;Node8 -->
<g id="edge7" class="edge">
<title>Node7&#45;&gt;Node8</title>
<path fill="none" stroke="midnightblue" d="M445.34,-154.35C419.53,-158.44 391.55,-162.88 367.25,-166.73"/>
<polygon fill="midnightblue" stroke="midnightblue" points="446.16,-157.76 455.49,-152.74 445.06,-150.85 446.16,-157.76"/>
</g>
<!-- Node9 -->
<g id="node9" class="node">
<title>Node9</title>
<g id="a_node9"><a xlink:href="../../de/d8e/classrawspeed_1_1_dng_opcodes_1_1_lookup_opcode.html#a90e7b20b578b60967bd9e9b85e323a17" target="_top" xlink:title=" ">
<polygon fill="none" stroke="black" points="215,-89 215,-119 388,-119 388,-89 215,-89"/>
<text text-anchor="start" x="223" y="-107" font-family="Helvetica,sans-Serif" font-size="10.00">rawspeed::DngOpcodes</text>
<text text-anchor="middle" x="301.5" y="-96" font-family="Helvetica,sans-Serif" font-size="10.00">::LookupOpcode::LookupOpcode</text>
</a>
</g>
</g>
<!-- Node7&#45;&gt;Node9 -->
<g id="edge8" class="edge">
<title>Node7&#45;&gt;Node9</title>
<path fill="none" stroke="midnightblue" d="M445.53,-127.31C426.84,-124.27 407,-121.03 388.24,-117.98"/>
<polygon fill="midnightblue" stroke="midnightblue" points="445.05,-130.78 455.49,-128.94 446.18,-123.87 445.05,-130.78"/>
</g>
<!-- Node9&#45;&gt;Node9 -->
<g id="edge9" class="edge">
<title>Node9&#45;&gt;Node9</title>
<path fill="none" stroke="midnightblue" d="M339.17,-129.46C334.49,-134.18 321.94,-137.5 301.5,-137.5 267.96,-137.5 255.65,-128.56 264.55,-119.16"/>
<polygon fill="midnightblue" stroke="midnightblue" points="342.64,-128.89 338.45,-119.16 335.66,-129.38 342.64,-128.89"/>
</g>
<!-- Node10 -->
<g id="node10" class="node">
<title>Node10</title>
<g id="a_node10"><a xlink:href="../../d8/d70/classrawspeed_1_1_dng_opcodes_1_1_polynomial_map.html#a5ba7f4d079c409526da52143518d6c6f" target="_top" xlink:title=" ">
<polygon fill="none" stroke="black" points="0,-114 0,-144 179,-144 179,-114 0,-114"/>
<text text-anchor="start" x="8" y="-132" font-family="Helvetica,sans-Serif" font-size="10.00">rawspeed::DngOpcodes</text>
<text text-anchor="middle" x="89.5" y="-121" font-family="Helvetica,sans-Serif" font-size="10.00">::PolynomialMap::PolynomialMap</text>
</a>
</g>
</g>
<!-- Node9&#45;&gt;Node10 -->
<g id="edge10" class="edge">
<title>Node9&#45;&gt;Node10</title>
<path fill="none" stroke="midnightblue" d="M204.76,-115.4C196.19,-116.42 187.52,-117.45 179.01,-118.46"/>
<polygon fill="midnightblue" stroke="midnightblue" points="205.27,-118.86 214.78,-114.2 204.44,-111.91 205.27,-118.86"/>
</g>
<!-- Node11 -->
<g id="node11" class="node">
<title>Node11</title>
<g id="a_node11"><a xlink:href="../../dc/d9c/classrawspeed_1_1_dng_opcodes_1_1_table_map.html#a0f4b8c3112f447ae3a1e487b42e11d3d" target="_top" xlink:title=" ">
<polygon fill="none" stroke="black" points="24,-65 24,-95 155,-95 155,-65 24,-65"/>
<text text-anchor="start" x="32" y="-83" font-family="Helvetica,sans-Serif" font-size="10.00">rawspeed::DngOpcodes</text>
<text text-anchor="middle" x="89.5" y="-72" font-family="Helvetica,sans-Serif" font-size="10.00">::TableMap::TableMap</text>
</a>
</g>
</g>
<!-- Node9&#45;&gt;Node11 -->
<g id="edge11" class="edge">
<title>Node9&#45;&gt;Node11</title>
<path fill="none" stroke="midnightblue" d="M204.42,-93.02C187.69,-91.11 170.66,-89.16 155.03,-87.38"/>
<polygon fill="midnightblue" stroke="midnightblue" points="204.45,-96.55 214.78,-94.2 205.24,-89.59 204.45,-96.55"/>
</g>
</g>
</svg>
        <g id="navigator" transform="translate(0 0)" fill="#404254">
                <rect fill="#f2f5e9" fill-opacity="0.5" stroke="#606060" stroke-width=".5" x="0" y="0" width="60" height="60"/>
                <use id="zoomplus" xlink:href="#zoomPlus" x="17" y="9" onmousedown="handleZoom(evt,'in')"/>
                <use id="zoomminus" xlink:href="#zoomMin" x="42" y="9" onmousedown="handleZoom(evt,'out')"/>
                <use id="reset" xlink:href="#resetDef" x="30" y="36" onmousedown="handleReset()"/>
                <g id="arrowUp" xlink:href="#dirArrow" transform="translate(30 24)" onmousedown="handlePan(0,-1)">
                  <use xlink:href="#rim" fill="#404040">
                        <set attributeName="fill" to="#808080" begin="arrowUp.mouseover" end="arrowUp.mouseout"/>
                  </use>
                  <path fill="none" stroke="white" stroke-width="1.5" d="M0,-3.0v7 M-2.5,-0.5L0,-3.0L2.5,-0.5"/>
                </g>
                <g id="arrowRight" xlink:href="#dirArrow" transform="rotate(90) translate(36 -43)" onmousedown="handlePan(1,0)">
                  <use xlink:href="#rim" fill="#404040">
                        <set attributeName="fill" to="#808080" begin="arrowRight.mouseover" end="arrowRight.mouseout"/>
                  </use>
                  <path fill="none" stroke="white" stroke-width="1.5" d="M0,-3.0v7 M-2.5,-0.5L0,-3.0L2.5,-0.5"/>
                </g>
                <g id="arrowDown" xlink:href="#dirArrow" transform="rotate(180) translate(-30 -48)" onmousedown="handlePan(0,1)">
                  <use xlink:href="#rim" fill="#404040">
                        <set attributeName="fill" to="#808080" begin="arrowDown.mouseover" end="arrowDown.mouseout"/>
                  </use>
                  <path fill="none" stroke="white" stroke-width="1.5" d="M0,-3.0v7 M-2.5,-0.5L0,-3.0L2.5,-0.5"/>
                </g>
                <g id="arrowLeft" xlink:href="#dirArrow" transform="rotate(270) translate(-36 17)" onmousedown="handlePan(-1,0)">
                  <use xlink:href="#rim" fill="#404040">
                        <set attributeName="fill" to="#808080" begin="arrowLeft.mouseover" end="arrowLeft.mouseout"/>
                  </use>
                  <path fill="none" stroke="white" stroke-width="1.5" d="M0,-3.0v7 M-2.5,-0.5L0,-3.0L2.5,-0.5"/>
                </g>
        </g>
        <svg viewBox="0 0 15 15" width="100%" height="30px" preserveAspectRatio="xMaxYMin meet">
         <g id="arrow_out" transform="scale(0.3 0.3)">
          <a xlink:href="classrawspeed_1_1_raw_image_data_a1d9a712a918374327fe3fe791318912f_icgraph_org.svg" target="_base">
           <rect id="button" ry="5" rx="5" y="6" x="6" height="38" width="38"
                fill="#f2f5e9" fill-opacity="0.5" stroke="#606060" stroke-width="1.0"/>
           <path id="arrow"
             d="M 11.500037,31.436501 C 11.940474,20.09759 22.043105,11.32322 32.158766,21.979434 L 37.068811,17.246167 C 37.068811,17.246167 37.088388,32 37.088388,32 L 22.160133,31.978069 C 22.160133,31.978069 26.997745,27.140456 26.997745,27.140456 C 18.528582,18.264221 13.291696,25.230495 11.500037,31.436501 z"
             style="fill:#404040;"/>
          </a>
         </g>
        </svg>
</svg>
