<?xml version="1.0" encoding="UTF-8" standalone="no"?>
<!DOCTYPE svg PUBLIC "-//W3C//DTD SVG 1.1//EN"
 "http://www.w3.org/Graphics/SVG/1.1/DTD/svg11.dtd">
<!-- Generated by graphviz version 2.43.0 (0)
 -->
<!-- Title: rawspeed::RawImageData::blitFrom Pages: 1 -->
<!--zoomable 313 -->
<svg id="main" version="1.1" xmlns="http://www.w3.org/2000/svg" xmlns:xlink="http://www.w3.org/1999/xlink" xml:space="preserve" onload="init(evt)">
<style type="text/css"><![CDATA[
.edge:hover path { stroke: red; }
.edge:hover polygon { stroke: red; fill: red; }
]]></style>
<script type="text/javascript"><![CDATA[
var edges = document.getElementsByTagName('g');
if (edges && edges.length) {
  for (var i=0;i<edges.length;i++) {
    if (edges[i].id.substr(0,4)=='edge') {
      edges[i].setAttribute('class','edge');
    }
  }
}
]]></script>
        <defs>
                <circle id="rim" cx="0" cy="0" r="7"/>
                <circle id="rim2" cx="0" cy="0" r="3.5"/>
                <g id="zoomPlus">
                        <use xlink:href="#rim" fill="#404040">
                                <set attributeName="fill" to="#808080" begin="zoomplus.mouseover" end="zoomplus.mouseout"/>
                        </use>
                        <path d="M-4,0h8M0,-4v8" fill="none" stroke="white" stroke-width="1.5" pointer-events="none"/>
                </g>
                <g id="zoomMin">
                        <use xlink:href="#rim" fill="#404040">
                                <set attributeName="fill" to="#808080" begin="zoomminus.mouseover" end="zoomminus.mouseout"/>
                        </use>
                        <path d="M-4,0h8" fill="none" stroke="white" stroke-width="1.5" pointer-events="none"/>
                </g>
                <g id="dirArrow">
                        <path fill="none" stroke="white" stroke-width="1.5" d="M0,-3.0v7 M-2.5,-0.5L0,-3.0L2.5,-0.5"/>
                </g>
               <g id="resetDef">
                       <use xlink:href="#rim2" fill="#404040">
                               <set attributeName="fill" to="#808080" begin="reset.mouseover" end="reset.mouseout"/>
                       </use>
               </g>
        </defs>

<script type="text/javascript">
var viewWidth = 798;
var viewHeight = 313;
var sectionId = 'dynsection-7';
</script>
<script xlink:href="../../svgpan.js"/>
<svg id="graph" class="graph">
<g id="viewport">
<title>rawspeed::RawImageData::blitFrom</title>
<!-- Node1 -->
<g id="node1" class="node">
<title>Node1</title>
<g id="a_node1"><a xlink:title=" ">
<polygon fill="#bfbfbf" stroke="black" points="0,-137.5 0,-167.5 145,-167.5 145,-137.5 0,-137.5"/>
<text text-anchor="start" x="8" y="-155.5" font-family="Helvetica,sans-Serif" font-size="10.00">rawspeed::RawImageData</text>
<text text-anchor="middle" x="72.5" y="-144.5" font-family="Helvetica,sans-Serif" font-size="10.00">::blitFrom</text>
</a>
</g>
</g>
<!-- Node2 -->
<g id="node2" class="node">
<title>Node2</title>
<g id="a_node2"><a xlink:href="../../d8/d75/classrawspeed_1_1i_point2_d.html#abb9155da47f90ec694b75ad521bb7978" target="_top" xlink:title=" ">
<polygon fill="none" stroke="black" points="198,-274.5 198,-304.5 309,-304.5 309,-274.5 198,-274.5"/>
<text text-anchor="start" x="206" y="-292.5" font-family="Helvetica,sans-Serif" font-size="10.00">rawspeed::iPoint2D</text>
<text text-anchor="middle" x="253.5" y="-281.5" font-family="Helvetica,sans-Serif" font-size="10.00">::__attribute__</text>
</a>
</g>
</g>
<!-- Node1&#45;&gt;Node2 -->
<g id="edge1" class="edge">
<title>Node1&#45;&gt;Node2</title>
<path fill="none" stroke="midnightblue" d="M84.33,-167.73C102,-191.56 139.28,-237.69 181,-264.5 184.11,-266.5 187.41,-268.37 190.81,-270.1"/>
<polygon fill="midnightblue" stroke="midnightblue" points="189.44,-273.32 199.99,-274.38 192.4,-266.98 189.44,-273.32"/>
</g>
<!-- Node3 -->
<g id="node3" class="node">
<title>Node3</title>
<g id="a_node3"><a xlink:href="../../de/dc3/namespacerawspeed.html#a5374c6234ea0dc53a195c03982f23d8f" target="_top" xlink:title=" ">
<polygon fill="none" stroke="black" points="192.5,-236 192.5,-255 314.5,-255 314.5,-236 192.5,-236"/>
<text text-anchor="middle" x="253.5" y="-243" font-family="Helvetica,sans-Serif" font-size="10.00">rawspeed::copyPixels</text>
</a>
</g>
</g>
<!-- Node1&#45;&gt;Node3 -->
<g id="edge2" class="edge">
<title>Node1&#45;&gt;Node3</title>
<path fill="none" stroke="midnightblue" d="M91.35,-167.68C111.78,-184.33 146.83,-210.78 181,-226.5 186.23,-228.91 191.83,-231.06 197.49,-232.96"/>
<polygon fill="midnightblue" stroke="midnightblue" points="196.46,-236.3 207.05,-235.94 198.54,-229.62 196.46,-236.3"/>
</g>
<!-- Node4 -->
<g id="node4" class="node">
<title>Node4</title>
<g id="a_node4"><a xlink:href="../../dc/d44/classrawspeed_1_1_raw_image_data.html#a724d8812aca44f04e6aeb965daeab36d" target="_top" xlink:title=" ">
<polygon fill="none" stroke="black" points="181,-186.5 181,-216.5 326,-216.5 326,-186.5 181,-186.5"/>
<text text-anchor="start" x="189" y="-204.5" font-family="Helvetica,sans-Serif" font-size="10.00">rawspeed::RawImageData</text>
<text text-anchor="middle" x="253.5" y="-193.5" font-family="Helvetica,sans-Serif" font-size="10.00">::getData</text>
</a>
</g>
</g>
<!-- Node1&#45;&gt;Node4 -->
<g id="edge3" class="edge">
<title>Node1&#45;&gt;Node4</title>
<path fill="none" stroke="midnightblue" d="M128.67,-167.6C147.38,-172.73 168.46,-178.5 187.85,-183.8"/>
<polygon fill="midnightblue" stroke="midnightblue" points="186.95,-187.18 197.52,-186.45 188.79,-180.43 186.95,-187.18"/>
</g>
<!-- Node5 -->
<g id="node5" class="node">
<title>Node5</title>
<g id="a_node5"><a xlink:href="../../d6/d8f/classrawspeed_1_1i_rectangle2_d.html#aa8495c35de68f8002d471bc1c89c4e43" target="_top" xlink:title=" ">
<polygon fill="none" stroke="black" points="186.5,-137.5 186.5,-167.5 320.5,-167.5 320.5,-137.5 186.5,-137.5"/>
<text text-anchor="start" x="194.5" y="-155.5" font-family="Helvetica,sans-Serif" font-size="10.00">rawspeed::iRectangle2D</text>
<text text-anchor="middle" x="253.5" y="-144.5" font-family="Helvetica,sans-Serif" font-size="10.00">::getOverlap</text>
</a>
</g>
</g>
<!-- Node1&#45;&gt;Node5 -->
<g id="edge4" class="edge">
<title>Node1&#45;&gt;Node5</title>
<path fill="none" stroke="midnightblue" d="M145.02,-152.5C155.24,-152.5 165.79,-152.5 176.11,-152.5"/>
<polygon fill="midnightblue" stroke="midnightblue" points="176.32,-156 186.32,-152.5 176.32,-149 176.32,-156"/>
</g>
<!-- Node8 -->
<g id="node8" class="node">
<title>Node8</title>
<g id="a_node8"><a xlink:href="../../d8/d75/classrawspeed_1_1i_point2_d.html#ab980cc8ab2f3502a5a2c230530ba2a64" target="_top" xlink:title=" ">
<polygon fill="none" stroke="black" points="679,-115.5 679,-145.5 790,-145.5 790,-115.5 679,-115.5"/>
<text text-anchor="start" x="687" y="-133.5" font-family="Helvetica,sans-Serif" font-size="10.00">rawspeed::iPoint2D</text>
<text text-anchor="middle" x="734.5" y="-122.5" font-family="Helvetica,sans-Serif" font-size="10.00">::iPoint2D</text>
</a>
</g>
</g>
<!-- Node1&#45;&gt;Node8 -->
<g id="edge8" class="edge">
<title>Node1&#45;&gt;Node8</title>
<path fill="none" stroke="midnightblue" d="M127.21,-137.47C144.27,-133.39 163.3,-129.53 181,-127.5 356.46,-107.37 565.32,-117.75 668.78,-125.16"/>
<polygon fill="midnightblue" stroke="midnightblue" points="668.53,-128.65 678.76,-125.89 669.04,-121.67 668.53,-128.65"/>
</g>
<!-- Node9 -->
<g id="node9" class="node">
<title>Node9</title>
<g id="a_node9"><a xlink:href="../../d6/d8f/classrawspeed_1_1i_rectangle2_d.html#a03b789cf171a93267f6117486245a91d" target="_top" xlink:title=" ">
<polygon fill="none" stroke="black" points="186.5,-49.5 186.5,-79.5 320.5,-79.5 320.5,-49.5 186.5,-49.5"/>
<text text-anchor="start" x="194.5" y="-67.5" font-family="Helvetica,sans-Serif" font-size="10.00">rawspeed::iRectangle2D</text>
<text text-anchor="middle" x="253.5" y="-56.5" font-family="Helvetica,sans-Serif" font-size="10.00">::iRectangle2D</text>
</a>
</g>
</g>
<!-- Node1&#45;&gt;Node9 -->
<g id="edge9" class="edge">
<title>Node1&#45;&gt;Node9</title>
<path fill="none" stroke="midnightblue" d="M99.64,-137.47C121.18,-125.31 152.69,-108.04 181,-94.5 188.77,-90.79 197.12,-87.05 205.28,-83.55"/>
<polygon fill="midnightblue" stroke="midnightblue" points="206.87,-86.67 214.72,-79.55 204.14,-80.23 206.87,-86.67"/>
</g>
<!-- Node10 -->
<g id="node10" class="node">
<title>Node10</title>
<g id="a_node10"><a xlink:href="../../dd/d12/classrawspeed_1_1_raw_image.html#a2907002b5c707eca6939061f8b0d5e5d" target="_top" xlink:title=" ">
<polygon fill="none" stroke="black" points="192.5,-0.5 192.5,-30.5 314.5,-30.5 314.5,-0.5 192.5,-0.5"/>
<text text-anchor="start" x="200.5" y="-18.5" font-family="Helvetica,sans-Serif" font-size="10.00">rawspeed::RawImage</text>
<text text-anchor="middle" x="253.5" y="-7.5" font-family="Helvetica,sans-Serif" font-size="10.00">::operator&#45;&gt;</text>
</a>
</g>
</g>
<!-- Node1&#45;&gt;Node10 -->
<g id="edge10" class="edge">
<title>Node1&#45;&gt;Node10</title>
<path fill="none" stroke="midnightblue" d="M83.97,-137.46C101.42,-113.44 138.75,-66.41 181,-39.5 183.57,-37.86 186.26,-36.33 189.03,-34.89"/>
<polygon fill="midnightblue" stroke="midnightblue" points="190.55,-38.04 198.1,-30.6 187.56,-31.71 190.55,-38.04"/>
</g>
<!-- Node6 -->
<g id="node6" class="node">
<title>Node6</title>
<g id="a_node6"><a xlink:href="../../d6/d8f/classrawspeed_1_1i_rectangle2_d.html#ad6ae3f2ed094abc10d38b954af7e5b99" target="_top" xlink:title=" ">
<polygon fill="none" stroke="black" points="362,-137.5 362,-167.5 496,-167.5 496,-137.5 362,-137.5"/>
<text text-anchor="start" x="370" y="-155.5" font-family="Helvetica,sans-Serif" font-size="10.00">rawspeed::iRectangle2D</text>
<text text-anchor="middle" x="429" y="-144.5" font-family="Helvetica,sans-Serif" font-size="10.00">::getBottomRight</text>
</a>
</g>
</g>
<!-- Node5&#45;&gt;Node6 -->
<g id="edge5" class="edge">
<title>Node5&#45;&gt;Node6</title>
<path fill="none" stroke="midnightblue" d="M320.59,-152.5C330.71,-152.5 341.24,-152.5 351.57,-152.5"/>
<polygon fill="midnightblue" stroke="midnightblue" points="351.81,-156 361.81,-152.5 351.81,-149 351.81,-156"/>
</g>
<!-- Node7 -->
<g id="node7" class="node">
<title>Node7</title>
<g id="a_node7"><a xlink:href="../../d8/d75/classrawspeed_1_1i_point2_d.html#aed6c2f5995cd12a0bb27e6d7e2d88fdb" target="_top" xlink:title=" ">
<polygon fill="none" stroke="black" points="532,-137.5 532,-167.5 643,-167.5 643,-137.5 532,-137.5"/>
<text text-anchor="start" x="540" y="-155.5" font-family="Helvetica,sans-Serif" font-size="10.00">rawspeed::iPoint2D</text>
<text text-anchor="middle" x="587.5" y="-144.5" font-family="Helvetica,sans-Serif" font-size="10.00">::operator+</text>
</a>
</g>
</g>
<!-- Node6&#45;&gt;Node7 -->
<g id="edge6" class="edge">
<title>Node6&#45;&gt;Node7</title>
<path fill="none" stroke="midnightblue" d="M496.37,-152.5C504.78,-152.5 513.38,-152.5 521.76,-152.5"/>
<polygon fill="midnightblue" stroke="midnightblue" points="521.86,-156 531.86,-152.5 521.86,-149 521.86,-156"/>
</g>
<!-- Node7&#45;&gt;Node8 -->
<g id="edge7" class="edge">
<title>Node7&#45;&gt;Node8</title>
<path fill="none" stroke="midnightblue" d="M643.32,-144.18C651.53,-142.94 660.06,-141.64 668.46,-140.37"/>
<polygon fill="midnightblue" stroke="midnightblue" points="669.24,-143.79 678.6,-138.83 668.19,-136.87 669.24,-143.79"/>
</g>
</g>
</svg>
        <g id="navigator" transform="translate(0 0)" fill="#404254">
                <rect fill="#f2f5e9" fill-opacity="0.5" stroke="#606060" stroke-width=".5" x="0" y="0" width="60" height="60"/>
                <use id="zoomplus" xlink:href="#zoomPlus" x="17" y="9" onmousedown="handleZoom(evt,'in')"/>
                <use id="zoomminus" xlink:href="#zoomMin" x="42" y="9" onmousedown="handleZoom(evt,'out')"/>
                <use id="reset" xlink:href="#resetDef" x="30" y="36" onmousedown="handleReset()"/>
                <g id="arrowUp" xlink:href="#dirArrow" transform="translate(30 24)" onmousedown="handlePan(0,-1)">
                  <use xlink:href="#rim" fill="#404040">
                        <set attributeName="fill" to="#808080" begin="arrowUp.mouseover" end="arrowUp.mouseout"/>
                  </use>
                  <path fill="none" stroke="white" stroke-width="1.5" d="M0,-3.0v7 M-2.5,-0.5L0,-3.0L2.5,-0.5"/>
                </g>
                <g id="arrowRight" xlink:href="#dirArrow" transform="rotate(90) translate(36 -43)" onmousedown="handlePan(1,0)">
                  <use xlink:href="#rim" fill="#404040">
                        <set attributeName="fill" to="#808080" begin="arrowRight.mouseover" end="arrowRight.mouseout"/>
                  </use>
                  <path fill="none" stroke="white" stroke-width="1.5" d="M0,-3.0v7 M-2.5,-0.5L0,-3.0L2.5,-0.5"/>
                </g>
                <g id="arrowDown" xlink:href="#dirArrow" transform="rotate(180) translate(-30 -48)" onmousedown="handlePan(0,1)">
                  <use xlink:href="#rim" fill="#404040">
                        <set attributeName="fill" to="#808080" begin="arrowDown.mouseover" end="arrowDown.mouseout"/>
                  </use>
                  <path fill="none" stroke="white" stroke-width="1.5" d="M0,-3.0v7 M-2.5,-0.5L0,-3.0L2.5,-0.5"/>
                </g>
                <g id="arrowLeft" xlink:href="#dirArrow" transform="rotate(270) translate(-36 17)" onmousedown="handlePan(-1,0)">
                  <use xlink:href="#rim" fill="#404040">
                        <set attributeName="fill" to="#808080" begin="arrowLeft.mouseover" end="arrowLeft.mouseout"/>
                  </use>
                  <path fill="none" stroke="white" stroke-width="1.5" d="M0,-3.0v7 M-2.5,-0.5L0,-3.0L2.5,-0.5"/>
                </g>
        </g>
        <svg viewBox="0 0 15 15" width="100%" height="30px" preserveAspectRatio="xMaxYMin meet">
         <g id="arrow_out" transform="scale(0.3 0.3)">
          <a xlink:href="classrawspeed_1_1_raw_image_data_a5a1884d989dce1f16ac3ac579fe5c286_cgraph_org.svg" target="_base">
           <rect id="button" ry="5" rx="5" y="6" x="6" height="38" width="38"
                fill="#f2f5e9" fill-opacity="0.5" stroke="#606060" stroke-width="1.0"/>
           <path id="arrow"
             d="M 11.500037,31.436501 C 11.940474,20.09759 22.043105,11.32322 32.158766,21.979434 L 37.068811,17.246167 C 37.068811,17.246167 37.088388,32 37.088388,32 L 22.160133,31.978069 C 22.160133,31.978069 26.997745,27.140456 26.997745,27.140456 C 18.528582,18.264221 13.291696,25.230495 11.500037,31.436501 z"
             style="fill:#404040;"/>
          </a>
         </g>
        </svg>
</svg>
