<?xml version="1.0" encoding="UTF-8" standalone="no"?>
<!DOCTYPE svg PUBLIC "-//W3C//DTD SVG 1.1//EN"
 "http://www.w3.org/Graphics/SVG/1.1/DTD/svg11.dtd">
<!-- Generated by graphviz version 2.43.0 (0)
 -->
<!-- Title: rawspeed::RawImageData::getDataUncropped Pages: 1 -->
<svg width="359pt" height="241pt"
 viewBox="0.00 0.00 359.00 240.50" xmlns="http://www.w3.org/2000/svg" xmlns:xlink="http://www.w3.org/1999/xlink">
<g id="graph0" class="graph" transform="scale(1 1) rotate(0) translate(4 236.5)">
<title>rawspeed::RawImageData::getDataUncropped</title>
<!-- Node1 -->
<g id="node1" class="node">
<title>Node1</title>
<g id="a_node1"><a xlink:title=" ">
<polygon fill="#bfbfbf" stroke="black" points="206,-90 206,-120 351,-120 351,-90 206,-90"/>
<text text-anchor="start" x="214" y="-108" font-family="Helvetica,sans-Serif" font-size="10.00">rawspeed::RawImageData</text>
<text text-anchor="middle" x="278.5" y="-97" font-family="Helvetica,sans-Serif" font-size="10.00">::getDataUncropped</text>
</a>
</g>
</g>
<!-- Node2 -->
<g id="node2" class="node">
<title>Node2</title>
<g id="a_node2"><a xlink:href="../../dc/d44/classrawspeed_1_1_raw_image_data.html#aa933fb21127eb60ae47dc006441dff84" target="_top" xlink:title=" ">
<polygon fill="none" stroke="black" points="12.5,-202 12.5,-232 157.5,-232 157.5,-202 12.5,-202"/>
<text text-anchor="start" x="20.5" y="-220" font-family="Helvetica,sans-Serif" font-size="10.00">rawspeed::RawImageData</text>
<text text-anchor="middle" x="85" y="-209" font-family="Helvetica,sans-Serif" font-size="10.00">::checkRowIsInitialized</text>
</a>
</g>
</g>
<!-- Node1&#45;&gt;Node2 -->
<g id="edge1" class="edge">
<title>Node1&#45;&gt;Node2</title>
<path fill="none" stroke="midnightblue" d="M255.69,-127.46C235.25,-147.32 202.97,-175.75 170,-193 163.55,-196.38 156.57,-199.33 149.47,-201.9"/>
<polygon fill="midnightblue" stroke="midnightblue" points="258.27,-129.83 262.92,-120.31 253.35,-124.86 258.27,-129.83"/>
</g>
<!-- Node3 -->
<g id="node3" class="node">
<title>Node3</title>
<g id="a_node3"><a xlink:href="../../d7/d6d/classrawspeed_1_1_l_jpeg_decompressor.html#a1723105b92b9fff65dae726358c12311" target="_top" xlink:title=" ">
<polygon fill="none" stroke="black" points="1.5,-153 1.5,-183 168.5,-183 168.5,-153 1.5,-153"/>
<text text-anchor="start" x="9.5" y="-171" font-family="Helvetica,sans-Serif" font-size="10.00">rawspeed::LJpegDecompressor</text>
<text text-anchor="middle" x="85" y="-160" font-family="Helvetica,sans-Serif" font-size="10.00">::decodeN</text>
</a>
</g>
</g>
<!-- Node1&#45;&gt;Node3 -->
<g id="edge2" class="edge">
<title>Node1&#45;&gt;Node3</title>
<path fill="none" stroke="midnightblue" d="M226.9,-123.48C208.99,-129.86 188.66,-136.93 170,-143 159.73,-146.34 148.69,-149.75 138.11,-152.94"/>
<polygon fill="midnightblue" stroke="midnightblue" points="228.34,-126.68 236.57,-120.01 225.98,-120.09 228.34,-126.68"/>
</g>
<!-- Node4 -->
<g id="node4" class="node">
<title>Node4</title>
<g id="a_node4"><a xlink:href="../../d5/ddd/namespacerawspeed_1_1rstest.html#a6d4282d819516af1dd9e84b58e1c10d8" target="_top" xlink:title=" ">
<polygon fill="none" stroke="black" points="0,-114.5 0,-133.5 170,-133.5 170,-114.5 0,-114.5"/>
<text text-anchor="middle" x="85" y="-121.5" font-family="Helvetica,sans-Serif" font-size="10.00">rawspeed::rstest::imgDataHash</text>
</a>
</g>
</g>
<!-- Node1&#45;&gt;Node4 -->
<g id="edge3" class="edge">
<title>Node1&#45;&gt;Node4</title>
<path fill="none" stroke="midnightblue" d="M195.96,-113.09C187.39,-113.94 178.67,-114.81 170.08,-115.66"/>
<polygon fill="midnightblue" stroke="midnightblue" points="196.31,-116.57 205.92,-112.1 195.62,-109.61 196.31,-116.57"/>
</g>
<!-- Node5 -->
<g id="node5" class="node">
<title>Node5</title>
<g id="a_node5"><a xlink:href="../../d6/d0e/rawspeed-identify_8cpp.html#a0ddf1224851353fc92bfbff6f499fa97" target="_top" xlink:title=" ">
<polygon fill="none" stroke="black" points="64.5,-76.5 64.5,-95.5 105.5,-95.5 105.5,-76.5 64.5,-76.5"/>
<text text-anchor="middle" x="85" y="-83.5" font-family="Helvetica,sans-Serif" font-size="10.00">main</text>
</a>
</g>
</g>
<!-- Node1&#45;&gt;Node5 -->
<g id="edge4" class="edge">
<title>Node1&#45;&gt;Node5</title>
<path fill="none" stroke="midnightblue" d="M195.71,-96.89C162.52,-93.59 127.04,-90.07 105.7,-87.95"/>
<polygon fill="midnightblue" stroke="midnightblue" points="195.62,-100.39 205.92,-97.9 196.31,-93.43 195.62,-100.39"/>
</g>
<!-- Node6 -->
<g id="node6" class="node">
<title>Node6</title>
<g id="a_node6"><a xlink:href="../../d5/ddd/namespacerawspeed_1_1rstest.html#a6fe3320224e0a905852d1656a8c8449e" target="_top" xlink:title=" ">
<polygon fill="none" stroke="black" points="11,-38.5 11,-57.5 159,-57.5 159,-38.5 11,-38.5"/>
<text text-anchor="middle" x="85" y="-45.5" font-family="Helvetica,sans-Serif" font-size="10.00">rawspeed::rstest::writePFM</text>
</a>
</g>
</g>
<!-- Node1&#45;&gt;Node6 -->
<g id="edge5" class="edge">
<title>Node1&#45;&gt;Node6</title>
<path fill="none" stroke="midnightblue" d="M228.96,-86.48C210.64,-79.85 189.51,-72.63 170,-67 158.08,-63.56 145.06,-60.35 132.9,-57.59"/>
<polygon fill="midnightblue" stroke="midnightblue" points="227.95,-89.84 238.54,-89.99 230.35,-83.26 227.95,-89.84"/>
</g>
<!-- Node7 -->
<g id="node7" class="node">
<title>Node7</title>
<g id="a_node7"><a xlink:href="../../d5/ddd/namespacerawspeed_1_1rstest.html#a3384d9f6ba62697f99ffae86b714327d" target="_top" xlink:title=" ">
<polygon fill="none" stroke="black" points="10.5,-0.5 10.5,-19.5 159.5,-19.5 159.5,-0.5 10.5,-0.5"/>
<text text-anchor="middle" x="85" y="-7.5" font-family="Helvetica,sans-Serif" font-size="10.00">rawspeed::rstest::writePPM</text>
</a>
</g>
</g>
<!-- Node1&#45;&gt;Node7 -->
<g id="edge6" class="edge">
<title>Node1&#45;&gt;Node7</title>
<path fill="none" stroke="midnightblue" d="M252.88,-83.29C232.13,-66.11 200.97,-42.79 170,-29 161.39,-25.17 151.94,-22.07 142.57,-19.58"/>
<polygon fill="midnightblue" stroke="midnightblue" points="250.66,-86 260.56,-89.77 255.17,-80.65 250.66,-86"/>
</g>
</g>
</svg>
