<?xml version="1.0" encoding="UTF-8" standalone="no"?>
<!DOCTYPE svg PUBLIC "-//W3C//DTD SVG 1.1//EN"
 "http://www.w3.org/Graphics/SVG/1.1/DTD/svg11.dtd">
<!-- Generated by graphviz version 2.43.0 (0)
 -->
<!-- Title: rawspeed::RawImageData::getDataType Pages: 1 -->
<svg width="402pt" height="264pt"
 viewBox="0.00 0.00 402.00 263.50" xmlns="http://www.w3.org/2000/svg" xmlns:xlink="http://www.w3.org/1999/xlink">
<g id="graph0" class="graph" transform="scale(1 1) rotate(0) translate(4 259.5)">
<title>rawspeed::RawImageData::getDataType</title>
<!-- Node1 -->
<g id="node1" class="node">
<title>Node1</title>
<g id="a_node1"><a xlink:title=" ">
<polygon fill="#bfbfbf" stroke="black" points="249,-110 249,-140 394,-140 394,-110 249,-110"/>
<text text-anchor="start" x="257" y="-128" font-family="Helvetica,sans-Serif" font-size="10.00">rawspeed::RawImageData</text>
<text text-anchor="middle" x="321.5" y="-117" font-family="Helvetica,sans-Serif" font-size="10.00">::getDataType</text>
</a>
</g>
</g>
<!-- Node2 -->
<g id="node2" class="node">
<title>Node2</title>
<g id="a_node2"><a xlink:href="../../df/d9b/classrawspeed_1_1_dng_opcodes_1_1_offset_per_row_or_col.html#abf85ebd736f04acc4d2c67ecf86519e3" target="_top" xlink:title=" ">
<polygon fill="none" stroke="black" points="32.5,-225 32.5,-255 180.5,-255 180.5,-225 32.5,-225"/>
<text text-anchor="start" x="40.5" y="-243" font-family="Helvetica,sans-Serif" font-size="10.00">rawspeed::DngOpcodes</text>
<text text-anchor="middle" x="106.5" y="-232" font-family="Helvetica,sans-Serif" font-size="10.00">::OffsetPerRowOrCol::apply</text>
</a>
</g>
</g>
<!-- Node1&#45;&gt;Node2 -->
<g id="edge1" class="edge">
<title>Node1&#45;&gt;Node2</title>
<path fill="none" stroke="midnightblue" d="M300.09,-147.63C279.98,-168.53 247.34,-198.86 213,-216 202.92,-221.03 191.76,-225.03 180.6,-228.19"/>
<polygon fill="midnightblue" stroke="midnightblue" points="302.85,-149.8 307.17,-140.13 297.76,-145 302.85,-149.8"/>
</g>
<!-- Node3 -->
<g id="node3" class="node">
<title>Node3</title>
<g id="a_node3"><a xlink:href="../../d2/d55/classrawspeed_1_1_dng_opcodes_1_1_scale_per_row_or_col.html#aea847107e6c129e2a71d171a95c6159e" target="_top" xlink:title=" ">
<polygon fill="none" stroke="black" points="34,-176 34,-206 179,-206 179,-176 34,-176"/>
<text text-anchor="start" x="42" y="-194" font-family="Helvetica,sans-Serif" font-size="10.00">rawspeed::DngOpcodes</text>
<text text-anchor="middle" x="106.5" y="-183" font-family="Helvetica,sans-Serif" font-size="10.00">::ScalePerRowOrCol::apply</text>
</a>
</g>
</g>
<!-- Node1&#45;&gt;Node3 -->
<g id="edge2" class="edge">
<title>Node1&#45;&gt;Node3</title>
<path fill="none" stroke="midnightblue" d="M275.27,-143.77C256.24,-151.27 233.74,-159.62 213,-166 201.4,-169.57 188.94,-172.93 176.8,-175.96"/>
<polygon fill="midnightblue" stroke="midnightblue" points="276.59,-147.01 284.59,-140.06 274,-140.51 276.59,-147.01"/>
</g>
<!-- Node4 -->
<g id="node4" class="node">
<title>Node4</title>
<g id="a_node4"><a xlink:href="../../d6/d0e/rawspeed-identify_8cpp.html#a0ddf1224851353fc92bfbff6f499fa97" target="_top" xlink:title=" ">
<polygon fill="none" stroke="black" points="86,-137.5 86,-156.5 127,-156.5 127,-137.5 86,-137.5"/>
<text text-anchor="middle" x="106.5" y="-144.5" font-family="Helvetica,sans-Serif" font-size="10.00">main</text>
</a>
</g>
</g>
<!-- Node1&#45;&gt;Node4 -->
<g id="edge3" class="edge">
<title>Node1&#45;&gt;Node4</title>
<path fill="none" stroke="midnightblue" d="M238.81,-133.44C198.33,-137.62 152.79,-142.32 127.38,-144.95"/>
<polygon fill="midnightblue" stroke="midnightblue" points="239.39,-136.9 248.98,-132.39 238.67,-129.93 239.39,-136.9"/>
</g>
<!-- Node5 -->
<g id="node5" class="node">
<title>Node5</title>
<g id="a_node5"><a xlink:href="../../d5/d8a/classrawspeed_1_1_uncompressed_decompressor.html#a9cad2df2885aaa5f6b1fdf8d662e3b5d" target="_top" xlink:title=" ">
<polygon fill="none" stroke="black" points="0,-88 0,-118 213,-118 213,-88 0,-88"/>
<text text-anchor="start" x="8" y="-106" font-family="Helvetica,sans-Serif" font-size="10.00">rawspeed::UncompressedDecompressor</text>
<text text-anchor="middle" x="106.5" y="-95" font-family="Helvetica,sans-Serif" font-size="10.00">::readUncompressedRaw</text>
</a>
</g>
</g>
<!-- Node1&#45;&gt;Node5 -->
<g id="edge4" class="edge">
<title>Node1&#45;&gt;Node5</title>
<path fill="none" stroke="midnightblue" d="M238.89,-116.57C230.51,-115.71 221.92,-114.82 213.33,-113.93"/>
<polygon fill="midnightblue" stroke="midnightblue" points="238.67,-120.07 248.98,-117.61 239.39,-113.1 238.67,-120.07"/>
</g>
<!-- Node6 -->
<g id="node6" class="node">
<title>Node6</title>
<g id="a_node6"><a xlink:href="../../d0/d95/classrawspeed_1_1_dng_opcodes_1_1_delta_row_or_col.html#aae248f9b1092310f6d756846f2d1d09e" target="_top" xlink:title=" ">
<polygon fill="none" stroke="black" points="41,-39 41,-69 172,-69 172,-39 41,-39"/>
<text text-anchor="start" x="49" y="-57" font-family="Helvetica,sans-Serif" font-size="10.00">rawspeed::DngOpcodes</text>
<text text-anchor="middle" x="106.5" y="-46" font-family="Helvetica,sans-Serif" font-size="10.00">::DeltaRowOrCol::setup</text>
</a>
</g>
</g>
<!-- Node1&#45;&gt;Node6 -->
<g id="edge5" class="edge">
<title>Node1&#45;&gt;Node6</title>
<path fill="none" stroke="midnightblue" d="M279.72,-105.59C259.9,-96.66 235.53,-86.43 213,-79 199.95,-74.7 185.76,-70.82 172.15,-67.46"/>
<polygon fill="midnightblue" stroke="midnightblue" points="278.52,-108.89 289.07,-109.85 281.42,-102.52 278.52,-108.89"/>
</g>
<!-- Node7 -->
<g id="node7" class="node">
<title>Node7</title>
<g id="a_node7"><a xlink:href="../../d5/ddd/namespacerawspeed_1_1rstest.html#abde85257d7c7c1190b48de59b4a7a779" target="_top" xlink:title=" ">
<polygon fill="none" stroke="black" points="27,-0.5 27,-19.5 186,-19.5 186,-0.5 27,-0.5"/>
<text text-anchor="middle" x="106.5" y="-7.5" font-family="Helvetica,sans-Serif" font-size="10.00">rawspeed::rstest::writeImage</text>
</a>
</g>
</g>
<!-- Node1&#45;&gt;Node7 -->
<g id="edge6" class="edge">
<title>Node1&#45;&gt;Node7</title>
<path fill="none" stroke="midnightblue" d="M301.37,-102.1C281.59,-80.02 248.66,-47.47 213,-30 204.04,-25.61 194.22,-22.18 184.29,-19.51"/>
<polygon fill="midnightblue" stroke="midnightblue" points="298.82,-104.5 308.04,-109.71 304.08,-99.88 298.82,-104.5"/>
</g>
</g>
</svg>
