<?xml version="1.0" encoding="UTF-8" standalone="no"?>
<!DOCTYPE svg PUBLIC "-//W3C//DTD SVG 1.1//EN"
 "http://www.w3.org/Graphics/SVG/1.1/DTD/svg11.dtd">
<!-- Generated by graphviz version 2.43.0 (0)
 -->
<!-- Title: anonymous_namespace{DummyLJpegDecompressor::cpp}::DummyLJpegDecompressor::DummyLJpegDecompressor Pages: 1 -->
<svg width="597pt" height="68pt"
 viewBox="0.00 0.00 597.00 68.00" xmlns="http://www.w3.org/2000/svg" xmlns:xlink="http://www.w3.org/1999/xlink">
<g id="graph0" class="graph" transform="scale(1 1) rotate(0) translate(4 64)">
<title>anonymous_namespace{DummyLJpegDecompressor::cpp}::DummyLJpegDecompressor::DummyLJpegDecompressor</title>
<!-- Node1 -->
<g id="node1" class="node">
<title>Node1</title>
<g id="a_node1"><a xlink:title=" ">
<polygon fill="#bfbfbf" stroke="black" points="0,-0.5 0,-52.5 188,-52.5 188,-0.5 0,-0.5"/>
<text text-anchor="start" x="8" y="-40.5" font-family="Helvetica,sans-Serif" font-size="10.00">anonymous_namespace</text>
<text text-anchor="start" x="8" y="-29.5" font-family="Helvetica,sans-Serif" font-size="10.00">{DummyLJpegDecompressor</text>
<text text-anchor="start" x="8" y="-18.5" font-family="Helvetica,sans-Serif" font-size="10.00">::cpp}::DummyLJpegDecompressor</text>
<text text-anchor="middle" x="94" y="-7.5" font-family="Helvetica,sans-Serif" font-size="10.00">::DummyLJpegDecompressor</text>
</a>
</g>
</g>
<!-- Node2 -->
<g id="node2" class="node">
<title>Node2</title>
<g id="a_node2"><a xlink:href="../../d4/d03/classrawspeed_1_1_abstract_l_jpeg_decompressor.html#af76f70a59a14657a13c9c495ee0d7e62" target="_top" xlink:title=" ">
<polygon fill="none" stroke="black" points="224,-11.5 224,-41.5 431,-41.5 431,-11.5 224,-11.5"/>
<text text-anchor="start" x="232" y="-29.5" font-family="Helvetica,sans-Serif" font-size="10.00">rawspeed::AbstractLJpegDecompressor</text>
<text text-anchor="middle" x="327.5" y="-18.5" font-family="Helvetica,sans-Serif" font-size="10.00">::AbstractLJpegDecompressor</text>
</a>
</g>
</g>
<!-- Node1&#45;&gt;Node2 -->
<g id="edge1" class="edge">
<title>Node1&#45;&gt;Node2</title>
<path fill="none" stroke="midnightblue" d="M188.16,-26.5C196.56,-26.5 205.12,-26.5 213.66,-26.5"/>
<polygon fill="midnightblue" stroke="midnightblue" points="213.67,-30 223.67,-26.5 213.67,-23 213.67,-30"/>
</g>
<!-- Node2&#45;&gt;Node2 -->
<g id="edge2" class="edge">
<title>Node2&#45;&gt;Node2</title>
<path fill="none" stroke="midnightblue" d="M292.65,-41.66C284.24,-51.06 295.86,-60 327.5,-60 346.78,-60 358.63,-56.68 363.04,-51.96"/>
<polygon fill="midnightblue" stroke="midnightblue" points="366.51,-51.41 362.35,-41.66 359.52,-51.87 366.51,-51.41"/>
</g>
<!-- Node3 -->
<g id="node3" class="node">
<title>Node3</title>
<g id="a_node3"><a xlink:href="../../dd/d12/classrawspeed_1_1_raw_image.html#a4a01d153bb4518ddfaac18a5d0694154" target="_top" xlink:title=" ">
<polygon fill="none" stroke="black" points="467,-11.5 467,-41.5 589,-41.5 589,-11.5 467,-11.5"/>
<text text-anchor="start" x="475" y="-29.5" font-family="Helvetica,sans-Serif" font-size="10.00">rawspeed::RawImage</text>
<text text-anchor="middle" x="528" y="-18.5" font-family="Helvetica,sans-Serif" font-size="10.00">::RawImage</text>
</a>
</g>
</g>
<!-- Node2&#45;&gt;Node3 -->
<g id="edge3" class="edge">
<title>Node2&#45;&gt;Node3</title>
<path fill="none" stroke="midnightblue" d="M431.24,-26.5C439.91,-26.5 448.55,-26.5 456.89,-26.5"/>
<polygon fill="midnightblue" stroke="midnightblue" points="456.9,-30 466.9,-26.5 456.9,-23 456.9,-30"/>
</g>
</g>
</svg>
