<?xml version="1.0" encoding="UTF-8" standalone="no"?>
<!DOCTYPE svg PUBLIC "-//W3C//DTD SVG 1.1//EN"
 "http://www.w3.org/Graphics/SVG/1.1/DTD/svg11.dtd">
<!-- Generated by graphviz version 2.43.0 (0)
 -->
<!-- Title: rawspeed::ByteStream::getStream Pages: 1 -->
<!--zoomable 312 -->
<svg id="main" version="1.1" xmlns="http://www.w3.org/2000/svg" xmlns:xlink="http://www.w3.org/1999/xlink" xml:space="preserve" onload="init(evt)">
<style type="text/css"><![CDATA[
.edge:hover path { stroke: red; }
.edge:hover polygon { stroke: red; fill: red; }
]]></style>
<script type="text/javascript"><![CDATA[
var edges = document.getElementsByTagName('g');
if (edges && edges.length) {
  for (var i=0;i<edges.length;i++) {
    if (edges[i].id.substr(0,4)=='edge') {
      edges[i].setAttribute('class','edge');
    }
  }
}
]]></script>
        <defs>
                <circle id="rim" cx="0" cy="0" r="7"/>
                <circle id="rim2" cx="0" cy="0" r="3.5"/>
                <g id="zoomPlus">
                        <use xlink:href="#rim" fill="#404040">
                                <set attributeName="fill" to="#808080" begin="zoomplus.mouseover" end="zoomplus.mouseout"/>
                        </use>
                        <path d="M-4,0h8M0,-4v8" fill="none" stroke="white" stroke-width="1.5" pointer-events="none"/>
                </g>
                <g id="zoomMin">
                        <use xlink:href="#rim" fill="#404040">
                                <set attributeName="fill" to="#808080" begin="zoomminus.mouseover" end="zoomminus.mouseout"/>
                        </use>
                        <path d="M-4,0h8" fill="none" stroke="white" stroke-width="1.5" pointer-events="none"/>
                </g>
                <g id="dirArrow">
                        <path fill="none" stroke="white" stroke-width="1.5" d="M0,-3.0v7 M-2.5,-0.5L0,-3.0L2.5,-0.5"/>
                </g>
               <g id="resetDef">
                       <use xlink:href="#rim2" fill="#404040">
                               <set attributeName="fill" to="#808080" begin="reset.mouseover" end="reset.mouseout"/>
                       </use>
               </g>
        </defs>

<script type="text/javascript">
var viewWidth = 551;
var viewHeight = 312;
var sectionId = 'dynsection-18';
</script>
<script xlink:href="../../svgpan.js"/>
<svg id="graph" class="graph">
<g id="viewport">
<title>rawspeed::ByteStream::getStream</title>
<!-- Node1 -->
<g id="node1" class="node">
<title>Node1</title>
<g id="a_node1"><a xlink:title=" ">
<polygon fill="#bfbfbf" stroke="black" points="415,-147.5 415,-177.5 543,-177.5 543,-147.5 415,-147.5"/>
<text text-anchor="start" x="423" y="-165.5" font-family="Helvetica,sans-Serif" font-size="10.00">rawspeed::ByteStream</text>
<text text-anchor="middle" x="479" y="-154.5" font-family="Helvetica,sans-Serif" font-size="10.00">::getStream</text>
</a>
</g>
</g>
<!-- Node2 -->
<g id="node2" class="node">
<title>Node2</title>
<g id="a_node2"><a xlink:href="../../d7/d0b/classrawspeed_1_1_ciff_i_f_d.html#a39aeb5f86e2b8bb503ddff8cee8971f6" target="_top" xlink:title=" ">
<polygon fill="none" stroke="black" points="14,-139.5 14,-169.5 122,-169.5 122,-139.5 14,-139.5"/>
<text text-anchor="start" x="22" y="-157.5" font-family="Helvetica,sans-Serif" font-size="10.00">rawspeed::CiffIFD::</text>
<text text-anchor="middle" x="68" y="-146.5" font-family="Helvetica,sans-Serif" font-size="10.00">CiffIFD</text>
</a>
</g>
</g>
<!-- Node1&#45;&gt;Node2 -->
<g id="edge1" class="edge">
<title>Node1&#45;&gt;Node2</title>
<path fill="none" stroke="midnightblue" d="M415.96,-179.92C403.8,-182.66 391.07,-185.06 379,-186.5 287.65,-197.41 262.96,-200.3 172,-186.5 150.34,-183.21 126.96,-176.25 107.96,-169.65"/>
<polygon fill="midnightblue" stroke="midnightblue" points="417.08,-183.25 426.02,-177.56 415.48,-176.44 417.08,-183.25"/>
</g>
<!-- Node3 -->
<g id="node3" class="node">
<title>Node3</title>
<g id="a_node3"><a xlink:href="../../de/d70/classrawspeed_1_1_crw_decompressor.html#a16b8f8f8ff89abbb8a29c335e82625a8" target="_top" xlink:title=" ">
<polygon fill="none" stroke="black" points="196,-273.5 196,-303.5 355,-303.5 355,-273.5 196,-273.5"/>
<text text-anchor="start" x="204" y="-291.5" font-family="Helvetica,sans-Serif" font-size="10.00">rawspeed::CrwDecompressor</text>
<text text-anchor="middle" x="275.5" y="-280.5" font-family="Helvetica,sans-Serif" font-size="10.00">::CrwDecompressor</text>
</a>
</g>
</g>
<!-- Node1&#45;&gt;Node3 -->
<g id="edge2" class="edge">
<title>Node1&#45;&gt;Node3</title>
<path fill="none" stroke="midnightblue" d="M459.9,-185.63C441.68,-207.42 411.65,-239.48 379,-258.5 368.59,-264.57 356.85,-269.48 345.14,-273.45"/>
<polygon fill="midnightblue" stroke="midnightblue" points="462.66,-187.79 466.28,-177.83 457.24,-183.35 462.66,-187.79"/>
</g>
<!-- Node4 -->
<g id="node4" class="node">
<title>Node4</title>
<g id="a_node4"><a xlink:href="../../de/da7/fuzz_2librawspeed_2decompressors_2_crw_decompressor_8cpp.html#a1c473c9665269a78ef9001573a6995df" target="_top" xlink:title=" ">
<polygon fill="none" stroke="black" points="0,-257 0,-276 136,-276 136,-257 0,-257"/>
<text text-anchor="middle" x="68" y="-264" font-family="Helvetica,sans-Serif" font-size="10.00">LLVMFuzzerTestOneInput</text>
</a>
</g>
</g>
<!-- Node1&#45;&gt;Node4 -->
<g id="edge8" class="edge">
<title>Node1&#45;&gt;Node4</title>
<path fill="none" stroke="midnightblue" d="M438.39,-182.04C420.58,-190.21 399.08,-199.25 379,-205.5 297.17,-230.99 199.75,-248.09 136.25,-257.54"/>
<polygon fill="midnightblue" stroke="midnightblue" points="440.3,-185.01 447.88,-177.61 437.34,-178.67 440.3,-185.01"/>
</g>
<!-- Node5 -->
<g id="node5" class="node">
<title>Node5</title>
<g id="a_node5"><a xlink:href="../../d4/d03/classrawspeed_1_1_abstract_l_jpeg_decompressor.html#a761a4fac2d0114cbd56eca1787b8e409" target="_top" xlink:title=" ">
<polygon fill="none" stroke="black" points="172,-147.5 172,-177.5 379,-177.5 379,-147.5 172,-147.5"/>
<text text-anchor="start" x="180" y="-165.5" font-family="Helvetica,sans-Serif" font-size="10.00">rawspeed::AbstractLJpegDecompressor</text>
<text text-anchor="middle" x="275.5" y="-154.5" font-family="Helvetica,sans-Serif" font-size="10.00">::decode</text>
</a>
</g>
</g>
<!-- Node1&#45;&gt;Node5 -->
<g id="edge4" class="edge">
<title>Node1&#45;&gt;Node5</title>
<path fill="none" stroke="midnightblue" d="M404.55,-162.5C396.33,-162.5 387.85,-162.5 379.35,-162.5"/>
<polygon fill="midnightblue" stroke="midnightblue" points="404.8,-166 414.8,-162.5 404.8,-159 404.8,-166"/>
</g>
<!-- Node6 -->
<g id="node6" class="node">
<title>Node6</title>
<g id="a_node6"><a xlink:href="../../de/df1/classrawspeed_1_1_dng_opcodes.html#a7682e3343a6fd66c00a1a75b2f2d9642" target="_top" xlink:title=" ">
<polygon fill="none" stroke="black" points="210,-98.5 210,-128.5 341,-128.5 341,-98.5 210,-98.5"/>
<text text-anchor="start" x="218" y="-116.5" font-family="Helvetica,sans-Serif" font-size="10.00">rawspeed::DngOpcodes</text>
<text text-anchor="middle" x="275.5" y="-105.5" font-family="Helvetica,sans-Serif" font-size="10.00">::DngOpcodes</text>
</a>
</g>
</g>
<!-- Node1&#45;&gt;Node6 -->
<g id="edge5" class="edge">
<title>Node1&#45;&gt;Node6</title>
<path fill="none" stroke="midnightblue" d="M409.14,-144.95C399.04,-142.42 388.75,-139.87 379,-137.5 366.75,-134.52 353.65,-131.4 341.06,-128.44"/>
<polygon fill="midnightblue" stroke="midnightblue" points="408.6,-148.42 419.15,-147.46 410.3,-141.63 408.6,-148.42"/>
</g>
<!-- Node7 -->
<g id="node7" class="node">
<title>Node7</title>
<g id="a_node7"><a xlink:href="../../dd/da0/classrawspeed_1_1_byte_stream.html#a262c81bd07608467d3aaa82ce2909519" target="_top" xlink:title=" ">
<polygon fill="none" stroke="black" points="211.5,-49.5 211.5,-79.5 339.5,-79.5 339.5,-49.5 211.5,-49.5"/>
<text text-anchor="start" x="219.5" y="-67.5" font-family="Helvetica,sans-Serif" font-size="10.00">rawspeed::ByteStream</text>
<text text-anchor="middle" x="275.5" y="-56.5" font-family="Helvetica,sans-Serif" font-size="10.00">::getStream</text>
</a>
</g>
</g>
<!-- Node1&#45;&gt;Node7 -->
<g id="edge6" class="edge">
<title>Node1&#45;&gt;Node7</title>
<path fill="none" stroke="midnightblue" d="M454.65,-140.62C435.65,-123.98 407.42,-101.74 379,-88.5 366.74,-82.79 353,-78.37 339.67,-74.98"/>
<polygon fill="midnightblue" stroke="midnightblue" points="452.41,-143.32 462.2,-147.37 457.08,-138.1 452.41,-143.32"/>
</g>
<!-- Node8 -->
<g id="node8" class="node">
<title>Node8</title>
<g id="a_node8"><a xlink:href="../../d7/d0b/classrawspeed_1_1_ciff_i_f_d.html#a11156e477a86d99467080c0255915e97" target="_top" xlink:title=" ">
<polygon fill="none" stroke="black" points="221.5,-0.5 221.5,-30.5 329.5,-30.5 329.5,-0.5 221.5,-0.5"/>
<text text-anchor="start" x="229.5" y="-18.5" font-family="Helvetica,sans-Serif" font-size="10.00">rawspeed::CiffIFD::</text>
<text text-anchor="middle" x="275.5" y="-7.5" font-family="Helvetica,sans-Serif" font-size="10.00">parseIFDEntry</text>
</a>
</g>
</g>
<!-- Node1&#45;&gt;Node8 -->
<g id="edge9" class="edge">
<title>Node1&#45;&gt;Node8</title>
<path fill="none" stroke="midnightblue" d="M465.29,-138.49C449.09,-110.31 418.4,-64.29 379,-39.5 364.3,-30.25 346.4,-24.57 329.69,-21.07"/>
<polygon fill="midnightblue" stroke="midnightblue" points="462.28,-140.28 470.22,-147.3 468.39,-136.87 462.28,-140.28"/>
</g>
<!-- Node3&#45;&gt;Node4 -->
<g id="edge3" class="edge">
<title>Node3&#45;&gt;Node4</title>
<path fill="none" stroke="midnightblue" d="M185.67,-278.99C169.06,-277.21 151.96,-275.38 136.14,-273.69"/>
<polygon fill="midnightblue" stroke="midnightblue" points="185.61,-282.5 195.93,-280.09 186.36,-275.54 185.61,-282.5"/>
</g>
<!-- Node7&#45;&gt;Node2 -->
<g id="edge7" class="edge">
<title>Node7&#45;&gt;Node2</title>
<path fill="none" stroke="midnightblue" d="M201.67,-78.31C191.53,-81.16 181.38,-84.54 172,-88.5 140.5,-101.81 107.89,-124.49 88.01,-139.48"/>
<polygon fill="midnightblue" stroke="midnightblue" points="202.6,-81.68 211.36,-75.73 200.8,-74.92 202.6,-81.68"/>
</g>
</g>
</svg>
        <g id="navigator" transform="translate(0 0)" fill="#404254">
                <rect fill="#f2f5e9" fill-opacity="0.5" stroke="#606060" stroke-width=".5" x="0" y="0" width="60" height="60"/>
                <use id="zoomplus" xlink:href="#zoomPlus" x="17" y="9" onmousedown="handleZoom(evt,'in')"/>
                <use id="zoomminus" xlink:href="#zoomMin" x="42" y="9" onmousedown="handleZoom(evt,'out')"/>
                <use id="reset" xlink:href="#resetDef" x="30" y="36" onmousedown="handleReset()"/>
                <g id="arrowUp" xlink:href="#dirArrow" transform="translate(30 24)" onmousedown="handlePan(0,-1)">
                  <use xlink:href="#rim" fill="#404040">
                        <set attributeName="fill" to="#808080" begin="arrowUp.mouseover" end="arrowUp.mouseout"/>
                  </use>
                  <path fill="none" stroke="white" stroke-width="1.5" d="M0,-3.0v7 M-2.5,-0.5L0,-3.0L2.5,-0.5"/>
                </g>
                <g id="arrowRight" xlink:href="#dirArrow" transform="rotate(90) translate(36 -43)" onmousedown="handlePan(1,0)">
                  <use xlink:href="#rim" fill="#404040">
                        <set attributeName="fill" to="#808080" begin="arrowRight.mouseover" end="arrowRight.mouseout"/>
                  </use>
                  <path fill="none" stroke="white" stroke-width="1.5" d="M0,-3.0v7 M-2.5,-0.5L0,-3.0L2.5,-0.5"/>
                </g>
                <g id="arrowDown" xlink:href="#dirArrow" transform="rotate(180) translate(-30 -48)" onmousedown="handlePan(0,1)">
                  <use xlink:href="#rim" fill="#404040">
                        <set attributeName="fill" to="#808080" begin="arrowDown.mouseover" end="arrowDown.mouseout"/>
                  </use>
                  <path fill="none" stroke="white" stroke-width="1.5" d="M0,-3.0v7 M-2.5,-0.5L0,-3.0L2.5,-0.5"/>
                </g>
                <g id="arrowLeft" xlink:href="#dirArrow" transform="rotate(270) translate(-36 17)" onmousedown="handlePan(-1,0)">
                  <use xlink:href="#rim" fill="#404040">
                        <set attributeName="fill" to="#808080" begin="arrowLeft.mouseover" end="arrowLeft.mouseout"/>
                  </use>
                  <path fill="none" stroke="white" stroke-width="1.5" d="M0,-3.0v7 M-2.5,-0.5L0,-3.0L2.5,-0.5"/>
                </g>
        </g>
        <svg viewBox="0 0 15 15" width="100%" height="30px" preserveAspectRatio="xMaxYMin meet">
         <g id="arrow_out" transform="scale(0.3 0.3)">
          <a xlink:href="classrawspeed_1_1_byte_stream_a7a5f5eaad404d367efb8a64fa82d20ae_icgraph_org.svg" target="_base">
           <rect id="button" ry="5" rx="5" y="6" x="6" height="38" width="38"
                fill="#f2f5e9" fill-opacity="0.5" stroke="#606060" stroke-width="1.0"/>
           <path id="arrow"
             d="M 11.500037,31.436501 C 11.940474,20.09759 22.043105,11.32322 32.158766,21.979434 L 37.068811,17.246167 C 37.068811,17.246167 37.088388,32 37.088388,32 L 22.160133,31.978069 C 22.160133,31.978069 26.997745,27.140456 26.997745,27.140456 C 18.528582,18.264221 13.291696,25.230495 11.500037,31.436501 z"
             style="fill:#404040;"/>
          </a>
         </g>
        </svg>
</svg>
