<?xml version="1.0" encoding="UTF-8" standalone="no"?>
<!DOCTYPE svg PUBLIC "-//W3C//DTD SVG 1.1//EN"
 "http://www.w3.org/Graphics/SVG/1.1/DTD/svg11.dtd">
<!-- Generated by graphviz version 2.43.0 (0)
 -->
<!-- Title: rawspeed::ByteStream::getPosition Pages: 1 -->
<svg width="776pt" height="384pt"
 viewBox="0.00 0.00 776.00 383.50" xmlns="http://www.w3.org/2000/svg" xmlns:xlink="http://www.w3.org/1999/xlink">
<g id="graph0" class="graph" transform="scale(1 1) rotate(0) translate(4 379.5)">
<title>rawspeed::ByteStream::getPosition</title>
<!-- Node1 -->
<g id="node1" class="node">
<title>Node1</title>
<g id="a_node1"><a xlink:title=" ">
<polygon fill="#bfbfbf" stroke="black" points="640,-164.5 640,-194.5 768,-194.5 768,-164.5 640,-164.5"/>
<text text-anchor="start" x="648" y="-182.5" font-family="Helvetica,sans-Serif" font-size="10.00">rawspeed::ByteStream</text>
<text text-anchor="middle" x="704" y="-171.5" font-family="Helvetica,sans-Serif" font-size="10.00">::getPosition</text>
</a>
</g>
</g>
<!-- Node2 -->
<g id="node2" class="node">
<title>Node2</title>
<g id="a_node2"><a xlink:href="../../d3/ded/classrawspeed_1_1_bit_stream.html#accd46bfd639eb26439253a6f420fd649" target="_top" xlink:title=" ">
<polygon fill="none" stroke="black" points="413.5,-334 413.5,-375 596.5,-375 596.5,-334 413.5,-334"/>
<text text-anchor="start" x="421.5" y="-363" font-family="Helvetica,sans-Serif" font-size="10.00">rawspeed::BitStream</text>
<text text-anchor="start" x="421.5" y="-352" font-family="Helvetica,sans-Serif" font-size="10.00">&lt; MSBBitPumpTag, BitStream</text>
<text text-anchor="middle" x="505" y="-341" font-family="Helvetica,sans-Serif" font-size="10.00">CacheRightInLeftOut &gt;::BitStream</text>
</a>
</g>
</g>
<!-- Node1&#45;&gt;Node2 -->
<g id="edge1" class="edge">
<title>Node1&#45;&gt;Node2</title>
<path fill="none" stroke="midnightblue" d="M692.65,-203.92C677.73,-236.21 647.16,-292.74 604,-324.5 599.27,-327.98 594.13,-331.06 588.77,-333.79"/>
<polygon fill="midnightblue" stroke="midnightblue" points="695.87,-205.28 696.77,-194.73 689.49,-202.42 695.87,-205.28"/>
</g>
<!-- Node3 -->
<g id="node3" class="node">
<title>Node3</title>
<g id="a_node3"><a xlink:href="../../dc/d8d/classrawspeed_1_1_samsung_v2_decompressor.html#a842eda46fe0845505da6d3223148780c" target="_top" xlink:title=" ">
<polygon fill="none" stroke="black" points="406,-284.5 406,-314.5 604,-314.5 604,-284.5 406,-284.5"/>
<text text-anchor="start" x="414" y="-302.5" font-family="Helvetica,sans-Serif" font-size="10.00">rawspeed::SamsungV2Decompressor</text>
<text text-anchor="middle" x="505" y="-291.5" font-family="Helvetica,sans-Serif" font-size="10.00">::decompressRow</text>
</a>
</g>
</g>
<!-- Node1&#45;&gt;Node3 -->
<g id="edge2" class="edge">
<title>Node1&#45;&gt;Node3</title>
<path fill="none" stroke="midnightblue" d="M685.38,-202.59C667.33,-224.62 637.26,-257.11 604,-275.5 597.79,-278.93 591.09,-281.88 584.22,-284.41"/>
<polygon fill="midnightblue" stroke="midnightblue" points="688.18,-204.7 691.7,-194.7 682.71,-200.32 688.18,-204.7"/>
</g>
<!-- Node6 -->
<g id="node6" class="node">
<title>Node6</title>
<g id="a_node6"><a xlink:href="../../de/df1/classrawspeed_1_1_dng_opcodes.html#a7682e3343a6fd66c00a1a75b2f2d9642" target="_top" xlink:title=" ">
<polygon fill="none" stroke="black" points="439.5,-235.5 439.5,-265.5 570.5,-265.5 570.5,-235.5 439.5,-235.5"/>
<text text-anchor="start" x="447.5" y="-253.5" font-family="Helvetica,sans-Serif" font-size="10.00">rawspeed::DngOpcodes</text>
<text text-anchor="middle" x="505" y="-242.5" font-family="Helvetica,sans-Serif" font-size="10.00">::DngOpcodes</text>
</a>
</g>
</g>
<!-- Node1&#45;&gt;Node6 -->
<g id="edge5" class="edge">
<title>Node1&#45;&gt;Node6</title>
<path fill="none" stroke="midnightblue" d="M665.93,-199.3C647.65,-208.49 625.07,-219.01 604,-226.5 593.35,-230.29 581.85,-233.69 570.6,-236.66"/>
<polygon fill="midnightblue" stroke="midnightblue" points="667.74,-202.31 675.06,-194.64 664.56,-196.07 667.74,-202.31"/>
</g>
<!-- Node7 -->
<g id="node7" class="node">
<title>Node7</title>
<g id="a_node7"><a xlink:href="../../d9/d5b/classrawspeed_1_1_dng_opcodes_1_1_fix_bad_pixels_list.html#ab7bf4c8e7f4039739d0a1f520c841672" target="_top" xlink:title=" ">
<polygon fill="none" stroke="black" points="412,-186.5 412,-216.5 598,-216.5 598,-186.5 412,-186.5"/>
<text text-anchor="start" x="420" y="-204.5" font-family="Helvetica,sans-Serif" font-size="10.00">rawspeed::DngOpcodes</text>
<text text-anchor="middle" x="505" y="-193.5" font-family="Helvetica,sans-Serif" font-size="10.00">::FixBadPixelsList::FixBadPixelsList</text>
</a>
</g>
</g>
<!-- Node1&#45;&gt;Node7 -->
<g id="edge6" class="edge">
<title>Node1&#45;&gt;Node7</title>
<path fill="none" stroke="midnightblue" d="M629.73,-187.68C619.45,-188.83 608.78,-190.02 598.21,-191.2"/>
<polygon fill="midnightblue" stroke="midnightblue" points="630.31,-191.14 639.86,-186.55 629.53,-184.18 630.31,-191.14"/>
</g>
<!-- Node8 -->
<g id="node8" class="node">
<title>Node8</title>
<g id="a_node8"><a xlink:href="../../d7/d34/_dual_8cpp.html#a1c473c9665269a78ef9001573a6995df" target="_top" xlink:title=" ">
<polygon fill="none" stroke="black" points="437,-148 437,-167 573,-167 573,-148 437,-148"/>
<text text-anchor="middle" x="505" y="-155" font-family="Helvetica,sans-Serif" font-size="10.00">LLVMFuzzerTestOneInput</text>
</a>
</g>
</g>
<!-- Node1&#45;&gt;Node8 -->
<g id="edge7" class="edge">
<title>Node1&#45;&gt;Node8</title>
<path fill="none" stroke="midnightblue" d="M629.72,-171.32C611.2,-169.25 591.41,-167.04 573.21,-165.01"/>
<polygon fill="midnightblue" stroke="midnightblue" points="629.53,-174.82 639.86,-172.45 630.31,-167.86 629.53,-174.82"/>
</g>
<!-- Node9 -->
<g id="node9" class="node">
<title>Node9</title>
<g id="a_node9"><a xlink:href="../../db/d6a/classrawspeed_1_1_tiff_i_f_d.html#a444b7e6691a709b6825ab5dd2ae4fe66" target="_top" xlink:title=" ">
<polygon fill="none" stroke="black" points="451.5,-98.5 451.5,-128.5 558.5,-128.5 558.5,-98.5 451.5,-98.5"/>
<text text-anchor="start" x="459.5" y="-116.5" font-family="Helvetica,sans-Serif" font-size="10.00">rawspeed::TiffIFD::</text>
<text text-anchor="middle" x="505" y="-105.5" font-family="Helvetica,sans-Serif" font-size="10.00">parseIFDEntry</text>
</a>
</g>
</g>
<!-- Node1&#45;&gt;Node9 -->
<g id="edge8" class="edge">
<title>Node1&#45;&gt;Node9</title>
<path fill="none" stroke="midnightblue" d="M660.7,-160.42C643.34,-153 622.91,-144.79 604,-138.5 589.42,-133.65 573.36,-129.19 558.53,-125.43"/>
<polygon fill="midnightblue" stroke="midnightblue" points="659.43,-163.68 670,-164.44 662.21,-157.26 659.43,-163.68"/>
</g>
<!-- Node10 -->
<g id="node10" class="node">
<title>Node10</title>
<g id="a_node10"><a xlink:href="../../db/d6a/classrawspeed_1_1_tiff_i_f_d.html#a01e97487df4b0db0b73aaa667a7b3c26" target="_top" xlink:title=" ">
<polygon fill="none" stroke="black" points="451.5,-49.5 451.5,-79.5 558.5,-79.5 558.5,-49.5 451.5,-49.5"/>
<text text-anchor="start" x="459.5" y="-67.5" font-family="Helvetica,sans-Serif" font-size="10.00">rawspeed::TiffIFD::</text>
<text text-anchor="middle" x="505" y="-56.5" font-family="Helvetica,sans-Serif" font-size="10.00">parseMakerNote</text>
</a>
</g>
</g>
<!-- Node1&#45;&gt;Node10 -->
<g id="edge9" class="edge">
<title>Node1&#45;&gt;Node10</title>
<path fill="none" stroke="midnightblue" d="M683.87,-156.64C665.45,-136.1 635.78,-106.61 604,-89.5 590.08,-82.01 573.84,-76.7 558.63,-72.95"/>
<polygon fill="midnightblue" stroke="midnightblue" points="681.36,-159.09 690.58,-164.3 686.62,-154.48 681.36,-159.09"/>
</g>
<!-- Node11 -->
<g id="node11" class="node">
<title>Node11</title>
<g id="a_node11"><a xlink:href="../../df/dca/classrawspeed_1_1_tiff_entry.html#a7a9c4cb037556cd206b5a1e63f2ddce0" target="_top" xlink:title=" ">
<polygon fill="none" stroke="black" points="449.5,-0.5 449.5,-30.5 560.5,-30.5 560.5,-0.5 449.5,-0.5"/>
<text text-anchor="start" x="457.5" y="-18.5" font-family="Helvetica,sans-Serif" font-size="10.00">rawspeed::TiffEntry</text>
<text text-anchor="middle" x="505" y="-7.5" font-family="Helvetica,sans-Serif" font-size="10.00">::TiffEntry</text>
</a>
</g>
</g>
<!-- Node1&#45;&gt;Node11 -->
<g id="edge10" class="edge">
<title>Node1&#45;&gt;Node11</title>
<path fill="none" stroke="midnightblue" d="M692.16,-154.9C677.03,-123.48 646.56,-69.67 604,-40.5 591.25,-31.76 575.69,-26.08 560.75,-22.38"/>
<polygon fill="midnightblue" stroke="midnightblue" points="689.13,-156.68 696.53,-164.26 695.47,-153.72 689.13,-156.68"/>
</g>
<!-- Node4 -->
<g id="node4" class="node">
<title>Node4</title>
<g id="a_node4"><a xlink:href="../../dc/d8d/classrawspeed_1_1_samsung_v2_decompressor.html#a18991c0bbc89d84779f71104572fc94b" target="_top" xlink:title=" ">
<polygon fill="none" stroke="black" points="172,-284.5 172,-314.5 370,-314.5 370,-284.5 172,-284.5"/>
<text text-anchor="start" x="180" y="-302.5" font-family="Helvetica,sans-Serif" font-size="10.00">rawspeed::SamsungV2Decompressor</text>
<text text-anchor="middle" x="271" y="-291.5" font-family="Helvetica,sans-Serif" font-size="10.00">::decompress</text>
</a>
</g>
</g>
<!-- Node3&#45;&gt;Node4 -->
<g id="edge3" class="edge">
<title>Node3&#45;&gt;Node4</title>
<path fill="none" stroke="midnightblue" d="M395.88,-299.5C387.27,-299.5 378.61,-299.5 370.07,-299.5"/>
<polygon fill="midnightblue" stroke="midnightblue" points="395.95,-303 405.95,-299.5 395.95,-296 395.95,-303"/>
</g>
<!-- Node5 -->
<g id="node5" class="node">
<title>Node5</title>
<g id="a_node5"><a xlink:href="../../d8/d75/fuzz_2librawspeed_2decompressors_2_samsung_v2_decompressor_8cpp.html#a1c473c9665269a78ef9001573a6995df" target="_top" xlink:title=" ">
<polygon fill="none" stroke="black" points="0,-290 0,-309 136,-309 136,-290 0,-290"/>
<text text-anchor="middle" x="68" y="-297" font-family="Helvetica,sans-Serif" font-size="10.00">LLVMFuzzerTestOneInput</text>
</a>
</g>
</g>
<!-- Node4&#45;&gt;Node5 -->
<g id="edge4" class="edge">
<title>Node4&#45;&gt;Node5</title>
<path fill="none" stroke="midnightblue" d="M161.69,-299.5C153.04,-299.5 144.47,-299.5 136.24,-299.5"/>
<polygon fill="midnightblue" stroke="midnightblue" points="161.86,-303 171.86,-299.5 161.86,-296 161.86,-303"/>
</g>
</g>
</svg>
