<?xml version="1.0" encoding="UTF-8" standalone="no"?>
<!DOCTYPE svg PUBLIC "-//W3C//DTD SVG 1.1//EN"
 "http://www.w3.org/Graphics/SVG/1.1/DTD/svg11.dtd">
<!-- Generated by graphviz version 2.43.0 (0)
 -->
<!-- Title: rawspeed::ByteStream::hasPrefix Pages: 1 -->
<svg width="443pt" height="61pt"
 viewBox="0.00 0.00 443.00 61.00" xmlns="http://www.w3.org/2000/svg" xmlns:xlink="http://www.w3.org/1999/xlink">
<g id="graph0" class="graph" transform="scale(1 1) rotate(0) translate(4 57)">
<title>rawspeed::ByteStream::hasPrefix</title>
<!-- Node1 -->
<g id="node1" class="node">
<title>Node1</title>
<g id="a_node1"><a xlink:title=" ">
<polygon fill="#bfbfbf" stroke="black" points="307,-22.5 307,-52.5 435,-52.5 435,-22.5 307,-22.5"/>
<text text-anchor="start" x="315" y="-40.5" font-family="Helvetica,sans-Serif" font-size="10.00">rawspeed::ByteStream</text>
<text text-anchor="middle" x="371" y="-29.5" font-family="Helvetica,sans-Serif" font-size="10.00">::hasPrefix</text>
</a>
</g>
</g>
<!-- Node2 -->
<g id="node2" class="node">
<title>Node2</title>
<g id="a_node2"><a xlink:href="../../db/d6a/classrawspeed_1_1_tiff_i_f_d.html#a01e97487df4b0db0b73aaa667a7b3c26" target="_top" xlink:title=" ">
<polygon fill="none" stroke="black" points="0,-22.5 0,-52.5 107,-52.5 107,-22.5 0,-22.5"/>
<text text-anchor="start" x="8" y="-40.5" font-family="Helvetica,sans-Serif" font-size="10.00">rawspeed::TiffIFD::</text>
<text text-anchor="middle" x="53.5" y="-29.5" font-family="Helvetica,sans-Serif" font-size="10.00">parseMakerNote</text>
</a>
</g>
</g>
<!-- Node1&#45;&gt;Node2 -->
<g id="edge1" class="edge">
<title>Node1&#45;&gt;Node2</title>
<path fill="none" stroke="midnightblue" d="M296.76,-39.97C288.08,-40.19 279.34,-40.37 271,-40.5 214.12,-41.36 199.88,-41.46 143,-40.5 131.47,-40.3 119.1,-39.97 107.37,-39.59"/>
<polygon fill="midnightblue" stroke="midnightblue" points="296.99,-43.46 306.9,-39.7 296.81,-36.47 296.99,-43.46"/>
</g>
<!-- Node3 -->
<g id="node3" class="node">
<title>Node3</title>
<g id="a_node3"><a xlink:href="../../dd/da0/classrawspeed_1_1_byte_stream.html#a2f1d0eee37b1a02082498e26cb0b8fd1" target="_top" xlink:title=" ">
<polygon fill="none" stroke="black" points="143,-0.5 143,-30.5 271,-30.5 271,-0.5 143,-0.5"/>
<text text-anchor="start" x="151" y="-18.5" font-family="Helvetica,sans-Serif" font-size="10.00">rawspeed::ByteStream</text>
<text text-anchor="middle" x="207" y="-7.5" font-family="Helvetica,sans-Serif" font-size="10.00">::skipPrefix</text>
</a>
</g>
</g>
<!-- Node1&#45;&gt;Node3 -->
<g id="edge2" class="edge">
<title>Node1&#45;&gt;Node3</title>
<path fill="none" stroke="midnightblue" d="M296.91,-27.57C288.32,-26.41 279.62,-25.23 271.19,-24.08"/>
<polygon fill="midnightblue" stroke="midnightblue" points="296.52,-31.05 306.9,-28.93 297.46,-24.12 296.52,-31.05"/>
</g>
<!-- Node3&#45;&gt;Node2 -->
<g id="edge3" class="edge">
<title>Node3&#45;&gt;Node2</title>
<path fill="none" stroke="midnightblue" d="M132.57,-26.16C123.96,-27.41 115.31,-28.67 107.07,-29.87"/>
<polygon fill="midnightblue" stroke="midnightblue" points="133.23,-29.6 142.63,-24.7 132.23,-22.68 133.23,-29.6"/>
</g>
</g>
</svg>
