<?xml version="1.0" encoding="UTF-8" standalone="no"?>
<!DOCTYPE svg PUBLIC "-//W3C//DTD SVG 1.1//EN"
 "http://www.w3.org/Graphics/SVG/1.1/DTD/svg11.dtd">
<!-- Generated by graphviz version 2.43.0 (0)
 -->
<!-- Title: rawspeed::ByteStream::getU16 Pages: 1 -->
<svg width="761pt" height="333pt"
 viewBox="0.00 0.00 761.00 333.00" xmlns="http://www.w3.org/2000/svg" xmlns:xlink="http://www.w3.org/1999/xlink">
<g id="graph0" class="graph" transform="scale(1 1) rotate(0) translate(4 329)">
<title>rawspeed::ByteStream::getU16</title>
<!-- Node1 -->
<g id="node1" class="node">
<title>Node1</title>
<g id="a_node1"><a xlink:title=" ">
<polygon fill="#bfbfbf" stroke="black" points="625,-147.5 625,-177.5 753,-177.5 753,-147.5 625,-147.5"/>
<text text-anchor="start" x="633" y="-165.5" font-family="Helvetica,sans-Serif" font-size="10.00">rawspeed::ByteStream</text>
<text text-anchor="middle" x="689" y="-154.5" font-family="Helvetica,sans-Serif" font-size="10.00">::getU16</text>
</a>
</g>
</g>
<!-- Node2 -->
<g id="node2" class="node">
<title>Node2</title>
<g id="a_node2"><a xlink:href="../../d7/d0b/classrawspeed_1_1_ciff_i_f_d.html#a39aeb5f86e2b8bb503ddff8cee8971f6" target="_top" xlink:title=" ">
<polygon fill="none" stroke="black" points="431.5,-294.5 431.5,-324.5 539.5,-324.5 539.5,-294.5 431.5,-294.5"/>
<text text-anchor="start" x="439.5" y="-312.5" font-family="Helvetica,sans-Serif" font-size="10.00">rawspeed::CiffIFD::</text>
<text text-anchor="middle" x="485.5" y="-301.5" font-family="Helvetica,sans-Serif" font-size="10.00">CiffIFD</text>
</a>
</g>
</g>
<!-- Node1&#45;&gt;Node2 -->
<g id="edge1" class="edge">
<title>Node1&#45;&gt;Node2</title>
<path fill="none" stroke="midnightblue" d="M675.29,-186.51C659.09,-214.69 628.4,-260.71 589,-285.5 574.3,-294.75 556.4,-300.43 539.69,-303.93"/>
<polygon fill="midnightblue" stroke="midnightblue" points="678.39,-188.13 680.22,-177.7 672.28,-184.72 678.39,-188.13"/>
</g>
<!-- Node3 -->
<g id="node3" class="node">
<title>Node3</title>
<g id="a_node3"><a xlink:href="../../df/d02/classrawspeed_1_1_nikon_decompressor.html#a8740abe0a9336f8065f2027105f8f98a" target="_top" xlink:title=" ">
<polygon fill="none" stroke="black" points="401,-245.5 401,-275.5 570,-275.5 570,-245.5 401,-245.5"/>
<text text-anchor="start" x="409" y="-263.5" font-family="Helvetica,sans-Serif" font-size="10.00">rawspeed::NikonDecompressor</text>
<text text-anchor="middle" x="485.5" y="-252.5" font-family="Helvetica,sans-Serif" font-size="10.00">::createCurve</text>
</a>
</g>
</g>
<!-- Node1&#45;&gt;Node3 -->
<g id="edge2" class="edge">
<title>Node1&#45;&gt;Node3</title>
<path fill="none" stroke="midnightblue" d="M664.65,-184.38C645.65,-201.02 617.42,-223.26 589,-236.5 581.63,-239.93 573.72,-242.9 565.69,-245.46"/>
<polygon fill="midnightblue" stroke="midnightblue" points="667.08,-186.9 672.2,-177.63 662.41,-181.68 667.08,-186.9"/>
</g>
<!-- Node4 -->
<g id="node4" class="node">
<title>Node4</title>
<g id="a_node4"><a xlink:href="../../d7/de5/structrawspeed_1_1_fuji_decompressor_1_1_fuji_header.html#a3d36061e446f0ffbb71174f3ba3c6625" target="_top" xlink:title=" ">
<polygon fill="none" stroke="black" points="407,-196.5 407,-226.5 564,-226.5 564,-196.5 407,-196.5"/>
<text text-anchor="start" x="415" y="-214.5" font-family="Helvetica,sans-Serif" font-size="10.00">rawspeed::FujiDecompressor</text>
<text text-anchor="middle" x="485.5" y="-203.5" font-family="Helvetica,sans-Serif" font-size="10.00">::FujiHeader::FujiHeader</text>
</a>
</g>
</g>
<!-- Node1&#45;&gt;Node4 -->
<g id="edge3" class="edge">
<title>Node1&#45;&gt;Node4</title>
<path fill="none" stroke="midnightblue" d="M619.14,-180.05C609.04,-182.58 598.75,-185.13 589,-187.5 576.84,-190.46 563.84,-193.55 551.33,-196.5"/>
<polygon fill="midnightblue" stroke="midnightblue" points="620.3,-183.37 629.15,-177.54 618.6,-176.58 620.3,-183.37"/>
</g>
<!-- Node7 -->
<g id="node7" class="node">
<title>Node7</title>
<g id="a_node7"><a xlink:href="../../d4/d03/classrawspeed_1_1_abstract_l_jpeg_decompressor.html#a9fa9aa3a59f7be8046177591240a0e21" target="_top" xlink:title=" ">
<polygon fill="none" stroke="black" points="382,-147.5 382,-177.5 589,-177.5 589,-147.5 382,-147.5"/>
<text text-anchor="start" x="390" y="-165.5" font-family="Helvetica,sans-Serif" font-size="10.00">rawspeed::AbstractLJpegDecompressor</text>
<text text-anchor="middle" x="485.5" y="-154.5" font-family="Helvetica,sans-Serif" font-size="10.00">::parseSOF</text>
</a>
</g>
</g>
<!-- Node1&#45;&gt;Node7 -->
<g id="edge7" class="edge">
<title>Node1&#45;&gt;Node7</title>
<path fill="none" stroke="midnightblue" d="M614.55,-162.5C606.33,-162.5 597.85,-162.5 589.35,-162.5"/>
<polygon fill="midnightblue" stroke="midnightblue" points="614.8,-166 624.8,-162.5 614.8,-159 614.8,-166"/>
</g>
<!-- Node8 -->
<g id="node8" class="node">
<title>Node8</title>
<g id="a_node8"><a xlink:href="../../d5/df3/classrawspeed_1_1_pentax_decompressor.html#a07c8ab7a6bc0f183cde3912a8d7b2c5e" target="_top" xlink:title=" ">
<polygon fill="none" stroke="black" points="398.5,-98.5 398.5,-128.5 572.5,-128.5 572.5,-98.5 398.5,-98.5"/>
<text text-anchor="start" x="406.5" y="-116.5" font-family="Helvetica,sans-Serif" font-size="10.00">rawspeed::PentaxDecompressor</text>
<text text-anchor="middle" x="485.5" y="-105.5" font-family="Helvetica,sans-Serif" font-size="10.00">::SetupHuffmanTable_Modern</text>
</a>
</g>
</g>
<!-- Node1&#45;&gt;Node8 -->
<g id="edge8" class="edge">
<title>Node1&#45;&gt;Node8</title>
<path fill="none" stroke="midnightblue" d="M619.14,-144.95C609.04,-142.42 598.75,-139.87 589,-137.5 576.84,-134.54 563.84,-131.45 551.33,-128.5"/>
<polygon fill="midnightblue" stroke="midnightblue" points="618.6,-148.42 629.15,-147.46 620.3,-141.63 618.6,-148.42"/>
</g>
<!-- Node10 -->
<g id="node10" class="node">
<title>Node10</title>
<g id="a_node10"><a xlink:href="../../df/dca/classrawspeed_1_1_tiff_entry.html#a7a9c4cb037556cd206b5a1e63f2ddce0" target="_top" xlink:title=" ">
<polygon fill="none" stroke="black" points="430,-49.5 430,-79.5 541,-79.5 541,-49.5 430,-49.5"/>
<text text-anchor="start" x="438" y="-67.5" font-family="Helvetica,sans-Serif" font-size="10.00">rawspeed::TiffEntry</text>
<text text-anchor="middle" x="485.5" y="-56.5" font-family="Helvetica,sans-Serif" font-size="10.00">::TiffEntry</text>
</a>
</g>
</g>
<!-- Node1&#45;&gt;Node10 -->
<g id="edge10" class="edge">
<title>Node1&#45;&gt;Node10</title>
<path fill="none" stroke="midnightblue" d="M664.65,-140.62C645.65,-123.98 617.42,-101.74 589,-88.5 574.09,-81.55 556.99,-76.53 541.09,-72.93"/>
<polygon fill="midnightblue" stroke="midnightblue" points="662.41,-143.32 672.2,-147.37 667.08,-138.1 662.41,-143.32"/>
</g>
<!-- Node11 -->
<g id="node11" class="node">
<title>Node11</title>
<g id="a_node11"><a xlink:href="../../db/d6a/classrawspeed_1_1_tiff_i_f_d.html#ab0340c6df85d42ac0265e025c4092aa0" target="_top" xlink:title=" ">
<polygon fill="none" stroke="black" points="432,-0.5 432,-30.5 539,-30.5 539,-0.5 432,-0.5"/>
<text text-anchor="start" x="440" y="-18.5" font-family="Helvetica,sans-Serif" font-size="10.00">rawspeed::TiffIFD::</text>
<text text-anchor="middle" x="485.5" y="-7.5" font-family="Helvetica,sans-Serif" font-size="10.00">TiffIFD</text>
</a>
</g>
</g>
<!-- Node1&#45;&gt;Node11 -->
<g id="edge11" class="edge">
<title>Node1&#45;&gt;Node11</title>
<path fill="none" stroke="midnightblue" d="M675.29,-138.49C659.09,-110.31 628.4,-64.29 589,-39.5 574.15,-30.16 556.02,-24.45 539.16,-20.96"/>
<polygon fill="midnightblue" stroke="midnightblue" points="672.28,-140.28 680.22,-147.3 678.39,-136.87 672.28,-140.28"/>
</g>
<!-- Node5 -->
<g id="node5" class="node">
<title>Node5</title>
<g id="a_node5"><a xlink:href="../../de/d5f/classrawspeed_1_1_fuji_decompressor.html#abcbbb2d1df6a5e2cb8fd423386741b62" target="_top" xlink:title=" ">
<polygon fill="none" stroke="black" points="180.5,-196.5 180.5,-226.5 337.5,-226.5 337.5,-196.5 180.5,-196.5"/>
<text text-anchor="start" x="188.5" y="-214.5" font-family="Helvetica,sans-Serif" font-size="10.00">rawspeed::FujiDecompressor</text>
<text text-anchor="middle" x="259" y="-203.5" font-family="Helvetica,sans-Serif" font-size="10.00">::FujiDecompressor</text>
</a>
</g>
</g>
<!-- Node4&#45;&gt;Node5 -->
<g id="edge4" class="edge">
<title>Node4&#45;&gt;Node5</title>
<path fill="none" stroke="midnightblue" d="M396.81,-211.5C377.27,-211.5 356.68,-211.5 337.58,-211.5"/>
<polygon fill="midnightblue" stroke="midnightblue" points="396.93,-215 406.93,-211.5 396.93,-208 396.93,-215"/>
</g>
<!-- Node5&#45;&gt;Node5 -->
<g id="edge5" class="edge">
<title>Node5&#45;&gt;Node5</title>
<path fill="none" stroke="midnightblue" d="M292.76,-236.96C288.57,-241.68 277.32,-245 259,-245 228.94,-245 217.9,-236.06 225.89,-226.66"/>
<polygon fill="midnightblue" stroke="midnightblue" points="296.23,-236.42 292.11,-226.66 289.25,-236.86 296.23,-236.42"/>
</g>
<!-- Node6 -->
<g id="node6" class="node">
<title>Node6</title>
<g id="a_node6"><a xlink:href="../../da/d77/fuzz_2librawspeed_2decompressors_2_fuji_decompressor_8cpp.html#a1c473c9665269a78ef9001573a6995df" target="_top" xlink:title=" ">
<polygon fill="none" stroke="black" points="0,-202 0,-221 136,-221 136,-202 0,-202"/>
<text text-anchor="middle" x="68" y="-209" font-family="Helvetica,sans-Serif" font-size="10.00">LLVMFuzzerTestOneInput</text>
</a>
</g>
</g>
<!-- Node5&#45;&gt;Node6 -->
<g id="edge6" class="edge">
<title>Node5&#45;&gt;Node6</title>
<path fill="none" stroke="midnightblue" d="M170.27,-211.5C158.8,-211.5 147.19,-211.5 136.12,-211.5"/>
<polygon fill="midnightblue" stroke="midnightblue" points="170.31,-215 180.31,-211.5 170.31,-208 170.31,-215"/>
</g>
<!-- Node9 -->
<g id="node9" class="node">
<title>Node9</title>
<g id="a_node9"><a xlink:href="../../d5/df3/classrawspeed_1_1_pentax_decompressor.html#afa0aded04928c5d6437fea8f961785cb" target="_top" xlink:title=" ">
<polygon fill="none" stroke="black" points="172,-98.5 172,-128.5 346,-128.5 346,-98.5 172,-98.5"/>
<text text-anchor="start" x="180" y="-116.5" font-family="Helvetica,sans-Serif" font-size="10.00">rawspeed::PentaxDecompressor</text>
<text text-anchor="middle" x="259" y="-105.5" font-family="Helvetica,sans-Serif" font-size="10.00">::SetupHuffmanTable</text>
</a>
</g>
</g>
<!-- Node8&#45;&gt;Node9 -->
<g id="edge9" class="edge">
<title>Node8&#45;&gt;Node9</title>
<path fill="none" stroke="midnightblue" d="M388.26,-113.5C374.31,-113.5 360.03,-113.5 346.3,-113.5"/>
<polygon fill="midnightblue" stroke="midnightblue" points="388.34,-117 398.34,-113.5 388.34,-110 388.34,-117"/>
</g>
</g>
</svg>
