<?xml version="1.0" encoding="UTF-8" standalone="no"?>
<!DOCTYPE svg PUBLIC "-//W3C//DTD SVG 1.1//EN"
 "http://www.w3.org/Graphics/SVG/1.1/DTD/svg11.dtd">
<!-- Generated by graphviz version 2.43.0 (0)
 -->
<!-- Title: rawspeed::ByteStream::getBuffer Pages: 1 -->
<svg width="811pt" height="127pt"
 viewBox="0.00 0.00 811.00 126.50" xmlns="http://www.w3.org/2000/svg" xmlns:xlink="http://www.w3.org/1999/xlink">
<g id="graph0" class="graph" transform="scale(1 1) rotate(0) translate(4 122.5)">
<title>rawspeed::ByteStream::getBuffer</title>
<!-- Node1 -->
<g id="node1" class="node">
<title>Node1</title>
<g id="a_node1"><a xlink:title=" ">
<polygon fill="#bfbfbf" stroke="black" points="675,-49.5 675,-79.5 803,-79.5 803,-49.5 675,-49.5"/>
<text text-anchor="start" x="683" y="-67.5" font-family="Helvetica,sans-Serif" font-size="10.00">rawspeed::ByteStream</text>
<text text-anchor="middle" x="739" y="-56.5" font-family="Helvetica,sans-Serif" font-size="10.00">::getBuffer</text>
</a>
</g>
</g>
<!-- Node2 -->
<g id="node2" class="node">
<title>Node2</title>
<g id="a_node2"><a xlink:href="../../d8/d6e/fuzz_2librawspeed_2decompressors_2_huffman_table_2_common_8h.html#a6834d2bdc864a5b6c5090bce16801750" target="_top" xlink:title=" ">
<polygon fill="none" stroke="black" points="487,-99 487,-118 602,-118 602,-99 487,-99"/>
<text text-anchor="middle" x="544.5" y="-106" font-family="Helvetica,sans-Serif" font-size="10.00">createHuffmanTable</text>
</a>
</g>
</g>
<!-- Node1&#45;&gt;Node2 -->
<g id="edge1" class="edge">
<title>Node1&#45;&gt;Node2</title>
<path fill="none" stroke="midnightblue" d="M670.32,-82.04C659.86,-84.62 649.15,-87.19 639,-89.5 624.63,-92.77 608.95,-96.07 594.6,-98.97"/>
<polygon fill="midnightblue" stroke="midnightblue" points="671.41,-85.38 680.26,-79.56 669.71,-78.58 671.41,-85.38"/>
</g>
<!-- Node3 -->
<g id="node3" class="node">
<title>Node3</title>
<g id="a_node3"><a xlink:href="../../d4/dd1/classrawspeed_1_1_panasonic_decompressor_v4_1_1_proxy_stream.html#aa25b9dc438aa00318780a46920bace52" target="_top" xlink:title=" ">
<polygon fill="none" stroke="black" points="450,-49.5 450,-79.5 639,-79.5 639,-49.5 450,-49.5"/>
<text text-anchor="start" x="458" y="-67.5" font-family="Helvetica,sans-Serif" font-size="10.00">rawspeed::PanasonicDecompressor</text>
<text text-anchor="middle" x="544.5" y="-56.5" font-family="Helvetica,sans-Serif" font-size="10.00">V4::ProxyStream::parseBlock</text>
</a>
</g>
</g>
<!-- Node1&#45;&gt;Node3 -->
<g id="edge2" class="edge">
<title>Node1&#45;&gt;Node3</title>
<path fill="none" stroke="midnightblue" d="M664.82,-64.5C656.39,-64.5 647.7,-64.5 639.04,-64.5"/>
<polygon fill="midnightblue" stroke="midnightblue" points="664.97,-68 674.97,-64.5 664.97,-61 664.97,-68"/>
</g>
<!-- Node6 -->
<g id="node6" class="node">
<title>Node6</title>
<g id="a_node6"><a xlink:href="../../d3/dde/classrawspeed_1_1_panasonic_decompressor_v5_1_1_proxy_stream.html#aae0685033eabcea8b60ff9245171076e" target="_top" xlink:title=" ">
<polygon fill="none" stroke="black" points="450,-0.5 450,-30.5 639,-30.5 639,-0.5 450,-0.5"/>
<text text-anchor="start" x="458" y="-18.5" font-family="Helvetica,sans-Serif" font-size="10.00">rawspeed::PanasonicDecompressor</text>
<text text-anchor="middle" x="544.5" y="-7.5" font-family="Helvetica,sans-Serif" font-size="10.00">V5::ProxyStream::parseBlock</text>
</a>
</g>
</g>
<!-- Node1&#45;&gt;Node6 -->
<g id="edge6" class="edge">
<title>Node1&#45;&gt;Node6</title>
<path fill="none" stroke="midnightblue" d="M669.05,-46.95C647.92,-41.57 624.86,-35.7 604.45,-30.51"/>
<polygon fill="midnightblue" stroke="midnightblue" points="668.38,-50.39 678.94,-49.47 670.11,-43.61 668.38,-50.39"/>
</g>
<!-- Node4 -->
<g id="node4" class="node">
<title>Node4</title>
<g id="a_node4"><a xlink:href="../../d4/dd1/classrawspeed_1_1_panasonic_decompressor_v4_1_1_proxy_stream.html#af369adcf4ddf2a5d0782eba26ba51202" target="_top" xlink:title=" ">
<polygon fill="none" stroke="black" points="225,-49.5 225,-79.5 414,-79.5 414,-49.5 225,-49.5"/>
<text text-anchor="start" x="233" y="-67.5" font-family="Helvetica,sans-Serif" font-size="10.00">rawspeed::PanasonicDecompressor</text>
<text text-anchor="middle" x="319.5" y="-56.5" font-family="Helvetica,sans-Serif" font-size="10.00">V4::ProxyStream::ProxyStream</text>
</a>
</g>
</g>
<!-- Node3&#45;&gt;Node4 -->
<g id="edge3" class="edge">
<title>Node3&#45;&gt;Node4</title>
<path fill="none" stroke="midnightblue" d="M439.89,-64.5C431.33,-64.5 422.7,-64.5 414.22,-64.5"/>
<polygon fill="midnightblue" stroke="midnightblue" points="439.9,-68 449.9,-64.5 439.9,-61 439.9,-68"/>
</g>
<!-- Node4&#45;&gt;Node4 -->
<g id="edge5" class="edge">
<title>Node4&#45;&gt;Node4</title>
<path fill="none" stroke="midnightblue" d="M359.3,-89.96C354.36,-94.68 341.09,-98 319.5,-98 284.06,-98 271.05,-89.06 280.46,-79.66"/>
<polygon fill="midnightblue" stroke="midnightblue" points="362.77,-89.37 358.54,-79.66 355.79,-89.89 362.77,-89.37"/>
</g>
<!-- Node5 -->
<g id="node5" class="node">
<title>Node5</title>
<g id="a_node5"><a xlink:href="../../d8/d43/classrawspeed_1_1_panasonic_decompressor_v4.html#ab078cab4dbdd87dcf7168bd21d1ef31e" target="_top" xlink:title=" ">
<polygon fill="none" stroke="black" points="0,-49.5 0,-79.5 189,-79.5 189,-49.5 0,-49.5"/>
<text text-anchor="start" x="8" y="-67.5" font-family="Helvetica,sans-Serif" font-size="10.00">rawspeed::PanasonicDecompressor</text>
<text text-anchor="middle" x="94.5" y="-56.5" font-family="Helvetica,sans-Serif" font-size="10.00">V4::processBlock</text>
</a>
</g>
</g>
<!-- Node4&#45;&gt;Node5 -->
<g id="edge4" class="edge">
<title>Node4&#45;&gt;Node5</title>
<path fill="none" stroke="midnightblue" d="M214.89,-64.5C206.33,-64.5 197.7,-64.5 189.22,-64.5"/>
<polygon fill="midnightblue" stroke="midnightblue" points="214.9,-68 224.9,-64.5 214.9,-61 214.9,-68"/>
</g>
<!-- Node7 -->
<g id="node7" class="node">
<title>Node7</title>
<g id="a_node7"><a xlink:href="../../d3/dde/classrawspeed_1_1_panasonic_decompressor_v5_1_1_proxy_stream.html#a3a76fe6949260c72e02c7ef0ad50bcda" target="_top" xlink:title=" ">
<polygon fill="none" stroke="black" points="225,-0.5 225,-30.5 414,-30.5 414,-0.5 225,-0.5"/>
<text text-anchor="start" x="233" y="-18.5" font-family="Helvetica,sans-Serif" font-size="10.00">rawspeed::PanasonicDecompressor</text>
<text text-anchor="middle" x="319.5" y="-7.5" font-family="Helvetica,sans-Serif" font-size="10.00">V5::ProxyStream::getStream</text>
</a>
</g>
</g>
<!-- Node6&#45;&gt;Node7 -->
<g id="edge7" class="edge">
<title>Node6&#45;&gt;Node7</title>
<path fill="none" stroke="midnightblue" d="M439.89,-15.5C431.33,-15.5 422.7,-15.5 414.22,-15.5"/>
<polygon fill="midnightblue" stroke="midnightblue" points="439.9,-19 449.9,-15.5 439.9,-12 439.9,-19"/>
</g>
</g>
</svg>
