<?xml version="1.0" encoding="UTF-8" standalone="no"?>
<!DOCTYPE svg PUBLIC "-//W3C//DTD SVG 1.1//EN"
 "http://www.w3.org/Graphics/SVG/1.1/DTD/svg11.dtd">
<!-- Generated by graphviz version 2.43.0 (0)
 -->
<!-- Title: rawspeed::ByteStream::getData Pages: 1 -->
<svg width="385pt" height="186pt"
 viewBox="0.00 0.00 385.00 186.00" xmlns="http://www.w3.org/2000/svg" xmlns:xlink="http://www.w3.org/1999/xlink">
<g id="graph0" class="graph" transform="scale(1 1) rotate(0) translate(4 182)">
<title>rawspeed::ByteStream::getData</title>
<!-- Node1 -->
<g id="node1" class="node">
<title>Node1</title>
<g id="a_node1"><a xlink:title=" ">
<polygon fill="#bfbfbf" stroke="black" points="249,-73.5 249,-103.5 377,-103.5 377,-73.5 249,-73.5"/>
<text text-anchor="start" x="257" y="-91.5" font-family="Helvetica,sans-Serif" font-size="10.00">rawspeed::ByteStream</text>
<text text-anchor="middle" x="313" y="-80.5" font-family="Helvetica,sans-Serif" font-size="10.00">::getData</text>
</a>
</g>
</g>
<!-- Node2 -->
<g id="node2" class="node">
<title>Node2</title>
<g id="a_node2"><a xlink:href="../../d5/d8a/classrawspeed_1_1_uncompressed_decompressor.html#aa339318a8a6d4334fc92e586e4d8ebb4" target="_top" xlink:title=" ">
<polygon fill="none" stroke="black" points="0,-147.5 0,-177.5 213,-177.5 213,-147.5 0,-147.5"/>
<text text-anchor="start" x="8" y="-165.5" font-family="Helvetica,sans-Serif" font-size="10.00">rawspeed::UncompressedDecompressor</text>
<text text-anchor="middle" x="106.5" y="-154.5" font-family="Helvetica,sans-Serif" font-size="10.00">::decode12BitRawUnpackedLeftAligned</text>
</a>
</g>
</g>
<!-- Node1&#45;&gt;Node2 -->
<g id="edge1" class="edge">
<title>Node1&#45;&gt;Node2</title>
<path fill="none" stroke="midnightblue" d="M277.34,-108.63C258.75,-118.75 235.16,-130.52 213,-138.5 203.72,-141.84 193.81,-144.82 183.92,-147.45"/>
<polygon fill="midnightblue" stroke="midnightblue" points="279.25,-111.58 286.3,-103.67 275.86,-105.45 279.25,-111.58"/>
</g>
<!-- Node3 -->
<g id="node3" class="node">
<title>Node3</title>
<g id="a_node3"><a xlink:href="../../d5/d8a/classrawspeed_1_1_uncompressed_decompressor.html#a5705bfa2bf2a6a95d9661b8136498316" target="_top" xlink:title=" ">
<polygon fill="none" stroke="black" points="0,-98.5 0,-128.5 213,-128.5 213,-98.5 0,-98.5"/>
<text text-anchor="start" x="8" y="-116.5" font-family="Helvetica,sans-Serif" font-size="10.00">rawspeed::UncompressedDecompressor</text>
<text text-anchor="middle" x="106.5" y="-105.5" font-family="Helvetica,sans-Serif" font-size="10.00">::decode8BitRaw</text>
</a>
</g>
</g>
<!-- Node1&#45;&gt;Node3 -->
<g id="edge2" class="edge">
<title>Node1&#45;&gt;Node3</title>
<path fill="none" stroke="midnightblue" d="M238.93,-97.43C230.56,-98.46 221.91,-99.51 213.23,-100.57"/>
<polygon fill="midnightblue" stroke="midnightblue" points="239.47,-100.89 248.97,-96.2 238.62,-93.94 239.47,-100.89"/>
</g>
<!-- Node4 -->
<g id="node4" class="node">
<title>Node4</title>
<g id="a_node4"><a xlink:href="../../d5/d8a/classrawspeed_1_1_uncompressed_decompressor.html#afff991855c004b7ee4a65d90dedd96fc" target="_top" xlink:title=" ">
<polygon fill="none" stroke="black" points="0,-49.5 0,-79.5 213,-79.5 213,-49.5 0,-49.5"/>
<text text-anchor="start" x="8" y="-67.5" font-family="Helvetica,sans-Serif" font-size="10.00">rawspeed::UncompressedDecompressor</text>
<text text-anchor="middle" x="106.5" y="-56.5" font-family="Helvetica,sans-Serif" font-size="10.00">::decodeRawUnpacked</text>
</a>
</g>
</g>
<!-- Node1&#45;&gt;Node4 -->
<g id="edge3" class="edge">
<title>Node1&#45;&gt;Node4</title>
<path fill="none" stroke="midnightblue" d="M238.93,-79.92C230.56,-78.94 221.91,-77.93 213.23,-76.91"/>
<polygon fill="midnightblue" stroke="midnightblue" points="238.63,-83.41 248.97,-81.1 239.45,-76.46 238.63,-83.41"/>
</g>
<!-- Node5 -->
<g id="node5" class="node">
<title>Node5</title>
<g id="a_node5"><a xlink:href="../../d5/d8a/classrawspeed_1_1_uncompressed_decompressor.html#a9cad2df2885aaa5f6b1fdf8d662e3b5d" target="_top" xlink:title=" ">
<polygon fill="none" stroke="black" points="0,-0.5 0,-30.5 213,-30.5 213,-0.5 0,-0.5"/>
<text text-anchor="start" x="8" y="-18.5" font-family="Helvetica,sans-Serif" font-size="10.00">rawspeed::UncompressedDecompressor</text>
<text text-anchor="middle" x="106.5" y="-7.5" font-family="Helvetica,sans-Serif" font-size="10.00">::readUncompressedRaw</text>
</a>
</g>
</g>
<!-- Node1&#45;&gt;Node5 -->
<g id="edge4" class="edge">
<title>Node1&#45;&gt;Node5</title>
<path fill="none" stroke="midnightblue" d="M276.04,-68.71C257.61,-59.17 234.55,-48.17 213,-40.5 202.54,-36.77 191.29,-33.44 180.19,-30.51"/>
<polygon fill="midnightblue" stroke="midnightblue" points="274.48,-71.84 284.96,-73.39 277.73,-65.64 274.48,-71.84"/>
</g>
</g>
</svg>
