<?xml version="1.0" encoding="UTF-8" standalone="no"?>
<!DOCTYPE svg PUBLIC "-//W3C//DTD SVG 1.1//EN"
 "http://www.w3.org/Graphics/SVG/1.1/DTD/svg11.dtd">
<!-- Generated by graphviz version 2.43.0 (0)
 -->
<!-- Title: rawspeed::ByteStream::getRemainSize Pages: 1 -->
<svg width="853pt" height="619pt"
 viewBox="0.00 0.00 853.00 618.50" xmlns="http://www.w3.org/2000/svg" xmlns:xlink="http://www.w3.org/1999/xlink">
<g id="graph0" class="graph" transform="scale(1 1) rotate(0) translate(4 614.5)">
<title>rawspeed::ByteStream::getRemainSize</title>
<!-- Node1 -->
<g id="node1" class="node">
<title>Node1</title>
<g id="a_node1"><a xlink:title=" ">
<polygon fill="#bfbfbf" stroke="black" points="717,-294.5 717,-324.5 845,-324.5 845,-294.5 717,-294.5"/>
<text text-anchor="start" x="725" y="-312.5" font-family="Helvetica,sans-Serif" font-size="10.00">rawspeed::ByteStream</text>
<text text-anchor="middle" x="781" y="-301.5" font-family="Helvetica,sans-Serif" font-size="10.00">::getRemainSize</text>
</a>
</g>
</g>
<!-- Node2 -->
<g id="node2" class="node">
<title>Node2</title>
<g id="a_node2"><a xlink:href="../../d3/ded/classrawspeed_1_1_bit_stream.html#accd46bfd639eb26439253a6f420fd649" target="_top" xlink:title=" ">
<polygon fill="none" stroke="black" points="483,-569 483,-610 666,-610 666,-569 483,-569"/>
<text text-anchor="start" x="491" y="-598" font-family="Helvetica,sans-Serif" font-size="10.00">rawspeed::BitStream</text>
<text text-anchor="start" x="491" y="-587" font-family="Helvetica,sans-Serif" font-size="10.00">&lt; MSBBitPumpTag, BitStream</text>
<text text-anchor="middle" x="574.5" y="-576" font-family="Helvetica,sans-Serif" font-size="10.00">CacheRightInLeftOut &gt;::BitStream</text>
</a>
</g>
</g>
<!-- Node1&#45;&gt;Node2 -->
<g id="edge1" class="edge">
<title>Node1&#45;&gt;Node2</title>
<path fill="none" stroke="midnightblue" d="M777.33,-334.78C770.65,-385.14 748.57,-498.37 681,-559.5 676.48,-563.59 671.44,-567.12 666.09,-570.18"/>
<polygon fill="midnightblue" stroke="midnightblue" points="780.82,-335.11 778.57,-324.75 773.87,-334.25 780.82,-335.11"/>
</g>
<!-- Node3 -->
<g id="node3" class="node">
<title>Node3</title>
<g id="a_node3"><a xlink:href="../../d8/d43/classrawspeed_1_1_panasonic_decompressor_v4.html#ae78e6de88b083c2b0db7ae43defeaa33" target="_top" xlink:title=" ">
<polygon fill="none" stroke="black" points="480,-519.5 480,-549.5 669,-549.5 669,-519.5 480,-519.5"/>
<text text-anchor="start" x="488" y="-537.5" font-family="Helvetica,sans-Serif" font-size="10.00">rawspeed::PanasonicDecompressor</text>
<text text-anchor="middle" x="574.5" y="-526.5" font-family="Helvetica,sans-Serif" font-size="10.00">V4::chopInputIntoBlocks</text>
</a>
</g>
</g>
<!-- Node1&#45;&gt;Node3 -->
<g id="edge2" class="edge">
<title>Node1&#45;&gt;Node3</title>
<path fill="none" stroke="midnightblue" d="M774.99,-334.56C765.03,-377.54 738.55,-465.05 681,-510.5 676.65,-513.93 671.9,-516.9 666.91,-519.45"/>
<polygon fill="midnightblue" stroke="midnightblue" points="778.44,-335.16 777.17,-324.65 771.6,-333.66 778.44,-335.16"/>
</g>
<!-- Node5 -->
<g id="node5" class="node">
<title>Node5</title>
<g id="a_node5"><a xlink:href="../../db/db3/classrawspeed_1_1_panasonic_decompressor_v5.html#ae8f02fe90c398ebf2665d534037a6b32" target="_top" xlink:title=" ">
<polygon fill="none" stroke="black" points="480,-470.5 480,-500.5 669,-500.5 669,-470.5 480,-470.5"/>
<text text-anchor="start" x="488" y="-488.5" font-family="Helvetica,sans-Serif" font-size="10.00">rawspeed::PanasonicDecompressor</text>
<text text-anchor="middle" x="574.5" y="-477.5" font-family="Helvetica,sans-Serif" font-size="10.00">V5::chopInputIntoBlocks</text>
</a>
</g>
</g>
<!-- Node1&#45;&gt;Node5 -->
<g id="edge4" class="edge">
<title>Node1&#45;&gt;Node5</title>
<path fill="none" stroke="midnightblue" d="M769.79,-334.21C755.03,-366.88 724.63,-423.95 681,-455.5 672.51,-461.64 662.8,-466.52 652.79,-470.41"/>
<polygon fill="midnightblue" stroke="midnightblue" points="773.05,-335.48 773.86,-324.92 766.64,-332.67 773.05,-335.48"/>
</g>
<!-- Node6 -->
<g id="node6" class="node">
<title>Node6</title>
<g id="a_node6"><a xlink:href="../../db/db3/classrawspeed_1_1_panasonic_decompressor_v5.html#a35f58e93a7d9019a89a5e97e8b55d8ad" target="_top" xlink:title=" ">
<polygon fill="none" stroke="black" points="234,-448.5 234,-478.5 423,-478.5 423,-448.5 234,-448.5"/>
<text text-anchor="start" x="242" y="-466.5" font-family="Helvetica,sans-Serif" font-size="10.00">rawspeed::PanasonicDecompressor</text>
<text text-anchor="middle" x="328.5" y="-455.5" font-family="Helvetica,sans-Serif" font-size="10.00">V5::PanasonicDecompressorV5</text>
</a>
</g>
</g>
<!-- Node1&#45;&gt;Node6 -->
<g id="edge10" class="edge">
<title>Node1&#45;&gt;Node6</title>
<path fill="none" stroke="midnightblue" d="M766.49,-333.5C750.04,-360.19 719.62,-402.21 681,-422.5 637.62,-445.29 511.85,-455.6 423.19,-460.13"/>
<polygon fill="midnightblue" stroke="midnightblue" points="769.58,-335.14 771.71,-324.76 763.58,-331.55 769.58,-335.14"/>
</g>
<!-- Node7 -->
<g id="node7" class="node">
<title>Node7</title>
<g id="a_node7"><a xlink:href="../../de/d70/classrawspeed_1_1_crw_decompressor.html#a16b8f8f8ff89abbb8a29c335e82625a8" target="_top" xlink:title=" ">
<polygon fill="none" stroke="black" points="495,-382.5 495,-412.5 654,-412.5 654,-382.5 495,-382.5"/>
<text text-anchor="start" x="503" y="-400.5" font-family="Helvetica,sans-Serif" font-size="10.00">rawspeed::CrwDecompressor</text>
<text text-anchor="middle" x="574.5" y="-389.5" font-family="Helvetica,sans-Serif" font-size="10.00">::CrwDecompressor</text>
</a>
</g>
</g>
<!-- Node1&#45;&gt;Node7 -->
<g id="edge6" class="edge">
<title>Node1&#45;&gt;Node7</title>
<path fill="none" stroke="midnightblue" d="M749.5,-330.09C730.45,-342.26 705.04,-357.24 681,-367.5 667.52,-373.26 652.6,-378.26 638.33,-382.45"/>
<polygon fill="midnightblue" stroke="midnightblue" points="751.56,-332.93 758.05,-324.55 747.75,-327.05 751.56,-332.93"/>
</g>
<!-- Node8 -->
<g id="node8" class="node">
<title>Node8</title>
<g id="a_node8"><a xlink:href="../../de/da7/fuzz_2librawspeed_2decompressors_2_crw_decompressor_8cpp.html#a1c473c9665269a78ef9001573a6995df" target="_top" xlink:title=" ">
<polygon fill="none" stroke="black" points="260.5,-366 260.5,-385 396.5,-385 396.5,-366 260.5,-366"/>
<text text-anchor="middle" x="328.5" y="-373" font-family="Helvetica,sans-Serif" font-size="10.00">LLVMFuzzerTestOneInput</text>
</a>
</g>
</g>
<!-- Node1&#45;&gt;Node8 -->
<g id="edge9" class="edge">
<title>Node1&#45;&gt;Node8</title>
<path fill="none" stroke="midnightblue" d="M715.81,-327.01C704.28,-329.78 692.33,-332.42 681,-334.5 582.81,-352.54 467.64,-364.2 396.62,-370.31"/>
<polygon fill="midnightblue" stroke="midnightblue" points="716.94,-330.34 725.82,-324.55 715.27,-323.54 716.94,-330.34"/>
</g>
<!-- Node9 -->
<g id="node9" class="node">
<title>Node9</title>
<g id="a_node9"><a xlink:href="../../d5/d8a/classrawspeed_1_1_uncompressed_decompressor.html#a81e6a7c79cbf44c782abd2b6e0d39cfb" target="_top" xlink:title=" ">
<polygon fill="none" stroke="black" points="468,-294.5 468,-324.5 681,-324.5 681,-294.5 468,-294.5"/>
<text text-anchor="start" x="476" y="-312.5" font-family="Helvetica,sans-Serif" font-size="10.00">rawspeed::UncompressedDecompressor</text>
<text text-anchor="middle" x="574.5" y="-301.5" font-family="Helvetica,sans-Serif" font-size="10.00">::decode12BitRaw</text>
</a>
</g>
</g>
<!-- Node1&#45;&gt;Node9 -->
<g id="edge8" class="edge">
<title>Node1&#45;&gt;Node9</title>
<path fill="none" stroke="midnightblue" d="M706.93,-309.5C698.56,-309.5 689.91,-309.5 681.23,-309.5"/>
<polygon fill="midnightblue" stroke="midnightblue" points="706.97,-313 716.97,-309.5 706.97,-306 706.97,-313"/>
</g>
<!-- Node10 -->
<g id="node10" class="node">
<title>Node10</title>
<g id="a_node10"><a xlink:href="../../dc/d93/classrawspeed_1_1_panasonic_decompressor_v6.html#a7764fc783e5cc66624df26931451dcb3" target="_top" xlink:title=" ">
<polygon fill="none" stroke="black" points="480,-245.5 480,-275.5 669,-275.5 669,-245.5 480,-245.5"/>
<text text-anchor="start" x="488" y="-263.5" font-family="Helvetica,sans-Serif" font-size="10.00">rawspeed::PanasonicDecompressor</text>
<text text-anchor="middle" x="574.5" y="-252.5" font-family="Helvetica,sans-Serif" font-size="10.00">V6::PanasonicDecompressorV6</text>
</a>
</g>
</g>
<!-- Node1&#45;&gt;Node10 -->
<g id="edge11" class="edge">
<title>Node1&#45;&gt;Node10</title>
<path fill="none" stroke="midnightblue" d="M708.31,-292.08C699.12,-289.85 689.84,-287.62 681,-285.5 667.45,-282.25 652.92,-278.79 639.11,-275.52"/>
<polygon fill="midnightblue" stroke="midnightblue" points="707.68,-295.52 718.22,-294.47 709.33,-288.72 707.68,-295.52"/>
</g>
<!-- Node12 -->
<g id="node12" class="node">
<title>Node12</title>
<g id="a_node12"><a xlink:href="../../d4/dd1/classrawspeed_1_1_panasonic_decompressor_v4_1_1_proxy_stream.html#aa25b9dc438aa00318780a46920bace52" target="_top" xlink:title=" ">
<polygon fill="none" stroke="black" points="480,-196.5 480,-226.5 669,-226.5 669,-196.5 480,-196.5"/>
<text text-anchor="start" x="488" y="-214.5" font-family="Helvetica,sans-Serif" font-size="10.00">rawspeed::PanasonicDecompressor</text>
<text text-anchor="middle" x="574.5" y="-203.5" font-family="Helvetica,sans-Serif" font-size="10.00">V4::ProxyStream::parseBlock</text>
</a>
</g>
</g>
<!-- Node1&#45;&gt;Node12 -->
<g id="edge13" class="edge">
<title>Node1&#45;&gt;Node12</title>
<path fill="none" stroke="midnightblue" d="M756.25,-287.66C737.22,-271.29 709.14,-249.54 681,-236.5 672.72,-232.66 663.79,-229.38 654.75,-226.58"/>
<polygon fill="midnightblue" stroke="midnightblue" points="754,-290.34 763.82,-294.3 758.61,-285.08 754,-290.34"/>
</g>
<!-- Node15 -->
<g id="node15" class="node">
<title>Node15</title>
<g id="a_node15"><a xlink:href="../../d3/dde/classrawspeed_1_1_panasonic_decompressor_v5_1_1_proxy_stream.html#aae0685033eabcea8b60ff9245171076e" target="_top" xlink:title=" ">
<polygon fill="none" stroke="black" points="480,-147.5 480,-177.5 669,-177.5 669,-147.5 480,-147.5"/>
<text text-anchor="start" x="488" y="-165.5" font-family="Helvetica,sans-Serif" font-size="10.00">rawspeed::PanasonicDecompressor</text>
<text text-anchor="middle" x="574.5" y="-154.5" font-family="Helvetica,sans-Serif" font-size="10.00">V5::ProxyStream::parseBlock</text>
</a>
</g>
</g>
<!-- Node1&#45;&gt;Node15 -->
<g id="edge17" class="edge">
<title>Node1&#45;&gt;Node15</title>
<path fill="none" stroke="midnightblue" d="M767.23,-285.7C750.97,-257.77 720.22,-212.14 681,-187.5 674.78,-183.6 668.01,-180.3 661,-177.52"/>
<polygon fill="midnightblue" stroke="midnightblue" points="764.2,-287.46 772.18,-294.44 770.29,-284.01 764.2,-287.46"/>
</g>
<!-- Node17 -->
<g id="node17" class="node">
<title>Node17</title>
<g id="a_node17"><a xlink:href="../../d4/d03/classrawspeed_1_1_abstract_l_jpeg_decompressor.html#a077189e766663c0bd306bdb2423f0c8f" target="_top" xlink:title=" ">
<polygon fill="none" stroke="black" points="471,-98.5 471,-128.5 678,-128.5 678,-98.5 471,-98.5"/>
<text text-anchor="start" x="479" y="-116.5" font-family="Helvetica,sans-Serif" font-size="10.00">rawspeed::AbstractLJpegDecompressor</text>
<text text-anchor="middle" x="574.5" y="-105.5" font-family="Helvetica,sans-Serif" font-size="10.00">::parseDHT</text>
</a>
</g>
</g>
<!-- Node1&#45;&gt;Node17 -->
<g id="edge19" class="edge">
<title>Node1&#45;&gt;Node17</title>
<path fill="none" stroke="midnightblue" d="M772.78,-284.54C760.46,-246.61 731.67,-174.92 681,-137.5 676.32,-134.04 671.22,-131.07 665.88,-128.51"/>
<polygon fill="midnightblue" stroke="midnightblue" points="769.5,-285.78 775.82,-294.29 776.18,-283.7 769.5,-285.78"/>
</g>
<!-- Node19 -->
<g id="node19" class="node">
<title>Node19</title>
<g id="a_node19"><a xlink:href="../../db/d6a/classrawspeed_1_1_tiff_i_f_d.html#a01e97487df4b0db0b73aaa667a7b3c26" target="_top" xlink:title=" ">
<polygon fill="none" stroke="black" points="521,-49.5 521,-79.5 628,-79.5 628,-49.5 521,-49.5"/>
<text text-anchor="start" x="529" y="-67.5" font-family="Helvetica,sans-Serif" font-size="10.00">rawspeed::TiffIFD::</text>
<text text-anchor="middle" x="574.5" y="-56.5" font-family="Helvetica,sans-Serif" font-size="10.00">parseMakerNote</text>
</a>
</g>
</g>
<!-- Node1&#45;&gt;Node19 -->
<g id="edge21" class="edge">
<title>Node1&#45;&gt;Node19</title>
<path fill="none" stroke="midnightblue" d="M776.19,-284.3C767.81,-238.03 743.31,-139.58 681,-88.5 666.18,-76.35 646.42,-70.08 628.01,-66.92"/>
<polygon fill="midnightblue" stroke="midnightblue" points="772.77,-285.1 777.9,-294.37 779.68,-283.93 772.77,-285.1"/>
</g>
<!-- Node20 -->
<g id="node20" class="node">
<title>Node20</title>
<g id="a_node20"><a xlink:href="../../d5/d8a/classrawspeed_1_1_uncompressed_decompressor.html#a61990882f21eff20a4768cf497a91d52" target="_top" xlink:title=" ">
<polygon fill="none" stroke="black" points="468,-0.5 468,-30.5 681,-30.5 681,-0.5 468,-0.5"/>
<text text-anchor="start" x="476" y="-18.5" font-family="Helvetica,sans-Serif" font-size="10.00">rawspeed::UncompressedDecompressor</text>
<text text-anchor="middle" x="574.5" y="-7.5" font-family="Helvetica,sans-Serif" font-size="10.00">::sanityCheck</text>
</a>
</g>
</g>
<!-- Node1&#45;&gt;Node20 -->
<g id="edge22" class="edge">
<title>Node1&#45;&gt;Node20</title>
<path fill="none" stroke="midnightblue" d="M778.48,-284.15C773.83,-230.44 755.17,-104.75 681,-39.5 677.19,-36.15 673.01,-33.24 668.59,-30.71"/>
<polygon fill="midnightblue" stroke="midnightblue" points="774.99,-284.48 779.25,-294.18 781.97,-283.94 774.99,-284.48"/>
</g>
<!-- Node4 -->
<g id="node4" class="node">
<title>Node4</title>
<g id="a_node4"><a xlink:href="../../d8/d43/classrawspeed_1_1_panasonic_decompressor_v4.html#a32c1a74b56307e0cca5131e98e9c335d" target="_top" xlink:title=" ">
<polygon fill="none" stroke="black" points="234,-519.5 234,-549.5 423,-549.5 423,-519.5 234,-519.5"/>
<text text-anchor="start" x="242" y="-537.5" font-family="Helvetica,sans-Serif" font-size="10.00">rawspeed::PanasonicDecompressor</text>
<text text-anchor="middle" x="328.5" y="-526.5" font-family="Helvetica,sans-Serif" font-size="10.00">V4::PanasonicDecompressorV4</text>
</a>
</g>
</g>
<!-- Node3&#45;&gt;Node4 -->
<g id="edge3" class="edge">
<title>Node3&#45;&gt;Node4</title>
<path fill="none" stroke="midnightblue" d="M469.78,-534.5C454.35,-534.5 438.51,-534.5 423.29,-534.5"/>
<polygon fill="midnightblue" stroke="midnightblue" points="469.86,-538 479.86,-534.5 469.86,-531 469.86,-538"/>
</g>
<!-- Node5&#45;&gt;Node6 -->
<g id="edge5" class="edge">
<title>Node5&#45;&gt;Node6</title>
<path fill="none" stroke="midnightblue" d="M469.78,-476.15C454.35,-474.76 438.51,-473.33 423.29,-471.96"/>
<polygon fill="midnightblue" stroke="midnightblue" points="469.59,-479.64 479.86,-477.06 470.22,-472.67 469.59,-479.64"/>
</g>
<!-- Node7&#45;&gt;Node8 -->
<g id="edge7" class="edge">
<title>Node7&#45;&gt;Node8</title>
<path fill="none" stroke="midnightblue" d="M484.81,-389.5C455.78,-386.89 424.02,-384.02 396.83,-381.57"/>
<polygon fill="midnightblue" stroke="midnightblue" points="484.68,-393.01 494.95,-390.42 485.31,-386.03 484.68,-393.01"/>
</g>
<!-- Node11 -->
<g id="node11" class="node">
<title>Node11</title>
<g id="a_node11"><a xlink:href="../../d1/df7/fuzz_2librawspeed_2decompressors_2_panasonic_decompressor_v6_8cpp.html#a1c473c9665269a78ef9001573a6995df" target="_top" xlink:title=" ">
<polygon fill="none" stroke="black" points="260.5,-264 260.5,-283 396.5,-283 396.5,-264 260.5,-264"/>
<text text-anchor="middle" x="328.5" y="-271" font-family="Helvetica,sans-Serif" font-size="10.00">LLVMFuzzerTestOneInput</text>
</a>
</g>
</g>
<!-- Node10&#45;&gt;Node11 -->
<g id="edge12" class="edge">
<title>Node10&#45;&gt;Node11</title>
<path fill="none" stroke="midnightblue" d="M469.72,-266.03C445.03,-267.34 419.32,-268.71 396.76,-269.92"/>
<polygon fill="midnightblue" stroke="midnightblue" points="470.06,-269.52 479.86,-265.49 469.69,-262.53 470.06,-269.52"/>
</g>
<!-- Node13 -->
<g id="node13" class="node">
<title>Node13</title>
<g id="a_node13"><a xlink:href="../../d4/dd1/classrawspeed_1_1_panasonic_decompressor_v4_1_1_proxy_stream.html#af369adcf4ddf2a5d0782eba26ba51202" target="_top" xlink:title=" ">
<polygon fill="none" stroke="black" points="234,-196.5 234,-226.5 423,-226.5 423,-196.5 234,-196.5"/>
<text text-anchor="start" x="242" y="-214.5" font-family="Helvetica,sans-Serif" font-size="10.00">rawspeed::PanasonicDecompressor</text>
<text text-anchor="middle" x="328.5" y="-203.5" font-family="Helvetica,sans-Serif" font-size="10.00">V4::ProxyStream::ProxyStream</text>
</a>
</g>
</g>
<!-- Node12&#45;&gt;Node13 -->
<g id="edge14" class="edge">
<title>Node12&#45;&gt;Node13</title>
<path fill="none" stroke="midnightblue" d="M469.78,-211.5C454.35,-211.5 438.51,-211.5 423.29,-211.5"/>
<polygon fill="midnightblue" stroke="midnightblue" points="469.86,-215 479.86,-211.5 469.86,-208 469.86,-215"/>
</g>
<!-- Node13&#45;&gt;Node13 -->
<g id="edge16" class="edge">
<title>Node13&#45;&gt;Node13</title>
<path fill="none" stroke="midnightblue" d="M370.46,-236.59C365.62,-241.51 351.64,-245 328.5,-245 291.48,-245 277.89,-236.06 287.72,-226.66"/>
<polygon fill="midnightblue" stroke="midnightblue" points="373.93,-236.18 369.28,-226.66 366.98,-237 373.93,-236.18"/>
</g>
<!-- Node14 -->
<g id="node14" class="node">
<title>Node14</title>
<g id="a_node14"><a xlink:href="../../d8/d43/classrawspeed_1_1_panasonic_decompressor_v4.html#ab078cab4dbdd87dcf7168bd21d1ef31e" target="_top" xlink:title=" ">
<polygon fill="none" stroke="black" points="0,-196.5 0,-226.5 189,-226.5 189,-196.5 0,-196.5"/>
<text text-anchor="start" x="8" y="-214.5" font-family="Helvetica,sans-Serif" font-size="10.00">rawspeed::PanasonicDecompressor</text>
<text text-anchor="middle" x="94.5" y="-203.5" font-family="Helvetica,sans-Serif" font-size="10.00">V4::processBlock</text>
</a>
</g>
</g>
<!-- Node13&#45;&gt;Node14 -->
<g id="edge15" class="edge">
<title>Node13&#45;&gt;Node14</title>
<path fill="none" stroke="midnightblue" d="M223.74,-211.5C212.22,-211.5 200.55,-211.5 189.17,-211.5"/>
<polygon fill="midnightblue" stroke="midnightblue" points="223.81,-215 233.81,-211.5 223.81,-208 223.81,-215"/>
</g>
<!-- Node16 -->
<g id="node16" class="node">
<title>Node16</title>
<g id="a_node16"><a xlink:href="../../d3/dde/classrawspeed_1_1_panasonic_decompressor_v5_1_1_proxy_stream.html#a3a76fe6949260c72e02c7ef0ad50bcda" target="_top" xlink:title=" ">
<polygon fill="none" stroke="black" points="234,-147.5 234,-177.5 423,-177.5 423,-147.5 234,-147.5"/>
<text text-anchor="start" x="242" y="-165.5" font-family="Helvetica,sans-Serif" font-size="10.00">rawspeed::PanasonicDecompressor</text>
<text text-anchor="middle" x="328.5" y="-154.5" font-family="Helvetica,sans-Serif" font-size="10.00">V5::ProxyStream::getStream</text>
</a>
</g>
</g>
<!-- Node15&#45;&gt;Node16 -->
<g id="edge18" class="edge">
<title>Node15&#45;&gt;Node16</title>
<path fill="none" stroke="midnightblue" d="M469.78,-162.5C454.35,-162.5 438.51,-162.5 423.29,-162.5"/>
<polygon fill="midnightblue" stroke="midnightblue" points="469.86,-166 479.86,-162.5 469.86,-159 469.86,-166"/>
</g>
<!-- Node18 -->
<g id="node18" class="node">
<title>Node18</title>
<g id="a_node18"><a xlink:href="../../d4/d03/classrawspeed_1_1_abstract_l_jpeg_decompressor.html#a761a4fac2d0114cbd56eca1787b8e409" target="_top" xlink:title=" ">
<polygon fill="none" stroke="black" points="225,-98.5 225,-128.5 432,-128.5 432,-98.5 225,-98.5"/>
<text text-anchor="start" x="233" y="-116.5" font-family="Helvetica,sans-Serif" font-size="10.00">rawspeed::AbstractLJpegDecompressor</text>
<text text-anchor="middle" x="328.5" y="-105.5" font-family="Helvetica,sans-Serif" font-size="10.00">::decode</text>
</a>
</g>
</g>
<!-- Node17&#45;&gt;Node18 -->
<g id="edge20" class="edge">
<title>Node17&#45;&gt;Node18</title>
<path fill="none" stroke="midnightblue" d="M460.51,-113.5C451.05,-113.5 441.52,-113.5 432.15,-113.5"/>
<polygon fill="midnightblue" stroke="midnightblue" points="460.73,-117 470.73,-113.5 460.73,-110 460.73,-117"/>
</g>
</g>
</svg>
