<?xml version="1.0" encoding="UTF-8" standalone="no"?>
<!DOCTYPE svg PUBLIC "-//W3C//DTD SVG 1.1//EN"
 "http://www.w3.org/Graphics/SVG/1.1/DTD/svg11.dtd">
<!-- Generated by graphviz version 2.43.0 (0)
 -->
<!-- Title: rawspeed::ByteStream::ByteStream Pages: 1 -->
<svg width="1119pt" height="499pt"
 viewBox="0.00 0.00 1119.00 499.00" xmlns="http://www.w3.org/2000/svg" xmlns:xlink="http://www.w3.org/1999/xlink">
<g id="graph0" class="graph" transform="scale(1 1) rotate(0) translate(4 495)">
<title>rawspeed::ByteStream::ByteStream</title>
<!-- Node1 -->
<g id="node1" class="node">
<title>Node1</title>
<g id="a_node1"><a xlink:title=" ">
<polygon fill="#bfbfbf" stroke="black" points="983,-104.5 983,-134.5 1111,-134.5 1111,-104.5 983,-104.5"/>
<text text-anchor="start" x="991" y="-122.5" font-family="Helvetica,sans-Serif" font-size="10.00">rawspeed::ByteStream</text>
<text text-anchor="middle" x="1047" y="-111.5" font-family="Helvetica,sans-Serif" font-size="10.00">::ByteStream</text>
</a>
</g>
</g>
<!-- Node2 -->
<g id="node2" class="node">
<title>Node2</title>
<g id="a_node2"><a xlink:href="../../db/df9/_bit_stream_benchmark_8cpp.html#a19a1c3824a162c2df7b2706fc78c631a" target="_top" xlink:title=" ">
<polygon fill="none" stroke="black" points="832.5,-214 832.5,-233 918.5,-233 918.5,-214 832.5,-214"/>
<text text-anchor="middle" x="875.5" y="-221" font-family="Helvetica,sans-Serif" font-size="10.00">BM_BitStream</text>
</a>
</g>
</g>
<!-- Node1&#45;&gt;Node2 -->
<g id="edge1" class="edge">
<title>Node1&#45;&gt;Node2</title>
<path fill="none" stroke="midnightblue" d="M1025.35,-142.2C1006.65,-161.44 977.45,-188.4 947,-204.5 938.26,-209.12 928.3,-212.69 918.68,-215.42"/>
<polygon fill="midnightblue" stroke="midnightblue" points="1028.09,-144.39 1032.45,-134.73 1023.02,-139.57 1028.09,-144.39"/>
</g>
<!-- Node3 -->
<g id="node3" class="node">
<title>Node3</title>
<g id="a_node3"><a xlink:href="../../d2/d95/_deflate_decompressor_benchmark_8cpp.html#a71f612f01f8d9aa3cdce1cff7ba82041" target="_top" xlink:title=" ">
<polygon fill="none" stroke="black" points="804,-176 804,-195 947,-195 947,-176 804,-176"/>
<text text-anchor="middle" x="875.5" y="-183" font-family="Helvetica,sans-Serif" font-size="10.00">BM_DeflateDecompressor</text>
</a>
</g>
</g>
<!-- Node1&#45;&gt;Node3 -->
<g id="edge2" class="edge">
<title>Node1&#45;&gt;Node3</title>
<path fill="none" stroke="midnightblue" d="M1008.45,-139.29C990.23,-148.38 967.83,-158.82 947,-166.5 937.37,-170.05 926.77,-173.26 916.79,-175.98"/>
<polygon fill="midnightblue" stroke="midnightblue" points="1010.22,-142.32 1017.57,-134.68 1007.06,-136.07 1010.22,-142.32"/>
</g>
<!-- Node4 -->
<g id="node4" class="node">
<title>Node4</title>
<g id="a_node4"><a xlink:href="../../dd/da0/classrawspeed_1_1_byte_stream.html#a5eb5f775dd7efaa22b490007fe835a32" target="_top" xlink:title=" ">
<polygon fill="none" stroke="black" points="811.5,-126.5 811.5,-156.5 939.5,-156.5 939.5,-126.5 811.5,-126.5"/>
<text text-anchor="start" x="819.5" y="-144.5" font-family="Helvetica,sans-Serif" font-size="10.00">rawspeed::ByteStream</text>
<text text-anchor="middle" x="875.5" y="-133.5" font-family="Helvetica,sans-Serif" font-size="10.00">::getSubStream</text>
</a>
</g>
</g>
<!-- Node1&#45;&gt;Node4 -->
<g id="edge3" class="edge">
<title>Node1&#45;&gt;Node4</title>
<path fill="none" stroke="midnightblue" d="M972.84,-129C961.79,-130.43 950.48,-131.9 939.67,-133.3"/>
<polygon fill="midnightblue" stroke="midnightblue" points="973.42,-132.45 982.88,-127.69 972.52,-125.51 973.42,-132.45"/>
</g>
<!-- Node23 -->
<g id="node23" class="node">
<title>Node23</title>
<g id="a_node23"><a xlink:href="../../dc/dfc/fuzz_2librawspeed_2decompressors_2_cr2_decompressor_8cpp.html#a1c473c9665269a78ef9001573a6995df" target="_top" xlink:title=" ">
<polygon fill="none" stroke="black" points="807.5,-88 807.5,-107 943.5,-107 943.5,-88 807.5,-88"/>
<text text-anchor="middle" x="875.5" y="-95" font-family="Helvetica,sans-Serif" font-size="10.00">LLVMFuzzerTestOneInput</text>
</a>
</g>
</g>
<!-- Node1&#45;&gt;Node23 -->
<g id="edge24" class="edge">
<title>Node1&#45;&gt;Node23</title>
<path fill="none" stroke="midnightblue" d="M972.87,-110.01C963.16,-108.75 953.24,-107.46 943.64,-106.21"/>
<polygon fill="midnightblue" stroke="midnightblue" points="972.52,-113.49 982.88,-111.31 973.42,-106.55 972.52,-113.49"/>
</g>
<!-- Node24 -->
<g id="node24" class="node">
<title>Node24</title>
<g id="a_node24"><a xlink:href="../../dd/d38/namespacerawspeed__test.html#a4d7f167d6f0c499c3cb0457212f96d31" target="_top" xlink:title=" ">
<polygon fill="none" stroke="black" points="816.5,-50 816.5,-69 934.5,-69 934.5,-50 816.5,-50"/>
<text text-anchor="middle" x="875.5" y="-57" font-family="Helvetica,sans-Serif" font-size="10.00">rawspeed_test::TEST</text>
</a>
</g>
</g>
<!-- Node1&#45;&gt;Node24 -->
<g id="edge25" class="edge">
<title>Node1&#45;&gt;Node24</title>
<path fill="none" stroke="midnightblue" d="M1003.24,-100.37C985.97,-93.02 965.72,-84.87 947,-78.5 936.92,-75.07 925.86,-71.85 915.56,-69.06"/>
<polygon fill="midnightblue" stroke="midnightblue" points="1001.94,-103.62 1012.51,-104.36 1004.71,-97.19 1001.94,-103.62"/>
</g>
<!-- Node25 -->
<g id="node25" class="node">
<title>Node25</title>
<g id="a_node25"><a xlink:href="../../db/d6a/classrawspeed_1_1_tiff_i_f_d.html#ab0340c6df85d42ac0265e025c4092aa0" target="_top" xlink:title=" ">
<polygon fill="none" stroke="black" points="822,-0.5 822,-30.5 929,-30.5 929,-0.5 822,-0.5"/>
<text text-anchor="start" x="830" y="-18.5" font-family="Helvetica,sans-Serif" font-size="10.00">rawspeed::TiffIFD::</text>
<text text-anchor="middle" x="875.5" y="-7.5" font-family="Helvetica,sans-Serif" font-size="10.00">TiffIFD</text>
</a>
</g>
</g>
<!-- Node1&#45;&gt;Node25 -->
<g id="edge26" class="edge">
<title>Node1&#45;&gt;Node25</title>
<path fill="none" stroke="midnightblue" d="M1022.81,-97.27C1003.7,-79.92 975.26,-56.2 947,-40.5 940.3,-36.78 932.95,-33.44 925.59,-30.52"/>
<polygon fill="midnightblue" stroke="midnightblue" points="1020.67,-100.06 1030.4,-104.27 1025.42,-94.92 1020.67,-100.06"/>
</g>
<!-- Node5 -->
<g id="node5" class="node">
<title>Node5</title>
<g id="a_node5"><a xlink:href="../../db/d6a/classrawspeed_1_1_tiff_i_f_d.html#a01e97487df4b0db0b73aaa667a7b3c26" target="_top" xlink:title=" ">
<polygon fill="none" stroke="black" points="650.5,-175.5 650.5,-205.5 757.5,-205.5 757.5,-175.5 650.5,-175.5"/>
<text text-anchor="start" x="658.5" y="-193.5" font-family="Helvetica,sans-Serif" font-size="10.00">rawspeed::TiffIFD::</text>
<text text-anchor="middle" x="704" y="-182.5" font-family="Helvetica,sans-Serif" font-size="10.00">parseMakerNote</text>
</a>
</g>
</g>
<!-- Node4&#45;&gt;Node5 -->
<g id="edge4" class="edge">
<title>Node4&#45;&gt;Node5</title>
<path fill="none" stroke="midnightblue" d="M812.6,-159.39C794.37,-164.66 774.61,-170.38 757.07,-175.45"/>
<polygon fill="midnightblue" stroke="midnightblue" points="813.63,-162.74 822.26,-156.6 811.68,-156.02 813.63,-162.74"/>
</g>
<!-- Node6 -->
<g id="node6" class="node">
<title>Node6</title>
<g id="a_node6"><a xlink:href="../../dd/da0/classrawspeed_1_1_byte_stream.html#a81cc27671b93889f9c8adb62ece8340e" target="_top" xlink:title=" ">
<polygon fill="none" stroke="black" points="640,-126.5 640,-156.5 768,-156.5 768,-126.5 640,-126.5"/>
<text text-anchor="start" x="648" y="-144.5" font-family="Helvetica,sans-Serif" font-size="10.00">rawspeed::ByteStream</text>
<text text-anchor="middle" x="704" y="-133.5" font-family="Helvetica,sans-Serif" font-size="10.00">::peekStream</text>
</a>
</g>
</g>
<!-- Node4&#45;&gt;Node6 -->
<g id="edge5" class="edge">
<title>Node4&#45;&gt;Node6</title>
<path fill="none" stroke="midnightblue" d="M801.34,-141.5C790.29,-141.5 778.98,-141.5 768.17,-141.5"/>
<polygon fill="midnightblue" stroke="midnightblue" points="801.38,-145 811.38,-141.5 801.38,-138 801.38,-145"/>
</g>
<!-- Node22 -->
<g id="node22" class="node">
<title>Node22</title>
<g id="a_node22"><a xlink:href="../../df/dca/classrawspeed_1_1_tiff_entry.html#a7a9c4cb037556cd206b5a1e63f2ddce0" target="_top" xlink:title=" ">
<polygon fill="none" stroke="black" points="648.5,-77.5 648.5,-107.5 759.5,-107.5 759.5,-77.5 648.5,-77.5"/>
<text text-anchor="start" x="656.5" y="-95.5" font-family="Helvetica,sans-Serif" font-size="10.00">rawspeed::TiffEntry</text>
<text text-anchor="middle" x="704" y="-84.5" font-family="Helvetica,sans-Serif" font-size="10.00">::TiffEntry</text>
</a>
</g>
</g>
<!-- Node4&#45;&gt;Node22 -->
<g id="edge23" class="edge">
<title>Node4&#45;&gt;Node22</title>
<path fill="none" stroke="midnightblue" d="M812.6,-123.61C794.37,-118.34 774.61,-112.62 757.07,-107.55"/>
<polygon fill="midnightblue" stroke="midnightblue" points="811.68,-126.98 822.26,-126.4 813.63,-120.26 811.68,-126.98"/>
</g>
<!-- Node7 -->
<g id="node7" class="node">
<title>Node7</title>
<g id="a_node7"><a xlink:href="../../dd/da0/classrawspeed_1_1_byte_stream.html#a7a5f5eaad404d367efb8a64fa82d20ae" target="_top" xlink:title=" ">
<polygon fill="none" stroke="black" points="445.5,-296.5 445.5,-326.5 573.5,-326.5 573.5,-296.5 445.5,-296.5"/>
<text text-anchor="start" x="453.5" y="-314.5" font-family="Helvetica,sans-Serif" font-size="10.00">rawspeed::ByteStream</text>
<text text-anchor="middle" x="509.5" y="-303.5" font-family="Helvetica,sans-Serif" font-size="10.00">::getStream</text>
</a>
</g>
</g>
<!-- Node6&#45;&gt;Node7 -->
<g id="edge6" class="edge">
<title>Node6&#45;&gt;Node7</title>
<path fill="none" stroke="midnightblue" d="M648.52,-161.18C645.56,-162.84 642.7,-164.61 640,-166.5 586.6,-203.81 540.11,-267.28 520.47,-296.26"/>
<polygon fill="midnightblue" stroke="midnightblue" points="650.31,-164.2 657.62,-156.52 647.12,-157.96 650.31,-164.2"/>
</g>
<!-- Node15 -->
<g id="node15" class="node">
<title>Node15</title>
<g id="a_node15"><a xlink:href="../../dd/da0/classrawspeed_1_1_byte_stream.html#aa8ca115a9b9135672a594da273e2fd52" target="_top" xlink:title=" ">
<polygon fill="none" stroke="black" points="445.5,-126.5 445.5,-156.5 573.5,-156.5 573.5,-126.5 445.5,-126.5"/>
<text text-anchor="start" x="453.5" y="-144.5" font-family="Helvetica,sans-Serif" font-size="10.00">rawspeed::ByteStream</text>
<text text-anchor="middle" x="509.5" y="-133.5" font-family="Helvetica,sans-Serif" font-size="10.00">::peekStream</text>
</a>
</g>
</g>
<!-- Node6&#45;&gt;Node15 -->
<g id="edge16" class="edge">
<title>Node6&#45;&gt;Node15</title>
<path fill="none" stroke="midnightblue" d="M629.84,-141.5C611.34,-141.5 591.63,-141.5 573.67,-141.5"/>
<polygon fill="midnightblue" stroke="midnightblue" points="629.97,-145 639.97,-141.5 629.97,-138 629.97,-145"/>
</g>
<!-- Node20 -->
<g id="node20" class="node">
<title>Node20</title>
<g id="a_node20"><a xlink:href="../../d8/d01/classrawspeed_1_1_sony_arw2_decompressor.html#aa6e5e2bca7bcdaad68d59d21903ec00f" target="_top" xlink:title=" ">
<polygon fill="none" stroke="black" points="415,-55.5 415,-85.5 604,-85.5 604,-55.5 415,-55.5"/>
<text text-anchor="start" x="423" y="-73.5" font-family="Helvetica,sans-Serif" font-size="10.00">rawspeed::SonyArw2Decompressor</text>
<text text-anchor="middle" x="509.5" y="-62.5" font-family="Helvetica,sans-Serif" font-size="10.00">::SonyArw2Decompressor</text>
</a>
</g>
</g>
<!-- Node6&#45;&gt;Node20 -->
<g id="edge21" class="edge">
<title>Node6&#45;&gt;Node20</title>
<path fill="none" stroke="midnightblue" d="M652.67,-122.94C621.07,-111.28 580.86,-96.45 551.27,-85.54"/>
<polygon fill="midnightblue" stroke="midnightblue" points="651.58,-126.27 662.18,-126.44 654,-119.7 651.58,-126.27"/>
</g>
<!-- Node8 -->
<g id="node8" class="node">
<title>Node8</title>
<g id="a_node8"><a xlink:href="../../d7/d0b/classrawspeed_1_1_ciff_i_f_d.html#a39aeb5f86e2b8bb503ddff8cee8971f6" target="_top" xlink:title=" ">
<polygon fill="none" stroke="black" points="14,-364.5 14,-394.5 122,-394.5 122,-364.5 14,-364.5"/>
<text text-anchor="start" x="22" y="-382.5" font-family="Helvetica,sans-Serif" font-size="10.00">rawspeed::CiffIFD::</text>
<text text-anchor="middle" x="68" y="-371.5" font-family="Helvetica,sans-Serif" font-size="10.00">CiffIFD</text>
</a>
</g>
</g>
<!-- Node7&#45;&gt;Node8 -->
<g id="edge7" class="edge">
<title>Node7&#45;&gt;Node8</title>
<path fill="none" stroke="midnightblue" d="M434.94,-318.05C366.5,-324.76 261.85,-336.62 172,-353.5 155.69,-356.56 138.11,-360.69 122.18,-364.75"/>
<polygon fill="midnightblue" stroke="midnightblue" points="435.58,-321.5 445.19,-317.06 434.9,-314.54 435.58,-321.5"/>
</g>
<!-- Node9 -->
<g id="node9" class="node">
<title>Node9</title>
<g id="a_node9"><a xlink:href="../../de/d70/classrawspeed_1_1_crw_decompressor.html#a16b8f8f8ff89abbb8a29c335e82625a8" target="_top" xlink:title=" ">
<polygon fill="none" stroke="black" points="196,-274.5 196,-304.5 355,-304.5 355,-274.5 196,-274.5"/>
<text text-anchor="start" x="204" y="-292.5" font-family="Helvetica,sans-Serif" font-size="10.00">rawspeed::CrwDecompressor</text>
<text text-anchor="middle" x="275.5" y="-281.5" font-family="Helvetica,sans-Serif" font-size="10.00">::CrwDecompressor</text>
</a>
</g>
</g>
<!-- Node7&#45;&gt;Node9 -->
<g id="edge8" class="edge">
<title>Node7&#45;&gt;Node9</title>
<path fill="none" stroke="midnightblue" d="M435.45,-304.57C409.97,-302.16 381.27,-299.43 355.34,-296.98"/>
<polygon fill="midnightblue" stroke="midnightblue" points="435.13,-308.06 445.41,-305.52 435.79,-301.09 435.13,-308.06"/>
</g>
<!-- Node10 -->
<g id="node10" class="node">
<title>Node10</title>
<g id="a_node10"><a xlink:href="../../de/da7/fuzz_2librawspeed_2decompressors_2_crw_decompressor_8cpp.html#a1c473c9665269a78ef9001573a6995df" target="_top" xlink:title=" ">
<polygon fill="none" stroke="black" points="0,-258 0,-277 136,-277 136,-258 0,-258"/>
<text text-anchor="middle" x="68" y="-265" font-family="Helvetica,sans-Serif" font-size="10.00">LLVMFuzzerTestOneInput</text>
</a>
</g>
</g>
<!-- Node7&#45;&gt;Node10 -->
<g id="edge14" class="edge">
<title>Node7&#45;&gt;Node10</title>
<path fill="none" stroke="midnightblue" d="M466.58,-292.5C441.7,-282.27 409.2,-270.7 379,-265.5 296.26,-251.24 199.24,-255.1 136.08,-260.3"/>
<polygon fill="midnightblue" stroke="midnightblue" points="465.49,-295.84 476.07,-296.48 468.2,-289.38 465.49,-295.84"/>
</g>
<!-- Node11 -->
<g id="node11" class="node">
<title>Node11</title>
<g id="a_node11"><a xlink:href="../../d4/d03/classrawspeed_1_1_abstract_l_jpeg_decompressor.html#a761a4fac2d0114cbd56eca1787b8e409" target="_top" xlink:title=" ">
<polygon fill="none" stroke="black" points="172,-186.5 172,-216.5 379,-216.5 379,-186.5 172,-186.5"/>
<text text-anchor="start" x="180" y="-204.5" font-family="Helvetica,sans-Serif" font-size="10.00">rawspeed::AbstractLJpegDecompressor</text>
<text text-anchor="middle" x="275.5" y="-193.5" font-family="Helvetica,sans-Serif" font-size="10.00">::decode</text>
</a>
</g>
</g>
<!-- Node7&#45;&gt;Node11 -->
<g id="edge10" class="edge">
<title>Node7&#45;&gt;Node11</title>
<path fill="none" stroke="midnightblue" d="M479.5,-290.42C454.05,-272.71 415.49,-247.76 379,-231.5 366.04,-225.73 351.68,-220.73 337.9,-216.55"/>
<polygon fill="midnightblue" stroke="midnightblue" points="477.74,-293.46 487.93,-296.36 481.77,-287.74 477.74,-293.46"/>
</g>
<!-- Node12 -->
<g id="node12" class="node">
<title>Node12</title>
<g id="a_node12"><a xlink:href="../../de/df1/classrawspeed_1_1_dng_opcodes.html#a7682e3343a6fd66c00a1a75b2f2d9642" target="_top" xlink:title=" ">
<polygon fill="none" stroke="black" points="210,-460.5 210,-490.5 341,-490.5 341,-460.5 210,-460.5"/>
<text text-anchor="start" x="218" y="-478.5" font-family="Helvetica,sans-Serif" font-size="10.00">rawspeed::DngOpcodes</text>
<text text-anchor="middle" x="275.5" y="-467.5" font-family="Helvetica,sans-Serif" font-size="10.00">::DngOpcodes</text>
</a>
</g>
</g>
<!-- Node7&#45;&gt;Node12 -->
<g id="edge11" class="edge">
<title>Node7&#45;&gt;Node12</title>
<path fill="none" stroke="midnightblue" d="M493.09,-335.57C471.52,-367.22 429.26,-422.24 379,-451.5 367.47,-458.21 354.18,-463.05 341.07,-466.53"/>
<polygon fill="midnightblue" stroke="midnightblue" points="496.22,-337.18 498.87,-326.92 490.4,-333.29 496.22,-337.18"/>
</g>
<!-- Node13 -->
<g id="node13" class="node">
<title>Node13</title>
<g id="a_node13"><a xlink:href="../../dd/da0/classrawspeed_1_1_byte_stream.html#a262c81bd07608467d3aaa82ce2909519" target="_top" xlink:title=" ">
<polygon fill="none" stroke="black" points="211.5,-411.5 211.5,-441.5 339.5,-441.5 339.5,-411.5 211.5,-411.5"/>
<text text-anchor="start" x="219.5" y="-429.5" font-family="Helvetica,sans-Serif" font-size="10.00">rawspeed::ByteStream</text>
<text text-anchor="middle" x="275.5" y="-418.5" font-family="Helvetica,sans-Serif" font-size="10.00">::getStream</text>
</a>
</g>
</g>
<!-- Node7&#45;&gt;Node13 -->
<g id="edge12" class="edge">
<title>Node7&#45;&gt;Node13</title>
<path fill="none" stroke="midnightblue" d="M483.57,-333.44C458.73,-354.2 418.65,-384.73 379,-402.5 366.66,-408.03 352.89,-412.37 339.54,-415.74"/>
<polygon fill="midnightblue" stroke="midnightblue" points="486.03,-335.95 491.39,-326.81 481.5,-330.61 486.03,-335.95"/>
</g>
<!-- Node14 -->
<g id="node14" class="node">
<title>Node14</title>
<g id="a_node14"><a xlink:href="../../d7/d0b/classrawspeed_1_1_ciff_i_f_d.html#a11156e477a86d99467080c0255915e97" target="_top" xlink:title=" ">
<polygon fill="none" stroke="black" points="221.5,-362.5 221.5,-392.5 329.5,-392.5 329.5,-362.5 221.5,-362.5"/>
<text text-anchor="start" x="229.5" y="-380.5" font-family="Helvetica,sans-Serif" font-size="10.00">rawspeed::CiffIFD::</text>
<text text-anchor="middle" x="275.5" y="-369.5" font-family="Helvetica,sans-Serif" font-size="10.00">parseIFDEntry</text>
</a>
</g>
</g>
<!-- Node7&#45;&gt;Node14 -->
<g id="edge15" class="edge">
<title>Node7&#45;&gt;Node14</title>
<path fill="none" stroke="midnightblue" d="M445.58,-329.4C409.27,-339.73 364.12,-352.57 329.61,-362.39"/>
<polygon fill="midnightblue" stroke="midnightblue" points="446.9,-332.66 455.57,-326.56 444.99,-325.93 446.9,-332.66"/>
</g>
<!-- Node9&#45;&gt;Node10 -->
<g id="edge9" class="edge">
<title>Node9&#45;&gt;Node10</title>
<path fill="none" stroke="midnightblue" d="M185.67,-279.99C169.06,-278.21 151.96,-276.38 136.14,-274.69"/>
<polygon fill="midnightblue" stroke="midnightblue" points="185.61,-283.5 195.93,-281.09 186.36,-276.54 185.61,-283.5"/>
</g>
<!-- Node13&#45;&gt;Node8 -->
<g id="edge13" class="edge">
<title>Node13&#45;&gt;Node8</title>
<path fill="none" stroke="midnightblue" d="M201.57,-409.82C175.41,-403.84 146.42,-397.21 122.24,-391.68"/>
<polygon fill="midnightblue" stroke="midnightblue" points="200.92,-413.26 211.45,-412.08 202.48,-406.44 200.92,-413.26"/>
</g>
<!-- Node16 -->
<g id="node16" class="node">
<title>Node16</title>
<g id="a_node16"><a xlink:href="../../dc/d93/classrawspeed_1_1_panasonic_decompressor_v6.html#a7764fc783e5cc66624df26931451dcb3" target="_top" xlink:title=" ">
<polygon fill="none" stroke="black" points="181,-137.5 181,-167.5 370,-167.5 370,-137.5 181,-137.5"/>
<text text-anchor="start" x="189" y="-155.5" font-family="Helvetica,sans-Serif" font-size="10.00">rawspeed::PanasonicDecompressor</text>
<text text-anchor="middle" x="275.5" y="-144.5" font-family="Helvetica,sans-Serif" font-size="10.00">V6::PanasonicDecompressorV6</text>
</a>
</g>
</g>
<!-- Node15&#45;&gt;Node16 -->
<g id="edge17" class="edge">
<title>Node15&#45;&gt;Node16</title>
<path fill="none" stroke="midnightblue" d="M435.42,-144.97C414.69,-145.95 391.83,-147.03 370.06,-148.06"/>
<polygon fill="midnightblue" stroke="midnightblue" points="435.59,-148.46 445.41,-144.49 435.26,-141.47 435.59,-148.46"/>
</g>
<!-- Node18 -->
<g id="node18" class="node">
<title>Node18</title>
<g id="a_node18"><a xlink:href="../../d2/dd8/classrawspeed_1_1_samsung_v0_decompressor.html#ac1c4f0950920cd654038a762a9e1d347" target="_top" xlink:title=" ">
<polygon fill="none" stroke="black" points="176.5,-88.5 176.5,-118.5 374.5,-118.5 374.5,-88.5 176.5,-88.5"/>
<text text-anchor="start" x="184.5" y="-106.5" font-family="Helvetica,sans-Serif" font-size="10.00">rawspeed::SamsungV0Decompressor</text>
<text text-anchor="middle" x="275.5" y="-95.5" font-family="Helvetica,sans-Serif" font-size="10.00">::SamsungV0Decompressor</text>
</a>
</g>
</g>
<!-- Node15&#45;&gt;Node18 -->
<g id="edge19" class="edge">
<title>Node15&#45;&gt;Node18</title>
<path fill="none" stroke="midnightblue" d="M435.47,-129.54C414.17,-126.05 390.61,-122.19 368.31,-118.54"/>
<polygon fill="midnightblue" stroke="midnightblue" points="434.98,-133 445.41,-131.17 436.11,-126.1 434.98,-133"/>
</g>
<!-- Node17 -->
<g id="node17" class="node">
<title>Node17</title>
<g id="a_node17"><a xlink:href="../../d1/df7/fuzz_2librawspeed_2decompressors_2_panasonic_decompressor_v6_8cpp.html#a1c473c9665269a78ef9001573a6995df" target="_top" xlink:title=" ">
<polygon fill="none" stroke="black" points="0,-143 0,-162 136,-162 136,-143 0,-143"/>
<text text-anchor="middle" x="68" y="-150" font-family="Helvetica,sans-Serif" font-size="10.00">LLVMFuzzerTestOneInput</text>
</a>
</g>
</g>
<!-- Node16&#45;&gt;Node17 -->
<g id="edge18" class="edge">
<title>Node16&#45;&gt;Node17</title>
<path fill="none" stroke="midnightblue" d="M170.53,-152.5C158.86,-152.5 147.22,-152.5 136.2,-152.5"/>
<polygon fill="midnightblue" stroke="midnightblue" points="170.77,-156 180.77,-152.5 170.77,-149 170.77,-156"/>
</g>
<!-- Node19 -->
<g id="node19" class="node">
<title>Node19</title>
<g id="a_node19"><a xlink:href="../../dd/dcf/fuzz_2librawspeed_2decompressors_2_samsung_v0_decompressor_8cpp.html#a1c473c9665269a78ef9001573a6995df" target="_top" xlink:title=" ">
<polygon fill="none" stroke="black" points="0,-94 0,-113 136,-113 136,-94 0,-94"/>
<text text-anchor="middle" x="68" y="-101" font-family="Helvetica,sans-Serif" font-size="10.00">LLVMFuzzerTestOneInput</text>
</a>
</g>
</g>
<!-- Node18&#45;&gt;Node19 -->
<g id="edge20" class="edge">
<title>Node18&#45;&gt;Node19</title>
<path fill="none" stroke="midnightblue" d="M166.04,-103.5C155.83,-103.5 145.7,-103.5 136.04,-103.5"/>
<polygon fill="midnightblue" stroke="midnightblue" points="166.26,-107 176.26,-103.5 166.26,-100 166.26,-107"/>
</g>
<!-- Node21 -->
<g id="node21" class="node">
<title>Node21</title>
<g id="a_node21"><a xlink:href="../../db/dee/fuzz_2librawspeed_2decompressors_2_sony_arw2_decompressor_8cpp.html#a1c473c9665269a78ef9001573a6995df" target="_top" xlink:title=" ">
<polygon fill="none" stroke="black" points="207.5,-50 207.5,-69 343.5,-69 343.5,-50 207.5,-50"/>
<text text-anchor="middle" x="275.5" y="-57" font-family="Helvetica,sans-Serif" font-size="10.00">LLVMFuzzerTestOneInput</text>
</a>
</g>
</g>
<!-- Node20&#45;&gt;Node21 -->
<g id="edge22" class="edge">
<title>Node20&#45;&gt;Node21</title>
<path fill="none" stroke="midnightblue" d="M404.71,-65.58C384.04,-64.6 362.85,-63.59 343.8,-62.69"/>
<polygon fill="midnightblue" stroke="midnightblue" points="404.65,-69.08 414.81,-66.06 404.98,-62.09 404.65,-69.08"/>
</g>
</g>
</svg>
