<?xml version="1.0" encoding="UTF-8" standalone="no"?>
<!DOCTYPE svg PUBLIC "-//W3C//DTD SVG 1.1//EN"
 "http://www.w3.org/Graphics/SVG/1.1/DTD/svg11.dtd">
<!-- Generated by graphviz version 2.43.0 (0)
 -->
<!-- Title: rawspeed::ByteStream::peekStream Pages: 1 -->
<svg width="542pt" height="88pt"
 viewBox="0.00 0.00 542.00 88.00" xmlns="http://www.w3.org/2000/svg" xmlns:xlink="http://www.w3.org/1999/xlink">
<g id="graph0" class="graph" transform="scale(1 1) rotate(0) translate(4 84)">
<title>rawspeed::ByteStream::peekStream</title>
<!-- Node1 -->
<g id="node1" class="node">
<title>Node1</title>
<g id="a_node1"><a xlink:title=" ">
<polygon fill="#bfbfbf" stroke="black" points="406,-24.5 406,-54.5 534,-54.5 534,-24.5 406,-24.5"/>
<text text-anchor="start" x="414" y="-42.5" font-family="Helvetica,sans-Serif" font-size="10.00">rawspeed::ByteStream</text>
<text text-anchor="middle" x="470" y="-31.5" font-family="Helvetica,sans-Serif" font-size="10.00">::peekStream</text>
</a>
</g>
</g>
<!-- Node2 -->
<g id="node2" class="node">
<title>Node2</title>
<g id="a_node2"><a xlink:href="../../dc/d93/classrawspeed_1_1_panasonic_decompressor_v6.html#a7764fc783e5cc66624df26931451dcb3" target="_top" xlink:title=" ">
<polygon fill="none" stroke="black" points="176.5,-49.5 176.5,-79.5 365.5,-79.5 365.5,-49.5 176.5,-49.5"/>
<text text-anchor="start" x="184.5" y="-67.5" font-family="Helvetica,sans-Serif" font-size="10.00">rawspeed::PanasonicDecompressor</text>
<text text-anchor="middle" x="271" y="-56.5" font-family="Helvetica,sans-Serif" font-size="10.00">V6::PanasonicDecompressorV6</text>
</a>
</g>
</g>
<!-- Node1&#45;&gt;Node2 -->
<g id="edge1" class="edge">
<title>Node1&#45;&gt;Node2</title>
<path fill="none" stroke="midnightblue" d="M395.77,-48.79C385.94,-50.04 375.76,-51.33 365.64,-52.62"/>
<polygon fill="midnightblue" stroke="midnightblue" points="396.38,-52.24 405.86,-47.51 395.49,-45.3 396.38,-52.24"/>
</g>
<!-- Node4 -->
<g id="node4" class="node">
<title>Node4</title>
<g id="a_node4"><a xlink:href="../../d2/dd8/classrawspeed_1_1_samsung_v0_decompressor.html#ac1c4f0950920cd654038a762a9e1d347" target="_top" xlink:title=" ">
<polygon fill="none" stroke="black" points="172,-0.5 172,-30.5 370,-30.5 370,-0.5 172,-0.5"/>
<text text-anchor="start" x="180" y="-18.5" font-family="Helvetica,sans-Serif" font-size="10.00">rawspeed::SamsungV0Decompressor</text>
<text text-anchor="middle" x="271" y="-7.5" font-family="Helvetica,sans-Serif" font-size="10.00">::SamsungV0Decompressor</text>
</a>
</g>
</g>
<!-- Node1&#45;&gt;Node4 -->
<g id="edge3" class="edge">
<title>Node1&#45;&gt;Node4</title>
<path fill="none" stroke="midnightblue" d="M395.83,-30.59C387.5,-29.57 378.9,-28.52 370.31,-27.48"/>
<polygon fill="midnightblue" stroke="midnightblue" points="395.51,-34.07 405.86,-31.81 396.35,-27.12 395.51,-34.07"/>
</g>
<!-- Node3 -->
<g id="node3" class="node">
<title>Node3</title>
<g id="a_node3"><a xlink:href="../../d1/df7/fuzz_2librawspeed_2decompressors_2_panasonic_decompressor_v6_8cpp.html#a1c473c9665269a78ef9001573a6995df" target="_top" xlink:title=" ">
<polygon fill="none" stroke="black" points="0,-55 0,-74 136,-74 136,-55 0,-55"/>
<text text-anchor="middle" x="68" y="-62" font-family="Helvetica,sans-Serif" font-size="10.00">LLVMFuzzerTestOneInput</text>
</a>
</g>
</g>
<!-- Node2&#45;&gt;Node3 -->
<g id="edge2" class="edge">
<title>Node2&#45;&gt;Node3</title>
<path fill="none" stroke="midnightblue" d="M166.12,-64.5C155.97,-64.5 145.87,-64.5 136.23,-64.5"/>
<polygon fill="midnightblue" stroke="midnightblue" points="166.27,-68 176.27,-64.5 166.27,-61 166.27,-68"/>
</g>
<!-- Node5 -->
<g id="node5" class="node">
<title>Node5</title>
<g id="a_node5"><a xlink:href="../../dd/dcf/fuzz_2librawspeed_2decompressors_2_samsung_v0_decompressor_8cpp.html#a1c473c9665269a78ef9001573a6995df" target="_top" xlink:title=" ">
<polygon fill="none" stroke="black" points="0,-6 0,-25 136,-25 136,-6 0,-6"/>
<text text-anchor="middle" x="68" y="-13" font-family="Helvetica,sans-Serif" font-size="10.00">LLVMFuzzerTestOneInput</text>
</a>
</g>
</g>
<!-- Node4&#45;&gt;Node5 -->
<g id="edge4" class="edge">
<title>Node4&#45;&gt;Node5</title>
<path fill="none" stroke="midnightblue" d="M161.69,-15.5C153.04,-15.5 144.47,-15.5 136.24,-15.5"/>
<polygon fill="midnightblue" stroke="midnightblue" points="161.86,-19 171.86,-15.5 161.86,-12 161.86,-19"/>
</g>
</g>
</svg>
