<?xml version="1.0" encoding="UTF-8" standalone="no"?>
<!DOCTYPE svg PUBLIC "-//W3C//DTD SVG 1.1//EN"
 "http://www.w3.org/Graphics/SVG/1.1/DTD/svg11.dtd">
<!-- Generated by graphviz version 2.43.0 (0)
 -->
<!-- Title: rawspeed::ByteStream::getSubStream Pages: 1 -->
<svg width="940pt" height="450pt"
 viewBox="0.00 0.00 940.00 449.50" xmlns="http://www.w3.org/2000/svg" xmlns:xlink="http://www.w3.org/1999/xlink">
<g id="graph0" class="graph" transform="scale(1 1) rotate(0) translate(4 445.5)">
<title>rawspeed::ByteStream::getSubStream</title>
<!-- Node1 -->
<g id="node1" class="node">
<title>Node1</title>
<g id="a_node1"><a xlink:title=" ">
<polygon fill="#bfbfbf" stroke="black" points="804,-77 804,-107 932,-107 932,-77 804,-77"/>
<text text-anchor="start" x="812" y="-95" font-family="Helvetica,sans-Serif" font-size="10.00">rawspeed::ByteStream</text>
<text text-anchor="middle" x="868" y="-84" font-family="Helvetica,sans-Serif" font-size="10.00">::getSubStream</text>
</a>
</g>
</g>
<!-- Node2 -->
<g id="node2" class="node">
<title>Node2</title>
<g id="a_node2"><a xlink:href="../../db/d6a/classrawspeed_1_1_tiff_i_f_d.html#a01e97487df4b0db0b73aaa667a7b3c26" target="_top" xlink:title=" ">
<polygon fill="none" stroke="black" points="650.5,-126 650.5,-156 757.5,-156 757.5,-126 650.5,-126"/>
<text text-anchor="start" x="658.5" y="-144" font-family="Helvetica,sans-Serif" font-size="10.00">rawspeed::TiffIFD::</text>
<text text-anchor="middle" x="704" y="-133" font-family="Helvetica,sans-Serif" font-size="10.00">parseMakerNote</text>
</a>
</g>
</g>
<!-- Node1&#45;&gt;Node2 -->
<g id="edge1" class="edge">
<title>Node1&#45;&gt;Node2</title>
<path fill="none" stroke="midnightblue" d="M807.12,-110.11C789.89,-115.32 771.3,-120.95 754.76,-125.95"/>
<polygon fill="midnightblue" stroke="midnightblue" points="808.51,-113.35 817.07,-107.1 806.49,-106.65 808.51,-113.35"/>
</g>
<!-- Node3 -->
<g id="node3" class="node">
<title>Node3</title>
<g id="a_node3"><a xlink:href="../../dd/da0/classrawspeed_1_1_byte_stream.html#a81cc27671b93889f9c8adb62ece8340e" target="_top" xlink:title=" ">
<polygon fill="none" stroke="black" points="640,-77 640,-107 768,-107 768,-77 640,-77"/>
<text text-anchor="start" x="648" y="-95" font-family="Helvetica,sans-Serif" font-size="10.00">rawspeed::ByteStream</text>
<text text-anchor="middle" x="704" y="-84" font-family="Helvetica,sans-Serif" font-size="10.00">::peekStream</text>
</a>
</g>
</g>
<!-- Node1&#45;&gt;Node3 -->
<g id="edge2" class="edge">
<title>Node1&#45;&gt;Node3</title>
<path fill="none" stroke="midnightblue" d="M793.63,-92C785.14,-92 776.53,-92 768.19,-92"/>
<polygon fill="midnightblue" stroke="midnightblue" points="793.9,-95.5 803.9,-92 793.9,-88.5 793.9,-95.5"/>
</g>
<!-- Node19 -->
<g id="node19" class="node">
<title>Node19</title>
<g id="a_node19"><a xlink:href="../../df/dca/classrawspeed_1_1_tiff_entry.html#a7a9c4cb037556cd206b5a1e63f2ddce0" target="_top" xlink:title=" ">
<polygon fill="none" stroke="black" points="648.5,-28 648.5,-58 759.5,-58 759.5,-28 648.5,-28"/>
<text text-anchor="start" x="656.5" y="-46" font-family="Helvetica,sans-Serif" font-size="10.00">rawspeed::TiffEntry</text>
<text text-anchor="middle" x="704" y="-35" font-family="Helvetica,sans-Serif" font-size="10.00">::TiffEntry</text>
</a>
</g>
</g>
<!-- Node1&#45;&gt;Node19 -->
<g id="edge20" class="edge">
<title>Node1&#45;&gt;Node19</title>
<path fill="none" stroke="midnightblue" d="M807.12,-73.89C789.89,-68.68 771.3,-63.05 754.76,-58.05"/>
<polygon fill="midnightblue" stroke="midnightblue" points="806.49,-77.35 817.07,-76.9 808.51,-70.65 806.49,-77.35"/>
</g>
<!-- Node4 -->
<g id="node4" class="node">
<title>Node4</title>
<g id="a_node4"><a xlink:href="../../dd/da0/classrawspeed_1_1_byte_stream.html#a7a5f5eaad404d367efb8a64fa82d20ae" target="_top" xlink:title=" ">
<polygon fill="none" stroke="black" points="445.5,-247 445.5,-277 573.5,-277 573.5,-247 445.5,-247"/>
<text text-anchor="start" x="453.5" y="-265" font-family="Helvetica,sans-Serif" font-size="10.00">rawspeed::ByteStream</text>
<text text-anchor="middle" x="509.5" y="-254" font-family="Helvetica,sans-Serif" font-size="10.00">::getStream</text>
</a>
</g>
</g>
<!-- Node3&#45;&gt;Node4 -->
<g id="edge3" class="edge">
<title>Node3&#45;&gt;Node4</title>
<path fill="none" stroke="midnightblue" d="M648.52,-111.68C645.56,-113.34 642.7,-115.11 640,-117 586.6,-154.31 540.11,-217.78 520.47,-246.76"/>
<polygon fill="midnightblue" stroke="midnightblue" points="650.31,-114.7 657.62,-107.02 647.12,-108.46 650.31,-114.7"/>
</g>
<!-- Node12 -->
<g id="node12" class="node">
<title>Node12</title>
<g id="a_node12"><a xlink:href="../../dd/da0/classrawspeed_1_1_byte_stream.html#aa8ca115a9b9135672a594da273e2fd52" target="_top" xlink:title=" ">
<polygon fill="none" stroke="black" points="445.5,-77 445.5,-107 573.5,-107 573.5,-77 445.5,-77"/>
<text text-anchor="start" x="453.5" y="-95" font-family="Helvetica,sans-Serif" font-size="10.00">rawspeed::ByteStream</text>
<text text-anchor="middle" x="509.5" y="-84" font-family="Helvetica,sans-Serif" font-size="10.00">::peekStream</text>
</a>
</g>
</g>
<!-- Node3&#45;&gt;Node12 -->
<g id="edge13" class="edge">
<title>Node3&#45;&gt;Node12</title>
<path fill="none" stroke="midnightblue" d="M629.84,-92C611.34,-92 591.63,-92 573.67,-92"/>
<polygon fill="midnightblue" stroke="midnightblue" points="629.97,-95.5 639.97,-92 629.97,-88.5 629.97,-95.5"/>
</g>
<!-- Node17 -->
<g id="node17" class="node">
<title>Node17</title>
<g id="a_node17"><a xlink:href="../../d8/d01/classrawspeed_1_1_sony_arw2_decompressor.html#aa6e5e2bca7bcdaad68d59d21903ec00f" target="_top" xlink:title=" ">
<polygon fill="none" stroke="black" points="415,-6 415,-36 604,-36 604,-6 415,-6"/>
<text text-anchor="start" x="423" y="-24" font-family="Helvetica,sans-Serif" font-size="10.00">rawspeed::SonyArw2Decompressor</text>
<text text-anchor="middle" x="509.5" y="-13" font-family="Helvetica,sans-Serif" font-size="10.00">::SonyArw2Decompressor</text>
</a>
</g>
</g>
<!-- Node3&#45;&gt;Node17 -->
<g id="edge18" class="edge">
<title>Node3&#45;&gt;Node17</title>
<path fill="none" stroke="midnightblue" d="M652.67,-73.44C621.07,-61.78 580.86,-46.95 551.27,-36.04"/>
<polygon fill="midnightblue" stroke="midnightblue" points="651.58,-76.77 662.18,-76.94 654,-70.2 651.58,-76.77"/>
</g>
<!-- Node5 -->
<g id="node5" class="node">
<title>Node5</title>
<g id="a_node5"><a xlink:href="../../d7/d0b/classrawspeed_1_1_ciff_i_f_d.html#a39aeb5f86e2b8bb503ddff8cee8971f6" target="_top" xlink:title=" ">
<polygon fill="none" stroke="black" points="14,-315 14,-345 122,-345 122,-315 14,-315"/>
<text text-anchor="start" x="22" y="-333" font-family="Helvetica,sans-Serif" font-size="10.00">rawspeed::CiffIFD::</text>
<text text-anchor="middle" x="68" y="-322" font-family="Helvetica,sans-Serif" font-size="10.00">CiffIFD</text>
</a>
</g>
</g>
<!-- Node4&#45;&gt;Node5 -->
<g id="edge4" class="edge">
<title>Node4&#45;&gt;Node5</title>
<path fill="none" stroke="midnightblue" d="M434.94,-268.55C366.5,-275.26 261.85,-287.12 172,-304 155.69,-307.06 138.11,-311.19 122.18,-315.25"/>
<polygon fill="midnightblue" stroke="midnightblue" points="435.58,-272 445.19,-267.56 434.9,-265.04 435.58,-272"/>
</g>
<!-- Node6 -->
<g id="node6" class="node">
<title>Node6</title>
<g id="a_node6"><a xlink:href="../../de/d70/classrawspeed_1_1_crw_decompressor.html#a16b8f8f8ff89abbb8a29c335e82625a8" target="_top" xlink:title=" ">
<polygon fill="none" stroke="black" points="196,-225 196,-255 355,-255 355,-225 196,-225"/>
<text text-anchor="start" x="204" y="-243" font-family="Helvetica,sans-Serif" font-size="10.00">rawspeed::CrwDecompressor</text>
<text text-anchor="middle" x="275.5" y="-232" font-family="Helvetica,sans-Serif" font-size="10.00">::CrwDecompressor</text>
</a>
</g>
</g>
<!-- Node4&#45;&gt;Node6 -->
<g id="edge5" class="edge">
<title>Node4&#45;&gt;Node6</title>
<path fill="none" stroke="midnightblue" d="M435.45,-255.07C409.97,-252.66 381.27,-249.93 355.34,-247.48"/>
<polygon fill="midnightblue" stroke="midnightblue" points="435.13,-258.56 445.41,-256.02 435.79,-251.59 435.13,-258.56"/>
</g>
<!-- Node7 -->
<g id="node7" class="node">
<title>Node7</title>
<g id="a_node7"><a xlink:href="../../de/da7/fuzz_2librawspeed_2decompressors_2_crw_decompressor_8cpp.html#a1c473c9665269a78ef9001573a6995df" target="_top" xlink:title=" ">
<polygon fill="none" stroke="black" points="0,-208.5 0,-227.5 136,-227.5 136,-208.5 0,-208.5"/>
<text text-anchor="middle" x="68" y="-215.5" font-family="Helvetica,sans-Serif" font-size="10.00">LLVMFuzzerTestOneInput</text>
</a>
</g>
</g>
<!-- Node4&#45;&gt;Node7 -->
<g id="edge11" class="edge">
<title>Node4&#45;&gt;Node7</title>
<path fill="none" stroke="midnightblue" d="M466.58,-243C441.7,-232.77 409.2,-221.2 379,-216 296.26,-201.74 199.24,-205.6 136.08,-210.8"/>
<polygon fill="midnightblue" stroke="midnightblue" points="465.49,-246.34 476.07,-246.98 468.2,-239.88 465.49,-246.34"/>
</g>
<!-- Node8 -->
<g id="node8" class="node">
<title>Node8</title>
<g id="a_node8"><a xlink:href="../../d4/d03/classrawspeed_1_1_abstract_l_jpeg_decompressor.html#a761a4fac2d0114cbd56eca1787b8e409" target="_top" xlink:title=" ">
<polygon fill="none" stroke="black" points="172,-137 172,-167 379,-167 379,-137 172,-137"/>
<text text-anchor="start" x="180" y="-155" font-family="Helvetica,sans-Serif" font-size="10.00">rawspeed::AbstractLJpegDecompressor</text>
<text text-anchor="middle" x="275.5" y="-144" font-family="Helvetica,sans-Serif" font-size="10.00">::decode</text>
</a>
</g>
</g>
<!-- Node4&#45;&gt;Node8 -->
<g id="edge7" class="edge">
<title>Node4&#45;&gt;Node8</title>
<path fill="none" stroke="midnightblue" d="M479.5,-240.92C454.05,-223.21 415.49,-198.26 379,-182 366.04,-176.23 351.68,-171.23 337.9,-167.05"/>
<polygon fill="midnightblue" stroke="midnightblue" points="477.74,-243.96 487.93,-246.86 481.77,-238.24 477.74,-243.96"/>
</g>
<!-- Node9 -->
<g id="node9" class="node">
<title>Node9</title>
<g id="a_node9"><a xlink:href="../../de/df1/classrawspeed_1_1_dng_opcodes.html#a7682e3343a6fd66c00a1a75b2f2d9642" target="_top" xlink:title=" ">
<polygon fill="none" stroke="black" points="210,-411 210,-441 341,-441 341,-411 210,-411"/>
<text text-anchor="start" x="218" y="-429" font-family="Helvetica,sans-Serif" font-size="10.00">rawspeed::DngOpcodes</text>
<text text-anchor="middle" x="275.5" y="-418" font-family="Helvetica,sans-Serif" font-size="10.00">::DngOpcodes</text>
</a>
</g>
</g>
<!-- Node4&#45;&gt;Node9 -->
<g id="edge8" class="edge">
<title>Node4&#45;&gt;Node9</title>
<path fill="none" stroke="midnightblue" d="M493.09,-286.07C471.52,-317.72 429.26,-372.74 379,-402 367.47,-408.71 354.18,-413.55 341.07,-417.03"/>
<polygon fill="midnightblue" stroke="midnightblue" points="496.22,-287.68 498.87,-277.42 490.4,-283.79 496.22,-287.68"/>
</g>
<!-- Node10 -->
<g id="node10" class="node">
<title>Node10</title>
<g id="a_node10"><a xlink:href="../../dd/da0/classrawspeed_1_1_byte_stream.html#a262c81bd07608467d3aaa82ce2909519" target="_top" xlink:title=" ">
<polygon fill="none" stroke="black" points="211.5,-362 211.5,-392 339.5,-392 339.5,-362 211.5,-362"/>
<text text-anchor="start" x="219.5" y="-380" font-family="Helvetica,sans-Serif" font-size="10.00">rawspeed::ByteStream</text>
<text text-anchor="middle" x="275.5" y="-369" font-family="Helvetica,sans-Serif" font-size="10.00">::getStream</text>
</a>
</g>
</g>
<!-- Node4&#45;&gt;Node10 -->
<g id="edge9" class="edge">
<title>Node4&#45;&gt;Node10</title>
<path fill="none" stroke="midnightblue" d="M483.57,-283.94C458.73,-304.7 418.65,-335.23 379,-353 366.66,-358.53 352.89,-362.87 339.54,-366.24"/>
<polygon fill="midnightblue" stroke="midnightblue" points="486.03,-286.45 491.39,-277.31 481.5,-281.11 486.03,-286.45"/>
</g>
<!-- Node11 -->
<g id="node11" class="node">
<title>Node11</title>
<g id="a_node11"><a xlink:href="../../d7/d0b/classrawspeed_1_1_ciff_i_f_d.html#a11156e477a86d99467080c0255915e97" target="_top" xlink:title=" ">
<polygon fill="none" stroke="black" points="221.5,-313 221.5,-343 329.5,-343 329.5,-313 221.5,-313"/>
<text text-anchor="start" x="229.5" y="-331" font-family="Helvetica,sans-Serif" font-size="10.00">rawspeed::CiffIFD::</text>
<text text-anchor="middle" x="275.5" y="-320" font-family="Helvetica,sans-Serif" font-size="10.00">parseIFDEntry</text>
</a>
</g>
</g>
<!-- Node4&#45;&gt;Node11 -->
<g id="edge12" class="edge">
<title>Node4&#45;&gt;Node11</title>
<path fill="none" stroke="midnightblue" d="M445.58,-279.9C409.27,-290.23 364.12,-303.07 329.61,-312.89"/>
<polygon fill="midnightblue" stroke="midnightblue" points="446.9,-283.16 455.57,-277.06 444.99,-276.43 446.9,-283.16"/>
</g>
<!-- Node6&#45;&gt;Node7 -->
<g id="edge6" class="edge">
<title>Node6&#45;&gt;Node7</title>
<path fill="none" stroke="midnightblue" d="M185.67,-230.49C169.06,-228.71 151.96,-226.88 136.14,-225.19"/>
<polygon fill="midnightblue" stroke="midnightblue" points="185.61,-234 195.93,-231.59 186.36,-227.04 185.61,-234"/>
</g>
<!-- Node10&#45;&gt;Node5 -->
<g id="edge10" class="edge">
<title>Node10&#45;&gt;Node5</title>
<path fill="none" stroke="midnightblue" d="M201.57,-360.32C175.41,-354.34 146.42,-347.71 122.24,-342.18"/>
<polygon fill="midnightblue" stroke="midnightblue" points="200.92,-363.76 211.45,-362.58 202.48,-356.94 200.92,-363.76"/>
</g>
<!-- Node13 -->
<g id="node13" class="node">
<title>Node13</title>
<g id="a_node13"><a xlink:href="../../dc/d93/classrawspeed_1_1_panasonic_decompressor_v6.html#a7764fc783e5cc66624df26931451dcb3" target="_top" xlink:title=" ">
<polygon fill="none" stroke="black" points="181,-88 181,-118 370,-118 370,-88 181,-88"/>
<text text-anchor="start" x="189" y="-106" font-family="Helvetica,sans-Serif" font-size="10.00">rawspeed::PanasonicDecompressor</text>
<text text-anchor="middle" x="275.5" y="-95" font-family="Helvetica,sans-Serif" font-size="10.00">V6::PanasonicDecompressorV6</text>
</a>
</g>
</g>
<!-- Node12&#45;&gt;Node13 -->
<g id="edge14" class="edge">
<title>Node12&#45;&gt;Node13</title>
<path fill="none" stroke="midnightblue" d="M435.42,-95.47C414.69,-96.45 391.83,-97.53 370.06,-98.56"/>
<polygon fill="midnightblue" stroke="midnightblue" points="435.59,-98.96 445.41,-94.99 435.26,-91.97 435.59,-98.96"/>
</g>
<!-- Node15 -->
<g id="node15" class="node">
<title>Node15</title>
<g id="a_node15"><a xlink:href="../../d2/dd8/classrawspeed_1_1_samsung_v0_decompressor.html#ac1c4f0950920cd654038a762a9e1d347" target="_top" xlink:title=" ">
<polygon fill="none" stroke="black" points="176.5,-39 176.5,-69 374.5,-69 374.5,-39 176.5,-39"/>
<text text-anchor="start" x="184.5" y="-57" font-family="Helvetica,sans-Serif" font-size="10.00">rawspeed::SamsungV0Decompressor</text>
<text text-anchor="middle" x="275.5" y="-46" font-family="Helvetica,sans-Serif" font-size="10.00">::SamsungV0Decompressor</text>
</a>
</g>
</g>
<!-- Node12&#45;&gt;Node15 -->
<g id="edge16" class="edge">
<title>Node12&#45;&gt;Node15</title>
<path fill="none" stroke="midnightblue" d="M435.47,-80.04C414.17,-76.55 390.61,-72.69 368.31,-69.04"/>
<polygon fill="midnightblue" stroke="midnightblue" points="434.98,-83.5 445.41,-81.67 436.11,-76.6 434.98,-83.5"/>
</g>
<!-- Node14 -->
<g id="node14" class="node">
<title>Node14</title>
<g id="a_node14"><a xlink:href="../../d1/df7/fuzz_2librawspeed_2decompressors_2_panasonic_decompressor_v6_8cpp.html#a1c473c9665269a78ef9001573a6995df" target="_top" xlink:title=" ">
<polygon fill="none" stroke="black" points="0,-93.5 0,-112.5 136,-112.5 136,-93.5 0,-93.5"/>
<text text-anchor="middle" x="68" y="-100.5" font-family="Helvetica,sans-Serif" font-size="10.00">LLVMFuzzerTestOneInput</text>
</a>
</g>
</g>
<!-- Node13&#45;&gt;Node14 -->
<g id="edge15" class="edge">
<title>Node13&#45;&gt;Node14</title>
<path fill="none" stroke="midnightblue" d="M170.53,-103C158.86,-103 147.22,-103 136.2,-103"/>
<polygon fill="midnightblue" stroke="midnightblue" points="170.77,-106.5 180.77,-103 170.77,-99.5 170.77,-106.5"/>
</g>
<!-- Node16 -->
<g id="node16" class="node">
<title>Node16</title>
<g id="a_node16"><a xlink:href="../../dd/dcf/fuzz_2librawspeed_2decompressors_2_samsung_v0_decompressor_8cpp.html#a1c473c9665269a78ef9001573a6995df" target="_top" xlink:title=" ">
<polygon fill="none" stroke="black" points="0,-44.5 0,-63.5 136,-63.5 136,-44.5 0,-44.5"/>
<text text-anchor="middle" x="68" y="-51.5" font-family="Helvetica,sans-Serif" font-size="10.00">LLVMFuzzerTestOneInput</text>
</a>
</g>
</g>
<!-- Node15&#45;&gt;Node16 -->
<g id="edge17" class="edge">
<title>Node15&#45;&gt;Node16</title>
<path fill="none" stroke="midnightblue" d="M166.04,-54C155.83,-54 145.7,-54 136.04,-54"/>
<polygon fill="midnightblue" stroke="midnightblue" points="166.26,-57.5 176.26,-54 166.26,-50.5 166.26,-57.5"/>
</g>
<!-- Node18 -->
<g id="node18" class="node">
<title>Node18</title>
<g id="a_node18"><a xlink:href="../../db/dee/fuzz_2librawspeed_2decompressors_2_sony_arw2_decompressor_8cpp.html#a1c473c9665269a78ef9001573a6995df" target="_top" xlink:title=" ">
<polygon fill="none" stroke="black" points="207.5,-0.5 207.5,-19.5 343.5,-19.5 343.5,-0.5 207.5,-0.5"/>
<text text-anchor="middle" x="275.5" y="-7.5" font-family="Helvetica,sans-Serif" font-size="10.00">LLVMFuzzerTestOneInput</text>
</a>
</g>
</g>
<!-- Node17&#45;&gt;Node18 -->
<g id="edge19" class="edge">
<title>Node17&#45;&gt;Node18</title>
<path fill="none" stroke="midnightblue" d="M404.71,-16.08C384.04,-15.1 362.85,-14.09 343.8,-13.19"/>
<polygon fill="midnightblue" stroke="midnightblue" points="404.65,-19.58 414.81,-16.56 404.98,-12.59 404.65,-19.58"/>
</g>
</g>
</svg>
