<?xml version="1.0" encoding="UTF-8" standalone="no"?>
<!DOCTYPE svg PUBLIC "-//W3C//DTD SVG 1.1//EN"
 "http://www.w3.org/Graphics/SVG/1.1/DTD/svg11.dtd">
<!-- Generated by graphviz version 2.43.0 (0)
 -->
<!-- Title: rawspeed::ByteStream::getU32 Pages: 1 -->
<svg width="1036pt" height="635pt"
 viewBox="0.00 0.00 1036.00 635.00" xmlns="http://www.w3.org/2000/svg" xmlns:xlink="http://www.w3.org/1999/xlink">
<g id="graph0" class="graph" transform="scale(1 1) rotate(0) translate(4 631)">
<title>rawspeed::ByteStream::getU32</title>
<!-- Node1 -->
<g id="node1" class="node">
<title>Node1</title>
<g id="a_node1"><a xlink:title=" ">
<polygon fill="#bfbfbf" stroke="black" points="900,-298.5 900,-328.5 1028,-328.5 1028,-298.5 900,-298.5"/>
<text text-anchor="start" x="908" y="-316.5" font-family="Helvetica,sans-Serif" font-size="10.00">rawspeed::ByteStream</text>
<text text-anchor="middle" x="964" y="-305.5" font-family="Helvetica,sans-Serif" font-size="10.00">::getU32</text>
</a>
</g>
</g>
<!-- Node2 -->
<g id="node2" class="node">
<title>Node2</title>
<g id="a_node2"><a xlink:href="../../d7/d0b/classrawspeed_1_1_ciff_i_f_d.html#a39aeb5f86e2b8bb503ddff8cee8971f6" target="_top" xlink:title=" ">
<polygon fill="none" stroke="black" points="722,-596.5 722,-626.5 830,-626.5 830,-596.5 722,-596.5"/>
<text text-anchor="start" x="730" y="-614.5" font-family="Helvetica,sans-Serif" font-size="10.00">rawspeed::CiffIFD::</text>
<text text-anchor="middle" x="776" y="-603.5" font-family="Helvetica,sans-Serif" font-size="10.00">CiffIFD</text>
</a>
</g>
</g>
<!-- Node1&#45;&gt;Node2 -->
<g id="edge1" class="edge">
<title>Node1&#45;&gt;Node2</title>
<path fill="none" stroke="midnightblue" d="M961.28,-338.8C956.25,-392.48 936.9,-518.4 864,-586.5 854.7,-595.19 842.57,-600.88 830.34,-604.61"/>
<polygon fill="midnightblue" stroke="midnightblue" points="964.77,-339.04 962.13,-328.78 957.8,-338.45 964.77,-339.04"/>
</g>
<!-- Node3 -->
<g id="node3" class="node">
<title>Node3</title>
<g id="a_node3"><a xlink:href="../../d9/d5a/fuzz_2librawspeed_2fuzz_2_common_8cpp.html#ab8aaf7a475ff8c07866240375fde0922" target="_top" xlink:title=" ">
<polygon fill="none" stroke="black" points="742.5,-558 742.5,-577 809.5,-577 809.5,-558 742.5,-558"/>
<text text-anchor="middle" x="776" y="-565" font-family="Helvetica,sans-Serif" font-size="10.00">CreateCFA</text>
</a>
</g>
</g>
<!-- Node1&#45;&gt;Node3 -->
<g id="edge2" class="edge">
<title>Node1&#45;&gt;Node3</title>
<path fill="none" stroke="midnightblue" d="M960,-338.63C952.81,-387.13 929.99,-493.64 864,-548.5 848.9,-561.05 827.37,-565.83 809.51,-567.45"/>
<polygon fill="midnightblue" stroke="midnightblue" points="963.47,-339.06 961.37,-328.67 956.54,-338.1 963.47,-339.06"/>
</g>
<!-- Node4 -->
<g id="node4" class="node">
<title>Node4</title>
<g id="a_node4"><a xlink:href="../../d9/d5a/fuzz_2librawspeed_2fuzz_2_common_8cpp.html#a9b5193764409a69db1176954187dad97" target="_top" xlink:title=" ">
<polygon fill="none" stroke="black" points="725.5,-520 725.5,-539 826.5,-539 826.5,-520 725.5,-520"/>
<text text-anchor="middle" x="776" y="-527" font-family="Helvetica,sans-Serif" font-size="10.00">CreateRawImage</text>
</a>
</g>
</g>
<!-- Node1&#45;&gt;Node4 -->
<g id="edge3" class="edge">
<title>Node1&#45;&gt;Node4</title>
<path fill="none" stroke="midnightblue" d="M957.8,-338.43C947.61,-380.76 920.86,-466.36 864,-510.5 853.37,-518.75 839.92,-523.58 826.79,-526.37"/>
<polygon fill="midnightblue" stroke="midnightblue" points="961.22,-339.19 960.04,-328.66 954.39,-337.62 961.22,-339.19"/>
</g>
<!-- Node6 -->
<g id="node6" class="node">
<title>Node6</title>
<g id="a_node6"><a xlink:href="../../d0/d95/classrawspeed_1_1_dng_opcodes_1_1_delta_row_or_col.html#a4415369d6ea863b8799b655f9a3641bf" target="_top" xlink:title=" ">
<polygon fill="none" stroke="black" points="688,-470.5 688,-500.5 864,-500.5 864,-470.5 688,-470.5"/>
<text text-anchor="start" x="696" y="-488.5" font-family="Helvetica,sans-Serif" font-size="10.00">rawspeed::DngOpcodes</text>
<text text-anchor="middle" x="776" y="-477.5" font-family="Helvetica,sans-Serif" font-size="10.00">::DeltaRowOrCol::DeltaRowOrCol</text>
</a>
</g>
</g>
<!-- Node1&#45;&gt;Node6 -->
<g id="edge5" class="edge">
<title>Node1&#45;&gt;Node6</title>
<path fill="none" stroke="midnightblue" d="M953.14,-338.09C938.61,-371.17 908.3,-429.53 864,-461.5 859.3,-464.89 854.14,-467.81 848.75,-470.31"/>
<polygon fill="midnightblue" stroke="midnightblue" points="956.44,-339.27 957.14,-328.7 950,-336.53 956.44,-339.27"/>
</g>
<!-- Node7 -->
<g id="node7" class="node">
<title>Node7</title>
<g id="a_node7"><a xlink:href="../../de/df1/classrawspeed_1_1_dng_opcodes.html#a7682e3343a6fd66c00a1a75b2f2d9642" target="_top" xlink:title=" ">
<polygon fill="none" stroke="black" points="710.5,-421.5 710.5,-451.5 841.5,-451.5 841.5,-421.5 710.5,-421.5"/>
<text text-anchor="start" x="718.5" y="-439.5" font-family="Helvetica,sans-Serif" font-size="10.00">rawspeed::DngOpcodes</text>
<text text-anchor="middle" x="776" y="-428.5" font-family="Helvetica,sans-Serif" font-size="10.00">::DngOpcodes</text>
</a>
</g>
</g>
<!-- Node1&#45;&gt;Node7 -->
<g id="edge6" class="edge">
<title>Node1&#45;&gt;Node7</title>
<path fill="none" stroke="midnightblue" d="M945.33,-336.79C927.23,-359.08 897.12,-392.09 864,-411.5 857.09,-415.55 849.47,-418.98 841.71,-421.88"/>
<polygon fill="midnightblue" stroke="midnightblue" points="948.17,-338.83 951.66,-328.82 942.69,-334.48 948.17,-338.83"/>
</g>
<!-- Node8 -->
<g id="node8" class="node">
<title>Node8</title>
<g id="a_node8"><a xlink:href="../../d8/d14/classrawspeed_1_1_dng_opcodes_1_1_fix_bad_pixels_constant.html#a626b10497c52ad02a7f5561b5d53bbb7" target="_top" xlink:title=" ">
<polygon fill="none" stroke="black" points="710.5,-361 710.5,-402 841.5,-402 841.5,-361 710.5,-361"/>
<text text-anchor="start" x="718.5" y="-390" font-family="Helvetica,sans-Serif" font-size="10.00">rawspeed::DngOpcodes</text>
<text text-anchor="start" x="718.5" y="-379" font-family="Helvetica,sans-Serif" font-size="10.00">::FixBadPixelsConstant</text>
<text text-anchor="middle" x="776" y="-368" font-family="Helvetica,sans-Serif" font-size="10.00">::FixBadPixelsConstant</text>
</a>
</g>
</g>
<!-- Node1&#45;&gt;Node8 -->
<g id="edge7" class="edge">
<title>Node1&#45;&gt;Node8</title>
<path fill="none" stroke="midnightblue" d="M912.27,-332.05C887.84,-340.98 858.46,-351.72 833.33,-360.91"/>
<polygon fill="midnightblue" stroke="midnightblue" points="913.53,-335.31 921.72,-328.59 911.13,-328.74 913.53,-335.31"/>
</g>
<!-- Node9 -->
<g id="node9" class="node">
<title>Node9</title>
<g id="a_node9"><a xlink:href="../../d9/d5b/classrawspeed_1_1_dng_opcodes_1_1_fix_bad_pixels_list.html#ab7bf4c8e7f4039739d0a1f520c841672" target="_top" xlink:title=" ">
<polygon fill="none" stroke="black" points="215,-142.5 215,-172.5 401,-172.5 401,-142.5 215,-142.5"/>
<text text-anchor="start" x="223" y="-160.5" font-family="Helvetica,sans-Serif" font-size="10.00">rawspeed::DngOpcodes</text>
<text text-anchor="middle" x="308" y="-149.5" font-family="Helvetica,sans-Serif" font-size="10.00">::FixBadPixelsList::FixBadPixelsList</text>
</a>
</g>
</g>
<!-- Node1&#45;&gt;Node9 -->
<g id="edge8" class="edge">
<title>Node1&#45;&gt;Node9</title>
<path fill="none" stroke="midnightblue" d="M951.39,-289.16C935.94,-259.74 905.64,-211.37 864,-188.5 710.47,-104.19 495.67,-123.85 383.64,-142.43"/>
<polygon fill="midnightblue" stroke="midnightblue" points="948.41,-291.01 956.06,-298.34 954.65,-287.84 948.41,-291.01"/>
</g>
<!-- Node10 -->
<g id="node10" class="node">
<title>Node10</title>
<g id="a_node10"><a xlink:href="../../de/da7/fuzz_2librawspeed_2decompressors_2_crw_decompressor_8cpp.html#a1c473c9665269a78ef9001573a6995df" target="_top" xlink:title=" ">
<polygon fill="none" stroke="black" points="708,-285 708,-304 844,-304 844,-285 708,-285"/>
<text text-anchor="middle" x="776" y="-292" font-family="Helvetica,sans-Serif" font-size="10.00">LLVMFuzzerTestOneInput</text>
</a>
</g>
</g>
<!-- Node1&#45;&gt;Node10 -->
<g id="edge9" class="edge">
<title>Node1&#45;&gt;Node10</title>
<path fill="none" stroke="midnightblue" d="M889.55,-306C874.58,-304.47 858.92,-302.87 844.19,-301.36"/>
<polygon fill="midnightblue" stroke="midnightblue" points="889.47,-309.51 899.77,-307.04 890.18,-302.54 889.47,-309.51"/>
</g>
<!-- Node11 -->
<g id="node11" class="node">
<title>Node11</title>
<g id="a_node11"><a xlink:href="../../d5/dcb/classrawspeed_1_1_dng_opcodes_1_1_pixel_opcode.html#a2d4cef258692d4e1609527e09b51c8f1" target="_top" xlink:title=" ">
<polygon fill="none" stroke="black" points="469.5,-273.5 469.5,-303.5 619.5,-303.5 619.5,-273.5 469.5,-273.5"/>
<text text-anchor="start" x="477.5" y="-291.5" font-family="Helvetica,sans-Serif" font-size="10.00">rawspeed::DngOpcodes</text>
<text text-anchor="middle" x="544.5" y="-280.5" font-family="Helvetica,sans-Serif" font-size="10.00">::PixelOpcode::PixelOpcode</text>
</a>
</g>
</g>
<!-- Node1&#45;&gt;Node11 -->
<g id="edge10" class="edge">
<title>Node1&#45;&gt;Node11</title>
<path fill="none" stroke="midnightblue" d="M922.81,-294.23C905.19,-286.8 884.01,-279.21 864,-275.5 781.29,-260.17 684.51,-267.63 619.53,-276.22"/>
<polygon fill="midnightblue" stroke="midnightblue" points="921.64,-297.53 932.2,-298.31 924.43,-291.11 921.64,-297.53"/>
</g>
<!-- Node14 -->
<g id="node14" class="node">
<title>Node14</title>
<g id="a_node14"><a xlink:href="../../d8/d70/classrawspeed_1_1_dng_opcodes_1_1_polynomial_map.html#a5ba7f4d079c409526da52143518d6c6f" target="_top" xlink:title=" ">
<polygon fill="none" stroke="black" points="0,-232.5 0,-262.5 179,-262.5 179,-232.5 0,-232.5"/>
<text text-anchor="start" x="8" y="-250.5" font-family="Helvetica,sans-Serif" font-size="10.00">rawspeed::DngOpcodes</text>
<text text-anchor="middle" x="89.5" y="-239.5" font-family="Helvetica,sans-Serif" font-size="10.00">::PolynomialMap::PolynomialMap</text>
</a>
</g>
</g>
<!-- Node1&#45;&gt;Node14 -->
<g id="edge16" class="edge">
<title>Node1&#45;&gt;Node14</title>
<path fill="none" stroke="midnightblue" d="M889.42,-325.07C753.68,-343.89 455.73,-373.36 215,-313.5 175.59,-303.7 134.94,-278.86 111.23,-262.6"/>
<polygon fill="midnightblue" stroke="midnightblue" points="890.29,-328.48 899.7,-323.62 889.31,-321.55 890.29,-328.48"/>
</g>
<!-- Node15 -->
<g id="node15" class="node">
<title>Node15</title>
<g id="a_node15"><a xlink:href="../../dc/d9c/classrawspeed_1_1_dng_opcodes_1_1_table_map.html#a0f4b8c3112f447ae3a1e487b42e11d3d" target="_top" xlink:title=" ">
<polygon fill="none" stroke="black" points="24,-157.5 24,-187.5 155,-187.5 155,-157.5 24,-157.5"/>
<text text-anchor="start" x="32" y="-175.5" font-family="Helvetica,sans-Serif" font-size="10.00">rawspeed::DngOpcodes</text>
<text text-anchor="middle" x="89.5" y="-164.5" font-family="Helvetica,sans-Serif" font-size="10.00">::TableMap::TableMap</text>
</a>
</g>
</g>
<!-- Node1&#45;&gt;Node15 -->
<g id="edge22" class="edge">
<title>Node1&#45;&gt;Node15</title>
<path fill="none" stroke="midnightblue" d="M957.9,-288.53C947.96,-247.13 921.71,-165.29 864,-129.5 741.43,-53.49 356.98,-108.17 215,-133.5 185.79,-138.71 153.87,-148.8 129.67,-157.41"/>
<polygon fill="midnightblue" stroke="midnightblue" points="954.5,-289.39 960.13,-298.37 961.33,-287.84 954.5,-289.39"/>
</g>
<!-- Node16 -->
<g id="node16" class="node">
<title>Node16</title>
<g id="a_node16"><a xlink:href="../../df/dc9/classrawspeed_1_1_dng_opcodes_1_1_r_o_i_opcode.html#a18543c8017b64d69566acc55164af4cc" target="_top" xlink:title=" ">
<polygon fill="none" stroke="black" points="707.5,-197.5 707.5,-227.5 844.5,-227.5 844.5,-197.5 707.5,-197.5"/>
<text text-anchor="start" x="715.5" y="-215.5" font-family="Helvetica,sans-Serif" font-size="10.00">rawspeed::DngOpcodes</text>
<text text-anchor="middle" x="776" y="-204.5" font-family="Helvetica,sans-Serif" font-size="10.00">::ROIOpcode::ROIOpcode</text>
</a>
</g>
</g>
<!-- Node1&#45;&gt;Node16 -->
<g id="edge17" class="edge">
<title>Node1&#45;&gt;Node16</title>
<path fill="none" stroke="midnightblue" d="M937.46,-292C918.22,-276.63 890.68,-256.29 864,-242.5 852.93,-236.78 840.53,-231.76 828.64,-227.54"/>
<polygon fill="midnightblue" stroke="midnightblue" points="935.45,-294.88 945.42,-298.47 939.86,-289.45 935.45,-294.88"/>
</g>
<!-- Node19 -->
<g id="node19" class="node">
<title>Node19</title>
<g id="a_node19"><a xlink:href="../../df/dca/classrawspeed_1_1_tiff_entry.html#a7a9c4cb037556cd206b5a1e63f2ddce0" target="_top" xlink:title=" ">
<polygon fill="none" stroke="black" points="720.5,-49.5 720.5,-79.5 831.5,-79.5 831.5,-49.5 720.5,-49.5"/>
<text text-anchor="start" x="728.5" y="-67.5" font-family="Helvetica,sans-Serif" font-size="10.00">rawspeed::TiffEntry</text>
<text text-anchor="middle" x="776" y="-56.5" font-family="Helvetica,sans-Serif" font-size="10.00">::TiffEntry</text>
</a>
</g>
</g>
<!-- Node1&#45;&gt;Node19 -->
<g id="edge23" class="edge">
<title>Node1&#45;&gt;Node19</title>
<path fill="none" stroke="midnightblue" d="M958.44,-288.49C948.94,-243.38 922.81,-148.11 864,-94.5 854.91,-86.21 843.41,-80.2 831.79,-75.83"/>
<polygon fill="midnightblue" stroke="midnightblue" points="955.02,-289.21 960.42,-298.33 961.88,-287.83 955.02,-289.21"/>
</g>
<!-- Node20 -->
<g id="node20" class="node">
<title>Node20</title>
<g id="a_node20"><a xlink:href="../../db/d6a/classrawspeed_1_1_tiff_i_f_d.html#ab0340c6df85d42ac0265e025c4092aa0" target="_top" xlink:title=" ">
<polygon fill="none" stroke="black" points="722.5,-0.5 722.5,-30.5 829.5,-30.5 829.5,-0.5 722.5,-0.5"/>
<text text-anchor="start" x="730.5" y="-18.5" font-family="Helvetica,sans-Serif" font-size="10.00">rawspeed::TiffIFD::</text>
<text text-anchor="middle" x="776" y="-7.5" font-family="Helvetica,sans-Serif" font-size="10.00">TiffIFD</text>
</a>
</g>
</g>
<!-- Node1&#45;&gt;Node20 -->
<g id="edge24" class="edge">
<title>Node1&#45;&gt;Node20</title>
<path fill="none" stroke="midnightblue" d="M961.4,-288.43C956.59,-234.66 937.63,-107.63 864,-39.5 854.57,-30.77 842.25,-25.18 829.87,-21.6"/>
<polygon fill="midnightblue" stroke="midnightblue" points="957.92,-288.77 962.21,-298.45 964.89,-288.21 957.92,-288.77"/>
</g>
<!-- Node5 -->
<g id="node5" class="node">
<title>Node5</title>
<g id="a_node5"><a xlink:href="../../dc/dfc/fuzz_2librawspeed_2decompressors_2_cr2_decompressor_8cpp.html#a1c473c9665269a78ef9001573a6995df" target="_top" xlink:title=" ">
<polygon fill="none" stroke="black" points="476.5,-520 476.5,-539 612.5,-539 612.5,-520 476.5,-520"/>
<text text-anchor="middle" x="544.5" y="-527" font-family="Helvetica,sans-Serif" font-size="10.00">LLVMFuzzerTestOneInput</text>
</a>
</g>
</g>
<!-- Node4&#45;&gt;Node5 -->
<g id="edge4" class="edge">
<title>Node4&#45;&gt;Node5</title>
<path fill="none" stroke="midnightblue" d="M715.13,-529.5C683.75,-529.5 645.19,-529.5 612.78,-529.5"/>
<polygon fill="midnightblue" stroke="midnightblue" points="715.48,-533 725.48,-529.5 715.48,-526 715.48,-533"/>
</g>
<!-- Node12 -->
<g id="node12" class="node">
<title>Node12</title>
<g id="a_node12"><a xlink:href="../../d0/d58/classrawspeed_1_1_dng_opcodes_1_1_delta_row_or_col_base.html#aee44344d07cc5c0dd84dd96d8c2db5e3" target="_top" xlink:title=" ">
<polygon fill="none" stroke="black" points="242.5,-263 242.5,-304 373.5,-304 373.5,-263 242.5,-263"/>
<text text-anchor="start" x="250.5" y="-292" font-family="Helvetica,sans-Serif" font-size="10.00">rawspeed::DngOpcodes</text>
<text text-anchor="start" x="250.5" y="-281" font-family="Helvetica,sans-Serif" font-size="10.00">::DeltaRowOrColBase::</text>
<text text-anchor="middle" x="308" y="-270" font-family="Helvetica,sans-Serif" font-size="10.00">DeltaRowOrColBase</text>
</a>
</g>
</g>
<!-- Node11&#45;&gt;Node12 -->
<g id="edge11" class="edge">
<title>Node11&#45;&gt;Node12</title>
<path fill="none" stroke="midnightblue" d="M459.07,-286.7C430.92,-286.1 400.02,-285.44 373.62,-284.88"/>
<polygon fill="midnightblue" stroke="midnightblue" points="459.23,-290.2 469.3,-286.92 459.38,-283.21 459.23,-290.2"/>
</g>
<!-- Node13 -->
<g id="node13" class="node">
<title>Node13</title>
<g id="a_node13"><a xlink:href="../../de/d8e/classrawspeed_1_1_dng_opcodes_1_1_lookup_opcode.html#a90e7b20b578b60967bd9e9b85e323a17" target="_top" xlink:title=" ">
<polygon fill="none" stroke="black" points="221.5,-195.5 221.5,-225.5 394.5,-225.5 394.5,-195.5 221.5,-195.5"/>
<text text-anchor="start" x="229.5" y="-213.5" font-family="Helvetica,sans-Serif" font-size="10.00">rawspeed::DngOpcodes</text>
<text text-anchor="middle" x="308" y="-202.5" font-family="Helvetica,sans-Serif" font-size="10.00">::LookupOpcode::LookupOpcode</text>
</a>
</g>
</g>
<!-- Node11&#45;&gt;Node13 -->
<g id="edge12" class="edge">
<title>Node11&#45;&gt;Node13</title>
<path fill="none" stroke="midnightblue" d="M459.65,-271.09C451.94,-269.04 444.3,-266.84 437,-264.5 403.13,-253.63 365.79,-237.36 340.23,-225.52"/>
<polygon fill="midnightblue" stroke="midnightblue" points="458.87,-274.5 469.42,-273.59 460.61,-267.72 458.87,-274.5"/>
</g>
<!-- Node13&#45;&gt;Node13 -->
<g id="edge13" class="edge">
<title>Node13&#45;&gt;Node13</title>
<path fill="none" stroke="midnightblue" d="M346.74,-235.96C341.93,-240.68 329.02,-244 308,-244 273.51,-244 260.85,-235.06 270.01,-225.66"/>
<polygon fill="midnightblue" stroke="midnightblue" points="350.2,-235.38 345.99,-225.66 343.22,-235.89 350.2,-235.38"/>
</g>
<!-- Node13&#45;&gt;Node14 -->
<g id="edge14" class="edge">
<title>Node13&#45;&gt;Node14</title>
<path fill="none" stroke="midnightblue" d="M211.38,-226.84C200.37,-228.72 189.19,-230.63 178.29,-232.5"/>
<polygon fill="midnightblue" stroke="midnightblue" points="212.17,-230.26 221.43,-225.12 210.99,-223.36 212.17,-230.26"/>
</g>
<!-- Node13&#45;&gt;Node15 -->
<g id="edge15" class="edge">
<title>Node13&#45;&gt;Node15</title>
<path fill="none" stroke="midnightblue" d="M211.52,-193.74C192.43,-190.39 172.82,-186.95 155.08,-183.83"/>
<polygon fill="midnightblue" stroke="midnightblue" points="210.98,-197.2 221.43,-195.48 212.19,-190.31 210.98,-197.2"/>
</g>
<!-- Node16&#45;&gt;Node11 -->
<g id="edge20" class="edge">
<title>Node16&#45;&gt;Node11</title>
<path fill="none" stroke="midnightblue" d="M715.4,-231.12C706.09,-234.58 696.69,-238.41 688,-242.5 671.04,-250.49 669.38,-257.46 652,-264.5 641.72,-268.67 630.58,-272.18 619.51,-275.12"/>
<polygon fill="midnightblue" stroke="midnightblue" points="716.81,-234.34 725.03,-227.66 714.44,-227.75 716.81,-234.34"/>
</g>
<!-- Node17 -->
<g id="node17" class="node">
<title>Node17</title>
<g id="a_node17"><a xlink:href="../../d5/d66/classrawspeed_1_1_dng_opcodes_1_1_dummy_r_o_i_opcode.html#a41065e2a0a4c5a97fa22a998d446e92f" target="_top" xlink:title=" ">
<polygon fill="none" stroke="black" points="437,-224.5 437,-254.5 652,-254.5 652,-224.5 437,-224.5"/>
<text text-anchor="start" x="445" y="-242.5" font-family="Helvetica,sans-Serif" font-size="10.00">rawspeed::DngOpcodes</text>
<text text-anchor="middle" x="544.5" y="-231.5" font-family="Helvetica,sans-Serif" font-size="10.00">::DummyROIOpcode::DummyROIOpcode</text>
</a>
</g>
</g>
<!-- Node16&#45;&gt;Node17 -->
<g id="edge18" class="edge">
<title>Node16&#45;&gt;Node17</title>
<path fill="none" stroke="midnightblue" d="M697.05,-221.67C682.63,-223.37 667.34,-225.17 652.24,-226.94"/>
<polygon fill="midnightblue" stroke="midnightblue" points="697.86,-225.1 707.38,-220.45 697.04,-218.15 697.86,-225.1"/>
</g>
<!-- Node18 -->
<g id="node18" class="node">
<title>Node18</title>
<g id="a_node18"><a xlink:href="../../da/ddd/classrawspeed_1_1_dng_opcodes_1_1_trim_bounds.html#a2e5018f45c2e01536269db5799d35c8f" target="_top" xlink:title=" ">
<polygon fill="none" stroke="black" points="473,-175.5 473,-205.5 616,-205.5 616,-175.5 473,-175.5"/>
<text text-anchor="start" x="481" y="-193.5" font-family="Helvetica,sans-Serif" font-size="10.00">rawspeed::DngOpcodes</text>
<text text-anchor="middle" x="544.5" y="-182.5" font-family="Helvetica,sans-Serif" font-size="10.00">::TrimBounds::TrimBounds</text>
</a>
</g>
</g>
<!-- Node16&#45;&gt;Node18 -->
<g id="edge21" class="edge">
<title>Node16&#45;&gt;Node18</title>
<path fill="none" stroke="midnightblue" d="M697.12,-205.03C670.91,-202.52 641.84,-199.74 616.22,-197.28"/>
<polygon fill="midnightblue" stroke="midnightblue" points="697.1,-208.55 707.38,-206.02 697.76,-201.58 697.1,-208.55"/>
</g>
<!-- Node17&#45;&gt;Node9 -->
<g id="edge19" class="edge">
<title>Node17&#45;&gt;Node9</title>
<path fill="none" stroke="midnightblue" d="M450.24,-221.16C445.69,-219.44 441.26,-217.56 437,-215.5 418.5,-206.57 419.11,-196.2 401,-186.5 390.81,-181.04 379.44,-176.42 368.25,-172.58"/>
<polygon fill="midnightblue" stroke="midnightblue" points="449.09,-224.47 459.69,-224.48 451.41,-217.87 449.09,-224.47"/>
</g>
</g>
</svg>
