<?xml version="1.0" encoding="UTF-8" standalone="no"?>
<!DOCTYPE svg PUBLIC "-//W3C//DTD SVG 1.1//EN"
 "http://www.w3.org/Graphics/SVG/1.1/DTD/svg11.dtd">
<!-- Generated by graphviz version 2.43.0 (0)
 -->
<!-- Title: rawspeed::ByteStream::skipBytes Pages: 1 -->
<!--zoomable 480 -->
<svg id="main" version="1.1" xmlns="http://www.w3.org/2000/svg" xmlns:xlink="http://www.w3.org/1999/xlink" xml:space="preserve" onload="init(evt)">
<style type="text/css"><![CDATA[
.edge:hover path { stroke: red; }
.edge:hover polygon { stroke: red; fill: red; }
]]></style>
<script type="text/javascript"><![CDATA[
var edges = document.getElementsByTagName('g');
if (edges && edges.length) {
  for (var i=0;i<edges.length;i++) {
    if (edges[i].id.substr(0,4)=='edge') {
      edges[i].setAttribute('class','edge');
    }
  }
}
]]></script>
        <defs>
                <circle id="rim" cx="0" cy="0" r="7"/>
                <circle id="rim2" cx="0" cy="0" r="3.5"/>
                <g id="zoomPlus">
                        <use xlink:href="#rim" fill="#404040">
                                <set attributeName="fill" to="#808080" begin="zoomplus.mouseover" end="zoomplus.mouseout"/>
                        </use>
                        <path d="M-4,0h8M0,-4v8" fill="none" stroke="white" stroke-width="1.5" pointer-events="none"/>
                </g>
                <g id="zoomMin">
                        <use xlink:href="#rim" fill="#404040">
                                <set attributeName="fill" to="#808080" begin="zoomminus.mouseover" end="zoomminus.mouseout"/>
                        </use>
                        <path d="M-4,0h8" fill="none" stroke="white" stroke-width="1.5" pointer-events="none"/>
                </g>
                <g id="dirArrow">
                        <path fill="none" stroke="white" stroke-width="1.5" d="M0,-3.0v7 M-2.5,-0.5L0,-3.0L2.5,-0.5"/>
                </g>
               <g id="resetDef">
                       <use xlink:href="#rim2" fill="#404040">
                               <set attributeName="fill" to="#808080" begin="reset.mouseover" end="reset.mouseout"/>
                       </use>
               </g>
        </defs>

<script type="text/javascript">
var viewWidth = 791;
var viewHeight = 480;
var sectionId = 'dynsection-38';
</script>
<script xlink:href="../../svgpan.js"/>
<svg id="graph" class="graph">
<g id="viewport">
<title>rawspeed::ByteStream::skipBytes</title>
<!-- Node1 -->
<g id="node1" class="node">
<title>Node1</title>
<g id="a_node1"><a xlink:title=" ">
<polygon fill="#bfbfbf" stroke="black" points="655,-220.5 655,-250.5 783,-250.5 783,-220.5 655,-220.5"/>
<text text-anchor="start" x="663" y="-238.5" font-family="Helvetica,sans-Serif" font-size="10.00">rawspeed::ByteStream</text>
<text text-anchor="middle" x="719" y="-227.5" font-family="Helvetica,sans-Serif" font-size="10.00">::skipBytes</text>
</a>
</g>
</g>
<!-- Node2 -->
<g id="node2" class="node">
<title>Node2</title>
<g id="a_node2"><a xlink:href="../../de/d70/classrawspeed_1_1_crw_decompressor.html#a16b8f8f8ff89abbb8a29c335e82625a8" target="_top" xlink:title=" ">
<polygon fill="none" stroke="black" points="433,-441.5 433,-471.5 592,-471.5 592,-441.5 433,-441.5"/>
<text text-anchor="start" x="441" y="-459.5" font-family="Helvetica,sans-Serif" font-size="10.00">rawspeed::CrwDecompressor</text>
<text text-anchor="middle" x="512.5" y="-448.5" font-family="Helvetica,sans-Serif" font-size="10.00">::CrwDecompressor</text>
</a>
</g>
</g>
<!-- Node1&#45;&gt;Node2 -->
<g id="edge1" class="edge">
<title>Node1&#45;&gt;Node2</title>
<path fill="none" stroke="midnightblue" d="M712.76,-260.38C702.51,-302.63 675.67,-388.11 619,-432.5 611.09,-438.7 601.88,-443.35 592.25,-446.84"/>
<polygon fill="midnightblue" stroke="midnightblue" points="716.17,-261.15 715.01,-250.62 709.35,-259.58 716.17,-261.15"/>
</g>
<!-- Node4 -->
<g id="node4" class="node">
<title>Node4</title>
<g id="a_node4"><a xlink:href="../../d4/d03/classrawspeed_1_1_abstract_l_jpeg_decompressor.html#a761a4fac2d0114cbd56eca1787b8e409" target="_top" xlink:title=" ">
<polygon fill="none" stroke="black" points="409,-392.5 409,-422.5 616,-422.5 616,-392.5 409,-392.5"/>
<text text-anchor="start" x="417" y="-410.5" font-family="Helvetica,sans-Serif" font-size="10.00">rawspeed::AbstractLJpegDecompressor</text>
<text text-anchor="middle" x="512.5" y="-399.5" font-family="Helvetica,sans-Serif" font-size="10.00">::decode</text>
</a>
</g>
</g>
<!-- Node1&#45;&gt;Node4 -->
<g id="edge3" class="edge">
<title>Node1&#45;&gt;Node4</title>
<path fill="none" stroke="midnightblue" d="M708.35,-260.38C694.06,-293.8 664.01,-352.54 619,-383.5 613.97,-386.96 608.52,-389.93 602.83,-392.47"/>
<polygon fill="midnightblue" stroke="midnightblue" points="711.69,-261.46 712.28,-250.89 705.22,-258.79 711.69,-261.46"/>
</g>
<!-- Node5 -->
<g id="node5" class="node">
<title>Node5</title>
<g id="a_node5"><a xlink:href="../../d5/d8a/classrawspeed_1_1_uncompressed_decompressor.html#a81e6a7c79cbf44c782abd2b6e0d39cfb" target="_top" xlink:title=" ">
<polygon fill="none" stroke="black" points="406,-343.5 406,-373.5 619,-373.5 619,-343.5 406,-343.5"/>
<text text-anchor="start" x="414" y="-361.5" font-family="Helvetica,sans-Serif" font-size="10.00">rawspeed::UncompressedDecompressor</text>
<text text-anchor="middle" x="512.5" y="-350.5" font-family="Helvetica,sans-Serif" font-size="10.00">::decode12BitRaw</text>
</a>
</g>
</g>
<!-- Node1&#45;&gt;Node5 -->
<g id="edge4" class="edge">
<title>Node1&#45;&gt;Node5</title>
<path fill="none" stroke="midnightblue" d="M701.2,-258.68C683.39,-281.52 653.15,-315.64 619,-334.5 612.75,-337.95 606.03,-340.91 599.12,-343.44"/>
<polygon fill="midnightblue" stroke="midnightblue" points="704.13,-260.61 707.4,-250.54 698.56,-256.37 704.13,-260.61"/>
</g>
<!-- Node6 -->
<g id="node6" class="node">
<title>Node6</title>
<g id="a_node6"><a xlink:href="../../dc/d8d/classrawspeed_1_1_samsung_v2_decompressor.html#a842eda46fe0845505da6d3223148780c" target="_top" xlink:title=" ">
<polygon fill="none" stroke="black" points="413.5,-294.5 413.5,-324.5 611.5,-324.5 611.5,-294.5 413.5,-294.5"/>
<text text-anchor="start" x="421.5" y="-312.5" font-family="Helvetica,sans-Serif" font-size="10.00">rawspeed::SamsungV2Decompressor</text>
<text text-anchor="middle" x="512.5" y="-301.5" font-family="Helvetica,sans-Serif" font-size="10.00">::decompressRow</text>
</a>
</g>
</g>
<!-- Node1&#45;&gt;Node6 -->
<g id="edge5" class="edge">
<title>Node1&#45;&gt;Node6</title>
<path fill="none" stroke="midnightblue" d="M683.34,-255.63C664.75,-265.75 641.16,-277.52 619,-285.5 609.72,-288.84 599.81,-291.82 589.92,-294.45"/>
<polygon fill="midnightblue" stroke="midnightblue" points="685.25,-258.58 692.3,-250.67 681.86,-252.45 685.25,-258.58"/>
</g>
<!-- Node9 -->
<g id="node9" class="node">
<title>Node9</title>
<g id="a_node9"><a xlink:href="../../de/df1/classrawspeed_1_1_dng_opcodes.html#a7682e3343a6fd66c00a1a75b2f2d9642" target="_top" xlink:title=" ">
<polygon fill="none" stroke="black" points="447,-245.5 447,-275.5 578,-275.5 578,-245.5 447,-245.5"/>
<text text-anchor="start" x="455" y="-263.5" font-family="Helvetica,sans-Serif" font-size="10.00">rawspeed::DngOpcodes</text>
<text text-anchor="middle" x="512.5" y="-252.5" font-family="Helvetica,sans-Serif" font-size="10.00">::DngOpcodes</text>
</a>
</g>
</g>
<!-- Node1&#45;&gt;Node9 -->
<g id="edge8" class="edge">
<title>Node1&#45;&gt;Node9</title>
<path fill="none" stroke="midnightblue" d="M644.78,-244.45C622.99,-247.11 599.28,-250.01 578.08,-252.6"/>
<polygon fill="midnightblue" stroke="midnightblue" points="645.47,-247.89 654.97,-243.2 644.62,-240.94 645.47,-247.89"/>
</g>
<!-- Node10 -->
<g id="node10" class="node">
<title>Node10</title>
<g id="a_node10"><a xlink:href="../../de/d5f/classrawspeed_1_1_fuji_decompressor.html#af46a33a3077f5442f092d9dda37898bc" target="_top" xlink:title=" ">
<polygon fill="none" stroke="black" points="434,-196.5 434,-226.5 591,-226.5 591,-196.5 434,-196.5"/>
<text text-anchor="start" x="442" y="-214.5" font-family="Helvetica,sans-Serif" font-size="10.00">rawspeed::FujiDecompressor</text>
<text text-anchor="middle" x="512.5" y="-203.5" font-family="Helvetica,sans-Serif" font-size="10.00">::fuji_compressed_load_raw</text>
</a>
</g>
</g>
<!-- Node1&#45;&gt;Node10 -->
<g id="edge9" class="edge">
<title>Node1&#45;&gt;Node10</title>
<path fill="none" stroke="midnightblue" d="M644.86,-226.92C627.42,-224.87 608.74,-222.68 591.1,-220.61"/>
<polygon fill="midnightblue" stroke="midnightblue" points="644.63,-230.41 654.97,-228.1 645.45,-223.46 644.63,-230.41"/>
</g>
<!-- Node13 -->
<g id="node13" class="node">
<title>Node13</title>
<g id="a_node13"><a xlink:href="../../df/d02/classrawspeed_1_1_nikon_decompressor.html#aadcbaa5c0d35f98f7b7290fa751aba0d" target="_top" xlink:title=" ">
<polygon fill="none" stroke="black" points="428,-147.5 428,-177.5 597,-177.5 597,-147.5 428,-147.5"/>
<text text-anchor="start" x="436" y="-165.5" font-family="Helvetica,sans-Serif" font-size="10.00">rawspeed::NikonDecompressor</text>
<text text-anchor="middle" x="512.5" y="-154.5" font-family="Helvetica,sans-Serif" font-size="10.00">::NikonDecompressor</text>
</a>
</g>
</g>
<!-- Node1&#45;&gt;Node13 -->
<g id="edge13" class="edge">
<title>Node1&#45;&gt;Node13</title>
<path fill="none" stroke="midnightblue" d="M682.04,-215.71C663.61,-206.17 640.55,-195.17 619,-187.5 608.54,-183.77 597.29,-180.44 586.19,-177.51"/>
<polygon fill="midnightblue" stroke="midnightblue" points="680.48,-218.84 690.96,-220.39 683.73,-212.64 680.48,-218.84"/>
</g>
<!-- Node14 -->
<g id="node14" class="node">
<title>Node14</title>
<g id="a_node14"><a xlink:href="../../db/d6a/classrawspeed_1_1_tiff_i_f_d.html#a01e97487df4b0db0b73aaa667a7b3c26" target="_top" xlink:title=" ">
<polygon fill="none" stroke="black" points="459,-98.5 459,-128.5 566,-128.5 566,-98.5 459,-98.5"/>
<text text-anchor="start" x="467" y="-116.5" font-family="Helvetica,sans-Serif" font-size="10.00">rawspeed::TiffIFD::</text>
<text text-anchor="middle" x="512.5" y="-105.5" font-family="Helvetica,sans-Serif" font-size="10.00">parseMakerNote</text>
</a>
</g>
</g>
<!-- Node1&#45;&gt;Node14 -->
<g id="edge14" class="edge">
<title>Node1&#45;&gt;Node14</title>
<path fill="none" stroke="midnightblue" d="M700.77,-212.49C682.81,-190.17 652.63,-157.05 619,-138.5 602.93,-129.64 583.8,-123.9 566.27,-120.19"/>
<polygon fill="midnightblue" stroke="midnightblue" points="698.1,-214.76 707.03,-220.46 703.6,-210.43 698.1,-214.76"/>
</g>
<!-- Node15 -->
<g id="node15" class="node">
<title>Node15</title>
<g id="a_node15"><a xlink:href="../../d5/df3/classrawspeed_1_1_pentax_decompressor.html#a07c8ab7a6bc0f183cde3912a8d7b2c5e" target="_top" xlink:title=" ">
<polygon fill="none" stroke="black" points="425.5,-49.5 425.5,-79.5 599.5,-79.5 599.5,-49.5 425.5,-49.5"/>
<text text-anchor="start" x="433.5" y="-67.5" font-family="Helvetica,sans-Serif" font-size="10.00">rawspeed::PentaxDecompressor</text>
<text text-anchor="middle" x="512.5" y="-56.5" font-family="Helvetica,sans-Serif" font-size="10.00">::SetupHuffmanTable_Modern</text>
</a>
</g>
</g>
<!-- Node1&#45;&gt;Node15 -->
<g id="edge15" class="edge">
<title>Node1&#45;&gt;Node15</title>
<path fill="none" stroke="midnightblue" d="M708.3,-210.78C693.96,-177.59 663.85,-119.24 619,-88.5 613.03,-84.41 606.48,-81.01 599.64,-78.18"/>
<polygon fill="midnightblue" stroke="midnightblue" points="705.16,-212.34 712.25,-220.22 711.62,-209.64 705.16,-212.34"/>
</g>
<!-- Node17 -->
<g id="node17" class="node">
<title>Node17</title>
<g id="a_node17"><a xlink:href="../../df/dca/classrawspeed_1_1_tiff_entry.html#a7a9c4cb037556cd206b5a1e63f2ddce0" target="_top" xlink:title=" ">
<polygon fill="none" stroke="black" points="457,-0.5 457,-30.5 568,-30.5 568,-0.5 457,-0.5"/>
<text text-anchor="start" x="465" y="-18.5" font-family="Helvetica,sans-Serif" font-size="10.00">rawspeed::TiffEntry</text>
<text text-anchor="middle" x="512.5" y="-7.5" font-family="Helvetica,sans-Serif" font-size="10.00">::TiffEntry</text>
</a>
</g>
</g>
<!-- Node1&#45;&gt;Node17 -->
<g id="edge17" class="edge">
<title>Node1&#45;&gt;Node17</title>
<path fill="none" stroke="midnightblue" d="M712.65,-210.48C702.29,-168.35 675.37,-83.55 619,-39.5 604.57,-28.22 585.83,-22.05 568.15,-18.74"/>
<polygon fill="midnightblue" stroke="midnightblue" points="709.3,-211.51 714.99,-220.45 716.12,-209.92 709.3,-211.51"/>
</g>
<!-- Node3 -->
<g id="node3" class="node">
<title>Node3</title>
<g id="a_node3"><a xlink:href="../../de/da7/fuzz_2librawspeed_2decompressors_2_crw_decompressor_8cpp.html#a1c473c9665269a78ef9001573a6995df" target="_top" xlink:title=" ">
<polygon fill="none" stroke="black" points="203,-447 203,-466 339,-466 339,-447 203,-447"/>
<text text-anchor="middle" x="271" y="-454" font-family="Helvetica,sans-Serif" font-size="10.00">LLVMFuzzerTestOneInput</text>
</a>
</g>
</g>
<!-- Node2&#45;&gt;Node3 -->
<g id="edge2" class="edge">
<title>Node2&#45;&gt;Node3</title>
<path fill="none" stroke="midnightblue" d="M422.68,-456.5C395.05,-456.5 365.06,-456.5 339.16,-456.5"/>
<polygon fill="midnightblue" stroke="midnightblue" points="422.75,-460 432.75,-456.5 422.75,-453 422.75,-460"/>
</g>
<!-- Node7 -->
<g id="node7" class="node">
<title>Node7</title>
<g id="a_node7"><a xlink:href="../../dc/d8d/classrawspeed_1_1_samsung_v2_decompressor.html#a18991c0bbc89d84779f71104572fc94b" target="_top" xlink:title=" ">
<polygon fill="none" stroke="black" points="172,-294.5 172,-324.5 370,-324.5 370,-294.5 172,-294.5"/>
<text text-anchor="start" x="180" y="-312.5" font-family="Helvetica,sans-Serif" font-size="10.00">rawspeed::SamsungV2Decompressor</text>
<text text-anchor="middle" x="271" y="-301.5" font-family="Helvetica,sans-Serif" font-size="10.00">::decompress</text>
</a>
</g>
</g>
<!-- Node6&#45;&gt;Node7 -->
<g id="edge6" class="edge">
<title>Node6&#45;&gt;Node7</title>
<path fill="none" stroke="midnightblue" d="M403.35,-309.5C392.35,-309.5 381.22,-309.5 370.34,-309.5"/>
<polygon fill="midnightblue" stroke="midnightblue" points="403.4,-313 413.4,-309.5 403.4,-306 403.4,-313"/>
</g>
<!-- Node8 -->
<g id="node8" class="node">
<title>Node8</title>
<g id="a_node8"><a xlink:href="../../d8/d75/fuzz_2librawspeed_2decompressors_2_samsung_v2_decompressor_8cpp.html#a1c473c9665269a78ef9001573a6995df" target="_top" xlink:title=" ">
<polygon fill="none" stroke="black" points="0,-300 0,-319 136,-319 136,-300 0,-300"/>
<text text-anchor="middle" x="68" y="-307" font-family="Helvetica,sans-Serif" font-size="10.00">LLVMFuzzerTestOneInput</text>
</a>
</g>
</g>
<!-- Node7&#45;&gt;Node8 -->
<g id="edge7" class="edge">
<title>Node7&#45;&gt;Node8</title>
<path fill="none" stroke="midnightblue" d="M161.69,-309.5C153.04,-309.5 144.47,-309.5 136.24,-309.5"/>
<polygon fill="midnightblue" stroke="midnightblue" points="161.86,-313 171.86,-309.5 161.86,-306 161.86,-313"/>
</g>
<!-- Node11 -->
<g id="node11" class="node">
<title>Node11</title>
<g id="a_node11"><a xlink:href="../../de/d5f/classrawspeed_1_1_fuji_decompressor.html#abcbbb2d1df6a5e2cb8fd423386741b62" target="_top" xlink:title=" ">
<polygon fill="none" stroke="black" points="192.5,-196.5 192.5,-226.5 349.5,-226.5 349.5,-196.5 192.5,-196.5"/>
<text text-anchor="start" x="200.5" y="-214.5" font-family="Helvetica,sans-Serif" font-size="10.00">rawspeed::FujiDecompressor</text>
<text text-anchor="middle" x="271" y="-203.5" font-family="Helvetica,sans-Serif" font-size="10.00">::FujiDecompressor</text>
</a>
</g>
</g>
<!-- Node10&#45;&gt;Node11 -->
<g id="edge10" class="edge">
<title>Node10&#45;&gt;Node11</title>
<path fill="none" stroke="midnightblue" d="M423.51,-211.5C399.35,-211.5 373.32,-211.5 349.78,-211.5"/>
<polygon fill="midnightblue" stroke="midnightblue" points="423.74,-215 433.74,-211.5 423.74,-208 423.74,-215"/>
</g>
<!-- Node11&#45;&gt;Node11 -->
<g id="edge11" class="edge">
<title>Node11&#45;&gt;Node11</title>
<path fill="none" stroke="midnightblue" d="M306.89,-236.96C302.44,-241.68 290.47,-245 271,-245 239.04,-245 227.31,-236.06 235.8,-226.66"/>
<polygon fill="midnightblue" stroke="midnightblue" points="310.36,-236.4 306.2,-226.66 303.38,-236.87 310.36,-236.4"/>
</g>
<!-- Node12 -->
<g id="node12" class="node">
<title>Node12</title>
<g id="a_node12"><a xlink:href="../../da/d77/fuzz_2librawspeed_2decompressors_2_fuji_decompressor_8cpp.html#a1c473c9665269a78ef9001573a6995df" target="_top" xlink:title=" ">
<polygon fill="none" stroke="black" points="0,-202 0,-221 136,-221 136,-202 0,-202"/>
<text text-anchor="middle" x="68" y="-209" font-family="Helvetica,sans-Serif" font-size="10.00">LLVMFuzzerTestOneInput</text>
</a>
</g>
</g>
<!-- Node11&#45;&gt;Node12 -->
<g id="edge12" class="edge">
<title>Node11&#45;&gt;Node12</title>
<path fill="none" stroke="midnightblue" d="M182.19,-211.5C166.72,-211.5 150.84,-211.5 136.04,-211.5"/>
<polygon fill="midnightblue" stroke="midnightblue" points="182.29,-215 192.29,-211.5 182.29,-208 182.29,-215"/>
</g>
<!-- Node16 -->
<g id="node16" class="node">
<title>Node16</title>
<g id="a_node16"><a xlink:href="../../d5/df3/classrawspeed_1_1_pentax_decompressor.html#afa0aded04928c5d6437fea8f961785cb" target="_top" xlink:title=" ">
<polygon fill="none" stroke="black" points="184,-49.5 184,-79.5 358,-79.5 358,-49.5 184,-49.5"/>
<text text-anchor="start" x="192" y="-67.5" font-family="Helvetica,sans-Serif" font-size="10.00">rawspeed::PentaxDecompressor</text>
<text text-anchor="middle" x="271" y="-56.5" font-family="Helvetica,sans-Serif" font-size="10.00">::SetupHuffmanTable</text>
</a>
</g>
</g>
<!-- Node15&#45;&gt;Node16 -->
<g id="edge16" class="edge">
<title>Node15&#45;&gt;Node16</title>
<path fill="none" stroke="midnightblue" d="M415.28,-64.5C396.4,-64.5 376.7,-64.5 358.17,-64.5"/>
<polygon fill="midnightblue" stroke="midnightblue" points="415.37,-68 425.37,-64.5 415.37,-61 415.37,-68"/>
</g>
</g>
</svg>
        <g id="navigator" transform="translate(0 0)" fill="#404254">
                <rect fill="#f2f5e9" fill-opacity="0.5" stroke="#606060" stroke-width=".5" x="0" y="0" width="60" height="60"/>
                <use id="zoomplus" xlink:href="#zoomPlus" x="17" y="9" onmousedown="handleZoom(evt,'in')"/>
                <use id="zoomminus" xlink:href="#zoomMin" x="42" y="9" onmousedown="handleZoom(evt,'out')"/>
                <use id="reset" xlink:href="#resetDef" x="30" y="36" onmousedown="handleReset()"/>
                <g id="arrowUp" xlink:href="#dirArrow" transform="translate(30 24)" onmousedown="handlePan(0,-1)">
                  <use xlink:href="#rim" fill="#404040">
                        <set attributeName="fill" to="#808080" begin="arrowUp.mouseover" end="arrowUp.mouseout"/>
                  </use>
                  <path fill="none" stroke="white" stroke-width="1.5" d="M0,-3.0v7 M-2.5,-0.5L0,-3.0L2.5,-0.5"/>
                </g>
                <g id="arrowRight" xlink:href="#dirArrow" transform="rotate(90) translate(36 -43)" onmousedown="handlePan(1,0)">
                  <use xlink:href="#rim" fill="#404040">
                        <set attributeName="fill" to="#808080" begin="arrowRight.mouseover" end="arrowRight.mouseout"/>
                  </use>
                  <path fill="none" stroke="white" stroke-width="1.5" d="M0,-3.0v7 M-2.5,-0.5L0,-3.0L2.5,-0.5"/>
                </g>
                <g id="arrowDown" xlink:href="#dirArrow" transform="rotate(180) translate(-30 -48)" onmousedown="handlePan(0,1)">
                  <use xlink:href="#rim" fill="#404040">
                        <set attributeName="fill" to="#808080" begin="arrowDown.mouseover" end="arrowDown.mouseout"/>
                  </use>
                  <path fill="none" stroke="white" stroke-width="1.5" d="M0,-3.0v7 M-2.5,-0.5L0,-3.0L2.5,-0.5"/>
                </g>
                <g id="arrowLeft" xlink:href="#dirArrow" transform="rotate(270) translate(-36 17)" onmousedown="handlePan(-1,0)">
                  <use xlink:href="#rim" fill="#404040">
                        <set attributeName="fill" to="#808080" begin="arrowLeft.mouseover" end="arrowLeft.mouseout"/>
                  </use>
                  <path fill="none" stroke="white" stroke-width="1.5" d="M0,-3.0v7 M-2.5,-0.5L0,-3.0L2.5,-0.5"/>
                </g>
        </g>
        <svg viewBox="0 0 15 15" width="100%" height="30px" preserveAspectRatio="xMaxYMin meet">
         <g id="arrow_out" transform="scale(0.3 0.3)">
          <a xlink:href="classrawspeed_1_1_byte_stream_ab77bbfb370f041df54b9b67e0d8ff711_icgraph_org.svg" target="_base">
           <rect id="button" ry="5" rx="5" y="6" x="6" height="38" width="38"
                fill="#f2f5e9" fill-opacity="0.5" stroke="#606060" stroke-width="1.0"/>
           <path id="arrow"
             d="M 11.500037,31.436501 C 11.940474,20.09759 22.043105,11.32322 32.158766,21.979434 L 37.068811,17.246167 C 37.068811,17.246167 37.088388,32 37.088388,32 L 22.160133,31.978069 C 22.160133,31.978069 26.997745,27.140456 26.997745,27.140456 C 18.528582,18.264221 13.291696,25.230495 11.500037,31.436501 z"
             style="fill:#404040;"/>
          </a>
         </g>
        </svg>
</svg>
