<?xml version="1.0" encoding="UTF-8" standalone="no"?>
<!DOCTYPE svg PUBLIC "-//W3C//DTD SVG 1.1//EN"
 "http://www.w3.org/Graphics/SVG/1.1/DTD/svg11.dtd">
<!-- Generated by graphviz version 2.43.0 (0)
 -->
<!-- Title: rawspeed::ByteStream::setPosition Pages: 1 -->
<svg width="358pt" height="333pt"
 viewBox="0.00 0.00 358.00 333.00" xmlns="http://www.w3.org/2000/svg" xmlns:xlink="http://www.w3.org/1999/xlink">
<g id="graph0" class="graph" transform="scale(1 1) rotate(0) translate(4 329)">
<title>rawspeed::ByteStream::setPosition</title>
<!-- Node1 -->
<g id="node1" class="node">
<title>Node1</title>
<g id="a_node1"><a xlink:title=" ">
<polygon fill="#bfbfbf" stroke="black" points="222,-147.5 222,-177.5 350,-177.5 350,-147.5 222,-147.5"/>
<text text-anchor="start" x="230" y="-165.5" font-family="Helvetica,sans-Serif" font-size="10.00">rawspeed::ByteStream</text>
<text text-anchor="middle" x="286" y="-154.5" font-family="Helvetica,sans-Serif" font-size="10.00">::setPosition</text>
</a>
</g>
</g>
<!-- Node2 -->
<g id="node2" class="node">
<title>Node2</title>
<g id="a_node2"><a xlink:href="../../d7/d0b/classrawspeed_1_1_ciff_i_f_d.html#a39aeb5f86e2b8bb503ddff8cee8971f6" target="_top" xlink:title=" ">
<polygon fill="none" stroke="black" points="39,-294.5 39,-324.5 147,-324.5 147,-294.5 39,-294.5"/>
<text text-anchor="start" x="47" y="-312.5" font-family="Helvetica,sans-Serif" font-size="10.00">rawspeed::CiffIFD::</text>
<text text-anchor="middle" x="93" y="-301.5" font-family="Helvetica,sans-Serif" font-size="10.00">CiffIFD</text>
</a>
</g>
</g>
<!-- Node1&#45;&gt;Node2 -->
<g id="edge1" class="edge">
<title>Node1&#45;&gt;Node2</title>
<path fill="none" stroke="midnightblue" d="M272.18,-186.34C255.88,-214.36 225.08,-260.22 186,-285.5 174.36,-293.03 160.45,-298.2 147.02,-301.75"/>
<polygon fill="midnightblue" stroke="midnightblue" points="275.26,-188.01 277.15,-177.58 269.17,-184.56 275.26,-188.01"/>
</g>
<!-- Node3 -->
<g id="node3" class="node">
<title>Node3</title>
<g id="a_node3"><a xlink:href="../../df/d02/classrawspeed_1_1_nikon_decompressor.html#a8740abe0a9336f8065f2027105f8f98a" target="_top" xlink:title=" ">
<polygon fill="none" stroke="black" points="8.5,-245.5 8.5,-275.5 177.5,-275.5 177.5,-245.5 8.5,-245.5"/>
<text text-anchor="start" x="16.5" y="-263.5" font-family="Helvetica,sans-Serif" font-size="10.00">rawspeed::NikonDecompressor</text>
<text text-anchor="middle" x="93" y="-252.5" font-family="Helvetica,sans-Serif" font-size="10.00">::createCurve</text>
</a>
</g>
</g>
<!-- Node1&#45;&gt;Node3 -->
<g id="edge2" class="edge">
<title>Node1&#45;&gt;Node3</title>
<path fill="none" stroke="midnightblue" d="M261.21,-184.48C242.17,-200.98 214.09,-222.98 186,-236.5 179.01,-239.86 171.48,-242.8 163.86,-245.36"/>
<polygon fill="midnightblue" stroke="midnightblue" points="263.62,-187.02 268.8,-177.78 258.98,-181.78 263.62,-187.02"/>
</g>
<!-- Node4 -->
<g id="node4" class="node">
<title>Node4</title>
<g id="a_node4"><a xlink:href="../../de/df1/classrawspeed_1_1_dng_opcodes.html#a7682e3343a6fd66c00a1a75b2f2d9642" target="_top" xlink:title=" ">
<polygon fill="none" stroke="black" points="27.5,-196.5 27.5,-226.5 158.5,-226.5 158.5,-196.5 27.5,-196.5"/>
<text text-anchor="start" x="35.5" y="-214.5" font-family="Helvetica,sans-Serif" font-size="10.00">rawspeed::DngOpcodes</text>
<text text-anchor="middle" x="93" y="-203.5" font-family="Helvetica,sans-Serif" font-size="10.00">::DngOpcodes</text>
</a>
</g>
</g>
<!-- Node1&#45;&gt;Node4 -->
<g id="edge3" class="edge">
<title>Node1&#45;&gt;Node4</title>
<path fill="none" stroke="midnightblue" d="M216.59,-180.05C195.62,-185.43 172.74,-191.3 152.49,-196.49"/>
<polygon fill="midnightblue" stroke="midnightblue" points="217.58,-183.41 226.4,-177.53 215.84,-176.63 217.58,-183.41"/>
</g>
<!-- Node5 -->
<g id="node5" class="node">
<title>Node5</title>
<g id="a_node5"><a xlink:href="../../d9/d5b/classrawspeed_1_1_dng_opcodes_1_1_fix_bad_pixels_list.html#ab7bf4c8e7f4039739d0a1f520c841672" target="_top" xlink:title=" ">
<polygon fill="none" stroke="black" points="0,-147.5 0,-177.5 186,-177.5 186,-147.5 0,-147.5"/>
<text text-anchor="start" x="8" y="-165.5" font-family="Helvetica,sans-Serif" font-size="10.00">rawspeed::DngOpcodes</text>
<text text-anchor="middle" x="93" y="-154.5" font-family="Helvetica,sans-Serif" font-size="10.00">::FixBadPixelsList::FixBadPixelsList</text>
</a>
</g>
</g>
<!-- Node1&#45;&gt;Node5 -->
<g id="edge4" class="edge">
<title>Node1&#45;&gt;Node5</title>
<path fill="none" stroke="midnightblue" d="M211.78,-162.5C203.35,-162.5 194.67,-162.5 186.02,-162.5"/>
<polygon fill="midnightblue" stroke="midnightblue" points="211.93,-166 221.93,-162.5 211.93,-159 211.93,-166"/>
</g>
<!-- Node6 -->
<g id="node6" class="node">
<title>Node6</title>
<g id="a_node6"><a xlink:href="../../db/d6a/classrawspeed_1_1_tiff_i_f_d.html#a444b7e6691a709b6825ab5dd2ae4fe66" target="_top" xlink:title=" ">
<polygon fill="none" stroke="black" points="39.5,-98.5 39.5,-128.5 146.5,-128.5 146.5,-98.5 39.5,-98.5"/>
<text text-anchor="start" x="47.5" y="-116.5" font-family="Helvetica,sans-Serif" font-size="10.00">rawspeed::TiffIFD::</text>
<text text-anchor="middle" x="93" y="-105.5" font-family="Helvetica,sans-Serif" font-size="10.00">parseIFDEntry</text>
</a>
</g>
</g>
<!-- Node1&#45;&gt;Node6 -->
<g id="edge5" class="edge">
<title>Node1&#45;&gt;Node6</title>
<path fill="none" stroke="midnightblue" d="M216.68,-144.97C193.64,-139.06 168.29,-132.56 146.65,-127.01"/>
<polygon fill="midnightblue" stroke="midnightblue" points="215.84,-148.37 226.4,-147.47 217.58,-141.59 215.84,-148.37"/>
</g>
<!-- Node7 -->
<g id="node7" class="node">
<title>Node7</title>
<g id="a_node7"><a xlink:href="../../df/dca/classrawspeed_1_1_tiff_entry.html#a7a9c4cb037556cd206b5a1e63f2ddce0" target="_top" xlink:title=" ">
<polygon fill="none" stroke="black" points="37.5,-49.5 37.5,-79.5 148.5,-79.5 148.5,-49.5 37.5,-49.5"/>
<text text-anchor="start" x="45.5" y="-67.5" font-family="Helvetica,sans-Serif" font-size="10.00">rawspeed::TiffEntry</text>
<text text-anchor="middle" x="93" y="-56.5" font-family="Helvetica,sans-Serif" font-size="10.00">::TiffEntry</text>
</a>
</g>
</g>
<!-- Node1&#45;&gt;Node7 -->
<g id="edge6" class="edge">
<title>Node1&#45;&gt;Node7</title>
<path fill="none" stroke="midnightblue" d="M261.13,-140.91C242.03,-124.68 213.93,-103 186,-89.5 174.38,-83.88 161.3,-79.36 148.72,-75.8"/>
<polygon fill="midnightblue" stroke="midnightblue" points="258.88,-143.6 268.73,-147.5 263.46,-138.31 258.88,-143.6"/>
</g>
<!-- Node8 -->
<g id="node8" class="node">
<title>Node8</title>
<g id="a_node8"><a xlink:href="../../db/d6a/classrawspeed_1_1_tiff_i_f_d.html#ab0340c6df85d42ac0265e025c4092aa0" target="_top" xlink:title=" ">
<polygon fill="none" stroke="black" points="39.5,-0.5 39.5,-30.5 146.5,-30.5 146.5,-0.5 39.5,-0.5"/>
<text text-anchor="start" x="47.5" y="-18.5" font-family="Helvetica,sans-Serif" font-size="10.00">rawspeed::TiffIFD::</text>
<text text-anchor="middle" x="93" y="-7.5" font-family="Helvetica,sans-Serif" font-size="10.00">TiffIFD</text>
</a>
</g>
</g>
<!-- Node1&#45;&gt;Node8 -->
<g id="edge7" class="edge">
<title>Node1&#45;&gt;Node8</title>
<path fill="none" stroke="midnightblue" d="M271.83,-138.48C255.37,-110.72 224.61,-65.64 186,-40.5 174.21,-32.82 160.11,-27.49 146.53,-23.79"/>
<polygon fill="midnightblue" stroke="midnightblue" points="268.82,-140.26 276.85,-147.17 274.88,-136.76 268.82,-140.26"/>
</g>
</g>
</svg>
