<?xml version="1.0" encoding="UTF-8" standalone="no"?>
<!DOCTYPE svg PUBLIC "-//W3C//DTD SVG 1.1//EN"
 "http://www.w3.org/Graphics/SVG/1.1/DTD/svg11.dtd">
<!-- Generated by graphviz version 2.43.0 (0)
 -->
<!-- Title: librawspeed/common/SimpleLUT.h Pages: 1 -->
<svg width="663pt" height="151pt"
 viewBox="0.00 0.00 662.50 151.00" xmlns="http://www.w3.org/2000/svg" xmlns:xlink="http://www.w3.org/1999/xlink">
<g id="graph0" class="graph" transform="scale(1 1) rotate(0) translate(4 147)">
<title>librawspeed/common/SimpleLUT.h</title>
<!-- Node1 -->
<g id="node1" class="node">
<title>Node1</title>
<g id="a_node1"><a xlink:title=" ">
<polygon fill="#bfbfbf" stroke="black" points="369,-112.5 369,-142.5 491,-142.5 491,-112.5 369,-112.5"/>
<text text-anchor="start" x="377" y="-130.5" font-family="Helvetica,sans-Serif" font-size="10.00">librawspeed/common</text>
<text text-anchor="middle" x="430" y="-119.5" font-family="Helvetica,sans-Serif" font-size="10.00">/SimpleLUT.h</text>
</a>
</g>
</g>
<!-- Node2 -->
<g id="node2" class="node">
<title>Node2</title>
<g id="a_node2"><a xlink:href="../../d9/df5/src_2librawspeed_2common_2_common_8h.html" target="_top" xlink:title=" ">
<polygon fill="none" stroke="black" points="286,-56.5 286,-75.5 402,-75.5 402,-56.5 286,-56.5"/>
<text text-anchor="middle" x="344" y="-63.5" font-family="Helvetica,sans-Serif" font-size="10.00">common/Common.h</text>
</a>
</g>
</g>
<!-- Node1&#45;&gt;Node2 -->
<g id="edge1" class="edge">
<title>Node1&#45;&gt;Node2</title>
<path fill="none" stroke="midnightblue" d="M409.62,-112.4C396.09,-103.04 378.39,-90.79 364.78,-81.38"/>
<polygon fill="midnightblue" stroke="midnightblue" points="366.73,-78.47 356.51,-75.66 362.75,-84.23 366.73,-78.47"/>
</g>
<!-- Node3 -->
<g id="node3" class="node">
<title>Node3</title>
<g id="a_node3"><a xlink:title=" ">
<polygon fill="none" stroke="#bfbfbf" points="0,-0.5 0,-19.5 64,-19.5 64,-0.5 0,-0.5"/>
<text text-anchor="middle" x="32" y="-7.5" font-family="Helvetica,sans-Serif" font-size="10.00">algorithm</text>
</a>
</g>
</g>
<!-- Node1&#45;&gt;Node3 -->
<g id="edge11" class="edge">
<title>Node1&#45;&gt;Node3</title>
<path fill="none" stroke="midnightblue" d="M368.63,-113.15C327,-103.72 270.87,-90.26 222,-76 165.93,-59.64 101.88,-36.86 64.3,-23.06"/>
<polygon fill="midnightblue" stroke="midnightblue" points="65.48,-19.77 54.89,-19.59 63.06,-26.33 65.48,-19.77"/>
</g>
<!-- Node4 -->
<g id="node4" class="node">
<title>Node4</title>
<g id="a_node4"><a xlink:title=" ">
<polygon fill="none" stroke="#bfbfbf" points="82,-0.5 82,-19.5 134,-19.5 134,-0.5 82,-0.5"/>
<text text-anchor="middle" x="108" y="-7.5" font-family="Helvetica,sans-Serif" font-size="10.00">cassert</text>
</a>
</g>
</g>
<!-- Node1&#45;&gt;Node4 -->
<g id="edge12" class="edge">
<title>Node1&#45;&gt;Node4</title>
<path fill="none" stroke="midnightblue" d="M385.62,-112.48C354.97,-102.64 313.35,-88.98 277,-76 228.23,-58.58 172.24,-36.67 138.53,-23.25"/>
<polygon fill="midnightblue" stroke="midnightblue" points="139.8,-19.99 129.22,-19.54 137.21,-26.5 139.8,-19.99"/>
</g>
<!-- Node10 -->
<g id="node10" class="node">
<title>Node10</title>
<g id="a_node10"><a xlink:title=" ">
<polygon fill="none" stroke="#bfbfbf" points="520.5,-0.5 520.5,-19.5 589.5,-19.5 589.5,-0.5 520.5,-0.5"/>
<text text-anchor="middle" x="555" y="-7.5" font-family="Helvetica,sans-Serif" font-size="10.00">type_traits</text>
</a>
</g>
</g>
<!-- Node1&#45;&gt;Node10 -->
<g id="edge15" class="edge">
<title>Node1&#45;&gt;Node10</title>
<path fill="none" stroke="midnightblue" d="M431.45,-112.36C433.73,-96.79 439.53,-71.85 454,-56 468.95,-39.63 490.96,-28.87 510.63,-21.99"/>
<polygon fill="midnightblue" stroke="midnightblue" points="511.92,-25.25 520.35,-18.83 509.76,-18.59 511.92,-25.25"/>
</g>
<!-- Node11 -->
<g id="node11" class="node">
<title>Node11</title>
<g id="a_node11"><a xlink:title=" ">
<polygon fill="none" stroke="#bfbfbf" points="607.5,-0.5 607.5,-19.5 654.5,-19.5 654.5,-0.5 607.5,-0.5"/>
<text text-anchor="middle" x="631" y="-7.5" font-family="Helvetica,sans-Serif" font-size="10.00">vector</text>
</a>
</g>
</g>
<!-- Node1&#45;&gt;Node11 -->
<g id="edge16" class="edge">
<title>Node1&#45;&gt;Node11</title>
<path fill="none" stroke="midnightblue" d="M438.2,-112.23C448.06,-96.3 466.06,-70.81 488,-56 497.25,-49.76 558.33,-31.67 597.61,-20.42"/>
<polygon fill="midnightblue" stroke="midnightblue" points="598.67,-23.76 607.33,-17.65 596.75,-17.03 598.67,-23.76"/>
</g>
<!-- Node12 -->
<g id="node12" class="node">
<title>Node12</title>
<g id="a_node12"><a xlink:title=" ">
<polygon fill="none" stroke="#bfbfbf" points="496.5,-56.5 496.5,-75.5 561.5,-75.5 561.5,-56.5 496.5,-56.5"/>
<text text-anchor="middle" x="529" y="-63.5" font-family="Helvetica,sans-Serif" font-size="10.00">functional</text>
</a>
</g>
</g>
<!-- Node1&#45;&gt;Node12 -->
<g id="edge13" class="edge">
<title>Node1&#45;&gt;Node12</title>
<path fill="none" stroke="midnightblue" d="M453.46,-112.4C469.33,-102.86 490.19,-90.32 505.97,-80.84"/>
<polygon fill="midnightblue" stroke="midnightblue" points="507.83,-83.81 514.59,-75.66 504.22,-77.81 507.83,-83.81"/>
</g>
<!-- Node13 -->
<g id="node13" class="node">
<title>Node13</title>
<g id="a_node13"><a xlink:title=" ">
<polygon fill="none" stroke="#bfbfbf" points="579.5,-56.5 579.5,-75.5 632.5,-75.5 632.5,-56.5 579.5,-56.5"/>
<text text-anchor="middle" x="606" y="-63.5" font-family="Helvetica,sans-Serif" font-size="10.00">iterator</text>
</a>
</g>
</g>
<!-- Node1&#45;&gt;Node13 -->
<g id="edge14" class="edge">
<title>Node1&#45;&gt;Node13</title>
<path fill="none" stroke="midnightblue" d="M471.71,-112.4C501.99,-102.16 542.49,-88.47 571.07,-78.81"/>
<polygon fill="midnightblue" stroke="midnightblue" points="572.3,-82.09 580.65,-75.57 570.05,-75.46 572.3,-82.09"/>
</g>
<!-- Node2&#45;&gt;Node3 -->
<g id="edge2" class="edge">
<title>Node2&#45;&gt;Node3</title>
<path fill="none" stroke="midnightblue" d="M287.53,-56.49C234.86,-48.36 153.86,-35.35 74.38,-20.19"/>
<polygon fill="midnightblue" stroke="midnightblue" points="74.68,-16.68 64.2,-18.23 73.36,-23.56 74.68,-16.68"/>
</g>
<!-- Node2&#45;&gt;Node4 -->
<g id="edge3" class="edge">
<title>Node2&#45;&gt;Node4</title>
<path fill="none" stroke="midnightblue" d="M304.25,-56.49C265.7,-48.15 205.33,-34.85 144.17,-20.23"/>
<polygon fill="midnightblue" stroke="midnightblue" points="144.89,-16.8 134.35,-17.87 143.26,-23.61 144.89,-16.8"/>
</g>
<!-- Node5 -->
<g id="node5" class="node">
<title>Node5</title>
<g id="a_node5"><a xlink:title=" ">
<polygon fill="none" stroke="#bfbfbf" points="384,-0.5 384,-19.5 434,-19.5 434,-0.5 384,-0.5"/>
<text text-anchor="middle" x="409" y="-7.5" font-family="Helvetica,sans-Serif" font-size="10.00">climits</text>
</a>
</g>
</g>
<!-- Node2&#45;&gt;Node5 -->
<g id="edge4" class="edge">
<title>Node2&#45;&gt;Node5</title>
<path fill="none" stroke="midnightblue" d="M354.44,-56.32C364.15,-48.26 378.82,-36.08 390.5,-26.37"/>
<polygon fill="midnightblue" stroke="midnightblue" points="392.91,-28.92 398.37,-19.83 388.44,-23.53 392.91,-28.92"/>
</g>
<!-- Node6 -->
<g id="node6" class="node">
<title>Node6</title>
<g id="a_node6"><a xlink:title=" ">
<polygon fill="none" stroke="#bfbfbf" points="452,-0.5 452,-19.5 502,-19.5 502,-0.5 452,-0.5"/>
<text text-anchor="middle" x="477" y="-7.5" font-family="Helvetica,sans-Serif" font-size="10.00">cstdint</text>
</a>
</g>
</g>
<!-- Node2&#45;&gt;Node6 -->
<g id="edge5" class="edge">
<title>Node2&#45;&gt;Node6</title>
<path fill="none" stroke="midnightblue" d="M365.07,-56.44C387.06,-47.52 421.73,-33.44 446.66,-23.32"/>
<polygon fill="midnightblue" stroke="midnightblue" points="448.08,-26.52 456.02,-19.52 445.44,-20.04 448.08,-26.52"/>
</g>
<!-- Node7 -->
<g id="node7" class="node">
<title>Node7</title>
<g id="a_node7"><a xlink:title=" ">
<polygon fill="none" stroke="#bfbfbf" points="152,-0.5 152,-19.5 202,-19.5 202,-0.5 152,-0.5"/>
<text text-anchor="middle" x="177" y="-7.5" font-family="Helvetica,sans-Serif" font-size="10.00">cstring</text>
</a>
</g>
</g>
<!-- Node2&#45;&gt;Node7 -->
<g id="edge6" class="edge">
<title>Node2&#45;&gt;Node7</title>
<path fill="none" stroke="midnightblue" d="M317.54,-56.44C288.99,-47.21 243.4,-32.47 211.93,-22.29"/>
<polygon fill="midnightblue" stroke="midnightblue" points="212.84,-18.91 202.24,-19.16 210.68,-25.57 212.84,-18.91"/>
</g>
<!-- Node8 -->
<g id="node8" class="node">
<title>Node8</title>
<g id="a_node8"><a xlink:title=" ">
<polygon fill="none" stroke="#bfbfbf" points="220.5,-0.5 220.5,-19.5 303.5,-19.5 303.5,-0.5 220.5,-0.5"/>
<text text-anchor="middle" x="262" y="-7.5" font-family="Helvetica,sans-Serif" font-size="10.00">initializer_list</text>
</a>
</g>
</g>
<!-- Node2&#45;&gt;Node8 -->
<g id="edge7" class="edge">
<title>Node2&#45;&gt;Node8</title>
<path fill="none" stroke="midnightblue" d="M330.83,-56.32C318.15,-47.98 298.77,-35.21 283.79,-25.35"/>
<polygon fill="midnightblue" stroke="midnightblue" points="285.42,-22.23 275.14,-19.65 281.57,-28.08 285.42,-22.23"/>
</g>
<!-- Node9 -->
<g id="node9" class="node">
<title>Node9</title>
<g id="a_node9"><a xlink:title=" ">
<polygon fill="none" stroke="#bfbfbf" points="322,-0.5 322,-19.5 366,-19.5 366,-0.5 322,-0.5"/>
<text text-anchor="middle" x="344" y="-7.5" font-family="Helvetica,sans-Serif" font-size="10.00">string</text>
</a>
</g>
</g>
<!-- Node2&#45;&gt;Node9 -->
<g id="edge8" class="edge">
<title>Node2&#45;&gt;Node9</title>
<path fill="none" stroke="midnightblue" d="M344,-56.08C344,-49.01 344,-38.86 344,-29.99"/>
<polygon fill="midnightblue" stroke="midnightblue" points="347.5,-29.75 344,-19.75 340.5,-29.75 347.5,-29.75"/>
</g>
<!-- Node2&#45;&gt;Node10 -->
<g id="edge9" class="edge">
<title>Node2&#45;&gt;Node10</title>
<path fill="none" stroke="midnightblue" d="M377.43,-56.44C413.86,-47.12 472.23,-32.18 512.03,-22"/>
<polygon fill="midnightblue" stroke="midnightblue" points="512.9,-25.39 521.72,-19.52 511.17,-18.61 512.9,-25.39"/>
</g>
<!-- Node2&#45;&gt;Node11 -->
<g id="edge10" class="edge">
<title>Node2&#45;&gt;Node11</title>
<path fill="none" stroke="midnightblue" d="M401.8,-56.48C451.37,-48.79 524.87,-36.5 597.12,-20.27"/>
<polygon fill="midnightblue" stroke="midnightblue" points="598.33,-23.58 607.3,-17.95 596.77,-16.75 598.33,-23.58"/>
</g>
</g>
</svg>
