<?xml version="1.0" encoding="UTF-8" standalone="no"?>
<!DOCTYPE svg PUBLIC "-//W3C//DTD SVG 1.1//EN"
 "http://www.w3.org/Graphics/SVG/1.1/DTD/svg11.dtd">
<!-- Generated by graphviz version 2.43.0 (0)
 -->
<!-- Title: librawspeed/tiff/TiffEntry.cpp Pages: 1 -->
<!--zoomable 476 -->
<svg id="main" version="1.1" xmlns="http://www.w3.org/2000/svg" xmlns:xlink="http://www.w3.org/1999/xlink" xml:space="preserve" onload="init(evt)">
<style type="text/css"><![CDATA[
.edge:hover path { stroke: red; }
.edge:hover polygon { stroke: red; fill: red; }
]]></style>
<script type="text/javascript"><![CDATA[
var edges = document.getElementsByTagName('g');
if (edges && edges.length) {
  for (var i=0;i<edges.length;i++) {
    if (edges[i].id.substr(0,4)=='edge') {
      edges[i].setAttribute('class','edge');
    }
  }
}
]]></script>
        <defs>
                <circle id="rim" cx="0" cy="0" r="7"/>
                <circle id="rim2" cx="0" cy="0" r="3.5"/>
                <g id="zoomPlus">
                        <use xlink:href="#rim" fill="#404040">
                                <set attributeName="fill" to="#808080" begin="zoomplus.mouseover" end="zoomplus.mouseout"/>
                        </use>
                        <path d="M-4,0h8M0,-4v8" fill="none" stroke="white" stroke-width="1.5" pointer-events="none"/>
                </g>
                <g id="zoomMin">
                        <use xlink:href="#rim" fill="#404040">
                                <set attributeName="fill" to="#808080" begin="zoomminus.mouseover" end="zoomminus.mouseout"/>
                        </use>
                        <path d="M-4,0h8" fill="none" stroke="white" stroke-width="1.5" pointer-events="none"/>
                </g>
                <g id="dirArrow">
                        <path fill="none" stroke="white" stroke-width="1.5" d="M0,-3.0v7 M-2.5,-0.5L0,-3.0L2.5,-0.5"/>
                </g>
               <g id="resetDef">
                       <use xlink:href="#rim2" fill="#404040">
                               <set attributeName="fill" to="#808080" begin="reset.mouseover" end="reset.mouseout"/>
                       </use>
               </g>
        </defs>

<script type="text/javascript">
var viewWidth = 1740;
var viewHeight = 476;
var sectionId = 'dynsection-0';
</script>
<script xlink:href="../../svgpan.js"/>
<svg id="graph" class="graph">
<g id="viewport">
<title>librawspeed/tiff/TiffEntry.cpp</title>
<!-- Node1 -->
<g id="node1" class="node">
<title>Node1</title>
<g id="a_node1"><a xlink:title=" ">
<polygon fill="#bfbfbf" stroke="black" points="1258.53,-448.5 1258.53,-467.5 1413.53,-467.5 1413.53,-448.5 1258.53,-448.5"/>
<text text-anchor="middle" x="1336.03" y="-455.5" font-family="Helvetica,sans-Serif" font-size="10.00">librawspeed/tiff/TiffEntry.cpp</text>
</a>
</g>
</g>
<!-- Node2 -->
<g id="node2" class="node">
<title>Node2</title>
<g id="a_node2"><a xlink:href="../../de/da5/_tiff_entry_8h.html" target="_top" xlink:title=" ">
<polygon fill="none" stroke="black" points="1368.03,-336.5 1368.03,-355.5 1450.03,-355.5 1450.03,-336.5 1368.03,-336.5"/>
<text text-anchor="middle" x="1409.03" y="-343.5" font-family="Helvetica,sans-Serif" font-size="10.00">tiff/TiffEntry.h</text>
</a>
</g>
</g>
<!-- Node1&#45;&gt;Node2 -->
<g id="edge1" class="edge">
<title>Node1&#45;&gt;Node2</title>
<path fill="none" stroke="midnightblue" d="M1341.75,-448.37C1353.8,-430.22 1381.95,-387.8 1397.75,-363.99"/>
<polygon fill="midnightblue" stroke="midnightblue" points="1400.71,-365.86 1403.32,-355.59 1394.88,-361.99 1400.71,-365.86"/>
</g>
<!-- Node6 -->
<g id="node6" class="node">
<title>Node6</title>
<g id="a_node6"><a xlink:href="../../d9/df5/src_2librawspeed_2common_2_common_8h.html" target="_top" xlink:title=" ">
<polygon fill="none" stroke="black" points="1192.03,-56.5 1192.03,-75.5 1308.03,-75.5 1308.03,-56.5 1192.03,-56.5"/>
<text text-anchor="middle" x="1250.03" y="-63.5" font-family="Helvetica,sans-Serif" font-size="10.00">common/Common.h</text>
</a>
</g>
</g>
<!-- Node1&#45;&gt;Node6 -->
<g id="edge51" class="edge">
<title>Node1&#45;&gt;Node6</title>
<path fill="none" stroke="midnightblue" d="M1330.74,-448.23C1320.3,-430.04 1298.03,-386.6 1298.03,-347 1298.03,-347 1298.03,-347 1298.03,-177 1298.03,-141.58 1276.87,-104.71 1262.65,-83.92"/>
<polygon fill="midnightblue" stroke="midnightblue" points="1265.35,-81.68 1256.7,-75.56 1259.65,-85.74 1265.35,-81.68"/>
</g>
<!-- Node8 -->
<g id="node8" class="node">
<title>Node8</title>
<g id="a_node8"><a xlink:title=" ">
<polygon fill="none" stroke="#bfbfbf" points="479.03,-0.5 479.03,-19.5 531.03,-19.5 531.03,-0.5 479.03,-0.5"/>
<text text-anchor="middle" x="505.03" y="-7.5" font-family="Helvetica,sans-Serif" font-size="10.00">cassert</text>
</a>
</g>
</g>
<!-- Node1&#45;&gt;Node8 -->
<g id="edge78" class="edge">
<title>Node1&#45;&gt;Node8</title>
<path fill="none" stroke="midnightblue" d="M1258.42,-454.7C973.29,-445.76 0.03,-410.56 0.03,-347 0.03,-347 0.03,-347 0.03,-121 0.03,-90.2 -0.39,-74.76 24.03,-56 59.07,-29.07 362.43,-15.98 468.56,-12.2"/>
<polygon fill="midnightblue" stroke="midnightblue" points="468.9,-15.69 478.77,-11.84 468.66,-8.69 468.9,-15.69"/>
</g>
<!-- Node10 -->
<g id="node10" class="node">
<title>Node10</title>
<g id="a_node10"><a xlink:title=" ">
<polygon fill="none" stroke="#bfbfbf" points="1041.03,-0.5 1041.03,-19.5 1091.03,-19.5 1091.03,-0.5 1041.03,-0.5"/>
<text text-anchor="middle" x="1066.03" y="-7.5" font-family="Helvetica,sans-Serif" font-size="10.00">cstdint</text>
</a>
</g>
</g>
<!-- Node1&#45;&gt;Node10 -->
<g id="edge79" class="edge">
<title>Node1&#45;&gt;Node10</title>
<path fill="none" stroke="midnightblue" d="M1337,-448.35C1342.75,-395.52 1370.24,-116.63 1317.03,-56 1289.21,-24.31 1163.83,-14.87 1101.47,-12.11"/>
<polygon fill="midnightblue" stroke="midnightblue" points="1101.44,-8.6 1091.31,-11.69 1101.16,-15.6 1101.44,-8.6"/>
</g>
<!-- Node11 -->
<g id="node11" class="node">
<title>Node11</title>
<g id="a_node11"><a xlink:title=" ">
<polygon fill="none" stroke="#bfbfbf" points="1338.03,-0.5 1338.03,-19.5 1388.03,-19.5 1388.03,-0.5 1338.03,-0.5"/>
<text text-anchor="middle" x="1363.03" y="-7.5" font-family="Helvetica,sans-Serif" font-size="10.00">cstring</text>
</a>
</g>
</g>
<!-- Node1&#45;&gt;Node11 -->
<g id="edge80" class="edge">
<title>Node1&#45;&gt;Node11</title>
<path fill="none" stroke="midnightblue" d="M1372.15,-448.47C1432.87,-431.89 1553.25,-388.88 1599.03,-300 1603.1,-292.1 1602.16,-288.32 1599.03,-280 1554.62,-162.04 1432.38,-62.11 1383.56,-25.71"/>
<polygon fill="midnightblue" stroke="midnightblue" points="1385.47,-22.76 1375.34,-19.66 1381.32,-28.4 1385.47,-22.76"/>
</g>
<!-- Node12 -->
<g id="node12" class="node">
<title>Node12</title>
<g id="a_node12"><a xlink:title=" ">
<polygon fill="none" stroke="#bfbfbf" points="1516.53,-0.5 1516.53,-19.5 1599.53,-19.5 1599.53,-0.5 1516.53,-0.5"/>
<text text-anchor="middle" x="1558.03" y="-7.5" font-family="Helvetica,sans-Serif" font-size="10.00">initializer_list</text>
</a>
</g>
</g>
<!-- Node1&#45;&gt;Node12 -->
<g id="edge81" class="edge">
<title>Node1&#45;&gt;Node12</title>
<path fill="none" stroke="midnightblue" d="M1390.76,-448.44C1463.74,-433.48 1586.9,-394.57 1614.03,-300 1642.91,-199.28 1589.61,-74.52 1567.24,-28.83"/>
<polygon fill="midnightblue" stroke="midnightblue" points="1570.24,-27.01 1562.63,-19.64 1563.98,-30.15 1570.24,-27.01"/>
</g>
<!-- Node13 -->
<g id="node13" class="node">
<title>Node13</title>
<g id="a_node13"><a xlink:title=" ">
<polygon fill="none" stroke="#bfbfbf" points="1618.03,-0.5 1618.03,-19.5 1662.03,-19.5 1662.03,-0.5 1618.03,-0.5"/>
<text text-anchor="middle" x="1640.03" y="-7.5" font-family="Helvetica,sans-Serif" font-size="10.00">string</text>
</a>
</g>
</g>
<!-- Node1&#45;&gt;Node13 -->
<g id="edge82" class="edge">
<title>Node1&#45;&gt;Node13</title>
<path fill="none" stroke="midnightblue" d="M1413.79,-451.24C1529.12,-440.52 1732.03,-412.38 1732.03,-347 1732.03,-347 1732.03,-347 1732.03,-121 1732.03,-78.5 1691.12,-43.77 1663.86,-25.34"/>
<polygon fill="midnightblue" stroke="midnightblue" points="1665.51,-22.24 1655.22,-19.73 1661.7,-28.11 1665.51,-22.24"/>
</g>
<!-- Node27 -->
<g id="node27" class="node">
<title>Node27</title>
<g id="a_node27"><a xlink:title=" ">
<polygon fill="none" stroke="#bfbfbf" points="590.53,-168.5 590.53,-187.5 635.53,-187.5 635.53,-168.5 590.53,-168.5"/>
<text text-anchor="middle" x="613.03" y="-175.5" font-family="Helvetica,sans-Serif" font-size="10.00">utility</text>
</a>
</g>
</g>
<!-- Node1&#45;&gt;Node27 -->
<g id="edge83" class="edge">
<title>Node1&#45;&gt;Node27</title>
<path fill="none" stroke="midnightblue" d="M1258.47,-453.05C1073.94,-442.61 624.03,-410.63 624.03,-347 624.03,-347 624.03,-347 624.03,-289 624.03,-256.79 619.3,-219.53 616.04,-197.69"/>
<polygon fill="midnightblue" stroke="midnightblue" points="619.46,-196.87 614.46,-187.53 612.54,-197.95 619.46,-196.87"/>
</g>
<!-- Node29 -->
<g id="node29" class="node">
<title>Node29</title>
<g id="a_node29"><a xlink:href="../../d0/d6b/_tiff_tag_8h.html" target="_top" xlink:title=" ">
<polygon fill="none" stroke="black" points="1516.03,-280.5 1516.03,-299.5 1590.03,-299.5 1590.03,-280.5 1516.03,-280.5"/>
<text text-anchor="middle" x="1553.03" y="-287.5" font-family="Helvetica,sans-Serif" font-size="10.00">tiff/TiffTag.h</text>
</a>
</g>
</g>
<!-- Node1&#45;&gt;Node29 -->
<g id="edge77" class="edge">
<title>Node1&#45;&gt;Node29</title>
<path fill="none" stroke="midnightblue" d="M1351.94,-448.41C1381.17,-432.28 1444.73,-395.5 1492.03,-356 1509.93,-341.05 1527.89,-321.17 1539.64,-307.35"/>
<polygon fill="midnightblue" stroke="midnightblue" points="1542.37,-309.55 1546.1,-299.63 1537,-305.06 1542.37,-309.55"/>
</g>
<!-- Node30 -->
<g id="node30" class="node">
<title>Node30</title>
<g id="a_node30"><a xlink:href="../../d3/df4/_tiff_parser_exception_8h.html" target="_top" xlink:title=" ">
<polygon fill="none" stroke="black" points="110.03,-224.5 110.03,-243.5 268.03,-243.5 268.03,-224.5 110.03,-224.5"/>
<text text-anchor="middle" x="189.03" y="-231.5" font-family="Helvetica,sans-Serif" font-size="10.00">parsers/TiffParserException.h</text>
</a>
</g>
</g>
<!-- Node1&#45;&gt;Node30 -->
<g id="edge52" class="edge">
<title>Node1&#45;&gt;Node30</title>
<path fill="none" stroke="midnightblue" d="M1258.43,-456.86C1125.07,-455.58 844.16,-448.34 610.03,-412 509.05,-396.33 484.46,-386.8 387.03,-356 320.76,-335.05 297.14,-341.01 241.03,-300 223.42,-287.13 208.49,-266.84 199.21,-252.35"/>
<polygon fill="midnightblue" stroke="midnightblue" points="202.18,-250.49 193.96,-243.81 196.22,-254.16 202.18,-250.49"/>
</g>
<!-- Node32 -->
<g id="node32" class="node">
<title>Node32</title>
<g id="a_node32"><a xlink:href="../../db/d5e/_tiff_i_f_d_8h.html" target="_top" xlink:title=" ">
<polygon fill="none" stroke="black" points="893.03,-392.5 893.03,-411.5 967.03,-411.5 967.03,-392.5 893.03,-392.5"/>
<text text-anchor="middle" x="930.03" y="-399.5" font-family="Helvetica,sans-Serif" font-size="10.00">tiff/TiffIFD.h</text>
</a>
</g>
</g>
<!-- Node1&#45;&gt;Node32 -->
<g id="edge58" class="edge">
<title>Node1&#45;&gt;Node32</title>
<path fill="none" stroke="midnightblue" d="M1271.69,-448.44C1189.75,-437.54 1050.07,-418.97 977.28,-409.29"/>
<polygon fill="midnightblue" stroke="midnightblue" points="977.42,-405.77 967.04,-407.92 976.49,-412.71 977.42,-405.77"/>
</g>
<!-- Node3 -->
<g id="node3" class="node">
<title>Node3</title>
<g id="a_node3"><a xlink:href="../../d7/de7/_byte_stream_8h.html" target="_top" xlink:title=" ">
<polygon fill="none" stroke="black" points="1056.53,-280.5 1056.53,-299.5 1151.53,-299.5 1151.53,-280.5 1056.53,-280.5"/>
<text text-anchor="middle" x="1104.03" y="-287.5" font-family="Helvetica,sans-Serif" font-size="10.00">io/ByteStream.h</text>
</a>
</g>
</g>
<!-- Node2&#45;&gt;Node3 -->
<g id="edge2" class="edge">
<title>Node2&#45;&gt;Node3</title>
<path fill="none" stroke="midnightblue" d="M1367.89,-337.72C1314.79,-328.31 1222.06,-311.9 1161.87,-301.24"/>
<polygon fill="midnightblue" stroke="midnightblue" points="1162.22,-297.75 1151.77,-299.45 1161,-304.64 1162.22,-297.75"/>
</g>
<!-- Node2&#45;&gt;Node10 -->
<g id="edge48" class="edge">
<title>Node2&#45;&gt;Node10</title>
<path fill="none" stroke="midnightblue" d="M1410.42,-336.26C1416.13,-296.87 1433.74,-134.42 1350.03,-56 1332.06,-39.17 1173.1,-21.55 1101.14,-14.36"/>
<polygon fill="midnightblue" stroke="midnightblue" points="1101.48,-10.87 1091.19,-13.37 1100.79,-17.84 1101.48,-10.87"/>
</g>
<!-- Node2&#45;&gt;Node13 -->
<g id="edge49" class="edge">
<title>Node2&#45;&gt;Node13</title>
<path fill="none" stroke="midnightblue" d="M1419.44,-336.33C1429.46,-327.71 1444.71,-313.8 1456.03,-300 1533.89,-205.09 1605.8,-75.37 1630.75,-28.66"/>
<polygon fill="midnightblue" stroke="midnightblue" points="1633.99,-30.01 1635.58,-19.54 1627.81,-26.73 1633.99,-30.01"/>
</g>
<!-- Node15 -->
<g id="node15" class="node">
<title>Node15</title>
<g id="a_node15"><a xlink:title=" ">
<polygon fill="none" stroke="#bfbfbf" points="1451.53,-0.5 1451.53,-19.5 1498.53,-19.5 1498.53,-0.5 1451.53,-0.5"/>
<text text-anchor="middle" x="1475.03" y="-7.5" font-family="Helvetica,sans-Serif" font-size="10.00">vector</text>
</a>
</g>
</g>
<!-- Node2&#45;&gt;Node15 -->
<g id="edge50" class="edge">
<title>Node2&#45;&gt;Node15</title>
<path fill="none" stroke="midnightblue" d="M1414.83,-336.17C1432.94,-307.94 1488.03,-216.8 1502.03,-132 1507.53,-98.67 1511.04,-88.55 1502.03,-56 1499.23,-45.92 1493.52,-35.83 1488.06,-27.77"/>
<polygon fill="midnightblue" stroke="midnightblue" points="1490.87,-25.69 1482.18,-19.64 1485.2,-29.79 1490.87,-25.69"/>
</g>
<!-- Node22 -->
<g id="node22" class="node">
<title>Node22</title>
<g id="a_node22"><a xlink:title=" ">
<polygon fill="none" stroke="#bfbfbf" points="372.03,-56.5 372.03,-75.5 414.03,-75.5 414.03,-56.5 372.03,-56.5"/>
<text text-anchor="middle" x="393.03" y="-63.5" font-family="Helvetica,sans-Serif" font-size="10.00">array</text>
</a>
</g>
</g>
<!-- Node2&#45;&gt;Node22 -->
<g id="edge47" class="edge">
<title>Node2&#45;&gt;Node22</title>
<path fill="none" stroke="midnightblue" d="M1367.75,-344.11C1195.45,-340.24 538.5,-324.05 449.03,-300 374.07,-279.85 331.76,-263.79 315.03,-188 313.11,-179.32 311.22,-176.03 315.03,-168 325.85,-145.17 343.07,-151.59 359.03,-132 370.69,-117.68 380.05,-98.72 385.97,-84.98"/>
<polygon fill="midnightblue" stroke="midnightblue" points="389.24,-86.23 389.81,-75.65 382.77,-83.56 389.24,-86.23"/>
</g>
<!-- Node2&#45;&gt;Node29 -->
<g id="edge46" class="edge">
<title>Node2&#45;&gt;Node29</title>
<path fill="none" stroke="midnightblue" d="M1431.84,-336.44C1455.86,-327.44 1493.86,-313.19 1520.9,-303.05"/>
<polygon fill="midnightblue" stroke="midnightblue" points="1522.18,-306.3 1530.32,-299.52 1519.72,-299.75 1522.18,-306.3"/>
</g>
<!-- Node4 -->
<g id="node4" class="node">
<title>Node4</title>
<g id="a_node4"><a xlink:href="../../d2/d4f/_address_sanitizer_8h.html" target="_top" xlink:title=" ">
<polygon fill="none" stroke="black" points="1086.53,-168.5 1086.53,-187.5 1193.53,-187.5 1193.53,-168.5 1086.53,-168.5"/>
<text text-anchor="middle" x="1140.03" y="-175.5" font-family="Helvetica,sans-Serif" font-size="10.00">AddressSanitizer.h</text>
</a>
</g>
</g>
<!-- Node3&#45;&gt;Node4 -->
<g id="edge3" class="edge">
<title>Node3&#45;&gt;Node4</title>
<path fill="none" stroke="midnightblue" d="M1106.39,-280.1C1109.8,-267.52 1116.39,-243.85 1123.03,-224 1126.01,-215.08 1129.66,-205.3 1132.81,-197.14"/>
<polygon fill="midnightblue" stroke="midnightblue" points="1136.18,-198.14 1136.57,-187.56 1129.66,-195.59 1136.18,-198.14"/>
</g>
<!-- Node3&#45;&gt;Node6 -->
<g id="edge5" class="edge">
<title>Node3&#45;&gt;Node6</title>
<path fill="none" stroke="midnightblue" d="M1151.83,-285.54C1180.89,-280.75 1216.12,-269.62 1236.03,-244 1272.55,-197 1261.94,-120.2 1254.52,-85.29"/>
<polygon fill="midnightblue" stroke="midnightblue" points="1257.93,-84.49 1252.29,-75.52 1251.1,-86.05 1257.93,-84.49"/>
</g>
<!-- Node3&#45;&gt;Node8 -->
<g id="edge42" class="edge">
<title>Node3&#45;&gt;Node8</title>
<path fill="none" stroke="midnightblue" d="M1056.12,-288.72C915.77,-287.47 512.56,-280.7 467.03,-244 443.59,-225.11 448.03,-209.1 448.03,-179 448.03,-179 448.03,-179 448.03,-121 448.03,-84.3 473.35,-47.66 490.24,-27.3"/>
<polygon fill="midnightblue" stroke="midnightblue" points="492.98,-29.48 496.86,-19.62 487.68,-24.9 492.98,-29.48"/>
</g>
<!-- Node3&#45;&gt;Node10 -->
<g id="edge43" class="edge">
<title>Node3&#45;&gt;Node10</title>
<path fill="none" stroke="midnightblue" d="M1130.13,-280.45C1147.98,-273.34 1170.88,-261.52 1185.03,-244 1206.77,-217.07 1211.99,-201.15 1202.03,-168 1182.78,-103.96 1120.06,-50.32 1086.95,-25.61"/>
<polygon fill="midnightblue" stroke="midnightblue" points="1088.97,-22.76 1078.83,-19.7 1084.85,-28.42 1088.97,-22.76"/>
</g>
<!-- Node3&#45;&gt;Node11 -->
<g id="edge44" class="edge">
<title>Node3&#45;&gt;Node11</title>
<path fill="none" stroke="midnightblue" d="M1151.53,-284.19C1183.63,-278.85 1225.4,-267.61 1255.03,-244 1322.11,-190.54 1320.13,-156.4 1350.03,-76 1355.61,-60.98 1358.97,-43.08 1360.86,-29.86"/>
<polygon fill="midnightblue" stroke="midnightblue" points="1364.37,-30.02 1362.18,-19.65 1357.43,-29.12 1364.37,-30.02"/>
</g>
<!-- Node16 -->
<g id="node16" class="node">
<title>Node16</title>
<g id="a_node16"><a xlink:href="../../d3/de6/_memory_8h.html" target="_top" xlink:title=" ">
<polygon fill="none" stroke="black" points="958.03,-168.5 958.03,-187.5 1068.03,-187.5 1068.03,-168.5 958.03,-168.5"/>
<text text-anchor="middle" x="1013.03" y="-175.5" font-family="Helvetica,sans-Serif" font-size="10.00">common/Memory.h</text>
</a>
</g>
</g>
<!-- Node3&#45;&gt;Node16 -->
<g id="edge15" class="edge">
<title>Node3&#45;&gt;Node16</title>
<path fill="none" stroke="midnightblue" d="M1096.89,-280.37C1081.74,-262.05 1046.16,-219.05 1026.56,-195.36"/>
<polygon fill="midnightblue" stroke="midnightblue" points="1029.2,-193.07 1020.13,-187.59 1023.81,-197.53 1029.2,-193.07"/>
</g>
<!-- Node18 -->
<g id="node18" class="node">
<title>Node18</title>
<g id="a_node18"><a xlink:href="../../d7/d1b/_buffer_8h.html" target="_top" xlink:title=" ">
<polygon fill="none" stroke="black" points="821.03,-224.5 821.03,-243.5 887.03,-243.5 887.03,-224.5 821.03,-224.5"/>
<text text-anchor="middle" x="854.03" y="-231.5" font-family="Helvetica,sans-Serif" font-size="10.00">io/Buffer.h</text>
</a>
</g>
</g>
<!-- Node3&#45;&gt;Node18 -->
<g id="edge20" class="edge">
<title>Node3&#45;&gt;Node18</title>
<path fill="none" stroke="midnightblue" d="M1064.41,-280.44C1018.75,-270.58 943.96,-254.43 896.95,-244.27"/>
<polygon fill="midnightblue" stroke="midnightblue" points="897.58,-240.83 887.07,-242.14 896.1,-247.67 897.58,-240.83"/>
</g>
<!-- Node20 -->
<g id="node20" class="node">
<title>Node20</title>
<g id="a_node20"><a xlink:href="../../d0/dd8/_i_o_exception_8h.html" target="_top" xlink:title=" ">
<polygon fill="none" stroke="black" points="324.03,-168.5 324.03,-187.5 420.03,-187.5 420.03,-168.5 324.03,-168.5"/>
<text text-anchor="middle" x="372.03" y="-175.5" font-family="Helvetica,sans-Serif" font-size="10.00">io/IOException.h</text>
</a>
</g>
</g>
<!-- Node3&#45;&gt;Node20 -->
<g id="edge41" class="edge">
<title>Node3&#45;&gt;Node20</title>
<path fill="none" stroke="midnightblue" d="M1056.41,-287.79C912.74,-283.87 489.98,-270.21 434.03,-244 412.04,-233.7 393.86,-211.89 383,-196.38"/>
<polygon fill="midnightblue" stroke="midnightblue" points="385.67,-194.07 377.21,-187.69 379.84,-197.95 385.67,-194.07"/>
</g>
<!-- Node28 -->
<g id="node28" class="node">
<title>Node28</title>
<g id="a_node28"><a xlink:title=" ">
<polygon fill="none" stroke="#bfbfbf" points="1132.03,-224.5 1132.03,-243.5 1176.03,-243.5 1176.03,-224.5 1132.03,-224.5"/>
<text text-anchor="middle" x="1154.03" y="-231.5" font-family="Helvetica,sans-Serif" font-size="10.00">limits</text>
</a>
</g>
</g>
<!-- Node3&#45;&gt;Node28 -->
<g id="edge45" class="edge">
<title>Node3&#45;&gt;Node28</title>
<path fill="none" stroke="midnightblue" d="M1112.28,-280.08C1119.49,-272.3 1130.14,-260.8 1138.87,-251.37"/>
<polygon fill="midnightblue" stroke="midnightblue" points="1141.7,-253.47 1145.92,-243.75 1136.56,-248.71 1141.7,-253.47"/>
</g>
<!-- Node5 -->
<g id="node5" class="node">
<title>Node5</title>
<g id="a_node5"><a xlink:title=" ">
<polygon fill="none" stroke="#bfbfbf" points="1103.53,-112.5 1103.53,-131.5 1156.53,-131.5 1156.53,-112.5 1103.53,-112.5"/>
<text text-anchor="middle" x="1130.03" y="-119.5" font-family="Helvetica,sans-Serif" font-size="10.00">cstddef</text>
</a>
</g>
</g>
<!-- Node4&#45;&gt;Node5 -->
<g id="edge4" class="edge">
<title>Node4&#45;&gt;Node5</title>
<path fill="none" stroke="midnightblue" d="M1138.37,-168.08C1137.05,-160.93 1135.14,-150.64 1133.49,-141.69"/>
<polygon fill="midnightblue" stroke="midnightblue" points="1136.91,-140.95 1131.65,-131.75 1130.03,-142.22 1136.91,-140.95"/>
</g>
<!-- Node7 -->
<g id="node7" class="node">
<title>Node7</title>
<g id="a_node7"><a xlink:title=" ">
<polygon fill="none" stroke="#bfbfbf" points="661.03,-0.5 661.03,-19.5 725.03,-19.5 725.03,-0.5 661.03,-0.5"/>
<text text-anchor="middle" x="693.03" y="-7.5" font-family="Helvetica,sans-Serif" font-size="10.00">algorithm</text>
</a>
</g>
</g>
<!-- Node6&#45;&gt;Node7 -->
<g id="edge6" class="edge">
<title>Node6&#45;&gt;Node7</title>
<path fill="none" stroke="midnightblue" d="M1191.99,-59.37C1079.48,-48.47 834.1,-24.68 735.39,-15.11"/>
<polygon fill="midnightblue" stroke="midnightblue" points="735.49,-11.6 725.2,-14.12 734.82,-18.57 735.49,-11.6"/>
</g>
<!-- Node6&#45;&gt;Node8 -->
<g id="edge7" class="edge">
<title>Node6&#45;&gt;Node8</title>
<path fill="none" stroke="midnightblue" d="M1191.88,-60.79C1044.78,-50.12 661.08,-22.31 541.29,-13.63"/>
<polygon fill="midnightblue" stroke="midnightblue" points="541.41,-10.13 531.18,-12.9 540.9,-17.11 541.41,-10.13"/>
</g>
<!-- Node9 -->
<g id="node9" class="node">
<title>Node9</title>
<g id="a_node9"><a xlink:title=" ">
<polygon fill="none" stroke="#bfbfbf" points="1225.03,-0.5 1225.03,-19.5 1275.03,-19.5 1275.03,-0.5 1225.03,-0.5"/>
<text text-anchor="middle" x="1250.03" y="-7.5" font-family="Helvetica,sans-Serif" font-size="10.00">climits</text>
</a>
</g>
</g>
<!-- Node6&#45;&gt;Node9 -->
<g id="edge8" class="edge">
<title>Node6&#45;&gt;Node9</title>
<path fill="none" stroke="midnightblue" d="M1250.03,-56.08C1250.03,-49.01 1250.03,-38.86 1250.03,-29.99"/>
<polygon fill="midnightblue" stroke="midnightblue" points="1253.53,-29.75 1250.03,-19.75 1246.53,-29.75 1253.53,-29.75"/>
</g>
<!-- Node6&#45;&gt;Node10 -->
<g id="edge9" class="edge">
<title>Node6&#45;&gt;Node10</title>
<path fill="none" stroke="midnightblue" d="M1220.87,-56.44C1188.31,-46.89 1135.64,-31.43 1100.92,-21.24"/>
<polygon fill="midnightblue" stroke="midnightblue" points="1101.78,-17.85 1091.2,-18.39 1099.81,-24.56 1101.78,-17.85"/>
</g>
<!-- Node6&#45;&gt;Node11 -->
<g id="edge10" class="edge">
<title>Node6&#45;&gt;Node11</title>
<path fill="none" stroke="midnightblue" d="M1267.93,-56.44C1286.28,-47.68 1315.03,-33.94 1336.12,-23.86"/>
<polygon fill="midnightblue" stroke="midnightblue" points="1337.69,-26.99 1345.2,-19.52 1334.67,-20.67 1337.69,-26.99"/>
</g>
<!-- Node6&#45;&gt;Node12 -->
<g id="edge11" class="edge">
<title>Node6&#45;&gt;Node12</title>
<path fill="none" stroke="midnightblue" d="M1299.5,-56.45C1349.32,-47.83 1428.66,-34.04 1506.33,-20.29"/>
<polygon fill="midnightblue" stroke="midnightblue" points="1507.05,-23.72 1516.29,-18.53 1505.83,-16.83 1507.05,-23.72"/>
</g>
<!-- Node6&#45;&gt;Node13 -->
<g id="edge12" class="edge">
<title>Node6&#45;&gt;Node13</title>
<path fill="none" stroke="midnightblue" d="M1308.31,-60.54C1377.63,-54.61 1496.9,-42.4 1607.77,-19.97"/>
<polygon fill="midnightblue" stroke="midnightblue" points="1608.69,-23.36 1617.78,-17.91 1607.28,-16.5 1608.69,-23.36"/>
</g>
<!-- Node14 -->
<g id="node14" class="node">
<title>Node14</title>
<g id="a_node14"><a xlink:title=" ">
<polygon fill="none" stroke="#bfbfbf" points="897.53,-0.5 897.53,-19.5 966.53,-19.5 966.53,-0.5 897.53,-0.5"/>
<text text-anchor="middle" x="932.03" y="-7.5" font-family="Helvetica,sans-Serif" font-size="10.00">type_traits</text>
</a>
</g>
</g>
<!-- Node6&#45;&gt;Node14 -->
<g id="edge13" class="edge">
<title>Node6&#45;&gt;Node14</title>
<path fill="none" stroke="midnightblue" d="M1199.64,-56.44C1138.34,-46.04 1035.8,-28.62 977.04,-18.64"/>
<polygon fill="midnightblue" stroke="midnightblue" points="977.4,-15.15 966.95,-16.93 976.22,-22.06 977.4,-15.15"/>
</g>
<!-- Node6&#45;&gt;Node15 -->
<g id="edge14" class="edge">
<title>Node6&#45;&gt;Node15</title>
<path fill="none" stroke="midnightblue" d="M1285.68,-56.44C1328.4,-46.19 1399.45,-29.14 1441.3,-19.09"/>
<polygon fill="midnightblue" stroke="midnightblue" points="1442.37,-22.44 1451.27,-16.7 1440.73,-15.63 1442.37,-22.44"/>
</g>
<!-- Node16&#45;&gt;Node5 -->
<g id="edge18" class="edge">
<title>Node16&#45;&gt;Node5</title>
<path fill="none" stroke="midnightblue" d="M1031.57,-168.44C1050.65,-159.64 1080.6,-145.81 1102.46,-135.72"/>
<polygon fill="midnightblue" stroke="midnightblue" points="1103.96,-138.88 1111.57,-131.52 1101.03,-132.53 1103.96,-138.88"/>
</g>
<!-- Node16&#45;&gt;Node6 -->
<g id="edge17" class="edge">
<title>Node16&#45;&gt;Node6</title>
<path fill="none" stroke="midnightblue" d="M1021.66,-168.09C1035.62,-154.17 1064.58,-127.28 1094.03,-112 1124.94,-95.97 1162.34,-84.93 1192.77,-77.8"/>
<polygon fill="midnightblue" stroke="midnightblue" points="1193.83,-81.15 1202.81,-75.53 1192.28,-74.32 1193.83,-81.15"/>
</g>
<!-- Node16&#45;&gt;Node10 -->
<g id="edge19" class="edge">
<title>Node16&#45;&gt;Node10</title>
<path fill="none" stroke="midnightblue" d="M1015.88,-168.08C1024.25,-141.83 1048.93,-64.55 1060.24,-29.12"/>
<polygon fill="midnightblue" stroke="midnightblue" points="1063.58,-30.16 1063.29,-19.57 1056.91,-28.03 1063.58,-30.16"/>
</g>
<!-- Node17 -->
<g id="node17" class="node">
<title>Node17</title>
<g id="a_node17"><a xlink:title=" ">
<polygon fill="none" stroke="#bfbfbf" points="33.03,-56.5 33.03,-75.5 135.03,-75.5 135.03,-56.5 33.03,-56.5"/>
<text text-anchor="middle" x="84.03" y="-63.5" font-family="Helvetica,sans-Serif" font-size="10.00">rawspeedconfig.h</text>
</a>
</g>
</g>
<!-- Node16&#45;&gt;Node17 -->
<g id="edge16" class="edge">
<title>Node16&#45;&gt;Node17</title>
<path fill="none" stroke="midnightblue" d="M958,-174.94C776.77,-168.03 208.02,-145.4 171.03,-132 155.99,-126.55 122.68,-99.79 101.92,-82.34"/>
<polygon fill="midnightblue" stroke="midnightblue" points="104.02,-79.54 94.13,-75.75 99.5,-84.88 104.02,-79.54"/>
</g>
<!-- Node18&#45;&gt;Node4 -->
<g id="edge21" class="edge">
<title>Node18&#45;&gt;Node4</title>
<path fill="none" stroke="midnightblue" d="M887.11,-226.75C935.48,-217.62 1026.11,-200.51 1084.72,-189.44"/>
<polygon fill="midnightblue" stroke="midnightblue" points="1085.38,-192.88 1094.55,-187.59 1084.08,-186 1085.38,-192.88"/>
</g>
<!-- Node18&#45;&gt;Node6 -->
<g id="edge22" class="edge">
<title>Node18&#45;&gt;Node6</title>
<path fill="none" stroke="midnightblue" d="M865.41,-224.5C882.93,-211.58 917.75,-186.56 949.03,-168 996.21,-140.01 1007.51,-130.87 1059.03,-112 1101.46,-96.46 1151.2,-84.94 1189.28,-77.45"/>
<polygon fill="midnightblue" stroke="midnightblue" points="1190.04,-80.87 1199.2,-75.54 1188.71,-73.99 1190.04,-80.87"/>
</g>
<!-- Node18&#45;&gt;Node8 -->
<g id="edge37" class="edge">
<title>Node18&#45;&gt;Node8</title>
<path fill="none" stroke="midnightblue" d="M841.85,-224.4C823.89,-211.78 789.18,-187.62 759.03,-168 675.05,-113.36 573.11,-51.75 528.19,-24.82"/>
<polygon fill="midnightblue" stroke="midnightblue" points="529.87,-21.75 519.49,-19.62 526.28,-27.76 529.87,-21.75"/>
</g>
<!-- Node18&#45;&gt;Node10 -->
<g id="edge38" class="edge">
<title>Node18&#45;&gt;Node10</title>
<path fill="none" stroke="midnightblue" d="M854.42,-224.16C856.17,-195.48 865.65,-104.14 916.03,-56 947.07,-26.34 996.89,-16.15 1030.51,-12.69"/>
<polygon fill="midnightblue" stroke="midnightblue" points="1031.15,-16.15 1040.81,-11.79 1030.54,-9.18 1031.15,-16.15"/>
</g>
<!-- Node18&#45;&gt;Node16 -->
<g id="edge23" class="edge">
<title>Node18&#45;&gt;Node16</title>
<path fill="none" stroke="midnightblue" d="M879.22,-224.44C905.97,-215.36 948.43,-200.94 978.33,-190.78"/>
<polygon fill="midnightblue" stroke="midnightblue" points="979.61,-194.05 987.95,-187.52 977.36,-187.42 979.61,-194.05"/>
</g>
<!-- Node19 -->
<g id="node19" class="node">
<title>Node19</title>
<g id="a_node19"><a xlink:href="../../d5/d0b/_endianness_8h.html" target="_top" xlink:title=" ">
<polygon fill="none" stroke="black" points="732.53,-56.5 732.53,-75.5 825.53,-75.5 825.53,-56.5 732.53,-56.5"/>
<text text-anchor="middle" x="779.03" y="-63.5" font-family="Helvetica,sans-Serif" font-size="10.00">io/Endianness.h</text>
</a>
</g>
</g>
<!-- Node18&#45;&gt;Node19 -->
<g id="edge24" class="edge">
<title>Node18&#45;&gt;Node19</title>
<path fill="none" stroke="midnightblue" d="M849.99,-224.08C838.14,-197.83 803.22,-120.55 787.21,-85.12"/>
<polygon fill="midnightblue" stroke="midnightblue" points="790.2,-83.24 782.9,-75.57 783.83,-86.12 790.2,-83.24"/>
</g>
<!-- Node18&#45;&gt;Node20 -->
<g id="edge28" class="edge">
<title>Node18&#45;&gt;Node20</title>
<path fill="none" stroke="midnightblue" d="M820.9,-229.29C740.19,-220.25 532.55,-196.98 430.46,-185.55"/>
<polygon fill="midnightblue" stroke="midnightblue" points="430.65,-182.05 420.33,-184.41 429.87,-189 430.65,-182.05"/>
</g>
<!-- Node26 -->
<g id="node26" class="node">
<title>Node26</title>
<g id="a_node26"><a xlink:title=" ">
<polygon fill="none" stroke="#bfbfbf" points="692.03,-168.5 692.03,-187.5 750.03,-187.5 750.03,-168.5 692.03,-168.5"/>
<text text-anchor="middle" x="721.03" y="-175.5" font-family="Helvetica,sans-Serif" font-size="10.00">memory</text>
</a>
</g>
</g>
<!-- Node18&#45;&gt;Node26 -->
<g id="edge39" class="edge">
<title>Node18&#45;&gt;Node26</title>
<path fill="none" stroke="midnightblue" d="M832.95,-224.44C810.97,-215.52 776.29,-201.44 751.36,-191.32"/>
<polygon fill="midnightblue" stroke="midnightblue" points="752.58,-188.04 742,-187.52 749.95,-194.52 752.58,-188.04"/>
</g>
<!-- Node18&#45;&gt;Node27 -->
<g id="edge40" class="edge">
<title>Node18&#45;&gt;Node27</title>
<path fill="none" stroke="midnightblue" d="M821.02,-225.6C774.86,-215.26 691.52,-196.59 645.59,-186.3"/>
<polygon fill="midnightblue" stroke="midnightblue" points="646.1,-182.82 635.58,-184.05 644.57,-189.65 646.1,-182.82"/>
</g>
<!-- Node19&#45;&gt;Node8 -->
<g id="edge25" class="edge">
<title>Node19&#45;&gt;Node8</title>
<path fill="none" stroke="midnightblue" d="M735.61,-56.44C681.94,-45.87 591.55,-28.05 541.37,-18.16"/>
<polygon fill="midnightblue" stroke="midnightblue" points="541.78,-14.68 531.3,-16.18 540.43,-21.54 541.78,-14.68"/>
</g>
<!-- Node19&#45;&gt;Node10 -->
<g id="edge26" class="edge">
<title>Node19&#45;&gt;Node10</title>
<path fill="none" stroke="midnightblue" d="M824.5,-56.44C881.73,-45.68 978.79,-27.41 1030.74,-17.64"/>
<polygon fill="midnightblue" stroke="midnightblue" points="1031.63,-21.03 1040.81,-15.75 1030.33,-14.15 1031.63,-21.03"/>
</g>
<!-- Node19&#45;&gt;Node11 -->
<g id="edge27" class="edge">
<title>Node19&#45;&gt;Node11</title>
<path fill="none" stroke="midnightblue" d="M825.71,-61.23C914.85,-53.93 1115.45,-37.11 1284.03,-20 1298.36,-18.54 1314.14,-16.78 1327.81,-15.2"/>
<polygon fill="midnightblue" stroke="midnightblue" points="1328.26,-18.67 1337.78,-14.04 1327.44,-11.72 1328.26,-18.67"/>
</g>
<!-- Node20&#45;&gt;Node17 -->
<g id="edge29" class="edge">
<title>Node20&#45;&gt;Node17</title>
<path fill="none" stroke="midnightblue" d="M323.88,-177.05C274.1,-175.06 195.72,-166.1 138.03,-132 118.76,-120.61 103.27,-99.71 93.91,-84.68"/>
<polygon fill="midnightblue" stroke="midnightblue" points="96.77,-82.63 88.66,-75.81 90.74,-86.2 96.77,-82.63"/>
</g>
<!-- Node21 -->
<g id="node21" class="node">
<title>Node21</title>
<g id="a_node21"><a xlink:href="../../d7/d05/_rawspeed_exception_8h.html" target="_top" xlink:title=" ">
<polygon fill="none" stroke="black" points="180.03,-112.5 180.03,-131.5 350.03,-131.5 350.03,-112.5 180.03,-112.5"/>
<text text-anchor="middle" x="265.03" y="-119.5" font-family="Helvetica,sans-Serif" font-size="10.00">common/RawspeedException.h</text>
</a>
</g>
</g>
<!-- Node20&#45;&gt;Node21 -->
<g id="edge30" class="edge">
<title>Node20&#45;&gt;Node21</title>
<path fill="none" stroke="midnightblue" d="M354.83,-168.32C337.68,-159.66 311.08,-146.24 291.28,-136.25"/>
<polygon fill="midnightblue" stroke="midnightblue" points="292.68,-133.04 282.17,-131.65 289.53,-139.28 292.68,-133.04"/>
</g>
<!-- Node21&#45;&gt;Node6 -->
<g id="edge32" class="edge">
<title>Node21&#45;&gt;Node6</title>
<path fill="none" stroke="midnightblue" d="M350.29,-116.33C542.51,-105.79 1006.54,-80.35 1181.62,-70.75"/>
<polygon fill="midnightblue" stroke="midnightblue" points="1181.94,-74.24 1191.73,-70.2 1181.56,-67.25 1181.94,-74.24"/>
</g>
<!-- Node21&#45;&gt;Node17 -->
<g id="edge31" class="edge">
<title>Node21&#45;&gt;Node17</title>
<path fill="none" stroke="midnightblue" d="M236.35,-112.44C205.5,-103.24 156.3,-88.56 122.2,-78.39"/>
<polygon fill="midnightblue" stroke="midnightblue" points="123.16,-75.02 112.57,-75.52 121.15,-81.73 123.16,-75.02"/>
</g>
<!-- Node21&#45;&gt;Node22 -->
<g id="edge33" class="edge">
<title>Node21&#45;&gt;Node22</title>
<path fill="none" stroke="midnightblue" d="M285.31,-112.44C306.37,-103.56 339.54,-89.56 363.51,-79.45"/>
<polygon fill="midnightblue" stroke="midnightblue" points="364.99,-82.63 372.84,-75.52 362.26,-76.18 364.99,-82.63"/>
</g>
<!-- Node23 -->
<g id="node23" class="node">
<title>Node23</title>
<g id="a_node23"><a xlink:title=" ">
<polygon fill="none" stroke="#bfbfbf" points="300.53,-56.5 300.53,-75.5 353.53,-75.5 353.53,-56.5 300.53,-56.5"/>
<text text-anchor="middle" x="327.03" y="-63.5" font-family="Helvetica,sans-Serif" font-size="10.00">cstdarg</text>
</a>
</g>
</g>
<!-- Node21&#45;&gt;Node23 -->
<g id="edge34" class="edge">
<title>Node21&#45;&gt;Node23</title>
<path fill="none" stroke="midnightblue" d="M274.99,-112.32C284.15,-104.34 297.96,-92.31 309.05,-82.65"/>
<polygon fill="midnightblue" stroke="midnightblue" points="311.64,-85.04 316.88,-75.83 307.04,-79.76 311.64,-85.04"/>
</g>
<!-- Node24 -->
<g id="node24" class="node">
<title>Node24</title>
<g id="a_node24"><a xlink:title=" ">
<polygon fill="none" stroke="#bfbfbf" points="153.03,-56.5 153.03,-75.5 199.03,-75.5 199.03,-56.5 153.03,-56.5"/>
<text text-anchor="middle" x="176.03" y="-63.5" font-family="Helvetica,sans-Serif" font-size="10.00">cstdio</text>
</a>
</g>
</g>
<!-- Node21&#45;&gt;Node24 -->
<g id="edge35" class="edge">
<title>Node21&#45;&gt;Node24</title>
<path fill="none" stroke="midnightblue" d="M250.73,-112.32C236.84,-103.9 215.53,-90.97 199.22,-81.07"/>
<polygon fill="midnightblue" stroke="midnightblue" points="200.66,-77.85 190.29,-75.65 197.02,-83.83 200.66,-77.85"/>
</g>
<!-- Node25 -->
<g id="node25" class="node">
<title>Node25</title>
<g id="a_node25"><a xlink:title=" ">
<polygon fill="none" stroke="#bfbfbf" points="217.53,-56.5 217.53,-75.5 282.53,-75.5 282.53,-56.5 217.53,-56.5"/>
<text text-anchor="middle" x="250.03" y="-63.5" font-family="Helvetica,sans-Serif" font-size="10.00">stdexcept</text>
</a>
</g>
</g>
<!-- Node21&#45;&gt;Node25 -->
<g id="edge36" class="edge">
<title>Node21&#45;&gt;Node25</title>
<path fill="none" stroke="midnightblue" d="M262.55,-112.08C260.54,-104.85 257.64,-94.41 255.14,-85.4"/>
<polygon fill="midnightblue" stroke="midnightblue" points="258.51,-84.45 252.46,-75.75 251.76,-86.32 258.51,-84.45"/>
</g>
<!-- Node30&#45;&gt;Node17 -->
<g id="edge53" class="edge">
<title>Node30&#45;&gt;Node17</title>
<path fill="none" stroke="midnightblue" d="M114.99,-224.49C92.73,-218.07 70.62,-207 57.03,-188 34.37,-156.34 57.21,-109.01 72.57,-83.96"/>
<polygon fill="midnightblue" stroke="midnightblue" points="75.52,-85.84 77.97,-75.53 69.63,-82.06 75.52,-85.84"/>
</g>
<!-- Node30&#45;&gt;Node21 -->
<g id="edge54" class="edge">
<title>Node30&#45;&gt;Node21</title>
<path fill="none" stroke="midnightblue" d="M201.61,-224.29C212.73,-216.04 228.73,-202.75 239.03,-188 249.01,-173.69 255.98,-154.98 260.17,-141.31"/>
<polygon fill="midnightblue" stroke="midnightblue" points="263.56,-142.18 262.94,-131.61 256.83,-140.26 263.56,-142.18"/>
</g>
<!-- Node31 -->
<g id="node31" class="node">
<title>Node31</title>
<g id="a_node31"><a xlink:href="../../d6/d0f/_raw_parser_exception_8h.html" target="_top" xlink:title=" ">
<polygon fill="none" stroke="black" points="66.03,-168.5 66.03,-187.5 230.03,-187.5 230.03,-168.5 66.03,-168.5"/>
<text text-anchor="middle" x="148.03" y="-175.5" font-family="Helvetica,sans-Serif" font-size="10.00">parsers/RawParserException.h</text>
</a>
</g>
</g>
<!-- Node30&#45;&gt;Node31 -->
<g id="edge55" class="edge">
<title>Node30&#45;&gt;Node31</title>
<path fill="none" stroke="midnightblue" d="M182.26,-224.08C176.46,-216.46 167.97,-205.26 160.89,-195.94"/>
<polygon fill="midnightblue" stroke="midnightblue" points="163.51,-193.6 154.67,-187.75 157.93,-197.83 163.51,-193.6"/>
</g>
<!-- Node31&#45;&gt;Node17 -->
<g id="edge56" class="edge">
<title>Node31&#45;&gt;Node17</title>
<path fill="none" stroke="midnightblue" d="M135.47,-168.49C124.48,-160.38 108.91,-147.18 100.03,-132 91.68,-117.74 87.67,-99.27 85.75,-85.66"/>
<polygon fill="midnightblue" stroke="midnightblue" points="89.21,-85.11 84.59,-75.58 82.26,-85.91 89.21,-85.11"/>
</g>
<!-- Node31&#45;&gt;Node21 -->
<g id="edge57" class="edge">
<title>Node31&#45;&gt;Node21</title>
<path fill="none" stroke="midnightblue" d="M166.57,-168.44C185.65,-159.64 215.6,-145.81 237.46,-135.72"/>
<polygon fill="midnightblue" stroke="midnightblue" points="238.96,-138.88 246.57,-131.52 236.03,-132.53 238.96,-138.88"/>
</g>
<!-- Node32&#45;&gt;Node2 -->
<g id="edge70" class="edge">
<title>Node32&#45;&gt;Node2</title>
<path fill="none" stroke="midnightblue" d="M967.21,-396.81C1052.15,-387.23 1260.54,-363.74 1357.66,-352.79"/>
<polygon fill="midnightblue" stroke="midnightblue" points="1358.27,-356.24 1367.82,-351.65 1357.49,-349.29 1358.27,-356.24"/>
</g>
<!-- Node32&#45;&gt;Node3 -->
<g id="edge67" class="edge">
<title>Node32&#45;&gt;Node3</title>
<path fill="none" stroke="midnightblue" d="M943.68,-392.37C973.67,-373.41 1045.5,-328 1081.97,-304.94"/>
<polygon fill="midnightblue" stroke="midnightblue" points="1083.85,-307.89 1090.44,-299.59 1080.11,-301.98 1083.85,-307.89"/>
</g>
<!-- Node32&#45;&gt;Node10 -->
<g id="edge72" class="edge">
<title>Node32&#45;&gt;Node10</title>
<path fill="none" stroke="midnightblue" d="M930.03,-392.44C930.03,-373.94 930.03,-328.81 930.03,-291 930.03,-291 930.03,-291 930.03,-121 930.03,-68.96 990.97,-37.3 1031.26,-22.05"/>
<polygon fill="midnightblue" stroke="midnightblue" points="1032.55,-25.31 1040.76,-18.62 1030.17,-18.73 1032.55,-25.31"/>
</g>
<!-- Node32&#45;&gt;Node13 -->
<g id="edge75" class="edge">
<title>Node32&#45;&gt;Node13</title>
<path fill="none" stroke="midnightblue" d="M967.21,-399.96C1076.11,-396.61 1392.93,-384.61 1492.03,-356 1543.6,-341.11 1568.07,-343.85 1599.03,-300 1659.37,-214.54 1649.05,-78.96 1642.79,-29.68"/>
<polygon fill="midnightblue" stroke="midnightblue" points="1646.23,-29 1641.41,-19.57 1639.3,-29.95 1646.23,-29"/>
</g>
<!-- Node32&#45;&gt;Node15 -->
<g id="edge76" class="edge">
<title>Node32&#45;&gt;Node15</title>
<path fill="none" stroke="midnightblue" d="M961.14,-392.42C1025.58,-373.57 1176.27,-323.75 1280.03,-244 1365,-178.69 1437.92,-70.29 1464.4,-28.33"/>
<polygon fill="midnightblue" stroke="midnightblue" points="1467.4,-30.12 1469.72,-19.78 1461.46,-26.42 1467.4,-30.12"/>
</g>
<!-- Node32&#45;&gt;Node18 -->
<g id="edge66" class="edge">
<title>Node32&#45;&gt;Node18</title>
<path fill="none" stroke="midnightblue" d="M925.94,-392.08C913.87,-365.72 878.24,-287.88 862.11,-252.66"/>
<polygon fill="midnightblue" stroke="midnightblue" points="865.29,-251.2 857.95,-243.57 858.93,-254.12 865.29,-251.2"/>
</g>
<!-- Node32&#45;&gt;Node19 -->
<g id="edge68" class="edge">
<title>Node32&#45;&gt;Node19</title>
<path fill="none" stroke="midnightblue" d="M895.82,-392.43C872.11,-385.34 840.68,-373.55 817.03,-356 740.32,-299.1 714.57,-278.15 683.03,-188 667.16,-142.66 720.52,-101.52 753.98,-80.9"/>
<polygon fill="midnightblue" stroke="midnightblue" points="756.01,-83.77 762.82,-75.65 752.43,-77.75 756.01,-83.77"/>
</g>
<!-- Node32&#45;&gt;Node26 -->
<g id="edge74" class="edge">
<title>Node32&#45;&gt;Node26</title>
<path fill="none" stroke="midnightblue" d="M892.97,-393.18C869.04,-386.58 838.5,-375.07 817.03,-356 766.56,-311.16 737.61,-233.26 726.43,-197.68"/>
<polygon fill="midnightblue" stroke="midnightblue" points="729.66,-196.28 723.41,-187.72 722.96,-198.3 729.66,-196.28"/>
</g>
<!-- Node32&#45;&gt;Node29 -->
<g id="edge71" class="edge">
<title>Node32&#45;&gt;Node29</title>
<path fill="none" stroke="midnightblue" d="M967.05,-400.32C1071.74,-398 1368.16,-388.65 1459.03,-356 1489.19,-345.16 1518.72,-322.11 1536.4,-306.59"/>
<polygon fill="midnightblue" stroke="midnightblue" points="1539.01,-308.95 1544.08,-299.65 1534.32,-303.76 1539.01,-308.95"/>
</g>
<!-- Node32&#45;&gt;Node30 -->
<g id="edge69" class="edge">
<title>Node32&#45;&gt;Node30</title>
<path fill="none" stroke="midnightblue" d="M893.01,-401.05C791.42,-399.98 501.27,-388.79 282.03,-300 252.68,-288.12 223.53,-265.54 205.9,-250.38"/>
<polygon fill="midnightblue" stroke="midnightblue" points="208.03,-247.59 198.21,-243.61 203.4,-252.84 208.03,-247.59"/>
</g>
<!-- Node33 -->
<g id="node33" class="node">
<title>Node33</title>
<g id="a_node33"><a xlink:href="../../d0/d6f/_n_o_ranges_set_8h.html" target="_top" xlink:title=" ">
<polygon fill="none" stroke="black" points="458.03,-280.5 458.03,-299.5 596.03,-299.5 596.03,-280.5 458.03,-280.5"/>
<text text-anchor="middle" x="527.03" y="-287.5" font-family="Helvetica,sans-Serif" font-size="10.00">common/NORangesSet.h</text>
</a>
</g>
</g>
<!-- Node32&#45;&gt;Node33 -->
<g id="edge59" class="edge">
<title>Node32&#45;&gt;Node33</title>
<path fill="none" stroke="midnightblue" d="M893,-396.46C845.06,-390.05 759.2,-376.76 688.03,-356 639.72,-341.91 585.95,-318.56 554.39,-304.01"/>
<polygon fill="midnightblue" stroke="midnightblue" points="555.5,-300.67 544.96,-299.62 552.55,-307.02 555.5,-300.67"/>
</g>
<!-- Node36 -->
<g id="node36" class="node">
<title>Node36</title>
<g id="a_node36"><a xlink:title=" ">
<polygon fill="none" stroke="#bfbfbf" points="826.03,-336.5 826.03,-355.5 864.03,-355.5 864.03,-336.5 826.03,-336.5"/>
<text text-anchor="middle" x="845.03" y="-343.5" font-family="Helvetica,sans-Serif" font-size="10.00">map</text>
</a>
</g>
</g>
<!-- Node32&#45;&gt;Node36 -->
<g id="edge73" class="edge">
<title>Node32&#45;&gt;Node36</title>
<path fill="none" stroke="midnightblue" d="M916.37,-392.32C903.11,-383.9 882.76,-370.97 867.18,-361.07"/>
<polygon fill="midnightblue" stroke="midnightblue" points="868.97,-358.06 858.65,-355.65 865.21,-363.97 868.97,-358.06"/>
</g>
<!-- Node34 -->
<g id="node34" class="node">
<title>Node34</title>
<g id="a_node34"><a xlink:href="../../d9/dc1/_range_8h.html" target="_top" xlink:title=" ">
<polygon fill="none" stroke="black" points="476.03,-224.5 476.03,-243.5 578.03,-243.5 578.03,-224.5 476.03,-224.5"/>
<text text-anchor="middle" x="527.03" y="-231.5" font-family="Helvetica,sans-Serif" font-size="10.00">common/Range.h</text>
</a>
</g>
</g>
<!-- Node33&#45;&gt;Node34 -->
<g id="edge60" class="edge">
<title>Node33&#45;&gt;Node34</title>
<path fill="none" stroke="midnightblue" d="M527.03,-280.08C527.03,-273.01 527.03,-262.86 527.03,-253.99"/>
<polygon fill="midnightblue" stroke="midnightblue" points="530.53,-253.75 527.03,-243.75 523.53,-253.75 530.53,-253.75"/>
</g>
<!-- Node35 -->
<g id="node35" class="node">
<title>Node35</title>
<g id="a_node35"><a xlink:title=" ">
<polygon fill="none" stroke="#bfbfbf" points="350.03,-224.5 350.03,-243.5 382.03,-243.5 382.03,-224.5 350.03,-224.5"/>
<text text-anchor="middle" x="366.03" y="-231.5" font-family="Helvetica,sans-Serif" font-size="10.00">set</text>
</a>
</g>
</g>
<!-- Node33&#45;&gt;Node35 -->
<g id="edge65" class="edge">
<title>Node33&#45;&gt;Node35</title>
<path fill="none" stroke="midnightblue" d="M501.52,-280.44C471.53,-270.39 422.06,-253.79 391.92,-243.68"/>
<polygon fill="midnightblue" stroke="midnightblue" points="392.72,-240.26 382.12,-240.4 390.49,-246.9 392.72,-240.26"/>
</g>
<!-- Node34&#45;&gt;Node7 -->
<g id="edge61" class="edge">
<title>Node34&#45;&gt;Node7</title>
<path fill="none" stroke="midnightblue" d="M527.45,-224.37C529.3,-196.33 538.78,-106.72 586.03,-56 603.18,-37.59 629.06,-26.43 651.07,-19.83"/>
<polygon fill="midnightblue" stroke="midnightblue" points="652.16,-23.16 660.86,-17.11 650.29,-16.41 652.16,-23.16"/>
</g>
<!-- Node34&#45;&gt;Node8 -->
<g id="edge62" class="edge">
<title>Node34&#45;&gt;Node8</title>
<path fill="none" stroke="midnightblue" d="M522.74,-224.29C518.61,-215.41 512.61,-201.11 510.03,-188 498.85,-131.32 501.39,-62.48 503.53,-29.87"/>
<polygon fill="midnightblue" stroke="midnightblue" points="507.04,-29.81 504.27,-19.59 500.06,-29.31 507.04,-29.81"/>
</g>
<!-- Node34&#45;&gt;Node14 -->
<g id="edge63" class="edge">
<title>Node34&#45;&gt;Node14</title>
<path fill="none" stroke="midnightblue" d="M533.3,-224.43C555.4,-195 633.14,-97.57 723.03,-56 776.36,-31.33 843.65,-19.97 887.25,-14.88"/>
<polygon fill="midnightblue" stroke="midnightblue" points="887.7,-18.35 897.26,-13.78 886.93,-11.4 887.7,-18.35"/>
</g>
<!-- Node34&#45;&gt;Node27 -->
<g id="edge64" class="edge">
<title>Node34&#45;&gt;Node27</title>
<path fill="none" stroke="midnightblue" d="M540.84,-224.32C554.26,-215.9 574.85,-202.97 590.61,-193.07"/>
<polygon fill="midnightblue" stroke="midnightblue" points="592.64,-195.94 599.24,-187.65 588.91,-190.01 592.64,-195.94"/>
</g>
</g>
</svg>
        <g id="navigator" transform="translate(0 0)" fill="#404254">
                <rect fill="#f2f5e9" fill-opacity="0.5" stroke="#606060" stroke-width=".5" x="0" y="0" width="60" height="60"/>
                <use id="zoomplus" xlink:href="#zoomPlus" x="17" y="9" onmousedown="handleZoom(evt,'in')"/>
                <use id="zoomminus" xlink:href="#zoomMin" x="42" y="9" onmousedown="handleZoom(evt,'out')"/>
                <use id="reset" xlink:href="#resetDef" x="30" y="36" onmousedown="handleReset()"/>
                <g id="arrowUp" xlink:href="#dirArrow" transform="translate(30 24)" onmousedown="handlePan(0,-1)">
                  <use xlink:href="#rim" fill="#404040">
                        <set attributeName="fill" to="#808080" begin="arrowUp.mouseover" end="arrowUp.mouseout"/>
                  </use>
                  <path fill="none" stroke="white" stroke-width="1.5" d="M0,-3.0v7 M-2.5,-0.5L0,-3.0L2.5,-0.5"/>
                </g>
                <g id="arrowRight" xlink:href="#dirArrow" transform="rotate(90) translate(36 -43)" onmousedown="handlePan(1,0)">
                  <use xlink:href="#rim" fill="#404040">
                        <set attributeName="fill" to="#808080" begin="arrowRight.mouseover" end="arrowRight.mouseout"/>
                  </use>
                  <path fill="none" stroke="white" stroke-width="1.5" d="M0,-3.0v7 M-2.5,-0.5L0,-3.0L2.5,-0.5"/>
                </g>
                <g id="arrowDown" xlink:href="#dirArrow" transform="rotate(180) translate(-30 -48)" onmousedown="handlePan(0,1)">
                  <use xlink:href="#rim" fill="#404040">
                        <set attributeName="fill" to="#808080" begin="arrowDown.mouseover" end="arrowDown.mouseout"/>
                  </use>
                  <path fill="none" stroke="white" stroke-width="1.5" d="M0,-3.0v7 M-2.5,-0.5L0,-3.0L2.5,-0.5"/>
                </g>
                <g id="arrowLeft" xlink:href="#dirArrow" transform="rotate(270) translate(-36 17)" onmousedown="handlePan(-1,0)">
                  <use xlink:href="#rim" fill="#404040">
                        <set attributeName="fill" to="#808080" begin="arrowLeft.mouseover" end="arrowLeft.mouseout"/>
                  </use>
                  <path fill="none" stroke="white" stroke-width="1.5" d="M0,-3.0v7 M-2.5,-0.5L0,-3.0L2.5,-0.5"/>
                </g>
        </g>
        <svg viewBox="0 0 15 15" width="100%" height="30px" preserveAspectRatio="xMaxYMin meet">
         <g id="arrow_out" transform="scale(0.3 0.3)">
          <a xlink:href="_tiff_entry_8cpp__incl_org.svg" target="_base">
           <rect id="button" ry="5" rx="5" y="6" x="6" height="38" width="38"
                fill="#f2f5e9" fill-opacity="0.5" stroke="#606060" stroke-width="1.0"/>
           <path id="arrow"
             d="M 11.500037,31.436501 C 11.940474,20.09759 22.043105,11.32322 32.158766,21.979434 L 37.068811,17.246167 C 37.068811,17.246167 37.088388,32 37.088388,32 L 22.160133,31.978069 C 22.160133,31.978069 26.997745,27.140456 26.997745,27.140456 C 18.528582,18.264221 13.291696,25.230495 11.500037,31.436501 z"
             style="fill:#404040;"/>
          </a>
         </g>
        </svg>
</svg>
