<?xml version="1.0" encoding="UTF-8" standalone="no"?>
<!DOCTYPE svg PUBLIC "-//W3C//DTD SVG 1.1//EN"
 "http://www.w3.org/Graphics/SVG/1.1/DTD/svg11.dtd">
<!-- Generated by graphviz version 2.43.0 (0)
 -->
<!-- Title: librawspeed/decompressors/HuffmanTable.h Pages: 1 -->
<svg width="1902pt" height="576pt"
 viewBox="0.00 0.00 1902.00 576.00" xmlns="http://www.w3.org/2000/svg" xmlns:xlink="http://www.w3.org/1999/xlink">
<g id="graph0" class="graph" transform="scale(1 1) rotate(0) translate(4 572)">
<title>librawspeed/decompressors/HuffmanTable.h</title>
<!-- Node1 -->
<g id="node1" class="node">
<title>Node1</title>
<g id="a_node1"><a xlink:title=" ">
<polygon fill="#bfbfbf" stroke="black" points="570.5,-537.5 570.5,-567.5 723.5,-567.5 723.5,-537.5 570.5,-537.5"/>
<text text-anchor="start" x="578.5" y="-555.5" font-family="Helvetica,sans-Serif" font-size="10.00">librawspeed/decompressors</text>
<text text-anchor="middle" x="647" y="-544.5" font-family="Helvetica,sans-Serif" font-size="10.00">/HuffmanTable.h</text>
</a>
</g>
</g>
<!-- Node2 -->
<g id="node2" class="node">
<title>Node2</title>
<g id="a_node2"><a xlink:href="../../dd/d69/_huffman_table_l_u_t_8h.html" target="_top" xlink:title=" ">
<polygon fill="none" stroke="black" points="566.5,-470.5 566.5,-500.5 727.5,-500.5 727.5,-470.5 566.5,-470.5"/>
<text text-anchor="start" x="574.5" y="-488.5" font-family="Helvetica,sans-Serif" font-size="10.00">decompressors/HuffmanTable</text>
<text text-anchor="middle" x="647" y="-477.5" font-family="Helvetica,sans-Serif" font-size="10.00">LUT.h</text>
</a>
</g>
</g>
<!-- Node1&#45;&gt;Node2 -->
<g id="edge1" class="edge">
<title>Node1&#45;&gt;Node2</title>
<path fill="none" stroke="midnightblue" d="M647,-537.4C647,-529.64 647,-519.81 647,-510.86"/>
<polygon fill="midnightblue" stroke="midnightblue" points="650.5,-510.58 647,-500.58 643.5,-510.58 650.5,-510.58"/>
</g>
<!-- Node3 -->
<g id="node3" class="node">
<title>Node3</title>
<g id="a_node3"><a xlink:href="../../d9/df5/src_2librawspeed_2common_2_common_8h.html" target="_top" xlink:title=" ">
<polygon fill="none" stroke="black" points="389,-56.5 389,-75.5 505,-75.5 505,-56.5 389,-56.5"/>
<text text-anchor="middle" x="447" y="-63.5" font-family="Helvetica,sans-Serif" font-size="10.00">common/Common.h</text>
</a>
</g>
</g>
<!-- Node2&#45;&gt;Node3 -->
<g id="edge2" class="edge">
<title>Node2&#45;&gt;Node3</title>
<path fill="none" stroke="midnightblue" d="M566.34,-481.98C417.34,-475.1 114,-449.84 114,-358 114,-358 114,-358 114,-294.5 114,-161.08 298.51,-100.23 392.84,-77.84"/>
<polygon fill="midnightblue" stroke="midnightblue" points="393.82,-81.21 402.78,-75.55 392.25,-74.39 393.82,-81.21"/>
</g>
<!-- Node5 -->
<g id="node5" class="node">
<title>Node5</title>
<g id="a_node5"><a xlink:title=" ">
<polygon fill="none" stroke="#bfbfbf" points="1633,-0.5 1633,-19.5 1685,-19.5 1685,-0.5 1633,-0.5"/>
<text text-anchor="middle" x="1659" y="-7.5" font-family="Helvetica,sans-Serif" font-size="10.00">cassert</text>
</a>
</g>
</g>
<!-- Node2&#45;&gt;Node5 -->
<g id="edge82" class="edge">
<title>Node2&#45;&gt;Node5</title>
<path fill="none" stroke="midnightblue" d="M727.86,-484.81C1004.19,-484.8 1894,-475.64 1894,-358 1894,-358 1894,-358 1894,-121 1894,-77.6 1760.86,-37.21 1695.01,-19.89"/>
<polygon fill="midnightblue" stroke="midnightblue" points="1695.61,-16.43 1685.05,-17.31 1693.85,-23.21 1695.61,-16.43"/>
</g>
<!-- Node7 -->
<g id="node7" class="node">
<title>Node7</title>
<g id="a_node7"><a xlink:title=" ">
<polygon fill="none" stroke="#bfbfbf" points="905,-0.5 905,-19.5 955,-19.5 955,-0.5 905,-0.5"/>
<text text-anchor="middle" x="930" y="-7.5" font-family="Helvetica,sans-Serif" font-size="10.00">cstdint</text>
</a>
</g>
</g>
<!-- Node2&#45;&gt;Node7 -->
<g id="edge84" class="edge">
<title>Node2&#45;&gt;Node7</title>
<path fill="none" stroke="midnightblue" d="M631.25,-470.23C608.99,-448.41 571,-404.37 571,-358 571,-358 571,-358 571,-121 571,-53.75 804.21,-23.45 894.7,-14.22"/>
<polygon fill="midnightblue" stroke="midnightblue" points="895.15,-17.69 904.76,-13.22 894.46,-10.73 895.15,-17.69"/>
</g>
<!-- Node12 -->
<g id="node12" class="node">
<title>Node12</title>
<g id="a_node12"><a xlink:title=" ">
<polygon fill="none" stroke="#bfbfbf" points="33.5,-0.5 33.5,-19.5 80.5,-19.5 80.5,-0.5 33.5,-0.5"/>
<text text-anchor="middle" x="57" y="-7.5" font-family="Helvetica,sans-Serif" font-size="10.00">vector</text>
</a>
</g>
</g>
<!-- Node2&#45;&gt;Node12 -->
<g id="edge87" class="edge">
<title>Node2&#45;&gt;Node12</title>
<path fill="none" stroke="midnightblue" d="M566.37,-485.42C392.93,-485.22 0,-472.17 0,-358 0,-358 0,-358 0,-121 0,-84.3 25.32,-47.66 42.21,-27.3"/>
<polygon fill="midnightblue" stroke="midnightblue" points="44.95,-29.48 48.83,-19.62 39.65,-24.9 44.95,-29.48"/>
</g>
<!-- Node13 -->
<g id="node13" class="node">
<title>Node13</title>
<g id="a_node13"><a xlink:href="../../d0/daf/_raw_decoder_exception_8h.html" target="_top" xlink:title=" ">
<polygon fill="none" stroke="black" points="789,-224.5 789,-243.5 971,-243.5 971,-224.5 789,-224.5"/>
<text text-anchor="middle" x="880" y="-231.5" font-family="Helvetica,sans-Serif" font-size="10.00">decoders/RawDecoderException.h</text>
</a>
</g>
</g>
<!-- Node2&#45;&gt;Node13 -->
<g id="edge12" class="edge">
<title>Node2&#45;&gt;Node13</title>
<path fill="none" stroke="midnightblue" d="M727.7,-474.14C784.77,-465.49 855.2,-451.73 879,-434 912.7,-408.9 922.51,-388.51 916,-347 910.64,-312.84 896.63,-274.88 887.75,-253.08"/>
<polygon fill="midnightblue" stroke="midnightblue" points="890.94,-251.65 883.86,-243.77 884.48,-254.35 890.94,-251.65"/>
</g>
<!-- Node20 -->
<g id="node20" class="node">
<title>Node20</title>
<g id="a_node20"><a xlink:href="../../dc/d41/_abstract_huffman_table_8h.html" target="_top" xlink:title=" ">
<polygon fill="none" stroke="black" points="367,-280.5 367,-310.5 543,-310.5 543,-280.5 367,-280.5"/>
<text text-anchor="start" x="375" y="-298.5" font-family="Helvetica,sans-Serif" font-size="10.00">decompressors/AbstractHuffman</text>
<text text-anchor="middle" x="455" y="-287.5" font-family="Helvetica,sans-Serif" font-size="10.00">Table.h</text>
</a>
</g>
</g>
<!-- Node2&#45;&gt;Node20 -->
<g id="edge21" class="edge">
<title>Node2&#45;&gt;Node20</title>
<path fill="none" stroke="midnightblue" d="M614.48,-470.41C596.36,-461.58 574.08,-449.04 557,-434 518.35,-399.97 485.3,-349.03 467.97,-319.65"/>
<polygon fill="midnightblue" stroke="midnightblue" points="470.95,-317.81 462.91,-310.91 464.89,-321.32 470.95,-317.81"/>
</g>
<!-- Node23 -->
<g id="node23" class="node">
<title>Node23</title>
<g id="a_node23"><a xlink:title=" ">
<polygon fill="none" stroke="#bfbfbf" points="827.5,-112.5 827.5,-131.5 880.5,-131.5 880.5,-112.5 827.5,-112.5"/>
<text text-anchor="middle" x="854" y="-119.5" font-family="Helvetica,sans-Serif" font-size="10.00">cstddef</text>
</a>
</g>
</g>
<!-- Node2&#45;&gt;Node23 -->
<g id="edge83" class="edge">
<title>Node2&#45;&gt;Node23</title>
<path fill="none" stroke="midnightblue" d="M647,-470.46C647,-447.12 647,-398.85 647,-358 647,-358 647,-358 647,-294.5 647,-232.83 657.62,-208.64 704,-168 735.65,-140.27 783.85,-129.62 817.02,-125.54"/>
<polygon fill="midnightblue" stroke="midnightblue" points="817.66,-128.99 827.22,-124.43 816.9,-122.03 817.66,-128.99"/>
</g>
<!-- Node27 -->
<g id="node27" class="node">
<title>Node27</title>
<g id="a_node27"><a xlink:title=" ">
<polygon fill="none" stroke="#bfbfbf" points="713,-168.5 713,-187.5 771,-187.5 771,-168.5 713,-168.5"/>
<text text-anchor="middle" x="742" y="-175.5" font-family="Helvetica,sans-Serif" font-size="10.00">memory</text>
</a>
</g>
</g>
<!-- Node2&#45;&gt;Node27 -->
<g id="edge85" class="edge">
<title>Node2&#45;&gt;Node27</title>
<path fill="none" stroke="midnightblue" d="M651.45,-470.17C667.03,-420.08 719.06,-252.75 736.36,-197.14"/>
<polygon fill="midnightblue" stroke="midnightblue" points="739.7,-198.17 739.33,-187.58 733.02,-196.09 739.7,-198.17"/>
</g>
<!-- Node32 -->
<g id="node32" class="node">
<title>Node32</title>
<g id="a_node32"><a xlink:href="../../dc/dd0/_huffman_table_lookup_8h.html" target="_top" xlink:title=" ">
<polygon fill="none" stroke="black" points="684.5,-403.5 684.5,-433.5 845.5,-433.5 845.5,-403.5 684.5,-403.5"/>
<text text-anchor="start" x="692.5" y="-421.5" font-family="Helvetica,sans-Serif" font-size="10.00">decompressors/HuffmanTable</text>
<text text-anchor="middle" x="765" y="-410.5" font-family="Helvetica,sans-Serif" font-size="10.00">Lookup.h</text>
</a>
</g>
</g>
<!-- Node2&#45;&gt;Node32 -->
<g id="edge52" class="edge">
<title>Node2&#45;&gt;Node32</title>
<path fill="none" stroke="midnightblue" d="M672.6,-470.4C689.54,-461.07 711.94,-448.73 730.45,-438.53"/>
<polygon fill="midnightblue" stroke="midnightblue" points="732.38,-441.47 739.45,-433.58 729,-435.34 732.38,-441.47"/>
</g>
<!-- Node33 -->
<g id="node33" class="node">
<title>Node33</title>
<g id="a_node33"><a xlink:href="../../d7/dc3/_bit_stream_8h.html" target="_top" xlink:title=" ">
<polygon fill="none" stroke="black" points="1316,-347.5 1316,-366.5 1402,-366.5 1402,-347.5 1316,-347.5"/>
<text text-anchor="middle" x="1359" y="-354.5" font-family="Helvetica,sans-Serif" font-size="10.00">io/BitStream.h</text>
</a>
</g>
</g>
<!-- Node2&#45;&gt;Node33 -->
<g id="edge81" class="edge">
<title>Node2&#45;&gt;Node33</title>
<path fill="none" stroke="midnightblue" d="M727.5,-471.43C788.38,-461.46 874.01,-447.22 949,-434 1077.27,-411.39 1227.76,-383.02 1305.88,-368.16"/>
<polygon fill="midnightblue" stroke="midnightblue" points="1306.79,-371.55 1315.95,-366.24 1305.48,-364.67 1306.79,-371.55"/>
</g>
<!-- Node36 -->
<g id="node36" class="node">
<title>Node36</title>
<g id="a_node36"><a xlink:title=" ">
<polygon fill="none" stroke="#bfbfbf" points="865.5,-347.5 865.5,-366.5 906.5,-366.5 906.5,-347.5 865.5,-347.5"/>
<text text-anchor="middle" x="886" y="-354.5" font-family="Helvetica,sans-Serif" font-size="10.00">tuple</text>
</a>
</g>
</g>
<!-- Node2&#45;&gt;Node36 -->
<g id="edge86" class="edge">
<title>Node2&#45;&gt;Node36</title>
<path fill="none" stroke="midnightblue" d="M727.51,-482.11C769.79,-476.96 819.94,-464.19 855,-434 872.01,-419.36 879.82,-393.96 883.32,-376.59"/>
<polygon fill="midnightblue" stroke="midnightblue" points="886.8,-376.98 885.04,-366.53 879.9,-375.79 886.8,-376.98"/>
</g>
<!-- Node4 -->
<g id="node4" class="node">
<title>Node4</title>
<g id="a_node4"><a xlink:title=" ">
<polygon fill="none" stroke="#bfbfbf" points="158,-0.5 158,-19.5 222,-19.5 222,-0.5 158,-0.5"/>
<text text-anchor="middle" x="190" y="-7.5" font-family="Helvetica,sans-Serif" font-size="10.00">algorithm</text>
</a>
</g>
</g>
<!-- Node3&#45;&gt;Node4 -->
<g id="edge3" class="edge">
<title>Node3&#45;&gt;Node4</title>
<path fill="none" stroke="midnightblue" d="M406.28,-56.44C358.58,-46.42 279.96,-29.9 231.8,-19.78"/>
<polygon fill="midnightblue" stroke="midnightblue" points="232.51,-16.36 222.01,-17.73 231.07,-23.21 232.51,-16.36"/>
</g>
<!-- Node3&#45;&gt;Node5 -->
<g id="edge4" class="edge">
<title>Node3&#45;&gt;Node5</title>
<path fill="none" stroke="midnightblue" d="M505.05,-62.41C717.79,-52.94 1451.28,-20.25 1622.89,-12.61"/>
<polygon fill="midnightblue" stroke="midnightblue" points="1623.08,-16.1 1632.92,-12.16 1622.77,-9.11 1623.08,-16.1"/>
</g>
<!-- Node6 -->
<g id="node6" class="node">
<title>Node6</title>
<g id="a_node6"><a xlink:title=" ">
<polygon fill="none" stroke="#bfbfbf" points="538,-0.5 538,-19.5 588,-19.5 588,-0.5 538,-0.5"/>
<text text-anchor="middle" x="563" y="-7.5" font-family="Helvetica,sans-Serif" font-size="10.00">climits</text>
</a>
</g>
</g>
<!-- Node3&#45;&gt;Node6 -->
<g id="edge5" class="edge">
<title>Node3&#45;&gt;Node6</title>
<path fill="none" stroke="midnightblue" d="M465.38,-56.44C484.22,-47.68 513.73,-33.94 535.38,-23.86"/>
<polygon fill="midnightblue" stroke="midnightblue" points="537.12,-26.91 544.71,-19.52 534.16,-20.56 537.12,-26.91"/>
</g>
<!-- Node3&#45;&gt;Node7 -->
<g id="edge6" class="edge">
<title>Node3&#45;&gt;Node7</title>
<path fill="none" stroke="midnightblue" d="M505.15,-57.65C509.83,-57.09 514.5,-56.53 519,-56 658.01,-39.7 823.7,-22.12 894.78,-14.67"/>
<polygon fill="midnightblue" stroke="midnightblue" points="895.38,-18.13 904.96,-13.61 894.65,-11.17 895.38,-18.13"/>
</g>
<!-- Node8 -->
<g id="node8" class="node">
<title>Node8</title>
<g id="a_node8"><a xlink:title=" ">
<polygon fill="none" stroke="#bfbfbf" points="1763,-0.5 1763,-19.5 1813,-19.5 1813,-0.5 1763,-0.5"/>
<text text-anchor="middle" x="1788" y="-7.5" font-family="Helvetica,sans-Serif" font-size="10.00">cstring</text>
</a>
</g>
</g>
<!-- Node3&#45;&gt;Node8 -->
<g id="edge7" class="edge">
<title>Node3&#45;&gt;Node8</title>
<path fill="none" stroke="midnightblue" d="M505.18,-64.13C683.25,-61.2 1236.54,-50.13 1694,-20 1713.37,-18.72 1734.94,-16.7 1752.52,-14.9"/>
<polygon fill="midnightblue" stroke="midnightblue" points="1753.32,-18.33 1762.9,-13.81 1752.59,-11.37 1753.32,-18.33"/>
</g>
<!-- Node9 -->
<g id="node9" class="node">
<title>Node9</title>
<g id="a_node9"><a xlink:title=" ">
<polygon fill="none" stroke="#bfbfbf" points="286.5,-0.5 286.5,-19.5 369.5,-19.5 369.5,-0.5 286.5,-0.5"/>
<text text-anchor="middle" x="328" y="-7.5" font-family="Helvetica,sans-Serif" font-size="10.00">initializer_list</text>
</a>
</g>
</g>
<!-- Node3&#45;&gt;Node9 -->
<g id="edge8" class="edge">
<title>Node3&#45;&gt;Node9</title>
<path fill="none" stroke="midnightblue" d="M428.14,-56.44C408.73,-47.64 378.27,-33.81 356.04,-23.72"/>
<polygon fill="midnightblue" stroke="midnightblue" points="357.32,-20.46 346.77,-19.52 354.43,-26.84 357.32,-20.46"/>
</g>
<!-- Node10 -->
<g id="node10" class="node">
<title>Node10</title>
<g id="a_node10"><a xlink:title=" ">
<polygon fill="none" stroke="#bfbfbf" points="388,-0.5 388,-19.5 432,-19.5 432,-0.5 388,-0.5"/>
<text text-anchor="middle" x="410" y="-7.5" font-family="Helvetica,sans-Serif" font-size="10.00">string</text>
</a>
</g>
</g>
<!-- Node3&#45;&gt;Node10 -->
<g id="edge9" class="edge">
<title>Node3&#45;&gt;Node10</title>
<path fill="none" stroke="midnightblue" d="M440.89,-56.08C435.72,-48.53 428.15,-37.49 421.81,-28.23"/>
<polygon fill="midnightblue" stroke="midnightblue" points="424.54,-26.02 416,-19.75 418.76,-29.98 424.54,-26.02"/>
</g>
<!-- Node11 -->
<g id="node11" class="node">
<title>Node11</title>
<g id="a_node11"><a xlink:title=" ">
<polygon fill="none" stroke="#bfbfbf" points="450.5,-0.5 450.5,-19.5 519.5,-19.5 519.5,-0.5 450.5,-0.5"/>
<text text-anchor="middle" x="485" y="-7.5" font-family="Helvetica,sans-Serif" font-size="10.00">type_traits</text>
</a>
</g>
</g>
<!-- Node3&#45;&gt;Node11 -->
<g id="edge10" class="edge">
<title>Node3&#45;&gt;Node11</title>
<path fill="none" stroke="midnightblue" d="M453.27,-56.08C458.64,-48.46 466.52,-37.26 473.08,-27.94"/>
<polygon fill="midnightblue" stroke="midnightblue" points="475.95,-29.94 478.84,-19.75 470.22,-25.91 475.95,-29.94"/>
</g>
<!-- Node3&#45;&gt;Node12 -->
<g id="edge11" class="edge">
<title>Node3&#45;&gt;Node12</title>
<path fill="none" stroke="midnightblue" d="M388.61,-56.92C305.91,-45.47 157.34,-24.89 90.82,-15.68"/>
<polygon fill="midnightblue" stroke="midnightblue" points="91.25,-12.21 80.87,-14.3 90.29,-19.14 91.25,-12.21"/>
</g>
<!-- Node14 -->
<g id="node14" class="node">
<title>Node14</title>
<g id="a_node14"><a xlink:title=" ">
<polygon fill="none" stroke="#bfbfbf" points="1177,-56.5 1177,-75.5 1279,-75.5 1279,-56.5 1177,-56.5"/>
<text text-anchor="middle" x="1228" y="-63.5" font-family="Helvetica,sans-Serif" font-size="10.00">rawspeedconfig.h</text>
</a>
</g>
</g>
<!-- Node13&#45;&gt;Node14 -->
<g id="edge13" class="edge">
<title>Node13&#45;&gt;Node14</title>
<path fill="none" stroke="midnightblue" d="M879.16,-224.31C878.32,-210.19 878.98,-182.4 895,-168 993.88,-79.1 1081.72,-206.29 1192,-132 1208.01,-121.21 1217.61,-100.82 1222.82,-85.74"/>
<polygon fill="midnightblue" stroke="midnightblue" points="1226.24,-86.5 1225.86,-75.92 1219.56,-84.43 1226.24,-86.5"/>
</g>
<!-- Node15 -->
<g id="node15" class="node">
<title>Node15</title>
<g id="a_node15"><a xlink:href="../../d7/d05/_rawspeed_exception_8h.html" target="_top" xlink:title=" ">
<polygon fill="none" stroke="black" points="1013,-112.5 1013,-131.5 1183,-131.5 1183,-112.5 1013,-112.5"/>
<text text-anchor="middle" x="1098" y="-119.5" font-family="Helvetica,sans-Serif" font-size="10.00">common/RawspeedException.h</text>
</a>
</g>
</g>
<!-- Node13&#45;&gt;Node15 -->
<g id="edge14" class="edge">
<title>Node13&#45;&gt;Node15</title>
<path fill="none" stroke="midnightblue" d="M873.06,-224.42C863.05,-210.95 847.2,-184.66 861,-168 879.17,-146.05 944.99,-134.72 1002.67,-128.92"/>
<polygon fill="midnightblue" stroke="midnightblue" points="1003.34,-132.38 1012.96,-127.94 1002.67,-125.41 1003.34,-132.38"/>
</g>
<!-- Node15&#45;&gt;Node3 -->
<g id="edge16" class="edge">
<title>Node15&#45;&gt;Node3</title>
<path fill="none" stroke="midnightblue" d="M1012.95,-113.22C1008.23,-112.8 1003.56,-112.39 999,-112 824.71,-96.97 619.34,-80.58 515.1,-72.35"/>
<polygon fill="midnightblue" stroke="midnightblue" points="515.27,-68.85 505.03,-71.55 514.72,-75.83 515.27,-68.85"/>
</g>
<!-- Node15&#45;&gt;Node14 -->
<g id="edge15" class="edge">
<title>Node15&#45;&gt;Node14</title>
<path fill="none" stroke="midnightblue" d="M1118.6,-112.44C1139.99,-103.56 1173.68,-89.56 1198.02,-79.45"/>
<polygon fill="midnightblue" stroke="midnightblue" points="1199.61,-82.58 1207.5,-75.52 1196.92,-76.12 1199.61,-82.58"/>
</g>
<!-- Node16 -->
<g id="node16" class="node">
<title>Node16</title>
<g id="a_node16"><a xlink:title=" ">
<polygon fill="none" stroke="#bfbfbf" points="1297,-56.5 1297,-75.5 1339,-75.5 1339,-56.5 1297,-56.5"/>
<text text-anchor="middle" x="1318" y="-63.5" font-family="Helvetica,sans-Serif" font-size="10.00">array</text>
</a>
</g>
</g>
<!-- Node15&#45;&gt;Node16 -->
<g id="edge17" class="edge">
<title>Node15&#45;&gt;Node16</title>
<path fill="none" stroke="midnightblue" d="M1137.1,-112.45C1173.53,-104.32 1229.56,-91.43 1286.8,-76.21"/>
<polygon fill="midnightblue" stroke="midnightblue" points="1287.99,-79.52 1296.74,-73.55 1286.17,-72.75 1287.99,-79.52"/>
</g>
<!-- Node17 -->
<g id="node17" class="node">
<title>Node17</title>
<g id="a_node17"><a xlink:title=" ">
<polygon fill="none" stroke="#bfbfbf" points="1105.5,-56.5 1105.5,-75.5 1158.5,-75.5 1158.5,-56.5 1105.5,-56.5"/>
<text text-anchor="middle" x="1132" y="-63.5" font-family="Helvetica,sans-Serif" font-size="10.00">cstdarg</text>
</a>
</g>
</g>
<!-- Node15&#45;&gt;Node17 -->
<g id="edge18" class="edge">
<title>Node15&#45;&gt;Node17</title>
<path fill="none" stroke="midnightblue" d="M1103.61,-112.08C1108.37,-104.53 1115.32,-93.49 1121.15,-84.23"/>
<polygon fill="midnightblue" stroke="midnightblue" points="1124.12,-86.08 1126.49,-75.75 1118.2,-82.35 1124.12,-86.08"/>
</g>
<!-- Node18 -->
<g id="node18" class="node">
<title>Node18</title>
<g id="a_node18"><a xlink:title=" ">
<polygon fill="none" stroke="#bfbfbf" points="958,-56.5 958,-75.5 1004,-75.5 1004,-56.5 958,-56.5"/>
<text text-anchor="middle" x="981" y="-63.5" font-family="Helvetica,sans-Serif" font-size="10.00">cstdio</text>
</a>
</g>
</g>
<!-- Node15&#45;&gt;Node18 -->
<g id="edge19" class="edge">
<title>Node15&#45;&gt;Node18</title>
<path fill="none" stroke="midnightblue" d="M1079.46,-112.44C1060.38,-103.64 1030.43,-89.81 1008.56,-79.72"/>
<polygon fill="midnightblue" stroke="midnightblue" points="1010,-76.53 999.45,-75.52 1007.07,-82.88 1010,-76.53"/>
</g>
<!-- Node19 -->
<g id="node19" class="node">
<title>Node19</title>
<g id="a_node19"><a xlink:title=" ">
<polygon fill="none" stroke="#bfbfbf" points="1022.5,-56.5 1022.5,-75.5 1087.5,-75.5 1087.5,-56.5 1022.5,-56.5"/>
<text text-anchor="middle" x="1055" y="-63.5" font-family="Helvetica,sans-Serif" font-size="10.00">stdexcept</text>
</a>
</g>
</g>
<!-- Node15&#45;&gt;Node19 -->
<g id="edge20" class="edge">
<title>Node15&#45;&gt;Node19</title>
<path fill="none" stroke="midnightblue" d="M1090.9,-112.08C1084.76,-104.38 1075.73,-93.03 1068.26,-83.65"/>
<polygon fill="midnightblue" stroke="midnightblue" points="1070.94,-81.39 1061.97,-75.75 1065.46,-85.75 1070.94,-81.39"/>
</g>
<!-- Node20&#45;&gt;Node3 -->
<g id="edge22" class="edge">
<title>Node20&#45;&gt;Node3</title>
<path fill="none" stroke="midnightblue" d="M454.5,-280.27C453.11,-240.89 449.23,-130.49 447.67,-85.97"/>
<polygon fill="midnightblue" stroke="midnightblue" points="451.16,-85.8 447.31,-75.93 444.17,-86.04 451.16,-85.8"/>
</g>
<!-- Node20&#45;&gt;Node4 -->
<g id="edge44" class="edge">
<title>Node20&#45;&gt;Node4</title>
<path fill="none" stroke="midnightblue" d="M366.92,-286.01C306,-278.4 231.93,-265.12 209,-244 186.86,-223.61 190,-209.1 190,-179 190,-179 190,-179 190,-121 190,-88.95 190,-51.64 190,-29.75"/>
<polygon fill="midnightblue" stroke="midnightblue" points="193.5,-29.56 190,-19.56 186.5,-29.56 193.5,-29.56"/>
</g>
<!-- Node20&#45;&gt;Node5 -->
<g id="edge45" class="edge">
<title>Node20&#45;&gt;Node5</title>
<path fill="none" stroke="midnightblue" d="M543.1,-293.98C755.2,-291.32 1287.82,-275.82 1439,-188 1511.56,-145.85 1506.22,-105.47 1574,-56 1591.36,-43.33 1612.76,-32.02 1629.74,-23.91"/>
<polygon fill="midnightblue" stroke="midnightblue" points="1631.58,-26.91 1639.16,-19.52 1628.62,-20.57 1631.58,-26.91"/>
</g>
<!-- Node20&#45;&gt;Node7 -->
<g id="edge47" class="edge">
<title>Node20&#45;&gt;Node7</title>
<path fill="none" stroke="midnightblue" d="M459.03,-280.34C472.65,-233.53 518.27,-85.04 557,-56 609.81,-16.41 812.23,-11.29 894.71,-10.88"/>
<polygon fill="midnightblue" stroke="midnightblue" points="894.85,-14.38 904.84,-10.86 894.83,-7.38 894.85,-14.38"/>
</g>
<!-- Node20&#45;&gt;Node12 -->
<g id="edge51" class="edge">
<title>Node20&#45;&gt;Node12</title>
<path fill="none" stroke="midnightblue" d="M366.62,-285.39C254.63,-271.33 76,-239.45 76,-179 76,-179 76,-179 76,-121 76,-88.49 67.84,-51.35 62.22,-29.61"/>
<polygon fill="midnightblue" stroke="midnightblue" points="65.54,-28.5 59.56,-19.75 58.78,-30.32 65.54,-28.5"/>
</g>
<!-- Node20&#45;&gt;Node13 -->
<g id="edge23" class="edge">
<title>Node20&#45;&gt;Node13</title>
<path fill="none" stroke="midnightblue" d="M543.06,-282.17C621.9,-271.13 736.01,-255.16 809.11,-244.92"/>
<polygon fill="midnightblue" stroke="midnightblue" points="809.72,-248.37 819.14,-243.52 808.75,-241.44 809.72,-248.37"/>
</g>
<!-- Node21 -->
<g id="node21" class="node">
<title>Node21</title>
<g id="a_node21"><a xlink:href="../../d7/d1b/_buffer_8h.html" target="_top" xlink:title=" ">
<polygon fill="none" stroke="black" points="1168,-224.5 1168,-243.5 1234,-243.5 1234,-224.5 1168,-224.5"/>
<text text-anchor="middle" x="1201" y="-231.5" font-family="Helvetica,sans-Serif" font-size="10.00">io/Buffer.h</text>
</a>
</g>
</g>
<!-- Node20&#45;&gt;Node21 -->
<g id="edge24" class="edge">
<title>Node20&#45;&gt;Node21</title>
<path fill="none" stroke="midnightblue" d="M543.14,-287.47C703.69,-274.66 1038.27,-247.98 1157.58,-238.46"/>
<polygon fill="midnightblue" stroke="midnightblue" points="1158.09,-241.93 1167.78,-237.65 1157.53,-234.96 1158.09,-241.93"/>
</g>
<!-- Node20&#45;&gt;Node23 -->
<g id="edge46" class="edge">
<title>Node20&#45;&gt;Node23</title>
<path fill="none" stroke="midnightblue" d="M474.54,-280.41C511.27,-254.55 593.88,-199.29 671,-168 719.91,-148.15 779.85,-135.45 817.5,-128.77"/>
<polygon fill="midnightblue" stroke="midnightblue" points="818.24,-132.19 827.5,-127.04 817.05,-125.29 818.24,-132.19"/>
</g>
<!-- Node29 -->
<g id="node29" class="node">
<title>Node29</title>
<g id="a_node29"><a xlink:title=" ">
<polygon fill="none" stroke="#bfbfbf" points="218.5,-224.5 218.5,-243.5 283.5,-243.5 283.5,-224.5 218.5,-224.5"/>
<text text-anchor="middle" x="251" y="-231.5" font-family="Helvetica,sans-Serif" font-size="10.00">functional</text>
</a>
</g>
</g>
<!-- Node20&#45;&gt;Node29 -->
<g id="edge48" class="edge">
<title>Node20&#45;&gt;Node29</title>
<path fill="none" stroke="midnightblue" d="M406.91,-280.47C371.26,-270.08 323.27,-256.08 289.99,-246.37"/>
<polygon fill="midnightblue" stroke="midnightblue" points="290.74,-242.95 280.16,-243.51 288.78,-249.67 290.74,-242.95"/>
</g>
<!-- Node30 -->
<g id="node30" class="node">
<title>Node30</title>
<g id="a_node30"><a xlink:title=" ">
<polygon fill="none" stroke="#bfbfbf" points="301.5,-224.5 301.5,-243.5 354.5,-243.5 354.5,-224.5 301.5,-224.5"/>
<text text-anchor="middle" x="328" y="-231.5" font-family="Helvetica,sans-Serif" font-size="10.00">iterator</text>
</a>
</g>
</g>
<!-- Node20&#45;&gt;Node30 -->
<g id="edge49" class="edge">
<title>Node20&#45;&gt;Node30</title>
<path fill="none" stroke="midnightblue" d="M424.9,-280.4C403.88,-270.55 376.03,-257.5 355.58,-247.92"/>
<polygon fill="midnightblue" stroke="midnightblue" points="357.02,-244.73 346.48,-243.66 354.05,-251.07 357.02,-244.73"/>
</g>
<!-- Node31 -->
<g id="node31" class="node">
<title>Node31</title>
<g id="a_node31"><a xlink:title=" ">
<polygon fill="none" stroke="#bfbfbf" points="373,-224.5 373,-243.5 429,-243.5 429,-224.5 373,-224.5"/>
<text text-anchor="middle" x="401" y="-231.5" font-family="Helvetica,sans-Serif" font-size="10.00">numeric</text>
</a>
</g>
</g>
<!-- Node20&#45;&gt;Node31 -->
<g id="edge50" class="edge">
<title>Node20&#45;&gt;Node31</title>
<path fill="none" stroke="midnightblue" d="M442.2,-280.4C434.28,-271.66 424.06,-260.41 415.79,-251.3"/>
<polygon fill="midnightblue" stroke="midnightblue" points="418.17,-248.71 408.86,-243.66 412.99,-253.42 418.17,-248.71"/>
</g>
<!-- Node21&#45;&gt;Node3 -->
<g id="edge27" class="edge">
<title>Node21&#45;&gt;Node3</title>
<path fill="none" stroke="midnightblue" d="M1186.49,-224.36C1159.84,-208.62 1103.94,-176.11 1083,-168 1019.07,-143.24 997.74,-154.57 933,-132 913.1,-125.06 910.32,-117.59 890,-112 760.76,-76.47 603.37,-68.42 515.25,-66.93"/>
<polygon fill="midnightblue" stroke="midnightblue" points="515.17,-63.43 505.12,-66.79 515.06,-70.43 515.17,-63.43"/>
</g>
<!-- Node21&#45;&gt;Node5 -->
<g id="edge40" class="edge">
<title>Node21&#45;&gt;Node5</title>
<path fill="none" stroke="midnightblue" d="M1217.49,-224.38C1234.81,-215.34 1262.83,-200.69 1287,-188 1399.3,-129.06 1424.24,-107.82 1540,-56 1567.69,-43.6 1599.93,-31.55 1623.86,-23.05"/>
<polygon fill="midnightblue" stroke="midnightblue" points="1625.31,-26.25 1633.58,-19.63 1622.98,-19.65 1625.31,-26.25"/>
</g>
<!-- Node21&#45;&gt;Node7 -->
<g id="edge41" class="edge">
<title>Node21&#45;&gt;Node7</title>
<path fill="none" stroke="midnightblue" d="M1191.67,-224.24C1176.61,-210.53 1145.54,-183.91 1115,-168 1069.01,-144.03 1048.11,-159.29 1004,-132 974.33,-113.65 966.65,-106.09 949,-76 940.54,-61.58 935.62,-43.13 932.91,-29.57"/>
<polygon fill="midnightblue" stroke="midnightblue" points="936.32,-28.76 931.13,-19.53 929.43,-29.98 936.32,-28.76"/>
</g>
<!-- Node22 -->
<g id="node22" class="node">
<title>Node22</title>
<g id="a_node22"><a xlink:href="../../d2/d4f/_address_sanitizer_8h.html" target="_top" xlink:title=" ">
<polygon fill="none" stroke="black" points="966.5,-168.5 966.5,-187.5 1073.5,-187.5 1073.5,-168.5 966.5,-168.5"/>
<text text-anchor="middle" x="1020" y="-175.5" font-family="Helvetica,sans-Serif" font-size="10.00">AddressSanitizer.h</text>
</a>
</g>
</g>
<!-- Node21&#45;&gt;Node22 -->
<g id="edge25" class="edge">
<title>Node21&#45;&gt;Node22</title>
<path fill="none" stroke="midnightblue" d="M1172.32,-224.44C1141.47,-215.24 1092.27,-200.56 1058.17,-190.39"/>
<polygon fill="midnightblue" stroke="midnightblue" points="1059.13,-187.02 1048.55,-187.52 1057.13,-193.73 1059.13,-187.02"/>
</g>
<!-- Node24 -->
<g id="node24" class="node">
<title>Node24</title>
<g id="a_node24"><a xlink:href="../../d3/de6/_memory_8h.html" target="_top" xlink:title=" ">
<polygon fill="none" stroke="black" points="1168,-168.5 1168,-187.5 1278,-187.5 1278,-168.5 1168,-168.5"/>
<text text-anchor="middle" x="1223" y="-175.5" font-family="Helvetica,sans-Serif" font-size="10.00">common/Memory.h</text>
</a>
</g>
</g>
<!-- Node21&#45;&gt;Node24 -->
<g id="edge28" class="edge">
<title>Node21&#45;&gt;Node24</title>
<path fill="none" stroke="midnightblue" d="M1204.63,-224.08C1207.61,-216.77 1211.93,-206.18 1215.62,-197.1"/>
<polygon fill="midnightblue" stroke="midnightblue" points="1218.9,-198.33 1219.43,-187.75 1212.42,-195.69 1218.9,-198.33"/>
</g>
<!-- Node25 -->
<g id="node25" class="node">
<title>Node25</title>
<g id="a_node25"><a xlink:href="../../d5/d0b/_endianness_8h.html" target="_top" xlink:title=" ">
<polygon fill="none" stroke="black" points="1582.5,-56.5 1582.5,-75.5 1675.5,-75.5 1675.5,-56.5 1582.5,-56.5"/>
<text text-anchor="middle" x="1629" y="-63.5" font-family="Helvetica,sans-Serif" font-size="10.00">io/Endianness.h</text>
</a>
</g>
</g>
<!-- Node21&#45;&gt;Node25 -->
<g id="edge33" class="edge">
<title>Node21&#45;&gt;Node25</title>
<path fill="none" stroke="midnightblue" d="M1234.04,-230.72C1281.03,-226.61 1369.21,-215.63 1439,-188 1507.47,-160.89 1578.01,-108.2 1610.53,-82.22"/>
<polygon fill="midnightblue" stroke="midnightblue" points="1613.08,-84.66 1618.66,-75.65 1608.68,-79.22 1613.08,-84.66"/>
</g>
<!-- Node26 -->
<g id="node26" class="node">
<title>Node26</title>
<g id="a_node26"><a xlink:href="../../d0/dd8/_i_o_exception_8h.html" target="_top" xlink:title=" ">
<polygon fill="none" stroke="black" points="1334,-168.5 1334,-187.5 1430,-187.5 1430,-168.5 1334,-168.5"/>
<text text-anchor="middle" x="1382" y="-175.5" font-family="Helvetica,sans-Serif" font-size="10.00">io/IOException.h</text>
</a>
</g>
</g>
<!-- Node21&#45;&gt;Node26 -->
<g id="edge37" class="edge">
<title>Node21&#45;&gt;Node26</title>
<path fill="none" stroke="midnightblue" d="M1229.68,-224.44C1260.53,-215.24 1309.73,-200.56 1343.83,-190.39"/>
<polygon fill="midnightblue" stroke="midnightblue" points="1344.87,-193.73 1353.45,-187.52 1342.87,-187.02 1344.87,-193.73"/>
</g>
<!-- Node21&#45;&gt;Node27 -->
<g id="edge42" class="edge">
<title>Node21&#45;&gt;Node27</title>
<path fill="none" stroke="midnightblue" d="M1167.99,-229.12C1085.42,-219.4 870.22,-194.09 781.31,-183.63"/>
<polygon fill="midnightblue" stroke="midnightblue" points="781.46,-180.12 771.12,-182.43 780.64,-187.07 781.46,-180.12"/>
</g>
<!-- Node28 -->
<g id="node28" class="node">
<title>Node28</title>
<g id="a_node28"><a xlink:title=" ">
<polygon fill="none" stroke="#bfbfbf" points="903.5,-168.5 903.5,-187.5 948.5,-187.5 948.5,-168.5 903.5,-168.5"/>
<text text-anchor="middle" x="926" y="-175.5" font-family="Helvetica,sans-Serif" font-size="10.00">utility</text>
</a>
</g>
</g>
<!-- Node21&#45;&gt;Node28 -->
<g id="edge43" class="edge">
<title>Node21&#45;&gt;Node28</title>
<path fill="none" stroke="midnightblue" d="M1167.79,-227.83C1122.64,-220.6 1039.23,-206.47 958.49,-187.93"/>
<polygon fill="midnightblue" stroke="midnightblue" points="959.19,-184.5 948.66,-185.65 957.61,-191.32 959.19,-184.5"/>
</g>
<!-- Node22&#45;&gt;Node23 -->
<g id="edge26" class="edge">
<title>Node22&#45;&gt;Node23</title>
<path fill="none" stroke="midnightblue" d="M993.7,-168.44C965.65,-159.32 921.06,-144.81 889.82,-134.65"/>
<polygon fill="midnightblue" stroke="midnightblue" points="890.77,-131.28 880.18,-131.52 888.61,-137.94 890.77,-131.28"/>
</g>
<!-- Node24&#45;&gt;Node3 -->
<g id="edge30" class="edge">
<title>Node24&#45;&gt;Node3</title>
<path fill="none" stroke="midnightblue" d="M1178.85,-168.46C1134.54,-159.76 1064.39,-145.65 1004,-132 967.83,-123.82 959.56,-118.21 923,-112 779.05,-87.56 608.18,-75.46 515.35,-70.28"/>
<polygon fill="midnightblue" stroke="midnightblue" points="515.42,-66.78 505.25,-69.73 515.04,-73.77 515.42,-66.78"/>
</g>
<!-- Node24&#45;&gt;Node7 -->
<g id="edge32" class="edge">
<title>Node24&#45;&gt;Node7</title>
<path fill="none" stroke="midnightblue" d="M1244.46,-168.47C1289.86,-149.27 1388.26,-100.83 1348,-56 1322.59,-27.7 1061.45,-15.65 965.29,-12.15"/>
<polygon fill="midnightblue" stroke="midnightblue" points="965.31,-8.65 955.2,-11.79 965.07,-15.65 965.31,-8.65"/>
</g>
<!-- Node24&#45;&gt;Node14 -->
<g id="edge29" class="edge">
<title>Node24&#45;&gt;Node14</title>
<path fill="none" stroke="midnightblue" d="M1223.39,-168.37C1224.2,-150.62 1226.06,-109.67 1227.15,-85.6"/>
<polygon fill="midnightblue" stroke="midnightblue" points="1230.65,-85.74 1227.61,-75.59 1223.66,-85.42 1230.65,-85.74"/>
</g>
<!-- Node24&#45;&gt;Node23 -->
<g id="edge31" class="edge">
<title>Node24&#45;&gt;Node23</title>
<path fill="none" stroke="midnightblue" d="M1167.76,-168.92C1091.58,-157.77 956.31,-137.97 891.14,-128.43"/>
<polygon fill="midnightblue" stroke="midnightblue" points="891.33,-124.93 880.93,-126.94 890.32,-131.85 891.33,-124.93"/>
</g>
<!-- Node25&#45;&gt;Node5 -->
<g id="edge34" class="edge">
<title>Node25&#45;&gt;Node5</title>
<path fill="none" stroke="midnightblue" d="M1633.95,-56.08C1638.1,-48.61 1644.15,-37.72 1649.27,-28.52"/>
<polygon fill="midnightblue" stroke="midnightblue" points="1652.34,-30.19 1654.14,-19.75 1646.22,-26.79 1652.34,-30.19"/>
</g>
<!-- Node25&#45;&gt;Node7 -->
<g id="edge35" class="edge">
<title>Node25&#45;&gt;Node7</title>
<path fill="none" stroke="midnightblue" d="M1582.43,-60.61C1565.88,-59.1 1547.11,-57.42 1530,-56 1315.71,-38.22 1058.09,-19.94 965.38,-13.46"/>
<polygon fill="midnightblue" stroke="midnightblue" points="965.38,-9.95 955.16,-12.74 964.89,-16.93 965.38,-9.95"/>
</g>
<!-- Node25&#45;&gt;Node8 -->
<g id="edge36" class="edge">
<title>Node25&#45;&gt;Node8</title>
<path fill="none" stroke="midnightblue" d="M1654.19,-56.44C1680.94,-47.36 1723.4,-32.94 1753.31,-22.78"/>
<polygon fill="midnightblue" stroke="midnightblue" points="1754.58,-26.05 1762.92,-19.52 1752.33,-19.42 1754.58,-26.05"/>
</g>
<!-- Node26&#45;&gt;Node14 -->
<g id="edge38" class="edge">
<title>Node26&#45;&gt;Node14</title>
<path fill="none" stroke="midnightblue" d="M1369.92,-168.37C1343.6,-149.57 1280.88,-104.77 1248.35,-81.53"/>
<polygon fill="midnightblue" stroke="midnightblue" points="1250.2,-78.56 1240.03,-75.59 1246.13,-84.25 1250.2,-78.56"/>
</g>
<!-- Node26&#45;&gt;Node15 -->
<g id="edge39" class="edge">
<title>Node26&#45;&gt;Node15</title>
<path fill="none" stroke="midnightblue" d="M1337,-168.44C1287.04,-158.94 1206.4,-143.61 1152.8,-133.42"/>
<polygon fill="midnightblue" stroke="midnightblue" points="1153.27,-129.95 1142.79,-131.52 1151.96,-136.82 1153.27,-129.95"/>
</g>
<!-- Node32&#45;&gt;Node5 -->
<g id="edge75" class="edge">
<title>Node32&#45;&gt;Node5</title>
<path fill="none" stroke="midnightblue" d="M845.53,-416.95C1045.71,-414.25 1559.97,-398.72 1703,-311 1781.02,-263.15 1773.03,-201.93 1756,-112 1751.02,-85.73 1751.27,-76.41 1734,-56 1722.33,-42.21 1705.32,-31.52 1690.44,-24.03"/>
<polygon fill="midnightblue" stroke="midnightblue" points="1691.58,-20.7 1681.05,-19.56 1688.58,-27.02 1691.58,-20.7"/>
</g>
<!-- Node32&#45;&gt;Node7 -->
<g id="edge76" class="edge">
<title>Node32&#45;&gt;Node7</title>
<path fill="none" stroke="midnightblue" d="M755.03,-403.43C728.48,-364.08 660.92,-250.39 704,-168 744.56,-90.44 842.8,-43.49 895.4,-23.05"/>
<polygon fill="midnightblue" stroke="midnightblue" points="896.86,-26.24 904.97,-19.43 894.38,-19.7 896.86,-26.24"/>
</g>
<!-- Node32&#45;&gt;Node12 -->
<g id="edge80" class="edge">
<title>Node32&#45;&gt;Node12</title>
<path fill="none" stroke="midnightblue" d="M684.42,-412.44C495.14,-399.47 38,-361.44 38,-296.5 38,-296.5 38,-296.5 38,-121 38,-88.49 46.16,-51.35 51.78,-29.61"/>
<polygon fill="midnightblue" stroke="midnightblue" points="55.22,-30.32 54.44,-19.75 48.46,-28.5 55.22,-30.32"/>
</g>
<!-- Node32&#45;&gt;Node13 -->
<g id="edge53" class="edge">
<title>Node32&#45;&gt;Node13</title>
<path fill="none" stroke="midnightblue" d="M773.83,-403.48C794.59,-370.54 846.45,-288.25 869.11,-252.28"/>
<polygon fill="midnightblue" stroke="midnightblue" points="872.07,-254.15 874.44,-243.82 866.15,-250.41 872.07,-254.15"/>
</g>
<!-- Node32&#45;&gt;Node20 -->
<g id="edge54" class="edge">
<title>Node32&#45;&gt;Node20</title>
<path fill="none" stroke="midnightblue" d="M728.83,-403.38C672.13,-381.25 562.41,-338.42 500.46,-314.24"/>
<polygon fill="midnightblue" stroke="midnightblue" points="501.53,-310.9 490.94,-310.53 498.98,-317.42 501.53,-310.9"/>
</g>
<!-- Node32&#45;&gt;Node27 -->
<g id="edge77" class="edge">
<title>Node32&#45;&gt;Node27</title>
<path fill="none" stroke="midnightblue" d="M763.63,-403.29C759.69,-362.43 748.32,-244.55 743.84,-198.12"/>
<polygon fill="midnightblue" stroke="midnightblue" points="747.31,-197.56 742.86,-187.95 740.34,-198.24 747.31,-197.56"/>
</g>
<!-- Node32&#45;&gt;Node28 -->
<g id="edge79" class="edge">
<title>Node32&#45;&gt;Node28</title>
<path fill="none" stroke="midnightblue" d="M783.53,-403.25C834.71,-363.79 974.6,-255.31 980,-244 989.46,-224.21 969.45,-205.36 951.16,-193.11"/>
<polygon fill="midnightblue" stroke="midnightblue" points="952.79,-190 942.46,-187.65 949.07,-195.93 952.79,-190"/>
</g>
<!-- Node32&#45;&gt;Node33 -->
<g id="edge55" class="edge">
<title>Node32&#45;&gt;Node33</title>
<path fill="none" stroke="midnightblue" d="M845.73,-409.41C969.14,-397.05 1201.35,-373.79 1305.77,-363.33"/>
<polygon fill="midnightblue" stroke="midnightblue" points="1306.16,-366.81 1315.76,-362.33 1305.46,-359.85 1306.16,-366.81"/>
</g>
<!-- Node32&#45;&gt;Node36 -->
<g id="edge78" class="edge">
<title>Node32&#45;&gt;Node36</title>
<path fill="none" stroke="midnightblue" d="M793.68,-403.4C813.52,-393.64 839.76,-380.74 859.19,-371.18"/>
<polygon fill="midnightblue" stroke="midnightblue" points="860.96,-374.21 868.39,-366.66 857.88,-367.93 860.96,-374.21"/>
</g>
<!-- Node33&#45;&gt;Node3 -->
<g id="edge56" class="edge">
<title>Node33&#45;&gt;Node3</title>
<path fill="none" stroke="midnightblue" d="M1315.83,-351.74C1218.2,-341.24 973.83,-310.02 780,-244 675.01,-208.24 654.35,-185.13 557,-132 526.16,-115.17 491.38,-94.29 469.34,-80.81"/>
<polygon fill="midnightblue" stroke="midnightblue" points="471.07,-77.76 460.72,-75.52 467.41,-83.73 471.07,-77.76"/>
</g>
<!-- Node33&#45;&gt;Node4 -->
<g id="edge70" class="edge">
<title>Node33&#45;&gt;Node4</title>
<path fill="none" stroke="midnightblue" d="M1315.71,-354.91C1135.83,-350.27 452.36,-331.43 358,-311 279.84,-294.08 240.11,-307.12 191,-244 140.96,-179.68 169.06,-72.29 183.3,-29.46"/>
<polygon fill="midnightblue" stroke="midnightblue" points="186.68,-30.41 186.65,-19.81 180.07,-28.12 186.68,-30.41"/>
</g>
<!-- Node33&#45;&gt;Node5 -->
<g id="edge72" class="edge">
<title>Node33&#45;&gt;Node5</title>
<path fill="none" stroke="midnightblue" d="M1402.08,-352.65C1473.85,-346.56 1614.38,-332.29 1659,-311 1704.14,-289.46 1742,-285.02 1742,-235 1742,-235 1742,-235 1742,-121 1742,-79.91 1704.64,-44.44 1680.05,-25.55"/>
<polygon fill="midnightblue" stroke="midnightblue" points="1682.09,-22.7 1671.97,-19.57 1677.93,-28.33 1682.09,-22.7"/>
</g>
<!-- Node33&#45;&gt;Node7 -->
<g id="edge73" class="edge">
<title>Node33&#45;&gt;Node7</title>
<path fill="none" stroke="midnightblue" d="M1402.2,-353.11C1435.94,-348.75 1482.14,-337.91 1513,-311 1537.59,-289.56 1536.18,-275.91 1543,-244 1565.33,-139.47 1490.06,-100.79 1393,-56 1316.92,-20.89 1059.98,-13.13 965.36,-11.45"/>
<polygon fill="midnightblue" stroke="midnightblue" points="965.22,-7.95 955.17,-11.28 965.11,-14.95 965.22,-7.95"/>
</g>
<!-- Node33&#45;&gt;Node8 -->
<g id="edge74" class="edge">
<title>Node33&#45;&gt;Node8</title>
<path fill="none" stroke="midnightblue" d="M1402.13,-355.47C1483.62,-353.67 1656.21,-345.73 1703,-311 1795,-242.71 1784.91,-188.02 1809,-76 1810.87,-67.31 1810.93,-64.68 1809,-56 1806.88,-46.43 1802.49,-36.48 1798.28,-28.37"/>
<polygon fill="midnightblue" stroke="midnightblue" points="1801.3,-26.6 1793.38,-19.56 1795.18,-30 1801.3,-26.6"/>
</g>
<!-- Node33&#45;&gt;Node16 -->
<g id="edge71" class="edge">
<title>Node33&#45;&gt;Node16</title>
<path fill="none" stroke="midnightblue" d="M1390.77,-347.45C1447.84,-330.33 1558.91,-287.88 1527,-224 1489.43,-148.8 1396.8,-100.22 1348.47,-79.12"/>
<polygon fill="midnightblue" stroke="midnightblue" points="1349.71,-75.84 1339.14,-75.15 1346.97,-82.28 1349.71,-75.84"/>
</g>
<!-- Node33&#45;&gt;Node21 -->
<g id="edge57" class="edge">
<title>Node33&#45;&gt;Node21</title>
<path fill="none" stroke="midnightblue" d="M1347.89,-347.49C1321.32,-327.15 1253.86,-275.48 1220.41,-249.86"/>
<polygon fill="midnightblue" stroke="midnightblue" points="1222.38,-246.96 1212.31,-243.66 1218.12,-252.52 1222.38,-246.96"/>
</g>
<!-- Node33&#45;&gt;Node25 -->
<g id="edge68" class="edge">
<title>Node33&#45;&gt;Node25</title>
<path fill="none" stroke="midnightblue" d="M1402.09,-355.52C1472.29,-353.72 1606.48,-345.7 1636,-311 1691.93,-245.26 1654.43,-129.68 1636.77,-85.18"/>
<polygon fill="midnightblue" stroke="midnightblue" points="1640,-83.83 1632.96,-75.91 1633.52,-86.49 1640,-83.83"/>
</g>
<!-- Node33&#45;&gt;Node26 -->
<g id="edge69" class="edge">
<title>Node33&#45;&gt;Node26</title>
<path fill="none" stroke="midnightblue" d="M1354.38,-347.34C1349.94,-338.49 1343.55,-324.22 1341,-311 1338.39,-297.47 1338.36,-293.52 1341,-280 1346.99,-249.32 1362.32,-216.17 1372.45,-196.52"/>
<polygon fill="midnightblue" stroke="midnightblue" points="1375.6,-198.04 1377.19,-187.56 1369.42,-194.76 1375.6,-198.04"/>
</g>
<!-- Node34 -->
<g id="node34" class="node">
<title>Node34</title>
<g id="a_node34"><a xlink:href="../../d7/de7/_byte_stream_8h.html" target="_top" xlink:title=" ">
<polygon fill="none" stroke="black" points="1349.5,-286 1349.5,-305 1444.5,-305 1444.5,-286 1349.5,-286"/>
<text text-anchor="middle" x="1397" y="-293" font-family="Helvetica,sans-Serif" font-size="10.00">io/ByteStream.h</text>
</a>
</g>
</g>
<!-- Node33&#45;&gt;Node34 -->
<g id="edge58" class="edge">
<title>Node33&#45;&gt;Node34</title>
<path fill="none" stroke="midnightblue" d="M1364.44,-347.48C1370.09,-338.64 1379.06,-324.59 1386.16,-313.48"/>
<polygon fill="midnightblue" stroke="midnightblue" points="1389.13,-315.32 1391.57,-305.01 1383.23,-311.55 1389.13,-315.32"/>
</g>
<!-- Node34&#45;&gt;Node3 -->
<g id="edge60" class="edge">
<title>Node34&#45;&gt;Node3</title>
<path fill="none" stroke="midnightblue" d="M1349.29,-287.48C1291.61,-278.69 1191.75,-262.54 1107,-244 867.78,-191.68 585.25,-108.66 484.77,-78.46"/>
<polygon fill="midnightblue" stroke="midnightblue" points="485.66,-75.07 475.07,-75.54 483.64,-81.78 485.66,-75.07"/>
</g>
<!-- Node34&#45;&gt;Node5 -->
<g id="edge64" class="edge">
<title>Node34&#45;&gt;Node5</title>
<path fill="none" stroke="midnightblue" d="M1428.81,-285.94C1456.18,-277.72 1496.02,-263.64 1527,-244 1613.57,-189.13 1648.71,-171.86 1685,-76 1691.22,-59.56 1682.12,-40.95 1673.02,-27.87"/>
<polygon fill="midnightblue" stroke="midnightblue" points="1675.73,-25.65 1666.9,-19.79 1670.15,-29.88 1675.73,-25.65"/>
</g>
<!-- Node34&#45;&gt;Node7 -->
<g id="edge65" class="edge">
<title>Node34&#45;&gt;Node7</title>
<path fill="none" stroke="midnightblue" d="M1403.6,-285.97C1418.47,-265.66 1452.31,-212.81 1439,-168 1422.08,-111.04 1416.72,-86.96 1366,-56 1298.99,-15.1 1056.77,-10.9 965.3,-10.81"/>
<polygon fill="midnightblue" stroke="midnightblue" points="965.16,-7.31 955.17,-10.81 965.17,-14.31 965.16,-7.31"/>
</g>
<!-- Node34&#45;&gt;Node8 -->
<g id="edge66" class="edge">
<title>Node34&#45;&gt;Node8</title>
<path fill="none" stroke="midnightblue" d="M1434.12,-285.97C1504.47,-268.18 1658.85,-221.16 1756,-132 1778.16,-111.66 1785.17,-104.75 1794,-76 1798.68,-60.77 1796.41,-42.66 1793.41,-29.42"/>
<polygon fill="midnightblue" stroke="midnightblue" points="1796.77,-28.42 1790.86,-19.63 1789.99,-30.19 1796.77,-28.42"/>
</g>
<!-- Node34&#45;&gt;Node21 -->
<g id="edge62" class="edge">
<title>Node34&#45;&gt;Node21</title>
<path fill="none" stroke="midnightblue" d="M1368.92,-285.98C1334.71,-275.59 1276.8,-258.01 1238.73,-246.45"/>
<polygon fill="midnightblue" stroke="midnightblue" points="1239.62,-243.06 1229.03,-243.51 1237.58,-249.76 1239.62,-243.06"/>
</g>
<!-- Node34&#45;&gt;Node22 -->
<g id="edge59" class="edge">
<title>Node34&#45;&gt;Node22</title>
<path fill="none" stroke="midnightblue" d="M1349.19,-287.65C1300.51,-279.92 1223.28,-265.53 1159,-244 1117.2,-230 1071.35,-206.94 1044.16,-192.38"/>
<polygon fill="midnightblue" stroke="midnightblue" points="1045.82,-189.3 1035.36,-187.61 1042.49,-195.45 1045.82,-189.3"/>
</g>
<!-- Node34&#45;&gt;Node24 -->
<g id="edge61" class="edge">
<title>Node34&#45;&gt;Node24</title>
<path fill="none" stroke="midnightblue" d="M1383.92,-285.82C1354.19,-266.09 1281.3,-217.7 1244.7,-193.41"/>
<polygon fill="midnightblue" stroke="midnightblue" points="1246.5,-190.4 1236.23,-187.78 1242.63,-196.23 1246.5,-190.4"/>
</g>
<!-- Node34&#45;&gt;Node26 -->
<g id="edge63" class="edge">
<title>Node34&#45;&gt;Node26</title>
<path fill="none" stroke="midnightblue" d="M1395.87,-285.82C1393.46,-267.26 1387.76,-223.34 1384.46,-197.97"/>
<polygon fill="midnightblue" stroke="midnightblue" points="1387.9,-197.25 1383.14,-187.78 1380.96,-198.15 1387.9,-197.25"/>
</g>
<!-- Node35 -->
<g id="node35" class="node">
<title>Node35</title>
<g id="a_node35"><a xlink:title=" ">
<polygon fill="none" stroke="#bfbfbf" points="1474,-224.5 1474,-243.5 1518,-243.5 1518,-224.5 1474,-224.5"/>
<text text-anchor="middle" x="1496" y="-231.5" font-family="Helvetica,sans-Serif" font-size="10.00">limits</text>
</a>
</g>
</g>
<!-- Node34&#45;&gt;Node35 -->
<g id="edge67" class="edge">
<title>Node34&#45;&gt;Node35</title>
<path fill="none" stroke="midnightblue" d="M1411.18,-285.98C1427.36,-276.25 1454.03,-260.23 1473.14,-248.74"/>
<polygon fill="midnightblue" stroke="midnightblue" points="1475.07,-251.66 1481.84,-243.51 1471.47,-245.66 1475.07,-251.66"/>
</g>
</g>
</svg>
