<?xml version="1.0" encoding="UTF-8" standalone="no"?>
<!DOCTYPE svg PUBLIC "-//W3C//DTD SVG 1.1//EN"
 "http://www.w3.org/Graphics/SVG/1.1/DTD/svg11.dtd">
<!-- Generated by graphviz version 2.43.0 (0)
 -->
<!-- Title: rawspeed::AbstractHuffmanTable Pages: 1 -->
<svg width="531pt" height="262pt"
 viewBox="0.00 0.00 531.00 262.00" xmlns="http://www.w3.org/2000/svg" xmlns:xlink="http://www.w3.org/1999/xlink">
<g id="graph0" class="graph" transform="scale(1 1) rotate(0) translate(4 258)">
<title>rawspeed::AbstractHuffmanTable</title>
<!-- Node1 -->
<g id="node1" class="node">
<title>Node1</title>
<g id="a_node1"><a xlink:title=" ">
<polygon fill="#bfbfbf" stroke="black" points="235,-0.5 235,-30.5 387,-30.5 387,-0.5 235,-0.5"/>
<text text-anchor="start" x="243" y="-18.5" font-family="Helvetica,sans-Serif" font-size="10.00">rawspeed::AbstractHuffman</text>
<text text-anchor="middle" x="311" y="-7.5" font-family="Helvetica,sans-Serif" font-size="10.00">Table</text>
</a>
</g>
</g>
<!-- Node2 -->
<g id="node2" class="node">
<title>Node2</title>
<g id="a_node2"><a xlink:title=" ">
<polygon fill="none" stroke="#bfbfbf" points="0,-95 0,-114 46,-114 46,-95 0,-95"/>
<text text-anchor="middle" x="23" y="-102" font-family="Helvetica,sans-Serif" font-size="10.00">return</text>
</a>
</g>
</g>
<!-- Node2&#45;&gt;Node1 -->
<g id="edge1" class="edge">
<title>Node2&#45;&gt;Node1</title>
<path fill="none" stroke="#9a32cd" stroke-dasharray="5,2" d="M47.49,-89.9C70.68,-77.56 106.78,-59.71 140,-49 170.34,-39.22 204.72,-31.98 234.65,-26.85"/>
<polygon fill="#9a32cd" stroke="#9a32cd" points="45.53,-86.98 38.39,-94.81 48.86,-93.14 45.53,-86.98"/>
<text text-anchor="middle" x="148.5" y="-57.5" font-family="Helvetica,sans-Serif" font-size="10.00"> ret</text>
</g>
<!-- Node3 -->
<g id="node3" class="node">
<title>Node3</title>
<g id="a_node3"><a xlink:title=" ">
<polygon fill="none" stroke="#bfbfbf" points="64.5,-95 64.5,-114 189.5,-114 189.5,-95 64.5,-95"/>
<text text-anchor="middle" x="127" y="-102" font-family="Helvetica,sans-Serif" font-size="10.00">std::vector&lt; uint8_t &gt;</text>
</a>
</g>
</g>
<!-- Node3&#45;&gt;Node1 -->
<g id="edge2" class="edge">
<title>Node3&#45;&gt;Node1</title>
<path fill="none" stroke="#9a32cd" stroke-dasharray="5,2" d="M141.85,-87.47C153.98,-75.27 172.15,-58.93 191,-49 205.7,-41.25 222.42,-35.23 238.6,-30.58"/>
<polygon fill="#9a32cd" stroke="#9a32cd" points="139.22,-85.15 134.8,-94.78 144.26,-90.01 139.22,-85.15"/>
<text text-anchor="middle" x="220.5" y="-57.5" font-family="Helvetica,sans-Serif" font-size="10.00"> codeValues</text>
</g>
<!-- Node4 -->
<g id="node4" class="node">
<title>Node4</title>
<g id="a_node4"><a xlink:title=" ">
<polygon fill="none" stroke="#bfbfbf" points="90,-167.5 90,-186.5 140,-186.5 140,-167.5 90,-167.5"/>
<text text-anchor="middle" x="115" y="-174.5" font-family="Helvetica,sans-Serif" font-size="10.00">uint8_t</text>
</a>
</g>
</g>
<!-- Node4&#45;&gt;Node3 -->
<g id="edge3" class="edge">
<title>Node4&#45;&gt;Node3</title>
<path fill="none" stroke="#9a32cd" stroke-dasharray="5,2" d="M114.38,-157.38C114.47,-151.18 114.89,-144.25 116,-138 117.48,-129.67 120.71,-120.58 123.28,-114.14"/>
<polygon fill="#9a32cd" stroke="#9a32cd" points="110.88,-157.52 114.5,-167.47 117.88,-157.43 110.88,-157.52"/>
<text text-anchor="middle" x="140.5" y="-141" font-family="Helvetica,sans-Serif" font-size="10.00"> elements</text>
</g>
<!-- Node5 -->
<g id="node5" class="node">
<title>Node5</title>
<g id="a_node5"><a xlink:title="STL class.">
<polygon fill="none" stroke="#bfbfbf" points="190.5,-167.5 190.5,-186.5 287.5,-186.5 287.5,-167.5 190.5,-167.5"/>
<text text-anchor="middle" x="239" y="-174.5" font-family="Helvetica,sans-Serif" font-size="10.00">std::vector&lt; T &gt;</text>
</a>
</g>
</g>
<!-- Node5&#45;&gt;Node3 -->
<g id="edge4" class="edge">
<title>Node5&#45;&gt;Node3</title>
<path fill="none" stroke="orange" stroke-dasharray="5,2" d="M212.3,-162.72C204.36,-158.54 195.72,-153.77 188,-149 170.07,-137.93 150.41,-123.45 138.38,-114.31"/>
<polygon fill="orange" stroke="orange" points="210.72,-165.84 221.21,-167.31 213.93,-159.62 210.72,-165.84"/>
<text text-anchor="middle" x="218" y="-141" font-family="Helvetica,sans-Serif" font-size="10.00"> &lt; uint8_t &gt;</text>
</g>
<!-- Node9 -->
<g id="node9" class="node">
<title>Node9</title>
<g id="a_node9"><a xlink:title=" ">
<polygon fill="none" stroke="#bfbfbf" points="208,-89.5 208,-119.5 332,-119.5 332,-89.5 208,-89.5"/>
<text text-anchor="start" x="216" y="-107.5" font-family="Helvetica,sans-Serif" font-size="10.00">std::vector&lt; unsigned</text>
<text text-anchor="middle" x="270" y="-96.5" font-family="Helvetica,sans-Serif" font-size="10.00"> int &gt;</text>
</a>
</g>
</g>
<!-- Node5&#45;&gt;Node9 -->
<g id="edge10" class="edge">
<title>Node5&#45;&gt;Node9</title>
<path fill="none" stroke="orange" stroke-dasharray="5,2" d="M246.93,-157.96C252.18,-146.03 258.96,-130.61 263.81,-119.58"/>
<polygon fill="orange" stroke="orange" points="243.62,-156.79 242.8,-167.36 250.03,-159.61 243.62,-156.79"/>
<text text-anchor="middle" x="299" y="-141" font-family="Helvetica,sans-Serif" font-size="10.00"> &lt; unsigned int &gt;</text>
</g>
<!-- Node6 -->
<g id="node6" class="node">
<title>Node6</title>
<g id="a_node6"><a xlink:title=" ">
<polygon fill="none" stroke="#bfbfbf" points="224.5,-234.5 224.5,-253.5 253.5,-253.5 253.5,-234.5 224.5,-234.5"/>
<text text-anchor="middle" x="239" y="-241.5" font-family="Helvetica,sans-Serif" font-size="10.00">T</text>
</a>
</g>
</g>
<!-- Node6&#45;&gt;Node5 -->
<g id="edge5" class="edge">
<title>Node6&#45;&gt;Node5</title>
<path fill="none" stroke="#9a32cd" stroke-dasharray="5,2" d="M239,-224.04C239,-211.67 239,-196.12 239,-186.63"/>
<polygon fill="#9a32cd" stroke="#9a32cd" points="235.5,-224.23 239,-234.23 242.5,-224.23 235.5,-224.23"/>
<text text-anchor="middle" x="263.5" y="-208" font-family="Helvetica,sans-Serif" font-size="10.00"> elements</text>
</g>
<!-- Node7 -->
<g id="node7" class="node">
<title>Node7</title>
<g id="a_node7"><a xlink:title=" ">
<polygon fill="none" stroke="#bfbfbf" points="400.5,-167.5 400.5,-186.5 429.5,-186.5 429.5,-167.5 400.5,-167.5"/>
<text text-anchor="middle" x="415" y="-174.5" font-family="Helvetica,sans-Serif" font-size="10.00">int</text>
</a>
</g>
</g>
<!-- Node7&#45;&gt;Node1 -->
<g id="edge6" class="edge">
<title>Node7&#45;&gt;Node1</title>
<path fill="none" stroke="#9a32cd" stroke-dasharray="5,2" d="M423.73,-157.9C435.2,-131.19 451.22,-80.94 427,-49 421.34,-41.54 405.47,-35.33 387.2,-30.4"/>
<polygon fill="#9a32cd" stroke="#9a32cd" points="420.45,-156.64 419.51,-167.19 426.83,-159.54 420.45,-156.64"/>
<text text-anchor="middle" x="449.5" y="-102" font-family="Helvetica,sans-Serif" font-size="10.00"> len</text>
</g>
<!-- Node7&#45;&gt;Node9 -->
<g id="edge9" class="edge">
<title>Node7&#45;&gt;Node9</title>
<path fill="none" stroke="#9a32cd" stroke-dasharray="5,2" d="M391.53,-162.31C378.32,-154.81 361.43,-145.53 346,-138 332.71,-131.52 317.82,-124.99 304.76,-119.51"/>
<polygon fill="#9a32cd" stroke="#9a32cd" points="390,-165.48 400.42,-167.42 393.49,-159.4 390,-165.48"/>
<text text-anchor="middle" x="392.5" y="-141" font-family="Helvetica,sans-Serif" font-size="10.00"> elements</text>
</g>
<!-- Node8 -->
<g id="node8" class="node">
<title>Node8</title>
<g id="a_node8"><a xlink:title=" ">
<polygon fill="none" stroke="#bfbfbf" points="350,-95 350,-114 388,-114 388,-95 350,-95"/>
<text text-anchor="middle" x="369" y="-102" font-family="Helvetica,sans-Serif" font-size="10.00">bool</text>
</a>
</g>
</g>
<!-- Node8&#45;&gt;Node1 -->
<g id="edge7" class="edge">
<title>Node8&#45;&gt;Node1</title>
<path fill="none" stroke="#9a32cd" stroke-dasharray="5,2" d="M363.06,-85.36C358.96,-74.29 352.83,-60.16 345,-49 340.31,-42.31 334.1,-35.89 328.27,-30.55"/>
<polygon fill="#9a32cd" stroke="#9a32cd" points="359.77,-86.55 366.37,-94.84 366.38,-84.25 359.77,-86.55"/>
<text text-anchor="middle" x="390" y="-63" font-family="Helvetica,sans-Serif" font-size="10.00"> fullDecode</text>
<text text-anchor="middle" x="390" y="-52" font-family="Helvetica,sans-Serif" font-size="10.00">fixDNGBug16</text>
</g>
<!-- Node9&#45;&gt;Node1 -->
<g id="edge8" class="edge">
<title>Node9&#45;&gt;Node1</title>
<path fill="none" stroke="#9a32cd" stroke-dasharray="5,2" d="M257.1,-79.9C253.42,-69.89 251.69,-58.4 257,-49 261.31,-41.38 268.2,-35.35 275.63,-30.66"/>
<polygon fill="#9a32cd" stroke="#9a32cd" points="253.99,-81.54 261.23,-89.28 260.4,-78.71 253.99,-81.54"/>
<text text-anchor="middle" x="301" y="-57.5" font-family="Helvetica,sans-Serif" font-size="10.00"> nCodesPerLength</text>
</g>
<!-- Node10 -->
<g id="node10" class="node">
<title>Node10</title>
<g id="a_node10"><a xlink:title=" ">
<polygon fill="none" stroke="#bfbfbf" points="485,-95 485,-114 523,-114 523,-95 485,-95"/>
<text text-anchor="middle" x="504" y="-102" font-family="Helvetica,sans-Serif" font-size="10.00">auto</text>
</a>
</g>
</g>
<!-- Node10&#45;&gt;Node1 -->
<g id="edge11" class="edge">
<title>Node10&#45;&gt;Node1</title>
<path fill="none" stroke="#9a32cd" stroke-dasharray="5,2" d="M494.97,-86.1C487.7,-73.84 476.35,-58.06 462,-49 439.78,-34.97 412.44,-26.92 387.16,-22.33"/>
<polygon fill="#9a32cd" stroke="#9a32cd" points="491.99,-87.93 499.9,-94.98 498.11,-84.54 491.99,-87.93"/>
<text text-anchor="middle" x="492.5" y="-57.5" font-family="Helvetica,sans-Serif" font-size="10.00"> ret</text>
</g>
</g>
</svg>
