<?xml version="1.0" encoding="UTF-8" standalone="no"?>
<!DOCTYPE svg PUBLIC "-//W3C//DTD SVG 1.1//EN"
 "http://www.w3.org/Graphics/SVG/1.1/DTD/svg11.dtd">
<!-- Generated by graphviz version 2.43.0 (0)
 -->
<!-- Title: rawspeed::FiffParser Pages: 1 -->
<!--zoomable 472 -->
<svg id="main" version="1.1" xmlns="http://www.w3.org/2000/svg" xmlns:xlink="http://www.w3.org/1999/xlink" xml:space="preserve" onload="init(evt)">
<style type="text/css"><![CDATA[
.edge:hover path { stroke: red; }
.edge:hover polygon { stroke: red; fill: red; }
]]></style>
<script type="text/javascript"><![CDATA[
var edges = document.getElementsByTagName('g');
if (edges && edges.length) {
  for (var i=0;i<edges.length;i++) {
    if (edges[i].id.substr(0,4)=='edge') {
      edges[i].setAttribute('class','edge');
    }
  }
}
]]></script>
        <defs>
                <circle id="rim" cx="0" cy="0" r="7"/>
                <circle id="rim2" cx="0" cy="0" r="3.5"/>
                <g id="zoomPlus">
                        <use xlink:href="#rim" fill="#404040">
                                <set attributeName="fill" to="#808080" begin="zoomplus.mouseover" end="zoomplus.mouseout"/>
                        </use>
                        <path d="M-4,0h8M0,-4v8" fill="none" stroke="white" stroke-width="1.5" pointer-events="none"/>
                </g>
                <g id="zoomMin">
                        <use xlink:href="#rim" fill="#404040">
                                <set attributeName="fill" to="#808080" begin="zoomminus.mouseover" end="zoomminus.mouseout"/>
                        </use>
                        <path d="M-4,0h8" fill="none" stroke="white" stroke-width="1.5" pointer-events="none"/>
                </g>
                <g id="dirArrow">
                        <path fill="none" stroke="white" stroke-width="1.5" d="M0,-3.0v7 M-2.5,-0.5L0,-3.0L2.5,-0.5"/>
                </g>
               <g id="resetDef">
                       <use xlink:href="#rim2" fill="#404040">
                               <set attributeName="fill" to="#808080" begin="reset.mouseover" end="reset.mouseout"/>
                       </use>
               </g>
        </defs>

<script type="text/javascript">
var viewWidth = 788;
var viewHeight = 472;
var sectionId = 'dynsection-1';
</script>
<script xlink:href="../../svgpan.js"/>
<svg id="graph" class="graph">
<g id="viewport">
<title>rawspeed::FiffParser</title>
<!-- Node1 -->
<g id="node1" class="node">
<title>Node1</title>
<g id="a_node1"><a xlink:title=" ">
<polygon fill="#bfbfbf" stroke="black" points="19.5,-0.5 19.5,-19.5 133.5,-19.5 133.5,-0.5 19.5,-0.5"/>
<text text-anchor="middle" x="76.5" y="-7.5" font-family="Helvetica,sans-Serif" font-size="10.00">rawspeed::FiffParser</text>
</a>
</g>
</g>
<!-- Node2 -->
<g id="node2" class="node">
<title>Node2</title>
<g id="a_node2"><a xlink:href="../../da/d24/classrawspeed_1_1_raw_parser.html" target="_top" xlink:title=" ">
<polygon fill="none" stroke="black" points="0,-183.5 0,-202.5 121,-202.5 121,-183.5 0,-183.5"/>
<text text-anchor="middle" x="60.5" y="-190.5" font-family="Helvetica,sans-Serif" font-size="10.00">rawspeed::RawParser</text>
</a>
</g>
</g>
<!-- Node2&#45;&gt;Node1 -->
<g id="edge1" class="edge">
<title>Node2&#45;&gt;Node1</title>
<path fill="none" stroke="midnightblue" d="M62.19,-172.88C65.62,-134.04 73.29,-47.29 75.74,-19.64"/>
<polygon fill="midnightblue" stroke="midnightblue" points="58.67,-173 61.27,-183.27 65.64,-173.62 58.67,-173"/>
</g>
<!-- Node3 -->
<g id="node3" class="node">
<title>Node3</title>
<g id="a_node3"><a xlink:href="../../d3/dca/classrawspeed_1_1_buffer.html" target="_top" xlink:title=" ">
<polygon fill="none" stroke="black" points="11,-305 11,-324 110,-324 110,-305 11,-305"/>
<text text-anchor="middle" x="60.5" y="-312" font-family="Helvetica,sans-Serif" font-size="10.00">rawspeed::Buffer</text>
</a>
</g>
</g>
<!-- Node3&#45;&gt;Node2 -->
<g id="edge2" class="edge">
<title>Node3&#45;&gt;Node2</title>
<path fill="none" stroke="#9a32cd" stroke-dasharray="5,2" d="M60.5,-294.72C60.5,-268.41 60.5,-221.65 60.5,-202.52"/>
<polygon fill="#9a32cd" stroke="#9a32cd" points="57,-294.91 60.5,-304.91 64,-294.91 57,-294.91"/>
<text text-anchor="middle" x="79.5" y="-267.5" font-family="Helvetica,sans-Serif" font-size="10.00"> mInput</text>
</g>
<!-- Node19 -->
<g id="node19" class="node">
<title>Node19</title>
<g id="a_node19"><a xlink:href="../../d1/dd4/classrawspeed_1_1_data_buffer.html" target="_top" xlink:title=" ">
<polygon fill="none" stroke="black" points="235.5,-221.5 235.5,-240.5 357.5,-240.5 357.5,-221.5 235.5,-221.5"/>
<text text-anchor="middle" x="296.5" y="-228.5" font-family="Helvetica,sans-Serif" font-size="10.00">rawspeed::DataBuffer</text>
</a>
</g>
</g>
<!-- Node3&#45;&gt;Node19 -->
<g id="edge24" class="edge">
<title>Node3&#45;&gt;Node19</title>
<path fill="none" stroke="midnightblue" d="M88.14,-300.65C114.35,-288.78 155.05,-271.2 191.5,-259 213.1,-251.77 237.74,-245.34 257.72,-240.58"/>
<polygon fill="midnightblue" stroke="midnightblue" points="86.48,-297.55 78.84,-304.89 89.39,-303.92 86.48,-297.55"/>
</g>
<!-- Node4 -->
<g id="node4" class="node">
<title>Node4</title>
<g id="a_node4"><a xlink:href="../../d3/d87/classuint32__t.html" target="_top" xlink:title=" ">
<polygon fill="none" stroke="black" points="168.5,-377.5 168.5,-396.5 224.5,-396.5 224.5,-377.5 168.5,-377.5"/>
<text text-anchor="middle" x="196.5" y="-384.5" font-family="Helvetica,sans-Serif" font-size="10.00">uint32_t</text>
</a>
</g>
</g>
<!-- Node4&#45;&gt;Node3 -->
<g id="edge3" class="edge">
<title>Node4&#45;&gt;Node3</title>
<path fill="none" stroke="#9a32cd" stroke-dasharray="5,2" d="M171.06,-372.81C143.51,-358.53 100.38,-336.17 76.96,-324.03"/>
<polygon fill="#9a32cd" stroke="#9a32cd" points="169.61,-376 180.1,-377.5 172.83,-369.79 169.61,-376"/>
<text text-anchor="middle" x="152" y="-351" font-family="Helvetica,sans-Serif" font-size="10.00"> size</text>
</g>
<!-- Node9 -->
<g id="node9" class="node">
<title>Node9</title>
<g id="a_node9"><a xlink:href="../../db/d6a/classrawspeed_1_1_tiff_i_f_d.html" target="_top" xlink:title=" ">
<polygon fill="none" stroke="black" points="376,-221.5 376,-240.5 477,-240.5 477,-221.5 376,-221.5"/>
<text text-anchor="middle" x="426.5" y="-228.5" font-family="Helvetica,sans-Serif" font-size="10.00">rawspeed::TiffIFD</text>
</a>
</g>
</g>
<!-- Node4&#45;&gt;Node9 -->
<g id="edge21" class="edge">
<title>Node4&#45;&gt;Node9</title>
<path fill="none" stroke="#9a32cd" stroke-dasharray="5,2" d="M211.68,-369.93C228.81,-352.03 257.8,-322.53 284.5,-299 306.11,-279.95 309.91,-272.22 335.5,-259 351.17,-250.91 369.63,-244.86 385.82,-240.57"/>
<polygon fill="#9a32cd" stroke="#9a32cd" points="209.04,-367.61 204.68,-377.27 214.11,-372.44 209.04,-367.61"/>
<text text-anchor="middle" x="305" y="-312" font-family="Helvetica,sans-Serif" font-size="10.00"> nextIFD</text>
</g>
<!-- Node5 -->
<g id="node5" class="node">
<title>Node5</title>
<g id="a_node5"><a xlink:title=" ">
<polygon fill="none" stroke="#bfbfbf" points="8.5,-377.5 8.5,-396.5 46.5,-396.5 46.5,-377.5 8.5,-377.5"/>
<text text-anchor="middle" x="27.5" y="-384.5" font-family="Helvetica,sans-Serif" font-size="10.00">bool</text>
</a>
</g>
</g>
<!-- Node5&#45;&gt;Node3 -->
<g id="edge4" class="edge">
<title>Node5&#45;&gt;Node3</title>
<path fill="none" stroke="#9a32cd" stroke-dasharray="5,2" d="M25.28,-367.15C25.24,-360.84 25.98,-353.92 28.5,-348 32.59,-338.38 40.97,-330.04 48.13,-324.22"/>
<polygon fill="#9a32cd" stroke="#9a32cd" points="21.81,-367.74 25.99,-377.47 28.8,-367.25 21.81,-367.74"/>
<text text-anchor="middle" x="50" y="-351" font-family="Helvetica,sans-Serif" font-size="10.00"> isOwner</text>
</g>
<!-- Node6 -->
<g id="node6" class="node">
<title>Node6</title>
<g id="a_node6"><a xlink:title=" ">
<polygon fill="none" stroke="#bfbfbf" points="68.5,-377.5 68.5,-396.5 118.5,-396.5 118.5,-377.5 68.5,-377.5"/>
<text text-anchor="middle" x="93.5" y="-384.5" font-family="Helvetica,sans-Serif" font-size="10.00">uint8_t</text>
</a>
</g>
</g>
<!-- Node6&#45;&gt;Node3 -->
<g id="edge5" class="edge">
<title>Node6&#45;&gt;Node3</title>
<path fill="none" stroke="#9a32cd" stroke-dasharray="5,2" d="M85.16,-368.18C78.58,-354.13 69.69,-335.14 64.58,-324.22"/>
<polygon fill="#9a32cd" stroke="#9a32cd" points="82.04,-369.78 89.45,-377.36 88.38,-366.81 82.04,-369.78"/>
<text text-anchor="middle" x="92" y="-351" font-family="Helvetica,sans-Serif" font-size="10.00"> data</text>
</g>
<!-- Node7 -->
<g id="node7" class="node">
<title>Node7</title>
<g id="a_node7"><a xlink:title=" ">
<polygon fill="none" stroke="#bfbfbf" points="88.5,-67.5 88.5,-97.5 226.5,-97.5 226.5,-67.5 88.5,-67.5"/>
<text text-anchor="start" x="96.5" y="-85.5" font-family="Helvetica,sans-Serif" font-size="10.00">std::unique_ptr&lt; TiffRoot</text>
<text text-anchor="middle" x="157.5" y="-74.5" font-family="Helvetica,sans-Serif" font-size="10.00">IFD &gt;</text>
</a>
</g>
</g>
<!-- Node7&#45;&gt;Node1 -->
<g id="edge6" class="edge">
<title>Node7&#45;&gt;Node1</title>
<path fill="none" stroke="#9a32cd" stroke-dasharray="5,2" d="M133.38,-60.51C117.82,-46.96 98.37,-30.03 86.72,-19.89"/>
<polygon fill="#9a32cd" stroke="#9a32cd" points="131.27,-63.31 141.11,-67.23 135.86,-58.03 131.27,-63.31"/>
<text text-anchor="middle" x="138" y="-41" font-family="Helvetica,sans-Serif" font-size="10.00"> rootIFD</text>
</g>
<!-- Node8 -->
<g id="node8" class="node">
<title>Node8</title>
<g id="a_node8"><a xlink:href="../../df/d4d/classrawspeed_1_1_tiff_root_i_f_d.html" target="_top" xlink:title=" ">
<polygon fill="none" stroke="black" points="235,-145.5 235,-164.5 358,-164.5 358,-145.5 235,-145.5"/>
<text text-anchor="middle" x="296.5" y="-152.5" font-family="Helvetica,sans-Serif" font-size="10.00">rawspeed::TiffRootIFD</text>
</a>
</g>
</g>
<!-- Node8&#45;&gt;Node7 -->
<g id="edge7" class="edge">
<title>Node8&#45;&gt;Node7</title>
<path fill="none" stroke="#9a32cd" stroke-dasharray="5,2" d="M270.74,-140.93C246.41,-128.59 210.03,-110.14 185.11,-97.51"/>
<polygon fill="#9a32cd" stroke="#9a32cd" points="269.23,-144.09 279.73,-145.5 272.4,-137.85 269.23,-144.09"/>
<text text-anchor="middle" x="247" y="-119" font-family="Helvetica,sans-Serif" font-size="10.00"> ptr</text>
</g>
<!-- Node9&#45;&gt;Node8 -->
<g id="edge8" class="edge">
<title>Node9&#45;&gt;Node8</title>
<path fill="none" stroke="midnightblue" d="M405.62,-215.82C391.01,-206.12 370.89,-193.23 352.5,-183 340.52,-176.34 326.64,-169.64 315.7,-164.58"/>
<polygon fill="midnightblue" stroke="midnightblue" points="403.68,-218.73 413.94,-221.39 407.58,-212.92 403.68,-218.73"/>
</g>
<!-- Node9&#45;&gt;Node9 -->
<g id="edge9" class="edge">
<title>Node9&#45;&gt;Node9</title>
<path fill="none" stroke="#9a32cd" stroke-dasharray="5,2" d="M487.43,-236.36C492.11,-235.18 495,-233.39 495,-231 495,-227.18 487.61,-224.89 477.28,-224.15"/>
<polygon fill="#9a32cd" stroke="#9a32cd" points="486.67,-232.94 477.28,-237.85 487.69,-239.86 486.67,-232.94"/>
<text text-anchor="middle" x="512.5" y="-228.5" font-family="Helvetica,sans-Serif" font-size="10.00"> parent</text>
</g>
<!-- Node10 -->
<g id="node10" class="node">
<title>Node10</title>
<g id="a_node10"><a xlink:title=" ">
<polygon fill="none" stroke="#bfbfbf" points="381.5,-305 381.5,-324 535.5,-324 535.5,-305 381.5,-305"/>
<text text-anchor="middle" x="458.5" y="-312" font-family="Helvetica,sans-Serif" font-size="10.00">std::vector&lt; TiffIFDOwner &gt;</text>
</a>
</g>
</g>
<!-- Node10&#45;&gt;Node9 -->
<g id="edge10" class="edge">
<title>Node10&#45;&gt;Node9</title>
<path fill="none" stroke="#9a32cd" stroke-dasharray="5,2" d="M463.89,-295.05C466.07,-284.04 466.96,-270.1 461.5,-259 457.71,-251.29 450.54,-245.15 443.67,-240.7"/>
<polygon fill="#9a32cd" stroke="#9a32cd" points="460.47,-294.31 461.47,-304.86 467.26,-295.99 460.47,-294.31"/>
<text text-anchor="middle" x="486.5" y="-267.5" font-family="Helvetica,sans-Serif" font-size="10.00"> subIFDs</text>
</g>
<!-- Node11 -->
<g id="node11" class="node">
<title>Node11</title>
<g id="a_node11"><a xlink:title="STL class.">
<polygon fill="none" stroke="#bfbfbf" points="392.5,-377.5 392.5,-396.5 510.5,-396.5 510.5,-377.5 392.5,-377.5"/>
<text text-anchor="middle" x="451.5" y="-384.5" font-family="Helvetica,sans-Serif" font-size="10.00">std::unique_ptr&lt; T &gt;</text>
</a>
</g>
</g>
<!-- Node11&#45;&gt;Node7 -->
<g id="edge26" class="edge">
<title>Node11&#45;&gt;Node7</title>
<path fill="none" stroke="orange" stroke-dasharray="5,2" d="M434.59,-370.49C424.57,-362.28 411.19,-352.9 397.5,-348 347.15,-329.96 199.52,-363.09 157.5,-330 135.86,-312.96 138.5,-298.55 138.5,-271 138.5,-271 138.5,-271 138.5,-154 138.5,-133.84 145.83,-111.53 151.38,-97.51"/>
<polygon fill="orange" stroke="orange" points="432.59,-373.38 442.45,-377.26 437.16,-368.08 432.59,-373.38"/>
<text text-anchor="middle" x="178" y="-228.5" font-family="Helvetica,sans-Serif" font-size="10.00"> &lt; TiffRootIFD &gt;</text>
</g>
<!-- Node11&#45;&gt;Node10 -->
<g id="edge11" class="edge">
<title>Node11&#45;&gt;Node10</title>
<path fill="none" stroke="#9a32cd" stroke-dasharray="5,2" d="M451.41,-367.21C451.54,-361.08 451.85,-354.24 452.5,-348 453.36,-339.78 455.15,-330.53 456.55,-324"/>
<polygon fill="#9a32cd" stroke="#9a32cd" points="447.91,-367.2 451.34,-377.22 454.91,-367.25 447.91,-367.2"/>
<text text-anchor="middle" x="477" y="-351" font-family="Helvetica,sans-Serif" font-size="10.00"> elements</text>
</g>
<!-- Node14 -->
<g id="node14" class="node">
<title>Node14</title>
<g id="a_node14"><a xlink:title=" ">
<polygon fill="none" stroke="#bfbfbf" points="553.5,-299.5 553.5,-329.5 659.5,-329.5 659.5,-299.5 553.5,-299.5"/>
<text text-anchor="start" x="561.5" y="-317.5" font-family="Helvetica,sans-Serif" font-size="10.00">std::map&lt; TiffTag,</text>
<text text-anchor="middle" x="606.5" y="-306.5" font-family="Helvetica,sans-Serif" font-size="10.00"> TiffEntryOwner &gt;</text>
</a>
</g>
</g>
<!-- Node11&#45;&gt;Node14 -->
<g id="edge16" class="edge">
<title>Node11&#45;&gt;Node14</title>
<path fill="none" stroke="#9a32cd" stroke-dasharray="5,2" d="M479.51,-373.26C506.64,-360.92 547.67,-342.26 575.71,-329.51"/>
<polygon fill="#9a32cd" stroke="#9a32cd" points="477.85,-370.17 470.2,-377.5 480.75,-376.54 477.85,-370.17"/>
<text text-anchor="middle" x="558" y="-351" font-family="Helvetica,sans-Serif" font-size="10.00"> elements</text>
</g>
<!-- Node12 -->
<g id="node12" class="node">
<title>Node12</title>
<g id="a_node12"><a xlink:title=" ">
<polygon fill="none" stroke="#bfbfbf" points="437,-444.5 437,-463.5 466,-463.5 466,-444.5 437,-444.5"/>
<text text-anchor="middle" x="451.5" y="-451.5" font-family="Helvetica,sans-Serif" font-size="10.00">T</text>
</a>
</g>
</g>
<!-- Node12&#45;&gt;Node11 -->
<g id="edge12" class="edge">
<title>Node12&#45;&gt;Node11</title>
<path fill="none" stroke="#9a32cd" stroke-dasharray="5,2" d="M451.5,-434.04C451.5,-421.67 451.5,-406.12 451.5,-396.63"/>
<polygon fill="#9a32cd" stroke="#9a32cd" points="448,-434.23 451.5,-444.23 455,-434.23 448,-434.23"/>
<text text-anchor="middle" x="460" y="-418" font-family="Helvetica,sans-Serif" font-size="10.00"> ptr</text>
</g>
<!-- Node13 -->
<g id="node13" class="node">
<title>Node13</title>
<g id="a_node13"><a xlink:title="STL class.">
<polygon fill="none" stroke="#bfbfbf" points="272,-377.5 272,-396.5 369,-396.5 369,-377.5 272,-377.5"/>
<text text-anchor="middle" x="320.5" y="-384.5" font-family="Helvetica,sans-Serif" font-size="10.00">std::vector&lt; T &gt;</text>
</a>
</g>
</g>
<!-- Node12&#45;&gt;Node13 -->
<g id="edge14" class="edge">
<title>Node12&#45;&gt;Node13</title>
<path fill="none" stroke="#9a32cd" stroke-dasharray="5,2" d="M427.87,-441.27C402,-428.44 361.13,-408.16 337.99,-396.68"/>
<polygon fill="#9a32cd" stroke="#9a32cd" points="426.47,-444.49 436.98,-445.8 429.58,-438.22 426.47,-444.49"/>
<text text-anchor="middle" x="418" y="-418" font-family="Helvetica,sans-Serif" font-size="10.00"> elements</text>
</g>
<!-- Node16 -->
<g id="node16" class="node">
<title>Node16</title>
<g id="a_node16"><a xlink:title="STL class.">
<polygon fill="none" stroke="#bfbfbf" points="537,-377.5 537,-396.5 638,-396.5 638,-377.5 537,-377.5"/>
<text text-anchor="middle" x="587.5" y="-384.5" font-family="Helvetica,sans-Serif" font-size="10.00">std::map&lt; K, T &gt;</text>
</a>
</g>
</g>
<!-- Node12&#45;&gt;Node16 -->
<g id="edge20" class="edge">
<title>Node12&#45;&gt;Node16</title>
<path fill="none" stroke="#9a32cd" stroke-dasharray="5,2" d="M475.16,-441.69C502.06,-428.83 545.39,-408.12 569.62,-396.54"/>
<polygon fill="#9a32cd" stroke="#9a32cd" points="473.57,-438.57 466.05,-446.04 476.59,-444.89 473.57,-438.57"/>
<text text-anchor="middle" x="552" y="-418" font-family="Helvetica,sans-Serif" font-size="10.00"> elements</text>
</g>
<!-- Node13&#45;&gt;Node10 -->
<g id="edge13" class="edge">
<title>Node13&#45;&gt;Node10</title>
<path fill="none" stroke="orange" stroke-dasharray="5,2" d="M334.06,-369.22C340.75,-361.84 349.35,-353.61 358.5,-348 376.55,-336.94 398.78,-329.22 417.69,-324.1"/>
<polygon fill="orange" stroke="orange" points="331.01,-367.4 327.15,-377.27 336.32,-371.96 331.01,-367.4"/>
<text text-anchor="middle" x="403" y="-351" font-family="Helvetica,sans-Serif" font-size="10.00"> &lt; TiffIFDOwner &gt;</text>
</g>
<!-- Node14&#45;&gt;Node9 -->
<g id="edge15" class="edge">
<title>Node14&#45;&gt;Node9</title>
<path fill="none" stroke="#9a32cd" stroke-dasharray="5,2" d="M575.96,-293.75C557.75,-282.55 533.88,-268.84 511.5,-259 494.63,-251.58 475.08,-245.23 458.98,-240.55"/>
<polygon fill="#9a32cd" stroke="#9a32cd" points="574.59,-297.02 584.93,-299.35 578.3,-291.08 574.59,-297.02"/>
<text text-anchor="middle" x="572" y="-267.5" font-family="Helvetica,sans-Serif" font-size="10.00"> entries</text>
</g>
<!-- Node15 -->
<g id="node15" class="node">
<title>Node15</title>
<g id="a_node15"><a xlink:title=" ">
<polygon fill="none" stroke="#bfbfbf" points="731,-377.5 731,-396.5 780,-396.5 780,-377.5 731,-377.5"/>
<text text-anchor="middle" x="755.5" y="-384.5" font-family="Helvetica,sans-Serif" font-size="10.00">TiffTag</text>
</a>
</g>
</g>
<!-- Node15&#45;&gt;Node14 -->
<g id="edge17" class="edge">
<title>Node15&#45;&gt;Node14</title>
<path fill="none" stroke="#9a32cd" stroke-dasharray="5,2" d="M748.61,-367.73C745.08,-360.63 740.11,-353.01 733.5,-348 712.36,-331.99 684.16,-323.82 659.71,-319.67"/>
<polygon fill="#9a32cd" stroke="#9a32cd" points="745.6,-369.6 752.76,-377.41 752.03,-366.84 745.6,-369.6"/>
<text text-anchor="middle" x="756" y="-351" font-family="Helvetica,sans-Serif" font-size="10.00"> keys</text>
</g>
<!-- Node16&#45;&gt;Node14 -->
<g id="edge18" class="edge">
<title>Node16&#45;&gt;Node14</title>
<path fill="none" stroke="orange" stroke-dasharray="5,2" d="M591.7,-367.19C593.13,-361.05 594.81,-354.22 596.5,-348 598.14,-341.96 600.14,-335.35 601.91,-329.68"/>
<polygon fill="orange" stroke="orange" points="588.22,-366.68 589.41,-377.2 595.05,-368.23 588.22,-366.68"/>
<text text-anchor="middle" x="665" y="-351" font-family="Helvetica,sans-Serif" font-size="10.00"> &lt; TiffTag, TiffEntryOwner &gt;</text>
</g>
<!-- Node17 -->
<g id="node17" class="node">
<title>Node17</title>
<g id="a_node17"><a xlink:title=" ">
<polygon fill="none" stroke="#bfbfbf" points="573,-444.5 573,-463.5 602,-463.5 602,-444.5 573,-444.5"/>
<text text-anchor="middle" x="587.5" y="-451.5" font-family="Helvetica,sans-Serif" font-size="10.00">K</text>
</a>
</g>
</g>
<!-- Node17&#45;&gt;Node16 -->
<g id="edge19" class="edge">
<title>Node17&#45;&gt;Node16</title>
<path fill="none" stroke="#9a32cd" stroke-dasharray="5,2" d="M587.5,-434.04C587.5,-421.67 587.5,-406.12 587.5,-396.63"/>
<polygon fill="#9a32cd" stroke="#9a32cd" points="584,-434.23 587.5,-444.23 591,-434.23 584,-434.23"/>
<text text-anchor="middle" x="601" y="-418" font-family="Helvetica,sans-Serif" font-size="10.00"> keys</text>
</g>
<!-- Node18 -->
<g id="node18" class="node">
<title>Node18</title>
<g id="a_node18"><a xlink:title=" ">
<polygon fill="none" stroke="#bfbfbf" points="334,-305 334,-324 363,-324 363,-305 334,-305"/>
<text text-anchor="middle" x="348.5" y="-312" font-family="Helvetica,sans-Serif" font-size="10.00">int</text>
</a>
</g>
</g>
<!-- Node18&#45;&gt;Node9 -->
<g id="edge22" class="edge">
<title>Node18&#45;&gt;Node9</title>
<path fill="none" stroke="#9a32cd" stroke-dasharray="5,2" d="M342.01,-295.02C339.23,-283.62 338.11,-269.25 345.5,-259 352.78,-248.9 364,-242.52 375.8,-238.51"/>
<polygon fill="#9a32cd" stroke="#9a32cd" points="338.72,-296.25 344.95,-304.82 345.43,-294.24 338.72,-296.25"/>
<text text-anchor="middle" x="401.5" y="-273" font-family="Helvetica,sans-Serif" font-size="10.00"> subIFDCountRecursive</text>
<text text-anchor="middle" x="401.5" y="-262" font-family="Helvetica,sans-Serif" font-size="10.00">subIFDCount</text>
</g>
<!-- Node19&#45;&gt;Node8 -->
<g id="edge23" class="edge">
<title>Node19&#45;&gt;Node8</title>
<path fill="none" stroke="#9a32cd" stroke-dasharray="5,2" d="M296.5,-211.07C296.5,-196.18 296.5,-176.11 296.5,-164.77"/>
<polygon fill="#9a32cd" stroke="#9a32cd" points="293,-211.22 296.5,-221.22 300,-211.22 293,-211.22"/>
<text text-anchor="middle" x="322.5" y="-190.5" font-family="Helvetica,sans-Serif" font-size="10.00"> rootBuffer</text>
</g>
<!-- Node20 -->
<g id="node20" class="node">
<title>Node20</title>
<g id="a_node20"><a xlink:title=" ">
<polygon fill="none" stroke="#bfbfbf" points="166.5,-305 166.5,-324 238.5,-324 238.5,-305 166.5,-305"/>
<text text-anchor="middle" x="202.5" y="-312" font-family="Helvetica,sans-Serif" font-size="10.00">Endianness</text>
</a>
</g>
</g>
<!-- Node20&#45;&gt;Node19 -->
<g id="edge25" class="edge">
<title>Node20&#45;&gt;Node19</title>
<path fill="none" stroke="#9a32cd" stroke-dasharray="5,2" d="M197.27,-294.9C195.23,-283.45 194.91,-269.08 202.5,-259 210.57,-248.29 222.61,-241.61 235.4,-237.51"/>
<polygon fill="#9a32cd" stroke="#9a32cd" points="193.89,-295.81 199.56,-304.76 200.71,-294.22 193.89,-295.81"/>
<text text-anchor="middle" x="232" y="-267.5" font-family="Helvetica,sans-Serif" font-size="10.00"> endianness</text>
</g>
</g>
</svg>
        <g id="navigator" transform="translate(0 0)" fill="#404254">
                <rect fill="#f2f5e9" fill-opacity="0.5" stroke="#606060" stroke-width=".5" x="0" y="0" width="60" height="60"/>
                <use id="zoomplus" xlink:href="#zoomPlus" x="17" y="9" onmousedown="handleZoom(evt,'in')"/>
                <use id="zoomminus" xlink:href="#zoomMin" x="42" y="9" onmousedown="handleZoom(evt,'out')"/>
                <use id="reset" xlink:href="#resetDef" x="30" y="36" onmousedown="handleReset()"/>
                <g id="arrowUp" xlink:href="#dirArrow" transform="translate(30 24)" onmousedown="handlePan(0,-1)">
                  <use xlink:href="#rim" fill="#404040">
                        <set attributeName="fill" to="#808080" begin="arrowUp.mouseover" end="arrowUp.mouseout"/>
                  </use>
                  <path fill="none" stroke="white" stroke-width="1.5" d="M0,-3.0v7 M-2.5,-0.5L0,-3.0L2.5,-0.5"/>
                </g>
                <g id="arrowRight" xlink:href="#dirArrow" transform="rotate(90) translate(36 -43)" onmousedown="handlePan(1,0)">
                  <use xlink:href="#rim" fill="#404040">
                        <set attributeName="fill" to="#808080" begin="arrowRight.mouseover" end="arrowRight.mouseout"/>
                  </use>
                  <path fill="none" stroke="white" stroke-width="1.5" d="M0,-3.0v7 M-2.5,-0.5L0,-3.0L2.5,-0.5"/>
                </g>
                <g id="arrowDown" xlink:href="#dirArrow" transform="rotate(180) translate(-30 -48)" onmousedown="handlePan(0,1)">
                  <use xlink:href="#rim" fill="#404040">
                        <set attributeName="fill" to="#808080" begin="arrowDown.mouseover" end="arrowDown.mouseout"/>
                  </use>
                  <path fill="none" stroke="white" stroke-width="1.5" d="M0,-3.0v7 M-2.5,-0.5L0,-3.0L2.5,-0.5"/>
                </g>
                <g id="arrowLeft" xlink:href="#dirArrow" transform="rotate(270) translate(-36 17)" onmousedown="handlePan(-1,0)">
                  <use xlink:href="#rim" fill="#404040">
                        <set attributeName="fill" to="#808080" begin="arrowLeft.mouseover" end="arrowLeft.mouseout"/>
                  </use>
                  <path fill="none" stroke="white" stroke-width="1.5" d="M0,-3.0v7 M-2.5,-0.5L0,-3.0L2.5,-0.5"/>
                </g>
        </g>
        <svg viewBox="0 0 15 15" width="100%" height="30px" preserveAspectRatio="xMaxYMin meet">
         <g id="arrow_out" transform="scale(0.3 0.3)">
          <a xlink:href="classrawspeed_1_1_fiff_parser__coll__graph_org.svg" target="_base">
           <rect id="button" ry="5" rx="5" y="6" x="6" height="38" width="38"
                fill="#f2f5e9" fill-opacity="0.5" stroke="#606060" stroke-width="1.0"/>
           <path id="arrow"
             d="M 11.500037,31.436501 C 11.940474,20.09759 22.043105,11.32322 32.158766,21.979434 L 37.068811,17.246167 C 37.068811,17.246167 37.088388,32 37.088388,32 L 22.160133,31.978069 C 22.160133,31.978069 26.997745,27.140456 26.997745,27.140456 C 18.528582,18.264221 13.291696,25.230495 11.500037,31.436501 z"
             style="fill:#404040;"/>
          </a>
         </g>
        </svg>
</svg>
