<?xml version="1.0" encoding="UTF-8" standalone="no"?>
<!DOCTYPE svg PUBLIC "-//W3C//DTD SVG 1.1//EN"
 "http://www.w3.org/Graphics/SVG/1.1/DTD/svg11.dtd">
<!-- Generated by graphviz version 2.43.0 (0)
 -->
<!-- Title: rawspeed::DngOpcodes::TrimBounds Pages: 1 -->
<svg width="292pt" height="341pt"
 viewBox="0.00 0.00 291.50 341.00" xmlns="http://www.w3.org/2000/svg" xmlns:xlink="http://www.w3.org/1999/xlink">
<g id="graph0" class="graph" transform="scale(1 1) rotate(0) translate(4 337)">
<title>rawspeed::DngOpcodes::TrimBounds</title>
<!-- Node1 -->
<g id="node1" class="node">
<title>Node1</title>
<g id="a_node1"><a xlink:title=" ">
<polygon fill="#bfbfbf" stroke="black" points="16,-0.5 16,-30.5 147,-30.5 147,-0.5 16,-0.5"/>
<text text-anchor="start" x="24" y="-18.5" font-family="Helvetica,sans-Serif" font-size="10.00">rawspeed::DngOpcodes</text>
<text text-anchor="middle" x="81.5" y="-7.5" font-family="Helvetica,sans-Serif" font-size="10.00">::TrimBounds</text>
</a>
</g>
</g>
<!-- Node2 -->
<g id="node2" class="node">
<title>Node2</title>
<g id="a_node2"><a xlink:href="../../df/dc9/classrawspeed_1_1_dng_opcodes_1_1_r_o_i_opcode.html" target="_top" xlink:title=" ">
<polygon fill="none" stroke="black" points="16,-68.5 16,-98.5 147,-98.5 147,-68.5 16,-68.5"/>
<text text-anchor="start" x="24" y="-86.5" font-family="Helvetica,sans-Serif" font-size="10.00">rawspeed::DngOpcodes</text>
<text text-anchor="middle" x="81.5" y="-75.5" font-family="Helvetica,sans-Serif" font-size="10.00">::ROIOpcode</text>
</a>
</g>
</g>
<!-- Node2&#45;&gt;Node1 -->
<g id="edge1" class="edge">
<title>Node2&#45;&gt;Node1</title>
<path fill="none" stroke="midnightblue" d="M81.5,-58.03C81.5,-48.86 81.5,-38.74 81.5,-30.79"/>
<polygon fill="midnightblue" stroke="midnightblue" points="78,-58.18 81.5,-68.18 85,-58.18 78,-58.18"/>
</g>
<!-- Node3 -->
<g id="node3" class="node">
<title>Node3</title>
<g id="a_node3"><a xlink:href="../../dd/d5f/classrawspeed_1_1_dng_opcodes_1_1_dng_opcode.html" target="_top" xlink:title=" ">
<polygon fill="none" stroke="black" points="0,-146.5 0,-176.5 131,-176.5 131,-146.5 0,-146.5"/>
<text text-anchor="start" x="8" y="-164.5" font-family="Helvetica,sans-Serif" font-size="10.00">rawspeed::DngOpcodes</text>
<text text-anchor="middle" x="65.5" y="-153.5" font-family="Helvetica,sans-Serif" font-size="10.00">::DngOpcode</text>
</a>
</g>
</g>
<!-- Node3&#45;&gt;Node2 -->
<g id="edge2" class="edge">
<title>Node3&#45;&gt;Node2</title>
<path fill="none" stroke="midnightblue" d="M70.64,-136.09C73.24,-123.76 76.3,-109.22 78.5,-98.73"/>
<polygon fill="midnightblue" stroke="midnightblue" points="67.14,-135.7 68.51,-146.2 73.99,-137.14 67.14,-135.7"/>
</g>
<!-- Node4 -->
<g id="node4" class="node">
<title>Node4</title>
<g id="a_node4"><a xlink:href="../../d6/d8f/classrawspeed_1_1i_rectangle2_d.html" target="_top" xlink:title=" ">
<polygon fill="none" stroke="black" points="149.5,-152 149.5,-171 283.5,-171 283.5,-152 149.5,-152"/>
<text text-anchor="middle" x="216.5" y="-159" font-family="Helvetica,sans-Serif" font-size="10.00">rawspeed::iRectangle2D</text>
</a>
</g>
</g>
<!-- Node4&#45;&gt;Node2 -->
<g id="edge3" class="edge">
<title>Node4&#45;&gt;Node2</title>
<path fill="none" stroke="#9a32cd" stroke-dasharray="5,2" d="M192.38,-146.92C168.17,-133.29 131.04,-112.39 106.51,-98.58"/>
<polygon fill="#9a32cd" stroke="#9a32cd" points="190.85,-150.07 201.28,-151.93 194.28,-143.97 190.85,-150.07"/>
<text text-anchor="middle" x="164.5" y="-120" font-family="Helvetica,sans-Serif" font-size="10.00"> roi</text>
</g>
<!-- Node5 -->
<g id="node5" class="node">
<title>Node5</title>
<g id="a_node5"><a xlink:href="../../d8/d75/classrawspeed_1_1i_point2_d.html" target="_top" xlink:title=" ">
<polygon fill="none" stroke="black" points="161,-235.5 161,-254.5 272,-254.5 272,-235.5 161,-235.5"/>
<text text-anchor="middle" x="216.5" y="-242.5" font-family="Helvetica,sans-Serif" font-size="10.00">rawspeed::iPoint2D</text>
</a>
</g>
</g>
<!-- Node5&#45;&gt;Node4 -->
<g id="edge4" class="edge">
<title>Node5&#45;&gt;Node4</title>
<path fill="none" stroke="#9a32cd" stroke-dasharray="5,2" d="M216.5,-224.88C216.5,-207.9 216.5,-183.87 216.5,-171.16"/>
<polygon fill="#9a32cd" stroke="#9a32cd" points="213,-225.28 216.5,-235.28 220,-225.28 213,-225.28"/>
<text text-anchor="middle" x="227.5" y="-209" font-family="Helvetica,sans-Serif" font-size="10.00"> dim</text>
<text text-anchor="middle" x="227.5" y="-198" font-family="Helvetica,sans-Serif" font-size="10.00">pos</text>
</g>
<!-- Node6 -->
<g id="node6" class="node">
<title>Node6</title>
<g id="a_node6"><a xlink:href="../../de/d73/classint32__t.html" target="_top" xlink:title=" ">
<polygon fill="none" stroke="black" points="191.5,-313.5 191.5,-332.5 241.5,-332.5 241.5,-313.5 191.5,-313.5"/>
<text text-anchor="middle" x="216.5" y="-320.5" font-family="Helvetica,sans-Serif" font-size="10.00">int32_t</text>
</a>
</g>
</g>
<!-- Node6&#45;&gt;Node5 -->
<g id="edge5" class="edge">
<title>Node6&#45;&gt;Node5</title>
<path fill="none" stroke="#9a32cd" stroke-dasharray="5,2" d="M216.5,-303.22C216.5,-287.7 216.5,-266.36 216.5,-254.62"/>
<polygon fill="#9a32cd" stroke="#9a32cd" points="213,-303.28 216.5,-313.28 220,-303.28 213,-303.28"/>
<text text-anchor="middle" x="221.5" y="-287" font-family="Helvetica,sans-Serif" font-size="10.00"> x</text>
<text text-anchor="middle" x="221.5" y="-276" font-family="Helvetica,sans-Serif" font-size="10.00">y</text>
</g>
</g>
</svg>
