<?xml version="1.0" encoding="UTF-8" standalone="no"?>
<!DOCTYPE svg PUBLIC "-//W3C//DTD SVG 1.1//EN"
 "http://www.w3.org/Graphics/SVG/1.1/DTD/svg11.dtd">
<!-- Generated by graphviz version 2.43.0 (0)
 -->
<!-- Title: rawspeed::DngOpcodes::DummyROIOpcode::DummyROIOpcode Pages: 1 -->
<!--zoomable 406 -->
<svg id="main" version="1.1" xmlns="http://www.w3.org/2000/svg" xmlns:xlink="http://www.w3.org/1999/xlink" xml:space="preserve" onload="init(evt)">
<style type="text/css"><![CDATA[
.edge:hover path { stroke: red; }
.edge:hover polygon { stroke: red; fill: red; }
]]></style>
<script type="text/javascript"><![CDATA[
var edges = document.getElementsByTagName('g');
if (edges && edges.length) {
  for (var i=0;i<edges.length;i++) {
    if (edges[i].id.substr(0,4)=='edge') {
      edges[i].setAttribute('class','edge');
    }
  }
}
]]></script>
        <defs>
                <circle id="rim" cx="0" cy="0" r="7"/>
                <circle id="rim2" cx="0" cy="0" r="3.5"/>
                <g id="zoomPlus">
                        <use xlink:href="#rim" fill="#404040">
                                <set attributeName="fill" to="#808080" begin="zoomplus.mouseover" end="zoomplus.mouseout"/>
                        </use>
                        <path d="M-4,0h8M0,-4v8" fill="none" stroke="white" stroke-width="1.5" pointer-events="none"/>
                </g>
                <g id="zoomMin">
                        <use xlink:href="#rim" fill="#404040">
                                <set attributeName="fill" to="#808080" begin="zoomminus.mouseover" end="zoomminus.mouseout"/>
                        </use>
                        <path d="M-4,0h8" fill="none" stroke="white" stroke-width="1.5" pointer-events="none"/>
                </g>
                <g id="dirArrow">
                        <path fill="none" stroke="white" stroke-width="1.5" d="M0,-3.0v7 M-2.5,-0.5L0,-3.0L2.5,-0.5"/>
                </g>
               <g id="resetDef">
                       <use xlink:href="#rim2" fill="#404040">
                               <set attributeName="fill" to="#808080" begin="reset.mouseover" end="reset.mouseout"/>
                       </use>
               </g>
        </defs>

<script type="text/javascript">
var viewWidth = 1061;
var viewHeight = 406;
var sectionId = 'dynsection-2';
</script>
<script xlink:href="../../svgpan.js"/>
<svg id="graph" class="graph">
<g id="viewport">
<title>rawspeed::DngOpcodes::DummyROIOpcode::DummyROIOpcode</title>
<!-- Node1 -->
<g id="node1" class="node">
<title>Node1</title>
<g id="a_node1"><a xlink:title=" ">
<polygon fill="#bfbfbf" stroke="black" points="0,-186.5 0,-216.5 215,-216.5 215,-186.5 0,-186.5"/>
<text text-anchor="start" x="8" y="-204.5" font-family="Helvetica,sans-Serif" font-size="10.00">rawspeed::DngOpcodes</text>
<text text-anchor="middle" x="107.5" y="-193.5" font-family="Helvetica,sans-Serif" font-size="10.00">::DummyROIOpcode::DummyROIOpcode</text>
</a>
</g>
</g>
<!-- Node2 -->
<g id="node2" class="node">
<title>Node2</title>
<g id="a_node2"><a xlink:href="../../df/dc9/classrawspeed_1_1_dng_opcodes_1_1_r_o_i_opcode.html#a18543c8017b64d69566acc55164af4cc" target="_top" xlink:title=" ">
<polygon fill="none" stroke="black" points="251,-186.5 251,-216.5 388,-216.5 388,-186.5 251,-186.5"/>
<text text-anchor="start" x="259" y="-204.5" font-family="Helvetica,sans-Serif" font-size="10.00">rawspeed::DngOpcodes</text>
<text text-anchor="middle" x="319.5" y="-193.5" font-family="Helvetica,sans-Serif" font-size="10.00">::ROIOpcode::ROIOpcode</text>
</a>
</g>
</g>
<!-- Node1&#45;&gt;Node2 -->
<g id="edge1" class="edge">
<title>Node1&#45;&gt;Node2</title>
<path fill="none" stroke="midnightblue" d="M215.04,-201.5C223.7,-201.5 232.35,-201.5 240.75,-201.5"/>
<polygon fill="midnightblue" stroke="midnightblue" points="240.85,-205 250.85,-201.5 240.85,-198 240.85,-205"/>
</g>
<!-- Node3 -->
<g id="node3" class="node">
<title>Node3</title>
<g id="a_node3"><a xlink:href="../../dd/da0/classrawspeed_1_1_byte_stream.html#ac598b7b6f0f8fd5476adb7c1363b1518" target="_top" xlink:title=" ">
<polygon fill="none" stroke="black" points="431,-367.5 431,-397.5 559,-397.5 559,-367.5 431,-367.5"/>
<text text-anchor="start" x="439" y="-385.5" font-family="Helvetica,sans-Serif" font-size="10.00">rawspeed::ByteStream</text>
<text text-anchor="middle" x="495" y="-374.5" font-family="Helvetica,sans-Serif" font-size="10.00">::getU32</text>
</a>
</g>
</g>
<!-- Node2&#45;&gt;Node3 -->
<g id="edge2" class="edge">
<title>Node2&#45;&gt;Node3</title>
<path fill="none" stroke="midnightblue" d="M327.39,-216.9C341.48,-246.83 376.34,-313.38 424,-352.5 428.65,-356.32 433.85,-359.72 439.27,-362.75"/>
<polygon fill="midnightblue" stroke="midnightblue" points="438.04,-366.04 448.53,-367.48 441.22,-359.81 438.04,-366.04"/>
</g>
<!-- Node4 -->
<g id="node4" class="node">
<title>Node4</title>
<g id="a_node4"><a xlink:href="../../d8/d75/classrawspeed_1_1i_point2_d.html#ab980cc8ab2f3502a5a2c230530ba2a64" target="_top" xlink:title=" ">
<polygon fill="none" stroke="black" points="942,-254.5 942,-284.5 1053,-284.5 1053,-254.5 942,-254.5"/>
<text text-anchor="start" x="950" y="-272.5" font-family="Helvetica,sans-Serif" font-size="10.00">rawspeed::iPoint2D</text>
<text text-anchor="middle" x="997.5" y="-261.5" font-family="Helvetica,sans-Serif" font-size="10.00">::iPoint2D</text>
</a>
</g>
</g>
<!-- Node2&#45;&gt;Node4 -->
<g id="edge3" class="edge">
<title>Node2&#45;&gt;Node4</title>
<path fill="none" stroke="midnightblue" d="M330.79,-216.71C347.37,-239.8 382.37,-283.06 424,-302.5 618.21,-393.22 698.59,-373.64 906,-319.5 928.19,-313.71 950.76,-301.25 967.82,-290.22"/>
<polygon fill="midnightblue" stroke="midnightblue" points="969.83,-293.08 976.2,-284.62 965.94,-287.26 969.83,-293.08"/>
</g>
<!-- Node5 -->
<g id="node5" class="node">
<title>Node5</title>
<g id="a_node5"><a xlink:href="../../d6/d8f/classrawspeed_1_1i_rectangle2_d.html#a7ec79d6a8dc1f04262729c2d4fd528d3" target="_top" xlink:title=" ">
<polygon fill="none" stroke="black" points="772,-279.5 772,-309.5 906,-309.5 906,-279.5 772,-279.5"/>
<text text-anchor="start" x="780" y="-297.5" font-family="Helvetica,sans-Serif" font-size="10.00">rawspeed::iRectangle2D</text>
<text text-anchor="middle" x="839" y="-286.5" font-family="Helvetica,sans-Serif" font-size="10.00">::iRectangle2D</text>
</a>
</g>
</g>
<!-- Node2&#45;&gt;Node5 -->
<g id="edge4" class="edge">
<title>Node2&#45;&gt;Node5</title>
<path fill="none" stroke="midnightblue" d="M335.68,-216.78C354.52,-234.61 388.51,-263.22 424,-275.5 536.54,-314.46 676.62,-310.98 761.59,-303.66"/>
<polygon fill="midnightblue" stroke="midnightblue" points="762.02,-307.13 771.67,-302.75 761.39,-300.16 762.02,-307.13"/>
</g>
<!-- Node6 -->
<g id="node6" class="node">
<title>Node6</title>
<g id="a_node6"><a xlink:href="../../d6/d8f/classrawspeed_1_1i_rectangle2_d.html#a8e5d729239ce4ebabfc221d463a3c79e" target="_top" xlink:title=" ">
<polygon fill="none" stroke="black" points="428,-137.5 428,-167.5 562,-167.5 562,-137.5 428,-137.5"/>
<text text-anchor="start" x="436" y="-155.5" font-family="Helvetica,sans-Serif" font-size="10.00">rawspeed::iRectangle2D</text>
<text text-anchor="middle" x="495" y="-144.5" font-family="Helvetica,sans-Serif" font-size="10.00">::isPointInsideInclusive</text>
</a>
</g>
</g>
<!-- Node2&#45;&gt;Node6 -->
<g id="edge6" class="edge">
<title>Node2&#45;&gt;Node6</title>
<path fill="none" stroke="midnightblue" d="M373.97,-186.4C392.03,-181.3 412.36,-175.56 431.08,-170.27"/>
<polygon fill="midnightblue" stroke="midnightblue" points="432.03,-173.64 440.71,-167.55 430.13,-166.9 432.03,-173.64"/>
</g>
<!-- Node10 -->
<g id="node10" class="node">
<title>Node10</title>
<g id="a_node10"><a xlink:href="../../d8/d75/classrawspeed_1_1i_point2_d.html#a16873af73bf76858d0f31c2b7802c310" target="_top" xlink:title=" ">
<polygon fill="none" stroke="black" points="613.5,-90.5 613.5,-120.5 724.5,-120.5 724.5,-90.5 613.5,-90.5"/>
<text text-anchor="start" x="621.5" y="-108.5" font-family="Helvetica,sans-Serif" font-size="10.00">rawspeed::iPoint2D</text>
<text text-anchor="middle" x="669" y="-97.5" font-family="Helvetica,sans-Serif" font-size="10.00">::operator&gt;=</text>
</a>
</g>
</g>
<!-- Node2&#45;&gt;Node10 -->
<g id="edge17" class="edge">
<title>Node2&#45;&gt;Node10</title>
<path fill="none" stroke="midnightblue" d="M335.77,-186.48C354.7,-168.91 388.79,-140.56 424,-127.5 482.01,-105.97 552.89,-101.81 603.27,-102.22"/>
<polygon fill="midnightblue" stroke="midnightblue" points="603.33,-105.73 613.38,-102.37 603.43,-98.73 603.33,-105.73"/>
</g>
<!-- Node11 -->
<g id="node11" class="node">
<title>Node11</title>
<g id="a_node11"><a xlink:href="../../d6/d8f/classrawspeed_1_1i_rectangle2_d.html#a5fa041d0ecfb6fe7538f73c735cdb42c" target="_top" xlink:title=" ">
<polygon fill="none" stroke="black" points="428,-186.5 428,-216.5 562,-216.5 562,-186.5 428,-186.5"/>
<text text-anchor="start" x="436" y="-204.5" font-family="Helvetica,sans-Serif" font-size="10.00">rawspeed::iRectangle2D</text>
<text text-anchor="middle" x="495" y="-193.5" font-family="Helvetica,sans-Serif" font-size="10.00">::isThisInside</text>
</a>
</g>
</g>
<!-- Node2&#45;&gt;Node11 -->
<g id="edge12" class="edge">
<title>Node2&#45;&gt;Node11</title>
<path fill="none" stroke="midnightblue" d="M388.08,-201.5C397.75,-201.5 407.76,-201.5 417.59,-201.5"/>
<polygon fill="midnightblue" stroke="midnightblue" points="417.75,-205 427.75,-201.5 417.75,-198 417.75,-205"/>
</g>
<!-- Node12 -->
<g id="node12" class="node">
<title>Node12</title>
<g id="a_node12"><a xlink:href="../../dd/d12/classrawspeed_1_1_raw_image.html#a2907002b5c707eca6939061f8b0d5e5d" target="_top" xlink:title=" ">
<polygon fill="none" stroke="black" points="434,-49.5 434,-79.5 556,-79.5 556,-49.5 434,-49.5"/>
<text text-anchor="start" x="442" y="-67.5" font-family="Helvetica,sans-Serif" font-size="10.00">rawspeed::RawImage</text>
<text text-anchor="middle" x="495" y="-56.5" font-family="Helvetica,sans-Serif" font-size="10.00">::operator&#45;&gt;</text>
</a>
</g>
</g>
<!-- Node2&#45;&gt;Node12 -->
<g id="edge16" class="edge">
<title>Node2&#45;&gt;Node12</title>
<path fill="none" stroke="midnightblue" d="M332.03,-186.17C349.69,-163.54 385.48,-121.05 424,-94.5 429.63,-90.62 435.85,-87.08 442.18,-83.91"/>
<polygon fill="midnightblue" stroke="midnightblue" points="443.93,-86.95 451.48,-79.52 440.95,-80.62 443.93,-86.95"/>
</g>
<!-- Node13 -->
<g id="node13" class="node">
<title>Node13</title>
<g id="a_node13"><a xlink:href="../../d6/d8f/classrawspeed_1_1i_rectangle2_d.html#a85b5a792f7646c485c87068744ec99a8" target="_top" xlink:title=" ">
<polygon fill="none" stroke="black" points="424,-235.5 424,-265.5 566,-265.5 566,-235.5 424,-235.5"/>
<text text-anchor="start" x="432" y="-253.5" font-family="Helvetica,sans-Serif" font-size="10.00">rawspeed::iRectangle2D</text>
<text text-anchor="middle" x="495" y="-242.5" font-family="Helvetica,sans-Serif" font-size="10.00">::setBottomRightAbsolute</text>
</a>
</g>
</g>
<!-- Node2&#45;&gt;Node13 -->
<g id="edge18" class="edge">
<title>Node2&#45;&gt;Node13</title>
<path fill="none" stroke="midnightblue" d="M373.97,-216.6C392.03,-221.7 412.36,-227.44 431.08,-232.73"/>
<polygon fill="midnightblue" stroke="midnightblue" points="430.13,-236.1 440.71,-235.45 432.03,-229.36 430.13,-236.1"/>
</g>
<!-- Node15 -->
<g id="node15" class="node">
<title>Node15</title>
<g id="a_node15"><a xlink:href="../../d6/d8f/classrawspeed_1_1i_rectangle2_d.html#a20ef43ce186cdd3bd63929eeb6c727d9" target="_top" xlink:title=" ">
<polygon fill="none" stroke="black" points="428,-0.5 428,-30.5 562,-30.5 562,-0.5 428,-0.5"/>
<text text-anchor="start" x="436" y="-18.5" font-family="Helvetica,sans-Serif" font-size="10.00">rawspeed::iRectangle2D</text>
<text text-anchor="middle" x="495" y="-7.5" font-family="Helvetica,sans-Serif" font-size="10.00">::setTopLeft</text>
</a>
</g>
</g>
<!-- Node2&#45;&gt;Node15 -->
<g id="edge21" class="edge">
<title>Node2&#45;&gt;Node15</title>
<path fill="none" stroke="midnightblue" d="M326.22,-186.13C338.89,-154.16 372.31,-80.14 424,-39.5 425.76,-38.11 427.61,-36.8 429.53,-35.57"/>
<polygon fill="midnightblue" stroke="midnightblue" points="431.31,-38.58 438.28,-30.6 427.86,-32.49 431.31,-38.58"/>
</g>
<!-- Node5&#45;&gt;Node4 -->
<g id="edge5" class="edge">
<title>Node5&#45;&gt;Node4</title>
<path fill="none" stroke="midnightblue" d="M906.37,-283.9C914.78,-282.55 923.38,-281.18 931.76,-279.84"/>
<polygon fill="midnightblue" stroke="midnightblue" points="932.53,-283.26 941.86,-278.23 931.43,-276.35 932.53,-283.26"/>
</g>
<!-- Node7 -->
<g id="node7" class="node">
<title>Node7</title>
<g id="a_node7"><a xlink:href="../../d6/d8f/classrawspeed_1_1i_rectangle2_d.html#ad6ae3f2ed094abc10d38b954af7e5b99" target="_top" xlink:title=" ">
<polygon fill="none" stroke="black" points="602,-188.5 602,-218.5 736,-218.5 736,-188.5 602,-188.5"/>
<text text-anchor="start" x="610" y="-206.5" font-family="Helvetica,sans-Serif" font-size="10.00">rawspeed::iRectangle2D</text>
<text text-anchor="middle" x="669" y="-195.5" font-family="Helvetica,sans-Serif" font-size="10.00">::getBottomRight</text>
</a>
</g>
</g>
<!-- Node6&#45;&gt;Node7 -->
<g id="edge7" class="edge">
<title>Node6&#45;&gt;Node7</title>
<path fill="none" stroke="midnightblue" d="M546.68,-167.53C565.84,-173.21 587.83,-179.73 607.78,-185.64"/>
<polygon fill="midnightblue" stroke="midnightblue" points="606.81,-189.01 617.39,-188.49 608.8,-182.3 606.81,-189.01"/>
</g>
<!-- Node9 -->
<g id="node9" class="node">
<title>Node9</title>
<g id="a_node9"><a xlink:href="../../d8/d75/classrawspeed_1_1i_point2_d.html#a368d3167882bee5c5d42813d99a17c56" target="_top" xlink:title=" ">
<polygon fill="none" stroke="black" points="613.5,-139.5 613.5,-169.5 724.5,-169.5 724.5,-139.5 613.5,-139.5"/>
<text text-anchor="start" x="621.5" y="-157.5" font-family="Helvetica,sans-Serif" font-size="10.00">rawspeed::iPoint2D</text>
<text text-anchor="middle" x="669" y="-146.5" font-family="Helvetica,sans-Serif" font-size="10.00">::operator&lt;=</text>
</a>
</g>
</g>
<!-- Node6&#45;&gt;Node9 -->
<g id="edge10" class="edge">
<title>Node6&#45;&gt;Node9</title>
<path fill="none" stroke="midnightblue" d="M562.01,-153.27C575.52,-153.42 589.73,-153.59 603.2,-153.75"/>
<polygon fill="midnightblue" stroke="midnightblue" points="603.29,-157.25 613.33,-153.86 603.38,-150.25 603.29,-157.25"/>
</g>
<!-- Node6&#45;&gt;Node10 -->
<g id="edge11" class="edge">
<title>Node6&#45;&gt;Node10</title>
<path fill="none" stroke="midnightblue" d="M550.89,-137.5C567.58,-132.94 586.07,-127.89 603.33,-123.17"/>
<polygon fill="midnightblue" stroke="midnightblue" points="604.61,-126.45 613.33,-120.44 602.76,-119.7 604.61,-126.45"/>
</g>
<!-- Node8 -->
<g id="node8" class="node">
<title>Node8</title>
<g id="a_node8"><a xlink:href="../../d8/d75/classrawspeed_1_1i_point2_d.html#aed6c2f5995cd12a0bb27e6d7e2d88fdb" target="_top" xlink:title=" ">
<polygon fill="none" stroke="black" points="783.5,-181.5 783.5,-211.5 894.5,-211.5 894.5,-181.5 783.5,-181.5"/>
<text text-anchor="start" x="791.5" y="-199.5" font-family="Helvetica,sans-Serif" font-size="10.00">rawspeed::iPoint2D</text>
<text text-anchor="middle" x="839" y="-188.5" font-family="Helvetica,sans-Serif" font-size="10.00">::operator+</text>
</a>
</g>
</g>
<!-- Node7&#45;&gt;Node8 -->
<g id="edge8" class="edge">
<title>Node7&#45;&gt;Node8</title>
<path fill="none" stroke="midnightblue" d="M736.4,-200.73C748.58,-200.23 761.28,-199.7 773.4,-199.19"/>
<polygon fill="midnightblue" stroke="midnightblue" points="773.59,-202.69 783.43,-198.77 773.3,-195.69 773.59,-202.69"/>
</g>
<!-- Node8&#45;&gt;Node4 -->
<g id="edge9" class="edge">
<title>Node8&#45;&gt;Node4</title>
<path fill="none" stroke="midnightblue" d="M882.22,-211.59C890.19,-214.69 898.41,-218.07 906,-221.5 924.59,-229.91 944.7,-240.43 961.23,-249.47"/>
<polygon fill="midnightblue" stroke="midnightblue" points="959.57,-252.55 970.01,-254.32 962.95,-246.42 959.57,-252.55"/>
</g>
<!-- Node11&#45;&gt;Node7 -->
<g id="edge13" class="edge">
<title>Node11&#45;&gt;Node7</title>
<path fill="none" stroke="midnightblue" d="M562.01,-202.27C571.71,-202.38 581.77,-202.5 591.66,-202.61"/>
<polygon fill="midnightblue" stroke="midnightblue" points="591.84,-206.11 601.88,-202.73 591.93,-199.12 591.84,-206.11"/>
</g>
<!-- Node11&#45;&gt;Node9 -->
<g id="edge14" class="edge">
<title>Node11&#45;&gt;Node9</title>
<path fill="none" stroke="midnightblue" d="M550.89,-186.5C567.58,-181.94 586.07,-176.89 603.33,-172.17"/>
<polygon fill="midnightblue" stroke="midnightblue" points="604.61,-175.45 613.33,-169.44 602.76,-168.7 604.61,-175.45"/>
</g>
<!-- Node11&#45;&gt;Node10 -->
<g id="edge15" class="edge">
<title>Node11&#45;&gt;Node10</title>
<path fill="none" stroke="midnightblue" d="M548.91,-186.37C554.94,-183.57 560.79,-180.3 566,-176.5 587.26,-161 580.78,-145.06 602,-129.5 603.88,-128.12 605.84,-126.82 607.87,-125.58"/>
<polygon fill="midnightblue" stroke="midnightblue" points="609.96,-128.43 617.1,-120.59 606.63,-122.27 609.96,-128.43"/>
</g>
<!-- Node14 -->
<g id="node14" class="node">
<title>Node14</title>
<g id="a_node14"><a xlink:href="../../d8/d75/classrawspeed_1_1i_point2_d.html#a3c2f09435c8e2610e80b6e5f7f9c0705" target="_top" xlink:title=" ">
<polygon fill="none" stroke="black" points="783.5,-230.5 783.5,-260.5 894.5,-260.5 894.5,-230.5 783.5,-230.5"/>
<text text-anchor="start" x="791.5" y="-248.5" font-family="Helvetica,sans-Serif" font-size="10.00">rawspeed::iPoint2D</text>
<text text-anchor="middle" x="839" y="-237.5" font-family="Helvetica,sans-Serif" font-size="10.00">::operator&#45;</text>
</a>
</g>
</g>
<!-- Node13&#45;&gt;Node14 -->
<g id="edge19" class="edge">
<title>Node13&#45;&gt;Node14</title>
<path fill="none" stroke="midnightblue" d="M566.03,-249.48C626.69,-248.59 713.74,-247.32 772.9,-246.45"/>
<polygon fill="midnightblue" stroke="midnightblue" points="773.3,-249.95 783.25,-246.3 773.2,-242.95 773.3,-249.95"/>
</g>
<!-- Node14&#45;&gt;Node4 -->
<g id="edge20" class="edge">
<title>Node14&#45;&gt;Node4</title>
<path fill="none" stroke="midnightblue" d="M894.74,-253.89C906.65,-255.72 919.36,-257.67 931.63,-259.55"/>
<polygon fill="midnightblue" stroke="midnightblue" points="931.38,-263.05 941.79,-261.11 932.44,-256.14 931.38,-263.05"/>
</g>
</g>
</svg>
        <g id="navigator" transform="translate(0 0)" fill="#404254">
                <rect fill="#f2f5e9" fill-opacity="0.5" stroke="#606060" stroke-width=".5" x="0" y="0" width="60" height="60"/>
                <use id="zoomplus" xlink:href="#zoomPlus" x="17" y="9" onmousedown="handleZoom(evt,'in')"/>
                <use id="zoomminus" xlink:href="#zoomMin" x="42" y="9" onmousedown="handleZoom(evt,'out')"/>
                <use id="reset" xlink:href="#resetDef" x="30" y="36" onmousedown="handleReset()"/>
                <g id="arrowUp" xlink:href="#dirArrow" transform="translate(30 24)" onmousedown="handlePan(0,-1)">
                  <use xlink:href="#rim" fill="#404040">
                        <set attributeName="fill" to="#808080" begin="arrowUp.mouseover" end="arrowUp.mouseout"/>
                  </use>
                  <path fill="none" stroke="white" stroke-width="1.5" d="M0,-3.0v7 M-2.5,-0.5L0,-3.0L2.5,-0.5"/>
                </g>
                <g id="arrowRight" xlink:href="#dirArrow" transform="rotate(90) translate(36 -43)" onmousedown="handlePan(1,0)">
                  <use xlink:href="#rim" fill="#404040">
                        <set attributeName="fill" to="#808080" begin="arrowRight.mouseover" end="arrowRight.mouseout"/>
                  </use>
                  <path fill="none" stroke="white" stroke-width="1.5" d="M0,-3.0v7 M-2.5,-0.5L0,-3.0L2.5,-0.5"/>
                </g>
                <g id="arrowDown" xlink:href="#dirArrow" transform="rotate(180) translate(-30 -48)" onmousedown="handlePan(0,1)">
                  <use xlink:href="#rim" fill="#404040">
                        <set attributeName="fill" to="#808080" begin="arrowDown.mouseover" end="arrowDown.mouseout"/>
                  </use>
                  <path fill="none" stroke="white" stroke-width="1.5" d="M0,-3.0v7 M-2.5,-0.5L0,-3.0L2.5,-0.5"/>
                </g>
                <g id="arrowLeft" xlink:href="#dirArrow" transform="rotate(270) translate(-36 17)" onmousedown="handlePan(-1,0)">
                  <use xlink:href="#rim" fill="#404040">
                        <set attributeName="fill" to="#808080" begin="arrowLeft.mouseover" end="arrowLeft.mouseout"/>
                  </use>
                  <path fill="none" stroke="white" stroke-width="1.5" d="M0,-3.0v7 M-2.5,-0.5L0,-3.0L2.5,-0.5"/>
                </g>
        </g>
        <svg viewBox="0 0 15 15" width="100%" height="30px" preserveAspectRatio="xMaxYMin meet">
         <g id="arrow_out" transform="scale(0.3 0.3)">
          <a xlink:href="classrawspeed_1_1_dng_opcodes_1_1_dummy_r_o_i_opcode_a41065e2a0a4c5a97fa22a998d446e92f_cgraph_org.svg" target="_base">
           <rect id="button" ry="5" rx="5" y="6" x="6" height="38" width="38"
                fill="#f2f5e9" fill-opacity="0.5" stroke="#606060" stroke-width="1.0"/>
           <path id="arrow"
             d="M 11.500037,31.436501 C 11.940474,20.09759 22.043105,11.32322 32.158766,21.979434 L 37.068811,17.246167 C 37.068811,17.246167 37.088388,32 37.088388,32 L 22.160133,31.978069 C 22.160133,31.978069 26.997745,27.140456 26.997745,27.140456 C 18.528582,18.264221 13.291696,25.230495 11.500037,31.436501 z"
             style="fill:#404040;"/>
          </a>
         </g>
        </svg>
</svg>
