<?xml version="1.0" encoding="UTF-8" standalone="no"?>
<!DOCTYPE svg PUBLIC "-//W3C//DTD SVG 1.1//EN"
 "http://www.w3.org/Graphics/SVG/1.1/DTD/svg11.dtd">
<!-- Generated by graphviz version 2.43.0 (0)
 -->
<!-- Title: librawspeed/decompressors/HuffmanTableVector.h Pages: 1 -->
<!--zoomable 442 -->
<svg id="main" version="1.1" xmlns="http://www.w3.org/2000/svg" xmlns:xlink="http://www.w3.org/1999/xlink" xml:space="preserve" onload="init(evt)">
<style type="text/css"><![CDATA[
.edge:hover path { stroke: red; }
.edge:hover polygon { stroke: red; fill: red; }
]]></style>
<script type="text/javascript"><![CDATA[
var edges = document.getElementsByTagName('g');
if (edges && edges.length) {
  for (var i=0;i<edges.length;i++) {
    if (edges[i].id.substr(0,4)=='edge') {
      edges[i].setAttribute('class','edge');
    }
  }
}
]]></script>
        <defs>
                <circle id="rim" cx="0" cy="0" r="7"/>
                <circle id="rim2" cx="0" cy="0" r="3.5"/>
                <g id="zoomPlus">
                        <use xlink:href="#rim" fill="#404040">
                                <set attributeName="fill" to="#808080" begin="zoomplus.mouseover" end="zoomplus.mouseout"/>
                        </use>
                        <path d="M-4,0h8M0,-4v8" fill="none" stroke="white" stroke-width="1.5" pointer-events="none"/>
                </g>
                <g id="zoomMin">
                        <use xlink:href="#rim" fill="#404040">
                                <set attributeName="fill" to="#808080" begin="zoomminus.mouseover" end="zoomminus.mouseout"/>
                        </use>
                        <path d="M-4,0h8" fill="none" stroke="white" stroke-width="1.5" pointer-events="none"/>
                </g>
                <g id="dirArrow">
                        <path fill="none" stroke="white" stroke-width="1.5" d="M0,-3.0v7 M-2.5,-0.5L0,-3.0L2.5,-0.5"/>
                </g>
               <g id="resetDef">
                       <use xlink:href="#rim2" fill="#404040">
                               <set attributeName="fill" to="#808080" begin="reset.mouseover" end="reset.mouseout"/>
                       </use>
               </g>
        </defs>

<script type="text/javascript">
var viewWidth = 1727;
var viewHeight = 442;
var sectionId = 'dynsection-0';
</script>
<script xlink:href="../../svgpan.js"/>
<svg id="graph" class="graph">
<g id="viewport">
<title>librawspeed/decompressors/HuffmanTableVector.h</title>
<!-- Node1 -->
<g id="node1" class="node">
<title>Node1</title>
<g id="a_node1"><a xlink:title=" ">
<polygon fill="#bfbfbf" stroke="black" points="551.5,-403.5 551.5,-433.5 704.5,-433.5 704.5,-403.5 551.5,-403.5"/>
<text text-anchor="start" x="559.5" y="-421.5" font-family="Helvetica,sans-Serif" font-size="10.00">librawspeed/decompressors</text>
<text text-anchor="middle" x="628" y="-410.5" font-family="Helvetica,sans-Serif" font-size="10.00">/HuffmanTableVector.h</text>
</a>
</g>
</g>
<!-- Node2 -->
<g id="node2" class="node">
<title>Node2</title>
<g id="a_node2"><a xlink:href="../../d0/daf/_raw_decoder_exception_8h.html" target="_top" xlink:title=" ">
<polygon fill="none" stroke="black" points="285,-168.5 285,-187.5 467,-187.5 467,-168.5 285,-168.5"/>
<text text-anchor="middle" x="376" y="-175.5" font-family="Helvetica,sans-Serif" font-size="10.00">decoders/RawDecoderException.h</text>
</a>
</g>
</g>
<!-- Node1&#45;&gt;Node2 -->
<g id="edge1" class="edge">
<title>Node1&#45;&gt;Node2</title>
<path fill="none" stroke="midnightblue" d="M612.29,-403.21C590.61,-383.24 550.6,-345.56 519,-311 485.32,-274.17 485.44,-257 448,-224 434.03,-211.69 416.32,-200.57 401.95,-192.46"/>
<polygon fill="midnightblue" stroke="midnightblue" points="403.52,-189.33 393.07,-187.59 400.15,-195.47 403.52,-189.33"/>
</g>
<!-- Node7 -->
<g id="node7" class="node">
<title>Node7</title>
<g id="a_node7"><a xlink:title=" ">
<polygon fill="none" stroke="#bfbfbf" points="395,-0.5 395,-19.5 447,-19.5 447,-0.5 395,-0.5"/>
<text text-anchor="middle" x="421" y="-7.5" font-family="Helvetica,sans-Serif" font-size="10.00">cassert</text>
</a>
</g>
</g>
<!-- Node1&#45;&gt;Node7 -->
<g id="edge70" class="edge">
<title>Node1&#45;&gt;Node7</title>
<path fill="none" stroke="midnightblue" d="M551.39,-415.91C442.06,-408.85 246.19,-377.21 171,-244 111.65,-138.85 304.66,-53.63 386.3,-23.11"/>
<polygon fill="midnightblue" stroke="midnightblue" points="387.73,-26.31 395.9,-19.58 385.31,-19.74 387.73,-26.31"/>
</g>
<!-- Node9 -->
<g id="node9" class="node">
<title>Node9</title>
<g id="a_node9"><a xlink:title=" ">
<polygon fill="none" stroke="#bfbfbf" points="1465,-0.5 1465,-19.5 1515,-19.5 1515,-0.5 1465,-0.5"/>
<text text-anchor="middle" x="1490" y="-7.5" font-family="Helvetica,sans-Serif" font-size="10.00">cstdint</text>
</a>
</g>
</g>
<!-- Node1&#45;&gt;Node9 -->
<g id="edge71" class="edge">
<title>Node1&#45;&gt;Node9</title>
<path fill="none" stroke="midnightblue" d="M704.74,-416.45C942.19,-412.2 1649,-391.55 1649,-296.5 1649,-296.5 1649,-296.5 1649,-121 1649,-61.11 1571.78,-31.27 1524.96,-18.69"/>
<polygon fill="midnightblue" stroke="midnightblue" points="1525.75,-15.27 1515.19,-16.19 1524.02,-22.06 1525.75,-15.27"/>
</g>
<!-- Node14 -->
<g id="node14" class="node">
<title>Node14</title>
<g id="a_node14"><a xlink:title=" ">
<polygon fill="none" stroke="#bfbfbf" points="72.5,-0.5 72.5,-19.5 119.5,-19.5 119.5,-0.5 72.5,-0.5"/>
<text text-anchor="middle" x="96" y="-7.5" font-family="Helvetica,sans-Serif" font-size="10.00">vector</text>
</a>
</g>
</g>
<!-- Node1&#45;&gt;Node14 -->
<g id="edge74" class="edge">
<title>Node1&#45;&gt;Node14</title>
<path fill="none" stroke="midnightblue" d="M551.31,-410.66C383.78,-394.69 0,-352.05 0,-296.5 0,-296.5 0,-296.5 0,-121 0,-77.54 43.06,-42.96 71.5,-24.85"/>
<polygon fill="midnightblue" stroke="midnightblue" points="73.44,-27.77 80.15,-19.56 69.79,-21.79 73.44,-27.77"/>
</g>
<!-- Node19 -->
<g id="node19" class="node">
<title>Node19</title>
<g id="a_node19"><a xlink:href="../../dc/d41/_abstract_huffman_table_8h.html" target="_top" xlink:title=" ">
<polygon fill="none" stroke="black" points="291,-280.5 291,-310.5 467,-310.5 467,-280.5 291,-280.5"/>
<text text-anchor="start" x="299" y="-298.5" font-family="Helvetica,sans-Serif" font-size="10.00">decompressors/AbstractHuffman</text>
<text text-anchor="middle" x="379" y="-287.5" font-family="Helvetica,sans-Serif" font-size="10.00">Table.h</text>
</a>
</g>
</g>
<!-- Node1&#45;&gt;Node19 -->
<g id="edge19" class="edge">
<title>Node1&#45;&gt;Node19</title>
<path fill="none" stroke="midnightblue" d="M575.91,-403.42C547.15,-394.71 511.23,-382.27 481,-367 453.09,-352.9 424.02,-332.1 404.08,-316.75"/>
<polygon fill="midnightblue" stroke="midnightblue" points="406.17,-313.94 396.13,-310.54 401.86,-319.45 406.17,-313.94"/>
</g>
<!-- Node27 -->
<g id="node27" class="node">
<title>Node27</title>
<g id="a_node27"><a xlink:title=" ">
<polygon fill="none" stroke="#bfbfbf" points="1347.5,-168.5 1347.5,-187.5 1392.5,-187.5 1392.5,-168.5 1347.5,-168.5"/>
<text text-anchor="middle" x="1370" y="-175.5" font-family="Helvetica,sans-Serif" font-size="10.00">utility</text>
</a>
</g>
</g>
<!-- Node1&#45;&gt;Node27 -->
<g id="edge73" class="edge">
<title>Node1&#45;&gt;Node27</title>
<path fill="none" stroke="midnightblue" d="M704.52,-412.14C882.35,-397.94 1314.96,-352.71 1402,-244 1413.96,-229.06 1400.4,-208.92 1387.43,-195.04"/>
<polygon fill="midnightblue" stroke="midnightblue" points="1389.61,-192.27 1380.06,-187.67 1384.66,-197.22 1389.61,-192.27"/>
</g>
<!-- Node31 -->
<g id="node31" class="node">
<title>Node31</title>
<g id="a_node31"><a xlink:href="../../d7/dc3/_bit_stream_8h.html" target="_top" xlink:title=" ">
<polygon fill="none" stroke="black" points="699,-347.5 699,-366.5 785,-366.5 785,-347.5 699,-347.5"/>
<text text-anchor="middle" x="742" y="-354.5" font-family="Helvetica,sans-Serif" font-size="10.00">io/BitStream.h</text>
</a>
</g>
</g>
<!-- Node1&#45;&gt;Node31 -->
<g id="edge50" class="edge">
<title>Node1&#45;&gt;Node31</title>
<path fill="none" stroke="midnightblue" d="M655.02,-403.4C673.63,-393.68 698.21,-380.86 716.49,-371.31"/>
<polygon fill="midnightblue" stroke="midnightblue" points="718.17,-374.39 725.41,-366.66 714.93,-368.18 718.17,-374.39"/>
</g>
<!-- Node34 -->
<g id="node34" class="node">
<title>Node34</title>
<g id="a_node34"><a xlink:title=" ">
<polygon fill="none" stroke="#bfbfbf" points="1677.5,-347.5 1677.5,-366.5 1718.5,-366.5 1718.5,-347.5 1677.5,-347.5"/>
<text text-anchor="middle" x="1698" y="-354.5" font-family="Helvetica,sans-Serif" font-size="10.00">tuple</text>
</a>
</g>
</g>
<!-- Node1&#45;&gt;Node34 -->
<g id="edge72" class="edge">
<title>Node1&#45;&gt;Node34</title>
<path fill="none" stroke="midnightblue" d="M704.75,-415.77C911.73,-410.8 1478.23,-394.97 1663,-367 1664.47,-366.78 1665.97,-366.52 1667.49,-366.23"/>
<polygon fill="midnightblue" stroke="midnightblue" points="1668.41,-369.61 1677.42,-364.03 1666.89,-362.78 1668.41,-369.61"/>
</g>
<!-- Node3 -->
<g id="node3" class="node">
<title>Node3</title>
<g id="a_node3"><a xlink:title=" ">
<polygon fill="none" stroke="#bfbfbf" points="729,-56.5 729,-75.5 831,-75.5 831,-56.5 729,-56.5"/>
<text text-anchor="middle" x="780" y="-63.5" font-family="Helvetica,sans-Serif" font-size="10.00">rawspeedconfig.h</text>
</a>
</g>
</g>
<!-- Node2&#45;&gt;Node3 -->
<g id="edge2" class="edge">
<title>Node2&#45;&gt;Node3</title>
<path fill="none" stroke="midnightblue" d="M448.71,-168.48C499.61,-161.43 568.81,-149.69 628,-132 673.71,-118.34 724.14,-95.02 753.89,-80.34"/>
<polygon fill="midnightblue" stroke="midnightblue" points="755.76,-83.31 763.15,-75.72 752.64,-77.05 755.76,-83.31"/>
</g>
<!-- Node4 -->
<g id="node4" class="node">
<title>Node4</title>
<g id="a_node4"><a xlink:href="../../d7/d05/_rawspeed_exception_8h.html" target="_top" xlink:title=" ">
<polygon fill="none" stroke="black" points="449,-112.5 449,-131.5 619,-131.5 619,-112.5 449,-112.5"/>
<text text-anchor="middle" x="534" y="-119.5" font-family="Helvetica,sans-Serif" font-size="10.00">common/RawspeedException.h</text>
</a>
</g>
</g>
<!-- Node2&#45;&gt;Node4 -->
<g id="edge3" class="edge">
<title>Node2&#45;&gt;Node4</title>
<path fill="none" stroke="midnightblue" d="M401.04,-168.44C427.62,-159.36 469.81,-144.94 499.52,-134.78"/>
<polygon fill="midnightblue" stroke="midnightblue" points="500.75,-138.06 509.08,-131.52 498.49,-131.44 500.75,-138.06"/>
</g>
<!-- Node4&#45;&gt;Node3 -->
<g id="edge4" class="edge">
<title>Node4&#45;&gt;Node3</title>
<path fill="none" stroke="midnightblue" d="M572.98,-112.44C615.89,-103.02 684.95,-87.87 731.37,-77.68"/>
<polygon fill="midnightblue" stroke="midnightblue" points="732.19,-81.08 741.2,-75.52 730.69,-74.24 732.19,-81.08"/>
</g>
<!-- Node5 -->
<g id="node5" class="node">
<title>Node5</title>
<g id="a_node5"><a xlink:href="../../d9/df5/src_2librawspeed_2common_2_common_8h.html" target="_top" xlink:title=" ">
<polygon fill="none" stroke="black" points="895,-56.5 895,-75.5 1011,-75.5 1011,-56.5 895,-56.5"/>
<text text-anchor="middle" x="953" y="-63.5" font-family="Helvetica,sans-Serif" font-size="10.00">common/Common.h</text>
</a>
</g>
</g>
<!-- Node4&#45;&gt;Node5 -->
<g id="edge5" class="edge">
<title>Node4&#45;&gt;Node5</title>
<path fill="none" stroke="midnightblue" d="M600.39,-112.44C678.02,-102.44 805.85,-85.96 884.41,-75.84"/>
<polygon fill="midnightblue" stroke="midnightblue" points="885.22,-79.27 894.69,-74.52 884.32,-72.32 885.22,-79.27"/>
</g>
<!-- Node15 -->
<g id="node15" class="node">
<title>Node15</title>
<g id="a_node15"><a xlink:title=" ">
<polygon fill="none" stroke="#bfbfbf" points="669,-56.5 669,-75.5 711,-75.5 711,-56.5 669,-56.5"/>
<text text-anchor="middle" x="690" y="-63.5" font-family="Helvetica,sans-Serif" font-size="10.00">array</text>
</a>
</g>
</g>
<!-- Node4&#45;&gt;Node15 -->
<g id="edge15" class="edge">
<title>Node4&#45;&gt;Node15</title>
<path fill="none" stroke="midnightblue" d="M558.72,-112.44C585.92,-103.03 629.7,-87.87 659.13,-77.68"/>
<polygon fill="midnightblue" stroke="midnightblue" points="660.59,-80.88 668.9,-74.3 658.3,-74.27 660.59,-80.88"/>
</g>
<!-- Node16 -->
<g id="node16" class="node">
<title>Node16</title>
<g id="a_node16"><a xlink:title=" ">
<polygon fill="none" stroke="#bfbfbf" points="449.5,-56.5 449.5,-75.5 502.5,-75.5 502.5,-56.5 449.5,-56.5"/>
<text text-anchor="middle" x="476" y="-63.5" font-family="Helvetica,sans-Serif" font-size="10.00">cstdarg</text>
</a>
</g>
</g>
<!-- Node4&#45;&gt;Node16 -->
<g id="edge16" class="edge">
<title>Node4&#45;&gt;Node16</title>
<path fill="none" stroke="midnightblue" d="M524.68,-112.32C516.11,-104.34 503.19,-92.31 492.81,-82.65"/>
<polygon fill="midnightblue" stroke="midnightblue" points="495.19,-80.09 485.49,-75.83 490.42,-85.21 495.19,-80.09"/>
</g>
<!-- Node17 -->
<g id="node17" class="node">
<title>Node17</title>
<g id="a_node17"><a xlink:title=" ">
<polygon fill="none" stroke="#bfbfbf" points="521,-56.5 521,-75.5 567,-75.5 567,-56.5 521,-56.5"/>
<text text-anchor="middle" x="544" y="-63.5" font-family="Helvetica,sans-Serif" font-size="10.00">cstdio</text>
</a>
</g>
</g>
<!-- Node4&#45;&gt;Node17 -->
<g id="edge17" class="edge">
<title>Node4&#45;&gt;Node17</title>
<path fill="none" stroke="midnightblue" d="M535.65,-112.08C536.98,-104.93 538.88,-94.64 540.54,-85.69"/>
<polygon fill="midnightblue" stroke="midnightblue" points="544,-86.22 542.38,-75.75 537.12,-84.95 544,-86.22"/>
</g>
<!-- Node18 -->
<g id="node18" class="node">
<title>Node18</title>
<g id="a_node18"><a xlink:title=" ">
<polygon fill="none" stroke="#bfbfbf" points="585.5,-56.5 585.5,-75.5 650.5,-75.5 650.5,-56.5 585.5,-56.5"/>
<text text-anchor="middle" x="618" y="-63.5" font-family="Helvetica,sans-Serif" font-size="10.00">stdexcept</text>
</a>
</g>
</g>
<!-- Node4&#45;&gt;Node18 -->
<g id="edge18" class="edge">
<title>Node4&#45;&gt;Node18</title>
<path fill="none" stroke="midnightblue" d="M547.5,-112.32C560.6,-103.9 580.71,-90.97 596.11,-81.07"/>
<polygon fill="midnightblue" stroke="midnightblue" points="598.02,-84.01 604.54,-75.65 594.23,-78.12 598.02,-84.01"/>
</g>
<!-- Node6 -->
<g id="node6" class="node">
<title>Node6</title>
<g id="a_node6"><a xlink:title=" ">
<polygon fill="none" stroke="#bfbfbf" points="138,-0.5 138,-19.5 202,-19.5 202,-0.5 138,-0.5"/>
<text text-anchor="middle" x="170" y="-7.5" font-family="Helvetica,sans-Serif" font-size="10.00">algorithm</text>
</a>
</g>
</g>
<!-- Node5&#45;&gt;Node6 -->
<g id="edge6" class="edge">
<title>Node5&#45;&gt;Node6</title>
<path fill="none" stroke="midnightblue" d="M894.94,-60.24C877.3,-58.83 857.86,-57.31 840,-56 602.82,-38.59 318.2,-20.35 212.35,-13.66"/>
<polygon fill="midnightblue" stroke="midnightblue" points="212.29,-10.15 202.09,-13.01 211.85,-17.14 212.29,-10.15"/>
</g>
<!-- Node5&#45;&gt;Node7 -->
<g id="edge7" class="edge">
<title>Node5&#45;&gt;Node7</title>
<path fill="none" stroke="midnightblue" d="M894.86,-57.6C890.17,-57.04 885.51,-56.5 881,-56 723.53,-38.46 535.3,-21.2 457.45,-14.23"/>
<polygon fill="midnightblue" stroke="midnightblue" points="457.49,-10.72 447.22,-13.32 456.87,-17.69 457.49,-10.72"/>
</g>
<!-- Node8 -->
<g id="node8" class="node">
<title>Node8</title>
<g id="a_node8"><a xlink:title=" ">
<polygon fill="none" stroke="#bfbfbf" points="886,-0.5 886,-19.5 936,-19.5 936,-0.5 886,-0.5"/>
<text text-anchor="middle" x="911" y="-7.5" font-family="Helvetica,sans-Serif" font-size="10.00">climits</text>
</a>
</g>
</g>
<!-- Node5&#45;&gt;Node8 -->
<g id="edge8" class="edge">
<title>Node5&#45;&gt;Node8</title>
<path fill="none" stroke="midnightblue" d="M946.06,-56.08C940.07,-48.38 931.25,-37.03 923.95,-27.65"/>
<polygon fill="midnightblue" stroke="midnightblue" points="926.71,-25.5 917.81,-19.75 921.18,-29.79 926.71,-25.5"/>
</g>
<!-- Node5&#45;&gt;Node9 -->
<g id="edge9" class="edge">
<title>Node5&#45;&gt;Node9</title>
<path fill="none" stroke="midnightblue" d="M1011.23,-59.14C1123.02,-47.9 1364.59,-23.61 1454.95,-14.52"/>
<polygon fill="midnightblue" stroke="midnightblue" points="1455.35,-18 1464.95,-13.52 1454.65,-11.04 1455.35,-18"/>
</g>
<!-- Node10 -->
<g id="node10" class="node">
<title>Node10</title>
<g id="a_node10"><a xlink:title=" ">
<polygon fill="none" stroke="#bfbfbf" points="1258,-0.5 1258,-19.5 1308,-19.5 1308,-0.5 1258,-0.5"/>
<text text-anchor="middle" x="1283" y="-7.5" font-family="Helvetica,sans-Serif" font-size="10.00">cstring</text>
</a>
</g>
</g>
<!-- Node5&#45;&gt;Node10 -->
<g id="edge10" class="edge">
<title>Node5&#45;&gt;Node10</title>
<path fill="none" stroke="midnightblue" d="M1005.29,-56.44C1073.04,-45.36 1189.36,-26.32 1247.6,-16.79"/>
<polygon fill="midnightblue" stroke="midnightblue" points="1248.47,-20.2 1257.78,-15.13 1247.34,-13.29 1248.47,-20.2"/>
</g>
<!-- Node11 -->
<g id="node11" class="node">
<title>Node11</title>
<g id="a_node11"><a xlink:title=" ">
<polygon fill="none" stroke="#bfbfbf" points="954.5,-0.5 954.5,-19.5 1037.5,-19.5 1037.5,-0.5 954.5,-0.5"/>
<text text-anchor="middle" x="996" y="-7.5" font-family="Helvetica,sans-Serif" font-size="10.00">initializer_list</text>
</a>
</g>
</g>
<!-- Node5&#45;&gt;Node11 -->
<g id="edge11" class="edge">
<title>Node5&#45;&gt;Node11</title>
<path fill="none" stroke="midnightblue" d="M960.1,-56.08C966.24,-48.38 975.27,-37.03 982.74,-27.65"/>
<polygon fill="midnightblue" stroke="midnightblue" points="985.54,-29.75 989.03,-19.75 980.06,-25.39 985.54,-29.75"/>
</g>
<!-- Node12 -->
<g id="node12" class="node">
<title>Node12</title>
<g id="a_node12"><a xlink:title=" ">
<polygon fill="none" stroke="#bfbfbf" points="1056,-0.5 1056,-19.5 1100,-19.5 1100,-0.5 1056,-0.5"/>
<text text-anchor="middle" x="1078" y="-7.5" font-family="Helvetica,sans-Serif" font-size="10.00">string</text>
</a>
</g>
</g>
<!-- Node5&#45;&gt;Node12 -->
<g id="edge12" class="edge">
<title>Node5&#45;&gt;Node12</title>
<path fill="none" stroke="midnightblue" d="M972.81,-56.44C993.29,-47.6 1025.48,-33.69 1048.86,-23.59"/>
<polygon fill="midnightblue" stroke="midnightblue" points="1050.49,-26.7 1058.29,-19.52 1047.72,-20.27 1050.49,-26.7"/>
</g>
<!-- Node13 -->
<g id="node13" class="node">
<title>Node13</title>
<g id="a_node13"><a xlink:title=" ">
<polygon fill="none" stroke="#bfbfbf" points="798.5,-0.5 798.5,-19.5 867.5,-19.5 867.5,-0.5 798.5,-0.5"/>
<text text-anchor="middle" x="833" y="-7.5" font-family="Helvetica,sans-Serif" font-size="10.00">type_traits</text>
</a>
</g>
</g>
<!-- Node5&#45;&gt;Node13 -->
<g id="edge13" class="edge">
<title>Node5&#45;&gt;Node13</title>
<path fill="none" stroke="midnightblue" d="M933.99,-56.44C914.41,-47.64 883.69,-33.81 861.27,-23.72"/>
<polygon fill="midnightblue" stroke="midnightblue" points="862.48,-20.43 851.93,-19.52 859.61,-26.81 862.48,-20.43"/>
</g>
<!-- Node5&#45;&gt;Node14 -->
<g id="edge14" class="edge">
<title>Node5&#45;&gt;Node14</title>
<path fill="none" stroke="midnightblue" d="M894.96,-60.05C877.32,-58.64 857.87,-57.16 840,-56 527.66,-35.66 443.25,-69.18 129.95,-19.75"/>
<polygon fill="midnightblue" stroke="midnightblue" points="130.09,-16.23 119.66,-18.11 128.98,-23.14 130.09,-16.23"/>
</g>
<!-- Node19&#45;&gt;Node2 -->
<g id="edge21" class="edge">
<title>Node19&#45;&gt;Node2</title>
<path fill="none" stroke="midnightblue" d="M402.45,-280.28C421.43,-266.81 443.42,-245.5 433,-224 426.6,-210.8 414.25,-200.3 402.67,-192.78"/>
<polygon fill="midnightblue" stroke="midnightblue" points="404.45,-189.77 394.08,-187.61 400.84,-195.77 404.45,-189.77"/>
</g>
<!-- Node19&#45;&gt;Node5 -->
<g id="edge20" class="edge">
<title>Node19&#45;&gt;Node5</title>
<path fill="none" stroke="midnightblue" d="M405.12,-280.49C450.97,-256.14 549.23,-205.09 635,-168 700.32,-139.76 717.22,-133.68 785,-112 825.92,-98.91 873.25,-86.47 907.22,-78"/>
<polygon fill="midnightblue" stroke="midnightblue" points="908.45,-81.31 917.32,-75.51 906.77,-74.51 908.45,-81.31"/>
</g>
<!-- Node19&#45;&gt;Node6 -->
<g id="edge42" class="edge">
<title>Node19&#45;&gt;Node6</title>
<path fill="none" stroke="midnightblue" d="M290.92,-285.04C231.86,-277.05 160.86,-263.72 138,-244 114.68,-223.88 114,-209.8 114,-179 114,-179 114,-179 114,-121 114,-84.44 138.88,-47.75 155.47,-27.34"/>
<polygon fill="midnightblue" stroke="midnightblue" points="158.2,-29.54 161.98,-19.64 152.85,-25.02 158.2,-29.54"/>
</g>
<!-- Node19&#45;&gt;Node7 -->
<g id="edge43" class="edge">
<title>Node19&#45;&gt;Node7</title>
<path fill="none" stroke="midnightblue" d="M389.87,-280.5C400.27,-265.27 412.65,-240.85 400,-224 363.69,-175.65 255.46,-224.88 276,-168 299.36,-103.29 364.96,-49.95 399.35,-25.46"/>
<polygon fill="midnightblue" stroke="midnightblue" points="401.56,-28.19 407.76,-19.6 397.56,-22.44 401.56,-28.19"/>
</g>
<!-- Node19&#45;&gt;Node9 -->
<g id="edge45" class="edge">
<title>Node19&#45;&gt;Node9</title>
<path fill="none" stroke="midnightblue" d="M467.15,-292.2C606.67,-287.73 886.68,-275.4 1122,-244 1184.9,-235.61 1351.62,-226.57 1402,-188 1455.09,-147.35 1478.34,-66.05 1486.42,-29.52"/>
<polygon fill="midnightblue" stroke="midnightblue" points="1489.85,-30.22 1488.46,-19.71 1483,-28.79 1489.85,-30.22"/>
</g>
<!-- Node19&#45;&gt;Node14 -->
<g id="edge49" class="edge">
<title>Node19&#45;&gt;Node14</title>
<path fill="none" stroke="midnightblue" d="M290.97,-282.11C242.45,-273.59 188.57,-260.78 171,-244 149.23,-223.21 152,-209.1 152,-179 152,-179 152,-179 152,-121 152,-84.44 127.12,-47.75 110.53,-27.34"/>
<polygon fill="midnightblue" stroke="midnightblue" points="113.15,-25.02 104.02,-19.64 107.8,-29.54 113.15,-25.02"/>
</g>
<!-- Node20 -->
<g id="node20" class="node">
<title>Node20</title>
<g id="a_node20"><a xlink:href="../../d7/d1b/_buffer_8h.html" target="_top" xlink:title=" ">
<polygon fill="none" stroke="black" points="1047,-224.5 1047,-243.5 1113,-243.5 1113,-224.5 1047,-224.5"/>
<text text-anchor="middle" x="1080" y="-231.5" font-family="Helvetica,sans-Serif" font-size="10.00">io/Buffer.h</text>
</a>
</g>
</g>
<!-- Node19&#45;&gt;Node20 -->
<g id="edge22" class="edge">
<title>Node19&#45;&gt;Node20</title>
<path fill="none" stroke="midnightblue" d="M467.07,-287.02C618.8,-274.15 924.05,-248.24 1036.84,-238.66"/>
<polygon fill="midnightblue" stroke="midnightblue" points="1037.16,-242.15 1046.83,-237.82 1036.57,-235.17 1037.16,-242.15"/>
</g>
<!-- Node22 -->
<g id="node22" class="node">
<title>Node22</title>
<g id="a_node22"><a xlink:title=" ">
<polygon fill="none" stroke="#bfbfbf" points="930.5,-112.5 930.5,-131.5 983.5,-131.5 983.5,-112.5 930.5,-112.5"/>
<text text-anchor="middle" x="957" y="-119.5" font-family="Helvetica,sans-Serif" font-size="10.00">cstddef</text>
</a>
</g>
</g>
<!-- Node19&#45;&gt;Node22 -->
<g id="edge44" class="edge">
<title>Node19&#45;&gt;Node22</title>
<path fill="none" stroke="midnightblue" d="M467.05,-283.16C504.98,-275.73 548.83,-263.62 585,-244 628.39,-220.46 621.62,-189.63 666,-168 710.17,-146.47 852.07,-131.9 920.03,-125.98"/>
<polygon fill="midnightblue" stroke="midnightblue" points="920.62,-129.44 930.28,-125.1 920.02,-122.47 920.62,-129.44"/>
</g>
<!-- Node28 -->
<g id="node28" class="node">
<title>Node28</title>
<g id="a_node28"><a xlink:title=" ">
<polygon fill="none" stroke="#bfbfbf" points="180.5,-224.5 180.5,-243.5 245.5,-243.5 245.5,-224.5 180.5,-224.5"/>
<text text-anchor="middle" x="213" y="-231.5" font-family="Helvetica,sans-Serif" font-size="10.00">functional</text>
</a>
</g>
</g>
<!-- Node19&#45;&gt;Node28 -->
<g id="edge46" class="edge">
<title>Node19&#45;&gt;Node28</title>
<path fill="none" stroke="midnightblue" d="M339.66,-280.4C311.44,-270.28 273.79,-256.79 246.9,-247.15"/>
<polygon fill="midnightblue" stroke="midnightblue" points="247.75,-243.74 237.15,-243.66 245.39,-250.33 247.75,-243.74"/>
</g>
<!-- Node29 -->
<g id="node29" class="node">
<title>Node29</title>
<g id="a_node29"><a xlink:title=" ">
<polygon fill="none" stroke="#bfbfbf" points="263.5,-224.5 263.5,-243.5 316.5,-243.5 316.5,-224.5 263.5,-224.5"/>
<text text-anchor="middle" x="290" y="-231.5" font-family="Helvetica,sans-Serif" font-size="10.00">iterator</text>
</a>
</g>
</g>
<!-- Node19&#45;&gt;Node29 -->
<g id="edge47" class="edge">
<title>Node19&#45;&gt;Node29</title>
<path fill="none" stroke="midnightblue" d="M357.91,-280.4C343.91,-271.04 325.59,-258.79 311.51,-249.38"/>
<polygon fill="midnightblue" stroke="midnightblue" points="313.21,-246.31 302.95,-243.66 309.32,-252.13 313.21,-246.31"/>
</g>
<!-- Node30 -->
<g id="node30" class="node">
<title>Node30</title>
<g id="a_node30"><a xlink:title=" ">
<polygon fill="none" stroke="#bfbfbf" points="335,-224.5 335,-243.5 391,-243.5 391,-224.5 335,-224.5"/>
<text text-anchor="middle" x="363" y="-231.5" font-family="Helvetica,sans-Serif" font-size="10.00">numeric</text>
</a>
</g>
</g>
<!-- Node19&#45;&gt;Node30 -->
<g id="edge48" class="edge">
<title>Node19&#45;&gt;Node30</title>
<path fill="none" stroke="midnightblue" d="M375.21,-280.4C373.05,-272.38 370.32,-262.23 367.99,-253.57"/>
<polygon fill="midnightblue" stroke="midnightblue" points="371.3,-252.41 365.33,-243.66 364.55,-254.22 371.3,-252.41"/>
</g>
<!-- Node20&#45;&gt;Node5 -->
<g id="edge25" class="edge">
<title>Node20&#45;&gt;Node5</title>
<path fill="none" stroke="midnightblue" d="M1102.02,-224.32C1126.71,-213.19 1161.62,-192.38 1148,-168 1119.44,-116.89 1054.97,-90.75 1007.95,-78.02"/>
<polygon fill="midnightblue" stroke="midnightblue" points="1008.76,-74.61 998.2,-75.5 1007.01,-81.39 1008.76,-74.61"/>
</g>
<!-- Node20&#45;&gt;Node7 -->
<g id="edge38" class="edge">
<title>Node20&#45;&gt;Node7</title>
<path fill="none" stroke="midnightblue" d="M1046.92,-233.57C1006.47,-232.51 938.09,-224.84 895,-188 846.69,-146.7 890.92,-94.03 840,-56 779.95,-11.15 547.63,-9.27 457.26,-10.3"/>
<polygon fill="midnightblue" stroke="midnightblue" points="457.16,-6.8 447.21,-10.44 457.26,-13.8 457.16,-6.8"/>
</g>
<!-- Node20&#45;&gt;Node9 -->
<g id="edge39" class="edge">
<title>Node20&#45;&gt;Node9</title>
<path fill="none" stroke="midnightblue" d="M1113.09,-230.69C1154.87,-226.68 1228.04,-215.97 1284,-188 1367.6,-146.22 1445.23,-63.03 1476.02,-27.6"/>
<polygon fill="midnightblue" stroke="midnightblue" points="1478.97,-29.55 1482.82,-19.68 1473.65,-24.99 1478.97,-29.55"/>
</g>
<!-- Node21 -->
<g id="node21" class="node">
<title>Node21</title>
<g id="a_node21"><a xlink:href="../../d2/d4f/_address_sanitizer_8h.html" target="_top" xlink:title=" ">
<polygon fill="none" stroke="black" points="903.5,-168.5 903.5,-187.5 1010.5,-187.5 1010.5,-168.5 903.5,-168.5"/>
<text text-anchor="middle" x="957" y="-175.5" font-family="Helvetica,sans-Serif" font-size="10.00">AddressSanitizer.h</text>
</a>
</g>
</g>
<!-- Node20&#45;&gt;Node21 -->
<g id="edge23" class="edge">
<title>Node20&#45;&gt;Node21</title>
<path fill="none" stroke="midnightblue" d="M1060.51,-224.44C1040.36,-215.6 1008.68,-201.69 985.67,-191.59"/>
<polygon fill="midnightblue" stroke="midnightblue" points="986.96,-188.33 976.4,-187.52 984.15,-194.74 986.96,-188.33"/>
</g>
<!-- Node23 -->
<g id="node23" class="node">
<title>Node23</title>
<g id="a_node23"><a xlink:href="../../d3/de6/_memory_8h.html" target="_top" xlink:title=" ">
<polygon fill="none" stroke="black" points="1029,-168.5 1029,-187.5 1139,-187.5 1139,-168.5 1029,-168.5"/>
<text text-anchor="middle" x="1084" y="-175.5" font-family="Helvetica,sans-Serif" font-size="10.00">common/Memory.h</text>
</a>
</g>
</g>
<!-- Node20&#45;&gt;Node23 -->
<g id="edge26" class="edge">
<title>Node20&#45;&gt;Node23</title>
<path fill="none" stroke="midnightblue" d="M1080.66,-224.08C1081.18,-217.01 1081.94,-206.86 1082.59,-197.99"/>
<polygon fill="midnightblue" stroke="midnightblue" points="1086.1,-197.98 1083.35,-187.75 1079.12,-197.47 1086.1,-197.98"/>
</g>
<!-- Node24 -->
<g id="node24" class="node">
<title>Node24</title>
<g id="a_node24"><a xlink:href="../../d5/d0b/_endianness_8h.html" target="_top" xlink:title=" ">
<polygon fill="none" stroke="black" points="1273.5,-56.5 1273.5,-75.5 1366.5,-75.5 1366.5,-56.5 1273.5,-56.5"/>
<text text-anchor="middle" x="1320" y="-63.5" font-family="Helvetica,sans-Serif" font-size="10.00">io/Endianness.h</text>
</a>
</g>
</g>
<!-- Node20&#45;&gt;Node24 -->
<g id="edge31" class="edge">
<title>Node20&#45;&gt;Node24</title>
<path fill="none" stroke="midnightblue" d="M1113.29,-233C1152.91,-231.31 1219.08,-222.93 1262,-188 1294.57,-161.5 1310.03,-112.33 1316.33,-85.55"/>
<polygon fill="midnightblue" stroke="midnightblue" points="1319.79,-86.09 1318.49,-75.58 1312.95,-84.61 1319.79,-86.09"/>
</g>
<!-- Node25 -->
<g id="node25" class="node">
<title>Node25</title>
<g id="a_node25"><a xlink:href="../../d0/dd8/_i_o_exception_8h.html" target="_top" xlink:title=" ">
<polygon fill="none" stroke="black" points="675,-168.5 675,-187.5 771,-187.5 771,-168.5 675,-168.5"/>
<text text-anchor="middle" x="723" y="-175.5" font-family="Helvetica,sans-Serif" font-size="10.00">io/IOException.h</text>
</a>
</g>
</g>
<!-- Node20&#45;&gt;Node25 -->
<g id="edge35" class="edge">
<title>Node20&#45;&gt;Node25</title>
<path fill="none" stroke="midnightblue" d="M1046.73,-227.97C986.14,-218.8 857.09,-199.28 781.5,-187.85"/>
<polygon fill="midnightblue" stroke="midnightblue" points="781.61,-184.33 771.2,-186.29 780.57,-191.25 781.61,-184.33"/>
</g>
<!-- Node26 -->
<g id="node26" class="node">
<title>Node26</title>
<g id="a_node26"><a xlink:title=" ">
<polygon fill="none" stroke="#bfbfbf" points="1195,-168.5 1195,-187.5 1253,-187.5 1253,-168.5 1195,-168.5"/>
<text text-anchor="middle" x="1224" y="-175.5" font-family="Helvetica,sans-Serif" font-size="10.00">memory</text>
</a>
</g>
</g>
<!-- Node20&#45;&gt;Node26 -->
<g id="edge40" class="edge">
<title>Node20&#45;&gt;Node26</title>
<path fill="none" stroke="midnightblue" d="M1102.82,-224.44C1126.83,-215.44 1164.83,-201.19 1191.87,-191.05"/>
<polygon fill="midnightblue" stroke="midnightblue" points="1193.16,-194.3 1201.29,-187.52 1190.7,-187.75 1193.16,-194.3"/>
</g>
<!-- Node20&#45;&gt;Node27 -->
<g id="edge41" class="edge">
<title>Node20&#45;&gt;Node27</title>
<path fill="none" stroke="midnightblue" d="M1113.28,-227.76C1161.78,-219.98 1254.63,-204.48 1333,-188 1334.46,-187.69 1335.94,-187.37 1337.44,-187.04"/>
<polygon fill="midnightblue" stroke="midnightblue" points="1338.4,-190.41 1347.35,-184.75 1336.82,-183.59 1338.4,-190.41"/>
</g>
<!-- Node21&#45;&gt;Node22 -->
<g id="edge24" class="edge">
<title>Node21&#45;&gt;Node22</title>
<path fill="none" stroke="midnightblue" d="M957,-168.08C957,-161.01 957,-150.86 957,-141.99"/>
<polygon fill="midnightblue" stroke="midnightblue" points="960.5,-141.75 957,-131.75 953.5,-141.75 960.5,-141.75"/>
</g>
<!-- Node23&#45;&gt;Node3 -->
<g id="edge27" class="edge">
<title>Node23&#45;&gt;Node3</title>
<path fill="none" stroke="midnightblue" d="M1074.72,-168.34C1059.12,-154.26 1026.06,-126.53 993,-112 944.37,-90.62 884.93,-79.15 841.22,-73.16"/>
<polygon fill="midnightblue" stroke="midnightblue" points="841.67,-69.69 831.3,-71.85 840.76,-76.63 841.67,-69.69"/>
</g>
<!-- Node23&#45;&gt;Node5 -->
<g id="edge28" class="edge">
<title>Node23&#45;&gt;Node5</title>
<path fill="none" stroke="midnightblue" d="M1078.8,-168.09C1070.62,-154.63 1053.63,-128.91 1034,-112 1018.86,-98.96 999.34,-87.98 983.26,-80.13"/>
<polygon fill="midnightblue" stroke="midnightblue" points="984.3,-76.75 973.76,-75.66 981.31,-83.08 984.3,-76.75"/>
</g>
<!-- Node23&#45;&gt;Node9 -->
<g id="edge30" class="edge">
<title>Node23&#45;&gt;Node9</title>
<path fill="none" stroke="midnightblue" d="M1114.56,-168.47C1168.51,-152.96 1283.66,-117.86 1376,-76 1409.37,-60.87 1445.81,-39.09 1468.29,-25"/>
<polygon fill="midnightblue" stroke="midnightblue" points="1470.17,-27.95 1476.74,-19.64 1466.42,-22.04 1470.17,-27.95"/>
</g>
<!-- Node23&#45;&gt;Node22 -->
<g id="edge29" class="edge">
<title>Node23&#45;&gt;Node22</title>
<path fill="none" stroke="midnightblue" d="M1063.88,-168.44C1042.98,-159.56 1010.07,-145.56 986.28,-135.45"/>
<polygon fill="midnightblue" stroke="midnightblue" points="987.6,-132.21 977.03,-131.52 984.86,-138.65 987.6,-132.21"/>
</g>
<!-- Node24&#45;&gt;Node7 -->
<g id="edge32" class="edge">
<title>Node24&#45;&gt;Node7</title>
<path fill="none" stroke="midnightblue" d="M1273.25,-62.19C1114.65,-52.67 599.15,-21.7 457.38,-13.19"/>
<polygon fill="midnightblue" stroke="midnightblue" points="457.26,-9.67 447.07,-12.57 456.84,-16.66 457.26,-9.67"/>
</g>
<!-- Node24&#45;&gt;Node9 -->
<g id="edge33" class="edge">
<title>Node24&#45;&gt;Node9</title>
<path fill="none" stroke="midnightblue" d="M1346.94,-56.44C1376.17,-47.16 1422.95,-32.3 1455,-22.12"/>
<polygon fill="midnightblue" stroke="midnightblue" points="1456.38,-25.35 1464.85,-18.99 1454.26,-18.68 1456.38,-25.35"/>
</g>
<!-- Node24&#45;&gt;Node10 -->
<g id="edge34" class="edge">
<title>Node24&#45;&gt;Node10</title>
<path fill="none" stroke="midnightblue" d="M1313.89,-56.08C1308.72,-48.53 1301.15,-37.49 1294.81,-28.23"/>
<polygon fill="midnightblue" stroke="midnightblue" points="1297.54,-26.02 1289,-19.75 1291.76,-29.98 1297.54,-26.02"/>
</g>
<!-- Node25&#45;&gt;Node3 -->
<g id="edge36" class="edge">
<title>Node25&#45;&gt;Node3</title>
<path fill="none" stroke="midnightblue" d="M727.47,-168.37C736.8,-150.38 758.47,-108.55 770.87,-84.63"/>
<polygon fill="midnightblue" stroke="midnightblue" points="774.05,-86.08 775.55,-75.59 767.84,-82.86 774.05,-86.08"/>
</g>
<!-- Node25&#45;&gt;Node4 -->
<g id="edge37" class="edge">
<title>Node25&#45;&gt;Node4</title>
<path fill="none" stroke="midnightblue" d="M693.05,-168.44C660.84,-159.24 609.47,-144.56 573.86,-134.39"/>
<polygon fill="midnightblue" stroke="midnightblue" points="574.38,-130.9 563.81,-131.52 572.46,-137.63 574.38,-130.9"/>
</g>
<!-- Node31&#45;&gt;Node5 -->
<g id="edge51" class="edge">
<title>Node31&#45;&gt;Node5</title>
<path fill="none" stroke="midnightblue" d="M746.18,-347.32C762.38,-314.24 823.71,-193.91 897,-112 907.24,-100.56 920.58,-89.72 931.67,-81.54"/>
<polygon fill="midnightblue" stroke="midnightblue" points="933.88,-84.26 939.98,-75.6 929.81,-78.57 933.88,-84.26"/>
</g>
<!-- Node31&#45;&gt;Node6 -->
<g id="edge65" class="edge">
<title>Node31&#45;&gt;Node6</title>
<path fill="none" stroke="midnightblue" d="M698.81,-355.92C616.48,-354.86 431.94,-348.12 282,-311 205.57,-292.08 185.73,-284.15 118,-244 78.59,-220.64 38,-224.81 38,-179 38,-179 38,-179 38,-121 38,-70.81 95.01,-39.08 134.1,-23.22"/>
<polygon fill="midnightblue" stroke="midnightblue" points="135.55,-26.42 143.61,-19.53 133.02,-19.89 135.55,-26.42"/>
</g>
<!-- Node31&#45;&gt;Node7 -->
<g id="edge67" class="edge">
<title>Node31&#45;&gt;Node7</title>
<path fill="none" stroke="midnightblue" d="M729.83,-347.34C692.19,-320.55 574.24,-236.72 476,-168 452.97,-151.89 439.4,-155.52 424,-132 403.55,-100.76 410.04,-54.59 415.93,-29.26"/>
<polygon fill="midnightblue" stroke="midnightblue" points="419.34,-30.06 418.41,-19.51 412.56,-28.34 419.34,-30.06"/>
</g>
<!-- Node31&#45;&gt;Node9 -->
<g id="edge68" class="edge">
<title>Node31&#45;&gt;Node9</title>
<path fill="none" stroke="midnightblue" d="M785.09,-356.51C960.44,-357.47 1611,-349.52 1611,-179 1611,-179 1611,-179 1611,-121 1611,-72.99 1558.2,-40.41 1522.36,-23.82"/>
<polygon fill="midnightblue" stroke="midnightblue" points="1523.32,-20.42 1512.76,-19.57 1520.48,-26.82 1523.32,-20.42"/>
</g>
<!-- Node31&#45;&gt;Node10 -->
<g id="edge69" class="edge">
<title>Node31&#45;&gt;Node10</title>
<path fill="none" stroke="midnightblue" d="M785.28,-355.48C904.32,-353.61 1234.62,-345.37 1337,-311 1389.12,-293.5 1414.68,-292.27 1441,-244 1483.33,-166.38 1440.62,-116.34 1376,-56 1359.48,-40.57 1336.68,-29.43 1317.8,-22.09"/>
<polygon fill="midnightblue" stroke="midnightblue" points="1318.92,-18.77 1308.33,-18.6 1316.5,-25.34 1318.92,-18.77"/>
</g>
<!-- Node31&#45;&gt;Node15 -->
<g id="edge66" class="edge">
<title>Node31&#45;&gt;Node15</title>
<path fill="none" stroke="midnightblue" d="M736.43,-347.37C721.3,-323.34 679.67,-253.17 666,-188 658.33,-151.47 672.23,-108.59 681.89,-84.94"/>
<polygon fill="midnightblue" stroke="midnightblue" points="685.2,-86.09 685.93,-75.52 678.77,-83.33 685.2,-86.09"/>
</g>
<!-- Node31&#45;&gt;Node20 -->
<g id="edge52" class="edge">
<title>Node31&#45;&gt;Node20</title>
<path fill="none" stroke="midnightblue" d="M785.03,-353.39C854.69,-348.47 988.37,-336.03 1028,-311 1049.69,-297.3 1064.63,-270.9 1072.75,-253.12"/>
<polygon fill="midnightblue" stroke="midnightblue" points="1076.02,-254.37 1076.74,-243.8 1069.58,-251.61 1076.02,-254.37"/>
</g>
<!-- Node31&#45;&gt;Node24 -->
<g id="edge63" class="edge">
<title>Node31&#45;&gt;Node24</title>
<path fill="none" stroke="midnightblue" d="M785.24,-355.88C921.89,-354.47 1340.22,-342.11 1422,-244 1467.05,-189.95 1381.02,-113.38 1340.02,-81.65"/>
<polygon fill="midnightblue" stroke="midnightblue" points="1342.1,-78.83 1332.01,-75.58 1337.87,-84.41 1342.1,-78.83"/>
</g>
<!-- Node31&#45;&gt;Node25 -->
<g id="edge64" class="edge">
<title>Node31&#45;&gt;Node25</title>
<path fill="none" stroke="midnightblue" d="M738.5,-347.21C735.13,-338.26 730.21,-323.9 728,-311 721.18,-271.21 721.38,-223.72 722.16,-197.94"/>
<polygon fill="midnightblue" stroke="midnightblue" points="725.67,-197.85 722.54,-187.73 718.67,-197.59 725.67,-197.85"/>
</g>
<!-- Node32 -->
<g id="node32" class="node">
<title>Node32</title>
<g id="a_node32"><a xlink:href="../../d7/de7/_byte_stream_8h.html" target="_top" xlink:title=" ">
<polygon fill="none" stroke="black" points="923.5,-286 923.5,-305 1018.5,-305 1018.5,-286 923.5,-286"/>
<text text-anchor="middle" x="971" y="-293" font-family="Helvetica,sans-Serif" font-size="10.00">io/ByteStream.h</text>
</a>
</g>
</g>
<!-- Node31&#45;&gt;Node32 -->
<g id="edge53" class="edge">
<title>Node31&#45;&gt;Node32</title>
<path fill="none" stroke="midnightblue" d="M774.81,-347.48C815.2,-336.98 883.88,-319.14 928.33,-307.59"/>
<polygon fill="midnightblue" stroke="midnightblue" points="929.45,-310.91 938.25,-305.01 927.69,-304.14 929.45,-310.91"/>
</g>
<!-- Node32&#45;&gt;Node5 -->
<g id="edge55" class="edge">
<title>Node32&#45;&gt;Node5</title>
<path fill="none" stroke="midnightblue" d="M961.89,-285.91C944.78,-269.08 908.37,-229.75 895,-188 882.41,-148.68 915.05,-105.81 936.33,-83.15"/>
<polygon fill="midnightblue" stroke="midnightblue" points="939.07,-85.36 943.55,-75.76 934.06,-80.46 939.07,-85.36"/>
</g>
<!-- Node32&#45;&gt;Node7 -->
<g id="edge59" class="edge">
<title>Node32&#45;&gt;Node7</title>
<path fill="none" stroke="midnightblue" d="M935.54,-285.96C822.13,-258.36 473.73,-171.02 440,-132 415.17,-103.27 415.73,-55.75 418.35,-29.63"/>
<polygon fill="midnightblue" stroke="midnightblue" points="421.84,-29.92 419.57,-19.57 414.89,-29.07 421.84,-29.92"/>
</g>
<!-- Node32&#45;&gt;Node9 -->
<g id="edge60" class="edge">
<title>Node32&#45;&gt;Node9</title>
<path fill="none" stroke="midnightblue" d="M1018.88,-293.37C1120.14,-290.3 1352.43,-279.5 1422,-244 1481.71,-213.54 1499.11,-194.63 1523,-132 1535.04,-100.44 1533.51,-88.1 1523,-56 1519.51,-45.34 1512.43,-35.12 1505.71,-27.12"/>
<polygon fill="midnightblue" stroke="midnightblue" points="1508.3,-24.76 1499.02,-19.66 1503.1,-29.44 1508.3,-24.76"/>
</g>
<!-- Node32&#45;&gt;Node10 -->
<g id="edge61" class="edge">
<title>Node32&#45;&gt;Node10</title>
<path fill="none" stroke="midnightblue" d="M1018.65,-292.43C1125.49,-287.29 1376.84,-272.28 1402,-244 1424.45,-218.76 1417.89,-197.81 1402,-168 1367.5,-103.28 1299.5,-140.72 1265,-76 1257.02,-61.03 1263.83,-42.19 1271.25,-28.66"/>
<polygon fill="midnightblue" stroke="midnightblue" points="1274.39,-30.24 1276.56,-19.87 1268.4,-26.62 1274.39,-30.24"/>
</g>
<!-- Node32&#45;&gt;Node20 -->
<g id="edge57" class="edge">
<title>Node32&#45;&gt;Node20</title>
<path fill="none" stroke="midnightblue" d="M986.62,-285.98C1004.59,-276.17 1034.32,-259.93 1055.41,-248.42"/>
<polygon fill="midnightblue" stroke="midnightblue" points="1057.31,-251.37 1064.41,-243.51 1053.96,-245.23 1057.31,-251.37"/>
</g>
<!-- Node32&#45;&gt;Node21 -->
<g id="edge54" class="edge">
<title>Node32&#45;&gt;Node21</title>
<path fill="none" stroke="midnightblue" d="M969.95,-285.82C967.7,-267.26 962.37,-223.34 959.3,-197.97"/>
<polygon fill="midnightblue" stroke="midnightblue" points="962.74,-197.29 958.06,-187.78 955.79,-198.13 962.74,-197.29"/>
</g>
<!-- Node32&#45;&gt;Node23 -->
<g id="edge56" class="edge">
<title>Node32&#45;&gt;Node23</title>
<path fill="none" stroke="midnightblue" d="M979.15,-285.72C991.66,-272.29 1016.43,-245.89 1038,-224 1047.73,-214.13 1058.83,-203.26 1067.69,-194.68"/>
<polygon fill="midnightblue" stroke="midnightblue" points="1070.32,-197 1075.09,-187.53 1065.46,-191.96 1070.32,-197"/>
</g>
<!-- Node32&#45;&gt;Node25 -->
<g id="edge58" class="edge">
<title>Node32&#45;&gt;Node25</title>
<path fill="none" stroke="midnightblue" d="M946.36,-285.91C920.11,-276.52 877.53,-260.57 842,-244 807.88,-228.08 769.93,-206.68 746.27,-192.86"/>
<polygon fill="midnightblue" stroke="midnightblue" points="747.74,-189.66 737.35,-187.61 744.2,-195.7 747.74,-189.66"/>
</g>
<!-- Node33 -->
<g id="node33" class="node">
<title>Node33</title>
<g id="a_node33"><a xlink:title=" ">
<polygon fill="none" stroke="#bfbfbf" points="1349,-224.5 1349,-243.5 1393,-243.5 1393,-224.5 1349,-224.5"/>
<text text-anchor="middle" x="1371" y="-231.5" font-family="Helvetica,sans-Serif" font-size="10.00">limits</text>
</a>
</g>
</g>
<!-- Node32&#45;&gt;Node33 -->
<g id="edge62" class="edge">
<title>Node32&#45;&gt;Node33</title>
<path fill="none" stroke="midnightblue" d="M1018.68,-289.54C1088.48,-281.89 1222.41,-265.82 1335,-244 1336.28,-243.75 1337.58,-243.49 1338.9,-243.21"/>
<polygon fill="midnightblue" stroke="midnightblue" points="1340.03,-246.54 1349,-240.9 1338.47,-239.72 1340.03,-246.54"/>
</g>
</g>
</svg>
        <g id="navigator" transform="translate(0 0)" fill="#404254">
                <rect fill="#f2f5e9" fill-opacity="0.5" stroke="#606060" stroke-width=".5" x="0" y="0" width="60" height="60"/>
                <use id="zoomplus" xlink:href="#zoomPlus" x="17" y="9" onmousedown="handleZoom(evt,'in')"/>
                <use id="zoomminus" xlink:href="#zoomMin" x="42" y="9" onmousedown="handleZoom(evt,'out')"/>
                <use id="reset" xlink:href="#resetDef" x="30" y="36" onmousedown="handleReset()"/>
                <g id="arrowUp" xlink:href="#dirArrow" transform="translate(30 24)" onmousedown="handlePan(0,-1)">
                  <use xlink:href="#rim" fill="#404040">
                        <set attributeName="fill" to="#808080" begin="arrowUp.mouseover" end="arrowUp.mouseout"/>
                  </use>
                  <path fill="none" stroke="white" stroke-width="1.5" d="M0,-3.0v7 M-2.5,-0.5L0,-3.0L2.5,-0.5"/>
                </g>
                <g id="arrowRight" xlink:href="#dirArrow" transform="rotate(90) translate(36 -43)" onmousedown="handlePan(1,0)">
                  <use xlink:href="#rim" fill="#404040">
                        <set attributeName="fill" to="#808080" begin="arrowRight.mouseover" end="arrowRight.mouseout"/>
                  </use>
                  <path fill="none" stroke="white" stroke-width="1.5" d="M0,-3.0v7 M-2.5,-0.5L0,-3.0L2.5,-0.5"/>
                </g>
                <g id="arrowDown" xlink:href="#dirArrow" transform="rotate(180) translate(-30 -48)" onmousedown="handlePan(0,1)">
                  <use xlink:href="#rim" fill="#404040">
                        <set attributeName="fill" to="#808080" begin="arrowDown.mouseover" end="arrowDown.mouseout"/>
                  </use>
                  <path fill="none" stroke="white" stroke-width="1.5" d="M0,-3.0v7 M-2.5,-0.5L0,-3.0L2.5,-0.5"/>
                </g>
                <g id="arrowLeft" xlink:href="#dirArrow" transform="rotate(270) translate(-36 17)" onmousedown="handlePan(-1,0)">
                  <use xlink:href="#rim" fill="#404040">
                        <set attributeName="fill" to="#808080" begin="arrowLeft.mouseover" end="arrowLeft.mouseout"/>
                  </use>
                  <path fill="none" stroke="white" stroke-width="1.5" d="M0,-3.0v7 M-2.5,-0.5L0,-3.0L2.5,-0.5"/>
                </g>
        </g>
        <svg viewBox="0 0 15 15" width="100%" height="30px" preserveAspectRatio="xMaxYMin meet">
         <g id="arrow_out" transform="scale(0.3 0.3)">
          <a xlink:href="_huffman_table_vector_8h__incl_org.svg" target="_base">
           <rect id="button" ry="5" rx="5" y="6" x="6" height="38" width="38"
                fill="#f2f5e9" fill-opacity="0.5" stroke="#606060" stroke-width="1.0"/>
           <path id="arrow"
             d="M 11.500037,31.436501 C 11.940474,20.09759 22.043105,11.32322 32.158766,21.979434 L 37.068811,17.246167 C 37.068811,17.246167 37.088388,32 37.088388,32 L 22.160133,31.978069 C 22.160133,31.978069 26.997745,27.140456 26.997745,27.140456 C 18.528582,18.264221 13.291696,25.230495 11.500037,31.436501 z"
             style="fill:#404040;"/>
          </a>
         </g>
        </svg>
</svg>
