<?xml version="1.0" encoding="UTF-8" standalone="no"?>
<!DOCTYPE svg PUBLIC "-//W3C//DTD SVG 1.1//EN"
 "http://www.w3.org/Graphics/SVG/1.1/DTD/svg11.dtd">
<!-- Generated by graphviz version 2.43.0 (0)
 -->
<!-- Title: librawspeed/decoders/AbstractTiffDecoder.h Pages: 1 -->
<svg width="2972pt" height="251pt"
 viewBox="0.00 0.00 2972.00 251.00" xmlns="http://www.w3.org/2000/svg" xmlns:xlink="http://www.w3.org/1999/xlink">
<g id="graph0" class="graph" transform="scale(1 1) rotate(0) translate(4 247)">
<title>librawspeed/decoders/AbstractTiffDecoder.h</title>
<!-- Node1 -->
<g id="node1" class="node">
<title>Node1</title>
<g id="a_node1"><a xlink:title=" ">
<polygon fill="#bfbfbf" stroke="black" points="1119,-212.5 1119,-242.5 1244,-242.5 1244,-212.5 1119,-212.5"/>
<text text-anchor="start" x="1127" y="-230.5" font-family="Helvetica,sans-Serif" font-size="10.00">librawspeed/decoders</text>
<text text-anchor="middle" x="1181.5" y="-219.5" font-family="Helvetica,sans-Serif" font-size="10.00">/AbstractTiffDecoder.h</text>
</a>
</g>
</g>
<!-- Node2 -->
<g id="node2" class="node">
<title>Node2</title>
<g id="a_node2"><a xlink:href="../../d1/dde/_arw_decoder_8h.html" target="_top" xlink:title=" ">
<polygon fill="none" stroke="black" points="979,-78.5 979,-108.5 1102,-108.5 1102,-78.5 979,-78.5"/>
<text text-anchor="start" x="987" y="-96.5" font-family="Helvetica,sans-Serif" font-size="10.00">librawspeed/decoders</text>
<text text-anchor="middle" x="1040.5" y="-85.5" font-family="Helvetica,sans-Serif" font-size="10.00">/ArwDecoder.h</text>
</a>
</g>
</g>
<!-- Node1&#45;&gt;Node2 -->
<g id="edge1" class="edge">
<title>Node1&#45;&gt;Node2</title>
<path fill="none" stroke="midnightblue" d="M1161.77,-204.8C1146.18,-187.97 1123.59,-164.35 1102.5,-145 1088.38,-132.05 1071.47,-118.39 1058.88,-108.54"/>
<polygon fill="midnightblue" stroke="midnightblue" points="1159.48,-207.47 1168.83,-212.46 1164.63,-202.73 1159.48,-207.47"/>
</g>
<!-- Node6 -->
<g id="node6" class="node">
<title>Node6</title>
<g id="a_node6"><a xlink:href="../../db/d6a/_cr2_decoder_8h.html" target="_top" xlink:title=" ">
<polygon fill="none" stroke="black" points="1120,-78.5 1120,-108.5 1243,-108.5 1243,-78.5 1120,-78.5"/>
<text text-anchor="start" x="1128" y="-96.5" font-family="Helvetica,sans-Serif" font-size="10.00">librawspeed/decoders</text>
<text text-anchor="middle" x="1181.5" y="-85.5" font-family="Helvetica,sans-Serif" font-size="10.00">/Cr2Decoder.h</text>
</a>
</g>
</g>
<!-- Node1&#45;&gt;Node6 -->
<g id="edge5" class="edge">
<title>Node1&#45;&gt;Node6</title>
<path fill="none" stroke="midnightblue" d="M1181.5,-202.02C1181.5,-174.51 1181.5,-130.79 1181.5,-108.52"/>
<polygon fill="midnightblue" stroke="midnightblue" points="1178,-202.37 1181.5,-212.37 1185,-202.37 1178,-202.37"/>
</g>
<!-- Node8 -->
<g id="node8" class="node">
<title>Node8</title>
<g id="a_node8"><a xlink:href="../../d6/d2a/_dng_decoder_8h.html" target="_top" xlink:title=" ">
<polygon fill="none" stroke="black" points="415,-78.5 415,-108.5 538,-108.5 538,-78.5 415,-78.5"/>
<text text-anchor="start" x="423" y="-96.5" font-family="Helvetica,sans-Serif" font-size="10.00">librawspeed/decoders</text>
<text text-anchor="middle" x="476.5" y="-85.5" font-family="Helvetica,sans-Serif" font-size="10.00">/DngDecoder.h</text>
</a>
</g>
</g>
<!-- Node1&#45;&gt;Node8 -->
<g id="edge9" class="edge">
<title>Node1&#45;&gt;Node8</title>
<path fill="none" stroke="midnightblue" d="M1108.58,-217.81C1037.38,-208.9 926.11,-193.85 830.5,-176 723.71,-156.06 600.36,-126.06 531.09,-108.56"/>
<polygon fill="midnightblue" stroke="midnightblue" points="1108.43,-221.32 1118.79,-219.08 1109.3,-214.37 1108.43,-221.32"/>
</g>
<!-- Node10 -->
<g id="node10" class="node">
<title>Node10</title>
<g id="a_node10"><a xlink:href="../../d7/df7/_iiq_decoder_8h.html" target="_top" xlink:title=" ">
<polygon fill="none" stroke="black" points="133,-78.5 133,-108.5 256,-108.5 256,-78.5 133,-78.5"/>
<text text-anchor="start" x="141" y="-96.5" font-family="Helvetica,sans-Serif" font-size="10.00">librawspeed/decoders</text>
<text text-anchor="middle" x="194.5" y="-85.5" font-family="Helvetica,sans-Serif" font-size="10.00">/IiqDecoder.h</text>
</a>
</g>
</g>
<!-- Node1&#45;&gt;Node10 -->
<g id="edge13" class="edge">
<title>Node1&#45;&gt;Node10</title>
<path fill="none" stroke="midnightblue" d="M1108.35,-224.57C987.85,-220.54 740.35,-208.71 533.5,-176 428.27,-159.36 307.5,-127.08 242.3,-108.53"/>
<polygon fill="midnightblue" stroke="midnightblue" points="1108.45,-228.07 1118.56,-224.9 1108.68,-221.07 1108.45,-228.07"/>
</g>
<!-- Node13 -->
<g id="node13" class="node">
<title>Node13</title>
<g id="a_node13"><a xlink:href="../../d7/dd2/_kdc_decoder_8h.html" target="_top" xlink:title=" ">
<polygon fill="none" stroke="black" points="556,-78.5 556,-108.5 679,-108.5 679,-78.5 556,-78.5"/>
<text text-anchor="start" x="564" y="-96.5" font-family="Helvetica,sans-Serif" font-size="10.00">librawspeed/decoders</text>
<text text-anchor="middle" x="617.5" y="-85.5" font-family="Helvetica,sans-Serif" font-size="10.00">/KdcDecoder.h</text>
</a>
</g>
</g>
<!-- Node1&#45;&gt;Node13 -->
<g id="edge18" class="edge">
<title>Node1&#45;&gt;Node13</title>
<path fill="none" stroke="midnightblue" d="M1109.01,-210.37C1065.36,-200.59 1008.7,-187.76 958.5,-176 901.51,-162.65 887.42,-158.64 830.5,-145 778.76,-132.6 719.91,-118.66 677.2,-108.57"/>
<polygon fill="midnightblue" stroke="midnightblue" points="1108.44,-213.83 1118.96,-212.6 1109.97,-207 1108.44,-213.83"/>
</g>
<!-- Node15 -->
<g id="node15" class="node">
<title>Node15</title>
<g id="a_node15"><a xlink:href="../../d9/d41/_mos_decoder_8h.html" target="_top" xlink:title=" ">
<polygon fill="none" stroke="black" points="274,-78.5 274,-108.5 397,-108.5 397,-78.5 274,-78.5"/>
<text text-anchor="start" x="282" y="-96.5" font-family="Helvetica,sans-Serif" font-size="10.00">librawspeed/decoders</text>
<text text-anchor="middle" x="335.5" y="-85.5" font-family="Helvetica,sans-Serif" font-size="10.00">/MosDecoder.h</text>
</a>
</g>
</g>
<!-- Node1&#45;&gt;Node15 -->
<g id="edge22" class="edge">
<title>Node1&#45;&gt;Node15</title>
<path fill="none" stroke="midnightblue" d="M1108.58,-222.17C1010.7,-215.66 831.63,-201.35 680.5,-176 574.43,-158.21 452.41,-126.73 385.64,-108.54"/>
<polygon fill="midnightblue" stroke="midnightblue" points="1108.46,-225.67 1118.66,-222.83 1108.91,-218.68 1108.46,-225.67"/>
</g>
<!-- Node16 -->
<g id="node16" class="node">
<title>Node16</title>
<g id="a_node16"><a xlink:href="../../dc/dda/_nef_decoder_8h.html" target="_top" xlink:title=" ">
<polygon fill="none" stroke="black" points="697,-78.5 697,-108.5 820,-108.5 820,-78.5 697,-78.5"/>
<text text-anchor="start" x="705" y="-96.5" font-family="Helvetica,sans-Serif" font-size="10.00">librawspeed/decoders</text>
<text text-anchor="middle" x="758.5" y="-85.5" font-family="Helvetica,sans-Serif" font-size="10.00">/NefDecoder.h</text>
</a>
</g>
</g>
<!-- Node1&#45;&gt;Node16 -->
<g id="edge26" class="edge">
<title>Node1&#45;&gt;Node16</title>
<path fill="none" stroke="midnightblue" d="M1132.66,-209.03C1105.74,-199.37 1071.74,-187.1 1041.5,-176 1004.53,-162.43 996.09,-156.73 958.5,-145 912.69,-130.71 860.04,-117.54 820.26,-108.24"/>
<polygon fill="midnightblue" stroke="midnightblue" points="1131.64,-212.39 1142.23,-212.47 1134,-205.8 1131.64,-212.39"/>
</g>
<!-- Node18 -->
<g id="node18" class="node">
<title>Node18</title>
<g id="a_node18"><a xlink:href="../../dc/d29/_orf_decoder_8h.html" target="_top" xlink:title=" ">
<polygon fill="none" stroke="black" points="838,-78.5 838,-108.5 961,-108.5 961,-78.5 838,-78.5"/>
<text text-anchor="start" x="846" y="-96.5" font-family="Helvetica,sans-Serif" font-size="10.00">librawspeed/decoders</text>
<text text-anchor="middle" x="899.5" y="-85.5" font-family="Helvetica,sans-Serif" font-size="10.00">/OrfDecoder.h</text>
</a>
</g>
</g>
<!-- Node1&#45;&gt;Node18 -->
<g id="edge30" class="edge">
<title>Node1&#45;&gt;Node18</title>
<path fill="none" stroke="midnightblue" d="M1151.41,-206.78C1123.64,-189.12 1080.86,-163.27 1041.5,-145 1010.41,-130.57 973.95,-117.69 945.77,-108.54"/>
<polygon fill="midnightblue" stroke="midnightblue" points="1149.57,-209.76 1159.87,-212.21 1153.34,-203.86 1149.57,-209.76"/>
</g>
<!-- Node20 -->
<g id="node20" class="node">
<title>Node20</title>
<g id="a_node20"><a xlink:href="../../d5/dcc/_pef_decoder_8h.html" target="_top" xlink:title=" ">
<polygon fill="none" stroke="black" points="2254,-78.5 2254,-108.5 2377,-108.5 2377,-78.5 2254,-78.5"/>
<text text-anchor="start" x="2262" y="-96.5" font-family="Helvetica,sans-Serif" font-size="10.00">librawspeed/decoders</text>
<text text-anchor="middle" x="2315.5" y="-85.5" font-family="Helvetica,sans-Serif" font-size="10.00">/PefDecoder.h</text>
</a>
</g>
</g>
<!-- Node1&#45;&gt;Node20 -->
<g id="edge34" class="edge">
<title>Node1&#45;&gt;Node20</title>
<path fill="none" stroke="midnightblue" d="M1254.2,-222.58C1372.81,-215.78 1615.25,-200.15 1819.5,-176 2009.4,-153.55 2056.33,-143.03 2244.5,-109 2247.6,-108.44 2250.76,-107.85 2253.96,-107.24"/>
<polygon fill="midnightblue" stroke="midnightblue" points="1253.93,-219.09 1244.14,-223.15 1254.33,-226.08 1253.93,-219.09"/>
</g>
<!-- Node22 -->
<g id="node22" class="node">
<title>Node22</title>
<g id="a_node22"><a xlink:href="../../de/d30/_raf_decoder_8h.html" target="_top" xlink:title=" ">
<polygon fill="none" stroke="black" points="2530,-145.5 2530,-175.5 2653,-175.5 2653,-145.5 2530,-145.5"/>
<text text-anchor="start" x="2538" y="-163.5" font-family="Helvetica,sans-Serif" font-size="10.00">librawspeed/decoders</text>
<text text-anchor="middle" x="2591.5" y="-152.5" font-family="Helvetica,sans-Serif" font-size="10.00">/RafDecoder.h</text>
</a>
</g>
</g>
<!-- Node1&#45;&gt;Node22 -->
<g id="edge38" class="edge">
<title>Node1&#45;&gt;Node22</title>
<path fill="none" stroke="midnightblue" d="M1254.33,-223.78C1438.17,-216.83 1935.86,-197.43 2350.5,-176 2411.51,-172.85 2481.17,-168.58 2529.85,-165.5"/>
<polygon fill="midnightblue" stroke="midnightblue" points="1254.11,-220.29 1244.24,-224.16 1254.37,-227.28 1254.11,-220.29"/>
</g>
<!-- Node26 -->
<g id="node26" class="node">
<title>Node26</title>
<g id="a_node26"><a xlink:href="../../de/d21/_rw2_decoder_8h.html" target="_top" xlink:title=" ">
<polygon fill="none" stroke="black" points="2395,-78.5 2395,-108.5 2518,-108.5 2518,-78.5 2395,-78.5"/>
<text text-anchor="start" x="2403" y="-96.5" font-family="Helvetica,sans-Serif" font-size="10.00">librawspeed/decoders</text>
<text text-anchor="middle" x="2456.5" y="-85.5" font-family="Helvetica,sans-Serif" font-size="10.00">/Rw2Decoder.h</text>
</a>
</g>
</g>
<!-- Node1&#45;&gt;Node26 -->
<g id="edge43" class="edge">
<title>Node1&#45;&gt;Node26</title>
<path fill="none" stroke="midnightblue" d="M1254.77,-223.72C1390.92,-218.09 1692.07,-203.48 1944.5,-176 2141.58,-154.55 2190.32,-143.73 2385.5,-109 2388.6,-108.45 2391.77,-107.87 2394.96,-107.27"/>
<polygon fill="midnightblue" stroke="midnightblue" points="1254.31,-220.23 1244.46,-224.14 1254.6,-227.23 1254.31,-220.23"/>
</g>
<!-- Node28 -->
<g id="node28" class="node">
<title>Node28</title>
<g id="a_node28"><a xlink:href="../../db/daa/_srw_decoder_8h.html" target="_top" xlink:title=" ">
<polygon fill="none" stroke="black" points="1972,-78.5 1972,-108.5 2095,-108.5 2095,-78.5 1972,-78.5"/>
<text text-anchor="start" x="1980" y="-96.5" font-family="Helvetica,sans-Serif" font-size="10.00">librawspeed/decoders</text>
<text text-anchor="middle" x="2033.5" y="-85.5" font-family="Helvetica,sans-Serif" font-size="10.00">/SrwDecoder.h</text>
</a>
</g>
</g>
<!-- Node1&#45;&gt;Node28 -->
<g id="edge47" class="edge">
<title>Node1&#45;&gt;Node28</title>
<path fill="none" stroke="midnightblue" d="M1254.21,-219.26C1338.47,-210.53 1481.37,-194.68 1603.5,-176 1763.94,-151.46 1803.2,-140.13 1962.5,-109 1965.59,-108.4 1968.75,-107.77 1971.94,-107.14"/>
<polygon fill="midnightblue" stroke="midnightblue" points="1253.82,-215.78 1244.23,-220.29 1254.54,-222.74 1253.82,-215.78"/>
</g>
<!-- Node30 -->
<g id="node30" class="node">
<title>Node30</title>
<g id="a_node30"><a xlink:href="../../d8/da1/_threefr_decoder_8h.html" target="_top" xlink:title=" ">
<polygon fill="none" stroke="black" points="2113,-78.5 2113,-108.5 2236,-108.5 2236,-78.5 2113,-78.5"/>
<text text-anchor="start" x="2121" y="-96.5" font-family="Helvetica,sans-Serif" font-size="10.00">librawspeed/decoders</text>
<text text-anchor="middle" x="2174.5" y="-85.5" font-family="Helvetica,sans-Serif" font-size="10.00">/ThreefrDecoder.h</text>
</a>
</g>
</g>
<!-- Node1&#45;&gt;Node30 -->
<g id="edge51" class="edge">
<title>Node1&#45;&gt;Node30</title>
<path fill="none" stroke="midnightblue" d="M1254.16,-221.1C1355.34,-213.22 1544.28,-197.16 1704.5,-176 1882.77,-152.46 1926.72,-141.88 2103.5,-109 2106.59,-108.42 2109.76,-107.82 2112.95,-107.21"/>
<polygon fill="midnightblue" stroke="midnightblue" points="1253.75,-217.62 1244.05,-221.89 1254.29,-224.6 1253.75,-217.62"/>
</g>
<!-- Node32 -->
<g id="node32" class="node">
<title>Node32</title>
<g id="a_node32"><a xlink:href="../../dd/d8a/_abstract_tiff_decoder_8cpp.html" target="_top" xlink:title=" ">
<polygon fill="none" stroke="black" points="2671.5,-145.5 2671.5,-175.5 2807.5,-175.5 2807.5,-145.5 2671.5,-145.5"/>
<text text-anchor="start" x="2679.5" y="-163.5" font-family="Helvetica,sans-Serif" font-size="10.00">librawspeed/decoders</text>
<text text-anchor="middle" x="2739.5" y="-152.5" font-family="Helvetica,sans-Serif" font-size="10.00">/AbstractTiffDecoder.cpp</text>
</a>
</g>
</g>
<!-- Node1&#45;&gt;Node32 -->
<g id="edge55" class="edge">
<title>Node1&#45;&gt;Node32</title>
<path fill="none" stroke="midnightblue" d="M1254.03,-225.49C1512.05,-221.66 2384.77,-206.7 2662.5,-176 2665.34,-175.69 2668.23,-175.33 2671.15,-174.93"/>
<polygon fill="midnightblue" stroke="midnightblue" points="1253.97,-221.99 1244.02,-225.64 1254.07,-228.99 1253.97,-221.99"/>
</g>
<!-- Node33 -->
<g id="node33" class="node">
<title>Node33</title>
<g id="a_node33"><a xlink:href="../../db/db8/_simple_tiff_decoder_8h.html" target="_top" xlink:title=" ">
<polygon fill="none" stroke="black" points="1472,-145.5 1472,-175.5 1595,-175.5 1595,-145.5 1472,-145.5"/>
<text text-anchor="start" x="1480" y="-163.5" font-family="Helvetica,sans-Serif" font-size="10.00">librawspeed/decoders</text>
<text text-anchor="middle" x="1533.5" y="-152.5" font-family="Helvetica,sans-Serif" font-size="10.00">/SimpleTiffDecoder.h</text>
</a>
</g>
</g>
<!-- Node1&#45;&gt;Node33 -->
<g id="edge56" class="edge">
<title>Node1&#45;&gt;Node33</title>
<path fill="none" stroke="midnightblue" d="M1254.08,-213.1C1318.35,-201.23 1411.12,-184.1 1471.85,-172.88"/>
<polygon fill="midnightblue" stroke="midnightblue" points="1253.22,-209.7 1244.02,-214.95 1254.49,-216.58 1253.22,-209.7"/>
</g>
<!-- Node3 -->
<g id="node3" class="node">
<title>Node3</title>
<g id="a_node3"><a xlink:href="../../d6/da1/fuzz_2librawspeed_2decoders_2_tiff_decoders_2main_8cpp.html" target="_top" xlink:title=" ">
<polygon fill="none" stroke="black" points="1261,-0.5 1261,-41.5 1390,-41.5 1390,-0.5 1261,-0.5"/>
<text text-anchor="start" x="1269" y="-29.5" font-family="Helvetica,sans-Serif" font-size="10.00">/build/rawspeed/fuzz</text>
<text text-anchor="start" x="1269" y="-18.5" font-family="Helvetica,sans-Serif" font-size="10.00">/librawspeed/decoders</text>
<text text-anchor="middle" x="1325.5" y="-7.5" font-family="Helvetica,sans-Serif" font-size="10.00">/TiffDecoders/main.cpp</text>
</a>
</g>
</g>
<!-- Node2&#45;&gt;Node3 -->
<g id="edge2" class="edge">
<title>Node2&#45;&gt;Node3</title>
<path fill="none" stroke="midnightblue" d="M1111.01,-76.17C1152.07,-66.52 1204.8,-53.9 1251.5,-42 1254.6,-41.21 1257.76,-40.4 1260.96,-39.56"/>
<polygon fill="midnightblue" stroke="midnightblue" points="1110.03,-72.8 1101.1,-78.49 1111.63,-79.61 1110.03,-72.8"/>
</g>
<!-- Node4 -->
<g id="node4" class="node">
<title>Node4</title>
<g id="a_node4"><a xlink:href="../../dc/dd2/_arw_decoder_8cpp.html" target="_top" xlink:title=" ">
<polygon fill="none" stroke="black" points="846,-6 846,-36 969,-36 969,-6 846,-6"/>
<text text-anchor="start" x="854" y="-24" font-family="Helvetica,sans-Serif" font-size="10.00">librawspeed/decoders</text>
<text text-anchor="middle" x="907.5" y="-13" font-family="Helvetica,sans-Serif" font-size="10.00">/ArwDecoder.cpp</text>
</a>
</g>
</g>
<!-- Node2&#45;&gt;Node4 -->
<g id="edge3" class="edge">
<title>Node2&#45;&gt;Node4</title>
<path fill="none" stroke="midnightblue" d="M1005.06,-73.72C982.75,-61.89 954.42,-46.87 934.05,-36.07"/>
<polygon fill="midnightblue" stroke="midnightblue" points="1003.43,-76.81 1013.91,-78.4 1006.71,-70.63 1003.43,-76.81"/>
</g>
<!-- Node5 -->
<g id="node5" class="node">
<title>Node5</title>
<g id="a_node5"><a xlink:href="../../d2/d36/_tiff_parser_8cpp.html" target="_top" xlink:title=" ">
<polygon fill="none" stroke="black" points="1128,-6 1128,-36 1243,-36 1243,-6 1128,-6"/>
<text text-anchor="start" x="1136" y="-24" font-family="Helvetica,sans-Serif" font-size="10.00">librawspeed/parsers</text>
<text text-anchor="middle" x="1185.5" y="-13" font-family="Helvetica,sans-Serif" font-size="10.00">/TiffParser.cpp</text>
</a>
</g>
</g>
<!-- Node2&#45;&gt;Node5 -->
<g id="edge4" class="edge">
<title>Node2&#45;&gt;Node5</title>
<path fill="none" stroke="midnightblue" d="M1078.49,-74.03C1102.91,-62.16 1134.14,-46.97 1156.56,-36.07"/>
<polygon fill="midnightblue" stroke="midnightblue" points="1076.96,-70.88 1069.49,-78.4 1080.02,-77.18 1076.96,-70.88"/>
</g>
<!-- Node6&#45;&gt;Node3 -->
<g id="edge6" class="edge">
<title>Node6&#45;&gt;Node3</title>
<path fill="none" stroke="midnightblue" d="M1219.3,-74C1239.69,-64.01 1264.86,-51.69 1285.58,-41.55"/>
<polygon fill="midnightblue" stroke="midnightblue" points="1217.74,-70.86 1210.29,-78.4 1220.81,-77.15 1217.74,-70.86"/>
</g>
<!-- Node6&#45;&gt;Node5 -->
<g id="edge8" class="edge">
<title>Node6&#45;&gt;Node5</title>
<path fill="none" stroke="midnightblue" d="M1182.88,-68.23C1183.48,-57.57 1184.17,-45.41 1184.69,-36.25"/>
<polygon fill="midnightblue" stroke="midnightblue" points="1179.38,-68.05 1182.31,-78.23 1186.37,-68.45 1179.38,-68.05"/>
</g>
<!-- Node7 -->
<g id="node7" class="node">
<title>Node7</title>
<g id="a_node7"><a xlink:href="../../d4/db4/_cr2_decoder_8cpp.html" target="_top" xlink:title=" ">
<polygon fill="none" stroke="black" points="987,-6 987,-36 1110,-36 1110,-6 987,-6"/>
<text text-anchor="start" x="995" y="-24" font-family="Helvetica,sans-Serif" font-size="10.00">librawspeed/decoders</text>
<text text-anchor="middle" x="1048.5" y="-13" font-family="Helvetica,sans-Serif" font-size="10.00">/Cr2Decoder.cpp</text>
</a>
</g>
</g>
<!-- Node6&#45;&gt;Node7 -->
<g id="edge7" class="edge">
<title>Node6&#45;&gt;Node7</title>
<path fill="none" stroke="midnightblue" d="M1146.06,-73.72C1123.75,-61.89 1095.42,-46.87 1075.05,-36.07"/>
<polygon fill="midnightblue" stroke="midnightblue" points="1144.43,-76.81 1154.91,-78.4 1147.71,-70.63 1144.43,-76.81"/>
</g>
<!-- Node8&#45;&gt;Node3 -->
<g id="edge10" class="edge">
<title>Node8&#45;&gt;Node3</title>
<path fill="none" stroke="midnightblue" d="M548.46,-77.88C859.52,-39.19 944.97,-90.68 1251.5,-42 1254.52,-41.52 1257.6,-40.96 1260.7,-40.35"/>
<polygon fill="midnightblue" stroke="midnightblue" points="547.73,-74.45 538.25,-79.17 548.61,-81.39 547.73,-74.45"/>
</g>
<!-- Node8&#45;&gt;Node5 -->
<g id="edge12" class="edge">
<title>Node8&#45;&gt;Node5</title>
<path fill="none" stroke="midnightblue" d="M548.47,-77.86C800.8,-45.19 871.04,-86.13 1118.5,-42 1126.75,-40.53 1135.41,-38.4 1143.68,-36.07"/>
<polygon fill="midnightblue" stroke="midnightblue" points="547.71,-74.43 538.26,-79.21 548.63,-81.37 547.71,-74.43"/>
</g>
<!-- Node9 -->
<g id="node9" class="node">
<title>Node9</title>
<g id="a_node9"><a xlink:href="../../de/db3/_dng_decoder_8cpp.html" target="_top" xlink:title=" ">
<polygon fill="none" stroke="black" points="282,-6 282,-36 405,-36 405,-6 282,-6"/>
<text text-anchor="start" x="290" y="-24" font-family="Helvetica,sans-Serif" font-size="10.00">librawspeed/decoders</text>
<text text-anchor="middle" x="343.5" y="-13" font-family="Helvetica,sans-Serif" font-size="10.00">/DngDecoder.cpp</text>
</a>
</g>
</g>
<!-- Node8&#45;&gt;Node9 -->
<g id="edge11" class="edge">
<title>Node8&#45;&gt;Node9</title>
<path fill="none" stroke="midnightblue" d="M441.06,-73.72C418.75,-61.89 390.42,-46.87 370.05,-36.07"/>
<polygon fill="midnightblue" stroke="midnightblue" points="439.43,-76.81 449.91,-78.4 442.71,-70.63 439.43,-76.81"/>
</g>
<!-- Node10&#45;&gt;Node3 -->
<g id="edge14" class="edge">
<title>Node10&#45;&gt;Node3</title>
<path fill="none" stroke="midnightblue" d="M266.27,-77.93C702.08,-26.53 820.77,-107.19 1251.5,-42 1254.53,-41.54 1257.61,-41 1260.71,-40.41"/>
<polygon fill="midnightblue" stroke="midnightblue" points="265.76,-74.46 256.24,-79.12 266.59,-81.41 265.76,-74.46"/>
</g>
<!-- Node10&#45;&gt;Node5 -->
<g id="edge17" class="edge">
<title>Node10&#45;&gt;Node5</title>
<path fill="none" stroke="midnightblue" d="M266.34,-77.91C643.33,-32.6 747.13,-104.26 1118.5,-42 1127,-40.57 1135.94,-38.4 1144.42,-36.01"/>
<polygon fill="midnightblue" stroke="midnightblue" points="265.75,-74.46 256.25,-79.14 266.6,-81.41 265.75,-74.46"/>
</g>
<!-- Node11 -->
<g id="node11" class="node">
<title>Node11</title>
<g id="a_node11"><a xlink:href="../../dc/d32/_iiq_decoder_8cpp.html" target="_top" xlink:title=" ">
<polygon fill="none" stroke="black" points="0,-6 0,-36 123,-36 123,-6 0,-6"/>
<text text-anchor="start" x="8" y="-24" font-family="Helvetica,sans-Serif" font-size="10.00">librawspeed/decoders</text>
<text text-anchor="middle" x="61.5" y="-13" font-family="Helvetica,sans-Serif" font-size="10.00">/IiqDecoder.cpp</text>
</a>
</g>
</g>
<!-- Node10&#45;&gt;Node11 -->
<g id="edge15" class="edge">
<title>Node10&#45;&gt;Node11</title>
<path fill="none" stroke="midnightblue" d="M159.06,-73.72C136.75,-61.89 108.42,-46.87 88.05,-36.07"/>
<polygon fill="midnightblue" stroke="midnightblue" points="157.43,-76.81 167.91,-78.4 160.71,-70.63 157.43,-76.81"/>
</g>
<!-- Node12 -->
<g id="node12" class="node">
<title>Node12</title>
<g id="a_node12"><a xlink:href="../../d1/db1/_mos_decoder_8cpp.html" target="_top" xlink:title=" ">
<polygon fill="none" stroke="black" points="141,-6 141,-36 264,-36 264,-6 141,-6"/>
<text text-anchor="start" x="149" y="-24" font-family="Helvetica,sans-Serif" font-size="10.00">librawspeed/decoders</text>
<text text-anchor="middle" x="202.5" y="-13" font-family="Helvetica,sans-Serif" font-size="10.00">/MosDecoder.cpp</text>
</a>
</g>
</g>
<!-- Node10&#45;&gt;Node12 -->
<g id="edge16" class="edge">
<title>Node10&#45;&gt;Node12</title>
<path fill="none" stroke="midnightblue" d="M197.25,-68.23C198.46,-57.57 199.84,-45.41 200.88,-36.25"/>
<polygon fill="midnightblue" stroke="midnightblue" points="193.77,-67.9 196.12,-78.23 200.72,-68.69 193.77,-67.9"/>
</g>
<!-- Node13&#45;&gt;Node3 -->
<g id="edge19" class="edge">
<title>Node13&#45;&gt;Node3</title>
<path fill="none" stroke="midnightblue" d="M689.33,-77.88C938.23,-45.45 1006.95,-82.43 1251.5,-42 1254.52,-41.5 1257.59,-40.93 1260.69,-40.3"/>
<polygon fill="midnightblue" stroke="midnightblue" points="688.71,-74.43 679.26,-79.22 689.63,-81.37 688.71,-74.43"/>
</g>
<!-- Node13&#45;&gt;Node5 -->
<g id="edge21" class="edge">
<title>Node13&#45;&gt;Node5</title>
<path fill="none" stroke="midnightblue" d="M689.31,-77.85C879.55,-51.37 932.85,-77.07 1118.5,-42 1126.61,-40.47 1135.14,-38.34 1143.29,-36.04"/>
<polygon fill="midnightblue" stroke="midnightblue" points="688.67,-74.41 679.26,-79.28 689.66,-81.34 688.67,-74.41"/>
</g>
<!-- Node14 -->
<g id="node14" class="node">
<title>Node14</title>
<g id="a_node14"><a xlink:href="../../da/dae/_kdc_decoder_8cpp.html" target="_top" xlink:title=" ">
<polygon fill="none" stroke="black" points="423,-6 423,-36 546,-36 546,-6 423,-6"/>
<text text-anchor="start" x="431" y="-24" font-family="Helvetica,sans-Serif" font-size="10.00">librawspeed/decoders</text>
<text text-anchor="middle" x="484.5" y="-13" font-family="Helvetica,sans-Serif" font-size="10.00">/KdcDecoder.cpp</text>
</a>
</g>
</g>
<!-- Node13&#45;&gt;Node14 -->
<g id="edge20" class="edge">
<title>Node13&#45;&gt;Node14</title>
<path fill="none" stroke="midnightblue" d="M582.06,-73.72C559.75,-61.89 531.42,-46.87 511.05,-36.07"/>
<polygon fill="midnightblue" stroke="midnightblue" points="580.43,-76.81 590.91,-78.4 583.71,-70.63 580.43,-76.81"/>
</g>
<!-- Node15&#45;&gt;Node3 -->
<g id="edge23" class="edge">
<title>Node15&#45;&gt;Node3</title>
<path fill="none" stroke="midnightblue" d="M407.25,-77.92C780.77,-32.86 882.84,-98.94 1251.5,-42 1254.53,-41.53 1257.6,-40.99 1260.7,-40.38"/>
<polygon fill="midnightblue" stroke="midnightblue" points="406.75,-74.46 397.25,-79.15 407.6,-81.4 406.75,-74.46"/>
</g>
<!-- Node15&#45;&gt;Node5 -->
<g id="edge25" class="edge">
<title>Node15&#45;&gt;Node5</title>
<path fill="none" stroke="midnightblue" d="M407.58,-77.87C722.09,-38.94 809.15,-95.19 1118.5,-42 1126.87,-40.56 1135.68,-38.41 1144.05,-36.05"/>
<polygon fill="midnightblue" stroke="midnightblue" points="406.73,-74.45 397.25,-79.17 407.61,-81.39 406.73,-74.45"/>
</g>
<!-- Node15&#45;&gt;Node12 -->
<g id="edge24" class="edge">
<title>Node15&#45;&gt;Node12</title>
<path fill="none" stroke="midnightblue" d="M300.06,-73.72C277.75,-61.89 249.42,-46.87 229.05,-36.07"/>
<polygon fill="midnightblue" stroke="midnightblue" points="298.43,-76.81 308.91,-78.4 301.71,-70.63 298.43,-76.81"/>
</g>
<!-- Node16&#45;&gt;Node3 -->
<g id="edge27" class="edge">
<title>Node16&#45;&gt;Node3</title>
<path fill="none" stroke="midnightblue" d="M830.41,-77.84C1017.03,-51.64 1068.95,-74.17 1251.5,-42 1254.51,-41.47 1257.58,-40.87 1260.68,-40.22"/>
<polygon fill="midnightblue" stroke="midnightblue" points="829.67,-74.41 820.27,-79.29 830.66,-81.34 829.67,-74.41"/>
</g>
<!-- Node16&#45;&gt;Node5 -->
<g id="edge29" class="edge">
<title>Node16&#45;&gt;Node5</title>
<path fill="none" stroke="midnightblue" d="M830.48,-77.76C958.46,-57.39 994.62,-67.99 1118.5,-42 1126.22,-40.38 1134.34,-38.29 1142.16,-36.08"/>
<polygon fill="midnightblue" stroke="midnightblue" points="829.59,-74.36 820.29,-79.42 830.72,-81.27 829.59,-74.36"/>
</g>
<!-- Node17 -->
<g id="node17" class="node">
<title>Node17</title>
<g id="a_node17"><a xlink:href="../../de/dd6/_nef_decoder_8cpp.html" target="_top" xlink:title=" ">
<polygon fill="none" stroke="black" points="564,-6 564,-36 687,-36 687,-6 564,-6"/>
<text text-anchor="start" x="572" y="-24" font-family="Helvetica,sans-Serif" font-size="10.00">librawspeed/decoders</text>
<text text-anchor="middle" x="625.5" y="-13" font-family="Helvetica,sans-Serif" font-size="10.00">/NefDecoder.cpp</text>
</a>
</g>
</g>
<!-- Node16&#45;&gt;Node17 -->
<g id="edge28" class="edge">
<title>Node16&#45;&gt;Node17</title>
<path fill="none" stroke="midnightblue" d="M723.06,-73.72C700.75,-61.89 672.42,-46.87 652.05,-36.07"/>
<polygon fill="midnightblue" stroke="midnightblue" points="721.43,-76.81 731.91,-78.4 724.71,-70.63 721.43,-76.81"/>
</g>
<!-- Node18&#45;&gt;Node3 -->
<g id="edge31" class="edge">
<title>Node18&#45;&gt;Node3</title>
<path fill="none" stroke="midnightblue" d="M971.22,-77.8C1095.88,-57.62 1130.7,-65.92 1251.5,-42 1254.5,-41.41 1257.56,-40.76 1260.65,-40.07"/>
<polygon fill="midnightblue" stroke="midnightblue" points="970.59,-74.35 961.29,-79.43 971.72,-81.26 970.59,-74.35"/>
</g>
<!-- Node18&#45;&gt;Node5 -->
<g id="edge33" class="edge">
<title>Node18&#45;&gt;Node5</title>
<path fill="none" stroke="midnightblue" d="M970.91,-77.23C1013.85,-67.76 1069.5,-54.95 1118.5,-42 1125.42,-40.17 1132.72,-38.12 1139.84,-36.05"/>
<polygon fill="midnightblue" stroke="midnightblue" points="970.13,-73.82 961.12,-79.39 971.63,-80.66 970.13,-73.82"/>
</g>
<!-- Node19 -->
<g id="node19" class="node">
<title>Node19</title>
<g id="a_node19"><a xlink:href="../../de/d5b/_orf_decoder_8cpp.html" target="_top" xlink:title=" ">
<polygon fill="none" stroke="black" points="705,-6 705,-36 828,-36 828,-6 705,-6"/>
<text text-anchor="start" x="713" y="-24" font-family="Helvetica,sans-Serif" font-size="10.00">librawspeed/decoders</text>
<text text-anchor="middle" x="766.5" y="-13" font-family="Helvetica,sans-Serif" font-size="10.00">/OrfDecoder.cpp</text>
</a>
</g>
</g>
<!-- Node18&#45;&gt;Node19 -->
<g id="edge32" class="edge">
<title>Node18&#45;&gt;Node19</title>
<path fill="none" stroke="midnightblue" d="M864.06,-73.72C841.75,-61.89 813.42,-46.87 793.05,-36.07"/>
<polygon fill="midnightblue" stroke="midnightblue" points="862.43,-76.81 872.91,-78.4 865.71,-70.63 862.43,-76.81"/>
</g>
<!-- Node20&#45;&gt;Node3 -->
<g id="edge35" class="edge">
<title>Node20&#45;&gt;Node3</title>
<path fill="none" stroke="midnightblue" d="M2243.61,-78.05C1869.17,-33.39 1767.06,-99.58 1398.5,-42 1395.77,-41.57 1393,-41.08 1390.21,-40.54"/>
<polygon fill="midnightblue" stroke="midnightblue" points="2243.29,-81.54 2253.64,-79.26 2244.13,-74.59 2243.29,-81.54"/>
</g>
<!-- Node20&#45;&gt;Node5 -->
<g id="edge37" class="edge">
<title>Node20&#45;&gt;Node5</title>
<path fill="none" stroke="midnightblue" d="M2243.53,-78.05C1804.17,-26.98 1683.81,-114.09 1251.5,-42 1243.12,-40.6 1234.3,-38.44 1225.95,-36.05"/>
<polygon fill="midnightblue" stroke="midnightblue" points="2243.3,-81.54 2253.64,-79.24 2244.12,-74.59 2243.3,-81.54"/>
</g>
<!-- Node21 -->
<g id="node21" class="node">
<title>Node21</title>
<g id="a_node21"><a xlink:href="../../de/d0c/_pef_decoder_8cpp.html" target="_top" xlink:title=" ">
<polygon fill="none" stroke="black" points="2254,-6 2254,-36 2377,-36 2377,-6 2254,-6"/>
<text text-anchor="start" x="2262" y="-24" font-family="Helvetica,sans-Serif" font-size="10.00">librawspeed/decoders</text>
<text text-anchor="middle" x="2315.5" y="-13" font-family="Helvetica,sans-Serif" font-size="10.00">/PefDecoder.cpp</text>
</a>
</g>
</g>
<!-- Node20&#45;&gt;Node21 -->
<g id="edge36" class="edge">
<title>Node20&#45;&gt;Node21</title>
<path fill="none" stroke="midnightblue" d="M2315.5,-68.23C2315.5,-57.57 2315.5,-45.41 2315.5,-36.25"/>
<polygon fill="midnightblue" stroke="midnightblue" points="2312,-68.23 2315.5,-78.23 2319,-68.23 2312,-68.23"/>
</g>
<!-- Node22&#45;&gt;Node3 -->
<g id="edge39" class="edge">
<title>Node22&#45;&gt;Node3</title>
<path fill="none" stroke="midnightblue" d="M2580.42,-136.55C2569.63,-117.09 2551.25,-90.41 2526.5,-78 2414.4,-21.8 1522.5,-60.7 1398.5,-42 1395.77,-41.59 1393,-41.11 1390.21,-40.58"/>
<polygon fill="midnightblue" stroke="midnightblue" points="2577.34,-138.22 2585.09,-145.43 2583.53,-134.95 2577.34,-138.22"/>
</g>
<!-- Node23 -->
<g id="node23" class="node">
<title>Node23</title>
<g id="a_node23"><a xlink:href="../../d8/df8/_raf_decoder_8cpp.html" target="_top" xlink:title=" ">
<polygon fill="none" stroke="black" points="2575,-78.5 2575,-108.5 2698,-108.5 2698,-78.5 2575,-78.5"/>
<text text-anchor="start" x="2583" y="-96.5" font-family="Helvetica,sans-Serif" font-size="10.00">librawspeed/decoders</text>
<text text-anchor="middle" x="2636.5" y="-85.5" font-family="Helvetica,sans-Serif" font-size="10.00">/RafDecoder.cpp</text>
</a>
</g>
</g>
<!-- Node22&#45;&gt;Node23 -->
<g id="edge40" class="edge">
<title>Node22&#45;&gt;Node23</title>
<path fill="none" stroke="midnightblue" d="M2606.97,-137.16C2613.53,-127.68 2620.98,-116.92 2626.75,-108.58"/>
<polygon fill="midnightblue" stroke="midnightblue" points="2604.08,-135.18 2601.26,-145.4 2609.83,-139.17 2604.08,-135.18"/>
</g>
<!-- Node24 -->
<g id="node24" class="node">
<title>Node24</title>
<g id="a_node24"><a xlink:href="../../d2/d87/_fiff_parser_8cpp.html" target="_top" xlink:title=" ">
<polygon fill="none" stroke="black" points="2716,-78.5 2716,-108.5 2831,-108.5 2831,-78.5 2716,-78.5"/>
<text text-anchor="start" x="2724" y="-96.5" font-family="Helvetica,sans-Serif" font-size="10.00">librawspeed/parsers</text>
<text text-anchor="middle" x="2773.5" y="-85.5" font-family="Helvetica,sans-Serif" font-size="10.00">/FiffParser.cpp</text>
</a>
</g>
</g>
<!-- Node22&#45;&gt;Node24 -->
<g id="edge41" class="edge">
<title>Node22&#45;&gt;Node24</title>
<path fill="none" stroke="midnightblue" d="M2640.63,-141.96C2669.94,-131.48 2706.68,-118.37 2734.09,-108.58"/>
<polygon fill="midnightblue" stroke="midnightblue" points="2639.23,-138.74 2630.99,-145.4 2641.59,-145.33 2639.23,-138.74"/>
</g>
<!-- Node25 -->
<g id="node25" class="node">
<title>Node25</title>
<g id="a_node25"><a xlink:href="../../dc/d4a/_raw_parser_8cpp.html" target="_top" xlink:title=" ">
<polygon fill="none" stroke="black" points="2849,-78.5 2849,-108.5 2964,-108.5 2964,-78.5 2849,-78.5"/>
<text text-anchor="start" x="2857" y="-96.5" font-family="Helvetica,sans-Serif" font-size="10.00">librawspeed/parsers</text>
<text text-anchor="middle" x="2906.5" y="-85.5" font-family="Helvetica,sans-Serif" font-size="10.00">/RawParser.cpp</text>
</a>
</g>
</g>
<!-- Node22&#45;&gt;Node25 -->
<g id="edge42" class="edge">
<title>Node22&#45;&gt;Node25</title>
<path fill="none" stroke="midnightblue" d="M2663.14,-144.88C2743.24,-128.65 2764.61,-125.01 2840.5,-109 2843.25,-108.42 2846.07,-107.82 2848.92,-107.21"/>
<polygon fill="midnightblue" stroke="midnightblue" points="2662.18,-141.5 2653.07,-146.92 2663.57,-148.36 2662.18,-141.5"/>
</g>
<!-- Node26&#45;&gt;Node3 -->
<g id="edge44" class="edge">
<title>Node26&#45;&gt;Node3</title>
<path fill="none" stroke="midnightblue" d="M2384.59,-78.05C1947.85,-27.15 1829.12,-107.93 1398.5,-42 1395.77,-41.58 1393,-41.1 1390.21,-40.56"/>
<polygon fill="midnightblue" stroke="midnightblue" points="2384.3,-81.54 2394.64,-79.24 2385.12,-74.59 2384.3,-81.54"/>
</g>
<!-- Node26&#45;&gt;Node5 -->
<g id="edge46" class="edge">
<title>Node26&#45;&gt;Node5</title>
<path fill="none" stroke="midnightblue" d="M2384.61,-78.06C1882.87,-20.71 1745.79,-123.28 1251.5,-42 1243.11,-40.62 1234.3,-38.47 1225.94,-36.08"/>
<polygon fill="midnightblue" stroke="midnightblue" points="2384.31,-81.55 2394.64,-79.22 2385.11,-74.6 2384.31,-81.55"/>
</g>
<!-- Node27 -->
<g id="node27" class="node">
<title>Node27</title>
<g id="a_node27"><a xlink:href="../../da/daf/_rw2_decoder_8cpp.html" target="_top" xlink:title=" ">
<polygon fill="none" stroke="black" points="2395,-6 2395,-36 2518,-36 2518,-6 2395,-6"/>
<text text-anchor="start" x="2403" y="-24" font-family="Helvetica,sans-Serif" font-size="10.00">librawspeed/decoders</text>
<text text-anchor="middle" x="2456.5" y="-13" font-family="Helvetica,sans-Serif" font-size="10.00">/Rw2Decoder.cpp</text>
</a>
</g>
</g>
<!-- Node26&#45;&gt;Node27 -->
<g id="edge45" class="edge">
<title>Node26&#45;&gt;Node27</title>
<path fill="none" stroke="midnightblue" d="M2456.5,-68.23C2456.5,-57.57 2456.5,-45.41 2456.5,-36.25"/>
<polygon fill="midnightblue" stroke="midnightblue" points="2453,-68.23 2456.5,-78.23 2460,-68.23 2453,-68.23"/>
</g>
<!-- Node28&#45;&gt;Node3 -->
<g id="edge48" class="edge">
<title>Node28&#45;&gt;Node3</title>
<path fill="none" stroke="midnightblue" d="M1961.52,-78.01C1711.72,-45.8 1642.98,-82.85 1398.5,-42 1395.78,-41.55 1393.01,-41.03 1390.23,-40.47"/>
<polygon fill="midnightblue" stroke="midnightblue" points="1961.26,-81.51 1971.63,-79.34 1962.17,-74.57 1961.26,-81.51"/>
</g>
<!-- Node28&#45;&gt;Node5 -->
<g id="edge50" class="edge">
<title>Node28&#45;&gt;Node5</title>
<path fill="none" stroke="midnightblue" d="M1961.31,-78C1646.74,-39.47 1559.87,-95.7 1251.5,-42 1243.24,-40.56 1234.57,-38.42 1226.32,-36.05"/>
<polygon fill="midnightblue" stroke="midnightblue" points="1961.28,-81.53 1971.64,-79.29 1962.15,-74.58 1961.28,-81.53"/>
</g>
<!-- Node29 -->
<g id="node29" class="node">
<title>Node29</title>
<g id="a_node29"><a xlink:href="../../da/db2/_srw_decoder_8cpp.html" target="_top" xlink:title=" ">
<polygon fill="none" stroke="black" points="1972,-6 1972,-36 2095,-36 2095,-6 1972,-6"/>
<text text-anchor="start" x="1980" y="-24" font-family="Helvetica,sans-Serif" font-size="10.00">librawspeed/decoders</text>
<text text-anchor="middle" x="2033.5" y="-13" font-family="Helvetica,sans-Serif" font-size="10.00">/SrwDecoder.cpp</text>
</a>
</g>
</g>
<!-- Node28&#45;&gt;Node29 -->
<g id="edge49" class="edge">
<title>Node28&#45;&gt;Node29</title>
<path fill="none" stroke="midnightblue" d="M2033.5,-68.23C2033.5,-57.57 2033.5,-45.41 2033.5,-36.25"/>
<polygon fill="midnightblue" stroke="midnightblue" points="2030,-68.23 2033.5,-78.23 2037,-68.23 2030,-68.23"/>
</g>
<!-- Node30&#45;&gt;Node3 -->
<g id="edge52" class="edge">
<title>Node30&#45;&gt;Node3</title>
<path fill="none" stroke="midnightblue" d="M2102.39,-78.01C1790.42,-39.63 1704.95,-91.21 1398.5,-42 1395.78,-41.56 1393.01,-41.06 1390.22,-40.51"/>
<polygon fill="midnightblue" stroke="midnightblue" points="2102.28,-81.53 2112.64,-79.3 2103.15,-74.58 2102.28,-81.53"/>
</g>
<!-- Node30&#45;&gt;Node5 -->
<g id="edge54" class="edge">
<title>Node30&#45;&gt;Node5</title>
<path fill="none" stroke="midnightblue" d="M2102.54,-78.04C1725.49,-33.22 1621.87,-104.9 1251.5,-42 1243.12,-40.58 1234.31,-38.4 1225.96,-36.01"/>
<polygon fill="midnightblue" stroke="midnightblue" points="2102.29,-81.54 2112.64,-79.26 2103.13,-74.59 2102.29,-81.54"/>
</g>
<!-- Node31 -->
<g id="node31" class="node">
<title>Node31</title>
<g id="a_node31"><a xlink:href="../../d3/dc1/_threefr_decoder_8cpp.html" target="_top" xlink:title=" ">
<polygon fill="none" stroke="black" points="2113,-6 2113,-36 2236,-36 2236,-6 2113,-6"/>
<text text-anchor="start" x="2121" y="-24" font-family="Helvetica,sans-Serif" font-size="10.00">librawspeed/decoders</text>
<text text-anchor="middle" x="2174.5" y="-13" font-family="Helvetica,sans-Serif" font-size="10.00">/ThreefrDecoder.cpp</text>
</a>
</g>
</g>
<!-- Node30&#45;&gt;Node31 -->
<g id="edge53" class="edge">
<title>Node30&#45;&gt;Node31</title>
<path fill="none" stroke="midnightblue" d="M2174.5,-68.23C2174.5,-57.57 2174.5,-45.41 2174.5,-36.25"/>
<polygon fill="midnightblue" stroke="midnightblue" points="2171,-68.23 2174.5,-78.23 2178,-68.23 2171,-68.23"/>
</g>
<!-- Node34 -->
<g id="node34" class="node">
<title>Node34</title>
<g id="a_node34"><a xlink:href="../../d3/d56/_dcr_decoder_8h.html" target="_top" xlink:title=" ">
<polygon fill="none" stroke="black" points="1831,-78.5 1831,-108.5 1954,-108.5 1954,-78.5 1831,-78.5"/>
<text text-anchor="start" x="1839" y="-96.5" font-family="Helvetica,sans-Serif" font-size="10.00">librawspeed/decoders</text>
<text text-anchor="middle" x="1892.5" y="-85.5" font-family="Helvetica,sans-Serif" font-size="10.00">/DcrDecoder.h</text>
</a>
</g>
</g>
<!-- Node33&#45;&gt;Node34 -->
<g id="edge57" class="edge">
<title>Node33&#45;&gt;Node34</title>
<path fill="none" stroke="midnightblue" d="M1605.32,-147.48C1663.65,-137.58 1747.99,-122.95 1821.5,-109 1824.59,-108.41 1827.75,-107.8 1830.95,-107.18"/>
<polygon fill="midnightblue" stroke="midnightblue" points="1604.38,-144.09 1595.11,-149.21 1605.55,-150.99 1604.38,-144.09"/>
</g>
<!-- Node36 -->
<g id="node36" class="node">
<title>Node36</title>
<g id="a_node36"><a xlink:href="../../db/d7d/_dcs_decoder_8h.html" target="_top" xlink:title=" ">
<polygon fill="none" stroke="black" points="1261,-78.5 1261,-108.5 1384,-108.5 1384,-78.5 1261,-78.5"/>
<text text-anchor="start" x="1269" y="-96.5" font-family="Helvetica,sans-Serif" font-size="10.00">librawspeed/decoders</text>
<text text-anchor="middle" x="1322.5" y="-85.5" font-family="Helvetica,sans-Serif" font-size="10.00">/DcsDecoder.h</text>
</a>
</g>
</g>
<!-- Node33&#45;&gt;Node36 -->
<g id="edge61" class="edge">
<title>Node33&#45;&gt;Node36</title>
<path fill="none" stroke="midnightblue" d="M1478.13,-142.44C1443.93,-131.91 1400.57,-118.55 1368.31,-108.61"/>
<polygon fill="midnightblue" stroke="midnightblue" points="1477.39,-145.88 1487.98,-145.48 1479.45,-139.19 1477.39,-145.88"/>
</g>
<!-- Node38 -->
<g id="node38" class="node">
<title>Node38</title>
<g id="a_node38"><a xlink:href="../../d3/d79/_erf_decoder_8h.html" target="_top" xlink:title=" ">
<polygon fill="none" stroke="black" points="1402,-78.5 1402,-108.5 1525,-108.5 1525,-78.5 1402,-78.5"/>
<text text-anchor="start" x="1410" y="-96.5" font-family="Helvetica,sans-Serif" font-size="10.00">librawspeed/decoders</text>
<text text-anchor="middle" x="1463.5" y="-85.5" font-family="Helvetica,sans-Serif" font-size="10.00">/ErfDecoder.h</text>
</a>
</g>
</g>
<!-- Node33&#45;&gt;Node38 -->
<g id="edge65" class="edge">
<title>Node33&#45;&gt;Node38</title>
<path fill="none" stroke="midnightblue" d="M1510.68,-138.31C1500.18,-128.56 1488.01,-117.26 1478.66,-108.58"/>
<polygon fill="midnightblue" stroke="midnightblue" points="1508.6,-141.16 1518.31,-145.4 1513.36,-136.03 1508.6,-141.16"/>
</g>
<!-- Node40 -->
<g id="node40" class="node">
<title>Node40</title>
<g id="a_node40"><a xlink:href="../../d0/d9a/_mef_decoder_8h.html" target="_top" xlink:title=" ">
<polygon fill="none" stroke="black" points="1543,-78.5 1543,-108.5 1666,-108.5 1666,-78.5 1543,-78.5"/>
<text text-anchor="start" x="1551" y="-96.5" font-family="Helvetica,sans-Serif" font-size="10.00">librawspeed/decoders</text>
<text text-anchor="middle" x="1604.5" y="-85.5" font-family="Helvetica,sans-Serif" font-size="10.00">/MefDecoder.h</text>
</a>
</g>
</g>
<!-- Node33&#45;&gt;Node40 -->
<g id="edge69" class="edge">
<title>Node33&#45;&gt;Node40</title>
<path fill="none" stroke="midnightblue" d="M1556.33,-138.6C1567.05,-128.78 1579.55,-117.34 1589.12,-108.58"/>
<polygon fill="midnightblue" stroke="midnightblue" points="1553.92,-136.06 1548.91,-145.4 1558.65,-141.22 1553.92,-136.06"/>
</g>
<!-- Node42 -->
<g id="node42" class="node">
<title>Node42</title>
<g id="a_node42"><a xlink:href="../../de/d7c/_simple_tiff_decoder_8cpp.html" target="_top" xlink:title=" ">
<polygon fill="none" stroke="black" points="1684,-78.5 1684,-108.5 1813,-108.5 1813,-78.5 1684,-78.5"/>
<text text-anchor="start" x="1692" y="-96.5" font-family="Helvetica,sans-Serif" font-size="10.00">librawspeed/decoders</text>
<text text-anchor="middle" x="1748.5" y="-85.5" font-family="Helvetica,sans-Serif" font-size="10.00">/SimpleTiffDecoder.cpp</text>
</a>
</g>
</g>
<!-- Node33&#45;&gt;Node42 -->
<g id="edge73" class="edge">
<title>Node33&#45;&gt;Node42</title>
<path fill="none" stroke="midnightblue" d="M1589.47,-142.58C1624.39,-132.02 1668.81,-118.59 1701.83,-108.61"/>
<polygon fill="midnightblue" stroke="midnightblue" points="1588.45,-139.23 1579.89,-145.48 1590.47,-145.93 1588.45,-139.23"/>
</g>
<!-- Node34&#45;&gt;Node3 -->
<g id="edge58" class="edge">
<title>Node34&#45;&gt;Node3</title>
<path fill="none" stroke="midnightblue" d="M1820.7,-78.01C1632.99,-51.88 1581.09,-74.5 1398.5,-42 1395.78,-41.52 1393.02,-40.98 1390.24,-40.4"/>
<polygon fill="midnightblue" stroke="midnightblue" points="1820.23,-81.48 1830.62,-79.42 1821.21,-74.55 1820.23,-81.48"/>
</g>
<!-- Node34&#45;&gt;Node5 -->
<g id="edge60" class="edge">
<title>Node34&#45;&gt;Node5</title>
<path fill="none" stroke="midnightblue" d="M1820.42,-78C1568.04,-45.63 1498,-86.51 1251.5,-42 1243.37,-40.53 1234.83,-38.4 1226.69,-36.07"/>
<polygon fill="midnightblue" stroke="midnightblue" points="1820.26,-81.51 1830.63,-79.34 1821.17,-74.57 1820.26,-81.51"/>
</g>
<!-- Node35 -->
<g id="node35" class="node">
<title>Node35</title>
<g id="a_node35"><a xlink:href="../../d7/d36/_dcr_decoder_8cpp.html" target="_top" xlink:title=" ">
<polygon fill="none" stroke="black" points="1831,-6 1831,-36 1954,-36 1954,-6 1831,-6"/>
<text text-anchor="start" x="1839" y="-24" font-family="Helvetica,sans-Serif" font-size="10.00">librawspeed/decoders</text>
<text text-anchor="middle" x="1892.5" y="-13" font-family="Helvetica,sans-Serif" font-size="10.00">/DcrDecoder.cpp</text>
</a>
</g>
</g>
<!-- Node34&#45;&gt;Node35 -->
<g id="edge59" class="edge">
<title>Node34&#45;&gt;Node35</title>
<path fill="none" stroke="midnightblue" d="M1892.5,-68.23C1892.5,-57.57 1892.5,-45.41 1892.5,-36.25"/>
<polygon fill="midnightblue" stroke="midnightblue" points="1889,-68.23 1892.5,-78.23 1896,-68.23 1889,-68.23"/>
</g>
<!-- Node36&#45;&gt;Node3 -->
<g id="edge62" class="edge">
<title>Node36&#45;&gt;Node3</title>
<path fill="none" stroke="midnightblue" d="M1323.54,-67.98C1323.91,-59.35 1324.32,-49.76 1324.67,-41.59"/>
<polygon fill="midnightblue" stroke="midnightblue" points="1320.04,-68.09 1323.11,-78.23 1327.03,-68.39 1320.04,-68.09"/>
</g>
<!-- Node36&#45;&gt;Node5 -->
<g id="edge64" class="edge">
<title>Node36&#45;&gt;Node5</title>
<path fill="none" stroke="midnightblue" d="M1286,-73.72C1263.01,-61.89 1233.84,-46.87 1212.85,-36.07"/>
<polygon fill="midnightblue" stroke="midnightblue" points="1284.61,-76.94 1295.11,-78.4 1287.82,-70.71 1284.61,-76.94"/>
</g>
<!-- Node37 -->
<g id="node37" class="node">
<title>Node37</title>
<g id="a_node37"><a xlink:href="../../d8/d1d/_dcs_decoder_8cpp.html" target="_top" xlink:title=" ">
<polygon fill="none" stroke="black" points="1408,-6 1408,-36 1531,-36 1531,-6 1408,-6"/>
<text text-anchor="start" x="1416" y="-24" font-family="Helvetica,sans-Serif" font-size="10.00">librawspeed/decoders</text>
<text text-anchor="middle" x="1469.5" y="-13" font-family="Helvetica,sans-Serif" font-size="10.00">/DcsDecoder.cpp</text>
</a>
</g>
</g>
<!-- Node36&#45;&gt;Node37 -->
<g id="edge63" class="edge">
<title>Node36&#45;&gt;Node37</title>
<path fill="none" stroke="midnightblue" d="M1361.01,-74.03C1385.77,-62.16 1417.44,-46.97 1440.16,-36.07"/>
<polygon fill="midnightblue" stroke="midnightblue" points="1359.4,-70.92 1351.89,-78.4 1362.42,-77.23 1359.4,-70.92"/>
</g>
<!-- Node38&#45;&gt;Node3 -->
<g id="edge66" class="edge">
<title>Node38&#45;&gt;Node3</title>
<path fill="none" stroke="midnightblue" d="M1426.75,-73.72C1407.3,-63.79 1383.43,-51.6 1363.76,-41.55"/>
<polygon fill="midnightblue" stroke="midnightblue" points="1425.41,-76.97 1435.91,-78.4 1428.59,-70.74 1425.41,-76.97"/>
</g>
<!-- Node38&#45;&gt;Node5 -->
<g id="edge68" class="edge">
<title>Node38&#45;&gt;Node5</title>
<path fill="none" stroke="midnightblue" d="M1391.62,-76.51C1350.44,-67.07 1297.9,-54.54 1251.5,-42 1244.68,-40.16 1237.5,-38.1 1230.48,-36.03"/>
<polygon fill="midnightblue" stroke="midnightblue" points="1391.03,-79.97 1401.56,-78.78 1392.59,-73.14 1391.03,-79.97"/>
</g>
<!-- Node39 -->
<g id="node39" class="node">
<title>Node39</title>
<g id="a_node39"><a xlink:href="../../d8/db2/_erf_decoder_8cpp.html" target="_top" xlink:title=" ">
<polygon fill="none" stroke="black" points="1549,-6 1549,-36 1672,-36 1672,-6 1549,-6"/>
<text text-anchor="start" x="1557" y="-24" font-family="Helvetica,sans-Serif" font-size="10.00">librawspeed/decoders</text>
<text text-anchor="middle" x="1610.5" y="-13" font-family="Helvetica,sans-Serif" font-size="10.00">/ErfDecoder.cpp</text>
</a>
</g>
</g>
<!-- Node38&#45;&gt;Node39 -->
<g id="edge67" class="edge">
<title>Node38&#45;&gt;Node39</title>
<path fill="none" stroke="midnightblue" d="M1502.01,-74.03C1526.77,-62.16 1558.44,-46.97 1581.16,-36.07"/>
<polygon fill="midnightblue" stroke="midnightblue" points="1500.4,-70.92 1492.89,-78.4 1503.42,-77.23 1500.4,-70.92"/>
</g>
<!-- Node40&#45;&gt;Node3 -->
<g id="edge70" class="edge">
<title>Node40&#45;&gt;Node3</title>
<path fill="none" stroke="midnightblue" d="M1535.42,-76.06C1495.36,-66.4 1444.01,-53.81 1398.5,-42 1395.83,-41.31 1393.1,-40.59 1390.35,-39.87"/>
<polygon fill="midnightblue" stroke="midnightblue" points="1534.8,-79.51 1545.34,-78.45 1536.44,-72.7 1534.8,-79.51"/>
</g>
<!-- Node40&#45;&gt;Node5 -->
<g id="edge72" class="edge">
<title>Node40&#45;&gt;Node5</title>
<path fill="none" stroke="midnightblue" d="M1532.95,-78.01C1407.08,-57.88 1371.92,-67.74 1251.5,-42 1243.89,-40.37 1235.89,-38.28 1228.19,-36.07"/>
<polygon fill="midnightblue" stroke="midnightblue" points="1532.55,-81.49 1542.98,-79.64 1533.67,-74.58 1532.55,-81.49"/>
</g>
<!-- Node41 -->
<g id="node41" class="node">
<title>Node41</title>
<g id="a_node41"><a xlink:href="../../d9/d6b/_mef_decoder_8cpp.html" target="_top" xlink:title=" ">
<polygon fill="none" stroke="black" points="1690,-6 1690,-36 1813,-36 1813,-6 1690,-6"/>
<text text-anchor="start" x="1698" y="-24" font-family="Helvetica,sans-Serif" font-size="10.00">librawspeed/decoders</text>
<text text-anchor="middle" x="1751.5" y="-13" font-family="Helvetica,sans-Serif" font-size="10.00">/MefDecoder.cpp</text>
</a>
</g>
</g>
<!-- Node40&#45;&gt;Node41 -->
<g id="edge71" class="edge">
<title>Node40&#45;&gt;Node41</title>
<path fill="none" stroke="midnightblue" d="M1643.01,-74.03C1667.77,-62.16 1699.44,-46.97 1722.16,-36.07"/>
<polygon fill="midnightblue" stroke="midnightblue" points="1641.4,-70.92 1633.89,-78.4 1644.42,-77.23 1641.4,-70.92"/>
</g>
</g>
</svg>
