<?xml version="1.0" encoding="UTF-8" standalone="no"?>
<!DOCTYPE svg PUBLIC "-//W3C//DTD SVG 1.1//EN"
 "http://www.w3.org/Graphics/SVG/1.1/DTD/svg11.dtd">
<!-- Generated by graphviz version 2.43.0 (0)
 -->
<!-- Title: librawspeed/decompressors/HuffmanTable.h Pages: 1 -->
<svg width="2542pt" height="273pt"
 viewBox="0.00 0.00 2542.00 273.00" xmlns="http://www.w3.org/2000/svg" xmlns:xlink="http://www.w3.org/1999/xlink">
<g id="graph0" class="graph" transform="scale(1 1) rotate(0) translate(4 269)">
<title>librawspeed/decompressors/HuffmanTable.h</title>
<!-- Node1 -->
<g id="node1" class="node">
<title>Node1</title>
<g id="a_node1"><a xlink:title=" ">
<polygon fill="#bfbfbf" stroke="black" points="1378.5,-234.5 1378.5,-264.5 1531.5,-264.5 1531.5,-234.5 1378.5,-234.5"/>
<text text-anchor="start" x="1386.5" y="-252.5" font-family="Helvetica,sans-Serif" font-size="10.00">librawspeed/decompressors</text>
<text text-anchor="middle" x="1455" y="-241.5" font-family="Helvetica,sans-Serif" font-size="10.00">/HuffmanTable.h</text>
</a>
</g>
</g>
<!-- Node2 -->
<g id="node2" class="node">
<title>Node2</title>
<g id="a_node2"><a xlink:href="../../d4/d9e/_crw_decompressor_8h.html" target="_top" xlink:title=" ">
<polygon fill="none" stroke="black" points="237.5,-162 237.5,-192 390.5,-192 390.5,-162 237.5,-162"/>
<text text-anchor="start" x="245.5" y="-180" font-family="Helvetica,sans-Serif" font-size="10.00">librawspeed/decompressors</text>
<text text-anchor="middle" x="314" y="-169" font-family="Helvetica,sans-Serif" font-size="10.00">/CrwDecompressor.h</text>
</a>
</g>
</g>
<!-- Node1&#45;&gt;Node2 -->
<g id="edge1" class="edge">
<title>Node1&#45;&gt;Node2</title>
<path fill="none" stroke="midnightblue" d="M1368.36,-243.15C1152.84,-229.83 595.21,-195.38 390.68,-182.74"/>
<polygon fill="midnightblue" stroke="midnightblue" points="1368.17,-246.64 1378.36,-243.76 1368.6,-239.65 1368.17,-246.64"/>
</g>
<!-- Node5 -->
<g id="node5" class="node">
<title>Node5</title>
<g id="a_node5"><a xlink:href="../../d0/d91/src_2librawspeed_2decompressors_2_crw_decompressor_8cpp.html" target="_top" xlink:title=" ">
<polygon fill="none" stroke="black" points="315.5,-84 315.5,-114 468.5,-114 468.5,-84 315.5,-84"/>
<text text-anchor="start" x="323.5" y="-102" font-family="Helvetica,sans-Serif" font-size="10.00">librawspeed/decompressors</text>
<text text-anchor="middle" x="392" y="-91" font-family="Helvetica,sans-Serif" font-size="10.00">/CrwDecompressor.cpp</text>
</a>
</g>
</g>
<!-- Node1&#45;&gt;Node5 -->
<g id="edge27" class="edge">
<title>Node1&#45;&gt;Node5</title>
<path fill="none" stroke="midnightblue" d="M1368.4,-244.68C1250.29,-238.71 1032.28,-224.93 848,-198 681.28,-173.63 641.46,-156.63 477,-120 468.57,-118.12 459.67,-116.09 450.94,-114.06"/>
<polygon fill="midnightblue" stroke="midnightblue" points="1368.31,-248.18 1378.47,-245.19 1368.66,-241.19 1368.31,-248.18"/>
</g>
<!-- Node6 -->
<g id="node6" class="node">
<title>Node6</title>
<g id="a_node6"><a xlink:href="../../d6/d32/_abstract_l_jpeg_decompressor_8h.html" target="_top" xlink:title=" ">
<polygon fill="none" stroke="black" points="857.5,-162 857.5,-192 1022.5,-192 1022.5,-162 857.5,-162"/>
<text text-anchor="start" x="865.5" y="-180" font-family="Helvetica,sans-Serif" font-size="10.00">librawspeed/decompressors</text>
<text text-anchor="middle" x="940" y="-169" font-family="Helvetica,sans-Serif" font-size="10.00">/AbstractLJpegDecompressor.h</text>
</a>
</g>
</g>
<!-- Node1&#45;&gt;Node6 -->
<g id="edge5" class="edge">
<title>Node1&#45;&gt;Node6</title>
<path fill="none" stroke="midnightblue" d="M1368.36,-240.16C1283.62,-231.49 1151.04,-216.61 1037,-198 1026.39,-196.27 1015.18,-194.19 1004.3,-192.04"/>
<polygon fill="midnightblue" stroke="midnightblue" points="1368.15,-243.65 1378.46,-241.18 1368.86,-236.69 1368.15,-243.65"/>
</g>
<!-- Node15 -->
<g id="node15" class="node">
<title>Node15</title>
<g id="a_node15"><a xlink:href="../../d5/d47/src_2librawspeed_2decompressors_2_hasselblad_decompressor_8cpp.html" target="_top" xlink:title=" ">
<polygon fill="none" stroke="black" points="976,-6 976,-36 1140,-36 1140,-6 976,-6"/>
<text text-anchor="start" x="984" y="-24" font-family="Helvetica,sans-Serif" font-size="10.00">librawspeed/decompressors</text>
<text text-anchor="middle" x="1058" y="-13" font-family="Helvetica,sans-Serif" font-size="10.00">/HasselbladDecompressor.cpp</text>
</a>
</g>
</g>
<!-- Node1&#45;&gt;Node15 -->
<g id="edge28" class="edge">
<title>Node1&#45;&gt;Node15</title>
<path fill="none" stroke="midnightblue" d="M1368.01,-246.56C1275.22,-242.74 1136.15,-231.43 1096,-198 1047.12,-157.29 1051.94,-70.09 1055.97,-36.03"/>
<polygon fill="midnightblue" stroke="midnightblue" points="1368.12,-250.07 1378.25,-246.96 1368.39,-243.07 1368.12,-250.07"/>
</g>
<!-- Node20 -->
<g id="node20" class="node">
<title>Node20</title>
<g id="a_node20"><a xlink:href="../../d7/d5e/_abstract_l_jpeg_decompressor_8cpp.html" target="_top" xlink:title=" ">
<polygon fill="none" stroke="black" points="1251,-84 1251,-114 1427,-114 1427,-84 1251,-84"/>
<text text-anchor="start" x="1259" y="-102" font-family="Helvetica,sans-Serif" font-size="10.00">librawspeed/decompressors</text>
<text text-anchor="middle" x="1339" y="-91" font-family="Helvetica,sans-Serif" font-size="10.00">/AbstractLJpegDecompressor.cpp</text>
</a>
</g>
</g>
<!-- Node1&#45;&gt;Node20 -->
<g id="edge26" class="edge">
<title>Node1&#45;&gt;Node20</title>
<path fill="none" stroke="midnightblue" d="M1367.99,-248.32C1276.4,-246.05 1140.97,-236.11 1108,-198 1095.79,-183.88 1096.46,-170.67 1108,-156 1113.21,-149.37 1205.99,-128.37 1272.36,-114.05"/>
<polygon fill="midnightblue" stroke="midnightblue" points="1368.03,-251.82 1378.1,-248.54 1368.18,-244.82 1368.03,-251.82"/>
</g>
<!-- Node21 -->
<g id="node21" class="node">
<title>Node21</title>
<g id="a_node21"><a xlink:href="../../d7/d34/_dual_8cpp.html" target="_top" xlink:title=" ">
<polygon fill="none" stroke="black" points="1117,-156.5 1117,-197.5 1273,-197.5 1273,-156.5 1117,-156.5"/>
<text text-anchor="start" x="1125" y="-185.5" font-family="Helvetica,sans-Serif" font-size="10.00">/build/rawspeed/fuzz</text>
<text text-anchor="start" x="1125" y="-174.5" font-family="Helvetica,sans-Serif" font-size="10.00">/librawspeed/decompressors</text>
<text text-anchor="middle" x="1195" y="-163.5" font-family="Helvetica,sans-Serif" font-size="10.00">/HuffmanTable/Dual.cpp</text>
</a>
</g>
</g>
<!-- Node1&#45;&gt;Node21 -->
<g id="edge20" class="edge">
<title>Node1&#45;&gt;Node21</title>
<path fill="none" stroke="midnightblue" d="M1393.45,-231.81C1355.6,-221.55 1306.93,-208.35 1267.25,-197.59"/>
<polygon fill="midnightblue" stroke="midnightblue" points="1392.75,-235.25 1403.32,-234.49 1394.59,-228.49 1392.75,-235.25"/>
</g>
<!-- Node22 -->
<g id="node22" class="node">
<title>Node22</title>
<g id="a_node22"><a xlink:href="../../d0/d53/_solo_8cpp.html" target="_top" xlink:title=" ">
<polygon fill="none" stroke="black" points="1291,-156.5 1291,-197.5 1447,-197.5 1447,-156.5 1291,-156.5"/>
<text text-anchor="start" x="1299" y="-185.5" font-family="Helvetica,sans-Serif" font-size="10.00">/build/rawspeed/fuzz</text>
<text text-anchor="start" x="1299" y="-174.5" font-family="Helvetica,sans-Serif" font-size="10.00">/librawspeed/decompressors</text>
<text text-anchor="middle" x="1369" y="-163.5" font-family="Helvetica,sans-Serif" font-size="10.00">/HuffmanTable/Solo.cpp</text>
</a>
</g>
</g>
<!-- Node1&#45;&gt;Node22 -->
<g id="edge21" class="edge">
<title>Node1&#45;&gt;Node22</title>
<path fill="none" stroke="midnightblue" d="M1429.57,-227.66C1417.97,-218.15 1404.31,-206.94 1392.9,-197.59"/>
<polygon fill="midnightblue" stroke="midnightblue" points="1427.64,-230.6 1437.6,-234.23 1432.08,-225.19 1427.64,-230.6"/>
</g>
<!-- Node23 -->
<g id="node23" class="node">
<title>Node23</title>
<g id="a_node23"><a xlink:href="../../d1/db7/_pentax_decompressor_8h.html" target="_top" xlink:title=" ">
<polygon fill="none" stroke="black" points="1465.5,-162 1465.5,-192 1618.5,-192 1618.5,-162 1465.5,-162"/>
<text text-anchor="start" x="1473.5" y="-180" font-family="Helvetica,sans-Serif" font-size="10.00">librawspeed/decompressors</text>
<text text-anchor="middle" x="1542" y="-169" font-family="Helvetica,sans-Serif" font-size="10.00">/PentaxDecompressor.h</text>
</a>
</g>
</g>
<!-- Node1&#45;&gt;Node23 -->
<g id="edge22" class="edge">
<title>Node1&#45;&gt;Node23</title>
<path fill="none" stroke="midnightblue" d="M1480.56,-227.79C1494.78,-216.27 1512.1,-202.23 1524.72,-192"/>
<polygon fill="midnightblue" stroke="midnightblue" points="1478.17,-225.22 1472.61,-234.23 1482.58,-230.66 1478.17,-225.22"/>
</g>
<!-- Node26 -->
<g id="node26" class="node">
<title>Node26</title>
<g id="a_node26"><a xlink:href="../../d0/d89/src_2librawspeed_2decompressors_2_pentax_decompressor_8cpp.html" target="_top" xlink:title=" ">
<polygon fill="none" stroke="black" points="1760.5,-84 1760.5,-114 1913.5,-114 1913.5,-84 1760.5,-84"/>
<text text-anchor="start" x="1768.5" y="-102" font-family="Helvetica,sans-Serif" font-size="10.00">librawspeed/decompressors</text>
<text text-anchor="middle" x="1837" y="-91" font-family="Helvetica,sans-Serif" font-size="10.00">/PentaxDecompressor.cpp</text>
</a>
</g>
</g>
<!-- Node1&#45;&gt;Node26 -->
<g id="edge31" class="edge">
<title>Node1&#45;&gt;Node26</title>
<path fill="none" stroke="midnightblue" d="M1541.98,-232.83C1570.76,-225.17 1602.04,-214.03 1628,-198 1649.67,-184.62 1645.56,-169.75 1667,-156 1686.81,-143.29 1742.71,-126.01 1785.05,-114.02"/>
<polygon fill="midnightblue" stroke="midnightblue" points="1540.74,-229.53 1531.92,-235.39 1542.47,-236.32 1540.74,-229.53"/>
</g>
<!-- Node27 -->
<g id="node27" class="node">
<title>Node27</title>
<g id="a_node27"><a xlink:href="../../d3/d43/src_2librawspeed_2decompressors_2_kodak_decompressor_8cpp.html" target="_top" xlink:title=" ">
<polygon fill="none" stroke="black" points="1675.5,-162 1675.5,-192 1828.5,-192 1828.5,-162 1675.5,-162"/>
<text text-anchor="start" x="1683.5" y="-180" font-family="Helvetica,sans-Serif" font-size="10.00">librawspeed/decompressors</text>
<text text-anchor="middle" x="1752" y="-169" font-family="Helvetica,sans-Serif" font-size="10.00">/KodakDecompressor.cpp</text>
</a>
</g>
</g>
<!-- Node1&#45;&gt;Node27 -->
<g id="edge29" class="edge">
<title>Node1&#45;&gt;Node27</title>
<path fill="none" stroke="midnightblue" d="M1524.02,-232.12C1575.17,-219.97 1644.18,-203.59 1692.83,-192.05"/>
<polygon fill="midnightblue" stroke="midnightblue" points="1522.95,-228.77 1514.03,-234.49 1524.57,-235.58 1522.95,-228.77"/>
</g>
<!-- Node28 -->
<g id="node28" class="node">
<title>Node28</title>
<g id="a_node28"><a xlink:href="../../d8/d08/src_2librawspeed_2decompressors_2_nikon_decompressor_8cpp.html" target="_top" xlink:title=" ">
<polygon fill="none" stroke="black" points="1846.5,-162 1846.5,-192 1999.5,-192 1999.5,-162 1846.5,-162"/>
<text text-anchor="start" x="1854.5" y="-180" font-family="Helvetica,sans-Serif" font-size="10.00">librawspeed/decompressors</text>
<text text-anchor="middle" x="1923" y="-169" font-family="Helvetica,sans-Serif" font-size="10.00">/NikonDecompressor.cpp</text>
</a>
</g>
</g>
<!-- Node1&#45;&gt;Node28 -->
<g id="edge30" class="edge">
<title>Node1&#45;&gt;Node28</title>
<path fill="none" stroke="midnightblue" d="M1541.9,-239.55C1619.78,-230.93 1736.98,-216.5 1838,-198 1847.39,-196.28 1857.31,-194.2 1866.93,-192.03"/>
<polygon fill="midnightblue" stroke="midnightblue" points="1541.21,-236.1 1531.65,-240.68 1541.97,-243.06 1541.21,-236.1"/>
</g>
<!-- Node29 -->
<g id="node29" class="node">
<title>Node29</title>
<g id="a_node29"><a xlink:href="../../d0/d88/src_2librawspeed_2decompressors_2_samsung_v1_decompressor_8cpp.html" target="_top" xlink:title=" ">
<polygon fill="none" stroke="black" points="2017.5,-162 2017.5,-192 2184.5,-192 2184.5,-162 2017.5,-162"/>
<text text-anchor="start" x="2025.5" y="-180" font-family="Helvetica,sans-Serif" font-size="10.00">librawspeed/decompressors</text>
<text text-anchor="middle" x="2101" y="-169" font-family="Helvetica,sans-Serif" font-size="10.00">/SamsungV1Decompressor.cpp</text>
</a>
</g>
</g>
<!-- Node1&#45;&gt;Node29 -->
<g id="edge32" class="edge">
<title>Node1&#45;&gt;Node29</title>
<path fill="none" stroke="midnightblue" d="M1541.52,-243.92C1650.88,-237.38 1844.69,-223.25 2009,-198 2019.5,-196.39 2030.6,-194.3 2041.32,-192.09"/>
<polygon fill="midnightblue" stroke="midnightblue" points="1541.31,-240.43 1531.53,-244.51 1541.72,-247.42 1541.31,-240.43"/>
</g>
<!-- Node30 -->
<g id="node30" class="node">
<title>Node30</title>
<g id="a_node30"><a xlink:href="../../da/d4a/src_2librawspeed_2decompressors_2_sony_arw1_decompressor_8cpp.html" target="_top" xlink:title=" ">
<polygon fill="none" stroke="black" points="2202,-162 2202,-192 2360,-192 2360,-162 2202,-162"/>
<text text-anchor="start" x="2210" y="-180" font-family="Helvetica,sans-Serif" font-size="10.00">librawspeed/decompressors</text>
<text text-anchor="middle" x="2281" y="-169" font-family="Helvetica,sans-Serif" font-size="10.00">/SonyArw1Decompressor.cpp</text>
</a>
</g>
</g>
<!-- Node1&#45;&gt;Node30 -->
<g id="edge33" class="edge">
<title>Node1&#45;&gt;Node30</title>
<path fill="none" stroke="midnightblue" d="M1541.9,-246.99C1680.51,-243.6 1959.91,-232.68 2194,-198 2204.42,-196.46 2215.45,-194.32 2226.02,-192.02"/>
<polygon fill="midnightblue" stroke="midnightblue" points="1541.67,-243.5 1531.76,-247.23 1541.84,-250.5 1541.67,-243.5"/>
</g>
<!-- Node31 -->
<g id="node31" class="node">
<title>Node31</title>
<g id="a_node31"><a xlink:href="../../d8/d5c/_huffman_table_test_8cpp.html" target="_top" xlink:title=" ">
<polygon fill="none" stroke="black" points="2378,-156.5 2378,-197.5 2534,-197.5 2534,-156.5 2378,-156.5"/>
<text text-anchor="start" x="2386" y="-185.5" font-family="Helvetica,sans-Serif" font-size="10.00">/build/rawspeed/test</text>
<text text-anchor="start" x="2386" y="-174.5" font-family="Helvetica,sans-Serif" font-size="10.00">/librawspeed/decompressors</text>
<text text-anchor="middle" x="2456" y="-163.5" font-family="Helvetica,sans-Serif" font-size="10.00">/HuffmanTableTest.cpp</text>
</a>
</g>
</g>
<!-- Node1&#45;&gt;Node31 -->
<g id="edge34" class="edge">
<title>Node1&#45;&gt;Node31</title>
<path fill="none" stroke="midnightblue" d="M1542.01,-248.62C1705.07,-247.76 2067.4,-240.68 2369,-198 2371.92,-197.59 2374.88,-197.13 2377.86,-196.62"/>
<polygon fill="midnightblue" stroke="midnightblue" points="1541.55,-245.12 1531.56,-248.67 1541.58,-252.12 1541.55,-245.12"/>
</g>
<!-- Node3 -->
<g id="node3" class="node">
<title>Node3</title>
<g id="a_node3"><a xlink:href="../../de/da7/fuzz_2librawspeed_2decompressors_2_crw_decompressor_8cpp.html" target="_top" xlink:title=" ">
<polygon fill="none" stroke="black" points="0,-78.5 0,-119.5 156,-119.5 156,-78.5 0,-78.5"/>
<text text-anchor="start" x="8" y="-107.5" font-family="Helvetica,sans-Serif" font-size="10.00">/build/rawspeed/fuzz</text>
<text text-anchor="start" x="8" y="-96.5" font-family="Helvetica,sans-Serif" font-size="10.00">/librawspeed/decompressors</text>
<text text-anchor="middle" x="78" y="-85.5" font-family="Helvetica,sans-Serif" font-size="10.00">/CrwDecompressor.cpp</text>
</a>
</g>
</g>
<!-- Node2&#45;&gt;Node3 -->
<g id="edge2" class="edge">
<title>Node2&#45;&gt;Node3</title>
<path fill="none" stroke="midnightblue" d="M260.55,-158.79C224.3,-147.11 176.32,-131.66 138.65,-119.53"/>
<polygon fill="midnightblue" stroke="midnightblue" points="259.85,-162.24 270.44,-161.97 261.99,-155.57 259.85,-162.24"/>
</g>
<!-- Node4 -->
<g id="node4" class="node">
<title>Node4</title>
<g id="a_node4"><a xlink:href="../../d0/dc9/_crw_decoder_8cpp.html" target="_top" xlink:title=" ">
<polygon fill="none" stroke="black" points="174.5,-84 174.5,-114 297.5,-114 297.5,-84 174.5,-84"/>
<text text-anchor="start" x="182.5" y="-102" font-family="Helvetica,sans-Serif" font-size="10.00">librawspeed/decoders</text>
<text text-anchor="middle" x="236" y="-91" font-family="Helvetica,sans-Serif" font-size="10.00">/CrwDecoder.cpp</text>
</a>
</g>
</g>
<!-- Node2&#45;&gt;Node4 -->
<g id="edge3" class="edge">
<title>Node2&#45;&gt;Node4</title>
<path fill="none" stroke="midnightblue" d="M291.97,-154.53C278.73,-141.63 262.24,-125.57 250.61,-114.23"/>
<polygon fill="midnightblue" stroke="midnightblue" points="289.72,-157.23 299.33,-161.7 294.61,-152.22 289.72,-157.23"/>
</g>
<!-- Node2&#45;&gt;Node5 -->
<g id="edge4" class="edge">
<title>Node2&#45;&gt;Node5</title>
<path fill="none" stroke="midnightblue" d="M336.03,-154.53C349.27,-141.63 365.76,-125.57 377.39,-114.23"/>
<polygon fill="midnightblue" stroke="midnightblue" points="333.39,-152.22 328.67,-161.7 338.28,-157.23 333.39,-152.22"/>
</g>
<!-- Node7 -->
<g id="node7" class="node">
<title>Node7</title>
<g id="a_node7"><a xlink:href="../../dc/d52/_cr2_decompressor_8h.html" target="_top" xlink:title=" ">
<polygon fill="none" stroke="black" points="486.5,-84 486.5,-114 639.5,-114 639.5,-84 486.5,-84"/>
<text text-anchor="start" x="494.5" y="-102" font-family="Helvetica,sans-Serif" font-size="10.00">librawspeed/decompressors</text>
<text text-anchor="middle" x="563" y="-91" font-family="Helvetica,sans-Serif" font-size="10.00">/Cr2Decompressor.h</text>
</a>
</g>
</g>
<!-- Node6&#45;&gt;Node7 -->
<g id="edge6" class="edge">
<title>Node6&#45;&gt;Node7</title>
<path fill="none" stroke="midnightblue" d="M859.94,-160C804.16,-148.84 728.03,-133.57 661,-120 651.47,-118.07 641.42,-116.03 631.53,-114.02"/>
<polygon fill="midnightblue" stroke="midnightblue" points="859.26,-163.44 869.76,-161.97 860.64,-156.57 859.26,-163.44"/>
</g>
<!-- Node11 -->
<g id="node11" class="node">
<title>Node11</title>
<g id="a_node11"><a xlink:href="../../d2/dc6/_dummy_l_jpeg_decompressor_8cpp.html" target="_top" xlink:title=" ">
<polygon fill="none" stroke="black" points="670.5,-78.5 670.5,-119.5 845.5,-119.5 845.5,-78.5 670.5,-78.5"/>
<text text-anchor="start" x="678.5" y="-107.5" font-family="Helvetica,sans-Serif" font-size="10.00">/build/rawspeed/fuzz</text>
<text text-anchor="start" x="678.5" y="-96.5" font-family="Helvetica,sans-Serif" font-size="10.00">/librawspeed/decompressors</text>
<text text-anchor="middle" x="758" y="-85.5" font-family="Helvetica,sans-Serif" font-size="10.00">/DummyLJpegDecompressor.cpp</text>
</a>
</g>
</g>
<!-- Node6&#45;&gt;Node11 -->
<g id="edge10" class="edge">
<title>Node6&#45;&gt;Node11</title>
<path fill="none" stroke="midnightblue" d="M896.79,-157.96C869.17,-146.42 833.34,-131.46 805,-119.63"/>
<polygon fill="midnightblue" stroke="midnightblue" points="895.62,-161.26 906.19,-161.88 898.31,-154.8 895.62,-161.26"/>
</g>
<!-- Node12 -->
<g id="node12" class="node">
<title>Node12</title>
<g id="a_node12"><a xlink:href="../../d7/dc7/_hasselblad_decompressor_8h.html" target="_top" xlink:title=" ">
<polygon fill="none" stroke="black" points="863.5,-84 863.5,-114 1016.5,-114 1016.5,-84 863.5,-84"/>
<text text-anchor="start" x="871.5" y="-102" font-family="Helvetica,sans-Serif" font-size="10.00">librawspeed/decompressors</text>
<text text-anchor="middle" x="940" y="-91" font-family="Helvetica,sans-Serif" font-size="10.00">/HasselbladDecompressor.h</text>
</a>
</g>
</g>
<!-- Node6&#45;&gt;Node12 -->
<g id="edge11" class="edge">
<title>Node6&#45;&gt;Node12</title>
<path fill="none" stroke="midnightblue" d="M940,-151.59C940,-139.26 940,-124.72 940,-114.23"/>
<polygon fill="midnightblue" stroke="midnightblue" points="936.5,-151.7 940,-161.7 943.5,-151.71 936.5,-151.7"/>
</g>
<!-- Node16 -->
<g id="node16" class="node">
<title>Node16</title>
<g id="a_node16"><a xlink:href="../../d8/d3d/_l_jpeg_decompressor_8h.html" target="_top" xlink:title=" ">
<polygon fill="none" stroke="black" points="1079.5,-84 1079.5,-114 1232.5,-114 1232.5,-84 1079.5,-84"/>
<text text-anchor="start" x="1087.5" y="-102" font-family="Helvetica,sans-Serif" font-size="10.00">librawspeed/decompressors</text>
<text text-anchor="middle" x="1156" y="-91" font-family="Helvetica,sans-Serif" font-size="10.00">/LJpegDecompressor.h</text>
</a>
</g>
</g>
<!-- Node6&#45;&gt;Node16 -->
<g id="edge15" class="edge">
<title>Node6&#45;&gt;Node16</title>
<path fill="none" stroke="midnightblue" d="M989.79,-158.48C1028.11,-145 1080.37,-126.61 1116,-114.07"/>
<polygon fill="midnightblue" stroke="midnightblue" points="988.14,-155.35 979.87,-161.97 990.46,-161.95 988.14,-155.35"/>
</g>
<!-- Node6&#45;&gt;Node20 -->
<g id="edge19" class="edge">
<title>Node6&#45;&gt;Node20</title>
<path fill="none" stroke="midnightblue" d="M1027.61,-160.12C1087.7,-149.12 1169.24,-134 1241,-120 1250.71,-118.11 1260.96,-116.06 1271.02,-114.03"/>
<polygon fill="midnightblue" stroke="midnightblue" points="1026.61,-156.74 1017.4,-161.98 1027.87,-163.63 1026.61,-156.74"/>
</g>
<!-- Node8 -->
<g id="node8" class="node">
<title>Node8</title>
<g id="a_node8"><a xlink:href="../../dc/dfc/fuzz_2librawspeed_2decompressors_2_cr2_decompressor_8cpp.html" target="_top" xlink:title=" ">
<polygon fill="none" stroke="black" points="165,-0.5 165,-41.5 321,-41.5 321,-0.5 165,-0.5"/>
<text text-anchor="start" x="173" y="-29.5" font-family="Helvetica,sans-Serif" font-size="10.00">/build/rawspeed/fuzz</text>
<text text-anchor="start" x="173" y="-18.5" font-family="Helvetica,sans-Serif" font-size="10.00">/librawspeed/decompressors</text>
<text text-anchor="middle" x="243" y="-7.5" font-family="Helvetica,sans-Serif" font-size="10.00">/Cr2Decompressor.cpp</text>
</a>
</g>
</g>
<!-- Node7&#45;&gt;Node8 -->
<g id="edge7" class="edge">
<title>Node7&#45;&gt;Node8</title>
<path fill="none" stroke="midnightblue" d="M494.02,-81.62C443.16,-69.54 373.92,-53.09 321.04,-40.53"/>
<polygon fill="midnightblue" stroke="midnightblue" points="493.4,-85.07 503.93,-83.97 495.01,-78.26 493.4,-85.07"/>
</g>
<!-- Node9 -->
<g id="node9" class="node">
<title>Node9</title>
<g id="a_node9"><a xlink:href="../../d4/db4/_cr2_decoder_8cpp.html" target="_top" xlink:title=" ">
<polygon fill="none" stroke="black" points="339.5,-6 339.5,-36 462.5,-36 462.5,-6 339.5,-6"/>
<text text-anchor="start" x="347.5" y="-24" font-family="Helvetica,sans-Serif" font-size="10.00">librawspeed/decoders</text>
<text text-anchor="middle" x="401" y="-13" font-family="Helvetica,sans-Serif" font-size="10.00">/Cr2Decoder.cpp</text>
</a>
</g>
</g>
<!-- Node7&#45;&gt;Node9 -->
<g id="edge8" class="edge">
<title>Node7&#45;&gt;Node9</title>
<path fill="none" stroke="midnightblue" d="M523.62,-79.52C495.06,-66.13 457.02,-48.28 430.93,-36.04"/>
<polygon fill="midnightblue" stroke="midnightblue" points="522.37,-82.8 532.91,-83.88 525.34,-76.47 522.37,-82.8"/>
</g>
<!-- Node10 -->
<g id="node10" class="node">
<title>Node10</title>
<g id="a_node10"><a xlink:href="../../d4/d3f/src_2librawspeed_2decompressors_2_cr2_decompressor_8cpp.html" target="_top" xlink:title=" ">
<polygon fill="none" stroke="black" points="480.5,-6 480.5,-36 633.5,-36 633.5,-6 480.5,-6"/>
<text text-anchor="start" x="488.5" y="-24" font-family="Helvetica,sans-Serif" font-size="10.00">librawspeed/decompressors</text>
<text text-anchor="middle" x="557" y="-13" font-family="Helvetica,sans-Serif" font-size="10.00">/Cr2Decompressor.cpp</text>
</a>
</g>
</g>
<!-- Node7&#45;&gt;Node10 -->
<g id="edge9" class="edge">
<title>Node7&#45;&gt;Node10</title>
<path fill="none" stroke="midnightblue" d="M561.07,-73.59C560.1,-61.26 558.95,-46.72 558.12,-36.23"/>
<polygon fill="midnightblue" stroke="midnightblue" points="557.6,-74.01 561.87,-83.7 564.57,-73.46 557.6,-74.01"/>
</g>
<!-- Node13 -->
<g id="node13" class="node">
<title>Node13</title>
<g id="a_node13"><a xlink:href="../../dc/dcd/fuzz_2librawspeed_2decompressors_2_hasselblad_decompressor_8cpp.html" target="_top" xlink:title=" ">
<polygon fill="none" stroke="black" points="652,-0.5 652,-41.5 816,-41.5 816,-0.5 652,-0.5"/>
<text text-anchor="start" x="660" y="-29.5" font-family="Helvetica,sans-Serif" font-size="10.00">/build/rawspeed/fuzz</text>
<text text-anchor="start" x="660" y="-18.5" font-family="Helvetica,sans-Serif" font-size="10.00">/librawspeed/decompressors</text>
<text text-anchor="middle" x="734" y="-7.5" font-family="Helvetica,sans-Serif" font-size="10.00">/HasselbladDecompressor.cpp</text>
</a>
</g>
</g>
<!-- Node12&#45;&gt;Node13 -->
<g id="edge12" class="edge">
<title>Node12&#45;&gt;Node13</title>
<path fill="none" stroke="midnightblue" d="M892.32,-80.41C860.89,-68.81 819.69,-53.61 787.2,-41.63"/>
<polygon fill="midnightblue" stroke="midnightblue" points="891.14,-83.71 901.74,-83.88 893.57,-77.14 891.14,-83.71"/>
</g>
<!-- Node14 -->
<g id="node14" class="node">
<title>Node14</title>
<g id="a_node14"><a xlink:href="../../d3/dc1/_threefr_decoder_8cpp.html" target="_top" xlink:title=" ">
<polygon fill="none" stroke="black" points="834.5,-6 834.5,-36 957.5,-36 957.5,-6 834.5,-6"/>
<text text-anchor="start" x="842.5" y="-24" font-family="Helvetica,sans-Serif" font-size="10.00">librawspeed/decoders</text>
<text text-anchor="middle" x="896" y="-13" font-family="Helvetica,sans-Serif" font-size="10.00">/ThreefrDecoder.cpp</text>
</a>
</g>
</g>
<!-- Node12&#45;&gt;Node14 -->
<g id="edge13" class="edge">
<title>Node12&#45;&gt;Node14</title>
<path fill="none" stroke="midnightblue" d="M926.51,-74.7C919.24,-62.14 910.5,-47.04 904.24,-36.23"/>
<polygon fill="midnightblue" stroke="midnightblue" points="923.68,-76.8 931.72,-83.7 929.74,-73.3 923.68,-76.8"/>
</g>
<!-- Node12&#45;&gt;Node15 -->
<g id="edge14" class="edge">
<title>Node12&#45;&gt;Node15</title>
<path fill="none" stroke="midnightblue" d="M970.33,-78.47C990.93,-65.2 1017.69,-47.96 1036.2,-36.04"/>
<polygon fill="midnightblue" stroke="midnightblue" points="968.43,-75.53 961.92,-83.88 972.22,-81.41 968.43,-75.53"/>
</g>
<!-- Node17 -->
<g id="node17" class="node">
<title>Node17</title>
<g id="a_node17"><a xlink:href="../../db/d3f/fuzz_2librawspeed_2decompressors_2_l_jpeg_decompressor_8cpp.html" target="_top" xlink:title=" ">
<polygon fill="none" stroke="black" points="1158,-0.5 1158,-41.5 1314,-41.5 1314,-0.5 1158,-0.5"/>
<text text-anchor="start" x="1166" y="-29.5" font-family="Helvetica,sans-Serif" font-size="10.00">/build/rawspeed/fuzz</text>
<text text-anchor="start" x="1166" y="-18.5" font-family="Helvetica,sans-Serif" font-size="10.00">/librawspeed/decompressors</text>
<text text-anchor="middle" x="1236" y="-7.5" font-family="Helvetica,sans-Serif" font-size="10.00">/LJpegDecompressor.cpp</text>
</a>
</g>
</g>
<!-- Node16&#45;&gt;Node17 -->
<g id="edge16" class="edge">
<title>Node16&#45;&gt;Node17</title>
<path fill="none" stroke="midnightblue" d="M1178.58,-76.55C1190.11,-65.6 1204.03,-52.37 1215.28,-41.68"/>
<polygon fill="midnightblue" stroke="midnightblue" points="1175.89,-74.28 1171.05,-83.7 1180.71,-79.35 1175.89,-74.28"/>
</g>
<!-- Node18 -->
<g id="node18" class="node">
<title>Node18</title>
<g id="a_node18"><a xlink:href="../../d4/dd6/_abstract_dng_decompressor_8cpp.html" target="_top" xlink:title=" ">
<polygon fill="none" stroke="black" points="1332,-6 1332,-36 1502,-36 1502,-6 1332,-6"/>
<text text-anchor="start" x="1340" y="-24" font-family="Helvetica,sans-Serif" font-size="10.00">librawspeed/decompressors</text>
<text text-anchor="middle" x="1417" y="-13" font-family="Helvetica,sans-Serif" font-size="10.00">/AbstractDngDecompressor.cpp</text>
</a>
</g>
</g>
<!-- Node16&#45;&gt;Node18 -->
<g id="edge17" class="edge">
<title>Node16&#45;&gt;Node18</title>
<path fill="none" stroke="midnightblue" d="M1213.81,-81.17C1260.31,-67.63 1324.88,-48.82 1368.66,-36.07"/>
<polygon fill="midnightblue" stroke="midnightblue" points="1212.8,-77.82 1204.18,-83.97 1214.76,-84.54 1212.8,-77.82"/>
</g>
<!-- Node19 -->
<g id="node19" class="node">
<title>Node19</title>
<g id="a_node19"><a xlink:href="../../da/db1/src_2librawspeed_2decompressors_2_l_jpeg_decompressor_8cpp.html" target="_top" xlink:title=" ">
<polygon fill="none" stroke="black" points="1520.5,-6 1520.5,-36 1673.5,-36 1673.5,-6 1520.5,-6"/>
<text text-anchor="start" x="1528.5" y="-24" font-family="Helvetica,sans-Serif" font-size="10.00">librawspeed/decompressors</text>
<text text-anchor="middle" x="1597" y="-13" font-family="Helvetica,sans-Serif" font-size="10.00">/LJpegDecompressor.cpp</text>
</a>
</g>
</g>
<!-- Node16&#45;&gt;Node19 -->
<g id="edge18" class="edge">
<title>Node16&#45;&gt;Node19</title>
<path fill="none" stroke="midnightblue" d="M1222.85,-81.8C1229.3,-80.43 1235.77,-79.14 1242,-78 1360.66,-56.31 1392.34,-63.69 1511,-42 1520.5,-40.26 1530.53,-38.17 1540.26,-36"/>
<polygon fill="midnightblue" stroke="midnightblue" points="1221.77,-78.45 1212.74,-84 1223.26,-85.29 1221.77,-78.45"/>
</g>
<!-- Node24 -->
<g id="node24" class="node">
<title>Node24</title>
<g id="a_node24"><a xlink:href="../../d5/def/fuzz_2librawspeed_2decompressors_2_pentax_decompressor_8cpp.html" target="_top" xlink:title=" ">
<polygon fill="none" stroke="black" points="1445,-78.5 1445,-119.5 1601,-119.5 1601,-78.5 1445,-78.5"/>
<text text-anchor="start" x="1453" y="-107.5" font-family="Helvetica,sans-Serif" font-size="10.00">/build/rawspeed/fuzz</text>
<text text-anchor="start" x="1453" y="-96.5" font-family="Helvetica,sans-Serif" font-size="10.00">/librawspeed/decompressors</text>
<text text-anchor="middle" x="1523" y="-85.5" font-family="Helvetica,sans-Serif" font-size="10.00">/PentaxDecompressor.cpp</text>
</a>
</g>
</g>
<!-- Node23&#45;&gt;Node24 -->
<g id="edge23" class="edge">
<title>Node23&#45;&gt;Node24</title>
<path fill="none" stroke="midnightblue" d="M1536,-151.98C1533.39,-141.58 1530.39,-129.55 1527.92,-119.68"/>
<polygon fill="midnightblue" stroke="midnightblue" points="1532.61,-152.85 1538.43,-161.7 1539.4,-151.15 1532.61,-152.85"/>
</g>
<!-- Node25 -->
<g id="node25" class="node">
<title>Node25</title>
<g id="a_node25"><a xlink:href="../../de/d0c/_pef_decoder_8cpp.html" target="_top" xlink:title=" ">
<polygon fill="none" stroke="black" points="1619.5,-84 1619.5,-114 1742.5,-114 1742.5,-84 1619.5,-84"/>
<text text-anchor="start" x="1627.5" y="-102" font-family="Helvetica,sans-Serif" font-size="10.00">librawspeed/decoders</text>
<text text-anchor="middle" x="1681" y="-91" font-family="Helvetica,sans-Serif" font-size="10.00">/PefDecoder.cpp</text>
</a>
</g>
</g>
<!-- Node23&#45;&gt;Node25 -->
<g id="edge24" class="edge">
<title>Node23&#45;&gt;Node25</title>
<path fill="none" stroke="midnightblue" d="M1576.75,-157C1601.14,-143.66 1633.22,-126.12 1655.32,-114.04"/>
<polygon fill="midnightblue" stroke="midnightblue" points="1574.91,-154.01 1567.82,-161.88 1578.27,-160.16 1574.91,-154.01"/>
</g>
<!-- Node23&#45;&gt;Node26 -->
<g id="edge25" class="edge">
<title>Node23&#45;&gt;Node26</title>
<path fill="none" stroke="midnightblue" d="M1606.35,-159.42C1658.98,-145.86 1732.57,-126.9 1782.37,-114.07"/>
<polygon fill="midnightblue" stroke="midnightblue" points="1605.26,-156.09 1596.45,-161.97 1607.01,-162.87 1605.26,-156.09"/>
</g>
</g>
</svg>
