<?xml version="1.0" encoding="UTF-8" standalone="no"?>
<!DOCTYPE svg PUBLIC "-//W3C//DTD SVG 1.1//EN"
 "http://www.w3.org/Graphics/SVG/1.1/DTD/svg11.dtd">
<!-- Generated by graphviz version 2.43.0 (0)
 -->
<!-- Title: LLVMFuzzerTestOneInput Pages: 1 -->
<!--zoomable 636 -->
<svg id="main" version="1.1" xmlns="http://www.w3.org/2000/svg" xmlns:xlink="http://www.w3.org/1999/xlink" xml:space="preserve" onload="init(evt)">
<style type="text/css"><![CDATA[
.edge:hover path { stroke: red; }
.edge:hover polygon { stroke: red; fill: red; }
]]></style>
<script type="text/javascript"><![CDATA[
var edges = document.getElementsByTagName('g');
if (edges && edges.length) {
  for (var i=0;i<edges.length;i++) {
    if (edges[i].id.substr(0,4)=='edge') {
      edges[i].setAttribute('class','edge');
    }
  }
}
]]></script>
        <defs>
                <circle id="rim" cx="0" cy="0" r="7"/>
                <circle id="rim2" cx="0" cy="0" r="3.5"/>
                <g id="zoomPlus">
                        <use xlink:href="#rim" fill="#404040">
                                <set attributeName="fill" to="#808080" begin="zoomplus.mouseover" end="zoomplus.mouseout"/>
                        </use>
                        <path d="M-4,0h8M0,-4v8" fill="none" stroke="white" stroke-width="1.5" pointer-events="none"/>
                </g>
                <g id="zoomMin">
                        <use xlink:href="#rim" fill="#404040">
                                <set attributeName="fill" to="#808080" begin="zoomminus.mouseover" end="zoomminus.mouseout"/>
                        </use>
                        <path d="M-4,0h8" fill="none" stroke="white" stroke-width="1.5" pointer-events="none"/>
                </g>
                <g id="dirArrow">
                        <path fill="none" stroke="white" stroke-width="1.5" d="M0,-3.0v7 M-2.5,-0.5L0,-3.0L2.5,-0.5"/>
                </g>
               <g id="resetDef">
                       <use xlink:href="#rim2" fill="#404040">
                               <set attributeName="fill" to="#808080" begin="reset.mouseover" end="reset.mouseout"/>
                       </use>
               </g>
        </defs>

<script type="text/javascript">
var viewWidth = 1042;
var viewHeight = 636;
var sectionId = 'dynsection-1';
</script>
<script xlink:href="../../svgpan.js"/>
<svg id="graph" class="graph">
<g id="viewport">
<title>LLVMFuzzerTestOneInput</title>
<!-- Node1 -->
<g id="node1" class="node">
<title>Node1</title>
<g id="a_node1"><a xlink:title=" ">
<polygon fill="#bfbfbf" stroke="black" points="0,-251 0,-270 136,-270 136,-251 0,-251"/>
<text text-anchor="middle" x="68" y="-258" font-family="Helvetica,sans-Serif" font-size="10.00">LLVMFuzzerTestOneInput</text>
</a>
</g>
</g>
<!-- Node2 -->
<g id="node2" class="node">
<title>Node2</title>
<g id="a_node2"><a xlink:href="../../dd/da0/classrawspeed_1_1_byte_stream.html#a804858089e7e6c442815d46128cca1ed" target="_top" xlink:title=" ">
<polygon fill="none" stroke="black" points="906,-568.5 906,-598.5 1034,-598.5 1034,-568.5 906,-568.5"/>
<text text-anchor="start" x="914" y="-586.5" font-family="Helvetica,sans-Serif" font-size="10.00">rawspeed::ByteStream</text>
<text text-anchor="middle" x="970" y="-575.5" font-family="Helvetica,sans-Serif" font-size="10.00">::ByteStream</text>
</a>
</g>
</g>
<!-- Node1&#45;&gt;Node2 -->
<g id="edge1" class="edge">
<title>Node1&#45;&gt;Node2</title>
<path fill="none" stroke="midnightblue" d="M70.12,-270.17C74.94,-307.47 97.17,-443.62 172,-518.5 271.24,-617.81 328.1,-627.5 468.5,-627.5 468.5,-627.5 468.5,-627.5 643,-627.5 730.59,-627.5 830.25,-611.71 896.07,-599.04"/>
<polygon fill="midnightblue" stroke="midnightblue" points="896.78,-602.47 905.93,-597.12 895.44,-595.6 896.78,-602.47"/>
</g>
<!-- Node3 -->
<g id="node3" class="node">
<title>Node3</title>
<g id="a_node3"><a xlink:href="../../dc/d44/classrawspeed_1_1_raw_image_data.html#a9c4e731cd919ff9b06fe440284b2e8c8" target="_top" xlink:title=" ">
<polygon fill="none" stroke="black" points="194,-157.5 194,-187.5 339,-187.5 339,-157.5 194,-157.5"/>
<text text-anchor="start" x="202" y="-175.5" font-family="Helvetica,sans-Serif" font-size="10.00">rawspeed::RawImageData</text>
<text text-anchor="middle" x="266.5" y="-164.5" font-family="Helvetica,sans-Serif" font-size="10.00">::checkMemIsInitialized</text>
</a>
</g>
</g>
<!-- Node1&#45;&gt;Node3 -->
<g id="edge2" class="edge">
<title>Node1&#45;&gt;Node3</title>
<path fill="none" stroke="midnightblue" d="M83.86,-250.86C103.45,-238.45 139.27,-216.79 172,-202.5 181.59,-198.31 191.96,-194.41 202.18,-190.89"/>
<polygon fill="midnightblue" stroke="midnightblue" points="203.52,-194.13 211.9,-187.64 201.31,-187.49 203.52,-194.13"/>
</g>
<!-- Node4 -->
<g id="node4" class="node">
<title>Node4</title>
<g id="a_node4"><a xlink:href="../../dc/d44/classrawspeed_1_1_raw_image_data.html#af7cbbd3ab6bb415e7e1b1f58a285084f" target="_top" xlink:title=" ">
<polygon fill="none" stroke="black" points="194,-79.5 194,-109.5 339,-109.5 339,-79.5 194,-79.5"/>
<text text-anchor="start" x="202" y="-97.5" font-family="Helvetica,sans-Serif" font-size="10.00">rawspeed::RawImageData</text>
<text text-anchor="middle" x="266.5" y="-86.5" font-family="Helvetica,sans-Serif" font-size="10.00">::createData</text>
</a>
</g>
</g>
<!-- Node1&#45;&gt;Node4 -->
<g id="edge3" class="edge">
<title>Node1&#45;&gt;Node4</title>
<path fill="none" stroke="midnightblue" d="M76.18,-250.89C91.89,-230.32 131.18,-181.21 172,-148.5 188.17,-135.54 207.81,-123.71 224.9,-114.44"/>
<polygon fill="midnightblue" stroke="midnightblue" points="226.9,-117.34 234.1,-109.57 223.63,-111.16 226.9,-117.34"/>
</g>
<!-- Node7 -->
<g id="node7" class="node">
<title>Node7</title>
<g id="a_node7"><a xlink:href="../../d9/d5a/fuzz_2librawspeed_2fuzz_2_common_8cpp.html#a9b5193764409a69db1176954187dad97" target="_top" xlink:title=" ">
<polygon fill="none" stroke="black" points="216,-415 216,-434 317,-434 317,-415 216,-415"/>
<text text-anchor="middle" x="266.5" y="-422" font-family="Helvetica,sans-Serif" font-size="10.00">CreateRawImage</text>
</a>
</g>
</g>
<!-- Node1&#45;&gt;Node7 -->
<g id="edge6" class="edge">
<title>Node1&#45;&gt;Node7</title>
<path fill="none" stroke="midnightblue" d="M80.41,-270.03C112.84,-297.09 205.76,-374.64 246.25,-408.43"/>
<polygon fill="midnightblue" stroke="midnightblue" points="244.13,-411.23 254.05,-414.95 248.62,-405.85 244.13,-411.23"/>
</g>
<!-- Node12 -->
<g id="node12" class="node">
<title>Node12</title>
<g id="a_node12"><a xlink:href="../../dd/d12/classrawspeed_1_1_raw_image.html#a2907002b5c707eca6939061f8b0d5e5d" target="_top" xlink:title=" ">
<polygon fill="none" stroke="black" points="408.5,-343.5 408.5,-373.5 530.5,-373.5 530.5,-343.5 408.5,-343.5"/>
<text text-anchor="start" x="416.5" y="-361.5" font-family="Helvetica,sans-Serif" font-size="10.00">rawspeed::RawImage</text>
<text text-anchor="middle" x="469.5" y="-350.5" font-family="Helvetica,sans-Serif" font-size="10.00">::operator&#45;&gt;</text>
</a>
</g>
</g>
<!-- Node1&#45;&gt;Node12 -->
<g id="edge20" class="edge">
<title>Node1&#45;&gt;Node12</title>
<path fill="none" stroke="midnightblue" d="M108.03,-270.08C175.36,-286.59 314.2,-320.65 398.56,-341.34"/>
<polygon fill="midnightblue" stroke="midnightblue" points="397.77,-344.75 408.32,-343.74 399.44,-337.95 397.77,-344.75"/>
</g>
<!-- Node14 -->
<g id="node14" class="node">
<title>Node14</title>
<g id="a_node14"><a xlink:href="../../dc/d93/classrawspeed_1_1_panasonic_decompressor_v6.html#a70d096d12c7fd2349d3922c967f00769" target="_top" xlink:title=" ">
<polygon fill="none" stroke="black" points="172,-30.5 172,-60.5 361,-60.5 361,-30.5 172,-30.5"/>
<text text-anchor="start" x="180" y="-48.5" font-family="Helvetica,sans-Serif" font-size="10.00">rawspeed::PanasonicDecompressor</text>
<text text-anchor="middle" x="266.5" y="-37.5" font-family="Helvetica,sans-Serif" font-size="10.00">V6::decompress</text>
</a>
</g>
</g>
<!-- Node1&#45;&gt;Node14 -->
<g id="edge13" class="edge">
<title>Node1&#45;&gt;Node14</title>
<path fill="none" stroke="midnightblue" d="M71.28,-250.77C79.19,-219.27 108.49,-119.17 172,-69.5 173.63,-68.22 175.33,-67.01 177.07,-65.87"/>
<polygon fill="midnightblue" stroke="midnightblue" points="179.24,-68.66 186.18,-60.65 175.76,-62.58 179.24,-68.66"/>
</g>
<!-- Node15 -->
<g id="node15" class="node">
<title>Node15</title>
<g id="a_node15"><a xlink:href="../../dd/da0/classrawspeed_1_1_byte_stream.html#ab4972769baa5c0ed59ec0608ed2b307d" target="_top" xlink:title=" ">
<polygon fill="none" stroke="black" points="405.5,-98.5 405.5,-128.5 533.5,-128.5 533.5,-98.5 405.5,-98.5"/>
<text text-anchor="start" x="413.5" y="-116.5" font-family="Helvetica,sans-Serif" font-size="10.00">rawspeed::ByteStream</text>
<text text-anchor="middle" x="469.5" y="-105.5" font-family="Helvetica,sans-Serif" font-size="10.00">::getRemainSize</text>
</a>
</g>
</g>
<!-- Node1&#45;&gt;Node15 -->
<g id="edge14" class="edge">
<title>Node1&#45;&gt;Node15</title>
<path fill="none" stroke="midnightblue" d="M109.06,-250.92C128.1,-246.43 151.2,-241.07 172,-236.5 255.77,-218.1 291.04,-247.12 361,-197.5 386.37,-179.51 372.76,-156.98 397,-137.5 398.61,-136.21 400.29,-134.98 402.03,-133.82"/>
<polygon fill="midnightblue" stroke="midnightblue" points="404.23,-136.59 411.13,-128.55 400.72,-130.54 404.23,-136.59"/>
</g>
<!-- Node17 -->
<g id="node17" class="node">
<title>Node17</title>
<g id="a_node17"><a xlink:href="../../dd/da0/classrawspeed_1_1_byte_stream.html#a7a5f5eaad404d367efb8a64fa82d20ae" target="_top" xlink:title=" ">
<polygon fill="none" stroke="black" points="202.5,-478.5 202.5,-508.5 330.5,-508.5 330.5,-478.5 202.5,-478.5"/>
<text text-anchor="start" x="210.5" y="-496.5" font-family="Helvetica,sans-Serif" font-size="10.00">rawspeed::ByteStream</text>
<text text-anchor="middle" x="266.5" y="-485.5" font-family="Helvetica,sans-Serif" font-size="10.00">::getStream</text>
</a>
</g>
</g>
<!-- Node1&#45;&gt;Node17 -->
<g id="edge16" class="edge">
<title>Node1&#45;&gt;Node17</title>
<path fill="none" stroke="midnightblue" d="M72.19,-270.07C82.38,-299.42 116.76,-389.44 172,-443.5 184.76,-455.98 201.27,-466.19 216.85,-474.04"/>
<polygon fill="midnightblue" stroke="midnightblue" points="215.36,-477.21 225.89,-478.39 218.4,-470.9 215.36,-477.21"/>
</g>
<!-- Node20 -->
<g id="node20" class="node">
<title>Node20</title>
<g id="a_node20"><a xlink:href="../../dc/d93/classrawspeed_1_1_panasonic_decompressor_v6.html#a7764fc783e5cc66624df26931451dcb3" target="_top" xlink:title=" ">
<polygon fill="none" stroke="black" points="172,-245.5 172,-275.5 361,-275.5 361,-245.5 172,-245.5"/>
<text text-anchor="start" x="180" y="-263.5" font-family="Helvetica,sans-Serif" font-size="10.00">rawspeed::PanasonicDecompressor</text>
<text text-anchor="middle" x="266.5" y="-252.5" font-family="Helvetica,sans-Serif" font-size="10.00">V6::PanasonicDecompressorV6</text>
</a>
</g>
</g>
<!-- Node1&#45;&gt;Node20 -->
<g id="edge21" class="edge">
<title>Node1&#45;&gt;Node20</title>
<path fill="none" stroke="midnightblue" d="M136.07,-260.5C144.39,-260.5 153.03,-260.5 161.73,-260.5"/>
<polygon fill="midnightblue" stroke="midnightblue" points="161.95,-264 171.95,-260.5 161.95,-257 161.95,-264"/>
</g>
<!-- Node5 -->
<g id="node5" class="node">
<title>Node5</title>
<g id="a_node5"><a xlink:href="../../dc/d44/classrawspeed_1_1_raw_image_data.html#a724d8812aca44f04e6aeb965daeab36d" target="_top" xlink:title=" ">
<polygon fill="none" stroke="black" points="397,-49.5 397,-79.5 542,-79.5 542,-49.5 397,-49.5"/>
<text text-anchor="start" x="405" y="-67.5" font-family="Helvetica,sans-Serif" font-size="10.00">rawspeed::RawImageData</text>
<text text-anchor="middle" x="469.5" y="-56.5" font-family="Helvetica,sans-Serif" font-size="10.00">::getData</text>
</a>
</g>
</g>
<!-- Node4&#45;&gt;Node5 -->
<g id="edge4" class="edge">
<title>Node4&#45;&gt;Node5</title>
<path fill="none" stroke="midnightblue" d="M339.21,-83.8C354.57,-81.5 370.9,-79.07 386.6,-76.72"/>
<polygon fill="midnightblue" stroke="midnightblue" points="387.44,-80.14 396.81,-75.2 386.41,-73.21 387.44,-80.14"/>
</g>
<!-- Node6 -->
<g id="node6" class="node">
<title>Node6</title>
<g id="a_node6"><a xlink:href="../../dc/d44/classrawspeed_1_1_raw_image_data.html#a383099b27aea42a05858e18b6cf69c96" target="_top" xlink:title=" ">
<polygon fill="none" stroke="black" points="397,-0.5 397,-30.5 542,-30.5 542,-0.5 397,-0.5"/>
<text text-anchor="start" x="405" y="-18.5" font-family="Helvetica,sans-Serif" font-size="10.00">rawspeed::RawImageData</text>
<text text-anchor="middle" x="469.5" y="-7.5" font-family="Helvetica,sans-Serif" font-size="10.00">::poisonPadding</text>
</a>
</g>
</g>
<!-- Node4&#45;&gt;Node6 -->
<g id="edge5" class="edge">
<title>Node4&#45;&gt;Node6</title>
<path fill="none" stroke="midnightblue" d="M337.2,-79.5C345.43,-76.67 353.54,-73.36 361,-69.5 379.49,-59.92 378.82,-49.65 397,-39.5 400.07,-37.79 403.27,-36.17 406.56,-34.65"/>
<polygon fill="midnightblue" stroke="midnightblue" points="408.17,-37.77 415.98,-30.61 405.41,-31.34 408.17,-37.77"/>
</g>
<!-- Node8 -->
<g id="node8" class="node">
<title>Node8</title>
<g id="a_node8"><a xlink:href="../../dd/d12/classrawspeed_1_1_raw_image.html#a4a7b73d675f5ac9c8730a9b7f60c3d82" target="_top" xlink:title=" ">
<polygon fill="none" stroke="black" points="408.5,-568.5 408.5,-598.5 530.5,-598.5 530.5,-568.5 408.5,-568.5"/>
<text text-anchor="start" x="416.5" y="-586.5" font-family="Helvetica,sans-Serif" font-size="10.00">rawspeed::RawImage</text>
<text text-anchor="middle" x="469.5" y="-575.5" font-family="Helvetica,sans-Serif" font-size="10.00">::create</text>
</a>
</g>
</g>
<!-- Node7&#45;&gt;Node8 -->
<g id="edge7" class="edge">
<title>Node7&#45;&gt;Node8</title>
<path fill="none" stroke="midnightblue" d="M296.69,-434.13C316.34,-441.62 342.02,-453.44 361,-469.5 382.18,-487.42 378.46,-499.85 397,-520.5 410.4,-535.42 427.14,-550.34 441.05,-561.91"/>
<polygon fill="midnightblue" stroke="midnightblue" points="438.91,-564.68 448.87,-568.31 443.35,-559.26 438.91,-564.68"/>
</g>
<!-- Node10 -->
<g id="node10" class="node">
<title>Node10</title>
<g id="a_node10"><a xlink:href="../../dd/da0/classrawspeed_1_1_byte_stream.html#ac598b7b6f0f8fd5476adb7c1363b1518" target="_top" xlink:title=" ">
<polygon fill="none" stroke="black" points="405.5,-480.5 405.5,-510.5 533.5,-510.5 533.5,-480.5 405.5,-480.5"/>
<text text-anchor="start" x="413.5" y="-498.5" font-family="Helvetica,sans-Serif" font-size="10.00">rawspeed::ByteStream</text>
<text text-anchor="middle" x="469.5" y="-487.5" font-family="Helvetica,sans-Serif" font-size="10.00">::getU32</text>
</a>
</g>
</g>
<!-- Node7&#45;&gt;Node10 -->
<g id="edge9" class="edge">
<title>Node7&#45;&gt;Node10</title>
<path fill="none" stroke="midnightblue" d="M293.23,-434.05C319.32,-443.68 360.87,-458.88 397,-471.5 402.25,-473.33 407.73,-475.22 413.22,-477.09"/>
<polygon fill="midnightblue" stroke="midnightblue" points="412.46,-480.53 423.05,-480.43 414.71,-473.9 412.46,-480.53"/>
</g>
<!-- Node11 -->
<g id="node11" class="node">
<title>Node11</title>
<g id="a_node11"><a xlink:href="../../d8/d75/classrawspeed_1_1i_point2_d.html#ab980cc8ab2f3502a5a2c230530ba2a64" target="_top" xlink:title=" ">
<polygon fill="none" stroke="black" points="586.5,-316.5 586.5,-346.5 697.5,-346.5 697.5,-316.5 586.5,-316.5"/>
<text text-anchor="start" x="594.5" y="-334.5" font-family="Helvetica,sans-Serif" font-size="10.00">rawspeed::iPoint2D</text>
<text text-anchor="middle" x="642" y="-323.5" font-family="Helvetica,sans-Serif" font-size="10.00">::iPoint2D</text>
</a>
</g>
</g>
<!-- Node7&#45;&gt;Node11 -->
<g id="edge10" class="edge">
<title>Node7&#45;&gt;Node11</title>
<path fill="none" stroke="midnightblue" d="M317.24,-422.08C373.12,-418.21 465.97,-408.35 542,-383.5 565.47,-375.83 590.06,-362.94 608.86,-351.92"/>
<polygon fill="midnightblue" stroke="midnightblue" points="610.81,-354.83 617.59,-346.69 607.21,-348.82 610.81,-354.83"/>
</g>
<!-- Node7&#45;&gt;Node12 -->
<g id="edge11" class="edge">
<title>Node7&#45;&gt;Node12</title>
<path fill="none" stroke="midnightblue" d="M296.73,-414.9C327.01,-404.96 375.09,-389.17 412.68,-376.83"/>
<polygon fill="midnightblue" stroke="midnightblue" points="414.08,-380.05 422.49,-373.61 411.9,-373.4 414.08,-380.05"/>
</g>
<!-- Node13 -->
<g id="node13" class="node">
<title>Node13</title>
<g id="a_node13"><a xlink:href="../../dc/d44/classrawspeed_1_1_raw_image_data.html#a180f90ba4cf9e6e6ff1c307f6106f4ed" target="_top" xlink:title=" ">
<polygon fill="none" stroke="black" points="397,-431.5 397,-461.5 542,-461.5 542,-431.5 397,-431.5"/>
<text text-anchor="start" x="405" y="-449.5" font-family="Helvetica,sans-Serif" font-size="10.00">rawspeed::RawImageData</text>
<text text-anchor="middle" x="469.5" y="-438.5" font-family="Helvetica,sans-Serif" font-size="10.00">::setCpp</text>
</a>
</g>
</g>
<!-- Node7&#45;&gt;Node13 -->
<g id="edge12" class="edge">
<title>Node7&#45;&gt;Node13</title>
<path fill="none" stroke="midnightblue" d="M317.19,-429.94C338.14,-432.23 363.09,-434.96 386.64,-437.54"/>
<polygon fill="midnightblue" stroke="midnightblue" points="386.3,-441.02 396.62,-438.63 387.06,-434.07 386.3,-441.02"/>
</g>
<!-- Node9 -->
<g id="node9" class="node">
<title>Node9</title>
<g id="a_node9"><a xlink:href="../../de/dc3/namespacerawspeed.html#a8a98a18f46994d6cae15ce24462fb7d4" target="_top" xlink:title=" ">
<polygon fill="none" stroke="black" points="586,-574 586,-593 698,-593 698,-574 586,-574"/>
<text text-anchor="middle" x="642" y="-581" font-family="Helvetica,sans-Serif" font-size="10.00">rawspeed::writeLog</text>
</a>
</g>
</g>
<!-- Node8&#45;&gt;Node9 -->
<g id="edge8" class="edge">
<title>Node8&#45;&gt;Node9</title>
<path fill="none" stroke="midnightblue" d="M530.61,-583.5C545.26,-583.5 560.99,-583.5 575.86,-583.5"/>
<polygon fill="midnightblue" stroke="midnightblue" points="575.99,-587 585.99,-583.5 575.99,-580 575.99,-587"/>
</g>
<!-- Node16 -->
<g id="node16" class="node">
<title>Node16</title>
<g id="a_node16"><a xlink:href="../../dd/da0/classrawspeed_1_1_byte_stream.html#a33bbb3baf3bb9730f9da8765175ec4ce" target="_top" xlink:title=" ">
<polygon fill="none" stroke="black" points="578,-98.5 578,-128.5 706,-128.5 706,-98.5 578,-98.5"/>
<text text-anchor="start" x="586" y="-116.5" font-family="Helvetica,sans-Serif" font-size="10.00">rawspeed::ByteStream</text>
<text text-anchor="middle" x="642" y="-105.5" font-family="Helvetica,sans-Serif" font-size="10.00">::check</text>
</a>
</g>
</g>
<!-- Node15&#45;&gt;Node16 -->
<g id="edge15" class="edge">
<title>Node15&#45;&gt;Node16</title>
<path fill="none" stroke="midnightblue" d="M533.5,-113.5C544.62,-113.5 556.27,-113.5 567.64,-113.5"/>
<polygon fill="midnightblue" stroke="midnightblue" points="567.97,-117 577.97,-113.5 567.97,-110 567.97,-117"/>
</g>
<!-- Node18 -->
<g id="node18" class="node">
<title>Node18</title>
<g id="a_node18"><a xlink:href="../../dd/da0/classrawspeed_1_1_byte_stream.html#a81cc27671b93889f9c8adb62ece8340e" target="_top" xlink:title=" ">
<polygon fill="none" stroke="black" points="578,-524.5 578,-554.5 706,-554.5 706,-524.5 578,-524.5"/>
<text text-anchor="start" x="586" y="-542.5" font-family="Helvetica,sans-Serif" font-size="10.00">rawspeed::ByteStream</text>
<text text-anchor="middle" x="642" y="-531.5" font-family="Helvetica,sans-Serif" font-size="10.00">::peekStream</text>
</a>
</g>
</g>
<!-- Node17&#45;&gt;Node18 -->
<g id="edge17" class="edge">
<title>Node17&#45;&gt;Node18</title>
<path fill="none" stroke="midnightblue" d="M330.78,-508.38C351.75,-512.86 375.29,-517.4 397,-520.5 454.04,-528.63 519.12,-533.48 567.71,-536.24"/>
<polygon fill="midnightblue" stroke="midnightblue" points="567.64,-539.74 577.82,-536.8 568.03,-532.75 567.64,-539.74"/>
</g>
<!-- Node19 -->
<g id="node19" class="node">
<title>Node19</title>
<g id="a_node19"><a xlink:href="../../dd/da0/classrawspeed_1_1_byte_stream.html#a5eb5f775dd7efaa22b490007fe835a32" target="_top" xlink:title=" ">
<polygon fill="none" stroke="black" points="742,-546.5 742,-576.5 870,-576.5 870,-546.5 742,-546.5"/>
<text text-anchor="start" x="750" y="-564.5" font-family="Helvetica,sans-Serif" font-size="10.00">rawspeed::ByteStream</text>
<text text-anchor="middle" x="806" y="-553.5" font-family="Helvetica,sans-Serif" font-size="10.00">::getSubStream</text>
</a>
</g>
</g>
<!-- Node18&#45;&gt;Node19 -->
<g id="edge18" class="edge">
<title>Node18&#45;&gt;Node19</title>
<path fill="none" stroke="midnightblue" d="M706.1,-548.07C714.53,-549.21 723.23,-550.4 731.81,-551.56"/>
<polygon fill="midnightblue" stroke="midnightblue" points="731.43,-555.04 741.81,-552.92 732.37,-548.1 731.43,-555.04"/>
</g>
<!-- Node19&#45;&gt;Node2 -->
<g id="edge19" class="edge">
<title>Node19&#45;&gt;Node2</title>
<path fill="none" stroke="midnightblue" d="M870.1,-570.07C878.53,-571.21 887.23,-572.4 895.81,-573.56"/>
<polygon fill="midnightblue" stroke="midnightblue" points="895.43,-577.04 905.81,-574.92 896.37,-570.1 895.43,-577.04"/>
</g>
<!-- Node20&#45;&gt;Node12 -->
<g id="edge27" class="edge">
<title>Node20&#45;&gt;Node12</title>
<path fill="none" stroke="midnightblue" d="M290.64,-275.57C316,-291.64 358.25,-317.13 397,-334.5 401.14,-336.36 405.48,-338.15 409.87,-339.87"/>
<polygon fill="midnightblue" stroke="midnightblue" points="408.96,-343.26 419.55,-343.49 411.41,-336.71 408.96,-343.26"/>
</g>
<!-- Node20&#45;&gt;Node15 -->
<g id="edge23" class="edge">
<title>Node20&#45;&gt;Node15</title>
<path fill="none" stroke="midnightblue" d="M338.71,-245.3C346.86,-241.43 354.55,-236.58 361,-230.5 393.25,-200.1 364.95,-168.12 397,-137.5 398.12,-136.43 399.3,-135.4 400.51,-134.42"/>
<polygon fill="midnightblue" stroke="midnightblue" points="402.78,-137.11 409.08,-128.59 398.85,-131.32 402.78,-137.11"/>
</g>
<!-- Node21 -->
<g id="node21" class="node">
<title>Node21</title>
<g id="a_node21"><a xlink:href="../../d8/d75/classrawspeed_1_1i_point2_d.html#abb9155da47f90ec694b75ad521bb7978" target="_top" xlink:title=" ">
<polygon fill="none" stroke="black" points="414,-245.5 414,-275.5 525,-275.5 525,-245.5 414,-245.5"/>
<text text-anchor="start" x="422" y="-263.5" font-family="Helvetica,sans-Serif" font-size="10.00">rawspeed::iPoint2D</text>
<text text-anchor="middle" x="469.5" y="-252.5" font-family="Helvetica,sans-Serif" font-size="10.00">::__attribute__</text>
</a>
</g>
</g>
<!-- Node20&#45;&gt;Node21 -->
<g id="edge22" class="edge">
<title>Node20&#45;&gt;Node21</title>
<path fill="none" stroke="midnightblue" d="M361.23,-260.5C375.59,-260.5 390.13,-260.5 403.67,-260.5"/>
<polygon fill="midnightblue" stroke="midnightblue" points="403.82,-264 413.82,-260.5 403.82,-257 403.82,-264"/>
</g>
<!-- Node22 -->
<g id="node22" class="node">
<title>Node22</title>
<g id="a_node22"><a xlink:href="../../d8/d75/classrawspeed_1_1i_point2_d.html#a3380c669e36808d7f01bc4d833be3844" target="_top" xlink:title=" ">
<polygon fill="none" stroke="black" points="414,-196.5 414,-226.5 525,-226.5 525,-196.5 414,-196.5"/>
<text text-anchor="start" x="422" y="-214.5" font-family="Helvetica,sans-Serif" font-size="10.00">rawspeed::iPoint2D</text>
<text text-anchor="middle" x="469.5" y="-203.5" font-family="Helvetica,sans-Serif" font-size="10.00">::hasPositiveArea</text>
</a>
</g>
</g>
<!-- Node20&#45;&gt;Node22 -->
<g id="edge24" class="edge">
<title>Node20&#45;&gt;Node22</title>
<path fill="none" stroke="midnightblue" d="M329.17,-245.47C352.91,-239.68 380.05,-233.06 404.04,-227.21"/>
<polygon fill="midnightblue" stroke="midnightblue" points="404.88,-230.61 413.76,-224.84 403.22,-223.81 404.88,-230.61"/>
</g>
<!-- Node24 -->
<g id="node24" class="node">
<title>Node24</title>
<g id="a_node24"><a xlink:href="../../dd/da0/classrawspeed_1_1_byte_stream.html#aa8ca115a9b9135672a594da273e2fd52" target="_top" xlink:title=" ">
<polygon fill="none" stroke="black" points="405.5,-294.5 405.5,-324.5 533.5,-324.5 533.5,-294.5 405.5,-294.5"/>
<text text-anchor="start" x="413.5" y="-312.5" font-family="Helvetica,sans-Serif" font-size="10.00">rawspeed::ByteStream</text>
<text text-anchor="middle" x="469.5" y="-301.5" font-family="Helvetica,sans-Serif" font-size="10.00">::peekStream</text>
</a>
</g>
</g>
<!-- Node20&#45;&gt;Node24 -->
<g id="edge28" class="edge">
<title>Node20&#45;&gt;Node24</title>
<path fill="none" stroke="midnightblue" d="M329.17,-275.53C350.59,-280.76 374.78,-286.65 396.93,-292.05"/>
<polygon fill="midnightblue" stroke="midnightblue" points="396.4,-295.53 406.94,-294.49 398.06,-288.72 396.4,-295.53"/>
</g>
<!-- Node25 -->
<g id="node25" class="node">
<title>Node25</title>
<g id="a_node25"><a xlink:href="../../dd/d12/classrawspeed_1_1_raw_image.html#a4a01d153bb4518ddfaac18a5d0694154" target="_top" xlink:title=" ">
<polygon fill="none" stroke="black" points="408.5,-147.5 408.5,-177.5 530.5,-177.5 530.5,-147.5 408.5,-147.5"/>
<text text-anchor="start" x="416.5" y="-165.5" font-family="Helvetica,sans-Serif" font-size="10.00">rawspeed::RawImage</text>
<text text-anchor="middle" x="469.5" y="-154.5" font-family="Helvetica,sans-Serif" font-size="10.00">::RawImage</text>
</a>
</g>
</g>
<!-- Node20&#45;&gt;Node25 -->
<g id="edge30" class="edge">
<title>Node20&#45;&gt;Node25</title>
<path fill="none" stroke="midnightblue" d="M331.11,-245.46C341.58,-241.51 351.95,-236.59 361,-230.5 381.68,-216.59 376.5,-201.68 397,-187.5 399.84,-185.53 402.86,-183.71 405.98,-182.01"/>
<polygon fill="midnightblue" stroke="midnightblue" points="407.56,-185.13 414.99,-177.58 404.48,-178.85 407.56,-185.13"/>
</g>
<!-- Node22&#45;&gt;Node11 -->
<g id="edge25" class="edge">
<title>Node22&#45;&gt;Node11</title>
<path fill="none" stroke="midnightblue" d="M522.12,-226.54C529.02,-229.4 535.84,-232.72 542,-236.5 573.86,-256.06 603.87,-287.34 622.32,-308.62"/>
<polygon fill="midnightblue" stroke="midnightblue" points="619.65,-310.9 628.8,-316.24 624.99,-306.36 619.65,-310.9"/>
</g>
<!-- Node23 -->
<g id="node23" class="node">
<title>Node23</title>
<g id="a_node23"><a xlink:href="../../d8/d75/classrawspeed_1_1i_point2_d.html#ac35b470bfed78a4394e8ac52a85b8fd1" target="_top" xlink:title=" ">
<polygon fill="none" stroke="black" points="586.5,-196.5 586.5,-226.5 697.5,-226.5 697.5,-196.5 586.5,-196.5"/>
<text text-anchor="start" x="594.5" y="-214.5" font-family="Helvetica,sans-Serif" font-size="10.00">rawspeed::iPoint2D</text>
<text text-anchor="middle" x="642" y="-203.5" font-family="Helvetica,sans-Serif" font-size="10.00">::operator&gt;</text>
</a>
</g>
</g>
<!-- Node22&#45;&gt;Node23 -->
<g id="edge26" class="edge">
<title>Node22&#45;&gt;Node23</title>
<path fill="none" stroke="midnightblue" d="M525.39,-211.5C541.51,-211.5 559.3,-211.5 575.99,-211.5"/>
<polygon fill="midnightblue" stroke="midnightblue" points="576.22,-215 586.22,-211.5 576.22,-208 576.22,-215"/>
</g>
<!-- Node24&#45;&gt;Node18 -->
<g id="edge29" class="edge">
<title>Node24&#45;&gt;Node18</title>
<path fill="none" stroke="midnightblue" d="M527.51,-324.61C532.74,-327.38 537.68,-330.65 542,-334.5 597.59,-384.11 624.99,-471.83 635.58,-514.62"/>
<polygon fill="midnightblue" stroke="midnightblue" points="632.2,-515.56 637.91,-524.48 639.01,-513.95 632.2,-515.56"/>
</g>
</g>
</svg>
        <g id="navigator" transform="translate(0 0)" fill="#404254">
                <rect fill="#f2f5e9" fill-opacity="0.5" stroke="#606060" stroke-width=".5" x="0" y="0" width="60" height="60"/>
                <use id="zoomplus" xlink:href="#zoomPlus" x="17" y="9" onmousedown="handleZoom(evt,'in')"/>
                <use id="zoomminus" xlink:href="#zoomMin" x="42" y="9" onmousedown="handleZoom(evt,'out')"/>
                <use id="reset" xlink:href="#resetDef" x="30" y="36" onmousedown="handleReset()"/>
                <g id="arrowUp" xlink:href="#dirArrow" transform="translate(30 24)" onmousedown="handlePan(0,-1)">
                  <use xlink:href="#rim" fill="#404040">
                        <set attributeName="fill" to="#808080" begin="arrowUp.mouseover" end="arrowUp.mouseout"/>
                  </use>
                  <path fill="none" stroke="white" stroke-width="1.5" d="M0,-3.0v7 M-2.5,-0.5L0,-3.0L2.5,-0.5"/>
                </g>
                <g id="arrowRight" xlink:href="#dirArrow" transform="rotate(90) translate(36 -43)" onmousedown="handlePan(1,0)">
                  <use xlink:href="#rim" fill="#404040">
                        <set attributeName="fill" to="#808080" begin="arrowRight.mouseover" end="arrowRight.mouseout"/>
                  </use>
                  <path fill="none" stroke="white" stroke-width="1.5" d="M0,-3.0v7 M-2.5,-0.5L0,-3.0L2.5,-0.5"/>
                </g>
                <g id="arrowDown" xlink:href="#dirArrow" transform="rotate(180) translate(-30 -48)" onmousedown="handlePan(0,1)">
                  <use xlink:href="#rim" fill="#404040">
                        <set attributeName="fill" to="#808080" begin="arrowDown.mouseover" end="arrowDown.mouseout"/>
                  </use>
                  <path fill="none" stroke="white" stroke-width="1.5" d="M0,-3.0v7 M-2.5,-0.5L0,-3.0L2.5,-0.5"/>
                </g>
                <g id="arrowLeft" xlink:href="#dirArrow" transform="rotate(270) translate(-36 17)" onmousedown="handlePan(-1,0)">
                  <use xlink:href="#rim" fill="#404040">
                        <set attributeName="fill" to="#808080" begin="arrowLeft.mouseover" end="arrowLeft.mouseout"/>
                  </use>
                  <path fill="none" stroke="white" stroke-width="1.5" d="M0,-3.0v7 M-2.5,-0.5L0,-3.0L2.5,-0.5"/>
                </g>
        </g>
        <svg viewBox="0 0 15 15" width="100%" height="30px" preserveAspectRatio="xMaxYMin meet">
         <g id="arrow_out" transform="scale(0.3 0.3)">
          <a xlink:href="fuzz_2librawspeed_2decompressors_2_panasonic_decompressor_v6_8cpp_a1c473c9665269a78ef9001573a6995df_cgraph_org.svg" target="_base">
           <rect id="button" ry="5" rx="5" y="6" x="6" height="38" width="38"
                fill="#f2f5e9" fill-opacity="0.5" stroke="#606060" stroke-width="1.0"/>
           <path id="arrow"
             d="M 11.500037,31.436501 C 11.940474,20.09759 22.043105,11.32322 32.158766,21.979434 L 37.068811,17.246167 C 37.068811,17.246167 37.088388,32 37.088388,32 L 22.160133,31.978069 C 22.160133,31.978069 26.997745,27.140456 26.997745,27.140456 C 18.528582,18.264221 13.291696,25.230495 11.500037,31.436501 z"
             style="fill:#404040;"/>
          </a>
         </g>
        </svg>
</svg>
