<?xml version="1.0" encoding="UTF-8" standalone="no"?>
<!DOCTYPE svg PUBLIC "-//W3C//DTD SVG 1.1//EN"
 "http://www.w3.org/Graphics/SVG/1.1/DTD/svg11.dtd">
<!-- Generated by graphviz version 2.43.0 (0)
 -->
<!-- Title: rawspeed::VC5Decompressor::Wavelet::LowPassBand Pages: 1 -->
<svg width="1351pt" height="182pt"
 viewBox="0.00 0.00 1351.00 182.00" xmlns="http://www.w3.org/2000/svg" xmlns:xlink="http://www.w3.org/1999/xlink">
<g id="graph0" class="graph" transform="scale(1 1) rotate(0) translate(4 178)">
<title>rawspeed::VC5Decompressor::Wavelet::LowPassBand</title>
<!-- Node1 -->
<g id="node1" class="node">
<title>Node1</title>
<g id="a_node1"><a xlink:title=" ">
<polygon fill="#bfbfbf" stroke="black" points="1183,-33 1183,-63 1343,-63 1343,-33 1183,-33"/>
<text text-anchor="start" x="1191" y="-51" font-family="Helvetica,sans-Serif" font-size="10.00">rawspeed::VC5Decompressor</text>
<text text-anchor="middle" x="1263" y="-40" font-family="Helvetica,sans-Serif" font-size="10.00">::Wavelet::LowPassBand</text>
</a>
</g>
</g>
<!-- Node2 -->
<g id="node2" class="node">
<title>Node2</title>
<g id="a_node2"><a xlink:href="../../d4/d7d/structrawspeed_1_1_v_c5_decompressor_1_1_wavelet_1_1_abstract_decodeable_band.html" target="_top" xlink:title=" ">
<polygon fill="none" stroke="black" points="868,-64 868,-94 1059,-94 1059,-64 868,-64"/>
<text text-anchor="start" x="876" y="-82" font-family="Helvetica,sans-Serif" font-size="10.00">rawspeed::VC5Decompressor</text>
<text text-anchor="middle" x="963.5" y="-71" font-family="Helvetica,sans-Serif" font-size="10.00">::Wavelet::AbstractDecodeableBand</text>
</a>
</g>
</g>
<!-- Node2&#45;&gt;Node1 -->
<g id="edge1" class="edge">
<title>Node2&#45;&gt;Node1</title>
<path fill="none" stroke="midnightblue" d="M1069.43,-68.07C1106.67,-64.19 1147.93,-59.89 1182.68,-56.26"/>
<polygon fill="midnightblue" stroke="midnightblue" points="1068.62,-64.63 1059.04,-69.15 1069.35,-71.59 1068.62,-64.63"/>
</g>
<!-- Node3 -->
<g id="node3" class="node">
<title>Node3</title>
<g id="a_node3"><a xlink:href="../../dd/d5b/structrawspeed_1_1_v_c5_decompressor_1_1_wavelet_1_1_abstract_band.html" target="_top" xlink:title=" ">
<polygon fill="none" stroke="black" points="657,-86 657,-116 817,-116 817,-86 657,-86"/>
<text text-anchor="start" x="665" y="-104" font-family="Helvetica,sans-Serif" font-size="10.00">rawspeed::VC5Decompressor</text>
<text text-anchor="middle" x="737" y="-93" font-family="Helvetica,sans-Serif" font-size="10.00">::Wavelet::AbstractBand</text>
</a>
</g>
</g>
<!-- Node3&#45;&gt;Node2 -->
<g id="edge2" class="edge">
<title>Node3&#45;&gt;Node2</title>
<path fill="none" stroke="midnightblue" d="M827.27,-92.25C840.63,-90.94 854.44,-89.59 867.91,-88.27"/>
<polygon fill="midnightblue" stroke="midnightblue" points="826.76,-88.78 817.15,-93.24 827.44,-95.75 826.76,-88.78"/>
</g>
<!-- Node4 -->
<g id="node4" class="node">
<title>Node4</title>
<g id="a_node4"><a xlink:title=" ">
<polygon fill="none" stroke="#bfbfbf" points="416,-87.5 416,-128.5 596,-128.5 596,-87.5 416,-87.5"/>
<text text-anchor="start" x="424" y="-116.5" font-family="Helvetica,sans-Serif" font-size="10.00">std::vector&lt; int16</text>
<text text-anchor="start" x="424" y="-105.5" font-family="Helvetica,sans-Serif" font-size="10.00">_t, rawspeed::DefaultInitAllocator</text>
<text text-anchor="middle" x="506" y="-94.5" font-family="Helvetica,sans-Serif" font-size="10.00">Adaptor&lt; int16_t &gt; &gt;</text>
</a>
</g>
</g>
<!-- Node4&#45;&gt;Node3 -->
<g id="edge3" class="edge">
<title>Node4&#45;&gt;Node3</title>
<path fill="none" stroke="#9a32cd" stroke-dasharray="5,2" d="M606.57,-104.96C623.35,-104.44 640.57,-103.92 656.74,-103.42"/>
<polygon fill="#9a32cd" stroke="#9a32cd" points="606.08,-101.47 596.19,-105.27 606.3,-108.47 606.08,-101.47"/>
<text text-anchor="middle" x="626.5" y="-108" font-family="Helvetica,sans-Serif" font-size="10.00"> data</text>
</g>
<!-- Node5 -->
<g id="node5" class="node">
<title>Node5</title>
<g id="a_node5"><a xlink:href="../../d2/d54/classint16__t.html" target="_top" xlink:title=" ">
<polygon fill="none" stroke="black" points="165.5,-154.5 165.5,-173.5 215.5,-173.5 215.5,-154.5 165.5,-154.5"/>
<text text-anchor="middle" x="190.5" y="-161.5" font-family="Helvetica,sans-Serif" font-size="10.00">int16_t</text>
</a>
</g>
</g>
<!-- Node5&#45;&gt;Node4 -->
<g id="edge4" class="edge">
<title>Node5&#45;&gt;Node4</title>
<path fill="none" stroke="#9a32cd" stroke-dasharray="5,2" d="M225.65,-162.47C266.87,-160.14 338.11,-154.57 398,-142 414.41,-138.56 431.86,-133.59 447.82,-128.51"/>
<polygon fill="#9a32cd" stroke="#9a32cd" points="225.39,-158.98 215.59,-163.01 225.76,-165.97 225.39,-158.98"/>
<text text-anchor="middle" x="328" y="-163" font-family="Helvetica,sans-Serif" font-size="10.00"> elements</text>
</g>
<!-- Node6 -->
<g id="node6" class="node">
<title>Node6</title>
<g id="a_node6"><a xlink:title="STL class.">
<polygon fill="none" stroke="#bfbfbf" points="142,-107.5 142,-126.5 239,-126.5 239,-107.5 142,-107.5"/>
<text text-anchor="middle" x="190.5" y="-114.5" font-family="Helvetica,sans-Serif" font-size="10.00">std::vector&lt; T &gt;</text>
</a>
</g>
</g>
<!-- Node6&#45;&gt;Node4 -->
<g id="edge5" class="edge">
<title>Node6&#45;&gt;Node4</title>
<path fill="none" stroke="orange" stroke-dasharray="5,2" d="M249.19,-109.65C252.17,-109.4 255.12,-109.18 258,-109 310.22,-105.76 368.76,-105.39 415.74,-105.88"/>
<polygon fill="orange" stroke="orange" points="248.65,-106.18 239.03,-110.61 249.31,-113.15 248.65,-106.18"/>
<text text-anchor="start" x="258" y="-134" font-family="Helvetica,sans-Serif" font-size="10.00"> &lt; int16_t, rawspeed</text>
<text text-anchor="start" x="258" y="-123" font-family="Helvetica,sans-Serif" font-size="10.00">::DefaultInitAllocatorAdaptor</text>
<text text-anchor="middle" x="328" y="-112" font-family="Helvetica,sans-Serif" font-size="10.00">&lt; int16_t &gt; &gt;</text>
</g>
<!-- Node7 -->
<g id="node7" class="node">
<title>Node7</title>
<g id="a_node7"><a xlink:title=" ">
<polygon fill="none" stroke="#bfbfbf" points="13.5,-114.5 13.5,-133.5 42.5,-133.5 42.5,-114.5 13.5,-114.5"/>
<text text-anchor="middle" x="28" y="-121.5" font-family="Helvetica,sans-Serif" font-size="10.00">T</text>
</a>
</g>
</g>
<!-- Node7&#45;&gt;Node6 -->
<g id="edge6" class="edge">
<title>Node7&#45;&gt;Node6</title>
<path fill="none" stroke="#9a32cd" stroke-dasharray="5,2" d="M52.75,-122.96C76.16,-121.94 112.59,-120.35 141.97,-119.07"/>
<polygon fill="#9a32cd" stroke="#9a32cd" points="52.52,-119.47 42.68,-123.4 52.83,-126.46 52.52,-119.47"/>
<text text-anchor="middle" x="98.5" y="-125" font-family="Helvetica,sans-Serif" font-size="10.00"> elements</text>
</g>
<!-- Node8 -->
<g id="node8" class="node">
<title>Node8</title>
<g id="a_node8"><a xlink:href="../../dd/da0/classrawspeed_1_1_byte_stream.html" target="_top" xlink:title=" ">
<polygon fill="none" stroke="black" points="673,-45.5 673,-64.5 801,-64.5 801,-45.5 673,-45.5"/>
<text text-anchor="middle" x="737" y="-52.5" font-family="Helvetica,sans-Serif" font-size="10.00">rawspeed::ByteStream</text>
</a>
</g>
</g>
<!-- Node8&#45;&gt;Node2 -->
<g id="edge7" class="edge">
<title>Node8&#45;&gt;Node2</title>
<path fill="none" stroke="#9a32cd" stroke-dasharray="5,2" d="M811.3,-62.84C829.4,-64.77 849.04,-66.87 867.98,-68.9"/>
<polygon fill="#9a32cd" stroke="#9a32cd" points="811.45,-59.33 801.13,-61.75 810.7,-66.29 811.45,-59.33"/>
<text text-anchor="middle" x="842.5" y="-70" font-family="Helvetica,sans-Serif" font-size="10.00"> bs</text>
</g>
<!-- Node9 -->
<g id="node9" class="node">
<title>Node9</title>
<g id="a_node9"><a xlink:href="../../d1/dd4/classrawspeed_1_1_data_buffer.html" target="_top" xlink:title=" ">
<polygon fill="none" stroke="black" points="445,-45.5 445,-64.5 567,-64.5 567,-45.5 445,-45.5"/>
<text text-anchor="middle" x="506" y="-52.5" font-family="Helvetica,sans-Serif" font-size="10.00">rawspeed::DataBuffer</text>
</a>
</g>
</g>
<!-- Node9&#45;&gt;Node8 -->
<g id="edge8" class="edge">
<title>Node9&#45;&gt;Node8</title>
<path fill="none" stroke="midnightblue" d="M577.28,-55C607.7,-55 643.03,-55 672.63,-55"/>
<polygon fill="midnightblue" stroke="midnightblue" points="577.17,-51.5 567.17,-55 577.17,-58.5 577.17,-51.5"/>
</g>
<!-- Node10 -->
<g id="node10" class="node">
<title>Node10</title>
<g id="a_node10"><a xlink:href="../../d3/dca/classrawspeed_1_1_buffer.html" target="_top" xlink:title=" ">
<polygon fill="none" stroke="black" points="141,-45.5 141,-64.5 240,-64.5 240,-45.5 141,-45.5"/>
<text text-anchor="middle" x="190.5" y="-52.5" font-family="Helvetica,sans-Serif" font-size="10.00">rawspeed::Buffer</text>
</a>
</g>
</g>
<!-- Node10&#45;&gt;Node9 -->
<g id="edge9" class="edge">
<title>Node10&#45;&gt;Node9</title>
<path fill="none" stroke="midnightblue" d="M250.19,-55C305.8,-55 388.93,-55 444.97,-55"/>
<polygon fill="midnightblue" stroke="midnightblue" points="250.14,-51.5 240.14,-55 250.14,-58.5 250.14,-51.5"/>
</g>
<!-- Node11 -->
<g id="node11" class="node">
<title>Node11</title>
<g id="a_node11"><a xlink:href="../../d3/d87/classuint32__t.html" target="_top" xlink:title=" ">
<polygon fill="none" stroke="black" points="0,-76.5 0,-95.5 56,-95.5 56,-76.5 0,-76.5"/>
<text text-anchor="middle" x="28" y="-83.5" font-family="Helvetica,sans-Serif" font-size="10.00">uint32_t</text>
</a>
</g>
</g>
<!-- Node11&#45;&gt;Node10 -->
<g id="edge10" class="edge">
<title>Node11&#45;&gt;Node10</title>
<path fill="none" stroke="#9a32cd" stroke-dasharray="5,2" d="M66.24,-78.81C88.39,-74.53 116.75,-69.05 140.68,-64.43"/>
<polygon fill="#9a32cd" stroke="#9a32cd" points="65.38,-75.41 56.23,-80.74 66.71,-82.28 65.38,-75.41"/>
<text text-anchor="middle" x="98.5" y="-80" font-family="Helvetica,sans-Serif" font-size="10.00"> size</text>
</g>
<!-- Node12 -->
<g id="node12" class="node">
<title>Node12</title>
<g id="a_node12"><a xlink:title=" ">
<polygon fill="none" stroke="#bfbfbf" points="9,-38.5 9,-57.5 47,-57.5 47,-38.5 9,-38.5"/>
<text text-anchor="middle" x="28" y="-45.5" font-family="Helvetica,sans-Serif" font-size="10.00">bool</text>
</a>
</g>
</g>
<!-- Node12&#45;&gt;Node10 -->
<g id="edge11" class="edge">
<title>Node12&#45;&gt;Node10</title>
<path fill="none" stroke="#9a32cd" stroke-dasharray="5,2" d="M57.23,-49.23C80.27,-50.24 113.38,-51.68 140.7,-52.87"/>
<polygon fill="#9a32cd" stroke="#9a32cd" points="57.24,-45.73 47.1,-48.79 56.94,-52.72 57.24,-45.73"/>
<text text-anchor="middle" x="98.5" y="-55" font-family="Helvetica,sans-Serif" font-size="10.00"> isOwner</text>
</g>
<!-- Node13 -->
<g id="node13" class="node">
<title>Node13</title>
<g id="a_node13"><a xlink:title=" ">
<polygon fill="none" stroke="#bfbfbf" points="3,-0.5 3,-19.5 53,-19.5 53,-0.5 3,-0.5"/>
<text text-anchor="middle" x="28" y="-7.5" font-family="Helvetica,sans-Serif" font-size="10.00">uint8_t</text>
</a>
</g>
</g>
<!-- Node13&#45;&gt;Node10 -->
<g id="edge12" class="edge">
<title>Node13&#45;&gt;Node10</title>
<path fill="none" stroke="#9a32cd" stroke-dasharray="5,2" d="M63.05,-19.34C80.91,-24.26 103.15,-30.42 123,-36 133.87,-39.05 145.72,-42.43 156.37,-45.47"/>
<polygon fill="#9a32cd" stroke="#9a32cd" points="63.93,-15.96 53.36,-16.68 62.07,-22.71 63.93,-15.96"/>
<text text-anchor="middle" x="98.5" y="-39" font-family="Helvetica,sans-Serif" font-size="10.00"> data</text>
</g>
<!-- Node14 -->
<g id="node14" class="node">
<title>Node14</title>
<g id="a_node14"><a xlink:title=" ">
<polygon fill="none" stroke="#bfbfbf" points="154.5,-7.5 154.5,-26.5 226.5,-26.5 226.5,-7.5 154.5,-7.5"/>
<text text-anchor="middle" x="190.5" y="-14.5" font-family="Helvetica,sans-Serif" font-size="10.00">Endianness</text>
</a>
</g>
</g>
<!-- Node14&#45;&gt;Node9 -->
<g id="edge13" class="edge">
<title>Node14&#45;&gt;Node9</title>
<path fill="none" stroke="#9a32cd" stroke-dasharray="5,2" d="M236.76,-21.67C278.63,-26.07 342.57,-33.03 398,-40 413.17,-41.91 429.52,-44.12 444.77,-46.25"/>
<polygon fill="#9a32cd" stroke="#9a32cd" points="236.92,-18.17 226.61,-20.6 236.19,-25.13 236.92,-18.17"/>
<text text-anchor="middle" x="328" y="-43" font-family="Helvetica,sans-Serif" font-size="10.00"> endianness</text>
</g>
<!-- Node15 -->
<g id="node15" class="node">
<title>Node15</title>
<g id="a_node15"><a xlink:title=" ">
<polygon fill="none" stroke="#bfbfbf" points="474.5,-7.5 474.5,-26.5 537.5,-26.5 537.5,-7.5 474.5,-7.5"/>
<text text-anchor="middle" x="506" y="-14.5" font-family="Helvetica,sans-Serif" font-size="10.00">size_type</text>
</a>
</g>
</g>
<!-- Node15&#45;&gt;Node8 -->
<g id="edge14" class="edge">
<title>Node15&#45;&gt;Node8</title>
<path fill="none" stroke="#9a32cd" stroke-dasharray="5,2" d="M548.11,-23.82C584.43,-29.85 637.78,-38.7 678.36,-45.43"/>
<polygon fill="#9a32cd" stroke="#9a32cd" points="548.32,-20.31 537.88,-22.12 547.18,-27.21 548.32,-20.31"/>
<text text-anchor="middle" x="626.5" y="-42" font-family="Helvetica,sans-Serif" font-size="10.00"> pos</text>
</g>
<!-- Node16 -->
<g id="node16" class="node">
<title>Node16</title>
<g id="a_node16"><a xlink:href="../../d5/df4/classuint16__t.html" target="_top" xlink:title=" ">
<polygon fill="none" stroke="black" points="935.5,-25.5 935.5,-44.5 991.5,-44.5 991.5,-25.5 935.5,-25.5"/>
<text text-anchor="middle" x="963.5" y="-32.5" font-family="Helvetica,sans-Serif" font-size="10.00">uint16_t</text>
</a>
</g>
</g>
<!-- Node16&#45;&gt;Node1 -->
<g id="edge15" class="edge">
<title>Node16&#45;&gt;Node1</title>
<path fill="none" stroke="#9a32cd" stroke-dasharray="5,2" d="M1001.91,-36.63C1047.07,-38.61 1124.26,-41.98 1182.85,-44.54"/>
<polygon fill="#9a32cd" stroke="#9a32cd" points="1001.83,-33.13 991.69,-36.19 1001.53,-40.12 1001.83,-33.13"/>
<text text-anchor="middle" x="1121" y="-47" font-family="Helvetica,sans-Serif" font-size="10.00"> lowpassPrecision</text>
</g>
</g>
</svg>
