<?xml version="1.0" encoding="UTF-8" standalone="no"?>
<!DOCTYPE svg PUBLIC "-//W3C//DTD SVG 1.1//EN"
 "http://www.w3.org/Graphics/SVG/1.1/DTD/svg11.dtd">
<!-- Generated by graphviz version 2.43.0 (0)
 -->
<!-- Title: librawspeed/decompressors/AbstractDecompressor.h Pages: 1 -->
<svg width="5428pt" height="184pt"
 viewBox="0.00 0.00 5428.00 184.00" xmlns="http://www.w3.org/2000/svg" xmlns:xlink="http://www.w3.org/1999/xlink">
<g id="graph0" class="graph" transform="scale(1 1) rotate(0) translate(4 180)">
<title>librawspeed/decompressors/AbstractDecompressor.h</title>
<!-- Node1 -->
<g id="node1" class="node">
<title>Node1</title>
<g id="a_node1"><a xlink:title=" ">
<polygon fill="#bfbfbf" stroke="black" points="3760.5,-145.5 3760.5,-175.5 3913.5,-175.5 3913.5,-145.5 3760.5,-145.5"/>
<text text-anchor="start" x="3768.5" y="-163.5" font-family="Helvetica,sans-Serif" font-size="10.00">librawspeed/decompressors</text>
<text text-anchor="middle" x="3837" y="-152.5" font-family="Helvetica,sans-Serif" font-size="10.00">/AbstractDecompressor.h</text>
</a>
</g>
</g>
<!-- Node2 -->
<g id="node2" class="node">
<title>Node2</title>
<g id="a_node2"><a xlink:href="../../d4/d9e/_crw_decompressor_8h.html" target="_top" xlink:title=" ">
<polygon fill="none" stroke="black" points="237.5,-78.5 237.5,-108.5 390.5,-108.5 390.5,-78.5 237.5,-78.5"/>
<text text-anchor="start" x="245.5" y="-96.5" font-family="Helvetica,sans-Serif" font-size="10.00">librawspeed/decompressors</text>
<text text-anchor="middle" x="314" y="-85.5" font-family="Helvetica,sans-Serif" font-size="10.00">/CrwDecompressor.h</text>
</a>
</g>
</g>
<!-- Node1&#45;&gt;Node2 -->
<g id="edge1" class="edge">
<title>Node1&#45;&gt;Node2</title>
<path fill="none" stroke="midnightblue" d="M3750.15,-158.19C3398.02,-152.85 2042.23,-131.87 927,-109 734.09,-105.04 507.06,-99.42 390.93,-96.48"/>
<polygon fill="midnightblue" stroke="midnightblue" points="3750.23,-161.69 3760.28,-158.35 3750.33,-154.69 3750.23,-161.69"/>
</g>
<!-- Node6 -->
<g id="node6" class="node">
<title>Node6</title>
<g id="a_node6"><a xlink:href="../../d6/d32/_abstract_l_jpeg_decompressor_8h.html" target="_top" xlink:title=" ">
<polygon fill="none" stroke="black" points="936.5,-78.5 936.5,-108.5 1101.5,-108.5 1101.5,-78.5 936.5,-78.5"/>
<text text-anchor="start" x="944.5" y="-96.5" font-family="Helvetica,sans-Serif" font-size="10.00">librawspeed/decompressors</text>
<text text-anchor="middle" x="1019" y="-85.5" font-family="Helvetica,sans-Serif" font-size="10.00">/AbstractLJpegDecompressor.h</text>
</a>
</g>
</g>
<!-- Node1&#45;&gt;Node6 -->
<g id="edge5" class="edge">
<title>Node1&#45;&gt;Node6</title>
<path fill="none" stroke="midnightblue" d="M3750.07,-157.53C3453.71,-150.83 2455.64,-128.21 1631,-109 1441.61,-104.59 1219.25,-99.29 1101.65,-96.48"/>
<polygon fill="midnightblue" stroke="midnightblue" points="3750.24,-161.04 3760.31,-157.77 3750.39,-154.04 3750.24,-161.04"/>
</g>
<!-- Node21 -->
<g id="node12" class="node">
<title>Node21</title>
<g id="a_node12"><a xlink:href="../../d1/d7e/_fuji_decompressor_8h.html" target="_top" xlink:title=" ">
<polygon fill="none" stroke="black" points="1640.5,-78.5 1640.5,-108.5 1793.5,-108.5 1793.5,-78.5 1640.5,-78.5"/>
<text text-anchor="start" x="1648.5" y="-96.5" font-family="Helvetica,sans-Serif" font-size="10.00">librawspeed/decompressors</text>
<text text-anchor="middle" x="1717" y="-85.5" font-family="Helvetica,sans-Serif" font-size="10.00">/FujiDecompressor.h</text>
</a>
</g>
</g>
<!-- Node1&#45;&gt;Node21 -->
<g id="edge11" class="edge">
<title>Node1&#45;&gt;Node21</title>
<path fill="none" stroke="midnightblue" d="M3750.01,-157.25C3495.75,-150.62 2731.81,-130.26 2098,-109 1992.48,-105.46 1870.55,-100.7 1793.62,-97.62"/>
<polygon fill="midnightblue" stroke="midnightblue" points="3750.2,-160.76 3760.29,-157.52 3750.38,-153.76 3750.2,-160.76"/>
</g>
<!-- Node25 -->
<g id="node16" class="node">
<title>Node25</title>
<g id="a_node16"><a xlink:href="../../df/d4e/_kodak_decompressor_8h.html" target="_top" xlink:title=" ">
<polygon fill="none" stroke="black" points="4033.5,-78.5 4033.5,-108.5 4186.5,-108.5 4186.5,-78.5 4033.5,-78.5"/>
<text text-anchor="start" x="4041.5" y="-96.5" font-family="Helvetica,sans-Serif" font-size="10.00">librawspeed/decompressors</text>
<text text-anchor="middle" x="4110" y="-85.5" font-family="Helvetica,sans-Serif" font-size="10.00">/KodakDecompressor.h</text>
</a>
</g>
</g>
<!-- Node1&#45;&gt;Node25 -->
<g id="edge15" class="edge">
<title>Node1&#45;&gt;Node25</title>
<path fill="none" stroke="midnightblue" d="M3905.8,-143.12C3950.47,-132.48 4008.1,-118.76 4050.73,-108.61"/>
<polygon fill="midnightblue" stroke="midnightblue" points="3904.82,-139.75 3895.9,-145.48 3906.44,-146.56 3904.82,-139.75"/>
</g>
<!-- Node29 -->
<g id="node20" class="node">
<title>Node29</title>
<g id="a_node20"><a xlink:href="../../d0/deb/_nikon_decompressor_8h.html" target="_top" xlink:title=" ">
<polygon fill="none" stroke="black" points="2107.5,-78.5 2107.5,-108.5 2260.5,-108.5 2260.5,-78.5 2107.5,-78.5"/>
<text text-anchor="start" x="2115.5" y="-96.5" font-family="Helvetica,sans-Serif" font-size="10.00">librawspeed/decompressors</text>
<text text-anchor="middle" x="2184" y="-85.5" font-family="Helvetica,sans-Serif" font-size="10.00">/NikonDecompressor.h</text>
</a>
</g>
</g>
<!-- Node1&#45;&gt;Node29 -->
<g id="edge19" class="edge">
<title>Node1&#45;&gt;Node29</title>
<path fill="none" stroke="midnightblue" d="M3750.32,-158.63C3519.06,-155.86 2868.22,-145.2 2328,-109 2306.06,-107.53 2282.3,-105.37 2260.52,-103.17"/>
<polygon fill="midnightblue" stroke="midnightblue" points="3750.32,-162.13 3760.36,-158.75 3750.4,-155.13 3750.32,-162.13"/>
</g>
<!-- Node33 -->
<g id="node24" class="node">
<title>Node33</title>
<g id="a_node24"><a xlink:href="../../d4/d4c/_olympus_decompressor_8h.html" target="_top" xlink:title=" ">
<polygon fill="none" stroke="black" points="2602.5,-78.5 2602.5,-108.5 2755.5,-108.5 2755.5,-78.5 2602.5,-78.5"/>
<text text-anchor="start" x="2610.5" y="-96.5" font-family="Helvetica,sans-Serif" font-size="10.00">librawspeed/decompressors</text>
<text text-anchor="middle" x="2679" y="-85.5" font-family="Helvetica,sans-Serif" font-size="10.00">/OlympusDecompressor.h</text>
</a>
</g>
</g>
<!-- Node1&#45;&gt;Node33 -->
<g id="edge23" class="edge">
<title>Node1&#45;&gt;Node33</title>
<path fill="none" stroke="midnightblue" d="M3749.99,-154.62C3531.59,-142.36 2962.92,-110.44 2755.85,-98.81"/>
<polygon fill="midnightblue" stroke="midnightblue" points="3749.94,-158.12 3760.12,-155.18 3750.34,-151.13 3749.94,-158.12"/>
</g>
<!-- Node37 -->
<g id="node28" class="node">
<title>Node37</title>
<g id="a_node28"><a xlink:href="../../db/de8/_panasonic_decompressor_v4_8h.html" target="_top" xlink:title=" ">
<polygon fill="none" stroke="black" points="3120.5,-78.5 3120.5,-108.5 3281.5,-108.5 3281.5,-78.5 3120.5,-78.5"/>
<text text-anchor="start" x="3128.5" y="-96.5" font-family="Helvetica,sans-Serif" font-size="10.00">librawspeed/decompressors</text>
<text text-anchor="middle" x="3201" y="-85.5" font-family="Helvetica,sans-Serif" font-size="10.00">/PanasonicDecompressorV4.h</text>
</a>
</g>
</g>
<!-- Node1&#45;&gt;Node37 -->
<g id="edge27" class="edge">
<title>Node1&#45;&gt;Node37</title>
<path fill="none" stroke="midnightblue" d="M3750.11,-150.62C3626.56,-137.99 3401.83,-115.03 3281.75,-102.75"/>
<polygon fill="midnightblue" stroke="midnightblue" points="3749.98,-154.12 3760.28,-151.66 3750.69,-147.16 3749.98,-154.12"/>
</g>
<!-- Node41 -->
<g id="node32" class="node">
<title>Node41</title>
<g id="a_node32"><a xlink:href="../../de/d9b/_panasonic_decompressor_v5_8h.html" target="_top" xlink:title=" ">
<polygon fill="none" stroke="black" points="3471.5,-78.5 3471.5,-108.5 3632.5,-108.5 3632.5,-78.5 3471.5,-78.5"/>
<text text-anchor="start" x="3479.5" y="-96.5" font-family="Helvetica,sans-Serif" font-size="10.00">librawspeed/decompressors</text>
<text text-anchor="middle" x="3552" y="-85.5" font-family="Helvetica,sans-Serif" font-size="10.00">/PanasonicDecompressorV5.h</text>
</a>
</g>
</g>
<!-- Node1&#45;&gt;Node41 -->
<g id="edge31" class="edge">
<title>Node1&#45;&gt;Node41</title>
<path fill="none" stroke="midnightblue" d="M3765.47,-143.19C3718.79,-132.54 3658.48,-118.78 3613.87,-108.61"/>
<polygon fill="midnightblue" stroke="midnightblue" points="3764.98,-146.66 3775.51,-145.48 3766.54,-139.84 3764.98,-146.66"/>
</g>
<!-- Node44 -->
<g id="node35" class="node">
<title>Node44</title>
<g id="a_node35"><a xlink:href="../../d6/dfa/_panasonic_decompressor_v6_8h.html" target="_top" xlink:title=" ">
<polygon fill="none" stroke="black" points="3756.5,-78.5 3756.5,-108.5 3917.5,-108.5 3917.5,-78.5 3756.5,-78.5"/>
<text text-anchor="start" x="3764.5" y="-96.5" font-family="Helvetica,sans-Serif" font-size="10.00">librawspeed/decompressors</text>
<text text-anchor="middle" x="3837" y="-85.5" font-family="Helvetica,sans-Serif" font-size="10.00">/PanasonicDecompressorV6.h</text>
</a>
</g>
</g>
<!-- Node1&#45;&gt;Node44 -->
<g id="edge35" class="edge">
<title>Node1&#45;&gt;Node44</title>
<path fill="none" stroke="midnightblue" d="M3837,-135.11C3837,-126.15 3837,-116.32 3837,-108.58"/>
<polygon fill="midnightblue" stroke="midnightblue" points="3833.5,-135.4 3837,-145.4 3840.5,-135.4 3833.5,-135.4"/>
</g>
<!-- Node47 -->
<g id="node38" class="node">
<title>Node47</title>
<g id="a_node38"><a xlink:href="../../d1/db7/_pentax_decompressor_8h.html" target="_top" xlink:title=" ">
<polygon fill="none" stroke="black" points="4204.5,-78.5 4204.5,-108.5 4357.5,-108.5 4357.5,-78.5 4204.5,-78.5"/>
<text text-anchor="start" x="4212.5" y="-96.5" font-family="Helvetica,sans-Serif" font-size="10.00">librawspeed/decompressors</text>
<text text-anchor="middle" x="4281" y="-85.5" font-family="Helvetica,sans-Serif" font-size="10.00">/PentaxDecompressor.h</text>
</a>
</g>
</g>
<!-- Node1&#45;&gt;Node47 -->
<g id="edge39" class="edge">
<title>Node1&#45;&gt;Node47</title>
<path fill="none" stroke="midnightblue" d="M3923.57,-147.95C3996.13,-138.11 4102.43,-123.33 4195,-109 4197.99,-108.54 4201.04,-108.06 4204.12,-107.57"/>
<polygon fill="midnightblue" stroke="midnightblue" points="3923,-144.5 3913.56,-149.31 3923.94,-151.43 3923,-144.5"/>
</g>
<!-- Node51 -->
<g id="node42" class="node">
<title>Node51</title>
<g id="a_node42"><a xlink:href="../../d0/d9c/_phase_one_decompressor_8h.html" target="_top" xlink:title=" ">
<polygon fill="none" stroke="red" points="4375.5,-78.5 4375.5,-108.5 4528.5,-108.5 4528.5,-78.5 4375.5,-78.5"/>
<text text-anchor="start" x="4383.5" y="-96.5" font-family="Helvetica,sans-Serif" font-size="10.00">librawspeed/decompressors</text>
<text text-anchor="middle" x="4452" y="-85.5" font-family="Helvetica,sans-Serif" font-size="10.00">/PhaseOneDecompressor.h</text>
</a>
</g>
</g>
<!-- Node1&#45;&gt;Node51 -->
<g id="edge43" class="edge">
<title>Node1&#45;&gt;Node51</title>
<path fill="none" stroke="midnightblue" d="M3924.08,-153.12C4029.1,-144.97 4210.87,-129.46 4366,-109 4369,-108.6 4372.06,-108.18 4375.15,-107.74"/>
<polygon fill="midnightblue" stroke="midnightblue" points="3923.55,-149.65 3913.85,-153.91 3924.09,-156.63 3923.55,-149.65"/>
</g>
<!-- Node55 -->
<g id="node45" class="node">
<title>Node55</title>
<g id="a_node45"><a xlink:href="../../de/dd4/_sony_arw1_decompressor_8h.html" target="_top" xlink:title=" ">
<polygon fill="none" stroke="red" points="4546.5,-78.5 4546.5,-108.5 4699.5,-108.5 4699.5,-78.5 4546.5,-78.5"/>
<text text-anchor="start" x="4554.5" y="-96.5" font-family="Helvetica,sans-Serif" font-size="10.00">librawspeed/decompressors</text>
<text text-anchor="middle" x="4623" y="-85.5" font-family="Helvetica,sans-Serif" font-size="10.00">/SonyArw1Decompressor.h</text>
</a>
</g>
</g>
<!-- Node1&#45;&gt;Node55 -->
<g id="edge46" class="edge">
<title>Node1&#45;&gt;Node55</title>
<path fill="none" stroke="midnightblue" d="M3923.84,-155.96C4056.56,-149.93 4317.68,-135.66 4538,-109 4540.68,-108.68 4543.39,-108.33 4546.14,-107.96"/>
<polygon fill="midnightblue" stroke="midnightblue" points="3923.57,-152.47 3913.73,-156.41 3923.88,-159.46 3923.57,-152.47"/>
</g>
<!-- Node59 -->
<g id="node46" class="node">
<title>Node59</title>
<g id="a_node46"><a xlink:href="../../d0/d1d/_sony_arw2_decompressor_8h.html" target="_top" xlink:title=" ">
<polygon fill="none" stroke="red" points="4717.5,-78.5 4717.5,-108.5 4870.5,-108.5 4870.5,-78.5 4717.5,-78.5"/>
<text text-anchor="start" x="4725.5" y="-96.5" font-family="Helvetica,sans-Serif" font-size="10.00">librawspeed/decompressors</text>
<text text-anchor="middle" x="4794" y="-85.5" font-family="Helvetica,sans-Serif" font-size="10.00">/SonyArw2Decompressor.h</text>
</a>
</g>
</g>
<!-- Node1&#45;&gt;Node59 -->
<g id="edge47" class="edge">
<title>Node1&#45;&gt;Node59</title>
<path fill="none" stroke="midnightblue" d="M3923.72,-157.67C4080.78,-153.64 4422.61,-141.62 4709,-109 4711.68,-108.7 4714.4,-108.36 4717.14,-108"/>
<polygon fill="midnightblue" stroke="midnightblue" points="3923.55,-154.17 3913.64,-157.92 3923.73,-161.17 3923.55,-154.17"/>
</g>
<!-- Node62 -->
<g id="node47" class="node">
<title>Node62</title>
<g id="a_node47"><a xlink:href="../../d1/d9c/_v_c5_decompressor_8h.html" target="_top" xlink:title=" ">
<polygon fill="none" stroke="red" points="4888.5,-78.5 4888.5,-108.5 5041.5,-108.5 5041.5,-78.5 4888.5,-78.5"/>
<text text-anchor="start" x="4896.5" y="-96.5" font-family="Helvetica,sans-Serif" font-size="10.00">librawspeed/decompressors</text>
<text text-anchor="middle" x="4965" y="-85.5" font-family="Helvetica,sans-Serif" font-size="10.00">/VC5Decompressor.h</text>
</a>
</g>
</g>
<!-- Node1&#45;&gt;Node62 -->
<g id="edge48" class="edge">
<title>Node1&#45;&gt;Node62</title>
<path fill="none" stroke="midnightblue" d="M3923.96,-158.83C4103.27,-156.66 4526.87,-147.53 4880,-109 4882.68,-108.71 4885.4,-108.38 4888.15,-108.04"/>
<polygon fill="midnightblue" stroke="midnightblue" points="3923.76,-155.33 3913.8,-158.95 3923.84,-162.33 3923.76,-155.33"/>
</g>
<!-- Node65 -->
<g id="node48" class="node">
<title>Node65</title>
<g id="a_node48"><a xlink:href="../../da/dda/_uncompressed_decompressor_8h.html" target="_top" xlink:title=" ">
<polygon fill="none" stroke="red" points="2337.5,-78.5 2337.5,-108.5 2508.5,-108.5 2508.5,-78.5 2337.5,-78.5"/>
<text text-anchor="start" x="2345.5" y="-96.5" font-family="Helvetica,sans-Serif" font-size="10.00">librawspeed/decompressors</text>
<text text-anchor="middle" x="2423" y="-85.5" font-family="Helvetica,sans-Serif" font-size="10.00">/UncompressedDecompressor.h</text>
</a>
</g>
</g>
<!-- Node1&#45;&gt;Node65 -->
<g id="edge49" class="edge">
<title>Node1&#45;&gt;Node65</title>
<path fill="none" stroke="midnightblue" d="M3750.21,-157.31C3547.5,-151.89 3027.15,-136.31 2593,-109 2565.51,-107.27 2535.55,-104.88 2508.56,-102.55"/>
<polygon fill="midnightblue" stroke="midnightblue" points="3750.41,-160.81 3760.5,-157.58 3750.59,-153.82 3750.41,-160.81"/>
</g>
<!-- Node75 -->
<g id="node49" class="node">
<title>Node75</title>
<g id="a_node49"><a xlink:href="../../d9/d8e/_abstract_dng_decompressor_8h.html" target="_top" xlink:title=" ">
<polygon fill="none" stroke="red" points="5060,-78.5 5060,-108.5 5218,-108.5 5218,-78.5 5060,-78.5"/>
<text text-anchor="start" x="5068" y="-96.5" font-family="Helvetica,sans-Serif" font-size="10.00">librawspeed/decompressors</text>
<text text-anchor="middle" x="5139" y="-85.5" font-family="Helvetica,sans-Serif" font-size="10.00">/AbstractDngDecompressor.h</text>
</a>
</g>
</g>
<!-- Node1&#45;&gt;Node75 -->
<g id="edge54" class="edge">
<title>Node1&#45;&gt;Node75</title>
<path fill="none" stroke="midnightblue" d="M3923.71,-159.51C4123.21,-158.74 4629.98,-152.28 5051,-109 5053.93,-108.7 5056.9,-108.36 5059.91,-108"/>
<polygon fill="midnightblue" stroke="midnightblue" points="3923.57,-156.01 3913.58,-159.54 3923.59,-163.01 3923.57,-156.01"/>
</g>
<!-- Node77 -->
<g id="node50" class="node">
<title>Node77</title>
<g id="a_node50"><a xlink:href="../../d9/d57/_abstract_samsung_decompressor_8h.html" target="_top" xlink:title=" ">
<polygon fill="none" stroke="red" points="5236,-78.5 5236,-108.5 5420,-108.5 5420,-78.5 5236,-78.5"/>
<text text-anchor="start" x="5244" y="-96.5" font-family="Helvetica,sans-Serif" font-size="10.00">librawspeed/decompressors</text>
<text text-anchor="middle" x="5328" y="-85.5" font-family="Helvetica,sans-Serif" font-size="10.00">/AbstractSamsungDecompressor.h</text>
</a>
</g>
</g>
<!-- Node1&#45;&gt;Node77 -->
<g id="edge55" class="edge">
<title>Node1&#45;&gt;Node77</title>
<path fill="none" stroke="midnightblue" d="M3923.79,-159.55C4142.8,-158.97 4735.44,-153.09 5227,-109 5229.91,-108.74 5232.87,-108.45 5235.85,-108.14"/>
<polygon fill="midnightblue" stroke="midnightblue" points="3923.64,-156.05 3913.65,-159.57 3923.66,-163.05 3923.64,-156.05"/>
</g>
<!-- Node3 -->
<g id="node3" class="node">
<title>Node3</title>
<g id="a_node3"><a xlink:href="../../de/da7/fuzz_2librawspeed_2decompressors_2_crw_decompressor_8cpp.html" target="_top" xlink:title=" ">
<polygon fill="none" stroke="black" points="0,-0.5 0,-41.5 156,-41.5 156,-0.5 0,-0.5"/>
<text text-anchor="start" x="8" y="-29.5" font-family="Helvetica,sans-Serif" font-size="10.00">/build/rawspeed/fuzz</text>
<text text-anchor="start" x="8" y="-18.5" font-family="Helvetica,sans-Serif" font-size="10.00">/librawspeed/decompressors</text>
<text text-anchor="middle" x="78" y="-7.5" font-family="Helvetica,sans-Serif" font-size="10.00">/CrwDecompressor.cpp</text>
</a>
</g>
</g>
<!-- Node2&#45;&gt;Node3 -->
<g id="edge2" class="edge">
<title>Node2&#45;&gt;Node3</title>
<path fill="none" stroke="midnightblue" d="M257.25,-75.55C223.03,-65.32 179.29,-52.26 143.58,-41.59"/>
<polygon fill="midnightblue" stroke="midnightblue" points="256.51,-78.98 267.09,-78.49 258.51,-72.27 256.51,-78.98"/>
</g>
<!-- Node4 -->
<g id="node4" class="node">
<title>Node4</title>
<g id="a_node4"><a xlink:href="../../d0/dc9/_crw_decoder_8cpp.html" target="_top" xlink:title=" ">
<polygon fill="none" stroke="black" points="174.5,-6 174.5,-36 297.5,-36 297.5,-6 174.5,-6"/>
<text text-anchor="start" x="182.5" y="-24" font-family="Helvetica,sans-Serif" font-size="10.00">librawspeed/decoders</text>
<text text-anchor="middle" x="236" y="-13" font-family="Helvetica,sans-Serif" font-size="10.00">/CrwDecoder.cpp</text>
</a>
</g>
</g>
<!-- Node2&#45;&gt;Node4 -->
<g id="edge3" class="edge">
<title>Node2&#45;&gt;Node4</title>
<path fill="none" stroke="midnightblue" d="M290.73,-71.46C278.05,-60 262.7,-46.14 251.49,-36"/>
<polygon fill="midnightblue" stroke="midnightblue" points="288.45,-74.12 298.22,-78.23 293.14,-68.93 288.45,-74.12"/>
</g>
<!-- Node5 -->
<g id="node5" class="node">
<title>Node5</title>
<g id="a_node5"><a xlink:href="../../d0/d91/src_2librawspeed_2decompressors_2_crw_decompressor_8cpp.html" target="_top" xlink:title=" ">
<polygon fill="none" stroke="black" points="315.5,-6 315.5,-36 468.5,-36 468.5,-6 315.5,-6"/>
<text text-anchor="start" x="323.5" y="-24" font-family="Helvetica,sans-Serif" font-size="10.00">librawspeed/decompressors</text>
<text text-anchor="middle" x="392" y="-13" font-family="Helvetica,sans-Serif" font-size="10.00">/CrwDecompressor.cpp</text>
</a>
</g>
</g>
<!-- Node2&#45;&gt;Node5 -->
<g id="edge4" class="edge">
<title>Node2&#45;&gt;Node5</title>
<path fill="none" stroke="midnightblue" d="M337.27,-71.46C349.95,-60 365.3,-46.14 376.51,-36"/>
<polygon fill="midnightblue" stroke="midnightblue" points="334.86,-68.93 329.78,-78.23 339.55,-74.12 334.86,-68.93"/>
</g>
<!-- Node7 -->
<g id="node7" class="node">
<title>Node7</title>
<g id="a_node7"><a xlink:href="../../dc/d52/_cr2_decompressor_8h.html" target="_top" xlink:title=" ">
<polygon fill="none" stroke="red" points="1216.5,-6 1216.5,-36 1369.5,-36 1369.5,-6 1216.5,-6"/>
<text text-anchor="start" x="1224.5" y="-24" font-family="Helvetica,sans-Serif" font-size="10.00">librawspeed/decompressors</text>
<text text-anchor="middle" x="1293" y="-13" font-family="Helvetica,sans-Serif" font-size="10.00">/Cr2Decompressor.h</text>
</a>
</g>
</g>
<!-- Node6&#45;&gt;Node7 -->
<g id="edge6" class="edge">
<title>Node6&#45;&gt;Node7</title>
<path fill="none" stroke="midnightblue" d="M1083.24,-75.97C1130.3,-63.86 1193.49,-47.6 1238.17,-36.11"/>
<polygon fill="midnightblue" stroke="midnightblue" points="1082.27,-72.61 1073.46,-78.49 1084.02,-79.38 1082.27,-72.61"/>
</g>
<!-- Node11 -->
<g id="node8" class="node">
<title>Node11</title>
<g id="a_node8"><a xlink:href="../../d2/dc6/_dummy_l_jpeg_decompressor_8cpp.html" target="_top" xlink:title=" ">
<polygon fill="none" stroke="black" points="486.5,-0.5 486.5,-41.5 661.5,-41.5 661.5,-0.5 486.5,-0.5"/>
<text text-anchor="start" x="494.5" y="-29.5" font-family="Helvetica,sans-Serif" font-size="10.00">/build/rawspeed/fuzz</text>
<text text-anchor="start" x="494.5" y="-18.5" font-family="Helvetica,sans-Serif" font-size="10.00">/librawspeed/decompressors</text>
<text text-anchor="middle" x="574" y="-7.5" font-family="Helvetica,sans-Serif" font-size="10.00">/DummyLJpegDecompressor.cpp</text>
</a>
</g>
</g>
<!-- Node6&#45;&gt;Node11 -->
<g id="edge7" class="edge">
<title>Node6&#45;&gt;Node11</title>
<path fill="none" stroke="midnightblue" d="M926.09,-80.64C855.63,-71.27 756.48,-57.25 670,-42 667.23,-41.51 664.43,-41 661.59,-40.48"/>
<polygon fill="midnightblue" stroke="midnightblue" points="925.89,-84.15 936.27,-81.99 926.81,-77.21 925.89,-84.15"/>
</g>
<!-- Node12 -->
<g id="node9" class="node">
<title>Node12</title>
<g id="a_node9"><a xlink:href="../../d7/dc7/_hasselblad_decompressor_8h.html" target="_top" xlink:title=" ">
<polygon fill="none" stroke="red" points="679.5,-6 679.5,-36 832.5,-36 832.5,-6 679.5,-6"/>
<text text-anchor="start" x="687.5" y="-24" font-family="Helvetica,sans-Serif" font-size="10.00">librawspeed/decompressors</text>
<text text-anchor="middle" x="756" y="-13" font-family="Helvetica,sans-Serif" font-size="10.00">/HasselbladDecompressor.h</text>
</a>
</g>
</g>
<!-- Node6&#45;&gt;Node12 -->
<g id="edge8" class="edge">
<title>Node6&#45;&gt;Node12</title>
<path fill="none" stroke="midnightblue" d="M957.05,-75.89C911.91,-63.79 851.43,-47.58 808.63,-36.11"/>
<polygon fill="midnightblue" stroke="midnightblue" points="956.16,-79.28 966.73,-78.49 957.97,-72.52 956.16,-79.28"/>
</g>
<!-- Node16 -->
<g id="node10" class="node">
<title>Node16</title>
<g id="a_node10"><a xlink:href="../../d8/d3d/_l_jpeg_decompressor_8h.html" target="_top" xlink:title=" ">
<polygon fill="none" stroke="red" points="850.5,-6 850.5,-36 1003.5,-36 1003.5,-6 850.5,-6"/>
<text text-anchor="start" x="858.5" y="-24" font-family="Helvetica,sans-Serif" font-size="10.00">librawspeed/decompressors</text>
<text text-anchor="middle" x="927" y="-13" font-family="Helvetica,sans-Serif" font-size="10.00">/LJpegDecompressor.h</text>
</a>
</g>
</g>
<!-- Node6&#45;&gt;Node16 -->
<g id="edge9" class="edge">
<title>Node6&#45;&gt;Node16</title>
<path fill="none" stroke="midnightblue" d="M992.39,-72.11C977.28,-60.53 958.75,-46.33 945.28,-36"/>
<polygon fill="midnightblue" stroke="midnightblue" points="990.32,-74.93 1000.38,-78.23 994.57,-69.37 990.32,-74.93"/>
</g>
<!-- Node20 -->
<g id="node11" class="node">
<title>Node20</title>
<g id="a_node11"><a xlink:href="../../d7/d5e/_abstract_l_jpeg_decompressor_8cpp.html" target="_top" xlink:title=" ">
<polygon fill="none" stroke="black" points="1022,-6 1022,-36 1198,-36 1198,-6 1022,-6"/>
<text text-anchor="start" x="1030" y="-24" font-family="Helvetica,sans-Serif" font-size="10.00">librawspeed/decompressors</text>
<text text-anchor="middle" x="1110" y="-13" font-family="Helvetica,sans-Serif" font-size="10.00">/AbstractLJpegDecompressor.cpp</text>
</a>
</g>
</g>
<!-- Node6&#45;&gt;Node20 -->
<g id="edge10" class="edge">
<title>Node6&#45;&gt;Node20</title>
<path fill="none" stroke="midnightblue" d="M1045.74,-71.79C1060.61,-60.27 1078.72,-46.23 1091.92,-36"/>
<polygon fill="midnightblue" stroke="midnightblue" points="1043.18,-69.34 1037.42,-78.23 1047.46,-74.88 1043.18,-69.34"/>
</g>
<!-- Node22 -->
<g id="node13" class="node">
<title>Node22</title>
<g id="a_node13"><a xlink:href="../../da/d77/fuzz_2librawspeed_2decompressors_2_fuji_decompressor_8cpp.html" target="_top" xlink:title=" ">
<polygon fill="none" stroke="black" points="1388,-0.5 1388,-41.5 1544,-41.5 1544,-0.5 1388,-0.5"/>
<text text-anchor="start" x="1396" y="-29.5" font-family="Helvetica,sans-Serif" font-size="10.00">/build/rawspeed/fuzz</text>
<text text-anchor="start" x="1396" y="-18.5" font-family="Helvetica,sans-Serif" font-size="10.00">/librawspeed/decompressors</text>
<text text-anchor="middle" x="1466" y="-7.5" font-family="Helvetica,sans-Serif" font-size="10.00">/FujiDecompressor.cpp</text>
</a>
</g>
</g>
<!-- Node21&#45;&gt;Node22 -->
<g id="edge12" class="edge">
<title>Node21&#45;&gt;Node22</title>
<path fill="none" stroke="midnightblue" d="M1657.11,-75.68C1620.64,-65.44 1573.89,-52.3 1535.75,-41.59"/>
<polygon fill="midnightblue" stroke="midnightblue" points="1656.54,-79.15 1667.11,-78.49 1658.43,-72.41 1656.54,-79.15"/>
</g>
<!-- Node23 -->
<g id="node14" class="node">
<title>Node23</title>
<g id="a_node14"><a xlink:href="../../d8/df8/_raf_decoder_8cpp.html" target="_top" xlink:title=" ">
<polygon fill="none" stroke="black" points="1733.5,-6 1733.5,-36 1856.5,-36 1856.5,-6 1733.5,-6"/>
<text text-anchor="start" x="1741.5" y="-24" font-family="Helvetica,sans-Serif" font-size="10.00">librawspeed/decoders</text>
<text text-anchor="middle" x="1795" y="-13" font-family="Helvetica,sans-Serif" font-size="10.00">/RafDecoder.cpp</text>
</a>
</g>
</g>
<!-- Node21&#45;&gt;Node23 -->
<g id="edge13" class="edge">
<title>Node21&#45;&gt;Node23</title>
<path fill="none" stroke="midnightblue" d="M1740.27,-71.46C1752.95,-60 1768.3,-46.14 1779.51,-36"/>
<polygon fill="midnightblue" stroke="midnightblue" points="1737.86,-68.93 1732.78,-78.23 1742.55,-74.12 1737.86,-68.93"/>
</g>
<!-- Node24 -->
<g id="node15" class="node">
<title>Node24</title>
<g id="a_node15"><a xlink:href="../../d2/d5d/src_2librawspeed_2decompressors_2_fuji_decompressor_8cpp.html" target="_top" xlink:title=" ">
<polygon fill="none" stroke="black" points="1562.5,-6 1562.5,-36 1715.5,-36 1715.5,-6 1562.5,-6"/>
<text text-anchor="start" x="1570.5" y="-24" font-family="Helvetica,sans-Serif" font-size="10.00">librawspeed/decompressors</text>
<text text-anchor="middle" x="1639" y="-13" font-family="Helvetica,sans-Serif" font-size="10.00">/FujiDecompressor.cpp</text>
</a>
</g>
</g>
<!-- Node21&#45;&gt;Node24 -->
<g id="edge14" class="edge">
<title>Node21&#45;&gt;Node24</title>
<path fill="none" stroke="midnightblue" d="M1693.73,-71.46C1681.05,-60 1665.7,-46.14 1654.49,-36"/>
<polygon fill="midnightblue" stroke="midnightblue" points="1691.45,-74.12 1701.22,-78.23 1696.14,-68.93 1691.45,-74.12"/>
</g>
<!-- Node26 -->
<g id="node17" class="node">
<title>Node26</title>
<g id="a_node17"><a xlink:href="../../d4/dec/fuzz_2librawspeed_2decompressors_2_kodak_decompressor_8cpp.html" target="_top" xlink:title=" ">
<polygon fill="none" stroke="black" points="4131,-0.5 4131,-41.5 4287,-41.5 4287,-0.5 4131,-0.5"/>
<text text-anchor="start" x="4139" y="-29.5" font-family="Helvetica,sans-Serif" font-size="10.00">/build/rawspeed/fuzz</text>
<text text-anchor="start" x="4139" y="-18.5" font-family="Helvetica,sans-Serif" font-size="10.00">/librawspeed/decompressors</text>
<text text-anchor="middle" x="4209" y="-7.5" font-family="Helvetica,sans-Serif" font-size="10.00">/KodakDecompressor.cpp</text>
</a>
</g>
</g>
<!-- Node25&#45;&gt;Node26 -->
<g id="edge16" class="edge">
<title>Node25&#45;&gt;Node26</title>
<path fill="none" stroke="midnightblue" d="M4138.49,-72.21C4152.01,-62.58 4168.1,-51.12 4181.49,-41.59"/>
<polygon fill="midnightblue" stroke="midnightblue" points="4136.15,-69.58 4130.03,-78.23 4140.21,-75.28 4136.15,-69.58"/>
</g>
<!-- Node27 -->
<g id="node18" class="node">
<title>Node27</title>
<g id="a_node18"><a xlink:href="../../d7/d36/_dcr_decoder_8cpp.html" target="_top" xlink:title=" ">
<polygon fill="none" stroke="black" points="4305.5,-6 4305.5,-36 4428.5,-36 4428.5,-6 4305.5,-6"/>
<text text-anchor="start" x="4313.5" y="-24" font-family="Helvetica,sans-Serif" font-size="10.00">librawspeed/decoders</text>
<text text-anchor="middle" x="4367" y="-13" font-family="Helvetica,sans-Serif" font-size="10.00">/DcrDecoder.cpp</text>
</a>
</g>
</g>
<!-- Node25&#45;&gt;Node27 -->
<g id="edge17" class="edge">
<title>Node25&#45;&gt;Node27</title>
<path fill="none" stroke="midnightblue" d="M4172.07,-75.81C4208.24,-66.04 4254.73,-53.41 4296,-42 4302.91,-40.09 4310.2,-38.06 4317.36,-36.05"/>
<polygon fill="midnightblue" stroke="midnightblue" points="4170.89,-72.5 4162.15,-78.48 4172.72,-79.26 4170.89,-72.5"/>
</g>
<!-- Node28 -->
<g id="node19" class="node">
<title>Node28</title>
<g id="a_node19"><a xlink:href="../../d3/d43/src_2librawspeed_2decompressors_2_kodak_decompressor_8cpp.html" target="_top" xlink:title=" ">
<polygon fill="none" stroke="black" points="4446.5,-6 4446.5,-36 4599.5,-36 4599.5,-6 4446.5,-6"/>
<text text-anchor="start" x="4454.5" y="-24" font-family="Helvetica,sans-Serif" font-size="10.00">librawspeed/decompressors</text>
<text text-anchor="middle" x="4523" y="-13" font-family="Helvetica,sans-Serif" font-size="10.00">/KodakDecompressor.cpp</text>
</a>
</g>
</g>
<!-- Node25&#45;&gt;Node28 -->
<g id="edge18" class="edge">
<title>Node25&#45;&gt;Node28</title>
<path fill="none" stroke="midnightblue" d="M4196.83,-77.74C4304.08,-60.92 4333.31,-61.74 4437,-42 4446.19,-40.25 4455.88,-38.2 4465.31,-36.09"/>
<polygon fill="midnightblue" stroke="midnightblue" points="4196.23,-74.29 4186.9,-79.31 4197.32,-81.2 4196.23,-74.29"/>
</g>
<!-- Node30 -->
<g id="node21" class="node">
<title>Node30</title>
<g id="a_node21"><a xlink:href="../../d8/de1/fuzz_2librawspeed_2decompressors_2_nikon_decompressor_8cpp.html" target="_top" xlink:title=" ">
<polygon fill="none" stroke="black" points="1875,-0.5 1875,-41.5 2031,-41.5 2031,-0.5 1875,-0.5"/>
<text text-anchor="start" x="1883" y="-29.5" font-family="Helvetica,sans-Serif" font-size="10.00">/build/rawspeed/fuzz</text>
<text text-anchor="start" x="1883" y="-18.5" font-family="Helvetica,sans-Serif" font-size="10.00">/librawspeed/decompressors</text>
<text text-anchor="middle" x="1953" y="-7.5" font-family="Helvetica,sans-Serif" font-size="10.00">/NikonDecompressor.cpp</text>
</a>
</g>
</g>
<!-- Node29&#45;&gt;Node30 -->
<g id="edge20" class="edge">
<title>Node29&#45;&gt;Node30</title>
<path fill="none" stroke="midnightblue" d="M2128.45,-75.55C2094.95,-65.32 2052.14,-52.26 2017.19,-41.59"/>
<polygon fill="midnightblue" stroke="midnightblue" points="2127.5,-78.92 2138.09,-78.49 2129.54,-72.22 2127.5,-78.92"/>
</g>
<!-- Node31 -->
<g id="node22" class="node">
<title>Node31</title>
<g id="a_node22"><a xlink:href="../../de/dd6/_nef_decoder_8cpp.html" target="_top" xlink:title=" ">
<polygon fill="none" stroke="black" points="2220.5,-6 2220.5,-36 2343.5,-36 2343.5,-6 2220.5,-6"/>
<text text-anchor="start" x="2228.5" y="-24" font-family="Helvetica,sans-Serif" font-size="10.00">librawspeed/decoders</text>
<text text-anchor="middle" x="2282" y="-13" font-family="Helvetica,sans-Serif" font-size="10.00">/NefDecoder.cpp</text>
</a>
</g>
</g>
<!-- Node29&#45;&gt;Node31 -->
<g id="edge21" class="edge">
<title>Node29&#45;&gt;Node31</title>
<path fill="none" stroke="midnightblue" d="M2212.34,-72.11C2228.44,-60.53 2248.18,-46.33 2262.53,-36"/>
<polygon fill="midnightblue" stroke="midnightblue" points="2209.91,-69.55 2203.83,-78.23 2213.99,-75.23 2209.91,-69.55"/>
</g>
<!-- Node32 -->
<g id="node23" class="node">
<title>Node32</title>
<g id="a_node23"><a xlink:href="../../d8/d08/src_2librawspeed_2decompressors_2_nikon_decompressor_8cpp.html" target="_top" xlink:title=" ">
<polygon fill="none" stroke="black" points="2049.5,-6 2049.5,-36 2202.5,-36 2202.5,-6 2049.5,-6"/>
<text text-anchor="start" x="2057.5" y="-24" font-family="Helvetica,sans-Serif" font-size="10.00">librawspeed/decompressors</text>
<text text-anchor="middle" x="2126" y="-13" font-family="Helvetica,sans-Serif" font-size="10.00">/NikonDecompressor.cpp</text>
</a>
</g>
</g>
<!-- Node29&#45;&gt;Node32 -->
<g id="edge22" class="edge">
<title>Node29&#45;&gt;Node32</title>
<path fill="none" stroke="midnightblue" d="M2165.66,-70.21C2156.52,-59.1 2145.73,-45.99 2137.72,-36.25"/>
<polygon fill="midnightblue" stroke="midnightblue" points="2163.21,-72.73 2172.26,-78.23 2168.61,-68.29 2163.21,-72.73"/>
</g>
<!-- Node34 -->
<g id="node25" class="node">
<title>Node34</title>
<g id="a_node25"><a xlink:href="../../d9/dd0/fuzz_2librawspeed_2decompressors_2_olympus_decompressor_8cpp.html" target="_top" xlink:title=" ">
<polygon fill="none" stroke="black" points="2503,-0.5 2503,-41.5 2659,-41.5 2659,-0.5 2503,-0.5"/>
<text text-anchor="start" x="2511" y="-29.5" font-family="Helvetica,sans-Serif" font-size="10.00">/build/rawspeed/fuzz</text>
<text text-anchor="start" x="2511" y="-18.5" font-family="Helvetica,sans-Serif" font-size="10.00">/librawspeed/decompressors</text>
<text text-anchor="middle" x="2581" y="-7.5" font-family="Helvetica,sans-Serif" font-size="10.00">/OlympusDecompressor.cpp</text>
</a>
</g>
</g>
<!-- Node33&#45;&gt;Node34 -->
<g id="edge24" class="edge">
<title>Node33&#45;&gt;Node34</title>
<path fill="none" stroke="midnightblue" d="M2650.79,-72.21C2637.41,-62.58 2621.49,-51.12 2608.23,-41.59"/>
<polygon fill="midnightblue" stroke="midnightblue" points="2649.01,-75.23 2659.17,-78.23 2653.09,-69.55 2649.01,-75.23"/>
</g>
<!-- Node35 -->
<g id="node26" class="node">
<title>Node35</title>
<g id="a_node26"><a xlink:href="../../de/d5b/_orf_decoder_8cpp.html" target="_top" xlink:title=" ">
<polygon fill="none" stroke="black" points="2361.5,-6 2361.5,-36 2484.5,-36 2484.5,-6 2361.5,-6"/>
<text text-anchor="start" x="2369.5" y="-24" font-family="Helvetica,sans-Serif" font-size="10.00">librawspeed/decoders</text>
<text text-anchor="middle" x="2423" y="-13" font-family="Helvetica,sans-Serif" font-size="10.00">/OrfDecoder.cpp</text>
</a>
</g>
</g>
<!-- Node33&#45;&gt;Node35 -->
<g id="edge25" class="edge">
<title>Node33&#45;&gt;Node35</title>
<path fill="none" stroke="midnightblue" d="M2617.27,-75.78C2581.29,-66.01 2535.06,-53.39 2494,-42 2487.09,-40.08 2479.8,-38.05 2472.64,-36.04"/>
<polygon fill="midnightblue" stroke="midnightblue" points="2616.57,-79.22 2627.14,-78.46 2618.4,-72.46 2616.57,-79.22"/>
</g>
<!-- Node36 -->
<g id="node27" class="node">
<title>Node36</title>
<g id="a_node27"><a xlink:href="../../d2/d18/src_2librawspeed_2decompressors_2_olympus_decompressor_8cpp.html" target="_top" xlink:title=" ">
<polygon fill="none" stroke="black" points="2677.5,-6 2677.5,-36 2830.5,-36 2830.5,-6 2677.5,-6"/>
<text text-anchor="start" x="2685.5" y="-24" font-family="Helvetica,sans-Serif" font-size="10.00">librawspeed/decompressors</text>
<text text-anchor="middle" x="2754" y="-13" font-family="Helvetica,sans-Serif" font-size="10.00">/OlympusDecompressor.cpp</text>
</a>
</g>
</g>
<!-- Node33&#45;&gt;Node36 -->
<g id="edge26" class="edge">
<title>Node33&#45;&gt;Node36</title>
<path fill="none" stroke="midnightblue" d="M2701.72,-71.14C2713.85,-59.74 2728.42,-46.04 2739.1,-36"/>
<polygon fill="midnightblue" stroke="midnightblue" points="2699.07,-68.83 2694.18,-78.23 2703.86,-73.93 2699.07,-68.83"/>
</g>
<!-- Node38 -->
<g id="node29" class="node">
<title>Node38</title>
<g id="a_node29"><a xlink:href="../../dd/d5a/fuzz_2librawspeed_2decompressors_2_panasonic_decompressor_v4_8cpp.html" target="_top" xlink:title=" ">
<polygon fill="none" stroke="black" points="2849,-0.5 2849,-41.5 3021,-41.5 3021,-0.5 2849,-0.5"/>
<text text-anchor="start" x="2857" y="-29.5" font-family="Helvetica,sans-Serif" font-size="10.00">/build/rawspeed/fuzz</text>
<text text-anchor="start" x="2857" y="-18.5" font-family="Helvetica,sans-Serif" font-size="10.00">/librawspeed/decompressors</text>
<text text-anchor="middle" x="2935" y="-7.5" font-family="Helvetica,sans-Serif" font-size="10.00">/PanasonicDecompressorV4.cpp</text>
</a>
</g>
</g>
<!-- Node37&#45;&gt;Node38 -->
<g id="edge28" class="edge">
<title>Node37&#45;&gt;Node38</title>
<path fill="none" stroke="midnightblue" d="M3138.01,-75.8C3099.21,-65.52 3049.3,-52.29 3008.67,-41.53"/>
<polygon fill="midnightblue" stroke="midnightblue" points="3137.57,-79.31 3148.13,-78.49 3139.36,-72.54 3137.57,-79.31"/>
</g>
<!-- Node39 -->
<g id="node30" class="node">
<title>Node39</title>
<g id="a_node30"><a xlink:href="../../da/daf/_rw2_decoder_8cpp.html" target="_top" xlink:title=" ">
<polygon fill="none" stroke="black" points="3229.5,-6 3229.5,-36 3352.5,-36 3352.5,-6 3229.5,-6"/>
<text text-anchor="start" x="3237.5" y="-24" font-family="Helvetica,sans-Serif" font-size="10.00">librawspeed/decoders</text>
<text text-anchor="middle" x="3291" y="-13" font-family="Helvetica,sans-Serif" font-size="10.00">/Rw2Decoder.cpp</text>
</a>
</g>
</g>
<!-- Node37&#45;&gt;Node39 -->
<g id="edge29" class="edge">
<title>Node37&#45;&gt;Node39</title>
<path fill="none" stroke="midnightblue" d="M3227.44,-71.79C3242.15,-60.27 3260.06,-46.23 3273.12,-36"/>
<polygon fill="midnightblue" stroke="midnightblue" points="3224.93,-69.31 3219.21,-78.23 3229.24,-74.82 3224.93,-69.31"/>
</g>
<!-- Node40 -->
<g id="node31" class="node">
<title>Node40</title>
<g id="a_node31"><a xlink:href="../../dd/d13/src_2librawspeed_2decompressors_2_panasonic_decompressor_v4_8cpp.html" target="_top" xlink:title=" ">
<polygon fill="none" stroke="black" points="3039,-6 3039,-36 3211,-36 3211,-6 3039,-6"/>
<text text-anchor="start" x="3047" y="-24" font-family="Helvetica,sans-Serif" font-size="10.00">librawspeed/decompressors</text>
<text text-anchor="middle" x="3125" y="-13" font-family="Helvetica,sans-Serif" font-size="10.00">/PanasonicDecompressorV4.cpp</text>
</a>
</g>
</g>
<!-- Node37&#45;&gt;Node40 -->
<g id="edge30" class="edge">
<title>Node37&#45;&gt;Node40</title>
<path fill="none" stroke="midnightblue" d="M3177.97,-71.14C3165.69,-59.74 3150.92,-46.04 3140.1,-36"/>
<polygon fill="midnightblue" stroke="midnightblue" points="3175.91,-74 3185.62,-78.23 3180.67,-68.87 3175.91,-74"/>
</g>
<!-- Node41&#45;&gt;Node39 -->
<g id="edge33" class="edge">
<title>Node41&#45;&gt;Node39</title>
<path fill="none" stroke="midnightblue" d="M3488.18,-75.79C3451.28,-66.06 3403.98,-53.49 3362,-42 3355.08,-40.11 3347.79,-38.08 3340.63,-36.08"/>
<polygon fill="midnightblue" stroke="midnightblue" points="3487.74,-79.29 3498.3,-78.45 3489.52,-72.52 3487.74,-79.29"/>
</g>
<!-- Node42 -->
<g id="node33" class="node">
<title>Node42</title>
<g id="a_node33"><a xlink:href="../../df/d7b/fuzz_2librawspeed_2decompressors_2_panasonic_decompressor_v5_8cpp.html" target="_top" xlink:title=" ">
<polygon fill="none" stroke="black" points="3371,-0.5 3371,-41.5 3543,-41.5 3543,-0.5 3371,-0.5"/>
<text text-anchor="start" x="3379" y="-29.5" font-family="Helvetica,sans-Serif" font-size="10.00">/build/rawspeed/fuzz</text>
<text text-anchor="start" x="3379" y="-18.5" font-family="Helvetica,sans-Serif" font-size="10.00">/librawspeed/decompressors</text>
<text text-anchor="middle" x="3457" y="-7.5" font-family="Helvetica,sans-Serif" font-size="10.00">/PanasonicDecompressorV5.cpp</text>
</a>
</g>
</g>
<!-- Node41&#45;&gt;Node42 -->
<g id="edge32" class="edge">
<title>Node41&#45;&gt;Node42</title>
<path fill="none" stroke="midnightblue" d="M3524.66,-72.21C3511.68,-62.58 3496.25,-51.12 3483.4,-41.59"/>
<polygon fill="midnightblue" stroke="midnightblue" points="3522.66,-75.08 3532.78,-78.23 3526.83,-69.46 3522.66,-75.08"/>
</g>
<!-- Node43 -->
<g id="node34" class="node">
<title>Node43</title>
<g id="a_node34"><a xlink:href="../../dd/da0/src_2librawspeed_2decompressors_2_panasonic_decompressor_v5_8cpp.html" target="_top" xlink:title=" ">
<polygon fill="none" stroke="black" points="3561,-6 3561,-36 3733,-36 3733,-6 3561,-6"/>
<text text-anchor="start" x="3569" y="-24" font-family="Helvetica,sans-Serif" font-size="10.00">librawspeed/decompressors</text>
<text text-anchor="middle" x="3647" y="-13" font-family="Helvetica,sans-Serif" font-size="10.00">/PanasonicDecompressorV5.cpp</text>
</a>
</g>
</g>
<!-- Node41&#45;&gt;Node43 -->
<g id="edge34" class="edge">
<title>Node41&#45;&gt;Node43</title>
<path fill="none" stroke="midnightblue" d="M3579.48,-72.11C3595.08,-60.53 3614.22,-46.33 3628.13,-36"/>
<polygon fill="midnightblue" stroke="midnightblue" points="3577.17,-69.46 3571.22,-78.23 3581.34,-75.08 3577.17,-69.46"/>
</g>
<!-- Node44&#45;&gt;Node39 -->
<g id="edge37" class="edge">
<title>Node44&#45;&gt;Node39</title>
<path fill="none" stroke="midnightblue" d="M3746.12,-84.68C3629.38,-74.31 3433.31,-55.73 3362,-42 3353.7,-40.4 3344.96,-38.3 3336.56,-36.06"/>
<polygon fill="midnightblue" stroke="midnightblue" points="3745.85,-88.17 3756.12,-85.56 3746.47,-81.2 3745.85,-88.17"/>
</g>
<!-- Node45 -->
<g id="node36" class="node">
<title>Node45</title>
<g id="a_node36"><a xlink:href="../../d1/df7/fuzz_2librawspeed_2decompressors_2_panasonic_decompressor_v6_8cpp.html" target="_top" xlink:title=" ">
<polygon fill="none" stroke="black" points="3751,-0.5 3751,-41.5 3923,-41.5 3923,-0.5 3751,-0.5"/>
<text text-anchor="start" x="3759" y="-29.5" font-family="Helvetica,sans-Serif" font-size="10.00">/build/rawspeed/fuzz</text>
<text text-anchor="start" x="3759" y="-18.5" font-family="Helvetica,sans-Serif" font-size="10.00">/librawspeed/decompressors</text>
<text text-anchor="middle" x="3837" y="-7.5" font-family="Helvetica,sans-Serif" font-size="10.00">/PanasonicDecompressorV6.cpp</text>
</a>
</g>
</g>
<!-- Node44&#45;&gt;Node45 -->
<g id="edge36" class="edge">
<title>Node44&#45;&gt;Node45</title>
<path fill="none" stroke="midnightblue" d="M3837,-67.98C3837,-59.35 3837,-49.76 3837,-41.59"/>
<polygon fill="midnightblue" stroke="midnightblue" points="3833.5,-68.23 3837,-78.23 3840.5,-68.23 3833.5,-68.23"/>
</g>
<!-- Node46 -->
<g id="node37" class="node">
<title>Node46</title>
<g id="a_node37"><a xlink:href="../../d6/ddc/src_2librawspeed_2decompressors_2_panasonic_decompressor_v6_8cpp.html" target="_top" xlink:title=" ">
<polygon fill="none" stroke="black" points="3941,-6 3941,-36 4113,-36 4113,-6 3941,-6"/>
<text text-anchor="start" x="3949" y="-24" font-family="Helvetica,sans-Serif" font-size="10.00">librawspeed/decompressors</text>
<text text-anchor="middle" x="4027" y="-13" font-family="Helvetica,sans-Serif" font-size="10.00">/PanasonicDecompressorV6.cpp</text>
</a>
</g>
</g>
<!-- Node44&#45;&gt;Node46 -->
<g id="edge38" class="edge">
<title>Node44&#45;&gt;Node46</title>
<path fill="none" stroke="midnightblue" d="M3884.68,-74.81C3916.97,-62.83 3959.06,-47.21 3989.07,-36.07"/>
<polygon fill="midnightblue" stroke="midnightblue" points="3883.15,-71.64 3874.99,-78.4 3885.59,-78.21 3883.15,-71.64"/>
</g>
<!-- Node48 -->
<g id="node39" class="node">
<title>Node48</title>
<g id="a_node39"><a xlink:href="../../d5/def/fuzz_2librawspeed_2decompressors_2_pentax_decompressor_8cpp.html" target="_top" xlink:title=" ">
<polygon fill="none" stroke="black" points="4618,-0.5 4618,-41.5 4774,-41.5 4774,-0.5 4618,-0.5"/>
<text text-anchor="start" x="4626" y="-29.5" font-family="Helvetica,sans-Serif" font-size="10.00">/build/rawspeed/fuzz</text>
<text text-anchor="start" x="4626" y="-18.5" font-family="Helvetica,sans-Serif" font-size="10.00">/librawspeed/decompressors</text>
<text text-anchor="middle" x="4696" y="-7.5" font-family="Helvetica,sans-Serif" font-size="10.00">/PentaxDecompressor.cpp</text>
</a>
</g>
</g>
<!-- Node47&#45;&gt;Node48 -->
<g id="edge40" class="edge">
<title>Node47&#45;&gt;Node48</title>
<path fill="none" stroke="midnightblue" d="M4367.86,-77.73C4475.52,-60.88 4504.86,-61.65 4609,-42 4611.89,-41.45 4614.84,-40.88 4617.81,-40.28"/>
<polygon fill="midnightblue" stroke="midnightblue" points="4367.23,-74.29 4357.9,-79.3 4368.32,-81.2 4367.23,-74.29"/>
</g>
<!-- Node49 -->
<g id="node40" class="node">
<title>Node49</title>
<g id="a_node40"><a xlink:href="../../de/d0c/_pef_decoder_8cpp.html" target="_top" xlink:title=" ">
<polygon fill="none" stroke="black" points="4792.5,-6 4792.5,-36 4915.5,-36 4915.5,-6 4792.5,-6"/>
<text text-anchor="start" x="4800.5" y="-24" font-family="Helvetica,sans-Serif" font-size="10.00">librawspeed/decoders</text>
<text text-anchor="middle" x="4854" y="-13" font-family="Helvetica,sans-Serif" font-size="10.00">/PefDecoder.cpp</text>
</a>
</g>
</g>
<!-- Node47&#45;&gt;Node49 -->
<g id="edge41" class="edge">
<title>Node47&#45;&gt;Node49</title>
<path fill="none" stroke="midnightblue" d="M4367.9,-77.83C4552.29,-55.06 4603.21,-74.78 4783,-42 4791.44,-40.46 4800.33,-38.36 4808.85,-36.09"/>
<polygon fill="midnightblue" stroke="midnightblue" points="4367.35,-74.37 4357.87,-79.09 4368.23,-81.32 4367.35,-74.37"/>
</g>
<!-- Node50 -->
<g id="node41" class="node">
<title>Node50</title>
<g id="a_node41"><a xlink:href="../../d0/d89/src_2librawspeed_2decompressors_2_pentax_decompressor_8cpp.html" target="_top" xlink:title=" ">
<polygon fill="none" stroke="black" points="4933.5,-6 4933.5,-36 5086.5,-36 5086.5,-6 4933.5,-6"/>
<text text-anchor="start" x="4941.5" y="-24" font-family="Helvetica,sans-Serif" font-size="10.00">librawspeed/decompressors</text>
<text text-anchor="middle" x="5010" y="-13" font-family="Helvetica,sans-Serif" font-size="10.00">/PentaxDecompressor.cpp</text>
</a>
</g>
</g>
<!-- Node47&#45;&gt;Node50 -->
<g id="edge42" class="edge">
<title>Node47&#45;&gt;Node50</title>
<path fill="none" stroke="midnightblue" d="M4367.86,-77.86C4615.03,-49.8 4682,-78.16 4925,-42 4935.2,-40.48 4945.97,-38.36 4956.3,-36.06"/>
<polygon fill="midnightblue" stroke="midnightblue" points="4367.39,-74.39 4357.86,-79.02 4368.19,-81.35 4367.39,-74.39"/>
</g>
<!-- Node52 -->
<g id="node43" class="node">
<title>Node52</title>
<g id="a_node43"><a xlink:href="../../d9/d5a/fuzz_2librawspeed_2decompressors_2_phase_one_decompressor_8cpp.html" target="_top" xlink:title=" ">
<polygon fill="none" stroke="black" points="5105,-0.5 5105,-41.5 5263,-41.5 5263,-0.5 5105,-0.5"/>
<text text-anchor="start" x="5113" y="-29.5" font-family="Helvetica,sans-Serif" font-size="10.00">/build/rawspeed/fuzz</text>
<text text-anchor="start" x="5113" y="-18.5" font-family="Helvetica,sans-Serif" font-size="10.00">/librawspeed/decompressors</text>
<text text-anchor="middle" x="5184" y="-7.5" font-family="Helvetica,sans-Serif" font-size="10.00">/PhaseOneDecompressor.cpp</text>
</a>
</g>
</g>
<!-- Node51&#45;&gt;Node52 -->
<g id="edge44" class="edge">
<title>Node51&#45;&gt;Node52</title>
<path fill="none" stroke="midnightblue" d="M4538.87,-77.99C4786.6,-50.04 4853.3,-77.18 5096,-42 5098.95,-41.57 5101.94,-41.1 5104.96,-40.59"/>
<polygon fill="midnightblue" stroke="midnightblue" points="4538.37,-74.53 4528.84,-79.14 4539.17,-81.48 4538.37,-74.53"/>
</g>
<!-- Node53 -->
<g id="node44" class="node">
<title>Node53</title>
<g id="a_node44"><a xlink:href="../../dc/d32/_iiq_decoder_8cpp.html" target="_top" xlink:title=" ">
<polygon fill="none" stroke="black" points="5281.5,-6 5281.5,-36 5404.5,-36 5404.5,-6 5281.5,-6"/>
<text text-anchor="start" x="5289.5" y="-24" font-family="Helvetica,sans-Serif" font-size="10.00">librawspeed/decoders</text>
<text text-anchor="middle" x="5343" y="-13" font-family="Helvetica,sans-Serif" font-size="10.00">/IiqDecoder.cpp</text>
</a>
</g>
</g>
<!-- Node51&#45;&gt;Node53 -->
<g id="edge45" class="edge">
<title>Node51&#45;&gt;Node53</title>
<path fill="none" stroke="midnightblue" d="M4539.02,-78C4864.52,-43.84 4952.96,-94.07 5272,-42 5280.85,-40.56 5290.16,-38.41 5299.03,-36.04"/>
<polygon fill="midnightblue" stroke="midnightblue" points="4538.4,-74.54 4528.83,-79.08 4539.15,-81.5 4538.4,-74.54"/>
</g>
<!-- Node65&#45;&gt;Node23 -->
<g id="edge52" class="edge">
<title>Node65&#45;&gt;Node23</title>
<path fill="none" stroke="midnightblue" d="M2327.45,-83.43C2308.1,-81.62 2287.9,-79.73 2269,-78 2089.93,-61.57 2042.86,-74.52 1866,-42 1857.56,-40.45 1848.68,-38.34 1840.16,-36.07"/>
<polygon fill="midnightblue" stroke="midnightblue" points="2327.19,-86.92 2337.48,-84.37 2327.85,-79.95 2327.19,-86.92"/>
</g>
<!-- Node65&#45;&gt;Node31 -->
<g id="edge50" class="edge">
<title>Node65&#45;&gt;Node31</title>
<path fill="none" stroke="midnightblue" d="M2385.75,-73.87C2362.05,-62.02 2331.84,-46.92 2310.15,-36.07"/>
<polygon fill="midnightblue" stroke="midnightblue" points="2384.3,-77.06 2394.81,-78.4 2387.43,-70.8 2384.3,-77.06"/>
</g>
<!-- Node65&#45;&gt;Node35 -->
<g id="edge51" class="edge">
<title>Node65&#45;&gt;Node35</title>
<path fill="none" stroke="midnightblue" d="M2423,-68.23C2423,-57.57 2423,-45.41 2423,-36.25"/>
<polygon fill="midnightblue" stroke="midnightblue" points="2419.5,-68.23 2423,-78.23 2426.5,-68.23 2419.5,-68.23"/>
</g>
<!-- Node65&#45;&gt;Node39 -->
<g id="edge53" class="edge">
<title>Node65&#45;&gt;Node39</title>
<path fill="none" stroke="midnightblue" d="M2518.83,-83.86C2543.02,-81.81 2568.96,-79.72 2593,-78 2871.42,-58.14 2944.71,-88.11 3220,-42 3228.71,-40.54 3237.89,-38.41 3246.64,-36.09"/>
<polygon fill="midnightblue" stroke="midnightblue" points="2518.24,-80.4 2508.58,-84.73 2518.84,-87.37 2518.24,-80.4"/>
</g>
</g>
</svg>
