<?xml version="1.0" encoding="UTF-8" standalone="no"?>
<!DOCTYPE svg PUBLIC "-//W3C//DTD SVG 1.1//EN"
 "http://www.w3.org/Graphics/SVG/1.1/DTD/svg11.dtd">
<!-- Generated by graphviz version 2.43.0 (0)
 -->
<!-- Title: rawspeed::SamsungV2Decompressor::decompressRow Pages: 1 -->
<svg width="534pt" height="88pt"
 viewBox="0.00 0.00 534.00 88.00" xmlns="http://www.w3.org/2000/svg" xmlns:xlink="http://www.w3.org/1999/xlink">
<g id="graph0" class="graph" transform="scale(1 1) rotate(0) translate(4 84)">
<title>rawspeed::SamsungV2Decompressor::decompressRow</title>
<!-- Node1 -->
<g id="node1" class="node">
<title>Node1</title>
<g id="a_node1"><a xlink:title=" ">
<polygon fill="#bfbfbf" stroke="black" points="0,-24.5 0,-54.5 198,-54.5 198,-24.5 0,-24.5"/>
<text text-anchor="start" x="8" y="-42.5" font-family="Helvetica,sans-Serif" font-size="10.00">rawspeed::SamsungV2Decompressor</text>
<text text-anchor="middle" x="99" y="-31.5" font-family="Helvetica,sans-Serif" font-size="10.00">::decompressRow</text>
</a>
</g>
</g>
<!-- Node2 -->
<g id="node2" class="node">
<title>Node2</title>
<g id="a_node2"><a xlink:href="../../dd/da0/classrawspeed_1_1_byte_stream.html#adca9133f43b10d0047764d6a9fe1e142" target="_top" xlink:title=" ">
<polygon fill="none" stroke="black" points="234,-49.5 234,-79.5 362,-79.5 362,-49.5 234,-49.5"/>
<text text-anchor="start" x="242" y="-67.5" font-family="Helvetica,sans-Serif" font-size="10.00">rawspeed::ByteStream</text>
<text text-anchor="middle" x="298" y="-56.5" font-family="Helvetica,sans-Serif" font-size="10.00">::getPosition</text>
</a>
</g>
</g>
<!-- Node1&#45;&gt;Node2 -->
<g id="edge1" class="edge">
<title>Node1&#45;&gt;Node2</title>
<path fill="none" stroke="midnightblue" d="M198.21,-51.96C206.84,-53.06 215.48,-54.15 223.86,-55.22"/>
<polygon fill="midnightblue" stroke="midnightblue" points="223.56,-58.71 233.92,-56.5 224.44,-51.76 223.56,-58.71"/>
</g>
<!-- Node4 -->
<g id="node4" class="node">
<title>Node4</title>
<g id="a_node4"><a xlink:href="../../dd/da0/classrawspeed_1_1_byte_stream.html#ab77bbfb370f041df54b9b67e0d8ff711" target="_top" xlink:title=" ">
<polygon fill="none" stroke="black" points="234,-0.5 234,-30.5 362,-30.5 362,-0.5 234,-0.5"/>
<text text-anchor="start" x="242" y="-18.5" font-family="Helvetica,sans-Serif" font-size="10.00">rawspeed::ByteStream</text>
<text text-anchor="middle" x="298" y="-7.5" font-family="Helvetica,sans-Serif" font-size="10.00">::skipBytes</text>
</a>
</g>
</g>
<!-- Node1&#45;&gt;Node4 -->
<g id="edge3" class="edge">
<title>Node1&#45;&gt;Node4</title>
<path fill="none" stroke="midnightblue" d="M198.21,-27.54C206.84,-26.48 215.48,-25.43 223.86,-24.41"/>
<polygon fill="midnightblue" stroke="midnightblue" points="224.42,-27.87 233.92,-23.18 223.57,-20.92 224.42,-27.87"/>
</g>
<!-- Node3 -->
<g id="node3" class="node">
<title>Node3</title>
<g id="a_node3"><a xlink:href="../../dd/da0/classrawspeed_1_1_byte_stream.html#a33bbb3baf3bb9730f9da8765175ec4ce" target="_top" xlink:title=" ">
<polygon fill="none" stroke="black" points="398,-24.5 398,-54.5 526,-54.5 526,-24.5 398,-24.5"/>
<text text-anchor="start" x="406" y="-42.5" font-family="Helvetica,sans-Serif" font-size="10.00">rawspeed::ByteStream</text>
<text text-anchor="middle" x="462" y="-31.5" font-family="Helvetica,sans-Serif" font-size="10.00">::check</text>
</a>
</g>
</g>
<!-- Node2&#45;&gt;Node3 -->
<g id="edge2" class="edge">
<title>Node2&#45;&gt;Node3</title>
<path fill="none" stroke="midnightblue" d="M362.1,-54.76C370.53,-53.46 379.23,-52.12 387.81,-50.79"/>
<polygon fill="midnightblue" stroke="midnightblue" points="388.46,-54.24 397.81,-49.25 387.39,-47.32 388.46,-54.24"/>
</g>
<!-- Node4&#45;&gt;Node3 -->
<g id="edge4" class="edge">
<title>Node4&#45;&gt;Node3</title>
<path fill="none" stroke="midnightblue" d="M362.1,-24.85C370.53,-26.1 379.23,-27.39 387.81,-28.66"/>
<polygon fill="midnightblue" stroke="midnightblue" points="387.4,-32.13 397.81,-30.14 388.43,-25.21 387.4,-32.13"/>
</g>
</g>
</svg>
