<?xml version="1.0" encoding="UTF-8" standalone="no"?>
<!DOCTYPE svg PUBLIC "-//W3C//DTD SVG 1.1//EN"
 "http://www.w3.org/Graphics/SVG/1.1/DTD/svg11.dtd">
<!-- Generated by graphviz version 2.43.0 (0)
 -->
<!-- Title: rawspeed::TiffRootIFD Pages: 1 -->
<svg width="1048pt" height="314pt"
 viewBox="0.00 0.00 1048.00 314.00" xmlns="http://www.w3.org/2000/svg" xmlns:xlink="http://www.w3.org/1999/xlink">
<g id="graph0" class="graph" transform="scale(1 1) rotate(0) translate(4 310)">
<title>rawspeed::TiffRootIFD</title>
<!-- Node1 -->
<g id="node1" class="node">
<title>Node1</title>
<g id="a_node1"><a xlink:title=" ">
<polygon fill="#bfbfbf" stroke="black" points="917,-80.5 917,-99.5 1040,-99.5 1040,-80.5 917,-80.5"/>
<text text-anchor="middle" x="978.5" y="-87.5" font-family="Helvetica,sans-Serif" font-size="10.00">rawspeed::TiffRootIFD</text>
</a>
</g>
</g>
<!-- Node2 -->
<g id="node2" class="node">
<title>Node2</title>
<g id="a_node2"><a xlink:href="../../db/d6a/classrawspeed_1_1_tiff_i_f_d.html" target="_top" xlink:title=" ">
<polygon fill="none" stroke="black" points="717.5,-122.5 717.5,-141.5 818.5,-141.5 818.5,-122.5 717.5,-122.5"/>
<text text-anchor="middle" x="768" y="-129.5" font-family="Helvetica,sans-Serif" font-size="10.00">rawspeed::TiffIFD</text>
</a>
</g>
</g>
<!-- Node2&#45;&gt;Node1 -->
<g id="edge1" class="edge">
<title>Node2&#45;&gt;Node1</title>
<path fill="none" stroke="midnightblue" d="M826.16,-120.49C858.77,-113.92 899.16,-105.78 930.01,-99.57"/>
<polygon fill="midnightblue" stroke="midnightblue" points="825.42,-117.06 816.31,-122.47 826.81,-123.93 825.42,-117.06"/>
</g>
<!-- Node2&#45;&gt;Node2 -->
<g id="edge2" class="edge">
<title>Node2&#45;&gt;Node2</title>
<path fill="none" stroke="#9a32cd" stroke-dasharray="5,2" d="M748.74,-151.4C750.03,-156.31 756.45,-160 768,-160 786.48,-160 791.83,-150.57 784.03,-141.76"/>
<polygon fill="#9a32cd" stroke="#9a32cd" points="752.11,-152.35 751.97,-141.76 745.48,-150.13 752.11,-152.35"/>
<text text-anchor="middle" x="768" y="-163" font-family="Helvetica,sans-Serif" font-size="10.00"> parent</text>
</g>
<!-- Node3 -->
<g id="node3" class="node">
<title>Node3</title>
<g id="a_node3"><a xlink:title=" ">
<polygon fill="none" stroke="#bfbfbf" points="405,-257.5 405,-276.5 559,-276.5 559,-257.5 405,-257.5"/>
<text text-anchor="middle" x="482" y="-264.5" font-family="Helvetica,sans-Serif" font-size="10.00">std::vector&lt; TiffIFDOwner &gt;</text>
</a>
</g>
</g>
<!-- Node3&#45;&gt;Node2 -->
<g id="edge3" class="edge">
<title>Node3&#45;&gt;Node2</title>
<path fill="none" stroke="#9a32cd" stroke-dasharray="5,2" d="M522.55,-254.15C564.88,-239.73 633.44,-214.48 689,-185 713.59,-171.95 739.91,-152.86 754.83,-141.51"/>
<polygon fill="#9a32cd" stroke="#9a32cd" points="521.26,-250.89 512.9,-257.4 523.49,-257.52 521.26,-250.89"/>
<text text-anchor="middle" x="633" y="-236" font-family="Helvetica,sans-Serif" font-size="10.00"> subIFDs</text>
</g>
<!-- Node4 -->
<g id="node4" class="node">
<title>Node4</title>
<g id="a_node4"><a xlink:title="STL class.">
<polygon fill="none" stroke="#bfbfbf" points="114,-242.5 114,-261.5 232,-261.5 232,-242.5 114,-242.5"/>
<text text-anchor="middle" x="173" y="-249.5" font-family="Helvetica,sans-Serif" font-size="10.00">std::unique_ptr&lt; T &gt;</text>
</a>
</g>
</g>
<!-- Node4&#45;&gt;Node3 -->
<g id="edge4" class="edge">
<title>Node4&#45;&gt;Node3</title>
<path fill="none" stroke="#9a32cd" stroke-dasharray="5,2" d="M242.13,-255.33C290.31,-257.68 354.95,-260.84 404.84,-263.28"/>
<polygon fill="#9a32cd" stroke="#9a32cd" points="242.26,-251.83 232.11,-254.84 241.92,-258.82 242.26,-251.83"/>
<text text-anchor="middle" x="318.5" y="-265" font-family="Helvetica,sans-Serif" font-size="10.00"> elements</text>
</g>
<!-- Node7 -->
<g id="node7" class="node">
<title>Node7</title>
<g id="a_node7"><a xlink:title=" ">
<polygon fill="none" stroke="#bfbfbf" points="429,-176 429,-206 535,-206 535,-176 429,-176"/>
<text text-anchor="start" x="437" y="-194" font-family="Helvetica,sans-Serif" font-size="10.00">std::map&lt; TiffTag,</text>
<text text-anchor="middle" x="482" y="-183" font-family="Helvetica,sans-Serif" font-size="10.00"> TiffEntryOwner &gt;</text>
</a>
</g>
</g>
<!-- Node4&#45;&gt;Node7 -->
<g id="edge9" class="edge">
<title>Node4&#45;&gt;Node7</title>
<path fill="none" stroke="#9a32cd" stroke-dasharray="5,2" d="M235.21,-240.55C277.81,-232.49 335.92,-221.35 387,-211 400.57,-208.25 415.23,-205.18 428.83,-202.29"/>
<polygon fill="#9a32cd" stroke="#9a32cd" points="234.45,-237.13 225.27,-242.42 235.75,-244.01 234.45,-237.13"/>
<text text-anchor="middle" x="318.5" y="-240" font-family="Helvetica,sans-Serif" font-size="10.00"> elements</text>
</g>
<!-- Node5 -->
<g id="node5" class="node">
<title>Node5</title>
<g id="a_node5"><a xlink:title=" ">
<polygon fill="none" stroke="#bfbfbf" points="0,-242.5 0,-261.5 29,-261.5 29,-242.5 0,-242.5"/>
<text text-anchor="middle" x="14.5" y="-249.5" font-family="Helvetica,sans-Serif" font-size="10.00">T</text>
</a>
</g>
</g>
<!-- Node5&#45;&gt;Node4 -->
<g id="edge5" class="edge">
<title>Node5&#45;&gt;Node4</title>
<path fill="none" stroke="#9a32cd" stroke-dasharray="5,2" d="M39.32,-252C59.06,-252 87.96,-252 113.75,-252"/>
<polygon fill="#9a32cd" stroke="#9a32cd" points="39.11,-248.5 29.11,-252 39.11,-255.5 39.11,-248.5"/>
<text text-anchor="middle" x="71.5" y="-255" font-family="Helvetica,sans-Serif" font-size="10.00"> ptr</text>
</g>
<!-- Node6 -->
<g id="node6" class="node">
<title>Node6</title>
<g id="a_node6"><a xlink:title="STL class.">
<polygon fill="none" stroke="#bfbfbf" points="124.5,-286.5 124.5,-305.5 221.5,-305.5 221.5,-286.5 124.5,-286.5"/>
<text text-anchor="middle" x="173" y="-293.5" font-family="Helvetica,sans-Serif" font-size="10.00">std::vector&lt; T &gt;</text>
</a>
</g>
</g>
<!-- Node5&#45;&gt;Node6 -->
<g id="edge7" class="edge">
<title>Node5&#45;&gt;Node6</title>
<path fill="none" stroke="#9a32cd" stroke-dasharray="5,2" d="M38.36,-263.59C41.23,-264.83 44.16,-266.01 47,-267 72.03,-275.75 100.8,-282.63 124.42,-287.49"/>
<polygon fill="#9a32cd" stroke="#9a32cd" points="39.57,-260.29 29.03,-259.23 36.61,-266.63 39.57,-260.29"/>
<text text-anchor="middle" x="71.5" y="-283" font-family="Helvetica,sans-Serif" font-size="10.00"> elements</text>
</g>
<!-- Node9 -->
<g id="node9" class="node">
<title>Node9</title>
<g id="a_node9"><a xlink:title="STL class.">
<polygon fill="none" stroke="#bfbfbf" points="122.5,-153.5 122.5,-172.5 223.5,-172.5 223.5,-153.5 122.5,-153.5"/>
<text text-anchor="middle" x="173" y="-160.5" font-family="Helvetica,sans-Serif" font-size="10.00">std::map&lt; K, T &gt;</text>
</a>
</g>
</g>
<!-- Node5&#45;&gt;Node9 -->
<g id="edge13" class="edge">
<title>Node5&#45;&gt;Node9</title>
<path fill="none" stroke="#9a32cd" stroke-dasharray="5,2" d="M34.49,-235.85C53.55,-220.3 84.28,-196.99 114,-182 121.19,-178.37 129.22,-175.22 136.96,-172.59"/>
<polygon fill="#9a32cd" stroke="#9a32cd" points="32.06,-233.31 26.6,-242.39 36.53,-238.7 32.06,-233.31"/>
<text text-anchor="middle" x="71.5" y="-227" font-family="Helvetica,sans-Serif" font-size="10.00"> elements</text>
</g>
<!-- Node6&#45;&gt;Node3 -->
<g id="edge6" class="edge">
<title>Node6&#45;&gt;Node3</title>
<path fill="none" stroke="orange" stroke-dasharray="5,2" d="M231.79,-291.11C274.64,-287.42 334.49,-282.13 387,-277 392.8,-276.43 398.8,-275.83 404.83,-275.21"/>
<polygon fill="orange" stroke="orange" points="231.48,-287.63 221.82,-291.97 232.08,-294.6 231.48,-287.63"/>
<text text-anchor="middle" x="318.5" y="-292" font-family="Helvetica,sans-Serif" font-size="10.00"> &lt; TiffIFDOwner &gt;</text>
</g>
<!-- Node7&#45;&gt;Node2 -->
<g id="edge8" class="edge">
<title>Node7&#45;&gt;Node2</title>
<path fill="none" stroke="#9a32cd" stroke-dasharray="5,2" d="M545.05,-178.11C598.04,-167.1 673.06,-151.51 720.88,-141.58"/>
<polygon fill="#9a32cd" stroke="#9a32cd" points="544.17,-174.72 535.09,-180.18 545.59,-181.57 544.17,-174.72"/>
<text text-anchor="middle" x="633" y="-173" font-family="Helvetica,sans-Serif" font-size="10.00"> entries</text>
</g>
<!-- Node8 -->
<g id="node8" class="node">
<title>Node8</title>
<g id="a_node8"><a xlink:title=" ">
<polygon fill="none" stroke="#bfbfbf" points="148.5,-191.5 148.5,-210.5 197.5,-210.5 197.5,-191.5 148.5,-191.5"/>
<text text-anchor="middle" x="173" y="-198.5" font-family="Helvetica,sans-Serif" font-size="10.00">TiffTag</text>
</a>
</g>
</g>
<!-- Node8&#45;&gt;Node7 -->
<g id="edge10" class="edge">
<title>Node8&#45;&gt;Node7</title>
<path fill="none" stroke="#9a32cd" stroke-dasharray="5,2" d="M207.88,-199.9C261.38,-198.15 365.79,-194.75 428.88,-192.7"/>
<polygon fill="#9a32cd" stroke="#9a32cd" points="207.46,-196.41 197.58,-200.23 207.69,-203.4 207.46,-196.41"/>
<text text-anchor="middle" x="318.5" y="-201" font-family="Helvetica,sans-Serif" font-size="10.00"> keys</text>
</g>
<!-- Node9&#45;&gt;Node7 -->
<g id="edge11" class="edge">
<title>Node9&#45;&gt;Node7</title>
<path fill="none" stroke="orange" stroke-dasharray="5,2" d="M233.79,-166.66C276.52,-169.47 335.36,-173.77 387,-179 400.59,-180.38 415.24,-182.12 428.85,-183.85"/>
<polygon fill="orange" stroke="orange" points="233.77,-163.15 223.56,-165.99 233.31,-170.13 233.77,-163.15"/>
<text text-anchor="middle" x="318.5" y="-182" font-family="Helvetica,sans-Serif" font-size="10.00"> &lt; TiffTag, TiffEntryOwner &gt;</text>
</g>
<!-- Node10 -->
<g id="node10" class="node">
<title>Node10</title>
<g id="a_node10"><a xlink:title=" ">
<polygon fill="none" stroke="#bfbfbf" points="0,-153.5 0,-172.5 29,-172.5 29,-153.5 0,-153.5"/>
<text text-anchor="middle" x="14.5" y="-160.5" font-family="Helvetica,sans-Serif" font-size="10.00">K</text>
</a>
</g>
</g>
<!-- Node10&#45;&gt;Node9 -->
<g id="edge12" class="edge">
<title>Node10&#45;&gt;Node9</title>
<path fill="none" stroke="#9a32cd" stroke-dasharray="5,2" d="M39.19,-163C61.16,-163 94.54,-163 122.35,-163"/>
<polygon fill="#9a32cd" stroke="#9a32cd" points="39.11,-159.5 29.11,-163 39.11,-166.5 39.11,-159.5"/>
<text text-anchor="middle" x="71.5" y="-166" font-family="Helvetica,sans-Serif" font-size="10.00"> keys</text>
</g>
<!-- Node11 -->
<g id="node11" class="node">
<title>Node11</title>
<g id="a_node11"><a xlink:href="../../d3/d87/classuint32__t.html" target="_top" xlink:title=" ">
<polygon fill="none" stroke="black" points="145,-109.5 145,-128.5 201,-128.5 201,-109.5 145,-109.5"/>
<text text-anchor="middle" x="173" y="-116.5" font-family="Helvetica,sans-Serif" font-size="10.00">uint32_t</text>
</a>
</g>
</g>
<!-- Node11&#45;&gt;Node2 -->
<g id="edge14" class="edge">
<title>Node11&#45;&gt;Node2</title>
<path fill="none" stroke="#9a32cd" stroke-dasharray="5,2" d="M211.21,-119.82C313.91,-122.07 601.34,-128.37 717.43,-130.91"/>
<polygon fill="#9a32cd" stroke="#9a32cd" points="211.1,-116.31 201.02,-119.59 210.94,-123.31 211.1,-116.31"/>
<text text-anchor="middle" x="482" y="-130" font-family="Helvetica,sans-Serif" font-size="10.00"> nextIFD</text>
</g>
<!-- Node14 -->
<g id="node14" class="node">
<title>Node14</title>
<g id="a_node14"><a xlink:href="../../d3/dca/classrawspeed_1_1_buffer.html" target="_top" xlink:title=" ">
<polygon fill="none" stroke="black" points="432.5,-38.5 432.5,-57.5 531.5,-57.5 531.5,-38.5 432.5,-38.5"/>
<text text-anchor="middle" x="482" y="-45.5" font-family="Helvetica,sans-Serif" font-size="10.00">rawspeed::Buffer</text>
</a>
</g>
</g>
<!-- Node11&#45;&gt;Node14 -->
<g id="edge18" class="edge">
<title>Node11&#45;&gt;Node14</title>
<path fill="none" stroke="#9a32cd" stroke-dasharray="5,2" d="M211.04,-110.43C268.76,-97.09 379.75,-71.42 439.88,-57.51"/>
<polygon fill="#9a32cd" stroke="#9a32cd" points="210.2,-107.04 201.24,-112.7 211.78,-113.86 210.2,-107.04"/>
<text text-anchor="middle" x="318.5" y="-102" font-family="Helvetica,sans-Serif" font-size="10.00"> size</text>
</g>
<!-- Node12 -->
<g id="node12" class="node">
<title>Node12</title>
<g id="a_node12"><a xlink:title=" ">
<polygon fill="none" stroke="#bfbfbf" points="467.5,-76.5 467.5,-95.5 496.5,-95.5 496.5,-76.5 467.5,-76.5"/>
<text text-anchor="middle" x="482" y="-83.5" font-family="Helvetica,sans-Serif" font-size="10.00">int</text>
</a>
</g>
</g>
<!-- Node12&#45;&gt;Node2 -->
<g id="edge15" class="edge">
<title>Node12&#45;&gt;Node2</title>
<path fill="none" stroke="#9a32cd" stroke-dasharray="5,2" d="M507.05,-84.23C545.94,-82.02 624.75,-80.25 689,-96 711.6,-101.54 735.62,-113.7 750.94,-122.35"/>
<polygon fill="#9a32cd" stroke="#9a32cd" points="506.51,-80.76 496.76,-84.88 506.96,-87.75 506.51,-80.76"/>
<text text-anchor="middle" x="633" y="-110" font-family="Helvetica,sans-Serif" font-size="10.00"> subIFDCountRecursive</text>
<text text-anchor="middle" x="633" y="-99" font-family="Helvetica,sans-Serif" font-size="10.00">subIFDCount</text>
</g>
<!-- Node13 -->
<g id="node13" class="node">
<title>Node13</title>
<g id="a_node13"><a xlink:href="../../d1/dd4/classrawspeed_1_1_data_buffer.html" target="_top" xlink:title=" ">
<polygon fill="none" stroke="black" points="707,-38.5 707,-57.5 829,-57.5 829,-38.5 707,-38.5"/>
<text text-anchor="middle" x="768" y="-45.5" font-family="Helvetica,sans-Serif" font-size="10.00">rawspeed::DataBuffer</text>
</a>
</g>
</g>
<!-- Node13&#45;&gt;Node1 -->
<g id="edge16" class="edge">
<title>Node13&#45;&gt;Node1</title>
<path fill="none" stroke="#9a32cd" stroke-dasharray="5,2" d="M826.16,-59.51C858.77,-66.08 899.16,-74.22 930.01,-80.43"/>
<polygon fill="#9a32cd" stroke="#9a32cd" points="826.81,-56.07 816.31,-57.53 825.42,-62.94 826.81,-56.07"/>
<text text-anchor="middle" x="873" y="-76" font-family="Helvetica,sans-Serif" font-size="10.00"> rootBuffer</text>
</g>
<!-- Node14&#45;&gt;Node13 -->
<g id="edge17" class="edge">
<title>Node14&#45;&gt;Node13</title>
<path fill="none" stroke="midnightblue" d="M542.12,-48C590.44,-48 658.44,-48 706.99,-48"/>
<polygon fill="midnightblue" stroke="midnightblue" points="541.82,-44.5 531.82,-48 541.82,-51.5 541.82,-44.5"/>
</g>
<!-- Node15 -->
<g id="node15" class="node">
<title>Node15</title>
<g id="a_node15"><a xlink:title=" ">
<polygon fill="none" stroke="#bfbfbf" points="154,-44.5 154,-63.5 192,-63.5 192,-44.5 154,-44.5"/>
<text text-anchor="middle" x="173" y="-51.5" font-family="Helvetica,sans-Serif" font-size="10.00">bool</text>
</a>
</g>
</g>
<!-- Node15&#45;&gt;Node14 -->
<g id="edge19" class="edge">
<title>Node15&#45;&gt;Node14</title>
<path fill="none" stroke="#9a32cd" stroke-dasharray="5,2" d="M202.54,-53.44C255.07,-52.42 367.57,-50.22 432.35,-48.95"/>
<polygon fill="#9a32cd" stroke="#9a32cd" points="202.21,-49.95 192.28,-53.64 202.35,-56.95 202.21,-49.95"/>
<text text-anchor="middle" x="318.5" y="-56" font-family="Helvetica,sans-Serif" font-size="10.00"> isOwner</text>
</g>
<!-- Node16 -->
<g id="node16" class="node">
<title>Node16</title>
<g id="a_node16"><a xlink:title=" ">
<polygon fill="none" stroke="#bfbfbf" points="148,-6.5 148,-25.5 198,-25.5 198,-6.5 148,-6.5"/>
<text text-anchor="middle" x="173" y="-13.5" font-family="Helvetica,sans-Serif" font-size="10.00">uint8_t</text>
</a>
</g>
</g>
<!-- Node16&#45;&gt;Node14 -->
<g id="edge20" class="edge">
<title>Node16&#45;&gt;Node14</title>
<path fill="none" stroke="#9a32cd" stroke-dasharray="5,2" d="M208.33,-18.55C250.47,-21.79 324.09,-27.85 387,-35 401.73,-36.67 417.72,-38.78 432.27,-40.8"/>
<polygon fill="#9a32cd" stroke="#9a32cd" points="208.55,-15.05 198.32,-17.78 208.02,-22.03 208.55,-15.05"/>
<text text-anchor="middle" x="318.5" y="-38" font-family="Helvetica,sans-Serif" font-size="10.00"> data</text>
</g>
<!-- Node17 -->
<g id="node17" class="node">
<title>Node17</title>
<g id="a_node17"><a xlink:title=" ">
<polygon fill="none" stroke="#bfbfbf" points="446,-0.5 446,-19.5 518,-19.5 518,-0.5 446,-0.5"/>
<text text-anchor="middle" x="482" y="-7.5" font-family="Helvetica,sans-Serif" font-size="10.00">Endianness</text>
</a>
</g>
</g>
<!-- Node17&#45;&gt;Node13 -->
<g id="edge21" class="edge">
<title>Node17&#45;&gt;Node13</title>
<path fill="none" stroke="#9a32cd" stroke-dasharray="5,2" d="M528.24,-14.02C570.07,-17.98 633.9,-24.64 689,-33 699.23,-34.55 710.15,-36.48 720.5,-38.43"/>
<polygon fill="#9a32cd" stroke="#9a32cd" points="528.38,-10.52 518.1,-13.07 527.73,-17.48 528.38,-10.52"/>
<text text-anchor="middle" x="633" y="-36" font-family="Helvetica,sans-Serif" font-size="10.00"> endianness</text>
</g>
</g>
</svg>
