<?xml version="1.0" encoding="UTF-8" standalone="no"?>
<!DOCTYPE svg PUBLIC "-//W3C//DTD SVG 1.1//EN"
 "http://www.w3.org/Graphics/SVG/1.1/DTD/svg11.dtd">
<!-- Generated by graphviz version 2.43.0 (0)
 -->
<!-- Title: rawspeed::iRectangle2D::getTop Pages: 1 -->
<svg width="364pt" height="88pt"
 viewBox="0.00 0.00 364.00 88.00" xmlns="http://www.w3.org/2000/svg" xmlns:xlink="http://www.w3.org/1999/xlink">
<g id="graph0" class="graph" transform="scale(1 1) rotate(0) translate(4 84)">
<title>rawspeed::iRectangle2D::getTop</title>
<!-- Node1 -->
<g id="node1" class="node">
<title>Node1</title>
<g id="a_node1"><a xlink:title=" ">
<polygon fill="#bfbfbf" stroke="black" points="222,-24.5 222,-54.5 356,-54.5 356,-24.5 222,-24.5"/>
<text text-anchor="start" x="230" y="-42.5" font-family="Helvetica,sans-Serif" font-size="10.00">rawspeed::iRectangle2D</text>
<text text-anchor="middle" x="289" y="-31.5" font-family="Helvetica,sans-Serif" font-size="10.00">::getTop</text>
</a>
</g>
</g>
<!-- Node2 -->
<g id="node2" class="node">
<title>Node2</title>
<g id="a_node2"><a xlink:href="../../d5/dcb/classrawspeed_1_1_dng_opcodes_1_1_pixel_opcode.html#ab4d79e52d19f3a299e8d7dd9a6595fed" target="_top" xlink:title=" ">
<polygon fill="none" stroke="black" points="27.5,-49.5 27.5,-79.5 158.5,-79.5 158.5,-49.5 27.5,-49.5"/>
<text text-anchor="start" x="35.5" y="-67.5" font-family="Helvetica,sans-Serif" font-size="10.00">rawspeed::DngOpcodes</text>
<text text-anchor="middle" x="93" y="-56.5" font-family="Helvetica,sans-Serif" font-size="10.00">::PixelOpcode::applyOP</text>
</a>
</g>
</g>
<!-- Node1&#45;&gt;Node2 -->
<g id="edge1" class="edge">
<title>Node1&#45;&gt;Node2</title>
<path fill="none" stroke="midnightblue" d="M211.58,-49.35C194.05,-51.61 175.58,-53.99 158.61,-56.17"/>
<polygon fill="midnightblue" stroke="midnightblue" points="212.31,-52.78 221.78,-48.03 211.41,-45.84 212.31,-52.78"/>
</g>
<!-- Node3 -->
<g id="node3" class="node">
<title>Node3</title>
<g id="a_node3"><a xlink:href="../../d9/d5b/classrawspeed_1_1_dng_opcodes_1_1_fix_bad_pixels_list.html#ab7bf4c8e7f4039739d0a1f520c841672" target="_top" xlink:title=" ">
<polygon fill="none" stroke="black" points="0,-0.5 0,-30.5 186,-30.5 186,-0.5 0,-0.5"/>
<text text-anchor="start" x="8" y="-18.5" font-family="Helvetica,sans-Serif" font-size="10.00">rawspeed::DngOpcodes</text>
<text text-anchor="middle" x="93" y="-7.5" font-family="Helvetica,sans-Serif" font-size="10.00">::FixBadPixelsList::FixBadPixelsList</text>
</a>
</g>
</g>
<!-- Node1&#45;&gt;Node3 -->
<g id="edge2" class="edge">
<title>Node1&#45;&gt;Node3</title>
<path fill="none" stroke="midnightblue" d="M211.64,-30.05C203.22,-29.01 194.59,-27.94 186.01,-26.88"/>
<polygon fill="midnightblue" stroke="midnightblue" points="211.42,-33.55 221.78,-31.31 212.28,-26.61 211.42,-33.55"/>
</g>
</g>
</svg>
