<?xml version="1.0" encoding="UTF-8" standalone="no"?>
<!DOCTYPE svg PUBLIC "-//W3C//DTD SVG 1.1//EN"
 "http://www.w3.org/Graphics/SVG/1.1/DTD/svg11.dtd">
<!-- Generated by graphviz version 2.43.0 (0)
 -->
<!-- Title: rawspeed::iRectangle2D::setAbsolute Pages: 1 -->
<svg width="784pt" height="61pt"
 viewBox="0.00 0.00 784.00 61.00" xmlns="http://www.w3.org/2000/svg" xmlns:xlink="http://www.w3.org/1999/xlink">
<g id="graph0" class="graph" transform="scale(1 1) rotate(0) translate(4 57)">
<title>rawspeed::iRectangle2D::setAbsolute</title>
<!-- Node1 -->
<g id="node1" class="node">
<title>Node1</title>
<g id="a_node1"><a xlink:title=" ">
<polygon fill="#bfbfbf" stroke="black" points="0,-22.5 0,-52.5 134,-52.5 134,-22.5 0,-22.5"/>
<text text-anchor="start" x="8" y="-40.5" font-family="Helvetica,sans-Serif" font-size="10.00">rawspeed::iRectangle2D</text>
<text text-anchor="middle" x="67" y="-29.5" font-family="Helvetica,sans-Serif" font-size="10.00">::setAbsolute</text>
</a>
</g>
</g>
<!-- Node2 -->
<g id="node2" class="node">
<title>Node2</title>
<g id="a_node2"><a xlink:href="../../d8/d75/classrawspeed_1_1i_point2_d.html#ab980cc8ab2f3502a5a2c230530ba2a64" target="_top" xlink:title=" ">
<polygon fill="none" stroke="black" points="665,-22.5 665,-52.5 776,-52.5 776,-22.5 665,-22.5"/>
<text text-anchor="start" x="673" y="-40.5" font-family="Helvetica,sans-Serif" font-size="10.00">rawspeed::iPoint2D</text>
<text text-anchor="middle" x="720.5" y="-29.5" font-family="Helvetica,sans-Serif" font-size="10.00">::iPoint2D</text>
</a>
</g>
</g>
<!-- Node1&#45;&gt;Node2 -->
<g id="edge1" class="edge">
<title>Node1&#45;&gt;Node2</title>
<path fill="none" stroke="midnightblue" d="M134.11,-38.99C146.06,-39.2 158.4,-39.39 170,-39.5 373.99,-41.5 425.01,-41.75 629,-39.5 637.36,-39.41 646.15,-39.27 654.83,-39.1"/>
<polygon fill="midnightblue" stroke="midnightblue" points="655.02,-42.6 664.95,-38.9 654.88,-35.6 655.02,-42.6"/>
</g>
<!-- Node3 -->
<g id="node3" class="node">
<title>Node3</title>
<g id="a_node3"><a xlink:href="../../d6/d8f/classrawspeed_1_1i_rectangle2_d.html#ad42b8ea151f99a4bbd8a96bc111d8e9b" target="_top" xlink:title=" ">
<polygon fill="none" stroke="black" points="170,-0.5 170,-30.5 304,-30.5 304,-0.5 170,-0.5"/>
<text text-anchor="start" x="178" y="-18.5" font-family="Helvetica,sans-Serif" font-size="10.00">rawspeed::iRectangle2D</text>
<text text-anchor="middle" x="237" y="-7.5" font-family="Helvetica,sans-Serif" font-size="10.00">::setAbsolute</text>
</a>
</g>
</g>
<!-- Node1&#45;&gt;Node3 -->
<g id="edge2" class="edge">
<title>Node1&#45;&gt;Node3</title>
<path fill="none" stroke="midnightblue" d="M134.4,-28.81C142.77,-27.71 151.39,-26.58 159.89,-25.47"/>
<polygon fill="midnightblue" stroke="midnightblue" points="160.35,-28.94 169.81,-24.17 159.44,-22 160.35,-28.94"/>
</g>
<!-- Node4 -->
<g id="node4" class="node">
<title>Node4</title>
<g id="a_node4"><a xlink:href="../../d6/d8f/classrawspeed_1_1i_rectangle2_d.html#a85b5a792f7646c485c87068744ec99a8" target="_top" xlink:title=" ">
<polygon fill="none" stroke="black" points="340,-0.5 340,-30.5 482,-30.5 482,-0.5 340,-0.5"/>
<text text-anchor="start" x="348" y="-18.5" font-family="Helvetica,sans-Serif" font-size="10.00">rawspeed::iRectangle2D</text>
<text text-anchor="middle" x="411" y="-7.5" font-family="Helvetica,sans-Serif" font-size="10.00">::setBottomRightAbsolute</text>
</a>
</g>
</g>
<!-- Node3&#45;&gt;Node4 -->
<g id="edge3" class="edge">
<title>Node3&#45;&gt;Node4</title>
<path fill="none" stroke="midnightblue" d="M304.01,-15.5C312.45,-15.5 321.17,-15.5 329.8,-15.5"/>
<polygon fill="midnightblue" stroke="midnightblue" points="329.89,-19 339.89,-15.5 329.89,-12 329.89,-19"/>
</g>
<!-- Node5 -->
<g id="node5" class="node">
<title>Node5</title>
<g id="a_node5"><a xlink:href="../../d8/d75/classrawspeed_1_1i_point2_d.html#a3c2f09435c8e2610e80b6e5f7f9c0705" target="_top" xlink:title=" ">
<polygon fill="none" stroke="black" points="518,-0.5 518,-30.5 629,-30.5 629,-0.5 518,-0.5"/>
<text text-anchor="start" x="526" y="-18.5" font-family="Helvetica,sans-Serif" font-size="10.00">rawspeed::iPoint2D</text>
<text text-anchor="middle" x="573.5" y="-7.5" font-family="Helvetica,sans-Serif" font-size="10.00">::operator&#45;</text>
</a>
</g>
</g>
<!-- Node4&#45;&gt;Node5 -->
<g id="edge4" class="edge">
<title>Node4&#45;&gt;Node5</title>
<path fill="none" stroke="midnightblue" d="M482.4,-15.5C490.69,-15.5 499.12,-15.5 507.34,-15.5"/>
<polygon fill="midnightblue" stroke="midnightblue" points="507.6,-19 517.6,-15.5 507.6,-12 507.6,-19"/>
</g>
<!-- Node5&#45;&gt;Node2 -->
<g id="edge5" class="edge">
<title>Node5&#45;&gt;Node2</title>
<path fill="none" stroke="midnightblue" d="M629.32,-23.82C637.53,-25.06 646.06,-26.36 654.46,-27.63"/>
<polygon fill="midnightblue" stroke="midnightblue" points="654.19,-31.13 664.6,-29.17 655.24,-24.21 654.19,-31.13"/>
</g>
</g>
</svg>
