<?xml version="1.0" encoding="UTF-8" standalone="no"?>
<!DOCTYPE svg PUBLIC "-//W3C//DTD SVG 1.1//EN"
 "http://www.w3.org/Graphics/SVG/1.1/DTD/svg11.dtd">
<!-- Generated by graphviz version 2.43.0 (0)
 -->
<!-- Title: rawspeed::iRectangle2D::getBottomRight Pages: 1 -->
<svg width="1181pt" height="221pt"
 viewBox="0.00 0.00 1181.00 221.00" xmlns="http://www.w3.org/2000/svg" xmlns:xlink="http://www.w3.org/1999/xlink">
<g id="graph0" class="graph" transform="scale(1 1) rotate(0) translate(4 217)">
<title>rawspeed::iRectangle2D::getBottomRight</title>
<!-- Node1 -->
<g id="node1" class="node">
<title>Node1</title>
<g id="a_node1"><a xlink:title=" ">
<polygon fill="#bfbfbf" stroke="black" points="1039,-73.5 1039,-103.5 1173,-103.5 1173,-73.5 1039,-73.5"/>
<text text-anchor="start" x="1047" y="-91.5" font-family="Helvetica,sans-Serif" font-size="10.00">rawspeed::iRectangle2D</text>
<text text-anchor="middle" x="1106" y="-80.5" font-family="Helvetica,sans-Serif" font-size="10.00">::getBottomRight</text>
</a>
</g>
</g>
<!-- Node2 -->
<g id="node2" class="node">
<title>Node2</title>
<g id="a_node2"><a xlink:href="../../d6/d8f/classrawspeed_1_1i_rectangle2_d.html#a5e2b95d9fa93ccc8a1fb3dc3b2a1f0c5" target="_top" xlink:title=" ">
<polygon fill="none" stroke="black" points="869,-147.5 869,-177.5 1003,-177.5 1003,-147.5 869,-147.5"/>
<text text-anchor="start" x="877" y="-165.5" font-family="Helvetica,sans-Serif" font-size="10.00">rawspeed::iRectangle2D</text>
<text text-anchor="middle" x="936" y="-154.5" font-family="Helvetica,sans-Serif" font-size="10.00">::combine</text>
</a>
</g>
</g>
<!-- Node1&#45;&gt;Node2 -->
<g id="edge1" class="edge">
<title>Node1&#45;&gt;Node2</title>
<path fill="none" stroke="midnightblue" d="M1066.22,-108.09C1047.33,-117.39 1024.16,-128.43 1003,-137.5 995.12,-140.88 986.61,-144.28 978.41,-147.44"/>
<polygon fill="midnightblue" stroke="midnightblue" points="1068,-111.12 1075.41,-103.55 1064.89,-104.85 1068,-111.12"/>
</g>
<!-- Node3 -->
<g id="node3" class="node">
<title>Node3</title>
<g id="a_node3"><a xlink:href="../../d6/d8f/classrawspeed_1_1i_rectangle2_d.html#aa8495c35de68f8002d471bc1c89c4e43" target="_top" xlink:title=" ">
<polygon fill="none" stroke="black" points="869,-98.5 869,-128.5 1003,-128.5 1003,-98.5 869,-98.5"/>
<text text-anchor="start" x="877" y="-116.5" font-family="Helvetica,sans-Serif" font-size="10.00">rawspeed::iRectangle2D</text>
<text text-anchor="middle" x="936" y="-105.5" font-family="Helvetica,sans-Serif" font-size="10.00">::getOverlap</text>
</a>
</g>
</g>
<!-- Node1&#45;&gt;Node3 -->
<g id="edge2" class="edge">
<title>Node1&#45;&gt;Node3</title>
<path fill="none" stroke="midnightblue" d="M1028.68,-99.86C1020.17,-101.12 1011.56,-102.4 1003.19,-103.65"/>
<polygon fill="midnightblue" stroke="midnightblue" points="1029.23,-103.31 1038.6,-98.38 1028.2,-96.39 1029.23,-103.31"/>
</g>
<!-- Node7 -->
<g id="node7" class="node">
<title>Node7</title>
<g id="a_node7"><a xlink:href="../../d6/d8f/classrawspeed_1_1i_rectangle2_d.html#a8e5d729239ce4ebabfc221d463a3c79e" target="_top" xlink:title=" ">
<polygon fill="none" stroke="black" points="869,-49.5 869,-79.5 1003,-79.5 1003,-49.5 869,-49.5"/>
<text text-anchor="start" x="877" y="-67.5" font-family="Helvetica,sans-Serif" font-size="10.00">rawspeed::iRectangle2D</text>
<text text-anchor="middle" x="936" y="-56.5" font-family="Helvetica,sans-Serif" font-size="10.00">::isPointInsideInclusive</text>
</a>
</g>
</g>
<!-- Node1&#45;&gt;Node7 -->
<g id="edge6" class="edge">
<title>Node1&#45;&gt;Node7</title>
<path fill="none" stroke="midnightblue" d="M1028.68,-77.6C1020.17,-76.38 1011.56,-75.15 1003.19,-73.96"/>
<polygon fill="midnightblue" stroke="midnightblue" points="1028.21,-81.07 1038.6,-79.01 1029.2,-74.14 1028.21,-81.07"/>
</g>
<!-- Node17 -->
<g id="node17" class="node">
<title>Node17</title>
<g id="a_node17"><a xlink:href="../../d6/d8f/classrawspeed_1_1i_rectangle2_d.html#a5fa041d0ecfb6fe7538f73c735cdb42c" target="_top" xlink:title=" ">
<polygon fill="none" stroke="black" points="869,-0.5 869,-30.5 1003,-30.5 1003,-0.5 869,-0.5"/>
<text text-anchor="start" x="877" y="-18.5" font-family="Helvetica,sans-Serif" font-size="10.00">rawspeed::iRectangle2D</text>
<text text-anchor="middle" x="936" y="-7.5" font-family="Helvetica,sans-Serif" font-size="10.00">::isThisInside</text>
</a>
</g>
</g>
<!-- Node1&#45;&gt;Node17 -->
<g id="edge17" class="edge">
<title>Node1&#45;&gt;Node17</title>
<path fill="none" stroke="midnightblue" d="M1066.28,-68.78C1047.39,-59.45 1024.22,-48.43 1003,-39.5 995.7,-36.43 987.85,-33.37 980.2,-30.51"/>
<polygon fill="midnightblue" stroke="midnightblue" points="1064.94,-72.03 1075.45,-73.35 1068.06,-65.76 1064.94,-72.03"/>
</g>
<!-- Node4 -->
<g id="node4" class="node">
<title>Node4</title>
<g id="a_node4"><a xlink:href="../../dc/d44/classrawspeed_1_1_raw_image_data.html#a5a1884d989dce1f16ac3ac579fe5c286" target="_top" xlink:title=" ">
<polygon fill="none" stroke="black" points="688,-133.5 688,-163.5 833,-163.5 833,-133.5 688,-133.5"/>
<text text-anchor="start" x="696" y="-151.5" font-family="Helvetica,sans-Serif" font-size="10.00">rawspeed::RawImageData</text>
<text text-anchor="middle" x="760.5" y="-140.5" font-family="Helvetica,sans-Serif" font-size="10.00">::blitFrom</text>
</a>
</g>
</g>
<!-- Node3&#45;&gt;Node4 -->
<g id="edge3" class="edge">
<title>Node3&#45;&gt;Node4</title>
<path fill="none" stroke="midnightblue" d="M858.95,-128.84C850.39,-130.57 841.69,-132.32 833.19,-134.04"/>
<polygon fill="midnightblue" stroke="midnightblue" points="859.8,-132.24 868.91,-126.83 858.42,-125.38 859.8,-132.24"/>
</g>
<!-- Node5 -->
<g id="node5" class="node">
<title>Node5</title>
<g id="a_node5"><a xlink:href="../../dc/d44/classrawspeed_1_1_raw_image_data.html#a46e3940e5a515c9cf0ac6af059f61485" target="_top" xlink:title=" ">
<polygon fill="none" stroke="black" points="688,-84.5 688,-114.5 833,-114.5 833,-84.5 688,-84.5"/>
<text text-anchor="start" x="696" y="-102.5" font-family="Helvetica,sans-Serif" font-size="10.00">rawspeed::RawImageData</text>
<text text-anchor="middle" x="760.5" y="-91.5" font-family="Helvetica,sans-Serif" font-size="10.00">::clearArea</text>
</a>
</g>
</g>
<!-- Node3&#45;&gt;Node5 -->
<g id="edge4" class="edge">
<title>Node3&#45;&gt;Node5</title>
<path fill="none" stroke="midnightblue" d="M858.67,-107.34C850.2,-106.66 841.6,-105.96 833.19,-105.28"/>
<polygon fill="midnightblue" stroke="midnightblue" points="858.66,-110.85 868.91,-108.17 859.23,-103.87 858.66,-110.85"/>
</g>
<!-- Node6 -->
<g id="node6" class="node">
<title>Node6</title>
<g id="a_node6"><a xlink:href="../../dc/d44/classrawspeed_1_1_raw_image_data.html#a51031166015f5dd9cbc5dca5d2e03a5e" target="_top" xlink:title=" ">
<polygon fill="none" stroke="black" points="688,-182.5 688,-212.5 833,-212.5 833,-182.5 688,-182.5"/>
<text text-anchor="start" x="696" y="-200.5" font-family="Helvetica,sans-Serif" font-size="10.00">rawspeed::RawImageData</text>
<text text-anchor="middle" x="760.5" y="-189.5" font-family="Helvetica,sans-Serif" font-size="10.00">::expandBorder</text>
</a>
</g>
</g>
<!-- Node3&#45;&gt;Node6 -->
<g id="edge5" class="edge">
<title>Node3&#45;&gt;Node6</title>
<path fill="none" stroke="midnightblue" d="M877.14,-132.87C874.33,-134.33 871.6,-135.87 869,-137.5 850.09,-149.35 851.98,-160.76 833,-172.5 826.96,-176.23 820.29,-179.51 813.52,-182.34"/>
<polygon fill="midnightblue" stroke="midnightblue" points="878.77,-135.97 886.3,-128.52 875.76,-129.65 878.77,-135.97"/>
</g>
<!-- Node8 -->
<g id="node8" class="node">
<title>Node8</title>
<g id="a_node8"><a xlink:href="../../df/dc9/classrawspeed_1_1_dng_opcodes_1_1_r_o_i_opcode.html#a18543c8017b64d69566acc55164af4cc" target="_top" xlink:title=" ">
<polygon fill="none" stroke="black" points="692,-35.5 692,-65.5 829,-65.5 829,-35.5 692,-35.5"/>
<text text-anchor="start" x="700" y="-53.5" font-family="Helvetica,sans-Serif" font-size="10.00">rawspeed::DngOpcodes</text>
<text text-anchor="middle" x="760.5" y="-42.5" font-family="Helvetica,sans-Serif" font-size="10.00">::ROIOpcode::ROIOpcode</text>
</a>
</g>
</g>
<!-- Node7&#45;&gt;Node8 -->
<g id="edge7" class="edge">
<title>Node7&#45;&gt;Node8</title>
<path fill="none" stroke="midnightblue" d="M858.73,-58.35C848.87,-57.55 838.83,-56.74 829.13,-55.96"/>
<polygon fill="midnightblue" stroke="midnightblue" points="858.66,-61.85 868.91,-59.17 859.23,-54.87 858.66,-61.85"/>
</g>
<!-- Node9 -->
<g id="node9" class="node">
<title>Node9</title>
<g id="a_node9"><a xlink:href="../../d5/d66/classrawspeed_1_1_dng_opcodes_1_1_dummy_r_o_i_opcode.html#a41065e2a0a4c5a97fa22a998d446e92f" target="_top" xlink:title=" ">
<polygon fill="none" stroke="black" points="437,-22.5 437,-52.5 652,-52.5 652,-22.5 437,-22.5"/>
<text text-anchor="start" x="445" y="-40.5" font-family="Helvetica,sans-Serif" font-size="10.00">rawspeed::DngOpcodes</text>
<text text-anchor="middle" x="544.5" y="-29.5" font-family="Helvetica,sans-Serif" font-size="10.00">::DummyROIOpcode::DummyROIOpcode</text>
</a>
</g>
</g>
<!-- Node8&#45;&gt;Node9 -->
<g id="edge8" class="edge">
<title>Node8&#45;&gt;Node9</title>
<path fill="none" stroke="midnightblue" d="M681.58,-45.77C672.03,-45.19 662.14,-44.59 652.26,-43.99"/>
<polygon fill="midnightblue" stroke="midnightblue" points="681.6,-49.27 691.79,-46.39 682.02,-42.29 681.6,-49.27"/>
</g>
<!-- Node11 -->
<g id="node11" class="node">
<title>Node11</title>
<g id="a_node11"><a xlink:href="../../d5/dcb/classrawspeed_1_1_dng_opcodes_1_1_pixel_opcode.html#a2d4cef258692d4e1609527e09b51c8f1" target="_top" xlink:title=" ">
<polygon fill="none" stroke="black" points="469.5,-120.5 469.5,-150.5 619.5,-150.5 619.5,-120.5 469.5,-120.5"/>
<text text-anchor="start" x="477.5" y="-138.5" font-family="Helvetica,sans-Serif" font-size="10.00">rawspeed::DngOpcodes</text>
<text text-anchor="middle" x="544.5" y="-127.5" font-family="Helvetica,sans-Serif" font-size="10.00">::PixelOpcode::PixelOpcode</text>
</a>
</g>
</g>
<!-- Node8&#45;&gt;Node11 -->
<g id="edge10" class="edge">
<title>Node8&#45;&gt;Node11</title>
<path fill="none" stroke="midnightblue" d="M696.25,-69.88C693.41,-71.32 690.64,-72.86 688,-74.5 668.76,-86.42 671.77,-99.49 652,-110.5 642.04,-116.04 630.9,-120.36 619.68,-123.72"/>
<polygon fill="midnightblue" stroke="midnightblue" points="697.95,-72.95 705.55,-65.57 695.01,-66.6 697.95,-72.95"/>
</g>
<!-- Node16 -->
<g id="node16" class="node">
<title>Node16</title>
<g id="a_node16"><a xlink:href="../../da/ddd/classrawspeed_1_1_dng_opcodes_1_1_trim_bounds.html#a2e5018f45c2e01536269db5799d35c8f" target="_top" xlink:title=" ">
<polygon fill="none" stroke="black" points="473,-71.5 473,-101.5 616,-101.5 616,-71.5 473,-71.5"/>
<text text-anchor="start" x="481" y="-89.5" font-family="Helvetica,sans-Serif" font-size="10.00">rawspeed::DngOpcodes</text>
<text text-anchor="middle" x="544.5" y="-78.5" font-family="Helvetica,sans-Serif" font-size="10.00">::TrimBounds::TrimBounds</text>
</a>
</g>
</g>
<!-- Node8&#45;&gt;Node16 -->
<g id="edge16" class="edge">
<title>Node8&#45;&gt;Node16</title>
<path fill="none" stroke="midnightblue" d="M681.74,-63.58C660.28,-67.19 637.12,-71.09 616.09,-74.62"/>
<polygon fill="midnightblue" stroke="midnightblue" points="682.51,-67 691.79,-61.89 681.35,-60.1 682.51,-67"/>
</g>
<!-- Node10 -->
<g id="node10" class="node">
<title>Node10</title>
<g id="a_node10"><a xlink:href="../../d9/d5b/classrawspeed_1_1_dng_opcodes_1_1_fix_bad_pixels_list.html#ab7bf4c8e7f4039739d0a1f520c841672" target="_top" xlink:title=" ">
<polygon fill="none" stroke="black" points="215,-8.5 215,-38.5 401,-38.5 401,-8.5 215,-8.5"/>
<text text-anchor="start" x="223" y="-26.5" font-family="Helvetica,sans-Serif" font-size="10.00">rawspeed::DngOpcodes</text>
<text text-anchor="middle" x="308" y="-15.5" font-family="Helvetica,sans-Serif" font-size="10.00">::FixBadPixelsList::FixBadPixelsList</text>
</a>
</g>
</g>
<!-- Node9&#45;&gt;Node10 -->
<g id="edge9" class="edge">
<title>Node9&#45;&gt;Node10</title>
<path fill="none" stroke="midnightblue" d="M426.76,-30.53C418.11,-30.01 409.47,-29.5 401.01,-28.99"/>
<polygon fill="midnightblue" stroke="midnightblue" points="426.69,-34.03 436.89,-31.13 427.11,-27.05 426.69,-34.03"/>
</g>
<!-- Node12 -->
<g id="node12" class="node">
<title>Node12</title>
<g id="a_node12"><a xlink:href="../../d0/d58/classrawspeed_1_1_dng_opcodes_1_1_delta_row_or_col_base.html#aee44344d07cc5c0dd84dd96d8c2db5e3" target="_top" xlink:title=" ">
<polygon fill="none" stroke="black" points="242.5,-74 242.5,-115 373.5,-115 373.5,-74 242.5,-74"/>
<text text-anchor="start" x="250.5" y="-103" font-family="Helvetica,sans-Serif" font-size="10.00">rawspeed::DngOpcodes</text>
<text text-anchor="start" x="250.5" y="-92" font-family="Helvetica,sans-Serif" font-size="10.00">::DeltaRowOrColBase::</text>
<text text-anchor="middle" x="308" y="-81" font-family="Helvetica,sans-Serif" font-size="10.00">DeltaRowOrColBase</text>
</a>
</g>
</g>
<!-- Node11&#45;&gt;Node12 -->
<g id="edge11" class="edge">
<title>Node11&#45;&gt;Node12</title>
<path fill="none" stroke="midnightblue" d="M459.44,-120.8C431.19,-115.86 400.14,-110.43 373.62,-105.8"/>
<polygon fill="midnightblue" stroke="midnightblue" points="458.85,-124.25 469.3,-122.53 460.05,-117.36 458.85,-124.25"/>
</g>
<!-- Node13 -->
<g id="node13" class="node">
<title>Node13</title>
<g id="a_node13"><a xlink:href="../../de/d8e/classrawspeed_1_1_dng_opcodes_1_1_lookup_opcode.html#a90e7b20b578b60967bd9e9b85e323a17" target="_top" xlink:title=" ">
<polygon fill="none" stroke="black" points="221.5,-134.5 221.5,-164.5 394.5,-164.5 394.5,-134.5 221.5,-134.5"/>
<text text-anchor="start" x="229.5" y="-152.5" font-family="Helvetica,sans-Serif" font-size="10.00">rawspeed::DngOpcodes</text>
<text text-anchor="middle" x="308" y="-141.5" font-family="Helvetica,sans-Serif" font-size="10.00">::LookupOpcode::LookupOpcode</text>
</a>
</g>
</g>
<!-- Node11&#45;&gt;Node13 -->
<g id="edge12" class="edge">
<title>Node11&#45;&gt;Node13</title>
<path fill="none" stroke="midnightblue" d="M459.13,-140.54C438.14,-141.79 415.62,-143.13 394.57,-144.39"/>
<polygon fill="midnightblue" stroke="midnightblue" points="459.53,-144.02 469.3,-139.93 459.11,-137.03 459.53,-144.02"/>
</g>
<!-- Node13&#45;&gt;Node13 -->
<g id="edge13" class="edge">
<title>Node13&#45;&gt;Node13</title>
<path fill="none" stroke="midnightblue" d="M346.74,-174.96C341.93,-179.68 329.02,-183 308,-183 273.51,-183 260.85,-174.06 270.01,-164.66"/>
<polygon fill="midnightblue" stroke="midnightblue" points="350.2,-174.38 345.99,-164.66 343.22,-174.89 350.2,-174.38"/>
</g>
<!-- Node14 -->
<g id="node14" class="node">
<title>Node14</title>
<g id="a_node14"><a xlink:href="../../d8/d70/classrawspeed_1_1_dng_opcodes_1_1_polynomial_map.html#a5ba7f4d079c409526da52143518d6c6f" target="_top" xlink:title=" ">
<polygon fill="none" stroke="black" points="0,-158.5 0,-188.5 179,-188.5 179,-158.5 0,-158.5"/>
<text text-anchor="start" x="8" y="-176.5" font-family="Helvetica,sans-Serif" font-size="10.00">rawspeed::DngOpcodes</text>
<text text-anchor="middle" x="89.5" y="-165.5" font-family="Helvetica,sans-Serif" font-size="10.00">::PolynomialMap::PolynomialMap</text>
</a>
</g>
</g>
<!-- Node13&#45;&gt;Node14 -->
<g id="edge14" class="edge">
<title>Node13&#45;&gt;Node14</title>
<path fill="none" stroke="midnightblue" d="M211.31,-160.11C200.68,-161.29 189.89,-162.48 179.35,-163.65"/>
<polygon fill="midnightblue" stroke="midnightblue" points="211.88,-163.57 221.43,-158.99 211.11,-156.61 211.88,-163.57"/>
</g>
<!-- Node15 -->
<g id="node15" class="node">
<title>Node15</title>
<g id="a_node15"><a xlink:href="../../dc/d9c/classrawspeed_1_1_dng_opcodes_1_1_table_map.html#a0f4b8c3112f447ae3a1e487b42e11d3d" target="_top" xlink:title=" ">
<polygon fill="none" stroke="black" points="24,-109.5 24,-139.5 155,-139.5 155,-109.5 24,-109.5"/>
<text text-anchor="start" x="32" y="-127.5" font-family="Helvetica,sans-Serif" font-size="10.00">rawspeed::DngOpcodes</text>
<text text-anchor="middle" x="89.5" y="-116.5" font-family="Helvetica,sans-Serif" font-size="10.00">::TableMap::TableMap</text>
</a>
</g>
</g>
<!-- Node13&#45;&gt;Node15 -->
<g id="edge15" class="edge">
<title>Node13&#45;&gt;Node15</title>
<path fill="none" stroke="midnightblue" d="M211.25,-138.44C192.25,-136.25 172.73,-134 155.08,-131.96"/>
<polygon fill="midnightblue" stroke="midnightblue" points="211.1,-141.95 221.43,-139.62 211.9,-135 211.1,-141.95"/>
</g>
<!-- Node17&#45;&gt;Node8 -->
<g id="edge19" class="edge">
<title>Node17&#45;&gt;Node8</title>
<path fill="none" stroke="midnightblue" d="M859.04,-30.82C849.08,-32.83 838.94,-34.88 829.13,-36.86"/>
<polygon fill="midnightblue" stroke="midnightblue" points="859.8,-34.24 868.91,-28.83 858.42,-27.38 859.8,-34.24"/>
</g>
<!-- Node17&#45;&gt;Node10 -->
<g id="edge18" class="edge">
<title>Node17&#45;&gt;Node10</title>
<path fill="none" stroke="midnightblue" d="M858.82,-12.73C761.09,-9.71 586.34,-6.1 437,-12.5 425.41,-13 413.25,-13.75 401.23,-14.62"/>
<polygon fill="midnightblue" stroke="midnightblue" points="858.8,-16.23 868.91,-13.05 859.02,-9.24 858.8,-16.23"/>
</g>
</g>
</svg>
