<?xml version="1.0" encoding="UTF-8" standalone="no"?>
<!DOCTYPE svg PUBLIC "-//W3C//DTD SVG 1.1//EN"
 "http://www.w3.org/Graphics/SVG/1.1/DTD/svg11.dtd">
<!-- Generated by graphviz version 2.43.0 (0)
 -->
<!-- Title: rawspeed::iRectangle2D::isPointInsideInclusive Pages: 1 -->
<svg width="606pt" height="137pt"
 viewBox="0.00 0.00 606.00 137.00" xmlns="http://www.w3.org/2000/svg" xmlns:xlink="http://www.w3.org/1999/xlink">
<g id="graph0" class="graph" transform="scale(1 1) rotate(0) translate(4 133)">
<title>rawspeed::iRectangle2D::isPointInsideInclusive</title>
<!-- Node1 -->
<g id="node1" class="node">
<title>Node1</title>
<g id="a_node1"><a xlink:title=" ">
<polygon fill="#bfbfbf" stroke="black" points="0,-49.5 0,-79.5 134,-79.5 134,-49.5 0,-49.5"/>
<text text-anchor="start" x="8" y="-67.5" font-family="Helvetica,sans-Serif" font-size="10.00">rawspeed::iRectangle2D</text>
<text text-anchor="middle" x="67" y="-56.5" font-family="Helvetica,sans-Serif" font-size="10.00">::isPointInsideInclusive</text>
</a>
</g>
</g>
<!-- Node2 -->
<g id="node2" class="node">
<title>Node2</title>
<g id="a_node2"><a xlink:href="../../d6/d8f/classrawspeed_1_1i_rectangle2_d.html#ad6ae3f2ed094abc10d38b954af7e5b99" target="_top" xlink:title=" ">
<polygon fill="none" stroke="black" points="170,-98.5 170,-128.5 304,-128.5 304,-98.5 170,-98.5"/>
<text text-anchor="start" x="178" y="-116.5" font-family="Helvetica,sans-Serif" font-size="10.00">rawspeed::iRectangle2D</text>
<text text-anchor="middle" x="237" y="-105.5" font-family="Helvetica,sans-Serif" font-size="10.00">::getBottomRight</text>
</a>
</g>
</g>
<!-- Node1&#45;&gt;Node2 -->
<g id="edge1" class="edge">
<title>Node1&#45;&gt;Node2</title>
<path fill="none" stroke="midnightblue" d="M119.78,-79.6C137.1,-84.66 156.59,-90.34 174.58,-95.58"/>
<polygon fill="midnightblue" stroke="midnightblue" points="173.81,-99.01 184.39,-98.45 175.77,-92.29 173.81,-99.01"/>
</g>
<!-- Node5 -->
<g id="node5" class="node">
<title>Node5</title>
<g id="a_node5"><a xlink:href="../../d8/d75/classrawspeed_1_1i_point2_d.html#a368d3167882bee5c5d42813d99a17c56" target="_top" xlink:title=" ">
<polygon fill="none" stroke="black" points="181.5,-49.5 181.5,-79.5 292.5,-79.5 292.5,-49.5 181.5,-49.5"/>
<text text-anchor="start" x="189.5" y="-67.5" font-family="Helvetica,sans-Serif" font-size="10.00">rawspeed::iPoint2D</text>
<text text-anchor="middle" x="237" y="-56.5" font-family="Helvetica,sans-Serif" font-size="10.00">::operator&lt;=</text>
</a>
</g>
</g>
<!-- Node1&#45;&gt;Node5 -->
<g id="edge4" class="edge">
<title>Node1&#45;&gt;Node5</title>
<path fill="none" stroke="midnightblue" d="M134.4,-64.5C146.58,-64.5 159.28,-64.5 171.4,-64.5"/>
<polygon fill="midnightblue" stroke="midnightblue" points="171.43,-68 181.43,-64.5 171.43,-61 171.43,-68"/>
</g>
<!-- Node6 -->
<g id="node6" class="node">
<title>Node6</title>
<g id="a_node6"><a xlink:href="../../d8/d75/classrawspeed_1_1i_point2_d.html#a16873af73bf76858d0f31c2b7802c310" target="_top" xlink:title=" ">
<polygon fill="none" stroke="black" points="181.5,-0.5 181.5,-30.5 292.5,-30.5 292.5,-0.5 181.5,-0.5"/>
<text text-anchor="start" x="189.5" y="-18.5" font-family="Helvetica,sans-Serif" font-size="10.00">rawspeed::iPoint2D</text>
<text text-anchor="middle" x="237" y="-7.5" font-family="Helvetica,sans-Serif" font-size="10.00">::operator&gt;=</text>
</a>
</g>
</g>
<!-- Node1&#45;&gt;Node6 -->
<g id="edge5" class="edge">
<title>Node1&#45;&gt;Node6</title>
<path fill="none" stroke="midnightblue" d="M119.78,-49.4C137.1,-44.34 156.59,-38.66 174.58,-33.42"/>
<polygon fill="midnightblue" stroke="midnightblue" points="175.77,-36.71 184.39,-30.55 173.81,-29.99 175.77,-36.71"/>
</g>
<!-- Node3 -->
<g id="node3" class="node">
<title>Node3</title>
<g id="a_node3"><a xlink:href="../../d8/d75/classrawspeed_1_1i_point2_d.html#aed6c2f5995cd12a0bb27e6d7e2d88fdb" target="_top" xlink:title=" ">
<polygon fill="none" stroke="black" points="340,-98.5 340,-128.5 451,-128.5 451,-98.5 340,-98.5"/>
<text text-anchor="start" x="348" y="-116.5" font-family="Helvetica,sans-Serif" font-size="10.00">rawspeed::iPoint2D</text>
<text text-anchor="middle" x="395.5" y="-105.5" font-family="Helvetica,sans-Serif" font-size="10.00">::operator+</text>
</a>
</g>
</g>
<!-- Node2&#45;&gt;Node3 -->
<g id="edge2" class="edge">
<title>Node2&#45;&gt;Node3</title>
<path fill="none" stroke="midnightblue" d="M304.37,-113.5C312.78,-113.5 321.38,-113.5 329.76,-113.5"/>
<polygon fill="midnightblue" stroke="midnightblue" points="329.86,-117 339.86,-113.5 329.86,-110 329.86,-117"/>
</g>
<!-- Node4 -->
<g id="node4" class="node">
<title>Node4</title>
<g id="a_node4"><a xlink:href="../../d8/d75/classrawspeed_1_1i_point2_d.html#ab980cc8ab2f3502a5a2c230530ba2a64" target="_top" xlink:title=" ">
<polygon fill="none" stroke="black" points="487,-98.5 487,-128.5 598,-128.5 598,-98.5 487,-98.5"/>
<text text-anchor="start" x="495" y="-116.5" font-family="Helvetica,sans-Serif" font-size="10.00">rawspeed::iPoint2D</text>
<text text-anchor="middle" x="542.5" y="-105.5" font-family="Helvetica,sans-Serif" font-size="10.00">::iPoint2D</text>
</a>
</g>
</g>
<!-- Node3&#45;&gt;Node4 -->
<g id="edge3" class="edge">
<title>Node3&#45;&gt;Node4</title>
<path fill="none" stroke="midnightblue" d="M451.32,-113.5C459.53,-113.5 468.06,-113.5 476.46,-113.5"/>
<polygon fill="midnightblue" stroke="midnightblue" points="476.6,-117 486.6,-113.5 476.6,-110 476.6,-117"/>
</g>
</g>
</svg>
