<?xml version="1.0" encoding="UTF-8" standalone="no"?>
<!DOCTYPE svg PUBLIC "-//W3C//DTD SVG 1.1//EN"
 "http://www.w3.org/Graphics/SVG/1.1/DTD/svg11.dtd">
<!-- Generated by graphviz version 2.43.0 (0)
 -->
<!-- Title: rawspeed::BitStream&lt; Tag, Cache, Replenisher &gt; Pages: 1 -->
<svg width="163pt" height="106pt"
 viewBox="0.00 0.00 163.00 106.00" xmlns="http://www.w3.org/2000/svg" xmlns:xlink="http://www.w3.org/1999/xlink">
<g id="graph0" class="graph" transform="scale(1 1) rotate(0) translate(4 102)">
<title>rawspeed::BitStream&lt; Tag, Cache, Replenisher &gt;</title>
<!-- Node1 -->
<g id="node1" class="node">
<title>Node1</title>
<g id="a_node1"><a xlink:title=" ">
<polygon fill="#bfbfbf" stroke="black" points="0,-0.5 0,-30.5 155,-30.5 155,-0.5 0,-0.5"/>
<text text-anchor="start" x="8" y="-18.5" font-family="Helvetica,sans-Serif" font-size="10.00">rawspeed::BitStream</text>
<text text-anchor="middle" x="77.5" y="-7.5" font-family="Helvetica,sans-Serif" font-size="10.00">&lt; Tag, Cache, Replenisher &gt;</text>
</a>
</g>
</g>
<!-- Node2 -->
<g id="node2" class="node">
<title>Node2</title>
<g id="a_node2"><a xlink:title=" ">
<polygon fill="none" stroke="#bfbfbf" points="0.5,-78.5 0.5,-97.5 74.5,-97.5 74.5,-78.5 0.5,-78.5"/>
<text text-anchor="middle" x="37.5" y="-85.5" font-family="Helvetica,sans-Serif" font-size="10.00">Replenisher</text>
</a>
</g>
</g>
<!-- Node2&#45;&gt;Node1 -->
<g id="edge1" class="edge">
<title>Node2&#45;&gt;Node1</title>
<path fill="none" stroke="#9a32cd" stroke-dasharray="5,2" d="M34.95,-68C34.88,-61.68 35.69,-54.79 38.5,-49 41.96,-41.86 47.81,-35.73 53.93,-30.77"/>
<polygon fill="#9a32cd" stroke="#9a32cd" points="31.49,-68.69 35.78,-78.38 38.47,-68.13 31.49,-68.69"/>
<text text-anchor="middle" x="67.5" y="-52" font-family="Helvetica,sans-Serif" font-size="10.00"> replenisher</text>
</g>
<!-- Node3 -->
<g id="node3" class="node">
<title>Node3</title>
<g id="a_node3"><a xlink:title=" ">
<polygon fill="none" stroke="#bfbfbf" points="95,-78.5 95,-97.5 142,-97.5 142,-78.5 95,-78.5"/>
<text text-anchor="middle" x="118.5" y="-85.5" font-family="Helvetica,sans-Serif" font-size="10.00">Cache</text>
</a>
</g>
</g>
<!-- Node3&#45;&gt;Node1 -->
<g id="edge2" class="edge">
<title>Node3&#45;&gt;Node1</title>
<path fill="none" stroke="#9a32cd" stroke-dasharray="5,2" d="M108.19,-69.16C104.51,-62.79 100.32,-55.57 96.5,-49 93.02,-43.01 89.16,-36.41 85.84,-30.73"/>
<polygon fill="#9a32cd" stroke="#9a32cd" points="105.41,-71.33 113.44,-78.24 111.47,-67.83 105.41,-71.33"/>
<text text-anchor="middle" x="118.5" y="-52" font-family="Helvetica,sans-Serif" font-size="10.00"> cache</text>
</g>
</g>
</svg>
