<?xml version="1.0" encoding="UTF-8" standalone="no"?>
<!DOCTYPE svg PUBLIC "-//W3C//DTD SVG 1.1//EN"
 "http://www.w3.org/Graphics/SVG/1.1/DTD/svg11.dtd">
<!-- Generated by graphviz version 2.43.0 (0)
 -->
<!-- Title: rawspeed::BitStream&lt; Tag, Cache &gt; Pages: 1 -->
<svg width="1096pt" height="172pt"
 viewBox="0.00 0.00 1096.00 172.00" xmlns="http://www.w3.org/2000/svg" xmlns:xlink="http://www.w3.org/1999/xlink">
<g id="graph0" class="graph" transform="scale(1 1) rotate(0) translate(4 168)">
<title>rawspeed::BitStream&lt; Tag, Cache &gt;</title>
<!-- Node1 -->
<g id="node1" class="node">
<title>Node1</title>
<g id="a_node1"><a xlink:title=" ">
<polygon fill="#bfbfbf" stroke="black" points="969,-67 969,-97 1088,-97 1088,-67 969,-67"/>
<text text-anchor="start" x="977" y="-85" font-family="Helvetica,sans-Serif" font-size="10.00">rawspeed::BitStream</text>
<text text-anchor="middle" x="1028.5" y="-74" font-family="Helvetica,sans-Serif" font-size="10.00">&lt; Tag, Cache &gt;</text>
</a>
</g>
</g>
<!-- Node2 -->
<g id="node2" class="node">
<title>Node2</title>
<g id="a_node2"><a xlink:href="../../dd/da0/classrawspeed_1_1_byte_stream.html" target="_top" xlink:title=" ">
<polygon fill="none" stroke="black" points="773,-72.5 773,-91.5 901,-91.5 901,-72.5 773,-72.5"/>
<text text-anchor="middle" x="837" y="-79.5" font-family="Helvetica,sans-Serif" font-size="10.00">rawspeed::ByteStream</text>
</a>
</g>
</g>
<!-- Node2&#45;&gt;Node1 -->
<g id="edge1" class="edge">
<title>Node2&#45;&gt;Node1</title>
<path fill="none" stroke="midnightblue" d="M911.25,-82C930.32,-82 950.63,-82 968.84,-82"/>
<polygon fill="midnightblue" stroke="midnightblue" points="911.1,-78.5 901.1,-82 911.1,-85.5 911.1,-78.5"/>
</g>
<!-- Node3 -->
<g id="node3" class="node">
<title>Node3</title>
<g id="a_node3"><a xlink:href="../../d1/dd4/classrawspeed_1_1_data_buffer.html" target="_top" xlink:title=" ">
<polygon fill="none" stroke="black" points="592,-34.5 592,-53.5 714,-53.5 714,-34.5 592,-34.5"/>
<text text-anchor="middle" x="653" y="-41.5" font-family="Helvetica,sans-Serif" font-size="10.00">rawspeed::DataBuffer</text>
</a>
</g>
</g>
<!-- Node3&#45;&gt;Node2 -->
<g id="edge2" class="edge">
<title>Node3&#45;&gt;Node2</title>
<path fill="none" stroke="midnightblue" d="M709.95,-55.68C735.76,-61.07 766.01,-67.39 790.4,-72.48"/>
<polygon fill="midnightblue" stroke="midnightblue" points="710.43,-52.21 699.93,-53.59 709,-59.06 710.43,-52.21"/>
</g>
<!-- Node4 -->
<g id="node4" class="node">
<title>Node4</title>
<g id="a_node4"><a xlink:href="../../d3/dca/classrawspeed_1_1_buffer.html" target="_top" xlink:title=" ">
<polygon fill="none" stroke="black" points="386.5,-38.5 386.5,-57.5 485.5,-57.5 485.5,-38.5 386.5,-38.5"/>
<text text-anchor="middle" x="436" y="-45.5" font-family="Helvetica,sans-Serif" font-size="10.00">rawspeed::Buffer</text>
</a>
</g>
</g>
<!-- Node4&#45;&gt;Node3 -->
<g id="edge3" class="edge">
<title>Node4&#45;&gt;Node3</title>
<path fill="none" stroke="midnightblue" d="M495.78,-46.91C525.59,-46.35 561.73,-45.68 591.75,-45.12"/>
<polygon fill="midnightblue" stroke="midnightblue" points="495.45,-43.41 485.52,-47.1 495.58,-50.41 495.45,-43.41"/>
</g>
<!-- Node5 -->
<g id="node5" class="node">
<title>Node5</title>
<g id="a_node5"><a xlink:href="../../d3/d87/classuint32__t.html" target="_top" xlink:title=" ">
<polygon fill="none" stroke="black" points="132,-38.5 132,-57.5 188,-57.5 188,-38.5 132,-38.5"/>
<text text-anchor="middle" x="160" y="-45.5" font-family="Helvetica,sans-Serif" font-size="10.00">uint32_t</text>
</a>
</g>
</g>
<!-- Node5&#45;&gt;Node4 -->
<g id="edge4" class="edge">
<title>Node5&#45;&gt;Node4</title>
<path fill="none" stroke="#9a32cd" stroke-dasharray="5,2" d="M198.39,-48C247.13,-48 332.49,-48 386.27,-48"/>
<polygon fill="#9a32cd" stroke="#9a32cd" points="198.27,-44.5 188.27,-48 198.27,-51.5 198.27,-44.5"/>
<text text-anchor="middle" x="290.5" y="-51" font-family="Helvetica,sans-Serif" font-size="10.00"> size</text>
</g>
<!-- Node6 -->
<g id="node6" class="node">
<title>Node6</title>
<g id="a_node6"><a xlink:title=" ">
<polygon fill="none" stroke="#bfbfbf" points="141,-0.5 141,-19.5 179,-19.5 179,-0.5 141,-0.5"/>
<text text-anchor="middle" x="160" y="-7.5" font-family="Helvetica,sans-Serif" font-size="10.00">bool</text>
</a>
</g>
</g>
<!-- Node6&#45;&gt;Node4 -->
<g id="edge5" class="edge">
<title>Node6&#45;&gt;Node4</title>
<path fill="none" stroke="#9a32cd" stroke-dasharray="5,2" d="M189.52,-12.69C227.75,-16.44 297.68,-23.83 357,-33 367.22,-34.58 378.15,-36.52 388.49,-38.48"/>
<polygon fill="#9a32cd" stroke="#9a32cd" points="189.46,-9.16 179.16,-11.68 188.78,-16.13 189.46,-9.16"/>
<text text-anchor="middle" x="290.5" y="-36" font-family="Helvetica,sans-Serif" font-size="10.00"> isOwner</text>
</g>
<!-- Node7 -->
<g id="node7" class="node">
<title>Node7</title>
<g id="a_node7"><a xlink:title=" ">
<polygon fill="none" stroke="#bfbfbf" points="135,-89.5 135,-108.5 185,-108.5 185,-89.5 135,-89.5"/>
<text text-anchor="middle" x="160" y="-96.5" font-family="Helvetica,sans-Serif" font-size="10.00">uint8_t</text>
</a>
</g>
</g>
<!-- Node7&#45;&gt;Node4 -->
<g id="edge6" class="edge">
<title>Node7&#45;&gt;Node4</title>
<path fill="none" stroke="#9a32cd" stroke-dasharray="5,2" d="M195.24,-92.63C243.39,-83.66 331.34,-67.29 386.29,-57.07"/>
<polygon fill="#9a32cd" stroke="#9a32cd" points="194.51,-89.2 185.32,-94.47 195.79,-96.09 194.51,-89.2"/>
<text text-anchor="middle" x="290.5" y="-89" font-family="Helvetica,sans-Serif" font-size="10.00"> data</text>
</g>
<!-- Node10 -->
<g id="node10" class="node">
<title>Node10</title>
<g id="a_node10"><a xlink:title=" ">
<polygon fill="none" stroke="#bfbfbf" points="375,-99.5 375,-140.5 497,-140.5 497,-99.5 375,-99.5"/>
<text text-anchor="start" x="383" y="-128.5" font-family="Helvetica,sans-Serif" font-size="10.00">std::array&lt; uint8_t,</text>
<text text-anchor="start" x="383" y="-117.5" font-family="Helvetica,sans-Serif" font-size="10.00"> BitStreamCacheBase</text>
<text text-anchor="middle" x="436" y="-106.5" font-family="Helvetica,sans-Serif" font-size="10.00">::MaxProcessBytes &gt;</text>
</a>
</g>
</g>
<!-- Node7&#45;&gt;Node10 -->
<g id="edge10" class="edge">
<title>Node7&#45;&gt;Node10</title>
<path fill="none" stroke="#9a32cd" stroke-dasharray="5,2" d="M195.43,-101.64C240.38,-105.08 319.78,-111.17 374.79,-115.39"/>
<polygon fill="#9a32cd" stroke="#9a32cd" points="195.55,-98.14 185.32,-100.86 195.02,-105.12 195.55,-98.14"/>
<text text-anchor="middle" x="290.5" y="-116" font-family="Helvetica,sans-Serif" font-size="10.00"> elements</text>
</g>
<!-- Node8 -->
<g id="node8" class="node">
<title>Node8</title>
<g id="a_node8"><a xlink:title=" ">
<polygon fill="none" stroke="#bfbfbf" points="400,-0.5 400,-19.5 472,-19.5 472,-0.5 400,-0.5"/>
<text text-anchor="middle" x="436" y="-7.5" font-family="Helvetica,sans-Serif" font-size="10.00">Endianness</text>
</a>
</g>
</g>
<!-- Node8&#45;&gt;Node3 -->
<g id="edge7" class="edge">
<title>Node8&#45;&gt;Node3</title>
<path fill="none" stroke="#9a32cd" stroke-dasharray="5,2" d="M482.41,-16.81C509.1,-20.85 543.48,-26.12 574,-31 580.91,-32.11 588.17,-33.29 595.35,-34.47"/>
<polygon fill="#9a32cd" stroke="#9a32cd" points="482.63,-13.3 472.22,-15.27 481.58,-20.22 482.63,-13.3"/>
<text text-anchor="middle" x="544.5" y="-34" font-family="Helvetica,sans-Serif" font-size="10.00"> endianness</text>
</g>
<!-- Node9 -->
<g id="node9" class="node">
<title>Node9</title>
<g id="a_node9"><a xlink:title=" ">
<polygon fill="none" stroke="#bfbfbf" points="621.5,-72.5 621.5,-91.5 684.5,-91.5 684.5,-72.5 621.5,-72.5"/>
<text text-anchor="middle" x="653" y="-79.5" font-family="Helvetica,sans-Serif" font-size="10.00">size_type</text>
</a>
</g>
</g>
<!-- Node9&#45;&gt;Node2 -->
<g id="edge8" class="edge">
<title>Node9&#45;&gt;Node2</title>
<path fill="none" stroke="#9a32cd" stroke-dasharray="5,2" d="M694.95,-82C717.91,-82 747.03,-82 772.84,-82"/>
<polygon fill="#9a32cd" stroke="#9a32cd" points="694.87,-78.5 684.87,-82 694.87,-85.5 694.87,-78.5"/>
<text text-anchor="middle" x="743.5" y="-85" font-family="Helvetica,sans-Serif" font-size="10.00"> pos</text>
</g>
<!-- Node10&#45;&gt;Node1 -->
<g id="edge9" class="edge">
<title>Node10&#45;&gt;Node1</title>
<path fill="none" stroke="#9a32cd" stroke-dasharray="5,2" d="M507.32,-118.41C598.28,-116.05 761.61,-110.81 901,-101 923.28,-99.43 928.89,-99.12 951,-96 956.75,-95.19 962.72,-94.25 968.69,-93.26"/>
<polygon fill="#9a32cd" stroke="#9a32cd" points="507.03,-114.91 497.13,-118.67 507.21,-121.91 507.03,-114.91"/>
<text text-anchor="middle" x="743.5" y="-113" font-family="Helvetica,sans-Serif" font-size="10.00"> tmp</text>
</g>
<!-- Node11 -->
<g id="node11" class="node">
<title>Node11</title>
<g id="a_node11"><a xlink:title="STL class.">
<polygon fill="none" stroke="#bfbfbf" points="114,-140.5 114,-159.5 206,-159.5 206,-140.5 114,-140.5"/>
<text text-anchor="middle" x="160" y="-147.5" font-family="Helvetica,sans-Serif" font-size="10.00">std::array&lt; T &gt;</text>
</a>
</g>
</g>
<!-- Node11&#45;&gt;Node10 -->
<g id="edge11" class="edge">
<title>Node11&#45;&gt;Node10</title>
<path fill="none" stroke="orange" stroke-dasharray="5,2" d="M216.32,-143.94C262.28,-138.91 327.53,-131.77 374.79,-126.59"/>
<polygon fill="orange" stroke="orange" points="215.81,-140.48 206.25,-145.05 216.57,-147.44 215.81,-140.48"/>
<text text-anchor="start" x="224" y="-156" font-family="Helvetica,sans-Serif" font-size="10.00"> &lt; uint8_t, BitStreamCache</text>
<text text-anchor="middle" x="290.5" y="-145" font-family="Helvetica,sans-Serif" font-size="10.00">Base::MaxProcessBytes &gt;</text>
</g>
<!-- Node12 -->
<g id="node12" class="node">
<title>Node12</title>
<g id="a_node12"><a xlink:title=" ">
<polygon fill="none" stroke="#bfbfbf" points="0,-140.5 0,-159.5 29,-159.5 29,-140.5 0,-140.5"/>
<text text-anchor="middle" x="14.5" y="-147.5" font-family="Helvetica,sans-Serif" font-size="10.00">T</text>
</a>
</g>
</g>
<!-- Node12&#45;&gt;Node11 -->
<g id="edge12" class="edge">
<title>Node12&#45;&gt;Node11</title>
<path fill="none" stroke="#9a32cd" stroke-dasharray="5,2" d="M39.18,-150C59.42,-150 89.11,-150 113.88,-150"/>
<polygon fill="#9a32cd" stroke="#9a32cd" points="39,-146.5 29,-150 39,-153.5 39,-146.5"/>
<text text-anchor="middle" x="71.5" y="-153" font-family="Helvetica,sans-Serif" font-size="10.00"> elements</text>
</g>
<!-- Node13 -->
<g id="node13" class="node">
<title>Node13</title>
<g id="a_node13"><a xlink:title=" ">
<polygon fill="none" stroke="#bfbfbf" points="813.5,-34.5 813.5,-53.5 860.5,-53.5 860.5,-34.5 813.5,-34.5"/>
<text text-anchor="middle" x="837" y="-41.5" font-family="Helvetica,sans-Serif" font-size="10.00">Cache</text>
</a>
</g>
</g>
<!-- Node13&#45;&gt;Node1 -->
<g id="edge13" class="edge">
<title>Node13&#45;&gt;Node1</title>
<path fill="none" stroke="#9a32cd" stroke-dasharray="5,2" d="M870.91,-50.6C897.84,-56 936.6,-63.77 968.82,-70.23"/>
<polygon fill="#9a32cd" stroke="#9a32cd" points="871.35,-47.12 860.86,-48.58 869.97,-53.98 871.35,-47.12"/>
<text text-anchor="middle" x="935" y="-69" font-family="Helvetica,sans-Serif" font-size="10.00"> cache</text>
</g>
</g>
</svg>
