<?xml version="1.0" encoding="UTF-8" standalone="no"?>
<!DOCTYPE svg PUBLIC "-//W3C//DTD SVG 1.1//EN"
 "http://www.w3.org/Graphics/SVG/1.1/DTD/svg11.dtd">
<!-- Generated by graphviz version 2.43.0 (0)
 -->
<!-- Title: librawspeed/common/Memory.cpp Pages: 1 -->
<svg width="664pt" height="207pt"
 viewBox="0.00 0.00 664.00 207.00" xmlns="http://www.w3.org/2000/svg" xmlns:xlink="http://www.w3.org/1999/xlink">
<g id="graph0" class="graph" transform="scale(1 1) rotate(0) translate(4 203)">
<title>librawspeed/common/Memory.cpp</title>
<!-- Node1 -->
<g id="node1" class="node">
<title>Node1</title>
<g id="a_node1"><a xlink:title=" ">
<polygon fill="#bfbfbf" stroke="black" points="332,-168.5 332,-198.5 454,-198.5 454,-168.5 332,-168.5"/>
<text text-anchor="start" x="340" y="-186.5" font-family="Helvetica,sans-Serif" font-size="10.00">librawspeed/common</text>
<text text-anchor="middle" x="393" y="-175.5" font-family="Helvetica,sans-Serif" font-size="10.00">/Memory.cpp</text>
</a>
</g>
</g>
<!-- Node2 -->
<g id="node2" class="node">
<title>Node2</title>
<g id="a_node2"><a xlink:title=" ">
<polygon fill="none" stroke="#bfbfbf" points="93,-56.5 93,-75.5 195,-75.5 195,-56.5 93,-56.5"/>
<text text-anchor="middle" x="144" y="-63.5" font-family="Helvetica,sans-Serif" font-size="10.00">rawspeedconfig.h</text>
</a>
</g>
</g>
<!-- Node1&#45;&gt;Node2 -->
<g id="edge1" class="edge">
<title>Node1&#45;&gt;Node2</title>
<path fill="none" stroke="midnightblue" d="M331.75,-169.62C299.47,-161.43 259.87,-149.1 227,-132 201.56,-118.76 176.17,-97.38 160.3,-82.78"/>
<polygon fill="midnightblue" stroke="midnightblue" points="162.6,-80.14 152.91,-75.84 157.81,-85.24 162.6,-80.14"/>
</g>
<!-- Node3 -->
<g id="node3" class="node">
<title>Node3</title>
<g id="a_node3"><a xlink:href="../../d3/de6/_memory_8h.html" target="_top" xlink:title=" ">
<polygon fill="none" stroke="black" points="236,-112.5 236,-131.5 346,-131.5 346,-112.5 236,-112.5"/>
<text text-anchor="middle" x="291" y="-119.5" font-family="Helvetica,sans-Serif" font-size="10.00">common/Memory.h</text>
</a>
</g>
</g>
<!-- Node1&#45;&gt;Node3 -->
<g id="edge2" class="edge">
<title>Node1&#45;&gt;Node3</title>
<path fill="none" stroke="midnightblue" d="M368.83,-168.4C352.48,-158.86 330.99,-146.32 314.73,-136.84"/>
<polygon fill="midnightblue" stroke="midnightblue" points="316.24,-133.67 305.84,-131.66 312.72,-139.72 316.24,-133.67"/>
</g>
<!-- Node4 -->
<g id="node4" class="node">
<title>Node4</title>
<g id="a_node4"><a xlink:href="../../d9/df5/src_2librawspeed_2common_2_common_8h.html" target="_top" xlink:title=" ">
<polygon fill="none" stroke="black" points="251,-56.5 251,-75.5 367,-75.5 367,-56.5 251,-56.5"/>
<text text-anchor="middle" x="309" y="-63.5" font-family="Helvetica,sans-Serif" font-size="10.00">common/Common.h</text>
</a>
</g>
</g>
<!-- Node1&#45;&gt;Node4 -->
<g id="edge16" class="edge">
<title>Node1&#45;&gt;Node4</title>
<path fill="none" stroke="midnightblue" d="M386.87,-168.24C380.17,-153.45 368.55,-129.99 355,-112 346.87,-101.2 336.15,-90.56 327.11,-82.34"/>
<polygon fill="midnightblue" stroke="midnightblue" points="329.21,-79.53 319.39,-75.54 324.58,-84.78 329.21,-79.53"/>
</g>
<!-- Node6 -->
<g id="node6" class="node">
<title>Node6</title>
<g id="a_node6"><a xlink:title=" ">
<polygon fill="none" stroke="#bfbfbf" points="604,-0.5 604,-19.5 656,-19.5 656,-0.5 604,-0.5"/>
<text text-anchor="middle" x="630" y="-7.5" font-family="Helvetica,sans-Serif" font-size="10.00">cassert</text>
</a>
</g>
</g>
<!-- Node1&#45;&gt;Node6 -->
<g id="edge17" class="edge">
<title>Node1&#45;&gt;Node6</title>
<path fill="none" stroke="midnightblue" d="M411.61,-168.3C430.49,-153.95 460.61,-131.21 487,-112 530.05,-80.66 581.15,-44.91 609.12,-25.47"/>
<polygon fill="midnightblue" stroke="midnightblue" points="611.46,-28.11 617.67,-19.53 607.46,-22.36 611.46,-28.11"/>
</g>
<!-- Node14 -->
<g id="node14" class="node">
<title>Node14</title>
<g id="a_node14"><a xlink:title=" ">
<polygon fill="none" stroke="#bfbfbf" points="385.5,-56.5 385.5,-75.5 438.5,-75.5 438.5,-56.5 385.5,-56.5"/>
<text text-anchor="middle" x="412" y="-63.5" font-family="Helvetica,sans-Serif" font-size="10.00">cstddef</text>
</a>
</g>
</g>
<!-- Node1&#45;&gt;Node14 -->
<g id="edge18" class="edge">
<title>Node1&#45;&gt;Node14</title>
<path fill="none" stroke="midnightblue" d="M395.33,-168.34C398.75,-147.53 405.15,-108.66 408.94,-85.58"/>
<polygon fill="midnightblue" stroke="midnightblue" points="412.4,-86.1 410.57,-75.67 405.5,-84.97 412.4,-86.1"/>
</g>
<!-- Node15 -->
<g id="node15" class="node">
<title>Node15</title>
<g id="a_node15"><a xlink:title=" ">
<polygon fill="none" stroke="#bfbfbf" points="495.5,-112.5 495.5,-131.5 544.5,-131.5 544.5,-112.5 495.5,-112.5"/>
<text text-anchor="middle" x="520" y="-119.5" font-family="Helvetica,sans-Serif" font-size="10.00">cstdlib</text>
</a>
</g>
</g>
<!-- Node1&#45;&gt;Node15 -->
<g id="edge19" class="edge">
<title>Node1&#45;&gt;Node15</title>
<path fill="none" stroke="midnightblue" d="M423.1,-168.4C444.12,-158.55 471.97,-145.5 492.42,-135.92"/>
<polygon fill="midnightblue" stroke="midnightblue" points="493.95,-139.07 501.52,-131.66 490.98,-132.73 493.95,-139.07"/>
</g>
<!-- Node3&#45;&gt;Node2 -->
<g id="edge3" class="edge">
<title>Node3&#45;&gt;Node2</title>
<path fill="none" stroke="midnightblue" d="M267.71,-112.44C243.19,-103.44 204.4,-89.19 176.8,-79.05"/>
<polygon fill="midnightblue" stroke="midnightblue" points="177.78,-75.68 167.18,-75.52 175.36,-82.25 177.78,-75.68"/>
</g>
<!-- Node3&#45;&gt;Node4 -->
<g id="edge4" class="edge">
<title>Node3&#45;&gt;Node4</title>
<path fill="none" stroke="midnightblue" d="M293.97,-112.08C296.38,-104.85 299.86,-94.41 302.87,-85.4"/>
<polygon fill="midnightblue" stroke="midnightblue" points="306.24,-86.34 306.08,-75.75 299.6,-84.13 306.24,-86.34"/>
</g>
<!-- Node8 -->
<g id="node8" class="node">
<title>Node8</title>
<g id="a_node8"><a xlink:title=" ">
<polygon fill="none" stroke="#bfbfbf" points="0,-0.5 0,-19.5 50,-19.5 50,-0.5 0,-0.5"/>
<text text-anchor="middle" x="25" y="-7.5" font-family="Helvetica,sans-Serif" font-size="10.00">cstdint</text>
</a>
</g>
</g>
<!-- Node3&#45;&gt;Node8 -->
<g id="edge15" class="edge">
<title>Node3&#45;&gt;Node8</title>
<path fill="none" stroke="midnightblue" d="M282.15,-112.45C267.26,-98.53 235.69,-71.02 204,-56 146.81,-28.9 125.34,-35.74 60.18,-20.19"/>
<polygon fill="midnightblue" stroke="midnightblue" points="60.79,-16.74 50.24,-17.73 59.1,-23.53 60.79,-16.74"/>
</g>
<!-- Node3&#45;&gt;Node14 -->
<g id="edge14" class="edge">
<title>Node3&#45;&gt;Node14</title>
<path fill="none" stroke="midnightblue" d="M310.17,-112.44C329.91,-103.64 360.89,-89.81 383.49,-79.72"/>
<polygon fill="midnightblue" stroke="midnightblue" points="385.21,-82.79 392.92,-75.52 382.36,-76.4 385.21,-82.79"/>
</g>
<!-- Node5 -->
<g id="node5" class="node">
<title>Node5</title>
<g id="a_node5"><a xlink:title=" ">
<polygon fill="none" stroke="#bfbfbf" points="134,-0.5 134,-19.5 198,-19.5 198,-0.5 134,-0.5"/>
<text text-anchor="middle" x="166" y="-7.5" font-family="Helvetica,sans-Serif" font-size="10.00">algorithm</text>
</a>
</g>
</g>
<!-- Node4&#45;&gt;Node5 -->
<g id="edge5" class="edge">
<title>Node4&#45;&gt;Node5</title>
<path fill="none" stroke="midnightblue" d="M286.34,-56.44C262.6,-47.48 225.09,-33.31 198.26,-23.18"/>
<polygon fill="midnightblue" stroke="midnightblue" points="199.14,-19.77 188.55,-19.52 196.67,-26.32 199.14,-19.77"/>
</g>
<!-- Node4&#45;&gt;Node6 -->
<g id="edge6" class="edge">
<title>Node4&#45;&gt;Node6</title>
<path fill="none" stroke="midnightblue" d="M367.19,-56.52C433.51,-46.74 538.86,-30.84 593.73,-20.07"/>
<polygon fill="midnightblue" stroke="midnightblue" points="594.58,-23.47 603.69,-18.05 593.19,-16.61 594.58,-23.47"/>
</g>
<!-- Node7 -->
<g id="node7" class="node">
<title>Node7</title>
<g id="a_node7"><a xlink:title=" ">
<polygon fill="none" stroke="#bfbfbf" points="216,-0.5 216,-19.5 266,-19.5 266,-0.5 216,-0.5"/>
<text text-anchor="middle" x="241" y="-7.5" font-family="Helvetica,sans-Serif" font-size="10.00">climits</text>
</a>
</g>
</g>
<!-- Node4&#45;&gt;Node7 -->
<g id="edge7" class="edge">
<title>Node4&#45;&gt;Node7</title>
<path fill="none" stroke="midnightblue" d="M298.07,-56.32C287.83,-48.18 272.28,-35.84 260,-26.09"/>
<polygon fill="midnightblue" stroke="midnightblue" points="262.13,-23.31 252.12,-19.83 257.78,-28.79 262.13,-23.31"/>
</g>
<!-- Node4&#45;&gt;Node8 -->
<g id="edge8" class="edge">
<title>Node4&#45;&gt;Node8</title>
<path fill="none" stroke="midnightblue" d="M254.13,-56.43C205.59,-48.56 132.65,-36 60.38,-20.17"/>
<polygon fill="midnightblue" stroke="midnightblue" points="60.72,-16.66 50.2,-17.91 59.2,-23.49 60.72,-16.66"/>
</g>
<!-- Node9 -->
<g id="node9" class="node">
<title>Node9</title>
<g id="a_node9"><a xlink:title=" ">
<polygon fill="none" stroke="#bfbfbf" points="284,-0.5 284,-19.5 334,-19.5 334,-0.5 284,-0.5"/>
<text text-anchor="middle" x="309" y="-7.5" font-family="Helvetica,sans-Serif" font-size="10.00">cstring</text>
</a>
</g>
</g>
<!-- Node4&#45;&gt;Node9 -->
<g id="edge9" class="edge">
<title>Node4&#45;&gt;Node9</title>
<path fill="none" stroke="midnightblue" d="M309,-56.08C309,-49.01 309,-38.86 309,-29.99"/>
<polygon fill="midnightblue" stroke="midnightblue" points="312.5,-29.75 309,-19.75 305.5,-29.75 312.5,-29.75"/>
</g>
<!-- Node10 -->
<g id="node10" class="node">
<title>Node10</title>
<g id="a_node10"><a xlink:title=" ">
<polygon fill="none" stroke="#bfbfbf" points="352.5,-0.5 352.5,-19.5 435.5,-19.5 435.5,-0.5 352.5,-0.5"/>
<text text-anchor="middle" x="394" y="-7.5" font-family="Helvetica,sans-Serif" font-size="10.00">initializer_list</text>
</a>
</g>
</g>
<!-- Node4&#45;&gt;Node10 -->
<g id="edge10" class="edge">
<title>Node4&#45;&gt;Node10</title>
<path fill="none" stroke="midnightblue" d="M322.66,-56.32C335.92,-47.9 356.27,-34.97 371.85,-25.07"/>
<polygon fill="midnightblue" stroke="midnightblue" points="373.81,-27.97 380.38,-19.65 370.06,-22.06 373.81,-27.97"/>
</g>
<!-- Node11 -->
<g id="node11" class="node">
<title>Node11</title>
<g id="a_node11"><a xlink:title=" ">
<polygon fill="none" stroke="#bfbfbf" points="454,-0.5 454,-19.5 498,-19.5 498,-0.5 454,-0.5"/>
<text text-anchor="middle" x="476" y="-7.5" font-family="Helvetica,sans-Serif" font-size="10.00">string</text>
</a>
</g>
</g>
<!-- Node4&#45;&gt;Node11 -->
<g id="edge11" class="edge">
<title>Node4&#45;&gt;Node11</title>
<path fill="none" stroke="midnightblue" d="M335.46,-56.44C365.01,-46.89 412.8,-31.44 444.31,-21.25"/>
<polygon fill="midnightblue" stroke="midnightblue" points="445.49,-24.54 453.93,-18.14 443.34,-17.88 445.49,-24.54"/>
</g>
<!-- Node12 -->
<g id="node12" class="node">
<title>Node12</title>
<g id="a_node12"><a xlink:title=" ">
<polygon fill="none" stroke="#bfbfbf" points="516.5,-0.5 516.5,-19.5 585.5,-19.5 585.5,-0.5 516.5,-0.5"/>
<text text-anchor="middle" x="551" y="-7.5" font-family="Helvetica,sans-Serif" font-size="10.00">type_traits</text>
</a>
</g>
</g>
<!-- Node4&#45;&gt;Node12 -->
<g id="edge12" class="edge">
<title>Node4&#45;&gt;Node12</title>
<path fill="none" stroke="midnightblue" d="M347.35,-56.44C390.59,-46.79 460.81,-31.12 506.45,-20.94"/>
<polygon fill="midnightblue" stroke="midnightblue" points="507.36,-24.32 516.36,-18.73 505.84,-17.49 507.36,-24.32"/>
</g>
<!-- Node13 -->
<g id="node13" class="node">
<title>Node13</title>
<g id="a_node13"><a xlink:title=" ">
<polygon fill="none" stroke="#bfbfbf" points="68.5,-0.5 68.5,-19.5 115.5,-19.5 115.5,-0.5 68.5,-0.5"/>
<text text-anchor="middle" x="92" y="-7.5" font-family="Helvetica,sans-Serif" font-size="10.00">vector</text>
</a>
</g>
</g>
<!-- Node4&#45;&gt;Node13 -->
<g id="edge13" class="edge">
<title>Node4&#45;&gt;Node13</title>
<path fill="none" stroke="midnightblue" d="M272.97,-56.48C237.85,-48.12 182.71,-34.81 125.68,-20.13"/>
<polygon fill="midnightblue" stroke="midnightblue" points="126.33,-16.68 115.77,-17.56 124.58,-23.46 126.33,-16.68"/>
</g>
</g>
</svg>
