<?xml version="1.0" encoding="UTF-8" standalone="no"?>
<!DOCTYPE svg PUBLIC "-//W3C//DTD SVG 1.1//EN"
 "http://www.w3.org/Graphics/SVG/1.1/DTD/svg11.dtd">
<!-- Generated by graphviz version 2.43.0 (0)
 -->
<!-- Title: rawspeed::RawImageWorker Pages: 1 -->
<svg width="1673pt" height="901pt"
 viewBox="0.00 0.00 1673.00 901.22" xmlns="http://www.w3.org/2000/svg" xmlns:xlink="http://www.w3.org/1999/xlink">
<g id="graph0" class="graph" transform="scale(1 1) rotate(0) translate(4 897.22)">
<title>rawspeed::RawImageWorker</title>
<!-- Node1 -->
<g id="node1" class="node">
<title>Node1</title>
<g id="a_node1"><a xlink:title=" ">
<polygon fill="#bfbfbf" stroke="black" points="1509,-555.72 1509,-574.72 1665,-574.72 1665,-555.72 1509,-555.72"/>
<text text-anchor="middle" x="1587" y="-562.72" font-family="Helvetica,sans-Serif" font-size="10.00">rawspeed::RawImageWorker</text>
</a>
</g>
</g>
<!-- Node2 -->
<g id="node2" class="node">
<title>Node2</title>
<g id="a_node2"><a xlink:title=" ">
<polygon fill="none" stroke="#bfbfbf" points="502.5,-707.72 502.5,-726.72 531.5,-726.72 531.5,-707.72 502.5,-707.72"/>
<text text-anchor="middle" x="517" y="-714.72" font-family="Helvetica,sans-Serif" font-size="10.00">int</text>
</a>
</g>
</g>
<!-- Node2&#45;&gt;Node1 -->
<g id="edge1" class="edge">
<title>Node2&#45;&gt;Node1</title>
<path fill="none" stroke="#9a32cd" stroke-dasharray="5,2" d="M536.28,-733.54C582.64,-773.16 710.01,-871.22 835,-871.22 835,-871.22 835,-871.22 1376.5,-871.22 1523.61,-871.22 1575.01,-627.44 1584.36,-575.06"/>
<polygon fill="#9a32cd" stroke="#9a32cd" points="538.43,-730.77 528.59,-726.86 533.84,-736.06 538.43,-730.77"/>
<text text-anchor="middle" x="1117" y="-885.22" font-family="Helvetica,sans-Serif" font-size="10.00"> start_y</text>
<text text-anchor="middle" x="1117" y="-874.22" font-family="Helvetica,sans-Serif" font-size="10.00">end_y</text>
</g>
<!-- Node3 -->
<g id="node3" class="node">
<title>Node3</title>
<g id="a_node3"><a xlink:href="../../dc/d44/classrawspeed_1_1_raw_image_data.html" target="_top" xlink:title=" ">
<polygon fill="none" stroke="black" points="1303,-555.72 1303,-574.72 1448,-574.72 1448,-555.72 1303,-555.72"/>
<text text-anchor="middle" x="1375.5" y="-562.72" font-family="Helvetica,sans-Serif" font-size="10.00">rawspeed::RawImageData</text>
</a>
</g>
</g>
<!-- Node2&#45;&gt;Node3 -->
<g id="edge50" class="edge">
<title>Node2&#45;&gt;Node3</title>
<path fill="none" stroke="#9a32cd" stroke-dasharray="5,2" d="M541.86,-720.88C664.73,-739.46 1222.79,-820.91 1285,-777.22 1355.95,-727.4 1370.92,-609.72 1373.84,-575.02"/>
<polygon fill="#9a32cd" stroke="#9a32cd" points="542.06,-717.37 531.65,-719.33 541.01,-724.29 542.06,-717.37"/>
<text text-anchor="middle" x="976.5" y="-828.22" font-family="Helvetica,sans-Serif" font-size="10.00"> blackLevel</text>
<text text-anchor="middle" x="976.5" y="-817.22" font-family="Helvetica,sans-Serif" font-size="10.00">pitch</text>
<text text-anchor="middle" x="976.5" y="-806.22" font-family="Helvetica,sans-Serif" font-size="10.00">whitePoint</text>
<text text-anchor="middle" x="976.5" y="-795.22" font-family="Helvetica,sans-Serif" font-size="10.00">bpp</text>
<text text-anchor="middle" x="976.5" y="-784.22" font-family="Helvetica,sans-Serif" font-size="10.00">cpp</text>
</g>
<!-- Node7 -->
<g id="node7" class="node">
<title>Node7</title>
<g id="a_node7"><a xlink:href="../../db/d1a/classrawspeed_1_1_table_look_up.html" target="_top" xlink:title=" ">
<polygon fill="none" stroke="black" points="770,-533.72 770,-552.72 902,-552.72 902,-533.72 770,-533.72"/>
<text text-anchor="middle" x="836" y="-540.72" font-family="Helvetica,sans-Serif" font-size="10.00">rawspeed::TableLookUp</text>
</a>
</g>
</g>
<!-- Node2&#45;&gt;Node7 -->
<g id="edge11" class="edge">
<title>Node2&#45;&gt;Node7</title>
<path fill="none" stroke="#9a32cd" stroke-dasharray="5,2" d="M541.29,-710.72C554.29,-706.61 570.53,-700.67 584,-693.22 592.87,-688.32 593.06,-684 602,-679.22 660.65,-647.92 687.22,-666.8 744,-632.22 780.24,-610.16 813.31,-571.13 827.58,-552.99"/>
<polygon fill="#9a32cd" stroke="#9a32cd" points="540.25,-707.38 531.68,-713.61 542.26,-714.08 540.25,-707.38"/>
<text text-anchor="middle" x="673" y="-682.22" font-family="Helvetica,sans-Serif" font-size="10.00"> ntables</text>
</g>
<!-- Node17 -->
<g id="node17" class="node">
<title>Node17</title>
<g id="a_node17"><a xlink:href="../../dc/d97/classrawspeed_1_1_image_meta_data.html" target="_top" xlink:title=" ">
<polygon fill="none" stroke="black" points="762,-277.72 762,-296.72 910,-296.72 910,-277.72 762,-277.72"/>
<text text-anchor="middle" x="836" y="-284.72" font-family="Helvetica,sans-Serif" font-size="10.00">rawspeed::ImageMetaData</text>
</a>
</g>
</g>
<!-- Node2&#45;&gt;Node17 -->
<g id="edge25" class="edge">
<title>Node2&#45;&gt;Node17</title>
<path fill="none" stroke="#9a32cd" stroke-dasharray="5,2" d="M541.83,-714.8C556.31,-712.02 573.9,-706.04 584,-693.22 628.02,-637.36 553.99,-586.69 602,-534.22 645.48,-486.7 700.09,-552.36 744,-505.22 785.86,-460.29 736.28,-423.99 762,-368.22 776.03,-337.8 805.56,-310.72 822.44,-296.91"/>
<polygon fill="#9a32cd" stroke="#9a32cd" points="540.9,-711.4 531.54,-716.37 541.95,-718.32 540.9,-711.4"/>
<text text-anchor="middle" x="673" y="-537.22" font-family="Helvetica,sans-Serif" font-size="10.00"> isoSpeed</text>
</g>
<!-- Node33 -->
<g id="node33" class="node">
<title>Node33</title>
<g id="a_node33"><a xlink:title=" ">
<polygon fill="none" stroke="#bfbfbf" points="781,-670.72 781,-689.72 891,-689.72 891,-670.72 781,-670.72"/>
<text text-anchor="middle" x="836" y="-677.72" font-family="Helvetica,sans-Serif" font-size="10.00">std::array&lt; int, 4 &gt;</text>
</a>
</g>
</g>
<!-- Node2&#45;&gt;Node33 -->
<g id="edge46" class="edge">
<title>Node2&#45;&gt;Node33</title>
<path fill="none" stroke="#9a32cd" stroke-dasharray="5,2" d="M541.64,-715.22C582.82,-711.64 670.36,-703.63 744,-694.22 755.89,-692.71 768.63,-690.87 780.69,-689.05"/>
<polygon fill="#9a32cd" stroke="#9a32cd" points="541.19,-711.75 531.53,-716.09 541.79,-718.72 541.19,-711.75"/>
<text text-anchor="middle" x="673" y="-713.22" font-family="Helvetica,sans-Serif" font-size="10.00"> elements</text>
</g>
<!-- Node3&#45;&gt;Node1 -->
<g id="edge2" class="edge">
<title>Node3&#45;&gt;Node1</title>
<path fill="none" stroke="#9a32cd" stroke-dasharray="5,2" d="M1458.23,-565.22C1474.84,-565.22 1492.27,-565.22 1508.72,-565.22"/>
<polygon fill="#9a32cd" stroke="#9a32cd" points="1458.01,-561.72 1448.01,-565.22 1458.01,-568.72 1458.01,-561.72"/>
<text text-anchor="middle" x="1478.5" y="-568.22" font-family="Helvetica,sans-Serif" font-size="10.00"> data</text>
</g>
<!-- Node4 -->
<g id="node4" class="node">
<title>Node4</title>
<g id="a_node4"><a xlink:href="../../d6/d92/classrawspeed_1_1_error_log.html" target="_top" xlink:title=" ">
<polygon fill="none" stroke="black" points="1062,-715.72 1062,-734.72 1172,-734.72 1172,-715.72 1062,-715.72"/>
<text text-anchor="middle" x="1117" y="-722.72" font-family="Helvetica,sans-Serif" font-size="10.00">rawspeed::ErrorLog</text>
</a>
</g>
</g>
<!-- Node4&#45;&gt;Node3 -->
<g id="edge3" class="edge">
<title>Node4&#45;&gt;Node3</title>
<path fill="none" stroke="midnightblue" d="M1182.19,-722.27C1215.14,-718.18 1254.63,-709.08 1285,-689.22 1330.33,-659.59 1360.25,-598.44 1370.53,-574.83"/>
<polygon fill="midnightblue" stroke="midnightblue" points="1181.75,-718.8 1172.2,-723.38 1182.52,-725.75 1181.75,-718.8"/>
</g>
<!-- Node5 -->
<g id="node5" class="node">
<title>Node5</title>
<g id="a_node5"><a xlink:title=" ">
<polygon fill="none" stroke="#bfbfbf" points="812.5,-710.72 812.5,-729.72 859.5,-729.72 859.5,-710.72 812.5,-710.72"/>
<text text-anchor="middle" x="836" y="-717.72" font-family="Helvetica,sans-Serif" font-size="10.00">Mutex</text>
</a>
</g>
</g>
<!-- Node5&#45;&gt;Node3 -->
<g id="edge51" class="edge">
<title>Node5&#45;&gt;Node3</title>
<path fill="none" stroke="#9a32cd" stroke-dasharray="5,2" d="M869.48,-714.76C944.89,-701.97 1130.06,-669.9 1191,-653.22 1233.85,-641.5 1244.9,-638.35 1285,-619.22 1312.85,-605.95 1343.18,-586.49 1360.41,-574.92"/>
<polygon fill="#9a32cd" stroke="#9a32cd" points="868.86,-711.32 859.59,-716.44 870.03,-718.22 868.86,-711.32"/>
<text text-anchor="middle" x="1117" y="-698.22" font-family="Helvetica,sans-Serif" font-size="10.00"> mymutex</text>
<text text-anchor="middle" x="1117" y="-687.22" font-family="Helvetica,sans-Serif" font-size="10.00">mBadPixelMutex</text>
</g>
<!-- Node5&#45;&gt;Node4 -->
<g id="edge4" class="edge">
<title>Node5&#45;&gt;Node4</title>
<path fill="none" stroke="#9a32cd" stroke-dasharray="5,2" d="M870.12,-720.82C917.44,-721.67 1004.93,-723.23 1061.78,-724.25"/>
<polygon fill="#9a32cd" stroke="#9a32cd" points="869.89,-717.31 859.83,-720.63 869.77,-724.31 869.89,-717.31"/>
<text text-anchor="middle" x="976.5" y="-727.22" font-family="Helvetica,sans-Serif" font-size="10.00"> mutex</text>
</g>
<!-- Node6 -->
<g id="node6" class="node">
<title>Node6</title>
<g id="a_node6"><a xlink:title=" ">
<polygon fill="none" stroke="#bfbfbf" points="1043,-523.22 1043,-553.22 1191,-553.22 1191,-523.22 1043,-523.22"/>
<text text-anchor="start" x="1051" y="-541.22" font-family="Helvetica,sans-Serif" font-size="10.00">std::unique_ptr&lt; rawspeed</text>
<text text-anchor="middle" x="1117" y="-530.22" font-family="Helvetica,sans-Serif" font-size="10.00">::TableLookUp &gt;</text>
</a>
</g>
</g>
<!-- Node6&#45;&gt;Node3 -->
<g id="edge5" class="edge">
<title>Node6&#45;&gt;Node3</title>
<path fill="none" stroke="#9a32cd" stroke-dasharray="5,2" d="M1201.15,-546.98C1233.86,-550.42 1271.05,-554.33 1302.57,-557.65"/>
<polygon fill="#9a32cd" stroke="#9a32cd" points="1201.47,-543.49 1191.16,-545.93 1200.74,-550.45 1201.47,-543.49"/>
<text text-anchor="middle" x="1247" y="-559.22" font-family="Helvetica,sans-Serif" font-size="10.00"> table</text>
</g>
<!-- Node7&#45;&gt;Node6 -->
<g id="edge6" class="edge">
<title>Node7&#45;&gt;Node6</title>
<path fill="none" stroke="#9a32cd" stroke-dasharray="5,2" d="M912.17,-541.88C952.78,-541.15 1002.69,-540.25 1042.97,-539.53"/>
<polygon fill="#9a32cd" stroke="#9a32cd" points="912,-538.38 902.06,-542.06 912.12,-545.38 912,-538.38"/>
<text text-anchor="middle" x="976.5" y="-545.22" font-family="Helvetica,sans-Serif" font-size="10.00"> ptr</text>
</g>
<!-- Node8 -->
<g id="node8" class="node">
<title>Node8</title>
<g id="a_node8"><a xlink:title=" ">
<polygon fill="none" stroke="#bfbfbf" points="451.5,-453.72 451.5,-472.72 582.5,-472.72 582.5,-453.72 451.5,-453.72"/>
<text text-anchor="middle" x="517" y="-460.72" font-family="Helvetica,sans-Serif" font-size="10.00">std::vector&lt; uint16_t &gt;</text>
</a>
</g>
</g>
<!-- Node8&#45;&gt;Node7 -->
<g id="edge7" class="edge">
<title>Node8&#45;&gt;Node7</title>
<path fill="none" stroke="#9a32cd" stroke-dasharray="5,2" d="M569.19,-451.95C616.29,-443.99 687.25,-438.23 744,-460.22 782.68,-475.21 815,-515.15 828.38,-533.62"/>
<polygon fill="#9a32cd" stroke="#9a32cd" points="568.45,-448.52 559.22,-453.72 569.68,-455.41 568.45,-448.52"/>
<text text-anchor="middle" x="673" y="-463.22" font-family="Helvetica,sans-Serif" font-size="10.00"> tables</text>
</g>
<!-- Node9 -->
<g id="node9" class="node">
<title>Node9</title>
<g id="a_node9"><a xlink:href="../../d5/df4/classuint16__t.html" target="_top" xlink:title=" ">
<polygon fill="none" stroke="black" points="211.5,-482.72 211.5,-501.72 267.5,-501.72 267.5,-482.72 211.5,-482.72"/>
<text text-anchor="middle" x="239.5" y="-489.72" font-family="Helvetica,sans-Serif" font-size="10.00">uint16_t</text>
</a>
</g>
</g>
<!-- Node9&#45;&gt;Node8 -->
<g id="edge8" class="edge">
<title>Node9&#45;&gt;Node8</title>
<path fill="none" stroke="#9a32cd" stroke-dasharray="5,2" d="M277.74,-488.3C322.2,-483.62 397.3,-475.72 451.32,-470.03"/>
<polygon fill="#9a32cd" stroke="#9a32cd" points="277.25,-484.84 267.67,-489.36 277.98,-491.8 277.25,-484.84"/>
<text text-anchor="middle" x="370" y="-488.22" font-family="Helvetica,sans-Serif" font-size="10.00"> elements</text>
</g>
<!-- Node10 -->
<g id="node10" class="node">
<title>Node10</title>
<g id="a_node10"><a xlink:title="STL class.">
<polygon fill="none" stroke="#bfbfbf" points="191,-429.72 191,-448.72 288,-448.72 288,-429.72 191,-429.72"/>
<text text-anchor="middle" x="239.5" y="-436.72" font-family="Helvetica,sans-Serif" font-size="10.00">std::vector&lt; T &gt;</text>
</a>
</g>
</g>
<!-- Node10&#45;&gt;Node8 -->
<g id="edge9" class="edge">
<title>Node10&#45;&gt;Node8</title>
<path fill="none" stroke="orange" stroke-dasharray="5,2" d="M298.3,-444.26C343.04,-448.16 405,-453.55 451.38,-457.59"/>
<polygon fill="orange" stroke="orange" points="298.44,-440.76 288.17,-443.38 297.83,-447.73 298.44,-440.76"/>
<text text-anchor="middle" x="370" y="-459.22" font-family="Helvetica,sans-Serif" font-size="10.00"> &lt; uint16_t &gt;</text>
</g>
<!-- Node14 -->
<g id="node14" class="node">
<title>Node14</title>
<g id="a_node14"><a xlink:title=" ">
<polygon fill="none" stroke="#bfbfbf" points="1053.5,-410.22 1053.5,-440.22 1180.5,-440.22 1180.5,-410.22 1053.5,-410.22"/>
<text text-anchor="start" x="1061.5" y="-428.22" font-family="Helvetica,sans-Serif" font-size="10.00">std::vector&lt; rawspeed</text>
<text text-anchor="middle" x="1117" y="-417.22" font-family="Helvetica,sans-Serif" font-size="10.00">::BlackArea &gt;</text>
</a>
</g>
</g>
<!-- Node10&#45;&gt;Node14 -->
<g id="edge19" class="edge">
<title>Node10&#45;&gt;Node14</title>
<path fill="none" stroke="orange" stroke-dasharray="5,2" d="M298.29,-437.52C369.65,-435.47 494.76,-432.08 602,-430.22 764.84,-427.41 956.73,-426.06 1053.49,-425.53"/>
<polygon fill="orange" stroke="orange" points="298.05,-434.02 288.16,-437.81 298.25,-441.02 298.05,-434.02"/>
<text text-anchor="middle" x="673" y="-433.22" font-family="Helvetica,sans-Serif" font-size="10.00"> &lt; rawspeed::BlackArea &gt;</text>
</g>
<!-- Node31 -->
<g id="node31" class="node">
<title>Node31</title>
<g id="a_node31"><a xlink:title=" ">
<polygon fill="none" stroke="#bfbfbf" points="450,-72.72 450,-91.72 584,-91.72 584,-72.72 450,-72.72"/>
<text text-anchor="middle" x="517" y="-79.72" font-family="Helvetica,sans-Serif" font-size="10.00">std::vector&lt; CFAColor &gt;</text>
</a>
</g>
</g>
<!-- Node10&#45;&gt;Node31 -->
<g id="edge43" class="edge">
<title>Node10&#45;&gt;Node31</title>
<path fill="none" stroke="orange" stroke-dasharray="5,2" d="M248.76,-420.1C264.81,-383.15 299.4,-304.66 308,-294.22 351.31,-241.68 395.94,-261.99 432,-204.22 456.61,-164.8 418.95,-135.8 450,-101.22 453.43,-97.41 457.56,-94.34 462.08,-91.87"/>
<polygon fill="orange" stroke="orange" points="245.36,-419.15 244.59,-429.72 251.78,-421.94 245.36,-419.15"/>
<text text-anchor="middle" x="370" y="-297.22" font-family="Helvetica,sans-Serif" font-size="10.00"> &lt; CFAColor &gt;</text>
</g>
<!-- Node11 -->
<g id="node11" class="node">
<title>Node11</title>
<g id="a_node11"><a xlink:title=" ">
<polygon fill="none" stroke="#bfbfbf" points="37.5,-468.72 37.5,-487.72 66.5,-487.72 66.5,-468.72 37.5,-468.72"/>
<text text-anchor="middle" x="52" y="-475.72" font-family="Helvetica,sans-Serif" font-size="10.00">T</text>
</a>
</g>
</g>
<!-- Node11&#45;&gt;Node10 -->
<g id="edge10" class="edge">
<title>Node11&#45;&gt;Node10</title>
<path fill="none" stroke="#9a32cd" stroke-dasharray="5,2" d="M76.51,-472.57C89.83,-469.42 106.82,-465.48 122,-462.22 144.58,-457.38 169.7,-452.37 190.81,-448.27"/>
<polygon fill="#9a32cd" stroke="#9a32cd" points="75.63,-469.18 66.72,-474.9 77.26,-475.99 75.63,-469.18"/>
<text text-anchor="middle" x="146.5" y="-465.22" font-family="Helvetica,sans-Serif" font-size="10.00"> elements</text>
</g>
<!-- Node13 -->
<g id="node13" class="node">
<title>Node13</title>
<g id="a_node13"><a xlink:title="STL class.">
<polygon fill="none" stroke="#bfbfbf" points="311,-693.72 311,-712.72 429,-712.72 429,-693.72 311,-693.72"/>
<text text-anchor="middle" x="370" y="-700.72" font-family="Helvetica,sans-Serif" font-size="10.00">std::unique_ptr&lt; T &gt;</text>
</a>
</g>
</g>
<!-- Node11&#45;&gt;Node13 -->
<g id="edge14" class="edge">
<title>Node11&#45;&gt;Node13</title>
<path fill="none" stroke="#9a32cd" stroke-dasharray="5,2" d="M68.31,-495.52C105.24,-536.1 203.87,-637.84 308,-689.22 311.41,-690.91 315.03,-692.39 318.73,-693.7"/>
<polygon fill="#9a32cd" stroke="#9a32cd" points="70.87,-493.13 61.58,-488.05 65.67,-497.82 70.87,-493.13"/>
<text text-anchor="middle" x="146.5" y="-598.22" font-family="Helvetica,sans-Serif" font-size="10.00"> ptr</text>
</g>
<!-- Node25 -->
<g id="node25" class="node">
<title>Node25</title>
<g id="a_node25"><a xlink:title="STL class.">
<polygon fill="none" stroke="#bfbfbf" points="193.5,-520.72 193.5,-539.72 285.5,-539.72 285.5,-520.72 193.5,-520.72"/>
<text text-anchor="middle" x="239.5" y="-527.72" font-family="Helvetica,sans-Serif" font-size="10.00">std::array&lt; T &gt;</text>
</a>
</g>
</g>
<!-- Node11&#45;&gt;Node25 -->
<g id="edge31" class="edge">
<title>Node11&#45;&gt;Node25</title>
<path fill="none" stroke="#9a32cd" stroke-dasharray="5,2" d="M76.55,-484.82C108.9,-493.89 167.31,-510.27 204.43,-520.67"/>
<polygon fill="#9a32cd" stroke="#9a32cd" points="77.21,-481.38 66.64,-482.05 75.32,-488.12 77.21,-481.38"/>
<text text-anchor="middle" x="146.5" y="-514.22" font-family="Helvetica,sans-Serif" font-size="10.00"> elements</text>
</g>
<!-- Node29 -->
<g id="node29" class="node">
<title>Node29</title>
<g id="a_node29"><a xlink:title="STL class.">
<polygon fill="none" stroke="#bfbfbf" points="189,-25.72 189,-44.72 290,-44.72 290,-25.72 189,-25.72"/>
<text text-anchor="middle" x="239.5" y="-32.72" font-family="Helvetica,sans-Serif" font-size="10.00">std::map&lt; K, T &gt;</text>
</a>
</g>
</g>
<!-- Node11&#45;&gt;Node29 -->
<g id="edge38" class="edge">
<title>Node11&#45;&gt;Node29</title>
<path fill="none" stroke="#9a32cd" stroke-dasharray="5,2" d="M56.68,-458.46C68.43,-398.67 109.13,-215.86 189,-86.22 199.1,-69.84 215.27,-54.48 226.36,-44.99"/>
<polygon fill="#9a32cd" stroke="#9a32cd" points="53.21,-457.96 54.76,-468.44 60.08,-459.28 53.21,-457.96"/>
<text text-anchor="middle" x="146.5" y="-222.22" font-family="Helvetica,sans-Serif" font-size="10.00"> elements</text>
</g>
<!-- Node12 -->
<g id="node12" class="node">
<title>Node12</title>
<g id="a_node12"><a xlink:title=" ">
<polygon fill="none" stroke="#bfbfbf" points="498,-551.72 498,-570.72 536,-570.72 536,-551.72 498,-551.72"/>
<text text-anchor="middle" x="517" y="-558.72" font-family="Helvetica,sans-Serif" font-size="10.00">bool</text>
</a>
</g>
</g>
<!-- Node12&#45;&gt;Node3 -->
<g id="edge53" class="edge">
<title>Node12&#45;&gt;Node3</title>
<path fill="none" stroke="#9a32cd" stroke-dasharray="5,2" d="M546.24,-565.85C562.49,-568.29 583.34,-571.01 602,-572.22 664.98,-576.33 680.89,-572.46 744,-572.22 984.45,-571.34 1044.6,-573.14 1285,-568.22 1290.75,-568.11 1296.71,-567.96 1302.69,-567.8"/>
<polygon fill="#9a32cd" stroke="#9a32cd" points="546.7,-562.39 536.29,-564.32 545.63,-569.3 546.7,-562.39"/>
<text text-anchor="middle" x="976.5" y="-586.22" font-family="Helvetica,sans-Serif" font-size="10.00"> isCFA</text>
<text text-anchor="middle" x="976.5" y="-575.22" font-family="Helvetica,sans-Serif" font-size="10.00">mDitherScale</text>
</g>
<!-- Node12&#45;&gt;Node7 -->
<g id="edge12" class="edge">
<title>Node12&#45;&gt;Node7</title>
<path fill="none" stroke="#9a32cd" stroke-dasharray="5,2" d="M546.5,-559.61C596.51,-556.77 701.24,-550.82 769.81,-546.93"/>
<polygon fill="#9a32cd" stroke="#9a32cd" points="546.2,-556.12 536.41,-560.18 546.6,-563.11 546.2,-556.12"/>
<text text-anchor="middle" x="673" y="-560.22" font-family="Helvetica,sans-Serif" font-size="10.00"> dither</text>
</g>
<!-- Node15 -->
<g id="node15" class="node">
<title>Node15</title>
<g id="a_node15"><a xlink:href="../../d8/d30/classrawspeed_1_1_black_area.html" target="_top" xlink:title=" ">
<polygon fill="none" stroke="black" points="776.5,-377.72 776.5,-396.72 895.5,-396.72 895.5,-377.72 776.5,-377.72"/>
<text text-anchor="middle" x="836" y="-384.72" font-family="Helvetica,sans-Serif" font-size="10.00">rawspeed::BlackArea</text>
</a>
</g>
</g>
<!-- Node12&#45;&gt;Node15 -->
<g id="edge18" class="edge">
<title>Node12&#45;&gt;Node15</title>
<path fill="none" stroke="#9a32cd" stroke-dasharray="5,2" d="M534.05,-544.14C549.8,-528.51 575.28,-506.06 602,-494.22 660.46,-468.33 686.51,-499.21 744,-471.22 781.12,-453.16 813.75,-414.94 827.74,-396.96"/>
<polygon fill="#9a32cd" stroke="#9a32cd" points="531.24,-542.01 526.75,-551.6 536.24,-546.9 531.24,-542.01"/>
<text text-anchor="middle" x="673" y="-497.22" font-family="Helvetica,sans-Serif" font-size="10.00"> isVertical</text>
</g>
<!-- Node13&#45;&gt;Node6 -->
<g id="edge13" class="edge">
<title>Node13&#45;&gt;Node6</title>
<path fill="none" stroke="orange" stroke-dasharray="5,2" d="M385.15,-685.77C399.57,-669.37 423.53,-645.67 450,-634.22 684.84,-532.67 783.47,-690.64 1025,-606.22 1056.09,-595.36 1085.34,-569.73 1101.93,-553.23"/>
<polygon fill="orange" stroke="orange" points="382.32,-683.7 378.52,-693.58 387.66,-688.23 382.32,-683.7"/>
<text text-anchor="middle" x="673" y="-618.22" font-family="Helvetica,sans-Serif" font-size="10.00"> &lt; rawspeed::TableLookUp &gt;</text>
</g>
<!-- Node14&#45;&gt;Node3 -->
<g id="edge15" class="edge">
<title>Node14&#45;&gt;Node3</title>
<path fill="none" stroke="#9a32cd" stroke-dasharray="5,2" d="M1149.78,-445.83C1183.42,-467.68 1238.04,-503.25 1285,-534.22 1293.03,-539.52 1294.24,-542.27 1303,-546.22 1311.31,-549.97 1320.51,-553.11 1329.47,-555.67"/>
<polygon fill="#9a32cd" stroke="#9a32cd" points="1151.57,-442.83 1141.28,-440.32 1147.76,-448.7 1151.57,-442.83"/>
<text text-anchor="middle" x="1247" y="-537.22" font-family="Helvetica,sans-Serif" font-size="10.00"> blackAreas</text>
</g>
<!-- Node15&#45;&gt;Node14 -->
<g id="edge16" class="edge">
<title>Node15&#45;&gt;Node14</title>
<path fill="none" stroke="#9a32cd" stroke-dasharray="5,2" d="M906.1,-388.71C941.8,-390.31 985.96,-393.58 1025,-400.22 1039.21,-402.64 1054.41,-406.35 1068.23,-410.18"/>
<polygon fill="#9a32cd" stroke="#9a32cd" points="905.92,-385.2 895.79,-388.29 905.63,-392.2 905.92,-385.2"/>
<text text-anchor="middle" x="976.5" y="-403.22" font-family="Helvetica,sans-Serif" font-size="10.00"> elements</text>
</g>
<!-- Node16 -->
<g id="node16" class="node">
<title>Node16</title>
<g id="a_node16"><a xlink:href="../../d3/d87/classuint32__t.html" target="_top" xlink:title=" ">
<polygon fill="none" stroke="black" points="489,-337.72 489,-356.72 545,-356.72 545,-337.72 489,-337.72"/>
<text text-anchor="middle" x="517" y="-344.72" font-family="Helvetica,sans-Serif" font-size="10.00">uint32_t</text>
</a>
</g>
</g>
<!-- Node16&#45;&gt;Node3 -->
<g id="edge48" class="edge">
<title>Node16&#45;&gt;Node3</title>
<path fill="none" stroke="#9a32cd" stroke-dasharray="5,2" d="M555.2,-346.52C679.4,-344.73 1078.29,-343.62 1191,-400.22 1240.54,-425.11 1255.37,-435.37 1285,-482.22 1300.79,-507.2 1281.96,-525.48 1303,-546.22 1306.93,-550.1 1311.56,-553.21 1316.54,-555.7"/>
<polygon fill="#9a32cd" stroke="#9a32cd" points="555,-343.02 545.05,-346.68 555.11,-350.02 555,-343.02"/>
<text text-anchor="middle" x="976.5" y="-377.22" font-family="Helvetica,sans-Serif" font-size="10.00"> padding</text>
<text text-anchor="middle" x="976.5" y="-366.22" font-family="Helvetica,sans-Serif" font-size="10.00">mBadPixelMapPitch</text>
</g>
<!-- Node16&#45;&gt;Node15 -->
<g id="edge17" class="edge">
<title>Node16&#45;&gt;Node15</title>
<path fill="none" stroke="#9a32cd" stroke-dasharray="5,2" d="M555.37,-352.17C569.92,-354.08 586.74,-356.28 602,-358.22 661.24,-365.79 728.98,-374.19 776.09,-380"/>
<polygon fill="#9a32cd" stroke="#9a32cd" points="555.6,-348.67 545.23,-350.84 554.69,-355.61 555.6,-348.67"/>
<text text-anchor="middle" x="673" y="-390.22" font-family="Helvetica,sans-Serif" font-size="10.00"> offset</text>
<text text-anchor="middle" x="673" y="-379.22" font-family="Helvetica,sans-Serif" font-size="10.00">size</text>
</g>
<!-- Node16&#45;&gt;Node17 -->
<g id="edge24" class="edge">
<title>Node16&#45;&gt;Node17</title>
<path fill="none" stroke="#9a32cd" stroke-dasharray="5,2" d="M554.69,-336.95C564.26,-334.2 574.53,-331.16 584,-328.22 592.05,-325.72 593.8,-324.19 602,-322.22 631.63,-315.12 705.7,-304.43 762.44,-296.73"/>
<polygon fill="#9a32cd" stroke="#9a32cd" points="553.7,-333.6 545.05,-339.71 555.63,-340.33 553.7,-333.6"/>
<text text-anchor="middle" x="673" y="-325.22" font-family="Helvetica,sans-Serif" font-size="10.00"> fujiRotationPos</text>
</g>
<!-- Node26 -->
<g id="node26" class="node">
<title>Node26</title>
<g id="a_node26"><a xlink:href="../../d2/d4f/classrawspeed_1_1_color_filter_array.html" target="_top" xlink:title=" ">
<polygon fill="none" stroke="black" points="763,-46.72 763,-65.72 909,-65.72 909,-46.72 763,-46.72"/>
<text text-anchor="middle" x="836" y="-53.72" font-family="Helvetica,sans-Serif" font-size="10.00">rawspeed::ColorFilterArray</text>
</a>
</g>
</g>
<!-- Node16&#45;&gt;Node26 -->
<g id="edge39" class="edge">
<title>Node16&#45;&gt;Node26</title>
<path fill="none" stroke="#9a32cd" stroke-dasharray="5,2" d="M555,-343.56C565.59,-340.82 576.33,-336.14 584,-328.22 606.65,-304.84 579.06,-280.32 602,-257.22 647.96,-210.96 692.46,-260.19 744,-220.22 798.3,-178.12 824.91,-94.01 832.59,-65.74"/>
<polygon fill="#9a32cd" stroke="#9a32cd" points="554.08,-340.18 545,-345.65 555.5,-347.04 554.08,-340.18"/>
<text text-anchor="middle" x="673" y="-271.22" font-family="Helvetica,sans-Serif" font-size="10.00"> x</text>
<text text-anchor="middle" x="673" y="-260.22" font-family="Helvetica,sans-Serif" font-size="10.00">y</text>
</g>
<!-- Node17&#45;&gt;Node3 -->
<g id="edge20" class="edge">
<title>Node17&#45;&gt;Node3</title>
<path fill="none" stroke="#9a32cd" stroke-dasharray="5,2" d="M882.47,-275.31C973.54,-254.48 1178.69,-223.43 1285,-333.22 1318.04,-367.35 1272.48,-509.82 1303,-546.22 1306.22,-550.06 1310.12,-553.17 1314.41,-555.69"/>
<polygon fill="#9a32cd" stroke="#9a32cd" points="881.39,-271.97 872.46,-277.66 882.99,-278.78 881.39,-271.97"/>
<text text-anchor="middle" x="1117" y="-276.22" font-family="Helvetica,sans-Serif" font-size="10.00"> metadata</text>
</g>
<!-- Node18 -->
<g id="node18" class="node">
<title>Node18</title>
<g id="a_node18"><a xlink:href="../../df/de6/classdouble.html" target="_top" xlink:title=" ">
<polygon fill="none" stroke="black" points="492,-261.72 492,-280.72 542,-280.72 542,-261.72 492,-261.72"/>
<text text-anchor="middle" x="517" y="-268.72" font-family="Helvetica,sans-Serif" font-size="10.00">double</text>
</a>
</g>
</g>
<!-- Node18&#45;&gt;Node17 -->
<g id="edge21" class="edge">
<title>Node18&#45;&gt;Node17</title>
<path fill="none" stroke="#9a32cd" stroke-dasharray="5,2" d="M551.69,-264.47C563,-260.87 575.01,-255.41 584,-247.22 597.82,-234.64 586.21,-219.22 602,-209.22 655.33,-175.48 684.81,-187.33 744,-209.22 781.47,-223.09 813.92,-260.03 827.81,-277.64"/>
<polygon fill="#9a32cd" stroke="#9a32cd" points="550.71,-261.11 542.03,-267.18 552.6,-267.85 550.71,-261.11"/>
<text text-anchor="middle" x="673" y="-212.22" font-family="Helvetica,sans-Serif" font-size="10.00"> pixelAspectRatio</text>
</g>
<!-- Node19 -->
<g id="node19" class="node">
<title>Node19</title>
<g id="a_node19"><a xlink:href="../../d8/d75/classrawspeed_1_1i_point2_d.html" target="_top" xlink:title=" ">
<polygon fill="none" stroke="black" points="461.5,-110.72 461.5,-129.72 572.5,-129.72 572.5,-110.72 461.5,-110.72"/>
<text text-anchor="middle" x="517" y="-117.72" font-family="Helvetica,sans-Serif" font-size="10.00">rawspeed::iPoint2D</text>
</a>
</g>
</g>
<!-- Node19&#45;&gt;Node3 -->
<g id="edge49" class="edge">
<title>Node19&#45;&gt;Node3</title>
<path fill="none" stroke="#9a32cd" stroke-dasharray="5,2" d="M582.68,-119.32C628.07,-119.61 690.06,-121.84 744,-130.22 990.43,-168.55 1129.29,-84.41 1285,-279.22 1322.13,-325.68 1265.18,-500.33 1303,-546.22 1306.1,-549.99 1309.86,-553.06 1314.01,-555.55"/>
<polygon fill="#9a32cd" stroke="#9a32cd" points="582.69,-115.82 572.67,-119.29 582.66,-122.82 582.69,-115.82"/>
<text text-anchor="middle" x="976.5" y="-170.22" font-family="Helvetica,sans-Serif" font-size="10.00"> dim</text>
<text text-anchor="middle" x="976.5" y="-159.22" font-family="Helvetica,sans-Serif" font-size="10.00">uncropped_dim</text>
<text text-anchor="middle" x="976.5" y="-148.22" font-family="Helvetica,sans-Serif" font-size="10.00">mOffset</text>
</g>
<!-- Node19&#45;&gt;Node17 -->
<g id="edge22" class="edge">
<title>Node19&#45;&gt;Node17</title>
<path fill="none" stroke="#9a32cd" stroke-dasharray="5,2" d="M582.65,-126.06C644.55,-132.09 730.48,-141.78 744,-150.22 794.13,-181.53 822.69,-251.78 831.78,-277.53"/>
<polygon fill="#9a32cd" stroke="#9a32cd" points="582.84,-122.56 572.55,-125.09 582.17,-129.53 582.84,-122.56"/>
<text text-anchor="middle" x="673" y="-153.22" font-family="Helvetica,sans-Serif" font-size="10.00"> subsampling</text>
</g>
<!-- Node19&#45;&gt;Node26 -->
<g id="edge40" class="edge">
<title>Node19&#45;&gt;Node26</title>
<path fill="none" stroke="#9a32cd" stroke-dasharray="5,2" d="M566.52,-107.63C572.48,-105.68 578.43,-103.54 584,-101.22 592.45,-97.71 593.34,-94.17 602,-91.22 617.08,-86.09 700.05,-74.25 762.73,-65.76"/>
<polygon fill="#9a32cd" stroke="#9a32cd" points="565.06,-104.42 556.55,-110.72 567.14,-111.1 565.06,-104.42"/>
<text text-anchor="middle" x="673" y="-94.22" font-family="Helvetica,sans-Serif" font-size="10.00"> size</text>
</g>
<!-- Node20 -->
<g id="node20" class="node">
<title>Node20</title>
<g id="a_node20"><a xlink:href="../../de/d73/classint32__t.html" target="_top" xlink:title=" ">
<polygon fill="none" stroke="black" points="214.5,-189.72 214.5,-208.72 264.5,-208.72 264.5,-189.72 214.5,-189.72"/>
<text text-anchor="middle" x="239.5" y="-196.72" font-family="Helvetica,sans-Serif" font-size="10.00">int32_t</text>
</a>
</g>
</g>
<!-- Node20&#45;&gt;Node19 -->
<g id="edge23" class="edge">
<title>Node20&#45;&gt;Node19</title>
<path fill="none" stroke="#9a32cd" stroke-dasharray="5,2" d="M274.61,-189.44C327.84,-174.18 430.04,-144.87 482.75,-129.76"/>
<polygon fill="#9a32cd" stroke="#9a32cd" points="273.6,-186.09 264.95,-192.21 275.53,-192.82 273.6,-186.09"/>
<text text-anchor="middle" x="370" y="-192.22" font-family="Helvetica,sans-Serif" font-size="10.00"> x</text>
<text text-anchor="middle" x="370" y="-181.22" font-family="Helvetica,sans-Serif" font-size="10.00">y</text>
</g>
<!-- Node21 -->
<g id="node21" class="node">
<title>Node21</title>
<g id="a_node21"><a xlink:title="STL class.">
<polygon fill="none" stroke="#bfbfbf" points="207,-145.72 207,-164.72 272,-164.72 272,-145.72 207,-145.72"/>
<text text-anchor="middle" x="239.5" y="-152.72" font-family="Helvetica,sans-Serif" font-size="10.00">std::string</text>
</a>
</g>
</g>
<!-- Node21&#45;&gt;Node17 -->
<g id="edge26" class="edge">
<title>Node21&#45;&gt;Node17</title>
<path fill="none" stroke="#9a32cd" stroke-dasharray="5,2" d="M282.24,-156.24C395.53,-159.25 703.02,-169.19 744,-189.22 785.3,-209.42 817.15,-257 829.46,-277.52"/>
<polygon fill="#9a32cd" stroke="#9a32cd" points="282.3,-152.74 272.21,-155.98 282.12,-159.74 282.3,-152.74"/>
<text text-anchor="middle" x="517" y="-238.22" font-family="Helvetica,sans-Serif" font-size="10.00"> mode</text>
<text text-anchor="middle" x="517" y="-227.22" font-family="Helvetica,sans-Serif" font-size="10.00">model</text>
<text text-anchor="middle" x="517" y="-216.22" font-family="Helvetica,sans-Serif" font-size="10.00">canonical_alias</text>
<text text-anchor="middle" x="517" y="-205.22" font-family="Helvetica,sans-Serif" font-size="10.00">canonical_model</text>
<text text-anchor="middle" x="517" y="-194.22" font-family="Helvetica,sans-Serif" font-size="10.00">canonical_make</text>
<text text-anchor="middle" x="517" y="-183.22" font-family="Helvetica,sans-Serif" font-size="10.00">canonical_id</text>
<text text-anchor="middle" x="517" y="-172.22" font-family="Helvetica,sans-Serif" font-size="10.00">make</text>
</g>
<!-- Node27 -->
<g id="node27" class="node">
<title>Node27</title>
<g id="a_node27"><a xlink:title=" ">
<polygon fill="none" stroke="#bfbfbf" points="458.5,-15.22 458.5,-45.22 575.5,-45.22 575.5,-15.22 458.5,-15.22"/>
<text text-anchor="start" x="466.5" y="-33.22" font-family="Helvetica,sans-Serif" font-size="10.00">std::map&lt; CFAColor,</text>
<text text-anchor="middle" x="517" y="-22.22" font-family="Helvetica,sans-Serif" font-size="10.00"> std::string &gt;</text>
</a>
</g>
</g>
<!-- Node21&#45;&gt;Node27 -->
<g id="edge35" class="edge">
<title>Node21&#45;&gt;Node27</title>
<path fill="none" stroke="#9a32cd" stroke-dasharray="5,2" d="M270.6,-140.38C277.61,-135.9 284.59,-130.48 290,-124.22 303.01,-109.16 292.31,-95.46 308,-83.22 352.07,-48.85 378.07,-76.91 432,-62.22 448.41,-57.75 466.08,-51.29 480.95,-45.34"/>
<polygon fill="#9a32cd" stroke="#9a32cd" points="268.67,-137.45 261.82,-145.54 272.22,-143.49 268.67,-137.45"/>
<text text-anchor="middle" x="370" y="-86.22" font-family="Helvetica,sans-Serif" font-size="10.00"> elements</text>
</g>
<!-- Node22 -->
<g id="node22" class="node">
<title>Node22</title>
<g id="a_node22"><a xlink:title="STL class.">
<polygon fill="none" stroke="#bfbfbf" points="0,-140.22 0,-170.22 104,-170.22 104,-140.22 0,-140.22"/>
<text text-anchor="start" x="8" y="-158.22" font-family="Helvetica,sans-Serif" font-size="10.00">std::basic_string&lt;</text>
<text text-anchor="middle" x="52" y="-147.22" font-family="Helvetica,sans-Serif" font-size="10.00"> char &gt;</text>
</a>
</g>
</g>
<!-- Node22&#45;&gt;Node21 -->
<g id="edge27" class="edge">
<title>Node22&#45;&gt;Node21</title>
<path fill="none" stroke="midnightblue" d="M114.46,-155.22C145.44,-155.22 181.69,-155.22 206.98,-155.22"/>
<polygon fill="midnightblue" stroke="midnightblue" points="114.18,-151.72 104.18,-155.22 114.18,-158.72 114.18,-151.72"/>
</g>
<!-- Node23 -->
<g id="node23" class="node">
<title>Node23</title>
<g id="a_node23"><a xlink:title=" ">
<polygon fill="none" stroke="#bfbfbf" points="457.5,-299.72 457.5,-318.72 576.5,-318.72 576.5,-299.72 457.5,-299.72"/>
<text text-anchor="middle" x="517" y="-306.72" font-family="Helvetica,sans-Serif" font-size="10.00">std::array&lt; float, 4 &gt;</text>
</a>
</g>
</g>
<!-- Node23&#45;&gt;Node17 -->
<g id="edge28" class="edge">
<title>Node23&#45;&gt;Node17</title>
<path fill="none" stroke="#9a32cd" stroke-dasharray="5,2" d="M558.8,-296.93C572.41,-293.39 587.74,-290.01 602,-288.22 655.18,-281.56 715.73,-281.53 761.77,-283.05"/>
<polygon fill="#9a32cd" stroke="#9a32cd" points="557.52,-293.65 548.78,-299.64 559.34,-300.41 557.52,-293.65"/>
<text text-anchor="middle" x="673" y="-291.22" font-family="Helvetica,sans-Serif" font-size="10.00"> wbCoeffs</text>
</g>
<!-- Node24 -->
<g id="node24" class="node">
<title>Node24</title>
<g id="a_node24"><a xlink:href="../../d4/dc3/classfloat.html" target="_top" xlink:title=" ">
<polygon fill="none" stroke="black" points="220.5,-299.72 220.5,-318.72 258.5,-318.72 258.5,-299.72 220.5,-299.72"/>
<text text-anchor="middle" x="239.5" y="-306.72" font-family="Helvetica,sans-Serif" font-size="10.00">float</text>
</a>
</g>
</g>
<!-- Node24&#45;&gt;Node23 -->
<g id="edge29" class="edge">
<title>Node24&#45;&gt;Node23</title>
<path fill="none" stroke="#9a32cd" stroke-dasharray="5,2" d="M268.59,-309.22C312.72,-309.22 399.26,-309.22 457.37,-309.22"/>
<polygon fill="#9a32cd" stroke="#9a32cd" points="268.58,-305.72 258.58,-309.22 268.58,-312.72 268.58,-305.72"/>
<text text-anchor="middle" x="370" y="-312.22" font-family="Helvetica,sans-Serif" font-size="10.00"> elements</text>
</g>
<!-- Node25&#45;&gt;Node23 -->
<g id="edge30" class="edge">
<title>Node25&#45;&gt;Node23</title>
<path fill="none" stroke="orange" stroke-dasharray="5,2" d="M286.23,-514.97C287.58,-513.81 288.84,-512.56 290,-511.22 313.83,-483.65 287.96,-461.66 308,-431.22 350.88,-366.11 379.93,-362.41 450,-328.22 457.72,-324.46 466.31,-321.31 474.68,-318.73"/>
<polygon fill="orange" stroke="orange" points="284.08,-512.2 277.76,-520.69 288,-518 284.08,-512.2"/>
<text text-anchor="middle" x="370" y="-434.22" font-family="Helvetica,sans-Serif" font-size="10.00"> &lt; float, 4 &gt;</text>
</g>
<!-- Node25&#45;&gt;Node33 -->
<g id="edge47" class="edge">
<title>Node25&#45;&gt;Node33</title>
<path fill="none" stroke="orange" stroke-dasharray="5,2" d="M269.07,-544.37C329.02,-573.29 473.09,-638.76 602,-666.22 662.24,-679.06 733.09,-681.59 780.71,-681.53"/>
<polygon fill="orange" stroke="orange" points="270.38,-541.12 259.86,-539.9 267.32,-547.42 270.38,-541.12"/>
<text text-anchor="middle" x="517" y="-664.22" font-family="Helvetica,sans-Serif" font-size="10.00"> &lt; int, 4 &gt;</text>
</g>
<!-- Node26&#45;&gt;Node3 -->
<g id="edge32" class="edge">
<title>Node26&#45;&gt;Node3</title>
<path fill="none" stroke="#9a32cd" stroke-dasharray="5,2" d="M871.18,-43.29C956.12,-13.63 1177.66,48.15 1285,-69.22 1320.79,-108.36 1269.88,-504.8 1303,-546.22 1306.05,-550.04 1309.77,-553.14 1313.89,-555.65"/>
<polygon fill="#9a32cd" stroke="#9a32cd" points="869.99,-40 861.74,-46.65 872.34,-46.59 869.99,-40"/>
<text text-anchor="middle" x="1117" y="-15.22" font-family="Helvetica,sans-Serif" font-size="10.00"> cfa</text>
</g>
<!-- Node27&#45;&gt;Node26 -->
<g id="edge33" class="edge">
<title>Node27&#45;&gt;Node26</title>
<path fill="none" stroke="#9a32cd" stroke-dasharray="5,2" d="M585.56,-20.98C630.74,-16.55 691.34,-13.97 744,-23.22 769.32,-27.67 796.88,-38.59 814.96,-46.66"/>
<polygon fill="#9a32cd" stroke="#9a32cd" points="585.17,-17.5 575.58,-22.01 585.89,-24.47 585.17,-17.5"/>
<text text-anchor="middle" x="673" y="-26.22" font-family="Helvetica,sans-Serif" font-size="10.00"> color2String</text>
</g>
<!-- Node28 -->
<g id="node28" class="node">
<title>Node28</title>
<g id="a_node28"><a xlink:title=" ">
<polygon fill="none" stroke="#bfbfbf" points="209.5,-95.72 209.5,-114.72 269.5,-114.72 269.5,-95.72 209.5,-95.72"/>
<text text-anchor="middle" x="239.5" y="-102.72" font-family="Helvetica,sans-Serif" font-size="10.00">CFAColor</text>
</a>
</g>
</g>
<!-- Node28&#45;&gt;Node27 -->
<g id="edge34" class="edge">
<title>Node28&#45;&gt;Node27</title>
<path fill="none" stroke="#9a32cd" stroke-dasharray="5,2" d="M256.01,-88.41C268.68,-75.85 287.75,-59.49 308,-51.22 334.29,-40.49 406.17,-35.03 458.08,-32.41"/>
<polygon fill="#9a32cd" stroke="#9a32cd" points="253.45,-86.01 248.99,-95.63 258.47,-90.89 253.45,-86.01"/>
<text text-anchor="middle" x="370" y="-54.22" font-family="Helvetica,sans-Serif" font-size="10.00"> keys</text>
</g>
<!-- Node28&#45;&gt;Node31 -->
<g id="edge42" class="edge">
<title>Node28&#45;&gt;Node31</title>
<path fill="none" stroke="#9a32cd" stroke-dasharray="5,2" d="M280.12,-104.73C318.92,-103.92 379.66,-101.8 432,-96.22 442.59,-95.1 453.86,-93.5 464.6,-91.78"/>
<polygon fill="#9a32cd" stroke="#9a32cd" points="279.71,-101.23 269.78,-104.92 279.85,-108.23 279.71,-101.23"/>
<text text-anchor="middle" x="370" y="-107.22" font-family="Helvetica,sans-Serif" font-size="10.00"> elements</text>
</g>
<!-- Node29&#45;&gt;Node27 -->
<g id="edge36" class="edge">
<title>Node29&#45;&gt;Node27</title>
<path fill="none" stroke="orange" stroke-dasharray="5,2" d="M279.47,-22.99C288.73,-20.6 298.64,-18.45 308,-17.22 362.64,-10.06 377.05,-13 432,-17.22 440.53,-17.88 449.51,-18.91 458.3,-20.1"/>
<polygon fill="orange" stroke="orange" points="278.46,-19.64 269.74,-25.65 280.31,-26.39 278.46,-19.64"/>
<text text-anchor="middle" x="370" y="-20.22" font-family="Helvetica,sans-Serif" font-size="10.00"> &lt; CFAColor, std::string &gt;</text>
</g>
<!-- Node30 -->
<g id="node30" class="node">
<title>Node30</title>
<g id="a_node30"><a xlink:title=" ">
<polygon fill="none" stroke="#bfbfbf" points="37.5,-25.72 37.5,-44.72 66.5,-44.72 66.5,-25.72 37.5,-25.72"/>
<text text-anchor="middle" x="52" y="-32.72" font-family="Helvetica,sans-Serif" font-size="10.00">K</text>
</a>
</g>
</g>
<!-- Node30&#45;&gt;Node29 -->
<g id="edge37" class="edge">
<title>Node30&#45;&gt;Node29</title>
<path fill="none" stroke="#9a32cd" stroke-dasharray="5,2" d="M76.72,-35.22C104.81,-35.22 152.35,-35.22 188.64,-35.22"/>
<polygon fill="#9a32cd" stroke="#9a32cd" points="76.64,-31.72 66.64,-35.22 76.64,-38.72 76.64,-31.72"/>
<text text-anchor="middle" x="146.5" y="-38.22" font-family="Helvetica,sans-Serif" font-size="10.00"> keys</text>
</g>
<!-- Node31&#45;&gt;Node26 -->
<g id="edge41" class="edge">
<title>Node31&#45;&gt;Node26</title>
<path fill="none" stroke="#9a32cd" stroke-dasharray="5,2" d="M553.11,-69.34C567.97,-64.53 585.61,-59.65 602,-57.22 655.52,-49.31 716.72,-49.39 762.96,-51.28"/>
<polygon fill="#9a32cd" stroke="#9a32cd" points="551.67,-66.13 543.31,-72.63 553.9,-72.77 551.67,-66.13"/>
<text text-anchor="middle" x="673" y="-60.22" font-family="Helvetica,sans-Serif" font-size="10.00"> cfa</text>
</g>
<!-- Node32 -->
<g id="node32" class="node">
<title>Node32</title>
<g id="a_node32"><a xlink:title=" ">
<polygon fill="none" stroke="#bfbfbf" points="1071.5,-77.72 1071.5,-96.72 1162.5,-96.72 1162.5,-77.72 1071.5,-77.72"/>
<text text-anchor="middle" x="1117" y="-84.72" font-family="Helvetica,sans-Serif" font-size="10.00">RawImageType</text>
</a>
</g>
</g>
<!-- Node32&#45;&gt;Node3 -->
<g id="edge44" class="edge">
<title>Node32&#45;&gt;Node3</title>
<path fill="none" stroke="#9a32cd" stroke-dasharray="5,2" d="M1165.04,-75.84C1202.99,-69.74 1254.85,-68.92 1285,-100.22 1319.41,-135.94 1271.98,-507.53 1303,-546.22 1306.05,-550.03 1309.77,-553.13 1313.9,-555.64"/>
<polygon fill="#9a32cd" stroke="#9a32cd" points="1163.96,-72.48 1154.73,-77.68 1165.19,-79.37 1163.96,-72.48"/>
<text text-anchor="middle" x="1247" y="-103.22" font-family="Helvetica,sans-Serif" font-size="10.00"> dataType</text>
</g>
<!-- Node33&#45;&gt;Node3 -->
<g id="edge45" class="edge">
<title>Node33&#45;&gt;Node3</title>
<path fill="none" stroke="#9a32cd" stroke-dasharray="5,2" d="M891.33,-668.64C903.39,-666.14 916.12,-663.55 928,-661.22 1086.28,-630.3 1129.01,-637.18 1285,-596.22 1307.43,-590.34 1332.3,-581.53 1350.12,-574.81"/>
<polygon fill="#9a32cd" stroke="#9a32cd" points="890.46,-665.25 881.39,-670.72 891.89,-672.1 890.46,-665.25"/>
<text text-anchor="middle" x="1117" y="-645.22" font-family="Helvetica,sans-Serif" font-size="10.00"> blackLevelSeparate</text>
</g>
<!-- Node34 -->
<g id="node34" class="node">
<title>Node34</title>
<g id="a_node34"><a xlink:title=" ">
<polygon fill="none" stroke="#bfbfbf" points="1092,-753.72 1092,-772.72 1142,-772.72 1142,-753.72 1092,-753.72"/>
<text text-anchor="middle" x="1117" y="-760.72" font-family="Helvetica,sans-Serif" font-size="10.00">uint8_t</text>
</a>
</g>
</g>
<!-- Node34&#45;&gt;Node3 -->
<g id="edge52" class="edge">
<title>Node34&#45;&gt;Node3</title>
<path fill="none" stroke="#9a32cd" stroke-dasharray="5,2" d="M1152.19,-761.59C1188.53,-758.25 1246.01,-748.22 1285,-718.22 1335.98,-679.01 1363.37,-601.85 1371.71,-574.84"/>
<polygon fill="#9a32cd" stroke="#9a32cd" points="1151.78,-758.11 1142.09,-762.39 1152.34,-765.09 1151.78,-758.11"/>
<text text-anchor="middle" x="1247" y="-765.22" font-family="Helvetica,sans-Serif" font-size="10.00"> mBadPixelMap</text>
<text text-anchor="middle" x="1247" y="-754.22" font-family="Helvetica,sans-Serif" font-size="10.00">data</text>
</g>
<!-- Node35 -->
<g id="node35" class="node">
<title>Node35</title>
<g id="a_node35"><a xlink:title=" ">
<polygon fill="none" stroke="#bfbfbf" points="1313,-517.72 1313,-536.72 1438,-536.72 1438,-517.72 1313,-517.72"/>
<text text-anchor="middle" x="1375.5" y="-524.72" font-family="Helvetica,sans-Serif" font-size="10.00">RawImageWorkerTask</text>
</a>
</g>
</g>
<!-- Node35&#45;&gt;Node1 -->
<g id="edge54" class="edge">
<title>Node35&#45;&gt;Node1</title>
<path fill="none" stroke="#9a32cd" stroke-dasharray="5,2" d="M1439.06,-538.57C1469.12,-544.02 1504.74,-550.48 1533.38,-555.68"/>
<polygon fill="#9a32cd" stroke="#9a32cd" points="1439.56,-535.11 1429.1,-536.76 1438.31,-541.99 1439.56,-535.11"/>
<text text-anchor="middle" x="1478.5" y="-551.22" font-family="Helvetica,sans-Serif" font-size="10.00"> task</text>
</g>
</g>
</svg>
