<?xml version="1.0" encoding="UTF-8" standalone="no"?>
<!DOCTYPE svg PUBLIC "-//W3C//DTD SVG 1.1//EN"
 "http://www.w3.org/Graphics/SVG/1.1/DTD/svg11.dtd">
<!-- Generated by graphviz version 2.43.0 (0)
 -->
<!-- Title: /build/rawspeed/bench/librawspeed/interpolators/Cr2sRawInterpolatorBenchmark.cpp Pages: 1 -->
<svg width="1858pt" height="274pt"
 viewBox="0.00 0.00 1858.00 274.00" xmlns="http://www.w3.org/2000/svg" xmlns:xlink="http://www.w3.org/1999/xlink">
<g id="graph0" class="graph" transform="scale(1 1) rotate(0) translate(4 270)">
<title>/build/rawspeed/bench/librawspeed/interpolators/Cr2sRawInterpolatorBenchmark.cpp</title>
<!-- Node1 -->
<g id="node1" class="node">
<title>Node1</title>
<g id="a_node1"><a xlink:title=" ">
<polygon fill="#bfbfbf" stroke="black" points="1429.5,-224.5 1429.5,-265.5 1624.5,-265.5 1624.5,-224.5 1429.5,-224.5"/>
<text text-anchor="start" x="1437.5" y="-253.5" font-family="Helvetica,sans-Serif" font-size="10.00">/build/rawspeed/bench</text>
<text text-anchor="start" x="1437.5" y="-242.5" font-family="Helvetica,sans-Serif" font-size="10.00">/librawspeed/interpolators</text>
<text text-anchor="middle" x="1527" y="-231.5" font-family="Helvetica,sans-Serif" font-size="10.00">/Cr2sRawInterpolatorBenchmark.cpp</text>
</a>
</g>
</g>
<!-- Node2 -->
<g id="node2" class="node">
<title>Node2</title>
<g id="a_node2"><a xlink:href="../../d8/df5/_cr2s_raw_interpolator_8h.html" target="_top" xlink:title=" ">
<polygon fill="none" stroke="black" points="1270,-168.5 1270,-187.5 1460,-187.5 1460,-168.5 1270,-168.5"/>
<text text-anchor="middle" x="1365" y="-175.5" font-family="Helvetica,sans-Serif" font-size="10.00">interpolators/Cr2sRawInterpolator.h</text>
</a>
</g>
</g>
<!-- Node1&#45;&gt;Node2 -->
<g id="edge1" class="edge">
<title>Node1&#45;&gt;Node2</title>
<path fill="none" stroke="midnightblue" d="M1478.39,-224.5C1451.65,-213.77 1419.26,-200.77 1395.95,-191.42"/>
<polygon fill="midnightblue" stroke="midnightblue" points="1397.15,-188.13 1386.56,-187.65 1394.54,-194.62 1397.15,-188.13"/>
</g>
<!-- Node5 -->
<g id="node5" class="node">
<title>Node5</title>
<g id="a_node5"><a xlink:title=" ">
<polygon fill="none" stroke="#bfbfbf" points="1398.5,-0.5 1398.5,-19.5 1467.5,-19.5 1467.5,-0.5 1398.5,-0.5"/>
<text text-anchor="middle" x="1433" y="-7.5" font-family="Helvetica,sans-Serif" font-size="10.00">type_traits</text>
</a>
</g>
</g>
<!-- Node1&#45;&gt;Node5 -->
<g id="edge59" class="edge">
<title>Node1&#45;&gt;Node5</title>
<path fill="none" stroke="midnightblue" d="M1598.69,-224.41C1616.14,-216.09 1632.72,-204.38 1643,-188 1655.96,-167.35 1634.14,-124.41 1624,-112 1585.36,-64.7 1518.61,-36.71 1475.14,-22.6"/>
<polygon fill="midnightblue" stroke="midnightblue" points="1476.02,-19.21 1465.43,-19.56 1473.92,-25.89 1476.02,-19.21"/>
</g>
<!-- Node7 -->
<g id="node7" class="node">
<title>Node7</title>
<g id="a_node7"><a xlink:title=" ">
<polygon fill="none" stroke="#bfbfbf" points="1359,-112.5 1359,-131.5 1401,-131.5 1401,-112.5 1359,-112.5"/>
<text text-anchor="middle" x="1380" y="-119.5" font-family="Helvetica,sans-Serif" font-size="10.00">array</text>
</a>
</g>
</g>
<!-- Node1&#45;&gt;Node7 -->
<g id="edge56" class="edge">
<title>Node1&#45;&gt;Node7</title>
<path fill="none" stroke="midnightblue" d="M1515.46,-224.22C1504.99,-207.58 1488.27,-184.02 1469,-168 1451.62,-153.55 1428.82,-142.14 1410.65,-134.42"/>
<polygon fill="midnightblue" stroke="midnightblue" points="1411.94,-131.17 1401.36,-130.62 1409.29,-137.65 1411.94,-131.17"/>
</g>
<!-- Node8 -->
<g id="node8" class="node">
<title>Node8</title>
<g id="a_node8"><a xlink:title=" ">
<polygon fill="none" stroke="#bfbfbf" points="827,-0.5 827,-19.5 877,-19.5 877,-0.5 827,-0.5"/>
<text text-anchor="middle" x="852" y="-7.5" font-family="Helvetica,sans-Serif" font-size="10.00">cstdint</text>
</a>
</g>
</g>
<!-- Node1&#45;&gt;Node8 -->
<g id="edge58" class="edge">
<title>Node1&#45;&gt;Node8</title>
<path fill="none" stroke="midnightblue" d="M1429.35,-236.18C1362.49,-228.56 1282.22,-214.16 1261,-188 1255.4,-181.1 1259.47,-176.76 1261,-168 1263.93,-151.24 1271.07,-148.76 1274,-132 1279.82,-98.73 1296.58,-81.12 1274,-56 1248.3,-27.42 984.1,-15.53 887.29,-12.11"/>
<polygon fill="midnightblue" stroke="midnightblue" points="887.25,-8.61 877.14,-11.77 887.01,-15.61 887.25,-8.61"/>
</g>
<!-- Node9 -->
<g id="node9" class="node">
<title>Node9</title>
<g id="a_node9"><a xlink:href="../../dc/d32/bench_2librawspeed_2bench_2_common_8h.html" target="_top" xlink:title=" ">
<polygon fill="none" stroke="black" points="1516,-168.5 1516,-187.5 1618,-187.5 1618,-168.5 1516,-168.5"/>
<text text-anchor="middle" x="1567" y="-175.5" font-family="Helvetica,sans-Serif" font-size="10.00">bench/Common.h</text>
</a>
</g>
</g>
<!-- Node1&#45;&gt;Node9 -->
<g id="edge8" class="edge">
<title>Node1&#45;&gt;Node9</title>
<path fill="none" stroke="midnightblue" d="M1539,-224.5C1544.54,-215.49 1551.07,-204.89 1556.42,-196.19"/>
<polygon fill="midnightblue" stroke="midnightblue" points="1559.42,-198 1561.68,-187.65 1553.45,-194.33 1559.42,-198"/>
</g>
<!-- Node10 -->
<g id="node10" class="node">
<title>Node10</title>
<g id="a_node10"><a xlink:href="../../d1/d18/_point_8h.html" target="_top" xlink:title=" ">
<polygon fill="none" stroke="black" points="1423,-56.5 1423,-75.5 1519,-75.5 1519,-56.5 1423,-56.5"/>
<text text-anchor="middle" x="1471" y="-63.5" font-family="Helvetica,sans-Serif" font-size="10.00">common/Point.h</text>
</a>
</g>
</g>
<!-- Node1&#45;&gt;Node10 -->
<g id="edge14" class="edge">
<title>Node1&#45;&gt;Node10</title>
<path fill="none" stroke="midnightblue" d="M1585.09,-224.49C1601.55,-215.97 1617.54,-204.14 1627,-188 1631.49,-180.33 1628.85,-176.69 1627,-168 1621.32,-141.34 1622.11,-130.4 1602,-112 1581.87,-93.59 1553.86,-82.66 1528.9,-76.19"/>
<polygon fill="midnightblue" stroke="midnightblue" points="1529.69,-72.78 1519.15,-73.85 1528.05,-79.59 1529.69,-72.78"/>
</g>
<!-- Node13 -->
<g id="node13" class="node">
<title>Node13</title>
<g id="a_node13"><a xlink:href="../../d6/da1/_raw_image_8h.html" target="_top" xlink:title=" ">
<polygon fill="none" stroke="black" points="695.5,-168.5 695.5,-187.5 818.5,-187.5 818.5,-168.5 695.5,-168.5"/>
<text text-anchor="middle" x="757" y="-175.5" font-family="Helvetica,sans-Serif" font-size="10.00">common/RawImage.h</text>
</a>
</g>
</g>
<!-- Node1&#45;&gt;Node13 -->
<g id="edge15" class="edge">
<title>Node1&#45;&gt;Node13</title>
<path fill="none" stroke="midnightblue" d="M1429.48,-235.77C1272.55,-222.52 967.56,-196.77 828.82,-185.06"/>
<polygon fill="midnightblue" stroke="midnightblue" points="828.98,-181.56 818.72,-184.21 828.39,-188.54 828.98,-181.56"/>
</g>
<!-- Node29 -->
<g id="node29" class="node">
<title>Node29</title>
<g id="a_node29"><a xlink:title=" ">
<polygon fill="none" stroke="#bfbfbf" points="1712,-168.5 1712,-187.5 1850,-187.5 1850,-168.5 1712,-168.5"/>
<text text-anchor="middle" x="1781" y="-175.5" font-family="Helvetica,sans-Serif" font-size="10.00">benchmark/benchmark.h</text>
</a>
</g>
</g>
<!-- Node1&#45;&gt;Node29 -->
<g id="edge57" class="edge">
<title>Node1&#45;&gt;Node29</title>
<path fill="none" stroke="midnightblue" d="M1603.21,-224.5C1647.15,-213.25 1700.81,-199.52 1737.61,-190.1"/>
<polygon fill="midnightblue" stroke="midnightblue" points="1738.7,-193.44 1747.52,-187.57 1736.97,-186.66 1738.7,-193.44"/>
</g>
<!-- Node3 -->
<g id="node3" class="node">
<title>Node3</title>
<g id="a_node3"><a xlink:href="../../dd/d9c/_array2_d_ref_8h.html" target="_top" xlink:title=" ">
<polygon fill="none" stroke="black" points="1139,-112.5 1139,-131.5 1265,-131.5 1265,-112.5 1139,-112.5"/>
<text text-anchor="middle" x="1202" y="-119.5" font-family="Helvetica,sans-Serif" font-size="10.00">common/Array2DRef.h</text>
</a>
</g>
</g>
<!-- Node2&#45;&gt;Node3 -->
<g id="edge2" class="edge">
<title>Node2&#45;&gt;Node3</title>
<path fill="none" stroke="midnightblue" d="M1339.17,-168.44C1311.75,-159.36 1268.22,-144.94 1237.57,-134.78"/>
<polygon fill="midnightblue" stroke="midnightblue" points="1238.3,-131.34 1227.71,-131.52 1236.1,-137.98 1238.3,-131.34"/>
</g>
<!-- Node2&#45;&gt;Node7 -->
<g id="edge6" class="edge">
<title>Node2&#45;&gt;Node7</title>
<path fill="none" stroke="midnightblue" d="M1367.48,-168.08C1369.49,-160.85 1372.39,-150.41 1374.89,-141.4"/>
<polygon fill="midnightblue" stroke="midnightblue" points="1378.26,-142.32 1377.57,-131.75 1371.52,-140.45 1378.26,-142.32"/>
</g>
<!-- Node2&#45;&gt;Node8 -->
<g id="edge7" class="edge">
<title>Node2&#45;&gt;Node8</title>
<path fill="none" stroke="midnightblue" d="M1378.46,-168.42C1395.85,-156.22 1422.49,-133 1410,-112 1383.37,-67.21 1356.81,-71.31 1307,-56 1228.55,-31.88 979.98,-17.37 887.29,-12.68"/>
<polygon fill="midnightblue" stroke="midnightblue" points="887.45,-9.18 877.29,-12.18 887.1,-16.17 887.45,-9.18"/>
</g>
<!-- Node4 -->
<g id="node4" class="node">
<title>Node4</title>
<g id="a_node4"><a xlink:title=" ">
<polygon fill="none" stroke="#bfbfbf" points="1213,-56.5 1213,-75.5 1265,-75.5 1265,-56.5 1213,-56.5"/>
<text text-anchor="middle" x="1239" y="-63.5" font-family="Helvetica,sans-Serif" font-size="10.00">cassert</text>
</a>
</g>
</g>
<!-- Node3&#45;&gt;Node4 -->
<g id="edge3" class="edge">
<title>Node3&#45;&gt;Node4</title>
<path fill="none" stroke="midnightblue" d="M1208.11,-112.08C1213.28,-104.53 1220.85,-93.49 1227.19,-84.23"/>
<polygon fill="midnightblue" stroke="midnightblue" points="1230.24,-85.98 1233,-75.75 1224.46,-82.02 1230.24,-85.98"/>
</g>
<!-- Node3&#45;&gt;Node5 -->
<g id="edge4" class="edge">
<title>Node3&#45;&gt;Node5</title>
<path fill="none" stroke="midnightblue" d="M1220.13,-112.37C1260.52,-93.13 1358.14,-46.65 1405.84,-23.93"/>
<polygon fill="midnightblue" stroke="midnightblue" points="1407.43,-27.05 1414.96,-19.59 1404.42,-20.73 1407.43,-27.05"/>
</g>
<!-- Node6 -->
<g id="node6" class="node">
<title>Node6</title>
<g id="a_node6"><a xlink:title=" ">
<polygon fill="none" stroke="#bfbfbf" points="653.5,-56.5 653.5,-75.5 700.5,-75.5 700.5,-56.5 653.5,-56.5"/>
<text text-anchor="middle" x="677" y="-63.5" font-family="Helvetica,sans-Serif" font-size="10.00">vector</text>
</a>
</g>
</g>
<!-- Node3&#45;&gt;Node6 -->
<g id="edge5" class="edge">
<title>Node3&#45;&gt;Node6</title>
<path fill="none" stroke="midnightblue" d="M1138.93,-114.51C1026.86,-102.99 796.71,-79.31 710.55,-70.45"/>
<polygon fill="midnightblue" stroke="midnightblue" points="710.84,-66.96 700.54,-69.42 710.13,-73.93 710.84,-66.96"/>
</g>
<!-- Node9&#45;&gt;Node10 -->
<g id="edge9" class="edge">
<title>Node9&#45;&gt;Node10</title>
<path fill="none" stroke="midnightblue" d="M1559.47,-168.37C1543.48,-150.05 1505.95,-107.05 1485.28,-83.36"/>
<polygon fill="midnightblue" stroke="midnightblue" points="1487.71,-80.82 1478.5,-75.59 1482.44,-85.43 1487.71,-80.82"/>
</g>
<!-- Node12 -->
<g id="node12" class="node">
<title>Node12</title>
<g id="a_node12"><a xlink:title=" ">
<polygon fill="none" stroke="#bfbfbf" points="1540.5,-112.5 1540.5,-131.5 1593.5,-131.5 1593.5,-112.5 1540.5,-112.5"/>
<text text-anchor="middle" x="1567" y="-119.5" font-family="Helvetica,sans-Serif" font-size="10.00">cstddef</text>
</a>
</g>
</g>
<!-- Node9&#45;&gt;Node12 -->
<g id="edge13" class="edge">
<title>Node9&#45;&gt;Node12</title>
<path fill="none" stroke="midnightblue" d="M1567,-168.08C1567,-161.01 1567,-150.86 1567,-141.99"/>
<polygon fill="midnightblue" stroke="midnightblue" points="1570.5,-141.75 1567,-131.75 1563.5,-141.75 1570.5,-141.75"/>
</g>
<!-- Node10&#45;&gt;Node5 -->
<g id="edge12" class="edge">
<title>Node10&#45;&gt;Node5</title>
<path fill="none" stroke="midnightblue" d="M1464.73,-56.08C1459.36,-48.46 1451.48,-37.26 1444.92,-27.94"/>
<polygon fill="midnightblue" stroke="midnightblue" points="1447.78,-25.91 1439.16,-19.75 1442.05,-29.94 1447.78,-25.91"/>
</g>
<!-- Node10&#45;&gt;Node8 -->
<g id="edge11" class="edge">
<title>Node10&#45;&gt;Node8</title>
<path fill="none" stroke="midnightblue" d="M1422.94,-60.64C1406.47,-59.16 1387.93,-57.5 1371,-56 1188.92,-39.91 970.86,-21.18 887.11,-14"/>
<polygon fill="midnightblue" stroke="midnightblue" points="887.38,-10.51 877.12,-13.15 886.78,-17.49 887.38,-10.51"/>
</g>
<!-- Node11 -->
<g id="node11" class="node">
<title>Node11</title>
<g id="a_node11"><a xlink:title=" ">
<polygon fill="none" stroke="#bfbfbf" points="1248,-0.5 1248,-19.5 1312,-19.5 1312,-0.5 1248,-0.5"/>
<text text-anchor="middle" x="1280" y="-7.5" font-family="Helvetica,sans-Serif" font-size="10.00">algorithm</text>
</a>
</g>
</g>
<!-- Node10&#45;&gt;Node11 -->
<g id="edge10" class="edge">
<title>Node10&#45;&gt;Node11</title>
<path fill="none" stroke="midnightblue" d="M1440.74,-56.44C1408.04,-47.2 1355.82,-32.44 1319.82,-22.26"/>
<polygon fill="midnightblue" stroke="midnightblue" points="1320.7,-18.87 1310.12,-19.52 1318.79,-25.61 1320.7,-18.87"/>
</g>
<!-- Node13&#45;&gt;Node3 -->
<g id="edge18" class="edge">
<title>Node13&#45;&gt;Node3</title>
<path fill="none" stroke="midnightblue" d="M818.88,-169.49C900.08,-159.64 1042.41,-142.37 1128.86,-131.88"/>
<polygon fill="midnightblue" stroke="midnightblue" points="1129.35,-135.34 1138.85,-130.66 1128.51,-128.39 1129.35,-135.34"/>
</g>
<!-- Node13&#45;&gt;Node4 -->
<g id="edge50" class="edge">
<title>Node13&#45;&gt;Node4</title>
<path fill="none" stroke="midnightblue" d="M818.62,-175.16C886.92,-171.66 999.62,-161.49 1092,-132 1110.18,-126.2 1112.72,-120.09 1130,-112 1155.56,-100.03 1185.21,-87.9 1207.13,-79.25"/>
<polygon fill="midnightblue" stroke="midnightblue" points="1208.57,-82.44 1216.61,-75.54 1206.02,-75.93 1208.57,-82.44"/>
</g>
<!-- Node13&#45;&gt;Node6 -->
<g id="edge55" class="edge">
<title>Node13&#45;&gt;Node6</title>
<path fill="none" stroke="midnightblue" d="M695.5,-171.42C669.65,-165.68 641.93,-154.31 626,-132 613.19,-114.06 634.14,-94.24 652.93,-81.26"/>
<polygon fill="midnightblue" stroke="midnightblue" points="655.08,-84.03 661.55,-75.64 651.26,-78.16 655.08,-84.03"/>
</g>
<!-- Node13&#45;&gt;Node7 -->
<g id="edge49" class="edge">
<title>Node13&#45;&gt;Node7</title>
<path fill="none" stroke="midnightblue" d="M818.8,-175.83C926.4,-172.99 1154.85,-163.47 1345,-132 1346.25,-131.79 1347.53,-131.56 1348.81,-131.31"/>
<polygon fill="midnightblue" stroke="midnightblue" points="1349.65,-134.71 1358.66,-129.12 1348.13,-127.88 1349.65,-134.71"/>
</g>
<!-- Node13&#45;&gt;Node8 -->
<g id="edge52" class="edge">
<title>Node13&#45;&gt;Node8</title>
<path fill="none" stroke="midnightblue" d="M789.82,-168.49C808.64,-161.8 830.88,-150.45 843,-132 863.47,-100.86 859.95,-54.98 855.82,-29.6"/>
<polygon fill="midnightblue" stroke="midnightblue" points="859.21,-28.71 853.96,-19.5 852.33,-29.97 859.21,-28.71"/>
</g>
<!-- Node13&#45;&gt;Node10 -->
<g id="edge37" class="edge">
<title>Node13&#45;&gt;Node10</title>
<path fill="none" stroke="midnightblue" d="M818.55,-176.24C916.11,-174 1111.84,-165.34 1274,-132 1334.72,-119.52 1402.84,-94.44 1440.97,-79.34"/>
<polygon fill="midnightblue" stroke="midnightblue" points="1442.46,-82.51 1450.44,-75.55 1439.86,-76.02 1442.46,-82.51"/>
</g>
<!-- Node14 -->
<g id="node14" class="node">
<title>Node14</title>
<g id="a_node14"><a xlink:title=" ">
<polygon fill="none" stroke="#bfbfbf" points="0,-0.5 0,-19.5 102,-19.5 102,-0.5 0,-0.5"/>
<text text-anchor="middle" x="51" y="-7.5" font-family="Helvetica,sans-Serif" font-size="10.00">rawspeedconfig.h</text>
</a>
</g>
</g>
<!-- Node13&#45;&gt;Node14 -->
<g id="edge16" class="edge">
<title>Node13&#45;&gt;Node14</title>
<path fill="none" stroke="midnightblue" d="M695.27,-176.08C561.76,-173.5 250.18,-164.13 150,-132 104.42,-117.38 83.66,-116.41 58,-76 49.35,-62.38 48.15,-43.83 48.79,-30.04"/>
<polygon fill="midnightblue" stroke="midnightblue" points="52.3,-30.04 49.64,-19.78 45.33,-29.46 52.3,-30.04"/>
</g>
<!-- Node15 -->
<g id="node15" class="node">
<title>Node15</title>
<g id="a_node15"><a xlink:href="../../db/d8a/_thread_safety_analysis_8h.html" target="_top" xlink:title=" ">
<polygon fill="none" stroke="black" points="131,-0.5 131,-19.5 263,-19.5 263,-0.5 131,-0.5"/>
<text text-anchor="middle" x="197" y="-7.5" font-family="Helvetica,sans-Serif" font-size="10.00">ThreadSafetyAnalysis.h</text>
</a>
</g>
</g>
<!-- Node13&#45;&gt;Node15 -->
<g id="edge17" class="edge">
<title>Node13&#45;&gt;Node15</title>
<path fill="none" stroke="midnightblue" d="M695.25,-175.24C566.5,-171.04 278.37,-158.74 243,-132 210.53,-107.45 200.98,-57.07 198.17,-29.7"/>
<polygon fill="midnightblue" stroke="midnightblue" points="201.64,-29.2 197.33,-19.52 194.67,-29.77 201.64,-29.2"/>
</g>
<!-- Node16 -->
<g id="node16" class="node">
<title>Node16</title>
<g id="a_node16"><a xlink:href="../../d9/df5/src_2librawspeed_2common_2_common_8h.html" target="_top" xlink:title=" ">
<polygon fill="none" stroke="black" points="967,-112.5 967,-131.5 1083,-131.5 1083,-112.5 967,-112.5"/>
<text text-anchor="middle" x="1025" y="-119.5" font-family="Helvetica,sans-Serif" font-size="10.00">common/Common.h</text>
</a>
</g>
</g>
<!-- Node13&#45;&gt;Node16 -->
<g id="edge19" class="edge">
<title>Node13&#45;&gt;Node16</title>
<path fill="none" stroke="midnightblue" d="M799.47,-168.44C846.41,-158.98 922.08,-143.74 972.65,-133.55"/>
<polygon fill="midnightblue" stroke="midnightblue" points="973.62,-136.92 982.73,-131.52 972.24,-130.06 973.62,-136.92"/>
</g>
<!-- Node20 -->
<g id="node20" class="node">
<title>Node20</title>
<g id="a_node20"><a xlink:title=" ">
<polygon fill="none" stroke="#bfbfbf" points="422,-56.5 422,-75.5 466,-75.5 466,-56.5 422,-56.5"/>
<text text-anchor="middle" x="444" y="-63.5" font-family="Helvetica,sans-Serif" font-size="10.00">string</text>
</a>
</g>
</g>
<!-- Node13&#45;&gt;Node20 -->
<g id="edge54" class="edge">
<title>Node13&#45;&gt;Node20</title>
<path fill="none" stroke="midnightblue" d="M695.14,-173.09C602.8,-166.62 437.81,-152.35 420,-132 407.93,-118.21 418.73,-97.81 429.45,-83.55"/>
<polygon fill="midnightblue" stroke="midnightblue" points="432.33,-85.55 435.91,-75.58 426.9,-81.14 432.33,-85.55"/>
</g>
<!-- Node21 -->
<g id="node21" class="node">
<title>Node21</title>
<g id="a_node21"><a xlink:href="../../d7/d4f/_error_log_8h.html" target="_top" xlink:title=" ">
<polygon fill="none" stroke="black" points="261,-112.5 261,-131.5 373,-131.5 373,-112.5 261,-112.5"/>
<text text-anchor="middle" x="317" y="-119.5" font-family="Helvetica,sans-Serif" font-size="10.00">common/ErrorLog.h</text>
</a>
</g>
</g>
<!-- Node13&#45;&gt;Node21 -->
<g id="edge29" class="edge">
<title>Node13&#45;&gt;Node21</title>
<path fill="none" stroke="midnightblue" d="M695.44,-169.64C622,-160.84 495.51,-145.57 387,-132 385.73,-131.84 384.46,-131.68 383.17,-131.52"/>
<polygon fill="midnightblue" stroke="midnightblue" points="383.52,-128.04 373.16,-130.25 382.64,-134.98 383.52,-128.04"/>
</g>
<!-- Node22 -->
<g id="node22" class="node">
<title>Node22</title>
<g id="a_node22"><a xlink:href="../../da/d78/_mutex_8h.html" target="_top" xlink:title=" ">
<polygon fill="none" stroke="black" points="67.5,-56.5 67.5,-75.5 168.5,-75.5 168.5,-56.5 67.5,-56.5"/>
<text text-anchor="middle" x="118" y="-63.5" font-family="Helvetica,sans-Serif" font-size="10.00">common/Mutex.h</text>
</a>
</g>
</g>
<!-- Node13&#45;&gt;Node22 -->
<g id="edge36" class="edge">
<title>Node13&#45;&gt;Node22</title>
<path fill="none" stroke="midnightblue" d="M695.05,-177.62C565.54,-178.05 270.75,-174.2 181,-132 158.86,-121.59 140.35,-99.8 129.24,-84.32"/>
<polygon fill="midnightblue" stroke="midnightblue" points="131.85,-81.94 123.31,-75.66 126.07,-85.89 131.85,-81.94"/>
</g>
<!-- Node23 -->
<g id="node23" class="node">
<title>Node23</title>
<g id="a_node23"><a xlink:href="../../d2/d9b/_table_look_up_8h.html" target="_top" xlink:title=" ">
<polygon fill="none" stroke="black" points="635,-112.5 635,-131.5 769,-131.5 769,-112.5 635,-112.5"/>
<text text-anchor="middle" x="702" y="-119.5" font-family="Helvetica,sans-Serif" font-size="10.00">common/TableLookUp.h</text>
</a>
</g>
</g>
<!-- Node13&#45;&gt;Node23 -->
<g id="edge38" class="edge">
<title>Node13&#45;&gt;Node23</title>
<path fill="none" stroke="midnightblue" d="M747.92,-168.08C739.83,-160.14 727.8,-148.34 718.09,-138.8"/>
<polygon fill="midnightblue" stroke="midnightblue" points="720.5,-136.26 710.91,-131.75 715.6,-141.25 720.5,-136.26"/>
</g>
<!-- Node24 -->
<g id="node24" class="node">
<title>Node24</title>
<g id="a_node24"><a xlink:href="../../db/dca/_black_area_8h.html" target="_top" xlink:title=" ">
<polygon fill="none" stroke="black" points="276.5,-56.5 276.5,-75.5 401.5,-75.5 401.5,-56.5 276.5,-56.5"/>
<text text-anchor="middle" x="339" y="-63.5" font-family="Helvetica,sans-Serif" font-size="10.00">metadata/BlackArea.h</text>
</a>
</g>
</g>
<!-- Node13&#45;&gt;Node24 -->
<g id="edge41" class="edge">
<title>Node13&#45;&gt;Node24</title>
<path fill="none" stroke="midnightblue" d="M695.02,-176.06C566.7,-173.46 281.37,-164.11 252,-132 232.1,-110.25 268.95,-90.83 300.66,-79"/>
<polygon fill="midnightblue" stroke="midnightblue" points="302.02,-82.23 310.26,-75.58 299.67,-75.63 302.02,-82.23"/>
</g>
<!-- Node25 -->
<g id="node25" class="node">
<title>Node25</title>
<g id="a_node25"><a xlink:href="../../dd/d27/_color_filter_array_8h.html" target="_top" xlink:title=" ">
<polygon fill="none" stroke="black" points="429,-112.5 429,-131.5 579,-131.5 579,-112.5 429,-112.5"/>
<text text-anchor="middle" x="504" y="-119.5" font-family="Helvetica,sans-Serif" font-size="10.00">metadata/ColorFilterArray.h</text>
</a>
</g>
</g>
<!-- Node13&#45;&gt;Node25 -->
<g id="edge43" class="edge">
<title>Node13&#45;&gt;Node25</title>
<path fill="none" stroke="midnightblue" d="M716.91,-168.44C672.68,-159 601.46,-143.8 553.72,-133.61"/>
<polygon fill="midnightblue" stroke="midnightblue" points="554.41,-130.18 543.9,-131.52 552.95,-137.03 554.41,-130.18"/>
</g>
<!-- Node27 -->
<g id="node27" class="node">
<title>Node27</title>
<g id="a_node27"><a xlink:title=" ">
<polygon fill="none" stroke="#bfbfbf" points="787.5,-112.5 787.5,-131.5 834.5,-131.5 834.5,-112.5 787.5,-112.5"/>
<text text-anchor="middle" x="811" y="-119.5" font-family="Helvetica,sans-Serif" font-size="10.00">cmath</text>
</a>
</g>
</g>
<!-- Node13&#45;&gt;Node27 -->
<g id="edge51" class="edge">
<title>Node13&#45;&gt;Node27</title>
<path fill="none" stroke="midnightblue" d="M765.92,-168.08C773.78,-160.22 785.43,-148.57 794.92,-139.08"/>
<polygon fill="midnightblue" stroke="midnightblue" points="797.65,-141.3 802.25,-131.75 792.7,-136.35 797.65,-141.3"/>
</g>
<!-- Node28 -->
<g id="node28" class="node">
<title>Node28</title>
<g id="a_node28"><a xlink:title=" ">
<polygon fill="none" stroke="#bfbfbf" points="891,-112.5 891,-131.5 949,-131.5 949,-112.5 891,-112.5"/>
<text text-anchor="middle" x="920" y="-119.5" font-family="Helvetica,sans-Serif" font-size="10.00">memory</text>
</a>
</g>
</g>
<!-- Node13&#45;&gt;Node28 -->
<g id="edge53" class="edge">
<title>Node13&#45;&gt;Node28</title>
<path fill="none" stroke="midnightblue" d="M782.83,-168.44C810.25,-159.36 853.78,-144.94 884.43,-134.78"/>
<polygon fill="midnightblue" stroke="midnightblue" points="885.9,-137.98 894.29,-131.52 883.7,-131.34 885.9,-137.98"/>
</g>
<!-- Node16&#45;&gt;Node4 -->
<g id="edge21" class="edge">
<title>Node16&#45;&gt;Node4</title>
<path fill="none" stroke="midnightblue" d="M1058.91,-112.44C1098.26,-102.51 1162.89,-86.21 1203.08,-76.06"/>
<polygon fill="midnightblue" stroke="midnightblue" points="1204.15,-79.4 1212.99,-73.56 1202.44,-72.62 1204.15,-79.4"/>
</g>
<!-- Node16&#45;&gt;Node5 -->
<g id="edge27" class="edge">
<title>Node16&#45;&gt;Node5</title>
<path fill="none" stroke="midnightblue" d="M1055.84,-112.47C1084.33,-104.24 1127.61,-90.89 1164,-76 1182.4,-68.47 1185.19,-62.42 1204,-56 1266.21,-34.77 1341.54,-22.38 1388.37,-16.15"/>
<polygon fill="midnightblue" stroke="midnightblue" points="1389.03,-19.59 1398.49,-14.84 1388.13,-12.65 1389.03,-19.59"/>
</g>
<!-- Node16&#45;&gt;Node6 -->
<g id="edge28" class="edge">
<title>Node16&#45;&gt;Node6</title>
<path fill="none" stroke="midnightblue" d="M969.86,-112.44C897,-101.14 770.87,-81.57 710.75,-72.24"/>
<polygon fill="midnightblue" stroke="midnightblue" points="711.08,-68.75 700.67,-70.67 710.01,-75.66 711.08,-68.75"/>
</g>
<!-- Node16&#45;&gt;Node8 -->
<g id="edge23" class="edge">
<title>Node16&#45;&gt;Node8</title>
<path fill="none" stroke="midnightblue" d="M971.66,-112.45C944.9,-106.01 913.31,-94.92 890,-76 874.97,-63.8 864.62,-43.97 858.55,-29.42"/>
<polygon fill="midnightblue" stroke="midnightblue" points="861.76,-28 854.9,-19.94 855.23,-30.53 861.76,-28"/>
</g>
<!-- Node16&#45;&gt;Node11 -->
<g id="edge20" class="edge">
<title>Node16&#45;&gt;Node11</title>
<path fill="none" stroke="midnightblue" d="M1045.19,-112.34C1066,-103.38 1099.36,-88.91 1128,-76 1147.21,-67.34 1151.7,-64.47 1171,-56 1197.18,-44.52 1227.22,-32.17 1249.13,-23.32"/>
<polygon fill="midnightblue" stroke="midnightblue" points="1250.61,-26.5 1258.58,-19.52 1248,-20.01 1250.61,-26.5"/>
</g>
<!-- Node17 -->
<g id="node17" class="node">
<title>Node17</title>
<g id="a_node17"><a xlink:title=" ">
<polygon fill="none" stroke="#bfbfbf" points="1001,-56.5 1001,-75.5 1051,-75.5 1051,-56.5 1001,-56.5"/>
<text text-anchor="middle" x="1026" y="-63.5" font-family="Helvetica,sans-Serif" font-size="10.00">climits</text>
</a>
</g>
</g>
<!-- Node16&#45;&gt;Node17 -->
<g id="edge22" class="edge">
<title>Node16&#45;&gt;Node17</title>
<path fill="none" stroke="midnightblue" d="M1025.17,-112.08C1025.3,-105.01 1025.48,-94.86 1025.65,-85.99"/>
<polygon fill="midnightblue" stroke="midnightblue" points="1029.15,-85.81 1025.84,-75.75 1022.15,-85.68 1029.15,-85.81"/>
</g>
<!-- Node18 -->
<g id="node18" class="node">
<title>Node18</title>
<g id="a_node18"><a xlink:title=" ">
<polygon fill="none" stroke="#bfbfbf" points="1069,-56.5 1069,-75.5 1119,-75.5 1119,-56.5 1069,-56.5"/>
<text text-anchor="middle" x="1094" y="-63.5" font-family="Helvetica,sans-Serif" font-size="10.00">cstring</text>
</a>
</g>
</g>
<!-- Node16&#45;&gt;Node18 -->
<g id="edge24" class="edge">
<title>Node16&#45;&gt;Node18</title>
<path fill="none" stroke="midnightblue" d="M1036.09,-112.32C1046.49,-104.18 1062.26,-91.84 1074.72,-82.09"/>
<polygon fill="midnightblue" stroke="midnightblue" points="1076.99,-84.75 1082.71,-75.83 1072.68,-79.24 1076.99,-84.75"/>
</g>
<!-- Node19 -->
<g id="node19" class="node">
<title>Node19</title>
<g id="a_node19"><a xlink:title=" ">
<polygon fill="none" stroke="#bfbfbf" points="899.5,-56.5 899.5,-75.5 982.5,-75.5 982.5,-56.5 899.5,-56.5"/>
<text text-anchor="middle" x="941" y="-63.5" font-family="Helvetica,sans-Serif" font-size="10.00">initializer_list</text>
</a>
</g>
</g>
<!-- Node16&#45;&gt;Node19 -->
<g id="edge25" class="edge">
<title>Node16&#45;&gt;Node19</title>
<path fill="none" stroke="midnightblue" d="M1011.5,-112.32C998.4,-103.9 978.29,-90.97 962.89,-81.07"/>
<polygon fill="midnightblue" stroke="midnightblue" points="964.77,-78.12 954.46,-75.65 960.98,-84.01 964.77,-78.12"/>
</g>
<!-- Node16&#45;&gt;Node20 -->
<g id="edge26" class="edge">
<title>Node16&#45;&gt;Node20</title>
<path fill="none" stroke="midnightblue" d="M966.92,-112.99C963.91,-112.64 960.92,-112.3 958,-112 747.58,-90.03 689.32,-112.56 476.19,-75.62"/>
<polygon fill="midnightblue" stroke="midnightblue" points="476.7,-72.15 466.25,-73.87 475.49,-79.05 476.7,-72.15"/>
</g>
<!-- Node21&#45;&gt;Node6 -->
<g id="edge35" class="edge">
<title>Node21&#45;&gt;Node6</title>
<path fill="none" stroke="midnightblue" d="M373.25,-112.56C448.96,-101.21 581.28,-81.36 643.22,-72.07"/>
<polygon fill="midnightblue" stroke="midnightblue" points="643.87,-75.51 653.24,-70.56 642.83,-68.59 643.87,-75.51"/>
</g>
<!-- Node21&#45;&gt;Node15 -->
<g id="edge30" class="edge">
<title>Node21&#45;&gt;Node15</title>
<path fill="none" stroke="midnightblue" d="M307.37,-112.42C297.28,-103.39 280.96,-88.77 267,-76 248.79,-59.35 228.1,-40.1 213.96,-26.89"/>
<polygon fill="midnightblue" stroke="midnightblue" points="216.16,-24.15 206.47,-19.88 211.38,-29.27 216.16,-24.15"/>
</g>
<!-- Node21&#45;&gt;Node20 -->
<g id="edge34" class="edge">
<title>Node21&#45;&gt;Node20</title>
<path fill="none" stroke="midnightblue" d="M337.12,-112.44C358.02,-103.56 390.93,-89.56 414.72,-79.45"/>
<polygon fill="midnightblue" stroke="midnightblue" points="416.14,-82.65 423.97,-75.52 413.4,-76.21 416.14,-82.65"/>
</g>
<!-- Node21&#45;&gt;Node22 -->
<g id="edge31" class="edge">
<title>Node21&#45;&gt;Node22</title>
<path fill="none" stroke="midnightblue" d="M285.47,-112.44C251.41,-103.2 196.99,-88.44 159.48,-78.26"/>
<polygon fill="midnightblue" stroke="midnightblue" points="159.95,-74.76 149.38,-75.52 158.12,-81.51 159.95,-74.76"/>
</g>
<!-- Node22&#45;&gt;Node14 -->
<g id="edge32" class="edge">
<title>Node22&#45;&gt;Node14</title>
<path fill="none" stroke="midnightblue" d="M107.24,-56.32C97.23,-48.26 82.11,-36.08 70.07,-26.37"/>
<polygon fill="midnightblue" stroke="midnightblue" points="71.94,-23.38 61.96,-19.83 67.55,-28.83 71.94,-23.38"/>
</g>
<!-- Node22&#45;&gt;Node15 -->
<g id="edge33" class="edge">
<title>Node22&#45;&gt;Node15</title>
<path fill="none" stroke="midnightblue" d="M130.69,-56.32C142.9,-47.98 161.58,-35.21 176,-25.35"/>
<polygon fill="midnightblue" stroke="midnightblue" points="178.06,-28.19 184.34,-19.65 174.11,-22.41 178.06,-28.19"/>
</g>
<!-- Node23&#45;&gt;Node6 -->
<g id="edge40" class="edge">
<title>Node23&#45;&gt;Node6</title>
<path fill="none" stroke="midnightblue" d="M697.87,-112.08C694.49,-104.77 689.58,-94.18 685.38,-85.1"/>
<polygon fill="midnightblue" stroke="midnightblue" points="688.43,-83.36 681.05,-75.75 682.08,-86.3 688.43,-83.36"/>
</g>
<!-- Node23&#45;&gt;Node8 -->
<g id="edge39" class="edge">
<title>Node23&#45;&gt;Node8</title>
<path fill="none" stroke="midnightblue" d="M713.77,-112.37C739.4,-93.57 800.5,-48.77 832.18,-25.53"/>
<polygon fill="midnightblue" stroke="midnightblue" points="834.29,-28.33 840.28,-19.59 830.15,-22.68 834.29,-28.33"/>
</g>
<!-- Node24&#45;&gt;Node8 -->
<g id="edge42" class="edge">
<title>Node24&#45;&gt;Node8</title>
<path fill="none" stroke="midnightblue" d="M401.57,-57.31C405.44,-56.86 409.27,-56.42 413,-56 562.86,-39.21 741.78,-21.64 816.49,-14.41"/>
<polygon fill="midnightblue" stroke="midnightblue" points="817.13,-17.87 826.74,-13.42 816.45,-10.9 817.13,-17.87"/>
</g>
<!-- Node25&#45;&gt;Node6 -->
<g id="edge48" class="edge">
<title>Node25&#45;&gt;Node6</title>
<path fill="none" stroke="midnightblue" d="M531.41,-112.44C561.89,-102.93 611.12,-87.56 643.77,-77.37"/>
<polygon fill="midnightblue" stroke="midnightblue" points="644.83,-80.71 653.33,-74.39 642.74,-74.03 644.83,-80.71"/>
</g>
<!-- Node25&#45;&gt;Node8 -->
<g id="edge45" class="edge">
<title>Node25&#45;&gt;Node8</title>
<path fill="none" stroke="midnightblue" d="M519.49,-112.41C544.82,-98.7 597,-71.78 644,-56 703.25,-36.11 775.02,-22.86 816.89,-16.15"/>
<polygon fill="midnightblue" stroke="midnightblue" points="817.53,-19.6 826.87,-14.59 816.45,-12.68 817.53,-19.6"/>
</g>
<!-- Node25&#45;&gt;Node10 -->
<g id="edge44" class="edge">
<title>Node25&#45;&gt;Node10</title>
<path fill="none" stroke="midnightblue" d="M579.15,-115.21C594.64,-114.09 610.85,-112.96 626,-112 921.43,-93.24 1275.3,-76.13 1412.58,-69.7"/>
<polygon fill="midnightblue" stroke="midnightblue" points="1413.04,-73.18 1422.87,-69.22 1412.71,-66.19 1413.04,-73.18"/>
</g>
<!-- Node25&#45;&gt;Node20 -->
<g id="edge47" class="edge">
<title>Node25&#45;&gt;Node20</title>
<path fill="none" stroke="midnightblue" d="M494.36,-112.32C485.49,-104.34 472.13,-92.31 461.39,-82.65"/>
<polygon fill="midnightblue" stroke="midnightblue" points="463.59,-79.92 453.82,-75.83 458.91,-85.13 463.59,-79.92"/>
</g>
<!-- Node26 -->
<g id="node26" class="node">
<title>Node26</title>
<g id="a_node26"><a xlink:title=" ">
<polygon fill="none" stroke="#bfbfbf" points="485,-56.5 485,-75.5 523,-75.5 523,-56.5 485,-56.5"/>
<text text-anchor="middle" x="504" y="-63.5" font-family="Helvetica,sans-Serif" font-size="10.00">map</text>
</a>
</g>
</g>
<!-- Node25&#45;&gt;Node26 -->
<g id="edge46" class="edge">
<title>Node25&#45;&gt;Node26</title>
<path fill="none" stroke="midnightblue" d="M504,-112.08C504,-105.01 504,-94.86 504,-85.99"/>
<polygon fill="midnightblue" stroke="midnightblue" points="507.5,-85.75 504,-75.75 500.5,-85.75 507.5,-85.75"/>
</g>
</g>
</svg>
