<?xml version="1.0" encoding="UTF-8" standalone="no"?>
<!DOCTYPE svg PUBLIC "-//W3C//DTD SVG 1.1//EN"
 "http://www.w3.org/Graphics/SVG/1.1/DTD/svg11.dtd">
<!-- Generated by graphviz version 2.43.0 (0)
 -->
<!-- Title: librawspeed/decompressors/SamsungV1Decompressor.h Pages: 1 -->
<svg width="501pt" height="117pt"
 viewBox="0.00 0.00 501.00 117.00" xmlns="http://www.w3.org/2000/svg" xmlns:xlink="http://www.w3.org/1999/xlink">
<g id="graph0" class="graph" transform="scale(1 1) rotate(0) translate(4 113)">
<title>librawspeed/decompressors/SamsungV1Decompressor.h</title>
<!-- Node1 -->
<g id="node1" class="node">
<title>Node1</title>
<g id="a_node1"><a xlink:title=" ">
<polygon fill="#bfbfbf" stroke="black" points="168.5,-78.5 168.5,-108.5 324.5,-108.5 324.5,-78.5 168.5,-78.5"/>
<text text-anchor="start" x="176.5" y="-96.5" font-family="Helvetica,sans-Serif" font-size="10.00">librawspeed/decompressors</text>
<text text-anchor="middle" x="246.5" y="-85.5" font-family="Helvetica,sans-Serif" font-size="10.00">/SamsungV1Decompressor.h</text>
</a>
</g>
</g>
<!-- Node2 -->
<g id="node2" class="node">
<title>Node2</title>
<g id="a_node2"><a xlink:href="../../d6/de0/fuzz_2librawspeed_2decompressors_2_samsung_v1_decompressor_8cpp.html" target="_top" xlink:title=" ">
<polygon fill="none" stroke="black" points="0,-0.5 0,-41.5 167,-41.5 167,-0.5 0,-0.5"/>
<text text-anchor="start" x="8" y="-29.5" font-family="Helvetica,sans-Serif" font-size="10.00">/build/rawspeed/fuzz</text>
<text text-anchor="start" x="8" y="-18.5" font-family="Helvetica,sans-Serif" font-size="10.00">/librawspeed/decompressors</text>
<text text-anchor="middle" x="83.5" y="-7.5" font-family="Helvetica,sans-Serif" font-size="10.00">/SamsungV1Decompressor.cpp</text>
</a>
</g>
</g>
<!-- Node1&#45;&gt;Node2 -->
<g id="edge1" class="edge">
<title>Node1&#45;&gt;Node2</title>
<path fill="none" stroke="midnightblue" d="M204.65,-74.4C181.4,-64.34 152.46,-51.83 128.69,-41.55"/>
<polygon fill="midnightblue" stroke="midnightblue" points="203.34,-77.65 213.91,-78.4 206.12,-71.22 203.34,-77.65"/>
</g>
<!-- Node3 -->
<g id="node3" class="node">
<title>Node3</title>
<g id="a_node3"><a xlink:href="../../da/db2/_srw_decoder_8cpp.html" target="_top" xlink:title=" ">
<polygon fill="none" stroke="black" points="185,-6 185,-36 308,-36 308,-6 185,-6"/>
<text text-anchor="start" x="193" y="-24" font-family="Helvetica,sans-Serif" font-size="10.00">librawspeed/decoders</text>
<text text-anchor="middle" x="246.5" y="-13" font-family="Helvetica,sans-Serif" font-size="10.00">/SrwDecoder.cpp</text>
</a>
</g>
</g>
<!-- Node1&#45;&gt;Node3 -->
<g id="edge2" class="edge">
<title>Node1&#45;&gt;Node3</title>
<path fill="none" stroke="midnightblue" d="M246.5,-68.23C246.5,-57.57 246.5,-45.41 246.5,-36.25"/>
<polygon fill="midnightblue" stroke="midnightblue" points="243,-68.23 246.5,-78.23 250,-68.23 243,-68.23"/>
</g>
<!-- Node4 -->
<g id="node4" class="node">
<title>Node4</title>
<g id="a_node4"><a xlink:href="../../d0/d88/src_2librawspeed_2decompressors_2_samsung_v1_decompressor_8cpp.html" target="_top" xlink:title=" ">
<polygon fill="none" stroke="black" points="326,-6 326,-36 493,-36 493,-6 326,-6"/>
<text text-anchor="start" x="334" y="-24" font-family="Helvetica,sans-Serif" font-size="10.00">librawspeed/decompressors</text>
<text text-anchor="middle" x="409.5" y="-13" font-family="Helvetica,sans-Serif" font-size="10.00">/SamsungV1Decompressor.cpp</text>
</a>
</g>
</g>
<!-- Node1&#45;&gt;Node4 -->
<g id="edge3" class="edge">
<title>Node1&#45;&gt;Node4</title>
<path fill="none" stroke="midnightblue" d="M288.48,-74.34C316.04,-62.42 351.55,-47.07 376.96,-36.07"/>
<polygon fill="midnightblue" stroke="midnightblue" points="286.88,-71.22 279.09,-78.4 289.66,-77.65 286.88,-71.22"/>
</g>
</g>
</svg>
