<?xml version="1.0" encoding="UTF-8" standalone="no"?>
<!DOCTYPE svg PUBLIC "-//W3C//DTD SVG 1.1//EN"
 "http://www.w3.org/Graphics/SVG/1.1/DTD/svg11.dtd">
<!-- Generated by graphviz version 2.43.0 (0)
 -->
<!-- Title: rawspeed::rstest::writePFM Pages: 1 -->
<svg width="337pt" height="186pt"
 viewBox="0.00 0.00 337.00 186.00" xmlns="http://www.w3.org/2000/svg" xmlns:xlink="http://www.w3.org/1999/xlink">
<g id="graph0" class="graph" transform="scale(1 1) rotate(0) translate(4 182)">
<title>rawspeed::rstest::writePFM</title>
<!-- Node1 -->
<g id="node1" class="node">
<title>Node1</title>
<g id="a_node1"><a xlink:title=" ">
<polygon fill="#bfbfbf" stroke="black" points="0,-79 0,-98 148,-98 148,-79 0,-79"/>
<text text-anchor="middle" x="74" y="-86" font-family="Helvetica,sans-Serif" font-size="10.00">rawspeed::rstest::writePFM</text>
</a>
</g>
</g>
<!-- Node2 -->
<g id="node2" class="node">
<title>Node2</title>
<g id="a_node2"><a xlink:href="../../dc/d44/classrawspeed_1_1_raw_image_data.html#a836542a96856aef9ccced48fecc06f03" target="_top" xlink:title=" ">
<polygon fill="none" stroke="black" points="184,-147.5 184,-177.5 329,-177.5 329,-147.5 184,-147.5"/>
<text text-anchor="start" x="192" y="-165.5" font-family="Helvetica,sans-Serif" font-size="10.00">rawspeed::RawImageData</text>
<text text-anchor="middle" x="256.5" y="-154.5" font-family="Helvetica,sans-Serif" font-size="10.00">::__attribute__</text>
</a>
</g>
</g>
<!-- Node1&#45;&gt;Node2 -->
<g id="edge1" class="edge">
<title>Node1&#45;&gt;Node2</title>
<path fill="none" stroke="midnightblue" d="M94.42,-98.17C116.01,-108.74 152.06,-125.85 184,-138.5 188.75,-140.38 193.71,-142.24 198.71,-144.05"/>
<polygon fill="midnightblue" stroke="midnightblue" points="197.73,-147.42 208.32,-147.46 200.06,-140.82 197.73,-147.42"/>
</g>
<!-- Node3 -->
<g id="node3" class="node">
<title>Node3</title>
<g id="a_node3"><a xlink:href="../../dc/d44/classrawspeed_1_1_raw_image_data.html#a1d9a712a918374327fe3fe791318912f" target="_top" xlink:title=" ">
<polygon fill="none" stroke="black" points="184,-98.5 184,-128.5 329,-128.5 329,-98.5 184,-98.5"/>
<text text-anchor="start" x="192" y="-116.5" font-family="Helvetica,sans-Serif" font-size="10.00">rawspeed::RawImageData</text>
<text text-anchor="middle" x="256.5" y="-105.5" font-family="Helvetica,sans-Serif" font-size="10.00">::getCpp</text>
</a>
</g>
</g>
<!-- Node1&#45;&gt;Node3 -->
<g id="edge2" class="edge">
<title>Node1&#45;&gt;Node3</title>
<path fill="none" stroke="midnightblue" d="M143.75,-98.02C153.62,-99.39 163.84,-100.81 173.93,-102.2"/>
<polygon fill="midnightblue" stroke="midnightblue" points="173.55,-105.68 183.94,-103.59 174.51,-98.75 173.55,-105.68"/>
</g>
<!-- Node4 -->
<g id="node4" class="node">
<title>Node4</title>
<g id="a_node4"><a xlink:href="../../dc/d44/classrawspeed_1_1_raw_image_data.html#a2bf55185f403b09dbae841ebb6273cf0" target="_top" xlink:title=" ">
<polygon fill="none" stroke="black" points="184,-49.5 184,-79.5 329,-79.5 329,-49.5 184,-49.5"/>
<text text-anchor="start" x="192" y="-67.5" font-family="Helvetica,sans-Serif" font-size="10.00">rawspeed::RawImageData</text>
<text text-anchor="middle" x="256.5" y="-56.5" font-family="Helvetica,sans-Serif" font-size="10.00">::getDataUncropped</text>
</a>
</g>
</g>
<!-- Node1&#45;&gt;Node4 -->
<g id="edge3" class="edge">
<title>Node1&#45;&gt;Node4</title>
<path fill="none" stroke="midnightblue" d="M146.6,-78.98C155.54,-77.79 164.73,-76.57 173.81,-75.36"/>
<polygon fill="midnightblue" stroke="midnightblue" points="174.54,-78.8 183.99,-74.01 173.61,-71.86 174.54,-78.8"/>
</g>
<!-- Node5 -->
<g id="node5" class="node">
<title>Node5</title>
<g id="a_node5"><a xlink:href="../../dd/d12/classrawspeed_1_1_raw_image.html#a2907002b5c707eca6939061f8b0d5e5d" target="_top" xlink:title=" ">
<polygon fill="none" stroke="black" points="195.5,-0.5 195.5,-30.5 317.5,-30.5 317.5,-0.5 195.5,-0.5"/>
<text text-anchor="start" x="203.5" y="-18.5" font-family="Helvetica,sans-Serif" font-size="10.00">rawspeed::RawImage</text>
<text text-anchor="middle" x="256.5" y="-7.5" font-family="Helvetica,sans-Serif" font-size="10.00">::operator&#45;&gt;</text>
</a>
</g>
</g>
<!-- Node1&#45;&gt;Node5 -->
<g id="edge4" class="edge">
<title>Node1&#45;&gt;Node5</title>
<path fill="none" stroke="midnightblue" d="M95.29,-78.99C117.03,-68.94 152.65,-52.86 184,-40.5 189.49,-38.34 195.24,-36.16 201.01,-34.05"/>
<polygon fill="midnightblue" stroke="midnightblue" points="202.46,-37.25 210.68,-30.57 200.08,-30.67 202.46,-37.25"/>
</g>
</g>
</svg>
