<?xml version="1.0" encoding="UTF-8" standalone="no"?>
<!DOCTYPE svg PUBLIC "-//W3C//DTD SVG 1.1//EN"
 "http://www.w3.org/Graphics/SVG/1.1/DTD/svg11.dtd">
<!-- Generated by graphviz version 2.43.0 (0)
 -->
<!-- Title: rawspeed::rstest::writePPM Pages: 1 -->
<svg width="338pt" height="186pt"
 viewBox="0.00 0.00 338.00 186.00" xmlns="http://www.w3.org/2000/svg" xmlns:xlink="http://www.w3.org/1999/xlink">
<g id="graph0" class="graph" transform="scale(1 1) rotate(0) translate(4 182)">
<title>rawspeed::rstest::writePPM</title>
<!-- Node1 -->
<g id="node1" class="node">
<title>Node1</title>
<g id="a_node1"><a xlink:title=" ">
<polygon fill="#bfbfbf" stroke="black" points="0,-79 0,-98 149,-98 149,-79 0,-79"/>
<text text-anchor="middle" x="74.5" y="-86" font-family="Helvetica,sans-Serif" font-size="10.00">rawspeed::rstest::writePPM</text>
</a>
</g>
</g>
<!-- Node2 -->
<g id="node2" class="node">
<title>Node2</title>
<g id="a_node2"><a xlink:href="../../dc/d44/classrawspeed_1_1_raw_image_data.html#a836542a96856aef9ccced48fecc06f03" target="_top" xlink:title=" ">
<polygon fill="none" stroke="black" points="185,-147.5 185,-177.5 330,-177.5 330,-147.5 185,-147.5"/>
<text text-anchor="start" x="193" y="-165.5" font-family="Helvetica,sans-Serif" font-size="10.00">rawspeed::RawImageData</text>
<text text-anchor="middle" x="257.5" y="-154.5" font-family="Helvetica,sans-Serif" font-size="10.00">::__attribute__</text>
</a>
</g>
</g>
<!-- Node1&#45;&gt;Node2 -->
<g id="edge1" class="edge">
<title>Node1&#45;&gt;Node2</title>
<path fill="none" stroke="midnightblue" d="M95.01,-98.16C116.71,-108.72 152.93,-125.83 185,-138.5 189.75,-140.38 194.71,-142.24 199.71,-144.04"/>
<polygon fill="midnightblue" stroke="midnightblue" points="198.73,-147.41 209.32,-147.44 201.06,-140.81 198.73,-147.41"/>
</g>
<!-- Node3 -->
<g id="node3" class="node">
<title>Node3</title>
<g id="a_node3"><a xlink:href="../../dc/d44/classrawspeed_1_1_raw_image_data.html#a1d9a712a918374327fe3fe791318912f" target="_top" xlink:title=" ">
<polygon fill="none" stroke="black" points="185,-98.5 185,-128.5 330,-128.5 330,-98.5 185,-98.5"/>
<text text-anchor="start" x="193" y="-116.5" font-family="Helvetica,sans-Serif" font-size="10.00">rawspeed::RawImageData</text>
<text text-anchor="middle" x="257.5" y="-105.5" font-family="Helvetica,sans-Serif" font-size="10.00">::getCpp</text>
</a>
</g>
</g>
<!-- Node1&#45;&gt;Node3 -->
<g id="edge2" class="edge">
<title>Node1&#45;&gt;Node3</title>
<path fill="none" stroke="midnightblue" d="M144.44,-98.02C154.34,-99.39 164.59,-100.81 174.7,-102.2"/>
<polygon fill="midnightblue" stroke="midnightblue" points="174.36,-105.69 184.74,-103.59 175.31,-98.75 174.36,-105.69"/>
</g>
<!-- Node4 -->
<g id="node4" class="node">
<title>Node4</title>
<g id="a_node4"><a xlink:href="../../dc/d44/classrawspeed_1_1_raw_image_data.html#a2bf55185f403b09dbae841ebb6273cf0" target="_top" xlink:title=" ">
<polygon fill="none" stroke="black" points="185,-49.5 185,-79.5 330,-79.5 330,-49.5 185,-49.5"/>
<text text-anchor="start" x="193" y="-67.5" font-family="Helvetica,sans-Serif" font-size="10.00">rawspeed::RawImageData</text>
<text text-anchor="middle" x="257.5" y="-56.5" font-family="Helvetica,sans-Serif" font-size="10.00">::getDataUncropped</text>
</a>
</g>
</g>
<!-- Node1&#45;&gt;Node4 -->
<g id="edge3" class="edge">
<title>Node1&#45;&gt;Node4</title>
<path fill="none" stroke="midnightblue" d="M147.3,-78.98C156.36,-77.78 165.68,-76.54 174.88,-75.32"/>
<polygon fill="midnightblue" stroke="midnightblue" points="175.34,-78.79 184.79,-74.01 174.42,-71.85 175.34,-78.79"/>
</g>
<!-- Node5 -->
<g id="node5" class="node">
<title>Node5</title>
<g id="a_node5"><a xlink:href="../../dd/d12/classrawspeed_1_1_raw_image.html#a2907002b5c707eca6939061f8b0d5e5d" target="_top" xlink:title=" ">
<polygon fill="none" stroke="black" points="196.5,-0.5 196.5,-30.5 318.5,-30.5 318.5,-0.5 196.5,-0.5"/>
<text text-anchor="start" x="204.5" y="-18.5" font-family="Helvetica,sans-Serif" font-size="10.00">rawspeed::RawImage</text>
<text text-anchor="middle" x="257.5" y="-7.5" font-family="Helvetica,sans-Serif" font-size="10.00">::operator&#45;&gt;</text>
</a>
</g>
</g>
<!-- Node1&#45;&gt;Node5 -->
<g id="edge4" class="edge">
<title>Node1&#45;&gt;Node5</title>
<path fill="none" stroke="midnightblue" d="M96.29,-78.82C118.17,-68.76 153.71,-52.81 185,-40.5 190.49,-38.34 196.25,-36.17 202.01,-34.06"/>
<polygon fill="midnightblue" stroke="midnightblue" points="203.46,-37.26 211.68,-30.58 201.09,-30.68 203.46,-37.26"/>
</g>
</g>
</svg>
