<?xml version="1.0" encoding="UTF-8" standalone="no"?>
<!DOCTYPE svg PUBLIC "-//W3C//DTD SVG 1.1//EN"
 "http://www.w3.org/Graphics/SVG/1.1/DTD/svg11.dtd">
<!-- Generated by graphviz version 2.43.0 (0)
 -->
<!-- Title: rawspeed::rstest::process Pages: 1 -->
<svg width="382pt" height="106pt"
 viewBox="0.00 0.00 382.00 106.00" xmlns="http://www.w3.org/2000/svg" xmlns:xlink="http://www.w3.org/1999/xlink">
<g id="graph0" class="graph" transform="scale(1 1) rotate(0) translate(4 102)">
<title>rawspeed::rstest::process</title>
<!-- Node1 -->
<g id="node1" class="node">
<title>Node1</title>
<g id="a_node1"><a xlink:title=" ">
<polygon fill="#bfbfbf" stroke="black" points="0,-39 0,-58 141,-58 141,-39 0,-39"/>
<text text-anchor="middle" x="70.5" y="-46" font-family="Helvetica,sans-Serif" font-size="10.00">rawspeed::rstest::process</text>
</a>
</g>
</g>
<!-- Node2 -->
<g id="node2" class="node">
<title>Node2</title>
<g id="a_node2"><a xlink:href="../../d6/d7a/structrawspeed_1_1rstest_1_1_timer.html#a05197c35ecd483f8d581f5b57bf785df" target="_top" xlink:title=" ">
<polygon fill="none" stroke="black" points="209.5,-67.5 209.5,-97.5 341.5,-97.5 341.5,-67.5 209.5,-67.5"/>
<text text-anchor="start" x="217.5" y="-85.5" font-family="Helvetica,sans-Serif" font-size="10.00">rawspeed::rstest::Timer</text>
<text text-anchor="middle" x="275.5" y="-74.5" font-family="Helvetica,sans-Serif" font-size="10.00">::operator()</text>
</a>
</g>
</g>
<!-- Node1&#45;&gt;Node2 -->
<g id="edge1" class="edge">
<title>Node1&#45;&gt;Node2</title>
<path fill="none" stroke="midnightblue" d="M128.32,-58.02C150.38,-61.71 175.97,-66 199.51,-69.94"/>
<polygon fill="midnightblue" stroke="midnightblue" points="199.02,-73.41 209.46,-71.61 200.17,-66.5 199.02,-73.41"/>
</g>
<!-- Node3 -->
<g id="node3" class="node">
<title>Node3</title>
<g id="a_node3"><a xlink:href="../../d2/de5/classrawspeed_1_1rstest_1_1_rstest_hash_mismatch.html#a31d12f2d8d43fe9363fafb33134b71c7" target="_top" xlink:title=" ">
<polygon fill="none" stroke="black" points="177,-0.5 177,-30.5 374,-30.5 374,-0.5 177,-0.5"/>
<text text-anchor="start" x="185" y="-18.5" font-family="Helvetica,sans-Serif" font-size="10.00">rawspeed::rstest::Rstest</text>
<text text-anchor="middle" x="275.5" y="-7.5" font-family="Helvetica,sans-Serif" font-size="10.00">HashMismatch::RstestHashMismatch</text>
</a>
</g>
</g>
<!-- Node1&#45;&gt;Node3 -->
<g id="edge2" class="edge">
<title>Node1&#45;&gt;Node3</title>
<path fill="none" stroke="midnightblue" d="M129.94,-39C143.17,-36.85 157.6,-34.5 172.05,-32.15"/>
<polygon fill="midnightblue" stroke="midnightblue" points="172.74,-35.59 182.04,-30.53 171.61,-28.68 172.74,-35.59"/>
</g>
<!-- Node3&#45;&gt;Node3 -->
<g id="edge3" class="edge">
<title>Node3&#45;&gt;Node3</title>
<path fill="none" stroke="midnightblue" d="M239.95,-30.66C231.38,-40.06 243.23,-49 275.5,-49 295.17,-49 307.25,-45.68 311.75,-40.96"/>
<polygon fill="midnightblue" stroke="midnightblue" points="315.22,-40.4 311.05,-30.66 308.23,-40.87 315.22,-40.4"/>
</g>
</g>
</svg>
