<?xml version="1.0" encoding="UTF-8" standalone="no"?>
<!DOCTYPE svg PUBLIC "-//W3C//DTD SVG 1.1//EN"
 "http://www.w3.org/Graphics/SVG/1.1/DTD/svg11.dtd">
<!-- Generated by graphviz version 2.43.0 (0)
 -->
<!-- Title: rawspeed::RawParserException Pages: 1 -->
<svg width="843pt" height="104pt"
 viewBox="0.00 0.00 843.00 104.00" xmlns="http://www.w3.org/2000/svg" xmlns:xlink="http://www.w3.org/1999/xlink">
<g id="graph0" class="graph" transform="scale(1 1) rotate(0) translate(4 100)">
<title>rawspeed::RawParserException</title>
<!-- Node1 -->
<g id="node1" class="node">
<title>Node1</title>
<g id="a_node1"><a xlink:title=" ">
<polygon fill="#bfbfbf" stroke="black" points="466,-38.5 466,-57.5 635,-57.5 635,-38.5 466,-38.5"/>
<text text-anchor="middle" x="550.5" y="-45.5" font-family="Helvetica,sans-Serif" font-size="10.00">rawspeed::RawParserException</text>
</a>
</g>
</g>
<!-- Node5 -->
<g id="node5" class="node">
<title>Node5</title>
<g id="a_node5"><a xlink:href="../../d0/da8/classrawspeed_1_1_ciff_parser_exception.html" target="_top" xlink:title=" ">
<polygon fill="none" stroke="black" points="671,-76.5 671,-95.5 835,-95.5 835,-76.5 671,-76.5"/>
<text text-anchor="middle" x="753" y="-83.5" font-family="Helvetica,sans-Serif" font-size="10.00">rawspeed::CiffParserException</text>
</a>
</g>
</g>
<!-- Node1&#45;&gt;Node5 -->
<g id="edge4" class="edge">
<title>Node1&#45;&gt;Node5</title>
<path fill="none" stroke="midnightblue" d="M611.75,-59.42C640.43,-64.86 674.35,-71.28 701.64,-76.46"/>
<polygon fill="midnightblue" stroke="midnightblue" points="612.31,-55.96 601.84,-57.54 611.01,-62.84 612.31,-55.96"/>
</g>
<!-- Node6 -->
<g id="node6" class="node">
<title>Node6</title>
<g id="a_node6"><a xlink:href="../../d2/d45/classrawspeed_1_1_fiff_parser_exception.html" target="_top" xlink:title=" ">
<polygon fill="none" stroke="black" points="672,-38.5 672,-57.5 834,-57.5 834,-38.5 672,-38.5"/>
<text text-anchor="middle" x="753" y="-45.5" font-family="Helvetica,sans-Serif" font-size="10.00">rawspeed::FiffParserException</text>
</a>
</g>
</g>
<!-- Node1&#45;&gt;Node6 -->
<g id="edge5" class="edge">
<title>Node1&#45;&gt;Node6</title>
<path fill="none" stroke="midnightblue" d="M645.1,-48C654.01,-48 663,-48 671.77,-48"/>
<polygon fill="midnightblue" stroke="midnightblue" points="645.08,-44.5 635.08,-48 645.08,-51.5 645.08,-44.5"/>
</g>
<!-- Node7 -->
<g id="node7" class="node">
<title>Node7</title>
<g id="a_node7"><a xlink:href="../../dd/d14/classrawspeed_1_1_tiff_parser_exception.html" target="_top" xlink:title=" ">
<polygon fill="none" stroke="black" points="671,-0.5 671,-19.5 835,-19.5 835,-0.5 671,-0.5"/>
<text text-anchor="middle" x="753" y="-7.5" font-family="Helvetica,sans-Serif" font-size="10.00">rawspeed::TiffParserException</text>
</a>
</g>
</g>
<!-- Node1&#45;&gt;Node7 -->
<g id="edge6" class="edge">
<title>Node1&#45;&gt;Node7</title>
<path fill="none" stroke="midnightblue" d="M611.75,-36.58C640.43,-31.14 674.35,-24.72 701.64,-19.54"/>
<polygon fill="midnightblue" stroke="midnightblue" points="611.01,-33.16 601.84,-38.46 612.31,-40.04 611.01,-33.16"/>
</g>
<!-- Node2 -->
<g id="node2" class="node">
<title>Node2</title>
<g id="a_node2"><a xlink:href="../../d4/df4/classrawspeed_1_1_rawspeed_exception.html" target="_top" xlink:title=" ">
<polygon fill="none" stroke="black" points="262,-38.5 262,-57.5 430,-57.5 430,-38.5 262,-38.5"/>
<text text-anchor="middle" x="346" y="-45.5" font-family="Helvetica,sans-Serif" font-size="10.00">rawspeed::RawspeedException</text>
</a>
</g>
</g>
<!-- Node2&#45;&gt;Node1 -->
<g id="edge1" class="edge">
<title>Node2&#45;&gt;Node1</title>
<path fill="none" stroke="midnightblue" d="M440.25,-48C448.81,-48 457.46,-48 465.93,-48"/>
<polygon fill="midnightblue" stroke="midnightblue" points="440.24,-44.5 430.24,-48 440.24,-51.5 440.24,-44.5"/>
</g>
<!-- Node3 -->
<g id="node3" class="node">
<title>Node3</title>
<g id="a_node3"><a xlink:title="STL class.">
<polygon fill="none" stroke="#bfbfbf" points="122,-38.5 122,-57.5 226,-57.5 226,-38.5 122,-38.5"/>
<text text-anchor="middle" x="174" y="-45.5" font-family="Helvetica,sans-Serif" font-size="10.00">std::runtime_error</text>
</a>
</g>
</g>
<!-- Node3&#45;&gt;Node2 -->
<g id="edge2" class="edge">
<title>Node3&#45;&gt;Node2</title>
<path fill="none" stroke="midnightblue" d="M236.06,-48C244.46,-48 253.21,-48 261.92,-48"/>
<polygon fill="midnightblue" stroke="midnightblue" points="236.01,-44.5 226.01,-48 236.01,-51.5 236.01,-44.5"/>
</g>
<!-- Node4 -->
<g id="node4" class="node">
<title>Node4</title>
<g id="a_node4"><a xlink:title="STL class.">
<polygon fill="none" stroke="#bfbfbf" points="0,-38.5 0,-57.5 86,-57.5 86,-38.5 0,-38.5"/>
<text text-anchor="middle" x="43" y="-45.5" font-family="Helvetica,sans-Serif" font-size="10.00">std::exception</text>
</a>
</g>
</g>
<!-- Node4&#45;&gt;Node3 -->
<g id="edge3" class="edge">
<title>Node4&#45;&gt;Node3</title>
<path fill="none" stroke="midnightblue" d="M96.27,-48C104.65,-48 113.31,-48 121.66,-48"/>
<polygon fill="midnightblue" stroke="midnightblue" points="96.24,-44.5 86.24,-48 96.24,-51.5 96.24,-44.5"/>
</g>
</g>
</svg>
