<?xml version="1.0" encoding="UTF-8" standalone="no"?>
<!DOCTYPE svg PUBLIC "-//W3C//DTD SVG 1.1//EN"
 "http://www.w3.org/Graphics/SVG/1.1/DTD/svg11.dtd">
<!-- Generated by graphviz version 2.43.0 (0)
 -->
<!-- Title: /build/rawspeed/bench/librawspeed/decompressors Pages: 1 -->
<svg width="132pt" height="223pt"
 viewBox="0.00 0.00 132.00 223.00" xmlns="http://www.w3.org/2000/svg" xmlns:xlink="http://www.w3.org/1999/xlink">
<g id="graph0" class="graph" transform="scale(1 1) rotate(0) translate(4 219)">
<title>/build/rawspeed/bench/librawspeed/decompressors</title>
<g id="clust1" class="cluster">
<title>clusterdir_215b417d099f1690086e50180ae06cae</title>
<g id="a_clust1"><a xlink:href="dir_215b417d099f1690086e50180ae06cae.html" target="_top" xlink:title="librawspeed">
<polygon fill="#ddddee" stroke="black" points="8,-136 8,-207 116,-207 116,-136 8,-136"/>
<text text-anchor="middle" x="62" y="-195" font-family="Helvetica,sans-Serif" font-size="10.00">librawspeed</text>
</a>
</g>
</g>
<!-- dir_0faa4a2ed07b55aa1b68170433ab4ad2 -->
<g id="node1" class="node">
<title>dir_0faa4a2ed07b55aa1b68170433ab4ad2</title>
<g id="a_node1"><a xlink:href="dir_0faa4a2ed07b55aa1b68170433ab4ad2.html" target="_top" xlink:title="decompressors">
<polygon fill="#eeeeff" stroke="black" points="107.5,-180 16.5,-180 16.5,-144 107.5,-144 107.5,-180"/>
<text text-anchor="middle" x="62" y="-159.5" font-family="Helvetica,sans-Serif" font-size="10.00">decompressors</text>
</a>
</g>
</g>
<!-- dir_b65df855c88e6b74a1faa66dff19ec06 -->
<g id="node2" class="node">
<title>dir_b65df855c88e6b74a1faa66dff19ec06</title>
<g id="a_node2"><a xlink:href="dir_b65df855c88e6b74a1faa66dff19ec06.html" target="_top" xlink:title="bench">
<polygon fill="none" stroke="black" points="61,-108 7,-108 7,-72 61,-72 61,-108"/>
<text text-anchor="middle" x="34" y="-87.5" font-family="Helvetica,sans-Serif" font-size="10.00">bench</text>
</a>
</g>
</g>
<!-- dir_0faa4a2ed07b55aa1b68170433ab4ad2&#45;&gt;dir_b65df855c88e6b74a1faa66dff19ec06 -->
<g id="edge2" class="edge">
<title>dir_0faa4a2ed07b55aa1b68170433ab4ad2&#45;&gt;dir_b65df855c88e6b74a1faa66dff19ec06</title>
<path fill="none" stroke="black" d="M55.08,-143.7C51.93,-135.81 48.12,-126.3 44.62,-117.55"/>
<polygon fill="black" stroke="black" points="47.81,-116.09 40.84,-108.1 41.31,-118.69 47.81,-116.09"/>
<g id="a_edge2&#45;headlabel"><a xlink:href="dir_000011_000002.html" target="_top" xlink:title="1">
<text text-anchor="middle" x="51.78" y="-115.87" font-family="Helvetica,sans-Serif" font-size="10.00">1</text>
</a>
</g>
</g>
<!-- dir_f2c2f92fc9ab59bc1f604f164a41f5f5 -->
<g id="node3" class="node">
<title>dir_f2c2f92fc9ab59bc1f604f164a41f5f5</title>
<g id="a_node3"><a xlink:href="dir_f2c2f92fc9ab59bc1f604f164a41f5f5.html" target="_top" xlink:title="librawspeed">
<polygon fill="none" stroke="red" points="99,-36 23,-36 23,0 99,0 99,-36"/>
<text text-anchor="middle" x="61" y="-15.5" font-family="Helvetica,sans-Serif" font-size="10.00">librawspeed</text>
</a>
</g>
</g>
<!-- dir_0faa4a2ed07b55aa1b68170433ab4ad2&#45;&gt;dir_f2c2f92fc9ab59bc1f604f164a41f5f5 -->
<g id="edge3" class="edge">
<title>dir_0faa4a2ed07b55aa1b68170433ab4ad2&#45;&gt;dir_f2c2f92fc9ab59bc1f604f164a41f5f5</title>
<path fill="none" stroke="black" d="M65.25,-143.89C67.05,-133.54 69.09,-120.06 70,-108 71.2,-92.04 71.34,-87.94 70,-72 69.28,-63.5 67.93,-54.31 66.49,-46.01"/>
<polygon fill="black" stroke="black" points="69.91,-45.29 64.65,-36.09 63.03,-46.56 69.91,-45.29"/>
<g id="a_edge3&#45;headlabel"><a xlink:href="dir_000011_000006.html" target="_top" xlink:title="8">
<text text-anchor="middle" x="73.36" y="-45.81" font-family="Helvetica,sans-Serif" font-size="10.00">8</text>
</a>
</g>
</g>
<!-- dir_b65df855c88e6b74a1faa66dff19ec06&#45;&gt;dir_f2c2f92fc9ab59bc1f604f164a41f5f5 -->
<g id="edge1" class="edge">
<title>dir_b65df855c88e6b74a1faa66dff19ec06&#45;&gt;dir_f2c2f92fc9ab59bc1f604f164a41f5f5</title>
<path fill="none" stroke="black" d="M40.67,-71.7C43.71,-63.81 47.38,-54.3 50.76,-45.55"/>
<polygon fill="black" stroke="black" points="54.07,-46.69 54.4,-36.1 47.54,-44.17 54.07,-46.69"/>
<g id="a_edge1&#45;headlabel"><a xlink:href="dir_000002_000006.html" target="_top" xlink:title="3">
<text text-anchor="middle" x="55.42" y="-48.57" font-family="Helvetica,sans-Serif" font-size="10.00">3</text>
</a>
</g>
</g>
</g>
</svg>
