<?xml version="1.0" encoding="UTF-8" standalone="no"?>
<!DOCTYPE svg PUBLIC "-//W3C//DTD SVG 1.1//EN"
 "http://www.w3.org/Graphics/SVG/1.1/DTD/svg11.dtd">
<!-- Generated by graphviz version 2.43.0 (0)
 -->
<!-- Title: /build/rawspeed/fuzz/librawspeed/decompressors Pages: 1 -->
<svg width="250pt" height="231pt"
 viewBox="0.00 0.00 250.00 231.00" xmlns="http://www.w3.org/2000/svg" xmlns:xlink="http://www.w3.org/1999/xlink">
<g id="graph0" class="graph" transform="scale(1 1) rotate(0) translate(4 227)">
<title>/build/rawspeed/fuzz/librawspeed/decompressors</title>
<g id="clust1" class="cluster">
<title>clusterdir_a42184205f101843cf5fa2faebc5894c</title>
<g id="a_clust1"><a xlink:href="dir_a42184205f101843cf5fa2faebc5894c.html" target="_top" xlink:title="librawspeed">
<polygon fill="#ddddee" stroke="black" points="8,-128 8,-215 234,-215 234,-128 8,-128"/>
<text text-anchor="middle" x="121" y="-203" font-family="Helvetica,sans-Serif" font-size="10.00">librawspeed</text>
</a>
</g>
</g>
<g id="clust2" class="cluster">
<title>clusterdir_7aed6fdc58e453d87f310a8fe98c3bc3</title>
<g id="a_clust2"><a xlink:href="dir_7aed6fdc58e453d87f310a8fe98c3bc3.html" target="_top">
<polygon fill="#eeeeff" stroke="black" points="16,-136 16,-188 226,-188 226,-136 16,-136"/>
</a>
</g>
</g>
<!-- dir_7aed6fdc58e453d87f310a8fe98c3bc3 -->
<g id="node1" class="node">
<title>dir_7aed6fdc58e453d87f310a8fe98c3bc3</title>
<text text-anchor="middle" x="70" y="-159.5" font-family="Helvetica,sans-Serif" font-size="10.00">decompressors</text>
</g>
<!-- dir_f2c2f92fc9ab59bc1f604f164a41f5f5 -->
<g id="node3" class="node">
<title>dir_f2c2f92fc9ab59bc1f604f164a41f5f5</title>
<g id="a_node3"><a xlink:href="dir_f2c2f92fc9ab59bc1f604f164a41f5f5.html" target="_top" xlink:title="librawspeed">
<polygon fill="none" stroke="red" points="159,-36 83,-36 83,0 159,0 159,-36"/>
<text text-anchor="middle" x="121" y="-15.5" font-family="Helvetica,sans-Serif" font-size="10.00">librawspeed</text>
</a>
</g>
</g>
<!-- dir_7aed6fdc58e453d87f310a8fe98c3bc3&#45;&gt;dir_f2c2f92fc9ab59bc1f604f164a41f5f5 -->
<g id="edge2" class="edge">
<title>dir_7aed6fdc58e453d87f310a8fe98c3bc3&#45;&gt;dir_f2c2f92fc9ab59bc1f604f164a41f5f5</title>
<path fill="none" stroke="black" d="M70.73,-143.68C72,-125.3 75.48,-95.7 85,-72 88.88,-62.35 94.72,-52.67 100.59,-44.28"/>
<polygon fill="black" stroke="black" points="103.53,-46.19 106.62,-36.06 97.88,-42.05 103.53,-46.19"/>
<g id="a_edge2&#45;headlabel"><a xlink:href="dir_000008_000006.html" target="_top" xlink:title="149">
<text text-anchor="middle" x="103.69" y="-48.27" font-family="Helvetica,sans-Serif" font-size="10.00">149</text>
</a>
</g>
</g>
<!-- dir_28d3b3cfb558b3ae5174a729801a2ee8 -->
<g id="node4" class="node">
<title>dir_28d3b3cfb558b3ae5174a729801a2ee8</title>
<g id="a_node4"><a xlink:href="dir_28d3b3cfb558b3ae5174a729801a2ee8.html" target="_top" xlink:title="fuzz">
<polygon fill="none" stroke="black" points="148,-108 94,-108 94,-72 148,-72 148,-108"/>
<text text-anchor="middle" x="121" y="-87.5" font-family="Helvetica,sans-Serif" font-size="10.00">fuzz</text>
</a>
</g>
</g>
<!-- dir_7aed6fdc58e453d87f310a8fe98c3bc3&#45;&gt;dir_28d3b3cfb558b3ae5174a729801a2ee8 -->
<g id="edge3" class="edge">
<title>dir_7aed6fdc58e453d87f310a8fe98c3bc3&#45;&gt;dir_28d3b3cfb558b3ae5174a729801a2ee8</title>
<path fill="none" stroke="black" d="M82.61,-143.7C88.6,-135.47 95.88,-125.48 102.48,-116.42"/>
<polygon fill="black" stroke="black" points="105.48,-118.25 108.54,-108.1 99.82,-114.13 105.48,-118.25"/>
<g id="a_edge3&#45;headlabel"><a xlink:href="dir_000008_000005.html" target="_top" xlink:title="20">
<text text-anchor="middle" x="105.66" y="-120.32" font-family="Helvetica,sans-Serif" font-size="10.00">20</text>
</a>
</g>
</g>
<!-- dir_032c7e2d4a634503bd925563fc8f63d6 -->
<g id="node2" class="node">
<title>dir_032c7e2d4a634503bd925563fc8f63d6</title>
<g id="a_node2"><a xlink:href="dir_032c7e2d4a634503bd925563fc8f63d6.html" target="_top" xlink:title="HuffmanTable">
<polygon fill="white" stroke="black" points="218,-180 134,-180 134,-144 218,-144 218,-180"/>
<text text-anchor="middle" x="176" y="-159.5" font-family="Helvetica,sans-Serif" font-size="10.00">HuffmanTable</text>
</a>
</g>
</g>
<!-- dir_032c7e2d4a634503bd925563fc8f63d6&#45;&gt;dir_f2c2f92fc9ab59bc1f604f164a41f5f5 -->
<g id="edge1" class="edge">
<title>dir_032c7e2d4a634503bd925563fc8f63d6&#45;&gt;dir_f2c2f92fc9ab59bc1f604f164a41f5f5</title>
<path fill="none" stroke="black" d="M174.3,-143.67C172.05,-125.29 167.11,-95.69 157,-72 152.92,-62.43 147.01,-52.78 141.16,-44.39"/>
<polygon fill="black" stroke="black" points="143.88,-42.17 135.16,-36.15 138.22,-46.29 143.88,-42.17"/>
<g id="a_edge1&#45;headlabel"><a xlink:href="dir_000009_000006.html" target="_top" xlink:title="29">
<text text-anchor="middle" x="148.29" y="-40.91" font-family="Helvetica,sans-Serif" font-size="10.00">29</text>
</a>
</g>
</g>
<!-- dir_28d3b3cfb558b3ae5174a729801a2ee8&#45;&gt;dir_f2c2f92fc9ab59bc1f604f164a41f5f5 -->
<g id="edge4" class="edge">
<title>dir_28d3b3cfb558b3ae5174a729801a2ee8&#45;&gt;dir_f2c2f92fc9ab59bc1f604f164a41f5f5</title>
<path fill="none" stroke="black" d="M121,-71.7C121,-63.98 121,-54.71 121,-46.11"/>
<polygon fill="black" stroke="black" points="124.5,-46.1 121,-36.1 117.5,-46.1 124.5,-46.1"/>
<g id="a_edge4&#45;headlabel"><a xlink:href="dir_000005_000006.html" target="_top" xlink:title="9">
<text text-anchor="middle" x="127.34" y="-47.2" font-family="Helvetica,sans-Serif" font-size="10.00">9</text>
</a>
</g>
</g>
</g>
</svg>
