<?xml version="1.0" encoding="UTF-8" standalone="no"?>
<!DOCTYPE svg PUBLIC "-//W3C//DTD SVG 1.1//EN"
 "http://www.w3.org/Graphics/SVG/1.1/DTD/svg11.dtd">
<!-- Generated by graphviz version 2.43.0 (0)
 -->
<!-- Title: librawspeed/interpolators Pages: 1 -->
<svg width="181pt" height="151pt"
 viewBox="0.00 0.00 180.50 151.00" xmlns="http://www.w3.org/2000/svg" xmlns:xlink="http://www.w3.org/1999/xlink">
<g id="graph0" class="graph" transform="scale(1 1) rotate(0) translate(4 147)">
<title>librawspeed/interpolators</title>
<g id="clust1" class="cluster">
<title>clusterdir_f2c2f92fc9ab59bc1f604f164a41f5f5</title>
<g id="a_clust1"><a xlink:href="dir_f2c2f92fc9ab59bc1f604f164a41f5f5.html" target="_top" xlink:title="librawspeed">
<polygon fill="#ddddee" stroke="black" points="8,-64 8,-135 102,-135 102,-64 8,-64"/>
<text text-anchor="middle" x="55" y="-123" font-family="Helvetica,sans-Serif" font-size="10.00">librawspeed</text>
</a>
</g>
</g>
<!-- dir_cd46903b4f14675edd44de0d5e26a363 -->
<g id="node1" class="node">
<title>dir_cd46903b4f14675edd44de0d5e26a363</title>
<g id="a_node1"><a xlink:href="dir_cd46903b4f14675edd44de0d5e26a363.html" target="_top" xlink:title="interpolators">
<polygon fill="#eeeeff" stroke="black" points="94.5,-108 15.5,-108 15.5,-72 94.5,-72 94.5,-108"/>
<text text-anchor="middle" x="55" y="-87.5" font-family="Helvetica,sans-Serif" font-size="10.00">interpolators</text>
</a>
</g>
</g>
<!-- dir_6397249ce6bfc04c3a0c6a8eb78ef0ba -->
<g id="node2" class="node">
<title>dir_6397249ce6bfc04c3a0c6a8eb78ef0ba</title>
<g id="a_node2"><a xlink:href="dir_6397249ce6bfc04c3a0c6a8eb78ef0ba.html" target="_top" xlink:title="common">
<polygon fill="none" stroke="black" points="171.5,-108 112.5,-108 112.5,-72 171.5,-72 171.5,-108"/>
<text text-anchor="middle" x="142" y="-87.5" font-family="Helvetica,sans-Serif" font-size="10.00">common</text>
</a>
</g>
</g>
<!-- dir_cd46903b4f14675edd44de0d5e26a363&#45;&gt;dir_6397249ce6bfc04c3a0c6a8eb78ef0ba -->
<g id="edge1" class="edge">
<title>dir_cd46903b4f14675edd44de0d5e26a363&#45;&gt;dir_6397249ce6bfc04c3a0c6a8eb78ef0ba</title>
<path fill="none" stroke="black" d="M94.76,-90C97.25,-90 99.74,-90 102.23,-90"/>
<polygon fill="black" stroke="black" points="102.48,-93.5 112.48,-90 102.48,-86.5 102.48,-93.5"/>
<g id="a_edge1&#45;headlabel"><a xlink:href="dir_000033_000007.html" target="_top" xlink:title="5">
<text text-anchor="middle" x="98.88" y="-93.84" font-family="Helvetica,sans-Serif" font-size="10.00">5</text>
</a>
</g>
</g>
<!-- dir_aaff6fcc3ba688745620d6ac129881b8 -->
<g id="node3" class="node">
<title>dir_aaff6fcc3ba688745620d6ac129881b8</title>
<g id="a_node3"><a xlink:href="dir_aaff6fcc3ba688745620d6ac129881b8.html" target="_top" xlink:title="decoders">
<polygon fill="none" stroke="black" points="172.5,-36 111.5,-36 111.5,0 172.5,0 172.5,-36"/>
<text text-anchor="middle" x="142" y="-15.5" font-family="Helvetica,sans-Serif" font-size="10.00">decoders</text>
</a>
</g>
</g>
<!-- dir_cd46903b4f14675edd44de0d5e26a363&#45;&gt;dir_aaff6fcc3ba688745620d6ac129881b8 -->
<g id="edge2" class="edge">
<title>dir_cd46903b4f14675edd44de0d5e26a363&#45;&gt;dir_aaff6fcc3ba688745620d6ac129881b8</title>
<path fill="none" stroke="black" d="M70.59,-71.7C80.73,-62.8 94.21,-51.82 106.77,-42.2"/>
<polygon fill="black" stroke="black" points="108.97,-44.92 114.85,-36.1 104.76,-39.33 108.97,-44.92"/>
<g id="a_edge2&#45;headlabel"><a xlink:href="dir_000033_000032.html" target="_top" xlink:title="1">
<text text-anchor="middle" x="107.81" y="-46.85" font-family="Helvetica,sans-Serif" font-size="10.00">1</text>
</a>
</g>
</g>
<!-- dir_6397249ce6bfc04c3a0c6a8eb78ef0ba&#45;&gt;dir_aaff6fcc3ba688745620d6ac129881b8 -->
<g id="edge3" class="edge">
<title>dir_6397249ce6bfc04c3a0c6a8eb78ef0ba&#45;&gt;dir_aaff6fcc3ba688745620d6ac129881b8</title>
<path fill="none" stroke="black" d="M136.08,-71.7C135.29,-63.98 135.06,-54.71 135.4,-46.11"/>
<polygon fill="black" stroke="black" points="138.9,-46.32 136.1,-36.1 131.92,-45.84 138.9,-46.32"/>
<g id="a_edge3&#45;headlabel"><a xlink:href="dir_000007_000032.html" target="_top" xlink:title="5">
<text text-anchor="middle" x="141.48" y="-47.61" font-family="Helvetica,sans-Serif" font-size="10.00">5</text>
</a>
</g>
</g>
<!-- dir_aaff6fcc3ba688745620d6ac129881b8&#45;&gt;dir_cd46903b4f14675edd44de0d5e26a363 -->
<g id="edge4" class="edge">
<title>dir_aaff6fcc3ba688745620d6ac129881b8&#45;&gt;dir_cd46903b4f14675edd44de0d5e26a363</title>
<path fill="none" stroke="black" d="M126.64,-36.1C116.54,-44.97 103.08,-55.94 90.51,-65.59"/>
<polygon fill="black" stroke="black" points="88.29,-62.88 82.42,-71.7 92.51,-68.46 88.29,-62.88"/>
<g id="a_edge4&#45;headlabel"><a xlink:href="dir_000032_000033.html" target="_top" xlink:title="1">
<text text-anchor="middle" x="89.45" y="-55.94" font-family="Helvetica,sans-Serif" font-size="10.00">1</text>
</a>
</g>
</g>
<!-- dir_aaff6fcc3ba688745620d6ac129881b8&#45;&gt;dir_6397249ce6bfc04c3a0c6a8eb78ef0ba -->
<g id="edge5" class="edge">
<title>dir_aaff6fcc3ba688745620d6ac129881b8&#45;&gt;dir_6397249ce6bfc04c3a0c6a8eb78ef0ba</title>
<path fill="none" stroke="black" d="M147.9,-36.1C148.7,-43.79 148.94,-53.05 148.6,-61.67"/>
<polygon fill="black" stroke="black" points="145.11,-61.48 147.92,-71.7 152.09,-61.96 145.11,-61.48"/>
<g id="a_edge5&#45;headlabel"><a xlink:href="dir_000032_000007.html" target="_top" xlink:title="67">
<text text-anchor="middle" x="142.52" y="-55.2" font-family="Helvetica,sans-Serif" font-size="10.00">67</text>
</a>
</g>
</g>
</g>
</svg>
