<?xml version="1.0" encoding="UTF-8" standalone="no"?>
<!DOCTYPE svg PUBLIC "-//W3C//DTD SVG 1.1//EN"
 "http://www.w3.org/Graphics/SVG/1.1/DTD/svg11.dtd">
<!-- Generated by graphviz version 2.43.0 (0)
 -->
<!-- Title: librawspeed/tiff Pages: 1 -->
<svg width="180pt" height="188pt"
 viewBox="0.00 0.00 179.96 188.00" xmlns="http://www.w3.org/2000/svg" xmlns:xlink="http://www.w3.org/1999/xlink">
<g id="graph0" class="graph" transform="scale(1 1) rotate(0) translate(4 184)">
<title>librawspeed/tiff</title>
<g id="clust1" class="cluster">
<title>clusterdir_f2c2f92fc9ab59bc1f604f164a41f5f5</title>
<g id="a_clust1"><a xlink:href="dir_f2c2f92fc9ab59bc1f604f164a41f5f5.html" target="_top" xlink:title="librawspeed">
<polygon fill="#ddddee" stroke="black" points="8,-64 8,-135 84,-135 84,-64 8,-64"/>
<text text-anchor="middle" x="46" y="-123" font-family="Helvetica,sans-Serif" font-size="10.00">librawspeed</text>
</a>
</g>
</g>
<!-- dir_1001d9375777bca6b163352cfd2806d0 -->
<g id="node1" class="node">
<title>dir_1001d9375777bca6b163352cfd2806d0</title>
<g id="a_node1"><a xlink:href="dir_1001d9375777bca6b163352cfd2806d0.html" target="_top" xlink:title="tiff">
<polygon fill="#eeeeff" stroke="black" points="75,-108 21,-108 21,-72 75,-72 75,-108"/>
<text text-anchor="middle" x="48" y="-87.5" font-family="Helvetica,sans-Serif" font-size="10.00">tiff</text>
</a>
</g>
</g>
<!-- dir_e9f1c1650c19b82a0c277165906fd6a6 -->
<g id="node2" class="node">
<title>dir_e9f1c1650c19b82a0c277165906fd6a6</title>
<g id="a_node2"><a xlink:href="dir_e9f1c1650c19b82a0c277165906fd6a6.html" target="_top" xlink:title="io">
<polygon fill="none" stroke="black" points="150,-180 96,-180 96,-144 150,-144 150,-180"/>
<text text-anchor="middle" x="123" y="-159.5" font-family="Helvetica,sans-Serif" font-size="10.00">io</text>
</a>
</g>
</g>
<!-- dir_1001d9375777bca6b163352cfd2806d0&#45;&gt;dir_e9f1c1650c19b82a0c277165906fd6a6 -->
<g id="edge5" class="edge">
<title>dir_1001d9375777bca6b163352cfd2806d0&#45;&gt;dir_e9f1c1650c19b82a0c277165906fd6a6</title>
<path fill="none" stroke="black" d="M60.72,-108.25C67.44,-116.79 76.12,-126.96 85,-135 85.97,-135.88 86.96,-136.74 87.99,-137.6"/>
<polygon fill="black" stroke="black" points="86.1,-140.58 96.14,-143.98 90.42,-135.06 86.1,-140.58"/>
<g id="a_edge5&#45;headlabel"><a xlink:href="dir_000037_000034.html" target="_top" xlink:title="9">
<text text-anchor="middle" x="81.52" y="-138.1" font-family="Helvetica,sans-Serif" font-size="10.00">9</text>
</a>
</g>
</g>
<!-- dir_e9df31ba243be114ece5c381e35ff9ef -->
<g id="node3" class="node">
<title>dir_e9df31ba243be114ece5c381e35ff9ef</title>
<g id="a_node3"><a xlink:href="dir_e9df31ba243be114ece5c381e35ff9ef.html" target="_top" xlink:title="parsers">
<polygon fill="none" stroke="black" points="150,-36 96,-36 96,0 150,0 150,-36"/>
<text text-anchor="middle" x="123" y="-15.5" font-family="Helvetica,sans-Serif" font-size="10.00">parsers</text>
</a>
</g>
</g>
<!-- dir_1001d9375777bca6b163352cfd2806d0&#45;&gt;dir_e9df31ba243be114ece5c381e35ff9ef -->
<g id="edge6" class="edge">
<title>dir_1001d9375777bca6b163352cfd2806d0&#45;&gt;dir_e9df31ba243be114ece5c381e35ff9ef</title>
<path fill="none" stroke="black" d="M60.62,-71.7C69.08,-62.97 80.4,-52.24 91.12,-42.75"/>
<polygon fill="black" stroke="black" points="93.52,-45.3 98.78,-36.1 88.93,-40.02 93.52,-45.3"/>
<g id="a_edge6&#45;headlabel"><a xlink:href="dir_000037_000036.html" target="_top" xlink:title="4">
<text text-anchor="middle" x="92.67" y="-47.3" font-family="Helvetica,sans-Serif" font-size="10.00">4</text>
</a>
</g>
</g>
<!-- dir_6397249ce6bfc04c3a0c6a8eb78ef0ba -->
<g id="node4" class="node">
<title>dir_6397249ce6bfc04c3a0c6a8eb78ef0ba</title>
<g id="a_node4"><a xlink:href="dir_6397249ce6bfc04c3a0c6a8eb78ef0ba.html" target="_top" xlink:title="common">
<polygon fill="none" stroke="black" points="152.5,-108 93.5,-108 93.5,-72 152.5,-72 152.5,-108"/>
<text text-anchor="middle" x="123" y="-87.5" font-family="Helvetica,sans-Serif" font-size="10.00">common</text>
</a>
</g>
</g>
<!-- dir_1001d9375777bca6b163352cfd2806d0&#45;&gt;dir_6397249ce6bfc04c3a0c6a8eb78ef0ba -->
<g id="edge7" class="edge">
<title>dir_1001d9375777bca6b163352cfd2806d0&#45;&gt;dir_6397249ce6bfc04c3a0c6a8eb78ef0ba</title>
<path fill="none" stroke="black" d="M75.25,-90C77.86,-90 80.47,-90 83.08,-90"/>
<polygon fill="black" stroke="black" points="83.15,-93.5 93.15,-90 83.15,-86.5 83.15,-93.5"/>
<g id="a_edge7&#45;headlabel"><a xlink:href="dir_000037_000007.html" target="_top" xlink:title="10">
<text text-anchor="middle" x="79.56" y="-93.84" font-family="Helvetica,sans-Serif" font-size="10.00">10</text>
</a>
</g>
</g>
<!-- dir_e9f1c1650c19b82a0c277165906fd6a6&#45;&gt;dir_6397249ce6bfc04c3a0c6a8eb78ef0ba -->
<g id="edge1" class="edge">
<title>dir_e9f1c1650c19b82a0c277165906fd6a6&#45;&gt;dir_6397249ce6bfc04c3a0c6a8eb78ef0ba</title>
<path fill="none" stroke="black" d="M117.08,-143.7C116.29,-135.98 116.06,-126.71 116.4,-118.11"/>
<polygon fill="black" stroke="black" points="119.9,-118.32 117.1,-108.1 112.92,-117.84 119.9,-118.32"/>
<g id="a_edge1&#45;headlabel"><a xlink:href="dir_000034_000007.html" target="_top" xlink:title="8">
<text text-anchor="middle" x="122.48" y="-119.61" font-family="Helvetica,sans-Serif" font-size="10.00">8</text>
</a>
</g>
</g>
<!-- dir_e9df31ba243be114ece5c381e35ff9ef&#45;&gt;dir_1001d9375777bca6b163352cfd2806d0 -->
<g id="edge3" class="edge">
<title>dir_e9df31ba243be114ece5c381e35ff9ef&#45;&gt;dir_1001d9375777bca6b163352cfd2806d0</title>
<path fill="none" stroke="black" d="M110.57,-36.1C102.16,-44.8 90.86,-55.52 80.12,-65.03"/>
<polygon fill="black" stroke="black" points="77.71,-62.49 72.46,-71.7 82.3,-67.78 77.71,-62.49"/>
<g id="a_edge3&#45;headlabel"><a xlink:href="dir_000036_000037.html" target="_top" xlink:title="9">
<text text-anchor="middle" x="78.56" y="-55.49" font-family="Helvetica,sans-Serif" font-size="10.00">9</text>
</a>
</g>
</g>
<!-- dir_e9df31ba243be114ece5c381e35ff9ef&#45;&gt;dir_e9f1c1650c19b82a0c277165906fd6a6 -->
<g id="edge2" class="edge">
<title>dir_e9df31ba243be114ece5c381e35ff9ef&#45;&gt;dir_e9f1c1650c19b82a0c277165906fd6a6</title>
<path fill="none" stroke="black" d="M143.12,-36.24C150.55,-43.9 158.1,-53.54 162,-64 173.03,-93.57 176.89,-107.18 162,-135 160.88,-137.1 159.5,-139.06 157.95,-140.88"/>
<polygon fill="black" stroke="black" points="155.18,-138.67 150.2,-148.02 159.92,-143.82 155.18,-138.67"/>
<g id="a_edge2&#45;headlabel"><a xlink:href="dir_000036_000034.html" target="_top" xlink:title="10">
<text text-anchor="middle" x="155.9" y="-131.65" font-family="Helvetica,sans-Serif" font-size="10.00">10</text>
</a>
</g>
</g>
<!-- dir_e9df31ba243be114ece5c381e35ff9ef&#45;&gt;dir_6397249ce6bfc04c3a0c6a8eb78ef0ba -->
<g id="edge4" class="edge">
<title>dir_e9df31ba243be114ece5c381e35ff9ef&#45;&gt;dir_6397249ce6bfc04c3a0c6a8eb78ef0ba</title>
<path fill="none" stroke="black" d="M128.9,-36.1C129.7,-43.79 129.94,-53.05 129.6,-61.67"/>
<polygon fill="black" stroke="black" points="126.11,-61.48 128.92,-71.7 133.09,-61.96 126.11,-61.48"/>
<g id="a_edge4&#45;headlabel"><a xlink:href="dir_000036_000007.html" target="_top" xlink:title="6">
<text text-anchor="middle" x="123.52" y="-55.2" font-family="Helvetica,sans-Serif" font-size="10.00">6</text>
</a>
</g>
</g>
<!-- dir_6397249ce6bfc04c3a0c6a8eb78ef0ba&#45;&gt;dir_1001d9375777bca6b163352cfd2806d0 -->
<g id="edge10" class="edge">
<title>dir_6397249ce6bfc04c3a0c6a8eb78ef0ba&#45;&gt;dir_1001d9375777bca6b163352cfd2806d0</title>
<path fill="none" stroke="black" d="M93.15,-90C90.54,-90 87.93,-90 85.32,-90"/>
<polygon fill="black" stroke="black" points="85.25,-86.5 75.25,-90 85.25,-93.5 85.25,-86.5"/>
<g id="a_edge10&#45;headlabel"><a xlink:href="dir_000007_000037.html" target="_top" xlink:title="1">
<text text-anchor="middle" x="88.84" y="-81.16" font-family="Helvetica,sans-Serif" font-size="10.00">1</text>
</a>
</g>
</g>
<!-- dir_6397249ce6bfc04c3a0c6a8eb78ef0ba&#45;&gt;dir_e9f1c1650c19b82a0c277165906fd6a6 -->
<g id="edge8" class="edge">
<title>dir_6397249ce6bfc04c3a0c6a8eb78ef0ba&#45;&gt;dir_e9f1c1650c19b82a0c277165906fd6a6</title>
<path fill="none" stroke="black" d="M128.9,-108.1C129.7,-115.79 129.94,-125.05 129.6,-133.67"/>
<polygon fill="black" stroke="black" points="126.11,-133.48 128.92,-143.7 133.09,-133.96 126.11,-133.48"/>
<g id="a_edge8&#45;headlabel"><a xlink:href="dir_000007_000034.html" target="_top" xlink:title="5">
<text text-anchor="middle" x="123.52" y="-127.2" font-family="Helvetica,sans-Serif" font-size="10.00">5</text>
</a>
</g>
</g>
<!-- dir_6397249ce6bfc04c3a0c6a8eb78ef0ba&#45;&gt;dir_e9df31ba243be114ece5c381e35ff9ef -->
<g id="edge9" class="edge">
<title>dir_6397249ce6bfc04c3a0c6a8eb78ef0ba&#45;&gt;dir_e9df31ba243be114ece5c381e35ff9ef</title>
<path fill="none" stroke="black" d="M117.08,-71.7C116.29,-63.98 116.06,-54.71 116.4,-46.11"/>
<polygon fill="black" stroke="black" points="119.9,-46.32 117.1,-36.1 112.92,-45.84 119.9,-46.32"/>
<g id="a_edge9&#45;headlabel"><a xlink:href="dir_000007_000036.html" target="_top" xlink:title="1">
<text text-anchor="middle" x="122.48" y="-47.61" font-family="Helvetica,sans-Serif" font-size="10.00">1</text>
</a>
</g>
</g>
</g>
</svg>
