<?xml version="1.0" encoding="UTF-8" standalone="no"?>
<!DOCTYPE svg PUBLIC "-//W3C//DTD SVG 1.1//EN"
 "http://www.w3.org/Graphics/SVG/1.1/DTD/svg11.dtd">
<!-- Generated by graphviz version 2.43.0 (0)
 -->
<!-- Title: /build/rawspeed/bench/librawspeed Pages: 1 -->
<svg width="570pt" height="231pt"
 viewBox="0.00 0.00 570.00 231.00" xmlns="http://www.w3.org/2000/svg" xmlns:xlink="http://www.w3.org/1999/xlink">
<g id="graph0" class="graph" transform="scale(1 1) rotate(0) translate(4 227)">
<title>/build/rawspeed/bench/librawspeed</title>
<g id="clust1" class="cluster">
<title>clusterdir_a36c4719283424f51e58ca3678e5dea3</title>
<g id="a_clust1"><a xlink:href="dir_a36c4719283424f51e58ca3678e5dea3.html" target="_top" xlink:title="bench">
<polygon fill="#ddddee" stroke="black" points="8,-56 8,-215 554,-215 554,-56 8,-56"/>
<text text-anchor="middle" x="281" y="-203" font-family="Helvetica,sans-Serif" font-size="10.00">bench</text>
</a>
</g>
</g>
<g id="clust2" class="cluster">
<title>clusterdir_215b417d099f1690086e50180ae06cae</title>
<g id="a_clust2"><a xlink:href="dir_215b417d099f1690086e50180ae06cae.html" target="_top">
<polygon fill="#eeeeff" stroke="black" points="16,-64 16,-188 546,-188 546,-64 16,-64"/>
</a>
</g>
</g>
<!-- dir_215b417d099f1690086e50180ae06cae -->
<g id="node1" class="node">
<title>dir_215b417d099f1690086e50180ae06cae</title>
<text text-anchor="middle" x="500" y="-159.5" font-family="Helvetica,sans-Serif" font-size="10.00">librawspeed</text>
</g>
<!-- dir_b65df855c88e6b74a1faa66dff19ec06 -->
<g id="node2" class="node">
<title>dir_b65df855c88e6b74a1faa66dff19ec06</title>
<g id="a_node2"><a xlink:href="dir_b65df855c88e6b74a1faa66dff19ec06.html" target="_top" xlink:title="bench">
<polygon fill="white" stroke="black" points="153,-108 99,-108 99,-72 153,-72 153,-108"/>
<text text-anchor="middle" x="126" y="-87.5" font-family="Helvetica,sans-Serif" font-size="10.00">bench</text>
</a>
</g>
</g>
<!-- dir_f2c2f92fc9ab59bc1f604f164a41f5f5 -->
<g id="node8" class="node">
<title>dir_f2c2f92fc9ab59bc1f604f164a41f5f5</title>
<g id="a_node8"><a xlink:href="dir_f2c2f92fc9ab59bc1f604f164a41f5f5.html" target="_top" xlink:title="librawspeed">
<polygon fill="none" stroke="red" points="276,-36 200,-36 200,0 276,0 276,-36"/>
<text text-anchor="middle" x="238" y="-15.5" font-family="Helvetica,sans-Serif" font-size="10.00">librawspeed</text>
</a>
</g>
</g>
<!-- dir_b65df855c88e6b74a1faa66dff19ec06&#45;&gt;dir_f2c2f92fc9ab59bc1f604f164a41f5f5 -->
<g id="edge1" class="edge">
<title>dir_b65df855c88e6b74a1faa66dff19ec06&#45;&gt;dir_f2c2f92fc9ab59bc1f604f164a41f5f5</title>
<path fill="none" stroke="black" d="M145.84,-71.73C152.37,-66.4 159.81,-60.7 167,-56 175.12,-50.69 184.08,-45.53 192.83,-40.83"/>
<polygon fill="black" stroke="black" points="194.6,-43.85 201.83,-36.11 191.34,-37.66 194.6,-43.85"/>
<g id="a_edge1&#45;headlabel"><a xlink:href="dir_000002_000006.html" target="_top" xlink:title="3">
<text text-anchor="middle" x="192.73" y="-45.54" font-family="Helvetica,sans-Serif" font-size="10.00">3</text>
</a>
</g>
</g>
<!-- dir_e532e4886844cfa200c0940b2e52d6dc -->
<g id="node3" class="node">
<title>dir_e532e4886844cfa200c0940b2e52d6dc</title>
<g id="a_node3"><a xlink:href="dir_e532e4886844cfa200c0940b2e52d6dc.html" target="_top" xlink:title="common">
<polygon fill="white" stroke="black" points="443.5,-180 384.5,-180 384.5,-144 443.5,-144 443.5,-180"/>
<text text-anchor="middle" x="414" y="-159.5" font-family="Helvetica,sans-Serif" font-size="10.00">common</text>
</a>
</g>
</g>
<!-- dir_e532e4886844cfa200c0940b2e52d6dc&#45;&gt;dir_f2c2f92fc9ab59bc1f604f164a41f5f5 -->
<g id="edge8" class="edge">
<title>dir_e532e4886844cfa200c0940b2e52d6dc&#45;&gt;dir_f2c2f92fc9ab59bc1f604f164a41f5f5</title>
<path fill="none" stroke="black" d="M395.95,-143.83C373.02,-122.34 331.87,-84.87 294,-56 287.68,-51.18 280.75,-46.3 273.99,-41.74"/>
<polygon fill="black" stroke="black" points="275.84,-38.77 265.57,-36.16 271.97,-44.6 275.84,-38.77"/>
<g id="a_edge8&#45;headlabel"><a xlink:href="dir_000010_000006.html" target="_top" xlink:title="1">
<text text-anchor="middle" x="280.4" y="-35.89" font-family="Helvetica,sans-Serif" font-size="10.00">1</text>
</a>
</g>
</g>
<!-- dir_0faa4a2ed07b55aa1b68170433ab4ad2 -->
<g id="node4" class="node">
<title>dir_0faa4a2ed07b55aa1b68170433ab4ad2</title>
<g id="a_node4"><a xlink:href="dir_0faa4a2ed07b55aa1b68170433ab4ad2.html" target="_top" xlink:title="decompressors">
<polygon fill="white" stroke="black" points="211.5,-180 120.5,-180 120.5,-144 211.5,-144 211.5,-180"/>
<text text-anchor="middle" x="166" y="-159.5" font-family="Helvetica,sans-Serif" font-size="10.00">decompressors</text>
</a>
</g>
</g>
<!-- dir_0faa4a2ed07b55aa1b68170433ab4ad2&#45;&gt;dir_b65df855c88e6b74a1faa66dff19ec06 -->
<g id="edge6" class="edge">
<title>dir_0faa4a2ed07b55aa1b68170433ab4ad2&#45;&gt;dir_b65df855c88e6b74a1faa66dff19ec06</title>
<path fill="none" stroke="black" d="M156.11,-143.7C151.51,-135.64 145.94,-125.89 140.85,-116.98"/>
<polygon fill="black" stroke="black" points="143.77,-115.05 135.77,-108.1 137.7,-118.52 143.77,-115.05"/>
<g id="a_edge6&#45;headlabel"><a xlink:href="dir_000011_000002.html" target="_top" xlink:title="1">
<text text-anchor="middle" x="148.02" y="-114.26" font-family="Helvetica,sans-Serif" font-size="10.00">1</text>
</a>
</g>
</g>
<!-- dir_0faa4a2ed07b55aa1b68170433ab4ad2&#45;&gt;dir_f2c2f92fc9ab59bc1f604f164a41f5f5 -->
<g id="edge7" class="edge">
<title>dir_0faa4a2ed07b55aa1b68170433ab4ad2&#45;&gt;dir_f2c2f92fc9ab59bc1f604f164a41f5f5</title>
<path fill="none" stroke="black" d="M175.62,-143.93C181.38,-133.6 188.76,-120.12 195,-108 205.74,-87.14 217.27,-63.19 225.68,-45.39"/>
<polygon fill="black" stroke="black" points="228.92,-46.73 230.01,-36.19 222.58,-43.75 228.92,-46.73"/>
<g id="a_edge7&#45;headlabel"><a xlink:href="dir_000011_000006.html" target="_top" xlink:title="8">
<text text-anchor="middle" x="229.96" y="-48.69" font-family="Helvetica,sans-Serif" font-size="10.00">8</text>
</a>
</g>
</g>
<!-- dir_973adc29b9d49ec8d5f6a93c769622b9 -->
<g id="node5" class="node">
<title>dir_973adc29b9d49ec8d5f6a93c769622b9</title>
<g id="a_node5"><a xlink:href="dir_973adc29b9d49ec8d5f6a93c769622b9.html" target="_top" xlink:title="interpolators">
<polygon fill="white" stroke="black" points="102.5,-180 23.5,-180 23.5,-144 102.5,-144 102.5,-180"/>
<text text-anchor="middle" x="63" y="-159.5" font-family="Helvetica,sans-Serif" font-size="10.00">interpolators</text>
</a>
</g>
</g>
<!-- dir_973adc29b9d49ec8d5f6a93c769622b9&#45;&gt;dir_b65df855c88e6b74a1faa66dff19ec06 -->
<g id="edge4" class="edge">
<title>dir_973adc29b9d49ec8d5f6a93c769622b9&#45;&gt;dir_b65df855c88e6b74a1faa66dff19ec06</title>
<path fill="none" stroke="black" d="M78.57,-143.7C86.2,-135.22 95.52,-124.86 103.88,-115.58"/>
<polygon fill="black" stroke="black" points="106.52,-117.88 110.61,-108.1 101.31,-113.2 106.52,-117.88"/>
<g id="a_edge4&#45;headlabel"><a xlink:href="dir_000012_000002.html" target="_top" xlink:title="1">
<text text-anchor="middle" x="106.22" y="-119.95" font-family="Helvetica,sans-Serif" font-size="10.00">1</text>
</a>
</g>
</g>
<!-- dir_973adc29b9d49ec8d5f6a93c769622b9&#45;&gt;dir_f2c2f92fc9ab59bc1f604f164a41f5f5 -->
<g id="edge5" class="edge">
<title>dir_973adc29b9d49ec8d5f6a93c769622b9&#45;&gt;dir_f2c2f92fc9ab59bc1f604f164a41f5f5</title>
<path fill="none" stroke="black" d="M102.62,-145.5C122.03,-136.56 144.86,-123.92 162,-108 182.06,-89.37 177.1,-76.71 195,-56 198.88,-51.51 203.31,-47.09 207.82,-42.95"/>
<polygon fill="black" stroke="black" points="210.21,-45.51 215.41,-36.28 205.59,-40.26 210.21,-45.51"/>
<g id="a_edge5&#45;headlabel"><a xlink:href="dir_000012_000006.html" target="_top" xlink:title="3">
<text text-anchor="middle" x="209.38" y="-47.52" font-family="Helvetica,sans-Serif" font-size="10.00">3</text>
</a>
</g>
</g>
<!-- dir_f418d64422b847001fe4a95bccfac94b -->
<g id="node6" class="node">
<title>dir_f418d64422b847001fe4a95bccfac94b</title>
<g id="a_node6"><a xlink:href="dir_f418d64422b847001fe4a95bccfac94b.html" target="_top" xlink:title="io">
<polygon fill="white" stroke="black" points="284,-180 230,-180 230,-144 284,-144 284,-180"/>
<text text-anchor="middle" x="257" y="-159.5" font-family="Helvetica,sans-Serif" font-size="10.00">io</text>
</a>
</g>
</g>
<!-- dir_f418d64422b847001fe4a95bccfac94b&#45;&gt;dir_f2c2f92fc9ab59bc1f604f164a41f5f5 -->
<g id="edge2" class="edge">
<title>dir_f418d64422b847001fe4a95bccfac94b&#45;&gt;dir_f2c2f92fc9ab59bc1f604f164a41f5f5</title>
<path fill="none" stroke="black" d="M254.71,-143.87C251.47,-119.67 245.52,-75.21 241.67,-46.39"/>
<polygon fill="black" stroke="black" points="245.1,-45.64 240.3,-36.19 238.16,-46.57 245.1,-45.64"/>
<g id="a_edge2&#45;headlabel"><a xlink:href="dir_000013_000006.html" target="_top" xlink:title="9">
<text text-anchor="middle" x="248.39" y="-46.32" font-family="Helvetica,sans-Serif" font-size="10.00">9</text>
</a>
</g>
</g>
<!-- dir_0bb05a95a643f6bed5fc939761e96fce -->
<g id="node7" class="node">
<title>dir_0bb05a95a643f6bed5fc939761e96fce</title>
<g id="a_node7"><a xlink:href="dir_0bb05a95a643f6bed5fc939761e96fce.html" target="_top" xlink:title="metadata">
<polygon fill="white" stroke="black" points="366,-180 302,-180 302,-144 366,-144 366,-180"/>
<text text-anchor="middle" x="334" y="-159.5" font-family="Helvetica,sans-Serif" font-size="10.00">metadata</text>
</a>
</g>
</g>
<!-- dir_0bb05a95a643f6bed5fc939761e96fce&#45;&gt;dir_f2c2f92fc9ab59bc1f604f164a41f5f5 -->
<g id="edge3" class="edge">
<title>dir_0bb05a95a643f6bed5fc939761e96fce&#45;&gt;dir_f2c2f92fc9ab59bc1f604f164a41f5f5</title>
<path fill="none" stroke="black" d="M322.42,-143.87C305.7,-119.14 274.67,-73.24 255.25,-44.51"/>
<polygon fill="black" stroke="black" points="258.12,-42.51 249.62,-36.19 252.32,-46.43 258.12,-42.51"/>
<g id="a_edge3&#45;headlabel"><a xlink:href="dir_000014_000006.html" target="_top" xlink:title="1">
<text text-anchor="middle" x="262.49" y="-41.4" font-family="Helvetica,sans-Serif" font-size="10.00">1</text>
</a>
</g>
</g>
</g>
</svg>
