<?xml version="1.0" encoding="UTF-8" standalone="no"?>
<!DOCTYPE svg PUBLIC "-//W3C//DTD SVG 1.1//EN"
 "http://www.w3.org/Graphics/SVG/1.1/DTD/svg11.dtd">
<!-- Generated by graphviz version 2.43.0 (0)
 -->
<!-- Title: utilities Pages: 1 -->
<svg width="312pt" height="132pt"
 viewBox="0.00 0.00 312.00 132.00" xmlns="http://www.w3.org/2000/svg" xmlns:xlink="http://www.w3.org/1999/xlink">
<g id="graph0" class="graph" transform="scale(1 1) rotate(0) translate(4 128)">
<title>utilities</title>
<g id="clust1" class="cluster">
<title>clusterdir_7b5d38f1875f1b693f62ca6a108a1129</title>
<g id="a_clust1"><a xlink:href="dir_7b5d38f1875f1b693f62ca6a108a1129.html" target="_top">
<polygon fill="#eeeeff" stroke="black" points="8,-64 8,-116 296,-116 296,-64 8,-64"/>
</a>
</g>
</g>
<!-- dir_7b5d38f1875f1b693f62ca6a108a1129 -->
<g id="node1" class="node">
<title>dir_7b5d38f1875f1b693f62ca6a108a1129</title>
<text text-anchor="middle" x="261" y="-87.5" font-family="Helvetica,sans-Serif" font-size="10.00">utilities</text>
</g>
<!-- dir_c1380917d79430f69fe7f40a98448bcf -->
<g id="node2" class="node">
<title>dir_c1380917d79430f69fe7f40a98448bcf</title>
<g id="a_node2"><a xlink:href="dir_c1380917d79430f69fe7f40a98448bcf.html" target="_top" xlink:title="identify">
<polygon fill="white" stroke="black" points="216,-108 162,-108 162,-72 216,-72 216,-108"/>
<text text-anchor="middle" x="189" y="-87.5" font-family="Helvetica,sans-Serif" font-size="10.00">identify</text>
</a>
</g>
</g>
<!-- dir_f2c2f92fc9ab59bc1f604f164a41f5f5 -->
<g id="node5" class="node">
<title>dir_f2c2f92fc9ab59bc1f604f164a41f5f5</title>
<g id="a_node5"><a xlink:href="dir_f2c2f92fc9ab59bc1f604f164a41f5f5.html" target="_top" xlink:title="librawspeed">
<polygon fill="none" stroke="red" points="154,-36 78,-36 78,0 154,0 154,-36"/>
<text text-anchor="middle" x="116" y="-15.5" font-family="Helvetica,sans-Serif" font-size="10.00">librawspeed</text>
</a>
</g>
</g>
<!-- dir_c1380917d79430f69fe7f40a98448bcf&#45;&gt;dir_f2c2f92fc9ab59bc1f604f164a41f5f5 -->
<g id="edge2" class="edge">
<title>dir_c1380917d79430f69fe7f40a98448bcf&#45;&gt;dir_f2c2f92fc9ab59bc1f604f164a41f5f5</title>
<path fill="none" stroke="black" d="M170.96,-71.7C161.94,-63.05 150.88,-52.45 141.06,-43.03"/>
<polygon fill="black" stroke="black" points="143.48,-40.5 133.84,-36.1 138.63,-45.55 143.48,-40.5"/>
<g id="a_edge2&#45;headlabel"><a xlink:href="dir_000038_000006.html" target="_top" xlink:title="1">
<text text-anchor="middle" x="148.04" y="-38.44" font-family="Helvetica,sans-Serif" font-size="10.00">1</text>
</a>
</g>
</g>
<!-- dir_5d055ccd99330de0db36025f778d4a2d -->
<g id="node3" class="node">
<title>dir_5d055ccd99330de0db36025f778d4a2d</title>
<g id="a_node3"><a xlink:href="dir_5d055ccd99330de0db36025f778d4a2d.html" target="_top" xlink:title="rsbench">
<polygon fill="white" stroke="black" points="143.5,-108 88.5,-108 88.5,-72 143.5,-72 143.5,-108"/>
<text text-anchor="middle" x="116" y="-87.5" font-family="Helvetica,sans-Serif" font-size="10.00">rsbench</text>
</a>
</g>
</g>
<!-- dir_5d055ccd99330de0db36025f778d4a2d&#45;&gt;dir_f2c2f92fc9ab59bc1f604f164a41f5f5 -->
<g id="edge1" class="edge">
<title>dir_5d055ccd99330de0db36025f778d4a2d&#45;&gt;dir_f2c2f92fc9ab59bc1f604f164a41f5f5</title>
<path fill="none" stroke="black" d="M116,-71.7C116,-63.98 116,-54.71 116,-46.11"/>
<polygon fill="black" stroke="black" points="119.5,-46.1 116,-36.1 112.5,-46.1 119.5,-46.1"/>
<g id="a_edge1&#45;headlabel"><a xlink:href="dir_000021_000006.html" target="_top" xlink:title="2">
<text text-anchor="middle" x="122.34" y="-47.2" font-family="Helvetica,sans-Serif" font-size="10.00">2</text>
</a>
</g>
</g>
<!-- dir_d794d6a9711ef409e8b4428697e2ca64 -->
<g id="node4" class="node">
<title>dir_d794d6a9711ef409e8b4428697e2ca64</title>
<g id="a_node4"><a xlink:href="dir_d794d6a9711ef409e8b4428697e2ca64.html" target="_top" xlink:title="rstest">
<polygon fill="white" stroke="black" points="70,-108 16,-108 16,-72 70,-72 70,-108"/>
<text text-anchor="middle" x="43" y="-87.5" font-family="Helvetica,sans-Serif" font-size="10.00">rstest</text>
</a>
</g>
</g>
<!-- dir_d794d6a9711ef409e8b4428697e2ca64&#45;&gt;dir_f2c2f92fc9ab59bc1f604f164a41f5f5 -->
<g id="edge3" class="edge">
<title>dir_d794d6a9711ef409e8b4428697e2ca64&#45;&gt;dir_f2c2f92fc9ab59bc1f604f164a41f5f5</title>
<path fill="none" stroke="black" d="M61.04,-71.7C70.06,-63.05 81.12,-52.45 90.94,-43.03"/>
<polygon fill="black" stroke="black" points="93.37,-45.55 98.16,-36.1 88.52,-40.5 93.37,-45.55"/>
<g id="a_edge3&#45;headlabel"><a xlink:href="dir_000039_000006.html" target="_top" xlink:title="1">
<text text-anchor="middle" x="92.74" y="-47.59" font-family="Helvetica,sans-Serif" font-size="10.00">1</text>
</a>
</g>
</g>
</g>
</svg>
