<?xml version="1.0" encoding="UTF-8" standalone="no"?>
<!DOCTYPE svg PUBLIC "-//W3C//DTD SVG 1.1//EN"
 "http://www.w3.org/Graphics/SVG/1.1/DTD/svg11.dtd">
<!-- Generated by graphviz version 2.43.0 (0)
 -->
<!-- Title: /build/rawspeed/bench/librawspeed Pages: 1 -->
<!--zoomable 231 -->
<svg id="main" version="1.1" xmlns="http://www.w3.org/2000/svg" xmlns:xlink="http://www.w3.org/1999/xlink" xml:space="preserve" onload="init(evt)">
<style type="text/css"><![CDATA[
.edge:hover path { stroke: red; }
.edge:hover polygon { stroke: red; fill: red; }
]]></style>
<script type="text/javascript"><![CDATA[
var edges = document.getElementsByTagName('g');
if (edges && edges.length) {
  for (var i=0;i<edges.length;i++) {
    if (edges[i].id.substr(0,4)=='edge') {
      edges[i].setAttribute('class','edge');
    }
  }
}
]]></script>
        <defs>
                <circle id="rim" cx="0" cy="0" r="7"/>
                <circle id="rim2" cx="0" cy="0" r="3.5"/>
                <g id="zoomPlus">
                        <use xlink:href="#rim" fill="#404040">
                                <set attributeName="fill" to="#808080" begin="zoomplus.mouseover" end="zoomplus.mouseout"/>
                        </use>
                        <path d="M-4,0h8M0,-4v8" fill="none" stroke="white" stroke-width="1.5" pointer-events="none"/>
                </g>
                <g id="zoomMin">
                        <use xlink:href="#rim" fill="#404040">
                                <set attributeName="fill" to="#808080" begin="zoomminus.mouseover" end="zoomminus.mouseout"/>
                        </use>
                        <path d="M-4,0h8" fill="none" stroke="white" stroke-width="1.5" pointer-events="none"/>
                </g>
                <g id="dirArrow">
                        <path fill="none" stroke="white" stroke-width="1.5" d="M0,-3.0v7 M-2.5,-0.5L0,-3.0L2.5,-0.5"/>
                </g>
               <g id="resetDef">
                       <use xlink:href="#rim2" fill="#404040">
                               <set attributeName="fill" to="#808080" begin="reset.mouseover" end="reset.mouseout"/>
                       </use>
               </g>
        </defs>

<script type="text/javascript">
var viewWidth = 570;
var viewHeight = 231;
var sectionId = 'dynsection-0';
</script>
<script xlink:href="svgpan.js"/>
<svg id="graph" class="graph">
<g id="viewport">
<title>/build/rawspeed/bench/librawspeed</title>
<g id="clust1" class="cluster">
<title>clusterdir_a36c4719283424f51e58ca3678e5dea3</title>
<g id="a_clust1"><a xlink:href="dir_a36c4719283424f51e58ca3678e5dea3.html" target="_top" xlink:title="bench">
<polygon fill="#ddddee" stroke="black" points="8,-56 8,-215 554,-215 554,-56 8,-56"/>
<text text-anchor="middle" x="281" y="-203" font-family="Helvetica,sans-Serif" font-size="10.00">bench</text>
</a>
</g>
</g>
<g id="clust2" class="cluster">
<title>clusterdir_215b417d099f1690086e50180ae06cae</title>
<g id="a_clust2"><a xlink:href="dir_215b417d099f1690086e50180ae06cae.html" target="_top">
<polygon fill="#eeeeff" stroke="black" points="16,-64 16,-188 546,-188 546,-64 16,-64"/>
</a>
</g>
</g>
<!-- dir_215b417d099f1690086e50180ae06cae -->
<g id="node1" class="node">
<title>dir_215b417d099f1690086e50180ae06cae</title>
<text text-anchor="middle" x="500" y="-159.5" font-family="Helvetica,sans-Serif" font-size="10.00">librawspeed</text>
</g>
<!-- dir_b65df855c88e6b74a1faa66dff19ec06 -->
<g id="node2" class="node">
<title>dir_b65df855c88e6b74a1faa66dff19ec06</title>
<g id="a_node2"><a xlink:href="dir_b65df855c88e6b74a1faa66dff19ec06.html" target="_top" xlink:title="bench">
<polygon fill="white" stroke="black" points="153,-108 99,-108 99,-72 153,-72 153,-108"/>
<text text-anchor="middle" x="126" y="-87.5" font-family="Helvetica,sans-Serif" font-size="10.00">bench</text>
</a>
</g>
</g>
<!-- dir_f2c2f92fc9ab59bc1f604f164a41f5f5 -->
<g id="node8" class="node">
<title>dir_f2c2f92fc9ab59bc1f604f164a41f5f5</title>
<g id="a_node8"><a xlink:href="dir_f2c2f92fc9ab59bc1f604f164a41f5f5.html" target="_top" xlink:title="librawspeed">
<polygon fill="none" stroke="red" points="276,-36 200,-36 200,0 276,0 276,-36"/>
<text text-anchor="middle" x="238" y="-15.5" font-family="Helvetica,sans-Serif" font-size="10.00">librawspeed</text>
</a>
</g>
</g>
<!-- dir_b65df855c88e6b74a1faa66dff19ec06&#45;&gt;dir_f2c2f92fc9ab59bc1f604f164a41f5f5 -->
<g id="edge1" class="edge">
<title>dir_b65df855c88e6b74a1faa66dff19ec06&#45;&gt;dir_f2c2f92fc9ab59bc1f604f164a41f5f5</title>
<path fill="none" stroke="black" d="M145.84,-71.73C152.37,-66.4 159.81,-60.7 167,-56 175.12,-50.69 184.08,-45.53 192.83,-40.83"/>
<polygon fill="black" stroke="black" points="194.6,-43.85 201.83,-36.11 191.34,-37.66 194.6,-43.85"/>
<g id="a_edge1&#45;headlabel"><a xlink:href="dir_000002_000006.html" target="_top" xlink:title="3">
<text text-anchor="middle" x="192.73" y="-45.54" font-family="Helvetica,sans-Serif" font-size="10.00">3</text>
</a>
</g>
</g>
<!-- dir_e532e4886844cfa200c0940b2e52d6dc -->
<g id="node3" class="node">
<title>dir_e532e4886844cfa200c0940b2e52d6dc</title>
<g id="a_node3"><a xlink:href="dir_e532e4886844cfa200c0940b2e52d6dc.html" target="_top" xlink:title="common">
<polygon fill="white" stroke="black" points="443.5,-180 384.5,-180 384.5,-144 443.5,-144 443.5,-180"/>
<text text-anchor="middle" x="414" y="-159.5" font-family="Helvetica,sans-Serif" font-size="10.00">common</text>
</a>
</g>
</g>
<!-- dir_e532e4886844cfa200c0940b2e52d6dc&#45;&gt;dir_f2c2f92fc9ab59bc1f604f164a41f5f5 -->
<g id="edge8" class="edge">
<title>dir_e532e4886844cfa200c0940b2e52d6dc&#45;&gt;dir_f2c2f92fc9ab59bc1f604f164a41f5f5</title>
<path fill="none" stroke="black" d="M395.95,-143.83C373.02,-122.34 331.87,-84.87 294,-56 287.68,-51.18 280.75,-46.3 273.99,-41.74"/>
<polygon fill="black" stroke="black" points="275.84,-38.77 265.57,-36.16 271.97,-44.6 275.84,-38.77"/>
<g id="a_edge8&#45;headlabel"><a xlink:href="dir_000010_000006.html" target="_top" xlink:title="1">
<text text-anchor="middle" x="280.4" y="-35.89" font-family="Helvetica,sans-Serif" font-size="10.00">1</text>
</a>
</g>
</g>
<!-- dir_0faa4a2ed07b55aa1b68170433ab4ad2 -->
<g id="node4" class="node">
<title>dir_0faa4a2ed07b55aa1b68170433ab4ad2</title>
<g id="a_node4"><a xlink:href="dir_0faa4a2ed07b55aa1b68170433ab4ad2.html" target="_top" xlink:title="decompressors">
<polygon fill="white" stroke="black" points="211.5,-180 120.5,-180 120.5,-144 211.5,-144 211.5,-180"/>
<text text-anchor="middle" x="166" y="-159.5" font-family="Helvetica,sans-Serif" font-size="10.00">decompressors</text>
</a>
</g>
</g>
<!-- dir_0faa4a2ed07b55aa1b68170433ab4ad2&#45;&gt;dir_b65df855c88e6b74a1faa66dff19ec06 -->
<g id="edge6" class="edge">
<title>dir_0faa4a2ed07b55aa1b68170433ab4ad2&#45;&gt;dir_b65df855c88e6b74a1faa66dff19ec06</title>
<path fill="none" stroke="black" d="M156.11,-143.7C151.51,-135.64 145.94,-125.89 140.85,-116.98"/>
<polygon fill="black" stroke="black" points="143.77,-115.05 135.77,-108.1 137.7,-118.52 143.77,-115.05"/>
<g id="a_edge6&#45;headlabel"><a xlink:href="dir_000011_000002.html" target="_top" xlink:title="1">
<text text-anchor="middle" x="148.02" y="-114.26" font-family="Helvetica,sans-Serif" font-size="10.00">1</text>
</a>
</g>
</g>
<!-- dir_0faa4a2ed07b55aa1b68170433ab4ad2&#45;&gt;dir_f2c2f92fc9ab59bc1f604f164a41f5f5 -->
<g id="edge7" class="edge">
<title>dir_0faa4a2ed07b55aa1b68170433ab4ad2&#45;&gt;dir_f2c2f92fc9ab59bc1f604f164a41f5f5</title>
<path fill="none" stroke="black" d="M175.62,-143.93C181.38,-133.6 188.76,-120.12 195,-108 205.74,-87.14 217.27,-63.19 225.68,-45.39"/>
<polygon fill="black" stroke="black" points="228.92,-46.73 230.01,-36.19 222.58,-43.75 228.92,-46.73"/>
<g id="a_edge7&#45;headlabel"><a xlink:href="dir_000011_000006.html" target="_top" xlink:title="8">
<text text-anchor="middle" x="229.96" y="-48.69" font-family="Helvetica,sans-Serif" font-size="10.00">8</text>
</a>
</g>
</g>
<!-- dir_973adc29b9d49ec8d5f6a93c769622b9 -->
<g id="node5" class="node">
<title>dir_973adc29b9d49ec8d5f6a93c769622b9</title>
<g id="a_node5"><a xlink:href="dir_973adc29b9d49ec8d5f6a93c769622b9.html" target="_top" xlink:title="interpolators">
<polygon fill="white" stroke="black" points="102.5,-180 23.5,-180 23.5,-144 102.5,-144 102.5,-180"/>
<text text-anchor="middle" x="63" y="-159.5" font-family="Helvetica,sans-Serif" font-size="10.00">interpolators</text>
</a>
</g>
</g>
<!-- dir_973adc29b9d49ec8d5f6a93c769622b9&#45;&gt;dir_b65df855c88e6b74a1faa66dff19ec06 -->
<g id="edge4" class="edge">
<title>dir_973adc29b9d49ec8d5f6a93c769622b9&#45;&gt;dir_b65df855c88e6b74a1faa66dff19ec06</title>
<path fill="none" stroke="black" d="M78.57,-143.7C86.2,-135.22 95.52,-124.86 103.88,-115.58"/>
<polygon fill="black" stroke="black" points="106.52,-117.88 110.61,-108.1 101.31,-113.2 106.52,-117.88"/>
<g id="a_edge4&#45;headlabel"><a xlink:href="dir_000012_000002.html" target="_top" xlink:title="1">
<text text-anchor="middle" x="106.22" y="-119.95" font-family="Helvetica,sans-Serif" font-size="10.00">1</text>
</a>
</g>
</g>
<!-- dir_973adc29b9d49ec8d5f6a93c769622b9&#45;&gt;dir_f2c2f92fc9ab59bc1f604f164a41f5f5 -->
<g id="edge5" class="edge">
<title>dir_973adc29b9d49ec8d5f6a93c769622b9&#45;&gt;dir_f2c2f92fc9ab59bc1f604f164a41f5f5</title>
<path fill="none" stroke="black" d="M102.62,-145.5C122.03,-136.56 144.86,-123.92 162,-108 182.06,-89.37 177.1,-76.71 195,-56 198.88,-51.51 203.31,-47.09 207.82,-42.95"/>
<polygon fill="black" stroke="black" points="210.21,-45.51 215.41,-36.28 205.59,-40.26 210.21,-45.51"/>
<g id="a_edge5&#45;headlabel"><a xlink:href="dir_000012_000006.html" target="_top" xlink:title="3">
<text text-anchor="middle" x="209.38" y="-47.52" font-family="Helvetica,sans-Serif" font-size="10.00">3</text>
</a>
</g>
</g>
<!-- dir_f418d64422b847001fe4a95bccfac94b -->
<g id="node6" class="node">
<title>dir_f418d64422b847001fe4a95bccfac94b</title>
<g id="a_node6"><a xlink:href="dir_f418d64422b847001fe4a95bccfac94b.html" target="_top" xlink:title="io">
<polygon fill="white" stroke="black" points="284,-180 230,-180 230,-144 284,-144 284,-180"/>
<text text-anchor="middle" x="257" y="-159.5" font-family="Helvetica,sans-Serif" font-size="10.00">io</text>
</a>
</g>
</g>
<!-- dir_f418d64422b847001fe4a95bccfac94b&#45;&gt;dir_f2c2f92fc9ab59bc1f604f164a41f5f5 -->
<g id="edge2" class="edge">
<title>dir_f418d64422b847001fe4a95bccfac94b&#45;&gt;dir_f2c2f92fc9ab59bc1f604f164a41f5f5</title>
<path fill="none" stroke="black" d="M254.71,-143.87C251.47,-119.67 245.52,-75.21 241.67,-46.39"/>
<polygon fill="black" stroke="black" points="245.1,-45.64 240.3,-36.19 238.16,-46.57 245.1,-45.64"/>
<g id="a_edge2&#45;headlabel"><a xlink:href="dir_000013_000006.html" target="_top" xlink:title="9">
<text text-anchor="middle" x="248.39" y="-46.32" font-family="Helvetica,sans-Serif" font-size="10.00">9</text>
</a>
</g>
</g>
<!-- dir_0bb05a95a643f6bed5fc939761e96fce -->
<g id="node7" class="node">
<title>dir_0bb05a95a643f6bed5fc939761e96fce</title>
<g id="a_node7"><a xlink:href="dir_0bb05a95a643f6bed5fc939761e96fce.html" target="_top" xlink:title="metadata">
<polygon fill="white" stroke="black" points="366,-180 302,-180 302,-144 366,-144 366,-180"/>
<text text-anchor="middle" x="334" y="-159.5" font-family="Helvetica,sans-Serif" font-size="10.00">metadata</text>
</a>
</g>
</g>
<!-- dir_0bb05a95a643f6bed5fc939761e96fce&#45;&gt;dir_f2c2f92fc9ab59bc1f604f164a41f5f5 -->
<g id="edge3" class="edge">
<title>dir_0bb05a95a643f6bed5fc939761e96fce&#45;&gt;dir_f2c2f92fc9ab59bc1f604f164a41f5f5</title>
<path fill="none" stroke="black" d="M322.42,-143.87C305.7,-119.14 274.67,-73.24 255.25,-44.51"/>
<polygon fill="black" stroke="black" points="258.12,-42.51 249.62,-36.19 252.32,-46.43 258.12,-42.51"/>
<g id="a_edge3&#45;headlabel"><a xlink:href="dir_000014_000006.html" target="_top" xlink:title="1">
<text text-anchor="middle" x="262.49" y="-41.4" font-family="Helvetica,sans-Serif" font-size="10.00">1</text>
</a>
</g>
</g>
</g>
</svg>
        <g id="navigator" transform="translate(0 0)" fill="#404254">
                <rect fill="#f2f5e9" fill-opacity="0.5" stroke="#606060" stroke-width=".5" x="0" y="0" width="60" height="60"/>
                <use id="zoomplus" xlink:href="#zoomPlus" x="17" y="9" onmousedown="handleZoom(evt,'in')"/>
                <use id="zoomminus" xlink:href="#zoomMin" x="42" y="9" onmousedown="handleZoom(evt,'out')"/>
                <use id="reset" xlink:href="#resetDef" x="30" y="36" onmousedown="handleReset()"/>
                <g id="arrowUp" xlink:href="#dirArrow" transform="translate(30 24)" onmousedown="handlePan(0,-1)">
                  <use xlink:href="#rim" fill="#404040">
                        <set attributeName="fill" to="#808080" begin="arrowUp.mouseover" end="arrowUp.mouseout"/>
                  </use>
                  <path fill="none" stroke="white" stroke-width="1.5" d="M0,-3.0v7 M-2.5,-0.5L0,-3.0L2.5,-0.5"/>
                </g>
                <g id="arrowRight" xlink:href="#dirArrow" transform="rotate(90) translate(36 -43)" onmousedown="handlePan(1,0)">
                  <use xlink:href="#rim" fill="#404040">
                        <set attributeName="fill" to="#808080" begin="arrowRight.mouseover" end="arrowRight.mouseout"/>
                  </use>
                  <path fill="none" stroke="white" stroke-width="1.5" d="M0,-3.0v7 M-2.5,-0.5L0,-3.0L2.5,-0.5"/>
                </g>
                <g id="arrowDown" xlink:href="#dirArrow" transform="rotate(180) translate(-30 -48)" onmousedown="handlePan(0,1)">
                  <use xlink:href="#rim" fill="#404040">
                        <set attributeName="fill" to="#808080" begin="arrowDown.mouseover" end="arrowDown.mouseout"/>
                  </use>
                  <path fill="none" stroke="white" stroke-width="1.5" d="M0,-3.0v7 M-2.5,-0.5L0,-3.0L2.5,-0.5"/>
                </g>
                <g id="arrowLeft" xlink:href="#dirArrow" transform="rotate(270) translate(-36 17)" onmousedown="handlePan(-1,0)">
                  <use xlink:href="#rim" fill="#404040">
                        <set attributeName="fill" to="#808080" begin="arrowLeft.mouseover" end="arrowLeft.mouseout"/>
                  </use>
                  <path fill="none" stroke="white" stroke-width="1.5" d="M0,-3.0v7 M-2.5,-0.5L0,-3.0L2.5,-0.5"/>
                </g>
        </g>
        <svg viewBox="0 0 15 15" width="100%" height="30px" preserveAspectRatio="xMaxYMin meet">
         <g id="arrow_out" transform="scale(0.3 0.3)">
          <a xlink:href="dir_215b417d099f1690086e50180ae06cae_dep_org.svg" target="_base">
           <rect id="button" ry="5" rx="5" y="6" x="6" height="38" width="38"
                fill="#f2f5e9" fill-opacity="0.5" stroke="#606060" stroke-width="1.0"/>
           <path id="arrow"
             d="M 11.500037,31.436501 C 11.940474,20.09759 22.043105,11.32322 32.158766,21.979434 L 37.068811,17.246167 C 37.068811,17.246167 37.088388,32 37.088388,32 L 22.160133,31.978069 C 22.160133,31.978069 26.997745,27.140456 26.997745,27.140456 C 18.528582,18.264221 13.291696,25.230495 11.500037,31.436501 z"
             style="fill:#404040;"/>
          </a>
         </g>
        </svg>
</svg>
