<?xml version="1.0" encoding="UTF-8" standalone="no"?>
<!DOCTYPE svg PUBLIC "-//W3C//DTD SVG 1.1//EN"
 "http://www.w3.org/Graphics/SVG/1.1/DTD/svg11.dtd">
<!-- Generated by graphviz version 2.43.0 (0)
 -->
<!-- Title: librawspeed/io Pages: 1 -->
<svg width="162pt" height="151pt"
 viewBox="0.00 0.00 161.50 151.00" xmlns="http://www.w3.org/2000/svg" xmlns:xlink="http://www.w3.org/1999/xlink">
<g id="graph0" class="graph" transform="scale(1 1) rotate(0) translate(4 147)">
<title>librawspeed/io</title>
<g id="clust1" class="cluster">
<title>clusterdir_f2c2f92fc9ab59bc1f604f164a41f5f5</title>
<g id="a_clust1"><a xlink:href="dir_f2c2f92fc9ab59bc1f604f164a41f5f5.html" target="_top" xlink:title="librawspeed">
<polygon fill="#ddddee" stroke="black" points="8,-64 8,-135 84,-135 84,-64 8,-64"/>
<text text-anchor="middle" x="46" y="-123" font-family="Helvetica,sans-Serif" font-size="10.00">librawspeed</text>
</a>
</g>
</g>
<!-- dir_e9f1c1650c19b82a0c277165906fd6a6 -->
<g id="node1" class="node">
<title>dir_e9f1c1650c19b82a0c277165906fd6a6</title>
<g id="a_node1"><a xlink:href="dir_e9f1c1650c19b82a0c277165906fd6a6.html" target="_top" xlink:title="io">
<polygon fill="#eeeeff" stroke="black" points="75,-108 21,-108 21,-72 75,-72 75,-108"/>
<text text-anchor="middle" x="48" y="-87.5" font-family="Helvetica,sans-Serif" font-size="10.00">io</text>
</a>
</g>
</g>
<!-- dir_6397249ce6bfc04c3a0c6a8eb78ef0ba -->
<g id="node2" class="node">
<title>dir_6397249ce6bfc04c3a0c6a8eb78ef0ba</title>
<g id="a_node2"><a xlink:href="dir_6397249ce6bfc04c3a0c6a8eb78ef0ba.html" target="_top" xlink:title="common">
<polygon fill="none" stroke="black" points="152.5,-108 93.5,-108 93.5,-72 152.5,-72 152.5,-108"/>
<text text-anchor="middle" x="123" y="-87.5" font-family="Helvetica,sans-Serif" font-size="10.00">common</text>
</a>
</g>
</g>
<!-- dir_e9f1c1650c19b82a0c277165906fd6a6&#45;&gt;dir_6397249ce6bfc04c3a0c6a8eb78ef0ba -->
<g id="edge1" class="edge">
<title>dir_e9f1c1650c19b82a0c277165906fd6a6&#45;&gt;dir_6397249ce6bfc04c3a0c6a8eb78ef0ba</title>
<path fill="none" stroke="black" d="M75.25,-90C77.86,-90 80.47,-90 83.08,-90"/>
<polygon fill="black" stroke="black" points="83.15,-93.5 93.15,-90 83.15,-86.5 83.15,-93.5"/>
<g id="a_edge1&#45;headlabel"><a xlink:href="dir_000034_000007.html" target="_top" xlink:title="8">
<text text-anchor="middle" x="79.56" y="-93.84" font-family="Helvetica,sans-Serif" font-size="10.00">8</text>
</a>
</g>
</g>
<!-- dir_aaff6fcc3ba688745620d6ac129881b8 -->
<g id="node3" class="node">
<title>dir_aaff6fcc3ba688745620d6ac129881b8</title>
<g id="a_node3"><a xlink:href="dir_aaff6fcc3ba688745620d6ac129881b8.html" target="_top" xlink:title="decoders">
<polygon fill="none" stroke="black" points="153.5,-36 92.5,-36 92.5,0 153.5,0 153.5,-36"/>
<text text-anchor="middle" x="123" y="-15.5" font-family="Helvetica,sans-Serif" font-size="10.00">decoders</text>
</a>
</g>
</g>
<!-- dir_e9f1c1650c19b82a0c277165906fd6a6&#45;&gt;dir_aaff6fcc3ba688745620d6ac129881b8 -->
<g id="edge2" class="edge">
<title>dir_e9f1c1650c19b82a0c277165906fd6a6&#45;&gt;dir_aaff6fcc3ba688745620d6ac129881b8</title>
<path fill="none" stroke="black" d="M60.62,-71.7C69.08,-62.97 80.4,-52.24 91.12,-42.75"/>
<polygon fill="black" stroke="black" points="93.52,-45.3 98.78,-36.1 88.93,-40.02 93.52,-45.3"/>
<g id="a_edge2&#45;headlabel"><a xlink:href="dir_000034_000032.html" target="_top" xlink:title="1">
<text text-anchor="middle" x="92.67" y="-47.3" font-family="Helvetica,sans-Serif" font-size="10.00">1</text>
</a>
</g>
</g>
<!-- dir_805a0af995e93a362739e98abd740eb2 -->
<g id="node4" class="node">
<title>dir_805a0af995e93a362739e98abd740eb2</title>
<g id="a_node4"><a xlink:href="dir_805a0af995e93a362739e98abd740eb2.html" target="_top" xlink:title="external">
<polygon fill="none" stroke="red" points="74.5,-36 17.5,-36 17.5,0 74.5,0 74.5,-36"/>
<text text-anchor="middle" x="46" y="-15.5" font-family="Helvetica,sans-Serif" font-size="10.00">external</text>
</a>
</g>
</g>
<!-- dir_e9f1c1650c19b82a0c277165906fd6a6&#45;&gt;dir_805a0af995e93a362739e98abd740eb2 -->
<g id="edge3" class="edge">
<title>dir_e9f1c1650c19b82a0c277165906fd6a6&#45;&gt;dir_805a0af995e93a362739e98abd740eb2</title>
<path fill="none" stroke="black" d="M47.51,-71.7C47.29,-63.98 47.02,-54.71 46.77,-46.11"/>
<polygon fill="black" stroke="black" points="50.27,-46 46.49,-36.1 43.28,-46.2 50.27,-46"/>
<g id="a_edge3&#45;headlabel"><a xlink:href="dir_000034_000029.html" target="_top" xlink:title="2">
<text text-anchor="middle" x="53.21" y="-47.01" font-family="Helvetica,sans-Serif" font-size="10.00">2</text>
</a>
</g>
</g>
<!-- dir_6397249ce6bfc04c3a0c6a8eb78ef0ba&#45;&gt;dir_e9f1c1650c19b82a0c277165906fd6a6 -->
<g id="edge4" class="edge">
<title>dir_6397249ce6bfc04c3a0c6a8eb78ef0ba&#45;&gt;dir_e9f1c1650c19b82a0c277165906fd6a6</title>
<path fill="none" stroke="black" d="M93.15,-90C90.54,-90 87.93,-90 85.32,-90"/>
<polygon fill="black" stroke="black" points="85.25,-86.5 75.25,-90 85.25,-93.5 85.25,-86.5"/>
<g id="a_edge4&#45;headlabel"><a xlink:href="dir_000007_000034.html" target="_top" xlink:title="5">
<text text-anchor="middle" x="88.84" y="-81.16" font-family="Helvetica,sans-Serif" font-size="10.00">5</text>
</a>
</g>
</g>
<!-- dir_6397249ce6bfc04c3a0c6a8eb78ef0ba&#45;&gt;dir_aaff6fcc3ba688745620d6ac129881b8 -->
<g id="edge5" class="edge">
<title>dir_6397249ce6bfc04c3a0c6a8eb78ef0ba&#45;&gt;dir_aaff6fcc3ba688745620d6ac129881b8</title>
<path fill="none" stroke="black" d="M117.08,-71.7C116.29,-63.98 116.06,-54.71 116.4,-46.11"/>
<polygon fill="black" stroke="black" points="119.9,-46.32 117.1,-36.1 112.92,-45.84 119.9,-46.32"/>
<g id="a_edge5&#45;headlabel"><a xlink:href="dir_000007_000032.html" target="_top" xlink:title="5">
<text text-anchor="middle" x="122.48" y="-47.61" font-family="Helvetica,sans-Serif" font-size="10.00">5</text>
</a>
</g>
</g>
<!-- dir_6397249ce6bfc04c3a0c6a8eb78ef0ba&#45;&gt;dir_805a0af995e93a362739e98abd740eb2 -->
<g id="edge6" class="edge">
<title>dir_6397249ce6bfc04c3a0c6a8eb78ef0ba&#45;&gt;dir_805a0af995e93a362739e98abd740eb2</title>
<path fill="none" stroke="black" d="M103.97,-71.7C94.46,-63.05 82.79,-52.45 72.43,-43.03"/>
<polygon fill="black" stroke="black" points="74.57,-40.24 64.81,-36.1 69.86,-45.42 74.57,-40.24"/>
<g id="a_edge6&#45;headlabel"><a xlink:href="dir_000007_000029.html" target="_top" xlink:title="4">
<text text-anchor="middle" x="79.14" y="-38.06" font-family="Helvetica,sans-Serif" font-size="10.00">4</text>
</a>
</g>
</g>
<!-- dir_aaff6fcc3ba688745620d6ac129881b8&#45;&gt;dir_e9f1c1650c19b82a0c277165906fd6a6 -->
<g id="edge7" class="edge">
<title>dir_aaff6fcc3ba688745620d6ac129881b8&#45;&gt;dir_e9f1c1650c19b82a0c277165906fd6a6</title>
<path fill="none" stroke="black" d="M110.57,-36.1C102.16,-44.8 90.86,-55.52 80.12,-65.03"/>
<polygon fill="black" stroke="black" points="77.71,-62.49 72.46,-71.7 82.3,-67.78 77.71,-62.49"/>
<g id="a_edge7&#45;headlabel"><a xlink:href="dir_000032_000034.html" target="_top" xlink:title="69">
<text text-anchor="middle" x="78.56" y="-55.49" font-family="Helvetica,sans-Serif" font-size="10.00">69</text>
</a>
</g>
</g>
<!-- dir_aaff6fcc3ba688745620d6ac129881b8&#45;&gt;dir_6397249ce6bfc04c3a0c6a8eb78ef0ba -->
<g id="edge8" class="edge">
<title>dir_aaff6fcc3ba688745620d6ac129881b8&#45;&gt;dir_6397249ce6bfc04c3a0c6a8eb78ef0ba</title>
<path fill="none" stroke="black" d="M128.9,-36.1C129.7,-43.79 129.94,-53.05 129.6,-61.67"/>
<polygon fill="black" stroke="black" points="126.11,-61.48 128.92,-71.7 133.09,-61.96 126.11,-61.48"/>
<g id="a_edge8&#45;headlabel"><a xlink:href="dir_000032_000007.html" target="_top" xlink:title="67">
<text text-anchor="middle" x="123.52" y="-55.2" font-family="Helvetica,sans-Serif" font-size="10.00">67</text>
</a>
</g>
</g>
</g>
</svg>
