<?xml version="1.0" encoding="UTF-8" standalone="no"?>
<!DOCTYPE svg PUBLIC "-//W3C//DTD SVG 1.1//EN"
 "http://www.w3.org/Graphics/SVG/1.1/DTD/svg11.dtd">
<!-- Generated by graphviz version 2.43.0 (0)
 -->
<!-- Title: /build/rawspeed/bench/librawspeed/interpolators Pages: 1 -->
<svg width="118pt" height="223pt"
 viewBox="0.00 0.00 118.00 223.00" xmlns="http://www.w3.org/2000/svg" xmlns:xlink="http://www.w3.org/1999/xlink">
<g id="graph0" class="graph" transform="scale(1 1) rotate(0) translate(4 219)">
<title>/build/rawspeed/bench/librawspeed/interpolators</title>
<g id="clust1" class="cluster">
<title>clusterdir_215b417d099f1690086e50180ae06cae</title>
<g id="a_clust1"><a xlink:href="dir_215b417d099f1690086e50180ae06cae.html" target="_top" xlink:title="librawspeed">
<polygon fill="#ddddee" stroke="black" points="8,-136 8,-207 102,-207 102,-136 8,-136"/>
<text text-anchor="middle" x="55" y="-195" font-family="Helvetica,sans-Serif" font-size="10.00">librawspeed</text>
</a>
</g>
</g>
<!-- dir_973adc29b9d49ec8d5f6a93c769622b9 -->
<g id="node1" class="node">
<title>dir_973adc29b9d49ec8d5f6a93c769622b9</title>
<g id="a_node1"><a xlink:href="dir_973adc29b9d49ec8d5f6a93c769622b9.html" target="_top" xlink:title="interpolators">
<polygon fill="#eeeeff" stroke="black" points="94.5,-180 15.5,-180 15.5,-144 94.5,-144 94.5,-180"/>
<text text-anchor="middle" x="55" y="-159.5" font-family="Helvetica,sans-Serif" font-size="10.00">interpolators</text>
</a>
</g>
</g>
<!-- dir_b65df855c88e6b74a1faa66dff19ec06 -->
<g id="node2" class="node">
<title>dir_b65df855c88e6b74a1faa66dff19ec06</title>
<g id="a_node2"><a xlink:href="dir_b65df855c88e6b74a1faa66dff19ec06.html" target="_top" xlink:title="bench">
<polygon fill="none" stroke="black" points="54,-108 0,-108 0,-72 54,-72 54,-108"/>
<text text-anchor="middle" x="27" y="-87.5" font-family="Helvetica,sans-Serif" font-size="10.00">bench</text>
</a>
</g>
</g>
<!-- dir_973adc29b9d49ec8d5f6a93c769622b9&#45;&gt;dir_b65df855c88e6b74a1faa66dff19ec06 -->
<g id="edge2" class="edge">
<title>dir_973adc29b9d49ec8d5f6a93c769622b9&#45;&gt;dir_b65df855c88e6b74a1faa66dff19ec06</title>
<path fill="none" stroke="black" d="M48.08,-143.7C44.93,-135.81 41.12,-126.3 37.62,-117.55"/>
<polygon fill="black" stroke="black" points="40.81,-116.09 33.84,-108.1 34.31,-118.69 40.81,-116.09"/>
<g id="a_edge2&#45;headlabel"><a xlink:href="dir_000012_000002.html" target="_top" xlink:title="1">
<text text-anchor="middle" x="44.78" y="-115.87" font-family="Helvetica,sans-Serif" font-size="10.00">1</text>
</a>
</g>
</g>
<!-- dir_f2c2f92fc9ab59bc1f604f164a41f5f5 -->
<g id="node3" class="node">
<title>dir_f2c2f92fc9ab59bc1f604f164a41f5f5</title>
<g id="a_node3"><a xlink:href="dir_f2c2f92fc9ab59bc1f604f164a41f5f5.html" target="_top" xlink:title="librawspeed">
<polygon fill="none" stroke="red" points="92,-36 16,-36 16,0 92,0 92,-36"/>
<text text-anchor="middle" x="54" y="-15.5" font-family="Helvetica,sans-Serif" font-size="10.00">librawspeed</text>
</a>
</g>
</g>
<!-- dir_973adc29b9d49ec8d5f6a93c769622b9&#45;&gt;dir_f2c2f92fc9ab59bc1f604f164a41f5f5 -->
<g id="edge3" class="edge">
<title>dir_973adc29b9d49ec8d5f6a93c769622b9&#45;&gt;dir_f2c2f92fc9ab59bc1f604f164a41f5f5</title>
<path fill="none" stroke="black" d="M58.25,-143.89C60.05,-133.54 62.09,-120.06 63,-108 64.2,-92.04 64.34,-87.94 63,-72 62.28,-63.5 60.93,-54.31 59.49,-46.01"/>
<polygon fill="black" stroke="black" points="62.91,-45.29 57.65,-36.09 56.03,-46.56 62.91,-45.29"/>
<g id="a_edge3&#45;headlabel"><a xlink:href="dir_000012_000006.html" target="_top" xlink:title="3">
<text text-anchor="middle" x="66.36" y="-45.81" font-family="Helvetica,sans-Serif" font-size="10.00">3</text>
</a>
</g>
</g>
<!-- dir_b65df855c88e6b74a1faa66dff19ec06&#45;&gt;dir_f2c2f92fc9ab59bc1f604f164a41f5f5 -->
<g id="edge1" class="edge">
<title>dir_b65df855c88e6b74a1faa66dff19ec06&#45;&gt;dir_f2c2f92fc9ab59bc1f604f164a41f5f5</title>
<path fill="none" stroke="black" d="M33.67,-71.7C36.71,-63.81 40.38,-54.3 43.76,-45.55"/>
<polygon fill="black" stroke="black" points="47.07,-46.69 47.4,-36.1 40.54,-44.17 47.07,-46.69"/>
<g id="a_edge1&#45;headlabel"><a xlink:href="dir_000002_000006.html" target="_top" xlink:title="3">
<text text-anchor="middle" x="48.42" y="-48.57" font-family="Helvetica,sans-Serif" font-size="10.00">3</text>
</a>
</g>
</g>
</g>
</svg>
