<?xml version="1.0" encoding="UTF-8" standalone="no"?>
<!DOCTYPE svg PUBLIC "-//W3C//DTD SVG 1.1//EN"
 "http://www.w3.org/Graphics/SVG/1.1/DTD/svg11.dtd">
<!-- Generated by graphviz version 2.43.0 (0)
 -->
<!-- Title: librawspeed/parsers Pages: 1 -->
<svg width="264pt" height="260pt"
 viewBox="0.00 0.00 263.50 260.00" xmlns="http://www.w3.org/2000/svg" xmlns:xlink="http://www.w3.org/1999/xlink">
<g id="graph0" class="graph" transform="scale(1 1) rotate(0) translate(4 256)">
<title>librawspeed/parsers</title>
<g id="clust1" class="cluster">
<title>clusterdir_f2c2f92fc9ab59bc1f604f164a41f5f5</title>
<g id="a_clust1"><a xlink:href="dir_f2c2f92fc9ab59bc1f604f164a41f5f5.html" target="_top" xlink:title="librawspeed">
<polygon fill="#ddddee" stroke="black" points="54,-64 54,-135 130,-135 130,-64 54,-64"/>
<text text-anchor="middle" x="92" y="-123" font-family="Helvetica,sans-Serif" font-size="10.00">librawspeed</text>
</a>
</g>
</g>
<!-- dir_e9df31ba243be114ece5c381e35ff9ef -->
<g id="node1" class="node">
<title>dir_e9df31ba243be114ece5c381e35ff9ef</title>
<g id="a_node1"><a xlink:href="dir_e9df31ba243be114ece5c381e35ff9ef.html" target="_top" xlink:title="parsers">
<polygon fill="#eeeeff" stroke="black" points="120,-108 66,-108 66,-72 120,-72 120,-108"/>
<text text-anchor="middle" x="93" y="-87.5" font-family="Helvetica,sans-Serif" font-size="10.00">parsers</text>
</a>
</g>
</g>
<!-- dir_e9f1c1650c19b82a0c277165906fd6a6 -->
<g id="node2" class="node">
<title>dir_e9f1c1650c19b82a0c277165906fd6a6</title>
<g id="a_node2"><a xlink:href="dir_e9f1c1650c19b82a0c277165906fd6a6.html" target="_top" xlink:title="io">
<polygon fill="none" stroke="black" points="184,-252 130,-252 130,-216 184,-216 184,-252"/>
<text text-anchor="middle" x="157" y="-231.5" font-family="Helvetica,sans-Serif" font-size="10.00">io</text>
</a>
</g>
</g>
<!-- dir_e9df31ba243be114ece5c381e35ff9ef&#45;&gt;dir_e9f1c1650c19b82a0c277165906fd6a6 -->
<g id="edge3" class="edge">
<title>dir_e9df31ba243be114ece5c381e35ff9ef&#45;&gt;dir_e9f1c1650c19b82a0c277165906fd6a6</title>
<path fill="none" stroke="black" d="M96.18,-108.03C100.02,-126.41 107.44,-156.26 119,-180 123.68,-189.62 130.09,-199.36 136.3,-207.82"/>
<polygon fill="black" stroke="black" points="133.54,-209.97 142.39,-215.8 139.11,-205.73 133.54,-209.97"/>
<g id="a_edge3&#45;headlabel"><a xlink:href="dir_000036_000034.html" target="_top" xlink:title="10">
<text text-anchor="middle" x="129.1" y="-206.33" font-family="Helvetica,sans-Serif" font-size="10.00">10</text>
</a>
</g>
</g>
<!-- dir_1001d9375777bca6b163352cfd2806d0 -->
<g id="node3" class="node">
<title>dir_1001d9375777bca6b163352cfd2806d0</title>
<g id="a_node3"><a xlink:href="dir_1001d9375777bca6b163352cfd2806d0.html" target="_top" xlink:title="tiff">
<polygon fill="none" stroke="black" points="54,-36 0,-36 0,0 54,0 54,-36"/>
<text text-anchor="middle" x="27" y="-15.5" font-family="Helvetica,sans-Serif" font-size="10.00">tiff</text>
</a>
</g>
</g>
<!-- dir_e9df31ba243be114ece5c381e35ff9ef&#45;&gt;dir_1001d9375777bca6b163352cfd2806d0 -->
<g id="edge4" class="edge">
<title>dir_e9df31ba243be114ece5c381e35ff9ef&#45;&gt;dir_1001d9375777bca6b163352cfd2806d0</title>
<path fill="none" stroke="black" d="M70.77,-71.7C61.99,-63.3 52.15,-53.07 43.95,-43.86"/>
<polygon fill="black" stroke="black" points="46.42,-41.37 37.23,-36.1 41.13,-45.96 46.42,-41.37"/>
<g id="a_edge4&#45;headlabel"><a xlink:href="dir_000036_000037.html" target="_top" xlink:title="9">
<text text-anchor="middle" x="50.92" y="-39.73" font-family="Helvetica,sans-Serif" font-size="10.00">9</text>
</a>
</g>
</g>
<!-- dir_400d2db5f3c79ddc8fd4d8c2b3b8c693 -->
<g id="node4" class="node">
<title>dir_400d2db5f3c79ddc8fd4d8c2b3b8c693</title>
<g id="a_node4"><a xlink:href="dir_400d2db5f3c79ddc8fd4d8c2b3b8c693.html" target="_top" xlink:title="metadata">
<polygon fill="none" stroke="black" points="189,-36 125,-36 125,0 189,0 189,-36"/>
<text text-anchor="middle" x="157" y="-15.5" font-family="Helvetica,sans-Serif" font-size="10.00">metadata</text>
</a>
</g>
</g>
<!-- dir_e9df31ba243be114ece5c381e35ff9ef&#45;&gt;dir_400d2db5f3c79ddc8fd4d8c2b3b8c693 -->
<g id="edge5" class="edge">
<title>dir_e9df31ba243be114ece5c381e35ff9ef&#45;&gt;dir_400d2db5f3c79ddc8fd4d8c2b3b8c693</title>
<path fill="none" stroke="black" d="M108.82,-71.7C116.57,-63.22 126.04,-52.86 134.52,-43.58"/>
<polygon fill="black" stroke="black" points="137.2,-45.85 141.36,-36.1 132.03,-41.12 137.2,-45.85"/>
<g id="a_edge5&#45;headlabel"><a xlink:href="dir_000036_000035.html" target="_top" xlink:title="1">
<text text-anchor="middle" x="136.87" y="-47.92" font-family="Helvetica,sans-Serif" font-size="10.00">1</text>
</a>
</g>
</g>
<!-- dir_6397249ce6bfc04c3a0c6a8eb78ef0ba -->
<g id="node5" class="node">
<title>dir_6397249ce6bfc04c3a0c6a8eb78ef0ba</title>
<g id="a_node5"><a xlink:href="dir_6397249ce6bfc04c3a0c6a8eb78ef0ba.html" target="_top" xlink:title="common">
<polygon fill="none" stroke="black" points="186.5,-180 127.5,-180 127.5,-144 186.5,-144 186.5,-180"/>
<text text-anchor="middle" x="157" y="-159.5" font-family="Helvetica,sans-Serif" font-size="10.00">common</text>
</a>
</g>
</g>
<!-- dir_e9df31ba243be114ece5c381e35ff9ef&#45;&gt;dir_6397249ce6bfc04c3a0c6a8eb78ef0ba -->
<g id="edge6" class="edge">
<title>dir_e9df31ba243be114ece5c381e35ff9ef&#45;&gt;dir_6397249ce6bfc04c3a0c6a8eb78ef0ba</title>
<path fill="none" stroke="black" d="M102.74,-108.1C109.65,-116.64 119.03,-127.11 128.11,-136.48"/>
<polygon fill="black" stroke="black" points="125.74,-139.06 135.26,-143.7 130.71,-134.13 125.74,-139.06"/>
<g id="a_edge6&#45;headlabel"><a xlink:href="dir_000036_000007.html" target="_top" xlink:title="6">
<text text-anchor="middle" x="121.19" y="-136.01" font-family="Helvetica,sans-Serif" font-size="10.00">6</text>
</a>
</g>
</g>
<!-- dir_aaff6fcc3ba688745620d6ac129881b8 -->
<g id="node6" class="node">
<title>dir_aaff6fcc3ba688745620d6ac129881b8</title>
<g id="a_node6"><a xlink:href="dir_aaff6fcc3ba688745620d6ac129881b8.html" target="_top" xlink:title="decoders">
<polygon fill="none" stroke="black" points="255.5,-108 194.5,-108 194.5,-72 255.5,-72 255.5,-108"/>
<text text-anchor="middle" x="225" y="-87.5" font-family="Helvetica,sans-Serif" font-size="10.00">decoders</text>
</a>
</g>
</g>
<!-- dir_e9df31ba243be114ece5c381e35ff9ef&#45;&gt;dir_aaff6fcc3ba688745620d6ac129881b8 -->
<g id="edge7" class="edge">
<title>dir_e9df31ba243be114ece5c381e35ff9ef&#45;&gt;dir_aaff6fcc3ba688745620d6ac129881b8</title>
<path fill="none" stroke="black" d="M120.07,-90C141.42,-90 162.77,-90 184.12,-90"/>
<polygon fill="black" stroke="black" points="184.26,-93.5 194.26,-90 184.26,-86.5 184.26,-93.5"/>
<g id="a_edge7&#45;headlabel"><a xlink:href="dir_000036_000032.html" target="_top" xlink:title="27">
<text text-anchor="middle" x="180.66" y="-93.84" font-family="Helvetica,sans-Serif" font-size="10.00">27</text>
</a>
</g>
</g>
<!-- dir_e9f1c1650c19b82a0c277165906fd6a6&#45;&gt;dir_6397249ce6bfc04c3a0c6a8eb78ef0ba -->
<g id="edge1" class="edge">
<title>dir_e9f1c1650c19b82a0c277165906fd6a6&#45;&gt;dir_6397249ce6bfc04c3a0c6a8eb78ef0ba</title>
<path fill="none" stroke="black" d="M151.08,-215.7C150.29,-207.98 150.06,-198.71 150.4,-190.11"/>
<polygon fill="black" stroke="black" points="153.9,-190.32 151.1,-180.1 146.92,-189.84 153.9,-190.32"/>
<g id="a_edge1&#45;headlabel"><a xlink:href="dir_000034_000007.html" target="_top" xlink:title="8">
<text text-anchor="middle" x="156.48" y="-191.61" font-family="Helvetica,sans-Serif" font-size="10.00">8</text>
</a>
</g>
</g>
<!-- dir_e9f1c1650c19b82a0c277165906fd6a6&#45;&gt;dir_aaff6fcc3ba688745620d6ac129881b8 -->
<g id="edge2" class="edge">
<title>dir_e9f1c1650c19b82a0c277165906fd6a6&#45;&gt;dir_aaff6fcc3ba688745620d6ac129881b8</title>
<path fill="none" stroke="black" d="M163.94,-215.78C170.87,-205.84 180.42,-192.8 187,-180 197.23,-160.09 204.85,-135.84 211.1,-117.69"/>
<polygon fill="black" stroke="black" points="214.48,-118.63 214.54,-108.04 207.89,-116.28 214.48,-118.63"/>
<g id="a_edge2&#45;headlabel"><a xlink:href="dir_000034_000032.html" target="_top" xlink:title="1">
<text text-anchor="middle" x="215.95" y="-120.47" font-family="Helvetica,sans-Serif" font-size="10.00">1</text>
</a>
</g>
</g>
<!-- dir_1001d9375777bca6b163352cfd2806d0&#45;&gt;dir_e9df31ba243be114ece5c381e35ff9ef -->
<g id="edge9" class="edge">
<title>dir_1001d9375777bca6b163352cfd2806d0&#45;&gt;dir_e9df31ba243be114ece5c381e35ff9ef</title>
<path fill="none" stroke="black" d="M49.02,-36.1C57.78,-44.47 67.63,-54.69 75.86,-63.92"/>
<polygon fill="black" stroke="black" points="73.4,-66.44 82.6,-71.7 78.69,-61.85 73.4,-66.44"/>
<g id="a_edge9&#45;headlabel"><a xlink:href="dir_000037_000036.html" target="_top" xlink:title="4">
<text text-anchor="middle" x="68.9" y="-63.08" font-family="Helvetica,sans-Serif" font-size="10.00">4</text>
</a>
</g>
</g>
<!-- dir_1001d9375777bca6b163352cfd2806d0&#45;&gt;dir_e9f1c1650c19b82a0c277165906fd6a6 -->
<g id="edge8" class="edge">
<title>dir_1001d9375777bca6b163352cfd2806d0&#45;&gt;dir_e9f1c1650c19b82a0c277165906fd6a6</title>
<path fill="none" stroke="black" d="M21.24,-36.24C14.39,-59.93 5.8,-103.21 22,-135 42.53,-175.28 88.22,-202.87 120.75,-218.27"/>
<polygon fill="black" stroke="black" points="119.41,-221.51 129.96,-222.48 122.31,-215.14 119.41,-221.51"/>
<g id="a_edge8&#45;headlabel"><a xlink:href="dir_000037_000034.html" target="_top" xlink:title="9">
<text text-anchor="middle" x="114.96" y="-220.1" font-family="Helvetica,sans-Serif" font-size="10.00">9</text>
</a>
</g>
</g>
<!-- dir_1001d9375777bca6b163352cfd2806d0&#45;&gt;dir_6397249ce6bfc04c3a0c6a8eb78ef0ba -->
<g id="edge10" class="edge">
<title>dir_1001d9375777bca6b163352cfd2806d0&#45;&gt;dir_6397249ce6bfc04c3a0c6a8eb78ef0ba</title>
<path fill="none" stroke="black" d="M30.96,-36.13C32.44,-61.29 33.29,-108.17 59,-135 67.41,-143.78 93.87,-150.25 117.27,-154.54"/>
<polygon fill="black" stroke="black" points="116.94,-158.04 127.39,-156.31 118.14,-151.14 116.94,-158.04"/>
<g id="a_edge10&#45;headlabel"><a xlink:href="dir_000037_000007.html" target="_top" xlink:title="10">
<text text-anchor="middle" x="112.91" y="-157.72" font-family="Helvetica,sans-Serif" font-size="10.00">10</text>
</a>
</g>
</g>
<!-- dir_400d2db5f3c79ddc8fd4d8c2b3b8c693&#45;&gt;dir_6397249ce6bfc04c3a0c6a8eb78ef0ba -->
<g id="edge11" class="edge">
<title>dir_400d2db5f3c79ddc8fd4d8c2b3b8c693&#45;&gt;dir_6397249ce6bfc04c3a0c6a8eb78ef0ba</title>
<path fill="none" stroke="black" d="M161.59,-36.19C164.15,-60.42 164.43,-104.89 162.45,-133.68"/>
<polygon fill="black" stroke="black" points="158.95,-133.61 161.58,-143.87 165.92,-134.21 158.95,-133.61"/>
<g id="a_edge11&#45;headlabel"><a xlink:href="dir_000035_000007.html" target="_top" xlink:title="8">
<text text-anchor="middle" x="156.42" y="-127.29" font-family="Helvetica,sans-Serif" font-size="10.00">8</text>
</a>
</g>
</g>
<!-- dir_400d2db5f3c79ddc8fd4d8c2b3b8c693&#45;&gt;dir_aaff6fcc3ba688745620d6ac129881b8 -->
<g id="edge12" class="edge">
<title>dir_400d2db5f3c79ddc8fd4d8c2b3b8c693&#45;&gt;dir_aaff6fcc3ba688745620d6ac129881b8</title>
<path fill="none" stroke="black" d="M179.51,-36.1C188.6,-44.55 198.85,-54.9 207.4,-64.2"/>
<polygon fill="black" stroke="black" points="204.83,-66.58 214.11,-71.7 210.05,-61.91 204.83,-66.58"/>
<g id="a_edge12&#45;headlabel"><a xlink:href="dir_000035_000032.html" target="_top" xlink:title="1">
<text text-anchor="middle" x="200.32" y="-63.29" font-family="Helvetica,sans-Serif" font-size="10.00">1</text>
</a>
</g>
</g>
<!-- dir_6397249ce6bfc04c3a0c6a8eb78ef0ba&#45;&gt;dir_e9df31ba243be114ece5c381e35ff9ef -->
<g id="edge14" class="edge">
<title>dir_6397249ce6bfc04c3a0c6a8eb78ef0ba&#45;&gt;dir_e9df31ba243be114ece5c381e35ff9ef</title>
<path fill="none" stroke="black" d="M147.1,-143.7C140.15,-135.14 130.75,-124.66 121.68,-115.3"/>
<polygon fill="black" stroke="black" points="124.06,-112.73 114.53,-108.1 119.1,-117.67 124.06,-112.73"/>
<g id="a_edge14&#45;headlabel"><a xlink:href="dir_000007_000036.html" target="_top" xlink:title="1">
<text text-anchor="middle" x="128.61" y="-110.78" font-family="Helvetica,sans-Serif" font-size="10.00">1</text>
</a>
</g>
</g>
<!-- dir_6397249ce6bfc04c3a0c6a8eb78ef0ba&#45;&gt;dir_e9f1c1650c19b82a0c277165906fd6a6 -->
<g id="edge13" class="edge">
<title>dir_6397249ce6bfc04c3a0c6a8eb78ef0ba&#45;&gt;dir_e9f1c1650c19b82a0c277165906fd6a6</title>
<path fill="none" stroke="black" d="M162.9,-180.1C163.7,-187.79 163.94,-197.05 163.6,-205.67"/>
<polygon fill="black" stroke="black" points="160.11,-205.48 162.92,-215.7 167.09,-205.96 160.11,-205.48"/>
<g id="a_edge13&#45;headlabel"><a xlink:href="dir_000007_000034.html" target="_top" xlink:title="5">
<text text-anchor="middle" x="157.52" y="-199.2" font-family="Helvetica,sans-Serif" font-size="10.00">5</text>
</a>
</g>
</g>
<!-- dir_6397249ce6bfc04c3a0c6a8eb78ef0ba&#45;&gt;dir_1001d9375777bca6b163352cfd2806d0 -->
<g id="edge15" class="edge">
<title>dir_6397249ce6bfc04c3a0c6a8eb78ef0ba&#45;&gt;dir_1001d9375777bca6b163352cfd2806d0</title>
<path fill="none" stroke="black" d="M127.4,-158.27C96.77,-154.53 52.37,-146.87 41,-135 18.4,-111.42 15.01,-72.35 17.84,-46.15"/>
<polygon fill="black" stroke="black" points="21.32,-46.53 19.33,-36.13 14.39,-45.5 21.32,-46.53"/>
<g id="a_edge15&#45;headlabel"><a xlink:href="dir_000007_000037.html" target="_top" xlink:title="1">
<text text-anchor="middle" x="23.6" y="-48.01" font-family="Helvetica,sans-Serif" font-size="10.00">1</text>
</a>
</g>
</g>
<!-- dir_6397249ce6bfc04c3a0c6a8eb78ef0ba&#45;&gt;dir_400d2db5f3c79ddc8fd4d8c2b3b8c693 -->
<g id="edge16" class="edge">
<title>dir_6397249ce6bfc04c3a0c6a8eb78ef0ba&#45;&gt;dir_400d2db5f3c79ddc8fd4d8c2b3b8c693</title>
<path fill="none" stroke="black" d="M152.42,-143.87C149.86,-119.67 149.57,-75.21 151.54,-46.39"/>
<polygon fill="black" stroke="black" points="155.05,-46.45 152.41,-36.19 148.07,-45.86 155.05,-46.45"/>
<g id="a_edge16&#45;headlabel"><a xlink:href="dir_000007_000035.html" target="_top" xlink:title="4">
<text text-anchor="middle" x="157.57" y="-47.77" font-family="Helvetica,sans-Serif" font-size="10.00">4</text>
</a>
</g>
</g>
<!-- dir_6397249ce6bfc04c3a0c6a8eb78ef0ba&#45;&gt;dir_aaff6fcc3ba688745620d6ac129881b8 -->
<g id="edge17" class="edge">
<title>dir_6397249ce6bfc04c3a0c6a8eb78ef0ba&#45;&gt;dir_aaff6fcc3ba688745620d6ac129881b8</title>
<path fill="none" stroke="black" d="M167.89,-143.7C175.4,-135.05 185.52,-124.45 195.21,-115.03"/>
<polygon fill="black" stroke="black" points="197.66,-117.53 202.49,-108.1 192.83,-112.46 197.66,-117.53"/>
<g id="a_edge17&#45;headlabel"><a xlink:href="dir_000007_000032.html" target="_top" xlink:title="5">
<text text-anchor="middle" x="197.01" y="-119.57" font-family="Helvetica,sans-Serif" font-size="10.00">5</text>
</a>
</g>
</g>
<!-- dir_aaff6fcc3ba688745620d6ac129881b8&#45;&gt;dir_e9df31ba243be114ece5c381e35ff9ef -->
<g id="edge19" class="edge">
<title>dir_aaff6fcc3ba688745620d6ac129881b8&#45;&gt;dir_e9df31ba243be114ece5c381e35ff9ef</title>
<path fill="none" stroke="black" d="M194.26,-90C172.91,-90 151.56,-90 130.21,-90"/>
<polygon fill="black" stroke="black" points="130.07,-86.5 120.07,-90 130.07,-93.5 130.07,-86.5"/>
<g id="a_edge19&#45;headlabel"><a xlink:href="dir_000032_000036.html" target="_top" xlink:title="6">
<text text-anchor="middle" x="133.66" y="-81.16" font-family="Helvetica,sans-Serif" font-size="10.00">6</text>
</a>
</g>
</g>
<!-- dir_aaff6fcc3ba688745620d6ac129881b8&#45;&gt;dir_e9f1c1650c19b82a0c277165906fd6a6 -->
<g id="edge18" class="edge">
<title>dir_aaff6fcc3ba688745620d6ac129881b8&#45;&gt;dir_e9f1c1650c19b82a0c277165906fd6a6</title>
<path fill="none" stroke="black" d="M227.81,-108.04C225.66,-126.44 217.18,-156.3 205,-180 200.01,-189.7 193.32,-199.54 186.42,-208.06"/>
<polygon fill="black" stroke="black" points="183.65,-205.92 179.79,-215.78 188.96,-210.48 183.65,-205.92"/>
<g id="a_edge18&#45;headlabel"><a xlink:href="dir_000032_000034.html" target="_top" xlink:title="69">
<text text-anchor="middle" x="183.84" y="-198.84" font-family="Helvetica,sans-Serif" font-size="10.00">69</text>
</a>
</g>
</g>
<!-- dir_aaff6fcc3ba688745620d6ac129881b8&#45;&gt;dir_1001d9375777bca6b163352cfd2806d0 -->
<g id="edge20" class="edge">
<title>dir_aaff6fcc3ba688745620d6ac129881b8&#45;&gt;dir_1001d9375777bca6b163352cfd2806d0</title>
<path fill="none" stroke="black" d="M194.5,-78.22C159.25,-65.75 101.27,-45.26 63.61,-31.94"/>
<polygon fill="black" stroke="black" points="64.63,-28.59 54.04,-28.56 62.3,-35.19 64.63,-28.59"/>
<g id="a_edge20&#45;headlabel"><a xlink:href="dir_000032_000037.html" target="_top" xlink:title="79">
<text text-anchor="middle" x="68.97" y="-24.61" font-family="Helvetica,sans-Serif" font-size="10.00">79</text>
</a>
</g>
</g>
<!-- dir_aaff6fcc3ba688745620d6ac129881b8&#45;&gt;dir_400d2db5f3c79ddc8fd4d8c2b3b8c693 -->
<g id="edge21" class="edge">
<title>dir_aaff6fcc3ba688745620d6ac129881b8&#45;&gt;dir_400d2db5f3c79ddc8fd4d8c2b3b8c693</title>
<path fill="none" stroke="black" d="M202.28,-71.7C193.17,-63.22 182.92,-52.86 174.4,-43.58"/>
<polygon fill="black" stroke="black" points="176.99,-41.23 167.72,-36.1 171.77,-45.89 176.99,-41.23"/>
<g id="a_edge21&#45;headlabel"><a xlink:href="dir_000032_000035.html" target="_top" xlink:title="38">
<text text-anchor="middle" x="181.51" y="-39.52" font-family="Helvetica,sans-Serif" font-size="10.00">38</text>
</a>
</g>
</g>
<!-- dir_aaff6fcc3ba688745620d6ac129881b8&#45;&gt;dir_6397249ce6bfc04c3a0c6a8eb78ef0ba -->
<g id="edge22" class="edge">
<title>dir_aaff6fcc3ba688745620d6ac129881b8&#45;&gt;dir_6397249ce6bfc04c3a0c6a8eb78ef0ba</title>
<path fill="none" stroke="black" d="M214.28,-108.1C206.81,-116.72 196.71,-127.32 187.01,-136.76"/>
<polygon fill="black" stroke="black" points="184.55,-134.26 179.72,-143.7 189.38,-139.33 184.55,-134.26"/>
<g id="a_edge22&#45;headlabel"><a xlink:href="dir_000032_000007.html" target="_top" xlink:title="67">
<text text-anchor="middle" x="185.19" y="-127.23" font-family="Helvetica,sans-Serif" font-size="10.00">67</text>
</a>
</g>
</g>
</g>
</svg>
