<?xml version="1.0" encoding="UTF-8" standalone="no"?>
<!DOCTYPE svg PUBLIC "-//W3C//DTD SVG 1.1//EN"
 "http://www.w3.org/Graphics/SVG/1.1/DTD/svg11.dtd">
<!-- Generated by graphviz version 2.43.0 (0)
 -->
<!-- Title: /build/rawspeed/fuzz/librawspeed Pages: 1 -->
<svg width="393pt" height="231pt"
 viewBox="0.00 0.00 393.00 231.00" xmlns="http://www.w3.org/2000/svg" xmlns:xlink="http://www.w3.org/1999/xlink">
<g id="graph0" class="graph" transform="scale(1 1) rotate(0) translate(4 227)">
<title>/build/rawspeed/fuzz/librawspeed</title>
<g id="clust1" class="cluster">
<title>clusterdir_b05962af846a36bbc52d05dfc046b2b4</title>
<g id="a_clust1"><a xlink:href="dir_b05962af846a36bbc52d05dfc046b2b4.html" target="_top" xlink:title="fuzz">
<polygon fill="#ddddee" stroke="black" points="8,-56 8,-215 377,-215 377,-56 8,-56"/>
<text text-anchor="middle" x="192.5" y="-203" font-family="Helvetica,sans-Serif" font-size="10.00">fuzz</text>
</a>
</g>
</g>
<g id="clust2" class="cluster">
<title>clusterdir_a42184205f101843cf5fa2faebc5894c</title>
<g id="a_clust2"><a xlink:href="dir_a42184205f101843cf5fa2faebc5894c.html" target="_top">
<polygon fill="#eeeeff" stroke="black" points="16,-64 16,-188 369,-188 369,-64 16,-64"/>
</a>
</g>
</g>
<!-- dir_a42184205f101843cf5fa2faebc5894c -->
<g id="node1" class="node">
<title>dir_a42184205f101843cf5fa2faebc5894c</title>
<text text-anchor="middle" x="323" y="-159.5" font-family="Helvetica,sans-Serif" font-size="10.00">librawspeed</text>
</g>
<!-- dir_449eca77f8ff1e37f653333363d26497 -->
<g id="node2" class="node">
<title>dir_449eca77f8ff1e37f653333363d26497</title>
<g id="a_node2"><a xlink:href="dir_449eca77f8ff1e37f653333363d26497.html" target="_top" xlink:title="decoders">
<polygon fill="white" stroke="red" points="194.5,-180 133.5,-180 133.5,-144 194.5,-144 194.5,-180"/>
<text text-anchor="middle" x="164" y="-159.5" font-family="Helvetica,sans-Serif" font-size="10.00">decoders</text>
</a>
</g>
</g>
<!-- dir_f2c2f92fc9ab59bc1f604f164a41f5f5 -->
<g id="node6" class="node">
<title>dir_f2c2f92fc9ab59bc1f604f164a41f5f5</title>
<g id="a_node6"><a xlink:href="dir_f2c2f92fc9ab59bc1f604f164a41f5f5.html" target="_top" xlink:title="librawspeed">
<polygon fill="none" stroke="red" points="182,-36 106,-36 106,0 182,0 182,-36"/>
<text text-anchor="middle" x="144" y="-15.5" font-family="Helvetica,sans-Serif" font-size="10.00">librawspeed</text>
</a>
</g>
</g>
<!-- dir_449eca77f8ff1e37f653333363d26497&#45;&gt;dir_f2c2f92fc9ab59bc1f604f164a41f5f5 -->
<g id="edge1" class="edge">
<title>dir_449eca77f8ff1e37f653333363d26497&#45;&gt;dir_f2c2f92fc9ab59bc1f604f164a41f5f5</title>
<path fill="none" stroke="black" d="M161.59,-143.87C158.18,-119.67 151.92,-75.21 147.86,-46.39"/>
<polygon fill="black" stroke="black" points="151.28,-45.6 146.42,-36.19 144.35,-46.58 151.28,-45.6"/>
<g id="a_edge1&#45;headlabel"><a xlink:href="dir_000016_000006.html" target="_top" xlink:title="21">
<text text-anchor="middle" x="154.59" y="-46.27" font-family="Helvetica,sans-Serif" font-size="10.00">21</text>
</a>
</g>
</g>
<!-- dir_7aed6fdc58e453d87f310a8fe98c3bc3 -->
<g id="node3" class="node">
<title>dir_7aed6fdc58e453d87f310a8fe98c3bc3</title>
<g id="a_node3"><a xlink:href="dir_7aed6fdc58e453d87f310a8fe98c3bc3.html" target="_top" xlink:title="decompressors">
<polygon fill="white" stroke="red" points="115.5,-180 24.5,-180 24.5,-144 115.5,-144 115.5,-180"/>
<text text-anchor="middle" x="70" y="-159.5" font-family="Helvetica,sans-Serif" font-size="10.00">decompressors</text>
</a>
</g>
</g>
<!-- dir_28d3b3cfb558b3ae5174a729801a2ee8 -->
<g id="node4" class="node">
<title>dir_28d3b3cfb558b3ae5174a729801a2ee8</title>
<g id="a_node4"><a xlink:href="dir_28d3b3cfb558b3ae5174a729801a2ee8.html" target="_top" xlink:title="fuzz">
<polygon fill="white" stroke="black" points="97,-108 43,-108 43,-72 97,-72 97,-108"/>
<text text-anchor="middle" x="70" y="-87.5" font-family="Helvetica,sans-Serif" font-size="10.00">fuzz</text>
</a>
</g>
</g>
<!-- dir_7aed6fdc58e453d87f310a8fe98c3bc3&#45;&gt;dir_28d3b3cfb558b3ae5174a729801a2ee8 -->
<g id="edge3" class="edge">
<title>dir_7aed6fdc58e453d87f310a8fe98c3bc3&#45;&gt;dir_28d3b3cfb558b3ae5174a729801a2ee8</title>
<path fill="none" stroke="black" d="M70,-143.7C70,-135.98 70,-126.71 70,-118.11"/>
<polygon fill="black" stroke="black" points="73.5,-118.1 70,-108.1 66.5,-118.1 73.5,-118.1"/>
<g id="a_edge3&#45;headlabel"><a xlink:href="dir_000008_000005.html" target="_top" xlink:title="20">
<text text-anchor="middle" x="76.34" y="-119.2" font-family="Helvetica,sans-Serif" font-size="10.00">20</text>
</a>
</g>
</g>
<!-- dir_7aed6fdc58e453d87f310a8fe98c3bc3&#45;&gt;dir_f2c2f92fc9ab59bc1f604f164a41f5f5 -->
<g id="edge2" class="edge">
<title>dir_7aed6fdc58e453d87f310a8fe98c3bc3&#45;&gt;dir_f2c2f92fc9ab59bc1f604f164a41f5f5</title>
<path fill="none" stroke="black" d="M82.88,-143.87C90.17,-133.74 99.17,-120.49 106,-108 117.03,-87.82 127.13,-63.77 134.14,-45.76"/>
<polygon fill="black" stroke="black" points="137.5,-46.78 137.8,-36.19 130.96,-44.28 137.5,-46.78"/>
<g id="a_edge2&#45;headlabel"><a xlink:href="dir_000008_000006.html" target="_top" xlink:title="149">
<text text-anchor="middle" x="138.87" y="-48.65" font-family="Helvetica,sans-Serif" font-size="10.00">149</text>
</a>
</g>
</g>
<!-- dir_28d3b3cfb558b3ae5174a729801a2ee8&#45;&gt;dir_f2c2f92fc9ab59bc1f604f164a41f5f5 -->
<g id="edge5" class="edge">
<title>dir_28d3b3cfb558b3ae5174a729801a2ee8&#45;&gt;dir_f2c2f92fc9ab59bc1f604f164a41f5f5</title>
<path fill="none" stroke="black" d="M88.29,-71.7C97.43,-63.05 108.64,-52.45 118.6,-43.03"/>
<polygon fill="black" stroke="black" points="121.06,-45.52 125.92,-36.1 116.25,-40.43 121.06,-45.52"/>
<g id="a_edge5&#45;headlabel"><a xlink:href="dir_000005_000006.html" target="_top" xlink:title="9">
<text text-anchor="middle" x="120.4" y="-47.55" font-family="Helvetica,sans-Serif" font-size="10.00">9</text>
</a>
</g>
</g>
<!-- dir_12e4b73062f86aa44c8895ae3e33f24b -->
<g id="node5" class="node">
<title>dir_12e4b73062f86aa44c8895ae3e33f24b</title>
<g id="a_node5"><a xlink:href="dir_12e4b73062f86aa44c8895ae3e33f24b.html" target="_top" xlink:title="parsers">
<polygon fill="white" stroke="black" points="267,-180 213,-180 213,-144 267,-144 267,-180"/>
<text text-anchor="middle" x="240" y="-159.5" font-family="Helvetica,sans-Serif" font-size="10.00">parsers</text>
</a>
</g>
</g>
<!-- dir_12e4b73062f86aa44c8895ae3e33f24b&#45;&gt;dir_f2c2f92fc9ab59bc1f604f164a41f5f5 -->
<g id="edge4" class="edge">
<title>dir_12e4b73062f86aa44c8895ae3e33f24b&#45;&gt;dir_f2c2f92fc9ab59bc1f604f164a41f5f5</title>
<path fill="none" stroke="black" d="M228.42,-143.87C211.7,-119.14 180.67,-73.24 161.25,-44.51"/>
<polygon fill="black" stroke="black" points="164.12,-42.51 155.62,-36.19 158.32,-46.43 164.12,-42.51"/>
<g id="a_edge4&#45;headlabel"><a xlink:href="dir_000018_000006.html" target="_top" xlink:title="7">
<text text-anchor="middle" x="168.49" y="-41.4" font-family="Helvetica,sans-Serif" font-size="10.00">7</text>
</a>
</g>
</g>
</g>
</svg>
