<?xml version="1.0" encoding="UTF-8" standalone="no"?>
<!DOCTYPE svg PUBLIC "-//W3C//DTD SVG 1.1//EN"
 "http://www.w3.org/Graphics/SVG/1.1/DTD/svg11.dtd">
<!-- Generated by graphviz version 2.43.0 (0)
 -->
<!-- Title: /build/rawspeed/test/librawspeed Pages: 1 -->
<svg width="545pt" height="159pt"
 viewBox="0.00 0.00 545.00 159.00" xmlns="http://www.w3.org/2000/svg" xmlns:xlink="http://www.w3.org/1999/xlink">
<g id="graph0" class="graph" transform="scale(1 1) rotate(0) translate(4 155)">
<title>/build/rawspeed/test/librawspeed</title>
<g id="clust1" class="cluster">
<title>clusterdir_13e138d54eb8818da29c3992edef070a</title>
<g id="a_clust1"><a xlink:href="dir_13e138d54eb8818da29c3992edef070a.html" target="_top" xlink:title="test">
<polygon fill="#ddddee" stroke="black" points="8,-56 8,-143 529,-143 529,-56 8,-56"/>
<text text-anchor="middle" x="268.5" y="-131" font-family="Helvetica,sans-Serif" font-size="10.00">test</text>
</a>
</g>
</g>
<g id="clust2" class="cluster">
<title>clusterdir_5b337b119357fd7c4fb79d5342c88964</title>
<g id="a_clust2"><a xlink:href="dir_5b337b119357fd7c4fb79d5342c88964.html" target="_top">
<polygon fill="#eeeeff" stroke="black" points="16,-64 16,-116 521,-116 521,-64 16,-64"/>
</a>
</g>
</g>
<!-- dir_5b337b119357fd7c4fb79d5342c88964 -->
<g id="node1" class="node">
<title>dir_5b337b119357fd7c4fb79d5342c88964</title>
<text text-anchor="middle" x="475" y="-87.5" font-family="Helvetica,sans-Serif" font-size="10.00">librawspeed</text>
</g>
<!-- dir_eb73342834358463473276692f58370b -->
<g id="node2" class="node">
<title>dir_eb73342834358463473276692f58370b</title>
<g id="a_node2"><a xlink:href="dir_eb73342834358463473276692f58370b.html" target="_top" xlink:title="common">
<polygon fill="white" stroke="black" points="418.5,-108 359.5,-108 359.5,-72 418.5,-72 418.5,-108"/>
<text text-anchor="middle" x="389" y="-87.5" font-family="Helvetica,sans-Serif" font-size="10.00">common</text>
</a>
</g>
</g>
<!-- dir_f2c2f92fc9ab59bc1f604f164a41f5f5 -->
<g id="node7" class="node">
<title>dir_f2c2f92fc9ab59bc1f604f164a41f5f5</title>
<g id="a_node7"><a xlink:href="dir_f2c2f92fc9ab59bc1f604f164a41f5f5.html" target="_top" xlink:title="librawspeed">
<polygon fill="none" stroke="red" points="243,-36 167,-36 167,0 243,0 243,-36"/>
<text text-anchor="middle" x="205" y="-15.5" font-family="Helvetica,sans-Serif" font-size="10.00">librawspeed</text>
</a>
</g>
</g>
<!-- dir_eb73342834358463473276692f58370b&#45;&gt;dir_f2c2f92fc9ab59bc1f604f164a41f5f5 -->
<g id="edge3" class="edge">
<title>dir_eb73342834358463473276692f58370b&#45;&gt;dir_f2c2f92fc9ab59bc1f604f164a41f5f5</title>
<path fill="none" stroke="black" d="M372.49,-71.68C366.24,-65.97 358.74,-60.05 351,-56 320.42,-40.02 282.58,-30.68 253.09,-25.39"/>
<polygon fill="black" stroke="black" points="253.47,-21.9 243.03,-23.68 252.3,-28.8 253.47,-21.9"/>
<g id="a_edge3&#45;headlabel"><a xlink:href="dir_000040_000006.html" target="_top" xlink:title="12">
<text text-anchor="middle" x="257.49" y="-17.2" font-family="Helvetica,sans-Serif" font-size="10.00">12</text>
</a>
</g>
</g>
<!-- dir_ed1c22eae245a2cad0b84e254b86dc8d -->
<g id="node3" class="node">
<title>dir_ed1c22eae245a2cad0b84e254b86dc8d</title>
<g id="a_node3"><a xlink:href="dir_ed1c22eae245a2cad0b84e254b86dc8d.html" target="_top" xlink:title="decompressors">
<polygon fill="white" stroke="black" points="341.5,-108 250.5,-108 250.5,-72 341.5,-72 341.5,-108"/>
<text text-anchor="middle" x="296" y="-87.5" font-family="Helvetica,sans-Serif" font-size="10.00">decompressors</text>
</a>
</g>
</g>
<!-- dir_ed1c22eae245a2cad0b84e254b86dc8d&#45;&gt;dir_f2c2f92fc9ab59bc1f604f164a41f5f5 -->
<g id="edge5" class="edge">
<title>dir_ed1c22eae245a2cad0b84e254b86dc8d&#45;&gt;dir_f2c2f92fc9ab59bc1f604f164a41f5f5</title>
<path fill="none" stroke="black" d="M273.51,-71.7C262.04,-62.88 247.94,-52.03 235.52,-42.47"/>
<polygon fill="black" stroke="black" points="237.3,-39.43 227.24,-36.1 233.03,-44.98 237.3,-39.43"/>
<g id="a_edge5&#45;headlabel"><a xlink:href="dir_000041_000006.html" target="_top" xlink:title="8">
<text text-anchor="middle" x="241.88" y="-36.87" font-family="Helvetica,sans-Serif" font-size="10.00">8</text>
</a>
</g>
</g>
<!-- dir_af5d9419de17771ab5048ecf5535bfec -->
<g id="node4" class="node">
<title>dir_af5d9419de17771ab5048ecf5535bfec</title>
<g id="a_node4"><a xlink:href="dir_af5d9419de17771ab5048ecf5535bfec.html" target="_top" xlink:title="io">
<polygon fill="white" stroke="black" points="232,-108 178,-108 178,-72 232,-72 232,-108"/>
<text text-anchor="middle" x="205" y="-87.5" font-family="Helvetica,sans-Serif" font-size="10.00">io</text>
</a>
</g>
</g>
<!-- dir_af5d9419de17771ab5048ecf5535bfec&#45;&gt;dir_f2c2f92fc9ab59bc1f604f164a41f5f5 -->
<g id="edge4" class="edge">
<title>dir_af5d9419de17771ab5048ecf5535bfec&#45;&gt;dir_f2c2f92fc9ab59bc1f604f164a41f5f5</title>
<path fill="none" stroke="black" d="M205,-71.7C205,-63.98 205,-54.71 205,-46.11"/>
<polygon fill="black" stroke="black" points="208.5,-46.1 205,-36.1 201.5,-46.1 208.5,-46.1"/>
<g id="a_edge4&#45;headlabel"><a xlink:href="dir_000042_000006.html" target="_top" xlink:title="13">
<text text-anchor="middle" x="211.34" y="-47.2" font-family="Helvetica,sans-Serif" font-size="10.00">13</text>
</a>
</g>
</g>
<!-- dir_542414fc50990b3301826dd49a24aabd -->
<g id="node5" class="node">
<title>dir_542414fc50990b3301826dd49a24aabd</title>
<g id="a_node5"><a xlink:href="dir_542414fc50990b3301826dd49a24aabd.html" target="_top" xlink:title="metadata">
<polygon fill="white" stroke="black" points="160,-108 96,-108 96,-72 160,-72 160,-108"/>
<text text-anchor="middle" x="128" y="-87.5" font-family="Helvetica,sans-Serif" font-size="10.00">metadata</text>
</a>
</g>
</g>
<!-- dir_542414fc50990b3301826dd49a24aabd&#45;&gt;dir_f2c2f92fc9ab59bc1f604f164a41f5f5 -->
<g id="edge1" class="edge">
<title>dir_542414fc50990b3301826dd49a24aabd&#45;&gt;dir_f2c2f92fc9ab59bc1f604f164a41f5f5</title>
<path fill="none" stroke="black" d="M147.03,-71.7C156.54,-63.05 168.21,-52.45 178.57,-43.03"/>
<polygon fill="black" stroke="black" points="181.14,-45.42 186.19,-36.1 176.43,-40.24 181.14,-45.42"/>
<g id="a_edge1&#45;headlabel"><a xlink:href="dir_000043_000006.html" target="_top" xlink:title="7">
<text text-anchor="middle" x="180.39" y="-47.44" font-family="Helvetica,sans-Serif" font-size="10.00">7</text>
</a>
</g>
</g>
<!-- dir_add7ee6768a497e91f2f4d0f17a9bb95 -->
<g id="node6" class="node">
<title>dir_add7ee6768a497e91f2f4d0f17a9bb95</title>
<g id="a_node6"><a xlink:href="dir_add7ee6768a497e91f2f4d0f17a9bb95.html" target="_top" xlink:title="test">
<polygon fill="white" stroke="black" points="78,-108 24,-108 24,-72 78,-72 78,-108"/>
<text text-anchor="middle" x="51" y="-87.5" font-family="Helvetica,sans-Serif" font-size="10.00">test</text>
</a>
</g>
</g>
<!-- dir_add7ee6768a497e91f2f4d0f17a9bb95&#45;&gt;dir_f2c2f92fc9ab59bc1f604f164a41f5f5 -->
<g id="edge2" class="edge">
<title>dir_add7ee6768a497e91f2f4d0f17a9bb95&#45;&gt;dir_f2c2f92fc9ab59bc1f604f164a41f5f5</title>
<path fill="none" stroke="black" d="M66.63,-71.89C72.55,-66.2 79.65,-60.23 87,-56 108.53,-43.59 134.72,-34.83 156.95,-28.97"/>
<polygon fill="black" stroke="black" points="158.02,-32.31 166.86,-26.48 156.31,-25.52 158.02,-32.31"/>
<g id="a_edge2&#45;headlabel"><a xlink:href="dir_000026_000006.html" target="_top" xlink:title="9">
<text text-anchor="middle" x="155.22" y="-33.44" font-family="Helvetica,sans-Serif" font-size="10.00">9</text>
</a>
</g>
</g>
</g>
</svg>
