<?xml version="1.0" encoding="UTF-8" standalone="no"?>
<!DOCTYPE svg PUBLIC "-//W3C//DTD SVG 1.1//EN"
 "http://www.w3.org/Graphics/SVG/1.1/DTD/svg11.dtd">
<!-- Generated by graphviz version 2.43.0 (0)
 -->
<!-- Title: librawspeed/common Pages: 1 -->
<svg width="285pt" height="260pt"
 viewBox="0.00 0.00 285.32 260.00" xmlns="http://www.w3.org/2000/svg" xmlns:xlink="http://www.w3.org/1999/xlink">
<g id="graph0" class="graph" transform="scale(1 1) rotate(0) translate(4 256)">
<title>librawspeed/common</title>
<g id="clust1" class="cluster">
<title>clusterdir_f2c2f92fc9ab59bc1f604f164a41f5f5</title>
<g id="a_clust1"><a xlink:href="dir_f2c2f92fc9ab59bc1f604f164a41f5f5.html" target="_top" xlink:title="librawspeed">
<polygon fill="#ddddee" stroke="black" points="175.82,-64 175.82,-135 251.82,-135 251.82,-64 175.82,-64"/>
<text text-anchor="middle" x="213.82" y="-123" font-family="Helvetica,sans-Serif" font-size="10.00">librawspeed</text>
</a>
</g>
</g>
<!-- dir_6397249ce6bfc04c3a0c6a8eb78ef0ba -->
<g id="node1" class="node">
<title>dir_6397249ce6bfc04c3a0c6a8eb78ef0ba</title>
<g id="a_node1"><a xlink:href="dir_6397249ce6bfc04c3a0c6a8eb78ef0ba.html" target="_top" xlink:title="common">
<polygon fill="#eeeeff" stroke="black" points="243.32,-108 184.32,-108 184.32,-72 243.32,-72 243.32,-108"/>
<text text-anchor="middle" x="213.82" y="-87.5" font-family="Helvetica,sans-Serif" font-size="10.00">common</text>
</a>
</g>
</g>
<!-- dir_e9f1c1650c19b82a0c277165906fd6a6 -->
<g id="node2" class="node">
<title>dir_e9f1c1650c19b82a0c277165906fd6a6</title>
<g id="a_node2"><a xlink:href="dir_e9f1c1650c19b82a0c277165906fd6a6.html" target="_top" xlink:title="io">
<polygon fill="none" stroke="black" points="143.82,-252 89.82,-252 89.82,-216 143.82,-216 143.82,-252"/>
<text text-anchor="middle" x="116.82" y="-231.5" font-family="Helvetica,sans-Serif" font-size="10.00">io</text>
</a>
</g>
</g>
<!-- dir_6397249ce6bfc04c3a0c6a8eb78ef0ba&#45;&gt;dir_e9f1c1650c19b82a0c277165906fd6a6 -->
<g id="edge14" class="edge">
<title>dir_6397249ce6bfc04c3a0c6a8eb78ef0ba&#45;&gt;dir_e9f1c1650c19b82a0c277165906fd6a6</title>
<path fill="none" stroke="black" d="M202.98,-108.25C191.54,-126.33 172.83,-155.44 155.82,-180 149.47,-189.16 142.3,-199.02 135.86,-207.74"/>
<polygon fill="black" stroke="black" points="132.88,-205.88 129.71,-215.99 138.49,-210.06 132.88,-205.88"/>
<g id="a_edge14&#45;headlabel"><a xlink:href="dir_000007_000034.html" target="_top" xlink:title="5">
<text text-anchor="middle" x="132.75" y="-198.8" font-family="Helvetica,sans-Serif" font-size="10.00">5</text>
</a>
</g>
</g>
<!-- dir_e9df31ba243be114ece5c381e35ff9ef -->
<g id="node3" class="node">
<title>dir_e9df31ba243be114ece5c381e35ff9ef</title>
<g id="a_node3"><a xlink:href="dir_e9df31ba243be114ece5c381e35ff9ef.html" target="_top" xlink:title="parsers">
<polygon fill="none" stroke="black" points="71.82,-108 17.82,-108 17.82,-72 71.82,-72 71.82,-108"/>
<text text-anchor="middle" x="44.82" y="-87.5" font-family="Helvetica,sans-Serif" font-size="10.00">parsers</text>
</a>
</g>
</g>
<!-- dir_6397249ce6bfc04c3a0c6a8eb78ef0ba&#45;&gt;dir_e9df31ba243be114ece5c381e35ff9ef -->
<g id="edge15" class="edge">
<title>dir_6397249ce6bfc04c3a0c6a8eb78ef0ba&#45;&gt;dir_e9df31ba243be114ece5c381e35ff9ef</title>
<path fill="none" stroke="black" d="M184.16,-90C150.09,-90 116.03,-90 81.97,-90"/>
<polygon fill="black" stroke="black" points="81.88,-86.5 71.88,-90 81.88,-93.5 81.88,-86.5"/>
<g id="a_edge15&#45;headlabel"><a xlink:href="dir_000007_000036.html" target="_top" xlink:title="1">
<text text-anchor="middle" x="85.48" y="-81.16" font-family="Helvetica,sans-Serif" font-size="10.00">1</text>
</a>
</g>
</g>
<!-- dir_1001d9375777bca6b163352cfd2806d0 -->
<g id="node4" class="node">
<title>dir_1001d9375777bca6b163352cfd2806d0</title>
<g id="a_node4"><a xlink:href="dir_1001d9375777bca6b163352cfd2806d0.html" target="_top" xlink:title="tiff">
<polygon fill="none" stroke="black" points="71.82,-36 17.82,-36 17.82,0 71.82,0 71.82,-36"/>
<text text-anchor="middle" x="44.82" y="-15.5" font-family="Helvetica,sans-Serif" font-size="10.00">tiff</text>
</a>
</g>
</g>
<!-- dir_6397249ce6bfc04c3a0c6a8eb78ef0ba&#45;&gt;dir_1001d9375777bca6b163352cfd2806d0 -->
<g id="edge16" class="edge">
<title>dir_6397249ce6bfc04c3a0c6a8eb78ef0ba&#45;&gt;dir_1001d9375777bca6b163352cfd2806d0</title>
<path fill="none" stroke="black" d="M184.32,-78.82C155.7,-67.8 112.44,-50.03 81.61,-36.71"/>
<polygon fill="black" stroke="black" points="82.64,-33.34 72.08,-32.56 79.85,-39.76 82.64,-33.34"/>
<g id="a_edge16&#45;headlabel"><a xlink:href="dir_000007_000037.html" target="_top" xlink:title="1">
<text text-anchor="middle" x="87.07" y="-29.67" font-family="Helvetica,sans-Serif" font-size="10.00">1</text>
</a>
</g>
</g>
<!-- dir_400d2db5f3c79ddc8fd4d8c2b3b8c693 -->
<g id="node5" class="node">
<title>dir_400d2db5f3c79ddc8fd4d8c2b3b8c693</title>
<g id="a_node5"><a xlink:href="dir_400d2db5f3c79ddc8fd4d8c2b3b8c693.html" target="_top" xlink:title="metadata">
<polygon fill="none" stroke="black" points="178.82,-36 114.82,-36 114.82,0 178.82,0 178.82,-36"/>
<text text-anchor="middle" x="146.82" y="-15.5" font-family="Helvetica,sans-Serif" font-size="10.00">metadata</text>
</a>
</g>
</g>
<!-- dir_6397249ce6bfc04c3a0c6a8eb78ef0ba&#45;&gt;dir_400d2db5f3c79ddc8fd4d8c2b3b8c693 -->
<g id="edge17" class="edge">
<title>dir_6397249ce6bfc04c3a0c6a8eb78ef0ba&#45;&gt;dir_400d2db5f3c79ddc8fd4d8c2b3b8c693</title>
<path fill="none" stroke="black" d="M191.34,-71.7C182.44,-63.3 172.45,-53.07 164.12,-43.86"/>
<polygon fill="black" stroke="black" points="166.53,-41.3 157.29,-36.1 161.27,-45.92 166.53,-41.3"/>
<g id="a_edge17&#45;headlabel"><a xlink:href="dir_000007_000035.html" target="_top" xlink:title="4">
<text text-anchor="middle" x="171.03" y="-39.62" font-family="Helvetica,sans-Serif" font-size="10.00">4</text>
</a>
</g>
</g>
<!-- dir_aaff6fcc3ba688745620d6ac129881b8 -->
<g id="node6" class="node">
<title>dir_aaff6fcc3ba688745620d6ac129881b8</title>
<g id="a_node6"><a xlink:href="dir_aaff6fcc3ba688745620d6ac129881b8.html" target="_top" xlink:title="decoders">
<polygon fill="none" stroke="black" points="147.32,-180 86.32,-180 86.32,-144 147.32,-144 147.32,-180"/>
<text text-anchor="middle" x="116.82" y="-159.5" font-family="Helvetica,sans-Serif" font-size="10.00">decoders</text>
</a>
</g>
</g>
<!-- dir_6397249ce6bfc04c3a0c6a8eb78ef0ba&#45;&gt;dir_aaff6fcc3ba688745620d6ac129881b8 -->
<g id="edge18" class="edge">
<title>dir_6397249ce6bfc04c3a0c6a8eb78ef0ba&#45;&gt;dir_aaff6fcc3ba688745620d6ac129881b8</title>
<path fill="none" stroke="black" d="M191.06,-108.24C182.03,-116.98 171.54,-127.33 160.82,-135 158.99,-136.31 157.08,-137.58 155.14,-138.82"/>
<polygon fill="black" stroke="black" points="153.23,-135.88 146.41,-144 156.8,-141.9 153.23,-135.88"/>
<g id="a_edge18&#45;headlabel"><a xlink:href="dir_000007_000032.html" target="_top" xlink:title="5">
<text text-anchor="middle" x="154.87" y="-129.11" font-family="Helvetica,sans-Serif" font-size="10.00">5</text>
</a>
</g>
</g>
<!-- dir_805a0af995e93a362739e98abd740eb2 -->
<g id="node7" class="node">
<title>dir_805a0af995e93a362739e98abd740eb2</title>
<g id="a_node7"><a xlink:href="dir_805a0af995e93a362739e98abd740eb2.html" target="_top" xlink:title="external">
<polygon fill="none" stroke="red" points="277.32,-36 220.32,-36 220.32,0 277.32,0 277.32,-36"/>
<text text-anchor="middle" x="248.82" y="-15.5" font-family="Helvetica,sans-Serif" font-size="10.00">external</text>
</a>
</g>
</g>
<!-- dir_6397249ce6bfc04c3a0c6a8eb78ef0ba&#45;&gt;dir_805a0af995e93a362739e98abd740eb2 -->
<g id="edge19" class="edge">
<title>dir_6397249ce6bfc04c3a0c6a8eb78ef0ba&#45;&gt;dir_805a0af995e93a362739e98abd740eb2</title>
<path fill="none" stroke="black" d="M222.47,-71.7C226.45,-63.73 231.27,-54.1 235.69,-45.26"/>
<polygon fill="black" stroke="black" points="238.92,-46.61 240.27,-36.1 232.66,-43.48 238.92,-46.61"/>
<g id="a_edge19&#45;headlabel"><a xlink:href="dir_000007_000029.html" target="_top" xlink:title="4">
<text text-anchor="middle" x="239.86" y="-48.6" font-family="Helvetica,sans-Serif" font-size="10.00">4</text>
</a>
</g>
</g>
<!-- dir_e9f1c1650c19b82a0c277165906fd6a6&#45;&gt;dir_6397249ce6bfc04c3a0c6a8eb78ef0ba -->
<g id="edge1" class="edge">
<title>dir_e9f1c1650c19b82a0c277165906fd6a6&#45;&gt;dir_6397249ce6bfc04c3a0c6a8eb78ef0ba</title>
<path fill="none" stroke="black" d="M144.07,-219.31C159.62,-210.17 178.27,-196.77 189.82,-180 202.47,-161.63 208.46,-136.87 211.29,-118.13"/>
<polygon fill="black" stroke="black" points="214.77,-118.52 212.59,-108.15 207.83,-117.62 214.77,-118.52"/>
<g id="a_edge1&#45;headlabel"><a xlink:href="dir_000034_000007.html" target="_top" xlink:title="8">
<text text-anchor="middle" x="217.12" y="-119.95" font-family="Helvetica,sans-Serif" font-size="10.00">8</text>
</a>
</g>
</g>
<!-- dir_e9f1c1650c19b82a0c277165906fd6a6&#45;&gt;dir_aaff6fcc3ba688745620d6ac129881b8 -->
<g id="edge2" class="edge">
<title>dir_e9f1c1650c19b82a0c277165906fd6a6&#45;&gt;dir_aaff6fcc3ba688745620d6ac129881b8</title>
<path fill="none" stroke="black" d="M110.9,-215.7C110.11,-207.98 109.88,-198.71 110.22,-190.11"/>
<polygon fill="black" stroke="black" points="113.72,-190.32 110.92,-180.1 106.73,-189.84 113.72,-190.32"/>
<g id="a_edge2&#45;headlabel"><a xlink:href="dir_000034_000032.html" target="_top" xlink:title="1">
<text text-anchor="middle" x="116.3" y="-191.61" font-family="Helvetica,sans-Serif" font-size="10.00">1</text>
</a>
</g>
</g>
<!-- dir_e9f1c1650c19b82a0c277165906fd6a6&#45;&gt;dir_805a0af995e93a362739e98abd740eb2 -->
<g id="edge3" class="edge">
<title>dir_e9f1c1650c19b82a0c277165906fd6a6&#45;&gt;dir_805a0af995e93a362739e98abd740eb2</title>
<path fill="none" stroke="black" d="M143.82,-224.11C178.35,-211 236.04,-182.74 255.82,-135 267.65,-106.42 262.8,-70.47 257.01,-46.23"/>
<polygon fill="black" stroke="black" points="260.33,-45.09 254.42,-36.29 253.55,-46.85 260.33,-45.09"/>
<g id="a_edge3&#45;headlabel"><a xlink:href="dir_000034_000029.html" target="_top" xlink:title="2">
<text text-anchor="middle" x="263.98" y="-45.35" font-family="Helvetica,sans-Serif" font-size="10.00">2</text>
</a>
</g>
</g>
<!-- dir_e9df31ba243be114ece5c381e35ff9ef&#45;&gt;dir_6397249ce6bfc04c3a0c6a8eb78ef0ba -->
<g id="edge7" class="edge">
<title>dir_e9df31ba243be114ece5c381e35ff9ef&#45;&gt;dir_6397249ce6bfc04c3a0c6a8eb78ef0ba</title>
<path fill="none" stroke="black" d="M71.88,-90C105.95,-90 140.01,-90 174.07,-90"/>
<polygon fill="black" stroke="black" points="174.16,-93.5 184.16,-90 174.16,-86.5 174.16,-93.5"/>
<g id="a_edge7&#45;headlabel"><a xlink:href="dir_000036_000007.html" target="_top" xlink:title="6">
<text text-anchor="middle" x="170.56" y="-93.84" font-family="Helvetica,sans-Serif" font-size="10.00">6</text>
</a>
</g>
</g>
<!-- dir_e9df31ba243be114ece5c381e35ff9ef&#45;&gt;dir_e9f1c1650c19b82a0c277165906fd6a6 -->
<g id="edge4" class="edge">
<title>dir_e9df31ba243be114ece5c381e35ff9ef&#45;&gt;dir_e9f1c1650c19b82a0c277165906fd6a6</title>
<path fill="none" stroke="black" d="M49.28,-108.04C54.48,-126.45 64.01,-156.31 76.82,-180 82,-189.58 88.81,-199.31 95.33,-207.77"/>
<polygon fill="black" stroke="black" points="92.73,-210.12 101.69,-215.76 98.2,-205.76 92.73,-210.12"/>
<g id="a_edge4&#45;headlabel"><a xlink:href="dir_000036_000034.html" target="_top" xlink:title="10">
<text text-anchor="middle" x="88.27" y="-206.58" font-family="Helvetica,sans-Serif" font-size="10.00">10</text>
</a>
</g>
</g>
<!-- dir_e9df31ba243be114ece5c381e35ff9ef&#45;&gt;dir_1001d9375777bca6b163352cfd2806d0 -->
<g id="edge5" class="edge">
<title>dir_e9df31ba243be114ece5c381e35ff9ef&#45;&gt;dir_1001d9375777bca6b163352cfd2806d0</title>
<path fill="none" stroke="black" d="M38.9,-71.7C38.11,-63.98 37.88,-54.71 38.22,-46.11"/>
<polygon fill="black" stroke="black" points="41.72,-46.32 38.92,-36.1 34.73,-45.84 41.72,-46.32"/>
<g id="a_edge5&#45;headlabel"><a xlink:href="dir_000036_000037.html" target="_top" xlink:title="9">
<text text-anchor="middle" x="44.3" y="-47.61" font-family="Helvetica,sans-Serif" font-size="10.00">9</text>
</a>
</g>
</g>
<!-- dir_e9df31ba243be114ece5c381e35ff9ef&#45;&gt;dir_400d2db5f3c79ddc8fd4d8c2b3b8c693 -->
<g id="edge6" class="edge">
<title>dir_e9df31ba243be114ece5c381e35ff9ef&#45;&gt;dir_400d2db5f3c79ddc8fd4d8c2b3b8c693</title>
<path fill="none" stroke="black" d="M69.77,-71.88C82.86,-62.89 99.08,-51.76 113.25,-42.03"/>
<polygon fill="black" stroke="black" points="115.5,-44.73 121.77,-36.19 111.54,-38.96 115.5,-44.73"/>
<g id="a_edge6&#45;headlabel"><a xlink:href="dir_000036_000035.html" target="_top" xlink:title="1">
<text text-anchor="middle" x="114.15" y="-46.61" font-family="Helvetica,sans-Serif" font-size="10.00">1</text>
</a>
</g>
</g>
<!-- dir_e9df31ba243be114ece5c381e35ff9ef&#45;&gt;dir_aaff6fcc3ba688745620d6ac129881b8 -->
<g id="edge8" class="edge">
<title>dir_e9df31ba243be114ece5c381e35ff9ef&#45;&gt;dir_aaff6fcc3ba688745620d6ac129881b8</title>
<path fill="none" stroke="black" d="M68.04,-108.18C76.47,-116.51 85.88,-126.52 94.82,-135 95.49,-135.63 96.17,-136.27 96.86,-136.91"/>
<polygon fill="black" stroke="black" points="94.62,-139.61 104.39,-143.72 99.32,-134.42 94.62,-139.61"/>
<g id="a_edge8&#45;headlabel"><a xlink:href="dir_000036_000032.html" target="_top" xlink:title="27">
<text text-anchor="middle" x="90.05" y="-136.8" font-family="Helvetica,sans-Serif" font-size="10.00">27</text>
</a>
</g>
</g>
<!-- dir_1001d9375777bca6b163352cfd2806d0&#45;&gt;dir_6397249ce6bfc04c3a0c6a8eb78ef0ba -->
<g id="edge11" class="edge">
<title>dir_1001d9375777bca6b163352cfd2806d0&#45;&gt;dir_6397249ce6bfc04c3a0c6a8eb78ef0ba</title>
<path fill="none" stroke="black" d="M72.04,-28.3C99.88,-38.96 143.16,-56.71 174.64,-70.27"/>
<polygon fill="black" stroke="black" points="173.44,-73.56 184,-74.33 176.22,-67.14 173.44,-73.56"/>
<g id="a_edge11&#45;headlabel"><a xlink:href="dir_000037_000007.html" target="_top" xlink:title="10">
<text text-anchor="middle" x="169.01" y="-72.23" font-family="Helvetica,sans-Serif" font-size="10.00">10</text>
</a>
</g>
</g>
<!-- dir_1001d9375777bca6b163352cfd2806d0&#45;&gt;dir_e9f1c1650c19b82a0c277165906fd6a6 -->
<g id="edge9" class="edge">
<title>dir_1001d9375777bca6b163352cfd2806d0&#45;&gt;dir_e9f1c1650c19b82a0c277165906fd6a6</title>
<path fill="none" stroke="black" d="M26.6,-36.08C19.62,-43.85 12.46,-53.62 8.82,-64 -1.63,-93.78 -3.88,-106.11 8.82,-135 23.39,-168.18 55.43,-194.89 80.85,-211.99"/>
<polygon fill="black" stroke="black" points="79.23,-215.12 89.52,-217.64 83.05,-209.25 79.23,-215.12"/>
<g id="a_edge9&#45;headlabel"><a xlink:href="dir_000037_000034.html" target="_top" xlink:title="9">
<text text-anchor="middle" x="74.67" y="-213.04" font-family="Helvetica,sans-Serif" font-size="10.00">9</text>
</a>
</g>
</g>
<!-- dir_1001d9375777bca6b163352cfd2806d0&#45;&gt;dir_e9df31ba243be114ece5c381e35ff9ef -->
<g id="edge10" class="edge">
<title>dir_1001d9375777bca6b163352cfd2806d0&#45;&gt;dir_e9df31ba243be114ece5c381e35ff9ef</title>
<path fill="none" stroke="black" d="M50.71,-36.1C51.52,-43.79 51.75,-53.05 51.42,-61.67"/>
<polygon fill="black" stroke="black" points="47.93,-61.48 50.73,-71.7 54.91,-61.96 47.93,-61.48"/>
<g id="a_edge10&#45;headlabel"><a xlink:href="dir_000037_000036.html" target="_top" xlink:title="4">
<text text-anchor="middle" x="45.34" y="-55.2" font-family="Helvetica,sans-Serif" font-size="10.00">4</text>
</a>
</g>
</g>
<!-- dir_400d2db5f3c79ddc8fd4d8c2b3b8c693&#45;&gt;dir_6397249ce6bfc04c3a0c6a8eb78ef0ba -->
<g id="edge12" class="edge">
<title>dir_400d2db5f3c79ddc8fd4d8c2b3b8c693&#45;&gt;dir_6397249ce6bfc04c3a0c6a8eb78ef0ba</title>
<path fill="none" stroke="black" d="M169.08,-36.1C177.96,-44.47 187.96,-54.69 196.31,-63.92"/>
<polygon fill="black" stroke="black" points="193.93,-66.51 203.17,-71.7 199.18,-61.88 193.93,-66.51"/>
<g id="a_edge12&#45;headlabel"><a xlink:href="dir_000035_000007.html" target="_top" xlink:title="8">
<text text-anchor="middle" x="189.43" y="-63.19" font-family="Helvetica,sans-Serif" font-size="10.00">8</text>
</a>
</g>
</g>
<!-- dir_400d2db5f3c79ddc8fd4d8c2b3b8c693&#45;&gt;dir_aaff6fcc3ba688745620d6ac129881b8 -->
<g id="edge13" class="edge">
<title>dir_400d2db5f3c79ddc8fd4d8c2b3b8c693&#45;&gt;dir_aaff6fcc3ba688745620d6ac129881b8</title>
<path fill="none" stroke="black" d="M147.78,-36.19C145.2,-60.53 136.02,-105.28 127.94,-134.06"/>
<polygon fill="black" stroke="black" points="124.51,-133.29 125.02,-143.87 131.22,-135.28 124.51,-133.29"/>
<g id="a_edge13&#45;headlabel"><a xlink:href="dir_000035_000032.html" target="_top" xlink:title="1">
<text text-anchor="middle" x="122.82" y="-126.53" font-family="Helvetica,sans-Serif" font-size="10.00">1</text>
</a>
</g>
</g>
<!-- dir_aaff6fcc3ba688745620d6ac129881b8&#45;&gt;dir_6397249ce6bfc04c3a0c6a8eb78ef0ba -->
<g id="edge24" class="edge">
<title>dir_aaff6fcc3ba688745620d6ac129881b8&#45;&gt;dir_6397249ce6bfc04c3a0c6a8eb78ef0ba</title>
<path fill="none" stroke="black" d="M147.36,-152.03C157.97,-147.59 169.4,-141.74 178.82,-135 186.52,-129.49 194.11,-122.59 200.4,-115.9"/>
<polygon fill="black" stroke="black" points="203.15,-118.07 207.11,-108.24 197.89,-113.46 203.15,-118.07"/>
<g id="a_edge24&#45;headlabel"><a xlink:href="dir_000032_000007.html" target="_top" xlink:title="67">
<text text-anchor="middle" x="202.92" y="-120.15" font-family="Helvetica,sans-Serif" font-size="10.00">67</text>
</a>
</g>
</g>
<!-- dir_aaff6fcc3ba688745620d6ac129881b8&#45;&gt;dir_e9f1c1650c19b82a0c277165906fd6a6 -->
<g id="edge20" class="edge">
<title>dir_aaff6fcc3ba688745620d6ac129881b8&#45;&gt;dir_e9f1c1650c19b82a0c277165906fd6a6</title>
<path fill="none" stroke="black" d="M122.71,-180.1C123.52,-187.79 123.75,-197.05 123.42,-205.67"/>
<polygon fill="black" stroke="black" points="119.93,-205.48 122.73,-215.7 126.91,-205.96 119.93,-205.48"/>
<g id="a_edge20&#45;headlabel"><a xlink:href="dir_000032_000034.html" target="_top" xlink:title="69">
<text text-anchor="middle" x="117.34" y="-199.2" font-family="Helvetica,sans-Serif" font-size="10.00">69</text>
</a>
</g>
</g>
<!-- dir_aaff6fcc3ba688745620d6ac129881b8&#45;&gt;dir_e9df31ba243be114ece5c381e35ff9ef -->
<g id="edge21" class="edge">
<title>dir_aaff6fcc3ba688745620d6ac129881b8&#45;&gt;dir_e9df31ba243be114ece5c381e35ff9ef</title>
<path fill="none" stroke="black" d="M86.62,-143.72C83.2,-140.87 79.87,-137.9 76.82,-135 70.53,-129.04 64.02,-122.32 58.38,-115.96"/>
<polygon fill="black" stroke="black" points="60.94,-113.55 51.81,-108.18 55.59,-118.07 60.94,-113.55"/>
<g id="a_edge21&#45;headlabel"><a xlink:href="dir_000032_000036.html" target="_top" xlink:title="6">
<text text-anchor="middle" x="65.42" y="-111.97" font-family="Helvetica,sans-Serif" font-size="10.00">6</text>
</a>
</g>
</g>
<!-- dir_aaff6fcc3ba688745620d6ac129881b8&#45;&gt;dir_1001d9375777bca6b163352cfd2806d0 -->
<g id="edge22" class="edge">
<title>dir_aaff6fcc3ba688745620d6ac129881b8&#45;&gt;dir_1001d9375777bca6b163352cfd2806d0</title>
<path fill="none" stroke="black" d="M112.25,-143.8C106.54,-123.83 95.68,-90.26 80.82,-64 76.95,-57.18 72.08,-50.31 67.18,-44.07"/>
<polygon fill="black" stroke="black" points="69.62,-41.53 60.57,-36.01 64.21,-45.97 69.62,-41.53"/>
<g id="a_edge22&#45;headlabel"><a xlink:href="dir_000032_000037.html" target="_top" xlink:title="79">
<text text-anchor="middle" x="74.1" y="-40.01" font-family="Helvetica,sans-Serif" font-size="10.00">79</text>
</a>
</g>
</g>
<!-- dir_aaff6fcc3ba688745620d6ac129881b8&#45;&gt;dir_400d2db5f3c79ddc8fd4d8c2b3b8c693 -->
<g id="edge23" class="edge">
<title>dir_aaff6fcc3ba688745620d6ac129881b8&#45;&gt;dir_400d2db5f3c79ddc8fd4d8c2b3b8c693</title>
<path fill="none" stroke="black" d="M115.85,-143.87C118.42,-119.56 127.59,-74.82 135.68,-46.01"/>
<polygon fill="black" stroke="black" points="139.1,-46.77 138.59,-36.19 132.39,-44.78 139.1,-46.77"/>
<g id="a_edge23&#45;headlabel"><a xlink:href="dir_000032_000035.html" target="_top" xlink:title="38">
<text text-anchor="middle" x="140.8" y="-48.53" font-family="Helvetica,sans-Serif" font-size="10.00">38</text>
</a>
</g>
</g>
</g>
</svg>
