<?xml version="1.0" encoding="UTF-8" standalone="no"?>
<!DOCTYPE svg PUBLIC "-//W3C//DTD SVG 1.1//EN"
 "http://www.w3.org/Graphics/SVG/1.1/DTD/svg11.dtd">
<!-- Generated by graphviz version 2.43.0 (0)
 -->
<!-- Title: Graphical Class Hierarchy Pages: 1 -->
<svg width="853pt" height="211pt"
 viewBox="0.00 0.00 853.00 210.50" xmlns="http://www.w3.org/2000/svg" xmlns:xlink="http://www.w3.org/1999/xlink">
<g id="graph0" class="graph" transform="scale(1 1) rotate(0) translate(4 206.5)">
<title>Graphical Class Hierarchy</title>
<!-- Node158 -->
<g id="node1" class="node">
<title>Node158</title>
<g id="a_node1"><a xlink:title="STL class.">
<polygon fill="none" stroke="#bfbfbf" points="0,-95.5 0,-114.5 86,-114.5 86,-95.5 0,-95.5"/>
<text text-anchor="middle" x="43" y="-102.5" font-family="Helvetica,sans-Serif" font-size="10.00">std::exception</text>
</a>
</g>
</g>
<!-- Node159 -->
<g id="node2" class="node">
<title>Node159</title>
<g id="a_node2"><a xlink:title="STL class.">
<polygon fill="none" stroke="#bfbfbf" points="122,-95.5 122,-114.5 226,-114.5 226,-95.5 122,-95.5"/>
<text text-anchor="middle" x="174" y="-102.5" font-family="Helvetica,sans-Serif" font-size="10.00">std::runtime_error</text>
</a>
</g>
</g>
<!-- Node158&#45;&gt;Node159 -->
<g id="edge1" class="edge">
<title>Node158&#45;&gt;Node159</title>
<path fill="none" stroke="midnightblue" d="M96.27,-105C104.65,-105 113.31,-105 121.66,-105"/>
<polygon fill="midnightblue" stroke="midnightblue" points="96.24,-101.5 86.24,-105 96.24,-108.5 96.24,-101.5"/>
</g>
<!-- Node0 -->
<g id="node3" class="node">
<title>Node0</title>
<g id="a_node3"><a xlink:href="d4/df4/classrawspeed_1_1_rawspeed_exception.html" target="_top" xlink:title=" ">
<polygon fill="none" stroke="black" points="262,-95.5 262,-114.5 430,-114.5 430,-95.5 262,-95.5"/>
<text text-anchor="middle" x="346" y="-102.5" font-family="Helvetica,sans-Serif" font-size="10.00">rawspeed::RawspeedException</text>
</a>
</g>
</g>
<!-- Node159&#45;&gt;Node0 -->
<g id="edge2" class="edge">
<title>Node159&#45;&gt;Node0</title>
<path fill="none" stroke="midnightblue" d="M236.06,-105C244.46,-105 253.21,-105 261.92,-105"/>
<polygon fill="midnightblue" stroke="midnightblue" points="236.01,-101.5 226.01,-105 236.01,-108.5 236.01,-101.5"/>
</g>
<!-- Node1 -->
<g id="node4" class="node">
<title>Node1</title>
<g id="a_node4"><a xlink:href="d6/d4d/classrawspeed_1_1_camera_metadata_exception.html" target="_top" xlink:title=" ">
<polygon fill="none" stroke="black" points="478.5,-172 478.5,-202 632.5,-202 632.5,-172 478.5,-172"/>
<text text-anchor="start" x="486.5" y="-190" font-family="Helvetica,sans-Serif" font-size="10.00">rawspeed::CameraMetadata</text>
<text text-anchor="middle" x="555.5" y="-179" font-family="Helvetica,sans-Serif" font-size="10.00">Exception</text>
</a>
</g>
</g>
<!-- Node0&#45;&gt;Node1 -->
<g id="edge3" class="edge">
<title>Node0&#45;&gt;Node1</title>
<path fill="none" stroke="midnightblue" d="M373.81,-119.48C397.56,-131.9 433.41,-149.7 466,-162 475.56,-165.61 485.87,-168.98 495.96,-172"/>
<polygon fill="midnightblue" stroke="midnightblue" points="375.2,-116.25 364.72,-114.68 371.93,-122.44 375.2,-116.25"/>
</g>
<!-- Node2 -->
<g id="node5" class="node">
<title>Node2</title>
<g id="a_node5"><a xlink:href="d1/d6a/classrawspeed_1_1_i_o_exception.html" target="_top" xlink:title=" ">
<polygon fill="none" stroke="black" points="491.5,-133.5 491.5,-152.5 619.5,-152.5 619.5,-133.5 491.5,-133.5"/>
<text text-anchor="middle" x="555.5" y="-140.5" font-family="Helvetica,sans-Serif" font-size="10.00">rawspeed::IOException</text>
</a>
</g>
</g>
<!-- Node0&#45;&gt;Node2 -->
<g id="edge4" class="edge">
<title>Node0&#45;&gt;Node2</title>
<path fill="none" stroke="midnightblue" d="M408.96,-116.35C438.73,-121.8 474.02,-128.26 502.39,-133.46"/>
<polygon fill="midnightblue" stroke="midnightblue" points="409.56,-112.9 399.09,-114.54 408.3,-119.78 409.56,-112.9"/>
</g>
<!-- Node3 -->
<g id="node6" class="node">
<title>Node3</title>
<g id="a_node6"><a xlink:href="db/d52/classrawspeed_1_1_raw_decoder_exception.html" target="_top" xlink:title=" ">
<polygon fill="none" stroke="black" points="466,-95.5 466,-114.5 645,-114.5 645,-95.5 466,-95.5"/>
<text text-anchor="middle" x="555.5" y="-102.5" font-family="Helvetica,sans-Serif" font-size="10.00">rawspeed::RawDecoderException</text>
</a>
</g>
</g>
<!-- Node0&#45;&gt;Node3 -->
<g id="edge5" class="edge">
<title>Node0&#45;&gt;Node3</title>
<path fill="none" stroke="midnightblue" d="M440.45,-105C448.9,-105 457.44,-105 465.84,-105"/>
<polygon fill="midnightblue" stroke="midnightblue" points="440.2,-101.5 430.2,-105 440.2,-108.5 440.2,-101.5"/>
</g>
<!-- Node5 -->
<g id="node8" class="node">
<title>Node5</title>
<g id="a_node8"><a xlink:href="d1/d98/classrawspeed_1_1_raw_parser_exception.html" target="_top" xlink:title=" ">
<polygon fill="none" stroke="black" points="471,-57.5 471,-76.5 640,-76.5 640,-57.5 471,-57.5"/>
<text text-anchor="middle" x="555.5" y="-64.5" font-family="Helvetica,sans-Serif" font-size="10.00">rawspeed::RawParserException</text>
</a>
</g>
</g>
<!-- Node0&#45;&gt;Node5 -->
<g id="edge7" class="edge">
<title>Node0&#45;&gt;Node5</title>
<path fill="none" stroke="midnightblue" d="M408.96,-93.65C438.73,-88.2 474.02,-81.74 502.39,-76.54"/>
<polygon fill="midnightblue" stroke="midnightblue" points="408.3,-90.22 399.09,-95.46 409.56,-97.1 408.3,-90.22"/>
</g>
<!-- Node9 -->
<g id="node12" class="node">
<title>Node9</title>
<g id="a_node12"><a xlink:href="d2/de5/classrawspeed_1_1rstest_1_1_rstest_hash_mismatch.html" target="_top" xlink:title=" ">
<polygon fill="none" stroke="black" points="488.5,-8 488.5,-38 622.5,-38 622.5,-8 488.5,-8"/>
<text text-anchor="start" x="496.5" y="-26" font-family="Helvetica,sans-Serif" font-size="10.00">rawspeed::rstest::Rstest</text>
<text text-anchor="middle" x="555.5" y="-15" font-family="Helvetica,sans-Serif" font-size="10.00">HashMismatch</text>
</a>
</g>
</g>
<!-- Node0&#45;&gt;Node9 -->
<g id="edge11" class="edge">
<title>Node0&#45;&gt;Node9</title>
<path fill="none" stroke="midnightblue" d="M373.81,-90.52C397.56,-78.1 433.41,-60.3 466,-48 475.56,-44.39 485.87,-41.02 495.96,-38"/>
<polygon fill="midnightblue" stroke="midnightblue" points="371.93,-87.56 364.72,-95.32 375.2,-93.75 371.93,-87.56"/>
</g>
<!-- Node4 -->
<g id="node7" class="node">
<title>Node4</title>
<g id="a_node7"><a xlink:href="dd/dd4/classrawspeed_1_1_file_i_o_exception.html" target="_top" xlink:title=" ">
<polygon fill="none" stroke="black" points="690.5,-114.5 690.5,-133.5 835.5,-133.5 835.5,-114.5 690.5,-114.5"/>
<text text-anchor="middle" x="763" y="-121.5" font-family="Helvetica,sans-Serif" font-size="10.00">rawspeed::FileIOException</text>
</a>
</g>
</g>
<!-- Node3&#45;&gt;Node4 -->
<g id="edge6" class="edge">
<title>Node3&#45;&gt;Node4</title>
<path fill="none" stroke="midnightblue" d="M655.45,-114.15C667.22,-115.24 679.06,-116.33 690.35,-117.37"/>
<polygon fill="midnightblue" stroke="midnightblue" points="655.42,-110.63 645.14,-113.2 654.78,-117.6 655.42,-110.63"/>
</g>
<!-- Node6 -->
<g id="node9" class="node">
<title>Node6</title>
<g id="a_node9"><a xlink:href="d0/da8/classrawspeed_1_1_ciff_parser_exception.html" target="_top" xlink:title=" ">
<polygon fill="none" stroke="black" points="681,-76.5 681,-95.5 845,-95.5 845,-76.5 681,-76.5"/>
<text text-anchor="middle" x="763" y="-83.5" font-family="Helvetica,sans-Serif" font-size="10.00">rawspeed::CiffParserException</text>
</a>
</g>
</g>
<!-- Node5&#45;&gt;Node6 -->
<g id="edge8" class="edge">
<title>Node5&#45;&gt;Node6</title>
<path fill="none" stroke="midnightblue" d="M650.24,-75.67C660.45,-76.61 670.78,-77.57 680.82,-78.49"/>
<polygon fill="midnightblue" stroke="midnightblue" points="650.36,-72.16 640.08,-74.73 649.72,-79.13 650.36,-72.16"/>
</g>
<!-- Node7 -->
<g id="node10" class="node">
<title>Node7</title>
<g id="a_node10"><a xlink:href="d2/d45/classrawspeed_1_1_fiff_parser_exception.html" target="_top" xlink:title=" ">
<polygon fill="none" stroke="black" points="682,-38.5 682,-57.5 844,-57.5 844,-38.5 682,-38.5"/>
<text text-anchor="middle" x="763" y="-45.5" font-family="Helvetica,sans-Serif" font-size="10.00">rawspeed::FiffParserException</text>
</a>
</g>
</g>
<!-- Node5&#45;&gt;Node7 -->
<g id="edge9" class="edge">
<title>Node5&#45;&gt;Node7</title>
<path fill="none" stroke="midnightblue" d="M650.17,-58.34C660.74,-57.36 671.44,-56.37 681.81,-55.41"/>
<polygon fill="midnightblue" stroke="midnightblue" points="649.72,-54.87 640.08,-59.27 650.36,-61.84 649.72,-54.87"/>
</g>
<!-- Node8 -->
<g id="node11" class="node">
<title>Node8</title>
<g id="a_node11"><a xlink:href="dd/d14/classrawspeed_1_1_tiff_parser_exception.html" target="_top" xlink:title=" ">
<polygon fill="none" stroke="black" points="681,-0.5 681,-19.5 845,-19.5 845,-0.5 681,-0.5"/>
<text text-anchor="middle" x="763" y="-7.5" font-family="Helvetica,sans-Serif" font-size="10.00">rawspeed::TiffParserException</text>
</a>
</g>
</g>
<!-- Node5&#45;&gt;Node8 -->
<g id="edge10" class="edge">
<title>Node5&#45;&gt;Node8</title>
<path fill="none" stroke="midnightblue" d="M618.33,-55.04C627.38,-52.71 636.5,-50.03 645,-47 661.85,-40.98 664.18,-35.08 681,-29 691.19,-25.32 702.36,-22.16 713.06,-19.54"/>
<polygon fill="midnightblue" stroke="midnightblue" points="617.46,-51.65 608.58,-57.43 619.12,-58.45 617.46,-51.65"/>
</g>
</g>
</svg>
