<?xml version="1.0" encoding="UTF-8" standalone="no"?>
<!DOCTYPE svg PUBLIC "-//W3C//DTD SVG 1.1//EN"
 "http://www.w3.org/Graphics/SVG/1.1/DTD/svg11.dtd">
<!-- Generated by graphviz version 2.43.0 (0)
 -->
<!-- Title: Graphical Class Hierarchy Pages: 1 -->
<svg width="672pt" height="740pt"
 viewBox="0.00 0.00 672.00 740.00" xmlns="http://www.w3.org/2000/svg" xmlns:xlink="http://www.w3.org/1999/xlink">
<g id="graph0" class="graph" transform="scale(1 1) rotate(0) translate(4 736)">
<title>Graphical Class Hierarchy</title>
<!-- Node0 -->
<g id="node1" class="node">
<title>Node0</title>
<g id="a_node1"><a xlink:href="d9/d57/classrawspeed_1_1_abstract_decompressor.html" target="_top" xlink:title=" ">
<polygon fill="none" stroke="black" points="0,-304.5 0,-323.5 181,-323.5 181,-304.5 0,-304.5"/>
<text text-anchor="middle" x="90.5" y="-311.5" font-family="Helvetica,sans-Serif" font-size="10.00">rawspeed::AbstractDecompressor</text>
</a>
</g>
</g>
<!-- Node1 -->
<g id="node2" class="node">
<title>Node1</title>
<g id="a_node2"><a xlink:href="d0/d2e/classrawspeed_1_1_abstract_dng_decompressor.html" target="_top" xlink:title=" ">
<polygon fill="none" stroke="black" points="223.5,-636.5 223.5,-655.5 423.5,-655.5 423.5,-636.5 223.5,-636.5"/>
<text text-anchor="middle" x="323.5" y="-643.5" font-family="Helvetica,sans-Serif" font-size="10.00">rawspeed::AbstractDngDecompressor</text>
</a>
</g>
</g>
<!-- Node0&#45;&gt;Node1 -->
<g id="edge1" class="edge">
<title>Node0&#45;&gt;Node1</title>
<path fill="none" stroke="midnightblue" d="M93.04,-333.86C98.5,-389.8 122.09,-549.65 217,-627 221.62,-630.76 226.73,-633.88 232.14,-636.46"/>
<polygon fill="midnightblue" stroke="midnightblue" points="96.49,-333.22 92.13,-323.57 89.52,-333.83 96.49,-333.22"/>
</g>
<!-- Node2 -->
<g id="node3" class="node">
<title>Node2</title>
<g id="a_node3"><a xlink:href="d4/d03/classrawspeed_1_1_abstract_l_jpeg_decompressor.html" target="_top" xlink:title=" ">
<polygon fill="none" stroke="black" points="220,-598.5 220,-617.5 427,-617.5 427,-598.5 220,-598.5"/>
<text text-anchor="middle" x="323.5" y="-605.5" font-family="Helvetica,sans-Serif" font-size="10.00">rawspeed::AbstractLJpegDecompressor</text>
</a>
</g>
</g>
<!-- Node0&#45;&gt;Node2 -->
<g id="edge2" class="edge">
<title>Node0&#45;&gt;Node2</title>
<path fill="none" stroke="midnightblue" d="M95.5,-333.63C106.28,-381.63 140.49,-505.9 217,-573 231,-585.28 249.44,-593.27 266.98,-598.47"/>
<polygon fill="midnightblue" stroke="midnightblue" points="98.87,-332.67 93.34,-323.63 92.03,-334.14 98.87,-332.67"/>
</g>
<!-- Node7 -->
<g id="node8" class="node">
<title>Node7</title>
<g id="a_node8"><a xlink:href="d5/d18/classrawspeed_1_1_abstract_samsung_decompressor.html" target="_top" xlink:title=" ">
<polygon fill="none" stroke="black" points="246,-533 246,-563 401,-563 401,-533 246,-533"/>
<text text-anchor="start" x="254" y="-551" font-family="Helvetica,sans-Serif" font-size="10.00">rawspeed::AbstractSamsung</text>
<text text-anchor="middle" x="323.5" y="-540" font-family="Helvetica,sans-Serif" font-size="10.00">Decompressor</text>
</a>
</g>
</g>
<!-- Node0&#45;&gt;Node7 -->
<g id="edge7" class="edge">
<title>Node0&#45;&gt;Node7</title>
<path fill="none" stroke="midnightblue" d="M97.43,-333.53C111.16,-375.28 149.26,-473.47 217,-523 225.58,-529.28 235.52,-534 245.79,-537.55"/>
<polygon fill="midnightblue" stroke="midnightblue" points="100.69,-332.23 94.33,-323.76 94.02,-334.35 100.69,-332.23"/>
</g>
<!-- Node11 -->
<g id="node12" class="node">
<title>Node11</title>
<g id="a_node12"><a xlink:href="de/d70/classrawspeed_1_1_crw_decompressor.html" target="_top" xlink:title=" ">
<polygon fill="none" stroke="black" points="244,-494.5 244,-513.5 403,-513.5 403,-494.5 244,-494.5"/>
<text text-anchor="middle" x="323.5" y="-501.5" font-family="Helvetica,sans-Serif" font-size="10.00">rawspeed::CrwDecompressor</text>
</a>
</g>
</g>
<!-- Node0&#45;&gt;Node11 -->
<g id="edge11" class="edge">
<title>Node0&#45;&gt;Node11</title>
<path fill="none" stroke="midnightblue" d="M99.62,-333.16C116.01,-369.33 156.72,-447.38 217,-485 225.21,-490.12 234.44,-493.95 243.93,-496.79"/>
<polygon fill="midnightblue" stroke="midnightblue" points="102.71,-331.5 95.48,-323.76 96.3,-334.32 102.71,-331.5"/>
</g>
<!-- Node12 -->
<g id="node13" class="node">
<title>Node12</title>
<g id="a_node13"><a xlink:href="de/d5f/classrawspeed_1_1_fuji_decompressor.html" target="_top" xlink:title=" ">
<polygon fill="none" stroke="black" points="245,-456.5 245,-475.5 402,-475.5 402,-456.5 245,-456.5"/>
<text text-anchor="middle" x="323.5" y="-463.5" font-family="Helvetica,sans-Serif" font-size="10.00">rawspeed::FujiDecompressor</text>
</a>
</g>
</g>
<!-- Node0&#45;&gt;Node12 -->
<g id="edge12" class="edge">
<title>Node0&#45;&gt;Node12</title>
<path fill="none" stroke="midnightblue" d="M102.91,-332.14C122.41,-361.49 165.11,-418.9 217,-447 225.59,-451.65 235.1,-455.2 244.78,-457.89"/>
<polygon fill="midnightblue" stroke="midnightblue" points="105.79,-330.16 97.41,-323.67 99.92,-333.97 105.79,-330.16"/>
</g>
<!-- Node13 -->
<g id="node14" class="node">
<title>Node13</title>
<g id="a_node14"><a xlink:href="d3/dfe/classrawspeed_1_1_kodak_decompressor.html" target="_top" xlink:title=" ">
<polygon fill="none" stroke="black" points="238.5,-418.5 238.5,-437.5 408.5,-437.5 408.5,-418.5 238.5,-418.5"/>
<text text-anchor="middle" x="323.5" y="-425.5" font-family="Helvetica,sans-Serif" font-size="10.00">rawspeed::KodakDecompressor</text>
</a>
</g>
</g>
<!-- Node0&#45;&gt;Node13 -->
<g id="edge13" class="edge">
<title>Node0&#45;&gt;Node13</title>
<path fill="none" stroke="midnightblue" d="M108.26,-330.91C130.85,-352.65 173.31,-389.85 217,-409 225.86,-412.88 235.48,-415.98 245.18,-418.43"/>
<polygon fill="midnightblue" stroke="midnightblue" points="110.46,-328.17 100.87,-323.67 105.56,-333.17 110.46,-328.17"/>
</g>
<!-- Node14 -->
<g id="node15" class="node">
<title>Node14</title>
<g id="a_node15"><a xlink:href="df/d02/classrawspeed_1_1_nikon_decompressor.html" target="_top" xlink:title=" ">
<polygon fill="none" stroke="black" points="239,-380.5 239,-399.5 408,-399.5 408,-380.5 239,-380.5"/>
<text text-anchor="middle" x="323.5" y="-387.5" font-family="Helvetica,sans-Serif" font-size="10.00">rawspeed::NikonDecompressor</text>
</a>
</g>
</g>
<!-- Node0&#45;&gt;Node14 -->
<g id="edge14" class="edge">
<title>Node0&#45;&gt;Node14</title>
<path fill="none" stroke="midnightblue" d="M117.97,-328.37C142.87,-341.3 181.5,-359.93 217,-371 229.17,-374.79 242.38,-377.92 255.2,-380.46"/>
<polygon fill="midnightblue" stroke="midnightblue" points="119.31,-325.11 108.83,-323.55 116.04,-331.31 119.31,-325.11"/>
</g>
<!-- Node15 -->
<g id="node16" class="node">
<title>Node15</title>
<g id="a_node16"><a xlink:href="d2/dde/classrawspeed_1_1_olympus_decompressor.html" target="_top" xlink:title=" ">
<polygon fill="none" stroke="black" points="231.5,-342.5 231.5,-361.5 415.5,-361.5 415.5,-342.5 231.5,-342.5"/>
<text text-anchor="middle" x="323.5" y="-349.5" font-family="Helvetica,sans-Serif" font-size="10.00">rawspeed::OlympusDecompressor</text>
</a>
</g>
</g>
<!-- Node0&#45;&gt;Node15 -->
<g id="edge15" class="edge">
<title>Node0&#45;&gt;Node15</title>
<path fill="none" stroke="midnightblue" d="M159.61,-325.2C192.94,-330.69 232.63,-337.22 264.48,-342.46"/>
<polygon fill="midnightblue" stroke="midnightblue" points="159.93,-321.71 149.49,-323.54 158.79,-328.62 159.93,-321.71"/>
</g>
<!-- Node16 -->
<g id="node17" class="node">
<title>Node16</title>
<g id="a_node17"><a xlink:href="d8/d43/classrawspeed_1_1_panasonic_decompressor_v4.html" target="_top" xlink:title=" ">
<polygon fill="none" stroke="black" points="222.5,-304.5 222.5,-323.5 424.5,-323.5 424.5,-304.5 222.5,-304.5"/>
<text text-anchor="middle" x="323.5" y="-311.5" font-family="Helvetica,sans-Serif" font-size="10.00">rawspeed::PanasonicDecompressorV4</text>
</a>
</g>
</g>
<!-- Node0&#45;&gt;Node16 -->
<g id="edge16" class="edge">
<title>Node0&#45;&gt;Node16</title>
<path fill="none" stroke="midnightblue" d="M191.3,-314C201.53,-314 211.93,-314 222.17,-314"/>
<polygon fill="midnightblue" stroke="midnightblue" points="191.14,-310.5 181.14,-314 191.14,-317.5 191.14,-310.5"/>
</g>
<!-- Node17 -->
<g id="node18" class="node">
<title>Node17</title>
<g id="a_node18"><a xlink:href="db/db3/classrawspeed_1_1_panasonic_decompressor_v5.html" target="_top" xlink:title=" ">
<polygon fill="none" stroke="black" points="222.5,-266.5 222.5,-285.5 424.5,-285.5 424.5,-266.5 222.5,-266.5"/>
<text text-anchor="middle" x="323.5" y="-273.5" font-family="Helvetica,sans-Serif" font-size="10.00">rawspeed::PanasonicDecompressorV5</text>
</a>
</g>
</g>
<!-- Node0&#45;&gt;Node17 -->
<g id="edge17" class="edge">
<title>Node0&#45;&gt;Node17</title>
<path fill="none" stroke="midnightblue" d="M159.61,-302.8C192.94,-297.31 232.63,-290.78 264.48,-285.54"/>
<polygon fill="midnightblue" stroke="midnightblue" points="158.79,-299.38 149.49,-304.46 159.93,-306.29 158.79,-299.38"/>
</g>
<!-- Node18 -->
<g id="node19" class="node">
<title>Node18</title>
<g id="a_node19"><a xlink:href="dc/d93/classrawspeed_1_1_panasonic_decompressor_v6.html" target="_top" xlink:title=" ">
<polygon fill="none" stroke="black" points="222.5,-228.5 222.5,-247.5 424.5,-247.5 424.5,-228.5 222.5,-228.5"/>
<text text-anchor="middle" x="323.5" y="-235.5" font-family="Helvetica,sans-Serif" font-size="10.00">rawspeed::PanasonicDecompressorV6</text>
</a>
</g>
</g>
<!-- Node0&#45;&gt;Node18 -->
<g id="edge18" class="edge">
<title>Node0&#45;&gt;Node18</title>
<path fill="none" stroke="midnightblue" d="M117.97,-299.63C142.87,-286.7 181.5,-268.07 217,-257 229.17,-253.21 242.38,-250.08 255.2,-247.54"/>
<polygon fill="midnightblue" stroke="midnightblue" points="116.04,-296.69 108.83,-304.45 119.31,-302.89 116.04,-296.69"/>
</g>
<!-- Node19 -->
<g id="node20" class="node">
<title>Node19</title>
<g id="a_node20"><a xlink:href="d5/df3/classrawspeed_1_1_pentax_decompressor.html" target="_top" xlink:title=" ">
<polygon fill="none" stroke="black" points="236.5,-190.5 236.5,-209.5 410.5,-209.5 410.5,-190.5 236.5,-190.5"/>
<text text-anchor="middle" x="323.5" y="-197.5" font-family="Helvetica,sans-Serif" font-size="10.00">rawspeed::PentaxDecompressor</text>
</a>
</g>
</g>
<!-- Node0&#45;&gt;Node19 -->
<g id="edge19" class="edge">
<title>Node0&#45;&gt;Node19</title>
<path fill="none" stroke="midnightblue" d="M108.26,-297.09C130.85,-275.35 173.31,-238.15 217,-219 225.86,-215.12 235.48,-212.02 245.18,-209.57"/>
<polygon fill="midnightblue" stroke="midnightblue" points="105.56,-294.83 100.87,-304.33 110.46,-299.83 105.56,-294.83"/>
</g>
<!-- Node20 -->
<g id="node21" class="node">
<title>Node20</title>
<g id="a_node21"><a xlink:href="d2/dde/classrawspeed_1_1_phase_one_decompressor.html" target="_top" xlink:title=" ">
<polygon fill="none" stroke="black" points="229,-152.5 229,-171.5 418,-171.5 418,-152.5 229,-152.5"/>
<text text-anchor="middle" x="323.5" y="-159.5" font-family="Helvetica,sans-Serif" font-size="10.00">rawspeed::PhaseOneDecompressor</text>
</a>
</g>
</g>
<!-- Node0&#45;&gt;Node20 -->
<g id="edge20" class="edge">
<title>Node0&#45;&gt;Node20</title>
<path fill="none" stroke="midnightblue" d="M102.91,-295.86C122.41,-266.51 165.11,-209.1 217,-181 224.12,-177.15 231.86,-174.05 239.82,-171.57"/>
<polygon fill="midnightblue" stroke="midnightblue" points="99.92,-294.03 97.41,-304.33 105.79,-297.84 99.92,-294.03"/>
</g>
<!-- Node21 -->
<g id="node22" class="node">
<title>Node21</title>
<g id="a_node22"><a xlink:href="d1/d31/classrawspeed_1_1_sony_arw1_decompressor.html" target="_top" xlink:title=" ">
<polygon fill="none" stroke="black" points="229,-114.5 229,-133.5 418,-133.5 418,-114.5 229,-114.5"/>
<text text-anchor="middle" x="323.5" y="-121.5" font-family="Helvetica,sans-Serif" font-size="10.00">rawspeed::SonyArw1Decompressor</text>
</a>
</g>
</g>
<!-- Node0&#45;&gt;Node21 -->
<g id="edge21" class="edge">
<title>Node0&#45;&gt;Node21</title>
<path fill="none" stroke="midnightblue" d="M99.62,-294.84C116.01,-258.67 156.72,-180.62 217,-143 223.16,-139.16 229.89,-136.04 236.87,-133.53"/>
<polygon fill="midnightblue" stroke="midnightblue" points="96.3,-293.68 95.48,-304.24 102.71,-296.5 96.3,-293.68"/>
</g>
<!-- Node22 -->
<g id="node23" class="node">
<title>Node22</title>
<g id="a_node23"><a xlink:href="d8/d01/classrawspeed_1_1_sony_arw2_decompressor.html" target="_top" xlink:title=" ">
<polygon fill="none" stroke="black" points="229,-76.5 229,-95.5 418,-95.5 418,-76.5 229,-76.5"/>
<text text-anchor="middle" x="323.5" y="-83.5" font-family="Helvetica,sans-Serif" font-size="10.00">rawspeed::SonyArw2Decompressor</text>
</a>
</g>
</g>
<!-- Node0&#45;&gt;Node22 -->
<g id="edge22" class="edge">
<title>Node0&#45;&gt;Node22</title>
<path fill="none" stroke="midnightblue" d="M97.14,-294.46C110.41,-252.3 147.79,-152.77 217,-105 222.51,-101.19 228.56,-98.08 234.89,-95.55"/>
<polygon fill="midnightblue" stroke="midnightblue" points="93.78,-293.5 94.22,-304.09 100.47,-295.54 93.78,-293.5"/>
</g>
<!-- Node23 -->
<g id="node24" class="node">
<title>Node23</title>
<g id="a_node24"><a xlink:href="d5/d8a/classrawspeed_1_1_uncompressed_decompressor.html" target="_top" xlink:title=" ">
<polygon fill="none" stroke="black" points="217,-38.5 217,-57.5 430,-57.5 430,-38.5 217,-38.5"/>
<text text-anchor="middle" x="323.5" y="-45.5" font-family="Helvetica,sans-Serif" font-size="10.00">rawspeed::UncompressedDecompressor</text>
</a>
</g>
</g>
<!-- Node0&#45;&gt;Node23 -->
<g id="edge23" class="edge">
<title>Node0&#45;&gt;Node23</title>
<path fill="none" stroke="midnightblue" d="M95.23,-294.59C105.43,-247.24 138.39,-125.46 217,-67 222.08,-63.22 227.67,-60.12 233.54,-57.56"/>
<polygon fill="midnightblue" stroke="midnightblue" points="91.79,-293.97 93.21,-304.47 98.65,-295.37 91.79,-293.97"/>
</g>
<!-- Node24 -->
<g id="node25" class="node">
<title>Node24</title>
<g id="a_node25"><a xlink:href="df/d0d/classrawspeed_1_1_v_c5_decompressor.html" target="_top" xlink:title=" ">
<polygon fill="none" stroke="black" points="243.5,-0.5 243.5,-19.5 403.5,-19.5 403.5,-0.5 243.5,-0.5"/>
<text text-anchor="middle" x="323.5" y="-7.5" font-family="Helvetica,sans-Serif" font-size="10.00">rawspeed::VC5Decompressor</text>
</a>
</g>
</g>
<!-- Node0&#45;&gt;Node24 -->
<g id="edge24" class="edge">
<title>Node0&#45;&gt;Node24</title>
<path fill="none" stroke="midnightblue" d="M93.84,-294.5C101.21,-242.25 128.96,-98.34 217,-29 224.75,-22.9 233.81,-18.51 243.31,-15.38"/>
<polygon fill="midnightblue" stroke="midnightblue" points="90.36,-294.09 92.53,-304.46 97.3,-295 90.36,-294.09"/>
</g>
<!-- Node3 -->
<g id="node4" class="node">
<title>Node3</title>
<g id="a_node4"><a xlink:href="dc/db5/classanonymous__namespace_02_dummy_l_jpeg_decompressor_8cpp_03_1_1_dummy_l_jpeg_decompressor.html" target="_top" xlink:title=" ">
<polygon fill="none" stroke="black" points="473,-690.5 473,-731.5 657,-731.5 657,-690.5 473,-690.5"/>
<text text-anchor="start" x="481" y="-719.5" font-family="Helvetica,sans-Serif" font-size="10.00">anonymous_namespace</text>
<text text-anchor="start" x="481" y="-708.5" font-family="Helvetica,sans-Serif" font-size="10.00">{DummyLJpegDecompressor.cpp}</text>
<text text-anchor="middle" x="565" y="-697.5" font-family="Helvetica,sans-Serif" font-size="10.00">::DummyLJpegDecompressor</text>
</a>
</g>
</g>
<!-- Node2&#45;&gt;Node3 -->
<g id="edge3" class="edge">
<title>Node2&#45;&gt;Node3</title>
<path fill="none" stroke="midnightblue" d="M420.57,-621.63C423.83,-623.24 426.99,-625.03 430,-627 454.12,-642.82 442.86,-663.78 466,-681 470.71,-684.51 475.83,-687.61 481.19,-690.35"/>
<polygon fill="midnightblue" stroke="midnightblue" points="421.68,-618.3 411.12,-617.53 418.9,-624.72 421.68,-618.3"/>
</g>
<!-- Node4 -->
<g id="node5" class="node">
<title>Node4</title>
<g id="a_node5"><a xlink:href="d3/d55/classrawspeed_1_1_cr2_decompressor.html" target="_top" xlink:title=" ">
<polygon fill="none" stroke="black" points="486.5,-652.5 486.5,-671.5 643.5,-671.5 643.5,-652.5 486.5,-652.5"/>
<text text-anchor="middle" x="565" y="-659.5" font-family="Helvetica,sans-Serif" font-size="10.00">rawspeed::Cr2Decompressor</text>
</a>
</g>
</g>
<!-- Node2&#45;&gt;Node4 -->
<g id="edge4" class="edge">
<title>Node2&#45;&gt;Node4</title>
<path fill="none" stroke="midnightblue" d="M401.02,-619.53C410.86,-621.67 420.73,-624.15 430,-627 446.74,-632.14 449.3,-637.74 466,-643 477.9,-646.75 490.86,-649.89 503.34,-652.47"/>
<polygon fill="midnightblue" stroke="midnightblue" points="401.71,-616.1 391.21,-617.51 400.29,-622.96 401.71,-616.1"/>
</g>
<!-- Node5 -->
<g id="node6" class="node">
<title>Node5</title>
<g id="a_node6"><a xlink:href="d3/d6d/classrawspeed_1_1_hasselblad_decompressor.html" target="_top" xlink:title=" ">
<polygon fill="none" stroke="black" points="468,-614.5 468,-633.5 662,-633.5 662,-614.5 468,-614.5"/>
<text text-anchor="middle" x="565" y="-621.5" font-family="Helvetica,sans-Serif" font-size="10.00">rawspeed::HasselbladDecompressor</text>
</a>
</g>
</g>
<!-- Node2&#45;&gt;Node5 -->
<g id="edge5" class="edge">
<title>Node2&#45;&gt;Node5</title>
<path fill="none" stroke="midnightblue" d="M437.25,-615.53C447.42,-616.21 457.66,-616.9 467.67,-617.56"/>
<polygon fill="midnightblue" stroke="midnightblue" points="437.32,-612.03 427.11,-614.86 436.86,-619.01 437.32,-612.03"/>
</g>
<!-- Node6 -->
<g id="node7" class="node">
<title>Node6</title>
<g id="a_node7"><a xlink:href="d7/d6d/classrawspeed_1_1_l_jpeg_decompressor.html" target="_top" xlink:title=" ">
<polygon fill="none" stroke="black" points="481.5,-576.5 481.5,-595.5 648.5,-595.5 648.5,-576.5 481.5,-576.5"/>
<text text-anchor="middle" x="565" y="-583.5" font-family="Helvetica,sans-Serif" font-size="10.00">rawspeed::LJpegDecompressor</text>
</a>
</g>
</g>
<!-- Node2&#45;&gt;Node6 -->
<g id="edge6" class="edge">
<title>Node2&#45;&gt;Node6</title>
<path fill="none" stroke="midnightblue" d="M437.37,-597.63C452.24,-596.27 467.24,-594.89 481.47,-593.58"/>
<polygon fill="midnightblue" stroke="midnightblue" points="436.75,-594.17 427.11,-598.57 437.39,-601.14 436.75,-594.17"/>
</g>
<!-- Node8 -->
<g id="node9" class="node">
<title>Node8</title>
<g id="a_node9"><a xlink:href="d2/dd8/classrawspeed_1_1_samsung_v0_decompressor.html" target="_top" xlink:title=" ">
<polygon fill="none" stroke="black" points="466,-538.5 466,-557.5 664,-557.5 664,-538.5 466,-538.5"/>
<text text-anchor="middle" x="565" y="-545.5" font-family="Helvetica,sans-Serif" font-size="10.00">rawspeed::SamsungV0Decompressor</text>
</a>
</g>
</g>
<!-- Node7&#45;&gt;Node8 -->
<g id="edge8" class="edge">
<title>Node7&#45;&gt;Node8</title>
<path fill="none" stroke="midnightblue" d="M411.51,-548C429.14,-548 447.78,-548 465.76,-548"/>
<polygon fill="midnightblue" stroke="midnightblue" points="411.27,-544.5 401.27,-548 411.27,-551.5 411.27,-544.5"/>
</g>
<!-- Node9 -->
<g id="node10" class="node">
<title>Node9</title>
<g id="a_node10"><a xlink:href="de/d5b/classrawspeed_1_1_samsung_v1_decompressor.html" target="_top" xlink:title=" ">
<polygon fill="none" stroke="black" points="466,-500.5 466,-519.5 664,-519.5 664,-500.5 466,-500.5"/>
<text text-anchor="middle" x="565" y="-507.5" font-family="Helvetica,sans-Serif" font-size="10.00">rawspeed::SamsungV1Decompressor</text>
</a>
</g>
</g>
<!-- Node7&#45;&gt;Node9 -->
<g id="edge9" class="edge">
<title>Node7&#45;&gt;Node9</title>
<path fill="none" stroke="midnightblue" d="M411.54,-534.19C442.23,-529.32 476.02,-523.96 503.97,-519.52"/>
<polygon fill="midnightblue" stroke="midnightblue" points="410.6,-530.8 401.27,-535.82 411.69,-537.71 410.6,-530.8"/>
</g>
<!-- Node10 -->
<g id="node11" class="node">
<title>Node10</title>
<g id="a_node11"><a xlink:href="dc/d8d/classrawspeed_1_1_samsung_v2_decompressor.html" target="_top" xlink:title=" ">
<polygon fill="none" stroke="black" points="466,-462.5 466,-481.5 664,-481.5 664,-462.5 466,-462.5"/>
<text text-anchor="middle" x="565" y="-469.5" font-family="Helvetica,sans-Serif" font-size="10.00">rawspeed::SamsungV2Decompressor</text>
</a>
</g>
</g>
<!-- Node7&#45;&gt;Node10 -->
<g id="edge10" class="edge">
<title>Node7&#45;&gt;Node10</title>
<path fill="none" stroke="midnightblue" d="M410.85,-531.33C417.48,-528.91 423.94,-526.15 430,-523 448.99,-513.12 446.81,-500.49 466,-491 473.92,-487.08 482.58,-483.97 491.36,-481.5"/>
<polygon fill="midnightblue" stroke="midnightblue" points="409.41,-528.12 401.05,-534.63 411.65,-534.75 409.41,-528.12"/>
</g>
</g>
</svg>
