<?xml version="1.0" encoding="UTF-8" standalone="no"?>
<!DOCTYPE svg PUBLIC "-//W3C//DTD SVG 1.1//EN"
 "http://www.w3.org/Graphics/SVG/1.1/DTD/svg11.dtd">
<!-- Generated by graphviz version 2.43.0 (0)
 -->
<!-- Title: Graphical Class Hierarchy Pages: 1 -->
<svg width="504pt" height="66pt"
 viewBox="0.00 0.00 504.00 66.00" xmlns="http://www.w3.org/2000/svg" xmlns:xlink="http://www.w3.org/1999/xlink">
<g id="graph0" class="graph" transform="scale(1 1) rotate(0) translate(4 62)">
<title>Graphical Class Hierarchy</title>
<!-- Node0 -->
<g id="node1" class="node">
<title>Node0</title>
<g id="a_node1"><a xlink:href="d6/d92/classrawspeed_1_1_error_log.html" target="_top" xlink:title=" ">
<polygon fill="none" stroke="black" points="0,-19.5 0,-38.5 110,-38.5 110,-19.5 0,-19.5"/>
<text text-anchor="middle" x="55" y="-26.5" font-family="Helvetica,sans-Serif" font-size="10.00">rawspeed::ErrorLog</text>
</a>
</g>
</g>
<!-- Node1 -->
<g id="node2" class="node">
<title>Node1</title>
<g id="a_node2"><a xlink:href="dc/d44/classrawspeed_1_1_raw_image_data.html" target="_top" xlink:title=" ">
<polygon fill="none" stroke="black" points="146,-19.5 146,-38.5 291,-38.5 291,-19.5 146,-19.5"/>
<text text-anchor="middle" x="218.5" y="-26.5" font-family="Helvetica,sans-Serif" font-size="10.00">rawspeed::RawImageData</text>
</a>
</g>
</g>
<!-- Node0&#45;&gt;Node1 -->
<g id="edge1" class="edge">
<title>Node0&#45;&gt;Node1</title>
<path fill="none" stroke="midnightblue" d="M120.33,-29C128.74,-29 137.4,-29 145.92,-29"/>
<polygon fill="midnightblue" stroke="midnightblue" points="120.23,-25.5 110.23,-29 120.23,-32.5 120.23,-25.5"/>
</g>
<!-- Node2 -->
<g id="node3" class="node">
<title>Node2</title>
<g id="a_node3"><a xlink:href="d5/d79/classrawspeed_1_1_raw_image_data_float.html" target="_top" xlink:title=" ">
<polygon fill="none" stroke="black" points="327,-38.5 327,-57.5 496,-57.5 496,-38.5 327,-38.5"/>
<text text-anchor="middle" x="411.5" y="-45.5" font-family="Helvetica,sans-Serif" font-size="10.00">rawspeed::RawImageDataFloat</text>
</a>
</g>
</g>
<!-- Node1&#45;&gt;Node2 -->
<g id="edge2" class="edge">
<title>Node1&#45;&gt;Node2</title>
<path fill="none" stroke="midnightblue" d="M301.37,-37.14C309.81,-37.98 318.4,-38.84 326.86,-39.68"/>
<polygon fill="midnightblue" stroke="midnightblue" points="301.46,-33.64 291.16,-36.13 300.77,-40.6 301.46,-33.64"/>
</g>
<!-- Node3 -->
<g id="node4" class="node">
<title>Node3</title>
<g id="a_node4"><a xlink:href="d9/d9e/classrawspeed_1_1_raw_image_data_u16.html" target="_top" xlink:title=" ">
<polygon fill="none" stroke="black" points="329.5,-0.5 329.5,-19.5 493.5,-19.5 493.5,-0.5 329.5,-0.5"/>
<text text-anchor="middle" x="411.5" y="-7.5" font-family="Helvetica,sans-Serif" font-size="10.00">rawspeed::RawImageDataU16</text>
</a>
</g>
</g>
<!-- Node1&#45;&gt;Node3 -->
<g id="edge3" class="edge">
<title>Node1&#45;&gt;Node3</title>
<path fill="none" stroke="midnightblue" d="M301.22,-20.87C310.58,-19.94 320.11,-18.99 329.45,-18.06"/>
<polygon fill="midnightblue" stroke="midnightblue" points="300.77,-17.4 291.16,-21.87 301.46,-24.36 300.77,-17.4"/>
</g>
</g>
</svg>
