<?xml version="1.0" encoding="UTF-8" standalone="no"?>
<!DOCTYPE svg PUBLIC "-//W3C//DTD SVG 1.1//EN"
 "http://www.w3.org/Graphics/SVG/1.1/DTD/svg11.dtd">
<!-- Generated by graphviz version 2.43.0 (0)
 -->
<!-- Title: LLVMFuzzerTestOneInput Pages: 1 -->
<!--zoomable 534 -->
<svg id="main" version="1.1" xmlns="http://www.w3.org/2000/svg" xmlns:xlink="http://www.w3.org/1999/xlink" xml:space="preserve" onload="init(evt)">
<style type="text/css"><![CDATA[
.edge:hover path { stroke: red; }
.edge:hover polygon { stroke: red; fill: red; }
]]></style>
<script type="text/javascript"><![CDATA[
var edges = document.getElementsByTagName('g');
if (edges && edges.length) {
  for (var i=0;i<edges.length;i++) {
    if (edges[i].id.substr(0,4)=='edge') {
      edges[i].setAttribute('class','edge');
    }
  }
}
]]></script>
        <defs>
                <circle id="rim" cx="0" cy="0" r="7"/>
                <circle id="rim2" cx="0" cy="0" r="3.5"/>
                <g id="zoomPlus">
                        <use xlink:href="#rim" fill="#404040">
                                <set attributeName="fill" to="#808080" begin="zoomplus.mouseover" end="zoomplus.mouseout"/>
                        </use>
                        <path d="M-4,0h8M0,-4v8" fill="none" stroke="white" stroke-width="1.5" pointer-events="none"/>
                </g>
                <g id="zoomMin">
                        <use xlink:href="#rim" fill="#404040">
                                <set attributeName="fill" to="#808080" begin="zoomminus.mouseover" end="zoomminus.mouseout"/>
                        </use>
                        <path d="M-4,0h8" fill="none" stroke="white" stroke-width="1.5" pointer-events="none"/>
                </g>
                <g id="dirArrow">
                        <path fill="none" stroke="white" stroke-width="1.5" d="M0,-3.0v7 M-2.5,-0.5L0,-3.0L2.5,-0.5"/>
                </g>
               <g id="resetDef">
                       <use xlink:href="#rim2" fill="#404040">
                               <set attributeName="fill" to="#808080" begin="reset.mouseover" end="reset.mouseout"/>
                       </use>
               </g>
        </defs>

<script type="text/javascript">
var viewWidth = 863;
var viewHeight = 534;
var sectionId = 'dynsection-1';
</script>
<script xlink:href="../../svgpan.js"/>
<svg id="graph" class="graph">
<g id="viewport">
<title>LLVMFuzzerTestOneInput</title>
<!-- Node1 -->
<g id="node1" class="node">
<title>Node1</title>
<g id="a_node1"><a xlink:title=" ">
<polygon fill="#bfbfbf" stroke="black" points="0,-220.18 0,-239.18 136,-239.18 136,-220.18 0,-220.18"/>
<text text-anchor="middle" x="68" y="-227.18" font-family="Helvetica,sans-Serif" font-size="10.00">LLVMFuzzerTestOneInput</text>
</a>
</g>
</g>
<!-- Node2 -->
<g id="node2" class="node">
<title>Node2</title>
<g id="a_node2"><a xlink:href="../../dd/da0/classrawspeed_1_1_byte_stream.html#a804858089e7e6c442815d46128cca1ed" target="_top" xlink:title=" ">
<polygon fill="none" stroke="black" points="727,-127.68 727,-157.68 855,-157.68 855,-127.68 727,-127.68"/>
<text text-anchor="start" x="735" y="-145.68" font-family="Helvetica,sans-Serif" font-size="10.00">rawspeed::ByteStream</text>
<text text-anchor="middle" x="791" y="-134.68" font-family="Helvetica,sans-Serif" font-size="10.00">::ByteStream</text>
</a>
</g>
</g>
<!-- Node1&#45;&gt;Node2 -->
<g id="edge1" class="edge">
<title>Node1&#45;&gt;Node2</title>
<path fill="none" stroke="midnightblue" d="M70.84,-220.04C77.53,-187.99 103.86,-84.72 172,-44.68 367.97,70.51 656.47,-68.08 755.3,-122.54"/>
<polygon fill="midnightblue" stroke="midnightblue" points="753.83,-125.72 764.27,-127.54 757.24,-119.61 753.83,-125.72"/>
</g>
<!-- Node3 -->
<g id="node3" class="node">
<title>Node3</title>
<g id="a_node3"><a xlink:href="../../dc/d44/classrawspeed_1_1_raw_image_data.html#a9c4e731cd919ff9b06fe440284b2e8c8" target="_top" xlink:title=" ">
<polygon fill="none" stroke="black" points="186.5,-395.68 186.5,-425.68 331.5,-425.68 331.5,-395.68 186.5,-395.68"/>
<text text-anchor="start" x="194.5" y="-413.68" font-family="Helvetica,sans-Serif" font-size="10.00">rawspeed::RawImageData</text>
<text text-anchor="middle" x="259" y="-402.68" font-family="Helvetica,sans-Serif" font-size="10.00">::checkMemIsInitialized</text>
</a>
</g>
</g>
<!-- Node1&#45;&gt;Node3 -->
<g id="edge2" class="edge">
<title>Node1&#45;&gt;Node3</title>
<path fill="none" stroke="midnightblue" d="M72.58,-239.54C83.15,-267.27 116.99,-346.47 172,-386.68 174.08,-388.2 176.25,-389.62 178.5,-390.95"/>
<polygon fill="midnightblue" stroke="midnightblue" points="176.99,-394.11 187.47,-395.67 180.24,-387.92 176.99,-394.11"/>
</g>
<!-- Node4 -->
<g id="node4" class="node">
<title>Node4</title>
<g id="a_node4"><a xlink:href="../../dc/d44/classrawspeed_1_1_raw_image_data.html#af7cbbd3ab6bb415e7e1b1f58a285084f" target="_top" xlink:title=" ">
<polygon fill="none" stroke="black" points="186.5,-346.68 186.5,-376.68 331.5,-376.68 331.5,-346.68 186.5,-346.68"/>
<text text-anchor="start" x="194.5" y="-364.68" font-family="Helvetica,sans-Serif" font-size="10.00">rawspeed::RawImageData</text>
<text text-anchor="middle" x="259" y="-353.68" font-family="Helvetica,sans-Serif" font-size="10.00">::createData</text>
</a>
</g>
</g>
<!-- Node1&#45;&gt;Node4 -->
<g id="edge3" class="edge">
<title>Node1&#45;&gt;Node4</title>
<path fill="none" stroke="midnightblue" d="M82.9,-239.38C113.38,-260.67 186.69,-311.87 228.14,-340.82"/>
<polygon fill="midnightblue" stroke="midnightblue" points="226.27,-343.78 236.47,-346.64 230.28,-338.04 226.27,-343.78"/>
</g>
<!-- Node7 -->
<g id="node7" class="node">
<title>Node7</title>
<g id="a_node7"><a xlink:href="../../d9/d5a/fuzz_2librawspeed_2fuzz_2_common_8cpp.html#a9b5193764409a69db1176954187dad97" target="_top" xlink:title=" ">
<polygon fill="none" stroke="black" points="208.5,-258.18 208.5,-277.18 309.5,-277.18 309.5,-258.18 208.5,-258.18"/>
<text text-anchor="middle" x="259" y="-265.18" font-family="Helvetica,sans-Serif" font-size="10.00">CreateRawImage</text>
</a>
</g>
</g>
<!-- Node1&#45;&gt;Node7 -->
<g id="edge6" class="edge">
<title>Node1&#45;&gt;Node7</title>
<path fill="none" stroke="midnightblue" d="M116.69,-239.26C142.2,-244.39 173.78,-250.74 200.62,-256.14"/>
<polygon fill="midnightblue" stroke="midnightblue" points="200.16,-259.62 210.65,-258.15 201.54,-252.75 200.16,-259.62"/>
</g>
<!-- Node12 -->
<g id="node12" class="node">
<title>Node12</title>
<g id="a_node12"><a xlink:href="../../dd/d12/classrawspeed_1_1_raw_image.html#a2907002b5c707eca6939061f8b0d5e5d" target="_top" xlink:title=" ">
<polygon fill="none" stroke="black" points="393.5,-152.68 393.5,-182.68 515.5,-182.68 515.5,-152.68 393.5,-152.68"/>
<text text-anchor="start" x="401.5" y="-170.68" font-family="Helvetica,sans-Serif" font-size="10.00">rawspeed::RawImage</text>
<text text-anchor="middle" x="454.5" y="-159.68" font-family="Helvetica,sans-Serif" font-size="10.00">::operator&#45;&gt;</text>
</a>
</g>
</g>
<!-- Node1&#45;&gt;Node12 -->
<g id="edge20" class="edge">
<title>Node1&#45;&gt;Node12</title>
<path fill="none" stroke="midnightblue" d="M136.26,-232.38C193.13,-232.94 276.24,-229.69 346,-210.68 363.26,-205.97 365.52,-199.64 382,-192.68 387.15,-190.5 392.56,-188.36 398,-186.3"/>
<polygon fill="midnightblue" stroke="midnightblue" points="399.61,-189.43 407.78,-182.69 397.19,-182.86 399.61,-189.43"/>
</g>
<!-- Node14 -->
<g id="node14" class="node">
<title>Node14</title>
<g id="a_node14"><a xlink:href="../../d5/df3/classrawspeed_1_1_pentax_decompressor.html#a0cc53fe10668da04331a655e233107de" target="_top" xlink:title=" ">
<polygon fill="none" stroke="black" points="172,-170.68 172,-200.68 346,-200.68 346,-170.68 172,-170.68"/>
<text text-anchor="start" x="180" y="-188.68" font-family="Helvetica,sans-Serif" font-size="10.00">rawspeed::PentaxDecompressor</text>
<text text-anchor="middle" x="259" y="-177.68" font-family="Helvetica,sans-Serif" font-size="10.00">::decompress</text>
</a>
</g>
</g>
<!-- Node1&#45;&gt;Node14 -->
<g id="edge13" class="edge">
<title>Node1&#45;&gt;Node14</title>
<path fill="none" stroke="midnightblue" d="M110.01,-220.13C131.48,-215.13 158.44,-208.85 183.45,-203.03"/>
<polygon fill="midnightblue" stroke="midnightblue" points="184.34,-206.42 193.29,-200.74 182.75,-199.6 184.34,-206.42"/>
</g>
<!-- Node15 -->
<g id="node15" class="node">
<title>Node15</title>
<g id="a_node15"><a xlink:href="../../dd/da0/classrawspeed_1_1_byte_stream.html#ab4972769baa5c0ed59ec0608ed2b307d" target="_top" xlink:title=" ">
<polygon fill="none" stroke="black" points="195,-54.68 195,-84.68 323,-84.68 323,-54.68 195,-54.68"/>
<text text-anchor="start" x="203" y="-72.68" font-family="Helvetica,sans-Serif" font-size="10.00">rawspeed::ByteStream</text>
<text text-anchor="middle" x="259" y="-61.68" font-family="Helvetica,sans-Serif" font-size="10.00">::getRemainSize</text>
</a>
</g>
</g>
<!-- Node1&#45;&gt;Node15 -->
<g id="edge14" class="edge">
<title>Node1&#45;&gt;Node15</title>
<path fill="none" stroke="midnightblue" d="M73.48,-220.07C85.6,-195.14 121.55,-127.99 172,-93.68 176.22,-90.81 180.77,-88.28 185.51,-86.05"/>
<polygon fill="midnightblue" stroke="midnightblue" points="186.94,-89.24 194.79,-82.13 184.22,-82.8 186.94,-89.24"/>
</g>
<!-- Node17 -->
<g id="node17" class="node">
<title>Node17</title>
<g id="a_node17"><a xlink:href="../../dd/da0/classrawspeed_1_1_byte_stream.html#a7a5f5eaad404d367efb8a64fa82d20ae" target="_top" xlink:title=" ">
<polygon fill="none" stroke="black" points="195,-469.68 195,-499.68 323,-499.68 323,-469.68 195,-469.68"/>
<text text-anchor="start" x="203" y="-487.68" font-family="Helvetica,sans-Serif" font-size="10.00">rawspeed::ByteStream</text>
<text text-anchor="middle" x="259" y="-476.68" font-family="Helvetica,sans-Serif" font-size="10.00">::getStream</text>
</a>
</g>
</g>
<!-- Node1&#45;&gt;Node17 -->
<g id="edge16" class="edge">
<title>Node1&#45;&gt;Node17</title>
<path fill="none" stroke="midnightblue" d="M71.66,-239.47C80.72,-271.34 113.16,-373.55 172,-435.68 183.15,-447.44 197.76,-457.19 211.76,-464.81"/>
<polygon fill="midnightblue" stroke="midnightblue" points="210.35,-468.02 220.84,-469.51 213.57,-461.81 210.35,-468.02"/>
</g>
<!-- Node20 -->
<g id="node20" class="node">
<title>Node20</title>
<g id="a_node20"><a xlink:href="../../d5/df3/classrawspeed_1_1_pentax_decompressor.html#aa2effabef0955b11c44ca4e982534384" target="_top" xlink:title=" ">
<polygon fill="none" stroke="black" points="172,-103.68 172,-133.68 346,-133.68 346,-103.68 172,-103.68"/>
<text text-anchor="start" x="180" y="-121.68" font-family="Helvetica,sans-Serif" font-size="10.00">rawspeed::PentaxDecompressor</text>
<text text-anchor="middle" x="259" y="-110.68" font-family="Helvetica,sans-Serif" font-size="10.00">::PentaxDecompressor</text>
</a>
</g>
</g>
<!-- Node1&#45;&gt;Node20 -->
<g id="edge21" class="edge">
<title>Node1&#45;&gt;Node20</title>
<path fill="none" stroke="midnightblue" d="M82.33,-220.12C101.66,-206.46 138.78,-180.85 172,-161.68 186.23,-153.46 202.23,-145.2 216.54,-138.15"/>
<polygon fill="midnightblue" stroke="midnightblue" points="218.21,-141.24 225.66,-133.71 215.14,-134.94 218.21,-141.24"/>
</g>
<!-- Node5 -->
<g id="node5" class="node">
<title>Node5</title>
<g id="a_node5"><a xlink:href="../../dc/d44/classrawspeed_1_1_raw_image_data.html#a724d8812aca44f04e6aeb965daeab36d" target="_top" xlink:title=" ">
<polygon fill="none" stroke="black" points="382,-397.68 382,-427.68 527,-427.68 527,-397.68 382,-397.68"/>
<text text-anchor="start" x="390" y="-415.68" font-family="Helvetica,sans-Serif" font-size="10.00">rawspeed::RawImageData</text>
<text text-anchor="middle" x="454.5" y="-404.68" font-family="Helvetica,sans-Serif" font-size="10.00">::getData</text>
</a>
</g>
</g>
<!-- Node4&#45;&gt;Node5 -->
<g id="edge4" class="edge">
<title>Node4&#45;&gt;Node5</title>
<path fill="none" stroke="midnightblue" d="M317.01,-376.7C338.86,-382.46 363.98,-389.08 386.67,-395.06"/>
<polygon fill="midnightblue" stroke="midnightblue" points="386,-398.5 396.56,-397.67 387.79,-391.74 386,-398.5"/>
</g>
<!-- Node6 -->
<g id="node6" class="node">
<title>Node6</title>
<g id="a_node6"><a xlink:href="../../dc/d44/classrawspeed_1_1_raw_image_data.html#a383099b27aea42a05858e18b6cf69c96" target="_top" xlink:title=" ">
<polygon fill="none" stroke="black" points="382,-446.68 382,-476.68 527,-476.68 527,-446.68 382,-446.68"/>
<text text-anchor="start" x="390" y="-464.68" font-family="Helvetica,sans-Serif" font-size="10.00">rawspeed::RawImageData</text>
<text text-anchor="middle" x="454.5" y="-453.68" font-family="Helvetica,sans-Serif" font-size="10.00">::poisonPadding</text>
</a>
</g>
</g>
<!-- Node4&#45;&gt;Node6 -->
<g id="edge5" class="edge">
<title>Node4&#45;&gt;Node6</title>
<path fill="none" stroke="midnightblue" d="M328.23,-376.73C334.52,-379.51 340.56,-382.79 346,-386.68 368.59,-402.78 359.75,-421.11 382,-437.68 383.88,-439.07 385.84,-440.39 387.87,-441.64"/>
<polygon fill="midnightblue" stroke="midnightblue" points="386.66,-444.96 397.12,-446.64 389.99,-438.8 386.66,-444.96"/>
</g>
<!-- Node8 -->
<g id="node8" class="node">
<title>Node8</title>
<g id="a_node8"><a xlink:href="../../dd/d12/classrawspeed_1_1_raw_image.html#a4a7b73d675f5ac9c8730a9b7f60c3d82" target="_top" xlink:title=" ">
<polygon fill="none" stroke="black" points="393.5,-201.68 393.5,-231.68 515.5,-231.68 515.5,-201.68 393.5,-201.68"/>
<text text-anchor="start" x="401.5" y="-219.68" font-family="Helvetica,sans-Serif" font-size="10.00">rawspeed::RawImage</text>
<text text-anchor="middle" x="454.5" y="-208.68" font-family="Helvetica,sans-Serif" font-size="10.00">::create</text>
</a>
</g>
</g>
<!-- Node7&#45;&gt;Node8 -->
<g id="edge7" class="edge">
<title>Node7&#45;&gt;Node8</title>
<path fill="none" stroke="midnightblue" d="M296.4,-258.08C321.67,-251.42 356.1,-242.35 386.29,-234.39"/>
<polygon fill="midnightblue" stroke="midnightblue" points="387.57,-237.67 396.35,-231.74 385.78,-230.9 387.57,-237.67"/>
</g>
<!-- Node10 -->
<g id="node10" class="node">
<title>Node10</title>
<g id="a_node10"><a xlink:href="../../dd/da0/classrawspeed_1_1_byte_stream.html#ac598b7b6f0f8fd5476adb7c1363b1518" target="_top" xlink:title=" ">
<polygon fill="none" stroke="black" points="390.5,-348.68 390.5,-378.68 518.5,-378.68 518.5,-348.68 390.5,-348.68"/>
<text text-anchor="start" x="398.5" y="-366.68" font-family="Helvetica,sans-Serif" font-size="10.00">rawspeed::ByteStream</text>
<text text-anchor="middle" x="454.5" y="-355.68" font-family="Helvetica,sans-Serif" font-size="10.00">::getU32</text>
</a>
</g>
</g>
<!-- Node7&#45;&gt;Node10 -->
<g id="edge9" class="edge">
<title>Node7&#45;&gt;Node10</title>
<path fill="none" stroke="midnightblue" d="M274.12,-277.34C296.31,-292.22 341.06,-320.97 382,-339.68 386.06,-341.53 390.31,-343.32 394.63,-345.02"/>
<polygon fill="midnightblue" stroke="midnightblue" points="393.53,-348.35 404.13,-348.61 396.01,-341.8 393.53,-348.35"/>
</g>
<!-- Node11 -->
<g id="node11" class="node">
<title>Node11</title>
<g id="a_node11"><a xlink:href="../../d8/d75/classrawspeed_1_1i_point2_d.html#ab980cc8ab2f3502a5a2c230530ba2a64" target="_top" xlink:title=" ">
<polygon fill="none" stroke="black" points="399,-299.68 399,-329.68 510,-329.68 510,-299.68 399,-299.68"/>
<text text-anchor="start" x="407" y="-317.68" font-family="Helvetica,sans-Serif" font-size="10.00">rawspeed::iPoint2D</text>
<text text-anchor="middle" x="454.5" y="-306.68" font-family="Helvetica,sans-Serif" font-size="10.00">::iPoint2D</text>
</a>
</g>
</g>
<!-- Node7&#45;&gt;Node11 -->
<g id="edge10" class="edge">
<title>Node7&#45;&gt;Node11</title>
<path fill="none" stroke="midnightblue" d="M299.16,-277.19C324.85,-283.43 359.07,-291.74 388.76,-298.95"/>
<polygon fill="midnightblue" stroke="midnightblue" points="388.09,-302.39 398.64,-301.35 389.75,-295.59 388.09,-302.39"/>
</g>
<!-- Node7&#45;&gt;Node12 -->
<g id="edge11" class="edge">
<title>Node7&#45;&gt;Node12</title>
<path fill="none" stroke="midnightblue" d="M309.89,-259.89C322.44,-256.34 335.36,-251.18 346,-243.68 368.68,-227.69 359.85,-209.38 382,-192.68 384.44,-190.83 387.03,-189.12 389.72,-187.53"/>
<polygon fill="midnightblue" stroke="midnightblue" points="391.38,-190.61 398.58,-182.84 388.1,-184.42 391.38,-190.61"/>
</g>
<!-- Node13 -->
<g id="node13" class="node">
<title>Node13</title>
<g id="a_node13"><a xlink:href="../../dc/d44/classrawspeed_1_1_raw_image_data.html#a180f90ba4cf9e6e6ff1c307f6106f4ed" target="_top" xlink:title=" ">
<polygon fill="none" stroke="black" points="382,-250.68 382,-280.68 527,-280.68 527,-250.68 382,-250.68"/>
<text text-anchor="start" x="390" y="-268.68" font-family="Helvetica,sans-Serif" font-size="10.00">rawspeed::RawImageData</text>
<text text-anchor="middle" x="454.5" y="-257.68" font-family="Helvetica,sans-Serif" font-size="10.00">::setCpp</text>
</a>
</g>
</g>
<!-- Node7&#45;&gt;Node13 -->
<g id="edge12" class="edge">
<title>Node7&#45;&gt;Node13</title>
<path fill="none" stroke="midnightblue" d="M309.58,-267.16C328.44,-266.97 350.47,-266.74 371.54,-266.52"/>
<polygon fill="midnightblue" stroke="midnightblue" points="371.82,-270.02 381.78,-266.42 371.75,-263.02 371.82,-270.02"/>
</g>
<!-- Node9 -->
<g id="node9" class="node">
<title>Node9</title>
<g id="a_node9"><a xlink:href="../../de/dc3/namespacerawspeed.html#a8a98a18f46994d6cae15ce24462fb7d4" target="_top" xlink:title=" ">
<polygon fill="none" stroke="black" points="571,-207.18 571,-226.18 683,-226.18 683,-207.18 571,-207.18"/>
<text text-anchor="middle" x="627" y="-214.18" font-family="Helvetica,sans-Serif" font-size="10.00">rawspeed::writeLog</text>
</a>
</g>
</g>
<!-- Node8&#45;&gt;Node9 -->
<g id="edge8" class="edge">
<title>Node8&#45;&gt;Node9</title>
<path fill="none" stroke="midnightblue" d="M515.61,-216.68C530.26,-216.68 545.99,-216.68 560.86,-216.68"/>
<polygon fill="midnightblue" stroke="midnightblue" points="560.99,-220.18 570.99,-216.68 560.99,-213.18 560.99,-220.18"/>
</g>
<!-- Node16 -->
<g id="node16" class="node">
<title>Node16</title>
<g id="a_node16"><a xlink:href="../../dd/da0/classrawspeed_1_1_byte_stream.html#a33bbb3baf3bb9730f9da8765175ec4ce" target="_top" xlink:title=" ">
<polygon fill="none" stroke="black" points="390.5,-54.68 390.5,-84.68 518.5,-84.68 518.5,-54.68 390.5,-54.68"/>
<text text-anchor="start" x="398.5" y="-72.68" font-family="Helvetica,sans-Serif" font-size="10.00">rawspeed::ByteStream</text>
<text text-anchor="middle" x="454.5" y="-61.68" font-family="Helvetica,sans-Serif" font-size="10.00">::check</text>
</a>
</g>
</g>
<!-- Node15&#45;&gt;Node16 -->
<g id="edge15" class="edge">
<title>Node15&#45;&gt;Node16</title>
<path fill="none" stroke="midnightblue" d="M323.09,-69.68C341.41,-69.68 361.58,-69.68 380.46,-69.68"/>
<polygon fill="midnightblue" stroke="midnightblue" points="380.49,-73.18 390.49,-69.68 380.49,-66.18 380.49,-73.18"/>
</g>
<!-- Node18 -->
<g id="node18" class="node">
<title>Node18</title>
<g id="a_node18"><a xlink:href="../../dd/da0/classrawspeed_1_1_byte_stream.html#a81cc27671b93889f9c8adb62ece8340e" target="_top" xlink:title=" ">
<polygon fill="none" stroke="black" points="390.5,-495.68 390.5,-525.68 518.5,-525.68 518.5,-495.68 390.5,-495.68"/>
<text text-anchor="start" x="398.5" y="-513.68" font-family="Helvetica,sans-Serif" font-size="10.00">rawspeed::ByteStream</text>
<text text-anchor="middle" x="454.5" y="-502.68" font-family="Helvetica,sans-Serif" font-size="10.00">::peekStream</text>
</a>
</g>
</g>
<!-- Node17&#45;&gt;Node18 -->
<g id="edge17" class="edge">
<title>Node17&#45;&gt;Node18</title>
<path fill="none" stroke="midnightblue" d="M323.09,-493.15C341.41,-495.61 361.58,-498.32 380.46,-500.86"/>
<polygon fill="midnightblue" stroke="midnightblue" points="380.12,-504.35 390.49,-502.21 381.05,-497.41 380.12,-504.35"/>
</g>
<!-- Node19 -->
<g id="node19" class="node">
<title>Node19</title>
<g id="a_node19"><a xlink:href="../../dd/da0/classrawspeed_1_1_byte_stream.html#a5eb5f775dd7efaa22b490007fe835a32" target="_top" xlink:title=" ">
<polygon fill="none" stroke="black" points="563,-370.68 563,-400.68 691,-400.68 691,-370.68 563,-370.68"/>
<text text-anchor="start" x="571" y="-388.68" font-family="Helvetica,sans-Serif" font-size="10.00">rawspeed::ByteStream</text>
<text text-anchor="middle" x="627" y="-377.68" font-family="Helvetica,sans-Serif" font-size="10.00">::getSubStream</text>
</a>
</g>
</g>
<!-- Node18&#45;&gt;Node19 -->
<g id="edge18" class="edge">
<title>Node18&#45;&gt;Node19</title>
<path fill="none" stroke="midnightblue" d="M509.48,-495.66C515.59,-493.06 521.56,-490.08 527,-486.68 560.21,-465.87 590.49,-431.75 608.59,-409"/>
<polygon fill="midnightblue" stroke="midnightblue" points="611.52,-410.93 614.91,-400.89 606,-406.63 611.52,-410.93"/>
</g>
<!-- Node19&#45;&gt;Node2 -->
<g id="edge19" class="edge">
<title>Node19&#45;&gt;Node2</title>
<path fill="none" stroke="midnightblue" d="M638.13,-370.47C665.52,-329.39 741.18,-215.91 774.22,-166.35"/>
<polygon fill="midnightblue" stroke="midnightblue" points="777.24,-168.13 779.87,-157.87 771.41,-164.25 777.24,-168.13"/>
</g>
<!-- Node20&#45;&gt;Node12 -->
<g id="edge22" class="edge">
<title>Node20&#45;&gt;Node12</title>
<path fill="none" stroke="midnightblue" d="M319.37,-133.71C339.9,-138.91 363.07,-144.78 384.31,-150.15"/>
<polygon fill="midnightblue" stroke="midnightblue" points="383.69,-153.61 394.24,-152.67 385.41,-146.82 383.69,-153.61"/>
</g>
<!-- Node20&#45;&gt;Node20 -->
<g id="edge23" class="edge">
<title>Node20&#45;&gt;Node20</title>
<path fill="none" stroke="midnightblue" d="M225.89,-133.83C217.9,-143.23 228.94,-152.18 259,-152.18 277.32,-152.18 288.57,-148.85 292.76,-144.13"/>
<polygon fill="midnightblue" stroke="midnightblue" points="296.23,-143.59 292.11,-133.83 289.25,-144.03 296.23,-143.59"/>
</g>
<!-- Node21 -->
<g id="node21" class="node">
<title>Node21</title>
<g id="a_node21"><a xlink:href="../../dd/d12/classrawspeed_1_1_raw_image.html#a4a01d153bb4518ddfaac18a5d0694154" target="_top" xlink:title=" ">
<polygon fill="none" stroke="black" points="393.5,-103.68 393.5,-133.68 515.5,-133.68 515.5,-103.68 393.5,-103.68"/>
<text text-anchor="start" x="401.5" y="-121.68" font-family="Helvetica,sans-Serif" font-size="10.00">rawspeed::RawImage</text>
<text text-anchor="middle" x="454.5" y="-110.68" font-family="Helvetica,sans-Serif" font-size="10.00">::RawImage</text>
</a>
</g>
</g>
<!-- Node20&#45;&gt;Node21 -->
<g id="edge24" class="edge">
<title>Node20&#45;&gt;Node21</title>
<path fill="none" stroke="midnightblue" d="M346.28,-118.68C358.6,-118.68 371.14,-118.68 383.1,-118.68"/>
<polygon fill="midnightblue" stroke="midnightblue" points="383.45,-122.18 393.45,-118.68 383.45,-115.18 383.45,-122.18"/>
</g>
</g>
</svg>
        <g id="navigator" transform="translate(0 0)" fill="#404254">
                <rect fill="#f2f5e9" fill-opacity="0.5" stroke="#606060" stroke-width=".5" x="0" y="0" width="60" height="60"/>
                <use id="zoomplus" xlink:href="#zoomPlus" x="17" y="9" onmousedown="handleZoom(evt,'in')"/>
                <use id="zoomminus" xlink:href="#zoomMin" x="42" y="9" onmousedown="handleZoom(evt,'out')"/>
                <use id="reset" xlink:href="#resetDef" x="30" y="36" onmousedown="handleReset()"/>
                <g id="arrowUp" xlink:href="#dirArrow" transform="translate(30 24)" onmousedown="handlePan(0,-1)">
                  <use xlink:href="#rim" fill="#404040">
                        <set attributeName="fill" to="#808080" begin="arrowUp.mouseover" end="arrowUp.mouseout"/>
                  </use>
                  <path fill="none" stroke="white" stroke-width="1.5" d="M0,-3.0v7 M-2.5,-0.5L0,-3.0L2.5,-0.5"/>
                </g>
                <g id="arrowRight" xlink:href="#dirArrow" transform="rotate(90) translate(36 -43)" onmousedown="handlePan(1,0)">
                  <use xlink:href="#rim" fill="#404040">
                        <set attributeName="fill" to="#808080" begin="arrowRight.mouseover" end="arrowRight.mouseout"/>
                  </use>
                  <path fill="none" stroke="white" stroke-width="1.5" d="M0,-3.0v7 M-2.5,-0.5L0,-3.0L2.5,-0.5"/>
                </g>
                <g id="arrowDown" xlink:href="#dirArrow" transform="rotate(180) translate(-30 -48)" onmousedown="handlePan(0,1)">
                  <use xlink:href="#rim" fill="#404040">
                        <set attributeName="fill" to="#808080" begin="arrowDown.mouseover" end="arrowDown.mouseout"/>
                  </use>
                  <path fill="none" stroke="white" stroke-width="1.5" d="M0,-3.0v7 M-2.5,-0.5L0,-3.0L2.5,-0.5"/>
                </g>
                <g id="arrowLeft" xlink:href="#dirArrow" transform="rotate(270) translate(-36 17)" onmousedown="handlePan(-1,0)">
                  <use xlink:href="#rim" fill="#404040">
                        <set attributeName="fill" to="#808080" begin="arrowLeft.mouseover" end="arrowLeft.mouseout"/>
                  </use>
                  <path fill="none" stroke="white" stroke-width="1.5" d="M0,-3.0v7 M-2.5,-0.5L0,-3.0L2.5,-0.5"/>
                </g>
        </g>
        <svg viewBox="0 0 15 15" width="100%" height="30px" preserveAspectRatio="xMaxYMin meet">
         <g id="arrow_out" transform="scale(0.3 0.3)">
          <a xlink:href="fuzz_2librawspeed_2decompressors_2_pentax_decompressor_8cpp_a1c473c9665269a78ef9001573a6995df_cgraph_org.svg" target="_base">
           <rect id="button" ry="5" rx="5" y="6" x="6" height="38" width="38"
                fill="#f2f5e9" fill-opacity="0.5" stroke="#606060" stroke-width="1.0"/>
           <path id="arrow"
             d="M 11.500037,31.436501 C 11.940474,20.09759 22.043105,11.32322 32.158766,21.979434 L 37.068811,17.246167 C 37.068811,17.246167 37.088388,32 37.088388,32 L 22.160133,31.978069 C 22.160133,31.978069 26.997745,27.140456 26.997745,27.140456 C 18.528582,18.264221 13.291696,25.230495 11.500037,31.436501 z"
             style="fill:#404040;"/>
          </a>
         </g>
        </svg>
</svg>
