<?xml version="1.0" encoding="UTF-8" standalone="no"?>
<!DOCTYPE svg PUBLIC "-//W3C//DTD SVG 1.1//EN"
 "http://www.w3.org/Graphics/SVG/1.1/DTD/svg11.dtd">
<!-- Generated by graphviz version 2.43.0 (0)
 -->
<!-- Title: rawspeed::VC5Decompressor::Wavelet::ReconstructableBand Pages: 1 -->
<svg width="1057pt" height="126pt"
 viewBox="0.00 0.00 1057.00 126.00" xmlns="http://www.w3.org/2000/svg" xmlns:xlink="http://www.w3.org/1999/xlink">
<g id="graph0" class="graph" transform="scale(1 1) rotate(0) translate(4 122)">
<title>rawspeed::VC5Decompressor::Wavelet::ReconstructableBand</title>
<!-- Node1 -->
<g id="node1" class="node">
<title>Node1</title>
<g id="a_node1"><a xlink:title=" ">
<polygon fill="#bfbfbf" stroke="black" points="878,-39 878,-69 1049,-69 1049,-39 878,-39"/>
<text text-anchor="start" x="886" y="-57" font-family="Helvetica,sans-Serif" font-size="10.00">rawspeed::VC5Decompressor</text>
<text text-anchor="middle" x="963.5" y="-46" font-family="Helvetica,sans-Serif" font-size="10.00">::Wavelet::ReconstructableBand</text>
</a>
</g>
</g>
<!-- Node2 -->
<g id="node2" class="node">
<title>Node2</title>
<g id="a_node2"><a xlink:href="../../dd/d5b/structrawspeed_1_1_v_c5_decompressor_1_1_wavelet_1_1_abstract_band.html" target="_top" xlink:title=" ">
<polygon fill="none" stroke="black" points="628,-39 628,-69 788,-69 788,-39 628,-39"/>
<text text-anchor="start" x="636" y="-57" font-family="Helvetica,sans-Serif" font-size="10.00">rawspeed::VC5Decompressor</text>
<text text-anchor="middle" x="708" y="-46" font-family="Helvetica,sans-Serif" font-size="10.00">::Wavelet::AbstractBand</text>
</a>
</g>
</g>
<!-- Node2&#45;&gt;Node1 -->
<g id="edge1" class="edge">
<title>Node2&#45;&gt;Node1</title>
<path fill="none" stroke="midnightblue" d="M798.32,-54C824.15,-54 852.25,-54 877.79,-54"/>
<polygon fill="midnightblue" stroke="midnightblue" points="798.17,-50.5 788.17,-54 798.17,-57.5 798.17,-50.5"/>
</g>
<!-- Node3 -->
<g id="node3" class="node">
<title>Node3</title>
<g id="a_node3"><a xlink:title=" ">
<polygon fill="none" stroke="#bfbfbf" points="387,-59.5 387,-100.5 567,-100.5 567,-59.5 387,-59.5"/>
<text text-anchor="start" x="395" y="-88.5" font-family="Helvetica,sans-Serif" font-size="10.00">std::vector&lt; int16</text>
<text text-anchor="start" x="395" y="-77.5" font-family="Helvetica,sans-Serif" font-size="10.00">_t, rawspeed::DefaultInitAllocator</text>
<text text-anchor="middle" x="477" y="-66.5" font-family="Helvetica,sans-Serif" font-size="10.00">Adaptor&lt; int16_t &gt; &gt;</text>
</a>
</g>
</g>
<!-- Node3&#45;&gt;Node1 -->
<g id="edge6" class="edge">
<title>Node3&#45;&gt;Node1</title>
<path fill="none" stroke="#9a32cd" stroke-dasharray="5,2" d="M577.23,-81.92C579.84,-81.95 582.44,-81.98 585,-82 661.03,-82.71 777.06,-79.87 788,-79 817.44,-76.65 849.48,-72.52 877.98,-68.29"/>
<polygon fill="#9a32cd" stroke="#9a32cd" points="577.08,-78.42 567.04,-81.79 576.99,-85.42 577.08,-78.42"/>
<text text-anchor="middle" x="708" y="-96" font-family="Helvetica,sans-Serif" font-size="10.00"> highpass_storage</text>
<text text-anchor="middle" x="708" y="-85" font-family="Helvetica,sans-Serif" font-size="10.00">lowpass_storage</text>
</g>
<!-- Node3&#45;&gt;Node2 -->
<g id="edge2" class="edge">
<title>Node3&#45;&gt;Node2</title>
<path fill="none" stroke="#9a32cd" stroke-dasharray="5,2" d="M577.57,-68.69C594.35,-66.79 611.57,-64.84 627.74,-63"/>
<polygon fill="#9a32cd" stroke="#9a32cd" points="576.73,-65.27 567.19,-69.87 577.52,-72.22 576.73,-65.27"/>
<text text-anchor="middle" x="597.5" y="-70" font-family="Helvetica,sans-Serif" font-size="10.00"> data</text>
</g>
<!-- Node4 -->
<g id="node4" class="node">
<title>Node4</title>
<g id="a_node4"><a xlink:href="../../d2/d54/classint16__t.html" target="_top" xlink:title=" ">
<polygon fill="none" stroke="black" points="137.5,-98.5 137.5,-117.5 187.5,-117.5 187.5,-98.5 137.5,-98.5"/>
<text text-anchor="middle" x="162.5" y="-105.5" font-family="Helvetica,sans-Serif" font-size="10.00">int16_t</text>
</a>
</g>
</g>
<!-- Node4&#45;&gt;Node3 -->
<g id="edge3" class="edge">
<title>Node4&#45;&gt;Node3</title>
<path fill="none" stroke="#9a32cd" stroke-dasharray="5,2" d="M197.62,-104.94C242.71,-100.9 323.77,-93.64 386.83,-87.99"/>
<polygon fill="#9a32cd" stroke="#9a32cd" points="197.15,-101.47 187.5,-105.85 197.77,-108.44 197.15,-101.47"/>
<text text-anchor="middle" x="299" y="-104" font-family="Helvetica,sans-Serif" font-size="10.00"> elements</text>
</g>
<!-- Node5 -->
<g id="node5" class="node">
<title>Node5</title>
<g id="a_node5"><a xlink:title="STL class.">
<polygon fill="none" stroke="#bfbfbf" points="114,-42.5 114,-61.5 211,-61.5 211,-42.5 114,-42.5"/>
<text text-anchor="middle" x="162.5" y="-49.5" font-family="Helvetica,sans-Serif" font-size="10.00">std::vector&lt; T &gt;</text>
</a>
</g>
</g>
<!-- Node5&#45;&gt;Node3 -->
<g id="edge4" class="edge">
<title>Node5&#45;&gt;Node3</title>
<path fill="none" stroke="orange" stroke-dasharray="5,2" d="M221.22,-48.08C262.54,-46.22 319.42,-45.62 369,-52 381.76,-53.64 395.17,-56.34 408.02,-59.43"/>
<polygon fill="orange" stroke="orange" points="220.88,-44.59 211.06,-48.57 221.22,-51.58 220.88,-44.59"/>
<text text-anchor="start" x="229" y="-77" font-family="Helvetica,sans-Serif" font-size="10.00"> &lt; int16_t, rawspeed</text>
<text text-anchor="start" x="229" y="-66" font-family="Helvetica,sans-Serif" font-size="10.00">::DefaultInitAllocatorAdaptor</text>
<text text-anchor="middle" x="299" y="-55" font-family="Helvetica,sans-Serif" font-size="10.00">&lt; int16_t &gt; &gt;</text>
</g>
<!-- Node6 -->
<g id="node6" class="node">
<title>Node6</title>
<g id="a_node6"><a xlink:title=" ">
<polygon fill="none" stroke="#bfbfbf" points="0,-42.5 0,-61.5 29,-61.5 29,-42.5 0,-42.5"/>
<text text-anchor="middle" x="14.5" y="-49.5" font-family="Helvetica,sans-Serif" font-size="10.00">T</text>
</a>
</g>
</g>
<!-- Node6&#45;&gt;Node5 -->
<g id="edge5" class="edge">
<title>Node6&#45;&gt;Node5</title>
<path fill="none" stroke="#9a32cd" stroke-dasharray="5,2" d="M39.39,-52C59.54,-52 89.02,-52 113.96,-52"/>
<polygon fill="#9a32cd" stroke="#9a32cd" points="39.24,-48.5 29.24,-52 39.24,-55.5 39.24,-48.5"/>
<text text-anchor="middle" x="71.5" y="-55" font-family="Helvetica,sans-Serif" font-size="10.00"> elements</text>
</g>
<!-- Node7 -->
<g id="node7" class="node">
<title>Node7</title>
<g id="a_node7"><a xlink:title=" ">
<polygon fill="none" stroke="#bfbfbf" points="689,-0.5 689,-19.5 727,-19.5 727,-0.5 689,-0.5"/>
<text text-anchor="middle" x="708" y="-7.5" font-family="Helvetica,sans-Serif" font-size="10.00">bool</text>
</a>
</g>
</g>
<!-- Node7&#45;&gt;Node1 -->
<g id="edge7" class="edge">
<title>Node7&#45;&gt;Node1</title>
<path fill="none" stroke="#9a32cd" stroke-dasharray="5,2" d="M737.3,-14.91C771.05,-20.77 829.04,-30.83 877.71,-39.28"/>
<polygon fill="#9a32cd" stroke="#9a32cd" points="737.68,-11.43 727.23,-13.16 736.49,-18.32 737.68,-11.43"/>
<text text-anchor="middle" x="833" y="-39" font-family="Helvetica,sans-Serif" font-size="10.00"> clampUint</text>
</g>
</g>
</svg>
