<?xml version="1.0" encoding="UTF-8" standalone="no"?>
<!DOCTYPE svg PUBLIC "-//W3C//DTD SVG 1.1//EN"
 "http://www.w3.org/Graphics/SVG/1.1/DTD/svg11.dtd">
<!-- Generated by graphviz version 2.43.0 (0)
 -->
<!-- Title: rawspeed::RawDecoderException::RawDecoderException Pages: 1 -->
<svg width="764pt" height="39pt"
 viewBox="0.00 0.00 764.00 39.00" xmlns="http://www.w3.org/2000/svg" xmlns:xlink="http://www.w3.org/1999/xlink">
<g id="graph0" class="graph" transform="scale(1 1) rotate(0) translate(4 35)">
<title>rawspeed::RawDecoderException::RawDecoderException</title>
<!-- Node1 -->
<g id="node1" class="node">
<title>Node1</title>
<g id="a_node1"><a xlink:title=" ">
<polygon fill="#bfbfbf" stroke="black" points="0,-0.5 0,-30.5 179,-30.5 179,-0.5 0,-0.5"/>
<text text-anchor="start" x="8" y="-18.5" font-family="Helvetica,sans-Serif" font-size="10.00">rawspeed::RawDecoderException</text>
<text text-anchor="middle" x="89.5" y="-7.5" font-family="Helvetica,sans-Serif" font-size="10.00">::RawDecoderException</text>
</a>
</g>
</g>
<!-- Node2 -->
<g id="node2" class="node">
<title>Node2</title>
<g id="a_node2"><a xlink:href="../../d4/df4/classrawspeed_1_1_rawspeed_exception.html#acabfc6a3c61af0c1c122a5ea6ab3d38a" target="_top" xlink:title=" ">
<polygon fill="none" stroke="black" points="215,-0.5 215,-30.5 383,-30.5 383,-0.5 215,-0.5"/>
<text text-anchor="start" x="223" y="-18.5" font-family="Helvetica,sans-Serif" font-size="10.00">rawspeed::RawspeedException</text>
<text text-anchor="middle" x="299" y="-7.5" font-family="Helvetica,sans-Serif" font-size="10.00">::RawspeedException</text>
</a>
</g>
</g>
<!-- Node1&#45;&gt;Node2 -->
<g id="edge1" class="edge">
<title>Node1&#45;&gt;Node2</title>
<path fill="none" stroke="midnightblue" d="M179.1,-15.5C187.65,-15.5 196.34,-15.5 204.93,-15.5"/>
<polygon fill="midnightblue" stroke="midnightblue" points="204.96,-19 214.96,-15.5 204.96,-12 204.96,-19"/>
</g>
<!-- Node3 -->
<g id="node3" class="node">
<title>Node3</title>
<g id="a_node3"><a xlink:href="../../d4/df4/classrawspeed_1_1_rawspeed_exception.html#a686c2ce19bc180a5ea58009048a20db8" target="_top" xlink:title=" ">
<polygon fill="none" stroke="black" points="419,-6 419,-25 608,-25 608,-6 419,-6"/>
<text text-anchor="middle" x="513.5" y="-13" font-family="Helvetica,sans-Serif" font-size="10.00">rawspeed::RawspeedException::log</text>
</a>
</g>
</g>
<!-- Node2&#45;&gt;Node3 -->
<g id="edge2" class="edge">
<title>Node2&#45;&gt;Node3</title>
<path fill="none" stroke="midnightblue" d="M383.07,-15.5C391.52,-15.5 400.18,-15.5 408.81,-15.5"/>
<polygon fill="midnightblue" stroke="midnightblue" points="408.92,-19 418.92,-15.5 408.92,-12 408.92,-19"/>
</g>
<!-- Node4 -->
<g id="node4" class="node">
<title>Node4</title>
<g id="a_node4"><a xlink:href="../../de/dc3/namespacerawspeed.html#a8a98a18f46994d6cae15ce24462fb7d4" target="_top" xlink:title=" ">
<polygon fill="none" stroke="black" points="644,-6 644,-25 756,-25 756,-6 644,-6"/>
<text text-anchor="middle" x="700" y="-13" font-family="Helvetica,sans-Serif" font-size="10.00">rawspeed::writeLog</text>
</a>
</g>
</g>
<!-- Node3&#45;&gt;Node4 -->
<g id="edge3" class="edge">
<title>Node3&#45;&gt;Node4</title>
<path fill="none" stroke="midnightblue" d="M608.1,-15.5C616.63,-15.5 625.15,-15.5 633.35,-15.5"/>
<polygon fill="midnightblue" stroke="midnightblue" points="633.56,-19 643.56,-15.5 633.56,-12 633.56,-19"/>
</g>
</g>
</svg>
