<?xml version="1.0" encoding="UTF-8" standalone="no"?>
<!DOCTYPE svg PUBLIC "-//W3C//DTD SVG 1.1//EN"
 "http://www.w3.org/Graphics/SVG/1.1/DTD/svg11.dtd">
<!-- Generated by graphviz version 2.43.0 (0)
 -->
<!-- Title: main Pages: 1 -->
<svg width="230pt" height="284pt"
 viewBox="0.00 0.00 230.00 284.00" xmlns="http://www.w3.org/2000/svg" xmlns:xlink="http://www.w3.org/1999/xlink">
<g id="graph0" class="graph" transform="scale(1 1) rotate(0) translate(4 280)">
<title>main</title>
<!-- Node1 -->
<g id="node1" class="node">
<title>Node1</title>
<g id="a_node1"><a xlink:title=" ">
<polygon fill="#bfbfbf" stroke="black" points="0,-128 0,-147 41,-147 41,-128 0,-128"/>
<text text-anchor="middle" x="20.5" y="-135" font-family="Helvetica,sans-Serif" font-size="10.00">main</text>
</a>
</g>
</g>
<!-- Node2 -->
<g id="node2" class="node">
<title>Node2</title>
<g id="a_node2"><a xlink:href="../../dc/d44/classrawspeed_1_1_raw_image_data.html#a836542a96856aef9ccced48fecc06f03" target="_top" xlink:title=" ">
<polygon fill="none" stroke="black" points="77,-245.5 77,-275.5 222,-275.5 222,-245.5 77,-245.5"/>
<text text-anchor="start" x="85" y="-263.5" font-family="Helvetica,sans-Serif" font-size="10.00">rawspeed::RawImageData</text>
<text text-anchor="middle" x="149.5" y="-252.5" font-family="Helvetica,sans-Serif" font-size="10.00">::__attribute__</text>
</a>
</g>
</g>
<!-- Node1&#45;&gt;Node2 -->
<g id="edge1" class="edge">
<title>Node1&#45;&gt;Node2</title>
<path fill="none" stroke="midnightblue" d="M24.32,-147.21C30.53,-166.92 47.26,-211.86 77,-236.5 78.55,-237.78 80.17,-239 81.85,-240.15"/>
<polygon fill="midnightblue" stroke="midnightblue" points="80.28,-243.29 90.66,-245.4 83.86,-237.27 80.28,-243.29"/>
</g>
<!-- Node3 -->
<g id="node3" class="node">
<title>Node3</title>
<g id="a_node3"><a xlink:href="../../dc/d44/classrawspeed_1_1_raw_image_data.html#acb8745201d562a751e4407d674b15d36" target="_top" xlink:title=" ">
<polygon fill="none" stroke="black" points="77,-196.5 77,-226.5 222,-226.5 222,-196.5 77,-196.5"/>
<text text-anchor="start" x="85" y="-214.5" font-family="Helvetica,sans-Serif" font-size="10.00">rawspeed::RawImageData</text>
<text text-anchor="middle" x="149.5" y="-203.5" font-family="Helvetica,sans-Serif" font-size="10.00">::getBpp</text>
</a>
</g>
</g>
<!-- Node1&#45;&gt;Node3 -->
<g id="edge2" class="edge">
<title>Node1&#45;&gt;Node3</title>
<path fill="none" stroke="midnightblue" d="M30,-147.27C40.16,-158.41 58.19,-176.51 77,-187.5 79.97,-189.24 83.09,-190.87 86.29,-192.4"/>
<polygon fill="midnightblue" stroke="midnightblue" points="84.91,-195.62 95.48,-196.46 87.74,-189.22 84.91,-195.62"/>
</g>
<!-- Node4 -->
<g id="node4" class="node">
<title>Node4</title>
<g id="a_node4"><a xlink:href="../../dc/d44/classrawspeed_1_1_raw_image_data.html#a1d9a712a918374327fe3fe791318912f" target="_top" xlink:title=" ">
<polygon fill="none" stroke="black" points="77,-147.5 77,-177.5 222,-177.5 222,-147.5 77,-147.5"/>
<text text-anchor="start" x="85" y="-165.5" font-family="Helvetica,sans-Serif" font-size="10.00">rawspeed::RawImageData</text>
<text text-anchor="middle" x="149.5" y="-154.5" font-family="Helvetica,sans-Serif" font-size="10.00">::getCpp</text>
</a>
</g>
</g>
<!-- Node1&#45;&gt;Node4 -->
<g id="edge3" class="edge">
<title>Node1&#45;&gt;Node4</title>
<path fill="none" stroke="midnightblue" d="M41.07,-141.35C48.4,-142.79 57.26,-144.54 66.72,-146.4"/>
<polygon fill="midnightblue" stroke="midnightblue" points="66.26,-149.88 76.75,-148.38 67.62,-143.01 66.26,-149.88"/>
</g>
<!-- Node5 -->
<g id="node5" class="node">
<title>Node5</title>
<g id="a_node5"><a xlink:href="../../dc/d44/classrawspeed_1_1_raw_image_data.html#a02c03065a316900907e95c27972c1ee4" target="_top" xlink:title=" ">
<polygon fill="none" stroke="black" points="77,-98.5 77,-128.5 222,-128.5 222,-98.5 77,-98.5"/>
<text text-anchor="start" x="85" y="-116.5" font-family="Helvetica,sans-Serif" font-size="10.00">rawspeed::RawImageData</text>
<text text-anchor="middle" x="149.5" y="-105.5" font-family="Helvetica,sans-Serif" font-size="10.00">::getDataType</text>
</a>
</g>
</g>
<!-- Node1&#45;&gt;Node5 -->
<g id="edge4" class="edge">
<title>Node1&#45;&gt;Node5</title>
<path fill="none" stroke="midnightblue" d="M41.07,-133.8C48.4,-132.42 57.26,-130.74 66.72,-128.95"/>
<polygon fill="midnightblue" stroke="midnightblue" points="67.58,-132.35 76.75,-127.06 66.28,-125.48 67.58,-132.35"/>
</g>
<!-- Node6 -->
<g id="node6" class="node">
<title>Node6</title>
<g id="a_node6"><a xlink:href="../../dc/d44/classrawspeed_1_1_raw_image_data.html#a2bf55185f403b09dbae841ebb6273cf0" target="_top" xlink:title=" ">
<polygon fill="none" stroke="black" points="77,-49.5 77,-79.5 222,-79.5 222,-49.5 77,-49.5"/>
<text text-anchor="start" x="85" y="-67.5" font-family="Helvetica,sans-Serif" font-size="10.00">rawspeed::RawImageData</text>
<text text-anchor="middle" x="149.5" y="-56.5" font-family="Helvetica,sans-Serif" font-size="10.00">::getDataUncropped</text>
</a>
</g>
</g>
<!-- Node1&#45;&gt;Node6 -->
<g id="edge5" class="edge">
<title>Node1&#45;&gt;Node6</title>
<path fill="none" stroke="midnightblue" d="M30.47,-127.8C40.8,-117.13 58.7,-100.09 77,-89.5 80.65,-87.39 84.51,-85.41 88.46,-83.57"/>
<polygon fill="midnightblue" stroke="midnightblue" points="90.03,-86.71 97.82,-79.53 87.25,-80.28 90.03,-86.71"/>
</g>
<!-- Node7 -->
<g id="node7" class="node">
<title>Node7</title>
<g id="a_node7"><a xlink:href="../../dd/d12/classrawspeed_1_1_raw_image.html#a2907002b5c707eca6939061f8b0d5e5d" target="_top" xlink:title=" ">
<polygon fill="none" stroke="black" points="88.5,-0.5 88.5,-30.5 210.5,-30.5 210.5,-0.5 88.5,-0.5"/>
<text text-anchor="start" x="96.5" y="-18.5" font-family="Helvetica,sans-Serif" font-size="10.00">rawspeed::RawImage</text>
<text text-anchor="middle" x="149.5" y="-7.5" font-family="Helvetica,sans-Serif" font-size="10.00">::operator&#45;&gt;</text>
</a>
</g>
</g>
<!-- Node1&#45;&gt;Node7 -->
<g id="edge6" class="edge">
<title>Node1&#45;&gt;Node7</title>
<path fill="none" stroke="midnightblue" d="M24.5,-127.72C30.94,-108.31 47.91,-64.69 77,-40.5 79.03,-38.81 81.19,-37.23 83.44,-35.75"/>
<polygon fill="midnightblue" stroke="midnightblue" points="85.55,-38.57 92.49,-30.56 82.07,-32.5 85.55,-38.57"/>
</g>
</g>
</svg>
