<?xml version="1.0" encoding="UTF-8" standalone="no"?>
<!DOCTYPE svg PUBLIC "-//W3C//DTD SVG 1.1//EN"
 "http://www.w3.org/Graphics/SVG/1.1/DTD/svg11.dtd">
<!-- Generated by graphviz version 2.43.0 (0)
 -->
<!-- Title: rawspeed::VC5Decompressor::parseVC5 Pages: 1 -->
<svg width="560pt" height="259pt"
 viewBox="0.00 0.00 560.00 258.50" xmlns="http://www.w3.org/2000/svg" xmlns:xlink="http://www.w3.org/1999/xlink">
<g id="graph0" class="graph" transform="scale(1 1) rotate(0) translate(4 254.5)">
<title>rawspeed::VC5Decompressor::parseVC5</title>
<!-- Node1 -->
<g id="node1" class="node">
<title>Node1</title>
<g id="a_node1"><a xlink:title=" ">
<polygon fill="#bfbfbf" stroke="black" points="0,-121.5 0,-151.5 160,-151.5 160,-121.5 0,-121.5"/>
<text text-anchor="start" x="8" y="-139.5" font-family="Helvetica,sans-Serif" font-size="10.00">rawspeed::VC5Decompressor</text>
<text text-anchor="middle" x="80" y="-128.5" font-family="Helvetica,sans-Serif" font-size="10.00">::parseVC5</text>
</a>
</g>
</g>
<!-- Node2 -->
<g id="node2" class="node">
<title>Node2</title>
<g id="a_node2"><a xlink:href="../../d3/d36/classrawspeed_1_1_v_c5_decompressor_1_1_wavelet.html#a953ec6505504a26388b3fb5dbba955bd" target="_top" xlink:title=" ">
<polygon fill="none" stroke="black" points="392,-91.5 392,-121.5 552,-121.5 552,-91.5 392,-91.5"/>
<text text-anchor="start" x="400" y="-109.5" font-family="Helvetica,sans-Serif" font-size="10.00">rawspeed::VC5Decompressor</text>
<text text-anchor="middle" x="472" y="-98.5" font-family="Helvetica,sans-Serif" font-size="10.00">::Wavelet::allBandsValid</text>
</a>
</g>
</g>
<!-- Node1&#45;&gt;Node2 -->
<g id="edge1" class="edge">
<title>Node1&#45;&gt;Node2</title>
<path fill="none" stroke="midnightblue" d="M160.06,-147.22C215.31,-152.74 290.6,-156.29 356,-145.5 379.97,-141.55 405.67,-133.25 426.68,-125.32"/>
<polygon fill="midnightblue" stroke="midnightblue" points="428.22,-128.47 436.28,-121.6 425.69,-121.95 428.22,-128.47"/>
</g>
<!-- Node3 -->
<g id="node3" class="node">
<title>Node3</title>
<g id="a_node3"><a xlink:href="../../de/dc3/namespacerawspeed.html#a92d56953e78eab28b3a63fd05c60e03f" target="_top" xlink:title=" ">
<polygon fill="none" stroke="black" points="237,-231 237,-250 315,-250 315,-231 237,-231"/>
<text text-anchor="middle" x="276" y="-238" font-family="Helvetica,sans-Serif" font-size="10.00">rawspeed::is</text>
</a>
</g>
</g>
<!-- Node1&#45;&gt;Node3 -->
<g id="edge2" class="edge">
<title>Node1&#45;&gt;Node3</title>
<path fill="none" stroke="midnightblue" d="M97.15,-151.79C118.24,-170.91 157.07,-203.35 196,-221.5 205.69,-226.02 216.56,-229.52 227.07,-232.23"/>
<polygon fill="midnightblue" stroke="midnightblue" points="226.45,-235.67 236.99,-234.57 228.06,-228.86 226.45,-235.67"/>
</g>
<!-- Node5 -->
<g id="node5" class="node">
<title>Node5</title>
<g id="a_node5"><a xlink:href="../../de/dc3/namespacerawspeed.html#a0e57e0bd6090152cb8bf4026310a9f1b" target="_top" xlink:title=" ">
<polygon fill="none" stroke="black" points="220,-193 220,-212 332,-212 332,-193 220,-193"/>
<text text-anchor="middle" x="276" y="-200" font-family="Helvetica,sans-Serif" font-size="10.00">rawspeed::matches</text>
</a>
</g>
</g>
<!-- Node1&#45;&gt;Node5 -->
<g id="edge5" class="edge">
<title>Node1&#45;&gt;Node5</title>
<path fill="none" stroke="midnightblue" d="M120.46,-151.52C142.57,-159.79 170.7,-170.04 196,-178.5 207.79,-182.44 220.66,-186.47 232.52,-190.06"/>
<polygon fill="midnightblue" stroke="midnightblue" points="231.62,-193.45 242.2,-192.98 233.63,-186.75 231.62,-193.45"/>
</g>
<!-- Node6 -->
<g id="node6" class="node">
<title>Node6</title>
<g id="a_node6"><a xlink:href="../../de/dc3/namespacerawspeed.html#abd908eb497cca04d31655f4d4d42244f" target="_top" xlink:title=" ">
<polygon fill="none" stroke="black" points="219,-99 219,-118 333,-118 333,-99 219,-99"/>
<text text-anchor="middle" x="276" y="-106" font-family="Helvetica,sans-Serif" font-size="10.00">rawspeed::operator&#45;</text>
</a>
</g>
</g>
<!-- Node1&#45;&gt;Node6 -->
<g id="edge7" class="edge">
<title>Node1&#45;&gt;Node6</title>
<path fill="none" stroke="midnightblue" d="M160.19,-125.07C176.34,-122.74 193.19,-120.31 208.83,-118.05"/>
<polygon fill="midnightblue" stroke="midnightblue" points="209.52,-121.49 218.92,-116.59 208.52,-114.56 209.52,-121.49"/>
</g>
<!-- Node7 -->
<g id="node7" class="node">
<title>Node7</title>
<g id="a_node7"><a xlink:href="../../dd/d12/classrawspeed_1_1_raw_image.html#a2907002b5c707eca6939061f8b0d5e5d" target="_top" xlink:title=" ">
<polygon fill="none" stroke="black" points="215,-49.5 215,-79.5 337,-79.5 337,-49.5 215,-49.5"/>
<text text-anchor="start" x="223" y="-67.5" font-family="Helvetica,sans-Serif" font-size="10.00">rawspeed::RawImage</text>
<text text-anchor="middle" x="276" y="-56.5" font-family="Helvetica,sans-Serif" font-size="10.00">::operator&#45;&gt;</text>
</a>
</g>
</g>
<!-- Node1&#45;&gt;Node7 -->
<g id="edge9" class="edge">
<title>Node1&#45;&gt;Node7</title>
<path fill="none" stroke="midnightblue" d="M115.69,-121.46C138.36,-111.84 168.72,-99.37 196,-89.5 202.27,-87.23 208.86,-84.96 215.45,-82.77"/>
<polygon fill="midnightblue" stroke="midnightblue" points="216.65,-86.06 225.06,-79.62 214.47,-79.41 216.65,-86.06"/>
</g>
<!-- Node8 -->
<g id="node8" class="node">
<title>Node8</title>
<g id="a_node8"><a xlink:href="../../df/d0d/classrawspeed_1_1_v_c5_decompressor.html#aed2f0ffd2e86f78ae276e8a0a4fea989" target="_top" xlink:title=" ">
<polygon fill="none" stroke="black" points="196,-0.5 196,-30.5 356,-30.5 356,-0.5 196,-0.5"/>
<text text-anchor="start" x="204" y="-18.5" font-family="Helvetica,sans-Serif" font-size="10.00">rawspeed::VC5Decompressor</text>
<text text-anchor="middle" x="276" y="-7.5" font-family="Helvetica,sans-Serif" font-size="10.00">::parseLargeCodeblock</text>
</a>
</g>
</g>
<!-- Node1&#45;&gt;Node8 -->
<g id="edge10" class="edge">
<title>Node1&#45;&gt;Node8</title>
<path fill="none" stroke="midnightblue" d="M95.15,-121.16C115.51,-99.92 155.15,-61.7 196,-39.5 199.28,-37.72 202.71,-36.05 206.22,-34.49"/>
<polygon fill="midnightblue" stroke="midnightblue" points="207.75,-37.65 215.68,-30.62 205.1,-31.17 207.75,-37.65"/>
</g>
<!-- Node4 -->
<g id="node4" class="node">
<title>Node4</title>
<g id="a_node4"><a xlink:href="../../de/dc3/namespacerawspeed.html#a5b733ebe0b684baeeb8594080369e91e" target="_top" xlink:title=" ">
<polygon fill="none" stroke="black" points="412.5,-212 412.5,-231 531.5,-231 531.5,-212 412.5,-212"/>
<text text-anchor="middle" x="472" y="-219" font-family="Helvetica,sans-Serif" font-size="10.00">rawspeed::operator&amp;</text>
</a>
</g>
</g>
<!-- Node3&#45;&gt;Node4 -->
<g id="edge3" class="edge">
<title>Node3&#45;&gt;Node4</title>
<path fill="none" stroke="midnightblue" d="M315.33,-236.75C340.12,-234.32 373.11,-231.09 402.33,-228.23"/>
<polygon fill="midnightblue" stroke="midnightblue" points="402.88,-231.69 412.49,-227.23 402.2,-224.72 402.88,-231.69"/>
</g>
<!-- Node4&#45;&gt;Node4 -->
<g id="edge4" class="edge">
<title>Node4&#45;&gt;Node4</title>
<path fill="none" stroke="midnightblue" d="M441.79,-231.26C427.09,-240.07 437.16,-249.5 472,-249.5 496.49,-249.5 508.74,-244.84 508.75,-239"/>
<polygon fill="midnightblue" stroke="midnightblue" points="511.33,-236.64 502.21,-231.26 505.99,-241.16 511.33,-236.64"/>
</g>
<!-- Node5&#45;&gt;Node4 -->
<g id="edge6" class="edge">
<title>Node5&#45;&gt;Node4</title>
<path fill="none" stroke="midnightblue" d="M332.07,-207.89C353.93,-210.03 379.31,-212.52 402.34,-214.78"/>
<polygon fill="midnightblue" stroke="midnightblue" points="402.11,-218.27 412.4,-215.76 402.79,-211.3 402.11,-218.27"/>
</g>
<!-- Node6&#45;&gt;Node6 -->
<g id="edge8" class="edge">
<title>Node6&#45;&gt;Node6</title>
<path fill="none" stroke="midnightblue" d="M245.79,-118.26C231.09,-127.07 241.16,-136.5 276,-136.5 300.49,-136.5 312.74,-131.84 312.75,-126"/>
<polygon fill="midnightblue" stroke="midnightblue" points="315.33,-123.64 306.21,-118.26 309.99,-128.16 315.33,-123.64"/>
</g>
<!-- Node8&#45;&gt;Node2 -->
<g id="edge11" class="edge">
<title>Node8&#45;&gt;Node2</title>
<path fill="none" stroke="midnightblue" d="M332.42,-30.54C340.44,-33.23 348.51,-36.23 356,-39.5 385.73,-52.47 417.43,-71.36 440,-85.78"/>
<polygon fill="midnightblue" stroke="midnightblue" points="438.19,-88.77 448.49,-91.26 441.99,-82.89 438.19,-88.77"/>
</g>
</g>
</svg>
