<?xml version="1.0" encoding="UTF-8" standalone="no"?>
<!DOCTYPE svg PUBLIC "-//W3C//DTD SVG 1.1//EN"
 "http://www.w3.org/Graphics/SVG/1.1/DTD/svg11.dtd">
<!-- Generated by graphviz version 2.43.0 (0)
 -->
<!-- Title: rawspeed::VC5Decompressor::decode Pages: 1 -->
<svg width="560pt" height="235pt"
 viewBox="0.00 0.00 560.00 235.00" xmlns="http://www.w3.org/2000/svg" xmlns:xlink="http://www.w3.org/1999/xlink">
<g id="graph0" class="graph" transform="scale(1 1) rotate(0) translate(4 231)">
<title>rawspeed::VC5Decompressor::decode</title>
<!-- Node1 -->
<g id="node1" class="node">
<title>Node1</title>
<g id="a_node1"><a xlink:title=" ">
<polygon fill="#bfbfbf" stroke="black" points="0,-98.5 0,-128.5 160,-128.5 160,-98.5 0,-98.5"/>
<text text-anchor="start" x="8" y="-116.5" font-family="Helvetica,sans-Serif" font-size="10.00">rawspeed::VC5Decompressor</text>
<text text-anchor="middle" x="80" y="-105.5" font-family="Helvetica,sans-Serif" font-size="10.00">::decode</text>
</a>
</g>
</g>
<!-- Node2 -->
<g id="node2" class="node">
<title>Node2</title>
<g id="a_node2"><a xlink:href="../../df/d0d/classrawspeed_1_1_v_c5_decompressor.html#a6073aa0aba15c932c12d468a36ed7451" target="_top" xlink:title=" ">
<polygon fill="none" stroke="black" points="196,-147.5 196,-177.5 356,-177.5 356,-147.5 196,-147.5"/>
<text text-anchor="start" x="204" y="-165.5" font-family="Helvetica,sans-Serif" font-size="10.00">rawspeed::VC5Decompressor</text>
<text text-anchor="middle" x="276" y="-154.5" font-family="Helvetica,sans-Serif" font-size="10.00">::decodeThread</text>
</a>
</g>
</g>
<!-- Node1&#45;&gt;Node2 -->
<g id="edge1" class="edge">
<title>Node1&#45;&gt;Node2</title>
<path fill="none" stroke="midnightblue" d="M140.52,-128.53C161.1,-133.73 184.34,-139.6 205.63,-144.98"/>
<polygon fill="midnightblue" stroke="midnightblue" points="205.04,-148.44 215.59,-147.49 206.75,-141.65 205.04,-148.44"/>
</g>
<!-- Node6 -->
<g id="node6" class="node">
<title>Node6</title>
<g id="a_node6"><a xlink:href="../../df/d0d/classrawspeed_1_1_v_c5_decompressor.html#a9ff6d9e1adcd68cceab7624ef8353ee9" target="_top" xlink:title=" ">
<polygon fill="none" stroke="black" points="196,-98.5 196,-128.5 356,-128.5 356,-98.5 196,-98.5"/>
<text text-anchor="start" x="204" y="-116.5" font-family="Helvetica,sans-Serif" font-size="10.00">rawspeed::VC5Decompressor</text>
<text text-anchor="middle" x="276" y="-105.5" font-family="Helvetica,sans-Serif" font-size="10.00">::initVC5LogTable</text>
</a>
</g>
</g>
<!-- Node1&#45;&gt;Node6 -->
<g id="edge5" class="edge">
<title>Node1&#45;&gt;Node6</title>
<path fill="none" stroke="midnightblue" d="M160.19,-113.5C168.53,-113.5 177.05,-113.5 185.5,-113.5"/>
<polygon fill="midnightblue" stroke="midnightblue" points="185.75,-117 195.75,-113.5 185.75,-110 185.75,-117"/>
</g>
<!-- Node7 -->
<g id="node7" class="node">
<title>Node7</title>
<g id="a_node7"><a xlink:href="../../df/d0d/classrawspeed_1_1_v_c5_decompressor.html#ada63a5af46ec450784ce4cbf7d70c4a2" target="_top" xlink:title=" ">
<polygon fill="none" stroke="black" points="196,-49.5 196,-79.5 356,-79.5 356,-49.5 196,-49.5"/>
<text text-anchor="start" x="204" y="-67.5" font-family="Helvetica,sans-Serif" font-size="10.00">rawspeed::VC5Decompressor</text>
<text text-anchor="middle" x="276" y="-56.5" font-family="Helvetica,sans-Serif" font-size="10.00">::prepareDecodingPlan</text>
</a>
</g>
</g>
<!-- Node1&#45;&gt;Node7 -->
<g id="edge6" class="edge">
<title>Node1&#45;&gt;Node7</title>
<path fill="none" stroke="midnightblue" d="M140.52,-98.47C161.1,-93.27 184.34,-87.4 205.63,-82.02"/>
<polygon fill="midnightblue" stroke="midnightblue" points="206.75,-85.35 215.59,-79.51 205.04,-78.56 206.75,-85.35"/>
</g>
<!-- Node3 -->
<g id="node3" class="node">
<title>Node3</title>
<g id="a_node3"><a xlink:href="../../df/d0d/classrawspeed_1_1_v_c5_decompressor.html#af7453343a0d9fdb1e0532c8183f3f8ff" target="_top" xlink:title=" ">
<polygon fill="none" stroke="black" points="392,-196.5 392,-226.5 552,-226.5 552,-196.5 392,-196.5"/>
<text text-anchor="start" x="400" y="-214.5" font-family="Helvetica,sans-Serif" font-size="10.00">rawspeed::VC5Decompressor</text>
<text text-anchor="middle" x="472" y="-203.5" font-family="Helvetica,sans-Serif" font-size="10.00">::combineFinalLowpassBands</text>
</a>
</g>
</g>
<!-- Node2&#45;&gt;Node3 -->
<g id="edge2" class="edge">
<title>Node2&#45;&gt;Node3</title>
<path fill="none" stroke="midnightblue" d="M336.52,-177.53C357.1,-182.73 380.34,-188.6 401.63,-193.98"/>
<polygon fill="midnightblue" stroke="midnightblue" points="401.04,-197.44 411.59,-196.49 402.75,-190.65 401.04,-197.44"/>
</g>
<!-- Node4 -->
<g id="node4" class="node">
<title>Node4</title>
<g id="a_node4"><a xlink:href="../../df/d0d/classrawspeed_1_1_v_c5_decompressor.html#acb8a41c369f12677ec348400b5075523" target="_top" xlink:title=" ">
<polygon fill="none" stroke="black" points="392,-147.5 392,-177.5 552,-177.5 552,-147.5 392,-147.5"/>
<text text-anchor="start" x="400" y="-165.5" font-family="Helvetica,sans-Serif" font-size="10.00">rawspeed::VC5Decompressor</text>
<text text-anchor="middle" x="472" y="-154.5" font-family="Helvetica,sans-Serif" font-size="10.00">::decodeBands</text>
</a>
</g>
</g>
<!-- Node2&#45;&gt;Node4 -->
<g id="edge3" class="edge">
<title>Node2&#45;&gt;Node4</title>
<path fill="none" stroke="midnightblue" d="M356.19,-162.5C364.53,-162.5 373.05,-162.5 381.5,-162.5"/>
<polygon fill="midnightblue" stroke="midnightblue" points="381.75,-166 391.75,-162.5 381.75,-159 381.75,-166"/>
</g>
<!-- Node5 -->
<g id="node5" class="node">
<title>Node5</title>
<g id="a_node5"><a xlink:href="../../df/d0d/classrawspeed_1_1_v_c5_decompressor.html#ab675cd0f835f876ac8e064d89f9cf806" target="_top" xlink:title=" ">
<polygon fill="none" stroke="black" points="392,-98.5 392,-128.5 552,-128.5 552,-98.5 392,-98.5"/>
<text text-anchor="start" x="400" y="-116.5" font-family="Helvetica,sans-Serif" font-size="10.00">rawspeed::VC5Decompressor</text>
<text text-anchor="middle" x="472" y="-105.5" font-family="Helvetica,sans-Serif" font-size="10.00">::reconstructLowpassBands</text>
</a>
</g>
</g>
<!-- Node2&#45;&gt;Node5 -->
<g id="edge4" class="edge">
<title>Node2&#45;&gt;Node5</title>
<path fill="none" stroke="midnightblue" d="M336.52,-147.47C357.1,-142.27 380.34,-136.4 401.63,-131.02"/>
<polygon fill="midnightblue" stroke="midnightblue" points="402.75,-134.35 411.59,-128.51 401.04,-127.56 402.75,-134.35"/>
</g>
<!-- Node8 -->
<g id="node8" class="node">
<title>Node8</title>
<g id="a_node8"><a xlink:href="../../df/d0d/classrawspeed_1_1_v_c5_decompressor.html#a7b54c6304783e2db7067cd9fd056b7d6" target="_top" xlink:title=" ">
<polygon fill="none" stroke="black" points="392,-49.5 392,-79.5 552,-79.5 552,-49.5 392,-49.5"/>
<text text-anchor="start" x="400" y="-67.5" font-family="Helvetica,sans-Serif" font-size="10.00">rawspeed::VC5Decompressor</text>
<text text-anchor="middle" x="472" y="-56.5" font-family="Helvetica,sans-Serif" font-size="10.00">::prepareBandDecodingPlan</text>
</a>
</g>
</g>
<!-- Node7&#45;&gt;Node8 -->
<g id="edge7" class="edge">
<title>Node7&#45;&gt;Node8</title>
<path fill="none" stroke="midnightblue" d="M356.19,-64.5C364.53,-64.5 373.05,-64.5 381.5,-64.5"/>
<polygon fill="midnightblue" stroke="midnightblue" points="381.75,-68 391.75,-64.5 381.75,-61 381.75,-68"/>
</g>
<!-- Node9 -->
<g id="node9" class="node">
<title>Node9</title>
<g id="a_node9"><a xlink:href="../../df/d0d/classrawspeed_1_1_v_c5_decompressor.html#aab04f55e87ad138ea764dd2d85f588ea" target="_top" xlink:title=" ">
<polygon fill="none" stroke="black" points="392,-0.5 392,-30.5 552,-30.5 552,-0.5 392,-0.5"/>
<text text-anchor="start" x="400" y="-18.5" font-family="Helvetica,sans-Serif" font-size="10.00">rawspeed::VC5Decompressor</text>
<text text-anchor="middle" x="472" y="-7.5" font-family="Helvetica,sans-Serif" font-size="10.00">::prepareBandReconstruction</text>
</a>
</g>
</g>
<!-- Node7&#45;&gt;Node9 -->
<g id="edge8" class="edge">
<title>Node7&#45;&gt;Node9</title>
<path fill="none" stroke="midnightblue" d="M336.52,-49.47C357.1,-44.27 380.34,-38.4 401.63,-33.02"/>
<polygon fill="midnightblue" stroke="midnightblue" points="402.75,-36.35 411.59,-30.51 401.04,-29.56 402.75,-36.35"/>
</g>
</g>
</svg>
