<?xml version="1.0" encoding="UTF-8" standalone="no"?>
<!DOCTYPE svg PUBLIC "-//W3C//DTD SVG 1.1//EN"
 "http://www.w3.org/Graphics/SVG/1.1/DTD/svg11.dtd">
<!-- Generated by graphviz version 2.43.0 (0)
 -->
<!-- Title: librawspeed/tiff/CiffEntry.cpp Pages: 1 -->
<!--zoomable 420 -->
<svg id="main" version="1.1" xmlns="http://www.w3.org/2000/svg" xmlns:xlink="http://www.w3.org/1999/xlink" xml:space="preserve" onload="init(evt)">
<style type="text/css"><![CDATA[
.edge:hover path { stroke: red; }
.edge:hover polygon { stroke: red; fill: red; }
]]></style>
<script type="text/javascript"><![CDATA[
var edges = document.getElementsByTagName('g');
if (edges && edges.length) {
  for (var i=0;i<edges.length;i++) {
    if (edges[i].id.substr(0,4)=='edge') {
      edges[i].setAttribute('class','edge');
    }
  }
}
]]></script>
        <defs>
                <circle id="rim" cx="0" cy="0" r="7"/>
                <circle id="rim2" cx="0" cy="0" r="3.5"/>
                <g id="zoomPlus">
                        <use xlink:href="#rim" fill="#404040">
                                <set attributeName="fill" to="#808080" begin="zoomplus.mouseover" end="zoomplus.mouseout"/>
                        </use>
                        <path d="M-4,0h8M0,-4v8" fill="none" stroke="white" stroke-width="1.5" pointer-events="none"/>
                </g>
                <g id="zoomMin">
                        <use xlink:href="#rim" fill="#404040">
                                <set attributeName="fill" to="#808080" begin="zoomminus.mouseover" end="zoomminus.mouseout"/>
                        </use>
                        <path d="M-4,0h8" fill="none" stroke="white" stroke-width="1.5" pointer-events="none"/>
                </g>
                <g id="dirArrow">
                        <path fill="none" stroke="white" stroke-width="1.5" d="M0,-3.0v7 M-2.5,-0.5L0,-3.0L2.5,-0.5"/>
                </g>
               <g id="resetDef">
                       <use xlink:href="#rim2" fill="#404040">
                               <set attributeName="fill" to="#808080" begin="reset.mouseover" end="reset.mouseout"/>
                       </use>
               </g>
        </defs>

<script type="text/javascript">
var viewWidth = 1524;
var viewHeight = 420;
var sectionId = 'dynsection-0';
</script>
<script xlink:href="../../svgpan.js"/>
<svg id="graph" class="graph">
<g id="viewport">
<title>librawspeed/tiff/CiffEntry.cpp</title>
<!-- Node1 -->
<g id="node1" class="node">
<title>Node1</title>
<g id="a_node1"><a xlink:title=" ">
<polygon fill="#bfbfbf" stroke="black" points="1033,-392.5 1033,-411.5 1189,-411.5 1189,-392.5 1033,-392.5"/>
<text text-anchor="middle" x="1111" y="-399.5" font-family="Helvetica,sans-Serif" font-size="10.00">librawspeed/tiff/CiffEntry.cpp</text>
</a>
</g>
</g>
<!-- Node2 -->
<g id="node2" class="node">
<title>Node2</title>
<g id="a_node2"><a xlink:href="../../d3/dc6/_ciff_entry_8h.html" target="_top" xlink:title=" ">
<polygon fill="none" stroke="black" points="1258.5,-336.5 1258.5,-355.5 1341.5,-355.5 1341.5,-336.5 1258.5,-336.5"/>
<text text-anchor="middle" x="1300" y="-343.5" font-family="Helvetica,sans-Serif" font-size="10.00">tiff/CiffEntry.h</text>
</a>
</g>
</g>
<!-- Node1&#45;&gt;Node2 -->
<g id="edge1" class="edge">
<title>Node1&#45;&gt;Node2</title>
<path fill="none" stroke="midnightblue" d="M1140.95,-392.44C1173.16,-383.24 1224.53,-368.56 1260.14,-358.39"/>
<polygon fill="midnightblue" stroke="midnightblue" points="1261.54,-361.63 1270.19,-355.52 1259.62,-354.9 1261.54,-361.63"/>
</g>
<!-- Node3 -->
<g id="node3" class="node">
<title>Node3</title>
<g id="a_node3"><a xlink:href="../../d0/d6f/_n_o_ranges_set_8h.html" target="_top" xlink:title=" ">
<polygon fill="none" stroke="black" points="1127,-280.5 1127,-299.5 1265,-299.5 1265,-280.5 1127,-280.5"/>
<text text-anchor="middle" x="1196" y="-287.5" font-family="Helvetica,sans-Serif" font-size="10.00">common/NORangesSet.h</text>
</a>
</g>
</g>
<!-- Node1&#45;&gt;Node3 -->
<g id="edge58" class="edge">
<title>Node1&#45;&gt;Node3</title>
<path fill="none" stroke="midnightblue" d="M1117.67,-392.37C1131.76,-374.14 1164.76,-331.43 1183.11,-307.68"/>
<polygon fill="midnightblue" stroke="midnightblue" points="1186.02,-309.64 1189.36,-299.59 1180.48,-305.36 1186.02,-309.64"/>
</g>
<!-- Node8 -->
<g id="node8" class="node">
<title>Node8</title>
<g id="a_node8"><a xlink:title=" ">
<polygon fill="none" stroke="#bfbfbf" points="1082.5,-168.5 1082.5,-187.5 1127.5,-187.5 1127.5,-168.5 1082.5,-168.5"/>
<text text-anchor="middle" x="1105" y="-175.5" font-family="Helvetica,sans-Serif" font-size="10.00">utility</text>
</a>
</g>
</g>
<!-- Node1&#45;&gt;Node8 -->
<g id="edge68" class="edge">
<title>Node1&#45;&gt;Node8</title>
<path fill="none" stroke="midnightblue" d="M1110.76,-392.3C1109.88,-359.63 1106.75,-243.87 1105.51,-197.96"/>
<polygon fill="midnightblue" stroke="midnightblue" points="1109.01,-197.79 1105.24,-187.88 1102.01,-197.97 1109.01,-197.79"/>
</g>
<!-- Node10 -->
<g id="node10" class="node">
<title>Node10</title>
<g id="a_node10"><a xlink:href="../../d7/de7/_byte_stream_8h.html" target="_top" xlink:title=" ">
<polygon fill="none" stroke="black" points="868.5,-280.5 868.5,-299.5 963.5,-299.5 963.5,-280.5 868.5,-280.5"/>
<text text-anchor="middle" x="916" y="-287.5" font-family="Helvetica,sans-Serif" font-size="10.00">io/ByteStream.h</text>
</a>
</g>
</g>
<!-- Node1&#45;&gt;Node10 -->
<g id="edge60" class="edge">
<title>Node1&#45;&gt;Node10</title>
<path fill="none" stroke="midnightblue" d="M1095.7,-392.37C1061.88,-373.29 980.57,-327.42 939.94,-304.51"/>
<polygon fill="midnightblue" stroke="midnightblue" points="941.66,-301.46 931.23,-299.59 938.22,-307.55 941.66,-301.46"/>
</g>
<!-- Node18 -->
<g id="node18" class="node">
<title>Node18</title>
<g id="a_node18"><a xlink:title=" ">
<polygon fill="none" stroke="#bfbfbf" points="1392,-0.5 1392,-19.5 1436,-19.5 1436,-0.5 1392,-0.5"/>
<text text-anchor="middle" x="1414" y="-7.5" font-family="Helvetica,sans-Serif" font-size="10.00">string</text>
</a>
</g>
</g>
<!-- Node1&#45;&gt;Node18 -->
<g id="edge67" class="edge">
<title>Node1&#45;&gt;Node18</title>
<path fill="none" stroke="midnightblue" d="M1189.21,-392.55C1248.33,-385.01 1323.66,-372.61 1350,-356 1460.62,-286.26 1430.72,-90.9 1418.19,-29.62"/>
<polygon fill="midnightblue" stroke="midnightblue" points="1421.54,-28.56 1416.02,-19.52 1414.69,-30.03 1421.54,-28.56"/>
</g>
<!-- Node19 -->
<g id="node19" class="node">
<title>Node19</title>
<g id="a_node19"><a xlink:title=" ">
<polygon fill="none" stroke="#bfbfbf" points="1454.5,-0.5 1454.5,-19.5 1501.5,-19.5 1501.5,-0.5 1454.5,-0.5"/>
<text text-anchor="middle" x="1478" y="-7.5" font-family="Helvetica,sans-Serif" font-size="10.00">vector</text>
</a>
</g>
</g>
<!-- Node1&#45;&gt;Node19 -->
<g id="edge69" class="edge">
<title>Node1&#45;&gt;Node19</title>
<path fill="none" stroke="midnightblue" d="M1189.09,-395.7C1306.78,-385.53 1516,-358.03 1516,-291 1516,-291 1516,-291 1516,-121 1516,-86.81 1499.4,-49.76 1488.14,-28.57"/>
<polygon fill="midnightblue" stroke="midnightblue" points="1491.18,-26.83 1483.28,-19.77 1485.05,-30.22 1491.18,-26.83"/>
</g>
<!-- Node22 -->
<g id="node22" class="node">
<title>Node22</title>
<g id="a_node22"><a xlink:href="../../d7/d1b/_buffer_8h.html" target="_top" xlink:title=" ">
<polygon fill="none" stroke="black" points="653,-224.5 653,-243.5 719,-243.5 719,-224.5 653,-224.5"/>
<text text-anchor="middle" x="686" y="-231.5" font-family="Helvetica,sans-Serif" font-size="10.00">io/Buffer.h</text>
</a>
</g>
</g>
<!-- Node1&#45;&gt;Node22 -->
<g id="edge59" class="edge">
<title>Node1&#45;&gt;Node22</title>
<path fill="none" stroke="midnightblue" d="M1088.35,-392.45C1064.57,-383.45 1026.12,-368.84 993,-356 891.93,-316.81 772.54,-269.45 717.14,-247.4"/>
<polygon fill="midnightblue" stroke="midnightblue" points="718.14,-244.04 707.56,-243.59 715.55,-250.54 718.14,-244.04"/>
</g>
<!-- Node33 -->
<g id="node33" class="node">
<title>Node33</title>
<g id="a_node33"><a xlink:href="../../da/dd1/_ciff_parser_exception_8h.html" target="_top" xlink:title=" ">
<polygon fill="none" stroke="black" points="171.5,-224.5 171.5,-243.5 330.5,-243.5 330.5,-224.5 171.5,-224.5"/>
<text text-anchor="middle" x="251" y="-231.5" font-family="Helvetica,sans-Serif" font-size="10.00">parsers/CiffParserException.h</text>
</a>
</g>
</g>
<!-- Node1&#45;&gt;Node33 -->
<g id="edge61" class="edge">
<title>Node1&#45;&gt;Node33</title>
<path fill="none" stroke="midnightblue" d="M1066.87,-392.48C922.33,-364.58 463.35,-275.99 305.18,-245.46"/>
<polygon fill="midnightblue" stroke="midnightblue" points="305.69,-241.99 295.21,-243.53 304.36,-248.87 305.69,-241.99"/>
</g>
<!-- Node2&#45;&gt;Node3 -->
<g id="edge2" class="edge">
<title>Node2&#45;&gt;Node3</title>
<path fill="none" stroke="midnightblue" d="M1283.29,-336.32C1266.69,-327.7 1241,-314.36 1221.78,-304.39"/>
<polygon fill="midnightblue" stroke="midnightblue" points="1223.16,-301.16 1212.67,-299.65 1219.93,-307.37 1223.16,-301.16"/>
</g>
<!-- Node2&#45;&gt;Node10 -->
<g id="edge9" class="edge">
<title>Node2&#45;&gt;Node10</title>
<path fill="none" stroke="midnightblue" d="M1258.17,-339.12C1189.34,-329.44 1052.05,-310.13 973.92,-299.14"/>
<polygon fill="midnightblue" stroke="midnightblue" points="974.15,-295.64 963.76,-297.72 973.18,-302.58 974.15,-295.64"/>
</g>
<!-- Node15 -->
<g id="node15" class="node">
<title>Node15</title>
<g id="a_node15"><a xlink:title=" ">
<polygon fill="none" stroke="#bfbfbf" points="894,-0.5 894,-19.5 944,-19.5 944,-0.5 894,-0.5"/>
<text text-anchor="middle" x="919" y="-7.5" font-family="Helvetica,sans-Serif" font-size="10.00">cstdint</text>
</a>
</g>
</g>
<!-- Node2&#45;&gt;Node15 -->
<g id="edge55" class="edge">
<title>Node2&#45;&gt;Node15</title>
<path fill="none" stroke="midnightblue" d="M1300.99,-336.49C1302.98,-315.41 1305.4,-259.87 1281,-224 1238.23,-161.12 1024.84,-59.31 947.26,-23.75"/>
<polygon fill="midnightblue" stroke="midnightblue" points="948.62,-20.52 938.07,-19.55 945.72,-26.89 948.62,-20.52"/>
</g>
<!-- Node2&#45;&gt;Node18 -->
<g id="edge56" class="edge">
<title>Node2&#45;&gt;Node18</title>
<path fill="none" stroke="midnightblue" d="M1317.3,-336.45C1346.4,-320.72 1402,-284.22 1402,-235 1402,-235 1402,-235 1402,-121 1402,-88.76 1407.16,-51.51 1410.71,-29.68"/>
<polygon fill="midnightblue" stroke="midnightblue" points="1414.21,-29.97 1412.43,-19.52 1407.31,-28.8 1414.21,-29.97"/>
</g>
<!-- Node2&#45;&gt;Node19 -->
<g id="edge57" class="edge">
<title>Node2&#45;&gt;Node19</title>
<path fill="none" stroke="midnightblue" d="M1329.01,-336.46C1348.65,-329.41 1374.02,-317.66 1391,-300 1466.3,-221.68 1476.69,-80.64 1477.93,-29.86"/>
<polygon fill="midnightblue" stroke="midnightblue" points="1481.43,-29.76 1478.07,-19.71 1474.43,-29.66 1481.43,-29.76"/>
</g>
<!-- Node32 -->
<g id="node32" class="node">
<title>Node32</title>
<g id="a_node32"><a xlink:href="../../d6/d18/_ciff_tag_8h.html" target="_top" xlink:title=" ">
<polygon fill="none" stroke="black" points="1298.5,-112.5 1298.5,-131.5 1373.5,-131.5 1373.5,-112.5 1298.5,-112.5"/>
<text text-anchor="middle" x="1336" y="-119.5" font-family="Helvetica,sans-Serif" font-size="10.00">tiff/CiffTag.h</text>
</a>
</g>
</g>
<!-- Node2&#45;&gt;Node32 -->
<g id="edge53" class="edge">
<title>Node2&#45;&gt;Node32</title>
<path fill="none" stroke="midnightblue" d="M1303.15,-336.49C1306.34,-327.53 1311.2,-312.96 1314,-300 1326.28,-243.12 1332.39,-174.37 1334.77,-141.83"/>
<polygon fill="midnightblue" stroke="midnightblue" points="1338.28,-141.78 1335.48,-131.56 1331.29,-141.3 1338.28,-141.78"/>
</g>
<!-- Node4 -->
<g id="node4" class="node">
<title>Node4</title>
<g id="a_node4"><a xlink:href="../../d9/dc1/_range_8h.html" target="_top" xlink:title=" ">
<polygon fill="none" stroke="black" points="1170,-224.5 1170,-243.5 1272,-243.5 1272,-224.5 1170,-224.5"/>
<text text-anchor="middle" x="1221" y="-231.5" font-family="Helvetica,sans-Serif" font-size="10.00">common/Range.h</text>
</a>
</g>
</g>
<!-- Node3&#45;&gt;Node4 -->
<g id="edge3" class="edge">
<title>Node3&#45;&gt;Node4</title>
<path fill="none" stroke="midnightblue" d="M1200.13,-280.08C1203.51,-272.77 1208.42,-262.18 1212.62,-253.1"/>
<polygon fill="midnightblue" stroke="midnightblue" points="1215.92,-254.3 1216.95,-243.75 1209.57,-251.36 1215.92,-254.3"/>
</g>
<!-- Node9 -->
<g id="node9" class="node">
<title>Node9</title>
<g id="a_node9"><a xlink:title=" ">
<polygon fill="none" stroke="#bfbfbf" points="1120,-224.5 1120,-243.5 1152,-243.5 1152,-224.5 1120,-224.5"/>
<text text-anchor="middle" x="1136" y="-231.5" font-family="Helvetica,sans-Serif" font-size="10.00">set</text>
</a>
</g>
</g>
<!-- Node3&#45;&gt;Node9 -->
<g id="edge8" class="edge">
<title>Node3&#45;&gt;Node9</title>
<path fill="none" stroke="midnightblue" d="M1186.36,-280.32C1177.49,-272.34 1164.13,-260.31 1153.39,-250.65"/>
<polygon fill="midnightblue" stroke="midnightblue" points="1155.59,-247.92 1145.82,-243.83 1150.91,-253.13 1155.59,-247.92"/>
</g>
<!-- Node5 -->
<g id="node5" class="node">
<title>Node5</title>
<g id="a_node5"><a xlink:title=" ">
<polygon fill="none" stroke="#bfbfbf" points="1121,-0.5 1121,-19.5 1185,-19.5 1185,-0.5 1121,-0.5"/>
<text text-anchor="middle" x="1153" y="-7.5" font-family="Helvetica,sans-Serif" font-size="10.00">algorithm</text>
</a>
</g>
</g>
<!-- Node4&#45;&gt;Node5 -->
<g id="edge4" class="edge">
<title>Node4&#45;&gt;Node5</title>
<path fill="none" stroke="midnightblue" d="M1220.81,-224.45C1219.99,-193.3 1216.12,-86.13 1201,-56 1194.98,-44 1184.36,-33.53 1174.65,-25.72"/>
<polygon fill="midnightblue" stroke="midnightblue" points="1176.57,-22.78 1166.47,-19.56 1172.36,-28.37 1176.57,-22.78"/>
</g>
<!-- Node6 -->
<g id="node6" class="node">
<title>Node6</title>
<g id="a_node6"><a xlink:title=" ">
<polygon fill="none" stroke="#bfbfbf" points="682,-0.5 682,-19.5 734,-19.5 734,-0.5 682,-0.5"/>
<text text-anchor="middle" x="708" y="-7.5" font-family="Helvetica,sans-Serif" font-size="10.00">cassert</text>
</a>
</g>
</g>
<!-- Node4&#45;&gt;Node6 -->
<g id="edge5" class="edge">
<title>Node4&#45;&gt;Node6</title>
<path fill="none" stroke="midnightblue" d="M1212.43,-224.36C1197.99,-210.31 1167.31,-182.63 1136,-168 1093.8,-148.28 760.96,-107.88 727,-76 714.42,-64.19 710.02,-44.56 708.55,-29.95"/>
<polygon fill="midnightblue" stroke="midnightblue" points="712.02,-29.33 707.91,-19.56 705.04,-29.76 712.02,-29.33"/>
</g>
<!-- Node7 -->
<g id="node7" class="node">
<title>Node7</title>
<g id="a_node7"><a xlink:title=" ">
<polygon fill="none" stroke="#bfbfbf" points="1203.5,-0.5 1203.5,-19.5 1272.5,-19.5 1272.5,-0.5 1203.5,-0.5"/>
<text text-anchor="middle" x="1238" y="-7.5" font-family="Helvetica,sans-Serif" font-size="10.00">type_traits</text>
</a>
</g>
</g>
<!-- Node4&#45;&gt;Node7 -->
<g id="edge6" class="edge">
<title>Node4&#45;&gt;Node7</title>
<path fill="none" stroke="midnightblue" d="M1221.77,-224.5C1223.88,-200.92 1229.91,-132.74 1234,-76 1235.12,-60.48 1236.19,-42.85 1236.94,-29.87"/>
<polygon fill="midnightblue" stroke="midnightblue" points="1240.44,-30.02 1237.52,-19.84 1233.45,-29.62 1240.44,-30.02"/>
</g>
<!-- Node4&#45;&gt;Node8 -->
<g id="edge7" class="edge">
<title>Node4&#45;&gt;Node8</title>
<path fill="none" stroke="midnightblue" d="M1202.62,-224.44C1183.78,-215.68 1154.27,-201.94 1132.62,-191.86"/>
<polygon fill="midnightblue" stroke="midnightblue" points="1133.84,-188.56 1123.29,-187.52 1130.88,-194.91 1133.84,-188.56"/>
</g>
<!-- Node10&#45;&gt;Node6 -->
<g id="edge49" class="edge">
<title>Node10&#45;&gt;Node6</title>
<path fill="none" stroke="midnightblue" d="M868.28,-287.61C750.98,-282.89 458,-262.72 458,-179 458,-179 458,-179 458,-121 458,-28.76 602.33,-13.19 671.66,-11.03"/>
<polygon fill="midnightblue" stroke="midnightblue" points="671.8,-14.52 681.72,-10.79 671.64,-7.53 671.8,-14.52"/>
</g>
<!-- Node11 -->
<g id="node11" class="node">
<title>Node11</title>
<g id="a_node11"><a xlink:href="../../d2/d4f/_address_sanitizer_8h.html" target="_top" xlink:title=" ">
<polygon fill="none" stroke="black" points="714.5,-168.5 714.5,-187.5 821.5,-187.5 821.5,-168.5 714.5,-168.5"/>
<text text-anchor="middle" x="768" y="-175.5" font-family="Helvetica,sans-Serif" font-size="10.00">AddressSanitizer.h</text>
</a>
</g>
</g>
<!-- Node10&#45;&gt;Node11 -->
<g id="edge10" class="edge">
<title>Node10&#45;&gt;Node11</title>
<path fill="none" stroke="midnightblue" d="M904.39,-280.37C879.21,-261.65 819.33,-217.15 787.96,-193.83"/>
<polygon fill="midnightblue" stroke="midnightblue" points="789.67,-190.75 779.56,-187.59 785.5,-196.37 789.67,-190.75"/>
</g>
<!-- Node13 -->
<g id="node13" class="node">
<title>Node13</title>
<g id="a_node13"><a xlink:href="../../d9/df5/src_2librawspeed_2common_2_common_8h.html" target="_top" xlink:title=" ">
<polygon fill="none" stroke="black" points="1076,-56.5 1076,-75.5 1192,-75.5 1192,-56.5 1076,-56.5"/>
<text text-anchor="middle" x="1134" y="-63.5" font-family="Helvetica,sans-Serif" font-size="10.00">common/Common.h</text>
</a>
</g>
</g>
<!-- Node10&#45;&gt;Node13 -->
<g id="edge12" class="edge">
<title>Node10&#45;&gt;Node13</title>
<path fill="none" stroke="midnightblue" d="M960.62,-280.48C984.96,-273.93 1014.26,-262.72 1035,-244 1063.03,-218.69 1054.78,-201.08 1073,-168 1089.56,-137.93 1110.58,-103.95 1123.12,-84.06"/>
<polygon fill="midnightblue" stroke="midnightblue" points="1126.15,-85.83 1128.54,-75.51 1120.23,-82.08 1126.15,-85.83"/>
</g>
<!-- Node10&#45;&gt;Node15 -->
<g id="edge50" class="edge">
<title>Node10&#45;&gt;Node15</title>
<path fill="none" stroke="midnightblue" d="M918.76,-280.44C922.9,-267.88 931.18,-243.77 940,-224 947.37,-207.48 954.65,-205.56 959,-188 973.42,-129.78 944.27,-60.25 928.38,-28.44"/>
<polygon fill="midnightblue" stroke="midnightblue" points="931.46,-26.78 923.75,-19.5 925.24,-29.99 931.46,-26.78"/>
</g>
<!-- Node16 -->
<g id="node16" class="node">
<title>Node16</title>
<g id="a_node16"><a xlink:title=" ">
<polygon fill="none" stroke="#bfbfbf" points="985,-0.5 985,-19.5 1035,-19.5 1035,-0.5 985,-0.5"/>
<text text-anchor="middle" x="1010" y="-7.5" font-family="Helvetica,sans-Serif" font-size="10.00">cstring</text>
</a>
</g>
</g>
<!-- Node10&#45;&gt;Node16 -->
<g id="edge51" class="edge">
<title>Node10&#45;&gt;Node16</title>
<path fill="none" stroke="midnightblue" d="M922.44,-280.32C934.64,-263.45 961.12,-224.65 975,-188 995.94,-132.71 1005.03,-62.73 1008.36,-29.78"/>
<polygon fill="midnightblue" stroke="midnightblue" points="1011.85,-30.04 1009.31,-19.75 1004.88,-29.38 1011.85,-30.04"/>
</g>
<!-- Node20 -->
<g id="node20" class="node">
<title>Node20</title>
<g id="a_node20"><a xlink:href="../../d3/de6/_memory_8h.html" target="_top" xlink:title=" ">
<polygon fill="none" stroke="black" points="840,-168.5 840,-187.5 950,-187.5 950,-168.5 840,-168.5"/>
<text text-anchor="middle" x="895" y="-175.5" font-family="Helvetica,sans-Serif" font-size="10.00">common/Memory.h</text>
</a>
</g>
</g>
<!-- Node10&#45;&gt;Node20 -->
<g id="edge22" class="edge">
<title>Node10&#45;&gt;Node20</title>
<path fill="none" stroke="midnightblue" d="M912.69,-280.17C909.46,-271.19 904.66,-256.82 902,-244 898.83,-228.7 897.04,-211.06 896.07,-198.02"/>
<polygon fill="midnightblue" stroke="midnightblue" points="899.56,-197.67 895.41,-187.92 892.57,-198.12 899.56,-197.67"/>
</g>
<!-- Node10&#45;&gt;Node22 -->
<g id="edge27" class="edge">
<title>Node10&#45;&gt;Node22</title>
<path fill="none" stroke="midnightblue" d="M879.56,-280.44C838.75,-270.86 772.66,-255.35 729.26,-245.16"/>
<polygon fill="midnightblue" stroke="midnightblue" points="729.82,-241.69 719.29,-242.82 728.22,-248.51 729.82,-241.69"/>
</g>
<!-- Node24 -->
<g id="node24" class="node">
<title>Node24</title>
<g id="a_node24"><a xlink:href="../../d0/dd8/_i_o_exception_8h.html" target="_top" xlink:title=" ">
<polygon fill="none" stroke="black" points="334,-168.5 334,-187.5 430,-187.5 430,-168.5 334,-168.5"/>
<text text-anchor="middle" x="382" y="-175.5" font-family="Helvetica,sans-Serif" font-size="10.00">io/IOException.h</text>
</a>
</g>
</g>
<!-- Node10&#45;&gt;Node24 -->
<g id="edge48" class="edge">
<title>Node10&#45;&gt;Node24</title>
<path fill="none" stroke="midnightblue" d="M868.36,-288.64C763.87,-287.18 517.96,-279.91 444,-244 422.16,-233.39 403.95,-211.65 393.04,-196.23"/>
<polygon fill="midnightblue" stroke="midnightblue" points="395.71,-193.94 387.22,-187.61 389.91,-197.86 395.71,-193.94"/>
</g>
<!-- Node31 -->
<g id="node31" class="node">
<title>Node31</title>
<g id="a_node31"><a xlink:title=" ">
<polygon fill="none" stroke="#bfbfbf" points="982,-224.5 982,-243.5 1026,-243.5 1026,-224.5 982,-224.5"/>
<text text-anchor="middle" x="1004" y="-231.5" font-family="Helvetica,sans-Serif" font-size="10.00">limits</text>
</a>
</g>
</g>
<!-- Node10&#45;&gt;Node31 -->
<g id="edge52" class="edge">
<title>Node10&#45;&gt;Node31</title>
<path fill="none" stroke="midnightblue" d="M930.14,-280.32C943.87,-271.9 964.94,-258.97 981.06,-249.07"/>
<polygon fill="midnightblue" stroke="midnightblue" points="983.2,-251.87 989.9,-243.65 979.54,-245.9 983.2,-251.87"/>
</g>
<!-- Node12 -->
<g id="node12" class="node">
<title>Node12</title>
<g id="a_node12"><a xlink:title=" ">
<polygon fill="none" stroke="#bfbfbf" points="750.5,-112.5 750.5,-131.5 803.5,-131.5 803.5,-112.5 750.5,-112.5"/>
<text text-anchor="middle" x="777" y="-119.5" font-family="Helvetica,sans-Serif" font-size="10.00">cstddef</text>
</a>
</g>
</g>
<!-- Node11&#45;&gt;Node12 -->
<g id="edge11" class="edge">
<title>Node11&#45;&gt;Node12</title>
<path fill="none" stroke="midnightblue" d="M769.49,-168.08C770.68,-160.93 772.39,-150.64 773.88,-141.69"/>
<polygon fill="midnightblue" stroke="midnightblue" points="777.35,-142.19 775.54,-131.75 770.45,-141.04 777.35,-142.19"/>
</g>
<!-- Node13&#45;&gt;Node5 -->
<g id="edge13" class="edge">
<title>Node13&#45;&gt;Node5</title>
<path fill="none" stroke="midnightblue" d="M1137.14,-56.08C1139.68,-48.85 1143.36,-38.41 1146.53,-29.4"/>
<polygon fill="midnightblue" stroke="midnightblue" points="1149.9,-30.35 1149.92,-19.75 1143.3,-28.02 1149.9,-30.35"/>
</g>
<!-- Node13&#45;&gt;Node6 -->
<g id="edge14" class="edge">
<title>Node13&#45;&gt;Node6</title>
<path fill="none" stroke="midnightblue" d="M1075.66,-57.6C986.39,-46.29 818.5,-25.01 744.55,-15.63"/>
<polygon fill="midnightblue" stroke="midnightblue" points="744.7,-12.12 734.34,-14.34 743.82,-19.07 744.7,-12.12"/>
</g>
<!-- Node13&#45;&gt;Node7 -->
<g id="edge20" class="edge">
<title>Node13&#45;&gt;Node7</title>
<path fill="none" stroke="midnightblue" d="M1150.71,-56.32C1167.31,-47.7 1193,-34.36 1212.22,-24.39"/>
<polygon fill="midnightblue" stroke="midnightblue" points="1214.07,-27.37 1221.33,-19.65 1210.84,-21.16 1214.07,-27.37"/>
</g>
<!-- Node14 -->
<g id="node14" class="node">
<title>Node14</title>
<g id="a_node14"><a xlink:title=" ">
<polygon fill="none" stroke="#bfbfbf" points="1053,-0.5 1053,-19.5 1103,-19.5 1103,-0.5 1053,-0.5"/>
<text text-anchor="middle" x="1078" y="-7.5" font-family="Helvetica,sans-Serif" font-size="10.00">climits</text>
</a>
</g>
</g>
<!-- Node13&#45;&gt;Node14 -->
<g id="edge15" class="edge">
<title>Node13&#45;&gt;Node14</title>
<path fill="none" stroke="midnightblue" d="M1125,-56.32C1116.81,-48.42 1104.49,-36.55 1094.53,-26.94"/>
<polygon fill="midnightblue" stroke="midnightblue" points="1096.79,-24.26 1087.16,-19.83 1091.93,-29.29 1096.79,-24.26"/>
</g>
<!-- Node13&#45;&gt;Node15 -->
<g id="edge16" class="edge">
<title>Node13&#45;&gt;Node15</title>
<path fill="none" stroke="midnightblue" d="M1099.93,-56.44C1060.07,-46.43 994.39,-29.94 954.09,-19.81"/>
<polygon fill="midnightblue" stroke="midnightblue" points="954.73,-16.36 944.17,-17.32 953.02,-23.15 954.73,-16.36"/>
</g>
<!-- Node13&#45;&gt;Node16 -->
<g id="edge17" class="edge">
<title>Node13&#45;&gt;Node16</title>
<path fill="none" stroke="midnightblue" d="M1114.35,-56.44C1094.04,-47.6 1062.1,-33.69 1038.9,-23.59"/>
<polygon fill="midnightblue" stroke="midnightblue" points="1040.12,-20.3 1029.56,-19.52 1037.33,-26.72 1040.12,-20.3"/>
</g>
<!-- Node17 -->
<g id="node17" class="node">
<title>Node17</title>
<g id="a_node17"><a xlink:title=" ">
<polygon fill="none" stroke="#bfbfbf" points="1290.5,-0.5 1290.5,-19.5 1373.5,-19.5 1373.5,-0.5 1290.5,-0.5"/>
<text text-anchor="middle" x="1332" y="-7.5" font-family="Helvetica,sans-Serif" font-size="10.00">initializer_list</text>
</a>
</g>
</g>
<!-- Node13&#45;&gt;Node17 -->
<g id="edge18" class="edge">
<title>Node13&#45;&gt;Node17</title>
<path fill="none" stroke="midnightblue" d="M1165.37,-56.44C1199.26,-47.2 1253.4,-32.44 1290.72,-22.26"/>
<polygon fill="midnightblue" stroke="midnightblue" points="1292.05,-25.52 1300.77,-19.52 1290.2,-18.77 1292.05,-25.52"/>
</g>
<!-- Node13&#45;&gt;Node18 -->
<g id="edge19" class="edge">
<title>Node13&#45;&gt;Node18</title>
<path fill="none" stroke="midnightblue" d="M1189.47,-56.48C1237.66,-48.73 1309.53,-36.33 1381.53,-19.91"/>
<polygon fill="midnightblue" stroke="midnightblue" points="1382.73,-23.22 1391.69,-17.57 1381.16,-16.4 1382.73,-23.22"/>
</g>
<!-- Node13&#45;&gt;Node19 -->
<g id="edge21" class="edge">
<title>Node13&#45;&gt;Node19</title>
<path fill="none" stroke="midnightblue" d="M1192.26,-58.73C1252.89,-51.72 1350.7,-39.06 1444.36,-19.9"/>
<polygon fill="midnightblue" stroke="midnightblue" points="1445.21,-23.3 1454.29,-17.84 1443.79,-16.44 1445.21,-23.3"/>
</g>
<!-- Node20&#45;&gt;Node12 -->
<g id="edge25" class="edge">
<title>Node20&#45;&gt;Node12</title>
<path fill="none" stroke="midnightblue" d="M876.3,-168.44C857.06,-159.64 826.85,-145.81 804.8,-135.72"/>
<polygon fill="midnightblue" stroke="midnightblue" points="806.16,-132.5 795.61,-131.52 803.25,-138.86 806.16,-132.5"/>
</g>
<!-- Node20&#45;&gt;Node13 -->
<g id="edge24" class="edge">
<title>Node20&#45;&gt;Node13</title>
<path fill="none" stroke="midnightblue" d="M913.75,-168.37C955.64,-149.09 1056.97,-102.45 1106.21,-79.79"/>
<polygon fill="midnightblue" stroke="midnightblue" points="1107.71,-82.95 1115.33,-75.59 1104.79,-76.59 1107.71,-82.95"/>
</g>
<!-- Node20&#45;&gt;Node15 -->
<g id="edge26" class="edge">
<title>Node20&#45;&gt;Node15</title>
<path fill="none" stroke="midnightblue" d="M896.29,-168.08C900.07,-141.95 911.16,-65.21 916.31,-29.58"/>
<polygon fill="midnightblue" stroke="midnightblue" points="919.79,-29.97 917.76,-19.57 912.87,-28.96 919.79,-29.97"/>
</g>
<!-- Node21 -->
<g id="node21" class="node">
<title>Node21</title>
<g id="a_node21"><a xlink:title=" ">
<polygon fill="none" stroke="#bfbfbf" points="280,-56.5 280,-75.5 382,-75.5 382,-56.5 280,-56.5"/>
<text text-anchor="middle" x="331" y="-63.5" font-family="Helvetica,sans-Serif" font-size="10.00">rawspeedconfig.h</text>
</a>
</g>
</g>
<!-- Node20&#45;&gt;Node21 -->
<g id="edge23" class="edge">
<title>Node20&#45;&gt;Node21</title>
<path fill="none" stroke="midnightblue" d="M887.31,-168.37C873.75,-153.82 843.97,-124.73 812,-112 737.19,-82.22 504.02,-71.8 392.12,-68.45"/>
<polygon fill="midnightblue" stroke="midnightblue" points="392.1,-64.95 382,-68.15 391.9,-71.94 392.1,-64.95"/>
</g>
<!-- Node22&#45;&gt;Node6 -->
<g id="edge44" class="edge">
<title>Node22&#45;&gt;Node6</title>
<path fill="none" stroke="midnightblue" d="M665.01,-224.42C650.14,-217.12 631.26,-205.07 622,-188 605.89,-158.3 608.15,-143.64 620,-112 633.61,-75.66 666.86,-43.79 688.37,-25.99"/>
<polygon fill="midnightblue" stroke="midnightblue" points="690.63,-28.66 696.24,-19.67 686.25,-23.21 690.63,-28.66"/>
</g>
<!-- Node22&#45;&gt;Node8 -->
<g id="edge47" class="edge">
<title>Node22&#45;&gt;Node8</title>
<path fill="none" stroke="midnightblue" d="M719.23,-228.72C797.8,-218.59 994.25,-193.27 1072.29,-183.22"/>
<polygon fill="midnightblue" stroke="midnightblue" points="1073.02,-186.65 1082.5,-181.9 1072.13,-179.71 1073.02,-186.65"/>
</g>
<!-- Node22&#45;&gt;Node11 -->
<g id="edge28" class="edge">
<title>Node22&#45;&gt;Node11</title>
<path fill="none" stroke="midnightblue" d="M699.17,-224.32C711.85,-215.98 731.23,-203.21 746.21,-193.35"/>
<polygon fill="midnightblue" stroke="midnightblue" points="748.43,-196.08 754.86,-187.65 744.58,-190.23 748.43,-196.08"/>
</g>
<!-- Node22&#45;&gt;Node13 -->
<g id="edge29" class="edge">
<title>Node22&#45;&gt;Node13</title>
<path fill="none" stroke="midnightblue" d="M686.82,-224.17C689.52,-200.77 700.45,-137.24 741,-112 793.65,-79.23 967.62,-70.3 1065.52,-67.88"/>
<polygon fill="midnightblue" stroke="midnightblue" points="1065.7,-71.38 1075.62,-67.65 1065.54,-64.38 1065.7,-71.38"/>
</g>
<!-- Node22&#45;&gt;Node15 -->
<g id="edge45" class="edge">
<title>Node22&#45;&gt;Node15</title>
<path fill="none" stroke="midnightblue" d="M685.22,-224.3C683.72,-201.76 683.2,-141.21 717,-112 759.45,-75.31 788.3,-102.04 838,-76 862.79,-63.01 887.31,-41.87 902.76,-27.24"/>
<polygon fill="midnightblue" stroke="midnightblue" points="905.61,-29.35 910.36,-19.88 900.74,-24.32 905.61,-29.35"/>
</g>
<!-- Node22&#45;&gt;Node20 -->
<g id="edge30" class="edge">
<title>Node22&#45;&gt;Node20</title>
<path fill="none" stroke="midnightblue" d="M719.12,-224.44C755.12,-215.14 812.77,-200.25 852.19,-190.06"/>
<polygon fill="midnightblue" stroke="midnightblue" points="853.23,-193.41 862.04,-187.52 851.48,-186.63 853.23,-193.41"/>
</g>
<!-- Node23 -->
<g id="node23" class="node">
<title>Node23</title>
<g id="a_node23"><a xlink:href="../../d5/d0b/_endianness_8h.html" target="_top" xlink:title=" ">
<polygon fill="none" stroke="black" points="736.5,-56.5 736.5,-75.5 829.5,-75.5 829.5,-56.5 736.5,-56.5"/>
<text text-anchor="middle" x="783" y="-63.5" font-family="Helvetica,sans-Serif" font-size="10.00">io/Endianness.h</text>
</a>
</g>
</g>
<!-- Node22&#45;&gt;Node23 -->
<g id="edge31" class="edge">
<title>Node22&#45;&gt;Node23</title>
<path fill="none" stroke="midnightblue" d="M670.22,-224.47C657.8,-216.77 641.39,-204.18 634,-188 619.96,-157.28 613.86,-139.12 634,-112 655.08,-83.61 693.53,-72.49 726.09,-68.4"/>
<polygon fill="midnightblue" stroke="midnightblue" points="726.85,-71.84 736.43,-67.3 726.12,-64.87 726.85,-71.84"/>
</g>
<!-- Node22&#45;&gt;Node24 -->
<g id="edge35" class="edge">
<title>Node22&#45;&gt;Node24</title>
<path fill="none" stroke="midnightblue" d="M652.89,-227.12C601.87,-218.06 503.34,-200.55 440.22,-189.34"/>
<polygon fill="midnightblue" stroke="midnightblue" points="440.48,-185.83 430.02,-187.53 439.25,-192.72 440.48,-185.83"/>
</g>
<!-- Node30 -->
<g id="node30" class="node">
<title>Node30</title>
<g id="a_node30"><a xlink:title=" ">
<polygon fill="none" stroke="#bfbfbf" points="486,-168.5 486,-187.5 544,-187.5 544,-168.5 486,-168.5"/>
<text text-anchor="middle" x="515" y="-175.5" font-family="Helvetica,sans-Serif" font-size="10.00">memory</text>
</a>
</g>
</g>
<!-- Node22&#45;&gt;Node30 -->
<g id="edge46" class="edge">
<title>Node22&#45;&gt;Node30</title>
<path fill="none" stroke="midnightblue" d="M658.9,-224.44C630.01,-215.32 584.08,-200.81 551.89,-190.65"/>
<polygon fill="midnightblue" stroke="midnightblue" points="552.56,-187.19 541.97,-187.52 550.45,-193.87 552.56,-187.19"/>
</g>
<!-- Node23&#45;&gt;Node6 -->
<g id="edge32" class="edge">
<title>Node23&#45;&gt;Node6</title>
<path fill="none" stroke="midnightblue" d="M770.95,-56.32C759.54,-48.11 742.17,-35.6 728.57,-25.81"/>
<polygon fill="midnightblue" stroke="midnightblue" points="730.43,-22.84 720.27,-19.83 726.34,-28.52 730.43,-22.84"/>
</g>
<!-- Node23&#45;&gt;Node15 -->
<g id="edge33" class="edge">
<title>Node23&#45;&gt;Node15</title>
<path fill="none" stroke="midnightblue" d="M804.55,-56.44C827.03,-47.52 862.49,-33.44 887.98,-23.32"/>
<polygon fill="midnightblue" stroke="midnightblue" points="889.55,-26.46 897.55,-19.52 886.97,-19.95 889.55,-26.46"/>
</g>
<!-- Node23&#45;&gt;Node16 -->
<g id="edge34" class="edge">
<title>Node23&#45;&gt;Node16</title>
<path fill="none" stroke="midnightblue" d="M818.97,-56.44C861.7,-46.28 932.52,-29.43 974.88,-19.36"/>
<polygon fill="midnightblue" stroke="midnightblue" points="975.82,-22.73 984.74,-17.01 974.2,-15.92 975.82,-22.73"/>
</g>
<!-- Node24&#45;&gt;Node21 -->
<g id="edge36" class="edge">
<title>Node24&#45;&gt;Node21</title>
<path fill="none" stroke="midnightblue" d="M378,-168.37C369.69,-150.46 350.44,-108.92 339.32,-84.95"/>
<polygon fill="midnightblue" stroke="midnightblue" points="342.36,-83.19 334.98,-75.59 336.01,-86.14 342.36,-83.19"/>
</g>
<!-- Node25 -->
<g id="node25" class="node">
<title>Node25</title>
<g id="a_node25"><a xlink:href="../../d7/d05/_rawspeed_exception_8h.html" target="_top" xlink:title=" ">
<polygon fill="none" stroke="black" points="70,-112.5 70,-131.5 240,-131.5 240,-112.5 70,-112.5"/>
<text text-anchor="middle" x="155" y="-119.5" font-family="Helvetica,sans-Serif" font-size="10.00">common/RawspeedException.h</text>
</a>
</g>
</g>
<!-- Node24&#45;&gt;Node25 -->
<g id="edge37" class="edge">
<title>Node24&#45;&gt;Node25</title>
<path fill="none" stroke="midnightblue" d="M346.03,-168.44C306.68,-159.08 243.51,-144.06 200.69,-133.87"/>
<polygon fill="midnightblue" stroke="midnightblue" points="201.34,-130.43 190.8,-131.52 199.72,-137.24 201.34,-130.43"/>
</g>
<!-- Node25&#45;&gt;Node13 -->
<g id="edge39" class="edge">
<title>Node25&#45;&gt;Node13</title>
<path fill="none" stroke="midnightblue" d="M240.17,-116.3C431.39,-105.75 891.71,-80.36 1065.77,-70.76"/>
<polygon fill="midnightblue" stroke="midnightblue" points="1066.04,-74.25 1075.83,-70.21 1065.65,-67.26 1066.04,-74.25"/>
</g>
<!-- Node25&#45;&gt;Node21 -->
<g id="edge38" class="edge">
<title>Node25&#45;&gt;Node21</title>
<path fill="none" stroke="midnightblue" d="M182.89,-112.44C212.75,-103.28 260.31,-88.69 293.46,-78.52"/>
<polygon fill="midnightblue" stroke="midnightblue" points="294.71,-81.8 303.24,-75.52 292.66,-75.1 294.71,-81.8"/>
</g>
<!-- Node26 -->
<g id="node26" class="node">
<title>Node26</title>
<g id="a_node26"><a xlink:title=" ">
<polygon fill="none" stroke="#bfbfbf" points="0,-56.5 0,-75.5 42,-75.5 42,-56.5 0,-56.5"/>
<text text-anchor="middle" x="21" y="-63.5" font-family="Helvetica,sans-Serif" font-size="10.00">array</text>
</a>
</g>
</g>
<!-- Node25&#45;&gt;Node26 -->
<g id="edge40" class="edge">
<title>Node25&#45;&gt;Node26</title>
<path fill="none" stroke="midnightblue" d="M133.77,-112.44C111.62,-103.52 76.68,-89.44 51.56,-79.32"/>
<polygon fill="midnightblue" stroke="midnightblue" points="52.72,-76.01 42.13,-75.52 50.1,-82.5 52.72,-76.01"/>
</g>
<!-- Node27 -->
<g id="node27" class="node">
<title>Node27</title>
<g id="a_node27"><a xlink:title=" ">
<polygon fill="none" stroke="#bfbfbf" points="60.5,-56.5 60.5,-75.5 113.5,-75.5 113.5,-56.5 60.5,-56.5"/>
<text text-anchor="middle" x="87" y="-63.5" font-family="Helvetica,sans-Serif" font-size="10.00">cstdarg</text>
</a>
</g>
</g>
<!-- Node25&#45;&gt;Node27 -->
<g id="edge41" class="edge">
<title>Node25&#45;&gt;Node27</title>
<path fill="none" stroke="midnightblue" d="M144.07,-112.32C133.83,-104.18 118.28,-91.84 106,-82.09"/>
<polygon fill="midnightblue" stroke="midnightblue" points="108.13,-79.31 98.12,-75.83 103.78,-84.79 108.13,-79.31"/>
</g>
<!-- Node28 -->
<g id="node28" class="node">
<title>Node28</title>
<g id="a_node28"><a xlink:title=" ">
<polygon fill="none" stroke="#bfbfbf" points="132,-56.5 132,-75.5 178,-75.5 178,-56.5 132,-56.5"/>
<text text-anchor="middle" x="155" y="-63.5" font-family="Helvetica,sans-Serif" font-size="10.00">cstdio</text>
</a>
</g>
</g>
<!-- Node25&#45;&gt;Node28 -->
<g id="edge42" class="edge">
<title>Node25&#45;&gt;Node28</title>
<path fill="none" stroke="midnightblue" d="M155,-112.08C155,-105.01 155,-94.86 155,-85.99"/>
<polygon fill="midnightblue" stroke="midnightblue" points="158.5,-85.75 155,-75.75 151.5,-85.75 158.5,-85.75"/>
</g>
<!-- Node29 -->
<g id="node29" class="node">
<title>Node29</title>
<g id="a_node29"><a xlink:title=" ">
<polygon fill="none" stroke="#bfbfbf" points="196.5,-56.5 196.5,-75.5 261.5,-75.5 261.5,-56.5 196.5,-56.5"/>
<text text-anchor="middle" x="229" y="-63.5" font-family="Helvetica,sans-Serif" font-size="10.00">stdexcept</text>
</a>
</g>
</g>
<!-- Node25&#45;&gt;Node29 -->
<g id="edge43" class="edge">
<title>Node25&#45;&gt;Node29</title>
<path fill="none" stroke="midnightblue" d="M166.89,-112.32C178.15,-104.11 195.29,-91.6 208.71,-81.81"/>
<polygon fill="midnightblue" stroke="midnightblue" points="210.88,-84.56 216.89,-75.83 206.75,-78.9 210.88,-84.56"/>
</g>
<!-- Node32&#45;&gt;Node17 -->
<g id="edge54" class="edge">
<title>Node32&#45;&gt;Node17</title>
<path fill="none" stroke="midnightblue" d="M1335.69,-112.37C1335.04,-94.62 1333.55,-53.67 1332.68,-29.6"/>
<polygon fill="midnightblue" stroke="midnightblue" points="1336.17,-29.46 1332.31,-19.59 1329.18,-29.71 1336.17,-29.46"/>
</g>
<!-- Node33&#45;&gt;Node21 -->
<g id="edge62" class="edge">
<title>Node33&#45;&gt;Node21</title>
<path fill="none" stroke="midnightblue" d="M259.38,-224.32C267.36,-215.69 279.26,-201.78 287,-188 306.17,-153.86 319.71,-109.79 326.35,-85.36"/>
<polygon fill="midnightblue" stroke="midnightblue" points="329.75,-86.19 328.9,-75.63 322.98,-84.41 329.75,-86.19"/>
</g>
<!-- Node33&#45;&gt;Node25 -->
<g id="edge63" class="edge">
<title>Node33&#45;&gt;Node25</title>
<path fill="none" stroke="midnightblue" d="M171.21,-226.82C145.96,-220.64 120.6,-209.13 105,-188 91.93,-170.3 112.86,-150.28 131.5,-137.2"/>
<polygon fill="midnightblue" stroke="midnightblue" points="133.64,-139.98 140.04,-131.54 129.77,-134.15 133.64,-139.98"/>
</g>
<!-- Node34 -->
<g id="node34" class="node">
<title>Node34</title>
<g id="a_node34"><a xlink:href="../../d6/d0f/_raw_parser_exception_8h.html" target="_top" xlink:title=" ">
<polygon fill="none" stroke="black" points="114,-168.5 114,-187.5 278,-187.5 278,-168.5 114,-168.5"/>
<text text-anchor="middle" x="196" y="-175.5" font-family="Helvetica,sans-Serif" font-size="10.00">parsers/RawParserException.h</text>
</a>
</g>
</g>
<!-- Node33&#45;&gt;Node34 -->
<g id="edge64" class="edge">
<title>Node33&#45;&gt;Node34</title>
<path fill="none" stroke="midnightblue" d="M241.92,-224.08C233.83,-216.14 221.8,-204.34 212.09,-194.8"/>
<polygon fill="midnightblue" stroke="midnightblue" points="214.5,-192.26 204.91,-187.75 209.6,-197.25 214.5,-192.26"/>
</g>
<!-- Node34&#45;&gt;Node21 -->
<g id="edge65" class="edge">
<title>Node34&#45;&gt;Node21</title>
<path fill="none" stroke="midnightblue" d="M206.59,-168.37C229.46,-149.73 283.71,-105.53 312.43,-82.13"/>
<polygon fill="midnightblue" stroke="midnightblue" points="314.91,-84.62 320.46,-75.59 310.49,-79.19 314.91,-84.62"/>
</g>
<!-- Node34&#45;&gt;Node25 -->
<g id="edge66" class="edge">
<title>Node34&#45;&gt;Node25</title>
<path fill="none" stroke="midnightblue" d="M189.23,-168.08C183.44,-160.46 174.94,-149.26 167.86,-139.94"/>
<polygon fill="midnightblue" stroke="midnightblue" points="170.48,-137.6 161.64,-131.75 164.9,-141.83 170.48,-137.6"/>
</g>
</g>
</svg>
        <g id="navigator" transform="translate(0 0)" fill="#404254">
                <rect fill="#f2f5e9" fill-opacity="0.5" stroke="#606060" stroke-width=".5" x="0" y="0" width="60" height="60"/>
                <use id="zoomplus" xlink:href="#zoomPlus" x="17" y="9" onmousedown="handleZoom(evt,'in')"/>
                <use id="zoomminus" xlink:href="#zoomMin" x="42" y="9" onmousedown="handleZoom(evt,'out')"/>
                <use id="reset" xlink:href="#resetDef" x="30" y="36" onmousedown="handleReset()"/>
                <g id="arrowUp" xlink:href="#dirArrow" transform="translate(30 24)" onmousedown="handlePan(0,-1)">
                  <use xlink:href="#rim" fill="#404040">
                        <set attributeName="fill" to="#808080" begin="arrowUp.mouseover" end="arrowUp.mouseout"/>
                  </use>
                  <path fill="none" stroke="white" stroke-width="1.5" d="M0,-3.0v7 M-2.5,-0.5L0,-3.0L2.5,-0.5"/>
                </g>
                <g id="arrowRight" xlink:href="#dirArrow" transform="rotate(90) translate(36 -43)" onmousedown="handlePan(1,0)">
                  <use xlink:href="#rim" fill="#404040">
                        <set attributeName="fill" to="#808080" begin="arrowRight.mouseover" end="arrowRight.mouseout"/>
                  </use>
                  <path fill="none" stroke="white" stroke-width="1.5" d="M0,-3.0v7 M-2.5,-0.5L0,-3.0L2.5,-0.5"/>
                </g>
                <g id="arrowDown" xlink:href="#dirArrow" transform="rotate(180) translate(-30 -48)" onmousedown="handlePan(0,1)">
                  <use xlink:href="#rim" fill="#404040">
                        <set attributeName="fill" to="#808080" begin="arrowDown.mouseover" end="arrowDown.mouseout"/>
                  </use>
                  <path fill="none" stroke="white" stroke-width="1.5" d="M0,-3.0v7 M-2.5,-0.5L0,-3.0L2.5,-0.5"/>
                </g>
                <g id="arrowLeft" xlink:href="#dirArrow" transform="rotate(270) translate(-36 17)" onmousedown="handlePan(-1,0)">
                  <use xlink:href="#rim" fill="#404040">
                        <set attributeName="fill" to="#808080" begin="arrowLeft.mouseover" end="arrowLeft.mouseout"/>
                  </use>
                  <path fill="none" stroke="white" stroke-width="1.5" d="M0,-3.0v7 M-2.5,-0.5L0,-3.0L2.5,-0.5"/>
                </g>
        </g>
        <svg viewBox="0 0 15 15" width="100%" height="30px" preserveAspectRatio="xMaxYMin meet">
         <g id="arrow_out" transform="scale(0.3 0.3)">
          <a xlink:href="_ciff_entry_8cpp__incl_org.svg" target="_base">
           <rect id="button" ry="5" rx="5" y="6" x="6" height="38" width="38"
                fill="#f2f5e9" fill-opacity="0.5" stroke="#606060" stroke-width="1.0"/>
           <path id="arrow"
             d="M 11.500037,31.436501 C 11.940474,20.09759 22.043105,11.32322 32.158766,21.979434 L 37.068811,17.246167 C 37.068811,17.246167 37.088388,32 37.088388,32 L 22.160133,31.978069 C 22.160133,31.978069 26.997745,27.140456 26.997745,27.140456 C 18.528582,18.264221 13.291696,25.230495 11.500037,31.436501 z"
             style="fill:#404040;"/>
          </a>
         </g>
        </svg>
</svg>
