<?xml version="1.0" encoding="UTF-8" standalone="no"?>
<!DOCTYPE svg PUBLIC "-//W3C//DTD SVG 1.1//EN"
 "http://www.w3.org/Graphics/SVG/1.1/DTD/svg11.dtd">
<!-- Generated by graphviz version 2.43.0 (0)
 -->
<!-- Title: librawspeed/io/FileWriter.cpp Pages: 1 -->
<svg width="1116pt" height="364pt"
 viewBox="0.00 0.00 1116.00 364.00" xmlns="http://www.w3.org/2000/svg" xmlns:xlink="http://www.w3.org/1999/xlink">
<g id="graph0" class="graph" transform="scale(1 1) rotate(0) translate(4 360)">
<title>librawspeed/io/FileWriter.cpp</title>
<!-- Node1 -->
<g id="node1" class="node">
<title>Node1</title>
<g id="a_node1"><a xlink:title=" ">
<polygon fill="#bfbfbf" stroke="black" points="711,-336.5 711,-355.5 867,-355.5 867,-336.5 711,-336.5"/>
<text text-anchor="middle" x="789" y="-343.5" font-family="Helvetica,sans-Serif" font-size="10.00">librawspeed/io/FileWriter.cpp</text>
</a>
</g>
</g>
<!-- Node2 -->
<g id="node2" class="node">
<title>Node2</title>
<g id="a_node2"><a xlink:href="../../d2/d75/_file_writer_8h.html" target="_top" xlink:title=" ">
<polygon fill="none" stroke="black" points="83.5,-280.5 83.5,-299.5 166.5,-299.5 166.5,-280.5 83.5,-280.5"/>
<text text-anchor="middle" x="125" y="-287.5" font-family="Helvetica,sans-Serif" font-size="10.00">io/FileWriter.h</text>
</a>
</g>
</g>
<!-- Node1&#45;&gt;Node2 -->
<g id="edge1" class="edge">
<title>Node1&#45;&gt;Node2</title>
<path fill="none" stroke="midnightblue" d="M710.88,-338.65C573.61,-327.48 292.71,-304.64 176.79,-295.21"/>
<polygon fill="midnightblue" stroke="midnightblue" points="177.01,-291.72 166.76,-294.4 176.44,-298.7 177.01,-291.72"/>
</g>
<!-- Node4 -->
<g id="node4" class="node">
<title>Node4</title>
<g id="a_node4"><a xlink:href="../../d7/d1b/_buffer_8h.html" target="_top" xlink:title=" ">
<polygon fill="none" stroke="black" points="240,-224.5 240,-243.5 306,-243.5 306,-224.5 240,-224.5"/>
<text text-anchor="middle" x="273" y="-231.5" font-family="Helvetica,sans-Serif" font-size="10.00">io/Buffer.h</text>
</a>
</g>
</g>
<!-- Node1&#45;&gt;Node4 -->
<g id="edge3" class="edge">
<title>Node1&#45;&gt;Node4</title>
<path fill="none" stroke="midnightblue" d="M748.94,-336.46C653.69,-316.15 414.32,-265.13 316.09,-244.19"/>
<polygon fill="midnightblue" stroke="midnightblue" points="316.71,-240.74 306.2,-242.08 315.26,-247.59 316.71,-240.74"/>
</g>
<!-- Node23 -->
<g id="node23" class="node">
<title>Node23</title>
<g id="a_node23"><a xlink:title=" ">
<polygon fill="none" stroke="#bfbfbf" points="604,-56.5 604,-75.5 650,-75.5 650,-56.5 604,-56.5"/>
<text text-anchor="middle" x="627" y="-63.5" font-family="Helvetica,sans-Serif" font-size="10.00">cstdio</text>
</a>
</g>
</g>
<!-- Node1&#45;&gt;Node23 -->
<g id="edge44" class="edge">
<title>Node1&#45;&gt;Node23</title>
<path fill="none" stroke="midnightblue" d="M773.08,-336.32C745.88,-320.83 690.04,-286.09 655,-244 637.2,-222.61 633.39,-215.08 627,-188 618.66,-152.68 621.58,-109.94 624.35,-85.87"/>
<polygon fill="midnightblue" stroke="midnightblue" points="627.86,-86.03 625.66,-75.66 620.92,-85.14 627.86,-86.03"/>
</g>
<!-- Node27 -->
<g id="node27" class="node">
<title>Node27</title>
<g id="a_node27"><a xlink:href="../../db/dfb/_file_i_o_exception_8h.html" target="_top" xlink:title=" ">
<polygon fill="none" stroke="black" points="663.5,-224.5 663.5,-243.5 776.5,-243.5 776.5,-224.5 663.5,-224.5"/>
<text text-anchor="middle" x="720" y="-231.5" font-family="Helvetica,sans-Serif" font-size="10.00">io/FileIOException.h</text>
</a>
</g>
</g>
<!-- Node1&#45;&gt;Node27 -->
<g id="edge38" class="edge">
<title>Node1&#45;&gt;Node27</title>
<path fill="none" stroke="midnightblue" d="M783.59,-336.37C772.25,-318.3 745.83,-276.18 730.86,-252.31"/>
<polygon fill="midnightblue" stroke="midnightblue" points="733.67,-250.2 725.39,-243.59 727.74,-253.92 733.67,-250.2"/>
</g>
<!-- Node29 -->
<g id="node29" class="node">
<title>Node29</title>
<g id="a_node29"><a xlink:href="../../d7/d92/_file_i_o_8h.html" target="_top" xlink:title=" ">
<polygon fill="none" stroke="black" points="861,-280.5 861,-299.5 925,-299.5 925,-280.5 861,-280.5"/>
<text text-anchor="middle" x="893" y="-287.5" font-family="Helvetica,sans-Serif" font-size="10.00">io/FileIO.h</text>
</a>
</g>
</g>
<!-- Node1&#45;&gt;Node29 -->
<g id="edge45" class="edge">
<title>Node1&#45;&gt;Node29</title>
<path fill="none" stroke="midnightblue" d="M805.71,-336.32C822.31,-327.7 848,-314.36 867.22,-304.39"/>
<polygon fill="midnightblue" stroke="midnightblue" points="869.07,-307.37 876.33,-299.65 865.84,-301.16 869.07,-307.37"/>
</g>
<!-- Node30 -->
<g id="node30" class="node">
<title>Node30</title>
<g id="a_node30"><a xlink:title=" ">
<polygon fill="none" stroke="#bfbfbf" points="795,-224.5 795,-243.5 865,-243.5 865,-224.5 795,-224.5"/>
<text text-anchor="middle" x="830" y="-231.5" font-family="Helvetica,sans-Serif" font-size="10.00">Windows.h</text>
</a>
</g>
</g>
<!-- Node1&#45;&gt;Node30 -->
<g id="edge52" class="edge">
<title>Node1&#45;&gt;Node30</title>
<path fill="none" stroke="midnightblue" d="M792.22,-336.37C798.86,-318.54 814.24,-277.3 823.19,-253.27"/>
<polygon fill="midnightblue" stroke="midnightblue" points="826.58,-254.18 826.8,-243.59 820.03,-251.74 826.58,-254.18"/>
</g>
<!-- Node32 -->
<g id="node32" class="node">
<title>Node32</title>
<g id="a_node32"><a xlink:title=" ">
<polygon fill="none" stroke="#bfbfbf" points="1004.5,-224.5 1004.5,-243.5 1039.5,-243.5 1039.5,-224.5 1004.5,-224.5"/>
<text text-anchor="middle" x="1022" y="-231.5" font-family="Helvetica,sans-Serif" font-size="10.00">io.h</text>
</a>
</g>
</g>
<!-- Node1&#45;&gt;Node32 -->
<g id="edge53" class="edge">
<title>Node1&#45;&gt;Node32</title>
<path fill="none" stroke="midnightblue" d="M828.84,-336.46C858.78,-329.15 900.25,-317.08 934,-300 960.55,-286.56 987.57,-265.22 1004.53,-250.69"/>
<polygon fill="midnightblue" stroke="midnightblue" points="1007.2,-253 1012.43,-243.79 1002.6,-247.73 1007.2,-253"/>
</g>
<!-- Node33 -->
<g id="node33" class="node">
<title>Node33</title>
<g id="a_node33"><a xlink:title=" ">
<polygon fill="none" stroke="#bfbfbf" points="1058,-224.5 1058,-243.5 1108,-243.5 1108,-224.5 1058,-224.5"/>
<text text-anchor="middle" x="1083" y="-231.5" font-family="Helvetica,sans-Serif" font-size="10.00">tchar.h</text>
</a>
</g>
</g>
<!-- Node1&#45;&gt;Node33 -->
<g id="edge54" class="edge">
<title>Node1&#45;&gt;Node33</title>
<path fill="none" stroke="midnightblue" d="M834.29,-336.45C869.97,-328.97 920.61,-316.68 963,-300 998.85,-285.9 1037.57,-263.49 1061.05,-249.01"/>
<polygon fill="midnightblue" stroke="midnightblue" points="1063.21,-251.79 1069.84,-243.52 1059.51,-245.85 1063.21,-251.79"/>
</g>
<!-- Node3 -->
<g id="node3" class="node">
<title>Node3</title>
<g id="a_node3"><a xlink:title=" ">
<polygon fill="none" stroke="#bfbfbf" points="147,-0.5 147,-19.5 197,-19.5 197,-0.5 147,-0.5"/>
<text text-anchor="middle" x="172" y="-7.5" font-family="Helvetica,sans-Serif" font-size="10.00">cstdint</text>
</a>
</g>
</g>
<!-- Node2&#45;&gt;Node3 -->
<g id="edge2" class="edge">
<title>Node2&#45;&gt;Node3</title>
<path fill="none" stroke="midnightblue" d="M100.9,-280.41C64.58,-265.75 0,-232.19 0,-179 0,-179 0,-179 0,-121 0,-56.5 86.9,-28.12 137.16,-17.1"/>
<polygon fill="midnightblue" stroke="midnightblue" points="137.91,-20.52 146.99,-15.06 136.49,-13.66 137.91,-20.52"/>
</g>
<!-- Node4&#45;&gt;Node3 -->
<g id="edge35" class="edge">
<title>Node4&#45;&gt;Node3</title>
<path fill="none" stroke="midnightblue" d="M239.75,-231.04C185,-227.05 79.66,-215.86 57,-188 19.38,-141.74 40,-99.29 81,-56 96.2,-39.95 118.36,-28.82 137,-21.65"/>
<polygon fill="midnightblue" stroke="midnightblue" points="138.44,-24.85 146.65,-18.16 136.06,-18.27 138.44,-24.85"/>
</g>
<!-- Node5 -->
<g id="node5" class="node">
<title>Node5</title>
<g id="a_node5"><a xlink:href="../../d2/d4f/_address_sanitizer_8h.html" target="_top" xlink:title=" ">
<polygon fill="none" stroke="black" points="66.5,-112.5 66.5,-131.5 173.5,-131.5 173.5,-112.5 66.5,-112.5"/>
<text text-anchor="middle" x="120" y="-119.5" font-family="Helvetica,sans-Serif" font-size="10.00">AddressSanitizer.h</text>
</a>
</g>
</g>
<!-- Node4&#45;&gt;Node5 -->
<g id="edge4" class="edge">
<title>Node4&#45;&gt;Node5</title>
<path fill="none" stroke="midnightblue" d="M263.92,-224.47C249.92,-211.52 221.95,-186.44 196,-168 179.65,-156.38 160.16,-144.88 145.01,-136.42"/>
<polygon fill="midnightblue" stroke="midnightblue" points="146.65,-133.33 136.2,-131.56 143.27,-139.46 146.65,-133.33"/>
</g>
<!-- Node7 -->
<g id="node7" class="node">
<title>Node7</title>
<g id="a_node7"><a xlink:href="../../d9/df5/src_2librawspeed_2common_2_common_8h.html" target="_top" xlink:title=" ">
<polygon fill="none" stroke="black" points="350,-56.5 350,-75.5 466,-75.5 466,-56.5 350,-56.5"/>
<text text-anchor="middle" x="408" y="-63.5" font-family="Helvetica,sans-Serif" font-size="10.00">common/Common.h</text>
</a>
</g>
</g>
<!-- Node4&#45;&gt;Node7 -->
<g id="edge6" class="edge">
<title>Node4&#45;&gt;Node7</title>
<path fill="none" stroke="midnightblue" d="M306.23,-227.75C330.76,-222.12 363.04,-210.71 382,-188 406.46,-158.69 409.49,-111.76 409.06,-85.81"/>
<polygon fill="midnightblue" stroke="midnightblue" points="412.55,-85.65 408.69,-75.78 405.56,-85.9 412.55,-85.65"/>
</g>
<!-- Node9 -->
<g id="node9" class="node">
<title>Node9</title>
<g id="a_node9"><a xlink:title=" ">
<polygon fill="none" stroke="#bfbfbf" points="286,-0.5 286,-19.5 338,-19.5 338,-0.5 286,-0.5"/>
<text text-anchor="middle" x="312" y="-7.5" font-family="Helvetica,sans-Serif" font-size="10.00">cassert</text>
</a>
</g>
</g>
<!-- Node4&#45;&gt;Node9 -->
<g id="edge34" class="edge">
<title>Node4&#45;&gt;Node9</title>
<path fill="none" stroke="midnightblue" d="M282.64,-224.46C299.95,-208.41 335.71,-171.75 349,-132 355.48,-112.61 332.98,-57.45 320.21,-28.78"/>
<polygon fill="midnightblue" stroke="midnightblue" points="323.34,-27.2 316.02,-19.54 316.96,-30.09 323.34,-27.2"/>
</g>
<!-- Node16 -->
<g id="node16" class="node">
<title>Node16</title>
<g id="a_node16"><a xlink:href="../../d3/de6/_memory_8h.html" target="_top" xlink:title=" ">
<polygon fill="none" stroke="black" points="230,-112.5 230,-131.5 340,-131.5 340,-112.5 230,-112.5"/>
<text text-anchor="middle" x="285" y="-119.5" font-family="Helvetica,sans-Serif" font-size="10.00">common/Memory.h</text>
</a>
</g>
</g>
<!-- Node4&#45;&gt;Node16 -->
<g id="edge16" class="edge">
<title>Node4&#45;&gt;Node16</title>
<path fill="none" stroke="midnightblue" d="M273.94,-224.37C275.88,-206.62 280.35,-165.67 282.97,-141.6"/>
<polygon fill="midnightblue" stroke="midnightblue" points="286.46,-141.91 284.06,-131.59 279.5,-141.15 286.46,-141.91"/>
</g>
<!-- Node18 -->
<g id="node18" class="node">
<title>Node18</title>
<g id="a_node18"><a xlink:href="../../d5/d0b/_endianness_8h.html" target="_top" xlink:title=" ">
<polygon fill="none" stroke="black" points="200.5,-56.5 200.5,-75.5 293.5,-75.5 293.5,-56.5 200.5,-56.5"/>
<text text-anchor="middle" x="247" y="-63.5" font-family="Helvetica,sans-Serif" font-size="10.00">io/Endianness.h</text>
</a>
</g>
</g>
<!-- Node4&#45;&gt;Node18 -->
<g id="edge21" class="edge">
<title>Node4&#45;&gt;Node18</title>
<path fill="none" stroke="midnightblue" d="M266.73,-224.38C254.97,-207.61 229.96,-168.99 221,-132 218.91,-123.36 218.7,-120.59 221,-112 223.65,-102.1 229.07,-92.13 234.27,-84.1"/>
<polygon fill="midnightblue" stroke="midnightblue" points="237.29,-85.89 240.11,-75.68 231.54,-81.91 237.29,-85.89"/>
</g>
<!-- Node19 -->
<g id="node19" class="node">
<title>Node19</title>
<g id="a_node19"><a xlink:href="../../d0/dd8/_i_o_exception_8h.html" target="_top" xlink:title=" ">
<polygon fill="none" stroke="black" points="434,-168.5 434,-187.5 530,-187.5 530,-168.5 434,-168.5"/>
<text text-anchor="middle" x="482" y="-175.5" font-family="Helvetica,sans-Serif" font-size="10.00">io/IOException.h</text>
</a>
</g>
</g>
<!-- Node4&#45;&gt;Node19 -->
<g id="edge25" class="edge">
<title>Node4&#45;&gt;Node19</title>
<path fill="none" stroke="midnightblue" d="M306.12,-224.44C342.12,-215.14 399.77,-200.25 439.19,-190.06"/>
<polygon fill="midnightblue" stroke="midnightblue" points="440.23,-193.41 449.04,-187.52 438.48,-186.63 440.23,-193.41"/>
</g>
<!-- Node25 -->
<g id="node25" class="node">
<title>Node25</title>
<g id="a_node25"><a xlink:title=" ">
<polygon fill="none" stroke="#bfbfbf" points="66,-168.5 66,-187.5 124,-187.5 124,-168.5 66,-168.5"/>
<text text-anchor="middle" x="95" y="-175.5" font-family="Helvetica,sans-Serif" font-size="10.00">memory</text>
</a>
</g>
</g>
<!-- Node4&#45;&gt;Node25 -->
<g id="edge36" class="edge">
<title>Node4&#45;&gt;Node25</title>
<path fill="none" stroke="midnightblue" d="M244.8,-224.44C214.59,-215.28 166.49,-200.69 132.97,-190.52"/>
<polygon fill="midnightblue" stroke="midnightblue" points="133.66,-187.07 123.07,-187.52 131.63,-193.77 133.66,-187.07"/>
</g>
<!-- Node26 -->
<g id="node26" class="node">
<title>Node26</title>
<g id="a_node26"><a xlink:title=" ">
<polygon fill="none" stroke="#bfbfbf" points="142.5,-168.5 142.5,-187.5 187.5,-187.5 187.5,-168.5 142.5,-168.5"/>
<text text-anchor="middle" x="165" y="-175.5" font-family="Helvetica,sans-Serif" font-size="10.00">utility</text>
</a>
</g>
</g>
<!-- Node4&#45;&gt;Node26 -->
<g id="edge37" class="edge">
<title>Node4&#45;&gt;Node26</title>
<path fill="none" stroke="midnightblue" d="M255.65,-224.32C238.33,-215.66 211.48,-202.24 191.5,-192.25"/>
<polygon fill="midnightblue" stroke="midnightblue" points="192.82,-189 182.31,-187.65 189.69,-195.26 192.82,-189"/>
</g>
<!-- Node6 -->
<g id="node6" class="node">
<title>Node6</title>
<g id="a_node6"><a xlink:title=" ">
<polygon fill="none" stroke="#bfbfbf" points="90.5,-56.5 90.5,-75.5 143.5,-75.5 143.5,-56.5 90.5,-56.5"/>
<text text-anchor="middle" x="117" y="-63.5" font-family="Helvetica,sans-Serif" font-size="10.00">cstddef</text>
</a>
</g>
</g>
<!-- Node5&#45;&gt;Node6 -->
<g id="edge5" class="edge">
<title>Node5&#45;&gt;Node6</title>
<path fill="none" stroke="midnightblue" d="M119.5,-112.08C119.11,-105.01 118.55,-94.86 118.05,-85.99"/>
<polygon fill="midnightblue" stroke="midnightblue" points="121.54,-85.54 117.49,-75.75 114.55,-85.93 121.54,-85.54"/>
</g>
<!-- Node7&#45;&gt;Node3 -->
<g id="edge10" class="edge">
<title>Node7&#45;&gt;Node3</title>
<path fill="none" stroke="midnightblue" d="M369.44,-56.47C329.31,-47.56 264.69,-33.07 209,-20 208.28,-19.83 207.54,-19.66 206.81,-19.48"/>
<polygon fill="midnightblue" stroke="midnightblue" points="207.6,-16.08 197.06,-17.15 205.98,-22.88 207.6,-16.08"/>
</g>
<!-- Node8 -->
<g id="node8" class="node">
<title>Node8</title>
<g id="a_node8"><a xlink:title=" ">
<polygon fill="none" stroke="#bfbfbf" points="444,-0.5 444,-19.5 508,-19.5 508,-0.5 444,-0.5"/>
<text text-anchor="middle" x="476" y="-7.5" font-family="Helvetica,sans-Serif" font-size="10.00">algorithm</text>
</a>
</g>
</g>
<!-- Node7&#45;&gt;Node8 -->
<g id="edge7" class="edge">
<title>Node7&#45;&gt;Node8</title>
<path fill="none" stroke="midnightblue" d="M418.93,-56.32C429.17,-48.18 444.72,-35.84 457,-26.09"/>
<polygon fill="midnightblue" stroke="midnightblue" points="459.22,-28.79 464.88,-19.83 454.87,-23.31 459.22,-28.79"/>
</g>
<!-- Node7&#45;&gt;Node9 -->
<g id="edge8" class="edge">
<title>Node7&#45;&gt;Node9</title>
<path fill="none" stroke="midnightblue" d="M392.58,-56.32C377.46,-47.82 354.18,-34.73 336.53,-24.8"/>
<polygon fill="midnightblue" stroke="midnightblue" points="337.82,-21.51 327.39,-19.65 334.39,-27.61 337.82,-21.51"/>
</g>
<!-- Node10 -->
<g id="node10" class="node">
<title>Node10</title>
<g id="a_node10"><a xlink:title=" ">
<polygon fill="none" stroke="#bfbfbf" points="526,-0.5 526,-19.5 576,-19.5 576,-0.5 526,-0.5"/>
<text text-anchor="middle" x="551" y="-7.5" font-family="Helvetica,sans-Serif" font-size="10.00">climits</text>
</a>
</g>
</g>
<!-- Node7&#45;&gt;Node10 -->
<g id="edge9" class="edge">
<title>Node7&#45;&gt;Node10</title>
<path fill="none" stroke="midnightblue" d="M430.66,-56.44C454.4,-47.48 491.91,-33.31 518.74,-23.18"/>
<polygon fill="midnightblue" stroke="midnightblue" points="520.33,-26.32 528.45,-19.52 517.86,-19.77 520.33,-26.32"/>
</g>
<!-- Node11 -->
<g id="node11" class="node">
<title>Node11</title>
<g id="a_node11"><a xlink:title=" ">
<polygon fill="none" stroke="#bfbfbf" points="218,-0.5 218,-19.5 268,-19.5 268,-0.5 218,-0.5"/>
<text text-anchor="middle" x="243" y="-7.5" font-family="Helvetica,sans-Serif" font-size="10.00">cstring</text>
</a>
</g>
</g>
<!-- Node7&#45;&gt;Node11 -->
<g id="edge11" class="edge">
<title>Node7&#45;&gt;Node11</title>
<path fill="none" stroke="midnightblue" d="M381.86,-56.44C353.73,-47.24 308.87,-32.56 277.78,-22.38"/>
<polygon fill="midnightblue" stroke="midnightblue" points="278.8,-19.03 268.21,-19.25 276.63,-25.69 278.8,-19.03"/>
</g>
<!-- Node12 -->
<g id="node12" class="node">
<title>Node12</title>
<g id="a_node12"><a xlink:title=" ">
<polygon fill="none" stroke="#bfbfbf" points="594.5,-0.5 594.5,-19.5 677.5,-19.5 677.5,-0.5 594.5,-0.5"/>
<text text-anchor="middle" x="636" y="-7.5" font-family="Helvetica,sans-Serif" font-size="10.00">initializer_list</text>
</a>
</g>
</g>
<!-- Node7&#45;&gt;Node12 -->
<g id="edge12" class="edge">
<title>Node7&#45;&gt;Node12</title>
<path fill="none" stroke="midnightblue" d="M444.13,-56.44C483.65,-47.08 547.1,-32.06 590.11,-21.87"/>
<polygon fill="midnightblue" stroke="midnightblue" points="591.12,-25.23 600.04,-19.52 589.5,-18.42 591.12,-25.23"/>
</g>
<!-- Node13 -->
<g id="node13" class="node">
<title>Node13</title>
<g id="a_node13"><a xlink:title=" ">
<polygon fill="none" stroke="#bfbfbf" points="696,-0.5 696,-19.5 740,-19.5 740,-0.5 696,-0.5"/>
<text text-anchor="middle" x="718" y="-7.5" font-family="Helvetica,sans-Serif" font-size="10.00">string</text>
</a>
</g>
</g>
<!-- Node7&#45;&gt;Node13 -->
<g id="edge13" class="edge">
<title>Node7&#45;&gt;Node13</title>
<path fill="none" stroke="midnightblue" d="M466.01,-56.5C530.7,-46.88 632.3,-31.32 685.72,-20.02"/>
<polygon fill="midnightblue" stroke="midnightblue" points="686.72,-23.38 695.73,-17.82 685.22,-16.55 686.72,-23.38"/>
</g>
<!-- Node14 -->
<g id="node14" class="node">
<title>Node14</title>
<g id="a_node14"><a xlink:title=" ">
<polygon fill="none" stroke="#bfbfbf" points="356.5,-0.5 356.5,-19.5 425.5,-19.5 425.5,-0.5 356.5,-0.5"/>
<text text-anchor="middle" x="391" y="-7.5" font-family="Helvetica,sans-Serif" font-size="10.00">type_traits</text>
</a>
</g>
</g>
<!-- Node7&#45;&gt;Node14 -->
<g id="edge14" class="edge">
<title>Node7&#45;&gt;Node14</title>
<path fill="none" stroke="midnightblue" d="M405.19,-56.08C402.92,-48.85 399.63,-38.41 396.79,-29.4"/>
<polygon fill="midnightblue" stroke="midnightblue" points="400.1,-28.24 393.75,-19.75 393.42,-30.34 400.1,-28.24"/>
</g>
<!-- Node15 -->
<g id="node15" class="node">
<title>Node15</title>
<g id="a_node15"><a xlink:title=" ">
<polygon fill="none" stroke="#bfbfbf" points="813.5,-0.5 813.5,-19.5 860.5,-19.5 860.5,-0.5 813.5,-0.5"/>
<text text-anchor="middle" x="837" y="-7.5" font-family="Helvetica,sans-Serif" font-size="10.00">vector</text>
</a>
</g>
</g>
<!-- Node7&#45;&gt;Node15 -->
<g id="edge15" class="edge">
<title>Node7&#45;&gt;Node15</title>
<path fill="none" stroke="midnightblue" d="M466.1,-57.16C469.11,-56.76 472.09,-56.38 475,-56 595.78,-40.38 739.36,-22.84 803.34,-15.07"/>
<polygon fill="midnightblue" stroke="midnightblue" points="803.77,-18.55 813.27,-13.87 802.92,-11.6 803.77,-18.55"/>
</g>
<!-- Node16&#45;&gt;Node3 -->
<g id="edge20" class="edge">
<title>Node16&#45;&gt;Node3</title>
<path fill="none" stroke="midnightblue" d="M251.09,-112.36C230.97,-105.59 206.47,-94.2 191,-76 179.95,-62.99 175.32,-43.83 173.38,-29.68"/>
<polygon fill="midnightblue" stroke="midnightblue" points="176.85,-29.21 172.34,-19.62 169.89,-29.93 176.85,-29.21"/>
</g>
<!-- Node16&#45;&gt;Node6 -->
<g id="edge19" class="edge">
<title>Node16&#45;&gt;Node6</title>
<path fill="none" stroke="midnightblue" d="M258.38,-112.44C229.99,-103.32 184.86,-88.81 153.25,-78.65"/>
<polygon fill="midnightblue" stroke="midnightblue" points="154.09,-75.24 143.5,-75.52 151.94,-81.91 154.09,-75.24"/>
</g>
<!-- Node16&#45;&gt;Node7 -->
<g id="edge18" class="edge">
<title>Node16&#45;&gt;Node7</title>
<path fill="none" stroke="midnightblue" d="M304.49,-112.44C324.64,-103.6 356.32,-89.69 379.33,-79.59"/>
<polygon fill="midnightblue" stroke="midnightblue" points="380.85,-82.74 388.6,-75.52 378.04,-76.33 380.85,-82.74"/>
</g>
<!-- Node17 -->
<g id="node17" class="node">
<title>Node17</title>
<g id="a_node17"><a xlink:title=" ">
<polygon fill="none" stroke="#bfbfbf" points="484,-56.5 484,-75.5 586,-75.5 586,-56.5 484,-56.5"/>
<text text-anchor="middle" x="535" y="-63.5" font-family="Helvetica,sans-Serif" font-size="10.00">rawspeedconfig.h</text>
</a>
</g>
</g>
<!-- Node16&#45;&gt;Node17 -->
<g id="edge17" class="edge">
<title>Node16&#45;&gt;Node17</title>
<path fill="none" stroke="midnightblue" d="M324.61,-112.44C368.23,-103.02 438.4,-87.87 485.58,-77.68"/>
<polygon fill="midnightblue" stroke="midnightblue" points="486.54,-81.05 495.57,-75.52 485.06,-74.21 486.54,-81.05"/>
</g>
<!-- Node18&#45;&gt;Node3 -->
<g id="edge23" class="edge">
<title>Node18&#45;&gt;Node3</title>
<path fill="none" stroke="midnightblue" d="M234.95,-56.32C223.54,-48.11 206.17,-35.6 192.57,-25.81"/>
<polygon fill="midnightblue" stroke="midnightblue" points="194.43,-22.84 184.27,-19.83 190.34,-28.52 194.43,-22.84"/>
</g>
<!-- Node18&#45;&gt;Node9 -->
<g id="edge22" class="edge">
<title>Node18&#45;&gt;Node9</title>
<path fill="none" stroke="midnightblue" d="M257.44,-56.32C267.15,-48.26 281.82,-36.08 293.5,-26.37"/>
<polygon fill="midnightblue" stroke="midnightblue" points="295.91,-28.92 301.37,-19.83 291.44,-23.53 295.91,-28.92"/>
</g>
<!-- Node18&#45;&gt;Node11 -->
<g id="edge24" class="edge">
<title>Node18&#45;&gt;Node11</title>
<path fill="none" stroke="midnightblue" d="M246.34,-56.08C245.82,-49.01 245.06,-38.86 244.41,-29.99"/>
<polygon fill="midnightblue" stroke="midnightblue" points="247.88,-29.47 243.65,-19.75 240.9,-29.98 247.88,-29.47"/>
</g>
<!-- Node19&#45;&gt;Node17 -->
<g id="edge26" class="edge">
<title>Node19&#45;&gt;Node17</title>
<path fill="none" stroke="midnightblue" d="M486.16,-168.37C494.83,-150.38 514.98,-108.55 526.51,-84.63"/>
<polygon fill="midnightblue" stroke="midnightblue" points="529.67,-86.12 530.86,-75.59 523.37,-83.08 529.67,-86.12"/>
</g>
<!-- Node20 -->
<g id="node20" class="node">
<title>Node20</title>
<g id="a_node20"><a xlink:href="../../d7/d05/_rawspeed_exception_8h.html" target="_top" xlink:title=" ">
<polygon fill="none" stroke="black" points="639,-112.5 639,-131.5 809,-131.5 809,-112.5 639,-112.5"/>
<text text-anchor="middle" x="724" y="-119.5" font-family="Helvetica,sans-Serif" font-size="10.00">common/RawspeedException.h</text>
</a>
</g>
</g>
<!-- Node19&#45;&gt;Node20 -->
<g id="edge27" class="edge">
<title>Node19&#45;&gt;Node20</title>
<path fill="none" stroke="midnightblue" d="M520.35,-168.44C562.47,-159.04 630.21,-143.93 675.87,-133.74"/>
<polygon fill="midnightblue" stroke="midnightblue" points="676.84,-137.11 685.83,-131.52 675.31,-130.28 676.84,-137.11"/>
</g>
<!-- Node20&#45;&gt;Node7 -->
<g id="edge29" class="edge">
<title>Node20&#45;&gt;Node7</title>
<path fill="none" stroke="midnightblue" d="M673.93,-112.44C617.99,-102.89 527.49,-87.42 467.86,-77.23"/>
<polygon fill="midnightblue" stroke="midnightblue" points="468.28,-73.75 457.84,-75.52 467.1,-80.65 468.28,-73.75"/>
</g>
<!-- Node20&#45;&gt;Node17 -->
<g id="edge28" class="edge">
<title>Node20&#45;&gt;Node17</title>
<path fill="none" stroke="midnightblue" d="M694.05,-112.44C661.84,-103.24 610.47,-88.56 574.86,-78.39"/>
<polygon fill="midnightblue" stroke="midnightblue" points="575.38,-74.9 564.81,-75.52 573.46,-81.63 575.38,-74.9"/>
</g>
<!-- Node21 -->
<g id="node21" class="node">
<title>Node21</title>
<g id="a_node21"><a xlink:title=" ">
<polygon fill="none" stroke="#bfbfbf" points="668,-56.5 668,-75.5 710,-75.5 710,-56.5 668,-56.5"/>
<text text-anchor="middle" x="689" y="-63.5" font-family="Helvetica,sans-Serif" font-size="10.00">array</text>
</a>
</g>
</g>
<!-- Node20&#45;&gt;Node21 -->
<g id="edge30" class="edge">
<title>Node20&#45;&gt;Node21</title>
<path fill="none" stroke="midnightblue" d="M718.22,-112.08C713.33,-104.53 706.17,-93.49 700.17,-84.23"/>
<polygon fill="midnightblue" stroke="midnightblue" points="703.05,-82.24 694.67,-75.75 697.17,-86.05 703.05,-82.24"/>
</g>
<!-- Node22 -->
<g id="node22" class="node">
<title>Node22</title>
<g id="a_node22"><a xlink:title=" ">
<polygon fill="none" stroke="#bfbfbf" points="728.5,-56.5 728.5,-75.5 781.5,-75.5 781.5,-56.5 728.5,-56.5"/>
<text text-anchor="middle" x="755" y="-63.5" font-family="Helvetica,sans-Serif" font-size="10.00">cstdarg</text>
</a>
</g>
</g>
<!-- Node20&#45;&gt;Node22 -->
<g id="edge31" class="edge">
<title>Node20&#45;&gt;Node22</title>
<path fill="none" stroke="midnightblue" d="M729.12,-112.08C733.41,-104.61 739.66,-93.72 744.94,-84.52"/>
<polygon fill="midnightblue" stroke="midnightblue" points="748.03,-86.17 749.98,-75.75 741.96,-82.68 748.03,-86.17"/>
</g>
<!-- Node20&#45;&gt;Node23 -->
<g id="edge32" class="edge">
<title>Node20&#45;&gt;Node23</title>
<path fill="none" stroke="midnightblue" d="M708.42,-112.32C693,-103.74 669.19,-90.49 651.29,-80.52"/>
<polygon fill="midnightblue" stroke="midnightblue" points="652.99,-77.46 642.55,-75.65 649.58,-83.58 652.99,-77.46"/>
</g>
<!-- Node24 -->
<g id="node24" class="node">
<title>Node24</title>
<g id="a_node24"><a xlink:title=" ">
<polygon fill="none" stroke="#bfbfbf" points="799.5,-56.5 799.5,-75.5 864.5,-75.5 864.5,-56.5 799.5,-56.5"/>
<text text-anchor="middle" x="832" y="-63.5" font-family="Helvetica,sans-Serif" font-size="10.00">stdexcept</text>
</a>
</g>
</g>
<!-- Node20&#45;&gt;Node24 -->
<g id="edge33" class="edge">
<title>Node20&#45;&gt;Node24</title>
<path fill="none" stroke="midnightblue" d="M741.35,-112.32C758.67,-103.66 785.52,-90.24 805.5,-80.25"/>
<polygon fill="midnightblue" stroke="midnightblue" points="807.31,-83.26 814.69,-75.65 804.18,-77 807.31,-83.26"/>
</g>
<!-- Node27&#45;&gt;Node17 -->
<g id="edge39" class="edge">
<title>Node27&#45;&gt;Node17</title>
<path fill="none" stroke="midnightblue" d="M694.47,-224.4C674.67,-216.89 647.27,-204.58 627,-188 590.22,-157.91 559.66,-110.27 544.77,-84.67"/>
<polygon fill="midnightblue" stroke="midnightblue" points="547.67,-82.7 539.69,-75.73 541.59,-86.15 547.67,-82.7"/>
</g>
<!-- Node27&#45;&gt;Node20 -->
<g id="edge40" class="edge">
<title>Node27&#45;&gt;Node20</title>
<path fill="none" stroke="midnightblue" d="M770.51,-224.49C791.68,-218.15 814.29,-207.14 827,-188 844.09,-162.27 808.14,-144.74 774.11,-134.43"/>
<polygon fill="midnightblue" stroke="midnightblue" points="774.72,-130.96 764.15,-131.59 772.8,-137.7 774.72,-130.96"/>
</g>
<!-- Node28 -->
<g id="node28" class="node">
<title>Node28</title>
<g id="a_node28"><a xlink:href="../../d0/daf/_raw_decoder_exception_8h.html" target="_top" xlink:title=" ">
<polygon fill="none" stroke="black" points="636,-168.5 636,-187.5 818,-187.5 818,-168.5 636,-168.5"/>
<text text-anchor="middle" x="727" y="-175.5" font-family="Helvetica,sans-Serif" font-size="10.00">decoders/RawDecoderException.h</text>
</a>
</g>
</g>
<!-- Node27&#45;&gt;Node28 -->
<g id="edge41" class="edge">
<title>Node27&#45;&gt;Node28</title>
<path fill="none" stroke="midnightblue" d="M721.16,-224.08C722.08,-216.93 723.42,-206.64 724.58,-197.69"/>
<polygon fill="midnightblue" stroke="midnightblue" points="728.05,-198.12 725.87,-187.75 721.11,-197.22 728.05,-198.12"/>
</g>
<!-- Node28&#45;&gt;Node17 -->
<g id="edge42" class="edge">
<title>Node28&#45;&gt;Node17</title>
<path fill="none" stroke="midnightblue" d="M706.07,-168.48C686.08,-160.07 655.33,-146.41 630,-132 602.71,-116.47 573.13,-95.52 554.36,-81.65"/>
<polygon fill="midnightblue" stroke="midnightblue" points="556.41,-78.82 546.3,-75.65 552.22,-84.43 556.41,-78.82"/>
</g>
<!-- Node28&#45;&gt;Node20 -->
<g id="edge43" class="edge">
<title>Node28&#45;&gt;Node20</title>
<path fill="none" stroke="midnightblue" d="M726.5,-168.08C726.11,-161.01 725.55,-150.86 725.05,-141.99"/>
<polygon fill="midnightblue" stroke="midnightblue" points="728.54,-141.54 724.49,-131.75 721.55,-141.93 728.54,-141.54"/>
</g>
<!-- Node29&#45;&gt;Node15 -->
<g id="edge51" class="edge">
<title>Node29&#45;&gt;Node15</title>
<path fill="none" stroke="midnightblue" d="M893,-280.44C893,-261.94 893,-216.81 893,-179 893,-179 893,-179 893,-121 893,-90.9 888.07,-82.61 874,-56 868.4,-45.4 860.06,-34.98 852.71,-26.83"/>
<polygon fill="midnightblue" stroke="midnightblue" points="855.23,-24.41 845.83,-19.52 850.14,-29.2 855.23,-24.41"/>
</g>
<!-- Node29&#45;&gt;Node27 -->
<g id="edge46" class="edge">
<title>Node29&#45;&gt;Node27</title>
<path fill="none" stroke="midnightblue" d="M865.59,-280.44C836.23,-271.28 789.48,-256.69 756.9,-246.52"/>
<polygon fill="midnightblue" stroke="midnightblue" points="757.87,-243.16 747.28,-243.52 755.79,-249.84 757.87,-243.16"/>
</g>
<!-- Node29&#45;&gt;Node30 -->
<g id="edge47" class="edge">
<title>Node29&#45;&gt;Node30</title>
<path fill="none" stroke="midnightblue" d="M882.88,-280.32C873.47,-272.26 859.26,-260.08 847.93,-250.37"/>
<polygon fill="midnightblue" stroke="midnightblue" points="850.18,-247.68 840.31,-243.83 845.62,-253 850.18,-247.68"/>
</g>
<!-- Node31 -->
<g id="node31" class="node">
<title>Node31</title>
<g id="a_node31"><a xlink:title=" ">
<polygon fill="none" stroke="#bfbfbf" points="921.5,-224.5 921.5,-243.5 986.5,-243.5 986.5,-224.5 921.5,-224.5"/>
<text text-anchor="middle" x="954" y="-231.5" font-family="Helvetica,sans-Serif" font-size="10.00">functional</text>
</a>
</g>
</g>
<!-- Node29&#45;&gt;Node31 -->
<g id="edge48" class="edge">
<title>Node29&#45;&gt;Node31</title>
<path fill="none" stroke="midnightblue" d="M902.8,-280.32C911.82,-272.34 925.41,-260.31 936.32,-250.65"/>
<polygon fill="midnightblue" stroke="midnightblue" points="938.85,-253.08 944.02,-243.83 934.21,-247.84 938.85,-253.08"/>
</g>
<!-- Node29&#45;&gt;Node32 -->
<g id="edge49" class="edge">
<title>Node29&#45;&gt;Node32</title>
<path fill="none" stroke="midnightblue" d="M913.44,-280.44C935.42,-271.24 970.47,-256.57 994.78,-246.4"/>
<polygon fill="midnightblue" stroke="midnightblue" points="996.27,-249.56 1004.15,-242.47 993.57,-243.11 996.27,-249.56"/>
</g>
<!-- Node29&#45;&gt;Node33 -->
<g id="edge50" class="edge">
<title>Node29&#45;&gt;Node33</title>
<path fill="none" stroke="midnightblue" d="M923.11,-280.44C957.01,-270.81 1012.04,-255.17 1047.88,-244.98"/>
<polygon fill="midnightblue" stroke="midnightblue" points="1049.23,-248.24 1057.89,-242.14 1047.31,-241.5 1049.23,-248.24"/>
</g>
</g>
</svg>
