<?xml version="1.0" encoding="UTF-8" standalone="no"?>
<!DOCTYPE svg PUBLIC "-//W3C//DTD SVG 1.1//EN"
 "http://www.w3.org/Graphics/SVG/1.1/DTD/svg11.dtd">
<!-- Generated by graphviz version 2.43.0 (0)
 -->
<!-- Title: rawspeed::CameraSensorInfo Pages: 1 -->
<svg width="259pt" height="253pt"
 viewBox="0.00 0.00 259.00 253.00" xmlns="http://www.w3.org/2000/svg" xmlns:xlink="http://www.w3.org/1999/xlink">
<g id="graph0" class="graph" transform="scale(1 1) rotate(0) translate(4 249)">
<title>rawspeed::CameraSensorInfo</title>
<!-- Node1 -->
<g id="node1" class="node">
<title>Node1</title>
<g id="a_node1"><a xlink:title=" ">
<polygon fill="#bfbfbf" stroke="black" points="0,-0.5 0,-19.5 160,-19.5 160,-0.5 0,-0.5"/>
<text text-anchor="middle" x="80" y="-7.5" font-family="Helvetica,sans-Serif" font-size="10.00">rawspeed::CameraSensorInfo</text>
</a>
</g>
</g>
<!-- Node2 -->
<g id="node2" class="node">
<title>Node2</title>
<g id="a_node2"><a xlink:title=" ">
<polygon fill="none" stroke="#bfbfbf" points="76.5,-158.5 76.5,-177.5 105.5,-177.5 105.5,-158.5 76.5,-158.5"/>
<text text-anchor="middle" x="91" y="-165.5" font-family="Helvetica,sans-Serif" font-size="10.00">int</text>
</a>
</g>
</g>
<!-- Node2&#45;&gt;Node1 -->
<g id="edge1" class="edge">
<title>Node2&#45;&gt;Node1</title>
<path fill="none" stroke="#9a32cd" stroke-dasharray="5,2" d="M83.61,-148.94C79.59,-138.13 75.04,-124.01 73,-111 67.74,-77.47 74.56,-37 78.1,-19.62"/>
<polygon fill="#9a32cd" stroke="#9a32cd" points="80.44,-150.43 87.34,-158.47 86.96,-147.89 80.44,-150.43"/>
<text text-anchor="middle" x="105.5" y="-103" font-family="Helvetica,sans-Serif" font-size="10.00"> mMaxIso</text>
<text text-anchor="middle" x="105.5" y="-92" font-family="Helvetica,sans-Serif" font-size="10.00">mBlackLevel</text>
<text text-anchor="middle" x="105.5" y="-81" font-family="Helvetica,sans-Serif" font-size="10.00">mMinIso</text>
<text text-anchor="middle" x="105.5" y="-70" font-family="Helvetica,sans-Serif" font-size="10.00">mWhiteLevel</text>
</g>
<!-- Node3 -->
<g id="node3" class="node">
<title>Node3</title>
<g id="a_node3"><a xlink:title=" ">
<polygon fill="none" stroke="#bfbfbf" points="147,-79.5 147,-98.5 251,-98.5 251,-79.5 147,-79.5"/>
<text text-anchor="middle" x="199" y="-86.5" font-family="Helvetica,sans-Serif" font-size="10.00">std::vector&lt; int &gt;</text>
</a>
</g>
</g>
<!-- Node2&#45;&gt;Node3 -->
<g id="edge3" class="edge">
<title>Node2&#45;&gt;Node3</title>
<path fill="none" stroke="#9a32cd" stroke-dasharray="5,2" d="M111.39,-152.46C133.69,-136.56 168.7,-111.6 186.98,-98.57"/>
<polygon fill="#9a32cd" stroke="#9a32cd" points="109.08,-149.81 102.97,-158.47 113.14,-155.51 109.08,-149.81"/>
<text text-anchor="middle" x="165.5" y="-132" font-family="Helvetica,sans-Serif" font-size="10.00"> elements</text>
</g>
<!-- Node3&#45;&gt;Node1 -->
<g id="edge2" class="edge">
<title>Node3&#45;&gt;Node1</title>
<path fill="none" stroke="#9a32cd" stroke-dasharray="5,2" d="M177.19,-73.89C152.65,-58.01 113.57,-32.72 93.25,-19.57"/>
<polygon fill="#9a32cd" stroke="#9a32cd" points="175.51,-76.97 185.81,-79.47 179.32,-71.09 175.51,-76.97"/>
<text text-anchor="middle" x="190" y="-41" font-family="Helvetica,sans-Serif" font-size="10.00"> mBlackLevelSeparate</text>
</g>
<!-- Node4 -->
<g id="node4" class="node">
<title>Node4</title>
<g id="a_node4"><a xlink:title="STL class.">
<polygon fill="none" stroke="#bfbfbf" points="150.5,-158.5 150.5,-177.5 247.5,-177.5 247.5,-158.5 150.5,-158.5"/>
<text text-anchor="middle" x="199" y="-165.5" font-family="Helvetica,sans-Serif" font-size="10.00">std::vector&lt; T &gt;</text>
</a>
</g>
</g>
<!-- Node4&#45;&gt;Node3 -->
<g id="edge4" class="edge">
<title>Node4&#45;&gt;Node3</title>
<path fill="none" stroke="orange" stroke-dasharray="5,2" d="M199,-148.31C199,-132.59 199,-110.81 199,-98.81"/>
<polygon fill="orange" stroke="orange" points="195.5,-148.47 199,-158.47 202.5,-148.47 195.5,-148.47"/>
<text text-anchor="middle" x="218.5" y="-132" font-family="Helvetica,sans-Serif" font-size="10.00"> &lt; int &gt;</text>
</g>
<!-- Node5 -->
<g id="node5" class="node">
<title>Node5</title>
<g id="a_node5"><a xlink:title=" ">
<polygon fill="none" stroke="#bfbfbf" points="184.5,-225.5 184.5,-244.5 213.5,-244.5 213.5,-225.5 184.5,-225.5"/>
<text text-anchor="middle" x="199" y="-232.5" font-family="Helvetica,sans-Serif" font-size="10.00">T</text>
</a>
</g>
</g>
<!-- Node5&#45;&gt;Node4 -->
<g id="edge5" class="edge">
<title>Node5&#45;&gt;Node4</title>
<path fill="none" stroke="#9a32cd" stroke-dasharray="5,2" d="M199,-215.04C199,-202.67 199,-187.12 199,-177.63"/>
<polygon fill="#9a32cd" stroke="#9a32cd" points="195.5,-215.23 199,-225.23 202.5,-215.23 195.5,-215.23"/>
<text text-anchor="middle" x="223.5" y="-199" font-family="Helvetica,sans-Serif" font-size="10.00"> elements</text>
</g>
</g>
</svg>
