<?xml version="1.0" encoding="UTF-8" standalone="no"?>
<!DOCTYPE svg PUBLIC "-//W3C//DTD SVG 1.1//EN"
 "http://www.w3.org/Graphics/SVG/1.1/DTD/svg11.dtd">
<!-- Generated by graphviz version 2.43.0 (0)
 -->
<!-- Title: librawspeed/metadata/CameraSensorInfo.cpp Pages: 1 -->
<svg width="276pt" height="151pt"
 viewBox="0.00 0.00 275.50 151.00" xmlns="http://www.w3.org/2000/svg" xmlns:xlink="http://www.w3.org/1999/xlink">
<g id="graph0" class="graph" transform="scale(1 1) rotate(0) translate(4 147)">
<title>librawspeed/metadata/CameraSensorInfo.cpp</title>
<!-- Node1 -->
<g id="node1" class="node">
<title>Node1</title>
<g id="a_node1"><a xlink:title=" ">
<polygon fill="#bfbfbf" stroke="black" points="129,-112.5 129,-142.5 259,-142.5 259,-112.5 129,-112.5"/>
<text text-anchor="start" x="137" y="-130.5" font-family="Helvetica,sans-Serif" font-size="10.00">librawspeed/metadata</text>
<text text-anchor="middle" x="194" y="-119.5" font-family="Helvetica,sans-Serif" font-size="10.00">/CameraSensorInfo.cpp</text>
</a>
</g>
</g>
<!-- Node2 -->
<g id="node2" class="node">
<title>Node2</title>
<g id="a_node2"><a xlink:href="../../d3/d36/_camera_sensor_info_8h.html" target="_top" xlink:title=" ">
<polygon fill="none" stroke="black" points="0,-56.5 0,-75.5 166,-75.5 166,-56.5 0,-56.5"/>
<text text-anchor="middle" x="83" y="-63.5" font-family="Helvetica,sans-Serif" font-size="10.00">metadata/CameraSensorInfo.h</text>
</a>
</g>
</g>
<!-- Node1&#45;&gt;Node2 -->
<g id="edge1" class="edge">
<title>Node1&#45;&gt;Node2</title>
<path fill="none" stroke="midnightblue" d="M167.69,-112.4C149.74,-102.77 126.08,-90.09 108.33,-80.58"/>
<polygon fill="midnightblue" stroke="midnightblue" points="109.62,-77.3 99.15,-75.66 106.31,-83.47 109.62,-77.3"/>
</g>
<!-- Node3 -->
<g id="node3" class="node">
<title>Node3</title>
<g id="a_node3"><a xlink:title=" ">
<polygon fill="none" stroke="#bfbfbf" points="114.5,-0.5 114.5,-19.5 161.5,-19.5 161.5,-0.5 114.5,-0.5"/>
<text text-anchor="middle" x="138" y="-7.5" font-family="Helvetica,sans-Serif" font-size="10.00">vector</text>
</a>
</g>
</g>
<!-- Node1&#45;&gt;Node3 -->
<g id="edge4" class="edge">
<title>Node1&#45;&gt;Node3</title>
<path fill="none" stroke="midnightblue" d="M192,-112.35C189.51,-97.64 184.4,-74.26 175,-56 169.58,-45.48 161.39,-35.18 154.09,-27.09"/>
<polygon fill="midnightblue" stroke="midnightblue" points="156.63,-24.68 147.22,-19.81 151.54,-29.49 156.63,-24.68"/>
</g>
<!-- Node4 -->
<g id="node4" class="node">
<title>Node4</title>
<g id="a_node4"><a xlink:title=" ">
<polygon fill="none" stroke="#bfbfbf" points="222.5,-56.5 222.5,-75.5 267.5,-75.5 267.5,-56.5 222.5,-56.5"/>
<text text-anchor="middle" x="245" y="-63.5" font-family="Helvetica,sans-Serif" font-size="10.00">utility</text>
</a>
</g>
</g>
<!-- Node1&#45;&gt;Node4 -->
<g id="edge3" class="edge">
<title>Node1&#45;&gt;Node4</title>
<path fill="none" stroke="midnightblue" d="M206.09,-112.4C213.57,-103.66 223.22,-92.41 231.03,-83.3"/>
<polygon fill="midnightblue" stroke="midnightblue" points="233.73,-85.53 237.58,-75.66 228.41,-80.97 233.73,-85.53"/>
</g>
<!-- Node2&#45;&gt;Node3 -->
<g id="edge2" class="edge">
<title>Node2&#45;&gt;Node3</title>
<path fill="none" stroke="midnightblue" d="M92.08,-56.08C100.17,-48.14 112.2,-36.34 121.91,-26.8"/>
<polygon fill="midnightblue" stroke="midnightblue" points="124.4,-29.25 129.09,-19.75 119.5,-24.26 124.4,-29.25"/>
</g>
</g>
</svg>
