<?xml version="1.0" encoding="UTF-8" standalone="no"?>
<!DOCTYPE svg PUBLIC "-//W3C//DTD SVG 1.1//EN"
 "http://www.w3.org/Graphics/SVG/1.1/DTD/svg11.dtd">
<!-- Generated by graphviz version 2.43.0 (0)
 -->
<!-- Title: rawspeed::DngOpcodes::DeltaRowOrColBase Pages: 1 -->
<svg width="292pt" height="452pt"
 viewBox="0.00 0.00 291.50 452.00" xmlns="http://www.w3.org/2000/svg" xmlns:xlink="http://www.w3.org/1999/xlink">
<g id="graph0" class="graph" transform="scale(1 1) rotate(0) translate(4 448)">
<title>rawspeed::DngOpcodes::DeltaRowOrColBase</title>
<!-- Node1 -->
<g id="node1" class="node">
<title>Node1</title>
<g id="a_node1"><a xlink:title=" ">
<polygon fill="#bfbfbf" stroke="black" points="72,-0.5 72,-30.5 203,-30.5 203,-0.5 72,-0.5"/>
<text text-anchor="start" x="80" y="-18.5" font-family="Helvetica,sans-Serif" font-size="10.00">rawspeed::DngOpcodes</text>
<text text-anchor="middle" x="137.5" y="-7.5" font-family="Helvetica,sans-Serif" font-size="10.00">::DeltaRowOrColBase</text>
</a>
</g>
</g>
<!-- Node2 -->
<g id="node2" class="node">
<title>Node2</title>
<g id="a_node2"><a xlink:href="../../d5/dcb/classrawspeed_1_1_dng_opcodes_1_1_pixel_opcode.html" target="_top" xlink:title=" ">
<polygon fill="none" stroke="black" points="72,-68.5 72,-98.5 203,-98.5 203,-68.5 72,-68.5"/>
<text text-anchor="start" x="80" y="-86.5" font-family="Helvetica,sans-Serif" font-size="10.00">rawspeed::DngOpcodes</text>
<text text-anchor="middle" x="137.5" y="-75.5" font-family="Helvetica,sans-Serif" font-size="10.00">::PixelOpcode</text>
</a>
</g>
</g>
<!-- Node2&#45;&gt;Node1 -->
<g id="edge1" class="edge">
<title>Node2&#45;&gt;Node1</title>
<path fill="none" stroke="midnightblue" d="M137.5,-58.03C137.5,-48.86 137.5,-38.74 137.5,-30.79"/>
<polygon fill="midnightblue" stroke="midnightblue" points="134,-58.18 137.5,-68.18 141,-58.18 134,-58.18"/>
</g>
<!-- Node3 -->
<g id="node3" class="node">
<title>Node3</title>
<g id="a_node3"><a xlink:href="../../df/dc9/classrawspeed_1_1_dng_opcodes_1_1_r_o_i_opcode.html" target="_top" xlink:title=" ">
<polygon fill="none" stroke="black" points="16,-179.5 16,-209.5 147,-209.5 147,-179.5 16,-179.5"/>
<text text-anchor="start" x="24" y="-197.5" font-family="Helvetica,sans-Serif" font-size="10.00">rawspeed::DngOpcodes</text>
<text text-anchor="middle" x="81.5" y="-186.5" font-family="Helvetica,sans-Serif" font-size="10.00">::ROIOpcode</text>
</a>
</g>
</g>
<!-- Node3&#45;&gt;Node2 -->
<g id="edge2" class="edge">
<title>Node3&#45;&gt;Node2</title>
<path fill="none" stroke="midnightblue" d="M93.54,-170.07C104.68,-148.39 120.87,-116.87 130.18,-98.75"/>
<polygon fill="midnightblue" stroke="midnightblue" points="90.28,-168.76 88.82,-179.25 96.5,-171.95 90.28,-168.76"/>
</g>
<!-- Node4 -->
<g id="node4" class="node">
<title>Node4</title>
<g id="a_node4"><a xlink:href="../../dd/d5f/classrawspeed_1_1_dng_opcodes_1_1_dng_opcode.html" target="_top" xlink:title=" ">
<polygon fill="none" stroke="black" points="0,-257.5 0,-287.5 131,-287.5 131,-257.5 0,-257.5"/>
<text text-anchor="start" x="8" y="-275.5" font-family="Helvetica,sans-Serif" font-size="10.00">rawspeed::DngOpcodes</text>
<text text-anchor="middle" x="65.5" y="-264.5" font-family="Helvetica,sans-Serif" font-size="10.00">::DngOpcode</text>
</a>
</g>
</g>
<!-- Node4&#45;&gt;Node3 -->
<g id="edge3" class="edge">
<title>Node4&#45;&gt;Node3</title>
<path fill="none" stroke="midnightblue" d="M70.64,-247.09C73.24,-234.76 76.3,-220.22 78.5,-209.73"/>
<polygon fill="midnightblue" stroke="midnightblue" points="67.14,-246.7 68.51,-257.2 73.99,-248.14 67.14,-246.7"/>
</g>
<!-- Node5 -->
<g id="node5" class="node">
<title>Node5</title>
<g id="a_node5"><a xlink:href="../../d6/d8f/classrawspeed_1_1i_rectangle2_d.html" target="_top" xlink:title=" ">
<polygon fill="none" stroke="black" points="149.5,-263 149.5,-282 283.5,-282 283.5,-263 149.5,-263"/>
<text text-anchor="middle" x="216.5" y="-270" font-family="Helvetica,sans-Serif" font-size="10.00">rawspeed::iRectangle2D</text>
</a>
</g>
</g>
<!-- Node5&#45;&gt;Node3 -->
<g id="edge4" class="edge">
<title>Node5&#45;&gt;Node3</title>
<path fill="none" stroke="#9a32cd" stroke-dasharray="5,2" d="M192.38,-257.92C168.17,-244.29 131.04,-223.39 106.51,-209.58"/>
<polygon fill="#9a32cd" stroke="#9a32cd" points="190.85,-261.07 201.28,-262.93 194.28,-254.97 190.85,-261.07"/>
<text text-anchor="middle" x="165.5" y="-231" font-family="Helvetica,sans-Serif" font-size="10.00"> roi</text>
</g>
<!-- Node6 -->
<g id="node6" class="node">
<title>Node6</title>
<g id="a_node6"><a xlink:href="../../d8/d75/classrawspeed_1_1i_point2_d.html" target="_top" xlink:title=" ">
<polygon fill="none" stroke="black" points="161,-346.5 161,-365.5 272,-365.5 272,-346.5 161,-346.5"/>
<text text-anchor="middle" x="216.5" y="-353.5" font-family="Helvetica,sans-Serif" font-size="10.00">rawspeed::iPoint2D</text>
</a>
</g>
</g>
<!-- Node6&#45;&gt;Node5 -->
<g id="edge5" class="edge">
<title>Node6&#45;&gt;Node5</title>
<path fill="none" stroke="#9a32cd" stroke-dasharray="5,2" d="M216.5,-335.88C216.5,-318.9 216.5,-294.87 216.5,-282.16"/>
<polygon fill="#9a32cd" stroke="#9a32cd" points="213,-336.28 216.5,-346.28 220,-336.28 213,-336.28"/>
<text text-anchor="middle" x="227.5" y="-320" font-family="Helvetica,sans-Serif" font-size="10.00"> dim</text>
<text text-anchor="middle" x="227.5" y="-309" font-family="Helvetica,sans-Serif" font-size="10.00">pos</text>
</g>
<!-- Node7 -->
<g id="node7" class="node">
<title>Node7</title>
<g id="a_node7"><a xlink:href="../../de/d73/classint32__t.html" target="_top" xlink:title=" ">
<polygon fill="none" stroke="black" points="191.5,-424.5 191.5,-443.5 241.5,-443.5 241.5,-424.5 191.5,-424.5"/>
<text text-anchor="middle" x="216.5" y="-431.5" font-family="Helvetica,sans-Serif" font-size="10.00">int32_t</text>
</a>
</g>
</g>
<!-- Node7&#45;&gt;Node6 -->
<g id="edge6" class="edge">
<title>Node7&#45;&gt;Node6</title>
<path fill="none" stroke="#9a32cd" stroke-dasharray="5,2" d="M216.5,-414.22C216.5,-398.7 216.5,-377.36 216.5,-365.62"/>
<polygon fill="#9a32cd" stroke="#9a32cd" points="213,-414.28 216.5,-424.28 220,-414.28 213,-414.28"/>
<text text-anchor="middle" x="221.5" y="-398" font-family="Helvetica,sans-Serif" font-size="10.00"> x</text>
<text text-anchor="middle" x="221.5" y="-387" font-family="Helvetica,sans-Serif" font-size="10.00">y</text>
</g>
<!-- Node8 -->
<g id="node8" class="node">
<title>Node8</title>
<g id="a_node8"><a xlink:href="../../d3/d87/classuint32__t.html" target="_top" xlink:title=" ">
<polygon fill="none" stroke="black" points="165.5,-185 165.5,-204 221.5,-204 221.5,-185 165.5,-185"/>
<text text-anchor="middle" x="193.5" y="-192" font-family="Helvetica,sans-Serif" font-size="10.00">uint32_t</text>
</a>
</g>
</g>
<!-- Node8&#45;&gt;Node2 -->
<g id="edge7" class="edge">
<title>Node8&#45;&gt;Node2</title>
<path fill="none" stroke="#9a32cd" stroke-dasharray="5,2" d="M184.49,-175.96C173.46,-154.5 155,-118.57 144.81,-98.74"/>
<polygon fill="#9a32cd" stroke="#9a32cd" points="181.42,-177.65 189.11,-184.95 187.65,-174.45 181.42,-177.65"/>
<text text-anchor="middle" x="199" y="-153" font-family="Helvetica,sans-Serif" font-size="10.00"> firstPlane</text>
<text text-anchor="middle" x="199" y="-142" font-family="Helvetica,sans-Serif" font-size="10.00">rowPitch</text>
<text text-anchor="middle" x="199" y="-131" font-family="Helvetica,sans-Serif" font-size="10.00">planes</text>
<text text-anchor="middle" x="199" y="-120" font-family="Helvetica,sans-Serif" font-size="10.00">colPitch</text>
</g>
</g>
</svg>
