<?xml version="1.0" encoding="UTF-8" standalone="no"?>
<!DOCTYPE svg PUBLIC "-//W3C//DTD SVG 1.1//EN"
 "http://www.w3.org/Graphics/SVG/1.1/DTD/svg11.dtd">
<!-- Generated by graphviz version 2.43.0 (0)
 -->
<!-- Title: rawspeed::CiffParser Pages: 1 -->
<svg width="2334pt" height="353pt"
 viewBox="0.00 0.00 2334.00 353.29" xmlns="http://www.w3.org/2000/svg" xmlns:xlink="http://www.w3.org/1999/xlink">
<g id="graph0" class="graph" transform="scale(1 1) rotate(0) translate(4 349.29)">
<title>rawspeed::CiffParser</title>
<!-- Node1 -->
<g id="node1" class="node">
<title>Node1</title>
<g id="a_node1"><a xlink:title=" ">
<polygon fill="#bfbfbf" stroke="black" points="2176,-302.79 2176,-321.79 2292,-321.79 2292,-302.79 2176,-302.79"/>
<text text-anchor="middle" x="2234" y="-309.79" font-family="Helvetica,sans-Serif" font-size="10.00">rawspeed::CiffParser</text>
</a>
</g>
</g>
<!-- Node2 -->
<g id="node2" class="node">
<title>Node2</title>
<g id="a_node2"><a xlink:href="../../da/d24/classrawspeed_1_1_raw_parser.html" target="_top" xlink:title=" ">
<polygon fill="none" stroke="black" points="469,-293.79 469,-312.79 590,-312.79 590,-293.79 469,-293.79"/>
<text text-anchor="middle" x="529.5" y="-300.79" font-family="Helvetica,sans-Serif" font-size="10.00">rawspeed::RawParser</text>
</a>
</g>
</g>
<!-- Node2&#45;&gt;Node1 -->
<g id="edge1" class="edge">
<title>Node2&#45;&gt;Node1</title>
<path fill="none" stroke="midnightblue" d="M574.52,-315.38C623.62,-327.79 705.62,-345.29 777.5,-345.29 777.5,-345.29 777.5,-345.29 1985.5,-345.29 2057.03,-345.29 2139.17,-331.58 2188.53,-321.83"/>
<polygon fill="midnightblue" stroke="midnightblue" points="575.11,-311.92 564.55,-312.82 573.37,-318.7 575.11,-311.92"/>
</g>
<!-- Node3 -->
<g id="node3" class="node">
<title>Node3</title>
<g id="a_node3"><a xlink:href="../../d3/dca/classrawspeed_1_1_buffer.html" target="_top" xlink:title=" ">
<polygon fill="none" stroke="black" points="135,-130.79 135,-149.79 234,-149.79 234,-130.79 135,-130.79"/>
<text text-anchor="middle" x="184.5" y="-137.79" font-family="Helvetica,sans-Serif" font-size="10.00">rawspeed::Buffer</text>
</a>
</g>
</g>
<!-- Node3&#45;&gt;Node2 -->
<g id="edge2" class="edge">
<title>Node3&#45;&gt;Node2</title>
<path fill="none" stroke="#9a32cd" stroke-dasharray="5,2" d="M215.27,-154.44C283.58,-186.9 450.17,-266.06 508.18,-293.63"/>
<polygon fill="#9a32cd" stroke="#9a32cd" points="216.46,-151.13 205.93,-150 213.46,-157.45 216.46,-151.13"/>
<text text-anchor="middle" x="281.5" y="-200.29" font-family="Helvetica,sans-Serif" font-size="10.00"> mInput</text>
</g>
<!-- Node14 -->
<g id="node14" class="node">
<title>Node14</title>
<g id="a_node14"><a xlink:href="../../d1/dd4/classrawspeed_1_1_data_buffer.html" target="_top" xlink:title=" ">
<polygon fill="none" stroke="black" points="329,-93.79 329,-112.79 451,-112.79 451,-93.79 329,-93.79"/>
<text text-anchor="middle" x="390" y="-100.79" font-family="Helvetica,sans-Serif" font-size="10.00">rawspeed::DataBuffer</text>
</a>
</g>
</g>
<!-- Node3&#45;&gt;Node14 -->
<g id="edge16" class="edge">
<title>Node3&#45;&gt;Node14</title>
<path fill="none" stroke="midnightblue" d="M244.2,-130.21C265.28,-126.53 289.22,-122.29 311,-118.29 320.36,-116.57 330.34,-114.69 339.93,-112.85"/>
<polygon fill="midnightblue" stroke="midnightblue" points="243.36,-126.8 234.11,-131.96 244.56,-133.7 243.36,-126.8"/>
</g>
<!-- Node4 -->
<g id="node4" class="node">
<title>Node4</title>
<g id="a_node4"><a xlink:href="../../d3/d87/classuint32__t.html" target="_top" xlink:title=" ">
<polygon fill="none" stroke="black" points="0,-75.79 0,-94.79 56,-94.79 56,-75.79 0,-75.79"/>
<text text-anchor="middle" x="28" y="-82.79" font-family="Helvetica,sans-Serif" font-size="10.00">uint32_t</text>
</a>
</g>
</g>
<!-- Node4&#45;&gt;Node3 -->
<g id="edge3" class="edge">
<title>Node4&#45;&gt;Node3</title>
<path fill="none" stroke="#9a32cd" stroke-dasharray="5,2" d="M65.35,-98.23C93.33,-108.19 131.37,-121.73 156.64,-130.73"/>
<polygon fill="#9a32cd" stroke="#9a32cd" points="66.51,-94.93 55.91,-94.87 64.16,-101.52 66.51,-94.93"/>
<text text-anchor="middle" x="95.5" y="-119.29" font-family="Helvetica,sans-Serif" font-size="10.00"> size</text>
</g>
<!-- Node12 -->
<g id="node12" class="node">
<title>Node12</title>
<g id="a_node12"><a xlink:href="../../d4/d5a/classrawspeed_1_1_ciff_entry.html" target="_top" xlink:title=" ">
<polygon fill="none" stroke="black" points="824,-66.79 824,-85.79 936,-85.79 936,-66.79 824,-66.79"/>
<text text-anchor="middle" x="880" y="-73.79" font-family="Helvetica,sans-Serif" font-size="10.00">rawspeed::CiffEntry</text>
</a>
</g>
</g>
<!-- Node4&#45;&gt;Node12 -->
<g id="edge13" class="edge">
<title>Node4&#45;&gt;Node12</title>
<path fill="none" stroke="#9a32cd" stroke-dasharray="5,2" d="M66.18,-77.37C97.36,-71.42 143.13,-64.29 183.5,-64.29 183.5,-64.29 183.5,-64.29 673,-64.29 724.23,-64.29 782.5,-68.03 823.97,-71.34"/>
<polygon fill="#9a32cd" stroke="#9a32cd" points="65.34,-73.97 56.2,-79.33 66.69,-80.84 65.34,-73.97"/>
<text text-anchor="middle" x="390" y="-67.29" font-family="Helvetica,sans-Serif" font-size="10.00"> count</text>
</g>
<!-- Node5 -->
<g id="node5" class="node">
<title>Node5</title>
<g id="a_node5"><a xlink:title=" ">
<polygon fill="none" stroke="#bfbfbf" points="9,-127.79 9,-146.79 47,-146.79 47,-127.79 9,-127.79"/>
<text text-anchor="middle" x="28" y="-134.79" font-family="Helvetica,sans-Serif" font-size="10.00">bool</text>
</a>
</g>
</g>
<!-- Node5&#45;&gt;Node3 -->
<g id="edge4" class="edge">
<title>Node5&#45;&gt;Node3</title>
<path fill="none" stroke="#9a32cd" stroke-dasharray="5,2" d="M57.19,-137.84C78.87,-138.26 109.34,-138.85 134.93,-139.35"/>
<polygon fill="#9a32cd" stroke="#9a32cd" points="57.09,-134.33 47.03,-137.64 56.96,-141.33 57.09,-134.33"/>
<text text-anchor="middle" x="95.5" y="-142.29" font-family="Helvetica,sans-Serif" font-size="10.00"> isOwner</text>
</g>
<!-- Node6 -->
<g id="node6" class="node">
<title>Node6</title>
<g id="a_node6"><a xlink:title=" ">
<polygon fill="none" stroke="#bfbfbf" points="3,-165.79 3,-184.79 53,-184.79 53,-165.79 3,-165.79"/>
<text text-anchor="middle" x="28" y="-172.79" font-family="Helvetica,sans-Serif" font-size="10.00">uint8_t</text>
</a>
</g>
</g>
<!-- Node6&#45;&gt;Node3 -->
<g id="edge5" class="edge">
<title>Node6&#45;&gt;Node3</title>
<path fill="none" stroke="#9a32cd" stroke-dasharray="5,2" d="M63.17,-167.55C86.26,-162.32 116.9,-155.38 141.49,-149.81"/>
<polygon fill="#9a32cd" stroke="#9a32cd" points="62.12,-164.2 53.14,-169.82 63.67,-171.02 62.12,-164.2"/>
<text text-anchor="middle" x="95.5" y="-168.29" font-family="Helvetica,sans-Serif" font-size="10.00"> data</text>
</g>
<!-- Node7 -->
<g id="node7" class="node">
<title>Node7</title>
<g id="a_node7"><a xlink:title=" ">
<polygon fill="none" stroke="#bfbfbf" points="1921,-224.29 1921,-254.29 2048,-254.29 2048,-224.29 1921,-224.29"/>
<text text-anchor="start" x="1929" y="-242.29" font-family="Helvetica,sans-Serif" font-size="10.00">std::unique_ptr&lt; const</text>
<text text-anchor="middle" x="1984.5" y="-231.29" font-family="Helvetica,sans-Serif" font-size="10.00"> rawspeed::CiffIFD &gt;</text>
</a>
</g>
</g>
<!-- Node7&#45;&gt;Node1 -->
<g id="edge6" class="edge">
<title>Node7&#45;&gt;Node1</title>
<path fill="none" stroke="#9a32cd" stroke-dasharray="5,2" d="M2046.29,-257.22C2095.02,-271.59 2161.51,-291.2 2200.59,-302.73"/>
<polygon fill="#9a32cd" stroke="#9a32cd" points="2047.06,-253.8 2036.48,-254.33 2045.08,-260.51 2047.06,-253.8"/>
<text text-anchor="middle" x="2098.5" y="-280.29" font-family="Helvetica,sans-Serif" font-size="10.00"> mRootIFD</text>
</g>
<!-- Node20 -->
<g id="node20" class="node">
<title>Node20</title>
<g id="a_node20"><a xlink:title=" ">
<polygon fill="none" stroke="#bfbfbf" points="2142,-220.29 2142,-250.29 2326,-250.29 2326,-220.29 2142,-220.29"/>
<text text-anchor="start" x="2150" y="-238.29" font-family="Helvetica,sans-Serif" font-size="10.00">std::vector&lt; std::unique</text>
<text text-anchor="middle" x="2234" y="-227.29" font-family="Helvetica,sans-Serif" font-size="10.00">_ptr&lt; const rawspeed::CiffIFD &gt; &gt;</text>
</a>
</g>
</g>
<!-- Node7&#45;&gt;Node20 -->
<g id="edge24" class="edge">
<title>Node7&#45;&gt;Node20</title>
<path fill="none" stroke="#9a32cd" stroke-dasharray="5,2" d="M2058.32,-236.64C2063.29,-236.5 2068.22,-236.39 2073,-236.29 2095.22,-235.84 2119.17,-235.57 2141.61,-235.42"/>
<polygon fill="#9a32cd" stroke="#9a32cd" points="2058,-233.15 2048.11,-236.93 2058.2,-240.14 2058,-233.15"/>
<text text-anchor="middle" x="2098.5" y="-239.29" font-family="Helvetica,sans-Serif" font-size="10.00"> elements</text>
</g>
<!-- Node8 -->
<g id="node8" class="node">
<title>Node8</title>
<g id="a_node8"><a xlink:href="../../d7/d0b/classrawspeed_1_1_ciff_i_f_d.html" target="_top" xlink:title=" ">
<polygon fill="none" stroke="black" points="1627,-122.79 1627,-141.79 1729,-141.79 1729,-122.79 1627,-122.79"/>
<text text-anchor="middle" x="1678" y="-129.79" font-family="Helvetica,sans-Serif" font-size="10.00">rawspeed::CiffIFD</text>
</a>
</g>
</g>
<!-- Node8&#45;&gt;Node7 -->
<g id="edge7" class="edge">
<title>Node8&#45;&gt;Node7</title>
<path fill="none" stroke="#9a32cd" stroke-dasharray="5,2" d="M1689.1,-150.88C1700.47,-169.82 1720.84,-198.34 1747,-212.29 1762.04,-220.31 1855.94,-229.21 1920.8,-234.52"/>
<polygon fill="#9a32cd" stroke="#9a32cd" points="1692,-148.9 1683.98,-141.97 1685.93,-152.39 1692,-148.9"/>
<text text-anchor="middle" x="1821.5" y="-234.29" font-family="Helvetica,sans-Serif" font-size="10.00"> ptr</text>
</g>
<!-- Node8&#45;&gt;Node8 -->
<g id="edge22" class="edge">
<title>Node8&#45;&gt;Node8</title>
<path fill="none" stroke="#9a32cd" stroke-dasharray="5,2" d="M1654.93,-151.32C1656.19,-156.42 1663.88,-160.29 1678,-160.29 1700.04,-160.29 1706.41,-150.85 1697.11,-142.05"/>
<polygon fill="#9a32cd" stroke="#9a32cd" points="1658.19,-152.62 1658.89,-142.05 1651.75,-149.87 1658.19,-152.62"/>
<text text-anchor="middle" x="1678" y="-163.29" font-family="Helvetica,sans-Serif" font-size="10.00"> parent</text>
</g>
<!-- Node9 -->
<g id="node9" class="node">
<title>Node9</title>
<g id="a_node9"><a xlink:title=" ">
<polygon fill="none" stroke="#bfbfbf" points="1922,-151.29 1922,-181.29 2047,-181.29 2047,-151.29 1922,-151.29"/>
<text text-anchor="start" x="1930" y="-169.29" font-family="Helvetica,sans-Serif" font-size="10.00">std::vector&lt; const</text>
<text text-anchor="middle" x="1984.5" y="-158.29" font-family="Helvetica,sans-Serif" font-size="10.00"> rawspeed::CiffIFD * &gt;</text>
</a>
</g>
</g>
<!-- Node8&#45;&gt;Node9 -->
<g id="edge9" class="edge">
<title>Node8&#45;&gt;Node9</title>
<path fill="none" stroke="#9a32cd" stroke-dasharray="5,2" d="M1738.95,-143.15C1741.67,-143.55 1744.36,-143.93 1747,-144.29 1806.05,-152.23 1873.79,-158.22 1921.6,-161.93"/>
<polygon fill="#9a32cd" stroke="#9a32cd" points="1739.48,-139.69 1729.06,-141.6 1738.4,-146.6 1739.48,-139.69"/>
<text text-anchor="middle" x="1821.5" y="-163.29" font-family="Helvetica,sans-Serif" font-size="10.00"> elements</text>
</g>
<!-- Node9&#45;&gt;Node8 -->
<g id="edge8" class="edge">
<title>Node9&#45;&gt;Node8</title>
<path fill="none" stroke="#9a32cd" stroke-dasharray="5,2" d="M1942.31,-147.31C1927.97,-141.64 1911.57,-136.16 1896,-133.29 1839.5,-122.86 1773.31,-124.5 1729.02,-127.53"/>
<polygon fill="#9a32cd" stroke="#9a32cd" points="1941.3,-150.68 1951.87,-151.24 1943.96,-144.2 1941.3,-150.68"/>
<text text-anchor="middle" x="1821.5" y="-136.29" font-family="Helvetica,sans-Serif" font-size="10.00"> const</text>
</g>
<!-- Node10 -->
<g id="node10" class="node">
<title>Node10</title>
<g id="a_node10"><a xlink:title="STL class.">
<polygon fill="none" stroke="#bfbfbf" points="1629.5,-288.79 1629.5,-307.79 1726.5,-307.79 1726.5,-288.79 1629.5,-288.79"/>
<text text-anchor="middle" x="1678" y="-295.79" font-family="Helvetica,sans-Serif" font-size="10.00">std::vector&lt; T &gt;</text>
</a>
</g>
</g>
<!-- Node10&#45;&gt;Node9 -->
<g id="edge10" class="edge">
<title>Node10&#45;&gt;Node9</title>
<path fill="none" stroke="orange" stroke-dasharray="5,2" d="M1686.36,-279.28C1696.36,-256.23 1716.55,-218.12 1747,-199.29 1754.42,-194.7 1854.24,-181.89 1921.8,-173.65"/>
<polygon fill="orange" stroke="orange" points="1683.05,-278.11 1682.48,-288.69 1689.53,-280.78 1683.05,-278.11"/>
<text text-anchor="middle" x="1821.5" y="-202.29" font-family="Helvetica,sans-Serif" font-size="10.00"> &lt; const rawspeed::CiffIFD * &gt;</text>
</g>
<!-- Node10&#45;&gt;Node20 -->
<g id="edge25" class="edge">
<title>Node10&#45;&gt;Node20</title>
<path fill="none" stroke="orange" stroke-dasharray="5,2" d="M1736.86,-302.64C1822.58,-307.61 1987.84,-311.56 2124,-281.29 2152.87,-274.87 2183.75,-261.12 2205.24,-250.31"/>
<polygon fill="orange" stroke="orange" points="1737,-299.14 1726.81,-302.03 1736.58,-306.12 1737,-299.14"/>
<text text-anchor="start" x="1914" y="-318.29" font-family="Helvetica,sans-Serif" font-size="10.00"> &lt; std::unique_ptr&lt;</text>
<text text-anchor="middle" x="1984.5" y="-307.29" font-family="Helvetica,sans-Serif" font-size="10.00"> const rawspeed::CiffIFD &gt; &gt;</text>
</g>
<!-- Node11 -->
<g id="node11" class="node">
<title>Node11</title>
<g id="a_node11"><a xlink:title=" ">
<polygon fill="none" stroke="#bfbfbf" points="657.5,-257.79 657.5,-276.79 686.5,-276.79 686.5,-257.79 657.5,-257.79"/>
<text text-anchor="middle" x="672" y="-264.79" font-family="Helvetica,sans-Serif" font-size="10.00">T</text>
</a>
</g>
</g>
<!-- Node11&#45;&gt;Node10 -->
<g id="edge11" class="edge">
<title>Node11&#45;&gt;Node10</title>
<path fill="none" stroke="#9a32cd" stroke-dasharray="5,2" d="M696.43,-274.69C734.37,-286 811.79,-306.29 879,-306.29 879,-306.29 879,-306.29 1409.5,-306.29 1486.39,-306.29 1575.67,-302.95 1629.17,-300.58"/>
<polygon fill="#9a32cd" stroke="#9a32cd" points="697.4,-271.33 686.82,-271.76 695.36,-278.03 697.4,-271.33"/>
<text text-anchor="middle" x="1189.5" y="-309.29" font-family="Helvetica,sans-Serif" font-size="10.00"> elements</text>
</g>
<!-- Node23 -->
<g id="node23" class="node">
<title>Node23</title>
<g id="a_node23"><a xlink:title="STL class.">
<polygon fill="none" stroke="#bfbfbf" points="821,-250.79 821,-269.79 939,-269.79 939,-250.79 821,-250.79"/>
<text text-anchor="middle" x="880" y="-257.79" font-family="Helvetica,sans-Serif" font-size="10.00">std::unique_ptr&lt; T &gt;</text>
</a>
</g>
</g>
<!-- Node11&#45;&gt;Node23 -->
<g id="edge30" class="edge">
<title>Node11&#45;&gt;Node23</title>
<path fill="none" stroke="#9a32cd" stroke-dasharray="5,2" d="M696.86,-266.48C726.94,-265.46 779.67,-263.67 820.67,-262.27"/>
<polygon fill="#9a32cd" stroke="#9a32cd" points="696.39,-262.99 686.52,-266.83 696.63,-269.99 696.39,-262.99"/>
<text text-anchor="middle" x="778.5" y="-267.29" font-family="Helvetica,sans-Serif" font-size="10.00"> ptr</text>
</g>
<!-- Node24 -->
<g id="node24" class="node">
<title>Node24</title>
<g id="a_node24"><a xlink:title="STL class.">
<polygon fill="none" stroke="#bfbfbf" points="829.5,-189.79 829.5,-208.79 930.5,-208.79 930.5,-189.79 829.5,-189.79"/>
<text text-anchor="middle" x="880" y="-196.79" font-family="Helvetica,sans-Serif" font-size="10.00">std::map&lt; K, T &gt;</text>
</a>
</g>
</g>
<!-- Node11&#45;&gt;Node24 -->
<g id="edge34" class="edge">
<title>Node11&#45;&gt;Node24</title>
<path fill="none" stroke="#9a32cd" stroke-dasharray="5,2" d="M696.13,-259.65C733.93,-247.18 808.82,-222.45 850.07,-208.84"/>
<polygon fill="#9a32cd" stroke="#9a32cd" points="694.92,-256.37 686.52,-262.83 697.11,-263.02 694.92,-256.37"/>
<text text-anchor="middle" x="778.5" y="-242.29" font-family="Helvetica,sans-Serif" font-size="10.00"> elements</text>
</g>
<!-- Node12&#45;&gt;Node8 -->
<g id="edge12" class="edge">
<title>Node12&#45;&gt;Node8</title>
<path fill="none" stroke="#9a32cd" stroke-dasharray="5,2" d="M946.07,-74.23C991.46,-73.15 1053.44,-72.41 1108,-74.29 1300.52,-80.92 1528.02,-110.81 1626.92,-124.9"/>
<polygon fill="#9a32cd" stroke="#9a32cd" points="945.97,-70.73 936.06,-74.47 946.14,-77.72 945.97,-70.73"/>
<text text-anchor="middle" x="1295.5" y="-92.29" font-family="Helvetica,sans-Serif" font-size="10.00"> const</text>
</g>
<!-- Node22 -->
<g id="node22" class="node">
<title>Node22</title>
<g id="a_node22"><a xlink:title=" ">
<polygon fill="none" stroke="#bfbfbf" points="1126,-94.29 1126,-124.29 1253,-124.29 1253,-94.29 1126,-94.29"/>
<text text-anchor="start" x="1134" y="-112.29" font-family="Helvetica,sans-Serif" font-size="10.00">std::unique_ptr&lt; const</text>
<text text-anchor="middle" x="1189.5" y="-101.29" font-family="Helvetica,sans-Serif" font-size="10.00"> rawspeed::CiffEntry &gt;</text>
</a>
</g>
</g>
<!-- Node12&#45;&gt;Node22 -->
<g id="edge28" class="edge">
<title>Node12&#45;&gt;Node22</title>
<path fill="none" stroke="#9a32cd" stroke-dasharray="5,2" d="M946.35,-77.38C991.88,-78.85 1053.89,-82.3 1108,-90.29 1115.1,-91.34 1122.5,-92.7 1129.81,-94.22"/>
<polygon fill="#9a32cd" stroke="#9a32cd" points="946.42,-73.88 936.32,-77.08 946.21,-80.88 946.42,-73.88"/>
<text text-anchor="middle" x="1032.5" y="-93.29" font-family="Helvetica,sans-Serif" font-size="10.00"> ptr</text>
</g>
<!-- Node13 -->
<g id="node13" class="node">
<title>Node13</title>
<g id="a_node13"><a xlink:href="../../dd/da0/classrawspeed_1_1_byte_stream.html" target="_top" xlink:title=" ">
<polygon fill="none" stroke="black" points="608,-93.79 608,-112.79 736,-112.79 736,-93.79 608,-93.79"/>
<text text-anchor="middle" x="672" y="-100.79" font-family="Helvetica,sans-Serif" font-size="10.00">rawspeed::ByteStream</text>
</a>
</g>
</g>
<!-- Node13&#45;&gt;Node12 -->
<g id="edge14" class="edge">
<title>Node13&#45;&gt;Node12</title>
<path fill="none" stroke="#9a32cd" stroke-dasharray="5,2" d="M746.24,-93.69C771.82,-90.34 800.08,-86.63 823.93,-83.51"/>
<polygon fill="#9a32cd" stroke="#9a32cd" points="745.67,-90.24 736.21,-95.01 746.58,-97.18 745.67,-90.24"/>
<text text-anchor="middle" x="778.5" y="-95.29" font-family="Helvetica,sans-Serif" font-size="10.00"> data</text>
</g>
<!-- Node14&#45;&gt;Node13 -->
<g id="edge15" class="edge">
<title>Node14&#45;&gt;Node13</title>
<path fill="none" stroke="midnightblue" d="M461.33,-103.29C506.28,-103.29 564.1,-103.29 607.63,-103.29"/>
<polygon fill="midnightblue" stroke="midnightblue" points="461.07,-99.79 451.07,-103.29 461.07,-106.79 461.07,-99.79"/>
</g>
<!-- Node15 -->
<g id="node15" class="node">
<title>Node15</title>
<g id="a_node15"><a xlink:title=" ">
<polygon fill="none" stroke="#bfbfbf" points="148.5,-92.79 148.5,-111.79 220.5,-111.79 220.5,-92.79 148.5,-92.79"/>
<text text-anchor="middle" x="184.5" y="-99.79" font-family="Helvetica,sans-Serif" font-size="10.00">Endianness</text>
</a>
</g>
</g>
<!-- Node15&#45;&gt;Node14 -->
<g id="edge17" class="edge">
<title>Node15&#45;&gt;Node14</title>
<path fill="none" stroke="#9a32cd" stroke-dasharray="5,2" d="M231.15,-102.51C260,-102.66 297.6,-102.84 328.86,-102.99"/>
<polygon fill="#9a32cd" stroke="#9a32cd" points="230.96,-99.01 220.95,-102.46 230.93,-106.01 230.96,-99.01"/>
<text text-anchor="middle" x="281.5" y="-106.29" font-family="Helvetica,sans-Serif" font-size="10.00"> endianness</text>
</g>
<!-- Node16 -->
<g id="node16" class="node">
<title>Node16</title>
<g id="a_node16"><a xlink:title=" ">
<polygon fill="none" stroke="#bfbfbf" points="358.5,-131.79 358.5,-150.79 421.5,-150.79 421.5,-131.79 358.5,-131.79"/>
<text text-anchor="middle" x="390" y="-138.79" font-family="Helvetica,sans-Serif" font-size="10.00">size_type</text>
</a>
</g>
</g>
<!-- Node16&#45;&gt;Node13 -->
<g id="edge18" class="edge">
<title>Node16&#45;&gt;Node13</title>
<path fill="none" stroke="#9a32cd" stroke-dasharray="5,2" d="M431.72,-137C472,-132.6 535.36,-125.3 590,-117.29 599.18,-115.94 608.92,-114.38 618.34,-112.79"/>
<polygon fill="#9a32cd" stroke="#9a32cd" points="431.31,-133.52 421.75,-138.07 432.07,-140.48 431.31,-133.52"/>
<text text-anchor="middle" x="529.5" y="-136.29" font-family="Helvetica,sans-Serif" font-size="10.00"> pos</text>
</g>
<!-- Node17 -->
<g id="node17" class="node">
<title>Node17</title>
<g id="a_node17"><a xlink:title=" ">
<polygon fill="none" stroke="#bfbfbf" points="647,-139.79 647,-158.79 697,-158.79 697,-139.79 647,-139.79"/>
<text text-anchor="middle" x="672" y="-146.79" font-family="Helvetica,sans-Serif" font-size="10.00">CiffTag</text>
</a>
</g>
</g>
<!-- Node17&#45;&gt;Node12 -->
<g id="edge19" class="edge">
<title>Node17&#45;&gt;Node12</title>
<path fill="none" stroke="#9a32cd" stroke-dasharray="5,2" d="M707.02,-139.06C733.39,-130.95 770.74,-119.06 803,-107.29 821.34,-100.6 841.82,-92.19 856.89,-85.82"/>
<polygon fill="#9a32cd" stroke="#9a32cd" points="705.68,-135.81 697.14,-142.08 707.73,-142.51 705.68,-135.81"/>
<text text-anchor="middle" x="778.5" y="-126.29" font-family="Helvetica,sans-Serif" font-size="10.00"> tag</text>
</g>
<!-- Node21 -->
<g id="node21" class="node">
<title>Node21</title>
<g id="a_node21"><a xlink:title=" ">
<polygon fill="none" stroke="#bfbfbf" points="1340,-127.79 1340,-168.79 1477,-168.79 1477,-127.79 1340,-127.79"/>
<text text-anchor="start" x="1348" y="-156.79" font-family="Helvetica,sans-Serif" font-size="10.00">std::map&lt; CiffTag,</text>
<text text-anchor="start" x="1348" y="-145.79" font-family="Helvetica,sans-Serif" font-size="10.00"> std::unique_ptr&lt; const</text>
<text text-anchor="middle" x="1408.5" y="-134.79" font-family="Helvetica,sans-Serif" font-size="10.00"> rawspeed::CiffEntry &gt; &gt;</text>
</a>
</g>
</g>
<!-- Node17&#45;&gt;Node21 -->
<g id="edge31" class="edge">
<title>Node17&#45;&gt;Node21</title>
<path fill="none" stroke="#9a32cd" stroke-dasharray="5,2" d="M707.22,-149.24C820.9,-149.09 1187.39,-148.59 1339.92,-148.38"/>
<polygon fill="#9a32cd" stroke="#9a32cd" points="707.02,-145.74 697.02,-149.26 707.03,-152.74 707.02,-145.74"/>
<text text-anchor="middle" x="1032.5" y="-152.29" font-family="Helvetica,sans-Serif" font-size="10.00"> keys</text>
</g>
<!-- Node18 -->
<g id="node18" class="node">
<title>Node18</title>
<g id="a_node18"><a xlink:title=" ">
<polygon fill="none" stroke="#bfbfbf" points="632.5,-16.79 632.5,-35.79 711.5,-35.79 711.5,-16.79 632.5,-16.79"/>
<text text-anchor="middle" x="672" y="-23.79" font-family="Helvetica,sans-Serif" font-size="10.00">CiffDataType</text>
</a>
</g>
</g>
<!-- Node18&#45;&gt;Node12 -->
<g id="edge20" class="edge">
<title>Node18&#45;&gt;Node12</title>
<path fill="none" stroke="#9a32cd" stroke-dasharray="5,2" d="M721.99,-27.11C746.68,-28.55 776.84,-31.87 803,-39.29 825.02,-45.54 848.43,-57.91 863.35,-66.62"/>
<polygon fill="#9a32cd" stroke="#9a32cd" points="721.94,-23.61 711.78,-26.61 721.59,-30.6 721.94,-23.61"/>
<text text-anchor="middle" x="778.5" y="-42.29" font-family="Helvetica,sans-Serif" font-size="10.00"> type</text>
</g>
<!-- Node19 -->
<g id="node19" class="node">
<title>Node19</title>
<g id="a_node19"><a xlink:title=" ">
<polygon fill="none" stroke="#bfbfbf" points="1394,-8.79 1394,-27.79 1423,-27.79 1423,-8.79 1394,-8.79"/>
<text text-anchor="middle" x="1408.5" y="-15.79" font-family="Helvetica,sans-Serif" font-size="10.00">int</text>
</a>
</g>
</g>
<!-- Node19&#45;&gt;Node8 -->
<g id="edge21" class="edge">
<title>Node19&#45;&gt;Node8</title>
<path fill="none" stroke="#9a32cd" stroke-dasharray="5,2" d="M1432.98,-11.64C1472.32,-1.93 1552.75,11.74 1609,-20.29 1648.93,-43.02 1668.18,-99.61 1674.53,-122.48"/>
<polygon fill="#9a32cd" stroke="#9a32cd" points="1432.04,-8.27 1423.25,-14.18 1433.81,-15.04 1432.04,-8.27"/>
<text text-anchor="middle" x="1553" y="-34.29" font-family="Helvetica,sans-Serif" font-size="10.00"> subIFDCountRecursive</text>
<text text-anchor="middle" x="1553" y="-23.29" font-family="Helvetica,sans-Serif" font-size="10.00">subIFDCount</text>
</g>
<!-- Node20&#45;&gt;Node8 -->
<g id="edge23" class="edge">
<title>Node20&#45;&gt;Node8</title>
<path fill="none" stroke="#9a32cd" stroke-dasharray="5,2" d="M2205.89,-213.62C2172.58,-188.41 2113.3,-147.99 2055,-130.29 1942.57,-96.16 1802.35,-111.01 1729.01,-122.84"/>
<polygon fill="#9a32cd" stroke="#9a32cd" points="2204.11,-216.67 2214.18,-219.99 2208.38,-211.12 2204.11,-216.67"/>
<text text-anchor="middle" x="1984.5" y="-133.29" font-family="Helvetica,sans-Serif" font-size="10.00"> mSubIFD</text>
</g>
<!-- Node21&#45;&gt;Node8 -->
<g id="edge26" class="edge">
<title>Node21&#45;&gt;Node8</title>
<path fill="none" stroke="#9a32cd" stroke-dasharray="5,2" d="M1487.03,-143.65C1532.07,-140.96 1587.5,-137.64 1626.83,-135.29"/>
<polygon fill="#9a32cd" stroke="#9a32cd" points="1486.77,-140.16 1477,-144.25 1487.19,-147.15 1486.77,-140.16"/>
<text text-anchor="middle" x="1553" y="-146.29" font-family="Helvetica,sans-Serif" font-size="10.00"> mEntry</text>
</g>
<!-- Node22&#45;&gt;Node21 -->
<g id="edge27" class="edge">
<title>Node22&#45;&gt;Node21</title>
<path fill="none" stroke="#9a32cd" stroke-dasharray="5,2" d="M1263.38,-118.95C1281.89,-121.69 1301.72,-124.87 1320,-128.29 1326.43,-129.49 1333.11,-130.84 1339.78,-132.25"/>
<polygon fill="#9a32cd" stroke="#9a32cd" points="1263.64,-115.45 1253.24,-117.48 1262.63,-122.38 1263.64,-115.45"/>
<text text-anchor="middle" x="1295.5" y="-131.29" font-family="Helvetica,sans-Serif" font-size="10.00"> elements</text>
</g>
<!-- Node23&#45;&gt;Node7 -->
<g id="edge35" class="edge">
<title>Node23&#45;&gt;Node7</title>
<path fill="none" stroke="orange" stroke-dasharray="5,2" d="M949.19,-260.29C1011.5,-260.29 1106.2,-260.29 1188.5,-260.29 1188.5,-260.29 1188.5,-260.29 1679,-260.29 1762.86,-260.29 1859.4,-252.26 1920.9,-246.14"/>
<polygon fill="orange" stroke="orange" points="949.09,-256.79 939.09,-260.29 949.09,-263.79 949.09,-256.79"/>
<text text-anchor="middle" x="1408.5" y="-263.29" font-family="Helvetica,sans-Serif" font-size="10.00"> &lt; const rawspeed::CiffIFD &gt;</text>
</g>
<!-- Node23&#45;&gt;Node22 -->
<g id="edge29" class="edge">
<title>Node23&#45;&gt;Node22</title>
<path fill="none" stroke="orange" stroke-dasharray="5,2" d="M910.04,-245.43C920.71,-238.56 931.91,-229.43 939,-218.29 961.83,-182.4 925.11,-152.44 957,-124.29 981.19,-102.93 1065.81,-102.44 1125.72,-105.05"/>
<polygon fill="orange" stroke="orange" points="908.09,-242.52 901.3,-250.66 911.68,-248.53 908.09,-242.52"/>
<text text-anchor="middle" x="1032.5" y="-127.29" font-family="Helvetica,sans-Serif" font-size="10.00"> &lt; const rawspeed::CiffEntry &gt;</text>
</g>
<!-- Node24&#45;&gt;Node21 -->
<g id="edge32" class="edge">
<title>Node24&#45;&gt;Node21</title>
<path fill="none" stroke="orange" stroke-dasharray="5,2" d="M940.83,-197.6C1025.59,-194.6 1185.32,-186.72 1320,-167.29 1326.46,-166.36 1333.16,-165.22 1339.84,-163.97"/>
<polygon fill="orange" stroke="orange" points="940.5,-194.11 930.62,-197.95 940.74,-201.11 940.5,-194.11"/>
<text text-anchor="start" x="1133" y="-212.29" font-family="Helvetica,sans-Serif" font-size="10.00"> &lt; CiffTag, std::unique</text>
<text text-anchor="start" x="1133" y="-201.29" font-family="Helvetica,sans-Serif" font-size="10.00">_ptr&lt; const rawspeed::</text>
<text text-anchor="middle" x="1189.5" y="-190.29" font-family="Helvetica,sans-Serif" font-size="10.00">CiffEntry &gt; &gt;</text>
</g>
<!-- Node25 -->
<g id="node25" class="node">
<title>Node25</title>
<g id="a_node25"><a xlink:title=" ">
<polygon fill="none" stroke="#bfbfbf" points="657.5,-189.79 657.5,-208.79 686.5,-208.79 686.5,-189.79 657.5,-189.79"/>
<text text-anchor="middle" x="672" y="-196.79" font-family="Helvetica,sans-Serif" font-size="10.00">K</text>
</a>
</g>
</g>
<!-- Node25&#45;&gt;Node24 -->
<g id="edge33" class="edge">
<title>Node25&#45;&gt;Node24</title>
<path fill="none" stroke="#9a32cd" stroke-dasharray="5,2" d="M696.75,-199.29C728.96,-199.29 787.29,-199.29 829.3,-199.29"/>
<polygon fill="#9a32cd" stroke="#9a32cd" points="696.52,-195.79 686.52,-199.29 696.52,-202.79 696.52,-195.79"/>
<text text-anchor="middle" x="778.5" y="-202.29" font-family="Helvetica,sans-Serif" font-size="10.00"> keys</text>
</g>
</g>
</svg>
