<?xml version="1.0" encoding="UTF-8" standalone="no"?>
<!DOCTYPE svg PUBLIC "-//W3C//DTD SVG 1.1//EN"
 "http://www.w3.org/Graphics/SVG/1.1/DTD/svg11.dtd">
<!-- Generated by graphviz version 2.43.0 (0)
 -->
<!-- Title: LLVMFuzzerTestOneInput Pages: 1 -->
<!--zoomable 504 -->
<svg id="main" version="1.1" xmlns="http://www.w3.org/2000/svg" xmlns:xlink="http://www.w3.org/1999/xlink" xml:space="preserve" onload="init(evt)">
<style type="text/css"><![CDATA[
.edge:hover path { stroke: red; }
.edge:hover polygon { stroke: red; fill: red; }
]]></style>
<script type="text/javascript"><![CDATA[
var edges = document.getElementsByTagName('g');
if (edges && edges.length) {
  for (var i=0;i<edges.length;i++) {
    if (edges[i].id.substr(0,4)=='edge') {
      edges[i].setAttribute('class','edge');
    }
  }
}
]]></script>
        <defs>
                <circle id="rim" cx="0" cy="0" r="7"/>
                <circle id="rim2" cx="0" cy="0" r="3.5"/>
                <g id="zoomPlus">
                        <use xlink:href="#rim" fill="#404040">
                                <set attributeName="fill" to="#808080" begin="zoomplus.mouseover" end="zoomplus.mouseout"/>
                        </use>
                        <path d="M-4,0h8M0,-4v8" fill="none" stroke="white" stroke-width="1.5" pointer-events="none"/>
                </g>
                <g id="zoomMin">
                        <use xlink:href="#rim" fill="#404040">
                                <set attributeName="fill" to="#808080" begin="zoomminus.mouseover" end="zoomminus.mouseout"/>
                        </use>
                        <path d="M-4,0h8" fill="none" stroke="white" stroke-width="1.5" pointer-events="none"/>
                </g>
                <g id="dirArrow">
                        <path fill="none" stroke="white" stroke-width="1.5" d="M0,-3.0v7 M-2.5,-0.5L0,-3.0L2.5,-0.5"/>
                </g>
               <g id="resetDef">
                       <use xlink:href="#rim2" fill="#404040">
                               <set attributeName="fill" to="#808080" begin="reset.mouseover" end="reset.mouseout"/>
                       </use>
               </g>
        </defs>

<script type="text/javascript">
var viewWidth = 922;
var viewHeight = 504;
var sectionId = 'dynsection-1';
</script>
<script xlink:href="../../svgpan.js"/>
<svg id="graph" class="graph">
<g id="viewport">
<title>LLVMFuzzerTestOneInput</title>
<!-- Node1 -->
<g id="node1" class="node">
<title>Node1</title>
<g id="a_node1"><a xlink:title=" ">
<polygon fill="#bfbfbf" stroke="black" points="0,-194 0,-213 136,-213 136,-194 0,-194"/>
<text text-anchor="middle" x="68" y="-201" font-family="Helvetica,sans-Serif" font-size="10.00">LLVMFuzzerTestOneInput</text>
</a>
</g>
</g>
<!-- Node2 -->
<g id="node2" class="node">
<title>Node2</title>
<g id="a_node2"><a xlink:href="../../dd/da0/classrawspeed_1_1_byte_stream.html#a804858089e7e6c442815d46128cca1ed" target="_top" xlink:title=" ">
<polygon fill="none" stroke="black" points="786,-243.5 786,-273.5 914,-273.5 914,-243.5 786,-243.5"/>
<text text-anchor="start" x="794" y="-261.5" font-family="Helvetica,sans-Serif" font-size="10.00">rawspeed::ByteStream</text>
<text text-anchor="middle" x="850" y="-250.5" font-family="Helvetica,sans-Serif" font-size="10.00">::ByteStream</text>
</a>
</g>
</g>
<!-- Node1&#45;&gt;Node2 -->
<g id="edge1" class="edge">
<title>Node1&#45;&gt;Node2</title>
<path fill="none" stroke="midnightblue" d="M71.15,-213.13C78.84,-245.3 107.95,-350.17 172,-405.5 251.87,-474.5 292.85,-464.38 397,-481.5 479.89,-495.12 505.33,-504.92 586,-481.5 668.89,-457.43 685.17,-434.48 750,-377.5 783.23,-348.3 814.65,-307.46 832.86,-282.01"/>
<polygon fill="midnightblue" stroke="midnightblue" points="835.82,-283.89 838.73,-273.7 830.1,-279.85 835.82,-283.89"/>
</g>
<!-- Node3 -->
<g id="node3" class="node">
<title>Node3</title>
<g id="a_node3"><a xlink:href="../../dc/d44/classrawspeed_1_1_raw_image_data.html#a9c4e731cd919ff9b06fe440284b2e8c8" target="_top" xlink:title=" ">
<polygon fill="none" stroke="black" points="194,-365.5 194,-395.5 339,-395.5 339,-365.5 194,-365.5"/>
<text text-anchor="start" x="202" y="-383.5" font-family="Helvetica,sans-Serif" font-size="10.00">rawspeed::RawImageData</text>
<text text-anchor="middle" x="266.5" y="-372.5" font-family="Helvetica,sans-Serif" font-size="10.00">::checkMemIsInitialized</text>
</a>
</g>
</g>
<!-- Node1&#45;&gt;Node3 -->
<g id="edge2" class="edge">
<title>Node1&#45;&gt;Node3</title>
<path fill="none" stroke="midnightblue" d="M72.61,-213.17C83.27,-240.35 117.33,-317.9 172,-356.5 175.9,-359.25 180.09,-361.69 184.46,-363.85"/>
<polygon fill="midnightblue" stroke="midnightblue" points="183.08,-367.07 193.64,-367.9 185.91,-360.66 183.08,-367.07"/>
</g>
<!-- Node4 -->
<g id="node4" class="node">
<title>Node4</title>
<g id="a_node4"><a xlink:href="../../dc/d44/classrawspeed_1_1_raw_image_data.html#af7cbbd3ab6bb415e7e1b1f58a285084f" target="_top" xlink:title=" ">
<polygon fill="none" stroke="black" points="194,-316.5 194,-346.5 339,-346.5 339,-316.5 194,-316.5"/>
<text text-anchor="start" x="202" y="-334.5" font-family="Helvetica,sans-Serif" font-size="10.00">rawspeed::RawImageData</text>
<text text-anchor="middle" x="266.5" y="-323.5" font-family="Helvetica,sans-Serif" font-size="10.00">::createData</text>
</a>
</g>
</g>
<!-- Node1&#45;&gt;Node4 -->
<g id="edge3" class="edge">
<title>Node1&#45;&gt;Node4</title>
<path fill="none" stroke="midnightblue" d="M83.77,-213.12C115.5,-233.79 190.78,-282.83 233.84,-310.88"/>
<polygon fill="midnightblue" stroke="midnightblue" points="231.96,-313.83 242.25,-316.36 235.79,-307.97 231.96,-313.83"/>
</g>
<!-- Node7 -->
<g id="node7" class="node">
<title>Node7</title>
<g id="a_node7"><a xlink:href="../../d9/d5a/fuzz_2librawspeed_2fuzz_2_common_8cpp.html#a9b5193764409a69db1176954187dad97" target="_top" xlink:title=" ">
<polygon fill="none" stroke="black" points="216,-226 216,-245 317,-245 317,-226 216,-226"/>
<text text-anchor="middle" x="266.5" y="-233" font-family="Helvetica,sans-Serif" font-size="10.00">CreateRawImage</text>
</a>
</g>
</g>
<!-- Node1&#45;&gt;Node7 -->
<g id="edge6" class="edge">
<title>Node1&#45;&gt;Node7</title>
<path fill="none" stroke="midnightblue" d="M127.42,-213.01C152.18,-217.05 181,-221.74 205.89,-225.79"/>
<polygon fill="midnightblue" stroke="midnightblue" points="205.5,-229.27 215.93,-227.43 206.62,-222.37 205.5,-229.27"/>
</g>
<!-- Node12 -->
<g id="node12" class="node">
<title>Node12</title>
<g id="a_node12"><a xlink:href="../../dd/d12/classrawspeed_1_1_raw_image.html#a2907002b5c707eca6939061f8b0d5e5d" target="_top" xlink:title=" ">
<polygon fill="none" stroke="black" points="430.5,-147.5 430.5,-177.5 552.5,-177.5 552.5,-147.5 430.5,-147.5"/>
<text text-anchor="start" x="438.5" y="-165.5" font-family="Helvetica,sans-Serif" font-size="10.00">rawspeed::RawImage</text>
<text text-anchor="middle" x="491.5" y="-154.5" font-family="Helvetica,sans-Serif" font-size="10.00">::operator&#45;&gt;</text>
</a>
</g>
</g>
<!-- Node1&#45;&gt;Node12 -->
<g id="edge21" class="edge">
<title>Node1&#45;&gt;Node12</title>
<path fill="none" stroke="midnightblue" d="M136.25,-196.96C213.88,-189.41 340.98,-177.04 419.97,-169.36"/>
<polygon fill="midnightblue" stroke="midnightblue" points="420.7,-172.81 430.31,-168.35 420.02,-165.84 420.7,-172.81"/>
</g>
<!-- Node14 -->
<g id="node14" class="node">
<title>Node14</title>
<g id="a_node14"><a xlink:href="../../d8/d43/classrawspeed_1_1_panasonic_decompressor_v4.html#a49eb9facd3fb43fc631e22105f968062" target="_top" xlink:title=" ">
<polygon fill="none" stroke="black" points="172,-119.5 172,-149.5 361,-149.5 361,-119.5 172,-119.5"/>
<text text-anchor="start" x="180" y="-137.5" font-family="Helvetica,sans-Serif" font-size="10.00">rawspeed::PanasonicDecompressor</text>
<text text-anchor="middle" x="266.5" y="-126.5" font-family="Helvetica,sans-Serif" font-size="10.00">V4::decompress</text>
</a>
</g>
</g>
<!-- Node1&#45;&gt;Node14 -->
<g id="edge13" class="edge">
<title>Node1&#45;&gt;Node14</title>
<path fill="none" stroke="midnightblue" d="M94.31,-193.89C115.11,-186.07 145.38,-174.82 172,-165.5 183.97,-161.31 196.86,-156.94 209.12,-152.86"/>
<polygon fill="midnightblue" stroke="midnightblue" points="210.4,-156.12 218.79,-149.65 208.2,-149.48 210.4,-156.12"/>
</g>
<!-- Node16 -->
<g id="node16" class="node">
<title>Node16</title>
<g id="a_node16"><a xlink:href="../../dd/da0/classrawspeed_1_1_byte_stream.html#ab4972769baa5c0ed59ec0608ed2b307d" target="_top" xlink:title=" ">
<polygon fill="none" stroke="black" points="202.5,-69.5 202.5,-99.5 330.5,-99.5 330.5,-69.5 202.5,-69.5"/>
<text text-anchor="start" x="210.5" y="-87.5" font-family="Helvetica,sans-Serif" font-size="10.00">rawspeed::ByteStream</text>
<text text-anchor="middle" x="266.5" y="-76.5" font-family="Helvetica,sans-Serif" font-size="10.00">::getRemainSize</text>
</a>
</g>
</g>
<!-- Node1&#45;&gt;Node16 -->
<g id="edge15" class="edge">
<title>Node1&#45;&gt;Node16</title>
<path fill="none" stroke="midnightblue" d="M76.99,-193.74C93.01,-174.82 131.05,-133.02 172,-110.5 178.39,-106.98 185.3,-103.91 192.36,-101.24"/>
<polygon fill="midnightblue" stroke="midnightblue" points="193.79,-104.45 202.06,-97.83 191.46,-97.84 193.79,-104.45"/>
</g>
<!-- Node18 -->
<g id="node18" class="node">
<title>Node18</title>
<g id="a_node18"><a xlink:href="../../dd/da0/classrawspeed_1_1_byte_stream.html#a7a5f5eaad404d367efb8a64fa82d20ae" target="_top" xlink:title=" ">
<polygon fill="none" stroke="black" points="202.5,-18.5 202.5,-48.5 330.5,-48.5 330.5,-18.5 202.5,-18.5"/>
<text text-anchor="start" x="210.5" y="-36.5" font-family="Helvetica,sans-Serif" font-size="10.00">rawspeed::ByteStream</text>
<text text-anchor="middle" x="266.5" y="-25.5" font-family="Helvetica,sans-Serif" font-size="10.00">::getStream</text>
</a>
</g>
</g>
<!-- Node1&#45;&gt;Node18 -->
<g id="edge17" class="edge">
<title>Node1&#45;&gt;Node18</title>
<path fill="none" stroke="midnightblue" d="M73.15,-193.7C84.7,-167.61 119.87,-95.98 172,-59.5 178.41,-55.02 185.56,-51.31 192.99,-48.23"/>
<polygon fill="midnightblue" stroke="midnightblue" points="194.36,-51.46 202.5,-44.67 191.9,-44.9 194.36,-51.46"/>
</g>
<!-- Node5 -->
<g id="node5" class="node">
<title>Node5</title>
<g id="a_node5"><a xlink:href="../../dc/d44/classrawspeed_1_1_raw_image_data.html#a724d8812aca44f04e6aeb965daeab36d" target="_top" xlink:title=" ">
<polygon fill="none" stroke="black" points="419,-441.5 419,-471.5 564,-471.5 564,-441.5 419,-441.5"/>
<text text-anchor="start" x="427" y="-459.5" font-family="Helvetica,sans-Serif" font-size="10.00">rawspeed::RawImageData</text>
<text text-anchor="middle" x="491.5" y="-448.5" font-family="Helvetica,sans-Serif" font-size="10.00">::getData</text>
</a>
</g>
</g>
<!-- Node4&#45;&gt;Node5 -->
<g id="edge4" class="edge">
<title>Node4&#45;&gt;Node5</title>
<path fill="none" stroke="midnightblue" d="M339.16,-343.56C347.05,-346.89 354.55,-351.12 361,-356.5 389.71,-380.43 368.17,-408.71 397,-432.5 400.84,-435.67 405.04,-438.42 409.48,-440.82"/>
<polygon fill="midnightblue" stroke="midnightblue" points="408.33,-444.14 418.86,-445.25 411.31,-437.81 408.33,-444.14"/>
</g>
<!-- Node6 -->
<g id="node6" class="node">
<title>Node6</title>
<g id="a_node6"><a xlink:href="../../dc/d44/classrawspeed_1_1_raw_image_data.html#a383099b27aea42a05858e18b6cf69c96" target="_top" xlink:title=" ">
<polygon fill="none" stroke="black" points="419,-392.5 419,-422.5 564,-422.5 564,-392.5 419,-392.5"/>
<text text-anchor="start" x="427" y="-410.5" font-family="Helvetica,sans-Serif" font-size="10.00">rawspeed::RawImageData</text>
<text text-anchor="middle" x="491.5" y="-399.5" font-family="Helvetica,sans-Serif" font-size="10.00">::poisonPadding</text>
</a>
</g>
</g>
<!-- Node4&#45;&gt;Node6 -->
<g id="edge5" class="edge">
<title>Node4&#45;&gt;Node6</title>
<path fill="none" stroke="midnightblue" d="M336.02,-346.55C344.62,-349.38 353.14,-352.68 361,-356.5 378.99,-365.24 378.97,-374.85 397,-383.5 401.11,-385.47 405.39,-387.29 409.78,-388.98"/>
<polygon fill="midnightblue" stroke="midnightblue" points="408.9,-392.38 419.5,-392.44 411.25,-385.79 408.9,-392.38"/>
</g>
<!-- Node8 -->
<g id="node8" class="node">
<title>Node8</title>
<g id="a_node8"><a xlink:href="../../dd/d12/classrawspeed_1_1_raw_image.html#a4a7b73d675f5ac9c8730a9b7f60c3d82" target="_top" xlink:title=" ">
<polygon fill="none" stroke="black" points="430.5,-343.5 430.5,-373.5 552.5,-373.5 552.5,-343.5 430.5,-343.5"/>
<text text-anchor="start" x="438.5" y="-361.5" font-family="Helvetica,sans-Serif" font-size="10.00">rawspeed::RawImage</text>
<text text-anchor="middle" x="491.5" y="-350.5" font-family="Helvetica,sans-Serif" font-size="10.00">::create</text>
</a>
</g>
</g>
<!-- Node7&#45;&gt;Node8 -->
<g id="edge7" class="edge">
<title>Node7&#45;&gt;Node8</title>
<path fill="none" stroke="midnightblue" d="M280.02,-245.17C311.87,-269.77 393.72,-332.91 397,-334.5 404.48,-338.13 412.57,-341.25 420.75,-343.93"/>
<polygon fill="midnightblue" stroke="midnightblue" points="419.78,-347.3 430.37,-346.88 421.83,-340.6 419.78,-347.3"/>
</g>
<!-- Node10 -->
<g id="node10" class="node">
<title>Node10</title>
<g id="a_node10"><a xlink:href="../../dd/da0/classrawspeed_1_1_byte_stream.html#ac598b7b6f0f8fd5476adb7c1363b1518" target="_top" xlink:title=" ">
<polygon fill="none" stroke="black" points="427.5,-294.5 427.5,-324.5 555.5,-324.5 555.5,-294.5 427.5,-294.5"/>
<text text-anchor="start" x="435.5" y="-312.5" font-family="Helvetica,sans-Serif" font-size="10.00">rawspeed::ByteStream</text>
<text text-anchor="middle" x="491.5" y="-301.5" font-family="Helvetica,sans-Serif" font-size="10.00">::getU32</text>
</a>
</g>
</g>
<!-- Node7&#45;&gt;Node10 -->
<g id="edge9" class="edge">
<title>Node7&#45;&gt;Node10</title>
<path fill="none" stroke="midnightblue" d="M290.14,-245.17C315.76,-255.9 358.9,-273.3 397,-285.5 403.8,-287.68 410.93,-289.8 418.09,-291.81"/>
<polygon fill="midnightblue" stroke="midnightblue" points="417.27,-295.22 427.84,-294.5 419.13,-288.47 417.27,-295.22"/>
</g>
<!-- Node11 -->
<g id="node11" class="node">
<title>Node11</title>
<g id="a_node11"><a xlink:href="../../d8/d75/classrawspeed_1_1i_point2_d.html#ab980cc8ab2f3502a5a2c230530ba2a64" target="_top" xlink:title=" ">
<polygon fill="none" stroke="black" points="436,-245.5 436,-275.5 547,-275.5 547,-245.5 436,-245.5"/>
<text text-anchor="start" x="444" y="-263.5" font-family="Helvetica,sans-Serif" font-size="10.00">rawspeed::iPoint2D</text>
<text text-anchor="middle" x="491.5" y="-252.5" font-family="Helvetica,sans-Serif" font-size="10.00">::iPoint2D</text>
</a>
</g>
</g>
<!-- Node7&#45;&gt;Node11 -->
<g id="edge10" class="edge">
<title>Node7&#45;&gt;Node11</title>
<path fill="none" stroke="midnightblue" d="M317.27,-241.08C349.28,-244.67 391.21,-249.37 425.79,-253.25"/>
<polygon fill="midnightblue" stroke="midnightblue" points="425.48,-256.73 435.8,-254.37 426.26,-249.78 425.48,-256.73"/>
</g>
<!-- Node7&#45;&gt;Node12 -->
<g id="edge11" class="edge">
<title>Node7&#45;&gt;Node12</title>
<path fill="none" stroke="midnightblue" d="M291.14,-225.98C316.92,-215.77 359.53,-199.43 397,-187.5 404.74,-185.04 412.89,-182.61 421.02,-180.3"/>
<polygon fill="midnightblue" stroke="midnightblue" points="422.21,-183.6 430.9,-177.54 420.33,-176.86 422.21,-183.6"/>
</g>
<!-- Node13 -->
<g id="node13" class="node">
<title>Node13</title>
<g id="a_node13"><a xlink:href="../../dc/d44/classrawspeed_1_1_raw_image_data.html#a180f90ba4cf9e6e6ff1c307f6106f4ed" target="_top" xlink:title=" ">
<polygon fill="none" stroke="black" points="419,-196.5 419,-226.5 564,-226.5 564,-196.5 419,-196.5"/>
<text text-anchor="start" x="427" y="-214.5" font-family="Helvetica,sans-Serif" font-size="10.00">rawspeed::RawImageData</text>
<text text-anchor="middle" x="491.5" y="-203.5" font-family="Helvetica,sans-Serif" font-size="10.00">::setCpp</text>
</a>
</g>
</g>
<!-- Node7&#45;&gt;Node13 -->
<g id="edge12" class="edge">
<title>Node7&#45;&gt;Node13</title>
<path fill="none" stroke="midnightblue" d="M317.27,-230.14C344.14,-227.25 378,-223.61 408.63,-220.31"/>
<polygon fill="midnightblue" stroke="midnightblue" points="409.32,-223.76 418.89,-219.21 408.57,-216.8 409.32,-223.76"/>
</g>
<!-- Node9 -->
<g id="node9" class="node">
<title>Node9</title>
<g id="a_node9"><a xlink:href="../../de/dc3/namespacerawspeed.html#a8a98a18f46994d6cae15ce24462fb7d4" target="_top" xlink:title=" ">
<polygon fill="none" stroke="black" points="630,-349 630,-368 742,-368 742,-349 630,-349"/>
<text text-anchor="middle" x="686" y="-356" font-family="Helvetica,sans-Serif" font-size="10.00">rawspeed::writeLog</text>
</a>
</g>
</g>
<!-- Node8&#45;&gt;Node9 -->
<g id="edge8" class="edge">
<title>Node8&#45;&gt;Node9</title>
<path fill="none" stroke="midnightblue" d="M552.62,-358.5C573.95,-358.5 598.05,-358.5 619.79,-358.5"/>
<polygon fill="midnightblue" stroke="midnightblue" points="619.92,-362 629.92,-358.5 619.92,-355 619.92,-362"/>
</g>
<!-- Node15 -->
<g id="node15" class="node">
<title>Node15</title>
<g id="a_node15"><a xlink:href="../../d8/d43/classrawspeed_1_1_panasonic_decompressor_v4.html#ae5c8c161b09b7b0a09f20d8d84e75c75" target="_top" xlink:title=" ">
<polygon fill="none" stroke="black" points="397,-98.5 397,-128.5 586,-128.5 586,-98.5 397,-98.5"/>
<text text-anchor="start" x="405" y="-116.5" font-family="Helvetica,sans-Serif" font-size="10.00">rawspeed::PanasonicDecompressor</text>
<text text-anchor="middle" x="491.5" y="-105.5" font-family="Helvetica,sans-Serif" font-size="10.00">V4::decompressThread</text>
</a>
</g>
</g>
<!-- Node14&#45;&gt;Node15 -->
<g id="edge14" class="edge">
<title>Node14&#45;&gt;Node15</title>
<path fill="none" stroke="midnightblue" d="M361.1,-125.69C369.58,-124.89 378.21,-124.07 386.77,-123.27"/>
<polygon fill="midnightblue" stroke="midnightblue" points="387.15,-126.75 396.78,-122.33 386.5,-119.78 387.15,-126.75"/>
</g>
<!-- Node17 -->
<g id="node17" class="node">
<title>Node17</title>
<g id="a_node17"><a xlink:href="../../dd/da0/classrawspeed_1_1_byte_stream.html#a33bbb3baf3bb9730f9da8765175ec4ce" target="_top" xlink:title=" ">
<polygon fill="none" stroke="black" points="427.5,-49.5 427.5,-79.5 555.5,-79.5 555.5,-49.5 427.5,-49.5"/>
<text text-anchor="start" x="435.5" y="-67.5" font-family="Helvetica,sans-Serif" font-size="10.00">rawspeed::ByteStream</text>
<text text-anchor="middle" x="491.5" y="-56.5" font-family="Helvetica,sans-Serif" font-size="10.00">::check</text>
</a>
</g>
</g>
<!-- Node16&#45;&gt;Node17 -->
<g id="edge16" class="edge">
<title>Node16&#45;&gt;Node17</title>
<path fill="none" stroke="midnightblue" d="M330.51,-78.85C357.47,-76.43 389.12,-73.59 417.12,-71.08"/>
<polygon fill="midnightblue" stroke="midnightblue" points="417.61,-74.55 427.26,-70.17 416.99,-67.58 417.61,-74.55"/>
</g>
<!-- Node19 -->
<g id="node19" class="node">
<title>Node19</title>
<g id="a_node19"><a xlink:href="../../dd/da0/classrawspeed_1_1_byte_stream.html#a81cc27671b93889f9c8adb62ece8340e" target="_top" xlink:title=" ">
<polygon fill="none" stroke="black" points="427.5,-0.5 427.5,-30.5 555.5,-30.5 555.5,-0.5 427.5,-0.5"/>
<text text-anchor="start" x="435.5" y="-18.5" font-family="Helvetica,sans-Serif" font-size="10.00">rawspeed::ByteStream</text>
<text text-anchor="middle" x="491.5" y="-7.5" font-family="Helvetica,sans-Serif" font-size="10.00">::peekStream</text>
</a>
</g>
</g>
<!-- Node18&#45;&gt;Node19 -->
<g id="edge18" class="edge">
<title>Node18&#45;&gt;Node19</title>
<path fill="none" stroke="midnightblue" d="M330.51,-28.41C357.47,-26.24 389.12,-23.68 417.12,-21.42"/>
<polygon fill="midnightblue" stroke="midnightblue" points="417.57,-24.9 427.26,-20.6 417.01,-17.92 417.57,-24.9"/>
</g>
<!-- Node20 -->
<g id="node20" class="node">
<title>Node20</title>
<g id="a_node20"><a xlink:href="../../dd/da0/classrawspeed_1_1_byte_stream.html#a5eb5f775dd7efaa22b490007fe835a32" target="_top" xlink:title=" ">
<polygon fill="none" stroke="black" points="622,-150.5 622,-180.5 750,-180.5 750,-150.5 622,-150.5"/>
<text text-anchor="start" x="630" y="-168.5" font-family="Helvetica,sans-Serif" font-size="10.00">rawspeed::ByteStream</text>
<text text-anchor="middle" x="686" y="-157.5" font-family="Helvetica,sans-Serif" font-size="10.00">::getSubStream</text>
</a>
</g>
</g>
<!-- Node19&#45;&gt;Node20 -->
<g id="edge19" class="edge">
<title>Node19&#45;&gt;Node20</title>
<path fill="none" stroke="midnightblue" d="M555.74,-25.7C566.36,-29.07 576.88,-33.55 586,-39.5 625.77,-65.45 656.52,-112.81 672.6,-141.5"/>
<polygon fill="midnightblue" stroke="midnightblue" points="669.62,-143.35 677.48,-150.45 675.77,-140 669.62,-143.35"/>
</g>
<!-- Node20&#45;&gt;Node2 -->
<g id="edge20" class="edge">
<title>Node20&#45;&gt;Node2</title>
<path fill="none" stroke="midnightblue" d="M713.39,-180.65C740.69,-196.32 783.48,-220.89 813.68,-238.23"/>
<polygon fill="midnightblue" stroke="midnightblue" points="812.21,-241.41 822.62,-243.36 815.69,-235.34 812.21,-241.41"/>
</g>
</g>
</svg>
        <g id="navigator" transform="translate(0 0)" fill="#404254">
                <rect fill="#f2f5e9" fill-opacity="0.5" stroke="#606060" stroke-width=".5" x="0" y="0" width="60" height="60"/>
                <use id="zoomplus" xlink:href="#zoomPlus" x="17" y="9" onmousedown="handleZoom(evt,'in')"/>
                <use id="zoomminus" xlink:href="#zoomMin" x="42" y="9" onmousedown="handleZoom(evt,'out')"/>
                <use id="reset" xlink:href="#resetDef" x="30" y="36" onmousedown="handleReset()"/>
                <g id="arrowUp" xlink:href="#dirArrow" transform="translate(30 24)" onmousedown="handlePan(0,-1)">
                  <use xlink:href="#rim" fill="#404040">
                        <set attributeName="fill" to="#808080" begin="arrowUp.mouseover" end="arrowUp.mouseout"/>
                  </use>
                  <path fill="none" stroke="white" stroke-width="1.5" d="M0,-3.0v7 M-2.5,-0.5L0,-3.0L2.5,-0.5"/>
                </g>
                <g id="arrowRight" xlink:href="#dirArrow" transform="rotate(90) translate(36 -43)" onmousedown="handlePan(1,0)">
                  <use xlink:href="#rim" fill="#404040">
                        <set attributeName="fill" to="#808080" begin="arrowRight.mouseover" end="arrowRight.mouseout"/>
                  </use>
                  <path fill="none" stroke="white" stroke-width="1.5" d="M0,-3.0v7 M-2.5,-0.5L0,-3.0L2.5,-0.5"/>
                </g>
                <g id="arrowDown" xlink:href="#dirArrow" transform="rotate(180) translate(-30 -48)" onmousedown="handlePan(0,1)">
                  <use xlink:href="#rim" fill="#404040">
                        <set attributeName="fill" to="#808080" begin="arrowDown.mouseover" end="arrowDown.mouseout"/>
                  </use>
                  <path fill="none" stroke="white" stroke-width="1.5" d="M0,-3.0v7 M-2.5,-0.5L0,-3.0L2.5,-0.5"/>
                </g>
                <g id="arrowLeft" xlink:href="#dirArrow" transform="rotate(270) translate(-36 17)" onmousedown="handlePan(-1,0)">
                  <use xlink:href="#rim" fill="#404040">
                        <set attributeName="fill" to="#808080" begin="arrowLeft.mouseover" end="arrowLeft.mouseout"/>
                  </use>
                  <path fill="none" stroke="white" stroke-width="1.5" d="M0,-3.0v7 M-2.5,-0.5L0,-3.0L2.5,-0.5"/>
                </g>
        </g>
        <svg viewBox="0 0 15 15" width="100%" height="30px" preserveAspectRatio="xMaxYMin meet">
         <g id="arrow_out" transform="scale(0.3 0.3)">
          <a xlink:href="fuzz_2librawspeed_2decompressors_2_panasonic_decompressor_v4_8cpp_a1c473c9665269a78ef9001573a6995df_cgraph_org.svg" target="_base">
           <rect id="button" ry="5" rx="5" y="6" x="6" height="38" width="38"
                fill="#f2f5e9" fill-opacity="0.5" stroke="#606060" stroke-width="1.0"/>
           <path id="arrow"
             d="M 11.500037,31.436501 C 11.940474,20.09759 22.043105,11.32322 32.158766,21.979434 L 37.068811,17.246167 C 37.068811,17.246167 37.088388,32 37.088388,32 L 22.160133,31.978069 C 22.160133,31.978069 26.997745,27.140456 26.997745,27.140456 C 18.528582,18.264221 13.291696,25.230495 11.500037,31.436501 z"
             style="fill:#404040;"/>
          </a>
         </g>
        </svg>
</svg>
