<?xml version="1.0" encoding="UTF-8" standalone="no"?>
<!DOCTYPE svg PUBLIC "-//W3C//DTD SVG 1.1//EN"
 "http://www.w3.org/Graphics/SVG/1.1/DTD/svg11.dtd">
<!-- Generated by graphviz version 2.43.0 (0)
 -->
<!-- Title: /build/rawspeed/bench/librawspeed/common/DefaultInitAllocatorAdaptorBenchmark.cpp Pages: 1 -->
<svg width="425pt" height="173pt"
 viewBox="0.00 0.00 424.50 173.00" xmlns="http://www.w3.org/2000/svg" xmlns:xlink="http://www.w3.org/1999/xlink">
<g id="graph0" class="graph" transform="scale(1 1) rotate(0) translate(4 169)">
<title>/build/rawspeed/bench/librawspeed/common/DefaultInitAllocatorAdaptorBenchmark.cpp</title>
<!-- Node1 -->
<g id="node1" class="node">
<title>Node1</title>
<g id="a_node1"><a xlink:title=" ">
<polygon fill="#bfbfbf" stroke="black" points="104,-123.5 104,-164.5 294,-164.5 294,-123.5 104,-123.5"/>
<text text-anchor="start" x="112" y="-152.5" font-family="Helvetica,sans-Serif" font-size="10.00">/build/rawspeed/bench</text>
<text text-anchor="start" x="112" y="-141.5" font-family="Helvetica,sans-Serif" font-size="10.00">/librawspeed/common/Default</text>
<text text-anchor="middle" x="199" y="-130.5" font-family="Helvetica,sans-Serif" font-size="10.00">InitAllocatorAdaptorBenchmark.cpp</text>
</a>
</g>
</g>
<!-- Node2 -->
<g id="node2" class="node">
<title>Node2</title>
<g id="a_node2"><a xlink:href="../../d2/df3/_default_init_allocator_adaptor_8h.html" target="_top" xlink:title=" ">
<polygon fill="none" stroke="black" points="37,-56.5 37,-86.5 195,-86.5 195,-56.5 37,-56.5"/>
<text text-anchor="start" x="45" y="-74.5" font-family="Helvetica,sans-Serif" font-size="10.00">common/DefaultInitAllocator</text>
<text text-anchor="middle" x="116" y="-63.5" font-family="Helvetica,sans-Serif" font-size="10.00">Adaptor.h</text>
</a>
</g>
</g>
<!-- Node1&#45;&gt;Node2 -->
<g id="edge1" class="edge">
<title>Node1&#45;&gt;Node2</title>
<path fill="none" stroke="midnightblue" d="M175.88,-123.36C164.84,-113.99 151.63,-102.76 140.42,-93.25"/>
<polygon fill="midnightblue" stroke="midnightblue" points="142.57,-90.48 132.68,-86.67 138.04,-95.81 142.57,-90.48"/>
</g>
<!-- Node3 -->
<g id="node3" class="node">
<title>Node3</title>
<g id="a_node3"><a xlink:title=" ">
<polygon fill="none" stroke="#bfbfbf" points="0,-0.5 0,-19.5 58,-19.5 58,-0.5 0,-0.5"/>
<text text-anchor="middle" x="29" y="-7.5" font-family="Helvetica,sans-Serif" font-size="10.00">memory</text>
</a>
</g>
</g>
<!-- Node1&#45;&gt;Node3 -->
<g id="edge6" class="edge">
<title>Node1&#45;&gt;Node3</title>
<path fill="none" stroke="midnightblue" d="M103.63,-133.42C74.64,-125.52 45.78,-111.54 28,-87 15.93,-70.35 18.93,-45.8 23.12,-29.15"/>
<polygon fill="midnightblue" stroke="midnightblue" points="26.49,-30.08 25.9,-19.5 19.77,-28.14 26.49,-30.08"/>
</g>
<!-- Node6 -->
<g id="node6" class="node">
<title>Node6</title>
<g id="a_node6"><a xlink:title=" ">
<polygon fill="none" stroke="#bfbfbf" points="213,-62 213,-81 351,-81 351,-62 213,-62"/>
<text text-anchor="middle" x="282" y="-69" font-family="Helvetica,sans-Serif" font-size="10.00">benchmark/benchmark.h</text>
</a>
</g>
</g>
<!-- Node1&#45;&gt;Node6 -->
<g id="edge5" class="edge">
<title>Node1&#45;&gt;Node6</title>
<path fill="none" stroke="midnightblue" d="M222.12,-123.36C235.37,-112.11 251.75,-98.19 264.03,-87.76"/>
<polygon fill="midnightblue" stroke="midnightblue" points="266.43,-90.31 271.79,-81.17 261.9,-84.98 266.43,-90.31"/>
</g>
<!-- Node7 -->
<g id="node7" class="node">
<title>Node7</title>
<g id="a_node7"><a xlink:title=" ">
<polygon fill="none" stroke="#bfbfbf" points="369.5,-62 369.5,-81 416.5,-81 416.5,-62 369.5,-62"/>
<text text-anchor="middle" x="393" y="-69" font-family="Helvetica,sans-Serif" font-size="10.00">vector</text>
</a>
</g>
</g>
<!-- Node1&#45;&gt;Node7 -->
<g id="edge7" class="edge">
<title>Node1&#45;&gt;Node7</title>
<path fill="none" stroke="midnightblue" d="M259.05,-123.37C289.51,-113.1 326.95,-99.99 360,-87 361.6,-86.37 363.24,-85.71 364.89,-85.03"/>
<polygon fill="midnightblue" stroke="midnightblue" points="366.43,-88.18 374.26,-81.04 363.69,-81.74 366.43,-88.18"/>
</g>
<!-- Node2&#45;&gt;Node3 -->
<g id="edge2" class="edge">
<title>Node2&#45;&gt;Node3</title>
<path fill="none" stroke="midnightblue" d="M95.38,-56.4C81.7,-47.04 63.79,-34.79 50.02,-25.38"/>
<polygon fill="midnightblue" stroke="midnightblue" points="51.89,-22.41 41.66,-19.66 47.94,-28.19 51.89,-22.41"/>
</g>
<!-- Node4 -->
<g id="node4" class="node">
<title>Node4</title>
<g id="a_node4"><a xlink:title=" ">
<polygon fill="none" stroke="#bfbfbf" points="86.5,-0.5 86.5,-19.5 123.5,-19.5 123.5,-0.5 86.5,-0.5"/>
<text text-anchor="middle" x="105" y="-7.5" font-family="Helvetica,sans-Serif" font-size="10.00">new</text>
</a>
</g>
</g>
<!-- Node2&#45;&gt;Node4 -->
<g id="edge3" class="edge">
<title>Node2&#45;&gt;Node4</title>
<path fill="none" stroke="midnightblue" d="M113.39,-56.4C111.91,-48.38 110.03,-38.23 108.43,-29.57"/>
<polygon fill="midnightblue" stroke="midnightblue" points="111.86,-28.85 106.6,-19.66 104.98,-30.13 111.86,-28.85"/>
</g>
<!-- Node5 -->
<g id="node5" class="node">
<title>Node5</title>
<g id="a_node5"><a xlink:title=" ">
<polygon fill="none" stroke="#bfbfbf" points="141.5,-0.5 141.5,-19.5 210.5,-19.5 210.5,-0.5 141.5,-0.5"/>
<text text-anchor="middle" x="176" y="-7.5" font-family="Helvetica,sans-Serif" font-size="10.00">type_traits</text>
</a>
</g>
</g>
<!-- Node2&#45;&gt;Node5 -->
<g id="edge4" class="edge">
<title>Node2&#45;&gt;Node5</title>
<path fill="none" stroke="midnightblue" d="M130.22,-56.4C139.21,-47.49 150.84,-35.95 160.13,-26.74"/>
<polygon fill="midnightblue" stroke="midnightblue" points="162.63,-29.18 167.27,-19.66 157.7,-24.21 162.63,-29.18"/>
</g>
</g>
</svg>
