<?xml version="1.0" encoding="UTF-8" standalone="no"?>
<!DOCTYPE svg PUBLIC "-//W3C//DTD SVG 1.1//EN"
 "http://www.w3.org/Graphics/SVG/1.1/DTD/svg11.dtd">
<!-- Generated by graphviz version 2.43.0 (0)
 -->
<!-- Title: librawspeed/decompressors/HuffmanTableLookup.h Pages: 1 -->
<!--zoomable 442 -->
<svg id="main" version="1.1" xmlns="http://www.w3.org/2000/svg" xmlns:xlink="http://www.w3.org/1999/xlink" xml:space="preserve" onload="init(evt)">
<style type="text/css"><![CDATA[
.edge:hover path { stroke: red; }
.edge:hover polygon { stroke: red; fill: red; }
]]></style>
<script type="text/javascript"><![CDATA[
var edges = document.getElementsByTagName('g');
if (edges && edges.length) {
  for (var i=0;i<edges.length;i++) {
    if (edges[i].id.substr(0,4)=='edge') {
      edges[i].setAttribute('class','edge');
    }
  }
}
]]></script>
        <defs>
                <circle id="rim" cx="0" cy="0" r="7"/>
                <circle id="rim2" cx="0" cy="0" r="3.5"/>
                <g id="zoomPlus">
                        <use xlink:href="#rim" fill="#404040">
                                <set attributeName="fill" to="#808080" begin="zoomplus.mouseover" end="zoomplus.mouseout"/>
                        </use>
                        <path d="M-4,0h8M0,-4v8" fill="none" stroke="white" stroke-width="1.5" pointer-events="none"/>
                </g>
                <g id="zoomMin">
                        <use xlink:href="#rim" fill="#404040">
                                <set attributeName="fill" to="#808080" begin="zoomminus.mouseover" end="zoomminus.mouseout"/>
                        </use>
                        <path d="M-4,0h8" fill="none" stroke="white" stroke-width="1.5" pointer-events="none"/>
                </g>
                <g id="dirArrow">
                        <path fill="none" stroke="white" stroke-width="1.5" d="M0,-3.0v7 M-2.5,-0.5L0,-3.0L2.5,-0.5"/>
                </g>
               <g id="resetDef">
                       <use xlink:href="#rim2" fill="#404040">
                               <set attributeName="fill" to="#808080" begin="reset.mouseover" end="reset.mouseout"/>
                       </use>
               </g>
        </defs>

<script type="text/javascript">
var viewWidth = 1889;
var viewHeight = 442;
var sectionId = 'dynsection-0';
</script>
<script xlink:href="../../svgpan.js"/>
<svg id="graph" class="graph">
<g id="viewport">
<title>librawspeed/decompressors/HuffmanTableLookup.h</title>
<!-- Node1 -->
<g id="node1" class="node">
<title>Node1</title>
<g id="a_node1"><a xlink:title=" ">
<polygon fill="#bfbfbf" stroke="black" points="1506.5,-403.5 1506.5,-433.5 1659.5,-433.5 1659.5,-403.5 1506.5,-403.5"/>
<text text-anchor="start" x="1514.5" y="-421.5" font-family="Helvetica,sans-Serif" font-size="10.00">librawspeed/decompressors</text>
<text text-anchor="middle" x="1583" y="-410.5" font-family="Helvetica,sans-Serif" font-size="10.00">/HuffmanTableLookup.h</text>
</a>
</g>
</g>
<!-- Node2 -->
<g id="node2" class="node">
<title>Node2</title>
<g id="a_node2"><a xlink:href="../../d0/daf/_raw_decoder_exception_8h.html" target="_top" xlink:title=" ">
<polygon fill="none" stroke="black" points="523,-168.5 523,-187.5 705,-187.5 705,-168.5 523,-168.5"/>
<text text-anchor="middle" x="614" y="-175.5" font-family="Helvetica,sans-Serif" font-size="10.00">decoders/RawDecoderException.h</text>
</a>
</g>
</g>
<!-- Node1&#45;&gt;Node2 -->
<g id="edge1" class="edge">
<title>Node1&#45;&gt;Node2</title>
<path fill="none" stroke="midnightblue" d="M1506.19,-414.66C1398.1,-409.73 1195.26,-397.08 1025,-367 929.45,-350.12 902.54,-350.69 814,-311 741.86,-278.66 666.62,-221.61 632.63,-194.34"/>
<polygon fill="midnightblue" stroke="midnightblue" points="634.51,-191.36 624.54,-187.79 630.11,-196.8 634.51,-191.36"/>
</g>
<!-- Node7 -->
<g id="node7" class="node">
<title>Node7</title>
<g id="a_node7"><a xlink:title=" ">
<polygon fill="none" stroke="#bfbfbf" points="1284,-0.5 1284,-19.5 1336,-19.5 1336,-0.5 1284,-0.5"/>
<text text-anchor="middle" x="1310" y="-7.5" font-family="Helvetica,sans-Serif" font-size="10.00">cassert</text>
</a>
</g>
</g>
<!-- Node1&#45;&gt;Node7 -->
<g id="edge70" class="edge">
<title>Node1&#45;&gt;Node7</title>
<path fill="none" stroke="midnightblue" d="M1650.79,-403.48C1705.35,-387.76 1773,-356.24 1773,-296.5 1773,-296.5 1773,-296.5 1773,-177 1773,-86.51 1455.65,-32.07 1346.42,-16.02"/>
<polygon fill="midnightblue" stroke="midnightblue" points="1346.62,-12.51 1336.22,-14.54 1345.62,-19.44 1346.62,-12.51"/>
</g>
<!-- Node9 -->
<g id="node9" class="node">
<title>Node9</title>
<g id="a_node9"><a xlink:title=" ">
<polygon fill="none" stroke="#bfbfbf" points="1570,-0.5 1570,-19.5 1620,-19.5 1620,-0.5 1570,-0.5"/>
<text text-anchor="middle" x="1595" y="-7.5" font-family="Helvetica,sans-Serif" font-size="10.00">cstdint</text>
</a>
</g>
</g>
<!-- Node1&#45;&gt;Node9 -->
<g id="edge71" class="edge">
<title>Node1&#45;&gt;Node9</title>
<path fill="none" stroke="midnightblue" d="M1659.64,-406.34C1709.36,-397.66 1768.25,-384.21 1787,-367 1811.38,-344.62 1811,-329.6 1811,-296.5 1811,-296.5 1811,-296.5 1811,-121 1811,-40.84 1691.42,-19.07 1630.2,-13.18"/>
<polygon fill="midnightblue" stroke="midnightblue" points="1630.47,-9.69 1620.2,-12.3 1629.86,-16.66 1630.47,-9.69"/>
</g>
<!-- Node14 -->
<g id="node14" class="node">
<title>Node14</title>
<g id="a_node14"><a xlink:title=" ">
<polygon fill="none" stroke="#bfbfbf" points="14.5,-0.5 14.5,-19.5 61.5,-19.5 61.5,-0.5 14.5,-0.5"/>
<text text-anchor="middle" x="38" y="-7.5" font-family="Helvetica,sans-Serif" font-size="10.00">vector</text>
</a>
</g>
</g>
<!-- Node1&#45;&gt;Node14 -->
<g id="edge75" class="edge">
<title>Node1&#45;&gt;Node14</title>
<path fill="none" stroke="midnightblue" d="M1506.38,-415.7C1189.77,-407.79 0,-372.97 0,-296.5 0,-296.5 0,-296.5 0,-121 0,-86.81 16.6,-49.76 27.86,-28.57"/>
<polygon fill="midnightblue" stroke="midnightblue" points="30.95,-30.22 32.72,-19.77 24.82,-26.83 30.95,-30.22"/>
</g>
<!-- Node19 -->
<g id="node19" class="node">
<title>Node19</title>
<g id="a_node19"><a xlink:href="../../dc/d41/_abstract_huffman_table_8h.html" target="_top" xlink:title=" ">
<polygon fill="none" stroke="black" points="237,-280.5 237,-310.5 413,-310.5 413,-280.5 237,-280.5"/>
<text text-anchor="start" x="245" y="-298.5" font-family="Helvetica,sans-Serif" font-size="10.00">decompressors/AbstractHuffman</text>
<text text-anchor="middle" x="325" y="-287.5" font-family="Helvetica,sans-Serif" font-size="10.00">Table.h</text>
</a>
</g>
</g>
<!-- Node1&#45;&gt;Node19 -->
<g id="edge19" class="edge">
<title>Node1&#45;&gt;Node19</title>
<path fill="none" stroke="midnightblue" d="M1506.48,-416.17C1300.82,-412.2 739.4,-398.7 557,-367 490.79,-355.49 416.93,-330.92 370.72,-314.05"/>
<polygon fill="midnightblue" stroke="midnightblue" points="371.88,-310.75 361.29,-310.58 369.46,-317.32 371.88,-310.75"/>
</g>
<!-- Node26 -->
<g id="node26" class="node">
<title>Node26</title>
<g id="a_node26"><a xlink:title=" ">
<polygon fill="none" stroke="#bfbfbf" points="1433,-168.5 1433,-187.5 1491,-187.5 1491,-168.5 1433,-168.5"/>
<text text-anchor="middle" x="1462" y="-175.5" font-family="Helvetica,sans-Serif" font-size="10.00">memory</text>
</a>
</g>
</g>
<!-- Node1&#45;&gt;Node26 -->
<g id="edge72" class="edge">
<title>Node1&#45;&gt;Node26</title>
<path fill="none" stroke="midnightblue" d="M1575.79,-403.29C1554.89,-362.09 1494.24,-242.55 1471.11,-196.96"/>
<polygon fill="midnightblue" stroke="midnightblue" points="1474.18,-195.28 1466.54,-187.95 1467.94,-198.45 1474.18,-195.28"/>
</g>
<!-- Node27 -->
<g id="node27" class="node">
<title>Node27</title>
<g id="a_node27"><a xlink:title=" ">
<polygon fill="none" stroke="#bfbfbf" points="1547.5,-168.5 1547.5,-187.5 1592.5,-187.5 1592.5,-168.5 1547.5,-168.5"/>
<text text-anchor="middle" x="1570" y="-175.5" font-family="Helvetica,sans-Serif" font-size="10.00">utility</text>
</a>
</g>
</g>
<!-- Node1&#45;&gt;Node27 -->
<g id="edge74" class="edge">
<title>Node1&#45;&gt;Node27</title>
<path fill="none" stroke="midnightblue" d="M1588.1,-403.13C1591.37,-393.14 1595.31,-379.44 1597,-367 1605.57,-304.02 1613.97,-285.25 1597,-224 1594.21,-213.92 1588.49,-203.83 1583.03,-195.77"/>
<polygon fill="midnightblue" stroke="midnightblue" points="1585.85,-193.69 1577.15,-187.64 1580.18,-197.79 1585.85,-193.69"/>
</g>
<!-- Node31 -->
<g id="node31" class="node">
<title>Node31</title>
<g id="a_node31"><a xlink:href="../../d7/dc3/_bit_stream_8h.html" target="_top" xlink:title=" ">
<polygon fill="none" stroke="black" points="1034,-347.5 1034,-366.5 1120,-366.5 1120,-347.5 1034,-347.5"/>
<text text-anchor="middle" x="1077" y="-354.5" font-family="Helvetica,sans-Serif" font-size="10.00">io/BitStream.h</text>
</a>
</g>
</g>
<!-- Node1&#45;&gt;Node31 -->
<g id="edge50" class="edge">
<title>Node1&#45;&gt;Node31</title>
<path fill="none" stroke="midnightblue" d="M1506.42,-408.5C1402.67,-396.3 1220.11,-374.83 1130.15,-364.25"/>
<polygon fill="midnightblue" stroke="midnightblue" points="1130.51,-360.77 1120.17,-363.08 1129.7,-367.72 1130.51,-360.77"/>
</g>
<!-- Node34 -->
<g id="node34" class="node">
<title>Node34</title>
<g id="a_node34"><a xlink:title=" ">
<polygon fill="none" stroke="#bfbfbf" points="1839.5,-347.5 1839.5,-366.5 1880.5,-366.5 1880.5,-347.5 1839.5,-347.5"/>
<text text-anchor="middle" x="1860" y="-354.5" font-family="Helvetica,sans-Serif" font-size="10.00">tuple</text>
</a>
</g>
</g>
<!-- Node1&#45;&gt;Node34 -->
<g id="edge73" class="edge">
<title>Node1&#45;&gt;Node34</title>
<path fill="none" stroke="midnightblue" d="M1654.4,-403.5C1702.69,-393.81 1767.84,-380.31 1825,-367 1826.45,-366.66 1827.93,-366.31 1829.43,-365.95"/>
<polygon fill="midnightblue" stroke="midnightblue" points="1830.45,-369.3 1839.31,-363.49 1828.76,-362.51 1830.45,-369.3"/>
</g>
<!-- Node3 -->
<g id="node3" class="node">
<title>Node3</title>
<g id="a_node3"><a xlink:title=" ">
<polygon fill="none" stroke="#bfbfbf" points="869,-56.5 869,-75.5 971,-75.5 971,-56.5 869,-56.5"/>
<text text-anchor="middle" x="920" y="-63.5" font-family="Helvetica,sans-Serif" font-size="10.00">rawspeedconfig.h</text>
</a>
</g>
</g>
<!-- Node2&#45;&gt;Node3 -->
<g id="edge2" class="edge">
<title>Node2&#45;&gt;Node3</title>
<path fill="none" stroke="midnightblue" d="M705.04,-172.58C751.74,-167.25 808.26,-155.91 854,-132 876.16,-120.42 895.75,-98.93 907.72,-83.84"/>
<polygon fill="midnightblue" stroke="midnightblue" points="910.55,-85.89 913.84,-75.81 904.99,-81.64 910.55,-85.89"/>
</g>
<!-- Node4 -->
<g id="node4" class="node">
<title>Node4</title>
<g id="a_node4"><a xlink:href="../../d7/d05/_rawspeed_exception_8h.html" target="_top" xlink:title=" ">
<polygon fill="none" stroke="black" points="675,-112.5 675,-131.5 845,-131.5 845,-112.5 675,-112.5"/>
<text text-anchor="middle" x="760" y="-119.5" font-family="Helvetica,sans-Serif" font-size="10.00">common/RawspeedException.h</text>
</a>
</g>
</g>
<!-- Node2&#45;&gt;Node4 -->
<g id="edge3" class="edge">
<title>Node2&#45;&gt;Node4</title>
<path fill="none" stroke="midnightblue" d="M637.13,-168.44C661.48,-159.44 700.01,-145.19 727.42,-135.05"/>
<polygon fill="midnightblue" stroke="midnightblue" points="728.81,-138.27 736.97,-131.52 726.38,-131.7 728.81,-138.27"/>
</g>
<!-- Node4&#45;&gt;Node3 -->
<g id="edge4" class="edge">
<title>Node4&#45;&gt;Node3</title>
<path fill="none" stroke="midnightblue" d="M785.35,-112.44C812.27,-103.36 855,-88.94 885.09,-78.78"/>
<polygon fill="midnightblue" stroke="midnightblue" points="886.41,-82.03 894.77,-75.52 884.17,-75.4 886.41,-82.03"/>
</g>
<!-- Node5 -->
<g id="node5" class="node">
<title>Node5</title>
<g id="a_node5"><a xlink:href="../../d9/df5/src_2librawspeed_2common_2_common_8h.html" target="_top" xlink:title=" ">
<polygon fill="none" stroke="black" points="351,-56.5 351,-75.5 467,-75.5 467,-56.5 351,-56.5"/>
<text text-anchor="middle" x="409" y="-63.5" font-family="Helvetica,sans-Serif" font-size="10.00">common/Common.h</text>
</a>
</g>
</g>
<!-- Node4&#45;&gt;Node5 -->
<g id="edge5" class="edge">
<title>Node4&#45;&gt;Node5</title>
<path fill="none" stroke="midnightblue" d="M704.38,-112.44C641.87,-102.83 540.48,-87.23 474.27,-77.04"/>
<polygon fill="midnightblue" stroke="midnightblue" points="474.77,-73.58 464.36,-75.52 473.71,-80.5 474.77,-73.58"/>
</g>
<!-- Node15 -->
<g id="node15" class="node">
<title>Node15</title>
<g id="a_node15"><a xlink:title=" ">
<polygon fill="none" stroke="#bfbfbf" points="809,-56.5 809,-75.5 851,-75.5 851,-56.5 809,-56.5"/>
<text text-anchor="middle" x="830" y="-63.5" font-family="Helvetica,sans-Serif" font-size="10.00">array</text>
</a>
</g>
</g>
<!-- Node4&#45;&gt;Node15 -->
<g id="edge15" class="edge">
<title>Node4&#45;&gt;Node15</title>
<path fill="none" stroke="midnightblue" d="M771.25,-112.32C781.8,-104.18 797.8,-91.84 810.44,-82.09"/>
<polygon fill="midnightblue" stroke="midnightblue" points="812.77,-84.71 818.55,-75.83 808.49,-79.17 812.77,-84.71"/>
</g>
<!-- Node16 -->
<g id="node16" class="node">
<title>Node16</title>
<g id="a_node16"><a xlink:title=" ">
<polygon fill="none" stroke="#bfbfbf" points="673.5,-56.5 673.5,-75.5 726.5,-75.5 726.5,-56.5 673.5,-56.5"/>
<text text-anchor="middle" x="700" y="-63.5" font-family="Helvetica,sans-Serif" font-size="10.00">cstdarg</text>
</a>
</g>
</g>
<!-- Node4&#45;&gt;Node16 -->
<g id="edge16" class="edge">
<title>Node4&#45;&gt;Node16</title>
<path fill="none" stroke="midnightblue" d="M750.36,-112.32C741.49,-104.34 728.13,-92.31 717.39,-82.65"/>
<polygon fill="midnightblue" stroke="midnightblue" points="719.59,-79.92 709.82,-75.83 714.91,-85.13 719.59,-79.92"/>
</g>
<!-- Node17 -->
<g id="node17" class="node">
<title>Node17</title>
<g id="a_node17"><a xlink:title=" ">
<polygon fill="none" stroke="#bfbfbf" points="745,-56.5 745,-75.5 791,-75.5 791,-56.5 745,-56.5"/>
<text text-anchor="middle" x="768" y="-63.5" font-family="Helvetica,sans-Serif" font-size="10.00">cstdio</text>
</a>
</g>
</g>
<!-- Node4&#45;&gt;Node17 -->
<g id="edge17" class="edge">
<title>Node4&#45;&gt;Node17</title>
<path fill="none" stroke="midnightblue" d="M761.32,-112.08C762.38,-104.93 763.91,-94.64 765.23,-85.69"/>
<polygon fill="midnightblue" stroke="midnightblue" points="768.7,-86.16 766.7,-75.75 761.78,-85.13 768.7,-86.16"/>
</g>
<!-- Node18 -->
<g id="node18" class="node">
<title>Node18</title>
<g id="a_node18"><a xlink:title=" ">
<polygon fill="none" stroke="#bfbfbf" points="590.5,-56.5 590.5,-75.5 655.5,-75.5 655.5,-56.5 590.5,-56.5"/>
<text text-anchor="middle" x="623" y="-63.5" font-family="Helvetica,sans-Serif" font-size="10.00">stdexcept</text>
</a>
</g>
</g>
<!-- Node4&#45;&gt;Node18 -->
<g id="edge18" class="edge">
<title>Node4&#45;&gt;Node18</title>
<path fill="none" stroke="midnightblue" d="M738.29,-112.44C715.65,-103.52 679.93,-89.44 654.25,-79.32"/>
<polygon fill="midnightblue" stroke="midnightblue" points="655.19,-75.93 644.61,-75.52 652.63,-82.44 655.19,-75.93"/>
</g>
<!-- Node6 -->
<g id="node6" class="node">
<title>Node6</title>
<g id="a_node6"><a xlink:title=" ">
<polygon fill="none" stroke="#bfbfbf" points="82,-0.5 82,-19.5 146,-19.5 146,-0.5 82,-0.5"/>
<text text-anchor="middle" x="114" y="-7.5" font-family="Helvetica,sans-Serif" font-size="10.00">algorithm</text>
</a>
</g>
</g>
<!-- Node5&#45;&gt;Node6 -->
<g id="edge6" class="edge">
<title>Node5&#45;&gt;Node6</title>
<path fill="none" stroke="midnightblue" d="M362.26,-56.44C305.63,-46.08 211.06,-28.77 156.44,-18.77"/>
<polygon fill="midnightblue" stroke="midnightblue" points="156.87,-15.29 146.4,-16.93 155.61,-22.17 156.87,-15.29"/>
</g>
<!-- Node5&#45;&gt;Node7 -->
<g id="edge7" class="edge">
<title>Node5&#45;&gt;Node7</title>
<path fill="none" stroke="midnightblue" d="M467.21,-59.97C483.92,-58.59 502.18,-57.17 519,-56 809.79,-35.84 1161.17,-18.22 1273.58,-12.75"/>
<polygon fill="midnightblue" stroke="midnightblue" points="1273.88,-16.24 1283.7,-12.26 1273.54,-9.25 1273.88,-16.24"/>
</g>
<!-- Node8 -->
<g id="node8" class="node">
<title>Node8</title>
<g id="a_node8"><a xlink:title=" ">
<polygon fill="none" stroke="#bfbfbf" points="258,-0.5 258,-19.5 308,-19.5 308,-0.5 258,-0.5"/>
<text text-anchor="middle" x="283" y="-7.5" font-family="Helvetica,sans-Serif" font-size="10.00">climits</text>
</a>
</g>
</g>
<!-- Node5&#45;&gt;Node8 -->
<g id="edge8" class="edge">
<title>Node5&#45;&gt;Node8</title>
<path fill="none" stroke="midnightblue" d="M389.03,-56.44C368.39,-47.6 335.94,-33.69 312.37,-23.59"/>
<polygon fill="midnightblue" stroke="midnightblue" points="313.44,-20.24 302.87,-19.52 310.68,-26.67 313.44,-20.24"/>
</g>
<!-- Node5&#45;&gt;Node9 -->
<g id="edge9" class="edge">
<title>Node5&#45;&gt;Node9</title>
<path fill="none" stroke="midnightblue" d="M467.06,-61.87C500.64,-60.09 543.7,-57.85 582,-56 965.11,-37.53 1429.85,-17.9 1559.78,-12.47"/>
<polygon fill="midnightblue" stroke="midnightblue" points="1560.09,-15.96 1569.94,-12.04 1559.8,-8.96 1560.09,-15.96"/>
</g>
<!-- Node10 -->
<g id="node10" class="node">
<title>Node10</title>
<g id="a_node10"><a xlink:title=" ">
<polygon fill="none" stroke="#bfbfbf" points="776,-0.5 776,-19.5 826,-19.5 826,-0.5 776,-0.5"/>
<text text-anchor="middle" x="801" y="-7.5" font-family="Helvetica,sans-Serif" font-size="10.00">cstring</text>
</a>
</g>
</g>
<!-- Node5&#45;&gt;Node10 -->
<g id="edge10" class="edge">
<title>Node5&#45;&gt;Node10</title>
<path fill="none" stroke="midnightblue" d="M467.26,-56.97C549.66,-45.62 697.72,-25.23 765.44,-15.9"/>
<polygon fill="midnightblue" stroke="midnightblue" points="766.17,-19.33 775.6,-14.5 765.22,-12.4 766.17,-19.33"/>
</g>
<!-- Node11 -->
<g id="node11" class="node">
<title>Node11</title>
<g id="a_node11"><a xlink:title=" ">
<polygon fill="none" stroke="#bfbfbf" points="326.5,-0.5 326.5,-19.5 409.5,-19.5 409.5,-0.5 326.5,-0.5"/>
<text text-anchor="middle" x="368" y="-7.5" font-family="Helvetica,sans-Serif" font-size="10.00">initializer_list</text>
</a>
</g>
</g>
<!-- Node5&#45;&gt;Node11 -->
<g id="edge11" class="edge">
<title>Node5&#45;&gt;Node11</title>
<path fill="none" stroke="midnightblue" d="M402.23,-56.08C396.44,-48.46 387.94,-37.26 380.86,-27.94"/>
<polygon fill="midnightblue" stroke="midnightblue" points="383.48,-25.6 374.64,-19.75 377.9,-29.83 383.48,-25.6"/>
</g>
<!-- Node12 -->
<g id="node12" class="node">
<title>Node12</title>
<g id="a_node12"><a xlink:title=" ">
<polygon fill="none" stroke="#bfbfbf" points="428,-0.5 428,-19.5 472,-19.5 472,-0.5 428,-0.5"/>
<text text-anchor="middle" x="450" y="-7.5" font-family="Helvetica,sans-Serif" font-size="10.00">string</text>
</a>
</g>
</g>
<!-- Node5&#45;&gt;Node12 -->
<g id="edge12" class="edge">
<title>Node5&#45;&gt;Node12</title>
<path fill="none" stroke="midnightblue" d="M415.77,-56.08C421.56,-48.46 430.06,-37.26 437.14,-27.94"/>
<polygon fill="midnightblue" stroke="midnightblue" points="440.1,-29.83 443.36,-19.75 434.52,-25.6 440.1,-29.83"/>
</g>
<!-- Node13 -->
<g id="node13" class="node">
<title>Node13</title>
<g id="a_node13"><a xlink:title=" ">
<polygon fill="none" stroke="#bfbfbf" points="490.5,-0.5 490.5,-19.5 559.5,-19.5 559.5,-0.5 490.5,-0.5"/>
<text text-anchor="middle" x="525" y="-7.5" font-family="Helvetica,sans-Serif" font-size="10.00">type_traits</text>
</a>
</g>
</g>
<!-- Node5&#45;&gt;Node13 -->
<g id="edge13" class="edge">
<title>Node5&#45;&gt;Node13</title>
<path fill="none" stroke="midnightblue" d="M427.38,-56.44C446.22,-47.68 475.73,-33.94 497.38,-23.86"/>
<polygon fill="midnightblue" stroke="midnightblue" points="499.12,-26.91 506.71,-19.52 496.16,-20.56 499.12,-26.91"/>
</g>
<!-- Node5&#45;&gt;Node14 -->
<g id="edge14" class="edge">
<title>Node5&#45;&gt;Node14</title>
<path fill="none" stroke="midnightblue" d="M350.99,-59.34C283.74,-52.3 169.76,-38.85 73,-20 72.54,-19.91 72.07,-19.82 71.61,-19.72"/>
<polygon fill="midnightblue" stroke="midnightblue" points="72.16,-16.26 61.64,-17.48 70.63,-23.09 72.16,-16.26"/>
</g>
<!-- Node19&#45;&gt;Node2 -->
<g id="edge21" class="edge">
<title>Node19&#45;&gt;Node2</title>
<path fill="none" stroke="midnightblue" d="M369.16,-280.42C398.32,-270.83 437.25,-257.47 471,-244 512.23,-227.54 558.86,-205.73 587.34,-192.03"/>
<polygon fill="midnightblue" stroke="midnightblue" points="589.14,-195.04 596.62,-187.54 586.09,-188.74 589.14,-195.04"/>
</g>
<!-- Node19&#45;&gt;Node5 -->
<g id="edge20" class="edge">
<title>Node19&#45;&gt;Node5</title>
<path fill="none" stroke="midnightblue" d="M337.57,-280.4C345.58,-270.75 355.62,-257.34 362,-244 387.88,-189.86 401.15,-119.34 406.33,-86.02"/>
<polygon fill="midnightblue" stroke="midnightblue" points="409.83,-86.28 407.84,-75.87 402.91,-85.25 409.83,-86.28"/>
</g>
<!-- Node19&#45;&gt;Node6 -->
<g id="edge42" class="edge">
<title>Node19&#45;&gt;Node6</title>
<path fill="none" stroke="midnightblue" d="M236.87,-290.01C200.51,-283.84 160.54,-270.8 133,-244 111.43,-223.01 114,-209.1 114,-179 114,-179 114,-179 114,-121 114,-88.95 114,-51.64 114,-29.75"/>
<polygon fill="midnightblue" stroke="midnightblue" points="117.5,-29.56 114,-19.56 110.5,-29.56 117.5,-29.56"/>
</g>
<!-- Node19&#45;&gt;Node7 -->
<g id="edge43" class="edge">
<title>Node19&#45;&gt;Node7</title>
<path fill="none" stroke="midnightblue" d="M340.18,-280.35C395.07,-229.19 580.09,-56.82 582,-56 645.88,-28.62 1135.56,-15.11 1273.78,-11.81"/>
<polygon fill="midnightblue" stroke="midnightblue" points="1273.93,-15.31 1283.85,-11.58 1273.77,-8.31 1273.93,-15.31"/>
</g>
<!-- Node19&#45;&gt;Node9 -->
<g id="edge45" class="edge">
<title>Node19&#45;&gt;Node9</title>
<path fill="none" stroke="midnightblue" d="M413.08,-294.19C689.47,-292.29 1525.81,-278.98 1602,-188 1640.29,-142.27 1616.55,-64.25 1602.79,-29.1"/>
<polygon fill="midnightblue" stroke="midnightblue" points="1605.95,-27.58 1598.92,-19.66 1599.47,-30.24 1605.95,-27.58"/>
</g>
<!-- Node19&#45;&gt;Node14 -->
<g id="edge49" class="edge">
<title>Node19&#45;&gt;Node14</title>
<path fill="none" stroke="midnightblue" d="M236.9,-282.08C187.85,-273.51 133.11,-260.66 115,-244 51.68,-185.74 40.35,-74.4 38.38,-29.98"/>
<polygon fill="midnightblue" stroke="midnightblue" points="41.87,-29.64 38.05,-19.76 34.88,-29.87 41.87,-29.64"/>
</g>
<!-- Node20 -->
<g id="node20" class="node">
<title>Node20</title>
<g id="a_node20"><a xlink:href="../../d7/d1b/_buffer_8h.html" target="_top" xlink:title=" ">
<polygon fill="none" stroke="black" points="1213,-224.5 1213,-243.5 1279,-243.5 1279,-224.5 1213,-224.5"/>
<text text-anchor="middle" x="1246" y="-231.5" font-family="Helvetica,sans-Serif" font-size="10.00">io/Buffer.h</text>
</a>
</g>
</g>
<!-- Node19&#45;&gt;Node20 -->
<g id="edge22" class="edge">
<title>Node19&#45;&gt;Node20</title>
<path fill="none" stroke="midnightblue" d="M413.24,-290.35C565.39,-282.93 886.88,-266.07 1158,-244 1172.53,-242.82 1188.39,-241.27 1202.59,-239.8"/>
<polygon fill="midnightblue" stroke="midnightblue" points="1203.02,-243.27 1212.6,-238.74 1202.29,-236.31 1203.02,-243.27"/>
</g>
<!-- Node22 -->
<g id="node22" class="node">
<title>Node22</title>
<g id="a_node22"><a xlink:title=" ">
<polygon fill="none" stroke="#bfbfbf" points="1103.5,-112.5 1103.5,-131.5 1156.5,-131.5 1156.5,-112.5 1103.5,-112.5"/>
<text text-anchor="middle" x="1130" y="-119.5" font-family="Helvetica,sans-Serif" font-size="10.00">cstddef</text>
</a>
</g>
</g>
<!-- Node19&#45;&gt;Node22 -->
<g id="edge44" class="edge">
<title>Node19&#45;&gt;Node22</title>
<path fill="none" stroke="midnightblue" d="M373.9,-280.49C463.39,-255.24 659.79,-201.6 828,-168 922.94,-149.04 1036.12,-134.23 1093.2,-127.3"/>
<polygon fill="midnightblue" stroke="midnightblue" points="1093.67,-130.76 1103.18,-126.1 1092.84,-123.82 1093.67,-130.76"/>
</g>
<!-- Node28 -->
<g id="node28" class="node">
<title>Node28</title>
<g id="a_node28"><a xlink:title=" ">
<polygon fill="none" stroke="#bfbfbf" points="142.5,-224.5 142.5,-243.5 207.5,-243.5 207.5,-224.5 142.5,-224.5"/>
<text text-anchor="middle" x="175" y="-231.5" font-family="Helvetica,sans-Serif" font-size="10.00">functional</text>
</a>
</g>
</g>
<!-- Node19&#45;&gt;Node28 -->
<g id="edge46" class="edge">
<title>Node19&#45;&gt;Node28</title>
<path fill="none" stroke="midnightblue" d="M289.45,-280.4C264.17,-270.37 230.53,-257.03 206.27,-247.4"/>
<polygon fill="midnightblue" stroke="midnightblue" points="207.41,-244.09 196.83,-243.66 204.83,-250.6 207.41,-244.09"/>
</g>
<!-- Node29 -->
<g id="node29" class="node">
<title>Node29</title>
<g id="a_node29"><a xlink:title=" ">
<polygon fill="none" stroke="#bfbfbf" points="225.5,-224.5 225.5,-243.5 278.5,-243.5 278.5,-224.5 225.5,-224.5"/>
<text text-anchor="middle" x="252" y="-231.5" font-family="Helvetica,sans-Serif" font-size="10.00">iterator</text>
</a>
</g>
</g>
<!-- Node19&#45;&gt;Node29 -->
<g id="edge47" class="edge">
<title>Node19&#45;&gt;Node29</title>
<path fill="none" stroke="midnightblue" d="M307.7,-280.4C296.55,-271.31 282.05,-259.49 270.64,-250.19"/>
<polygon fill="midnightblue" stroke="midnightblue" points="272.58,-247.26 262.62,-243.66 268.16,-252.69 272.58,-247.26"/>
</g>
<!-- Node30 -->
<g id="node30" class="node">
<title>Node30</title>
<g id="a_node30"><a xlink:title=" ">
<polygon fill="none" stroke="#bfbfbf" points="297,-224.5 297,-243.5 353,-243.5 353,-224.5 297,-224.5"/>
<text text-anchor="middle" x="325" y="-231.5" font-family="Helvetica,sans-Serif" font-size="10.00">numeric</text>
</a>
</g>
</g>
<!-- Node19&#45;&gt;Node30 -->
<g id="edge48" class="edge">
<title>Node19&#45;&gt;Node30</title>
<path fill="none" stroke="midnightblue" d="M325,-280.4C325,-272.47 325,-262.46 325,-253.86"/>
<polygon fill="midnightblue" stroke="midnightblue" points="328.5,-253.66 325,-243.66 321.5,-253.66 328.5,-253.66"/>
</g>
<!-- Node20&#45;&gt;Node5 -->
<g id="edge25" class="edge">
<title>Node20&#45;&gt;Node5</title>
<path fill="none" stroke="midnightblue" d="M1212.91,-224.81C1157.28,-211.29 1041.35,-184.19 942,-168 801.18,-145.06 759.37,-173.95 623,-132 604.76,-126.39 602.81,-118.86 585,-112 545.75,-96.9 499.64,-85.32 464.47,-77.69"/>
<polygon fill="midnightblue" stroke="midnightblue" points="464.9,-74.2 454.39,-75.55 463.44,-81.05 464.9,-74.2"/>
</g>
<!-- Node20&#45;&gt;Node7 -->
<g id="edge38" class="edge">
<title>Node20&#45;&gt;Node7</title>
<path fill="none" stroke="midnightblue" d="M1267.48,-224.36C1282.39,-217.09 1301.11,-205.12 1310,-188 1336.98,-136.06 1323.81,-63.43 1315.3,-29.65"/>
<polygon fill="midnightblue" stroke="midnightblue" points="1318.63,-28.52 1312.66,-19.77 1311.86,-30.33 1318.63,-28.52"/>
</g>
<!-- Node20&#45;&gt;Node9 -->
<g id="edge39" class="edge">
<title>Node20&#45;&gt;Node9</title>
<path fill="none" stroke="midnightblue" d="M1275.17,-224.49C1299.71,-216.72 1335.28,-204.03 1364,-188 1450.99,-139.44 1541.03,-60.67 1577.8,-27.04"/>
<polygon fill="midnightblue" stroke="midnightblue" points="1580.61,-29.22 1585.59,-19.86 1575.87,-24.07 1580.61,-29.22"/>
</g>
<!-- Node21 -->
<g id="node21" class="node">
<title>Node21</title>
<g id="a_node21"><a xlink:href="../../d2/d4f/_address_sanitizer_8h.html" target="_top" xlink:title=" ">
<polygon fill="none" stroke="black" points="1193.5,-168.5 1193.5,-187.5 1300.5,-187.5 1300.5,-168.5 1193.5,-168.5"/>
<text text-anchor="middle" x="1247" y="-175.5" font-family="Helvetica,sans-Serif" font-size="10.00">AddressSanitizer.h</text>
</a>
</g>
</g>
<!-- Node20&#45;&gt;Node21 -->
<g id="edge23" class="edge">
<title>Node20&#45;&gt;Node21</title>
<path fill="none" stroke="midnightblue" d="M1246.17,-224.08C1246.3,-217.01 1246.48,-206.86 1246.65,-197.99"/>
<polygon fill="midnightblue" stroke="midnightblue" points="1250.15,-197.81 1246.84,-187.75 1243.15,-197.68 1250.15,-197.81"/>
</g>
<!-- Node23 -->
<g id="node23" class="node">
<title>Node23</title>
<g id="a_node23"><a xlink:href="../../d3/de6/_memory_8h.html" target="_top" xlink:title=" ">
<polygon fill="none" stroke="black" points="1065,-168.5 1065,-187.5 1175,-187.5 1175,-168.5 1065,-168.5"/>
<text text-anchor="middle" x="1120" y="-175.5" font-family="Helvetica,sans-Serif" font-size="10.00">common/Memory.h</text>
</a>
</g>
</g>
<!-- Node20&#45;&gt;Node23 -->
<g id="edge26" class="edge">
<title>Node20&#45;&gt;Node23</title>
<path fill="none" stroke="midnightblue" d="M1226.03,-224.44C1205.39,-215.6 1172.94,-201.69 1149.37,-191.59"/>
<polygon fill="midnightblue" stroke="midnightblue" points="1150.44,-188.24 1139.87,-187.52 1147.68,-194.67 1150.44,-188.24"/>
</g>
<!-- Node24 -->
<g id="node24" class="node">
<title>Node24</title>
<g id="a_node24"><a xlink:href="../../d5/d0b/_endianness_8h.html" target="_top" xlink:title=" ">
<polygon fill="none" stroke="black" points="1338.5,-56.5 1338.5,-75.5 1431.5,-75.5 1431.5,-56.5 1338.5,-56.5"/>
<text text-anchor="middle" x="1385" y="-63.5" font-family="Helvetica,sans-Serif" font-size="10.00">io/Endianness.h</text>
</a>
</g>
</g>
<!-- Node20&#45;&gt;Node24 -->
<g id="edge31" class="edge">
<title>Node20&#45;&gt;Node24</title>
<path fill="none" stroke="midnightblue" d="M1279.26,-224.8C1300.13,-218.08 1326.19,-206.59 1343,-188 1369.51,-158.69 1379.45,-111.77 1383.06,-85.81"/>
<polygon fill="midnightblue" stroke="midnightblue" points="1386.54,-86.13 1384.27,-75.78 1379.59,-85.29 1386.54,-86.13"/>
</g>
<!-- Node25 -->
<g id="node25" class="node">
<title>Node25</title>
<g id="a_node25"><a xlink:href="../../d0/dd8/_i_o_exception_8h.html" target="_top" xlink:title=" ">
<polygon fill="none" stroke="black" points="837,-168.5 837,-187.5 933,-187.5 933,-168.5 837,-168.5"/>
<text text-anchor="middle" x="885" y="-175.5" font-family="Helvetica,sans-Serif" font-size="10.00">io/IOException.h</text>
</a>
</g>
</g>
<!-- Node20&#45;&gt;Node25 -->
<g id="edge35" class="edge">
<title>Node20&#45;&gt;Node25</title>
<path fill="none" stroke="midnightblue" d="M1212.69,-228.02C1151.29,-218.83 1019.62,-199.14 943.19,-187.7"/>
<polygon fill="midnightblue" stroke="midnightblue" points="943.65,-184.23 933.24,-186.22 942.61,-191.16 943.65,-184.23"/>
</g>
<!-- Node20&#45;&gt;Node26 -->
<g id="edge40" class="edge">
<title>Node20&#45;&gt;Node26</title>
<path fill="none" stroke="midnightblue" d="M1279.28,-224.68C1318.01,-215 1381.88,-199.03 1422.93,-188.77"/>
<polygon fill="midnightblue" stroke="midnightblue" points="1423.99,-192.11 1432.84,-186.29 1422.29,-185.32 1423.99,-192.11"/>
</g>
<!-- Node20&#45;&gt;Node27 -->
<g id="edge41" class="edge">
<title>Node20&#45;&gt;Node27</title>
<path fill="none" stroke="midnightblue" d="M1279.15,-227.47C1341.51,-217.08 1475.54,-194.74 1537.44,-184.43"/>
<polygon fill="midnightblue" stroke="midnightblue" points="1538.14,-187.86 1547.43,-182.76 1536.99,-180.95 1538.14,-187.86"/>
</g>
<!-- Node21&#45;&gt;Node22 -->
<g id="edge24" class="edge">
<title>Node21&#45;&gt;Node22</title>
<path fill="none" stroke="midnightblue" d="M1228.46,-168.44C1209.38,-159.64 1179.43,-145.81 1157.56,-135.72"/>
<polygon fill="midnightblue" stroke="midnightblue" points="1159,-132.53 1148.45,-131.52 1156.07,-138.88 1159,-132.53"/>
</g>
<!-- Node23&#45;&gt;Node3 -->
<g id="edge27" class="edge">
<title>Node23&#45;&gt;Node3</title>
<path fill="none" stroke="midnightblue" d="M1104.31,-168.37C1069.62,-149.29 986.22,-103.42 944.56,-80.51"/>
<polygon fill="midnightblue" stroke="midnightblue" points="946.07,-77.34 935.62,-75.59 942.7,-83.48 946.07,-77.34"/>
</g>
<!-- Node23&#45;&gt;Node5 -->
<g id="edge28" class="edge">
<title>Node23&#45;&gt;Node5</title>
<path fill="none" stroke="midnightblue" d="M1064.85,-173.85C960.9,-167.54 739.82,-152.2 666,-132 645.67,-126.44 643,-118.66 623,-112 575.31,-96.13 519.72,-84.64 477.14,-77.24"/>
<polygon fill="midnightblue" stroke="midnightblue" points="477.61,-73.77 467.17,-75.54 476.44,-80.67 477.61,-73.77"/>
</g>
<!-- Node23&#45;&gt;Node9 -->
<g id="edge30" class="edge">
<title>Node23&#45;&gt;Node9</title>
<path fill="none" stroke="midnightblue" d="M1150.41,-168.47C1207.79,-152.16 1335.71,-114.69 1441,-76 1485.73,-59.56 1536.45,-37.47 1567.06,-23.73"/>
<polygon fill="midnightblue" stroke="midnightblue" points="1568.58,-26.89 1576.26,-19.59 1565.71,-20.51 1568.58,-26.89"/>
</g>
<!-- Node23&#45;&gt;Node22 -->
<g id="edge29" class="edge">
<title>Node23&#45;&gt;Node22</title>
<path fill="none" stroke="midnightblue" d="M1121.65,-168.08C1122.98,-160.93 1124.88,-150.64 1126.54,-141.69"/>
<polygon fill="midnightblue" stroke="midnightblue" points="1130,-142.22 1128.38,-131.75 1123.12,-140.95 1130,-142.22"/>
</g>
<!-- Node24&#45;&gt;Node7 -->
<g id="edge32" class="edge">
<title>Node24&#45;&gt;Node7</title>
<path fill="none" stroke="midnightblue" d="M1372.95,-56.32C1361.54,-48.11 1344.17,-35.6 1330.57,-25.81"/>
<polygon fill="midnightblue" stroke="midnightblue" points="1332.43,-22.84 1322.27,-19.83 1328.34,-28.52 1332.43,-22.84"/>
</g>
<!-- Node24&#45;&gt;Node9 -->
<g id="edge33" class="edge">
<title>Node24&#45;&gt;Node9</title>
<path fill="none" stroke="midnightblue" d="M1418.28,-56.44C1457,-46.49 1520.66,-30.12 1560.08,-19.98"/>
<polygon fill="midnightblue" stroke="midnightblue" points="1560.98,-23.36 1569.79,-17.48 1559.23,-16.58 1560.98,-23.36"/>
</g>
<!-- Node24&#45;&gt;Node10 -->
<g id="edge34" class="edge">
<title>Node24&#45;&gt;Node10</title>
<path fill="none" stroke="midnightblue" d="M1338.2,-60.67C1224.73,-50.18 936.92,-23.57 836.35,-14.27"/>
<polygon fill="midnightblue" stroke="midnightblue" points="836.39,-10.76 826.11,-13.32 835.75,-17.73 836.39,-10.76"/>
</g>
<!-- Node25&#45;&gt;Node3 -->
<g id="edge36" class="edge">
<title>Node25&#45;&gt;Node3</title>
<path fill="none" stroke="midnightblue" d="M896.27,-168.43C905.97,-160.27 919.28,-147.05 925,-132 930.66,-117.12 928.59,-98.98 925.58,-85.64"/>
<polygon fill="midnightblue" stroke="midnightblue" points="928.9,-84.53 922.97,-75.75 922.14,-86.31 928.9,-84.53"/>
</g>
<!-- Node25&#45;&gt;Node4 -->
<g id="edge37" class="edge">
<title>Node25&#45;&gt;Node4</title>
<path fill="none" stroke="midnightblue" d="M865.19,-168.44C844.71,-159.6 812.52,-145.69 789.14,-135.59"/>
<polygon fill="midnightblue" stroke="midnightblue" points="790.28,-132.27 779.71,-131.52 787.51,-138.7 790.28,-132.27"/>
</g>
<!-- Node31&#45;&gt;Node5 -->
<g id="edge51" class="edge">
<title>Node31&#45;&gt;Node5</title>
<path fill="none" stroke="midnightblue" d="M1033.64,-354.37C931.07,-350.11 676.08,-337.17 595,-311 539.07,-292.95 519.44,-288.46 481,-244 439.48,-195.98 419.8,-120.84 412.51,-85.97"/>
<polygon fill="midnightblue" stroke="midnightblue" points="415.87,-84.91 410.5,-75.78 409,-86.27 415.87,-84.91"/>
</g>
<!-- Node31&#45;&gt;Node6 -->
<g id="edge65" class="edge">
<title>Node31&#45;&gt;Node6</title>
<path fill="none" stroke="midnightblue" d="M1033.78,-356.42C882.99,-357.48 381.01,-357.34 228,-311 172.12,-294.08 147.21,-292.7 115,-244 70.14,-176.17 95.12,-71.19 107.91,-29.23"/>
<polygon fill="midnightblue" stroke="midnightblue" points="111.29,-30.15 110.99,-19.56 104.62,-28.03 111.29,-30.15"/>
</g>
<!-- Node31&#45;&gt;Node7 -->
<g id="edge67" class="edge">
<title>Node31&#45;&gt;Node7</title>
<path fill="none" stroke="midnightblue" d="M1120.38,-354.09C1179.21,-350.45 1286.95,-340.09 1374,-311 1483.2,-274.5 1543,-286.87 1602,-188 1664.6,-83.11 1437.24,-32.4 1346.15,-16.6"/>
<polygon fill="midnightblue" stroke="midnightblue" points="1346.69,-13.15 1336.25,-14.93 1345.53,-20.05 1346.69,-13.15"/>
</g>
<!-- Node31&#45;&gt;Node9 -->
<g id="edge68" class="edge">
<title>Node31&#45;&gt;Node9</title>
<path fill="none" stroke="midnightblue" d="M1120.17,-353.74C1266.56,-344.93 1735,-306.76 1735,-179 1735,-179 1735,-179 1735,-121 1735,-67.49 1670.98,-36.05 1629.52,-21.3"/>
<polygon fill="midnightblue" stroke="midnightblue" points="1630.62,-17.98 1620.03,-18.07 1628.37,-24.6 1630.62,-17.98"/>
</g>
<!-- Node31&#45;&gt;Node10 -->
<g id="edge69" class="edge">
<title>Node31&#45;&gt;Node10</title>
<path fill="none" stroke="midnightblue" d="M1033.73,-352.26C898.85,-339.43 495,-291.61 495,-179 495,-179 495,-179 495,-121 495,-72.73 537.97,-75.78 582,-56 643.13,-28.54 721.42,-17.65 765.92,-13.47"/>
<polygon fill="midnightblue" stroke="midnightblue" points="766.29,-16.95 775.94,-12.59 765.67,-9.98 766.29,-16.95"/>
</g>
<!-- Node31&#45;&gt;Node15 -->
<g id="edge66" class="edge">
<title>Node31&#45;&gt;Node15</title>
<path fill="none" stroke="midnightblue" d="M1048.43,-347.38C992.93,-328.86 872.12,-279.33 828,-188 816.06,-163.29 845.56,-158.11 854,-132 856.73,-123.54 856.16,-120.62 854,-112 851.56,-102.25 846.56,-92.29 841.76,-84.23"/>
<polygon fill="midnightblue" stroke="midnightblue" points="844.69,-82.32 836.37,-75.77 838.79,-86.08 844.69,-82.32"/>
</g>
<!-- Node31&#45;&gt;Node20 -->
<g id="edge52" class="edge">
<title>Node31&#45;&gt;Node20</title>
<path fill="none" stroke="midnightblue" d="M1088.88,-347.49C1117.42,-327.06 1190.08,-275.04 1225.7,-249.54"/>
<polygon fill="midnightblue" stroke="midnightblue" points="1227.81,-252.33 1233.9,-243.66 1223.73,-246.64 1227.81,-252.33"/>
</g>
<!-- Node31&#45;&gt;Node24 -->
<g id="edge63" class="edge">
<title>Node31&#45;&gt;Node24</title>
<path fill="none" stroke="midnightblue" d="M1120.12,-353.87C1209.21,-346.85 1412.57,-316.79 1500,-188 1529.96,-143.86 1457.38,-100.64 1414.23,-79.83"/>
<polygon fill="midnightblue" stroke="midnightblue" points="1415.54,-76.58 1405,-75.51 1412.57,-82.92 1415.54,-76.58"/>
</g>
<!-- Node31&#45;&gt;Node25 -->
<g id="edge64" class="edge">
<title>Node31&#45;&gt;Node25</title>
<path fill="none" stroke="midnightblue" d="M1065.63,-347.29C1054.16,-338.41 1036.05,-324.11 1021,-311 975.33,-271.21 925.02,-220.4 900.36,-194.98"/>
<polygon fill="midnightblue" stroke="midnightblue" points="902.76,-192.43 893.29,-187.67 897.72,-197.29 902.76,-192.43"/>
</g>
<!-- Node32 -->
<g id="node32" class="node">
<title>Node32</title>
<g id="a_node32"><a xlink:href="../../d7/de7/_byte_stream_8h.html" target="_top" xlink:title=" ">
<polygon fill="none" stroke="black" points="1029.5,-286 1029.5,-305 1124.5,-305 1124.5,-286 1029.5,-286"/>
<text text-anchor="middle" x="1077" y="-293" font-family="Helvetica,sans-Serif" font-size="10.00">io/ByteStream.h</text>
</a>
</g>
</g>
<!-- Node31&#45;&gt;Node32 -->
<g id="edge53" class="edge">
<title>Node31&#45;&gt;Node32</title>
<path fill="none" stroke="midnightblue" d="M1077,-347.48C1077,-339.08 1077,-325.98 1077,-315.16"/>
<polygon fill="midnightblue" stroke="midnightblue" points="1080.5,-315.01 1077,-305.01 1073.5,-315.01 1080.5,-315.01"/>
</g>
<!-- Node32&#45;&gt;Node5 -->
<g id="edge55" class="edge">
<title>Node32&#45;&gt;Node5</title>
<path fill="none" stroke="midnightblue" d="M1053.81,-285.85C996.53,-264.6 843.59,-208.62 714,-168 657.2,-150.2 641.63,-150.33 585,-132 533.66,-115.39 475.07,-93.06 440.11,-79.37"/>
<polygon fill="midnightblue" stroke="midnightblue" points="441.06,-75.98 430.48,-75.58 438.5,-82.5 441.06,-75.98"/>
</g>
<!-- Node32&#45;&gt;Node7 -->
<g id="edge59" class="edge">
<title>Node32&#45;&gt;Node7</title>
<path fill="none" stroke="midnightblue" d="M1071.77,-285.87C1060.93,-267.13 1037,-221.02 1037,-179 1037,-179 1037,-179 1037,-121 1037,-70.49 1199.82,-32.39 1273.97,-17.66"/>
<polygon fill="midnightblue" stroke="midnightblue" points="1274.68,-21.09 1283.82,-15.73 1273.34,-14.22 1274.68,-21.09"/>
</g>
<!-- Node32&#45;&gt;Node9 -->
<g id="edge60" class="edge">
<title>Node32&#45;&gt;Node9</title>
<path fill="none" stroke="midnightblue" d="M1124.51,-294.75C1212.09,-294.06 1404.22,-287.22 1559,-244 1624.3,-225.77 1697,-246.8 1697,-179 1697,-179 1697,-179 1697,-121 1697,-76.39 1651.34,-42.23 1621.12,-24.51"/>
<polygon fill="midnightblue" stroke="midnightblue" points="1622.73,-21.4 1612.3,-19.55 1619.3,-27.5 1622.73,-21.4"/>
</g>
<!-- Node32&#45;&gt;Node10 -->
<g id="edge61" class="edge">
<title>Node32&#45;&gt;Node10</title>
<path fill="none" stroke="midnightblue" d="M1065.82,-285.99C1044.26,-268.5 999,-226.18 999,-179 999,-179 999,-179 999,-121 999,-90.9 1001.68,-76.87 980,-56 959.65,-36.41 882.46,-22.47 836.35,-15.68"/>
<polygon fill="midnightblue" stroke="midnightblue" points="836.58,-12.17 826.19,-14.22 835.59,-19.1 836.58,-12.17"/>
</g>
<!-- Node32&#45;&gt;Node20 -->
<g id="edge57" class="edge">
<title>Node32&#45;&gt;Node20</title>
<path fill="none" stroke="midnightblue" d="M1101.21,-285.98C1130.33,-275.72 1179.37,-258.46 1212.2,-246.9"/>
<polygon fill="midnightblue" stroke="midnightblue" points="1213.56,-250.13 1221.83,-243.51 1211.24,-243.53 1213.56,-250.13"/>
</g>
<!-- Node32&#45;&gt;Node21 -->
<g id="edge54" class="edge">
<title>Node32&#45;&gt;Node21</title>
<path fill="none" stroke="midnightblue" d="M1091.54,-285.87C1107.91,-276.06 1135.21,-259.4 1158,-244 1182.3,-227.58 1209.41,-207.52 1227.25,-194.07"/>
<polygon fill="midnightblue" stroke="midnightblue" points="1229.81,-196.52 1235.67,-187.69 1225.59,-190.94 1229.81,-196.52"/>
</g>
<!-- Node32&#45;&gt;Node23 -->
<g id="edge56" class="edge">
<title>Node32&#45;&gt;Node23</title>
<path fill="none" stroke="midnightblue" d="M1078.72,-285.61C1081.49,-272.04 1087.52,-245.45 1096,-224 1099.7,-214.63 1104.85,-204.71 1109.44,-196.57"/>
<polygon fill="midnightblue" stroke="midnightblue" points="1112.6,-198.08 1114.6,-187.68 1106.55,-194.56 1112.6,-198.08"/>
</g>
<!-- Node32&#45;&gt;Node25 -->
<g id="edge58" class="edge">
<title>Node32&#45;&gt;Node25</title>
<path fill="none" stroke="midnightblue" d="M1060.51,-285.92C1041.93,-276.15 1010.95,-259.53 985,-244 957.11,-227.31 925.83,-206.65 905.8,-193.17"/>
<polygon fill="midnightblue" stroke="midnightblue" points="907.68,-190.22 897.44,-187.51 903.76,-196.01 907.68,-190.22"/>
</g>
<!-- Node33 -->
<g id="node33" class="node">
<title>Node33</title>
<g id="a_node33"><a xlink:title=" ">
<polygon fill="none" stroke="#bfbfbf" points="1105,-224.5 1105,-243.5 1149,-243.5 1149,-224.5 1105,-224.5"/>
<text text-anchor="middle" x="1127" y="-231.5" font-family="Helvetica,sans-Serif" font-size="10.00">limits</text>
</a>
</g>
</g>
<!-- Node32&#45;&gt;Node33 -->
<g id="edge62" class="edge">
<title>Node32&#45;&gt;Node33</title>
<path fill="none" stroke="midnightblue" d="M1084.16,-285.98C1091.74,-276.96 1103.87,-262.52 1113.29,-251.31"/>
<polygon fill="midnightblue" stroke="midnightblue" points="1116.1,-253.42 1119.85,-243.51 1110.74,-248.91 1116.1,-253.42"/>
</g>
</g>
</svg>
        <g id="navigator" transform="translate(0 0)" fill="#404254">
                <rect fill="#f2f5e9" fill-opacity="0.5" stroke="#606060" stroke-width=".5" x="0" y="0" width="60" height="60"/>
                <use id="zoomplus" xlink:href="#zoomPlus" x="17" y="9" onmousedown="handleZoom(evt,'in')"/>
                <use id="zoomminus" xlink:href="#zoomMin" x="42" y="9" onmousedown="handleZoom(evt,'out')"/>
                <use id="reset" xlink:href="#resetDef" x="30" y="36" onmousedown="handleReset()"/>
                <g id="arrowUp" xlink:href="#dirArrow" transform="translate(30 24)" onmousedown="handlePan(0,-1)">
                  <use xlink:href="#rim" fill="#404040">
                        <set attributeName="fill" to="#808080" begin="arrowUp.mouseover" end="arrowUp.mouseout"/>
                  </use>
                  <path fill="none" stroke="white" stroke-width="1.5" d="M0,-3.0v7 M-2.5,-0.5L0,-3.0L2.5,-0.5"/>
                </g>
                <g id="arrowRight" xlink:href="#dirArrow" transform="rotate(90) translate(36 -43)" onmousedown="handlePan(1,0)">
                  <use xlink:href="#rim" fill="#404040">
                        <set attributeName="fill" to="#808080" begin="arrowRight.mouseover" end="arrowRight.mouseout"/>
                  </use>
                  <path fill="none" stroke="white" stroke-width="1.5" d="M0,-3.0v7 M-2.5,-0.5L0,-3.0L2.5,-0.5"/>
                </g>
                <g id="arrowDown" xlink:href="#dirArrow" transform="rotate(180) translate(-30 -48)" onmousedown="handlePan(0,1)">
                  <use xlink:href="#rim" fill="#404040">
                        <set attributeName="fill" to="#808080" begin="arrowDown.mouseover" end="arrowDown.mouseout"/>
                  </use>
                  <path fill="none" stroke="white" stroke-width="1.5" d="M0,-3.0v7 M-2.5,-0.5L0,-3.0L2.5,-0.5"/>
                </g>
                <g id="arrowLeft" xlink:href="#dirArrow" transform="rotate(270) translate(-36 17)" onmousedown="handlePan(-1,0)">
                  <use xlink:href="#rim" fill="#404040">
                        <set attributeName="fill" to="#808080" begin="arrowLeft.mouseover" end="arrowLeft.mouseout"/>
                  </use>
                  <path fill="none" stroke="white" stroke-width="1.5" d="M0,-3.0v7 M-2.5,-0.5L0,-3.0L2.5,-0.5"/>
                </g>
        </g>
        <svg viewBox="0 0 15 15" width="100%" height="30px" preserveAspectRatio="xMaxYMin meet">
         <g id="arrow_out" transform="scale(0.3 0.3)">
          <a xlink:href="_huffman_table_lookup_8h__incl_org.svg" target="_base">
           <rect id="button" ry="5" rx="5" y="6" x="6" height="38" width="38"
                fill="#f2f5e9" fill-opacity="0.5" stroke="#606060" stroke-width="1.0"/>
           <path id="arrow"
             d="M 11.500037,31.436501 C 11.940474,20.09759 22.043105,11.32322 32.158766,21.979434 L 37.068811,17.246167 C 37.068811,17.246167 37.088388,32 37.088388,32 L 22.160133,31.978069 C 22.160133,31.978069 26.997745,27.140456 26.997745,27.140456 C 18.528582,18.264221 13.291696,25.230495 11.500037,31.436501 z"
             style="fill:#404040;"/>
          </a>
         </g>
        </svg>
</svg>
