<?xml version="1.0" encoding="UTF-8" standalone="no"?>
<!DOCTYPE svg PUBLIC "-//W3C//DTD SVG 1.1//EN"
 "http://www.w3.org/Graphics/SVG/1.1/DTD/svg11.dtd">
<!-- Generated by graphviz version 2.43.0 (0)
 -->
<!-- Title: rawspeed::PanasonicDecompressorV4::processBlock Pages: 1 -->
<svg width="975pt" height="130pt"
 viewBox="0.00 0.00 975.00 130.00" xmlns="http://www.w3.org/2000/svg" xmlns:xlink="http://www.w3.org/1999/xlink">
<g id="graph0" class="graph" transform="scale(1 1) rotate(0) translate(4 126)">
<title>rawspeed::PanasonicDecompressorV4::processBlock</title>
<!-- Node1 -->
<g id="node1" class="node">
<title>Node1</title>
<g id="a_node1"><a xlink:title=" ">
<polygon fill="#bfbfbf" stroke="black" points="0,-57.5 0,-87.5 189,-87.5 189,-57.5 0,-57.5"/>
<text text-anchor="start" x="8" y="-75.5" font-family="Helvetica,sans-Serif" font-size="10.00">rawspeed::PanasonicDecompressor</text>
<text text-anchor="middle" x="94.5" y="-64.5" font-family="Helvetica,sans-Serif" font-size="10.00">V4::processBlock</text>
</a>
</g>
</g>
<!-- Node2 -->
<g id="node2" class="node">
<title>Node2</title>
<g id="a_node2"><a xlink:href="../../dd/d12/classrawspeed_1_1_raw_image.html#a2907002b5c707eca6939061f8b0d5e5d" target="_top" xlink:title=" ">
<polygon fill="none" stroke="black" points="258.5,-91.5 258.5,-121.5 380.5,-121.5 380.5,-91.5 258.5,-91.5"/>
<text text-anchor="start" x="266.5" y="-109.5" font-family="Helvetica,sans-Serif" font-size="10.00">rawspeed::RawImage</text>
<text text-anchor="middle" x="319.5" y="-98.5" font-family="Helvetica,sans-Serif" font-size="10.00">::operator&#45;&gt;</text>
</a>
</g>
</g>
<!-- Node1&#45;&gt;Node2 -->
<g id="edge1" class="edge">
<title>Node1&#45;&gt;Node2</title>
<path fill="none" stroke="midnightblue" d="M189.1,-86.77C209.01,-89.81 229.69,-92.96 248.53,-95.83"/>
<polygon fill="midnightblue" stroke="midnightblue" points="248.08,-99.3 258.49,-97.35 249.14,-92.38 248.08,-99.3"/>
</g>
<!-- Node3 -->
<g id="node3" class="node">
<title>Node3</title>
<g id="a_node3"><a xlink:href="../../d4/dd1/classrawspeed_1_1_panasonic_decompressor_v4_1_1_proxy_stream.html#af369adcf4ddf2a5d0782eba26ba51202" target="_top" xlink:title=" ">
<polygon fill="none" stroke="black" points="225,-24.5 225,-54.5 414,-54.5 414,-24.5 225,-24.5"/>
<text text-anchor="start" x="233" y="-42.5" font-family="Helvetica,sans-Serif" font-size="10.00">rawspeed::PanasonicDecompressor</text>
<text text-anchor="middle" x="319.5" y="-31.5" font-family="Helvetica,sans-Serif" font-size="10.00">V4::ProxyStream::ProxyStream</text>
</a>
</g>
</g>
<!-- Node1&#45;&gt;Node3 -->
<g id="edge2" class="edge">
<title>Node1&#45;&gt;Node3</title>
<path fill="none" stroke="midnightblue" d="M189.1,-58.65C197.58,-57.39 206.21,-56.12 214.77,-54.85"/>
<polygon fill="midnightblue" stroke="midnightblue" points="215.4,-58.3 224.78,-53.37 214.37,-51.37 215.4,-58.3"/>
</g>
<!-- Node3&#45;&gt;Node3 -->
<g id="edge7" class="edge">
<title>Node3&#45;&gt;Node3</title>
<path fill="none" stroke="midnightblue" d="M280.46,-54.66C271.05,-64.06 284.06,-73 319.5,-73 341.09,-73 354.36,-69.68 359.3,-64.96"/>
<polygon fill="midnightblue" stroke="midnightblue" points="362.77,-64.37 358.54,-54.66 355.79,-64.89 362.77,-64.37"/>
</g>
<!-- Node4 -->
<g id="node4" class="node">
<title>Node4</title>
<g id="a_node4"><a xlink:href="../../d4/dd1/classrawspeed_1_1_panasonic_decompressor_v4_1_1_proxy_stream.html#aa25b9dc438aa00318780a46920bace52" target="_top" xlink:title=" ">
<polygon fill="none" stroke="black" points="450,-24.5 450,-54.5 639,-54.5 639,-24.5 450,-24.5"/>
<text text-anchor="start" x="458" y="-42.5" font-family="Helvetica,sans-Serif" font-size="10.00">rawspeed::PanasonicDecompressor</text>
<text text-anchor="middle" x="544.5" y="-31.5" font-family="Helvetica,sans-Serif" font-size="10.00">V4::ProxyStream::parseBlock</text>
</a>
</g>
</g>
<!-- Node3&#45;&gt;Node4 -->
<g id="edge3" class="edge">
<title>Node3&#45;&gt;Node4</title>
<path fill="none" stroke="midnightblue" d="M414.1,-39.5C422.58,-39.5 431.21,-39.5 439.77,-39.5"/>
<polygon fill="midnightblue" stroke="midnightblue" points="439.78,-43 449.78,-39.5 439.78,-36 439.78,-43"/>
</g>
<!-- Node5 -->
<g id="node5" class="node">
<title>Node5</title>
<g id="a_node5"><a xlink:href="../../dd/da0/classrawspeed_1_1_byte_stream.html#a3b85554c38b4fe27a500ad8cca0f0df6" target="_top" xlink:title=" ">
<polygon fill="none" stroke="black" points="675,-49.5 675,-79.5 803,-79.5 803,-49.5 675,-49.5"/>
<text text-anchor="start" x="683" y="-67.5" font-family="Helvetica,sans-Serif" font-size="10.00">rawspeed::ByteStream</text>
<text text-anchor="middle" x="739" y="-56.5" font-family="Helvetica,sans-Serif" font-size="10.00">::getBuffer</text>
</a>
</g>
</g>
<!-- Node4&#45;&gt;Node5 -->
<g id="edge4" class="edge">
<title>Node4&#45;&gt;Node5</title>
<path fill="none" stroke="midnightblue" d="M639.21,-51.67C647.78,-52.78 656.37,-53.9 664.72,-54.98"/>
<polygon fill="midnightblue" stroke="midnightblue" points="664.39,-58.47 674.76,-56.29 665.29,-51.53 664.39,-58.47"/>
</g>
<!-- Node6 -->
<g id="node6" class="node">
<title>Node6</title>
<g id="a_node6"><a xlink:href="../../dd/da0/classrawspeed_1_1_byte_stream.html#ab4972769baa5c0ed59ec0608ed2b307d" target="_top" xlink:title=" ">
<polygon fill="none" stroke="black" points="675,-0.5 675,-30.5 803,-30.5 803,-0.5 675,-0.5"/>
<text text-anchor="start" x="683" y="-18.5" font-family="Helvetica,sans-Serif" font-size="10.00">rawspeed::ByteStream</text>
<text text-anchor="middle" x="739" y="-7.5" font-family="Helvetica,sans-Serif" font-size="10.00">::getRemainSize</text>
</a>
</g>
</g>
<!-- Node4&#45;&gt;Node6 -->
<g id="edge5" class="edge">
<title>Node4&#45;&gt;Node6</title>
<path fill="none" stroke="midnightblue" d="M639.21,-27.82C647.78,-26.75 656.37,-25.68 664.72,-24.64"/>
<polygon fill="midnightblue" stroke="midnightblue" points="665.27,-28.09 674.76,-23.38 664.4,-21.15 665.27,-28.09"/>
</g>
<!-- Node7 -->
<g id="node7" class="node">
<title>Node7</title>
<g id="a_node7"><a xlink:href="../../dd/da0/classrawspeed_1_1_byte_stream.html#a33bbb3baf3bb9730f9da8765175ec4ce" target="_top" xlink:title=" ">
<polygon fill="none" stroke="black" points="839,-0.5 839,-30.5 967,-30.5 967,-0.5 839,-0.5"/>
<text text-anchor="start" x="847" y="-18.5" font-family="Helvetica,sans-Serif" font-size="10.00">rawspeed::ByteStream</text>
<text text-anchor="middle" x="903" y="-7.5" font-family="Helvetica,sans-Serif" font-size="10.00">::check</text>
</a>
</g>
</g>
<!-- Node6&#45;&gt;Node7 -->
<g id="edge6" class="edge">
<title>Node6&#45;&gt;Node7</title>
<path fill="none" stroke="midnightblue" d="M803.1,-15.5C811.43,-15.5 820.04,-15.5 828.53,-15.5"/>
<polygon fill="midnightblue" stroke="midnightblue" points="828.81,-19 838.81,-15.5 828.81,-12 828.81,-19"/>
</g>
</g>
</svg>
