<?xml version="1.0" encoding="UTF-8" standalone="no"?>
<!DOCTYPE svg PUBLIC "-//W3C//DTD SVG 1.1//EN"
 "http://www.w3.org/Graphics/SVG/1.1/DTD/svg11.dtd">
<!-- Generated by graphviz version 2.43.0 (0)
 -->
<!-- Title: rawspeed::PanasonicDecompressorV4::PanasonicDecompressorV4 Pages: 1 -->
<svg width="750pt" height="235pt"
 viewBox="0.00 0.00 750.00 235.00" xmlns="http://www.w3.org/2000/svg" xmlns:xlink="http://www.w3.org/1999/xlink">
<g id="graph0" class="graph" transform="scale(1 1) rotate(0) translate(4 231)">
<title>rawspeed::PanasonicDecompressorV4::PanasonicDecompressorV4</title>
<!-- Node1 -->
<g id="node1" class="node">
<title>Node1</title>
<g id="a_node1"><a xlink:title=" ">
<polygon fill="#bfbfbf" stroke="black" points="0,-97.5 0,-127.5 189,-127.5 189,-97.5 0,-97.5"/>
<text text-anchor="start" x="8" y="-115.5" font-family="Helvetica,sans-Serif" font-size="10.00">rawspeed::PanasonicDecompressor</text>
<text text-anchor="middle" x="94.5" y="-104.5" font-family="Helvetica,sans-Serif" font-size="10.00">V4::PanasonicDecompressorV4</text>
</a>
</g>
</g>
<!-- Node2 -->
<g id="node2" class="node">
<title>Node2</title>
<g id="a_node2"><a xlink:href="../../d8/d75/classrawspeed_1_1i_point2_d.html#abb9155da47f90ec694b75ad521bb7978" target="_top" xlink:title=" ">
<polygon fill="none" stroke="black" points="458.5,-196.5 458.5,-226.5 569.5,-226.5 569.5,-196.5 458.5,-196.5"/>
<text text-anchor="start" x="466.5" y="-214.5" font-family="Helvetica,sans-Serif" font-size="10.00">rawspeed::iPoint2D</text>
<text text-anchor="middle" x="514" y="-203.5" font-family="Helvetica,sans-Serif" font-size="10.00">::__attribute__</text>
</a>
</g>
</g>
<!-- Node1&#45;&gt;Node2 -->
<g id="edge1" class="edge">
<title>Node1&#45;&gt;Node2</title>
<path fill="none" stroke="midnightblue" d="M117.27,-127.5C142.11,-143.8 184.56,-169.14 225,-181.5 299.26,-204.2 388.77,-210.43 448.08,-211.8"/>
<polygon fill="midnightblue" stroke="midnightblue" points="448.36,-215.3 458.43,-212 448.49,-208.31 448.36,-215.3"/>
</g>
<!-- Node3 -->
<g id="node3" class="node">
<title>Node3</title>
<g id="a_node3"><a xlink:href="../../d8/d43/classrawspeed_1_1_panasonic_decompressor_v4.html#ae78e6de88b083c2b0db7ae43defeaa33" target="_top" xlink:title=" ">
<polygon fill="none" stroke="black" points="225,-141.5 225,-171.5 414,-171.5 414,-141.5 225,-141.5"/>
<text text-anchor="start" x="233" y="-159.5" font-family="Helvetica,sans-Serif" font-size="10.00">rawspeed::PanasonicDecompressor</text>
<text text-anchor="middle" x="319.5" y="-148.5" font-family="Helvetica,sans-Serif" font-size="10.00">V4::chopInputIntoBlocks</text>
</a>
</g>
</g>
<!-- Node1&#45;&gt;Node3 -->
<g id="edge2" class="edge">
<title>Node1&#45;&gt;Node3</title>
<path fill="none" stroke="midnightblue" d="M171.62,-127.52C191.16,-131.37 212.31,-135.55 232.32,-139.5"/>
<polygon fill="midnightblue" stroke="midnightblue" points="231.86,-142.97 242.34,-141.47 233.21,-136.1 231.86,-142.97"/>
</g>
<!-- Node7 -->
<g id="node7" class="node">
<title>Node7</title>
<g id="a_node7"><a xlink:href="../../dd/d12/classrawspeed_1_1_raw_image.html#a2907002b5c707eca6939061f8b0d5e5d" target="_top" xlink:title=" ">
<polygon fill="none" stroke="black" points="453,-98.5 453,-128.5 575,-128.5 575,-98.5 453,-98.5"/>
<text text-anchor="start" x="461" y="-116.5" font-family="Helvetica,sans-Serif" font-size="10.00">rawspeed::RawImage</text>
<text text-anchor="middle" x="514" y="-105.5" font-family="Helvetica,sans-Serif" font-size="10.00">::operator&#45;&gt;</text>
</a>
</g>
</g>
<!-- Node1&#45;&gt;Node7 -->
<g id="edge11" class="edge">
<title>Node1&#45;&gt;Node7</title>
<path fill="none" stroke="midnightblue" d="M189.2,-112.72C265.92,-112.91 372.79,-113.16 442.43,-113.33"/>
<polygon fill="midnightblue" stroke="midnightblue" points="442.84,-116.83 452.85,-113.36 442.85,-109.83 442.84,-116.83"/>
</g>
<!-- Node8 -->
<g id="node8" class="node">
<title>Node8</title>
<g id="a_node8"><a xlink:href="../../d8/d75/classrawspeed_1_1i_point2_d.html#a3380c669e36808d7f01bc4d833be3844" target="_top" xlink:title=" ">
<polygon fill="none" stroke="black" points="264,-51.5 264,-81.5 375,-81.5 375,-51.5 264,-51.5"/>
<text text-anchor="start" x="272" y="-69.5" font-family="Helvetica,sans-Serif" font-size="10.00">rawspeed::iPoint2D</text>
<text text-anchor="middle" x="319.5" y="-58.5" font-family="Helvetica,sans-Serif" font-size="10.00">::hasPositiveArea</text>
</a>
</g>
</g>
<!-- Node1&#45;&gt;Node8 -->
<g id="edge8" class="edge">
<title>Node1&#45;&gt;Node8</title>
<path fill="none" stroke="midnightblue" d="M168.52,-97.44C196,-91.77 227.04,-85.37 253.72,-79.86"/>
<polygon fill="midnightblue" stroke="midnightblue" points="254.63,-83.25 263.72,-77.8 253.22,-76.39 254.63,-83.25"/>
</g>
<!-- Node10 -->
<g id="node10" class="node">
<title>Node10</title>
<g id="a_node10"><a xlink:href="../../dd/d12/classrawspeed_1_1_raw_image.html#a4a01d153bb4518ddfaac18a5d0694154" target="_top" xlink:title=" ">
<polygon fill="none" stroke="black" points="258.5,-2.5 258.5,-32.5 380.5,-32.5 380.5,-2.5 258.5,-2.5"/>
<text text-anchor="start" x="266.5" y="-20.5" font-family="Helvetica,sans-Serif" font-size="10.00">rawspeed::RawImage</text>
<text text-anchor="middle" x="319.5" y="-9.5" font-family="Helvetica,sans-Serif" font-size="10.00">::RawImage</text>
</a>
</g>
</g>
<!-- Node1&#45;&gt;Node10 -->
<g id="edge12" class="edge">
<title>Node1&#45;&gt;Node10</title>
<path fill="none" stroke="midnightblue" d="M118.97,-97.28C144.26,-81.45 186.13,-56.86 225,-41.5 232.53,-38.52 240.56,-35.81 248.62,-33.38"/>
<polygon fill="midnightblue" stroke="midnightblue" points="249.8,-36.68 258.43,-30.54 247.86,-29.95 249.8,-36.68"/>
</g>
<!-- Node3&#45;&gt;Node2 -->
<g id="edge3" class="edge">
<title>Node3&#45;&gt;Node2</title>
<path fill="none" stroke="midnightblue" d="M373.1,-171.53C397.08,-178.38 425.64,-186.54 450.69,-193.7"/>
<polygon fill="midnightblue" stroke="midnightblue" points="449.89,-197.11 460.46,-196.49 451.81,-190.38 449.89,-197.11"/>
</g>
<!-- Node4 -->
<g id="node4" class="node">
<title>Node4</title>
<g id="a_node4"><a xlink:href="../../dd/da0/classrawspeed_1_1_byte_stream.html#ab4972769baa5c0ed59ec0608ed2b307d" target="_top" xlink:title=" ">
<polygon fill="none" stroke="black" points="450,-147.5 450,-177.5 578,-177.5 578,-147.5 450,-147.5"/>
<text text-anchor="start" x="458" y="-165.5" font-family="Helvetica,sans-Serif" font-size="10.00">rawspeed::ByteStream</text>
<text text-anchor="middle" x="514" y="-154.5" font-family="Helvetica,sans-Serif" font-size="10.00">::getRemainSize</text>
</a>
</g>
</g>
<!-- Node3&#45;&gt;Node4 -->
<g id="edge4" class="edge">
<title>Node3&#45;&gt;Node4</title>
<path fill="none" stroke="midnightblue" d="M414.21,-159.42C422.78,-159.69 431.37,-159.96 439.72,-160.22"/>
<polygon fill="midnightblue" stroke="midnightblue" points="439.65,-163.72 449.76,-160.53 439.87,-156.72 439.65,-163.72"/>
</g>
<!-- Node6 -->
<g id="node6" class="node">
<title>Node6</title>
<g id="a_node6"><a xlink:href="../../d8/d75/classrawspeed_1_1i_point2_d.html#ab980cc8ab2f3502a5a2c230530ba2a64" target="_top" xlink:title=" ">
<polygon fill="none" stroke="black" points="458.5,-49.5 458.5,-79.5 569.5,-79.5 569.5,-49.5 458.5,-49.5"/>
<text text-anchor="start" x="466.5" y="-67.5" font-family="Helvetica,sans-Serif" font-size="10.00">rawspeed::iPoint2D</text>
<text text-anchor="middle" x="514" y="-56.5" font-family="Helvetica,sans-Serif" font-size="10.00">::iPoint2D</text>
</a>
</g>
</g>
<!-- Node3&#45;&gt;Node6 -->
<g id="edge6" class="edge">
<title>Node3&#45;&gt;Node6</title>
<path fill="none" stroke="midnightblue" d="M346.82,-141.49C372.67,-127.03 413.43,-105 450,-88.5 453.84,-86.77 457.85,-85.05 461.9,-83.37"/>
<polygon fill="midnightblue" stroke="midnightblue" points="463.4,-86.54 471.37,-79.55 460.78,-80.05 463.4,-86.54"/>
</g>
<!-- Node3&#45;&gt;Node7 -->
<g id="edge7" class="edge">
<title>Node3&#45;&gt;Node7</title>
<path fill="none" stroke="midnightblue" d="M387.83,-141.46C405.67,-137.48 424.97,-133.16 442.95,-129.15"/>
<polygon fill="midnightblue" stroke="midnightblue" points="443.78,-132.55 452.78,-126.95 442.26,-125.72 443.78,-132.55"/>
</g>
<!-- Node5 -->
<g id="node5" class="node">
<title>Node5</title>
<g id="a_node5"><a xlink:href="../../dd/da0/classrawspeed_1_1_byte_stream.html#a33bbb3baf3bb9730f9da8765175ec4ce" target="_top" xlink:title=" ">
<polygon fill="none" stroke="black" points="614,-147.5 614,-177.5 742,-177.5 742,-147.5 614,-147.5"/>
<text text-anchor="start" x="622" y="-165.5" font-family="Helvetica,sans-Serif" font-size="10.00">rawspeed::ByteStream</text>
<text text-anchor="middle" x="678" y="-154.5" font-family="Helvetica,sans-Serif" font-size="10.00">::check</text>
</a>
</g>
</g>
<!-- Node4&#45;&gt;Node5 -->
<g id="edge5" class="edge">
<title>Node4&#45;&gt;Node5</title>
<path fill="none" stroke="midnightblue" d="M578.1,-162.5C586.43,-162.5 595.04,-162.5 603.53,-162.5"/>
<polygon fill="midnightblue" stroke="midnightblue" points="603.81,-166 613.81,-162.5 603.81,-159 603.81,-166"/>
</g>
<!-- Node8&#45;&gt;Node6 -->
<g id="edge9" class="edge">
<title>Node8&#45;&gt;Node6</title>
<path fill="none" stroke="midnightblue" d="M375.15,-65.93C397.81,-65.7 424.27,-65.42 447.92,-65.18"/>
<polygon fill="midnightblue" stroke="midnightblue" points="448.25,-68.67 458.22,-65.07 448.18,-61.67 448.25,-68.67"/>
</g>
<!-- Node9 -->
<g id="node9" class="node">
<title>Node9</title>
<g id="a_node9"><a xlink:href="../../d8/d75/classrawspeed_1_1i_point2_d.html#ac35b470bfed78a4394e8ac52a85b8fd1" target="_top" xlink:title=" ">
<polygon fill="none" stroke="black" points="458.5,-0.5 458.5,-30.5 569.5,-30.5 569.5,-0.5 458.5,-0.5"/>
<text text-anchor="start" x="466.5" y="-18.5" font-family="Helvetica,sans-Serif" font-size="10.00">rawspeed::iPoint2D</text>
<text text-anchor="middle" x="514" y="-7.5" font-family="Helvetica,sans-Serif" font-size="10.00">::operator&gt;</text>
</a>
</g>
</g>
<!-- Node8&#45;&gt;Node9 -->
<g id="edge10" class="edge">
<title>Node8&#45;&gt;Node9</title>
<path fill="none" stroke="midnightblue" d="M375.15,-52.02C397.91,-45.99 424.51,-38.94 448.24,-32.66"/>
<polygon fill="midnightblue" stroke="midnightblue" points="449.45,-35.96 458.22,-30.01 447.65,-29.19 449.45,-35.96"/>
</g>
</g>
</svg>
