<?xml version="1.0" encoding="UTF-8" standalone="no"?>
<!DOCTYPE svg PUBLIC "-//W3C//DTD SVG 1.1//EN"
 "http://www.w3.org/Graphics/SVG/1.1/DTD/svg11.dtd">
<!-- Generated by graphviz version 2.43.0 (0)
 -->
<!-- Title: rawspeed::Array2DRef&lt; T &gt; Pages: 1 -->
<svg width="251pt" height="117pt"
 viewBox="0.00 0.00 251.00 117.00" xmlns="http://www.w3.org/2000/svg" xmlns:xlink="http://www.w3.org/1999/xlink">
<g id="graph0" class="graph" transform="scale(1 1) rotate(0) translate(4 113)">
<title>rawspeed::Array2DRef&lt; T &gt;</title>
<!-- Node1 -->
<g id="node1" class="node">
<title>Node1</title>
<g id="a_node1"><a xlink:title=" ">
<polygon fill="#bfbfbf" stroke="black" points="0,-0.5 0,-19.5 154,-19.5 154,-0.5 0,-0.5"/>
<text text-anchor="middle" x="77" y="-7.5" font-family="Helvetica,sans-Serif" font-size="10.00">rawspeed::Array2DRef&lt; T &gt;</text>
</a>
</g>
</g>
<!-- Node2 -->
<g id="node2" class="node">
<title>Node2</title>
<g id="a_node2"><a xlink:title=" ">
<polygon fill="none" stroke="#bfbfbf" points="7.5,-89.5 7.5,-108.5 36.5,-108.5 36.5,-89.5 7.5,-89.5"/>
<text text-anchor="middle" x="22" y="-96.5" font-family="Helvetica,sans-Serif" font-size="10.00">int</text>
</a>
</g>
</g>
<!-- Node2&#45;&gt;Node1 -->
<g id="edge1" class="edge">
<title>Node2&#45;&gt;Node1</title>
<path fill="none" stroke="#9a32cd" stroke-dasharray="5,2" d="M25.26,-79.29C28.12,-66.74 33.24,-50.32 42,-38 47.24,-30.62 55.09,-24.3 62.03,-19.64"/>
<polygon fill="#9a32cd" stroke="#9a32cd" points="21.82,-78.63 23.29,-89.12 28.68,-80 21.82,-78.63"/>
<text text-anchor="middle" x="57.5" y="-63" font-family="Helvetica,sans-Serif" font-size="10.00"> width</text>
<text text-anchor="middle" x="57.5" y="-52" font-family="Helvetica,sans-Serif" font-size="10.00">height</text>
<text text-anchor="middle" x="57.5" y="-41" font-family="Helvetica,sans-Serif" font-size="10.00">_pitch</text>
</g>
<!-- Node3 -->
<g id="node3" class="node">
<title>Node3</title>
<g id="a_node3"><a xlink:title=" ">
<polygon fill="none" stroke="#bfbfbf" points="54.5,-89.5 54.5,-108.5 99.5,-108.5 99.5,-89.5 54.5,-89.5"/>
<text text-anchor="middle" x="77" y="-96.5" font-family="Helvetica,sans-Serif" font-size="10.00">friend</text>
</a>
</g>
</g>
<!-- Node3&#45;&gt;Node1 -->
<g id="edge2" class="edge">
<title>Node3&#45;&gt;Node1</title>
<path fill="none" stroke="#9a32cd" stroke-dasharray="5,2" d="M77,-79.19C77,-60.74 77,-33.41 77,-19.62"/>
<polygon fill="#9a32cd" stroke="#9a32cd" points="73.5,-79.34 77,-89.34 80.5,-79.34 73.5,-79.34"/>
<text text-anchor="middle" x="135.5" y="-52" font-family="Helvetica,sans-Serif" font-size="10.00"> Array2DRef&lt; const T &gt;</text>
</g>
<!-- Node4 -->
<g id="node4" class="node">
<title>Node4</title>
<g id="a_node4"><a xlink:title=" ">
<polygon fill="none" stroke="#bfbfbf" points="202.5,-89.5 202.5,-108.5 231.5,-108.5 231.5,-89.5 202.5,-89.5"/>
<text text-anchor="middle" x="217" y="-96.5" font-family="Helvetica,sans-Serif" font-size="10.00">T</text>
</a>
</g>
</g>
<!-- Node4&#45;&gt;Node1 -->
<g id="edge3" class="edge">
<title>Node4&#45;&gt;Node1</title>
<path fill="none" stroke="#9a32cd" stroke-dasharray="5,2" d="M214.84,-79.15C212.31,-65.78 206.84,-48.43 195,-38 183.49,-27.86 168.95,-21.31 154.04,-17.12"/>
<polygon fill="#9a32cd" stroke="#9a32cd" points="211.4,-79.83 216.35,-89.2 218.33,-78.8 211.4,-79.83"/>
<text text-anchor="middle" x="227.5" y="-52" font-family="Helvetica,sans-Serif" font-size="10.00"> _data</text>
</g>
</g>
</svg>
