<?xml version="1.0" encoding="UTF-8" standalone="no"?>
<!DOCTYPE svg PUBLIC "-//W3C//DTD SVG 1.1//EN"
 "http://www.w3.org/Graphics/SVG/1.1/DTD/svg11.dtd">
<!-- Generated by graphviz version 2.43.0 (0)
 -->
<!-- Title: rawspeed::DngOpcodes::ScalePerRowOrCol&lt; S &gt; Pages: 1 -->
<svg width="617pt" height="629pt"
 viewBox="0.00 0.00 616.50 629.00" xmlns="http://www.w3.org/2000/svg" xmlns:xlink="http://www.w3.org/1999/xlink">
<g id="graph0" class="graph" transform="scale(1 1) rotate(0) translate(4 625)">
<title>rawspeed::DngOpcodes::ScalePerRowOrCol&lt; S &gt;</title>
<!-- Node1 -->
<g id="node1" class="node">
<title>Node1</title>
<g id="a_node1"><a xlink:title=" ">
<polygon fill="#bfbfbf" stroke="black" points="52.5,-0.5 52.5,-30.5 192.5,-30.5 192.5,-0.5 52.5,-0.5"/>
<text text-anchor="start" x="60.5" y="-18.5" font-family="Helvetica,sans-Serif" font-size="10.00">rawspeed::DngOpcodes</text>
<text text-anchor="middle" x="122.5" y="-7.5" font-family="Helvetica,sans-Serif" font-size="10.00">::ScalePerRowOrCol&lt; S &gt;</text>
</a>
</g>
</g>
<!-- Node2 -->
<g id="node2" class="node">
<title>Node2</title>
<g id="a_node2"><a xlink:href="../../d0/d95/classrawspeed_1_1_dng_opcodes_1_1_delta_row_or_col.html" target="_top" xlink:title=" ">
<polygon fill="none" stroke="black" points="57,-89.5 57,-119.5 188,-119.5 188,-89.5 57,-89.5"/>
<text text-anchor="start" x="65" y="-107.5" font-family="Helvetica,sans-Serif" font-size="10.00">rawspeed::DngOpcodes</text>
<text text-anchor="middle" x="122.5" y="-96.5" font-family="Helvetica,sans-Serif" font-size="10.00">::DeltaRowOrCol&lt; S &gt;</text>
</a>
</g>
</g>
<!-- Node2&#45;&gt;Node1 -->
<g id="edge1" class="edge">
<title>Node2&#45;&gt;Node1</title>
<path fill="none" stroke="midnightblue" d="M122.5,-79.09C122.5,-63.44 122.5,-43.68 122.5,-30.6"/>
<polygon fill="midnightblue" stroke="midnightblue" points="119,-79.13 122.5,-89.13 126,-79.13 119,-79.13"/>
</g>
<!-- Node3 -->
<g id="node3" class="node">
<title>Node3</title>
<g id="a_node3"><a xlink:href="../../d0/d58/classrawspeed_1_1_dng_opcodes_1_1_delta_row_or_col_base.html" target="_top" xlink:title=" ">
<polygon fill="none" stroke="black" points="303,-167.5 303,-197.5 434,-197.5 434,-167.5 303,-167.5"/>
<text text-anchor="start" x="311" y="-185.5" font-family="Helvetica,sans-Serif" font-size="10.00">rawspeed::DngOpcodes</text>
<text text-anchor="middle" x="368.5" y="-174.5" font-family="Helvetica,sans-Serif" font-size="10.00">::DeltaRowOrColBase</text>
</a>
</g>
</g>
<!-- Node3&#45;&gt;Node2 -->
<g id="edge2" class="edge">
<title>Node3&#45;&gt;Node2</title>
<path fill="none" stroke="midnightblue" d="M313.46,-164.5C269.68,-150.97 209.15,-132.27 168.06,-119.57"/>
<polygon fill="midnightblue" stroke="midnightblue" points="312.51,-167.86 323.09,-167.47 314.57,-161.18 312.51,-167.86"/>
</g>
<!-- Node4 -->
<g id="node4" class="node">
<title>Node4</title>
<g id="a_node4"><a xlink:href="../../d5/dcb/classrawspeed_1_1_dng_opcodes_1_1_pixel_opcode.html" target="_top" xlink:title=" ">
<polygon fill="none" stroke="black" points="303,-245.5 303,-275.5 434,-275.5 434,-245.5 303,-245.5"/>
<text text-anchor="start" x="311" y="-263.5" font-family="Helvetica,sans-Serif" font-size="10.00">rawspeed::DngOpcodes</text>
<text text-anchor="middle" x="368.5" y="-252.5" font-family="Helvetica,sans-Serif" font-size="10.00">::PixelOpcode</text>
</a>
</g>
</g>
<!-- Node4&#45;&gt;Node3 -->
<g id="edge3" class="edge">
<title>Node4&#45;&gt;Node3</title>
<path fill="none" stroke="midnightblue" d="M368.5,-235.09C368.5,-222.76 368.5,-208.22 368.5,-197.73"/>
<polygon fill="midnightblue" stroke="midnightblue" points="365,-235.2 368.5,-245.2 372,-235.21 365,-235.2"/>
</g>
<!-- Node5 -->
<g id="node5" class="node">
<title>Node5</title>
<g id="a_node5"><a xlink:href="../../df/dc9/classrawspeed_1_1_dng_opcodes_1_1_r_o_i_opcode.html" target="_top" xlink:title=" ">
<polygon fill="none" stroke="black" points="371,-356.5 371,-386.5 502,-386.5 502,-356.5 371,-356.5"/>
<text text-anchor="start" x="379" y="-374.5" font-family="Helvetica,sans-Serif" font-size="10.00">rawspeed::DngOpcodes</text>
<text text-anchor="middle" x="436.5" y="-363.5" font-family="Helvetica,sans-Serif" font-size="10.00">::ROIOpcode</text>
</a>
</g>
</g>
<!-- Node5&#45;&gt;Node4 -->
<g id="edge4" class="edge">
<title>Node5&#45;&gt;Node4</title>
<path fill="none" stroke="midnightblue" d="M426.85,-346.84C419.98,-331.21 409.96,-310.63 398.5,-294 394.06,-287.55 388.39,-281.08 383.18,-275.63"/>
<polygon fill="midnightblue" stroke="midnightblue" points="423.74,-348.48 430.89,-356.3 430.18,-345.73 423.74,-348.48"/>
</g>
<!-- Node6 -->
<g id="node6" class="node">
<title>Node6</title>
<g id="a_node6"><a xlink:href="../../dd/d5f/classrawspeed_1_1_dng_opcodes_1_1_dng_opcode.html" target="_top" xlink:title=" ">
<polygon fill="none" stroke="black" points="325,-434.5 325,-464.5 456,-464.5 456,-434.5 325,-434.5"/>
<text text-anchor="start" x="333" y="-452.5" font-family="Helvetica,sans-Serif" font-size="10.00">rawspeed::DngOpcodes</text>
<text text-anchor="middle" x="390.5" y="-441.5" font-family="Helvetica,sans-Serif" font-size="10.00">::DngOpcode</text>
</a>
</g>
</g>
<!-- Node6&#45;&gt;Node5 -->
<g id="edge5" class="edge">
<title>Node6&#45;&gt;Node5</title>
<path fill="none" stroke="midnightblue" d="M404.38,-425.57C412.02,-412.94 421.28,-397.65 427.89,-386.73"/>
<polygon fill="midnightblue" stroke="midnightblue" points="401.34,-423.84 399.15,-434.2 407.32,-427.46 401.34,-423.84"/>
</g>
<!-- Node7 -->
<g id="node7" class="node">
<title>Node7</title>
<g id="a_node7"><a xlink:href="../../d6/d8f/classrawspeed_1_1i_rectangle2_d.html" target="_top" xlink:title=" ">
<polygon fill="none" stroke="black" points="474.5,-440 474.5,-459 608.5,-459 608.5,-440 474.5,-440"/>
<text text-anchor="middle" x="541.5" y="-447" font-family="Helvetica,sans-Serif" font-size="10.00">rawspeed::iRectangle2D</text>
</a>
</g>
</g>
<!-- Node7&#45;&gt;Node5 -->
<g id="edge6" class="edge">
<title>Node7&#45;&gt;Node5</title>
<path fill="none" stroke="#9a32cd" stroke-dasharray="5,2" d="M521.25,-433.84C502.38,-420.19 474.45,-399.97 455.87,-386.52"/>
<polygon fill="#9a32cd" stroke="#9a32cd" points="519.3,-436.75 529.46,-439.78 523.41,-431.08 519.3,-436.75"/>
<text text-anchor="middle" x="502.5" y="-408" font-family="Helvetica,sans-Serif" font-size="10.00"> roi</text>
</g>
<!-- Node8 -->
<g id="node8" class="node">
<title>Node8</title>
<g id="a_node8"><a xlink:href="../../d8/d75/classrawspeed_1_1i_point2_d.html" target="_top" xlink:title=" ">
<polygon fill="none" stroke="black" points="486,-523.5 486,-542.5 597,-542.5 597,-523.5 486,-523.5"/>
<text text-anchor="middle" x="541.5" y="-530.5" font-family="Helvetica,sans-Serif" font-size="10.00">rawspeed::iPoint2D</text>
</a>
</g>
</g>
<!-- Node8&#45;&gt;Node7 -->
<g id="edge7" class="edge">
<title>Node8&#45;&gt;Node7</title>
<path fill="none" stroke="#9a32cd" stroke-dasharray="5,2" d="M541.5,-512.88C541.5,-495.9 541.5,-471.87 541.5,-459.16"/>
<polygon fill="#9a32cd" stroke="#9a32cd" points="538,-513.28 541.5,-523.28 545,-513.28 538,-513.28"/>
<text text-anchor="middle" x="552.5" y="-497" font-family="Helvetica,sans-Serif" font-size="10.00"> dim</text>
<text text-anchor="middle" x="552.5" y="-486" font-family="Helvetica,sans-Serif" font-size="10.00">pos</text>
</g>
<!-- Node9 -->
<g id="node9" class="node">
<title>Node9</title>
<g id="a_node9"><a xlink:href="../../de/d73/classint32__t.html" target="_top" xlink:title=" ">
<polygon fill="none" stroke="black" points="516.5,-601.5 516.5,-620.5 566.5,-620.5 566.5,-601.5 516.5,-601.5"/>
<text text-anchor="middle" x="541.5" y="-608.5" font-family="Helvetica,sans-Serif" font-size="10.00">int32_t</text>
</a>
</g>
</g>
<!-- Node9&#45;&gt;Node8 -->
<g id="edge8" class="edge">
<title>Node9&#45;&gt;Node8</title>
<path fill="none" stroke="#9a32cd" stroke-dasharray="5,2" d="M541.5,-591.22C541.5,-575.7 541.5,-554.36 541.5,-542.62"/>
<polygon fill="#9a32cd" stroke="#9a32cd" points="538,-591.28 541.5,-601.28 545,-591.28 538,-591.28"/>
<text text-anchor="middle" x="546.5" y="-575" font-family="Helvetica,sans-Serif" font-size="10.00"> x</text>
<text text-anchor="middle" x="546.5" y="-564" font-family="Helvetica,sans-Serif" font-size="10.00">y</text>
</g>
<!-- Node10 -->
<g id="node10" class="node">
<title>Node10</title>
<g id="a_node10"><a xlink:href="../../d3/d87/classuint32__t.html" target="_top" xlink:title=" ">
<polygon fill="none" stroke="black" points="296.5,-362 296.5,-381 352.5,-381 352.5,-362 296.5,-362"/>
<text text-anchor="middle" x="324.5" y="-369" font-family="Helvetica,sans-Serif" font-size="10.00">uint32_t</text>
</a>
</g>
</g>
<!-- Node10&#45;&gt;Node4 -->
<g id="edge9" class="edge">
<title>Node10&#45;&gt;Node4</title>
<path fill="none" stroke="#9a32cd" stroke-dasharray="5,2" d="M329.42,-351.74C333.83,-335.99 340.93,-313.07 349.5,-294 352.29,-287.8 355.95,-281.27 359.31,-275.71"/>
<polygon fill="#9a32cd" stroke="#9a32cd" points="325.93,-351.22 326.7,-361.79 332.69,-353.05 325.93,-351.22"/>
<text text-anchor="middle" x="374" y="-330" font-family="Helvetica,sans-Serif" font-size="10.00"> firstPlane</text>
<text text-anchor="middle" x="374" y="-319" font-family="Helvetica,sans-Serif" font-size="10.00">rowPitch</text>
<text text-anchor="middle" x="374" y="-308" font-family="Helvetica,sans-Serif" font-size="10.00">planes</text>
<text text-anchor="middle" x="374" y="-297" font-family="Helvetica,sans-Serif" font-size="10.00">colPitch</text>
</g>
<!-- Node11 -->
<g id="node11" class="node">
<title>Node11</title>
<g id="a_node11"><a xlink:href="../../d4/dc3/classfloat.html" target="_top" xlink:title=" ">
<polygon fill="none" stroke="black" points="14.5,-173 14.5,-192 52.5,-192 52.5,-173 14.5,-173"/>
<text text-anchor="middle" x="33.5" y="-180" font-family="Helvetica,sans-Serif" font-size="10.00">float</text>
</a>
</g>
</g>
<!-- Node11&#45;&gt;Node2 -->
<g id="edge10" class="edge">
<title>Node11&#45;&gt;Node2</title>
<path fill="none" stroke="#9a32cd" stroke-dasharray="5,2" d="M47.8,-165.19C55.62,-156.69 65.68,-146.34 75.5,-138 83.21,-131.45 92.24,-124.96 100.31,-119.52"/>
<polygon fill="#9a32cd" stroke="#9a32cd" points="45.17,-162.89 41.09,-172.66 50.38,-167.57 45.17,-162.89"/>
<text text-anchor="middle" x="97" y="-141" font-family="Helvetica,sans-Serif" font-size="10.00"> f2iScale</text>
</g>
<!-- Node12 -->
<g id="node12" class="node">
<title>Node12</title>
<g id="a_node12"><a xlink:title=" ">
<polygon fill="none" stroke="#bfbfbf" points="70.5,-173 70.5,-192 174.5,-192 174.5,-173 70.5,-173"/>
<text text-anchor="middle" x="122.5" y="-180" font-family="Helvetica,sans-Serif" font-size="10.00">std::vector&lt; int &gt;</text>
</a>
</g>
</g>
<!-- Node12&#45;&gt;Node2 -->
<g id="edge11" class="edge">
<title>Node12&#45;&gt;Node2</title>
<path fill="none" stroke="#9a32cd" stroke-dasharray="5,2" d="M122.5,-162.78C122.5,-149.4 122.5,-131.69 122.5,-119.52"/>
<polygon fill="#9a32cd" stroke="#9a32cd" points="119,-162.78 122.5,-172.78 126,-162.78 119,-162.78"/>
<text text-anchor="middle" x="138" y="-141" font-family="Helvetica,sans-Serif" font-size="10.00"> deltaI</text>
</g>
<!-- Node13 -->
<g id="node13" class="node">
<title>Node13</title>
<g id="a_node13"><a xlink:title=" ">
<polygon fill="none" stroke="#bfbfbf" points="0,-251 0,-270 29,-270 29,-251 0,-251"/>
<text text-anchor="middle" x="14.5" y="-258" font-family="Helvetica,sans-Serif" font-size="10.00">int</text>
</a>
</g>
</g>
<!-- Node13&#45;&gt;Node1 -->
<g id="edge17" class="edge">
<title>Node13&#45;&gt;Node1</title>
<path fill="none" stroke="#9a32cd" stroke-dasharray="5,2" d="M10,-240.91C6.1,-222.18 1.64,-192.48 5.5,-167 7.52,-153.66 8.67,-150.17 14.5,-138 36.21,-92.7 79.94,-51.65 104.58,-30.85"/>
<polygon fill="#9a32cd" stroke="#9a32cd" points="6.61,-241.8 12.22,-250.79 13.44,-240.27 6.61,-241.8"/>
<text text-anchor="middle" x="37.5" y="-141" font-family="Helvetica,sans-Serif" font-size="10.00"> rounding</text>
</g>
<!-- Node13&#45;&gt;Node12 -->
<g id="edge12" class="edge">
<title>Node13&#45;&gt;Node12</title>
<path fill="none" stroke="#9a32cd" stroke-dasharray="5,2" d="M32.77,-244.15C43.28,-235.55 56.87,-224.82 69.5,-216 81.89,-207.35 96.58,-198.44 107.35,-192.14"/>
<polygon fill="#9a32cd" stroke="#9a32cd" points="30.23,-241.71 24.76,-250.78 34.7,-247.1 30.23,-241.71"/>
<text text-anchor="middle" x="94" y="-219" font-family="Helvetica,sans-Serif" font-size="10.00"> elements</text>
</g>
<!-- Node14 -->
<g id="node14" class="node">
<title>Node14</title>
<g id="a_node14"><a xlink:title="STL class.">
<polygon fill="none" stroke="#bfbfbf" points="74,-251 74,-270 171,-270 171,-251 74,-251"/>
<text text-anchor="middle" x="122.5" y="-258" font-family="Helvetica,sans-Serif" font-size="10.00">std::vector&lt; T &gt;</text>
</a>
</g>
</g>
<!-- Node14&#45;&gt;Node12 -->
<g id="edge13" class="edge">
<title>Node14&#45;&gt;Node12</title>
<path fill="none" stroke="orange" stroke-dasharray="5,2" d="M122.5,-240.72C122.5,-225.2 122.5,-203.86 122.5,-192.12"/>
<polygon fill="orange" stroke="orange" points="119,-240.78 122.5,-250.78 126,-240.78 119,-240.78"/>
<text text-anchor="middle" x="142" y="-219" font-family="Helvetica,sans-Serif" font-size="10.00"> &lt; int &gt;</text>
</g>
<!-- Node15 -->
<g id="node15" class="node">
<title>Node15</title>
<g id="a_node15"><a xlink:title=" ">
<polygon fill="none" stroke="#bfbfbf" points="108,-362 108,-381 137,-381 137,-362 108,-362"/>
<text text-anchor="middle" x="122.5" y="-369" font-family="Helvetica,sans-Serif" font-size="10.00">T</text>
</a>
</g>
</g>
<!-- Node15&#45;&gt;Node14 -->
<g id="edge14" class="edge">
<title>Node15&#45;&gt;Node14</title>
<path fill="none" stroke="#9a32cd" stroke-dasharray="5,2" d="M122.5,-351.69C122.5,-327.78 122.5,-287.49 122.5,-270.01"/>
<polygon fill="#9a32cd" stroke="#9a32cd" points="119,-351.95 122.5,-361.95 126,-351.95 119,-351.95"/>
<text text-anchor="middle" x="147" y="-313.5" font-family="Helvetica,sans-Serif" font-size="10.00"> elements</text>
</g>
<!-- Node16 -->
<g id="node16" class="node">
<title>Node16</title>
<g id="a_node16"><a xlink:title=" ">
<polygon fill="none" stroke="#bfbfbf" points="192.5,-173 192.5,-192 284.5,-192 284.5,-173 192.5,-173"/>
<text text-anchor="middle" x="238.5" y="-180" font-family="Helvetica,sans-Serif" font-size="10.00">vector&lt; float &gt;</text>
</a>
</g>
</g>
<!-- Node16&#45;&gt;Node2 -->
<g id="edge15" class="edge">
<title>Node16&#45;&gt;Node2</title>
<path fill="none" stroke="#9a32cd" stroke-dasharray="5,2" d="M216.69,-167.21C195.84,-153.55 164.61,-133.09 143.9,-119.52"/>
<polygon fill="#9a32cd" stroke="#9a32cd" points="214.91,-170.23 225.19,-172.78 218.75,-164.37 214.91,-170.23"/>
<text text-anchor="middle" x="203.5" y="-141" font-family="Helvetica,sans-Serif" font-size="10.00"> deltaF</text>
</g>
<!-- Node17 -->
<g id="node17" class="node">
<title>Node17</title>
<g id="a_node17"><a xlink:href="../../df/de6/classdouble.html" target="_top" xlink:title=" ">
<polygon fill="none" stroke="black" points="206.5,-95 206.5,-114 256.5,-114 256.5,-95 206.5,-95"/>
<text text-anchor="middle" x="231.5" y="-102" font-family="Helvetica,sans-Serif" font-size="10.00">double</text>
</a>
</g>
</g>
<!-- Node17&#45;&gt;Node1 -->
<g id="edge16" class="edge">
<title>Node17&#45;&gt;Node1</title>
<path fill="none" stroke="#9a32cd" stroke-dasharray="5,2" d="M212.71,-88.5C192.32,-72.23 160.01,-46.44 140.1,-30.55"/>
<polygon fill="#9a32cd" stroke="#9a32cd" points="210.65,-91.34 220.65,-94.84 215.02,-85.87 210.65,-91.34"/>
<text text-anchor="middle" x="214.5" y="-63" font-family="Helvetica,sans-Serif" font-size="10.00"> maxLimit</text>
<text text-anchor="middle" x="214.5" y="-52" font-family="Helvetica,sans-Serif" font-size="10.00">minLimit</text>
</g>
</g>
</svg>
