<?xml version="1.0" encoding="UTF-8" standalone="no"?>
<!DOCTYPE svg PUBLIC "-//W3C//DTD SVG 1.1//EN"
 "http://www.w3.org/Graphics/SVG/1.1/DTD/svg11.dtd">
<!-- Generated by graphviz version 2.43.0 (0)
 -->
<!-- Title: librawspeed/tiff/TiffIFD.cpp Pages: 1 -->
<!--zoomable 476 -->
<svg id="main" version="1.1" xmlns="http://www.w3.org/2000/svg" xmlns:xlink="http://www.w3.org/1999/xlink" xml:space="preserve" onload="init(evt)">
<style type="text/css"><![CDATA[
.edge:hover path { stroke: red; }
.edge:hover polygon { stroke: red; fill: red; }
]]></style>
<script type="text/javascript"><![CDATA[
var edges = document.getElementsByTagName('g');
if (edges && edges.length) {
  for (var i=0;i<edges.length;i++) {
    if (edges[i].id.substr(0,4)=='edge') {
      edges[i].setAttribute('class','edge');
    }
  }
}
]]></script>
        <defs>
                <circle id="rim" cx="0" cy="0" r="7"/>
                <circle id="rim2" cx="0" cy="0" r="3.5"/>
                <g id="zoomPlus">
                        <use xlink:href="#rim" fill="#404040">
                                <set attributeName="fill" to="#808080" begin="zoomplus.mouseover" end="zoomplus.mouseout"/>
                        </use>
                        <path d="M-4,0h8M0,-4v8" fill="none" stroke="white" stroke-width="1.5" pointer-events="none"/>
                </g>
                <g id="zoomMin">
                        <use xlink:href="#rim" fill="#404040">
                                <set attributeName="fill" to="#808080" begin="zoomminus.mouseover" end="zoomminus.mouseout"/>
                        </use>
                        <path d="M-4,0h8" fill="none" stroke="white" stroke-width="1.5" pointer-events="none"/>
                </g>
                <g id="dirArrow">
                        <path fill="none" stroke="white" stroke-width="1.5" d="M0,-3.0v7 M-2.5,-0.5L0,-3.0L2.5,-0.5"/>
                </g>
               <g id="resetDef">
                       <use xlink:href="#rim2" fill="#404040">
                               <set attributeName="fill" to="#808080" begin="reset.mouseover" end="reset.mouseout"/>
                       </use>
               </g>
        </defs>

<script type="text/javascript">
var viewWidth = 1744;
var viewHeight = 476;
var sectionId = 'dynsection-0';
</script>
<script xlink:href="../../svgpan.js"/>
<svg id="graph" class="graph">
<g id="viewport">
<title>librawspeed/tiff/TiffIFD.cpp</title>
<!-- Node1 -->
<g id="node1" class="node">
<title>Node1</title>
<g id="a_node1"><a xlink:title=" ">
<polygon fill="#bfbfbf" stroke="black" points="644.5,-448.5 644.5,-467.5 791.5,-467.5 791.5,-448.5 644.5,-448.5"/>
<text text-anchor="middle" x="718" y="-455.5" font-family="Helvetica,sans-Serif" font-size="10.00">librawspeed/tiff/TiffIFD.cpp</text>
</a>
</g>
</g>
<!-- Node2 -->
<g id="node2" class="node">
<title>Node2</title>
<g id="a_node2"><a xlink:href="../../db/d5e/_tiff_i_f_d_8h.html" target="_top" xlink:title=" ">
<polygon fill="none" stroke="black" points="1201,-392.5 1201,-411.5 1275,-411.5 1275,-392.5 1201,-392.5"/>
<text text-anchor="middle" x="1238" y="-399.5" font-family="Helvetica,sans-Serif" font-size="10.00">tiff/TiffIFD.h</text>
</a>
</g>
</g>
<!-- Node1&#45;&gt;Node2 -->
<g id="edge1" class="edge">
<title>Node1&#45;&gt;Node2</title>
<path fill="none" stroke="midnightblue" d="M791.68,-449.35C900.26,-438.07 1100.2,-417.31 1190.97,-407.88"/>
<polygon fill="midnightblue" stroke="midnightblue" points="1191.38,-411.36 1200.96,-406.85 1190.65,-404.4 1191.38,-411.36"/>
</g>
<!-- Node3 -->
<g id="node3" class="node">
<title>Node3</title>
<g id="a_node3"><a xlink:href="../../d0/d6f/_n_o_ranges_set_8h.html" target="_top" xlink:title=" ">
<polygon fill="none" stroke="black" points="362,-336.5 362,-355.5 500,-355.5 500,-336.5 362,-336.5"/>
<text text-anchor="middle" x="431" y="-343.5" font-family="Helvetica,sans-Serif" font-size="10.00">common/NORangesSet.h</text>
</a>
</g>
</g>
<!-- Node1&#45;&gt;Node3 -->
<g id="edge75" class="edge">
<title>Node1&#45;&gt;Node3</title>
<path fill="none" stroke="midnightblue" d="M676.22,-448.46C642.13,-440.83 593.06,-428.34 552,-412 516.01,-397.67 476.98,-375.36 453.25,-360.96"/>
<polygon fill="midnightblue" stroke="midnightblue" points="455.01,-357.93 444.66,-355.68 451.35,-363.9 455.01,-357.93"/>
</g>
<!-- Node6 -->
<g id="node6" class="node">
<title>Node6</title>
<g id="a_node6"><a xlink:title=" ">
<polygon fill="none" stroke="#bfbfbf" points="722,-0.5 722,-19.5 774,-19.5 774,-0.5 722,-0.5"/>
<text text-anchor="middle" x="748" y="-7.5" font-family="Helvetica,sans-Serif" font-size="10.00">cassert</text>
</a>
</g>
</g>
<!-- Node1&#45;&gt;Node6 -->
<g id="edge80" class="edge">
<title>Node1&#45;&gt;Node6</title>
<path fill="none" stroke="midnightblue" d="M644.03,-456.3C520.81,-454.17 279.4,-445.7 202,-412 162.47,-394.79 130,-390.11 130,-347 130,-347 130,-347 130,-121 130,-70.57 175.59,-73.19 223,-56 268.72,-39.43 600.71,-19.34 711.85,-13.01"/>
<polygon fill="midnightblue" stroke="midnightblue" points="712.12,-16.5 721.9,-12.44 711.72,-9.51 712.12,-16.5"/>
</g>
<!-- Node8 -->
<g id="node8" class="node">
<title>Node8</title>
<g id="a_node8"><a xlink:title=" ">
<polygon fill="none" stroke="#bfbfbf" points="196.5,-168.5 196.5,-187.5 241.5,-187.5 241.5,-168.5 196.5,-168.5"/>
<text text-anchor="middle" x="219" y="-175.5" font-family="Helvetica,sans-Serif" font-size="10.00">utility</text>
</a>
</g>
</g>
<!-- Node1&#45;&gt;Node8 -->
<g id="edge84" class="edge">
<title>Node1&#45;&gt;Node8</title>
<path fill="none" stroke="midnightblue" d="M644.46,-454.23C516.18,-447.39 265,-424.14 265,-347 265,-347 265,-347 265,-289 265,-253.82 244.72,-216.86 231.09,-196"/>
<polygon fill="midnightblue" stroke="midnightblue" points="233.91,-193.92 225.4,-187.61 228.12,-197.85 233.91,-193.92"/>
</g>
<!-- Node13 -->
<g id="node13" class="node">
<title>Node13</title>
<g id="a_node13"><a xlink:href="../../d9/df5/src_2librawspeed_2common_2_common_8h.html" target="_top" xlink:title=" ">
<polygon fill="none" stroke="black" points="812,-56.5 812,-75.5 928,-75.5 928,-56.5 812,-56.5"/>
<text text-anchor="middle" x="870" y="-63.5" font-family="Helvetica,sans-Serif" font-size="10.00">common/Common.h</text>
</a>
</g>
</g>
<!-- Node1&#45;&gt;Node13 -->
<g id="edge74" class="edge">
<title>Node1&#45;&gt;Node13</title>
<path fill="none" stroke="midnightblue" d="M718,-448.44C718,-429.94 718,-384.81 718,-347 718,-347 718,-347 718,-177 718,-123.44 780.71,-93.3 825.57,-78.59"/>
<polygon fill="midnightblue" stroke="midnightblue" points="826.63,-81.93 835.13,-75.6 824.54,-75.25 826.63,-81.93"/>
</g>
<!-- Node18 -->
<g id="node18" class="node">
<title>Node18</title>
<g id="a_node18"><a xlink:title=" ">
<polygon fill="none" stroke="#bfbfbf" points="1463,-0.5 1463,-19.5 1507,-19.5 1507,-0.5 1463,-0.5"/>
<text text-anchor="middle" x="1485" y="-7.5" font-family="Helvetica,sans-Serif" font-size="10.00">string</text>
</a>
</g>
</g>
<!-- Node1&#45;&gt;Node18 -->
<g id="edge83" class="edge">
<title>Node1&#45;&gt;Node18</title>
<path fill="none" stroke="midnightblue" d="M791.62,-455.84C957.35,-452.71 1355.38,-442.2 1486,-412 1548.89,-397.46 1575.21,-402.48 1620,-356 1716.15,-256.22 1554.86,-80.04 1501.33,-26.72"/>
<polygon fill="midnightblue" stroke="midnightblue" points="1503.58,-24.02 1493.99,-19.51 1498.67,-29.01 1503.58,-24.02"/>
</g>
<!-- Node19 -->
<g id="node19" class="node">
<title>Node19</title>
<g id="a_node19"><a xlink:title=" ">
<polygon fill="none" stroke="#bfbfbf" points="1615.5,-0.5 1615.5,-19.5 1662.5,-19.5 1662.5,-0.5 1615.5,-0.5"/>
<text text-anchor="middle" x="1639" y="-7.5" font-family="Helvetica,sans-Serif" font-size="10.00">vector</text>
</a>
</g>
</g>
<!-- Node1&#45;&gt;Node19 -->
<g id="edge85" class="edge">
<title>Node1&#45;&gt;Node19</title>
<path fill="none" stroke="midnightblue" d="M791.62,-456.77C1025.46,-455.06 1736,-442.05 1736,-347 1736,-347 1736,-347 1736,-121 1736,-77.35 1692.49,-42.83 1663.76,-24.79"/>
<polygon fill="midnightblue" stroke="midnightblue" points="1665.39,-21.68 1655.02,-19.52 1661.77,-27.68 1665.39,-21.68"/>
</g>
<!-- Node23 -->
<g id="node23" class="node">
<title>Node23</title>
<g id="a_node23"><a xlink:href="../../d0/dd8/_i_o_exception_8h.html" target="_top" xlink:title=" ">
<polygon fill="none" stroke="black" points="594,-168.5 594,-187.5 690,-187.5 690,-168.5 594,-168.5"/>
<text text-anchor="middle" x="642" y="-175.5" font-family="Helvetica,sans-Serif" font-size="10.00">io/IOException.h</text>
</a>
</g>
</g>
<!-- Node1&#45;&gt;Node23 -->
<g id="edge77" class="edge">
<title>Node1&#45;&gt;Node23</title>
<path fill="none" stroke="midnightblue" d="M697.36,-448.42C664.5,-433.23 604,-398.29 604,-347 604,-347 604,-347 604,-289 604,-254.81 620.6,-217.76 631.86,-196.57"/>
<polygon fill="midnightblue" stroke="midnightblue" points="634.95,-198.22 636.72,-187.77 628.82,-194.83 634.95,-198.22"/>
</g>
<!-- Node24 -->
<g id="node24" class="node">
<title>Node24</title>
<g id="a_node24"><a xlink:href="../../d7/d05/_rawspeed_exception_8h.html" target="_top" xlink:title=" ">
<polygon fill="none" stroke="black" points="254,-112.5 254,-131.5 424,-131.5 424,-112.5 254,-112.5"/>
<text text-anchor="middle" x="339" y="-119.5" font-family="Helvetica,sans-Serif" font-size="10.00">common/RawspeedException.h</text>
</a>
</g>
</g>
<!-- Node1&#45;&gt;Node24 -->
<g id="edge76" class="edge">
<title>Node1&#45;&gt;Node24</title>
<path fill="none" stroke="midnightblue" d="M644.4,-457.45C494.53,-456.39 168,-443.04 168,-347 168,-347 168,-347 168,-233 168,-202.9 165.75,-189.32 187,-168 203.5,-151.44 225.78,-140.92 248.19,-134.25"/>
<polygon fill="midnightblue" stroke="midnightblue" points="249.41,-137.54 258.13,-131.53 247.56,-130.79 249.41,-137.54"/>
</g>
<!-- Node29 -->
<g id="node29" class="node">
<title>Node29</title>
<g id="a_node29"><a xlink:title=" ">
<polygon fill="none" stroke="#bfbfbf" points="518,-168.5 518,-187.5 576,-187.5 576,-168.5 518,-168.5"/>
<text text-anchor="middle" x="547" y="-175.5" font-family="Helvetica,sans-Serif" font-size="10.00">memory</text>
</a>
</g>
</g>
<!-- Node1&#45;&gt;Node29 -->
<g id="edge82" class="edge">
<title>Node1&#45;&gt;Node29</title>
<path fill="none" stroke="midnightblue" d="M683.13,-448.4C638.25,-435 566,-404.49 566,-347 566,-347 566,-347 566,-289 566,-256.49 557.84,-219.35 552.22,-197.61"/>
<polygon fill="midnightblue" stroke="midnightblue" points="555.54,-196.5 549.56,-187.75 548.78,-198.32 555.54,-196.5"/>
</g>
<!-- Node34 -->
<g id="node34" class="node">
<title>Node34</title>
<g id="a_node34"><a xlink:href="../../de/da5/_tiff_entry_8h.html" target="_top" xlink:title=" ">
<polygon fill="none" stroke="black" points="1380,-336.5 1380,-355.5 1462,-355.5 1462,-336.5 1380,-336.5"/>
<text text-anchor="middle" x="1421" y="-343.5" font-family="Helvetica,sans-Serif" font-size="10.00">tiff/TiffEntry.h</text>
</a>
</g>
</g>
<!-- Node1&#45;&gt;Node34 -->
<g id="edge78" class="edge">
<title>Node1&#45;&gt;Node34</title>
<path fill="none" stroke="midnightblue" d="M791.61,-454.46C923.1,-449.38 1193.11,-436.29 1284,-412 1326.58,-400.62 1372.07,-376.32 1398.45,-360.87"/>
<polygon fill="midnightblue" stroke="midnightblue" points="1400.46,-363.74 1407.26,-355.62 1396.88,-357.73 1400.46,-363.74"/>
</g>
<!-- Node35 -->
<g id="node35" class="node">
<title>Node35</title>
<g id="a_node35"><a xlink:href="../../d0/d6b/_tiff_tag_8h.html" target="_top" xlink:title=" ">
<polygon fill="none" stroke="black" points="1558,-280.5 1558,-299.5 1632,-299.5 1632,-280.5 1558,-280.5"/>
<text text-anchor="middle" x="1595" y="-287.5" font-family="Helvetica,sans-Serif" font-size="10.00">tiff/TiffTag.h</text>
</a>
</g>
</g>
<!-- Node1&#45;&gt;Node35 -->
<g id="edge79" class="edge">
<title>Node1&#45;&gt;Node35</title>
<path fill="none" stroke="midnightblue" d="M791.69,-456.34C914.73,-454.26 1169.48,-445.84 1382,-412 1482.07,-396.07 1540.77,-435.97 1603,-356 1613.34,-342.71 1609.04,-323.05 1603.58,-308.84"/>
<polygon fill="midnightblue" stroke="midnightblue" points="1606.77,-307.4 1599.59,-299.61 1600.35,-310.18 1606.77,-307.4"/>
</g>
<!-- Node36 -->
<g id="node36" class="node">
<title>Node36</title>
<g id="a_node36"><a xlink:title=" ">
<polygon fill="none" stroke="#bfbfbf" points="1556,-336.5 1556,-355.5 1594,-355.5 1594,-336.5 1556,-336.5"/>
<text text-anchor="middle" x="1575" y="-343.5" font-family="Helvetica,sans-Serif" font-size="10.00">map</text>
</a>
</g>
</g>
<!-- Node1&#45;&gt;Node36 -->
<g id="edge81" class="edge">
<title>Node1&#45;&gt;Node36</title>
<path fill="none" stroke="midnightblue" d="M791.6,-455.69C905.99,-452.73 1133.05,-443.1 1323,-412 1405.28,-398.53 1499.89,-370.7 1546.29,-356.22"/>
<polygon fill="midnightblue" stroke="midnightblue" points="1547.48,-359.51 1555.97,-353.17 1545.38,-352.84 1547.48,-359.51"/>
</g>
<!-- Node2&#45;&gt;Node3 -->
<g id="edge2" class="edge">
<title>Node2&#45;&gt;Node3</title>
<path fill="none" stroke="midnightblue" d="M1200.65,-399.29C1093.61,-394.24 776.57,-378.38 514,-356 512.88,-355.9 511.75,-355.81 510.62,-355.71"/>
<polygon fill="midnightblue" stroke="midnightblue" points="510.55,-352.19 500.27,-354.75 509.9,-359.16 510.55,-352.19"/>
</g>
<!-- Node10 -->
<g id="node10" class="node">
<title>Node10</title>
<g id="a_node10"><a xlink:href="../../d7/d1b/_buffer_8h.html" target="_top" xlink:title=" ">
<polygon fill="none" stroke="black" points="746,-224.5 746,-243.5 812,-243.5 812,-224.5 746,-224.5"/>
<text text-anchor="middle" x="779" y="-231.5" font-family="Helvetica,sans-Serif" font-size="10.00">io/Buffer.h</text>
</a>
</g>
</g>
<!-- Node2&#45;&gt;Node10 -->
<g id="edge9" class="edge">
<title>Node2&#45;&gt;Node10</title>
<path fill="none" stroke="midnightblue" d="M1214.29,-392.42C1138.19,-364.9 899.99,-278.76 812.05,-246.95"/>
<polygon fill="midnightblue" stroke="midnightblue" points="813.16,-243.63 802.57,-243.52 810.78,-250.22 813.16,-243.63"/>
</g>
<!-- Node15 -->
<g id="node15" class="node">
<title>Node15</title>
<g id="a_node15"><a xlink:title=" ">
<polygon fill="none" stroke="#bfbfbf" points="1141,-0.5 1141,-19.5 1191,-19.5 1191,-0.5 1141,-0.5"/>
<text text-anchor="middle" x="1166" y="-7.5" font-family="Helvetica,sans-Serif" font-size="10.00">cstdint</text>
</a>
</g>
</g>
<!-- Node2&#45;&gt;Node15 -->
<g id="edge69" class="edge">
<title>Node2&#45;&gt;Node15</title>
<path fill="none" stroke="midnightblue" d="M1249.93,-392.36C1285.76,-365.29 1390,-278.03 1390,-179 1390,-179 1390,-179 1390,-121 1390,-38.06 1264.75,-17.65 1201.57,-12.64"/>
<polygon fill="midnightblue" stroke="midnightblue" points="1201.48,-9.12 1191.26,-11.91 1200.99,-16.1 1201.48,-9.12"/>
</g>
<!-- Node2&#45;&gt;Node18 -->
<g id="edge72" class="edge">
<title>Node2&#45;&gt;Node18</title>
<path fill="none" stroke="midnightblue" d="M1259.45,-392.46C1316.21,-368.29 1466,-293.64 1466,-179 1466,-179 1466,-179 1466,-121 1466,-88.49 1474.16,-51.35 1479.78,-29.61"/>
<polygon fill="midnightblue" stroke="midnightblue" points="1483.22,-30.32 1482.44,-19.75 1476.46,-28.5 1483.22,-30.32"/>
</g>
<!-- Node2&#45;&gt;Node19 -->
<g id="edge73" class="edge">
<title>Node2&#45;&gt;Node19</title>
<path fill="none" stroke="midnightblue" d="M1275.43,-395.93C1338.21,-387.21 1461.96,-369.07 1504,-356 1524.13,-349.74 1527.59,-344.22 1547,-336 1588.2,-318.56 1604.29,-325.57 1641,-300 1672.53,-278.04 1698,-273.42 1698,-235 1698,-235 1698,-235 1698,-121 1698,-84.02 1671.79,-47.47 1654.31,-27.21"/>
<polygon fill="midnightblue" stroke="midnightblue" points="1656.74,-24.67 1647.45,-19.56 1651.53,-29.34 1656.74,-24.67"/>
</g>
<!-- Node22 -->
<g id="node22" class="node">
<title>Node22</title>
<g id="a_node22"><a xlink:href="../../d5/d0b/_endianness_8h.html" target="_top" xlink:title=" ">
<polygon fill="none" stroke="black" points="946.5,-56.5 946.5,-75.5 1039.5,-75.5 1039.5,-56.5 946.5,-56.5"/>
<text text-anchor="middle" x="993" y="-63.5" font-family="Helvetica,sans-Serif" font-size="10.00">io/Endianness.h</text>
</a>
</g>
</g>
<!-- Node2&#45;&gt;Node22 -->
<g id="edge54" class="edge">
<title>Node2&#45;&gt;Node22</title>
<path fill="none" stroke="midnightblue" d="M1238,-392.44C1238,-373.94 1238,-328.81 1238,-291 1238,-291 1238,-291 1238,-177 1238,-146.77 1240.43,-132.27 1218,-112 1211.71,-106.32 1114.39,-88.31 1049.82,-76.87"/>
<polygon fill="midnightblue" stroke="midnightblue" points="1050.22,-73.39 1039.76,-75.1 1049,-80.28 1050.22,-73.39"/>
</g>
<!-- Node2&#45;&gt;Node29 -->
<g id="edge71" class="edge">
<title>Node2&#45;&gt;Node29</title>
<path fill="none" stroke="midnightblue" d="M1201.99,-392.42C1114.32,-371.14 883.29,-312.62 697,-244 653.45,-227.96 604.34,-205.89 574.54,-192.04"/>
<polygon fill="midnightblue" stroke="midnightblue" points="575.75,-188.74 565.2,-187.68 572.78,-195.08 575.75,-188.74"/>
</g>
<!-- Node30 -->
<g id="node30" class="node">
<title>Node30</title>
<g id="a_node30"><a xlink:href="../../d7/de7/_byte_stream_8h.html" target="_top" xlink:title=" ">
<polygon fill="none" stroke="black" points="1069.5,-280.5 1069.5,-299.5 1164.5,-299.5 1164.5,-280.5 1069.5,-280.5"/>
<text text-anchor="middle" x="1117" y="-287.5" font-family="Helvetica,sans-Serif" font-size="10.00">io/ByteStream.h</text>
</a>
</g>
</g>
<!-- Node2&#45;&gt;Node30 -->
<g id="edge44" class="edge">
<title>Node2&#45;&gt;Node30</title>
<path fill="none" stroke="midnightblue" d="M1228.51,-392.37C1208.1,-373.81 1159.8,-329.91 1133.98,-306.44"/>
<polygon fill="midnightblue" stroke="midnightblue" points="1136.2,-303.73 1126.45,-299.59 1131.5,-308.91 1136.2,-303.73"/>
</g>
<!-- Node32 -->
<g id="node32" class="node">
<title>Node32</title>
<g id="a_node32"><a xlink:href="../../d3/df4/_tiff_parser_exception_8h.html" target="_top" xlink:title=" ">
<polygon fill="none" stroke="black" points="340,-224.5 340,-243.5 498,-243.5 498,-224.5 340,-224.5"/>
<text text-anchor="middle" x="419" y="-231.5" font-family="Helvetica,sans-Serif" font-size="10.00">parsers/TiffParserException.h</text>
</a>
</g>
</g>
<!-- Node2&#45;&gt;Node32 -->
<g id="edge55" class="edge">
<title>Node2&#45;&gt;Node32</title>
<path fill="none" stroke="midnightblue" d="M1200.76,-401C1117.45,-400.28 910.17,-394.39 742,-356 628.23,-330.03 500.51,-273.48 446,-247.96"/>
<polygon fill="midnightblue" stroke="midnightblue" points="447.23,-244.67 436.69,-243.57 444.24,-251 447.23,-244.67"/>
</g>
<!-- Node2&#45;&gt;Node34 -->
<g id="edge61" class="edge">
<title>Node2&#45;&gt;Node34</title>
<path fill="none" stroke="midnightblue" d="M1267,-392.44C1298.18,-383.24 1347.93,-368.56 1382.41,-358.39"/>
<polygon fill="midnightblue" stroke="midnightblue" points="1383.54,-361.7 1392.14,-355.52 1381.56,-354.99 1383.54,-361.7"/>
</g>
<!-- Node2&#45;&gt;Node35 -->
<g id="edge68" class="edge">
<title>Node2&#45;&gt;Node35</title>
<path fill="none" stroke="midnightblue" d="M1275.19,-397.21C1321.93,-391.68 1404.12,-379.42 1471,-356 1490.87,-349.04 1540.64,-321.73 1570.74,-304.8"/>
<polygon fill="midnightblue" stroke="midnightblue" points="1572.77,-307.68 1579.75,-299.71 1569.33,-301.58 1572.77,-307.68"/>
</g>
<!-- Node2&#45;&gt;Node36 -->
<g id="edge70" class="edge">
<title>Node2&#45;&gt;Node36</title>
<path fill="none" stroke="midnightblue" d="M1275.22,-396.94C1332.78,-390.34 1446.7,-375.97 1542,-356 1543.28,-355.73 1544.57,-355.45 1545.88,-355.14"/>
<polygon fill="midnightblue" stroke="midnightblue" points="1547.05,-358.46 1555.9,-352.62 1545.35,-351.67 1547.05,-358.46"/>
</g>
<!-- Node4 -->
<g id="node4" class="node">
<title>Node4</title>
<g id="a_node4"><a xlink:href="../../d9/dc1/_range_8h.html" target="_top" xlink:title=" ">
<polygon fill="none" stroke="black" points="0,-224.5 0,-243.5 102,-243.5 102,-224.5 0,-224.5"/>
<text text-anchor="middle" x="51" y="-231.5" font-family="Helvetica,sans-Serif" font-size="10.00">common/Range.h</text>
</a>
</g>
</g>
<!-- Node3&#45;&gt;Node4 -->
<g id="edge3" class="edge">
<title>Node3&#45;&gt;Node4</title>
<path fill="none" stroke="midnightblue" d="M401.5,-336.46C333.66,-316.82 166.55,-268.45 90.2,-246.35"/>
<polygon fill="midnightblue" stroke="midnightblue" points="91.06,-242.95 80.48,-243.53 89.12,-249.68 91.06,-242.95"/>
</g>
<!-- Node9 -->
<g id="node9" class="node">
<title>Node9</title>
<g id="a_node9"><a xlink:title=" ">
<polygon fill="none" stroke="#bfbfbf" points="415,-280.5 415,-299.5 447,-299.5 447,-280.5 415,-280.5"/>
<text text-anchor="middle" x="431" y="-287.5" font-family="Helvetica,sans-Serif" font-size="10.00">set</text>
</a>
</g>
</g>
<!-- Node3&#45;&gt;Node9 -->
<g id="edge8" class="edge">
<title>Node3&#45;&gt;Node9</title>
<path fill="none" stroke="midnightblue" d="M431,-336.08C431,-329.01 431,-318.86 431,-309.99"/>
<polygon fill="midnightblue" stroke="midnightblue" points="434.5,-309.75 431,-299.75 427.5,-309.75 434.5,-309.75"/>
</g>
<!-- Node5 -->
<g id="node5" class="node">
<title>Node5</title>
<g id="a_node5"><a xlink:title=" ">
<polygon fill="none" stroke="#bfbfbf" points="122,-0.5 122,-19.5 186,-19.5 186,-0.5 122,-0.5"/>
<text text-anchor="middle" x="154" y="-7.5" font-family="Helvetica,sans-Serif" font-size="10.00">algorithm</text>
</a>
</g>
</g>
<!-- Node4&#45;&gt;Node5 -->
<g id="edge4" class="edge">
<title>Node4&#45;&gt;Node5</title>
<path fill="none" stroke="midnightblue" d="M47.05,-224.29C35.22,-196.75 3.11,-110.22 40,-56 55.99,-32.5 86.34,-21.27 111.7,-15.91"/>
<polygon fill="midnightblue" stroke="midnightblue" points="112.67,-19.29 121.85,-14.01 111.38,-12.41 112.67,-19.29"/>
</g>
<!-- Node4&#45;&gt;Node6 -->
<g id="edge5" class="edge">
<title>Node4&#45;&gt;Node6</title>
<path fill="none" stroke="midnightblue" d="M52.89,-224.33C60.15,-191.76 87.36,-77.55 116,-56 128,-46.98 579.25,-20.61 711.77,-13.05"/>
<polygon fill="midnightblue" stroke="midnightblue" points="712.03,-16.54 721.82,-12.48 711.63,-9.55 712.03,-16.54"/>
</g>
<!-- Node7 -->
<g id="node7" class="node">
<title>Node7</title>
<g id="a_node7"><a xlink:title=" ">
<polygon fill="none" stroke="#bfbfbf" points="491.5,-0.5 491.5,-19.5 560.5,-19.5 560.5,-0.5 491.5,-0.5"/>
<text text-anchor="middle" x="526" y="-7.5" font-family="Helvetica,sans-Serif" font-size="10.00">type_traits</text>
</a>
</g>
</g>
<!-- Node4&#45;&gt;Node7 -->
<g id="edge6" class="edge">
<title>Node4&#45;&gt;Node7</title>
<path fill="none" stroke="midnightblue" d="M49.13,-224.38C43.44,-195.59 29.55,-102.03 78,-56 106.86,-28.58 373.48,-16.3 481.18,-12.43"/>
<polygon fill="midnightblue" stroke="midnightblue" points="481.53,-15.92 491.4,-12.07 481.28,-8.93 481.53,-15.92"/>
</g>
<!-- Node4&#45;&gt;Node8 -->
<g id="edge7" class="edge">
<title>Node4&#45;&gt;Node8</title>
<path fill="none" stroke="midnightblue" d="M77.62,-224.44C107.17,-214.94 154.88,-199.61 186.59,-189.42"/>
<polygon fill="midnightblue" stroke="midnightblue" points="187.83,-192.7 196.28,-186.3 185.68,-186.03 187.83,-192.7"/>
</g>
<!-- Node10&#45;&gt;Node6 -->
<g id="edge40" class="edge">
<title>Node10&#45;&gt;Node6</title>
<path fill="none" stroke="midnightblue" d="M777.78,-224.3C773.22,-191.63 757.06,-75.87 750.65,-29.96"/>
<polygon fill="midnightblue" stroke="midnightblue" points="754.09,-29.3 749.24,-19.88 747.16,-30.27 754.09,-29.3"/>
</g>
<!-- Node10&#45;&gt;Node8 -->
<g id="edge43" class="edge">
<title>Node10&#45;&gt;Node8</title>
<path fill="none" stroke="midnightblue" d="M745.98,-230.38C666.96,-224.03 460.74,-206.92 289,-188 276.88,-186.66 263.6,-185.01 251.9,-183.48"/>
<polygon fill="midnightblue" stroke="midnightblue" points="252.05,-179.97 241.67,-182.13 251.13,-186.91 252.05,-179.97"/>
</g>
<!-- Node11 -->
<g id="node11" class="node">
<title>Node11</title>
<g id="a_node11"><a xlink:href="../../d2/d4f/_address_sanitizer_8h.html" target="_top" xlink:title=" ">
<polygon fill="none" stroke="black" points="1102.5,-168.5 1102.5,-187.5 1209.5,-187.5 1209.5,-168.5 1102.5,-168.5"/>
<text text-anchor="middle" x="1156" y="-175.5" font-family="Helvetica,sans-Serif" font-size="10.00">AddressSanitizer.h</text>
</a>
</g>
</g>
<!-- Node10&#45;&gt;Node11 -->
<g id="edge10" class="edge">
<title>Node10&#45;&gt;Node11</title>
<path fill="none" stroke="midnightblue" d="M812.13,-228.26C874.76,-219.28 1011.51,-199.7 1092.42,-188.11"/>
<polygon fill="midnightblue" stroke="midnightblue" points="1093.08,-191.55 1102.48,-186.67 1092.09,-184.62 1093.08,-191.55"/>
</g>
<!-- Node10&#45;&gt;Node13 -->
<g id="edge12" class="edge">
<title>Node10&#45;&gt;Node13</title>
<path fill="none" stroke="midnightblue" d="M783.89,-224.08C798.34,-197.72 841.01,-119.88 860.32,-84.66"/>
<polygon fill="midnightblue" stroke="midnightblue" points="863.57,-86.02 865.3,-75.57 857.43,-82.65 863.57,-86.02"/>
</g>
<!-- Node10&#45;&gt;Node15 -->
<g id="edge41" class="edge">
<title>Node10&#45;&gt;Node15</title>
<path fill="none" stroke="midnightblue" d="M805.82,-224.44C864.75,-204.78 1008.3,-152.15 1109,-76 1127.07,-62.34 1143.65,-42.19 1154.21,-27.95"/>
<polygon fill="midnightblue" stroke="midnightblue" points="1157.23,-29.74 1160.24,-19.58 1151.55,-25.65 1157.23,-29.74"/>
</g>
<!-- Node20 -->
<g id="node20" class="node">
<title>Node20</title>
<g id="a_node20"><a xlink:href="../../d3/de6/_memory_8h.html" target="_top" xlink:title=" ">
<polygon fill="none" stroke="black" points="974,-168.5 974,-187.5 1084,-187.5 1084,-168.5 974,-168.5"/>
<text text-anchor="middle" x="1029" y="-175.5" font-family="Helvetica,sans-Serif" font-size="10.00">common/Memory.h</text>
</a>
</g>
</g>
<!-- Node10&#45;&gt;Node20 -->
<g id="edge22" class="edge">
<title>Node10&#45;&gt;Node20</title>
<path fill="none" stroke="midnightblue" d="M812.2,-225.83C855.07,-216.57 930.05,-200.37 979.61,-189.67"/>
<polygon fill="midnightblue" stroke="midnightblue" points="980.44,-193.07 989.48,-187.54 978.96,-186.23 980.44,-193.07"/>
</g>
<!-- Node10&#45;&gt;Node22 -->
<g id="edge27" class="edge">
<title>Node10&#45;&gt;Node22</title>
<path fill="none" stroke="midnightblue" d="M790.2,-224.31C824.8,-197.47 930.23,-115.69 973.82,-81.88"/>
<polygon fill="midnightblue" stroke="midnightblue" points="976.15,-84.5 981.91,-75.61 971.86,-78.97 976.15,-84.5"/>
</g>
<!-- Node10&#45;&gt;Node23 -->
<g id="edge31" class="edge">
<title>Node10&#45;&gt;Node23</title>
<path fill="none" stroke="midnightblue" d="M757.29,-224.44C734.65,-215.52 698.93,-201.44 673.25,-191.32"/>
<polygon fill="midnightblue" stroke="midnightblue" points="674.19,-187.93 663.61,-187.52 671.63,-194.44 674.19,-187.93"/>
</g>
<!-- Node10&#45;&gt;Node29 -->
<g id="edge42" class="edge">
<title>Node10&#45;&gt;Node29</title>
<path fill="none" stroke="midnightblue" d="M745.69,-225.32C709,-216.86 647.98,-202.74 586,-188.23"/>
<polygon fill="midnightblue" stroke="midnightblue" points="586.58,-184.77 576.04,-185.89 584.98,-191.58 586.58,-184.77"/>
</g>
<!-- Node12 -->
<g id="node12" class="node">
<title>Node12</title>
<g id="a_node12"><a xlink:title=" ">
<polygon fill="none" stroke="#bfbfbf" points="1156.5,-112.5 1156.5,-131.5 1209.5,-131.5 1209.5,-112.5 1156.5,-112.5"/>
<text text-anchor="middle" x="1183" y="-119.5" font-family="Helvetica,sans-Serif" font-size="10.00">cstddef</text>
</a>
</g>
</g>
<!-- Node11&#45;&gt;Node12 -->
<g id="edge11" class="edge">
<title>Node11&#45;&gt;Node12</title>
<path fill="none" stroke="midnightblue" d="M1160.46,-168.08C1164.15,-160.69 1169.52,-149.95 1174.09,-140.81"/>
<polygon fill="midnightblue" stroke="midnightblue" points="1177.28,-142.26 1178.62,-131.75 1171.02,-139.13 1177.28,-142.26"/>
</g>
<!-- Node13&#45;&gt;Node5 -->
<g id="edge13" class="edge">
<title>Node13&#45;&gt;Node5</title>
<path fill="none" stroke="midnightblue" d="M811.71,-60.6C671.58,-50.04 318.38,-23.4 196.29,-14.19"/>
<polygon fill="midnightblue" stroke="midnightblue" points="196.45,-10.69 186.22,-13.43 195.92,-17.67 196.45,-10.69"/>
</g>
<!-- Node13&#45;&gt;Node6 -->
<g id="edge14" class="edge">
<title>Node13&#45;&gt;Node6</title>
<path fill="none" stroke="midnightblue" d="M850.67,-56.44C830.68,-47.6 799.26,-33.69 776.44,-23.59"/>
<polygon fill="midnightblue" stroke="midnightblue" points="777.8,-20.36 767.24,-19.52 774.97,-26.76 777.8,-20.36"/>
</g>
<!-- Node13&#45;&gt;Node7 -->
<g id="edge20" class="edge">
<title>Node13&#45;&gt;Node7</title>
<path fill="none" stroke="midnightblue" d="M815.49,-56.44C747.84,-45.82 633.72,-27.91 570.87,-18.04"/>
<polygon fill="midnightblue" stroke="midnightblue" points="571.29,-14.57 560.87,-16.47 570.21,-21.48 571.29,-14.57"/>
</g>
<!-- Node14 -->
<g id="node14" class="node">
<title>Node14</title>
<g id="a_node14"><a xlink:title=" ">
<polygon fill="none" stroke="#bfbfbf" points="898,-0.5 898,-19.5 948,-19.5 948,-0.5 898,-0.5"/>
<text text-anchor="middle" x="923" y="-7.5" font-family="Helvetica,sans-Serif" font-size="10.00">climits</text>
</a>
</g>
</g>
<!-- Node13&#45;&gt;Node14 -->
<g id="edge15" class="edge">
<title>Node13&#45;&gt;Node14</title>
<path fill="none" stroke="midnightblue" d="M878.75,-56.08C886.47,-48.22 897.9,-36.57 907.22,-27.08"/>
<polygon fill="midnightblue" stroke="midnightblue" points="909.9,-29.34 914.41,-19.75 904.91,-24.44 909.9,-29.34"/>
</g>
<!-- Node13&#45;&gt;Node15 -->
<g id="edge16" class="edge">
<title>Node13&#45;&gt;Node15</title>
<path fill="none" stroke="midnightblue" d="M916.9,-56.44C976.35,-45.6 1077.49,-27.15 1130.77,-17.43"/>
<polygon fill="midnightblue" stroke="midnightblue" points="1131.55,-20.84 1140.76,-15.6 1130.29,-13.96 1131.55,-20.84"/>
</g>
<!-- Node16 -->
<g id="node16" class="node">
<title>Node16</title>
<g id="a_node16"><a xlink:title=" ">
<polygon fill="none" stroke="#bfbfbf" points="968,-0.5 968,-19.5 1018,-19.5 1018,-0.5 968,-0.5"/>
<text text-anchor="middle" x="993" y="-7.5" font-family="Helvetica,sans-Serif" font-size="10.00">cstring</text>
</a>
</g>
</g>
<!-- Node13&#45;&gt;Node16 -->
<g id="edge17" class="edge">
<title>Node13&#45;&gt;Node16</title>
<path fill="none" stroke="midnightblue" d="M889.49,-56.44C909.64,-47.6 941.32,-33.69 964.33,-23.59"/>
<polygon fill="midnightblue" stroke="midnightblue" points="965.85,-26.74 973.6,-19.52 963.04,-20.33 965.85,-26.74"/>
</g>
<!-- Node17 -->
<g id="node17" class="node">
<title>Node17</title>
<g id="a_node17"><a xlink:title=" ">
<polygon fill="none" stroke="#bfbfbf" points="796.5,-0.5 796.5,-19.5 879.5,-19.5 879.5,-0.5 796.5,-0.5"/>
<text text-anchor="middle" x="838" y="-7.5" font-family="Helvetica,sans-Serif" font-size="10.00">initializer_list</text>
</a>
</g>
</g>
<!-- Node13&#45;&gt;Node17 -->
<g id="edge18" class="edge">
<title>Node13&#45;&gt;Node17</title>
<path fill="none" stroke="midnightblue" d="M864.72,-56.08C860.29,-48.61 853.84,-37.72 848.38,-28.52"/>
<polygon fill="midnightblue" stroke="midnightblue" points="851.29,-26.57 843.19,-19.75 845.27,-30.14 851.29,-26.57"/>
</g>
<!-- Node13&#45;&gt;Node18 -->
<g id="edge19" class="edge">
<title>Node13&#45;&gt;Node18</title>
<path fill="none" stroke="midnightblue" d="M928.08,-57.01C931.1,-56.66 934.08,-56.32 937,-56 1132.45,-34.86 1368.08,-18.61 1452.75,-13.06"/>
<polygon fill="midnightblue" stroke="midnightblue" points="1453.02,-16.55 1462.78,-12.41 1452.57,-9.57 1453.02,-16.55"/>
</g>
<!-- Node13&#45;&gt;Node19 -->
<g id="edge21" class="edge">
<title>Node13&#45;&gt;Node19</title>
<path fill="none" stroke="midnightblue" d="M928.08,-56.94C931.09,-56.6 934.08,-56.29 937,-56 1193.6,-30.82 1258.76,-37.41 1516,-20 1546.15,-17.96 1580.43,-15.43 1605.13,-13.58"/>
<polygon fill="midnightblue" stroke="midnightblue" points="1605.72,-17.04 1615.43,-12.8 1605.19,-10.06 1605.72,-17.04"/>
</g>
<!-- Node20&#45;&gt;Node12 -->
<g id="edge25" class="edge">
<title>Node20&#45;&gt;Node12</title>
<path fill="none" stroke="midnightblue" d="M1053.4,-168.44C1079.2,-159.4 1120.08,-145.06 1149.02,-134.92"/>
<polygon fill="midnightblue" stroke="midnightblue" points="1150.43,-138.13 1158.71,-131.52 1148.12,-131.52 1150.43,-138.13"/>
</g>
<!-- Node20&#45;&gt;Node13 -->
<g id="edge24" class="edge">
<title>Node20&#45;&gt;Node13</title>
<path fill="none" stroke="midnightblue" d="M1016.52,-168.37C989.36,-149.57 924.59,-104.77 891.01,-81.53"/>
<polygon fill="midnightblue" stroke="midnightblue" points="892.63,-78.4 882.42,-75.59 888.65,-84.16 892.63,-78.4"/>
</g>
<!-- Node20&#45;&gt;Node15 -->
<g id="edge26" class="edge">
<title>Node20&#45;&gt;Node15</title>
<path fill="none" stroke="midnightblue" d="M1042.42,-168.31C1065.76,-152.57 1114.02,-117.11 1142,-76 1151.72,-61.72 1158.09,-43 1161.8,-29.33"/>
<polygon fill="midnightblue" stroke="midnightblue" points="1165.2,-30.17 1164.23,-19.62 1158.41,-28.47 1165.2,-30.17"/>
</g>
<!-- Node21 -->
<g id="node21" class="node">
<title>Node21</title>
<g id="a_node21"><a xlink:title=" ">
<polygon fill="none" stroke="#bfbfbf" points="452,-56.5 452,-75.5 554,-75.5 554,-56.5 452,-56.5"/>
<text text-anchor="middle" x="503" y="-63.5" font-family="Helvetica,sans-Serif" font-size="10.00">rawspeedconfig.h</text>
</a>
</g>
</g>
<!-- Node20&#45;&gt;Node21 -->
<g id="edge23" class="edge">
<title>Node20&#45;&gt;Node21</title>
<path fill="none" stroke="midnightblue" d="M988.16,-168.46C893.2,-148.6 657.74,-99.36 553.75,-77.61"/>
<polygon fill="midnightblue" stroke="midnightblue" points="554.32,-74.16 543.81,-75.53 552.88,-81.01 554.32,-74.16"/>
</g>
<!-- Node22&#45;&gt;Node6 -->
<g id="edge28" class="edge">
<title>Node22&#45;&gt;Node6</title>
<path fill="none" stroke="midnightblue" d="M953.09,-56.43C911.57,-47.47 844.68,-32.96 787,-20 785.95,-19.76 784.88,-19.52 783.81,-19.28"/>
<polygon fill="midnightblue" stroke="midnightblue" points="784.53,-15.86 774,-17.05 782.98,-22.68 784.53,-15.86"/>
</g>
<!-- Node22&#45;&gt;Node15 -->
<g id="edge29" class="edge">
<title>Node22&#45;&gt;Node15</title>
<path fill="none" stroke="midnightblue" d="M1020.41,-56.44C1050.46,-47.06 1098.73,-32 1131.37,-21.81"/>
<polygon fill="midnightblue" stroke="midnightblue" points="1132.46,-25.14 1140.96,-18.82 1130.37,-18.45 1132.46,-25.14"/>
</g>
<!-- Node22&#45;&gt;Node16 -->
<g id="edge30" class="edge">
<title>Node22&#45;&gt;Node16</title>
<path fill="none" stroke="midnightblue" d="M993,-56.08C993,-49.01 993,-38.86 993,-29.99"/>
<polygon fill="midnightblue" stroke="midnightblue" points="996.5,-29.75 993,-19.75 989.5,-29.75 996.5,-29.75"/>
</g>
<!-- Node23&#45;&gt;Node21 -->
<g id="edge32" class="edge">
<title>Node23&#45;&gt;Node21</title>
<path fill="none" stroke="midnightblue" d="M631.09,-168.37C607.44,-149.65 551.21,-105.15 521.74,-81.83"/>
<polygon fill="midnightblue" stroke="midnightblue" points="523.87,-79.05 513.86,-75.59 519.53,-84.54 523.87,-79.05"/>
</g>
<!-- Node23&#45;&gt;Node24 -->
<g id="edge33" class="edge">
<title>Node23&#45;&gt;Node24</title>
<path fill="none" stroke="midnightblue" d="M593.99,-168.44C540.47,-158.9 453.93,-143.48 396.76,-133.29"/>
<polygon fill="midnightblue" stroke="midnightblue" points="397.25,-129.83 386.79,-131.52 396.02,-136.72 397.25,-129.83"/>
</g>
<!-- Node24&#45;&gt;Node13 -->
<g id="edge35" class="edge">
<title>Node24&#45;&gt;Node13</title>
<path fill="none" stroke="midnightblue" d="M422.85,-112.47C527.71,-101.81 705.19,-83.76 802.02,-73.91"/>
<polygon fill="midnightblue" stroke="midnightblue" points="802.4,-77.39 811.99,-72.9 801.69,-70.43 802.4,-77.39"/>
</g>
<!-- Node24&#45;&gt;Node21 -->
<g id="edge34" class="edge">
<title>Node24&#45;&gt;Node21</title>
<path fill="none" stroke="midnightblue" d="M364.99,-112.44C392.7,-103.32 436.75,-88.81 467.62,-78.65"/>
<polygon fill="midnightblue" stroke="midnightblue" points="468.73,-81.97 477.14,-75.52 466.54,-75.32 468.73,-81.97"/>
</g>
<!-- Node25 -->
<g id="node25" class="node">
<title>Node25</title>
<g id="a_node25"><a xlink:title=" ">
<polygon fill="none" stroke="#bfbfbf" points="1058,-56.5 1058,-75.5 1100,-75.5 1100,-56.5 1058,-56.5"/>
<text text-anchor="middle" x="1079" y="-63.5" font-family="Helvetica,sans-Serif" font-size="10.00">array</text>
</a>
</g>
</g>
<!-- Node24&#45;&gt;Node25 -->
<g id="edge36" class="edge">
<title>Node24&#45;&gt;Node25</title>
<path fill="none" stroke="midnightblue" d="M424.01,-121.59C557.8,-121.18 825.2,-114.93 1048,-76 1048.1,-75.98 1048.2,-75.96 1048.3,-75.95"/>
<polygon fill="midnightblue" stroke="midnightblue" points="1048.81,-79.42 1057.8,-73.82 1047.28,-72.59 1048.81,-79.42"/>
</g>
<!-- Node26 -->
<g id="node26" class="node">
<title>Node26</title>
<g id="a_node26"><a xlink:title=" ">
<polygon fill="none" stroke="#bfbfbf" points="232.5,-56.5 232.5,-75.5 285.5,-75.5 285.5,-56.5 232.5,-56.5"/>
<text text-anchor="middle" x="259" y="-63.5" font-family="Helvetica,sans-Serif" font-size="10.00">cstdarg</text>
</a>
</g>
</g>
<!-- Node24&#45;&gt;Node26 -->
<g id="edge37" class="edge">
<title>Node24&#45;&gt;Node26</title>
<path fill="none" stroke="midnightblue" d="M326.15,-112.32C313.78,-103.98 294.87,-91.21 280.26,-81.35"/>
<polygon fill="midnightblue" stroke="midnightblue" points="282.07,-78.35 271.82,-75.65 278.15,-84.15 282.07,-78.35"/>
</g>
<!-- Node27 -->
<g id="node27" class="node">
<title>Node27</title>
<g id="a_node27"><a xlink:title=" ">
<polygon fill="none" stroke="#bfbfbf" points="304,-56.5 304,-75.5 350,-75.5 350,-56.5 304,-56.5"/>
<text text-anchor="middle" x="327" y="-63.5" font-family="Helvetica,sans-Serif" font-size="10.00">cstdio</text>
</a>
</g>
</g>
<!-- Node24&#45;&gt;Node27 -->
<g id="edge38" class="edge">
<title>Node24&#45;&gt;Node27</title>
<path fill="none" stroke="midnightblue" d="M337.02,-112.08C335.43,-104.93 333.14,-94.64 331.15,-85.69"/>
<polygon fill="midnightblue" stroke="midnightblue" points="334.53,-84.75 328.94,-75.75 327.7,-86.27 334.53,-84.75"/>
</g>
<!-- Node28 -->
<g id="node28" class="node">
<title>Node28</title>
<g id="a_node28"><a xlink:title=" ">
<polygon fill="none" stroke="#bfbfbf" points="368.5,-56.5 368.5,-75.5 433.5,-75.5 433.5,-56.5 368.5,-56.5"/>
<text text-anchor="middle" x="401" y="-63.5" font-family="Helvetica,sans-Serif" font-size="10.00">stdexcept</text>
</a>
</g>
</g>
<!-- Node24&#45;&gt;Node28 -->
<g id="edge39" class="edge">
<title>Node24&#45;&gt;Node28</title>
<path fill="none" stroke="midnightblue" d="M348.96,-112.32C358.13,-104.34 371.94,-92.31 383.03,-82.65"/>
<polygon fill="midnightblue" stroke="midnightblue" points="385.62,-85.04 390.86,-75.83 381.02,-79.76 385.62,-85.04"/>
</g>
<!-- Node30&#45;&gt;Node6 -->
<g id="edge50" class="edge">
<title>Node30&#45;&gt;Node6</title>
<path fill="none" stroke="midnightblue" d="M1089.71,-280.41C1066.77,-272.6 1033.57,-259.88 1007,-244 906.18,-183.75 886.6,-158.5 803,-76 787.46,-60.67 771.55,-41.4 760.87,-27.83"/>
<polygon fill="midnightblue" stroke="midnightblue" points="763.56,-25.59 754.66,-19.84 758.03,-29.89 763.56,-25.59"/>
</g>
<!-- Node30&#45;&gt;Node10 -->
<g id="edge48" class="edge">
<title>Node30&#45;&gt;Node10</title>
<path fill="none" stroke="midnightblue" d="M1069.28,-282.16C1011.57,-273.75 911.51,-258.79 826,-244 824.73,-243.78 823.45,-243.56 822.15,-243.33"/>
<polygon fill="midnightblue" stroke="midnightblue" points="822.56,-239.84 812.1,-241.49 821.31,-246.73 822.56,-239.84"/>
</g>
<!-- Node30&#45;&gt;Node11 -->
<g id="edge45" class="edge">
<title>Node30&#45;&gt;Node11</title>
<path fill="none" stroke="midnightblue" d="M1119.1,-280.47C1122.28,-267.93 1128.72,-243.87 1136,-224 1139.31,-214.97 1143.57,-205.19 1147.31,-197.05"/>
<polygon fill="midnightblue" stroke="midnightblue" points="1150.57,-198.36 1151.66,-187.82 1144.23,-195.38 1150.57,-198.36"/>
</g>
<!-- Node30&#45;&gt;Node13 -->
<g id="edge46" class="edge">
<title>Node30&#45;&gt;Node13</title>
<path fill="none" stroke="midnightblue" d="M1100.72,-280.47C1071.53,-264.7 1009.22,-228.85 965,-188 929.84,-155.52 897.35,-109.22 881.03,-84.36"/>
<polygon fill="midnightblue" stroke="midnightblue" points="883.78,-82.18 875.41,-75.68 877.9,-85.98 883.78,-82.18"/>
</g>
<!-- Node30&#45;&gt;Node15 -->
<g id="edge51" class="edge">
<title>Node30&#45;&gt;Node15</title>
<path fill="none" stroke="midnightblue" d="M1164.9,-283.11C1210.63,-276.39 1274.77,-263.7 1290,-244 1341.11,-177.9 1337.96,-124.42 1290,-56 1270.1,-27.61 1230.36,-17.06 1201.22,-13.18"/>
<polygon fill="midnightblue" stroke="midnightblue" points="1201.34,-9.67 1191.01,-12.03 1200.56,-16.63 1201.34,-9.67"/>
</g>
<!-- Node30&#45;&gt;Node16 -->
<g id="edge52" class="edge">
<title>Node30&#45;&gt;Node16</title>
<path fill="none" stroke="midnightblue" d="M1155.08,-280.46C1202.12,-267.4 1276,-237.57 1276,-179 1276,-179 1276,-179 1276,-121 1276,-68.39 1103.94,-30.95 1028.14,-17"/>
<polygon fill="midnightblue" stroke="midnightblue" points="1028.58,-13.52 1018.11,-15.19 1027.33,-20.41 1028.58,-13.52"/>
</g>
<!-- Node30&#45;&gt;Node20 -->
<g id="edge47" class="edge">
<title>Node30&#45;&gt;Node20</title>
<path fill="none" stroke="midnightblue" d="M1110.09,-280.37C1095.51,-262.14 1061.34,-219.43 1042.34,-195.68"/>
<polygon fill="midnightblue" stroke="midnightblue" points="1044.85,-193.21 1035.87,-187.59 1039.39,-197.59 1044.85,-193.21"/>
</g>
<!-- Node30&#45;&gt;Node23 -->
<g id="edge49" class="edge">
<title>Node30&#45;&gt;Node23</title>
<path fill="none" stroke="midnightblue" d="M1069.16,-286.19C981.08,-280.55 796.79,-266.43 737,-244 706.77,-232.66 676.86,-209.74 658.9,-194.38"/>
<polygon fill="midnightblue" stroke="midnightblue" points="660.93,-191.5 651.1,-187.53 656.31,-196.76 660.93,-191.5"/>
</g>
<!-- Node31 -->
<g id="node31" class="node">
<title>Node31</title>
<g id="a_node31"><a xlink:title=" ">
<polygon fill="none" stroke="#bfbfbf" points="1145,-224.5 1145,-243.5 1189,-243.5 1189,-224.5 1145,-224.5"/>
<text text-anchor="middle" x="1167" y="-231.5" font-family="Helvetica,sans-Serif" font-size="10.00">limits</text>
</a>
</g>
</g>
<!-- Node30&#45;&gt;Node31 -->
<g id="edge53" class="edge">
<title>Node30&#45;&gt;Node31</title>
<path fill="none" stroke="midnightblue" d="M1125.26,-280.08C1132.46,-272.3 1143.11,-260.8 1151.85,-251.37"/>
<polygon fill="midnightblue" stroke="midnightblue" points="1154.67,-253.47 1158.9,-243.75 1149.53,-248.71 1154.67,-253.47"/>
</g>
<!-- Node32&#45;&gt;Node21 -->
<g id="edge56" class="edge">
<title>Node32&#45;&gt;Node21</title>
<path fill="none" stroke="midnightblue" d="M433.02,-224.38C444.86,-216.37 461.39,-203.39 471,-188 491.16,-155.7 498.72,-110.92 501.48,-85.88"/>
<polygon fill="midnightblue" stroke="midnightblue" points="504.99,-85.89 502.46,-75.6 498.02,-85.22 504.99,-85.89"/>
</g>
<!-- Node32&#45;&gt;Node24 -->
<g id="edge57" class="edge">
<title>Node32&#45;&gt;Node24</title>
<path fill="none" stroke="midnightblue" d="M346.74,-224.42C324.58,-218.02 302.51,-206.97 289,-188 276.31,-170.18 296.87,-150.33 315.33,-137.31"/>
<polygon fill="midnightblue" stroke="midnightblue" points="317.42,-140.13 323.81,-131.68 313.54,-134.3 317.42,-140.13"/>
</g>
<!-- Node33 -->
<g id="node33" class="node">
<title>Node33</title>
<g id="a_node33"><a xlink:href="../../d6/d0f/_raw_parser_exception_8h.html" target="_top" xlink:title=" ">
<polygon fill="none" stroke="black" points="298,-168.5 298,-187.5 462,-187.5 462,-168.5 298,-168.5"/>
<text text-anchor="middle" x="380" y="-175.5" font-family="Helvetica,sans-Serif" font-size="10.00">parsers/RawParserException.h</text>
</a>
</g>
</g>
<!-- Node32&#45;&gt;Node33 -->
<g id="edge58" class="edge">
<title>Node32&#45;&gt;Node33</title>
<path fill="none" stroke="midnightblue" d="M412.56,-224.08C407.05,-216.46 398.97,-205.26 392.24,-195.94"/>
<polygon fill="midnightblue" stroke="midnightblue" points="395.01,-193.81 386.32,-187.75 389.34,-197.91 395.01,-193.81"/>
</g>
<!-- Node33&#45;&gt;Node21 -->
<g id="edge59" class="edge">
<title>Node33&#45;&gt;Node21</title>
<path fill="none" stroke="midnightblue" d="M390.68,-168.17C401.47,-159.2 418.56,-144.82 433,-132 451.66,-115.43 472.57,-95.88 486.63,-82.58"/>
<polygon fill="midnightblue" stroke="midnightblue" points="489.21,-84.96 494.06,-75.54 484.39,-79.89 489.21,-84.96"/>
</g>
<!-- Node33&#45;&gt;Node24 -->
<g id="edge60" class="edge">
<title>Node33&#45;&gt;Node24</title>
<path fill="none" stroke="midnightblue" d="M373.23,-168.08C367.44,-160.46 358.94,-149.26 351.86,-139.94"/>
<polygon fill="midnightblue" stroke="midnightblue" points="354.48,-137.6 345.64,-131.75 348.9,-141.83 354.48,-137.6"/>
</g>
<!-- Node34&#45;&gt;Node15 -->
<g id="edge65" class="edge">
<title>Node34&#45;&gt;Node15</title>
<path fill="none" stroke="midnightblue" d="M1421.62,-336.36C1423.33,-311.78 1428,-239.29 1428,-179 1428,-179 1428,-179 1428,-121 1428,-90.2 1427.51,-75.89 1404,-56 1373.92,-30.56 1260.41,-18.26 1201.69,-13.49"/>
<polygon fill="midnightblue" stroke="midnightblue" points="1201.63,-9.97 1191.39,-12.68 1201.09,-16.95 1201.63,-9.97"/>
</g>
<!-- Node34&#45;&gt;Node18 -->
<g id="edge66" class="edge">
<title>Node34&#45;&gt;Node18</title>
<path fill="none" stroke="midnightblue" d="M1433.12,-336.33C1443.77,-328.12 1458.93,-314.85 1468,-300 1497.24,-252.11 1504,-235.11 1504,-179 1504,-179 1504,-179 1504,-121 1504,-88.49 1495.84,-51.35 1490.22,-29.61"/>
<polygon fill="midnightblue" stroke="midnightblue" points="1493.54,-28.5 1487.56,-19.75 1486.78,-30.32 1493.54,-28.5"/>
</g>
<!-- Node34&#45;&gt;Node19 -->
<g id="edge67" class="edge">
<title>Node34&#45;&gt;Node19</title>
<path fill="none" stroke="midnightblue" d="M1438.17,-336.39C1452.6,-328.48 1473.06,-315.63 1487,-300 1565.05,-212.48 1616.21,-77.71 1632.98,-29.19"/>
<polygon fill="midnightblue" stroke="midnightblue" points="1636.29,-30.31 1636.19,-19.72 1629.66,-28.06 1636.29,-30.31"/>
</g>
<!-- Node34&#45;&gt;Node25 -->
<g id="edge64" class="edge">
<title>Node34&#45;&gt;Node25</title>
<path fill="none" stroke="midnightblue" d="M1417.3,-336.15C1402.35,-301.51 1342.81,-173.97 1252,-112 1208.61,-82.38 1146.95,-72.26 1110.16,-68.8"/>
<polygon fill="midnightblue" stroke="midnightblue" points="1110.29,-65.3 1100.04,-67.95 1109.71,-72.27 1110.29,-65.3"/>
</g>
<!-- Node34&#45;&gt;Node30 -->
<g id="edge62" class="edge">
<title>Node34&#45;&gt;Node30</title>
<path fill="none" stroke="midnightblue" d="M1379.68,-337.66C1326.74,-328.26 1234.66,-311.9 1174.79,-301.26"/>
<polygon fill="midnightblue" stroke="midnightblue" points="1175.19,-297.78 1164.73,-299.48 1173.97,-304.67 1175.19,-297.78"/>
</g>
<!-- Node34&#45;&gt;Node35 -->
<g id="edge63" class="edge">
<title>Node34&#45;&gt;Node35</title>
<path fill="none" stroke="midnightblue" d="M1448.57,-336.44C1478.1,-327.28 1525.12,-312.69 1557.88,-302.52"/>
<polygon fill="midnightblue" stroke="midnightblue" points="1559.04,-305.82 1567.56,-299.52 1556.97,-299.14 1559.04,-305.82"/>
</g>
</g>
</svg>
        <g id="navigator" transform="translate(0 0)" fill="#404254">
                <rect fill="#f2f5e9" fill-opacity="0.5" stroke="#606060" stroke-width=".5" x="0" y="0" width="60" height="60"/>
                <use id="zoomplus" xlink:href="#zoomPlus" x="17" y="9" onmousedown="handleZoom(evt,'in')"/>
                <use id="zoomminus" xlink:href="#zoomMin" x="42" y="9" onmousedown="handleZoom(evt,'out')"/>
                <use id="reset" xlink:href="#resetDef" x="30" y="36" onmousedown="handleReset()"/>
                <g id="arrowUp" xlink:href="#dirArrow" transform="translate(30 24)" onmousedown="handlePan(0,-1)">
                  <use xlink:href="#rim" fill="#404040">
                        <set attributeName="fill" to="#808080" begin="arrowUp.mouseover" end="arrowUp.mouseout"/>
                  </use>
                  <path fill="none" stroke="white" stroke-width="1.5" d="M0,-3.0v7 M-2.5,-0.5L0,-3.0L2.5,-0.5"/>
                </g>
                <g id="arrowRight" xlink:href="#dirArrow" transform="rotate(90) translate(36 -43)" onmousedown="handlePan(1,0)">
                  <use xlink:href="#rim" fill="#404040">
                        <set attributeName="fill" to="#808080" begin="arrowRight.mouseover" end="arrowRight.mouseout"/>
                  </use>
                  <path fill="none" stroke="white" stroke-width="1.5" d="M0,-3.0v7 M-2.5,-0.5L0,-3.0L2.5,-0.5"/>
                </g>
                <g id="arrowDown" xlink:href="#dirArrow" transform="rotate(180) translate(-30 -48)" onmousedown="handlePan(0,1)">
                  <use xlink:href="#rim" fill="#404040">
                        <set attributeName="fill" to="#808080" begin="arrowDown.mouseover" end="arrowDown.mouseout"/>
                  </use>
                  <path fill="none" stroke="white" stroke-width="1.5" d="M0,-3.0v7 M-2.5,-0.5L0,-3.0L2.5,-0.5"/>
                </g>
                <g id="arrowLeft" xlink:href="#dirArrow" transform="rotate(270) translate(-36 17)" onmousedown="handlePan(-1,0)">
                  <use xlink:href="#rim" fill="#404040">
                        <set attributeName="fill" to="#808080" begin="arrowLeft.mouseover" end="arrowLeft.mouseout"/>
                  </use>
                  <path fill="none" stroke="white" stroke-width="1.5" d="M0,-3.0v7 M-2.5,-0.5L0,-3.0L2.5,-0.5"/>
                </g>
        </g>
        <svg viewBox="0 0 15 15" width="100%" height="30px" preserveAspectRatio="xMaxYMin meet">
         <g id="arrow_out" transform="scale(0.3 0.3)">
          <a xlink:href="_tiff_i_f_d_8cpp__incl_org.svg" target="_base">
           <rect id="button" ry="5" rx="5" y="6" x="6" height="38" width="38"
                fill="#f2f5e9" fill-opacity="0.5" stroke="#606060" stroke-width="1.0"/>
           <path id="arrow"
             d="M 11.500037,31.436501 C 11.940474,20.09759 22.043105,11.32322 32.158766,21.979434 L 37.068811,17.246167 C 37.068811,17.246167 37.088388,32 37.088388,32 L 22.160133,31.978069 C 22.160133,31.978069 26.997745,27.140456 26.997745,27.140456 C 18.528582,18.264221 13.291696,25.230495 11.500037,31.436501 z"
             style="fill:#404040;"/>
          </a>
         </g>
        </svg>
</svg>
