<?xml version="1.0" encoding="UTF-8" standalone="no"?>
<!DOCTYPE svg PUBLIC "-//W3C//DTD SVG 1.1//EN"
 "http://www.w3.org/Graphics/SVG/1.1/DTD/svg11.dtd">
<!-- Generated by graphviz version 2.43.0 (0)
 -->
<!-- Title: rawspeed::BitStreamCacheBase Pages: 1 -->
<svg width="272pt" height="117pt"
 viewBox="0.00 0.00 272.00 117.00" xmlns="http://www.w3.org/2000/svg" xmlns:xlink="http://www.w3.org/1999/xlink">
<g id="graph0" class="graph" transform="scale(1 1) rotate(0) translate(4 113)">
<title>rawspeed::BitStreamCacheBase</title>
<!-- Node1 -->
<g id="node1" class="node">
<title>Node1</title>
<g id="a_node1"><a xlink:title=" ">
<polygon fill="#bfbfbf" stroke="black" points="2.5,-0.5 2.5,-19.5 175.5,-19.5 175.5,-0.5 2.5,-0.5"/>
<text text-anchor="middle" x="89" y="-7.5" font-family="Helvetica,sans-Serif" font-size="10.00">rawspeed::BitStreamCacheBase</text>
</a>
</g>
</g>
<!-- Node2 -->
<g id="node2" class="node">
<title>Node2</title>
<g id="a_node2"><a xlink:href="../../d6/d30/classuint64__t.html" target="_top" xlink:title=" ">
<polygon fill="none" stroke="black" points="0,-89.5 0,-108.5 56,-108.5 56,-89.5 0,-89.5"/>
<text text-anchor="middle" x="28" y="-96.5" font-family="Helvetica,sans-Serif" font-size="10.00">uint64_t</text>
</a>
</g>
</g>
<!-- Node2&#45;&gt;Node1 -->
<g id="edge1" class="edge">
<title>Node2&#45;&gt;Node1</title>
<path fill="none" stroke="#9a32cd" stroke-dasharray="5,2" d="M32.97,-79.25C36.95,-66.69 43.46,-50.26 53,-38 58.66,-30.72 66.75,-24.42 73.83,-19.74"/>
<polygon fill="#9a32cd" stroke="#9a32cd" points="29.54,-78.52 30.11,-89.1 36.26,-80.47 29.54,-78.52"/>
<text text-anchor="middle" x="69" y="-52" font-family="Helvetica,sans-Serif" font-size="10.00"> cache</text>
</g>
<!-- Node3 -->
<g id="node3" class="node">
<title>Node3</title>
<g id="a_node3"><a xlink:title=" ">
<polygon fill="none" stroke="#bfbfbf" points="74.5,-89.5 74.5,-108.5 103.5,-108.5 103.5,-89.5 74.5,-89.5"/>
<text text-anchor="middle" x="89" y="-96.5" font-family="Helvetica,sans-Serif" font-size="10.00">int</text>
</a>
</g>
</g>
<!-- Node3&#45;&gt;Node1 -->
<g id="edge2" class="edge">
<title>Node3&#45;&gt;Node1</title>
<path fill="none" stroke="#9a32cd" stroke-dasharray="5,2" d="M89,-79.19C89,-60.74 89,-33.41 89,-19.62"/>
<polygon fill="#9a32cd" stroke="#9a32cd" points="85.5,-79.34 89,-89.34 92.5,-79.34 85.5,-79.34"/>
<text text-anchor="middle" x="110" y="-52" font-family="Helvetica,sans-Serif" font-size="10.00"> fillLevel</text>
</g>
<!-- Node4 -->
<g id="node4" class="node">
<title>Node4</title>
<g id="a_node4"><a xlink:title=" ">
<polygon fill="none" stroke="#bfbfbf" points="122,-89.5 122,-108.5 264,-108.5 264,-89.5 122,-89.5"/>
<text text-anchor="middle" x="193" y="-96.5" font-family="Helvetica,sans-Serif" font-size="10.00">static constexpr unsigned</text>
</a>
</g>
</g>
<!-- Node4&#45;&gt;Node1 -->
<g id="edge3" class="edge">
<title>Node4&#45;&gt;Node1</title>
<path fill="none" stroke="#9a32cd" stroke-dasharray="5,2" d="M178.97,-81.17C167.84,-68.42 151.47,-50.96 135,-38 126.12,-31.01 115.26,-24.56 106.32,-19.71"/>
<polygon fill="#9a32cd" stroke="#9a32cd" points="176.61,-83.8 185.77,-89.12 181.93,-79.25 176.61,-83.8"/>
<text text-anchor="middle" x="212" y="-63" font-family="Helvetica,sans-Serif" font-size="10.00"> Size</text>
<text text-anchor="middle" x="212" y="-52" font-family="Helvetica,sans-Serif" font-size="10.00">MaxProcessBytes</text>
<text text-anchor="middle" x="212" y="-41" font-family="Helvetica,sans-Serif" font-size="10.00">MaxGetBits</text>
</g>
</g>
</svg>
