<?xml version="1.0" encoding="UTF-8" standalone="no"?>
<!DOCTYPE svg PUBLIC "-//W3C//DTD SVG 1.1//EN"
 "http://www.w3.org/Graphics/SVG/1.1/DTD/svg11.dtd">
<!-- Generated by graphviz version 2.43.0 (0)
 -->
<!-- Title: rawspeed::CameraId Pages: 1 -->
<svg width="125pt" height="185pt"
 viewBox="0.00 0.00 125.00 185.00" xmlns="http://www.w3.org/2000/svg" xmlns:xlink="http://www.w3.org/1999/xlink">
<g id="graph0" class="graph" transform="scale(1 1) rotate(0) translate(4 181)">
<title>rawspeed::CameraId</title>
<!-- Node1 -->
<g id="node1" class="node">
<title>Node1</title>
<g id="a_node1"><a xlink:title=" ">
<polygon fill="#bfbfbf" stroke="black" points="0,-0.5 0,-19.5 117,-19.5 117,-0.5 0,-0.5"/>
<text text-anchor="middle" x="58.5" y="-7.5" font-family="Helvetica,sans-Serif" font-size="10.00">rawspeed::CameraId</text>
</a>
</g>
</g>
<!-- Node2 -->
<g id="node2" class="node">
<title>Node2</title>
<g id="a_node2"><a xlink:title="STL class.">
<polygon fill="none" stroke="#bfbfbf" points="26,-89.5 26,-108.5 91,-108.5 91,-89.5 26,-89.5"/>
<text text-anchor="middle" x="58.5" y="-96.5" font-family="Helvetica,sans-Serif" font-size="10.00">std::string</text>
</a>
</g>
</g>
<!-- Node2&#45;&gt;Node1 -->
<g id="edge1" class="edge">
<title>Node2&#45;&gt;Node1</title>
<path fill="none" stroke="#9a32cd" stroke-dasharray="5,2" d="M58.5,-79.19C58.5,-60.74 58.5,-33.41 58.5,-19.62"/>
<polygon fill="#9a32cd" stroke="#9a32cd" points="55,-79.34 58.5,-89.34 62,-79.34 55,-79.34"/>
<text text-anchor="middle" x="74" y="-63" font-family="Helvetica,sans-Serif" font-size="10.00"> mode</text>
<text text-anchor="middle" x="74" y="-52" font-family="Helvetica,sans-Serif" font-size="10.00">model</text>
<text text-anchor="middle" x="74" y="-41" font-family="Helvetica,sans-Serif" font-size="10.00">make</text>
</g>
<!-- Node3 -->
<g id="node3" class="node">
<title>Node3</title>
<g id="a_node3"><a xlink:title="STL class.">
<polygon fill="none" stroke="#bfbfbf" points="6.5,-146.5 6.5,-176.5 110.5,-176.5 110.5,-146.5 6.5,-146.5"/>
<text text-anchor="start" x="14.5" y="-164.5" font-family="Helvetica,sans-Serif" font-size="10.00">std::basic_string&lt;</text>
<text text-anchor="middle" x="58.5" y="-153.5" font-family="Helvetica,sans-Serif" font-size="10.00"> char &gt;</text>
</a>
</g>
</g>
<!-- Node3&#45;&gt;Node2 -->
<g id="edge2" class="edge">
<title>Node3&#45;&gt;Node2</title>
<path fill="none" stroke="midnightblue" d="M58.5,-136.35C58.5,-126.51 58.5,-115.78 58.5,-108.54"/>
<polygon fill="midnightblue" stroke="midnightblue" points="55,-136.47 58.5,-146.47 62,-136.47 55,-136.47"/>
</g>
</g>
</svg>
