<?xml version="1.0" encoding="UTF-8" standalone="no"?>
<!DOCTYPE svg PUBLIC "-//W3C//DTD SVG 1.1//EN"
 "http://www.w3.org/Graphics/SVG/1.1/DTD/svg11.dtd">
<!-- Generated by graphviz version 2.43.0 (0)
 -->
<!-- Title: librawspeed/common/ChecksumFile.cpp Pages: 1 -->
<!--zoomable 319 -->
<svg id="main" version="1.1" xmlns="http://www.w3.org/2000/svg" xmlns:xlink="http://www.w3.org/1999/xlink" xml:space="preserve" onload="init(evt)">
<style type="text/css"><![CDATA[
.edge:hover path { stroke: red; }
.edge:hover polygon { stroke: red; fill: red; }
]]></style>
<script type="text/javascript"><![CDATA[
var edges = document.getElementsByTagName('g');
if (edges && edges.length) {
  for (var i=0;i<edges.length;i++) {
    if (edges[i].id.substr(0,4)=='edge') {
      edges[i].setAttribute('class','edge');
    }
  }
}
]]></script>
        <defs>
                <circle id="rim" cx="0" cy="0" r="7"/>
                <circle id="rim2" cx="0" cy="0" r="3.5"/>
                <g id="zoomPlus">
                        <use xlink:href="#rim" fill="#404040">
                                <set attributeName="fill" to="#808080" begin="zoomplus.mouseover" end="zoomplus.mouseout"/>
                        </use>
                        <path d="M-4,0h8M0,-4v8" fill="none" stroke="white" stroke-width="1.5" pointer-events="none"/>
                </g>
                <g id="zoomMin">
                        <use xlink:href="#rim" fill="#404040">
                                <set attributeName="fill" to="#808080" begin="zoomminus.mouseover" end="zoomminus.mouseout"/>
                        </use>
                        <path d="M-4,0h8" fill="none" stroke="white" stroke-width="1.5" pointer-events="none"/>
                </g>
                <g id="dirArrow">
                        <path fill="none" stroke="white" stroke-width="1.5" d="M0,-3.0v7 M-2.5,-0.5L0,-3.0L2.5,-0.5"/>
                </g>
               <g id="resetDef">
                       <use xlink:href="#rim2" fill="#404040">
                               <set attributeName="fill" to="#808080" begin="reset.mouseover" end="reset.mouseout"/>
                       </use>
               </g>
        </defs>

<script type="text/javascript">
var viewWidth = 1153;
var viewHeight = 319;
var sectionId = 'dynsection-0';
</script>
<script xlink:href="../../svgpan.js"/>
<svg id="graph" class="graph">
<g id="viewport">
<title>librawspeed/common/ChecksumFile.cpp</title>
<!-- Node1 -->
<g id="node1" class="node">
<title>Node1</title>
<g id="a_node1"><a xlink:title=" ">
<polygon fill="#bfbfbf" stroke="black" points="211,-280.5 211,-310.5 333,-310.5 333,-280.5 211,-280.5"/>
<text text-anchor="start" x="219" y="-298.5" font-family="Helvetica,sans-Serif" font-size="10.00">librawspeed/common</text>
<text text-anchor="middle" x="272" y="-287.5" font-family="Helvetica,sans-Serif" font-size="10.00">/ChecksumFile.cpp</text>
</a>
</g>
</g>
<!-- Node2 -->
<g id="node2" class="node">
<title>Node2</title>
<g id="a_node2"><a xlink:href="../../d4/de1/_checksum_file_8h.html" target="_top" xlink:title=" ">
<polygon fill="none" stroke="black" points="28.5,-56.5 28.5,-75.5 167.5,-75.5 167.5,-56.5 28.5,-56.5"/>
<text text-anchor="middle" x="98" y="-63.5" font-family="Helvetica,sans-Serif" font-size="10.00">common/ChecksumFile.h</text>
</a>
</g>
</g>
<!-- Node1&#45;&gt;Node2 -->
<g id="edge1" class="edge">
<title>Node1&#45;&gt;Node2</title>
<path fill="none" stroke="midnightblue" d="M235.66,-280.4C217.71,-271.99 196.8,-259.84 182,-244 137.38,-196.22 112.41,-120.42 102.74,-85.6"/>
<polygon fill="midnightblue" stroke="midnightblue" points="106.09,-84.58 100.13,-75.82 99.32,-86.39 106.09,-84.58"/>
</g>
<!-- Node3 -->
<g id="node3" class="node">
<title>Node3</title>
<g id="a_node3"><a xlink:title=" ">
<polygon fill="none" stroke="#bfbfbf" points="76,-0.5 76,-19.5 120,-19.5 120,-0.5 76,-0.5"/>
<text text-anchor="middle" x="98" y="-7.5" font-family="Helvetica,sans-Serif" font-size="10.00">string</text>
</a>
</g>
</g>
<!-- Node1&#45;&gt;Node3 -->
<g id="edge45" class="edge">
<title>Node1&#45;&gt;Node3</title>
<path fill="none" stroke="midnightblue" d="M210.96,-294.27C130.76,-290.37 0,-270.06 0,-179 0,-179 0,-179 0,-121 0,-90.9 0.34,-79.62 19,-56 31.19,-40.57 50.22,-29.51 66.55,-22.21"/>
<polygon fill="midnightblue" stroke="midnightblue" points="67.9,-25.43 75.78,-18.34 65.2,-18.98 67.9,-25.43"/>
</g>
<!-- Node4 -->
<g id="node4" class="node">
<title>Node4</title>
<g id="a_node4"><a xlink:title=" ">
<polygon fill="none" stroke="#bfbfbf" points="172.5,-0.5 172.5,-19.5 219.5,-19.5 219.5,-0.5 172.5,-0.5"/>
<text text-anchor="middle" x="196" y="-7.5" font-family="Helvetica,sans-Serif" font-size="10.00">vector</text>
</a>
</g>
</g>
<!-- Node1&#45;&gt;Node4 -->
<g id="edge46" class="edge">
<title>Node1&#45;&gt;Node4</title>
<path fill="none" stroke="midnightblue" d="M253.6,-280.23C242.6,-270.91 229.06,-257.92 220,-244 203.2,-218.19 196,-209.8 196,-179 196,-179 196,-179 196,-121 196,-88.95 196,-51.64 196,-29.75"/>
<polygon fill="midnightblue" stroke="midnightblue" points="199.5,-29.56 196,-19.56 192.5,-29.56 199.5,-29.56"/>
</g>
<!-- Node5 -->
<g id="node5" class="node">
<title>Node5</title>
<g id="a_node5"><a xlink:href="../../d9/df5/src_2librawspeed_2common_2_common_8h.html" target="_top" xlink:title=" ">
<polygon fill="none" stroke="black" points="700,-56.5 700,-75.5 816,-75.5 816,-56.5 700,-56.5"/>
<text text-anchor="middle" x="758" y="-63.5" font-family="Helvetica,sans-Serif" font-size="10.00">common/Common.h</text>
</a>
</g>
</g>
<!-- Node1&#45;&gt;Node5 -->
<g id="edge4" class="edge">
<title>Node1&#45;&gt;Node5</title>
<path fill="none" stroke="midnightblue" d="M333.03,-293.29C420.18,-288.61 581.49,-268.71 688,-188 723.02,-161.46 743.52,-111.94 752.52,-85.22"/>
<polygon fill="midnightblue" stroke="midnightblue" points="755.89,-86.18 755.59,-75.59 749.22,-84.05 755.89,-86.18"/>
</g>
<!-- Node7 -->
<g id="node7" class="node">
<title>Node7</title>
<g id="a_node7"><a xlink:title=" ">
<polygon fill="none" stroke="#bfbfbf" points="349,-0.5 349,-19.5 401,-19.5 401,-0.5 349,-0.5"/>
<text text-anchor="middle" x="375" y="-7.5" font-family="Helvetica,sans-Serif" font-size="10.00">cassert</text>
</a>
</g>
</g>
<!-- Node1&#45;&gt;Node7 -->
<g id="edge43" class="edge">
<title>Node1&#45;&gt;Node7</title>
<path fill="none" stroke="midnightblue" d="M264.13,-280.41C253,-259.13 234,-217.21 234,-179 234,-179 234,-179 234,-121 234,-67.68 297.45,-36.4 339.22,-21.58"/>
<polygon fill="midnightblue" stroke="midnightblue" points="340.46,-24.85 348.81,-18.33 338.22,-18.22 340.46,-24.85"/>
</g>
<!-- Node13 -->
<g id="node13" class="node">
<title>Node13</title>
<g id="a_node13"><a xlink:href="../../d7/d05/_rawspeed_exception_8h.html" target="_top" xlink:title=" ">
<polygon fill="none" stroke="black" points="409,-112.5 409,-131.5 579,-131.5 579,-112.5 409,-112.5"/>
<text text-anchor="middle" x="494" y="-119.5" font-family="Helvetica,sans-Serif" font-size="10.00">common/RawspeedException.h</text>
</a>
</g>
</g>
<!-- Node1&#45;&gt;Node13 -->
<g id="edge14" class="edge">
<title>Node1&#45;&gt;Node13</title>
<path fill="none" stroke="midnightblue" d="M290.17,-280.47C331.55,-248.5 432.49,-170.52 474.82,-137.82"/>
<polygon fill="midnightblue" stroke="midnightblue" points="477.15,-140.44 482.92,-131.56 472.87,-134.9 477.15,-140.44"/>
</g>
<!-- Node19 -->
<g id="node19" class="node">
<title>Node19</title>
<g id="a_node19"><a xlink:href="../../d7/d1b/_buffer_8h.html" target="_top" xlink:title=" ">
<polygon fill="none" stroke="black" points="795,-224.5 795,-243.5 861,-243.5 861,-224.5 795,-224.5"/>
<text text-anchor="middle" x="828" y="-231.5" font-family="Helvetica,sans-Serif" font-size="10.00">io/Buffer.h</text>
</a>
</g>
</g>
<!-- Node1&#45;&gt;Node19 -->
<g id="edge21" class="edge">
<title>Node1&#45;&gt;Node19</title>
<path fill="none" stroke="midnightblue" d="M333.09,-287.96C446.32,-275.85 686.17,-250.18 784.53,-239.65"/>
<polygon fill="midnightblue" stroke="midnightblue" points="785.13,-243.11 794.7,-238.56 784.39,-236.15 785.13,-243.11"/>
</g>
<!-- Node25 -->
<g id="node25" class="node">
<title>Node25</title>
<g id="a_node25"><a xlink:title=" ">
<polygon fill="none" stroke="#bfbfbf" points="1087,-168.5 1087,-187.5 1145,-187.5 1145,-168.5 1087,-168.5"/>
<text text-anchor="middle" x="1116" y="-175.5" font-family="Helvetica,sans-Serif" font-size="10.00">memory</text>
</a>
</g>
</g>
<!-- Node1&#45;&gt;Node25 -->
<g id="edge44" class="edge">
<title>Node1&#45;&gt;Node25</title>
<path fill="none" stroke="midnightblue" d="M333.14,-292.85C441.87,-289.12 675.71,-277.61 870,-244 945.83,-230.88 1032.38,-205.52 1079.94,-190.65"/>
<polygon fill="midnightblue" stroke="midnightblue" points="1081.27,-193.9 1089.76,-187.55 1079.17,-187.22 1081.27,-193.9"/>
</g>
<!-- Node27 -->
<g id="node27" class="node">
<title>Node27</title>
<g id="a_node27"><a xlink:href="../../da/d52/_file_reader_8h.html" target="_top" xlink:title=" ">
<polygon fill="none" stroke="black" points="1049.5,-224.5 1049.5,-243.5 1136.5,-243.5 1136.5,-224.5 1049.5,-224.5"/>
<text text-anchor="middle" x="1093" y="-231.5" font-family="Helvetica,sans-Serif" font-size="10.00">io/FileReader.h</text>
</a>
</g>
</g>
<!-- Node1&#45;&gt;Node27 -->
<g id="edge41" class="edge">
<title>Node1&#45;&gt;Node27</title>
<path fill="none" stroke="midnightblue" d="M333.1,-290.58C457.16,-282.53 747.44,-263.3 991,-244 1006.7,-242.76 1023.75,-241.3 1039.33,-239.92"/>
<polygon fill="midnightblue" stroke="midnightblue" points="1039.68,-243.4 1049.33,-239.03 1039.06,-236.43 1039.68,-243.4"/>
</g>
<!-- Node2&#45;&gt;Node3 -->
<g id="edge2" class="edge">
<title>Node2&#45;&gt;Node3</title>
<path fill="none" stroke="midnightblue" d="M98,-56.08C98,-49.01 98,-38.86 98,-29.99"/>
<polygon fill="midnightblue" stroke="midnightblue" points="101.5,-29.75 98,-19.75 94.5,-29.75 101.5,-29.75"/>
</g>
<!-- Node2&#45;&gt;Node4 -->
<g id="edge3" class="edge">
<title>Node2&#45;&gt;Node4</title>
<path fill="none" stroke="midnightblue" d="M113.75,-56.32C129.32,-47.74 153.38,-34.49 171.46,-24.52"/>
<polygon fill="midnightblue" stroke="midnightblue" points="173.22,-27.55 180.29,-19.65 169.85,-21.42 173.22,-27.55"/>
</g>
<!-- Node5&#45;&gt;Node3 -->
<g id="edge11" class="edge">
<title>Node5&#45;&gt;Node3</title>
<path fill="none" stroke="midnightblue" d="M699.92,-56.96C696.91,-56.62 693.92,-56.3 691,-56 456.98,-32.33 396.97,-44.14 163,-20 152.29,-18.89 140.63,-17.38 130.18,-15.91"/>
<polygon fill="midnightblue" stroke="midnightblue" points="130.61,-12.43 120.22,-14.47 129.61,-19.36 130.61,-12.43"/>
</g>
<!-- Node5&#45;&gt;Node4 -->
<g id="edge13" class="edge">
<title>Node5&#45;&gt;Node4</title>
<path fill="none" stroke="midnightblue" d="M699.91,-57.04C696.9,-56.68 693.92,-56.33 691,-56 517.84,-36.51 309.86,-19.77 229.74,-13.57"/>
<polygon fill="midnightblue" stroke="midnightblue" points="229.98,-10.07 219.74,-12.79 229.44,-17.05 229.98,-10.07"/>
</g>
<!-- Node6 -->
<g id="node6" class="node">
<title>Node6</title>
<g id="a_node6"><a xlink:title=" ">
<polygon fill="none" stroke="#bfbfbf" points="708,-0.5 708,-19.5 772,-19.5 772,-0.5 708,-0.5"/>
<text text-anchor="middle" x="740" y="-7.5" font-family="Helvetica,sans-Serif" font-size="10.00">algorithm</text>
</a>
</g>
</g>
<!-- Node5&#45;&gt;Node6 -->
<g id="edge5" class="edge">
<title>Node5&#45;&gt;Node6</title>
<path fill="none" stroke="midnightblue" d="M755.03,-56.08C752.62,-48.85 749.14,-38.41 746.13,-29.4"/>
<polygon fill="midnightblue" stroke="midnightblue" points="749.4,-28.13 742.92,-19.75 742.76,-30.34 749.4,-28.13"/>
</g>
<!-- Node5&#45;&gt;Node7 -->
<g id="edge6" class="edge">
<title>Node5&#45;&gt;Node7</title>
<path fill="none" stroke="midnightblue" d="M699.83,-56.8C619.78,-45.51 478.02,-25.53 411.45,-16.14"/>
<polygon fill="midnightblue" stroke="midnightblue" points="411.82,-12.66 401.43,-14.73 410.84,-19.59 411.82,-12.66"/>
</g>
<!-- Node8 -->
<g id="node8" class="node">
<title>Node8</title>
<g id="a_node8"><a xlink:title=" ">
<polygon fill="none" stroke="#bfbfbf" points="790,-0.5 790,-19.5 840,-19.5 840,-0.5 790,-0.5"/>
<text text-anchor="middle" x="815" y="-7.5" font-family="Helvetica,sans-Serif" font-size="10.00">climits</text>
</a>
</g>
</g>
<!-- Node5&#45;&gt;Node8 -->
<g id="edge7" class="edge">
<title>Node5&#45;&gt;Node8</title>
<path fill="none" stroke="midnightblue" d="M767.16,-56.32C775.5,-48.42 788.03,-36.55 798.18,-26.94"/>
<polygon fill="midnightblue" stroke="midnightblue" points="800.82,-29.25 805.68,-19.83 796.01,-24.17 800.82,-29.25"/>
</g>
<!-- Node9 -->
<g id="node9" class="node">
<title>Node9</title>
<g id="a_node9"><a xlink:title=" ">
<polygon fill="none" stroke="#bfbfbf" points="929,-0.5 929,-19.5 979,-19.5 979,-0.5 929,-0.5"/>
<text text-anchor="middle" x="954" y="-7.5" font-family="Helvetica,sans-Serif" font-size="10.00">cstdint</text>
</a>
</g>
</g>
<!-- Node5&#45;&gt;Node9 -->
<g id="edge8" class="edge">
<title>Node5&#45;&gt;Node9</title>
<path fill="none" stroke="midnightblue" d="M789.06,-56.44C824.48,-46.68 882.25,-30.77 919.17,-20.6"/>
<polygon fill="midnightblue" stroke="midnightblue" points="920.29,-23.92 929,-17.89 918.43,-17.17 920.29,-23.92"/>
</g>
<!-- Node10 -->
<g id="node10" class="node">
<title>Node10</title>
<g id="a_node10"><a xlink:title=" ">
<polygon fill="none" stroke="#bfbfbf" points="858,-0.5 858,-19.5 908,-19.5 908,-0.5 858,-0.5"/>
<text text-anchor="middle" x="883" y="-7.5" font-family="Helvetica,sans-Serif" font-size="10.00">cstring</text>
</a>
</g>
</g>
<!-- Node5&#45;&gt;Node10 -->
<g id="edge9" class="edge">
<title>Node5&#45;&gt;Node10</title>
<path fill="none" stroke="midnightblue" d="M777.81,-56.44C798.29,-47.6 830.48,-33.69 853.86,-23.59"/>
<polygon fill="midnightblue" stroke="midnightblue" points="855.49,-26.7 863.29,-19.52 852.72,-20.27 855.49,-26.7"/>
</g>
<!-- Node11 -->
<g id="node11" class="node">
<title>Node11</title>
<g id="a_node11"><a xlink:title=" ">
<polygon fill="none" stroke="#bfbfbf" points="519.5,-0.5 519.5,-19.5 602.5,-19.5 602.5,-0.5 519.5,-0.5"/>
<text text-anchor="middle" x="561" y="-7.5" font-family="Helvetica,sans-Serif" font-size="10.00">initializer_list</text>
</a>
</g>
</g>
<!-- Node5&#45;&gt;Node11 -->
<g id="edge10" class="edge">
<title>Node5&#45;&gt;Node11</title>
<path fill="none" stroke="midnightblue" d="M726.78,-56.44C693.07,-47.2 639.2,-32.44 602.07,-22.26"/>
<polygon fill="midnightblue" stroke="midnightblue" points="602.64,-18.78 592.07,-19.52 600.79,-25.54 602.64,-18.78"/>
</g>
<!-- Node12 -->
<g id="node12" class="node">
<title>Node12</title>
<g id="a_node12"><a xlink:title=" ">
<polygon fill="none" stroke="#bfbfbf" points="620.5,-0.5 620.5,-19.5 689.5,-19.5 689.5,-0.5 620.5,-0.5"/>
<text text-anchor="middle" x="655" y="-7.5" font-family="Helvetica,sans-Serif" font-size="10.00">type_traits</text>
</a>
</g>
</g>
<!-- Node5&#45;&gt;Node12 -->
<g id="edge12" class="edge">
<title>Node5&#45;&gt;Node12</title>
<path fill="none" stroke="midnightblue" d="M741.45,-56.32C725.01,-47.7 699.57,-34.36 680.53,-24.39"/>
<polygon fill="midnightblue" stroke="midnightblue" points="681.99,-21.2 671.51,-19.65 678.74,-27.4 681.99,-21.2"/>
</g>
<!-- Node13&#45;&gt;Node5 -->
<g id="edge16" class="edge">
<title>Node13&#45;&gt;Node5</title>
<path fill="none" stroke="midnightblue" d="M535.83,-112.44C582.08,-102.98 656.61,-87.74 706.44,-77.55"/>
<polygon fill="midnightblue" stroke="midnightblue" points="707.27,-80.95 716.36,-75.52 705.87,-74.09 707.27,-80.95"/>
</g>
<!-- Node14 -->
<g id="node14" class="node">
<title>Node14</title>
<g id="a_node14"><a xlink:title=" ">
<polygon fill="none" stroke="#bfbfbf" points="580,-56.5 580,-75.5 682,-75.5 682,-56.5 580,-56.5"/>
<text text-anchor="middle" x="631" y="-63.5" font-family="Helvetica,sans-Serif" font-size="10.00">rawspeedconfig.h</text>
</a>
</g>
</g>
<!-- Node13&#45;&gt;Node14 -->
<g id="edge15" class="edge">
<title>Node13&#45;&gt;Node14</title>
<path fill="none" stroke="midnightblue" d="M515.71,-112.44C538.35,-103.52 574.07,-89.44 599.75,-79.32"/>
<polygon fill="midnightblue" stroke="midnightblue" points="601.37,-82.44 609.39,-75.52 598.81,-75.93 601.37,-82.44"/>
</g>
<!-- Node15 -->
<g id="node15" class="node">
<title>Node15</title>
<g id="a_node15"><a xlink:title=" ">
<polygon fill="none" stroke="#bfbfbf" points="520,-56.5 520,-75.5 562,-75.5 562,-56.5 520,-56.5"/>
<text text-anchor="middle" x="541" y="-63.5" font-family="Helvetica,sans-Serif" font-size="10.00">array</text>
</a>
</g>
</g>
<!-- Node13&#45;&gt;Node15 -->
<g id="edge17" class="edge">
<title>Node13&#45;&gt;Node15</title>
<path fill="none" stroke="midnightblue" d="M501.76,-112.08C508.54,-104.3 518.54,-92.8 526.76,-83.37"/>
<polygon fill="midnightblue" stroke="midnightblue" points="529.46,-85.59 533.38,-75.75 524.18,-81 529.46,-85.59"/>
</g>
<!-- Node16 -->
<g id="node16" class="node">
<title>Node16</title>
<g id="a_node16"><a xlink:title=" ">
<polygon fill="none" stroke="#bfbfbf" points="300.5,-56.5 300.5,-75.5 353.5,-75.5 353.5,-56.5 300.5,-56.5"/>
<text text-anchor="middle" x="327" y="-63.5" font-family="Helvetica,sans-Serif" font-size="10.00">cstdarg</text>
</a>
</g>
</g>
<!-- Node13&#45;&gt;Node16 -->
<g id="edge18" class="edge">
<title>Node13&#45;&gt;Node16</title>
<path fill="none" stroke="midnightblue" d="M467.54,-112.44C439.32,-103.32 394.46,-88.81 363.03,-78.65"/>
<polygon fill="midnightblue" stroke="midnightblue" points="363.93,-75.26 353.34,-75.52 361.78,-81.92 363.93,-75.26"/>
</g>
<!-- Node17 -->
<g id="node17" class="node">
<title>Node17</title>
<g id="a_node17"><a xlink:title=" ">
<polygon fill="none" stroke="#bfbfbf" points="372,-56.5 372,-75.5 418,-75.5 418,-56.5 372,-56.5"/>
<text text-anchor="middle" x="395" y="-63.5" font-family="Helvetica,sans-Serif" font-size="10.00">cstdio</text>
</a>
</g>
</g>
<!-- Node13&#45;&gt;Node17 -->
<g id="edge19" class="edge">
<title>Node13&#45;&gt;Node17</title>
<path fill="none" stroke="midnightblue" d="M478.09,-112.32C462.36,-103.74 438.06,-90.49 419.79,-80.52"/>
<polygon fill="midnightblue" stroke="midnightblue" points="421.32,-77.37 410.87,-75.65 417.97,-83.52 421.32,-77.37"/>
</g>
<!-- Node18 -->
<g id="node18" class="node">
<title>Node18</title>
<g id="a_node18"><a xlink:title=" ">
<polygon fill="none" stroke="#bfbfbf" points="436.5,-56.5 436.5,-75.5 501.5,-75.5 501.5,-56.5 436.5,-56.5"/>
<text text-anchor="middle" x="469" y="-63.5" font-family="Helvetica,sans-Serif" font-size="10.00">stdexcept</text>
</a>
</g>
</g>
<!-- Node13&#45;&gt;Node18 -->
<g id="edge20" class="edge">
<title>Node13&#45;&gt;Node18</title>
<path fill="none" stroke="midnightblue" d="M489.87,-112.08C486.49,-104.77 481.58,-94.18 477.38,-85.1"/>
<polygon fill="midnightblue" stroke="midnightblue" points="480.43,-83.36 473.05,-75.75 474.08,-86.3 480.43,-83.36"/>
</g>
<!-- Node19&#45;&gt;Node5 -->
<g id="edge24" class="edge">
<title>Node19&#45;&gt;Node5</title>
<path fill="none" stroke="midnightblue" d="M811.86,-224.42C799.06,-216.7 781.88,-204.1 773,-188 755.08,-155.52 754.66,-110.81 756.19,-85.83"/>
<polygon fill="midnightblue" stroke="midnightblue" points="759.7,-85.82 756.99,-75.57 752.72,-85.27 759.7,-85.82"/>
</g>
<!-- Node19&#45;&gt;Node7 -->
<g id="edge37" class="edge">
<title>Node19&#45;&gt;Node7</title>
<path fill="none" stroke="midnightblue" d="M794.9,-229.02C686.4,-215.17 345.34,-165.02 291,-76 276.07,-51.54 310.23,-32.82 339.38,-21.89"/>
<polygon fill="midnightblue" stroke="midnightblue" points="340.74,-25.12 348.99,-18.48 338.4,-18.52 340.74,-25.12"/>
</g>
<!-- Node19&#45;&gt;Node9 -->
<g id="edge38" class="edge">
<title>Node19&#45;&gt;Node9</title>
<path fill="none" stroke="midnightblue" d="M861.15,-225.09C862.79,-224.72 864.41,-224.35 866,-224 943.1,-206.9 988.25,-247.65 1040,-188 1078.5,-143.62 1078.21,-105.77 1047,-56 1034.31,-35.76 1009.64,-24.4 988.91,-18.16"/>
<polygon fill="midnightblue" stroke="midnightblue" points="989.68,-14.74 979.11,-15.49 987.84,-21.49 989.68,-14.74"/>
</g>
<!-- Node20 -->
<g id="node20" class="node">
<title>Node20</title>
<g id="a_node20"><a xlink:href="../../d2/d4f/_address_sanitizer_8h.html" target="_top" xlink:title=" ">
<polygon fill="none" stroke="black" points="923.5,-168.5 923.5,-187.5 1030.5,-187.5 1030.5,-168.5 923.5,-168.5"/>
<text text-anchor="middle" x="977" y="-175.5" font-family="Helvetica,sans-Serif" font-size="10.00">AddressSanitizer.h</text>
</a>
</g>
</g>
<!-- Node19&#45;&gt;Node20 -->
<g id="edge22" class="edge">
<title>Node19&#45;&gt;Node20</title>
<path fill="none" stroke="midnightblue" d="M851.61,-224.44C876.46,-215.44 915.77,-201.19 943.75,-191.05"/>
<polygon fill="midnightblue" stroke="midnightblue" points="945.29,-194.21 953.5,-187.52 942.91,-187.63 945.29,-194.21"/>
</g>
<!-- Node22 -->
<g id="node22" class="node">
<title>Node22</title>
<g id="a_node22"><a xlink:href="../../d3/de6/_memory_8h.html" target="_top" xlink:title=" ">
<polygon fill="none" stroke="black" points="884,-112.5 884,-131.5 994,-131.5 994,-112.5 884,-112.5"/>
<text text-anchor="middle" x="939" y="-119.5" font-family="Helvetica,sans-Serif" font-size="10.00">common/Memory.h</text>
</a>
</g>
</g>
<!-- Node19&#45;&gt;Node22 -->
<g id="edge25" class="edge">
<title>Node19&#45;&gt;Node22</title>
<path fill="none" stroke="midnightblue" d="M836.71,-224.37C855.35,-205.89 899.35,-162.29 923.11,-138.74"/>
<polygon fill="midnightblue" stroke="midnightblue" points="925.69,-141.12 930.33,-131.59 920.76,-136.14 925.69,-141.12"/>
</g>
<!-- Node23 -->
<g id="node23" class="node">
<title>Node23</title>
<g id="a_node23"><a xlink:href="../../d5/d0b/_endianness_8h.html" target="_top" xlink:title=" ">
<polygon fill="none" stroke="black" points="834.5,-56.5 834.5,-75.5 927.5,-75.5 927.5,-56.5 834.5,-56.5"/>
<text text-anchor="middle" x="881" y="-63.5" font-family="Helvetica,sans-Serif" font-size="10.00">io/Endianness.h</text>
</a>
</g>
</g>
<!-- Node19&#45;&gt;Node23 -->
<g id="edge30" class="edge">
<title>Node19&#45;&gt;Node23</title>
<path fill="none" stroke="midnightblue" d="M830.85,-224.08C839.23,-197.83 863.9,-120.55 875.22,-85.12"/>
<polygon fill="midnightblue" stroke="midnightblue" points="878.56,-86.16 878.26,-75.57 871.89,-84.03 878.56,-86.16"/>
</g>
<!-- Node24 -->
<g id="node24" class="node">
<title>Node24</title>
<g id="a_node24"><a xlink:href="../../d0/dd8/_i_o_exception_8h.html" target="_top" xlink:title=" ">
<polygon fill="none" stroke="black" points="583,-168.5 583,-187.5 679,-187.5 679,-168.5 583,-168.5"/>
<text text-anchor="middle" x="631" y="-175.5" font-family="Helvetica,sans-Serif" font-size="10.00">io/IOException.h</text>
</a>
</g>
</g>
<!-- Node19&#45;&gt;Node24 -->
<g id="edge34" class="edge">
<title>Node19&#45;&gt;Node24</title>
<path fill="none" stroke="midnightblue" d="M796.78,-224.44C763.07,-215.2 709.2,-200.44 672.07,-190.26"/>
<polygon fill="midnightblue" stroke="midnightblue" points="672.64,-186.78 662.07,-187.52 670.79,-193.54 672.64,-186.78"/>
</g>
<!-- Node19&#45;&gt;Node25 -->
<g id="edge39" class="edge">
<title>Node19&#45;&gt;Node25</title>
<path fill="none" stroke="midnightblue" d="M861.34,-227.15C908.52,-218.8 997.47,-202.84 1073,-188 1074.26,-187.75 1075.55,-187.5 1076.84,-187.24"/>
<polygon fill="midnightblue" stroke="midnightblue" points="1077.77,-190.62 1086.88,-185.2 1076.38,-183.76 1077.77,-190.62"/>
</g>
<!-- Node26 -->
<g id="node26" class="node">
<title>Node26</title>
<g id="a_node26"><a xlink:title=" ">
<polygon fill="none" stroke="#bfbfbf" points="782.5,-168.5 782.5,-187.5 827.5,-187.5 827.5,-168.5 782.5,-168.5"/>
<text text-anchor="middle" x="805" y="-175.5" font-family="Helvetica,sans-Serif" font-size="10.00">utility</text>
</a>
</g>
</g>
<!-- Node19&#45;&gt;Node26 -->
<g id="edge40" class="edge">
<title>Node19&#45;&gt;Node26</title>
<path fill="none" stroke="midnightblue" d="M824.2,-224.08C821.09,-216.77 816.58,-206.18 812.71,-197.1"/>
<polygon fill="midnightblue" stroke="midnightblue" points="815.87,-195.58 808.73,-187.75 809.43,-198.32 815.87,-195.58"/>
</g>
<!-- Node21 -->
<g id="node21" class="node">
<title>Node21</title>
<g id="a_node21"><a xlink:title=" ">
<polygon fill="none" stroke="#bfbfbf" points="984.5,-56.5 984.5,-75.5 1037.5,-75.5 1037.5,-56.5 984.5,-56.5"/>
<text text-anchor="middle" x="1011" y="-63.5" font-family="Helvetica,sans-Serif" font-size="10.00">cstddef</text>
</a>
</g>
</g>
<!-- Node20&#45;&gt;Node21 -->
<g id="edge23" class="edge">
<title>Node20&#45;&gt;Node21</title>
<path fill="none" stroke="midnightblue" d="M983.52,-168.21C989.63,-159.49 998.47,-145.52 1003,-132 1008.03,-116.99 1009.95,-99.08 1010.66,-85.87"/>
<polygon fill="midnightblue" stroke="midnightblue" points="1014.17,-85.77 1011.02,-75.65 1007.17,-85.52 1014.17,-85.77"/>
</g>
<!-- Node22&#45;&gt;Node5 -->
<g id="edge27" class="edge">
<title>Node22&#45;&gt;Node5</title>
<path fill="none" stroke="midnightblue" d="M910.32,-112.44C879.47,-103.24 830.27,-88.56 796.17,-78.39"/>
<polygon fill="midnightblue" stroke="midnightblue" points="797.13,-75.02 786.55,-75.52 795.13,-81.73 797.13,-75.02"/>
</g>
<!-- Node22&#45;&gt;Node9 -->
<g id="edge29" class="edge">
<title>Node22&#45;&gt;Node9</title>
<path fill="none" stroke="midnightblue" d="M940.18,-112.37C942.6,-94.62 948.18,-53.67 951.46,-29.6"/>
<polygon fill="midnightblue" stroke="midnightblue" points="954.95,-29.97 952.83,-19.59 948.01,-29.03 954.95,-29.97"/>
</g>
<!-- Node22&#45;&gt;Node14 -->
<g id="edge26" class="edge">
<title>Node22&#45;&gt;Node14</title>
<path fill="none" stroke="midnightblue" d="M890.2,-112.44C835.79,-102.9 747.83,-87.48 689.71,-77.29"/>
<polygon fill="midnightblue" stroke="midnightblue" points="690.03,-73.8 679.58,-75.52 688.82,-80.69 690.03,-73.8"/>
</g>
<!-- Node22&#45;&gt;Node21 -->
<g id="edge28" class="edge">
<title>Node22&#45;&gt;Node21</title>
<path fill="none" stroke="midnightblue" d="M950.57,-112.32C961.42,-104.18 977.88,-91.84 990.88,-82.09"/>
<polygon fill="midnightblue" stroke="midnightblue" points="993.32,-84.63 999.22,-75.83 989.12,-79.03 993.32,-84.63"/>
</g>
<!-- Node23&#45;&gt;Node7 -->
<g id="edge31" class="edge">
<title>Node23&#45;&gt;Node7</title>
<path fill="none" stroke="midnightblue" d="M834.28,-57.28C831.14,-56.82 828.03,-56.39 825,-56 671.82,-36.05 488.3,-20.19 411.55,-13.91"/>
<polygon fill="midnightblue" stroke="midnightblue" points="411.69,-10.41 401.44,-13.09 411.12,-17.39 411.69,-10.41"/>
</g>
<!-- Node23&#45;&gt;Node9 -->
<g id="edge32" class="edge">
<title>Node23&#45;&gt;Node9</title>
<path fill="none" stroke="midnightblue" d="M892.73,-56.32C903.84,-48.11 920.74,-35.6 933.98,-25.81"/>
<polygon fill="midnightblue" stroke="midnightblue" points="936.1,-28.59 942.06,-19.83 931.94,-22.97 936.1,-28.59"/>
</g>
<!-- Node23&#45;&gt;Node10 -->
<g id="edge33" class="edge">
<title>Node23&#45;&gt;Node10</title>
<path fill="none" stroke="midnightblue" d="M881.33,-56.08C881.59,-49.01 881.97,-38.86 882.3,-29.99"/>
<polygon fill="midnightblue" stroke="midnightblue" points="885.8,-29.87 882.68,-19.75 878.81,-29.61 885.8,-29.87"/>
</g>
<!-- Node24&#45;&gt;Node13 -->
<g id="edge36" class="edge">
<title>Node24&#45;&gt;Node13</title>
<path fill="none" stroke="midnightblue" d="M609.29,-168.44C586.65,-159.52 550.93,-145.44 525.25,-135.32"/>
<polygon fill="midnightblue" stroke="midnightblue" points="526.19,-131.93 515.61,-131.52 523.63,-138.44 526.19,-131.93"/>
</g>
<!-- Node24&#45;&gt;Node14 -->
<g id="edge35" class="edge">
<title>Node24&#45;&gt;Node14</title>
<path fill="none" stroke="midnightblue" d="M631,-168.37C631,-150.62 631,-109.67 631,-85.6"/>
<polygon fill="midnightblue" stroke="midnightblue" points="634.5,-85.59 631,-75.59 627.5,-85.59 634.5,-85.59"/>
</g>
<!-- Node27&#45;&gt;Node25 -->
<g id="edge42" class="edge">
<title>Node27&#45;&gt;Node25</title>
<path fill="none" stroke="midnightblue" d="M1096.8,-224.08C1099.91,-216.77 1104.42,-206.18 1108.29,-197.1"/>
<polygon fill="midnightblue" stroke="midnightblue" points="1111.57,-198.32 1112.27,-187.75 1105.13,-195.58 1111.57,-198.32"/>
</g>
</g>
</svg>
        <g id="navigator" transform="translate(0 0)" fill="#404254">
                <rect fill="#f2f5e9" fill-opacity="0.5" stroke="#606060" stroke-width=".5" x="0" y="0" width="60" height="60"/>
                <use id="zoomplus" xlink:href="#zoomPlus" x="17" y="9" onmousedown="handleZoom(evt,'in')"/>
                <use id="zoomminus" xlink:href="#zoomMin" x="42" y="9" onmousedown="handleZoom(evt,'out')"/>
                <use id="reset" xlink:href="#resetDef" x="30" y="36" onmousedown="handleReset()"/>
                <g id="arrowUp" xlink:href="#dirArrow" transform="translate(30 24)" onmousedown="handlePan(0,-1)">
                  <use xlink:href="#rim" fill="#404040">
                        <set attributeName="fill" to="#808080" begin="arrowUp.mouseover" end="arrowUp.mouseout"/>
                  </use>
                  <path fill="none" stroke="white" stroke-width="1.5" d="M0,-3.0v7 M-2.5,-0.5L0,-3.0L2.5,-0.5"/>
                </g>
                <g id="arrowRight" xlink:href="#dirArrow" transform="rotate(90) translate(36 -43)" onmousedown="handlePan(1,0)">
                  <use xlink:href="#rim" fill="#404040">
                        <set attributeName="fill" to="#808080" begin="arrowRight.mouseover" end="arrowRight.mouseout"/>
                  </use>
                  <path fill="none" stroke="white" stroke-width="1.5" d="M0,-3.0v7 M-2.5,-0.5L0,-3.0L2.5,-0.5"/>
                </g>
                <g id="arrowDown" xlink:href="#dirArrow" transform="rotate(180) translate(-30 -48)" onmousedown="handlePan(0,1)">
                  <use xlink:href="#rim" fill="#404040">
                        <set attributeName="fill" to="#808080" begin="arrowDown.mouseover" end="arrowDown.mouseout"/>
                  </use>
                  <path fill="none" stroke="white" stroke-width="1.5" d="M0,-3.0v7 M-2.5,-0.5L0,-3.0L2.5,-0.5"/>
                </g>
                <g id="arrowLeft" xlink:href="#dirArrow" transform="rotate(270) translate(-36 17)" onmousedown="handlePan(-1,0)">
                  <use xlink:href="#rim" fill="#404040">
                        <set attributeName="fill" to="#808080" begin="arrowLeft.mouseover" end="arrowLeft.mouseout"/>
                  </use>
                  <path fill="none" stroke="white" stroke-width="1.5" d="M0,-3.0v7 M-2.5,-0.5L0,-3.0L2.5,-0.5"/>
                </g>
        </g>
        <svg viewBox="0 0 15 15" width="100%" height="30px" preserveAspectRatio="xMaxYMin meet">
         <g id="arrow_out" transform="scale(0.3 0.3)">
          <a xlink:href="_checksum_file_8cpp__incl_org.svg" target="_base">
           <rect id="button" ry="5" rx="5" y="6" x="6" height="38" width="38"
                fill="#f2f5e9" fill-opacity="0.5" stroke="#606060" stroke-width="1.0"/>
           <path id="arrow"
             d="M 11.500037,31.436501 C 11.940474,20.09759 22.043105,11.32322 32.158766,21.979434 L 37.068811,17.246167 C 37.068811,17.246167 37.088388,32 37.088388,32 L 22.160133,31.978069 C 22.160133,31.978069 26.997745,27.140456 26.997745,27.140456 C 18.528582,18.264221 13.291696,25.230495 11.500037,31.436501 z"
             style="fill:#404040;"/>
          </a>
         </g>
        </svg>
</svg>
