<?xml version="1.0" encoding="UTF-8" standalone="no"?>
<!DOCTYPE svg PUBLIC "-//W3C//DTD SVG 1.1//EN"
 "http://www.w3.org/Graphics/SVG/1.1/DTD/svg11.dtd">
<!-- Generated by graphviz version 2.43.0 (0)
 -->
<!-- Title: rawspeed::AbstractTiffDecoder Pages: 1 -->
<!--zoomable 522 -->
<svg id="main" version="1.1" xmlns="http://www.w3.org/2000/svg" xmlns:xlink="http://www.w3.org/1999/xlink" xml:space="preserve" onload="init(evt)">
<style type="text/css"><![CDATA[
.edge:hover path { stroke: red; }
.edge:hover polygon { stroke: red; fill: red; }
]]></style>
<script type="text/javascript"><![CDATA[
var edges = document.getElementsByTagName('g');
if (edges && edges.length) {
  for (var i=0;i<edges.length;i++) {
    if (edges[i].id.substr(0,4)=='edge') {
      edges[i].setAttribute('class','edge');
    }
  }
}
]]></script>
        <defs>
                <circle id="rim" cx="0" cy="0" r="7"/>
                <circle id="rim2" cx="0" cy="0" r="3.5"/>
                <g id="zoomPlus">
                        <use xlink:href="#rim" fill="#404040">
                                <set attributeName="fill" to="#808080" begin="zoomplus.mouseover" end="zoomplus.mouseout"/>
                        </use>
                        <path d="M-4,0h8M0,-4v8" fill="none" stroke="white" stroke-width="1.5" pointer-events="none"/>
                </g>
                <g id="zoomMin">
                        <use xlink:href="#rim" fill="#404040">
                                <set attributeName="fill" to="#808080" begin="zoomminus.mouseover" end="zoomminus.mouseout"/>
                        </use>
                        <path d="M-4,0h8" fill="none" stroke="white" stroke-width="1.5" pointer-events="none"/>
                </g>
                <g id="dirArrow">
                        <path fill="none" stroke="white" stroke-width="1.5" d="M0,-3.0v7 M-2.5,-0.5L0,-3.0L2.5,-0.5"/>
                </g>
               <g id="resetDef">
                       <use xlink:href="#rim2" fill="#404040">
                               <set attributeName="fill" to="#808080" begin="reset.mouseover" end="reset.mouseout"/>
                       </use>
               </g>
        </defs>

<script type="text/javascript">
var viewWidth = 702;
var viewHeight = 522;
var sectionId = 'dynsection-0';
</script>
<script xlink:href="../../svgpan.js"/>
<svg id="graph" class="graph">
<g id="viewport">
<title>rawspeed::AbstractTiffDecoder</title>
<!-- Node1 -->
<g id="node1" class="node">
<title>Node1</title>
<g id="a_node1"><a xlink:title=" ">
<polygon fill="#bfbfbf" stroke="black" points="167,-247.5 167,-266.5 334,-266.5 334,-247.5 167,-247.5"/>
<text text-anchor="middle" x="250.5" y="-254.5" font-family="Helvetica,sans-Serif" font-size="10.00">rawspeed::AbstractTiffDecoder</text>
</a>
</g>
</g>
<!-- Node3 -->
<g id="node3" class="node">
<title>Node3</title>
<g id="a_node3"><a xlink:href="../../d2/d72/classrawspeed_1_1_arw_decoder.html" target="_top" xlink:title=" ">
<polygon fill="none" stroke="black" points="385.5,-494.5 385.5,-513.5 514.5,-513.5 514.5,-494.5 385.5,-494.5"/>
<text text-anchor="middle" x="450" y="-501.5" font-family="Helvetica,sans-Serif" font-size="10.00">rawspeed::ArwDecoder</text>
</a>
</g>
</g>
<!-- Node1&#45;&gt;Node3 -->
<g id="edge2" class="edge">
<title>Node1&#45;&gt;Node3</title>
<path fill="none" stroke="midnightblue" d="M255.78,-276.42C266.61,-320.74 299.38,-429.77 370,-485 374.89,-488.82 380.43,-491.89 386.26,-494.36"/>
<polygon fill="midnightblue" stroke="midnightblue" points="259.18,-275.56 253.49,-266.62 252.36,-277.15 259.18,-275.56"/>
</g>
<!-- Node4 -->
<g id="node4" class="node">
<title>Node4</title>
<g id="a_node4"><a xlink:href="../../df/ddd/classrawspeed_1_1_cr2_decoder.html" target="_top" xlink:title=" ">
<polygon fill="none" stroke="black" points="386.5,-456.5 386.5,-475.5 513.5,-475.5 513.5,-456.5 386.5,-456.5"/>
<text text-anchor="middle" x="450" y="-463.5" font-family="Helvetica,sans-Serif" font-size="10.00">rawspeed::Cr2Decoder</text>
</a>
</g>
</g>
<!-- Node1&#45;&gt;Node4 -->
<g id="edge3" class="edge">
<title>Node1&#45;&gt;Node4</title>
<path fill="none" stroke="midnightblue" d="M257.87,-276.31C271.71,-315.09 308.31,-402.53 370,-447 375.38,-450.88 381.44,-453.97 387.76,-456.44"/>
<polygon fill="midnightblue" stroke="midnightblue" points="261.14,-275.05 254.57,-266.74 254.52,-277.33 261.14,-275.05"/>
</g>
<!-- Node5 -->
<g id="node5" class="node">
<title>Node5</title>
<g id="a_node5"><a xlink:href="../../d8/d0b/classrawspeed_1_1_dng_decoder.html" target="_top" xlink:title=" ">
<polygon fill="none" stroke="black" points="385,-418.5 385,-437.5 515,-437.5 515,-418.5 385,-418.5"/>
<text text-anchor="middle" x="450" y="-425.5" font-family="Helvetica,sans-Serif" font-size="10.00">rawspeed::DngDecoder</text>
</a>
</g>
</g>
<!-- Node1&#45;&gt;Node5 -->
<g id="edge4" class="edge">
<title>Node1&#45;&gt;Node5</title>
<path fill="none" stroke="midnightblue" d="M260.79,-275.96C277.75,-308.51 316.95,-374.82 370,-409 376.05,-412.9 382.82,-415.99 389.79,-418.46"/>
<polygon fill="midnightblue" stroke="midnightblue" points="263.72,-273.99 256.07,-266.66 257.47,-277.16 263.72,-273.99"/>
</g>
<!-- Node6 -->
<g id="node6" class="node">
<title>Node6</title>
<g id="a_node6"><a xlink:href="../../d1/db9/classrawspeed_1_1_iiq_decoder.html" target="_top" xlink:title=" ">
<polygon fill="none" stroke="black" points="389,-380.5 389,-399.5 511,-399.5 511,-380.5 389,-380.5"/>
<text text-anchor="middle" x="450" y="-387.5" font-family="Helvetica,sans-Serif" font-size="10.00">rawspeed::IiqDecoder</text>
</a>
</g>
</g>
<!-- Node1&#45;&gt;Node6 -->
<g id="edge5" class="edge">
<title>Node1&#45;&gt;Node6</title>
<path fill="none" stroke="midnightblue" d="M264.78,-274.73C284.74,-300.09 324.98,-346.35 370,-371 377.05,-374.86 384.88,-377.95 392.79,-380.41"/>
<polygon fill="midnightblue" stroke="midnightblue" points="267.47,-272.49 258.59,-266.71 261.93,-276.76 267.47,-272.49"/>
</g>
<!-- Node7 -->
<g id="node7" class="node">
<title>Node7</title>
<g id="a_node7"><a xlink:href="../../d8/d16/classrawspeed_1_1_kdc_decoder.html" target="_top" xlink:title=" ">
<polygon fill="none" stroke="black" points="386,-342.5 386,-361.5 514,-361.5 514,-342.5 386,-342.5"/>
<text text-anchor="middle" x="450" y="-349.5" font-family="Helvetica,sans-Serif" font-size="10.00">rawspeed::KdcDecoder</text>
</a>
</g>
</g>
<!-- Node1&#45;&gt;Node7 -->
<g id="edge6" class="edge">
<title>Node1&#45;&gt;Node7</title>
<path fill="none" stroke="midnightblue" d="M271.68,-272.96C294.36,-290.15 332.89,-317.17 370,-333 378.82,-336.76 388.53,-339.87 398.04,-342.4"/>
<polygon fill="midnightblue" stroke="midnightblue" points="273.58,-270.01 263.52,-266.68 269.31,-275.55 273.58,-270.01"/>
</g>
<!-- Node8 -->
<g id="node8" class="node">
<title>Node8</title>
<g id="a_node8"><a xlink:href="../../de/d70/classrawspeed_1_1_mos_decoder.html" target="_top" xlink:title=" ">
<polygon fill="none" stroke="black" points="385,-304.5 385,-323.5 515,-323.5 515,-304.5 385,-304.5"/>
<text text-anchor="middle" x="450" y="-311.5" font-family="Helvetica,sans-Serif" font-size="10.00">rawspeed::MosDecoder</text>
</a>
</g>
</g>
<!-- Node1&#45;&gt;Node8 -->
<g id="edge7" class="edge">
<title>Node1&#45;&gt;Node8</title>
<path fill="none" stroke="midnightblue" d="M289.35,-269.93C312.51,-277.64 342.82,-287.38 370,-295 381.82,-298.31 394.73,-301.57 406.62,-304.42"/>
<polygon fill="midnightblue" stroke="midnightblue" points="290.17,-266.51 279.57,-266.65 287.94,-273.15 290.17,-266.51"/>
</g>
<!-- Node9 -->
<g id="node9" class="node">
<title>Node9</title>
<g id="a_node9"><a xlink:href="../../df/db9/classrawspeed_1_1_nef_decoder.html" target="_top" xlink:title=" ">
<polygon fill="none" stroke="black" points="386,-266.5 386,-285.5 514,-285.5 514,-266.5 386,-266.5"/>
<text text-anchor="middle" x="450" y="-273.5" font-family="Helvetica,sans-Serif" font-size="10.00">rawspeed::NefDecoder</text>
</a>
</g>
</g>
<!-- Node1&#45;&gt;Node9 -->
<g id="edge8" class="edge">
<title>Node1&#45;&gt;Node9</title>
<path fill="none" stroke="midnightblue" d="M344.33,-265.93C358.43,-267.29 372.69,-268.66 385.95,-269.93"/>
<polygon fill="midnightblue" stroke="midnightblue" points="344.4,-262.42 334.11,-264.95 343.73,-269.39 344.4,-262.42"/>
</g>
<!-- Node10 -->
<g id="node10" class="node">
<title>Node10</title>
<g id="a_node10"><a xlink:href="../../d2/d75/classrawspeed_1_1_orf_decoder.html" target="_top" xlink:title=" ">
<polygon fill="none" stroke="black" points="387.5,-228.5 387.5,-247.5 512.5,-247.5 512.5,-228.5 387.5,-228.5"/>
<text text-anchor="middle" x="450" y="-235.5" font-family="Helvetica,sans-Serif" font-size="10.00">rawspeed::OrfDecoder</text>
</a>
</g>
</g>
<!-- Node1&#45;&gt;Node10 -->
<g id="edge9" class="edge">
<title>Node1&#45;&gt;Node10</title>
<path fill="none" stroke="midnightblue" d="M344.22,-248.08C358.89,-246.67 373.73,-245.24 387.45,-243.92"/>
<polygon fill="midnightblue" stroke="midnightblue" points="343.73,-244.61 334.11,-249.05 344.4,-251.58 343.73,-244.61"/>
</g>
<!-- Node11 -->
<g id="node11" class="node">
<title>Node11</title>
<g id="a_node11"><a xlink:href="../../d2/dab/classrawspeed_1_1_pef_decoder.html" target="_top" xlink:title=" ">
<polygon fill="none" stroke="black" points="387,-190.5 387,-209.5 513,-209.5 513,-190.5 387,-190.5"/>
<text text-anchor="middle" x="450" y="-197.5" font-family="Helvetica,sans-Serif" font-size="10.00">rawspeed::PefDecoder</text>
</a>
</g>
</g>
<!-- Node1&#45;&gt;Node11 -->
<g id="edge10" class="edge">
<title>Node1&#45;&gt;Node11</title>
<path fill="none" stroke="midnightblue" d="M289.35,-244.07C312.51,-236.36 342.82,-226.62 370,-219 381.82,-215.69 394.73,-212.43 406.62,-209.58"/>
<polygon fill="midnightblue" stroke="midnightblue" points="287.94,-240.85 279.57,-247.35 290.17,-247.49 287.94,-240.85"/>
</g>
<!-- Node12 -->
<g id="node12" class="node">
<title>Node12</title>
<g id="a_node12"><a xlink:href="../../d8/dcb/classrawspeed_1_1_raf_decoder.html" target="_top" xlink:title=" ">
<polygon fill="none" stroke="black" points="386.5,-152.5 386.5,-171.5 513.5,-171.5 513.5,-152.5 386.5,-152.5"/>
<text text-anchor="middle" x="450" y="-159.5" font-family="Helvetica,sans-Serif" font-size="10.00">rawspeed::RafDecoder</text>
</a>
</g>
</g>
<!-- Node1&#45;&gt;Node12 -->
<g id="edge11" class="edge">
<title>Node1&#45;&gt;Node12</title>
<path fill="none" stroke="midnightblue" d="M271.68,-241.04C294.36,-223.85 332.89,-196.83 370,-181 378.82,-177.24 388.53,-174.13 398.04,-171.6"/>
<polygon fill="midnightblue" stroke="midnightblue" points="269.31,-238.45 263.52,-247.32 273.58,-243.99 269.31,-238.45"/>
</g>
<!-- Node13 -->
<g id="node13" class="node">
<title>Node13</title>
<g id="a_node13"><a xlink:href="../../d7/df6/classrawspeed_1_1_rw2_decoder.html" target="_top" xlink:title=" ">
<polygon fill="none" stroke="black" points="384.5,-114.5 384.5,-133.5 515.5,-133.5 515.5,-114.5 384.5,-114.5"/>
<text text-anchor="middle" x="450" y="-121.5" font-family="Helvetica,sans-Serif" font-size="10.00">rawspeed::Rw2Decoder</text>
</a>
</g>
</g>
<!-- Node1&#45;&gt;Node13 -->
<g id="edge12" class="edge">
<title>Node1&#45;&gt;Node13</title>
<path fill="none" stroke="midnightblue" d="M264.78,-239.27C284.74,-213.91 324.98,-167.65 370,-143 377.05,-139.14 384.88,-136.05 392.79,-133.59"/>
<polygon fill="midnightblue" stroke="midnightblue" points="261.93,-237.24 258.59,-247.29 267.47,-241.51 261.93,-237.24"/>
</g>
<!-- Node14 -->
<g id="node14" class="node">
<title>Node14</title>
<g id="a_node14"><a xlink:href="../../d6/dd6/classrawspeed_1_1_simple_tiff_decoder.html" target="_top" xlink:title=" ">
<polygon fill="none" stroke="black" points="370,-76.5 370,-95.5 530,-95.5 530,-76.5 370,-76.5"/>
<text text-anchor="middle" x="450" y="-83.5" font-family="Helvetica,sans-Serif" font-size="10.00">rawspeed::SimpleTiffDecoder</text>
</a>
</g>
</g>
<!-- Node1&#45;&gt;Node14 -->
<g id="edge13" class="edge">
<title>Node1&#45;&gt;Node14</title>
<path fill="none" stroke="midnightblue" d="M260.79,-238.04C277.75,-205.49 316.95,-139.18 370,-105 376.05,-101.1 382.82,-98.01 389.79,-95.54"/>
<polygon fill="midnightblue" stroke="midnightblue" points="257.47,-236.84 256.07,-247.34 263.72,-240.01 257.47,-236.84"/>
</g>
<!-- Node19 -->
<g id="node19" class="node">
<title>Node19</title>
<g id="a_node19"><a xlink:href="../../d9/d07/classrawspeed_1_1_srw_decoder.html" target="_top" xlink:title=" ">
<polygon fill="none" stroke="black" points="386,-38.5 386,-57.5 514,-57.5 514,-38.5 386,-38.5"/>
<text text-anchor="middle" x="450" y="-45.5" font-family="Helvetica,sans-Serif" font-size="10.00">rawspeed::SrwDecoder</text>
</a>
</g>
</g>
<!-- Node1&#45;&gt;Node19 -->
<g id="edge18" class="edge">
<title>Node1&#45;&gt;Node19</title>
<path fill="none" stroke="midnightblue" d="M257.87,-237.69C271.71,-198.91 308.31,-111.47 370,-67 375.38,-63.12 381.44,-60.03 387.76,-57.56"/>
<polygon fill="midnightblue" stroke="midnightblue" points="254.52,-236.67 254.57,-247.26 261.14,-238.95 254.52,-236.67"/>
</g>
<!-- Node20 -->
<g id="node20" class="node">
<title>Node20</title>
<g id="a_node20"><a xlink:href="../../dc/de5/classrawspeed_1_1_threefr_decoder.html" target="_top" xlink:title=" ">
<polygon fill="none" stroke="black" points="377,-0.5 377,-19.5 523,-19.5 523,-0.5 377,-0.5"/>
<text text-anchor="middle" x="450" y="-7.5" font-family="Helvetica,sans-Serif" font-size="10.00">rawspeed::ThreefrDecoder</text>
</a>
</g>
</g>
<!-- Node1&#45;&gt;Node20 -->
<g id="edge19" class="edge">
<title>Node1&#45;&gt;Node20</title>
<path fill="none" stroke="midnightblue" d="M255.78,-237.58C266.61,-193.26 299.38,-84.23 370,-29 374.89,-25.18 380.43,-22.11 386.26,-19.64"/>
<polygon fill="midnightblue" stroke="midnightblue" points="252.36,-236.85 253.49,-247.38 259.18,-238.44 252.36,-236.85"/>
</g>
<!-- Node2 -->
<g id="node2" class="node">
<title>Node2</title>
<g id="a_node2"><a xlink:href="../../dd/dea/classrawspeed_1_1_raw_decoder.html" target="_top" xlink:title=" ">
<polygon fill="none" stroke="black" points="0,-247.5 0,-266.5 131,-266.5 131,-247.5 0,-247.5"/>
<text text-anchor="middle" x="65.5" y="-254.5" font-family="Helvetica,sans-Serif" font-size="10.00">rawspeed::RawDecoder</text>
</a>
</g>
</g>
<!-- Node2&#45;&gt;Node1 -->
<g id="edge1" class="edge">
<title>Node2&#45;&gt;Node1</title>
<path fill="none" stroke="midnightblue" d="M141.24,-257C149.72,-257 158.4,-257 166.97,-257"/>
<polygon fill="midnightblue" stroke="midnightblue" points="141.02,-253.5 131.02,-257 141.02,-260.5 141.02,-253.5"/>
</g>
<!-- Node15 -->
<g id="node15" class="node">
<title>Node15</title>
<g id="a_node15"><a xlink:href="../../d8/d4f/classrawspeed_1_1_dcr_decoder.html" target="_top" xlink:title=" ">
<polygon fill="none" stroke="black" points="566.5,-133.5 566.5,-152.5 693.5,-152.5 693.5,-133.5 566.5,-133.5"/>
<text text-anchor="middle" x="630" y="-140.5" font-family="Helvetica,sans-Serif" font-size="10.00">rawspeed::DcrDecoder</text>
</a>
</g>
</g>
<!-- Node14&#45;&gt;Node15 -->
<g id="edge14" class="edge">
<title>Node14&#45;&gt;Node15</title>
<path fill="none" stroke="midnightblue" d="M508.95,-98.17C516.12,-100.19 523.29,-102.47 530,-105 546.93,-111.39 549.26,-117.13 566,-124 574.56,-127.51 584.01,-130.7 592.93,-133.43"/>
<polygon fill="midnightblue" stroke="midnightblue" points="509.77,-94.76 499.2,-95.57 507.96,-101.53 509.77,-94.76"/>
</g>
<!-- Node16 -->
<g id="node16" class="node">
<title>Node16</title>
<g id="a_node16"><a xlink:href="../../d2/d89/classrawspeed_1_1_dcs_decoder.html" target="_top" xlink:title=" ">
<polygon fill="none" stroke="black" points="566,-95.5 566,-114.5 694,-114.5 694,-95.5 566,-95.5"/>
<text text-anchor="middle" x="630" y="-102.5" font-family="Helvetica,sans-Serif" font-size="10.00">rawspeed::DcsDecoder</text>
</a>
</g>
</g>
<!-- Node14&#45;&gt;Node16 -->
<g id="edge15" class="edge">
<title>Node14&#45;&gt;Node16</title>
<path fill="none" stroke="midnightblue" d="M540.25,-95.53C548.91,-96.45 557.56,-97.37 565.89,-98.26"/>
<polygon fill="midnightblue" stroke="midnightblue" points="540.43,-92.03 530.11,-94.44 539.68,-98.99 540.43,-92.03"/>
</g>
<!-- Node17 -->
<g id="node17" class="node">
<title>Node17</title>
<g id="a_node17"><a xlink:href="../../d9/d0e/classrawspeed_1_1_erf_decoder.html" target="_top" xlink:title=" ">
<polygon fill="none" stroke="black" points="568,-57.5 568,-76.5 692,-76.5 692,-57.5 568,-57.5"/>
<text text-anchor="middle" x="630" y="-64.5" font-family="Helvetica,sans-Serif" font-size="10.00">rawspeed::ErfDecoder</text>
</a>
</g>
</g>
<!-- Node14&#45;&gt;Node17 -->
<g id="edge16" class="edge">
<title>Node14&#45;&gt;Node17</title>
<path fill="none" stroke="midnightblue" d="M540.21,-76.48C549.53,-75.48 558.86,-74.49 567.77,-73.54"/>
<polygon fill="midnightblue" stroke="midnightblue" points="539.68,-73.01 530.11,-77.56 540.43,-79.97 539.68,-73.01"/>
</g>
<!-- Node18 -->
<g id="node18" class="node">
<title>Node18</title>
<g id="a_node18"><a xlink:href="../../d0/d98/classrawspeed_1_1_mef_decoder.html" target="_top" xlink:title=" ">
<polygon fill="none" stroke="black" points="566,-19.5 566,-38.5 694,-38.5 694,-19.5 566,-19.5"/>
<text text-anchor="middle" x="630" y="-26.5" font-family="Helvetica,sans-Serif" font-size="10.00">rawspeed::MefDecoder</text>
</a>
</g>
</g>
<!-- Node14&#45;&gt;Node18 -->
<g id="edge17" class="edge">
<title>Node14&#45;&gt;Node18</title>
<path fill="none" stroke="midnightblue" d="M508.95,-73.83C516.12,-71.81 523.29,-69.53 530,-67 546.93,-60.61 549.26,-54.87 566,-48 574.56,-44.49 584.01,-41.3 592.93,-38.57"/>
<polygon fill="midnightblue" stroke="midnightblue" points="507.96,-70.47 499.2,-76.43 509.77,-77.24 507.96,-70.47"/>
</g>
</g>
</svg>
        <g id="navigator" transform="translate(0 0)" fill="#404254">
                <rect fill="#f2f5e9" fill-opacity="0.5" stroke="#606060" stroke-width=".5" x="0" y="0" width="60" height="60"/>
                <use id="zoomplus" xlink:href="#zoomPlus" x="17" y="9" onmousedown="handleZoom(evt,'in')"/>
                <use id="zoomminus" xlink:href="#zoomMin" x="42" y="9" onmousedown="handleZoom(evt,'out')"/>
                <use id="reset" xlink:href="#resetDef" x="30" y="36" onmousedown="handleReset()"/>
                <g id="arrowUp" xlink:href="#dirArrow" transform="translate(30 24)" onmousedown="handlePan(0,-1)">
                  <use xlink:href="#rim" fill="#404040">
                        <set attributeName="fill" to="#808080" begin="arrowUp.mouseover" end="arrowUp.mouseout"/>
                  </use>
                  <path fill="none" stroke="white" stroke-width="1.5" d="M0,-3.0v7 M-2.5,-0.5L0,-3.0L2.5,-0.5"/>
                </g>
                <g id="arrowRight" xlink:href="#dirArrow" transform="rotate(90) translate(36 -43)" onmousedown="handlePan(1,0)">
                  <use xlink:href="#rim" fill="#404040">
                        <set attributeName="fill" to="#808080" begin="arrowRight.mouseover" end="arrowRight.mouseout"/>
                  </use>
                  <path fill="none" stroke="white" stroke-width="1.5" d="M0,-3.0v7 M-2.5,-0.5L0,-3.0L2.5,-0.5"/>
                </g>
                <g id="arrowDown" xlink:href="#dirArrow" transform="rotate(180) translate(-30 -48)" onmousedown="handlePan(0,1)">
                  <use xlink:href="#rim" fill="#404040">
                        <set attributeName="fill" to="#808080" begin="arrowDown.mouseover" end="arrowDown.mouseout"/>
                  </use>
                  <path fill="none" stroke="white" stroke-width="1.5" d="M0,-3.0v7 M-2.5,-0.5L0,-3.0L2.5,-0.5"/>
                </g>
                <g id="arrowLeft" xlink:href="#dirArrow" transform="rotate(270) translate(-36 17)" onmousedown="handlePan(-1,0)">
                  <use xlink:href="#rim" fill="#404040">
                        <set attributeName="fill" to="#808080" begin="arrowLeft.mouseover" end="arrowLeft.mouseout"/>
                  </use>
                  <path fill="none" stroke="white" stroke-width="1.5" d="M0,-3.0v7 M-2.5,-0.5L0,-3.0L2.5,-0.5"/>
                </g>
        </g>
        <svg viewBox="0 0 15 15" width="100%" height="30px" preserveAspectRatio="xMaxYMin meet">
         <g id="arrow_out" transform="scale(0.3 0.3)">
          <a xlink:href="classrawspeed_1_1_abstract_tiff_decoder__inherit__graph_org.svg" target="_base">
           <rect id="button" ry="5" rx="5" y="6" x="6" height="38" width="38"
                fill="#f2f5e9" fill-opacity="0.5" stroke="#606060" stroke-width="1.0"/>
           <path id="arrow"
             d="M 11.500037,31.436501 C 11.940474,20.09759 22.043105,11.32322 32.158766,21.979434 L 37.068811,17.246167 C 37.068811,17.246167 37.088388,32 37.088388,32 L 22.160133,31.978069 C 22.160133,31.978069 26.997745,27.140456 26.997745,27.140456 C 18.528582,18.264221 13.291696,25.230495 11.500037,31.436501 z"
             style="fill:#404040;"/>
          </a>
         </g>
        </svg>
</svg>
