<?xml version="1.0" encoding="UTF-8" standalone="no"?>
<!DOCTYPE svg PUBLIC "-//W3C//DTD SVG 1.1//EN"
 "http://www.w3.org/Graphics/SVG/1.1/DTD/svg11.dtd">
<!-- Generated by graphviz version 2.43.0 (0)
 -->
<!-- Title: LLVMFuzzerTestOneInput Pages: 1 -->
<svg width="834pt" height="451pt"
 viewBox="0.00 0.00 834.00 451.12" xmlns="http://www.w3.org/2000/svg" xmlns:xlink="http://www.w3.org/1999/xlink">
<g id="graph0" class="graph" transform="scale(1 1) rotate(0) translate(4 447.12)">
<title>LLVMFuzzerTestOneInput</title>
<!-- Node1 -->
<g id="node1" class="node">
<title>Node1</title>
<g id="a_node1"><a xlink:title=" ">
<polygon fill="#bfbfbf" stroke="black" points="0,-202 0,-221 136,-221 136,-202 0,-202"/>
<text text-anchor="middle" x="68" y="-209" font-family="Helvetica,sans-Serif" font-size="10.00">LLVMFuzzerTestOneInput</text>
</a>
</g>
</g>
<!-- Node2 -->
<g id="node2" class="node">
<title>Node2</title>
<g id="a_node2"><a xlink:href="../../dd/da0/classrawspeed_1_1_byte_stream.html#a804858089e7e6c442815d46128cca1ed" target="_top" xlink:title=" ">
<polygon fill="none" stroke="black" points="698,-218.5 698,-248.5 826,-248.5 826,-218.5 698,-218.5"/>
<text text-anchor="start" x="706" y="-236.5" font-family="Helvetica,sans-Serif" font-size="10.00">rawspeed::ByteStream</text>
<text text-anchor="middle" x="762" y="-225.5" font-family="Helvetica,sans-Serif" font-size="10.00">::ByteStream</text>
</a>
</g>
</g>
<!-- Node1&#45;&gt;Node2 -->
<g id="edge1" class="edge">
<title>Node1&#45;&gt;Node2</title>
<path fill="none" stroke="midnightblue" d="M72.06,-221.33C81.66,-250.51 114.05,-337.41 172,-381.5 238.52,-432.1 270.21,-421.06 353,-432.5 416.84,-441.32 436.11,-450.47 498,-432.5 580.89,-408.43 594.08,-381.76 662,-328.5 690.79,-305.92 720.68,-276.24 739.98,-256.1"/>
<polygon fill="midnightblue" stroke="midnightblue" points="742.73,-258.29 747.07,-248.62 737.65,-253.47 742.73,-258.29"/>
</g>
<!-- Node3 -->
<g id="node3" class="node">
<title>Node3</title>
<g id="a_node3"><a xlink:href="../../dc/d44/classrawspeed_1_1_raw_image_data.html#a9c4e731cd919ff9b06fe440284b2e8c8" target="_top" xlink:title=" ">
<polygon fill="none" stroke="black" points="172,-341.5 172,-371.5 317,-371.5 317,-341.5 172,-341.5"/>
<text text-anchor="start" x="180" y="-359.5" font-family="Helvetica,sans-Serif" font-size="10.00">rawspeed::RawImageData</text>
<text text-anchor="middle" x="244.5" y="-348.5" font-family="Helvetica,sans-Serif" font-size="10.00">::checkMemIsInitialized</text>
</a>
</g>
</g>
<!-- Node1&#45;&gt;Node3 -->
<g id="edge2" class="edge">
<title>Node1&#45;&gt;Node3</title>
<path fill="none" stroke="midnightblue" d="M74.65,-221.21C88.4,-243.99 125.84,-301.28 172,-332.5 174.26,-334.03 176.63,-335.47 179.07,-336.82"/>
<polygon fill="midnightblue" stroke="midnightblue" points="177.66,-340.03 188.17,-341.36 180.78,-333.76 177.66,-340.03"/>
</g>
<!-- Node4 -->
<g id="node4" class="node">
<title>Node4</title>
<g id="a_node4"><a xlink:href="../../dc/d44/classrawspeed_1_1_raw_image_data.html#af7cbbd3ab6bb415e7e1b1f58a285084f" target="_top" xlink:title=" ">
<polygon fill="none" stroke="black" points="172,-292.5 172,-322.5 317,-322.5 317,-292.5 172,-292.5"/>
<text text-anchor="start" x="180" y="-310.5" font-family="Helvetica,sans-Serif" font-size="10.00">rawspeed::RawImageData</text>
<text text-anchor="middle" x="244.5" y="-299.5" font-family="Helvetica,sans-Serif" font-size="10.00">::createData</text>
</a>
</g>
</g>
<!-- Node1&#45;&gt;Node4 -->
<g id="edge3" class="edge">
<title>Node1&#45;&gt;Node4</title>
<path fill="none" stroke="midnightblue" d="M86.37,-221.06C114.34,-236.45 169.98,-267.05 206.97,-287.4"/>
<polygon fill="midnightblue" stroke="midnightblue" points="205.5,-290.59 215.95,-292.34 208.87,-284.45 205.5,-290.59"/>
</g>
<!-- Node7 -->
<g id="node7" class="node">
<title>Node7</title>
<g id="a_node7"><a xlink:href="../../d9/d5a/fuzz_2librawspeed_2fuzz_2_common_8cpp.html#a9b5193764409a69db1176954187dad97" target="_top" xlink:title=" ">
<polygon fill="none" stroke="black" points="194,-202 194,-221 295,-221 295,-202 194,-202"/>
<text text-anchor="middle" x="244.5" y="-209" font-family="Helvetica,sans-Serif" font-size="10.00">CreateRawImage</text>
</a>
</g>
</g>
<!-- Node1&#45;&gt;Node7 -->
<g id="edge6" class="edge">
<title>Node1&#45;&gt;Node7</title>
<path fill="none" stroke="midnightblue" d="M136.47,-211.5C151.97,-211.5 168.36,-211.5 183.53,-211.5"/>
<polygon fill="midnightblue" stroke="midnightblue" points="183.8,-215 193.8,-211.5 183.8,-208 183.8,-215"/>
</g>
<!-- Node12 -->
<g id="node12" class="node">
<title>Node12</title>
<g id="a_node12"><a xlink:href="../../dd/d12/classrawspeed_1_1_raw_image.html#a2907002b5c707eca6939061f8b0d5e5d" target="_top" xlink:title=" ">
<polygon fill="none" stroke="black" points="364.5,-98.5 364.5,-128.5 486.5,-128.5 486.5,-98.5 364.5,-98.5"/>
<text text-anchor="start" x="372.5" y="-116.5" font-family="Helvetica,sans-Serif" font-size="10.00">rawspeed::RawImage</text>
<text text-anchor="middle" x="425.5" y="-105.5" font-family="Helvetica,sans-Serif" font-size="10.00">::operator&#45;&gt;</text>
</a>
</g>
</g>
<!-- Node1&#45;&gt;Node12 -->
<g id="edge19" class="edge">
<title>Node1&#45;&gt;Node12</title>
<path fill="none" stroke="midnightblue" d="M103.73,-201.92C163.09,-185.56 284.91,-151.98 360.17,-131.24"/>
<polygon fill="midnightblue" stroke="midnightblue" points="361.3,-134.55 370.01,-128.52 359.44,-127.8 361.3,-134.55"/>
</g>
<!-- Node14 -->
<g id="node14" class="node">
<title>Node14</title>
<g id="a_node14"><a xlink:href="../../dd/da0/classrawspeed_1_1_byte_stream.html#ab4972769baa5c0ed59ec0608ed2b307d" target="_top" xlink:title=" ">
<polygon fill="none" stroke="black" points="180.5,-90.5 180.5,-120.5 308.5,-120.5 308.5,-90.5 180.5,-90.5"/>
<text text-anchor="start" x="188.5" y="-108.5" font-family="Helvetica,sans-Serif" font-size="10.00">rawspeed::ByteStream</text>
<text text-anchor="middle" x="244.5" y="-97.5" font-family="Helvetica,sans-Serif" font-size="10.00">::getRemainSize</text>
</a>
</g>
</g>
<!-- Node1&#45;&gt;Node14 -->
<g id="edge13" class="edge">
<title>Node1&#45;&gt;Node14</title>
<path fill="none" stroke="midnightblue" d="M84.79,-201.91C112.99,-184.78 172.54,-148.6 210.15,-125.76"/>
<polygon fill="midnightblue" stroke="midnightblue" points="212.01,-128.72 218.74,-120.54 208.37,-122.74 212.01,-128.72"/>
</g>
<!-- Node16 -->
<g id="node16" class="node">
<title>Node16</title>
<g id="a_node16"><a xlink:href="../../dd/da0/classrawspeed_1_1_byte_stream.html#a7a5f5eaad404d367efb8a64fa82d20ae" target="_top" xlink:title=" ">
<polygon fill="none" stroke="black" points="180.5,-9.5 180.5,-39.5 308.5,-39.5 308.5,-9.5 180.5,-9.5"/>
<text text-anchor="start" x="188.5" y="-27.5" font-family="Helvetica,sans-Serif" font-size="10.00">rawspeed::ByteStream</text>
<text text-anchor="middle" x="244.5" y="-16.5" font-family="Helvetica,sans-Serif" font-size="10.00">::getStream</text>
</a>
</g>
</g>
<!-- Node1&#45;&gt;Node16 -->
<g id="edge15" class="edge">
<title>Node1&#45;&gt;Node16</title>
<path fill="none" stroke="midnightblue" d="M75.29,-201.98C90.42,-179.48 130.64,-121.79 172,-80.5 184.54,-67.98 199.85,-55.66 213.08,-45.78"/>
<polygon fill="midnightblue" stroke="midnightblue" points="215.43,-48.4 221.43,-39.66 211.29,-42.75 215.43,-48.4"/>
</g>
<!-- Node5 -->
<g id="node5" class="node">
<title>Node5</title>
<g id="a_node5"><a xlink:href="../../dc/d44/classrawspeed_1_1_raw_image_data.html#a724d8812aca44f04e6aeb965daeab36d" target="_top" xlink:title=" ">
<polygon fill="none" stroke="black" points="353,-392.5 353,-422.5 498,-422.5 498,-392.5 353,-392.5"/>
<text text-anchor="start" x="361" y="-410.5" font-family="Helvetica,sans-Serif" font-size="10.00">rawspeed::RawImageData</text>
<text text-anchor="middle" x="425.5" y="-399.5" font-family="Helvetica,sans-Serif" font-size="10.00">::getData</text>
</a>
</g>
</g>
<!-- Node4&#45;&gt;Node5 -->
<g id="edge4" class="edge">
<title>Node4&#45;&gt;Node5</title>
<path fill="none" stroke="midnightblue" d="M300.42,-322.66C306.3,-325.44 311.96,-328.7 317,-332.5 339.15,-349.21 330.75,-366.93 353,-383.5 354.88,-384.9 356.84,-386.22 358.87,-387.46"/>
<polygon fill="midnightblue" stroke="midnightblue" points="357.66,-390.79 368.12,-392.46 360.99,-384.63 357.66,-390.79"/>
</g>
<!-- Node6 -->
<g id="node6" class="node">
<title>Node6</title>
<g id="a_node6"><a xlink:href="../../dc/d44/classrawspeed_1_1_raw_image_data.html#a383099b27aea42a05858e18b6cf69c96" target="_top" xlink:title=" ">
<polygon fill="none" stroke="black" points="353,-343.5 353,-373.5 498,-373.5 498,-343.5 353,-343.5"/>
<text text-anchor="start" x="361" y="-361.5" font-family="Helvetica,sans-Serif" font-size="10.00">rawspeed::RawImageData</text>
<text text-anchor="middle" x="425.5" y="-350.5" font-family="Helvetica,sans-Serif" font-size="10.00">::poisonPadding</text>
</a>
</g>
</g>
<!-- Node4&#45;&gt;Node6 -->
<g id="edge5" class="edge">
<title>Node4&#45;&gt;Node6</title>
<path fill="none" stroke="midnightblue" d="M298.24,-322.53C318.27,-328.23 341.27,-334.79 362.11,-340.72"/>
<polygon fill="midnightblue" stroke="midnightblue" points="361.25,-344.12 371.83,-343.49 363.17,-337.39 361.25,-344.12"/>
</g>
<!-- Node8 -->
<g id="node8" class="node">
<title>Node8</title>
<g id="a_node8"><a xlink:href="../../dd/d12/classrawspeed_1_1_raw_image.html#a4a7b73d675f5ac9c8730a9b7f60c3d82" target="_top" xlink:title=" ">
<polygon fill="none" stroke="black" points="364.5,-294.5 364.5,-324.5 486.5,-324.5 486.5,-294.5 364.5,-294.5"/>
<text text-anchor="start" x="372.5" y="-312.5" font-family="Helvetica,sans-Serif" font-size="10.00">rawspeed::RawImage</text>
<text text-anchor="middle" x="425.5" y="-301.5" font-family="Helvetica,sans-Serif" font-size="10.00">::create</text>
</a>
</g>
</g>
<!-- Node7&#45;&gt;Node8 -->
<g id="edge7" class="edge">
<title>Node7&#45;&gt;Node8</title>
<path fill="none" stroke="midnightblue" d="M257.07,-221.1C276.06,-236.46 315.5,-266.77 353,-285.5 356.59,-287.29 360.34,-289 364.17,-290.62"/>
<polygon fill="midnightblue" stroke="midnightblue" points="363.19,-294 373.78,-294.44 365.78,-287.49 363.19,-294"/>
</g>
<!-- Node10 -->
<g id="node10" class="node">
<title>Node10</title>
<g id="a_node10"><a xlink:href="../../dd/da0/classrawspeed_1_1_byte_stream.html#ac598b7b6f0f8fd5476adb7c1363b1518" target="_top" xlink:title=" ">
<polygon fill="none" stroke="black" points="361.5,-245.5 361.5,-275.5 489.5,-275.5 489.5,-245.5 361.5,-245.5"/>
<text text-anchor="start" x="369.5" y="-263.5" font-family="Helvetica,sans-Serif" font-size="10.00">rawspeed::ByteStream</text>
<text text-anchor="middle" x="425.5" y="-252.5" font-family="Helvetica,sans-Serif" font-size="10.00">::getU32</text>
</a>
</g>
</g>
<!-- Node7&#45;&gt;Node10 -->
<g id="edge9" class="edge">
<title>Node7&#45;&gt;Node10</title>
<path fill="none" stroke="midnightblue" d="M280.44,-221.06C303,-227.24 333.05,-235.46 359.86,-242.8"/>
<polygon fill="midnightblue" stroke="midnightblue" points="359,-246.2 369.57,-245.46 360.85,-239.45 359,-246.2"/>
</g>
<!-- Node11 -->
<g id="node11" class="node">
<title>Node11</title>
<g id="a_node11"><a xlink:href="../../d8/d75/classrawspeed_1_1i_point2_d.html#ab980cc8ab2f3502a5a2c230530ba2a64" target="_top" xlink:title=" ">
<polygon fill="none" stroke="black" points="370,-196.5 370,-226.5 481,-226.5 481,-196.5 370,-196.5"/>
<text text-anchor="start" x="378" y="-214.5" font-family="Helvetica,sans-Serif" font-size="10.00">rawspeed::iPoint2D</text>
<text text-anchor="middle" x="425.5" y="-203.5" font-family="Helvetica,sans-Serif" font-size="10.00">::iPoint2D</text>
</a>
</g>
</g>
<!-- Node7&#45;&gt;Node11 -->
<g id="edge10" class="edge">
<title>Node7&#45;&gt;Node11</title>
<path fill="none" stroke="midnightblue" d="M295.36,-211.5C315.27,-211.5 338.47,-211.5 359.66,-211.5"/>
<polygon fill="midnightblue" stroke="midnightblue" points="359.88,-215 369.88,-211.5 359.88,-208 359.88,-215"/>
</g>
<!-- Node7&#45;&gt;Node12 -->
<g id="edge11" class="edge">
<title>Node7&#45;&gt;Node12</title>
<path fill="none" stroke="midnightblue" d="M274.17,-201.93C287.89,-196.57 304.09,-189.03 317,-179.5 336.52,-165.11 332.89,-152.06 353,-138.5 355.92,-136.53 359.02,-134.7 362.22,-132.99"/>
<polygon fill="midnightblue" stroke="midnightblue" points="363.97,-136.04 371.45,-128.54 360.92,-129.73 363.97,-136.04"/>
</g>
<!-- Node13 -->
<g id="node13" class="node">
<title>Node13</title>
<g id="a_node13"><a xlink:href="../../dc/d44/classrawspeed_1_1_raw_image_data.html#a180f90ba4cf9e6e6ff1c307f6106f4ed" target="_top" xlink:title=" ">
<polygon fill="none" stroke="black" points="353,-147.5 353,-177.5 498,-177.5 498,-147.5 353,-147.5"/>
<text text-anchor="start" x="361" y="-165.5" font-family="Helvetica,sans-Serif" font-size="10.00">rawspeed::RawImageData</text>
<text text-anchor="middle" x="425.5" y="-154.5" font-family="Helvetica,sans-Serif" font-size="10.00">::setCpp</text>
</a>
</g>
</g>
<!-- Node7&#45;&gt;Node13 -->
<g id="edge12" class="edge">
<title>Node7&#45;&gt;Node13</title>
<path fill="none" stroke="midnightblue" d="M280.44,-201.94C303,-195.76 333.05,-187.54 359.86,-180.2"/>
<polygon fill="midnightblue" stroke="midnightblue" points="360.85,-183.55 369.57,-177.54 359,-176.8 360.85,-183.55"/>
</g>
<!-- Node9 -->
<g id="node9" class="node">
<title>Node9</title>
<g id="a_node9"><a xlink:href="../../de/dc3/namespacerawspeed.html#a8a98a18f46994d6cae15ce24462fb7d4" target="_top" xlink:title=" ">
<polygon fill="none" stroke="black" points="542,-300 542,-319 654,-319 654,-300 542,-300"/>
<text text-anchor="middle" x="598" y="-307" font-family="Helvetica,sans-Serif" font-size="10.00">rawspeed::writeLog</text>
</a>
</g>
</g>
<!-- Node8&#45;&gt;Node9 -->
<g id="edge8" class="edge">
<title>Node8&#45;&gt;Node9</title>
<path fill="none" stroke="midnightblue" d="M486.61,-309.5C501.26,-309.5 516.99,-309.5 531.86,-309.5"/>
<polygon fill="midnightblue" stroke="midnightblue" points="531.99,-313 541.99,-309.5 531.99,-306 531.99,-313"/>
</g>
<!-- Node15 -->
<g id="node15" class="node">
<title>Node15</title>
<g id="a_node15"><a xlink:href="../../dd/da0/classrawspeed_1_1_byte_stream.html#a33bbb3baf3bb9730f9da8765175ec4ce" target="_top" xlink:title=" ">
<polygon fill="none" stroke="black" points="361.5,-49.5 361.5,-79.5 489.5,-79.5 489.5,-49.5 361.5,-49.5"/>
<text text-anchor="start" x="369.5" y="-67.5" font-family="Helvetica,sans-Serif" font-size="10.00">rawspeed::ByteStream</text>
<text text-anchor="middle" x="425.5" y="-56.5" font-family="Helvetica,sans-Serif" font-size="10.00">::check</text>
</a>
</g>
</g>
<!-- Node14&#45;&gt;Node15 -->
<g id="edge14" class="edge">
<title>Node14&#45;&gt;Node15</title>
<path fill="none" stroke="midnightblue" d="M308.61,-91.04C322.51,-87.86 337.35,-84.46 351.6,-81.2"/>
<polygon fill="midnightblue" stroke="midnightblue" points="352.39,-84.61 361.36,-78.96 350.83,-77.78 352.39,-84.61"/>
</g>
<!-- Node17 -->
<g id="node17" class="node">
<title>Node17</title>
<g id="a_node17"><a xlink:href="../../dd/da0/classrawspeed_1_1_byte_stream.html#a81cc27671b93889f9c8adb62ece8340e" target="_top" xlink:title=" ">
<polygon fill="none" stroke="black" points="361.5,-0.5 361.5,-30.5 489.5,-30.5 489.5,-0.5 361.5,-0.5"/>
<text text-anchor="start" x="369.5" y="-18.5" font-family="Helvetica,sans-Serif" font-size="10.00">rawspeed::ByteStream</text>
<text text-anchor="middle" x="425.5" y="-7.5" font-family="Helvetica,sans-Serif" font-size="10.00">::peekStream</text>
</a>
</g>
</g>
<!-- Node16&#45;&gt;Node17 -->
<g id="edge16" class="edge">
<title>Node16&#45;&gt;Node17</title>
<path fill="none" stroke="midnightblue" d="M308.61,-21.33C322.38,-20.63 337.06,-19.9 351.19,-19.19"/>
<polygon fill="midnightblue" stroke="midnightblue" points="351.55,-22.67 361.36,-18.67 351.19,-15.68 351.55,-22.67"/>
</g>
<!-- Node18 -->
<g id="node18" class="node">
<title>Node18</title>
<g id="a_node18"><a xlink:href="../../dd/da0/classrawspeed_1_1_byte_stream.html#a5eb5f775dd7efaa22b490007fe835a32" target="_top" xlink:title=" ">
<polygon fill="none" stroke="black" points="534,-125.5 534,-155.5 662,-155.5 662,-125.5 534,-125.5"/>
<text text-anchor="start" x="542" y="-143.5" font-family="Helvetica,sans-Serif" font-size="10.00">rawspeed::ByteStream</text>
<text text-anchor="middle" x="598" y="-132.5" font-family="Helvetica,sans-Serif" font-size="10.00">::getSubStream</text>
</a>
</g>
</g>
<!-- Node17&#45;&gt;Node18 -->
<g id="edge17" class="edge">
<title>Node17&#45;&gt;Node18</title>
<path fill="none" stroke="midnightblue" d="M480.48,-30.52C486.59,-33.11 492.56,-36.09 498,-39.5 531.21,-60.3 561.49,-94.43 579.59,-117.17"/>
<polygon fill="midnightblue" stroke="midnightblue" points="577,-119.55 585.91,-125.28 582.52,-115.24 577,-119.55"/>
</g>
<!-- Node18&#45;&gt;Node2 -->
<g id="edge18" class="edge">
<title>Node18&#45;&gt;Node2</title>
<path fill="none" stroke="midnightblue" d="M625.39,-155.65C652.69,-171.32 695.48,-195.89 725.68,-213.23"/>
<polygon fill="midnightblue" stroke="midnightblue" points="724.21,-216.41 734.62,-218.36 727.69,-210.34 724.21,-216.41"/>
</g>
</g>
</svg>
